<svg width="336" height="266" viewBox="0 0 336 266" fill="none" xmlns="http://www.w3.org/2000/svg">
<g clip-path="url(#clip0_3_172487)">
<path d="M182.971 259.712C183.148 260.608 183.35 261.416 183.559 262.088C183.571 262.119 183.577 262.154 183.593 262.186C184.067 263.703 184.958 265.351 186.692 265.731C188.465 266.124 190.291 264.873 190.891 263.361C191.415 262.037 191.235 260.605 190.884 259.224C190.831 259.021 190.774 258.824 190.72 258.628C190.578 258.134 190.426 257.624 190.341 257.12C190.24 256.566 190.221 256.008 190.382 255.466C190.689 254.43 191.949 253.527 193.096 253.898C193.942 254.174 194.363 254.985 194.698 255.72C195.257 256.939 195.813 258.156 196.372 259.379C196.662 260.009 196.947 260.643 197.237 261.273C197.332 261.486 197.433 261.695 197.544 261.91C198.397 263.615 199.632 265.357 201.682 265.541C204.21 265.769 206.083 263.33 206.266 261.112C206.424 259.205 205.78 257.377 204.614 255.783C204.219 255.232 203.755 254.709 203.24 254.218C201.622 252.678 199.506 251.474 197.247 250.806C196.369 250.549 195.446 250.337 194.713 249.839C194.334 249.577 194.021 249.203 193.86 248.8C193.725 248.436 193.712 248.053 193.898 247.701C194.388 246.773 195.746 246.712 196.95 246.963C197.206 247.013 197.452 247.077 197.686 247.153C198.95 247.562 200.169 248.062 201.335 248.651C202.387 249.18 203.395 249.776 204.345 250.441C205.385 251.164 206.358 251.962 207.249 252.827C207.678 253.242 208.111 253.689 208.575 254.107C209.422 254.893 210.351 255.593 211.434 255.878C211.769 255.97 212.12 256.021 212.486 256.024C214.909 256.04 216.65 253.771 216.767 251.645C216.805 251.009 216.732 250.372 216.574 249.754C216.318 248.756 215.829 247.805 215.168 246.941C214.581 246.164 213.854 245.467 213.036 244.875C212.3 244.343 211.51 243.899 210.67 243.519H210.667C209.839 243.145 208.97 242.844 208.076 242.597C207.04 242.306 205.966 242.1 204.892 241.951C204.519 241.9 204.137 241.856 203.751 241.818C202.421 241.691 201.016 241.65 199.575 241.7C196.956 241.786 194.239 242.169 191.718 242.869C193.086 241.219 194.397 239.53 195.639 237.807C196.498 236.619 197.326 235.415 198.119 234.195C199.215 232.516 200.251 230.811 201.231 229.075C201.989 227.725 202.712 226.36 203.398 224.979C206.301 219.14 208.528 213.041 210.016 206.806C201.644 211.777 194.672 216.627 185.779 220.841C186.781 224.25 187.252 227.415 187.378 230.282C187.432 231.423 187.425 232.513 187.378 233.555C187.324 234.759 187.214 235.899 187.062 236.967C186.904 238.104 186.696 239.156 186.471 240.123C185.416 244.599 183.868 247.175 183.988 247.219C183.42 248.11 183.028 249.174 182.778 250.331C182.548 251.398 182.44 252.545 182.415 253.698C182.377 255.792 182.627 257.925 182.98 259.705L182.971 259.712Z" fill="url(#paint0_linear_3_172487)"/>
<path opacity="0.6" d="M187.369 233.561C192.11 232.424 196.748 230.909 201.221 229.081C201.979 227.732 202.703 226.366 203.388 224.985C198.214 227.095 192.862 228.847 187.369 230.288C187.422 231.429 187.416 232.519 187.369 233.561Z" fill="#E08B0E"/>
<path opacity="0.6" d="M186.462 240.129C189.574 239.52 192.632 238.747 195.63 237.813C196.489 236.625 197.317 235.421 198.11 234.201C194.492 235.313 190.793 236.235 187.053 236.973C186.895 238.111 186.686 239.162 186.462 240.129Z" fill="#E08B0E"/>
<path opacity="0.6" d="M193.855 248.806C193.719 248.442 193.707 248.059 193.893 247.707C194.383 246.779 195.741 246.718 196.945 246.969C199.38 245.416 201.667 243.696 203.743 241.83C202.413 241.703 201.007 241.662 199.567 241.713C197.371 243.319 195.056 244.805 192.557 246.12C189.413 247.777 186.147 249.177 182.767 250.34C182.536 251.407 182.429 252.554 182.403 253.708C186.374 252.469 190.241 250.815 193.852 248.809L193.855 248.806Z" fill="#E08B0E"/>
<path opacity="0.6" d="M182.972 259.711C183.149 260.608 183.351 261.416 183.559 262.087C183.572 262.119 183.578 262.154 183.594 262.186C186.115 261.397 188.548 260.405 190.882 259.227C190.828 259.024 190.772 258.827 190.718 258.631C190.576 258.137 190.424 257.627 190.339 257.123C187.957 258.143 185.493 258.995 182.975 259.711H182.972Z" fill="#E08B0E"/>
<path opacity="0.6" d="M196.365 259.382C196.656 260.012 196.94 260.646 197.231 261.277C197.326 261.489 197.427 261.698 197.537 261.913C200.14 260.117 202.491 258.045 204.607 255.786C204.212 255.235 203.748 254.712 203.233 254.221C201.117 256.135 198.81 257.83 196.365 259.379V259.382Z" fill="#E08B0E"/>
<path opacity="0.6" d="M201.329 248.658C202.381 249.187 203.388 249.782 204.339 250.448C206.8 248.502 208.885 246.057 210.661 243.528C209.833 243.154 208.964 242.854 208.07 242.606C205.972 244.72 203.676 246.627 201.351 248.635C201.344 248.642 201.335 248.648 201.329 248.654V248.658Z" fill="#E08B0E"/>
<path opacity="0.6" d="M208.569 254.113C209.416 254.899 210.344 255.599 211.428 255.884C213.491 254.12 215.197 252.013 216.568 249.763C216.312 248.765 215.822 247.815 215.162 246.95C213.074 249.421 210.818 251.743 208.566 254.113H208.569Z" fill="#E08B0E"/>
<g style="mix-blend-mode:overlay" opacity="0.2">
<path d="M182.406 253.704C182.428 252.551 182.539 251.404 182.769 250.337C183.019 249.183 183.411 248.116 183.979 247.225C183.859 247.181 185.407 244.605 186.462 240.129C186.69 239.162 186.895 238.111 187.053 236.973C187.205 235.909 187.315 234.765 187.369 233.561C187.416 232.519 187.423 231.429 187.369 230.288C187.246 227.421 186.772 224.256 185.771 220.847C194.663 216.63 201.636 211.783 210.007 206.812C208.519 213.047 206.292 219.146 203.389 224.985C202.703 226.366 201.98 227.732 201.222 229.081C200.824 229.788 200.413 230.488 199.996 231.182C189.685 237.366 184.387 248.819 185.644 259.822C185.925 262.167 187.053 264.004 188.626 265.557C188.017 265.794 187.35 265.877 186.693 265.731C184.959 265.348 184.071 263.703 183.594 262.186C183.578 262.154 183.572 262.119 183.559 262.087C183.351 261.419 183.149 260.611 182.972 259.711C182.618 257.931 182.368 255.799 182.406 253.704Z" fill="black"/>
</g>
<g style="mix-blend-mode:overlay" opacity="0.3">
<path d="M206.797 242.847C209.327 243.395 211.687 244.745 213.365 246.491C214.856 248.043 216.28 250.346 215.788 252.425C215.627 253.109 214.461 253.397 213.936 252.852C212.711 251.579 212.041 250.045 210.701 248.822C209.286 247.533 207.697 246.697 205.77 246.11C203.442 245.401 204.358 242.321 206.797 242.85V242.847Z" fill="white"/>
</g>
<g style="mix-blend-mode:overlay" opacity="0.3">
<path d="M202.175 253.768C204.15 255.653 206.367 259.556 204.687 262.062C204.292 262.652 203.24 262.829 202.69 262.287C201.803 261.413 201.543 260.244 200.965 259.214C200.34 258.105 199.588 257.072 198.811 256.04C197.478 254.265 200.533 252.197 202.178 253.765L202.175 253.768Z" fill="white"/>
</g>
<path d="M209.423 208.368C210.905 215.582 212.623 222.745 214.575 229.845C211.944 227.82 209.755 225.222 208.203 222.282C207.771 225.862 206.592 229.354 204.77 232.462C204.463 230.301 204.154 228.14 203.847 225.98C201.38 231.011 197.301 235.231 192.364 237.863C192.095 235.864 191.991 233.52 192.016 231.502C190.064 233.843 189.034 236.938 189.202 239.986C188.127 238.149 187.053 236.311 185.979 234.473C184.548 237.087 182.141 239.625 179.449 240.892C181.765 236.397 181.55 230.691 178.909 226.379C187.691 218.959 198.774 212.679 209.423 208.368Z" fill="#7F3E12"/>
<path d="M153.292 259.711C153.115 260.608 152.913 261.416 152.704 262.087C152.692 262.119 152.685 262.154 152.669 262.186C152.196 263.703 151.305 265.351 149.57 265.731C147.798 266.124 145.972 264.872 145.372 263.361C144.847 262.037 145.028 260.605 145.378 259.223C145.432 259.021 145.489 258.824 145.542 258.628C145.685 258.134 145.836 257.623 145.922 257.12C146.023 256.565 146.042 256.008 145.881 255.466C145.574 254.43 144.314 253.527 143.167 253.898C142.32 254.173 141.9 254.984 141.565 255.719C141.006 256.939 140.45 258.156 139.891 259.379C139.6 260.009 139.313 260.643 139.025 261.273C138.93 261.486 138.829 261.695 138.719 261.91C137.866 263.615 136.631 265.357 134.58 265.541C132.053 265.769 130.18 263.329 129.997 261.112C129.839 259.204 130.483 257.376 131.649 255.783C132.044 255.232 132.508 254.709 133.023 254.218C134.64 252.678 136.757 251.474 139.016 250.806C139.894 250.549 140.816 250.337 141.549 249.839C141.928 249.576 142.241 249.202 142.402 248.8C142.538 248.436 142.551 248.052 142.364 247.701C141.875 246.772 140.516 246.712 139.313 246.963C139.057 247.013 138.81 247.077 138.577 247.153C137.313 247.561 136.094 248.062 134.928 248.651C133.876 249.18 132.865 249.776 131.917 250.441C130.878 251.164 129.905 251.962 129.014 252.827C128.584 253.242 128.152 253.689 127.687 254.107C126.841 254.892 125.912 255.593 124.828 255.878C124.493 255.97 124.143 256.02 123.776 256.024C121.353 256.039 119.613 253.771 119.496 251.645C119.458 251.008 119.53 250.371 119.688 249.754C119.944 248.756 120.434 247.805 121.094 246.94C121.682 246.164 122.408 245.467 123.227 244.875C123.963 244.342 124.752 243.899 125.593 243.519H125.596C126.424 243.145 127.292 242.844 128.186 242.597C129.223 242.305 130.297 242.099 131.371 241.95C131.744 241.9 132.126 241.855 132.511 241.817C133.841 241.691 135.247 241.649 136.688 241.7C139.306 241.786 142.023 242.169 144.544 242.869C143.176 241.219 141.865 239.53 140.624 237.806C139.764 236.618 138.937 235.414 138.144 234.195C137.048 232.516 136.011 230.811 135.032 229.075C134.274 227.725 133.551 226.36 132.865 224.978C129.962 219.139 127.735 213.041 126.247 206.806C134.618 211.777 141.587 216.627 150.483 220.841C149.482 224.25 149.011 227.415 148.885 230.282C148.831 231.423 148.837 232.512 148.885 233.555C148.939 234.759 149.049 235.899 149.201 236.967C149.359 238.104 149.567 239.156 149.791 240.122C150.847 244.599 152.395 247.175 152.275 247.219C152.843 248.109 153.235 249.174 153.484 250.33C153.715 251.398 153.822 252.545 153.848 253.698C153.886 255.792 153.636 257.924 153.282 259.705L153.292 259.711Z" fill="url(#paint1_linear_3_172487)"/>
<path opacity="0.6" d="M148.894 233.561C144.152 232.424 139.515 230.909 135.042 229.081C134.283 227.732 133.56 226.366 132.875 224.985C138.049 227.095 143.401 228.847 148.894 230.288C148.841 231.429 148.847 232.519 148.894 233.561Z" fill="#E08B0E"/>
<path opacity="0.6" d="M149.8 240.129C146.689 239.521 143.631 238.747 140.633 237.813C139.773 236.625 138.946 235.421 138.153 234.201C141.77 235.313 145.469 236.235 149.21 236.973C149.368 238.111 149.576 239.162 149.8 240.129Z" fill="#E08B0E"/>
<path opacity="0.6" d="M142.409 248.806C142.545 248.442 142.557 248.059 142.371 247.707C141.881 246.779 140.523 246.718 139.319 246.969C136.884 245.416 134.597 243.696 132.521 241.83C133.851 241.703 135.257 241.662 136.697 241.713C138.896 243.319 141.209 244.805 143.707 246.12C146.851 247.777 150.117 249.177 153.497 250.34C153.728 251.407 153.835 252.554 153.861 253.708C149.89 252.469 146.023 250.815 142.412 248.809L142.409 248.806Z" fill="#E08B0E"/>
<path opacity="0.6" d="M153.292 259.711C153.115 260.608 152.913 261.416 152.704 262.087C152.692 262.119 152.685 262.154 152.669 262.186C150.148 261.397 147.716 260.405 145.381 259.227C145.435 259.024 145.492 258.827 145.546 258.631C145.688 258.137 145.839 257.627 145.925 257.123C148.307 258.143 150.771 258.995 153.289 259.711H153.292Z" fill="#E08B0E"/>
<path opacity="0.6" d="M139.897 259.382C139.606 260.012 139.319 260.646 139.031 261.277C138.937 261.489 138.835 261.698 138.725 261.913C136.122 260.117 133.771 258.045 131.655 255.786C132.05 255.235 132.514 254.712 133.029 254.221C135.146 256.135 137.452 257.83 139.897 259.379V259.382Z" fill="#E08B0E"/>
<path opacity="0.6" d="M134.934 248.658C133.882 249.187 132.871 249.782 131.923 250.448C129.462 248.502 127.377 246.056 125.602 243.528C126.43 243.154 127.298 242.853 128.193 242.606C130.29 244.719 132.587 246.627 134.912 248.635C134.918 248.642 134.928 248.648 134.934 248.654V248.658Z" fill="#E08B0E"/>
<path opacity="0.6" d="M127.694 254.113C126.847 254.899 125.918 255.599 124.835 255.884C122.772 254.119 121.066 252.013 119.695 249.763C119.951 248.765 120.44 247.815 121.101 246.95C123.189 249.421 125.448 251.743 127.697 254.113H127.694Z" fill="#E08B0E"/>
<g style="mix-blend-mode:overlay" opacity="0.2">
<path d="M153.856 253.705C153.834 252.551 153.724 251.405 153.493 250.337C153.244 249.184 152.852 248.116 152.283 247.226C152.403 247.181 150.855 244.606 149.8 240.129C149.573 239.163 149.367 238.111 149.209 236.973C149.058 235.909 148.947 234.765 148.893 233.561C148.846 232.519 148.84 231.429 148.893 230.288C149.017 227.421 149.487 224.256 150.492 220.847C141.599 216.63 134.627 211.783 126.255 206.812C127.743 213.047 129.97 219.146 132.874 224.985C133.559 226.366 134.283 227.732 135.041 229.081C135.439 229.788 135.85 230.488 136.267 231.182C146.578 237.366 151.876 248.819 150.618 259.822C150.337 262.167 149.209 264.004 147.636 265.557C148.246 265.794 148.912 265.877 149.57 265.731C151.304 265.348 152.192 263.703 152.669 262.186C152.684 262.154 152.691 262.119 152.703 262.088C152.912 261.419 153.114 260.611 153.291 259.711C153.645 257.931 153.894 255.799 153.856 253.705Z" fill="black"/>
</g>
<g style="mix-blend-mode:overlay" opacity="0.3">
<path d="M129.465 242.847C126.935 243.395 124.575 244.745 122.897 246.491C121.406 248.043 119.982 250.346 120.474 252.425C120.635 253.109 121.801 253.397 122.326 252.852C123.551 251.579 124.221 250.045 125.56 248.822C126.976 247.533 128.565 246.697 130.492 246.11C132.82 245.401 131.904 242.321 129.465 242.85V242.847Z" fill="white"/>
</g>
<g style="mix-blend-mode:overlay" opacity="0.3">
<path d="M134.088 253.768C132.113 255.653 129.896 259.556 131.576 262.062C131.971 262.651 133.023 262.829 133.573 262.287C134.46 261.413 134.72 260.244 135.298 259.214C135.923 258.105 136.675 257.072 137.452 256.039C138.785 254.265 135.73 252.196 134.085 253.765L134.088 253.768Z" fill="white"/>
</g>
<path d="M126.84 208.368C125.358 215.582 123.64 222.745 121.688 229.845C124.319 227.82 126.508 225.223 128.059 222.282C128.492 225.863 129.671 229.354 131.493 232.462C131.8 230.301 132.109 228.14 132.416 225.98C134.883 231.011 138.961 235.231 143.899 237.864C144.168 235.865 144.272 233.52 144.247 231.502C146.199 233.843 147.229 236.939 147.061 239.986C148.135 238.149 149.21 236.311 150.284 234.474C151.715 237.087 154.122 239.625 156.813 240.892C154.498 236.397 154.713 230.691 157.354 226.379C148.571 218.959 137.489 212.68 126.84 208.368Z" fill="#7F3E12"/>
<path d="M93.9979 165.87C94.674 169.671 95.7165 173.41 97.1191 177.012C89.4046 173.122 82.7263 167.191 77.9529 159.974C77.1473 164.051 76.3354 168.135 75.5298 172.216C71.3346 167.115 69.4423 160.176 70.4595 153.647C65.6008 157.604 60.2051 160.892 54.4618 163.383C55.8613 158.051 57.7031 153.042 61.1559 148.746C48.3616 151.47 34.3163 147.336 25.019 138.11C24.4978 137.593 23.9513 136.852 24.2798 136.193C24.5073 135.743 25.0443 135.566 25.5276 135.433C27.6127 134.862 28.6204 134.802 30.7023 134.235C18.0722 129.141 9.07823 116.043 8.83182 102.392C11.8235 104.632 14.812 106.878 17.8005 109.118C1.84074 90.0737 -3.43495 62.8747 3.1486 38.8947C3.50558 37.583 3.90363 36.2777 4.33327 34.9915C25.2275 66.7843 58.2591 90.3398 95.0625 99.686C95.9092 112.571 97.6372 125.38 100.452 137.91C103.248 150.374 107.127 162.575 112.286 174.322C105.428 173.914 98.765 170.834 94.0011 165.873L93.9979 165.87Z" fill="#7F3E12"/>
<g style="mix-blend-mode:overlay" opacity="0.2">
<path d="M97.119 177.012C95.7164 173.41 94.6739 169.672 93.9978 165.87C98.7617 170.831 105.424 173.914 112.283 174.319C107.124 162.572 103.244 150.371 100.449 137.907C97.6339 125.374 95.9091 112.565 95.0593 99.6829C58.2558 90.3367 25.2243 66.7843 4.33 34.9915C3.90036 36.281 3.50548 37.5831 3.14534 38.8947C2.98423 39.4777 2.83891 40.0669 2.69043 40.6531C6.95205 57.7391 9.72258 76.498 23.234 88.1602C18.7102 89.2944 13.8136 88.9174 9.28978 89.2944C16.4515 100.256 30.0166 102.902 41.323 107.058C37.9302 111.215 32.6545 112.726 28.1338 115.752C27.0028 116.509 24.7409 118.02 25.12 118.397C34.1645 124.065 45.4709 122.934 55.6464 120.286C52.2535 128.599 45.4709 135.024 39.0643 141.072C48.4847 141.829 57.5292 139.561 66.1978 136.535C66.5737 145.983 60.5461 153.542 55.6464 161.102C62.429 156.945 68.8356 151.654 75.2422 147.117C73.1572 154.29 74.6041 161.46 76.2342 168.632C76.806 165.746 77.3778 162.857 77.9496 159.97C82.723 167.184 89.4013 173.118 97.1158 177.009L97.119 177.012Z" fill="black"/>
</g>
<path d="M100.452 137.91C100.224 140.442 100.095 142.989 100.066 145.555C90.7849 140.48 83.5159 131.805 80.1262 121.762C78.6982 126.914 77.8232 132.784 77.5073 138.123C72.9108 132.401 70.0613 125.285 69.4358 117.96C66.8421 122.354 65.4048 127.427 65.3005 132.531C61.4211 125.57 59.5036 117.083 60.7735 109.216C56.7078 113.366 50.7118 115.527 44.9401 114.922C48.0234 112.004 49.5335 108.874 51.5079 105.11C40.6817 105.363 29.8807 99.8762 23.6826 90.9672C27.2745 90.6219 30.0892 90.9102 33.6811 90.568C17.5887 77.9427 6.52551 59.092 3.14844 38.8947C3.50542 37.5831 3.90346 36.2778 4.3331 34.9915C25.2274 66.7843 58.2589 90.3399 95.0624 99.6861C95.909 112.571 97.637 125.38 100.452 137.91Z" fill="url(#paint2_linear_3_172487)"/>
<g style="mix-blend-mode:overlay" opacity="0.2">
<path d="M84.9886 122.319C81.8927 118.768 79.6118 114.5 78.3766 109.948C75.4512 114.893 74.3235 120.881 75.2554 126.555C72.6017 119.832 70.4157 111.985 70.1977 104.758C67.5156 109.263 65.4432 114.133 64.0627 119.192C63.3519 113.594 63.0992 107.936 63.3108 102.296C60.3287 105.721 56.5377 108.433 52.3393 110.15C53.9346 106.906 55.2931 103.694 56.8884 100.449C52.3993 101.701 47.5533 101.042 43.1716 99.4546C38.7899 97.8673 34.7874 95.3993 30.8227 92.9471C34.4999 92.1614 38.3066 90.761 41.551 88.857C26.4979 79.0197 15.2136 63.5272 10.4434 46.1529C18.3506 63.768 33.1541 79.4664 50.3585 88.1536C46.8835 90.7389 42.3408 92.1867 38.0286 92.5416C45.2377 94.9843 52.968 95.865 60.5403 95.1141C60.177 98.2475 58.7775 100.706 57.0495 103.342C60.057 100.991 62.6822 98.1493 64.7956 94.9652C64.8588 99.4672 64.922 103.972 64.982 108.474C66.6026 104.216 68.2201 99.9615 69.8407 95.7034C71.1391 101.419 72.4375 107.131 73.7359 112.843C73.8496 107.432 75.4197 102.056 78.2344 97.4364C78.4808 106.092 80.5879 114.865 84.9886 122.316V122.319Z" fill="white"/>
</g>
<path d="M241.686 164.713C241.01 168.515 239.967 172.253 238.565 175.856C246.279 171.965 252.958 166.034 257.731 158.817C258.537 162.895 259.348 166.978 260.154 171.059C264.349 165.958 266.242 159.02 265.224 152.49C270.083 156.447 275.479 159.736 281.222 162.226C279.823 156.894 277.981 151.885 274.528 147.589C287.322 150.314 301.368 146.179 310.665 136.953C311.186 136.437 311.733 135.696 311.404 135.037C311.177 134.587 310.64 134.409 310.156 134.276C308.071 133.706 307.063 133.646 304.982 133.079C317.612 127.984 326.606 114.887 326.852 101.235C323.86 103.475 320.872 105.721 317.883 107.961C333.843 88.914 339.119 61.7151 332.535 37.735C332.178 36.4234 331.78 35.1181 331.351 33.8318C310.456 65.6246 277.425 89.1801 240.621 98.5263C239.775 111.411 238.047 124.22 235.232 136.751C232.436 149.214 228.557 161.415 223.398 173.163C230.256 172.754 236.919 169.674 241.683 164.713H241.686Z" fill="#7F3E12"/>
<g style="mix-blend-mode:overlay" opacity="0.2">
<path d="M238.566 175.855C239.968 172.253 241.011 168.515 241.687 164.713C236.923 169.674 230.26 172.757 223.402 173.162C228.561 161.415 232.44 149.214 235.236 136.75C238.051 124.217 239.775 111.408 240.625 98.5262C277.429 89.18 310.463 65.6245 331.355 33.8316C331.784 35.1211 332.179 36.4232 332.539 37.7348C332.7 38.3178 332.846 38.9071 332.994 39.4932C328.732 56.5793 325.962 75.3381 312.45 87.0003C316.974 88.1345 321.871 87.7575 326.395 88.1345C319.233 99.0964 305.668 101.742 294.361 105.899C297.754 110.055 303.03 111.566 307.551 114.592C308.682 115.349 310.944 116.861 310.564 117.238C301.52 122.905 290.214 121.774 280.038 119.126C283.431 127.439 290.214 133.864 296.62 139.912C287.2 140.67 278.155 138.401 269.487 135.375C269.111 144.823 275.138 152.382 280.038 159.942C273.256 155.785 266.849 150.494 260.442 145.957C262.527 153.13 261.08 160.3 259.45 167.472C258.879 164.586 258.307 161.697 257.735 158.811C252.962 166.025 246.283 171.959 238.569 175.849L238.566 175.855Z" fill="black"/>
</g>
<path d="M235.235 136.751C235.462 139.282 235.592 141.829 235.62 144.396C244.902 139.32 252.171 130.646 255.561 120.602C256.988 125.754 257.863 131.625 258.179 136.963C262.776 131.241 265.625 124.125 266.251 116.801C268.844 121.195 270.282 126.267 270.386 131.371C274.266 124.411 276.183 115.923 274.913 108.056C278.979 112.207 284.975 114.367 290.747 113.762C287.663 110.844 286.153 107.714 284.179 103.95C295.005 104.204 305.806 98.7165 312.004 89.8075C308.412 89.4622 305.597 89.7505 302.006 89.4083C318.101 76.7862 329.167 57.9323 332.541 37.7351C332.184 36.4234 331.786 35.1181 331.357 33.8318C310.462 65.6247 277.431 89.1802 240.627 98.5264C239.781 111.411 238.053 124.22 235.238 136.751H235.235Z" fill="url(#paint3_linear_3_172487)"/>
<g style="mix-blend-mode:overlay" opacity="0.2">
<path d="M250.699 121.163C253.795 117.608 256.076 113.344 257.311 108.791C260.237 113.737 261.364 119.725 260.432 125.399C263.086 118.676 265.272 110.828 265.49 103.602C268.172 108.107 270.245 112.976 271.625 118.036C272.336 112.438 272.589 106.779 272.377 101.14C275.359 104.565 279.15 107.277 283.348 108.994C281.753 105.75 280.395 102.537 278.799 99.2929C283.288 100.544 288.135 99.8854 292.516 98.2981C296.898 96.7109 300.9 94.2428 304.865 91.7906C301.188 91.0049 297.381 89.6046 294.137 87.7005C309.19 77.8633 320.474 62.3708 325.244 44.9964C317.337 62.6116 302.534 78.31 285.329 86.9972C288.804 89.5824 293.347 91.0303 297.659 91.3851C290.45 93.8278 282.72 94.7086 275.147 93.9577C275.511 97.091 276.91 99.5496 278.638 102.186C275.631 99.8347 273.006 96.9928 270.892 93.8088C270.829 98.3108 270.766 102.816 270.706 107.318C269.085 103.06 267.468 98.805 265.847 94.547C264.549 100.259 263.25 105.975 261.952 111.687C261.838 106.276 260.268 100.899 257.453 96.28C257.207 104.935 255.1 113.708 250.699 121.16V121.163Z" fill="white"/>
</g>
<path d="M121.615 51.0414C110.359 37.0918 105.649 18.051 109.096 0.442125C104.388 5.28313 100.759 11.138 99.3087 17.7436C98.9327 15.0982 98.56 12.4559 98.184 9.81048C92.981 18.0129 91.7174 28.6105 94.8417 37.811C93.9098 36.6578 92.9778 35.5045 92.0459 34.3513C94.4184 45.2848 104.082 54.2286 115.139 55.7271C117.42 54.5137 119.792 52.8726 121.612 51.0382L121.615 51.0414Z" fill="#7F3E12"/>
<g style="mix-blend-mode:overlay" opacity="0.3">
<path d="M115.142 55.7304C117.423 54.5169 119.795 52.8758 121.615 51.0414C113.91 41.4925 109.272 29.5547 108.22 17.3255C106.641 25.1921 106.6 33.4104 107.867 41.1978C103.343 38.5524 100.705 34.0155 97.6911 30.2359C99.574 35.9038 100.705 41.5749 104.098 46.8657C101.09 46.1941 98.6736 44.93 96.061 43.5962C100.417 50.0244 107.44 54.6848 115.145 55.7272L115.142 55.7304Z" fill="black"/>
</g>
<path d="M217.244 51.9095C228.5 37.9599 233.21 18.9191 229.764 1.31024C234.471 6.15124 238.101 12.0061 239.551 18.6117C239.926 15.9663 240.299 13.324 240.675 10.6786C245.878 18.881 247.142 29.4787 244.017 38.6791C244.949 37.5259 245.881 36.3727 246.813 35.2194C244.441 46.1529 234.777 55.0967 223.72 56.5952C221.439 55.3818 219.067 53.7407 217.247 51.9063L217.244 51.9095Z" fill="#7F3E12"/>
<g style="mix-blend-mode:overlay" opacity="0.3">
<path d="M223.718 56.5983C221.437 55.3849 219.064 53.7438 217.245 51.9094C224.95 42.3605 229.587 30.4227 230.639 18.1935C232.219 26.0601 232.26 34.2784 230.993 42.0658C235.517 39.4204 238.155 34.8835 241.169 31.1039C239.286 36.7718 238.155 42.4428 234.762 47.7337C237.769 47.0621 240.186 45.798 242.799 44.4641C238.442 50.8924 231.42 55.5528 223.714 56.5952L223.718 56.5983Z" fill="black"/>
</g>
<path d="M169.223 234.109C196.827 231.679 221.721 210.164 228.187 183.139C228.427 186.878 227.966 190.664 226.838 194.234C238.713 176.841 245.189 155.795 245.155 134.713C246.854 137.479 248.554 140.248 250.253 143.014C250.721 133.693 249.085 124.271 245.505 115.657C247.884 116.797 250.263 117.938 252.642 119.078C252.55 109.859 249.404 100.697 243.815 93.378C244.779 94.2397 252.424 95.9537 253.387 96.8155C245.369 58.6355 221.152 41.6445 193.285 32.8781C196.7 30.5622 200.738 29.1808 204.851 28.921C199.401 25.9493 192.941 24.8499 186.866 26.1172C192.142 21.2318 197.762 16.714 203.666 12.6112C197.534 12.6397 191.311 12.8963 185.46 14.7434C179.61 16.5904 174.097 20.2148 171.137 25.6008C171.933 19.7301 174.192 14.0622 177.648 9.25922C170.294 12.8361 164.301 19.3911 162.165 27.3021C159.18 20.1198 152.154 14.7909 144.452 13.8626C147.257 18.2791 150.063 22.6987 152.871 27.1152C146.01 23.5003 137.161 24.042 130.792 28.4712C135.885 27.1944 141.521 28.3191 145.738 31.4524C130.811 34.8582 116.772 42.2877 106.549 53.7185C96.3265 65.1462 89.7461 79.8023 87.9865 95.054C90.975 91.9428 93.9666 88.8316 96.9551 85.7204C86.6596 104.669 84.1797 127.743 90.2136 148.457C90.9844 145.308 91.7553 142.156 92.5261 139.006C95.4514 161.181 100.149 183.795 112.488 202.424C124.828 221.056 147.011 236.064 169.229 234.109H169.223Z" fill="url(#paint4_linear_3_172487)"/>
<path d="M161.514 96.7839C162.165 83.7594 153.585 70.8015 141.365 66.3502C129.146 61.8957 114.273 66.309 106.435 76.7134C108.167 76.3427 109.898 75.9689 111.629 75.5982C104.483 82.6823 100.054 92.4593 99.4316 102.518C101.04 100.152 102.648 97.7882 104.256 95.4216C101.128 105.294 105.431 117.025 114.191 122.51C113.654 120.913 113.117 119.316 112.583 117.719C116.974 123.824 124.963 127.1 132.362 125.83C131.569 124.553 130.552 123.954 129.762 122.678C137.218 125.865 146.37 124.623 152.716 119.566C159.06 114.507 161.113 104.91 161.517 96.7902L161.514 96.7839Z" fill="#7F3E12"/>
<g style="mix-blend-mode:overlay" opacity="0.2">
<path d="M152.524 81.1204C152.353 80.9334 152.176 80.7433 151.996 80.5564C149.222 77.667 145.697 75.5 141.868 74.3278C132.008 71.3021 121.593 75.1768 115.669 82.4003C114.384 83.9749 113.313 85.6224 112.485 87.3237C111.458 89.4084 110.779 91.5659 110.432 93.7234C108.29 106.612 117.84 119.579 135.686 118.825C136.159 118.806 136.63 118.781 137.094 118.746C138.033 118.657 138.958 118.515 139.871 118.315C151.99 115.701 159.297 103.431 157.663 92.1393C157.101 88.2013 155.443 84.3709 152.524 81.1235V81.1204Z" fill="black"/>
</g>
<path d="M143.387 76.8053C135.262 74.3151 125.993 77.7114 120.379 84.0383C117.034 87.8116 114.987 92.6241 115.258 97.8485C115.758 107.461 123.801 114.504 132.975 115.78C140.756 116.864 149.415 113.582 153.957 107.024C161.324 96.3879 155.676 80.5691 143.387 76.8021V76.8053Z" fill="url(#paint5_radial_3_172487)"/>
<path d="M137.389 84.9603C129.32 87.7705 126.42 98.6152 131.121 105.329C137.247 114.082 152.65 112.448 155.749 101.777C158.902 90.9197 147.687 81.3739 137.389 84.9603Z" fill="#4FA89F"/>
<path d="M141.371 89.2816C139.52 89.8772 137.868 91.1666 136.822 93.2069C133.211 100.269 142.044 108.547 148.808 104.318C152.485 102.018 153.42 96.9454 151.348 93.2608C149.291 89.5952 144.957 88.1315 141.368 89.2847L141.371 89.2816Z" fill="#472113"/>
<path d="M146.809 92.1486C144.891 92.5193 143.454 94.4266 143.64 96.375C143.88 98.8937 146.622 100.551 148.97 99.5876C153.083 97.8989 151.342 91.2679 146.809 92.1486Z" fill="white"/>
<path d="M140.183 101.28C139.883 101.036 139.545 100.884 139.163 100.82C138.876 100.763 138.594 100.779 138.32 100.874C138.045 100.918 137.795 101.026 137.571 101.204C137.334 101.362 137.154 101.565 137.028 101.815C136.854 102.046 136.753 102.309 136.715 102.601C136.712 102.791 136.705 102.984 136.702 103.174C136.746 103.548 136.876 103.89 137.097 104.194C137.223 104.327 137.347 104.46 137.473 104.593C137.773 104.837 138.111 104.99 138.493 105.053C138.781 105.11 139.062 105.094 139.337 104.999C139.612 104.955 139.861 104.847 140.086 104.67C140.322 104.511 140.503 104.308 140.629 104.058C140.803 103.827 140.904 103.564 140.942 103.272C140.945 103.082 140.951 102.889 140.954 102.699C140.91 102.325 140.781 101.983 140.559 101.679L140.183 101.28Z" fill="white"/>
<g style="mix-blend-mode:overlay" opacity="0.3">
<path d="M137.388 84.9601C129.313 87.7735 126.42 98.6182 131.12 105.325C137.252 114.085 152.647 112.447 155.746 101.777C158.898 90.9132 147.69 81.3737 137.388 84.957V84.9601ZM154.343 100.731C151.522 110.483 137.445 111.972 131.853 103.976C127.557 97.8452 130.204 87.9382 137.571 85.3752C146.982 82.0929 157.221 90.8149 154.343 100.731Z" fill="black"/>
</g>
<path d="M176.675 96.7932C176.021 83.6896 184.652 70.6493 196.951 66.1695C209.246 61.6896 224.21 66.1283 232.099 76.596C230.358 76.2221 228.614 75.8483 226.873 75.4713C234.064 82.5997 238.521 92.437 239.147 102.556C237.529 100.177 235.912 97.7944 234.291 95.4151C237.437 105.347 233.11 117.152 224.292 122.671C224.833 121.065 225.373 119.459 225.913 117.849C221.497 123.992 213.457 127.29 206.011 126.007C206.807 124.724 207.83 124.122 208.627 122.836C201.124 126.042 191.915 124.794 185.53 119.706C179.146 114.614 177.083 104.958 176.675 96.7901V96.7932Z" fill="#7F3E12"/>
<g style="mix-blend-mode:overlay" opacity="0.2">
<path d="M185.662 81.1204C185.833 80.9335 186.01 80.7434 186.19 80.5565C188.964 77.6671 192.489 75.5 196.318 74.3278C206.177 71.3022 216.593 75.1769 222.516 82.4004C223.802 83.9749 224.873 85.6224 225.701 87.3237C226.727 89.4084 227.407 91.5659 227.754 93.7235C229.896 106.612 220.346 119.579 202.5 118.825C202.026 118.806 201.556 118.781 201.091 118.746C200.153 118.657 199.227 118.515 198.314 118.315C186.196 115.701 178.889 103.431 180.522 92.1394C181.085 88.2013 182.743 84.371 185.662 81.1236V81.1204Z" fill="black"/>
</g>
<path d="M194.798 76.8054C202.923 74.3152 212.192 77.7115 217.805 84.0384C221.151 87.8118 223.198 92.6243 222.926 97.8486C222.427 107.461 214.384 114.504 205.21 115.781C197.429 116.864 188.77 113.582 184.227 107.024C176.86 96.3881 182.509 80.5693 194.798 76.8023V76.8054Z" fill="url(#paint6_radial_3_172487)"/>
<path d="M200.796 84.9606C208.864 87.7708 211.764 98.6155 207.064 105.329C200.938 114.083 185.534 112.448 182.435 101.777C179.282 90.92 190.494 81.3742 200.796 84.9606Z" fill="#4FA89F"/>
<path d="M196.816 89.282C198.667 89.8776 200.319 91.167 201.365 93.2074C204.976 100.269 196.143 108.548 189.379 104.318C185.702 102.018 184.767 96.9458 186.839 93.2612C188.896 89.5956 193.23 88.1319 196.819 89.2851L196.816 89.282Z" fill="#472113"/>
<path d="M191.375 92.1493C193.293 92.5199 194.73 94.4272 194.544 96.3756C194.304 98.8943 191.562 100.551 189.214 99.5882C185.101 97.8995 186.842 91.2685 191.375 92.1493Z" fill="white"/>
<path d="M198 101.28C198.3 101.036 198.638 100.884 199.02 100.821C199.308 100.764 199.589 100.779 199.864 100.874C200.139 100.919 200.388 101.027 200.612 101.204C200.849 101.362 201.029 101.565 201.156 101.815C201.33 102.047 201.431 102.31 201.469 102.601C201.472 102.791 201.478 102.984 201.481 103.175C201.437 103.548 201.307 103.891 201.086 104.195C200.96 104.328 200.837 104.461 200.71 104.594C200.41 104.838 200.072 104.99 199.69 105.053C199.402 105.11 199.121 105.094 198.846 104.999C198.572 104.955 198.322 104.847 198.098 104.67C197.861 104.512 197.681 104.309 197.554 104.058C197.381 103.827 197.28 103.564 197.242 103.273C197.238 103.083 197.232 102.889 197.229 102.699C197.273 102.325 197.403 101.983 197.624 101.679L198 101.28Z" fill="white"/>
<g style="mix-blend-mode:overlay" opacity="0.3">
<path d="M182.442 101.777C185.541 112.448 200.935 114.083 207.067 105.326C211.767 98.6154 208.871 87.7707 200.799 84.9605C190.497 81.3773 179.292 90.9167 182.445 101.78L182.442 101.777ZM200.613 85.3724C207.98 87.9354 210.63 97.8455 206.331 103.973C200.739 111.969 186.665 110.48 183.841 100.729C180.963 90.8121 191.199 82.0901 200.613 85.3724Z" fill="black"/>
</g>
<path d="M161.056 138.278C156.387 135.185 150.271 134.4 144.977 136.212C148.183 136.678 151.197 138.366 153.276 140.86C144.288 141.991 135.556 147.111 130.34 154.537C133.241 153.802 136.144 153.067 139.044 152.329C129.263 159.305 123.602 171.702 124.724 183.687C125.902 181.134 127.567 178.805 129.604 176.866C127.046 185.769 128.654 195.784 133.872 203.428C133.237 200.697 133.724 198.391 134.321 195.65C134.45 202.687 136.99 209.66 141.416 215.122C145.839 220.587 152.122 224.51 158.962 226.084C157.888 224.605 157.531 223.47 156.46 221.991C160.09 224.364 163.723 226.734 167.352 229.107C169.681 226.268 172.628 224.595 174.956 221.76C174.707 224.408 173.898 227 172.603 229.322C178.147 225.935 183.088 221.563 187.135 216.472C187.435 217.73 186.765 219.345 185.969 220.362C195.999 214.308 202.425 202.674 202.219 190.933C203.553 192.523 204.428 196.059 204.39 198.138C207.767 190.375 208.196 181.365 205.568 173.315C207.015 174.918 208.465 176.518 209.912 178.121C210.038 164.742 201.635 151.666 189.435 146.255C192.174 146.04 194.95 146.315 197.595 147.063C192.707 141.322 184.626 138.518 177.247 140.004C178.438 137.866 178.362 134.907 178.643 132.473C175.339 134.755 172.037 137.036 168.733 139.317C168.629 135.341 166.481 131.472 163.164 129.293C162.743 132.578 161.477 134.992 161.056 138.278Z" fill="url(#paint7_linear_3_172487)"/>
<path d="M161.271 96.0647C153.174 104.125 158.324 117.808 163.994 125.656C167.997 131.194 173.096 124.129 175.25 120.621C178.855 114.744 182.127 107.584 180.011 100.624C177.705 93.0359 167.036 90.3271 161.271 96.0647Z" fill="url(#paint8_linear_3_172487)"/>
<g style="mix-blend-mode:overlay" opacity="0.25">
<path d="M180.01 100.624C179.28 98.2255 177.717 96.3183 175.736 95.0067C178.162 101.337 178.38 108.354 173.607 113.861C169.61 118.153 164.805 119.573 160.108 119.006C161.248 121.461 162.604 123.736 163.994 125.659C167.996 131.197 173.095 124.132 175.249 120.625C178.857 114.748 182.127 107.588 180.01 100.627V100.624Z" fill="black"/>
</g>
<g style="mix-blend-mode:overlay" opacity="0.4">
<path d="M169.655 94.6231C161.612 95.2283 157.316 104.593 160.447 111.906C160.911 112.992 162.576 112.216 162.266 111.104C161.445 108.164 161.748 104.913 163.457 102.366C165.03 100.025 167.529 98.821 170.107 98.1081C171.917 97.6107 171.611 94.4742 169.655 94.6231Z" fill="white"/>
</g>
<g style="mix-blend-mode:overlay" opacity="0.25">
<path d="M153.635 37.8238C151.525 34.2818 149.244 30.5718 145.624 28.6107C148.031 29.0194 150.454 29.4313 152.767 30.2138C155.079 30.9963 157.306 32.1749 159.009 33.9301C157.578 30.0681 156.352 26.6749 154.921 22.8129C157.758 25.867 160.45 29.0606 162.98 32.3713C163.899 28.4491 165.548 24.5269 167.946 21.2985C167.03 24.8469 166.98 28.6139 167.801 32.1844C172.426 25.4964 179.704 19.9077 187.539 17.7913C184.794 21.213 182.469 24.9768 180.633 28.9655C185.896 27.0361 191.51 26.4436 197.019 27.486C193.658 29.295 190.584 31.6363 187.946 34.399C193.064 33.1095 198.814 34.7697 202.469 38.5873C196.122 36.7846 189.283 37.2123 183.183 39.7311C184.531 35.5364 187.182 32.0323 190.941 29.7481C185.347 30.5465 179.973 32.8307 175.506 36.3062C176.593 31.3734 179.12 26.5102 182.699 22.9555C176.728 26.2124 171.778 31.3163 168.695 37.3898C167.074 34.7697 166.079 32.0419 165.558 29.0036C164.948 32.0355 164.708 35.1435 164.853 38.2325C163.388 35.8817 161.994 33.6481 160.14 31.5888C161.037 33.8002 161.934 36.0116 162.832 38.223C160.273 35.6821 156.678 33.9301 153.095 33.5689C153.383 35.1245 153.345 36.2746 153.632 37.8301L153.635 37.8238Z" fill="white"/>
</g>
<g style="mix-blend-mode:overlay" opacity="0.2">
<path d="M197.071 55.3216C193.902 53.9815 190.519 53.1419 187.091 52.8472C187.985 55.6321 189.163 58.3251 190.607 60.8659C186.456 58.4106 181.964 56.3291 177.25 55.3184C176.634 60.2165 175.434 65.0385 173.684 69.6513C172.84 65.8844 171.368 62.26 169.35 58.9745C167.773 64.2401 165.303 69.6672 161.487 73.6148C161.051 67.101 159.171 60.6885 156.018 54.9794C154.116 57.0451 152.518 59.3927 151.286 61.921C150.325 58.4549 150.297 55.3311 150.746 51.7637C146.74 51.6148 142.706 52.3562 139.013 53.9213C141.019 50.1004 144.44 47.0463 148.458 45.4939C146.389 46.6344 145.451 48.0791 144.178 50.0751C147.034 48.6335 150.253 47.927 153.447 48.0379C153.459 50.8354 152.985 53.2148 152.603 55.9869C153.791 53.9783 154.982 51.9697 156.17 49.9642C160.352 53.804 163.36 58.8573 164.251 64.4745C165.439 60.885 166.329 57.0419 166.819 53.2908C169.918 55.6257 172.695 58.7116 173.952 62.3867C174.271 58.5056 174.407 54.6088 174.354 50.7119C178.757 51.694 182.915 53.8674 186.093 57.0768C185.553 54.9953 185.075 52.5938 184.535 50.5123C189.084 50.8006 193.191 52.9169 197.067 55.3248L197.071 55.3216Z" fill="white"/>
</g>
<g style="mix-blend-mode:overlay" opacity="0.2">
<path d="M119.388 154.518C114.605 147.446 111.077 139.523 109.023 131.232C106.796 136.469 105.763 142.213 106.019 147.899C101.119 138.667 98.9867 127.978 99.966 117.567C96.0172 121.537 92.7222 126.159 90.2487 131.187C89.2599 123.308 91.5534 115.067 96.4689 108.842C95.7139 112.203 95.0315 115.045 94.2765 118.407C96.4026 114.947 99.1794 111.893 102.418 109.447C102.146 118.809 103.558 128.215 106.569 137.083C107.023 131.355 109.058 125.76 112.384 121.084C113.449 132.496 114.675 144.075 119.385 154.518H119.388Z" fill="white"/>
</g>
<g style="mix-blend-mode:overlay" opacity="0.2">
<path d="M239.168 109.748C243.834 116.116 246.999 123.587 248.332 131.377C246.339 127.1 243.132 123.4 239.18 120.827C238.27 128.586 237.361 136.342 236.451 144.101C235.705 137.996 233.33 131.609 230.512 126.147C226.26 134.451 221.559 142.523 216.438 150.317C217.746 143.898 217.086 137.09 214.571 131.042C212.205 136.193 208.588 140.755 204.114 144.228C206.035 140.359 207.141 136.085 207.337 131.767C208.155 133.833 208.742 134.672 208.398 136.868C210.29 133.079 212.183 129.286 214.075 125.497C217.003 130.855 218.855 136.798 219.486 142.872C222.456 134.682 225.426 126.495 228.395 118.306C231.665 122.158 234.239 126.6 235.964 131.355C235.715 125.687 235.468 120.02 235.219 114.348C237.98 116.446 240.738 118.543 243.499 120.64C242.917 116.56 241.448 113.17 239.161 109.745L239.168 109.748Z" fill="white"/>
</g>
<g style="mix-blend-mode:overlay" opacity="0.5">
<path d="M182.26 148.723C184.57 145.859 188.316 144.221 191.981 144.475C185.947 143.328 179.385 142.65 173.525 144.5C173.778 141.994 174.028 139.485 174.28 136.979C171.842 139.469 170 142.539 168.945 145.866C167.991 142.251 166.585 138.756 164.762 135.493C164.231 138.864 164.519 142.362 165.583 145.603C164.459 143.505 162.484 141.966 160.336 140.945C158.188 139.925 155.857 139.374 153.544 138.829C156.182 141.12 158.276 143.629 160.914 145.919C154.034 144.671 146.689 146.227 140.901 150.162C145.782 150.561 150.407 151.451 154.786 153.653C153.664 151.803 151.791 150.425 149.693 149.905C154.899 148.945 160.38 149.534 165.264 151.581C164.364 149.484 163.179 147.618 161.919 145.717C164.121 146.911 165.994 148.704 167.286 150.852C167.014 148.707 166.74 146.559 166.468 144.415C167.649 146.433 168.55 148.619 169.137 150.884C169.589 148.296 170.392 145.748 171.39 143.322C171.286 145.786 171.374 148.258 171.652 150.707C172.859 148.996 174.609 147.728 176.489 146.81C178.368 145.891 182.573 145.093 184.579 144.503C183.935 145.843 182.557 147.301 182.254 148.72L182.26 148.723Z" fill="white"/>
</g>
<g style="mix-blend-mode:overlay" opacity="0.3">
<path d="M87.2974 132.889C87.7649 138.157 88.7284 143.379 90.2069 148.457C90.7439 146.258 91.281 144.06 91.8212 141.861C91.4642 142.362 91.0914 142.859 90.6966 143.341C89.0791 139.947 88.0366 136.443 87.2974 132.889Z" fill="black"/>
</g>
<g style="mix-blend-mode:overlay" opacity="0.2">
<path d="M244.081 127.088C241.067 142.206 236.919 157.325 230.513 171.686C230.137 166.772 230.513 161.481 227.499 157.325C224.106 169.418 218.454 180.757 210.917 190.961C211.672 185.294 213.93 179.246 212.424 173.197C204.134 187.182 197.727 203.054 184.159 212.882C186.421 206.08 186.797 199.275 186.421 192.096C180.014 202.677 174.363 215.151 164.187 222.333C166.07 216.665 167.58 210.994 167.58 204.946C162.68 209.103 160.418 215.528 154.767 218.93C153.26 212.505 152.505 205.703 150.243 199.278C147.605 204.946 147.229 211.371 144.967 217.419C137.806 205.326 130.647 192.476 129.14 178.111C125.747 181.891 127.633 187.182 124.996 190.961C117.458 183.402 117.082 171.686 113.689 162.239C110.296 166.395 111.051 172.066 109.544 176.98C99.7449 162.996 101.631 145.989 98.993 130.113C96.6363 133.364 94.9652 137.077 92.7285 140.53C95.6696 162.213 100.43 184.223 112.486 202.427C124.825 221.059 147.008 236.067 169.226 234.112C196.83 231.682 221.724 210.167 228.191 183.142C228.431 186.881 227.969 190.667 226.842 194.237C238.717 176.844 245.193 155.798 245.158 134.717C246.45 136.82 247.745 138.924 249.037 141.031C247.578 136.339 245.935 131.688 244.084 127.091L244.081 127.088Z" fill="black"/>
</g>
</g>
<defs>
<linearGradient id="paint0_linear_3_172487" x1="216.77" y1="236.308" x2="182.402" y2="236.308" gradientUnits="userSpaceOnUse">
<stop stop-color="#FCC64C"/>
<stop offset="0.04" stop-color="#FBC349"/>
<stop offset="0.71" stop-color="#F4A72C"/>
</linearGradient>
<linearGradient id="paint1_linear_3_172487" x1="119.493" y1="0.441994" x2="153.86" y2="0.441994" gradientUnits="userSpaceOnUse">
<stop stop-color="#FCC64C"/>
<stop offset="0.04" stop-color="#FBC349"/>
<stop offset="0.71" stop-color="#F4A72C"/>
</linearGradient>
<linearGradient id="paint2_linear_3_172487" x1="53.5897" y1="36.7055" x2="49.8596" y2="143.809" gradientUnits="userSpaceOnUse">
<stop offset="0.11" stop-color="#C16A30"/>
<stop offset="0.44" stop-color="#B36128"/>
<stop offset="0.93" stop-color="#98501A"/>
</linearGradient>
<linearGradient id="paint3_linear_3_172487" x1="282.094" y1="35.5458" x2="285.824" y2="142.649" gradientUnits="userSpaceOnUse">
<stop offset="0.11" stop-color="#C16A30"/>
<stop offset="0.44" stop-color="#B36128"/>
<stop offset="0.93" stop-color="#98501A"/>
</linearGradient>
<linearGradient id="paint4_linear_3_172487" x1="169.842" y1="51.8144" x2="170.789" y2="218.709" gradientUnits="userSpaceOnUse">
<stop offset="0.11" stop-color="#C16A30"/>
<stop offset="0.44" stop-color="#B36128"/>
<stop offset="0.93" stop-color="#98501A"/>
</linearGradient>
<radialGradient id="paint5_radial_3_172487" cx="0" cy="0" r="1" gradientUnits="userSpaceOnUse" gradientTransform="translate(136.241 95.9887) scale(20.4836 20.5426)">
<stop stop-color="white"/>
<stop offset="0.48" stop-color="#FDFDFD"/>
<stop offset="0.65" stop-color="#F6F8F8"/>
<stop offset="0.77" stop-color="#EAEEEF"/>
<stop offset="0.87" stop-color="#D9E1E1"/>
<stop offset="0.95" stop-color="#C3D0D1"/>
<stop offset="1" stop-color="#B3C3C4"/>
</radialGradient>
<radialGradient id="paint6_radial_3_172487" cx="0" cy="0" r="1" gradientUnits="userSpaceOnUse" gradientTransform="translate(201.944 0.600844) rotate(-180) scale(20.4836 20.5426)">
<stop stop-color="white"/>
<stop offset="0.48" stop-color="#FDFDFD"/>
<stop offset="0.65" stop-color="#F6F8F8"/>
<stop offset="0.77" stop-color="#EAEEEF"/>
<stop offset="0.87" stop-color="#D9E1E1"/>
<stop offset="0.95" stop-color="#C3D0D1"/>
<stop offset="1" stop-color="#B3C3C4"/>
</radialGradient>
<linearGradient id="paint7_linear_3_172487" x1="168.259" y1="149.914" x2="165.282" y2="235.439" gradientUnits="userSpaceOnUse">
<stop stop-color="#FCE3AC"/>
<stop offset="1" stop-color="#E8BA67"/>
</linearGradient>
<linearGradient id="paint8_linear_3_172487" x1="169.093" y1="100.985" x2="167.908" y2="128.583" gradientUnits="userSpaceOnUse">
<stop stop-color="#FCC64C"/>
<stop offset="0.04" stop-color="#FBC349"/>
<stop offset="0.71" stop-color="#F4A72C"/>
</linearGradient>
<clipPath id="clip0_3_172487">
<rect width="334.923" height="265.362" fill="white" transform="translate(0.381348 0.442034)"/>
</clipPath>
</defs>
</svg>
