<svg width="189" height="221" viewBox="0 0 189 221" fill="none" xmlns="http://www.w3.org/2000/svg">
<path d="M85.6662 121.788C67.7289 143.662 66.7594 152.262 53.9953 132.591C52.0946 133.319 50.0292 134.284 48.3125 135.142C51.8915 169.13 70.3346 176.19 94.7057 154.584C100.526 149.424 98.369 145.137 99.0013 140.264C100.166 131.288 89.2835 129.407 85.6624 121.788H85.6662Z" fill="#984F1A"/>
<g opacity="0.4">
<path d="M62.1343 150.01C58.5054 149.362 54.9456 149.7 51.6118 150.784C50.0714 146.436 48.9524 141.226 48.3125 135.142C50.0292 134.284 52.0946 133.319 53.9953 132.591C66.7594 152.259 67.7289 143.662 85.6662 121.788C89.2874 129.411 100.17 131.288 99.0051 140.264C98.3729 145.137 100.53 149.424 94.7096 154.584C88.5938 160.005 82.8536 163.621 77.623 165.46C77.5195 164.916 77.3969 164.376 77.2474 163.836C75.1973 156.664 69.8211 151.289 62.1343 150.006V150.01Z" fill="#2B041E"/>
</g>
<path d="M43.4463 129.139L46.2053 137.663L46.7226 139.257L47.6691 142.187L47.6844 142.233C48.1404 141.95 48.5849 141.662 49.0256 141.379C49.6004 141.095 50.1867 140.789 50.7844 140.452C51.7922 139.885 52.6353 139.115 53.279 138.215C54.4861 136.544 55.0187 134.422 54.6815 132.296C54.6815 132.277 54.6815 132.261 54.6777 132.242C54.6509 132.231 54.5359 131.292 54.0722 129.875C54.0301 129.756 53.9918 129.63 53.9458 129.503C53.9381 129.48 53.9305 129.461 53.919 129.438C53.8845 129.331 53.8462 129.223 53.8002 129.112C53.7963 129.093 53.7887 129.074 53.7772 129.055C53.7542 128.99 53.7312 128.929 53.7044 128.863C53.6776 128.791 53.6469 128.714 53.6162 128.637C53.5894 128.561 53.5549 128.484 53.5204 128.411C53.486 128.331 53.4553 128.254 53.4208 128.178C53.3365 127.986 53.2484 127.791 53.1526 127.595C53.1028 127.492 53.0529 127.392 53.0031 127.289C52.9686 127.224 52.938 127.162 52.9073 127.101C52.6851 126.672 52.4322 126.224 52.1448 125.768C52.095 125.688 52.0413 125.603 51.9877 125.519C51.8229 125.259 51.6428 124.998 51.4512 124.734C51.3861 124.646 51.3247 124.561 51.2558 124.473C51.1753 124.362 51.091 124.255 51.0067 124.144C50.9569 124.079 50.9032 124.01 50.8496 123.948C50.7806 123.86 50.7078 123.776 50.6388 123.688C50.5162 123.542 50.3859 123.397 50.2556 123.251C50.1752 123.159 50.0985 123.071 50.0142 122.983C49.9874 122.956 49.9644 122.926 49.9338 122.899C49.9299 122.891 49.9223 122.887 49.9146 122.883C49.8648 122.826 49.815 122.772 49.7613 122.715C49.4816 122.424 49.1329 122.209 48.7535 122.094C48.696 122.075 48.6424 122.06 48.5849 122.044C48.5504 122.037 48.5121 122.029 48.4776 122.021C48.4508 122.018 48.4201 122.01 48.3933 122.01C48.3665 122.01 48.3397 122.002 48.3128 121.998C48.2554 121.995 48.2017 121.991 48.1442 121.987H48.1098C48.0523 121.987 47.9986 121.987 47.945 121.987C47.6614 121.998 47.4008 122.056 47.1671 122.159C46.9142 122.267 46.6919 122.42 46.5003 122.608C46.4888 122.615 46.4812 122.623 46.4697 122.638C45.6956 123.435 45.5385 124.787 46.4045 125.749C48.696 128.293 49.3743 129.649 49.29 130.457C48.6999 130.342 48.1098 130.239 47.4928 130.12C46.0903 129.825 44.7415 129.545 43.4578 129.147L43.4463 129.139Z" fill="url(#paint0_linear_3_168398)"/>
<path opacity="0.13" d="M46.2055 137.663L46.7228 139.257C47.7153 139.034 48.6848 138.479 49.3745 137.778C51.0644 136.096 51.6698 133.572 49.9531 131.56C49.478 134.058 47.903 135.95 46.2017 137.667L46.2055 137.663Z" fill="#2B041E"/>
<path opacity="0.13" d="M46.4619 122.631C46.7646 122.588 47.0597 122.592 47.3471 122.638C48.5618 122.826 49.6462 123.738 50.4969 124.814C52.3631 127.281 53.5165 130.53 53.2981 133.618C53.187 134.591 52.9379 135.51 52.5738 136.372C51.5967 138.713 49.7957 140.651 47.669 142.187L47.6843 142.233C48.1403 141.95 48.5848 141.662 49.0255 141.379C49.6003 141.095 50.1866 140.789 50.7843 140.452C51.7921 139.885 52.6352 139.115 53.2789 138.215C54.486 136.544 55.0186 134.422 54.6814 132.296C54.6814 132.277 54.6814 132.261 54.6776 132.242C54.6508 132.231 54.5358 131.292 54.0721 129.875C54.03 129.756 53.9917 129.63 53.9457 129.503C53.938 129.48 53.9304 129.461 53.9189 129.438C53.8844 129.331 53.846 129.223 53.8001 129.112C53.7962 129.093 53.7886 129.074 53.7771 129.055C53.7541 128.99 53.7311 128.929 53.7043 128.863C53.6774 128.791 53.6468 128.714 53.6161 128.637C53.5893 128.561 53.5548 128.484 53.5203 128.411C53.4858 128.331 53.4552 128.254 53.4207 128.178C53.3364 127.986 53.2483 127.791 53.1525 127.595C53.1027 127.492 53.0528 127.392 53.003 127.289C52.9685 127.224 52.9379 127.162 52.9072 127.101C52.685 126.672 52.4321 126.224 52.1447 125.768C52.0949 125.688 52.0412 125.603 51.9876 125.519C51.8228 125.259 51.6427 124.998 51.4511 124.734C51.3859 124.646 51.3246 124.561 51.2557 124.473C51.1752 124.362 51.0909 124.255 51.0066 124.144C50.9568 124.079 50.9031 124.01 50.8495 123.948C50.7805 123.86 50.7077 123.776 50.6387 123.688C50.5161 123.542 50.3858 123.397 50.2555 123.251C50.1751 123.159 50.0984 123.071 50.0141 122.983C49.9873 122.956 49.9643 122.926 49.9336 122.899C49.9298 122.891 49.9221 122.887 49.9145 122.883C49.5849 122.531 49.1941 122.24 48.7534 122.094C48.6959 122.075 48.6423 122.06 48.5848 122.044C48.5503 122.037 48.512 122.029 48.4775 122.021C48.4507 122.018 48.42 122.01 48.3932 122.01C48.3664 122.01 48.3396 122.002 48.3127 121.998C48.2706 121.991 48.2246 121.987 48.1825 121.987H48.1096C48.0522 121.987 47.9985 121.987 47.9449 121.987C47.6766 122.002 47.4161 122.067 47.1747 122.175C46.9294 122.282 46.6995 122.431 46.5002 122.608C46.4887 122.615 46.4811 122.623 46.4696 122.638L46.4619 122.631Z" fill="#2B041E"/>
<path d="M104.408 204.795C96.4877 207.956 89.1074 212.472 82.685 218.085C79.8954 217.104 77.1287 216.399 74.3391 215.418C73.7068 200.872 78.3473 186.181 86.0533 173.826C92.4718 183.913 97.9898 194.712 104.408 204.799V204.795Z" fill="url(#paint1_linear_3_168398)"/>
<path opacity="0.5" d="M79.2633 195.938C77.4201 198.283 76.6077 201.539 76.9181 205.083L76.9909 205.933L77.4737 205.393C78.631 204.11 80.934 201.508 82.0721 200.206L81.3248 199.693C81.0796 201.125 80.9723 202.627 80.9953 204.167C80.9953 206.243 81.3478 208.534 81.7655 210.714C82.781 207.871 84.3712 203.37 85.356 200.497L84.6471 200.194L85.0648 203.493C85.1644 204.247 85.5438 207.136 85.6358 207.841C86.6167 205.427 87.5747 202.991 88.4906 200.535C87.4713 202.57 86.4826 204.627 85.5093 206.695L85.9845 206.91L85.6856 203.638C85.5783 202.512 85.3062 199.716 85.2028 198.62C84.8502 199.562 83.4247 203.359 83.0416 204.374L81.4551 208.707L82.302 209.044C81.9111 206.707 81.7617 204.408 81.9073 202.225C81.9686 201.018 82.21 199.524 82.3863 198.352C80.8305 200.214 78.5007 203.025 76.9641 204.914L77.5159 205.224C77.0752 201.719 77.7075 198.467 79.2633 195.934V195.938Z" fill="#6F340A"/>
<path opacity="0.25" d="M79.4048 186.982C81.2173 182.392 83.4628 177.975 86.0494 173.823C92.4678 183.909 97.9858 194.709 104.404 204.795C96.4837 207.956 89.1034 212.472 82.6811 218.085C82.363 217.974 82.045 217.866 81.7269 217.759C84.4783 207.488 83.961 196.421 79.4048 186.982Z" fill="#2B041E"/>
<path d="M167.106 206.504C173.705 205.259 179.779 201.443 183.764 196.038C187.749 190.633 189.596 183.702 188.83 177.033C188.343 178.067 187.86 179.102 187.373 180.14C187.925 177.301 187.389 174.263 185.902 171.785C185.91 172.263 185.917 172.742 185.925 173.221C185.013 168.8 183.063 164.594 180.273 161.047C180.154 162.87 180.039 164.694 179.92 166.517C179.537 165.713 178.897 164.95 178.514 164.146C178.139 165.602 177.759 167.057 177.384 168.509C177.276 167.54 177.169 166.571 177.062 165.602C171.597 170.375 167.639 176.845 165.872 183.879C164.106 190.916 164.547 199.712 167.103 206.504H167.106Z" fill="url(#paint2_linear_3_168398)"/>
<path opacity="0.5" d="M183.27 187.832C185.335 184.155 186.189 179.814 185.749 175.608L185.645 174.6L185.105 175.474C183.806 177.554 181.216 181.749 179.94 183.84L180.813 184.139C181.062 182.277 181.147 180.396 181.085 178.519C181.036 175.976 180.572 173.328 180.039 170.838C178.939 174.765 177.219 180.971 176.154 184.925L176.977 184.986L176.418 181.132C176.284 180.251 175.778 176.88 175.655 176.06C174.583 179.443 173.54 182.848 172.544 186.258C173.671 183.319 174.759 180.37 175.824 177.408L175.272 177.355L175.698 181.228C175.851 182.557 176.226 185.867 176.376 187.158C176.759 185.848 178.307 180.576 178.721 179.163L180.445 173.16L179.461 173.118C179.97 175.807 180.192 178.558 180.081 181.297C180.039 182.802 179.798 184.737 179.622 186.25C181.365 183.289 183.978 178.826 185.703 175.838L185.059 175.7C185.653 179.799 185.002 184.059 183.273 187.84L183.27 187.832Z" fill="#6F340A"/>
<path opacity="0.25" d="M165.876 183.879C167.424 177.711 170.662 171.98 175.115 167.444C180.441 174.581 180.108 184.051 178.02 192.59C177.192 195.831 180.215 198.087 182.97 197.061C178.997 201.922 173.279 205.339 167.11 206.504C164.554 199.716 164.11 190.916 165.88 183.879H165.876Z" fill="#2B041E"/>
<g style="mix-blend-mode:overlay" opacity="0.3">
<path d="M187.968 181.358C187.113 182.66 186.255 183.963 185.4 185.262C186.27 181.879 186.431 178.316 185.871 174.868C185.435 175.96 184.994 177.052 184.557 178.144C184.913 173.681 183.841 169.111 181.534 165.272C183.752 175.072 183.768 185.361 181.576 195.168C181.629 194.87 182.461 194.272 182.683 194.046C183.078 193.647 183.473 193.245 183.867 192.847C184.136 192.579 184.419 192.383 184.611 192.061C184.871 191.629 185.044 191.111 185.239 190.648C186.044 188.744 186.711 186.783 187.228 184.783C187.519 183.653 187.764 182.511 187.96 181.362L187.968 181.358Z" fill="white"/>
</g>
<path d="M43.7603 219.774C44.5765 219.724 45.3927 219.674 46.2089 219.629C47.0059 219.583 47.8029 219.54 48.6 219.502C60.4675 218.916 72.3656 218.901 84.2408 219.456C84.1412 218.698 84.0185 217.862 83.9189 217.1C72.7642 213.396 63.2648 209.381 51.5314 208.68C48.8031 211.078 44.5573 216.227 43.7641 219.77L43.7603 219.774Z" fill="url(#paint3_linear_3_168398)"/>
<path d="M46.209 219.632C47.006 219.586 47.8031 219.544 48.6001 219.506C49.2899 216.74 50.2708 214.093 51.4894 211.484C49.3627 213.936 47.577 216.686 46.209 219.628V219.632Z" fill="#DB7B3A"/>
<g style="mix-blend-mode:overlay" opacity="0.4">
<path d="M74.4848 214.641C67.0087 212.407 59.3026 210.729 51.5928 209.515C49.7573 211.158 48.1441 213.051 46.8105 215.123C55.9076 213.472 65.4146 212.84 74.4848 214.641Z" fill="white"/>
</g>
<path opacity="0.17" d="M74.3276 215.219C75.1859 215.112 76.0366 214.932 76.8643 214.69C79.1635 215.483 81.501 216.303 83.9189 217.104C84.0185 217.862 84.1412 218.701 84.2408 219.46C72.3695 218.904 60.4675 218.92 48.6 219.506C47.8029 219.544 47.0059 219.586 46.2089 219.632C45.3927 219.678 44.5765 219.728 43.7603 219.778C44.063 218.433 44.86 216.859 45.8831 215.288C55.1258 216.92 64.6749 216.855 74.3238 215.219H74.3276Z" fill="#2B041E"/>
<path d="M83.674 160.461C83.7391 164.234 83.9077 168.007 84.1874 171.769C84.6932 178.665 85.5669 185.595 87.8048 192.138C90.0465 198.681 93.7443 204.861 99.1396 209.186C108.29 216.522 120.901 217.606 132.623 217.215C137.053 217.07 141.517 216.744 145.885 215.989C150.227 215.242 154.469 214.078 158.473 212.246C162.24 210.526 165.785 208.132 168.712 205.19C168.762 205.14 168.816 205.087 168.869 205.033C169.306 204.589 169.732 204.129 170.138 203.661C171.165 202.485 172.092 201.233 172.901 199.915C173.207 199.417 173.491 198.915 173.759 198.402C173.916 198.095 174.073 197.789 174.219 197.475C174.847 196.138 175.357 194.743 175.728 193.299C177.897 184.886 175.2 175.907 170.992 168.302C166.785 160.698 161.114 154.002 156.634 146.558C153.277 140.973 150.564 134.717 149.943 128.304C149.871 127.542 149.825 126.783 149.813 126.021C149.786 124.634 149.871 123.247 150.07 121.861C149.997 121.845 149.928 121.834 149.851 121.818C148.265 121.512 146.64 121.24 144.989 121.01C143.969 120.864 142.935 120.734 141.893 120.619C129.78 119.263 116.391 119.711 104.888 120.941C98.243 121.654 91.3685 122.136 85.9999 126.117C85.9501 126.454 85.8965 126.795 85.8505 127.132C84.7316 134.637 85.1492 139.517 84.881 147.102C84.8695 147.478 84.8427 147.88 84.8082 148.305C84.5745 151.312 83.9077 155.492 83.7199 158.645C83.6816 159.296 83.6625 159.905 83.6701 160.449L83.674 160.461Z" fill="url(#paint4_linear_3_168398)"/>
<path d="M138.325 129.737C140.226 139.751 145.713 155.63 151.564 162.74C158.443 171.103 161.673 173.907 165.938 183.863C168.701 190.318 169.919 198.015 168.869 205.041C169.306 204.596 169.731 204.136 170.138 203.669C171.165 202.493 172.092 201.24 172.9 199.922C173.345 198.336 173.632 196.724 173.786 195.096C174.491 187.652 172.36 179.883 169.03 173.064C164.662 164.115 158.362 156.27 153.246 147.723C149.399 141.291 146.173 134.173 145.234 126.821C144.985 124.902 144.897 122.964 144.989 121.018C145.015 120.52 145.054 120.018 145.1 119.516C144.034 119.853 142.962 120.221 141.889 120.631C137.313 122.366 141.398 120.186 137.631 123.121C137.547 124.684 137.796 126.986 138.321 129.737H138.325Z" fill="url(#paint5_linear_3_168398)"/>
<path d="M134.286 129.557C136.018 140.295 140.237 150.627 146.514 159.514C151.196 166.138 156.998 171.965 161.167 178.922C165.85 186.74 168.754 196.061 168.712 205.194C168.762 205.144 168.816 205.09 168.869 205.037C169.306 204.592 169.732 204.133 170.138 203.665C172.544 195.188 170.057 185.867 165.785 178.098C161.317 169.961 155.021 163.004 149.729 155.381C144.433 147.757 140.019 139.004 140.153 129.722C139.524 129.787 138.919 129.775 138.325 129.733C136.988 129.645 135.692 129.411 134.286 129.557Z" fill="url(#paint6_linear_3_168398)"/>
<path d="M142.528 124.879C145.444 135.361 149.74 145.455 155.258 154.829C159.657 162.299 164.845 169.329 168.501 177.19C171.08 182.737 173.44 188.966 173.781 195.088C173.781 195.088 173.781 195.088 173.781 195.092C173.847 196.199 173.839 197.306 173.759 198.402C173.916 198.095 174.073 197.789 174.218 197.478C175.583 190.016 174 182.097 171.038 175.041C167.601 166.831 162.412 159.503 157.638 151.99C152.863 144.478 148.403 136.548 146.678 127.817C146.18 127.507 145.701 127.166 145.23 126.818C144.337 126.159 143.471 125.465 142.524 124.875L142.528 124.879Z" fill="url(#paint7_linear_3_168398)"/>
<path d="M80.5047 145.581C81.4129 144.834 82.3249 144.087 83.2331 143.34C82.3134 144.712 81.8076 146.347 81.7463 147.995C81.7041 149.083 81.8574 150.178 82.2176 151.205C82.7694 150.676 83.2561 150.274 83.7734 149.803C83.9381 149.657 84.1029 149.504 84.2754 149.336C84.0186 152.155 83.827 155.308 83.7236 158.652C83.7044 159.25 83.6891 159.851 83.6737 160.457C83.7389 164.23 83.9075 168.003 84.1872 171.765C84.693 178.661 85.5667 185.591 87.8046 192.134C90.0462 198.677 93.7441 204.857 99.1394 209.182C108.29 216.518 121.066 219.027 137.198 217.196C140.9 216.775 130.247 170.019 118.192 145.961C115.9 141.387 113.39 137.64 110.693 135.211C108.129 132.901 115.368 126.178 112.18 124.852C108.991 123.527 105.274 123.163 102.105 124.531C99.8292 125.515 97.9285 127.331 95.5336 127.971C93.1386 128.607 89.1726 127.139 89.4101 124.669C88.1456 125.373 86.9539 126.201 85.8503 127.136C81.3248 130.955 78.2669 136.529 77.627 142.432C78.9911 141.291 80.3515 140.149 81.7156 139.008C81.2213 141.264 80.9952 143.317 80.5009 145.574L80.5047 145.581Z" fill="url(#paint8_linear_3_168398)"/>
<g style="mix-blend-mode:overlay" opacity="0.2">
<path d="M172.08 182.741C171.061 173.735 165.424 166.008 159.868 158.848C154.308 151.688 148.445 144.225 146.828 135.307C145.138 141.302 146.977 148.041 150.28 153.324C153.583 158.606 158.124 162.974 162.205 167.682C166.11 172.183 169.018 177.627 172.08 182.741Z" fill="white"/>
</g>
<path d="M39.8366 101.227L39.8443 101.243L40.0244 101.714L45.2512 115.448L45.9524 117.29L56.6703 145.447C56.7546 145.673 56.7163 145.926 56.5669 146.118C55.9653 146.868 54.3405 148.734 52.8844 148.941C51.5624 149.129 50.2404 148.91 49.6081 148.772C49.3705 148.723 49.1789 148.546 49.1061 148.317L40.3655 121.305L40.3501 121.259L39.4036 118.328L38.8863 116.735L36.1273 108.211L0.0343511 0.90023C-0.000136318 0.800627 -0.00780019 0.689531 0.00752755 0.582266C0.11099 -0.111124 1.06897 -0.218389 1.32188 0.440523L39.8366 101.231V101.227Z" fill="url(#paint9_linear_3_168398)"/>
<g style="mix-blend-mode:overlay" opacity="0.9">
<path d="M8.15029 19.6486L48.1748 128.285L45.822 128.676L7.45288 21.0661C7.38007 20.8554 7.18464 19.1966 7.34558 19.0395C7.65597 18.7331 7.95486 19.1583 8.15029 19.6486Z" fill="white"/>
</g>
<path d="M42.8982 134.15C44.0593 135.161 45.2242 136.173 46.3853 137.188C47.259 136.851 47.9602 136.448 48.899 136.295C49.8379 136.142 50.8457 136.184 51.6657 136.583C52.4857 136.981 53.072 137.782 52.9571 138.594C52.8229 139.517 51.865 140.218 50.8648 140.586C48.7189 141.367 46.0826 140.973 44.4157 139.62C42.7526 138.264 42.1012 136.039 42.8982 134.158V134.15Z" fill="url(#paint10_linear_3_168398)"/>
<path opacity="0.1" d="M44.4158 139.613C43.8564 139.157 43.4119 138.601 43.0977 137.992C44.6649 139.115 46.6269 139.735 48.9528 139.341C50.6772 139.084 51.823 138.295 52.5165 137.238C52.8423 137.628 53.0262 138.103 52.9572 138.586C52.8231 139.509 51.8651 140.21 50.865 140.578C48.7191 141.36 46.0827 140.965 44.4158 139.613Z" fill="#2B041E"/>
<path d="M41.9784 127.032C42.4688 128.595 42.9593 130.158 43.4498 131.721C44.5228 131.798 45.4692 131.725 46.4847 132.016C47.5002 132.303 48.462 132.828 49.0099 133.614C49.5579 134.399 49.6192 135.479 48.987 136.238C48.2666 137.1 46.8794 137.349 45.6608 137.241C43.0551 137.012 40.7291 135.368 39.9666 133.223C39.204 131.078 39.9972 128.541 41.9822 127.032H41.9784Z" fill="url(#paint11_linear_3_168398)"/>
<path opacity="0.1" d="M39.9626 133.219C39.7059 132.499 39.6293 131.729 39.7097 130.974C40.5259 132.836 42.051 134.391 44.5763 135.096C46.4309 135.652 48.0557 135.406 49.4122 134.679C49.4812 135.226 49.3547 135.786 48.9792 136.238C48.2588 137.1 46.8716 137.349 45.6531 137.241C43.0474 137.012 40.7214 135.368 39.9588 133.223L39.9626 133.219Z" fill="#2B041E"/>
<path d="M41.1546 121.853C41.6451 123.416 42.1356 124.979 42.6261 126.542C43.699 126.618 44.6455 126.546 45.661 126.837C46.6764 127.124 47.6383 127.649 48.1862 128.434C48.7342 129.223 48.7955 130.3 48.1632 131.058C47.4428 131.92 46.0557 132.169 44.8371 132.062C42.2314 131.832 39.9054 130.189 39.1429 128.043C38.3803 125.898 39.1735 123.362 41.1585 121.853H41.1546Z" fill="url(#paint12_linear_3_168398)"/>
<path opacity="0.1" d="M39.1389 128.043C38.8822 127.323 38.8055 126.553 38.886 125.799C39.7022 127.66 41.2273 129.216 43.7526 129.921C45.6072 130.476 47.232 130.231 48.5885 129.503C48.6574 130.051 48.531 130.61 48.1555 131.062C47.4351 131.924 46.0479 132.173 44.8293 132.066C42.2236 131.836 39.8976 130.193 39.1351 128.047L39.1389 128.043Z" fill="#2B041E"/>
<path opacity="0.35" d="M46.5881 129.35C44.4307 129.614 42.166 128.833 40.8479 127.369C40.4033 126.879 40.0623 126.312 39.9052 125.699C39.7481 125.086 39.7864 124.431 40.07 123.845C41.2502 126.331 43.6337 128.469 46.5881 129.346V129.35Z" fill="white"/>
<path opacity="0.35" d="M40.8442 131.078C41.373 132.326 42.4613 133.384 43.8408 133.981C45.2165 134.579 46.868 134.713 48.374 134.345C45.6495 133.621 43.0553 132.606 40.8442 131.074V131.078Z" fill="white"/>
<path opacity="0.35" d="M50.3548 136.924C50.9027 137.173 50.918 137.847 50.3777 138.123C49.7493 138.444 49.0442 138.651 48.3238 138.72C47.1589 138.831 45.9595 138.571 45.0054 138.008C46.5995 137.989 48.1935 137.64 49.5692 136.931C49.8068 136.809 50.1018 136.805 50.3433 136.912C50.3471 136.912 50.3548 136.916 50.3586 136.92L50.3548 136.924Z" fill="white"/>
<path opacity="0.2" d="M94.4106 154.105C102.864 159.993 115.413 163.579 124.633 157.434C138.907 173.317 147.594 194.372 148.088 215.576C147.36 215.729 146.625 215.867 145.889 215.993C141.52 216.748 137.056 217.07 132.626 217.219C131.806 217.246 130.979 217.265 130.151 217.276C117.939 209.235 106.761 195.253 112.08 180.224C106.7 177.152 102.603 172.286 99.0166 167.421C96.0775 172.248 90.7281 176.554 84.666 177.11C84.4705 175.332 84.3134 173.551 84.1831 171.773C84.0184 169.536 83.8958 167.295 83.8076 165.054C84.7043 164.801 85.5933 164.487 86.467 164.092C90.3104 162.299 93.1269 158.457 94.4067 154.105H94.4106Z" fill="#2B041E"/>
<path d="M123.185 203.309C124.791 205.584 126.58 207.726 128.519 209.726C128.519 209.726 128.515 209.726 128.511 209.726C128.565 209.779 128.619 209.833 128.672 209.887C128.925 210.147 129.182 210.4 129.439 210.657C129.569 210.783 129.699 210.909 129.83 211.036C130.094 211.292 130.362 211.545 130.63 211.794C130.772 211.925 130.914 212.051 131.056 212.177C131.316 212.411 131.573 212.649 131.837 212.878C132.24 213.231 132.65 213.576 133.064 213.917C133.255 214.078 133.451 214.235 133.646 214.388C133.983 214.656 134.321 214.917 134.662 215.177C134.681 215.192 134.7 215.208 134.719 215.219C134.98 215.418 135.244 215.618 135.512 215.809C135.754 215.985 135.999 216.162 136.244 216.33C136.378 216.426 136.509 216.518 136.643 216.61C136.784 216.709 136.93 216.809 137.072 216.909C137.118 216.939 137.164 216.97 137.21 216.997C137.283 217.05 137.359 217.1 137.436 217.146C137.658 217.295 137.88 217.445 138.11 217.59C138.379 217.763 138.651 217.935 138.927 218.104C139.149 218.242 139.375 218.38 139.601 218.51C139.762 218.606 139.923 218.705 140.088 218.801C140.287 218.92 140.486 219.035 140.689 219.146C140.701 219.15 140.708 219.157 140.72 219.165C140.751 219.184 140.785 219.199 140.816 219.219C141.08 219.368 141.345 219.517 141.613 219.659C141.276 220 140.923 220.349 140.574 220.694C141.011 220.701 141.444 220.709 141.877 220.713C142.176 220.628 142.467 220.548 142.766 220.46C145.299 219.747 147.828 219.027 150.365 218.315C150.875 218.169 151.384 218.023 151.894 217.882C152.373 217.748 152.848 217.613 153.327 217.476C153.419 217.449 153.515 217.426 153.607 217.399C153.607 217.479 153.607 217.556 153.611 217.636C153.783 217.583 153.526 217.43 153.699 217.372C153.668 217.38 153.634 217.391 153.603 217.399C153.599 217.269 153.595 217.138 153.595 217.012C153.588 216.48 153.595 215.947 153.614 215.418C153.626 215.112 153.641 214.805 153.664 214.503C153.672 214.369 153.683 214.235 153.695 214.104C153.706 213.963 153.718 213.817 153.737 213.675C153.779 213.2 153.84 212.721 153.909 212.246C153.921 212.177 153.929 212.108 153.94 212.043C153.998 211.653 154.067 211.262 154.143 210.875C154.193 210.618 154.247 210.362 154.304 210.105C154.369 209.783 154.446 209.469 154.53 209.151C154.752 208.266 155.017 207.393 155.323 206.535C155.561 206.642 155.799 206.745 156.04 206.849C156.281 206.952 156.523 207.056 156.764 207.155C157.009 207.259 157.251 207.358 157.496 207.462C158.504 207.875 159.523 208.281 160.516 208.714C160.723 208.802 160.93 208.894 161.136 208.986C164.355 198.068 165.329 186.135 159.91 176.941C159.247 175.811 158.485 174.723 157.619 173.685C157.063 173.018 156.461 172.367 155.814 171.739C152.273 168.298 146.786 163.855 141.827 162.679C137.513 161.656 132.857 161.602 128.707 163.085C128.086 163.303 127.481 163.56 126.887 163.847C126.791 163.893 126.699 163.939 126.607 163.989C126.17 164.215 125.741 164.456 125.327 164.72C122.242 166.663 119.851 169.559 118.253 172.884C116.843 175.822 116.058 179.094 115.969 182.342C115.766 189.866 118.847 197.176 123.185 203.32V203.309Z" fill="url(#paint13_linear_3_168398)"/>
<path opacity="0.25" d="M128.511 209.722C129.948 211.2 131.466 212.599 133.06 213.913C133.251 214.07 133.447 214.227 133.642 214.38C133.979 214.652 134.317 214.916 134.658 215.173C134.677 215.188 134.696 215.204 134.715 215.215C134.976 215.414 135.24 215.614 135.508 215.805C135.75 215.981 135.995 216.158 136.24 216.326C136.374 216.422 136.505 216.514 136.639 216.606C136.781 216.705 136.926 216.805 137.068 216.905C137.114 216.931 137.156 216.962 137.202 216.997C137.279 217.046 137.355 217.096 137.432 217.146C137.654 217.295 137.876 217.445 138.106 217.59C138.375 217.763 138.647 217.935 138.923 218.104C139.145 218.242 139.371 218.38 139.597 218.51C139.758 218.606 139.919 218.705 140.084 218.801C140.283 218.92 140.482 219.035 140.685 219.146C140.697 219.15 140.704 219.157 140.716 219.165C140.747 219.184 140.781 219.199 140.812 219.219C141.076 219.368 141.341 219.517 141.609 219.659C141.272 220 140.919 220.349 140.57 220.693C141.007 220.701 141.44 220.709 141.873 220.713C142.172 220.628 142.463 220.548 142.762 220.46C145.295 219.747 147.824 219.027 150.361 218.314C150.871 218.169 151.38 218.023 151.89 217.882C152.369 217.747 152.844 217.613 153.323 217.475C153.415 217.449 153.511 217.422 153.603 217.395C153.599 217.269 153.599 217.135 153.595 217.008C153.587 216.476 153.595 215.947 153.618 215.414C153.63 215.108 153.645 214.802 153.668 214.499C153.676 214.365 153.687 214.231 153.699 214.1C153.71 213.959 153.722 213.817 153.737 213.671C153.783 213.189 153.84 212.714 153.909 212.239C153.921 212.17 153.928 212.101 153.94 212.036C154.001 211.645 154.066 211.254 154.143 210.867C154.193 210.611 154.246 210.354 154.304 210.097C154.373 209.775 154.446 209.461 154.53 209.143C154.752 208.258 155.017 207.385 155.323 206.527C155.561 206.634 155.798 206.738 156.04 206.841C156.281 206.944 156.523 207.048 156.764 207.147C157.009 207.251 157.251 207.35 157.496 207.454C158.511 207.875 159.535 208.285 160.535 208.718C160.531 208.714 160.523 208.71 160.516 208.707C155.929 205.301 152.629 200.328 149.503 195.199C147.249 191.498 145.084 187.717 142.586 184.384C145.107 191.41 148.794 201.052 142.559 206.803C139.693 209.423 136.692 210.545 133.688 210.603C131.956 210.637 130.224 210.316 128.511 209.726V209.722Z" fill="#2B041E"/>
<g style="mix-blend-mode:overlay" opacity="0.2">
<path d="M122.794 199.451C120.66 195.157 118.893 190.617 118.303 185.855C117.713 181.097 118.368 176.083 120.805 171.949C123.243 167.82 127.603 164.705 132.389 164.402C124.798 173.826 121.384 187.43 122.794 199.447V199.451Z" fill="white"/>
</g>
<path opacity="0.5" d="M125.913 196.551C126.752 199.413 128.94 201.96 132.006 203.765L132.742 204.198L132.581 203.493C132.205 201.807 131.42 198.421 131.017 196.743L130.167 197.053C131.19 198.084 132.355 199.037 133.619 199.915C135.309 201.118 137.382 202.16 139.401 203.083C137.673 200.608 134.926 196.704 133.155 194.234L132.496 194.636L135.424 196.206C136.098 196.563 138.67 197.93 139.298 198.26C137.899 196.061 136.466 193.87 134.999 191.698C136.064 193.709 137.167 195.705 138.294 197.697L138.742 197.432L135.903 195.781C134.922 195.218 132.485 193.816 131.535 193.268C132.098 194.103 134.366 197.463 134.976 198.363L137.589 202.167L138.355 201.673C136.221 200.639 134.263 199.424 132.569 198.041C131.619 197.291 130.542 196.229 129.691 195.406C130.308 197.75 131.247 201.279 131.899 203.627L132.473 203.355C129.358 201.681 127.078 199.279 125.917 196.547L125.913 196.551Z" fill="#6F340A"/>
<path opacity="0.5" d="M144.307 166.46C142.532 164.985 139.819 164.429 136.7 164.843L135.953 164.939L136.355 165.326C137.309 166.257 139.245 168.115 140.214 169.03L140.762 168.371C139.555 168.222 138.267 168.195 136.926 168.276C135.125 168.364 133.091 168.762 131.136 169.206C133.462 169.953 137.145 171.122 139.501 171.842L139.862 171.225L136.942 171.719C136.271 171.834 133.715 172.283 133.091 172.39C135.049 173.125 137.03 173.842 139.03 174.52C137.405 173.735 135.761 172.976 134.098 172.237L133.845 172.65L136.723 172.256C137.716 172.114 140.18 171.769 141.145 171.631C140.375 171.367 137.279 170.314 136.451 170.03L132.91 168.858L132.5 169.597C134.585 169.164 136.597 168.942 138.474 168.973C139.513 168.973 140.777 169.118 141.766 169.218C140.367 167.969 138.252 166.1 136.827 164.866L136.482 165.353C139.586 164.828 142.318 165.234 144.299 166.452L144.307 166.46Z" fill="#6F340A"/>
<path d="M134.19 220.517C136.225 220.602 138.252 220.651 140.279 220.686C140.375 220.686 140.47 220.686 140.57 220.69C141.007 220.697 141.44 220.705 141.873 220.709C142.157 220.713 142.44 220.717 142.72 220.72C145.881 220.759 149.043 220.77 152.204 220.824C152.89 220.831 153.576 220.843 154.265 220.858C155.829 220.893 157.388 220.939 158.96 221C158.871 220.816 158.779 220.632 158.684 220.448C158.684 220.445 158.68 220.441 158.676 220.437C158.584 220.257 158.488 220.073 158.385 219.893C158.285 219.709 158.182 219.525 158.074 219.341C157.967 219.157 157.86 218.973 157.745 218.793C156.706 217.093 155.438 215.461 154.039 213.986C153.94 213.882 153.84 213.775 153.737 213.672C153.078 212.997 152.392 212.361 151.687 211.768C151.004 211.189 150.303 210.653 149.59 210.166C147.169 210.239 144.789 210.867 142.616 211.928C142.616 211.928 142.616 211.928 142.616 211.925C142.505 211.978 142.39 212.036 142.279 212.089C142.279 212.089 142.275 212.093 142.271 212.093C142.042 212.212 141.819 212.335 141.597 212.461C141.153 212.714 140.716 212.982 140.294 213.277C139.976 213.491 139.666 213.721 139.363 213.959C139.263 214.039 139.164 214.116 139.064 214.196C138.953 214.288 138.846 214.376 138.735 214.472C138.355 214.794 137.991 215.131 137.643 215.487C137.493 215.641 137.344 215.794 137.198 215.955C137.167 215.989 137.133 216.028 137.102 216.062C137.022 216.15 136.945 216.242 136.865 216.33C136.784 216.418 136.708 216.51 136.635 216.602C136.635 216.602 136.616 216.629 136.6 216.644C136.489 216.778 136.382 216.912 136.278 217.05C136.232 217.108 136.186 217.169 136.144 217.227C136.068 217.326 135.991 217.43 135.914 217.533C135.776 217.721 135.642 217.916 135.512 218.112C135.5 218.127 135.489 218.146 135.477 218.161C135.405 218.269 135.34 218.372 135.271 218.483C135.213 218.571 135.159 218.663 135.106 218.755C134.926 219.062 134.749 219.368 134.588 219.686C134.55 219.759 134.516 219.832 134.477 219.904C134.466 219.924 134.458 219.939 134.451 219.962C134.362 220.142 134.274 220.33 134.194 220.513L134.19 220.517Z" fill="url(#paint14_linear_3_168398)"/>
<path d="M150.571 212.495C151.483 215.143 152.031 217.997 152.2 220.824C152.886 220.831 153.572 220.843 154.261 220.858C153.71 217.836 152.437 214.94 150.571 212.492V212.495Z" fill="#DB7B3A"/>
<path d="M140.279 220.686C140.374 220.686 140.47 220.686 140.57 220.69C141.007 220.697 141.44 220.705 141.873 220.709C142.156 220.713 142.44 220.717 142.72 220.72C142.731 220.632 142.746 220.548 142.762 220.46C142.976 219.046 143.337 217.659 143.823 216.315C143.988 215.851 144.176 215.395 144.375 214.943C144.777 214.032 145.245 213.147 145.77 212.3C145.827 212.204 145.889 212.105 145.95 212.009C145.846 212.101 145.747 212.193 145.643 212.292C144.992 212.898 144.383 213.549 143.819 214.227C143.21 214.959 142.658 215.729 142.164 216.533C141.635 217.387 141.179 218.284 140.8 219.215C140.604 219.698 140.424 220.184 140.271 220.686H140.279Z" fill="#DB7B3A"/>
<path opacity="0.17" d="M134.19 220.517C136.225 220.602 138.252 220.651 140.279 220.686C140.375 220.686 140.47 220.686 140.57 220.69C141.007 220.697 141.44 220.705 141.873 220.709C142.157 220.713 142.44 220.716 142.72 220.72C145.881 220.759 149.043 220.77 152.204 220.824C152.89 220.831 153.576 220.843 154.265 220.858C155.829 220.893 157.388 220.939 158.96 221C158.871 220.816 158.779 220.632 158.684 220.448C158.684 220.445 158.68 220.441 158.676 220.437C158.584 220.257 158.488 220.073 158.385 219.893C158.285 219.709 158.182 219.525 158.074 219.341C157.967 219.157 157.86 218.973 157.745 218.793C156.415 218.905 155.089 218.935 153.779 218.843C153.181 218.805 152.587 218.74 151.993 218.648C151.445 218.564 150.897 218.452 150.357 218.311C149.249 218.027 148.157 217.636 147.096 217.104C146.506 216.794 145.981 216.445 145.506 216.054C145.088 215.71 144.712 215.342 144.375 214.943C144.18 214.714 143.996 214.472 143.823 214.227C143.329 213.514 142.931 212.741 142.613 211.928C142.501 211.982 142.386 212.04 142.275 212.093C142.275 212.093 142.271 212.097 142.268 212.097C142.038 212.216 141.815 212.338 141.593 212.465C141.149 212.718 140.712 212.99 140.29 213.281C139.976 213.499 139.666 213.725 139.359 213.963C139.26 214.043 139.16 214.12 139.06 214.2C138.949 214.292 138.842 214.38 138.731 214.476C138.355 214.802 137.987 215.139 137.639 215.491C137.489 215.644 137.34 215.798 137.194 215.959C137.164 215.993 137.129 216.031 137.098 216.066C137.018 216.154 136.941 216.246 136.861 216.334C136.78 216.422 136.704 216.514 136.631 216.606C136.631 216.606 136.612 216.633 136.596 216.648C136.489 216.782 136.378 216.916 136.275 217.054C136.229 217.112 136.183 217.173 136.14 217.23C136.064 217.33 135.987 217.433 135.91 217.537C135.773 217.725 135.638 217.92 135.508 218.115C135.497 218.131 135.485 218.15 135.474 218.165C135.401 218.272 135.336 218.376 135.267 218.487C135.209 218.575 135.156 218.667 135.102 218.759C134.922 219.065 134.746 219.372 134.585 219.69C134.546 219.763 134.512 219.835 134.474 219.908C134.462 219.927 134.454 219.943 134.447 219.966C134.359 220.146 134.27 220.333 134.19 220.517Z" fill="#2B041E"/>
<g style="mix-blend-mode:overlay" opacity="0.15">
<path d="M155.618 216.978C153.909 214.499 151.755 212.331 149.288 210.607C147.337 210.749 145.436 211.323 143.647 212.109C145.256 212.277 147.046 212.396 148.655 212.564C151.384 212.852 153.319 215.476 155.614 216.978H155.618Z" fill="white"/>
</g>
<path d="M140.39 137.035C142.126 149.926 137.252 163.533 127.722 172.39C116.563 171.788 105.719 168.302 96.4493 162.069C95.3994 163.349 94.6176 164.514 93.5677 165.793C92.0809 163.452 90.1611 160.778 88.6743 158.438C90.7129 155.921 92.4564 153.232 94.495 150.715C98.0587 150.979 107.711 153.745 114.249 155.515C117.034 147.807 117.774 139.023 116.49 130.932C119.081 129.423 122.142 130.84 124.963 131.859C130.304 133.79 135.052 135.104 140.394 137.035H140.39Z" fill="url(#paint15_linear_3_168398)"/>
<path opacity="0.2" d="M94.4913 150.715C95.7788 150.81 97.8634 151.232 100.304 151.814C103.768 159.89 112.118 165.808 121.089 165.119C133.949 164.245 141.245 151.136 140.605 139.042C141.605 151.32 136.758 163.989 127.726 172.39C116.567 171.788 105.723 168.302 96.4532 162.069C95.4033 163.349 94.6216 164.514 93.5716 165.793C92.0848 163.452 90.165 160.778 88.6782 158.438C90.7168 155.921 92.4603 153.232 94.4989 150.715H94.4913Z" fill="#2B041E"/>
<g style="mix-blend-mode:overlay" opacity="0.2">
<path d="M119.904 148.064C119.019 151.224 117.72 154.266 116.049 157.089C111.999 156.902 107.972 155.982 104.224 154.438C106.236 156.381 108.24 158.124 110.7 159.445C111.968 160.127 113.306 160.725 114.727 160.962C116.149 161.2 117.674 161.047 118.912 160.303C120.862 159.135 121.759 156.706 121.705 154.435C121.652 152.163 120.736 150.175 119.904 148.06V148.064Z" fill="white"/>
</g>
<path d="M87.3331 157.024C88.6015 155.132 89.5135 153.415 90.6056 151.967C92.3261 149.684 95.5296 149.167 97.8862 150.784C98.143 150.96 98.3997 151.14 98.6641 151.331C98.7139 155.875 97.5797 157.361 96.8363 162.138C96.9206 163.832 96.6677 165.073 97.0279 166.877C97.8019 170.762 95.2422 170.888 93.6903 168.77C93.5025 169.789 92.8013 170.574 91.6325 170.923C91.6287 170.923 91.621 170.923 91.6172 170.923C90.0078 170.953 88.636 170.275 88.2987 168.502C88.18 167.889 88.111 167.295 88.0727 166.72C86.8579 167.034 85.2754 165.241 85.3137 162.613C85.3405 160.648 86.2142 158.775 87.3331 157.032V157.024Z" fill="url(#paint16_linear_3_168398)"/>
<path opacity="0.13" d="M93.5061 162.882C93.5942 163.579 93.8394 164.521 94.1958 165.372C94.4296 165.927 95.2496 165.759 95.2496 165.157C95.2726 159.139 98.0431 154.81 98.25 151.04C98.3841 151.136 98.5221 151.232 98.6562 151.331C98.706 155.875 97.5717 157.361 96.8283 162.138C96.9126 163.832 96.6597 165.073 97.0199 166.877C97.794 170.762 95.2343 170.888 93.6823 168.77C93.4946 169.789 92.7933 170.574 91.6246 170.923C91.6207 170.923 91.6131 170.923 91.6093 170.923C89.9768 170.957 88.5935 170.256 88.2793 168.429C88.4939 168.536 88.72 168.632 88.9614 168.712C92.9926 169.781 93.0577 165.421 93.5022 162.885L93.5061 162.882Z" fill="#2B041E"/>
<path opacity="0.13" d="M86.6663 161.606C88.1607 162.23 89.0421 160.755 89.9004 159.533C89.0037 162.246 88.3178 164.977 88.199 167.934C88.1377 167.521 88.0917 167.115 88.0688 166.716C86.854 167.03 85.2714 165.238 85.3098 162.61C85.3213 161.939 85.4286 161.276 85.6125 160.629C85.8309 161.027 86.1643 161.364 86.6624 161.61L86.6663 161.606Z" fill="#2B041E"/>
<g style="mix-blend-mode:overlay" opacity="0.3">
<path d="M91.7817 163.705C91.6092 164.081 91.295 164.525 90.8965 164.414C90.6857 164.356 90.544 164.142 90.5056 163.924C90.4673 163.705 90.5095 163.487 90.5555 163.268C90.9042 161.545 91.2529 159.821 91.6016 158.093C91.6744 157.729 91.6744 157.231 91.3219 157.12C91.0345 157.032 90.7662 157.288 90.5785 157.522C90.111 158.093 89.6473 158.664 89.1798 159.235C88.9767 159.484 88.6778 159.763 88.3751 159.652C88.0417 159.53 88.034 159.062 88.103 158.714C88.5552 156.384 89.609 154.174 91.1417 152.362C91.4905 151.948 91.8698 151.55 92.3373 151.278C92.8048 151.006 93.3719 150.868 93.8969 151.01C95.6098 151.469 95.5217 153.756 95.081 155.074C94.4832 156.867 93.8701 158.664 93.1765 160.422C92.7397 161.529 92.276 162.625 91.7817 163.705Z" fill="white"/>
</g>
<path opacity="0.2" d="M80.505 145.581C81.4131 144.834 82.3251 144.087 83.2333 143.34C82.3136 144.712 81.8078 146.348 81.7465 147.995C82.7696 148.117 83.7928 148.225 84.8159 148.317C96.2006 149.362 107.566 148.726 118.2 145.964C130.025 142.9 140.942 137.215 149.955 128.312C149.974 128.289 149.997 128.27 150.02 128.247C149.932 127.507 149.867 126.768 149.825 126.025C149.744 124.626 149.756 123.224 149.863 121.822C135.922 119.106 118.993 119.443 104.899 120.949C98.2545 121.661 91.38 122.144 86.0114 126.124C85.9616 126.461 85.908 126.802 85.862 127.139C81.3365 130.959 78.2786 136.533 77.6387 142.436C79.0028 141.295 80.3632 140.153 81.7273 139.011C81.233 141.268 81.0069 143.321 80.5126 145.578L80.505 145.581Z" fill="#2B041E"/>
<path d="M50.466 99.9477C49.4007 103.917 50.4353 108.387 53.1406 111.479C53.0563 110.18 52.9759 108.885 52.8954 107.583C53.3936 115.493 64.3452 121.765 70.3614 124.879C92.4601 136.322 121.28 140.567 145.881 137.054C153.61 135.95 163.228 132.997 166.022 124.799C165.604 126.028 165.183 127.258 164.765 128.492C168.187 126.216 170.359 122.175 170.371 118.064C170.869 119.133 171.367 120.198 171.865 121.267C173.157 111.176 167.853 102.84 159.925 96.4731C160.81 90.903 161.274 85.3827 161.266 80.0424C161.243 54.9118 150.805 33.681 124.507 29.1989C101.17 25.2224 83.9226 38.5271 74.0937 56.8272C70.346 63.8071 67.6752 71.511 66.1577 79.2648C56.6852 83.2642 49.5999 92.466 48.1821 102.648C48.9447 101.748 49.7034 100.848 50.466 99.9477Z" fill="url(#paint17_linear_3_168398)"/>
<path d="M140.187 38.6919C140.677 39.0022 141.218 38.5387 141.708 38.8413C141.681 38.8413 141.785 39.0444 141.781 39.0788C144.49 38.9486 147.15 38.0943 149.464 36.6845C151.576 35.3974 153.407 33.6466 154.737 31.5665C157.53 27.1954 158.055 21.4568 156.097 16.649C155.729 15.7411 155.128 14.7565 154.154 14.6416C154.135 14.6416 154.12 14.6378 154.101 14.6378C153.392 14.5765 152.737 15.0094 152.177 15.4576C149.077 17.94 146.95 21.4261 145.199 24.9927C143.049 29.3675 141.363 33.9723 140.187 38.6996V38.6919Z" fill="url(#paint18_linear_3_168398)"/>
<path d="M140.187 38.6919C140.677 39.0022 141.218 38.5387 141.708 38.8413C141.681 38.8413 141.785 39.0444 141.781 39.0788C144.49 38.9486 147.15 38.0943 149.464 36.6845C148.188 33.6964 147.705 30.3712 148.108 27.1456C148.69 22.4911 151.043 18.2235 154.101 14.6378C153.392 14.5765 152.737 15.0094 152.177 15.4576C149.077 17.94 146.95 21.4261 145.199 24.9927C143.049 29.3675 141.363 33.9723 140.187 38.6996V38.6919Z" fill="url(#paint19_linear_3_168398)"/>
<path opacity="0.2" d="M145.195 24.9811C146.701 21.9202 148.483 18.9168 150.92 16.557C148.192 20.2998 146.529 23.4794 145.418 28.245C144.716 31.5013 145.157 35.4203 147.1 37.8721C145.41 38.5654 143.605 38.9868 141.777 39.075C141.781 39.0405 141.681 38.8336 141.704 38.8374C141.214 38.5348 140.674 38.9983 140.183 38.688C141.36 33.9607 143.046 29.356 145.195 24.9811Z" fill="#2B041E"/>
<g style="mix-blend-mode:overlay" opacity="0.4">
<path d="M154.84 15.8943C156.116 18.212 156.733 20.8859 156.599 23.5292C156.465 26.1726 155.588 28.7699 154.085 30.9497C155.649 26.2415 155.771 20.7672 154.84 15.8943Z" fill="white"/>
</g>
<path d="M104.427 33.9186C103.872 34.0872 103.473 33.501 102.918 33.6619C102.944 33.6619 102.791 33.8382 102.787 33.8726C100.208 33.0337 97.867 31.5128 96.0047 29.5476C94.3033 27.7509 92.9966 25.5826 92.2609 23.2228C90.7128 18.2694 91.7129 12.5959 94.8628 8.47002C95.4567 7.69235 96.2959 6.89935 97.2654 7.0411C97.2846 7.0411 97.2999 7.04493 97.3191 7.05259C98.0165 7.17901 98.5376 7.76897 98.9591 8.34743C101.297 11.5539 102.435 15.4805 103.193 19.3766C104.121 24.1652 104.538 29.0457 104.431 33.9186H104.427Z" fill="url(#paint20_linear_3_168398)"/>
<path d="M104.427 33.9186C103.872 34.0871 103.473 33.501 102.918 33.6619C102.945 33.6619 102.791 33.8381 102.787 33.8726C100.209 33.0336 97.8672 31.5128 96.0049 29.5475C98.0205 26.9962 99.3578 23.9161 99.8177 20.6982C100.477 16.0551 99.3272 11.3202 97.3154 7.0564C98.0128 7.18282 98.534 7.77277 98.9555 8.35124C101.293 11.5577 102.431 15.4843 103.19 19.3804C104.117 24.169 104.535 29.0495 104.427 33.9224V33.9186Z" fill="url(#paint21_linear_3_168398)"/>
<path opacity="0.2" d="M103.19 19.3766C102.542 16.0284 101.607 12.661 99.8751 9.74573C101.527 14.0708 102.297 17.5761 102.117 22.4681C101.941 25.7933 100.484 29.4595 97.9668 31.3136C99.4153 32.4284 101.048 33.3057 102.787 33.8688C102.791 33.8343 102.944 33.662 102.918 33.6581C103.473 33.4972 103.872 34.0833 104.427 33.9148C104.531 29.0419 104.117 24.1614 103.19 19.3727V19.3766Z" fill="#2B041E"/>
<g style="mix-blend-mode:overlay" opacity="0.4">
<path d="M96.2693 8.07544C94.43 9.97939 93.1348 12.3967 92.5677 14.9825C92.0006 17.5684 92.1692 20.3075 93.0467 22.8014C92.7746 17.848 94.0928 12.5346 96.2693 8.07544Z" fill="white"/>
</g>
<path d="M103.029 48.7978C107.424 61.0145 106.826 73.3538 104.412 85.854C104.359 86.1375 104.301 86.421 104.247 86.7044L104.102 87.4208C103.849 88.6544 103.581 89.8879 103.297 91.1253C103.117 91.9298 102.925 92.7343 102.734 93.5387C103.443 94.7378 104.32 95.9024 105.355 96.9635C108.168 97.7374 111.854 98.8369 114.479 99.5456C115.525 99.2391 116.54 98.81 117.498 98.2699C117.778 97.3236 118.069 96.3774 118.372 95.435C118.717 94.3624 119.073 93.2897 119.449 92.2247C119.568 91.88 119.686 91.539 119.813 91.1942C119.912 90.9069 120.02 90.6196 120.127 90.3323C124.698 77.8972 131.32 66.3088 141.16 57.4441C147.935 60.0721 153.484 65.3472 157.262 71.5571C158.891 74.2426 160.217 77.0927 161.278 80.0425C161.259 57.7889 153.07 38.6 132.937 31.3826C129.554 28.2987 126.913 24.3951 125.346 20.093C124.79 22.2727 125.193 24.6671 126.128 26.7166C122.556 24.1307 120.38 19.9666 120.181 15.561C118.131 18.0281 117.357 21.6407 118.019 24.7781C116.954 24.0541 116.1 22.7439 116.134 21.4529C114.847 23.5714 114.226 26.0692 114.306 28.5439C96.1123 29.3829 82.4399 41.3084 74.1055 56.8312C82.4476 50.9738 92.7632 48.0891 103.04 48.8016L103.029 48.7978Z" fill="url(#paint22_linear_3_168398)"/>
<path d="M108.114 104.097C107.033 106.295 106.473 108.728 106.178 111.188C105.914 113.651 105.914 116.164 106.473 118.596C106.933 116.179 107.163 113.793 107.451 111.368C107.711 108.939 108.018 106.564 108.114 104.097Z" fill="#984F1A"/>
<g style="mix-blend-mode:overlay" opacity="0.25">
<path d="M116.13 30.67C115.72 28.4097 115.72 26.0767 116.123 23.8165C116.713 26.3142 118.111 28.6051 120.192 30.1106C119.016 27.18 118.82 23.9123 119.606 20.8552C121.081 24.6746 123.955 27.9002 127.503 29.9459C127.266 28.2795 127.024 26.6169 126.787 24.9504C127.718 27.498 129.435 29.7544 131.642 31.3327C130.305 30.9918 129.052 30.1221 128.385 28.9154C128.389 30.2754 128.753 31.6315 129.423 32.8153C126.086 31.7388 123.062 29.5475 120.985 26.7241C121.07 28.9882 121.464 31.348 122.189 33.4972C120.1 32.1717 118.299 30.398 116.943 28.3293C116.617 29.0572 116.161 29.8731 116.126 30.6661L116.13 30.67Z" fill="white"/>
</g>
<path d="M123.61 118.685C123.511 117.252 122.798 116.057 121.576 115.294C121.185 116.746 122.15 118.344 123.61 118.685Z" fill="#984F1A"/>
<path d="M94.1504 107.686C93.1196 108.154 92.3992 108.778 91.6903 109.609C91.4719 109.881 91.2535 110.169 91.0542 110.567C91.4949 110.647 91.8934 110.575 92.2651 110.437C93.3649 110.004 94.25 108.924 94.1542 107.686H94.1504Z" fill="#984F1A"/>
<path d="M98.4535 114.884C98.6297 116.141 98.8711 117.386 99.1854 118.623C99.6988 120.654 100.412 122.646 101.35 124.577C103.696 125.335 106.186 125.894 108.662 125.875C108.677 125.86 108.692 125.848 108.708 125.833C110.865 123.952 112.704 121.788 114.153 119.428C111.482 119.604 108.788 119.344 106.205 118.635C103.42 117.869 100.779 116.585 98.4458 114.888L98.4535 114.884Z" fill="white"/>
<g opacity="0.7">
<path d="M98.4535 114.884C98.6298 116.141 98.8712 117.386 99.1854 118.623C100.423 118.547 101.692 118.78 102.952 119.424C105.543 120.811 107.539 123.163 108.712 125.833C110.869 123.952 112.708 121.788 114.157 119.428C111.486 119.604 108.792 119.344 106.209 118.635C103.424 117.869 100.783 116.585 98.4497 114.888L98.4535 114.884Z" fill="#C9C5BE"/>
</g>
<path d="M92.8247 109.153C93.2194 109.854 93.6601 110.529 94.1429 111.18C94.392 111.517 94.6525 111.846 94.9246 112.168C95.2733 112.582 95.6373 112.984 96.0167 113.371C96.7563 114.126 97.5571 114.823 98.4078 115.467C103.531 119.462 110.524 120.926 116.851 119.527C117.479 119.389 118.1 119.221 118.713 119.026C119.112 118.899 119.506 118.757 119.893 118.608C120.813 118.252 121.706 117.826 122.564 117.336C121.76 117.623 120.94 117.872 120.112 118.083C119.759 118.171 119.407 118.256 119.05 118.332C118.916 118.359 118.786 118.386 118.652 118.413C118.426 118.459 118.2 118.501 117.97 118.539C111.425 119.661 104.55 118.401 98.9826 114.658C98.3504 114.245 97.7372 113.8 97.1433 113.333C96.4612 112.8 95.8021 112.233 95.1698 111.636C95.0702 111.544 94.9706 111.444 94.871 111.348C94.6181 111.103 94.3651 110.85 94.1161 110.594C93.6716 110.134 93.2424 109.655 92.8247 109.161V109.153Z" fill="#984F1A"/>
<path opacity="0.13" d="M50.466 99.9478C49.4007 103.917 50.4353 108.387 53.1406 111.479C53.0563 110.18 52.9759 108.885 52.8954 107.583C53.3936 115.494 64.3452 121.765 70.3614 124.879C92.4601 136.322 121.28 140.567 145.881 137.054C153.61 135.95 163.228 132.997 166.022 124.799C165.604 126.028 165.183 127.258 164.765 128.492C168.187 126.216 170.359 122.175 170.371 118.064C170.869 119.133 171.367 120.198 171.865 121.267C173.157 111.176 167.853 102.84 159.925 96.4732C160.81 90.9031 161.274 85.3828 161.266 80.0425C161.251 63.3168 156.622 48.3228 145.774 38.8413C146.824 42.8791 147.192 47.1237 146.992 51.3492C146.042 70.0822 130.703 84.3101 112.068 86.4707C101.829 87.6889 91.3182 87.0607 82.5009 81.4906C76.4043 77.8168 72.3386 72.8749 69.4762 67.2435C68.0622 71.174 66.9509 75.2118 66.1577 79.2648C56.6852 83.2643 49.5999 92.4661 48.1821 102.649C48.9447 101.748 49.7034 100.848 50.466 99.9478ZM64.1191 95.3507C69.07 93.9371 74.6416 94.665 79.7113 94.8412C85.6661 95.0481 91.6171 95.3699 97.5566 95.8641C109.267 96.8448 120.939 98.5074 132.354 101.319C139.815 103.154 153.963 103.38 155.07 113.471C156.821 129.411 136.068 130.407 124.369 130.863C104.354 131.641 80.0255 125.584 64.7591 112.176C53.1866 102.013 54.8305 98.0055 64.123 95.3507H64.1191Z" fill="#2B041E"/>
<path d="M101.255 100.074C101.963 101.273 102.841 102.438 103.876 103.499C105.037 104.694 106.401 105.759 107.945 106.598C109.654 106.751 111.367 106.56 112.999 106.081C114.046 105.775 115.061 105.345 116.019 104.805C118.349 103.503 120.334 101.568 121.629 99.2161C121.606 99.1931 121.583 99.1739 121.56 99.1548C120.644 98.3196 119.667 97.5573 118.644 96.8716C114.049 93.7915 108.462 92.1979 102.937 92.3932C101.791 92.4354 100.645 92.558 99.5149 92.7495C99.3846 92.7725 99.2543 92.7917 99.124 92.8185C99.055 94.9983 99.8023 97.6109 101.258 100.078L101.255 100.074Z" fill="url(#paint23_linear_3_168398)"/>
<path opacity="0.7" d="M101.254 100.074C101.963 101.273 102.841 102.438 103.876 103.499C105.037 104.694 106.401 105.759 107.945 106.598C109.654 106.751 111.367 106.56 112.999 106.081C114.045 105.775 115.061 105.346 116.019 104.805C118.349 103.503 120.334 101.568 121.629 99.2161C121.606 99.1931 121.583 99.1739 121.56 99.1548C120.192 100.45 118.598 101.388 116.889 101.97C111.773 103.729 105.684 102.288 101.906 97.768C101.879 97.7335 101.845 97.6952 101.818 97.6569C100.611 96.159 99.7026 94.416 99.511 92.7457C99.3807 92.7687 99.2504 92.7879 99.1201 92.8147C99.0511 94.9945 99.7983 97.6071 101.254 100.074Z" fill="#0C0126"/>
<g style="mix-blend-mode:overlay" opacity="0.4">
<path d="M119.862 98.8751C114.797 94.7569 108.091 92.7188 101.592 93.3164C107.014 96.7834 113.432 98.6414 119.862 98.8751Z" fill="white"/>
</g>
<g opacity="0.5">
<path d="M99.3349 83.9615C96.6181 92.4699 88.0997 96.0671 80.0028 93.4851C71.9059 90.903 67.3 83.1148 70.0168 74.6064C72.7336 66.098 81.4973 61.2941 89.5941 63.88C97.691 66.4658 102.052 75.4531 99.3349 83.9615Z" fill="#C16A32"/>
</g>
<path d="M99.3147 79.7004C100.373 71.7732 95.0218 64.5187 87.3629 63.4971C79.7041 62.4755 72.6378 68.0736 71.5798 76.0008C70.5217 83.9281 75.8728 91.1826 83.5316 92.2042C91.1904 93.2258 98.2567 87.6277 99.3147 79.7004Z" fill="#C1BCB4"/>
<path d="M99.1606 79.6589C100.21 71.7946 94.9 64.5975 87.2999 63.5837C79.6999 62.5699 72.6879 68.1233 71.6383 75.9877C70.5887 83.852 75.8989 91.0491 83.4989 92.0629C91.099 93.0767 98.111 87.5232 99.1606 79.6589Z" fill="#C3BEB6"/>
<path d="M99.0148 79.6307C100.058 71.8274 94.7915 64.6852 87.2524 63.6782C79.7133 62.6712 72.7563 68.1808 71.7135 75.9841C70.6706 83.7874 75.9368 90.9296 83.4759 91.9366C91.0149 92.9436 97.9719 87.4341 99.0148 79.6307Z" fill="#C5C0B9"/>
<path d="M98.8613 79.5814C99.8958 71.841 94.672 64.7564 87.1938 63.7576C79.7156 62.7587 72.8147 68.2238 71.7803 75.9642C70.7458 83.7046 75.9695 90.7892 83.4477 91.7881C90.926 92.787 97.8269 87.3219 98.8613 79.5814Z" fill="#C7C2BB"/>
<path d="M98.6982 79.5253C99.7229 71.8476 94.5405 64.8215 87.1229 63.8321C79.7053 62.8426 72.8615 68.2645 71.8368 75.9422C70.8121 83.6199 75.9946 90.646 83.4121 91.6354C90.8297 92.6249 97.6735 87.203 98.6982 79.5253Z" fill="#C9C5BE"/>
<path d="M98.5527 79.4976C99.5706 71.8809 94.4304 64.9096 87.0717 63.9267C79.7131 62.9438 72.9225 68.3216 71.9046 75.9383C70.8867 83.5549 76.0269 90.5263 83.3856 91.5092C90.7442 92.4921 97.5348 87.1143 98.5527 79.4976Z" fill="#CBC7C0"/>
<path d="M98.3982 79.4521C99.4077 71.8983 94.31 64.9846 87.0122 64.0098C79.7144 63.0351 72.98 68.3684 71.9705 75.9222C70.9609 83.4759 76.0586 90.3897 83.3565 91.3645C90.6543 92.3392 97.3887 87.0059 98.3982 79.4521Z" fill="#CDC9C3"/>
<path d="M98.2356 79.3923C99.2354 71.9013 94.179 65.046 86.9419 64.0806C79.7047 63.1152 73.0274 68.4053 72.0276 75.8964C71.0278 83.3874 76.0842 90.2427 83.3213 91.2081C90.5585 92.1734 97.2359 86.8834 98.2356 79.3923Z" fill="#CFCBC5"/>
<path d="M98.0815 79.3507C99.0729 71.9225 94.0573 65.1246 86.8789 64.1671C79.7004 63.2095 73.0775 68.455 72.0861 75.8831C71.0947 83.3112 76.1103 90.1091 83.2887 91.0667C90.4671 92.0242 97.0901 86.7788 98.0815 79.3507Z" fill="#D1CDC7"/>
<path d="M97.9309 79.3053C98.9142 71.938 93.9414 65.1959 86.8238 64.2465C79.7062 63.2971 73.1391 68.4998 72.1559 75.8671C71.1726 83.2344 76.1454 89.9765 83.263 90.9259C90.3806 91.8753 96.9477 86.6726 97.9309 79.3053Z" fill="#D3CFCA"/>
<path d="M97.7726 79.2631C98.7475 71.9587 93.8171 65.2743 86.7604 64.3329C79.7036 63.3916 73.1927 68.5499 72.2178 75.8543C71.2429 83.1587 76.1733 89.8432 83.23 90.7845C90.2868 91.7258 96.7977 86.5675 97.7726 79.2631Z" fill="#D5D2CC"/>
<path d="M97.6237 79.2271C98.5915 71.9858 93.7048 65.3581 86.7091 64.4237C79.7133 63.4892 73.2576 68.602 72.2899 75.8433C71.3221 83.0846 76.2088 89.7123 83.2045 90.6468C90.2003 91.5812 96.656 86.4684 97.6237 79.2271Z" fill="#D7D4CF"/>
<path d="M97.4774 79.1898C98.4367 72.0114 93.5908 65.4411 86.6538 64.5145C79.7168 63.5879 73.3155 68.656 72.3562 75.8344C71.3968 83.0128 76.2427 89.5832 83.1797 90.5097C90.1168 91.4363 96.518 86.3682 97.4774 79.1898Z" fill="#D9D6D1"/>
<path d="M97.3229 79.1438C98.2741 72.0262 93.471 65.5117 86.5948 64.5933C79.7186 63.6748 73.3732 68.7002 72.422 75.8178C71.4708 82.9354 76.274 89.4499 83.1502 90.3683C90.0263 91.2868 96.3717 86.2614 97.3229 79.1438Z" fill="#DBD8D3"/>
<path d="M97.1521 79.088C98.0937 72.0331 93.332 65.5771 86.5164 64.6679C79.7009 63.7588 73.4126 68.7409 72.471 75.7957C71.5294 82.8505 76.2912 89.3066 83.1067 90.2157C89.9222 91.1249 96.2106 86.1428 97.1521 79.088Z" fill="#DDDAD6"/>
<path d="M97.0063 79.0392C97.9395 72.0473 93.2185 65.6486 86.4617 64.7473C79.7049 63.846 73.471 68.7834 72.5378 75.7753C71.6046 82.7672 76.3256 89.166 83.0824 90.0673C89.8392 90.9686 96.0731 86.0311 97.0063 79.0392Z" fill="#DFDCD8"/>
<path d="M96.8603 79.0107C97.7866 72.0798 93.1095 65.7361 86.4137 64.8418C79.7179 63.9474 73.539 68.841 72.6127 75.772C71.6864 82.7029 76.3636 89.0466 83.0593 89.9409C89.7551 90.8353 95.934 85.9416 96.8603 79.0107Z" fill="#E1DFDB"/>
<path d="M96.7024 78.9685C97.6203 72.1005 92.9857 65.8144 86.3507 64.9282C79.7157 64.042 73.593 68.8912 72.6751 75.7592C71.7573 82.6272 76.3919 88.9133 83.0268 89.7995C89.6618 90.6857 95.7846 85.8365 96.7024 78.9685Z" fill="#E3E1DD"/>
<path d="M96.5395 78.9095C97.4478 72.1042 92.8546 65.8766 86.2803 64.9996C79.706 64.1226 73.6402 68.9285 72.732 75.7338C71.8237 82.539 76.4169 88.7667 82.9912 89.6437C89.5655 90.5206 95.6313 85.7148 96.5395 78.9095Z" fill="#E5E3E0"/>
<path d="M96.3982 78.8776C97.2992 72.1354 92.7479 65.9643 86.2325 65.0941C79.7171 64.2238 73.7049 68.9839 72.8038 75.7261C71.9028 82.4683 76.4541 88.6394 82.9695 89.5097C89.4849 90.38 95.4971 85.6198 96.3982 78.8776Z" fill="#E7E5E2"/>
<path d="M96.2437 78.8354C97.1366 72.154 92.628 66.0388 86.1735 65.1767C79.7189 64.3145 73.7626 69.0319 72.8697 75.7133C71.9768 82.3947 76.4854 88.5099 82.9399 89.3721C89.3945 90.2342 95.3508 85.5168 96.2437 78.8354Z" fill="#E9E7E4"/>
<path d="M96.0893 78.7938C96.9738 72.1753 92.5077 66.1177 86.1139 65.2637C79.7202 64.4097 73.82 69.0827 72.9355 75.7011C72.051 82.3196 76.5171 88.3772 82.9109 89.2313C89.3046 90.0853 95.2047 85.4122 96.0893 78.7938Z" fill="#EBE9E7"/>
<path d="M95.9262 78.7349C96.8012 72.1792 92.3748 66.1797 86.0397 65.3346C79.7045 64.4895 73.8596 69.1189 72.9846 75.6746C72.1097 82.2303 76.536 88.2299 82.8712 89.0749C89.2063 89.92 95.0512 85.2906 95.9262 78.7349Z" fill="#EDECE9"/>
<path d="M95.7688 78.6889C96.6354 72.1961 92.2515 66.2542 85.9772 65.4172C79.7029 64.5803 73.9141 69.1653 73.0476 75.6581C72.181 82.1509 76.5648 88.0928 82.8391 88.9297C89.1135 89.7667 94.9023 85.1817 95.7688 78.6889Z" fill="#EFEEEC"/>
<path d="M95.6271 78.6607C96.4867 72.2289 92.1466 66.342 85.9333 65.5121C79.72 64.6822 73.9863 69.2235 73.1267 75.6553C72.2671 82.0871 76.6072 87.9739 82.8205 88.8038C89.0339 89.6337 94.7676 85.0925 95.6271 78.6607Z" fill="#F1F0EE"/>
<path d="M95.4727 78.6186C96.3238 72.2497 92.0262 66.4205 85.8738 65.5987C79.7213 64.7769 74.0437 69.2737 73.1925 75.6426C72.3414 82.0115 76.6389 87.8407 82.7914 88.6625C88.9439 89.4843 94.6215 84.9875 95.4727 78.6186Z" fill="#F3F2F0"/>
<path d="M95.3185 78.5731C96.1612 72.2671 91.9044 66.4953 85.8107 65.6813C79.7169 64.8674 74.0938 69.3196 73.251 75.6256C72.4083 81.9316 76.6651 87.7034 82.7588 88.5173C88.8526 89.3313 94.4757 84.8791 95.3185 78.5731Z" fill="#F5F4F3"/>
<path d="M95.1611 78.5271C95.9957 72.2819 91.7817 66.5659 85.7488 65.7601C79.7158 64.9543 74.1486 69.3638 73.314 75.609C72.4793 81.8542 76.6934 87.5701 82.7263 88.3759C88.7592 89.1817 94.3265 84.7723 95.1611 78.5271Z" fill="#F7F6F5"/>
<path d="M95.0106 78.4855C95.8368 72.3032 91.6652 66.6448 85.6931 65.8471C79.721 65.0495 74.2099 69.4145 73.3837 75.5968C72.5575 81.779 76.729 87.4374 82.7011 88.2351C88.6732 89.0328 94.1843 84.6677 95.0106 78.4855Z" fill="#F9F9F8"/>
<path d="M94.8598 78.4438C95.6776 72.3244 91.5468 66.7234 85.6335 65.9336C79.7201 65.1437 74.2634 69.4642 73.4456 75.5835C72.6278 81.7029 76.7586 87.3039 82.6719 88.0937C88.5853 88.8836 94.042 84.5631 94.8598 78.4438Z" fill="#FBFBFA"/>
<path d="M94.698 78.3978C95.5074 72.3413 91.4191 66.7979 85.5666 66.0162C79.7141 65.2345 74.3135 69.5105 73.5041 75.5669C72.6947 81.6234 76.783 87.1668 82.6355 87.9485C88.488 88.7302 93.8886 84.4542 94.698 78.3978Z" fill="#FDFDFD"/>
<path d="M94.5392 78.3353C95.3394 72.3395 91.2929 66.8527 85.5011 66.0801C79.7093 65.3075 74.3654 69.5417 73.5651 75.5375C72.7649 81.5333 76.8114 87.0201 82.6032 87.7927C88.3951 88.5653 93.739 84.331 94.5392 78.3353Z" fill="white"/>
<path d="M98.6067 81.1893C99.2874 76.089 96.1184 71.4581 91.5286 70.8459C86.9388 70.2336 82.6662 73.8719 81.9855 78.9722C81.3048 84.0724 84.4737 88.7034 89.0636 89.3156C93.6534 89.9278 97.926 86.2896 98.6067 81.1893Z" fill="url(#paint24_linear_3_168398)"/>
<path d="M99.3196 77.3992C99.0782 79.2074 97.6068 80.5022 96.0318 80.2915C94.4569 80.0808 93.3763 78.445 93.6177 76.6368C93.8591 74.8287 95.3306 73.5338 96.9055 73.7445C98.4804 73.9552 99.561 75.591 99.3196 77.3992Z" fill="white"/>
<path d="M88.7318 83.9347C88.5747 85.1146 87.6129 85.9612 86.5821 85.8233C85.5513 85.6854 84.8462 84.6166 85.0033 83.4367C85.1605 82.2568 86.1223 81.4101 87.1531 81.548C88.1838 81.686 88.8889 82.7548 88.7318 83.9347Z" fill="white"/>
<g opacity="0.5">
<path d="M157.35 92.7458C157.752 101.388 151.25 107.299 142.547 107.709C133.849 108.115 126.25 102.863 125.848 94.2206C125.445 85.5782 132.167 78.242 140.865 77.8359C149.564 77.4299 156.944 84.1071 157.346 92.7496L157.35 92.7458Z" fill="#C16A32"/>
</g>
<path d="M155.756 92.9203C156.815 84.9933 151.465 77.7379 143.807 76.7149C136.148 75.6919 129.081 81.2888 128.021 89.2159C126.962 97.1429 132.312 104.398 139.97 105.421C147.629 106.444 154.696 100.847 155.756 92.9203Z" fill="#C1BCB4"/>
<path d="M155.587 92.8611C156.636 84.9967 151.326 77.7996 143.726 76.7858C136.126 75.772 129.114 81.3255 128.065 89.1898C127.015 97.0541 132.325 104.251 139.925 105.265C147.525 106.279 154.537 100.725 155.587 92.8611Z" fill="#C3BEB6"/>
<path d="M155.447 92.8365C156.49 85.0332 151.224 77.891 143.685 76.884C136.145 75.877 129.188 81.3866 128.146 89.1899C127.103 96.9932 132.369 104.135 139.908 105.142C147.447 106.149 154.404 100.64 155.447 92.8365Z" fill="#C5C0B9"/>
<path d="M155.275 92.7735C156.308 85.0329 151.083 77.9492 143.604 76.9517C136.126 75.9541 129.226 81.4204 128.193 89.161C127.16 96.9016 132.385 103.985 139.863 104.983C147.342 105.98 154.241 100.514 155.275 92.7735Z" fill="#C7C2BB"/>
<path d="M155.139 92.7451C156.165 85.0676 150.984 78.0406 143.566 77.0499C136.149 76.0592 129.304 81.4799 128.278 89.1574C127.252 96.8349 132.433 103.862 139.851 104.853C147.268 105.843 154.113 100.423 155.139 92.7451Z" fill="#C9C5BE"/>
<path d="M154.988 92.7034C156.006 85.0868 150.866 78.1154 143.507 77.1325C136.149 76.1496 129.358 81.5274 128.34 89.1441C127.322 96.7608 132.462 103.732 139.821 104.715C147.18 105.698 153.97 100.32 154.988 92.7034Z" fill="#CBC7C0"/>
<path d="M154.816 92.6404C155.824 85.0865 150.725 78.1736 143.427 77.2001C136.129 76.2266 129.396 81.5611 128.387 89.1151C127.379 96.669 132.478 103.582 139.776 104.555C147.074 105.529 153.808 100.194 154.816 92.6404Z" fill="#CDC9C3"/>
<path d="M154.676 92.6158C155.677 85.125 150.622 78.2688 143.385 77.3022C136.148 76.3355 129.47 81.6244 128.468 89.1153C127.467 96.6062 132.523 103.462 139.759 104.429C146.996 105.396 153.675 100.107 154.676 92.6158Z" fill="#CFCBC5"/>
<path d="M154.522 92.5703C155.515 85.1424 150.5 78.3436 143.322 77.3848C136.144 76.426 129.52 81.6703 128.527 89.0982C127.535 96.5262 132.549 103.325 139.727 104.284C146.906 105.243 153.529 99.9983 154.522 92.5703Z" fill="#D1CDC7"/>
<path d="M154.353 92.5113C155.337 85.144 150.364 78.402 143.246 77.4526C136.129 76.5031 129.562 81.7058 128.578 89.0732C127.595 96.4405 132.568 103.183 139.685 104.132C146.803 105.081 153.37 99.8787 154.353 92.5113Z" fill="#D3CFCA"/>
<path d="M154.195 92.4653C155.17 85.1609 150.24 78.4764 143.183 77.5351C136.126 76.5938 129.616 81.7521 128.641 89.0565C127.666 96.3609 132.596 103.045 139.653 103.987C146.71 104.928 153.221 99.7697 154.195 92.4653Z" fill="#D5D2CC"/>
<path d="M154.041 92.4232C155.007 85.1817 150.12 78.5548 143.124 77.6216C136.128 76.6884 129.673 81.8023 128.707 89.0438C127.74 96.2853 132.628 102.912 139.624 103.845C146.62 104.779 153.075 99.6647 154.041 92.4232Z" fill="#D7D4CF"/>
<path d="M153.909 92.3917C154.868 85.2133 150.022 78.643 143.085 77.7164C136.148 76.7898 129.747 81.8579 128.788 89.0363C127.828 96.2147 132.674 102.785 139.611 103.712C146.548 104.638 152.95 99.5701 153.909 92.3917Z" fill="#D9D6D1"/>
<path d="M153.751 92.3457C154.702 85.2281 149.899 78.7136 143.023 77.7952C136.147 76.8767 129.801 81.9021 128.85 89.0197C127.899 96.1373 132.702 102.652 139.578 103.57C146.455 104.489 152.8 99.4633 153.751 92.3457Z" fill="#DBD8D3"/>
<path d="M153.578 92.2901C154.52 85.2353 149.758 78.7792 142.943 77.8701C136.127 76.9609 129.839 81.943 128.897 88.9978C127.956 96.0527 132.717 102.509 139.533 103.418C146.348 104.327 152.637 99.3449 153.578 92.2901Z" fill="#DDDAD6"/>
<path d="M153.428 92.2453C154.361 85.2534 149.64 78.8547 142.884 77.9533C136.127 77.052 129.893 81.9895 128.96 88.9814C128.027 95.9733 132.747 102.372 139.504 103.273C146.261 104.175 152.495 99.2372 153.428 92.2453Z" fill="#DFDCD8"/>
<path d="M153.292 92.2203C154.219 85.2894 149.542 78.9457 142.846 78.0514C136.15 77.157 129.971 82.0506 129.045 88.9816C128.119 95.9125 132.796 102.256 139.491 103.15C146.187 104.045 152.366 99.1512 153.292 92.2203Z" fill="#E1DFDB"/>
<path d="M153.135 92.1743C154.052 85.3063 149.418 79.0202 142.783 78.134C136.148 77.2478 130.025 82.097 129.107 88.965C128.189 95.833 132.824 102.119 139.459 103.005C146.094 103.892 152.217 99.0423 153.135 92.1743Z" fill="#E3E1DD"/>
<path d="M152.966 92.1116C153.874 85.3064 149.281 79.0787 142.707 78.2018C136.132 77.3248 130.066 82.1306 129.158 88.9359C128.25 95.7412 132.843 101.969 139.417 102.846C145.992 103.723 152.058 98.9169 152.966 92.1116Z" fill="#E5E3E0"/>
<path d="M152.812 92.0701C153.711 85.3278 149.159 79.1574 142.644 78.2883C136.128 77.4192 130.117 82.1804 129.217 88.9228C128.317 95.6651 132.869 101.835 139.385 102.705C145.9 103.574 151.912 98.8125 152.812 92.0701Z" fill="#E7E5E2"/>
<path d="M152.654 92.0241C153.546 85.3426 149.036 79.2282 142.581 78.3672C136.126 77.5062 130.171 82.2246 129.279 88.9062C128.387 95.5877 132.897 101.702 139.352 102.563C145.807 103.424 151.762 98.7057 152.654 92.0241Z" fill="#E9E7E4"/>
<path d="M152.517 91.9958C153.402 85.3773 148.936 79.3197 142.542 78.4657C136.148 77.6117 130.248 82.2847 129.364 88.9032C128.479 95.5216 132.945 101.579 139.339 102.433C145.733 103.287 151.633 98.6143 152.517 91.9958Z" fill="#EBE9E7"/>
<path d="M152.367 91.9541C153.243 85.3986 148.818 79.3983 142.483 78.5521C136.148 77.706 130.302 82.3343 129.426 88.8899C128.55 95.4454 132.975 101.446 139.31 102.292C145.645 103.138 151.491 98.5097 152.367 91.9541Z" fill="#EDECE9"/>
<path d="M152.195 91.895C153.061 85.4022 148.677 79.4602 142.403 78.6233C136.129 77.7864 130.34 82.3713 129.473 88.8641C128.607 95.3569 132.991 101.299 139.265 102.136C145.539 102.973 151.328 98.3878 152.195 91.895Z" fill="#EFEEEC"/>
<path d="M152.059 91.8665C152.919 85.4347 148.579 79.5479 142.365 78.718C136.152 77.888 130.418 82.4293 129.559 88.8611C128.699 95.2929 133.039 101.18 139.253 102.01C145.466 102.84 151.2 98.2983 152.059 91.8665Z" fill="#F1F0EE"/>
<path d="M151.905 91.8243C152.756 85.4554 148.458 79.6261 142.306 78.8044C136.153 77.9826 130.476 82.4794 129.625 88.8483C128.773 95.2172 133.071 101.046 139.224 101.868C145.376 102.69 151.054 98.1932 151.905 91.8243Z" fill="#F3F2F0"/>
<path d="M151.751 91.7788C152.593 85.4728 148.337 79.701 142.243 78.887C136.149 78.0731 130.526 82.5253 129.683 88.8312C128.84 95.1372 133.097 100.909 139.191 101.723C145.285 102.537 150.908 98.0848 151.751 91.7788Z" fill="#F5F4F3"/>
<path d="M151.578 91.7198C152.412 85.4745 148.197 79.7592 142.164 78.9545C136.13 78.1497 130.564 82.5602 129.73 88.8055C128.897 95.0508 133.112 100.766 139.145 101.571C145.178 102.376 150.745 97.9651 151.578 91.7198Z" fill="#F7F6F5"/>
<path d="M151.442 91.6913C152.268 85.509 148.097 79.8506 142.125 79.0529C136.153 78.2553 130.642 82.6203 129.815 88.8026C128.989 94.9849 133.161 100.643 139.133 101.441C145.105 102.239 150.616 97.8736 151.442 91.6913Z" fill="#F9F9F8"/>
<path d="M151.288 91.6457C152.106 85.5263 147.975 79.9253 142.062 79.1355C136.148 78.3456 130.692 82.6661 129.874 88.7854C129.056 94.9048 133.187 100.506 139.1 101.296C145.014 102.085 150.47 97.765 151.288 91.6457Z" fill="#FBFBFA"/>
<path d="M151.116 91.5867C151.924 85.5301 147.835 79.9874 141.982 79.2067C136.129 78.426 130.729 82.703 129.921 88.7595C129.113 94.8161 133.202 100.359 139.055 101.14C144.907 101.92 150.307 97.6433 151.116 91.5867Z" fill="#FDFDFD"/>
<path d="M150.98 91.562C151.781 85.5663 147.735 80.0788 141.944 79.3052C136.152 78.5316 130.807 82.7649 130.006 88.7605C129.205 94.7562 133.25 100.244 139.042 101.017C144.834 101.791 150.178 97.5576 150.98 91.562Z" fill="white"/>
<path d="M145.041 92.0388C145.721 86.9385 142.553 82.3076 137.963 81.6953C133.373 81.0831 129.1 84.7214 128.42 89.8216C127.739 94.9219 130.908 99.5528 135.498 100.165C140.087 100.777 144.36 97.1391 145.041 92.0388Z" fill="url(#paint25_linear_3_168398)"/>
<path d="M145.751 88.2521C145.509 90.0603 144.038 91.3551 142.463 91.1444C140.888 90.9337 139.807 89.2979 140.049 87.4897C140.29 85.6816 141.762 84.3867 143.337 84.5974C144.912 84.8081 145.992 86.4439 145.751 88.2521Z" fill="white"/>
<path d="M135.163 94.7876C135.006 95.9675 134.045 96.8141 133.014 96.6762C131.983 96.5383 131.278 95.4695 131.435 94.2896C131.592 93.1097 132.554 92.263 133.585 92.401C134.615 92.5389 135.321 93.6077 135.163 94.7876Z" fill="white"/>
<path d="M154.059 71.5723C154.312 72.1508 154.53 72.756 154.53 73.3881C154.53 74.0164 154.281 74.6753 153.76 75.0316C152.997 75.5488 151.963 75.2691 151.112 74.9167C148.292 73.7559 145.728 71.9745 143.655 69.7411C142.954 68.9865 142.295 68.1551 141.957 67.1821C141.62 66.2091 141.643 65.0598 142.237 64.217C143.908 61.8457 147.062 64.1059 148.774 65.2628C151.081 66.8182 152.947 69.0286 154.063 71.5761L154.059 71.5723Z" fill="url(#paint26_linear_3_168398)"/>
<path opacity="0.13" d="M142.233 64.2132C142.735 63.4968 143.375 63.2057 144.069 63.175C143.931 67.2894 147.169 71.3195 151.461 72.0934C152.407 72.3155 153.354 72.2466 154.212 71.9401C154.392 72.4075 154.53 72.8902 154.53 73.3882C154.53 74.0165 154.281 74.6754 153.76 75.0316C152.997 75.5488 151.963 75.2692 151.112 74.9167C148.292 73.756 145.728 71.9746 143.655 69.7412C142.954 68.9865 142.295 68.1552 141.957 67.1822C141.62 66.2091 141.643 65.0598 142.237 64.2171L142.233 64.2132Z" fill="#2B041E"/>
<path d="M83.8306 55.3524C83.2941 55.6819 82.7653 56.0534 82.4051 56.5706C82.0449 57.0878 81.8724 57.7697 82.0947 58.3596C82.4242 59.2216 83.4282 59.5817 84.3287 59.7847C87.3061 60.4475 90.4253 60.459 93.4066 59.8154C94.4144 59.597 95.4298 59.2944 96.2652 58.6891C97.1005 58.0838 97.7405 57.1299 97.7366 56.0956C97.729 53.1956 93.8472 53.2416 91.778 53.2071C88.996 53.1611 86.1987 53.9005 83.8267 55.3524H83.8306Z" fill="url(#paint27_linear_3_168398)"/>
<path opacity="0.13" d="M97.7405 56.0918C97.7405 55.2183 97.3803 54.613 96.8323 54.1917C94.5906 57.6433 89.6244 59.0914 85.6622 57.2679C84.7617 56.9116 84.026 56.3101 83.4972 55.5669C83.0795 55.8466 82.6925 56.1646 82.4051 56.5706C82.0449 57.0878 81.8724 57.7697 82.0947 58.3597C82.4242 59.2216 83.4282 59.5817 84.3287 59.7847C87.3061 60.4475 90.4253 60.459 93.4066 59.8154C94.4144 59.597 95.4298 59.2944 96.2652 58.6891C97.1005 58.0838 97.7405 57.1299 97.7366 56.0956L97.7405 56.0918Z" fill="#2B041E"/>
<g style="mix-blend-mode:overlay" opacity="0.2">
<path d="M80.6079 51.0963C84.9725 46.2234 89.4903 41.4156 94.8091 37.6039C100.132 33.796 106.351 31.0109 112.888 30.6547C102.764 37.8414 91.5672 45.258 80.6079 51.0963Z" fill="white"/>
</g>
<g style="mix-blend-mode:overlay" opacity="0.15">
<path d="M83.214 97.2699C84.7889 97.9901 86.3025 98.9172 86.908 100.25C87.8008 102.223 85.8657 103.863 83.7504 104.48C79.8036 105.629 75.2167 105.591 71.0629 104.418C67.5145 103.415 61.4563 100.867 62.5905 97.2355C63.422 94.5807 67.3076 94.3125 70.2352 94.3355C74.7416 94.3738 79.2058 95.4349 83.214 97.2661V97.2699Z" fill="white"/>
</g>
<g style="mix-blend-mode:overlay" opacity="0.15">
<path d="M149.552 110.383C151.123 111.115 152.637 112.061 153.238 113.425C154.127 115.444 152.185 117.133 150.066 117.769C146.115 118.96 141.524 118.937 137.374 117.746C133.826 116.731 127.775 114.141 128.921 110.414C129.76 107.69 133.65 107.403 136.577 107.418C141.084 107.441 145.548 108.514 149.552 110.379V110.383Z" fill="white"/>
</g>
<path opacity="0.5" d="M116.18 37.2323C113.459 39.301 111.152 41.8983 109.401 44.8404L108.838 45.7905L109.827 45.2657C111.551 44.3501 113.264 43.4115 114.984 42.4806L114.44 41.8792C112.942 43.9364 111.861 46.3 111.271 48.7786L110.976 50.0236C112.773 48.725 114.678 47.614 116.544 46.3383L115.82 45.6526C115.283 46.4992 114.923 47.4531 114.751 48.4376C114.475 49.7785 114.697 51.2035 115.007 52.5214C116.199 50.8932 117.398 49.2345 118.567 47.591L117.751 47.1734C117.05 49.3685 117.134 51.7897 117.985 53.9273L118.249 54.5939L118.651 54.0077C120.062 51.9544 121.456 49.8934 122.84 47.8209L122.453 47.6485C122.016 49.7248 122.598 51.985 123.993 53.5634C122.775 51.9123 122.349 49.7133 122.87 47.7481L123.158 46.6869C121.43 48.9663 119.717 51.2725 118.027 53.5749L118.694 53.6591C117.985 51.6786 117.962 49.4528 118.632 47.4646L119.567 44.7025C118.061 46.7176 116.337 49.0123 114.862 51.0273L115.751 51.2227C115.41 49.5141 115.758 47.6715 116.678 46.1927L117.985 44.0781C115.912 45.6028 113.612 47.0279 111.463 48.4874L112.225 49.0008C112.75 46.6295 113.743 44.3692 115.115 42.3619L116.153 40.8333C113.965 42.1243 111.693 43.4307 109.52 44.7255L109.945 45.1507C111.547 42.1856 113.678 39.5002 116.18 37.2361V37.2323Z" fill="#6F340A"/>
<path opacity="0.5" d="M122.901 74.1966C122.514 71.6912 122.775 69.1245 123.503 66.7148L122.851 67.4274C121.303 69.136 120.273 71.3196 119.947 73.6104L120.698 73.576C120.204 71.1778 120.184 68.6839 120.671 66.2858L120.974 64.8032C119.039 66.5616 117.261 68.5613 115.939 70.8216C114.847 72.6374 114.019 74.6065 113.448 76.6483L114.394 76.61C113.785 74.9896 113.486 73.2503 113.502 71.5111C113.525 69.7719 113.854 68.0288 114.509 66.4122L115.881 63.0487C114.364 65.2744 112.248 68.3506 110.754 70.5802L111.248 70.7526C111.321 68.0633 111.758 65.3855 112.528 62.7997C111.398 65.6077 110.8 68.6265 110.635 71.6529C111.003 71.1625 112.444 69.2203 112.842 68.6916L114.471 66.4812L113.8 66.1057C113.042 67.7952 112.639 69.6378 112.586 71.4881C112.528 73.3385 112.808 75.2079 113.463 76.9548L113.996 78.3761L114.41 76.9165C115.529 73.009 117.663 69.4041 120.541 66.5348L119.74 66.1057C119.276 68.6303 119.345 71.2506 119.958 73.7445L120.468 75.8477C120.648 74.1429 120.813 72.1279 121.529 70.5534C121.951 69.542 122.522 68.592 123.212 67.7339L122.805 67.527C122.353 69.7259 122.38 72.0245 122.905 74.2004L122.901 74.1966Z" fill="#6F340A"/>
<path d="M123.315 93.6996C123.315 93.6996 120 89.5163 114.429 87.1603C108.857 84.8081 99.8327 85.9842 99.8327 85.9842L98.9858 88.9263C98.9858 88.9263 108.225 88.2712 114.007 90.7575C119.789 93.2437 122.326 97.5573 122.326 97.5573L123.315 93.6996Z" fill="url(#paint28_linear_3_168398)"/>
<path d="M121.315 94.2972C121.932 109.908 135.244 122.06 151.054 121.439C166.861 120.815 179.181 107.655 178.564 92.0446C177.947 76.4338 164.635 64.2783 148.824 64.9028C133.014 65.5272 120.698 78.6901 121.311 94.301L121.315 94.2972ZM124.369 93.9409C123.832 80.3681 134.543 68.929 148.284 68.3889C162.029 67.8487 173.602 78.4105 174.138 91.9833C174.675 105.556 163.964 116.999 150.223 117.539C136.482 118.079 124.905 107.518 124.373 93.9447L124.369 93.9409Z" fill="url(#paint29_linear_3_168398)"/>
<path d="M46.4809 76.269C47.0979 91.8799 60.41 104.035 76.2206 103.411C92.0311 102.786 104.347 89.6235 103.734 74.0126C103.121 58.4017 89.8048 46.2502 73.9942 46.8708C58.1836 47.4952 45.8678 60.6543 46.4809 76.2652V76.269ZM51.4816 76.5372C50.9451 62.9643 61.6554 51.5253 75.3967 50.9851C89.1418 50.445 100.714 61.0067 101.251 74.5796C101.787 88.1524 91.077 99.5953 77.3356 100.135C63.5943 100.676 52.0181 90.11 51.4854 76.541L51.4816 76.5372Z" fill="url(#paint30_linear_3_168398)"/>
<g style="mix-blend-mode:overlay" opacity="0.3">
<path d="M93.9779 199.934C93.2613 198.995 92.5869 198.03 91.9661 197.026C89.3374 192.805 86.3945 186.445 88.6668 181.527C89.5597 179.596 91.5944 178.086 93.7058 178.328C95.4608 178.531 96.871 179.822 98.0742 181.113C102.776 186.173 106.301 192.311 108.344 198.903C109.114 201.39 110.965 206.079 109.639 208.592C107.57 212.511 102.642 208.94 100.546 207.002C98.1815 204.818 95.9283 202.485 93.9817 199.93L93.9779 199.934Z" fill="white"/>
</g>
<defs>
<linearGradient id="paint0_linear_3_168398" x1="48.3397" y1="122.994" x2="50.3044" y2="143.723" gradientUnits="userSpaceOnUse">
<stop stop-color="#FFE1CD"/>
<stop offset="1" stop-color="#EB985E"/>
</linearGradient>
<linearGradient id="paint1_linear_3_168398" x1="91.1843" y1="213.369" x2="73.2047" y2="180.948" gradientUnits="userSpaceOnUse">
<stop stop-color="#9D521D"/>
<stop offset="1" stop-color="#C16A32"/>
</linearGradient>
<linearGradient id="paint2_linear_3_168398" x1="189.506" y1="181.36" x2="163.118" y2="185.484" gradientUnits="userSpaceOnUse">
<stop stop-color="#C16A32"/>
<stop offset="1" stop-color="#984F1A"/>
</linearGradient>
<linearGradient id="paint3_linear_3_168398" x1="64.2911" y1="208.265" x2="64.02" y2="219.956" gradientUnits="userSpaceOnUse">
<stop stop-color="#FFE1CD"/>
<stop offset="1" stop-color="#EB985E"/>
</linearGradient>
<linearGradient id="paint4_linear_3_168398" x1="176.503" y1="168.544" x2="83.674" y2="168.544" gradientUnits="userSpaceOnUse">
<stop stop-color="#984F1A"/>
<stop offset="1" stop-color="#C16A32"/>
</linearGradient>
<linearGradient id="paint5_linear_3_168398" x1="178.729" y1="199.62" x2="136.936" y2="127.788" gradientUnits="userSpaceOnUse">
<stop offset="0.17" stop-color="#FFC498"/>
<stop offset="0.22" stop-color="#F9B888"/>
<stop offset="0.32" stop-color="#F3A975"/>
<stop offset="0.43" stop-color="#EE9F68"/>
<stop offset="0.58" stop-color="#EB9960"/>
<stop offset="0.85" stop-color="#EB985E"/>
</linearGradient>
<linearGradient id="paint6_linear_3_168398" x1="174.46" y1="201.853" x2="132.874" y2="130.382" gradientUnits="userSpaceOnUse">
<stop stop-color="#683527"/>
<stop offset="0.33" stop-color="#4C2419"/>
<stop offset="0.76" stop-color="#2E1109"/>
<stop offset="1" stop-color="#230B04"/>
</linearGradient>
<linearGradient id="paint7_linear_3_168398" x1="178.997" y1="195.36" x2="139.138" y2="126.854" gradientUnits="userSpaceOnUse">
<stop stop-color="#683527"/>
<stop offset="0.33" stop-color="#4C2419"/>
<stop offset="0.76" stop-color="#2E1109"/>
<stop offset="1" stop-color="#230B04"/>
</linearGradient>
<linearGradient id="paint8_linear_3_168398" x1="121.116" y1="136.031" x2="98.7712" y2="207.212" gradientUnits="userSpaceOnUse">
<stop offset="0.08" stop-color="#EB985E"/>
<stop offset="1" stop-color="#FFE1CD"/>
</linearGradient>
<linearGradient id="paint9_linear_3_168398" x1="64.7327" y1="142.271" x2="-13.357" y2="8.06075" gradientUnits="userSpaceOnUse">
<stop stop-color="#683527"/>
<stop offset="0.33" stop-color="#4C2419"/>
<stop offset="0.76" stop-color="#2E1109"/>
<stop offset="1" stop-color="#230B04"/>
</linearGradient>
<linearGradient id="paint10_linear_3_168398" x1="51.6716" y1="138.386" x2="38.1052" y2="136.562" gradientUnits="userSpaceOnUse">
<stop stop-color="#EB985E"/>
<stop offset="0.8" stop-color="#FFE1CD"/>
</linearGradient>
<linearGradient id="paint11_linear_3_168398" x1="47.5137" y1="135.531" x2="35.8763" y2="126.854" gradientUnits="userSpaceOnUse">
<stop stop-color="#EB985E"/>
<stop offset="0.8" stop-color="#FFE1CD"/>
</linearGradient>
<linearGradient id="paint12_linear_3_168398" x1="46.6904" y1="130.353" x2="35.0551" y2="121.679" gradientUnits="userSpaceOnUse">
<stop stop-color="#EB985E"/>
<stop offset="0.8" stop-color="#FFE1CD"/>
</linearGradient>
<linearGradient id="paint13_linear_3_168398" x1="148.962" y1="203.761" x2="125.172" y2="160.865" gradientUnits="userSpaceOnUse">
<stop stop-color="#9D521D"/>
<stop offset="1" stop-color="#C16A32"/>
</linearGradient>
<linearGradient id="paint14_linear_3_168398" x1="138.623" y1="208.856" x2="150.843" y2="226.784" gradientUnits="userSpaceOnUse">
<stop stop-color="#FFE1CD"/>
<stop offset="1" stop-color="#EB985E"/>
</linearGradient>
<linearGradient id="paint15_linear_3_168398" x1="140.05" y1="152.51" x2="89.354" y2="148.759" gradientUnits="userSpaceOnUse">
<stop stop-color="#984F1A"/>
<stop offset="1" stop-color="#C16A32"/>
</linearGradient>
<linearGradient id="paint16_linear_3_168398" x1="97.9832" y1="166.428" x2="88.155" y2="152.753" gradientUnits="userSpaceOnUse">
<stop stop-color="#EB985E"/>
<stop offset="0.15" stop-color="#EC9C65"/>
<stop offset="0.36" stop-color="#EFA978"/>
<stop offset="0.62" stop-color="#F5BE98"/>
<stop offset="0.91" stop-color="#FDDBC5"/>
<stop offset="0.96" stop-color="#FFE1CD"/>
</linearGradient>
<linearGradient id="paint17_linear_3_168398" x1="104.112" y1="48.1066" x2="114.716" y2="155.995" gradientUnits="userSpaceOnUse">
<stop stop-color="#FFE1CD"/>
<stop offset="0.72" stop-color="#EB985E"/>
<stop offset="0.76" stop-color="#E99459"/>
<stop offset="0.81" stop-color="#E58B4D"/>
<stop offset="0.85" stop-color="#DD7936"/>
</linearGradient>
<linearGradient id="paint18_linear_3_168398" x1="156.767" y1="27.9683" x2="141.931" y2="25.9882" gradientUnits="userSpaceOnUse">
<stop stop-color="#FFE1CD"/>
<stop offset="0.85" stop-color="#EB985E"/>
</linearGradient>
<linearGradient id="paint19_linear_3_168398" x1="152.448" y1="27.3922" x2="141.931" y2="25.9885" gradientUnits="userSpaceOnUse">
<stop stop-color="#683527"/>
<stop offset="0.33" stop-color="#4C2419"/>
<stop offset="0.76" stop-color="#2E1109"/>
<stop offset="1" stop-color="#230B04"/>
</linearGradient>
<linearGradient id="paint20_linear_3_168398" x1="91.3296" y1="19.2594" x2="106.166" y2="21.2394" gradientUnits="userSpaceOnUse">
<stop stop-color="#FFE1CD"/>
<stop offset="0.85" stop-color="#EB985E"/>
</linearGradient>
<linearGradient id="paint21_linear_3_168398" x1="95.6522" y1="19.8359" x2="106.166" y2="21.2391" gradientUnits="userSpaceOnUse">
<stop stop-color="#683527"/>
<stop offset="0.33" stop-color="#4C2419"/>
<stop offset="0.76" stop-color="#2E1109"/>
<stop offset="1" stop-color="#230B04"/>
</linearGradient>
<linearGradient id="paint22_linear_3_168398" x1="159.792" y1="66.3083" x2="68.6916" y2="47.4957" gradientUnits="userSpaceOnUse">
<stop stop-color="#984F1A"/>
<stop offset="1" stop-color="#C16A32"/>
</linearGradient>
<linearGradient id="paint23_linear_3_168398" x1="109.941" y1="92.5155" x2="111.241" y2="106.517" gradientUnits="userSpaceOnUse">
<stop stop-color="#683527"/>
<stop offset="0.33" stop-color="#4C2419"/>
<stop offset="0.76" stop-color="#2E1109"/>
<stop offset="1" stop-color="#230B04"/>
</linearGradient>
<linearGradient id="paint24_linear_3_168398" x1="97.0758" y1="77.4526" x2="81.4818" y2="83.6267" gradientUnits="userSpaceOnUse">
<stop stop-color="#683527"/>
<stop offset="0.72" stop-color="#37170E"/>
<stop offset="1" stop-color="#230B04"/>
</linearGradient>
<linearGradient id="paint25_linear_3_168398" x1="143.51" y1="88.3021" x2="127.916" y2="94.4762" gradientUnits="userSpaceOnUse">
<stop stop-color="#683527"/>
<stop offset="0.72" stop-color="#37170E"/>
<stop offset="1" stop-color="#230B04"/>
</linearGradient>
<linearGradient id="paint26_linear_3_168398" x1="142.632" y1="75.8308" x2="151.634" y2="65.4738" gradientUnits="userSpaceOnUse">
<stop offset="0.4" stop-color="#984F1A"/>
<stop offset="1" stop-color="#C16A32"/>
</linearGradient>
<linearGradient id="paint27_linear_3_168398" x1="90.8175" y1="65.3807" x2="89.3754" y2="51.7343" gradientUnits="userSpaceOnUse">
<stop offset="0.4" stop-color="#984F1A"/>
<stop offset="1" stop-color="#C16A32"/>
</linearGradient>
<linearGradient id="paint28_linear_3_168398" x1="123.315" y1="91.6233" x2="98.9897" y2="91.6233" gradientUnits="userSpaceOnUse">
<stop stop-color="#683527"/>
<stop offset="0.33" stop-color="#4C2419"/>
<stop offset="0.76" stop-color="#2E1109"/>
<stop offset="1" stop-color="#230B04"/>
</linearGradient>
<linearGradient id="paint29_linear_3_168398" x1="178.604" y1="91.9901" x2="121.35" y2="94.2502" gradientUnits="userSpaceOnUse">
<stop stop-color="#683527"/>
<stop offset="0.33" stop-color="#4C2419"/>
<stop offset="0.76" stop-color="#2E1109"/>
<stop offset="1" stop-color="#230B04"/>
</linearGradient>
<linearGradient id="paint30_linear_3_168398" x1="103.768" y1="73.9714" x2="46.5136" y2="76.2315" gradientUnits="userSpaceOnUse">
<stop stop-color="#683527"/>
<stop offset="0.33" stop-color="#4C2419"/>
<stop offset="0.76" stop-color="#2E1109"/>
<stop offset="1" stop-color="#230B04"/>
</linearGradient>
</defs>
</svg>
