<svg width="141" height="223" viewBox="0 0 141 223" fill="none" xmlns="http://www.w3.org/2000/svg">
<g clip-path="url(#clip0_3_165248)">
<path d="M94.3844 194.689C94.3844 194.665 94.396 194.642 94.3999 194.619C91.8962 188.181 89.8971 181.529 88.8335 174.615C90.7588 174.292 93.3441 174.284 95.1957 173.574C94.0078 180.043 94.2369 186.524 95.8478 192.544C96.5853 191.979 97.482 191.523 98.2739 191.109C106.705 186.723 115.447 182.878 124.542 180.234C125.473 179.965 126.657 179.766 127.123 180.421C127.573 181.061 126.972 181.969 126.618 182.757C126.048 184.024 126.152 185.432 126.89 186.453C127.371 187.12 128.089 187.608 128.687 188.193C129.285 188.777 129.782 189.51 129.689 190.361C129.603 191.16 129.013 191.92 128.33 192.532C127.647 193.145 126.855 193.655 126.168 194.264C124.805 195.476 123.917 197.087 123.73 198.678C123.625 199.578 123.715 200.53 123.156 201.349C122.084 202.916 119.565 202.951 117.908 203.002C111.355 203.201 104.76 202.3 99.1123 200.054C97.8508 199.551 96.6164 198.97 95.6925 198.089C94.7687 197.208 94.1825 195.987 94.3883 194.685L94.3844 194.689Z" fill="url(#paint0_linear_3_165248)"/>
<g style="mix-blend-mode:overlay" opacity="0.2">
<path d="M94.3844 194.689C94.3844 194.665 94.396 194.642 94.3999 194.619C91.8962 188.181 89.8971 181.529 88.8335 174.615C90.7588 174.292 93.3441 174.284 95.1957 173.574C94.0078 180.043 94.2369 186.524 95.8478 192.544C96.5853 191.979 97.482 191.523 98.2739 191.109C106.705 186.723 115.447 182.878 124.542 180.234C125.473 179.965 126.657 179.766 127.123 180.421C127.573 181.061 126.972 181.969 126.618 182.757C126.048 184.024 126.152 185.432 126.89 186.453C127.371 187.12 128.089 187.608 128.687 188.193C129.285 188.777 129.782 189.51 129.689 190.361C129.603 191.16 129.013 191.92 128.33 192.532C127.647 193.145 126.855 193.655 126.168 194.264C124.805 195.476 123.917 197.087 123.73 198.678C123.625 199.578 123.715 200.53 123.156 201.349C122.084 202.916 119.565 202.951 117.908 203.002C111.355 203.201 104.76 202.3 99.1123 200.054C97.8508 199.551 96.6164 198.97 95.6925 198.089C94.7687 197.208 94.1825 195.987 94.3883 194.685L94.3844 194.689Z" fill="black"/>
</g>
<path d="M102.715 164.438C102.715 164.438 102.26 177.356 91.7138 181.981C81.1671 186.609 72.0684 176.803 72.0684 176.803L102.715 164.438Z" fill="url(#paint1_linear_3_165248)"/>
<path d="M29.703 193.706C29.7224 193.687 29.7457 193.675 29.769 193.659C33.2121 185.943 37.1637 178.448 41.9305 171.48C43.456 172.756 45.1679 174.842 46.9496 175.719C41.0455 180.472 36.0691 186.376 32.362 193C33.2975 193.094 34.2485 193.422 35.0986 193.698C44.1314 196.658 52.9352 200.347 61.0286 205.388C61.8593 205.903 62.7948 206.691 62.5813 207.646C62.3717 208.574 61.2576 208.894 60.3998 209.299C59.0179 209.958 57.9737 211.284 57.6515 212.785C57.4419 213.764 57.5273 214.778 57.4613 215.776C57.3953 216.774 57.1391 217.827 56.4055 218.506C55.7184 219.141 54.7247 219.336 53.7892 219.321C52.8537 219.305 51.926 219.114 50.9905 219.098C49.1311 219.067 47.2718 219.769 45.8899 221.021C45.1057 221.73 44.4148 222.643 43.3978 222.916C41.4492 223.434 39.7645 221.422 38.631 220.12C34.1515 214.981 30.5182 208.843 28.5735 202.281C28.1387 200.815 27.7855 199.298 27.8747 197.773C27.964 196.249 28.5424 194.693 29.7069 193.71L29.703 193.706Z" fill="url(#paint2_linear_3_165248)"/>
<g style="mix-blend-mode:overlay" opacity="0.2">
<path d="M29.703 193.706C29.7224 193.687 29.7457 193.675 29.769 193.659C33.2121 185.943 37.1637 178.448 41.9305 171.48C43.456 172.756 45.1678 174.842 46.9495 175.719C41.0454 180.472 36.0691 186.376 32.362 193C32.7152 193.036 33.0724 193.106 33.4256 193.195C31.3101 197.89 30.6657 203.392 31.1936 208.722C31.2014 208.832 31.2169 208.933 31.2285 209.042C30.1572 206.858 29.2566 204.597 28.5695 202.281C28.1348 200.815 27.7816 199.298 27.8708 197.773C27.9601 196.249 28.5385 194.697 29.703 193.71V193.706Z" fill="black"/>
</g>
<g style="mix-blend-mode:overlay" opacity="0.2">
<path d="M58.0434 205.529C58.4665 205.813 58.8974 206.114 59.1963 206.527C59.4951 206.94 59.6465 207.502 59.4563 207.978C59.239 208.523 58.6645 208.812 58.1598 209.108C56.7003 209.962 55.4154 211.37 55.2874 213.062C55.2214 213.947 55.4659 214.887 55.101 215.698C54.6702 216.649 53.5328 217.063 52.4925 217.121C51.4522 217.18 50.4003 216.981 49.3755 217.149C47.5976 217.437 46.1925 218.747 44.7019 219.761C44.469 219.917 44.1972 220.077 43.9255 220.011C43.6072 219.933 43.4364 219.554 43.4791 219.227C43.5218 218.899 43.7237 218.619 43.9372 218.365C45.3695 216.653 47.4928 215.593 49.6938 215.254C50.2799 215.164 50.9282 215.094 51.3319 214.657C51.8753 214.068 51.7006 213.148 51.7278 212.349C51.7705 210.96 52.574 209.619 53.7774 208.933C54.3169 208.625 55.0001 208.36 55.1515 207.755C55.3145 207.116 54.7711 206.531 54.282 206.09C52.8186 204.784 51.3552 203.482 49.8917 202.175C49.6705 201.98 49.4376 201.758 49.3949 201.466C49.2357 200.405 50.6099 201.244 50.9204 201.407C51.7356 201.84 52.5469 202.273 53.3542 202.717C54.9535 203.599 56.5295 204.519 58.0473 205.533L58.0434 205.529Z" fill="white"/>
</g>
<path d="M57.6981 177.941C57.6981 177.941 48.1219 186.571 37.486 182.149C26.85 177.727 27.5759 164.341 27.5759 164.341L57.6981 177.941Z" fill="url(#paint3_linear_3_165248)"/>
<path d="M10.4651 158.457C20.4528 172.56 34.7686 180.546 51.6968 183.779C68.6251 187.011 86.9701 182.85 100.405 172.011C113.839 161.171 121.902 143.686 120.691 126.42C119.154 104.483 104.403 84.8581 101.333 62.6986C97.7497 62.3243 98.5377 60.6437 94.9549 60.2694C86.974 59.4388 78.8729 58.5771 71.4316 55.5591C74.863 65.2643 77.3629 74.4081 80.7943 84.1134C82.1723 88.0165 83.562 91.9665 83.9424 96.088C84.3189 100.21 83.5814 104.588 81.066 107.868C56.1065 102.218 27.5447 113.561 13.1241 134.788C10.0536 132.585 6.33494 129.793 3.97873 126.834C3.08981 130.487 4.13011 134.558 6.661 137.327C4.67356 136.204 2.68999 135.085 0.702544 133.962C1.59922 138.157 3.55174 142.123 6.32329 145.39C3.98649 144.548 1.82048 143.234 -0.0078125 141.546C1.22658 145.188 3.76911 148.373 7.04141 150.377C4.83271 150.299 2.44544 150.233 0.143575 150.147C2.37169 153.497 8.13218 155.17 10.4573 158.453L10.4651 158.457Z" fill="url(#paint4_linear_3_165248)"/>
<g style="mix-blend-mode:overlay" opacity="0.4">
<path d="M13.1316 152.768C9.71179 151.126 6.62581 148.791 4.10269 145.948C5.87664 147.613 8.13581 148.748 10.527 149.177C7.55355 145.41 5.13135 141.206 3.35352 136.746C5.35261 138.949 7.9456 140.602 10.7831 141.483C8.67925 138.208 6.90142 134.722 5.4807 131.096C8.13193 133.962 11.4275 136.223 15.0492 137.666C13.2791 137.506 11.6371 137.44 9.96799 136.82C11.3732 139.584 12.7784 142.345 14.1835 145.11C11.9787 144.825 9.83989 143.998 8.01547 142.719C9.61475 145.644 11.7691 148.26 14.3311 150.381C13.0617 150.779 11.6643 150.752 10.4105 150.307C11.3654 151.196 12.1767 151.879 13.1316 152.768Z" fill="white"/>
</g>
<g style="mix-blend-mode:overlay" opacity="0.4">
<path d="M120.694 126.42C119.157 104.483 104.407 84.8581 101.336 62.6986C97.7534 62.3243 98.5414 60.6437 94.9585 60.2694C86.9777 59.4388 78.8765 58.5771 71.4353 55.5591C74.8667 65.2643 77.3665 74.4081 80.798 84.1134C80.9882 84.6476 81.1745 85.1818 81.3608 85.716C81.0037 82.6317 80.6505 79.5473 80.2934 76.463C81.5821 81.2669 83.9965 85.7589 87.2882 89.4749C86.0733 86.1332 85.5725 82.5264 85.8287 78.978C88.8371 85.7043 93.2583 91.791 98.7199 96.7197C97.897 93.7991 97.0741 90.8786 96.255 87.9619C100.583 94.8636 104.907 101.769 109.232 108.671C108.541 105.735 107.854 102.803 107.163 99.8664C112.395 108.889 114.837 119.515 114.068 129.93C114.724 127.629 115.38 125.329 116.036 123.028C118.493 135.517 113.851 149.165 104.302 157.533C106.087 156.468 107.873 155.404 109.659 154.339C101.274 166.864 87.3504 175.485 72.4445 177.388C74.3737 178.054 76.3029 178.725 78.2283 179.392C60.0113 184.075 40.1175 181.131 23.6938 172.011C31.7562 177.969 41.2237 181.786 51.6928 183.782C68.621 187.015 86.9661 182.854 100.401 172.014C113.835 161.174 121.898 143.69 120.687 126.424L120.694 126.42Z" fill="black"/>
</g>
<g style="mix-blend-mode:overlay" opacity="0.4">
<path d="M17.0678 130.585C18.6011 136.882 22.4945 142.567 27.8008 146.256C25.1768 145.929 22.6537 144.852 20.5963 143.184C24.315 150.374 31.4535 155.685 39.3839 157.159C38.6037 157.307 37.5246 157.701 36.7443 157.849C41.1423 161.253 46.7204 162.773 52.2363 163.374C62.193 164.454 72.662 162.617 80.9961 157.042C89.3302 151.462 95.2226 141.885 95.2032 131.825C81.6055 135.674 66.622 136.754 52.7914 133.868C42.7339 131.77 33.0567 127.875 24.3189 122.455C22.1141 124.311 20.0413 126.311 18.1159 128.444C19.0514 130.117 20.1267 131.716 21.33 133.209C19.6065 133.073 17.9723 132.063 17.064 130.581L17.0678 130.585Z" fill="black"/>
</g>
<path d="M94.5356 131.158C93.3711 141.647 84.3344 150.724 75.0726 155.287C65.31 160.098 52.5663 162.169 41.7207 158.41C46.4526 157.431 48.6885 156.051 51.2698 154.214C43.5607 154.23 35.7002 152.038 28.9537 147.987C32.1096 148.708 35.4828 148.069 37.9516 146.279C31.8107 144.677 26.2055 140.758 22.6498 135.584C23.8337 136.309 25.2467 136.66 26.5975 136.566C23.0884 132.012 20.7206 126.689 19.7734 121.23C20.5692 121.772 21.4814 122.326 22.2772 122.868C21.6638 120.236 21.5125 117.538 21.8269 114.921C24.4121 117.838 27.7582 120.142 31.4264 121.535C30.8053 120.213 30.3395 118.517 30.3395 117.105C37.7536 123.281 48.2032 125.812 57.2516 123.621C62.3366 122.388 66.8627 119.807 71.8042 118.193C76.7456 116.579 82.5798 116.037 87.3039 118.735C92.4666 121.683 95.1023 126.097 94.5433 131.162L94.5356 131.158Z" fill="url(#paint5_linear_3_165248)"/>
<path d="M81.8229 16.1961C83.0845 15.5995 84.3693 15.1082 85.6736 14.7183C87.3816 12.5425 88.4995 9.89877 88.8217 7.14199C89.4233 8.83817 90.1026 11.5521 89.1943 13.1079C93.0877 10.1639 94.8733 4.85312 95.5099 0.00244141C96.6822 3.77303 96.6084 7.68789 95.0713 11.322C96.6434 9.58683 97.9787 7.6294 99.019 5.5238C99.8885 8.30007 99.7953 11.361 98.8055 14.0944C108.122 15.888 116.696 22.2984 121.257 32.0154C128.574 47.6046 120.706 59.6494 106.247 66.5005C91.7873 73.3514 76.2099 72.4117 68.889 56.8225C61.568 41.2332 67.3596 23.0432 81.8229 16.1922V16.1961Z" fill="url(#paint6_linear_3_165248)"/>
<g style="mix-blend-mode:overlay" opacity="0.2">
<path d="M110.206 46.9458C110.086 47.289 109.954 47.6282 109.806 47.9596C109.492 47.8777 109.177 47.8076 108.863 47.7452C108.711 47.714 108.56 47.6828 108.413 47.6555C108.331 47.6399 108.25 47.6282 108.168 47.6126C105.676 47.1876 103.137 47.211 100.606 47.5346C98.3045 47.8271 96.0143 48.373 93.7862 49.0592C93.0758 49.2776 92.3694 49.5115 91.6707 49.7572C90.9098 50.0223 90.1568 50.3031 89.4154 50.5916C89.2213 50.3343 89.0427 50.0691 88.8719 49.7962C87.5172 47.6126 86.8806 44.9494 86.9272 42.4071C86.966 40.2157 87.5172 38.0204 88.6196 36.1215C91.6745 30.8497 99.2051 29.2003 104.496 31.8284C106.441 32.7954 107.935 34.1796 108.995 35.7978C111.165 39.1083 111.475 43.2922 110.202 46.9419L110.206 46.9458Z" fill="black"/>
</g>
<path d="M110.198 42.1069C110.214 42.8984 110.148 43.69 110 44.4659C109.95 44.7311 109.892 44.9923 109.826 45.2575C109.787 45.4057 109.744 45.5538 109.702 45.6981C109.616 45.9828 109.519 46.2635 109.414 46.5404C109.391 46.6027 109.368 46.6651 109.344 46.7236C109.325 46.7782 109.302 46.8289 109.278 46.8835C109.255 46.9381 109.232 46.9888 109.212 47.0434C109.139 47.211 109.061 47.3748 108.98 47.5347C108.945 47.601 108.91 47.6711 108.875 47.7413C108.723 47.7101 108.572 47.6828 108.424 47.6555C108.343 47.6399 108.261 47.6282 108.18 47.6126C105.688 47.1876 103.149 47.211 100.618 47.5347C98.3164 47.8271 96.0262 48.373 93.7981 49.0593C93.0877 49.2776 92.3813 49.5116 91.6826 49.7572C91.5972 49.6559 91.5156 49.5545 91.438 49.4531C91.3332 49.3127 91.2284 49.1685 91.1275 49.0203C91.0809 48.954 91.0343 48.8838 90.9916 48.8136C90.9877 48.8058 90.9838 48.8019 90.98 48.798C90.8053 48.5251 90.6423 48.2404 90.4948 47.9519C90.3977 47.7686 90.3084 47.5776 90.223 47.3865C90.1532 47.2227 90.0833 47.059 90.0173 46.8913C89.9552 46.7236 89.8931 46.5559 89.8349 46.3844C89.7766 46.2167 89.7262 46.0451 89.6757 45.8697C89.602 45.6123 89.536 45.3511 89.4777 45.0859C89.4583 44.9845 89.435 44.8832 89.4156 44.7818C89.3846 44.618 89.3574 44.4542 89.3341 44.2944C89.3186 44.2047 89.3069 44.115 89.2992 44.0292C89.2759 43.8538 89.2565 43.6744 89.2409 43.4989C89.206 43.0661 89.1905 42.6372 89.1982 42.2083C89.206 41.7287 89.2448 41.253 89.3069 40.7733C89.338 40.5355 89.3807 40.2976 89.4273 40.0637C89.4971 39.7088 89.5864 39.3618 89.6874 39.0148C89.765 38.7574 89.8504 38.5001 89.9474 38.2505C89.9785 38.1647 90.0095 38.0829 90.0445 38.001C90.1376 37.7787 90.2347 37.5604 90.3395 37.342C90.4443 37.1275 90.5569 36.9131 90.6772 36.7064C93.3478 32.0936 99.9351 30.6548 104.566 32.9514C104.667 33.0021 104.772 33.0567 104.869 33.1113C104.877 33.1113 104.88 33.1191 104.888 33.123C104.974 33.1698 105.055 33.2127 105.137 33.2595C105.238 33.318 105.338 33.3764 105.436 33.4388C105.478 33.4661 105.521 33.4934 105.564 33.5207C105.63 33.5636 105.696 33.6065 105.758 33.6494C105.808 33.6845 105.859 33.7196 105.913 33.7547C106.022 33.8288 106.13 33.9106 106.235 33.9886C107.155 34.6866 107.908 35.5132 108.506 36.4257C109.628 38.1374 110.183 40.1144 110.214 42.103L110.198 42.1069Z" fill="white"/>
<path d="M108.786 46.6104C108.611 46.9691 108.401 47.3083 108.168 47.6164C105.676 47.1914 103.138 47.2148 100.607 47.5384C100.494 47.3785 100.389 47.2148 100.288 47.0432C100.207 46.8989 100.129 46.7547 100.056 46.6065C99.1123 44.7114 98.8367 42.3953 99.0968 40.3248C99.1395 39.9972 99.1938 39.6775 99.2715 39.3578C99.8576 36.9207 101.88 35.1504 104.36 35.3922C105.816 35.5326 107.194 36.3631 108.126 37.5602C108.568 38.1256 108.91 38.7651 109.162 39.4513C109.938 41.5725 109.861 44.4541 108.789 46.6104H108.786Z" fill="#4C280F"/>
<path opacity="0.1" d="M105.897 33.7586C106.006 33.8327 106.115 33.9146 106.22 33.9925C105.855 33.7352 105.463 33.5012 105.043 33.2946C100.836 31.2046 94.8499 32.5147 92.42 36.7064C91.5466 38.2193 91.108 39.9584 91.0769 41.7053C91.0342 43.9396 91.6592 46.2908 92.979 48.1157C93.2119 48.4354 93.4642 48.7395 93.7398 49.0242L93.7825 49.0671C93.0721 49.2854 92.3656 49.5194 91.6669 49.7651C91.5815 49.6637 91.5 49.5623 91.4224 49.4609C91.3176 49.3205 91.2128 49.1763 91.1118 49.0281C91.0653 48.9618 91.0187 48.8916 90.976 48.8214C90.9721 48.8136 90.9682 48.8097 90.9643 48.8058C90.7897 48.5329 90.6266 48.2482 90.4791 47.9597C90.3821 47.7764 90.2928 47.5854 90.2074 47.3943C90.1375 47.2305 90.0677 47.0668 90.0017 46.8991C89.9396 46.7314 89.8775 46.5638 89.8192 46.3922C89.761 46.2245 89.7105 46.053 89.6601 45.8775C89.5863 45.6201 89.5203 45.3589 89.4621 45.0937C89.4427 44.9924 89.4194 44.891 89.4 44.7896C89.3689 44.6258 89.3418 44.4621 89.3185 44.3022C89.303 44.2125 89.2913 44.1228 89.2835 44.037C89.2603 43.8616 89.2408 43.6822 89.2253 43.5067C89.1904 43.0739 89.1749 42.645 89.1826 42.2161C89.1904 41.7365 89.2292 41.2608 89.2913 40.7812C89.3224 40.5433 89.3612 40.3054 89.4116 40.0715C89.5514 39.3657 89.7571 38.6717 90.0288 38.0088C90.1181 37.7865 90.2152 37.5682 90.3239 37.3498C90.4287 37.1353 90.5412 36.9209 90.6616 36.7142C93.3322 32.1014 99.9195 30.6626 104.55 32.9592C104.651 33.0099 104.756 33.0645 104.853 33.1191C104.861 33.1191 104.865 33.1269 104.873 33.1308C104.958 33.1776 105.039 33.2205 105.121 33.2673C105.222 33.3258 105.323 33.3843 105.42 33.4466C105.463 33.4739 105.505 33.5012 105.548 33.5285C105.614 33.5714 105.68 33.6143 105.742 33.6572C105.793 33.6923 105.843 33.7274 105.897 33.7625V33.7586Z" fill="black"/>
<path opacity="0.1" d="M109.41 46.5441C109.387 46.6065 109.364 46.665 109.34 46.7235C109.298 46.8327 109.251 46.938 109.208 47.0432C109.135 47.2109 109.057 47.3747 108.975 47.5345C108.941 47.6008 108.906 47.671 108.871 47.7412C108.719 47.71 108.568 47.6827 108.42 47.6554C108.638 47.3318 108.832 46.9964 109.01 46.6533C109.829 45.0546 110.237 43.2531 110.175 41.4673C110.303 43.183 110.039 44.9298 109.418 46.5441H109.41Z" fill="black"/>
<path d="M87.3116 27.59C86.5586 28.6038 85.9608 29.8983 86.4421 30.7055C86.8342 31.3605 87.8007 31.458 88.7091 31.3956C91.6902 31.1929 94.9781 29.7268 97.5555 27.4496C98.4056 26.697 99.2247 25.7885 99.4576 24.8254C99.7759 23.4996 98.821 22.5053 97.5711 22.3065C94.225 21.7762 89.6252 24.4628 87.3116 27.59Z" fill="#BC8B66"/>
<g style="mix-blend-mode:overlay" opacity="0.2">
<path d="M93.4994 29.0679C91.1121 30.0817 88.6511 30.1675 86.3065 29.6489C86.2366 30.0388 86.2677 30.4054 86.4463 30.7017C86.8383 31.3568 87.8049 31.4543 88.7132 31.3919C91.6944 31.1891 94.9822 29.723 97.5597 27.4458C98.4098 26.6933 99.2288 25.7847 99.4617 24.8216C99.5161 24.5994 99.5277 24.3927 99.516 24.1899C98.0022 26.2643 95.9293 27.9761 93.5033 29.064L93.4994 29.0679Z" fill="black"/>
</g>
<g style="mix-blend-mode:overlay" opacity="0.3">
<path d="M67.3091 52.8061C69.2111 57.3487 72.2777 61.1895 77.3899 63.6577C76.8698 61.9577 74.4282 60.8893 75.0415 58.6511C78.6437 62.7843 83.7366 65.3773 89.1089 65.6152C87.2146 65.12 85.8017 63.2873 84.0277 62.4607C88.4917 63.1274 93.2662 65.0381 97.4624 62.7726C95.6768 62.5075 94.0115 61.907 92.3424 61.3026C99.4731 61.4936 111.347 58.1403 116.588 49.2617C119.681 43.83 121.122 38.1488 121.405 32.3389C128.462 47.7682 120.605 59.6961 106.247 66.5003C91.7873 73.3513 76.2099 72.4116 68.8889 56.8223C68.2679 55.5005 67.7438 54.1552 67.3091 52.8061Z" fill="black"/>
</g>
<g style="mix-blend-mode:overlay" opacity="0.4">
<path d="M84.3458 17.3891C86.3643 16.0009 87.9093 13.9382 88.6778 11.6065C88.7749 13.5405 88.1655 15.5057 86.9893 17.0381C90.3742 14.7532 93.0176 11.3725 94.415 7.52393C94.3335 9.96486 93.6969 12.3863 92.5635 14.5465C94.842 13.248 96.7324 11.2711 97.9319 8.93546C97.6796 11.0372 97.0158 13.0882 95.9833 14.9325C96.1075 14.2813 96.0687 13.4274 96.1929 12.7762C94.8498 14.8194 92.7265 16.3324 90.3625 16.925C91.3019 15.572 91.9696 14.0357 92.3189 12.4253C90.3353 15.3965 87.3581 17.6854 83.981 18.8318C85.1649 18.0168 86.1237 16.8666 86.7098 15.5525C85.9606 16.4103 85.359 16.89 84.3381 17.393L84.3458 17.3891Z" fill="white"/>
</g>
<path d="M116.65 49.8624C120.598 45.4289 122.123 41.0851 122.212 35.1388C128.419 36.254 133.846 36.3085 139.995 34.9165C140.717 37.1079 141.07 39.4435 140.992 41.7207C140.829 46.4622 137.239 48.7862 133.252 51.3285C128.854 54.1321 118.688 57.3685 118.668 57.4971C118.703 55.7659 117.228 50.2718 116.65 49.8585V49.8624Z" fill="url(#paint7_linear_3_165248)"/>
<g style="mix-blend-mode:overlay" opacity="0.2">
<path d="M138.166 35.9304C138.469 35.8602 138.896 35.8407 138.974 36.1176C139.024 36.293 138.877 36.4685 138.737 36.6011C137.848 37.4316 136.714 38.0087 135.546 38.4454C133.795 39.1044 131.886 39.5138 129.995 39.5879C128.528 39.6464 126.979 39.6113 125.609 39.12C124.634 38.773 123.753 38.1686 123.249 37.3302C123.043 36.991 122.814 36.3437 123.291 36.0942C123.617 35.9226 124.025 36.0942 124.351 36.1605C124.817 36.2579 125.287 36.3437 125.756 36.4178C129.844 37.0651 134.106 36.8935 138.17 35.9343L138.166 35.9304Z" fill="white"/>
</g>
<g style="mix-blend-mode:overlay" opacity="0.2">
<path d="M132.192 49.4568C127.515 50.7982 122.399 50.1236 118.502 47.5423C117.954 48.3183 117.341 49.0903 116.654 49.8663C117.232 50.2796 118.707 55.7737 118.672 57.5049C118.692 57.3723 128.858 54.1399 133.256 51.3363C136.924 48.9967 140.255 46.8365 140.891 42.8164C138.826 45.8656 136.043 48.3261 132.196 49.4646L132.192 49.4568Z" fill="black"/>
</g>
<path d="M111.608 48.5092C111.014 48.2948 110.412 48.1154 109.806 47.9634C109.492 47.8815 109.178 47.8113 108.863 47.7489C108.712 47.7177 108.56 47.6865 108.413 47.6592C108.331 47.6436 108.25 47.6319 108.168 47.6163C105.676 47.1913 103.138 47.2147 100.607 47.5383C98.3048 47.8308 96.0146 48.3767 93.7865 49.0629C93.0761 49.2813 92.3697 49.5153 91.6709 49.7609C90.9101 50.0261 90.1571 50.3068 89.4157 50.5954C88.7946 50.8371 88.1813 51.0867 87.5757 51.3401C87.2186 51.4883 87.0556 50.9463 87.3273 50.7552C87.8203 50.4082 88.3365 50.0923 88.8722 49.8038C89.5476 49.4373 90.2541 49.1097 90.9761 48.8212C91.6282 48.5599 92.2998 48.326 92.9791 48.1154C95.1179 47.4564 97.3499 47.0314 99.4538 46.7C99.6557 46.6688 99.8536 46.6376 100.055 46.6064C102.94 46.1931 105.925 46.0566 108.785 46.6142C108.859 46.6259 108.929 46.6415 109.003 46.661C109.115 46.6805 109.224 46.7078 109.337 46.7312C109.628 46.7975 109.919 46.8716 110.202 46.9534C110.765 47.1094 111.324 47.3005 111.875 47.5227C112.473 47.7645 112.232 48.7393 111.604 48.5131L111.608 48.5092Z" fill="#96603B"/>
<g style="mix-blend-mode:overlay" opacity="0.2">
<path d="M44.2439 126.163C40.9639 125.056 37.808 123.574 34.854 121.757C35.9487 123.855 37.4354 125.742 39.2171 127.29C33.5459 126.674 28.158 123.718 24.583 119.253C26.2987 123.558 29.0897 127.426 32.6259 130.401C29.4972 129.341 26.5665 127.684 24.0356 125.551C26.159 131.536 30.8442 136.558 36.6513 139.069C33.9573 139.541 31.1082 139.058 28.7209 137.716C33.8564 142.181 40.4825 144.879 47.2639 145.269C43.8946 146.938 40.1487 147.843 36.3912 147.897C42.3691 150.147 48.6769 151.524 55.0468 151.96C53.9366 154.23 52.2869 155.918 50.2218 157.365C56.0056 157.844 61.8825 157.174 67.414 155.407C64.3746 155.926 61.4284 155.294 58.3463 155.251C60.7413 153.598 62.7287 151.356 64.0873 148.775C58.5248 149.289 52.9041 149.118 47.3843 148.26C49.5076 147.082 51.9569 145.566 54.0802 144.388C49.4843 143.671 44.9737 142.415 40.6689 140.653C42.4195 140.692 44.1741 140.387 45.8122 139.767C41.6936 138.165 37.8274 135.919 34.3921 133.135C36.7211 133.782 39.2093 133.856 41.5733 133.357C39.0191 131.91 36.7755 129.914 35.0287 127.547C38.1419 129.286 41.7907 130.05 45.3386 129.703C43.8791 128.584 42.4195 127.461 40.96 126.342C42.3147 126.545 42.8892 125.96 44.2439 126.163Z" fill="white"/>
</g>
</g>
<defs>
<linearGradient id="paint0_linear_3_165248" x1="126.493" y1="178.637" x2="93.4643" y2="193.656" gradientUnits="userSpaceOnUse">
<stop offset="0.23" stop-color="#EA8E49"/>
<stop offset="0.99" stop-color="#C6601A"/>
</linearGradient>
<linearGradient id="paint1_linear_3_165248" x1="85.1901" y1="163.907" x2="96.2067" y2="195.145" gradientUnits="userSpaceOnUse">
<stop stop-color="#F9EFE8"/>
<stop offset="0.34" stop-color="#F8EDE5"/>
<stop offset="0.58" stop-color="#F5E7DC"/>
<stop offset="0.78" stop-color="#F0DDCC"/>
<stop offset="0.97" stop-color="#E9CFB6"/>
<stop offset="1" stop-color="#E8CDB3"/>
</linearGradient>
<linearGradient id="paint2_linear_3_165248" x1="63.2616" y1="205.58" x2="29.501" y2="192.314" gradientUnits="userSpaceOnUse">
<stop offset="0.23" stop-color="#EA8E49"/>
<stop offset="0.99" stop-color="#C6601A"/>
</linearGradient>
<linearGradient id="paint3_linear_3_165248" x1="45.6205" y1="164.885" x2="30.667" y2="194.426" gradientUnits="userSpaceOnUse">
<stop stop-color="#F9EFE8"/>
<stop offset="0.34" stop-color="#F8EDE5"/>
<stop offset="0.58" stop-color="#F5E7DC"/>
<stop offset="0.78" stop-color="#F0DDCC"/>
<stop offset="0.97" stop-color="#E9CFB6"/>
<stop offset="1" stop-color="#E8CDB3"/>
</linearGradient>
<linearGradient id="paint4_linear_3_165248" x1="60.7685" y1="188.575" x2="59.9342" y2="67.2179" gradientUnits="userSpaceOnUse">
<stop stop-color="#F9EFE8"/>
<stop offset="1" stop-color="#E8CDB3"/>
</linearGradient>
<linearGradient id="paint5_linear_3_165248" x1="27.9345" y1="146.016" x2="92.1008" y2="112.254" gradientUnits="userSpaceOnUse">
<stop stop-color="#D3AD8D"/>
<stop offset="0.31" stop-color="#DFC1A7"/>
<stop offset="0.67" stop-color="#EAD4C0"/>
<stop offset="0.89" stop-color="#EFDCCA"/>
</linearGradient>
<linearGradient id="paint6_linear_3_165248" x1="101.257" y1="66.6077" x2="85.5196" y2="10.6339" gradientUnits="userSpaceOnUse">
<stop stop-color="#E8CDB3"/>
<stop offset="1" stop-color="#F9EFE8"/>
</linearGradient>
<linearGradient id="paint7_linear_3_165248" x1="124.906" y1="28.9656" x2="131.806" y2="56.2262" gradientUnits="userSpaceOnUse">
<stop offset="0.23" stop-color="#EA8E49"/>
<stop offset="0.99" stop-color="#C6601A"/>
</linearGradient>
<clipPath id="clip0_3_165248">
<rect width="141" height="223" fill="white"/>
</clipPath>
</defs>
</svg>
