<svg width="195" height="204" viewBox="0 0 195 204" fill="none" xmlns="http://www.w3.org/2000/svg">
<g clip-path="url(#clip0_38_192410)">
<path d="M133.154 158.551C136.797 156.983 141.283 158.402 143.95 161.338C146.618 164.272 147.646 168.42 147.483 172.384C147.342 175.837 146.387 179.371 147.36 182.685C148.325 185.978 151.158 188.537 154.4 189.657C158.403 191.041 163.07 190.33 166.48 187.819C169.889 185.307 171.949 181.062 171.812 176.831C171.642 171.574 169.449 166.453 170.794 161.37C171.513 158.656 173.074 155.924 175.571 154.642C178.068 153.36 180.355 153.457 183.138 153.829C186.68 154.301 190.121 155.969 192.393 158.727C194.662 161.485 195.632 165.37 194.554 168.776C193.872 170.926 192.324 172.798 190.375 173.907C189.901 174.177 190.048 173.485 190.494 173.168C191.834 172.219 192.361 171.039 192.954 169.419C193.99 166.595 193.463 163.312 191.818 160.793C190.174 158.273 187.501 156.511 184.6 155.712C182.239 155.061 179.616 155.046 177.436 156.157C174.574 157.618 172.919 160.806 172.497 163.989C172.074 167.172 172.678 170.394 173.365 173.53C176.444 187.58 165.821 197.464 151.591 192.955C146.531 191.353 143.376 187.14 142.788 181.867C142.416 178.527 142.856 173.886 142.387 170.559C141.917 167.229 139.536 166.718 136.189 166.398C135.108 164.086 133.941 160.979 133.148 158.554L133.154 158.551Z" fill="url(#paint0_linear_38_192410)"/>
<g style="mix-blend-mode:overlay" opacity="0.3">
<path d="M143.952 161.338C145.345 162.872 146.292 164.736 146.853 166.731C145.395 169.715 144.831 173.283 144.299 176.537C143.871 179.505 144.566 182.601 146.004 185.231C149.592 191.293 157.07 193.778 163.557 191.691C170.041 189.604 174.293 182.793 173.438 175.955C173.087 173.485 172.171 170.884 172.483 168.425C172.659 170.14 173.003 171.849 173.37 173.535C176.449 187.585 165.826 197.47 151.596 192.96C146.536 191.358 143.381 187.145 142.793 181.872C142.421 178.532 142.861 173.892 142.392 170.564C141.922 167.235 139.54 166.723 136.193 166.404C135.113 164.091 133.945 160.984 133.153 158.559C136.797 156.991 141.282 158.41 143.95 161.346L143.952 161.338Z" fill="black"/>
</g>
<path d="M109.184 181.843C117.52 184.969 127.073 191.219 132.492 200.047C135.734 199.57 137.193 199.533 140.6 198.998C140.6 188.988 140.277 160.834 137.67 156.322C125.622 164.295 122.155 175.483 109.184 181.843Z" fill="url(#paint1_linear_38_192410)"/>
<path d="M132.411 199.989C134.756 200.629 142.072 202.228 144.524 202.512C146.938 202.792 148.8 202.913 150.285 202.913C150.725 202.913 151.132 202.9 151.512 202.879C152.813 202.805 153.778 202.614 154.592 202.341C154.854 202.255 155.098 202.158 155.334 202.053C155.654 201.914 155.956 201.759 156.257 201.594C153.873 198.765 151.292 197.181 147.958 196.778C144.624 196.374 132.951 199.119 132.411 199.987V199.989Z" fill="url(#paint2_linear_38_192410)"/>
<path d="M148.137 200.514C148.333 200.849 148.674 201.101 148.963 201.387C149.243 201.667 149.514 201.961 149.765 202.26C149.946 202.472 150.12 202.69 150.285 202.913C150.725 202.913 151.132 202.9 151.512 202.879C151.24 202.464 150.922 202.071 150.563 201.691C150.022 201.122 149.348 200.406 148.501 200.136C148.213 200.044 148.034 200.335 148.137 200.514Z" fill="#985119"/>
<path d="M150.105 198.558C151.309 199.376 152.505 200.165 153.51 201.148C153.9 201.528 154.26 201.927 154.59 202.341C154.853 202.255 155.096 202.158 155.333 202.053C154.1 200.472 152.424 199.053 150.427 198.22C150.168 198.109 149.861 198.393 150.102 198.558H150.105Z" fill="#985119"/>
<g style="mix-blend-mode:overlay" opacity="0.2">
<path d="M132.639 199.806C139.926 201.043 147.441 201.232 154.487 199.761C155.093 200.301 155.68 200.91 156.257 201.594C155.956 201.759 155.654 201.911 155.334 202.053C155.098 202.158 154.854 202.252 154.592 202.341C153.778 202.614 152.813 202.805 151.512 202.879C151.134 202.9 150.725 202.913 150.285 202.913C148.8 202.913 146.938 202.792 144.524 202.512C142.072 202.228 134.759 200.629 132.411 199.989C132.445 199.934 132.521 199.874 132.639 199.806Z" fill="black"/>
</g>
<g style="mix-blend-mode:overlay" opacity="0.2">
<path d="M132.749 160.116C132.164 163.506 131.403 166.854 130.638 170.344C128.46 180.789 129.628 190.676 132.757 200.008C132.67 200.021 132.581 200.034 132.492 200.047C127.075 191.219 117.522 184.969 109.184 181.843C120.2 176.44 124.363 167.557 132.749 160.116Z" fill="black"/>
</g>
<path d="M89.9371 198.254C76.5045 179.395 76.3287 170.454 75.1143 162.555C85.1658 169.649 97.2397 175.008 107.897 181.154C103.388 187.024 100.479 193.5 99.2358 200.797C96.0619 200.689 91.7785 200.839 89.9371 198.254Z" fill="url(#paint3_linear_38_192410)"/>
<path d="M99.2797 200.883C96.9347 201.523 89.619 203.122 87.1665 203.405C84.7533 203.686 82.8909 203.806 81.4063 203.806C80.9656 203.806 80.559 203.793 80.1787 203.772C78.8777 203.699 77.9124 203.507 77.0992 203.235C76.8369 203.148 76.593 203.051 76.3569 202.946C76.0369 202.807 75.7352 202.653 75.4336 202.487C77.8179 199.658 80.399 198.075 83.7329 197.671C87.0668 197.267 98.7394 200.012 99.2797 200.88V200.883Z" fill="url(#paint4_linear_38_192410)"/>
<path d="M83.5555 201.407C83.3588 201.743 83.0178 201.995 82.7293 202.28C82.4486 202.561 82.1784 202.854 81.9266 203.153C81.7456 203.366 81.5725 203.583 81.4073 203.806C80.9666 203.806 80.56 203.793 80.1797 203.772C80.4525 203.358 80.7699 202.965 81.1292 202.584C81.6696 202.015 82.3437 201.3 83.1909 201.03C83.4795 200.938 83.6578 201.229 83.5555 201.407Z" fill="#985119"/>
<path d="M81.5852 199.451C80.3812 200.269 79.1851 201.059 78.1804 202.042C77.7896 202.422 77.4302 202.821 77.0997 203.235C76.8374 203.148 76.5935 203.051 76.3574 202.946C77.5903 201.365 79.2664 199.947 81.2625 199.113C81.5222 199.006 81.8291 199.286 81.5878 199.451H81.5852Z" fill="#985119"/>
<g style="mix-blend-mode:overlay" opacity="0.2">
<path d="M99.0515 200.7C91.7647 201.937 84.2497 202.126 77.2042 200.655C76.5982 201.195 76.0107 201.804 75.4336 202.488C75.7352 202.653 76.0369 202.805 76.3569 202.947C76.593 203.052 76.8369 203.146 77.0992 203.235C77.9124 203.508 78.8777 203.699 80.1787 203.773C80.5564 203.794 80.9656 203.807 81.4063 203.807C82.8909 203.807 84.7533 203.686 87.1665 203.406C89.619 203.122 96.9321 201.523 99.2797 200.883C99.2456 200.828 99.1696 200.768 99.0515 200.7Z" fill="black"/>
</g>
<g style="mix-blend-mode:overlay" opacity="0.2">
<path d="M85.0566 184.284C91.1867 185.873 97.9883 186.854 104.643 186.573C104.517 186.586 104.391 186.602 104.265 186.615C102.062 190.506 100.488 194.659 99.5542 199.121C96.4197 193.073 90.1952 188.343 85.0593 184.284H85.0566Z" fill="black"/>
</g>
<path d="M116.201 184.237C127.795 180.994 137.235 171.996 138.232 160.069C138.704 154.419 133.279 147.568 129.156 140.704C121.3 127.624 114.074 114.278 112.66 113.649C101.926 108.867 79.3784 106.484 75.2445 117.414C71.205 128.09 72.7133 157.547 77.1987 172.622C82.0041 188.765 99.4264 188.93 116.201 184.237Z" fill="url(#paint5_linear_38_192410)"/>
<path d="M112.539 160.766C112.746 161.836 112.919 162.9 113.058 163.96C113.94 170.771 109.703 176.904 104.247 179.811C99.6728 182.25 93.9703 181.924 89.4456 179.266C83.9136 176.015 81.2931 169.987 80.4931 163.577C79.7613 157.725 79.9056 151.723 80.7449 145.927C81.6446 139.694 85.6684 132.534 92.0765 131.766C97.9757 131.058 102.414 136.457 105.236 141.349C108.565 147.117 111.233 154.015 112.542 160.766H112.539Z" fill="url(#paint6_linear_38_192410)"/>
<g style="mix-blend-mode:overlay" opacity="0.3">
<path d="M81.8826 165.095C82.2157 163.695 82.5515 162.295 82.8846 160.898C83.4932 163.147 84.1017 165.397 84.7103 167.644C85.3477 164.859 85.9877 162.072 86.6251 159.288C87.5746 162.227 88.5242 165.163 89.4737 168.102C89.9013 164.757 90.3288 161.409 90.7537 158.063C92.2305 160.905 93.7073 163.75 95.1841 166.592C95.3415 163.417 95.7953 160.263 96.5297 157.193C98.3685 161.697 100.205 166.204 102.043 170.708C101.973 165.103 102.445 159.503 103.447 154.023C104.984 156.304 106.521 158.588 108.058 160.869C108.231 159.196 108.173 157.494 107.89 155.83C108.745 157.285 109.6 158.74 110.455 160.195C110.28 157.282 109.59 154.395 108.433 151.732C108.758 152.966 108.963 154.102 109.286 155.334C108.066 153.562 106.849 151.787 105.629 150.014C105.967 151.747 106.306 153.483 106.644 155.216C105.293 152.445 103.381 149.978 101.081 148.04C100.829 152.363 100.577 156.687 100.325 161.01C98.4603 156.807 96.5953 152.602 94.7303 148.399C94.5336 152.93 94.3342 157.463 94.1375 161.993C93.007 157.542 91.4384 153.208 89.4658 149.089C88.9045 153.244 88.7524 157.473 89.0094 161.681C87.8448 158.155 86.6802 154.626 85.5155 151.1C85.1614 154.697 84.8099 158.294 84.4558 161.891C83.9968 159.324 83.1863 156.821 82.0557 154.49C81.6387 158.066 81.6806 161.482 81.8826 165.095Z" fill="white"/>
</g>
<g style="mix-blend-mode:overlay" opacity="0.4">
<path d="M75.2451 117.415C79.3791 106.487 101.927 108.868 112.66 113.65C114.014 114.253 120.713 126.544 128.189 139.087C123.41 145.109 115.716 148.722 108.02 145.697C104.28 153.517 98.3253 159.296 91.0123 164.566C86.4298 167.804 81.85 170.017 76.9291 171.684C72.6536 156.354 71.2896 127.876 75.2451 117.415Z" fill="black"/>
</g>
<path d="M46.3699 31.882C46.2964 31.882 46.223 31.8741 46.1469 31.8689C44.2767 31.6932 42.9022 30.0336 43.0806 28.1642C43.4426 24.3389 45.5882 21.3868 47.4821 18.7833C48.8565 16.8929 50.1549 15.1074 50.572 13.2957C50.9864 11.4893 50.4304 9.43902 49.187 8.19364C47.9568 6.96137 46 6.47371 44.4288 7.00595C42.9048 7.52507 41.7271 9.06934 41.6904 10.6031C41.6431 12.4804 40.0824 13.9643 38.2043 13.9171C38.1991 13.9171 38.1938 13.9171 38.1886 13.9171C36.3184 13.8621 34.8416 12.3047 34.8888 10.4327C34.999 6.05946 38.0207 2.00085 42.2386 0.5667C46.2335 -0.791414 50.9628 0.341222 54.0029 3.3878C56.925 6.31378 58.1526 10.6949 57.2031 14.8164C56.4739 17.981 54.6194 20.5294 52.9852 22.7789C51.4035 24.9525 50.0395 26.8271 49.8533 28.7987C49.6828 30.5947 48.1483 31.9318 46.3699 31.8794V31.882Z" fill="white"/>
<path d="M41.9114 36.9184C41.7015 38.0485 41.9376 39.2519 42.6642 40.1538C45.623 43.8322 51.1576 40.2954 49.715 36.4124C48.8913 34.197 46.0506 32.7786 43.7265 34.1996C42.7324 34.8079 42.1134 35.8278 41.9114 36.9184Z" fill="white"/>
<g style="mix-blend-mode:overlay" opacity="0.2">
<path d="M103.877 136.349C103.741 136.428 103.602 136.504 103.463 136.582C103.444 136.575 103.426 136.564 103.41 136.556L103.877 136.349Z" fill="black"/>
</g>
<path d="M103.878 136.349C94.957 141.454 84.4333 144.786 73.5293 145.953C73.2303 138.845 72.8237 133.232 73.6158 127.21C72.4145 126.806 71.3233 126.339 70.2242 125.781L70.1718 125.655C67.9396 132.6 66.6674 139.755 66.7435 146.921C66.7749 149.959 67.234 153.32 70.0616 155.373C71.625 156.509 73.7496 157.08 75.8638 157.206C77.978 157.329 80.1 157.038 82.1565 156.621C93.6297 154.293 103.673 147.87 108.972 139.475C107.186 138.559 105.197 137.471 103.414 136.556L103.881 136.349H103.878Z" fill="url(#paint7_linear_38_192410)"/>
<g style="mix-blend-mode:overlay" opacity="0.2">
<path d="M86.6494 143.457C92.6221 141.805 98.3036 139.488 103.463 136.583C105.234 137.492 107.201 138.567 108.969 139.472C107.387 141.981 105.378 144.309 103.036 146.409C97.4039 146.469 91.7224 145.591 86.6494 143.454V143.457Z" fill="black"/>
</g>
<path d="M84.5583 138.691C84.5557 138.659 84.5531 138.646 84.5505 138.644C84.136 136.08 85.3846 130.972 87.643 131.059C89.7388 130.912 96.4512 131.995 101.626 130.713C99.3077 124.992 92.6662 116.272 90.2005 112.554C97.9857 109.292 104.215 108.886 112.646 109.284C116.73 114.185 120.25 119.557 123.107 125.262C124.208 127.459 125.21 129.737 125.782 132.136C126.496 135.125 127.065 138.444 124.229 140.471C122.488 141.717 120.373 142.453 118.327 143.009C114.293 144.102 110.039 144.042 105.871 143.717C98.5602 143.148 91.2445 141.766 84.54 138.798C84.5426 138.741 84.5452 138.646 84.5505 138.646C84.5505 138.662 84.5531 138.678 84.5583 138.694V138.691Z" fill="url(#paint8_linear_38_192410)"/>
<g style="mix-blend-mode:overlay" opacity="0.3">
<path d="M68.4564 132.044C69.0361 128.077 68.9286 129.525 70.1719 125.652L70.2244 125.778C71.2369 126.289 72.2389 126.727 73.33 127.107C73.7051 123.175 74.3347 119.816 75.2422 117.412C77.9387 110.28 88.4755 108.817 98.4536 109.989C102.936 109.101 107.359 109.032 112.644 109.281C115.05 112.165 117.256 115.215 119.246 118.395C105.268 130.933 87.2374 132.236 68.4512 132.042L68.4564 132.044Z" fill="black"/>
</g>
<path d="M107.99 79.1276C111.406 85.3859 115.763 91.0779 120.101 96.7358C121.691 98.2041 124.125 99.1768 126.85 99.5674C129.342 99.924 132.081 99.7955 134.651 99.1165C140.031 97.6902 144.658 94.0511 147.953 89.5651C151.245 85.0791 153.291 79.7856 154.644 74.3899C158.03 60.8743 157.073 45.9665 150.222 33.8326C149.275 32.1572 148.194 30.5212 146.966 29.0215C144.745 26.3053 142.043 24.0348 138.793 22.7815C134.761 21.2268 130.187 21.392 126.087 22.7579C121.987 24.1213 118.333 26.6199 115.185 29.5774C107.172 37.102 102.259 47.8332 101.8 58.8135C101.504 65.9607 104.578 72.8692 107.993 79.1302L107.99 79.1276Z" fill="url(#paint9_linear_38_192410)"/>
<path d="M112.637 76.975C114.945 82.2003 118.045 87.035 121.133 91.8435C122.305 93.1203 124.183 94.0615 126.334 94.5544C128.302 95.0054 130.494 95.0841 132.593 94.7144C136.984 93.9331 140.921 91.3374 143.851 87.9762C146.778 84.615 148.764 80.5223 150.207 76.3038C153.813 65.7378 154.042 53.7691 149.38 43.6225C148.738 42.2198 147.982 40.8434 147.101 39.5639C145.509 37.2462 143.502 35.2536 140.989 34.0371C137.873 32.5269 134.209 32.3539 130.846 33.1719C127.481 33.9873 124.398 35.7387 121.686 37.8912C114.785 43.3656 110.147 51.606 109.048 60.3446C108.335 66.0314 110.328 71.7523 112.639 76.9802L112.637 76.975Z" fill="url(#paint10_linear_38_192410)"/>
<g style="mix-blend-mode:overlay" opacity="0.8">
<path d="M111.343 51.6955C113.507 47.8178 116.413 44.3491 119.897 41.5857C122.609 39.4358 125.691 37.6844 129.057 36.869C132.419 36.0536 136.084 36.224 139.2 37.7342C141.71 38.9507 143.717 40.946 145.312 43.261C146.193 44.5405 146.946 45.917 147.588 47.3197C152.25 57.4636 152.021 69.4349 148.415 80.0009C148.061 81.0365 147.675 82.0643 147.247 83.0737C148.444 80.9238 149.406 78.6323 150.201 76.3015C153.808 65.7355 154.036 53.7668 149.375 43.6229C148.732 42.2228 147.977 40.8437 147.095 39.5642C145.503 37.2492 143.496 35.2539 140.984 34.0374C137.867 32.5272 134.203 32.3568 130.84 33.1722C127.475 33.9876 124.393 35.739 121.681 37.8915C117.124 41.507 113.554 46.326 111.338 51.6981L111.343 51.6955Z" fill="black"/>
</g>
<g style="mix-blend-mode:overlay" opacity="0.2">
<path d="M101.857 57.7021C103.387 48.5571 107.943 39.9155 114.71 33.5575C117.861 30.6027 121.515 28.1015 125.614 26.7407C129.714 25.3774 134.286 25.2096 138.32 26.7643C141.57 28.0149 144.272 30.2881 146.494 33.0017C147.724 34.5014 148.805 36.1374 149.749 37.8128C154.945 47.0128 156.753 57.8122 155.845 68.3887C157.626 56.5747 156.071 44.1917 150.219 33.8302C149.272 32.1522 148.191 30.5188 146.963 29.0191C144.742 26.3029 142.04 24.0324 138.79 22.7791C134.758 21.2244 130.184 21.3922 126.084 22.7555C121.984 24.1189 118.33 26.6175 115.182 29.5749C107.439 36.8453 102.592 47.1098 101.857 57.6994V57.7021Z" fill="white"/>
</g>
<g style="mix-blend-mode:overlay" opacity="0.2">
<path d="M101.798 58.8137C101.942 55.3896 102.516 51.9917 103.484 48.7065C109.801 52.1149 114.464 57.7021 119.64 63.2158C128.466 72.72 133.977 83.0658 136.666 95.2102C136.886 96.2169 137.075 97.229 137.235 98.241C136.396 98.5871 135.535 98.8834 134.654 99.1167C132.086 99.7984 129.348 99.9269 126.853 99.5677C124.125 99.177 121.694 98.2043 120.104 96.7361C115.766 91.0755 111.409 85.3861 107.993 79.1278C104.578 72.8668 101.501 65.9609 101.8 58.8111L101.798 58.8137Z" fill="black"/>
</g>
<path d="M59.8084 83.273C60.2097 90.3913 59.5094 97.5227 58.8064 104.617C58.2293 106.702 56.6765 108.812 54.5649 110.579C52.6344 112.197 50.2422 113.529 47.6978 114.305C42.3756 115.928 36.521 115.275 31.3588 113.201C26.1941 111.125 21.6641 107.703 17.6692 103.833C7.66222 94.1379 0.614094 80.9631 0.0344007 67.0438C-0.0469138 65.122 0.0107932 63.1608 0.262606 61.239C0.716393 57.7598 1.81545 54.4065 3.91651 51.6299C6.5212 48.1848 10.4977 45.9143 14.6999 44.9128C18.902 43.9112 23.3244 44.1079 27.5607 44.96C38.3388 47.1309 48.1752 53.6593 54.3577 62.7466C58.3815 68.6641 59.4123 76.152 59.811 83.273H59.8084Z" fill="url(#paint11_linear_38_192410)"/>
<path d="M54.7275 83.8944C55.5222 89.5523 55.4383 95.2916 55.3517 101.005C55.0291 102.709 53.9301 104.494 52.3641 106.049C50.9319 107.467 49.1089 108.694 47.1311 109.481C42.9893 111.13 38.2731 110.999 34.0106 109.688C29.7482 108.375 25.9028 105.944 22.4535 103.12C13.8158 96.044 7.308 85.9945 5.91516 74.9172C5.72368 73.3861 5.63712 71.8182 5.71056 70.2687C5.84172 67.4607 6.49486 64.7104 7.98737 62.3534C9.83924 59.4274 12.861 57.3509 16.1503 56.2707C19.4396 55.1905 22.9833 55.0541 26.4221 55.4527C35.1726 56.4673 43.4615 61.0241 49.004 67.8697C52.6107 72.3268 53.9327 78.2365 54.7275 83.897V83.8944Z" fill="url(#paint12_linear_38_192410)"/>
<g style="mix-blend-mode:overlay" opacity="0.8">
<path d="M22.4496 103.12C23.4516 103.941 24.4877 104.73 25.5605 105.467C16.9779 98.3958 10.5199 88.383 9.13498 77.3555C8.9435 75.827 8.85694 74.2565 8.93038 72.7044C9.06153 69.8964 9.71467 67.1461 11.2072 64.789C13.0591 61.8631 16.0808 59.7866 19.3675 58.7064C22.6568 57.6262 26.2031 57.4898 29.6393 57.8883C35.0218 58.5123 40.2286 60.4761 44.7297 63.4886C39.5886 59.0996 33.1411 56.2287 26.4182 55.45C22.9794 55.0515 19.4357 55.1905 16.1464 56.2707C12.8597 57.3509 9.83533 59.4274 7.98346 62.3533C6.49095 64.7104 5.83781 67.4633 5.70666 70.2687C5.63321 71.8208 5.71977 73.3887 5.91126 74.9198C7.30409 85.9971 13.8119 96.0466 22.4496 103.123V103.12Z" fill="black"/>
</g>
<g style="mix-blend-mode:overlay" opacity="0.2">
<path d="M9.26144 93.8101C5.10129 86.6525 2.48611 78.6638 2.13987 70.4102C2.06117 68.4884 2.11626 66.5273 2.36807 64.6054C2.82186 61.1263 3.92091 57.7729 6.02198 54.9964C8.62928 51.5487 12.6032 49.2808 16.8053 48.2792C21.0074 47.2777 25.4299 47.4743 29.6661 48.329C40.0613 50.4213 49.5803 56.5695 55.7891 65.1587C55.3589 64.3302 54.8815 63.5252 54.3516 62.7466C48.1691 53.6593 38.3353 47.1309 27.5572 44.96C23.321 44.1079 18.8985 43.9112 14.6964 44.9128C10.4943 45.9143 6.52035 48.1848 3.91305 51.6299C1.81198 54.4065 0.712927 57.7598 0.25914 61.239C0.00470456 63.1608 -0.0503794 65.122 0.030935 67.0438C0.429638 76.6135 3.88682 85.8345 9.25882 93.8101H9.26144Z" fill="white"/>
</g>
<g style="mix-blend-mode:overlay" opacity="0.2">
<path d="M30.4271 98.9748C30.3904 82.8164 36.4628 66.5243 48.0907 55.5073C50.4436 57.6756 52.5552 60.1008 54.3546 62.7489C58.3783 68.6664 59.4092 76.1543 59.8079 83.2753C60.2092 90.3936 59.5089 97.525 58.8059 104.62C58.2288 106.704 56.676 108.815 54.5644 110.582C52.6338 112.199 50.2416 113.531 47.6973 114.307C42.8656 115.781 37.5959 115.377 32.801 113.738C31.4527 108.98 30.4822 104.116 30.4219 98.9722L30.4271 98.9748Z" fill="black"/>
</g>
<path d="M37.4755 99.1326C37.5542 93.7447 38.2388 88.3149 39.2696 83.3255C39.5057 82.1798 39.7733 81.0393 40.0723 79.9066C42.9865 68.8425 52.5213 56.7217 62.342 50.4345C62.439 50.3716 63.4515 49.7135 63.4725 49.7423C62.5649 48.594 62.0219 47.1546 61.9983 45.689C63.0948 46.6643 64.4115 47.3932 65.8227 47.8074C64.3197 46.2029 63.2128 44.2339 62.6252 42.1154C63.8817 43.096 65.3322 43.8249 66.8693 44.2443C65.3427 42.902 64.0443 41.3 63.0502 39.5303C66.9821 41.612 72.1522 45.5422 78.0593 46.6486C80.2469 47.0576 82.487 47.1048 84.651 47.6213C88.8111 48.6123 93.0946 50.2562 96.7773 52.4061C104.012 56.6326 110.441 62.9302 115.616 69.4534C120.285 75.3342 124.75 81.8914 126.95 89.146C134.415 113.728 106.309 126.237 86.9488 130.139C69.8281 133.589 43.0704 133.332 38.5798 111.723C38.5745 111.694 38.5667 111.665 38.5614 111.636C37.7325 107.656 37.4125 103.409 37.4755 99.1352V99.1326Z" fill="url(#paint13_linear_38_192410)"/>
<g style="mix-blend-mode:overlay" opacity="0.28">
<path d="M62.7975 96.4393C62.9838 96.4393 63.6789 95.9543 64.1563 95.6475C66.016 94.4205 67.3643 93.6549 69.523 93.3325C71.228 92.9785 73.2556 93.2381 75.2282 93.8883C76.0518 94.1977 76.7128 94.3891 77.2951 94.7823C77.3082 94.7928 77.3214 94.8007 77.3345 94.8085C77.3922 94.819 77.4525 94.8295 77.5102 94.8426C77.6335 94.8662 77.7568 94.8898 77.8801 94.9134C77.8302 94.8479 77.783 94.7823 77.7332 94.7194C77.4499 94.3445 77.164 93.9932 76.8807 93.6628C73.6491 89.9214 70.4411 88.975 69.2476 89.1532C67.7813 89.3709 66.8502 90.2413 66.1498 91.0148C65.0193 92.2654 64.0645 93.5579 63.4559 94.7142C63.1254 95.3408 62.8946 95.9255 62.7949 96.442L62.7975 96.4393Z" fill="black"/>
</g>
<path d="M62.2708 96.1145C62.3338 96.34 62.5672 96.513 62.8033 96.4684C62.9895 96.4684 63.6899 96.028 64.1725 95.7527C66.0454 94.6489 67.4041 93.9567 69.5655 93.6447C71.2705 93.3117 73.2928 93.5084 75.2549 94.0485C76.0733 94.308 76.729 94.4653 77.3035 94.8009C77.3166 94.8088 77.3297 94.8167 77.3428 94.8219C77.4005 94.8481 77.4609 94.856 77.5186 94.8481C77.6051 94.8376 77.6838 94.7957 77.7442 94.7354C77.8307 94.6489 77.8779 94.523 77.8386 94.3893C77.7835 94.1796 77.5553 94.114 77.3874 94.017C77.23 93.9488 77.0674 93.8833 76.9074 93.8204C75.0031 93.0653 72.965 92.596 70.9164 92.5566C69.5576 92.5697 68.191 92.7979 66.9005 93.2226C65.7096 93.6735 64.5791 94.2739 63.4905 94.9347C63.1626 95.1339 62.8348 95.341 62.5147 95.5482C62.5095 95.5534 62.5043 95.556 62.499 95.5613C62.3128 95.6688 62.2157 95.9047 62.2734 96.1092L62.2708 96.1145Z" fill="#B57C3A"/>
<path d="M97.6637 66.7837C97.6008 65.1031 95.0354 63.8368 91.9324 63.9521C88.8293 64.0675 86.3689 65.5278 86.4318 67.2084C86.4948 68.889 88.9946 68.3988 92.095 68.2808C95.1954 68.1628 97.7267 68.4643 97.6611 66.7837H97.6637Z" fill="#985119"/>
<g style="mix-blend-mode:overlay" opacity="0.31">
<path d="M92.0968 68.2811C95.1972 68.1657 97.7284 68.4646 97.6629 66.784C97.655 66.5769 97.6104 66.375 97.5291 66.1836C97.5606 66.3357 97.5684 66.4904 97.5579 66.645C97.4242 68.323 94.948 67.7279 91.8554 67.484C89.3452 67.2848 87.1995 67.3765 86.549 66.5218C86.4651 66.7447 86.4257 66.9754 86.4336 67.2087C86.4992 68.8893 88.9963 68.3991 92.0994 68.2811H92.0968Z" fill="black"/>
</g>
<path d="M38.7019 80.6719C37.8861 79.201 39.4258 76.7889 42.1407 75.284C44.8555 73.7791 47.7173 73.7528 48.533 75.2237C49.3488 76.6946 46.9566 77.5676 44.2417 79.0726C41.5269 80.5775 39.5176 82.1427 38.7019 80.6719Z" fill="#985119"/>
<g style="mix-blend-mode:overlay" opacity="0.31">
<path d="M44.2398 79.0728C41.525 80.5777 39.5157 82.143 38.7026 80.6721C38.6029 80.4912 38.5373 80.2946 38.5059 80.0875C38.5583 80.2343 38.6291 80.3706 38.7209 80.4965C39.7046 81.8624 41.5145 80.0744 44.0352 78.2627C46.0812 76.7918 47.9646 75.7614 48.0774 74.6943C48.2636 74.8412 48.4184 75.0168 48.5311 75.2213C49.3469 76.6922 46.9547 77.5652 44.2398 79.0702V79.0728Z" fill="black"/>
</g>
<path opacity="0.01" d="M61.0454 110.946C61.7353 116.053 57.0584 120.901 50.6005 121.772C44.1425 122.642 40.2919 118.586 39.602 113.479C38.9122 108.371 41.6454 104.145 48.1033 103.275C54.5613 102.404 60.3556 105.839 61.0454 110.946Z" fill="#DEA96F"/>
<path opacity="0.02" d="M60.8839 110.975C61.5633 116.019 56.9467 120.806 50.5701 121.664C44.1935 122.524 40.3769 118.523 39.6976 113.478C39.0182 108.434 41.7278 104.257 48.1071 103.397C54.4837 102.537 60.2072 105.93 60.8865 110.975H60.8839Z" fill="#DEA86F"/>
<path opacity="0.03" d="M60.7234 111.006C61.3949 115.988 56.8361 120.712 50.5381 121.562C44.2402 122.411 40.4604 118.465 39.7889 113.484C39.1174 108.502 41.806 104.376 48.1039 103.526C54.4019 102.677 60.0493 106.027 60.7208 111.006H60.7234Z" fill="#DFA770"/>
<path opacity="0.04" d="M60.5605 111.035C61.2242 115.951 56.723 120.618 50.5064 121.454C44.2898 122.293 40.5467 118.4 39.883 113.484C39.2194 108.568 41.8897 104.485 48.1037 103.649C54.3203 102.81 59.8969 106.119 60.5605 111.035Z" fill="#DFA670"/>
<path opacity="0.06" d="M60.3984 111.066C61.0541 115.92 56.6107 120.523 50.4754 121.352C44.3401 122.178 40.6311 118.342 39.9753 113.489C39.3196 108.636 41.9689 104.604 48.1042 103.778C54.2395 102.952 59.7452 106.213 60.3984 111.066Z" fill="#DFA570"/>
<path opacity="0.07" d="M60.2346 111.095C60.8799 115.886 56.4968 120.429 50.4402 121.245C44.3862 122.06 40.7113 118.279 40.066 113.489C39.4208 108.699 42.0464 104.717 48.1004 103.901C54.1544 103.086 59.5867 106.305 60.2346 111.095Z" fill="#DFA470"/>
<path opacity="0.08" d="M60.0725 111.124C60.7099 115.848 56.3845 120.334 50.4092 121.139C44.4339 121.944 40.7983 118.216 40.1583 113.491C39.5209 108.767 42.1256 104.831 48.0983 104.027C54.0736 103.222 59.4325 106.399 60.0699 111.124H60.0725Z" fill="#E0A371"/>
<path opacity="0.09" d="M59.9097 111.156C60.5392 115.817 56.2715 120.24 50.3775 121.035C44.4835 121.829 40.8821 118.156 40.2526 113.494C39.623 108.833 42.2067 104.947 48.1007 104.153C53.9947 103.358 59.2828 106.494 59.9123 111.156H59.9097Z" fill="#E0A271"/>
<path opacity="0.1" d="M59.7495 111.184C60.3712 115.783 56.1612 120.146 50.3459 120.929C44.5332 121.713 40.9659 118.095 40.3468 113.497C39.7252 108.898 42.2879 105.062 48.1005 104.278C53.9132 103.494 59.1305 106.588 59.7495 111.184Z" fill="#E0A171"/>
<path opacity="0.11" d="M59.5867 111.216C60.1979 115.752 56.0483 120.054 50.3143 120.825C44.5803 121.599 41.0497 118.033 40.4385 113.5C39.8273 108.964 42.3664 105.178 48.0978 104.405C53.8318 103.631 58.973 106.68 59.5867 111.216Z" fill="#E0A071"/>
<path opacity="0.12" d="M59.4239 111.244C60.0272 115.715 55.9353 119.957 50.2826 120.72C44.63 121.483 41.1361 117.972 40.5328 113.502C39.9295 109.032 42.4476 105.293 48.0976 104.53C53.7503 103.767 58.8206 106.774 59.4239 111.244Z" fill="#E09F71"/>
<path opacity="0.13" d="M59.2615 111.276C59.8569 115.684 55.8227 119.865 50.2487 120.615C44.6774 121.365 41.2176 117.912 40.6221 113.505C40.0267 109.097 42.5238 105.409 48.0952 104.656C53.6665 103.906 58.6661 106.869 59.2615 111.276Z" fill="#E19E72"/>
<path opacity="0.14" d="M59.1 111.305C59.685 115.649 55.7111 119.768 50.2184 120.51C44.7284 121.25 41.3027 117.849 40.7177 113.507C40.1328 109.163 42.6063 105.524 48.0964 104.782C53.5864 104.043 58.5151 106.963 59.1 111.305Z" fill="#E19D72"/>
<path opacity="0.16" d="M58.9399 111.334C59.5169 115.612 55.5981 119.674 50.1894 120.403C44.778 121.131 41.3917 117.786 40.812 113.507C40.2349 109.228 42.6875 105.634 48.0962 104.905C53.5075 104.176 58.3602 107.055 58.9373 111.334H58.9399Z" fill="#E19C72"/>
<path opacity="0.17" d="M58.7768 111.365C59.346 115.581 55.4849 119.582 50.1548 120.301C44.8248 121.019 41.4725 117.729 40.9033 113.513C40.3341 109.297 42.7657 105.752 48.0957 105.034C53.4258 104.315 58.2076 107.15 58.7768 111.365Z" fill="#E19B72"/>
<path opacity="0.18" d="M58.614 111.394C59.1753 115.547 55.3719 119.485 50.1232 120.193C44.8745 120.901 41.5563 117.663 40.9976 113.512C40.4363 109.359 42.8468 105.864 48.0956 105.157C53.3443 104.449 58.0553 107.241 58.614 111.394Z" fill="#E29A73"/>
<path opacity="0.19" d="M58.4513 111.426C59.0021 115.513 55.259 119.394 50.0916 120.091C44.9216 120.788 41.6428 117.606 41.0893 113.515C40.5385 109.428 42.9254 105.98 48.0929 105.283C53.2629 104.585 57.8978 107.336 58.4513 111.423V111.426Z" fill="#E29973"/>
<path opacity="0.2" d="M58.2892 111.454C58.8321 115.479 55.1467 119.299 50.058 119.983C44.9693 120.67 41.7246 117.542 41.1816 113.515C40.6387 109.491 43.0047 106.093 48.0907 105.406C53.1795 104.719 57.7436 107.427 58.2865 111.452L58.2892 111.454Z" fill="#E29873"/>
<path opacity="0.21" d="M58.1261 111.486C58.6612 115.448 55.0335 119.205 50.0261 119.881C45.0187 120.555 41.8081 117.482 41.273 113.521C40.7379 109.559 43.0829 106.211 48.0903 105.534C53.0977 104.861 57.591 107.524 58.1261 111.483V111.486Z" fill="#E29773"/>
<path opacity="0.22" d="M57.9666 111.514C58.4912 115.41 54.9239 119.11 49.9978 119.773C45.0717 120.437 41.8952 117.419 41.3706 113.52C40.846 109.624 43.1674 106.323 48.0934 105.66C53.0195 104.997 57.442 107.616 57.9666 111.514Z" fill="#E29673"/>
<path opacity="0.23" d="M57.8035 111.546C58.3203 115.379 54.8106 119.018 49.9658 119.671C45.1185 120.324 41.9813 117.361 41.4619 113.526C40.9452 109.693 43.2456 106.441 48.0904 105.789C52.9378 105.136 57.2841 107.713 57.8035 111.546Z" fill="#E39574"/>
<path opacity="0.24" d="M57.6404 111.575C58.1493 115.345 54.6974 118.922 49.9313 119.564C45.1652 120.206 42.0622 117.296 41.5533 113.526C41.0444 109.756 43.3238 106.554 48.0899 105.912C52.856 105.27 57.1316 107.805 57.6404 111.575Z" fill="#E39474"/>
<path opacity="0.26" d="M57.4777 111.604C57.9787 115.311 54.5844 118.827 49.8997 119.459C45.2149 120.09 42.146 117.235 41.6476 113.528C41.1466 109.821 43.405 106.669 48.0898 106.037C52.7745 105.405 56.9793 107.899 57.4803 111.604H57.4777Z" fill="#E39374"/>
<path opacity="0.27" d="M57.316 111.635C57.8065 115.277 54.4726 118.733 49.8691 119.354C45.2631 119.976 42.2334 117.175 41.7403 113.531C41.2498 109.889 43.4846 106.782 48.0881 106.164C52.6941 105.542 56.8254 107.994 57.316 111.635Z" fill="#E39274"/>
<path opacity="0.28" d="M57.1529 111.664C57.6355 115.243 54.3594 118.638 49.8346 119.249C45.3098 119.86 42.3143 117.112 41.8317 113.533C41.349 109.954 43.5629 106.897 48.0876 106.289C52.6124 105.678 56.6703 108.085 57.1529 111.664Z" fill="#E49175"/>
<path opacity="0.29" d="M56.9928 111.696C57.4675 115.212 54.2491 118.547 49.8056 119.144C45.3622 119.742 42.4007 117.052 41.926 113.536C41.4512 110.02 43.6441 107.013 48.0875 106.415C52.531 105.817 56.518 108.18 56.9928 111.696Z" fill="#E49075"/>
<path opacity="0.3" d="M56.83 111.724C57.2969 115.174 54.1361 118.449 49.774 119.039C45.4119 119.626 42.4846 116.991 42.0203 113.538C41.5534 110.088 43.7253 107.128 48.0874 106.541C52.4495 105.953 56.3657 108.274 56.83 111.724Z" fill="#E49075"/>
<path opacity="0.31" d="M56.6683 111.756C57.1247 115.143 54.0243 118.358 49.7409 118.935C45.4574 119.511 42.5694 116.929 42.113 113.541C41.6566 110.154 43.8049 107.244 48.0857 106.667C52.3692 106.09 56.2119 108.368 56.6683 111.756Z" fill="#E48F75"/>
<path opacity="0.32" d="M56.5053 111.785C56.9538 115.109 53.9111 118.263 49.709 118.83C45.5068 119.396 42.653 116.869 42.2044 113.544C41.7559 110.22 43.8832 107.359 48.0853 106.793C52.2874 106.227 56.0567 108.46 56.5053 111.785Z" fill="#E48E75"/>
<path opacity="0.33" d="M56.3425 111.813C56.7832 115.072 53.7982 118.166 49.6774 118.722C45.5566 119.278 42.7368 116.805 42.2987 113.544C41.8581 110.285 43.9644 107.472 48.0852 106.916C52.206 106.36 55.9045 108.552 56.3452 111.813H56.3425Z" fill="#E58D76"/>
<path opacity="0.34" d="M56.1796 111.845C56.6098 115.041 53.6851 118.075 49.643 118.62C45.6008 119.165 42.8204 116.745 42.3876 113.549C41.9574 110.353 44.0401 107.59 48.0796 107.045C52.1217 106.499 55.7468 108.649 56.177 111.845H56.1796Z" fill="#E58C76"/>
<path opacity="0.36" d="M56.0198 111.874C56.4421 115.007 53.5751 117.98 49.6143 118.512C45.6535 119.047 42.9072 116.682 42.4849 113.549C42.0626 110.416 44.1243 107.702 48.0851 107.167C52.0459 106.633 55.5975 108.741 56.0224 111.874H56.0198Z" fill="#E58B76"/>
<path opacity="0.37" d="M55.8577 111.905C56.2722 114.975 53.4629 117.886 49.5834 118.41C45.7039 118.932 42.9917 116.625 42.5773 113.554C42.1628 110.484 44.2035 107.82 48.083 107.296C51.9625 106.774 55.4433 108.838 55.8577 111.905Z" fill="#E58A76"/>
<path opacity="0.38" d="M55.6947 111.934C56.1013 114.938 53.3497 117.791 49.5489 118.302C45.7508 118.814 43.0752 116.559 42.6687 113.554C42.2621 110.549 44.2818 107.933 48.08 107.419C51.8782 106.908 55.2882 108.927 55.6947 111.934Z" fill="#E68977"/>
<path opacity="0.39" d="M55.5315 111.966C55.9275 114.907 53.2363 117.697 49.5168 118.2C45.7973 118.701 43.1585 116.501 42.7625 113.56C42.3664 110.618 44.3625 108.049 48.082 107.548C51.8015 107.047 55.138 109.024 55.5341 111.966H55.5315Z" fill="#E68877"/>
<path opacity="0.4" d="M55.3694 111.994C55.7576 114.873 53.1241 117.602 49.4859 118.092C45.8478 118.583 43.2431 116.438 42.8549 113.559C42.4667 110.681 44.4418 108.161 48.08 107.671C51.7181 107.18 54.9812 109.115 55.3694 111.994Z" fill="#E68777"/>
<path opacity="0.41" d="M55.2093 112.023C55.5897 114.837 53.0139 117.508 49.4544 117.988C45.8975 118.468 43.3269 116.376 42.9492 113.562C42.5689 110.749 44.523 108.277 48.0799 107.797C51.6368 107.317 54.829 109.21 55.2093 112.023Z" fill="#E68677"/>
<path opacity="0.42" d="M55.0468 112.055C55.4166 114.805 52.9011 117.414 49.423 117.883C45.9448 118.353 43.4136 116.315 43.0411 113.565C42.6712 110.815 44.6018 108.392 48.0773 107.923C51.5555 107.454 54.6743 109.305 55.0442 112.055H55.0468Z" fill="#E68577"/>
<path opacity="0.43" d="M54.8841 112.084C55.2461 114.771 52.7883 117.32 49.3914 117.778C45.9946 118.237 43.4974 116.255 43.1355 113.568C42.7735 110.88 44.6831 108.508 48.0799 108.049C51.4768 107.59 54.5247 109.396 54.8867 112.084H54.8841Z" fill="#E78478"/>
<path opacity="0.44" d="M54.7218 112.115C55.0759 114.737 52.6758 117.228 49.3576 117.673C46.0421 118.119 43.5791 116.192 43.225 113.57C42.8709 110.948 44.7594 108.623 48.075 108.174C51.3905 107.729 54.365 109.491 54.7192 112.115H54.7218Z" fill="#E78378"/>
<path opacity="0.46" d="M54.5591 112.144C54.9054 114.703 52.5603 117.131 49.3261 117.569C46.0919 118.004 43.6656 116.132 43.3193 113.573C42.9731 111.014 44.8407 108.739 48.0749 108.301C51.3092 107.866 54.2129 109.585 54.5591 112.144Z" fill="#E78278"/>
<path opacity="0.47" d="M54.3959 112.175C54.7317 114.671 52.447 117.039 49.2941 117.463C46.1386 117.888 43.749 116.071 43.4132 113.575C43.0775 111.079 44.9215 108.853 48.077 108.429C51.2325 108.004 54.0628 109.682 54.3985 112.178L54.3959 112.175Z" fill="#E78178"/>
<path opacity="0.48" d="M54.2366 112.204C54.5644 114.635 52.3375 116.942 49.2633 117.359C46.189 117.773 43.8335 116.009 43.5057 113.578C43.1778 111.148 45.0008 108.969 48.075 108.555C51.1492 108.141 53.9061 109.777 54.2366 112.207V112.204Z" fill="#E88079"/>
<path opacity="0.49" d="M54.0739 112.233C54.3939 114.601 52.2247 116.847 49.2318 117.251C46.2389 117.655 43.9175 115.946 43.6001 113.578C43.2801 111.211 45.0821 109.082 48.075 108.678C51.0679 108.274 53.7539 109.866 54.0739 112.236V112.233Z" fill="#E87F79"/>
<path opacity="0.5" d="M53.91 112.265C54.2221 114.569 52.1106 116.756 49.199 117.149C46.2848 117.543 44.0027 115.888 43.6906 113.584C43.3785 111.279 45.1595 109.197 48.0711 108.807C50.9853 108.413 53.5978 109.963 53.9074 112.267L53.91 112.265Z" fill="#E87E79"/>
<path opacity="0.51" d="M53.7485 112.293C54.0502 114.535 51.9989 116.659 49.166 117.041C46.3331 117.424 44.0852 115.822 43.7835 113.583C43.4819 111.342 45.2393 109.31 48.0722 108.93C50.9051 108.547 53.4468 110.054 53.7485 112.296V112.293Z" fill="#E87D79"/>
<path opacity="0.52" d="M53.5856 112.325C53.8794 114.501 51.8858 116.567 49.1343 116.94C46.3827 117.312 44.1688 115.765 43.8751 113.589C43.5813 111.413 45.3177 109.428 48.0693 109.058C50.8209 108.686 53.2892 110.152 53.583 112.328L53.5856 112.325Z" fill="#E87C79"/>
<path opacity="0.53" d="M53.423 112.354C53.7089 114.467 51.7731 116.473 49.1028 116.832C46.4325 117.191 44.2554 115.702 43.9695 113.589C43.6836 111.476 45.3991 109.541 48.0693 109.182C50.7396 108.822 53.1371 110.243 53.423 112.357V112.354Z" fill="#E97B7A"/>
<path opacity="0.54" d="M53.2635 112.385C53.5389 114.435 51.6634 116.378 49.0718 116.727C46.4803 117.075 44.3399 115.639 44.0645 113.591C43.789 111.541 45.4809 109.656 48.0725 109.307C50.664 108.958 52.9881 110.335 53.2635 112.385Z" fill="#E97A7A"/>
<path opacity="0.56" d="M53.1006 112.414C53.3681 114.399 51.5504 116.284 49.0401 116.622C46.5299 116.961 44.4235 115.579 44.156 113.594C43.8884 111.609 45.5593 109.771 48.0696 109.433C50.5798 109.095 52.833 110.43 53.1006 112.417V112.414Z" fill="#E9797A"/>
<path opacity="0.57" d="M52.938 112.445C53.1977 114.367 51.4376 116.192 49.0087 116.517C46.5798 116.845 44.5102 115.518 44.2505 113.596C43.9908 111.674 45.6407 109.886 48.0696 109.559C50.4986 109.231 52.6783 110.523 52.938 112.445Z" fill="#E9787A"/>
<path opacity="0.58" d="M52.7758 112.475C53.0276 114.333 51.3253 116.095 48.975 116.413C46.6248 116.73 44.5919 115.456 44.3401 113.599C44.0883 111.74 45.7172 110.002 48.0675 109.685C50.4177 109.368 52.524 110.618 52.7758 112.477V112.475Z" fill="#EA777B"/>
<path opacity="0.59" d="M52.6128 112.503C52.8541 114.297 51.2121 116.001 48.9432 116.305C46.6742 116.612 44.6755 115.393 44.4341 113.597C44.1928 111.803 45.7981 110.112 48.0671 109.805C50.336 109.499 52.3715 110.707 52.6128 112.501V112.503Z" fill="#EA767B"/>
<path opacity="0.6" d="M52.4529 112.535C52.6864 114.265 51.102 115.906 48.9144 116.203C46.7268 116.499 44.7621 115.335 44.5287 113.602C44.2952 111.871 45.8795 110.23 48.0672 109.934C50.2548 109.637 52.2195 110.802 52.4529 112.535Z" fill="#EA757B"/>
<g style="mix-blend-mode:overlay" opacity="0.31">
<path d="M52.2335 109.074C58.287 108.242 62.3324 101.302 61.269 93.5729C60.2056 85.8438 54.4363 80.2526 48.3827 81.0847C42.3292 81.9168 38.2839 88.857 39.3473 96.5861C40.4106 104.315 46.18 109.906 52.2335 109.074Z" fill="black"/>
</g>
<path d="M52.9036 107.57C58.3367 106.821 61.971 100.637 61.0211 93.7592C60.0712 86.8813 54.8967 81.9134 49.4635 82.6631C44.0304 83.4128 40.3961 89.5962 41.346 96.4741C42.2959 103.352 47.4704 108.32 52.9036 107.57Z" fill="#C5D5D5"/>
<path d="M52.918 107.545C58.3411 106.796 61.9687 100.624 61.0206 93.7594C60.0724 86.8944 54.9075 81.9358 49.4844 82.6841C44.0613 83.4324 40.4337 89.6043 41.3818 96.4693C42.33 103.334 47.4949 108.293 52.918 107.545Z" fill="#C6D6D6"/>
<path d="M52.9327 107.513C58.3457 106.766 61.9668 100.607 61.0206 93.7561C60.0745 86.9054 54.9193 81.9573 49.5063 82.7042C44.0932 83.4511 40.4721 89.6102 41.4183 96.4609C42.3644 103.312 47.5196 108.26 52.9327 107.513Z" fill="#C7D6D6"/>
<path d="M52.9471 107.49C58.3501 106.744 61.9645 100.597 61.0201 93.7592C60.0757 86.9214 54.9301 81.9827 49.5271 82.7282C44.1241 83.4737 40.5097 89.6212 41.4541 96.459C42.3985 103.297 47.5441 108.236 52.9471 107.49Z" fill="#C8D7D7"/>
<path d="M52.9638 107.462C58.3553 106.718 61.9618 100.582 61.0192 93.7572C60.0766 86.9323 54.9418 82.0027 49.5503 82.7467C44.1588 83.4907 40.5522 89.6264 41.4948 96.4513C42.4374 103.276 47.5723 108.206 52.9638 107.462Z" fill="#C9D8D8"/>
<path d="M52.9762 107.436C58.3577 106.694 61.9576 100.569 61.0167 93.7574C60.0759 86.9454 54.9507 82.0252 49.5692 82.7678C44.1877 83.5103 40.5879 89.6345 41.5287 96.4465C42.4695 103.258 47.5948 108.179 52.9762 107.436Z" fill="#CAD8D8"/>
<path d="M52.9907 107.41C58.3621 106.669 61.9552 100.556 61.0162 93.7571C60.0772 86.958 54.9615 82.0472 49.5901 82.7883C44.2187 83.5295 40.6255 89.6421 41.5645 96.4412C42.5036 103.24 47.6192 108.151 52.9907 107.41Z" fill="#CBD9D9"/>
<path d="M53.0051 107.384C58.3665 106.644 61.9529 100.543 61.0157 93.7573C60.0784 86.9711 54.9723 82.0696 49.611 82.8094C44.2496 83.5492 40.6631 89.6502 41.6004 96.4363C42.5376 103.222 47.6437 108.124 53.0051 107.384Z" fill="#CCDADA"/>
<path d="M53.0228 107.358C58.3727 106.62 61.9513 100.531 61.0158 93.7577C60.0803 86.9845 54.985 82.0921 49.6351 82.8303C44.2852 83.5686 40.7066 89.6578 41.6421 96.431C42.5775 103.204 47.6729 108.097 53.0228 107.358Z" fill="#CDDBDB"/>
<path d="M53.0364 107.329C58.3763 106.593 61.9484 100.516 61.0149 93.7573C60.0814 86.9984 54.9958 82.1165 49.656 82.8534C44.3161 83.5902 40.7441 89.6667 41.6775 96.4256C42.611 103.184 47.6966 108.066 53.0364 107.329Z" fill="#CEDBDB"/>
<path d="M53.0509 107.304C58.3807 106.568 61.946 100.503 61.0143 93.7575C60.0826 87.0115 55.0067 82.139 49.6768 82.8744C44.347 83.6099 40.7817 89.6748 41.7134 96.4207C42.6451 103.167 47.7211 108.039 53.0509 107.304Z" fill="#CFDCDC"/>
<path d="M53.0653 107.278C58.385 106.544 61.9437 100.491 61.0138 93.7577C60.0839 87.0246 55.0175 82.1614 49.6977 82.8955C44.3779 83.6295 40.8193 89.6828 41.7492 96.4159C42.6791 103.149 47.7455 108.012 53.0653 107.278Z" fill="#CFDDDD"/>
<path d="M53.0807 107.252C58.3904 106.52 61.9424 100.478 61.0142 93.7579C60.0861 87.0377 55.0293 82.1839 49.7196 82.9165C44.4098 83.6492 40.8579 89.6909 41.786 96.4111C42.7142 103.131 47.771 107.985 53.0807 107.252Z" fill="#D0DDDD"/>
<path d="M53.0984 107.227C58.3966 106.496 61.9407 100.466 61.0143 93.7583C60.088 87.051 55.0419 82.2064 49.7437 82.9375C44.4455 83.6686 40.9014 89.6985 41.8277 96.4058C42.7541 103.113 47.8001 107.958 53.0984 107.227Z" fill="#D1DEDE"/>
<path d="M53.1098 107.201C58.398 106.471 61.9354 100.453 61.0109 93.7585C60.0863 87.0641 55.0498 82.2288 49.7616 82.9585C44.4734 83.6882 40.936 89.7066 41.8606 96.401C42.7852 103.095 47.8216 107.931 53.1098 107.201Z" fill="#D2DFDF"/>
<path d="M53.1243 107.175C58.4024 106.447 61.9331 100.44 61.0103 93.7587C60.0875 87.0773 55.0607 82.2513 49.7825 82.9796C44.5044 83.7079 40.9737 89.7147 41.8965 96.3961C42.8193 103.078 47.8461 107.904 53.1243 107.175Z" fill="#D3DFDF"/>
<path d="M53.1387 107.15C58.4068 106.423 61.9308 100.427 61.0098 93.7589C60.0888 87.0904 55.0715 82.2737 49.8034 83.0007C44.5353 83.7276 41.0113 89.7228 41.9323 96.3913C42.8533 103.06 47.8706 107.876 53.1387 107.15Z" fill="#D4E0E0"/>
<path d="M53.1524 107.118C58.4104 106.393 61.9279 100.41 61.0089 93.756C60.0898 87.1018 55.0823 82.2957 49.8243 83.0213C44.5662 83.7468 41.0487 89.7292 41.9678 96.3834C42.8868 103.038 47.8943 107.844 53.1524 107.118Z" fill="#D5E1E1"/>
<path d="M53.171 107.092C58.4176 106.368 61.9272 100.398 61.01 93.7564C60.0927 87.1152 55.096 82.3182 49.8494 83.0422C44.6028 83.7661 41.0932 89.7368 42.0104 96.3781C42.9277 103.019 47.9245 107.816 53.171 107.092Z" fill="#D6E1E1"/>
<path d="M53.1854 107.066C58.422 106.344 61.9249 100.385 61.0094 93.7561C60.094 87.1278 55.1068 82.3402 49.8703 83.0628C44.6337 83.7853 41.1308 89.7444 42.0463 96.3728C42.9617 103.001 47.9489 107.789 53.1854 107.066Z" fill="#D7E2E2"/>
<path d="M53.2008 107.04C58.4273 106.319 61.9235 100.372 61.0099 93.7563C60.0962 87.1409 55.1186 82.3626 49.8921 83.0838C44.6656 83.805 41.1694 89.7525 42.0831 96.368C42.9968 102.983 47.9744 107.762 53.2008 107.04Z" fill="#D8E3E3"/>
<path d="M53.2143 107.015C58.4307 106.295 61.9202 100.359 61.0083 93.7565C60.0964 87.154 55.1284 82.3851 49.912 83.1049C44.6956 83.8247 41.206 89.7606 42.1179 96.3632C43.0298 102.966 47.9978 107.735 53.2143 107.015Z" fill="#D9E3E3"/>
<path d="M53.2287 106.989C58.4351 106.271 61.9179 100.346 61.0078 93.7567C60.0977 87.1671 55.1393 82.4075 49.9329 83.126C44.7265 83.8444 41.2437 89.7687 42.1538 96.3583C43.0639 102.948 48.0223 107.708 53.2287 106.989Z" fill="#DAE4E4"/>
<path d="M53.2444 106.963C58.4393 106.246 61.9143 100.334 61.006 93.7572C60.0976 87.1804 55.15 82.4301 49.9551 83.1469C44.7601 83.8637 41.2852 89.7763 42.1935 96.353C43.1018 102.93 48.0495 107.68 53.2444 106.963Z" fill="#DBE5E5"/>
<path d="M53.2579 106.938C58.4427 106.222 61.911 100.321 61.0044 93.7574C60.0979 87.1936 55.1598 82.4525 49.975 83.168C44.7901 83.8834 41.3218 89.7844 42.2284 96.3482C43.1349 102.912 48.073 107.653 53.2579 106.938Z" fill="#DCE6E6"/>
<path d="M53.2725 106.909C58.4474 106.195 61.9091 100.307 61.0045 93.7574C60.0999 87.2079 55.1716 82.4774 49.9968 83.1915C44.822 83.9055 41.3603 89.7938 42.2648 96.3432C43.1694 102.893 48.0977 107.623 53.2725 106.909Z" fill="#DDE6E6"/>
<path d="M53.2879 106.884C58.4527 106.171 61.9077 100.294 61.0049 93.7576C60.1022 87.2211 55.1834 82.4999 50.0186 83.2125C44.8539 83.9252 41.3988 89.8019 42.3016 96.3384C43.2044 102.875 48.1232 107.596 53.2879 106.884Z" fill="#DEE7E7"/>
<path d="M53.3023 106.857C58.4571 106.146 61.9054 100.281 61.0044 93.7573C60.1034 87.2337 55.1943 82.5218 50.0395 83.2331C44.8848 83.9444 41.4365 89.8095 42.3375 96.3331C43.2385 102.857 48.1476 107.569 53.3023 106.857Z" fill="#DFE8E8"/>
<path d="M53.319 106.832C58.4623 106.122 61.9028 100.268 61.0035 93.7578C60.1043 87.247 55.2059 82.5443 50.0627 83.254C44.9194 83.9637 41.479 89.8171 42.3782 96.3278C43.2774 102.839 48.1758 107.541 53.319 106.832Z" fill="#E0E8E8"/>
<path d="M53.3335 106.806C58.4667 106.098 61.9004 100.256 61.003 93.7579C60.1056 87.2601 55.2168 82.5668 50.0836 83.2751C44.9504 83.9834 41.5166 89.8251 42.414 96.323C43.3115 102.821 48.2003 107.514 53.3335 106.806Z" fill="#E1E9E9"/>
<path d="M53.3489 106.777C58.472 106.07 61.8991 100.24 61.0034 93.7552C60.1078 87.2703 55.2286 82.5863 50.1054 83.2932C44.9822 84.0002 41.5552 89.8303 42.4508 96.3152C43.3465 102.8 48.2257 107.484 53.3489 106.777Z" fill="#E2EAEA"/>
<path d="M53.3633 106.751C58.4764 106.046 61.8968 100.227 61.0029 93.7549C60.109 87.2829 55.2394 82.6083 50.1263 83.3138C45.0132 84.0194 41.5928 89.8379 42.4867 96.3099C43.3805 102.782 48.2502 107.457 53.3633 106.751Z" fill="#E2EAEA"/>
<path d="M53.3738 106.726C58.4769 106.022 61.8905 100.215 60.9984 93.7556C60.1064 87.2965 55.2463 82.6312 50.1432 83.3354C45.0402 84.0395 41.6265 89.8465 42.5186 96.3056C43.4107 102.765 48.2707 107.43 53.3738 106.726Z" fill="#E3EBEB"/>
<path d="M53.3917 106.698C58.4833 105.995 61.8893 100.201 60.9992 93.7564C60.1091 87.3116 55.2599 82.6567 50.1684 83.3592C45.0768 84.0618 41.6708 89.8559 42.5609 96.3006C43.451 102.745 48.3001 107.4 53.3917 106.698Z" fill="#E4ECEC"/>
<path d="M53.4061 106.671C58.4877 105.97 61.887 100.187 60.9986 93.7556C60.1103 87.3238 55.2708 82.6781 50.1892 83.3793C45.1077 84.0805 41.7084 89.863 42.5967 96.2948C43.4851 102.727 48.3246 107.372 53.4061 106.671Z" fill="#E5ECEC"/>
<path d="M53.4206 106.645C58.4921 105.946 61.8846 100.175 60.9981 93.7558C60.1116 87.3369 55.2816 82.7006 50.2101 83.4004C45.1386 84.1002 41.746 89.8711 42.6326 96.29C43.5191 102.709 48.3491 107.345 53.4206 106.645Z" fill="#E6EDED"/>
<path d="M53.436 106.62C58.4974 105.921 61.8833 100.162 60.9985 93.756C60.1138 87.35 55.2934 82.723 50.232 83.4214C45.1705 84.1199 41.7846 89.8791 42.6694 96.2852C43.5541 102.691 48.3745 107.318 53.436 106.62Z" fill="#E7EEEE"/>
<path d="M53.4497 106.594C58.4997 105.897 61.8777 100.15 60.9947 93.7564C60.1118 87.3633 55.3022 82.7456 50.2522 83.4424C45.2022 84.1392 41.8242 89.8868 42.7072 96.2799C43.5901 102.673 48.3998 107.291 53.4497 106.594Z" fill="#E8EEEE"/>
<path d="M53.4671 106.568C58.507 105.873 61.8783 100.137 60.9971 93.7566C60.1159 87.3764 55.3159 82.768 50.276 83.4634C45.2361 84.1589 41.8647 89.8948 42.7459 96.2751C43.6271 102.655 48.4271 107.264 53.4671 106.568Z" fill="#E9EFEF"/>
<path d="M53.4825 106.543C58.5123 105.848 61.877 100.124 60.9976 93.7568C60.1181 87.3895 55.3277 82.7905 50.2978 83.4845C45.268 84.1786 41.9033 89.9029 42.7827 96.2702C43.6622 102.638 48.4526 107.237 53.4825 106.543Z" fill="#EAF0F0"/>
<path d="M53.4969 106.516C58.5167 105.823 61.8746 100.11 60.997 93.7561C60.1194 87.4017 55.3385 82.8119 50.3187 83.5046C45.2989 84.1973 41.9409 89.91 42.8186 96.2644C43.6962 102.619 48.477 107.209 53.4969 106.516Z" fill="#EBF1F1"/>
<path d="M53.5086 106.488C58.5184 105.797 61.8698 100.097 60.9942 93.7566C60.1185 87.4165 55.3474 82.8373 50.3376 83.5286C45.3278 84.2199 41.9765 89.9199 42.8521 96.2599C43.7277 102.6 48.4988 107.179 53.5086 106.488Z" fill="#ECF1F1"/>
<path d="M53.5224 106.462C58.5207 105.772 61.8642 100.084 60.9904 93.757C60.1165 87.4299 55.3562 82.8598 50.3579 83.5495C45.3595 84.2392 42.016 89.9275 42.8899 96.2546C43.7637 102.582 48.5241 107.152 53.5224 106.462Z" fill="#EDF2F2"/>
<path d="M53.5397 106.436C58.528 105.748 61.8648 100.071 60.9928 93.7572C60.1207 87.443 55.3699 82.8823 50.3817 83.5706C45.3934 84.2589 42.0566 89.9356 42.9286 96.2498C43.8007 102.564 48.5515 107.125 53.5397 106.436Z" fill="#EEF3F3"/>
<path d="M53.5542 106.41C58.5324 105.723 61.8625 100.058 60.9922 93.7569C60.1219 87.4556 55.3808 82.9042 50.4025 83.5912C45.4243 84.2781 42.0942 89.9432 42.9645 96.2445C43.8348 102.546 48.5759 107.097 53.5542 106.41Z" fill="#EFF3F3"/>
<path d="M53.5696 106.382C58.5377 105.697 61.8612 100.043 60.9927 93.7547C60.1241 87.4663 55.3926 82.9243 50.4244 83.6098C45.4562 84.2953 42.1328 89.9488 43.0013 96.2372C43.8698 102.526 48.6014 107.068 53.5696 106.382Z" fill="#F0F4F4"/>
<path d="M53.584 106.356C58.5421 105.672 61.8588 100.03 60.9921 93.7549C60.1254 87.4794 55.4034 82.9467 50.4453 83.6309C45.4871 84.315 42.1704 89.9569 43.0371 96.2324C43.9039 102.508 48.6258 107.041 53.584 106.356Z" fill="#F1F5F5"/>
<path d="M53.5987 106.33C58.5454 105.648 61.8542 100.017 60.9893 93.7548C60.1243 87.4922 55.4131 82.9687 50.4665 83.6513C45.5198 84.3339 42.2109 89.964 43.0759 96.2266C43.9408 102.489 48.6521 107.013 53.5987 106.33Z" fill="#F2F5F5"/>
<path d="M53.6151 106.304C58.5517 105.623 61.8539 100.005 60.9907 93.755C60.1275 87.5053 55.4259 82.9912 50.4893 83.6724C45.5527 84.3536 42.2505 89.9721 43.1137 96.2218C43.9768 102.471 48.6785 106.986 53.6151 106.304Z" fill="#F3F6F6"/>
<path d="M53.6298 106.276C58.5563 105.596 61.852 99.9904 60.9908 93.7551C60.1296 87.5197 55.4377 83.0161 50.5111 83.6959C45.5846 84.3757 42.2889 89.9815 43.1501 96.2168C44.0113 102.452 48.7032 106.956 53.6298 106.276Z" fill="#F4F7F7"/>
<path d="M53.6413 106.251C58.5578 105.572 61.8467 99.9782 60.9873 93.7558C60.1279 87.5333 55.4456 83.039 50.5291 83.7174C45.6126 84.3958 42.3236 89.9901 43.183 96.2125C44.0424 102.435 48.7247 106.929 53.6413 106.251Z" fill="#F5F7F7"/>
<path d="M53.6566 106.225C58.5631 105.548 61.8454 99.9655 60.9877 93.756C60.1301 87.5464 55.4574 83.0615 50.5509 83.7385C45.6445 84.4155 42.3622 89.9982 43.2198 96.2077C44.0775 102.417 48.7502 106.902 53.6566 106.225Z" fill="#F5F8F8"/>
<path d="M53.6704 106.199C58.5654 105.523 61.8398 99.9525 60.984 93.7559C60.1281 87.5593 55.4662 83.0835 50.5712 83.7589C45.6762 84.4344 42.4018 90.0053 43.2576 96.2019C44.1135 102.398 48.7754 106.874 53.6704 106.199Z" fill="#F6F9F9"/>
<path d="M53.6878 106.173C58.5727 105.499 61.8404 99.9398 60.9863 93.7561C60.1323 87.5724 55.4799 83.1059 50.595 83.78C45.71 84.4541 42.4423 90.0134 43.2964 96.1971C44.1504 102.381 48.8028 106.847 53.6878 106.173Z" fill="#F7F9F9"/>
<path d="M53.7022 106.147C58.5771 105.474 61.8381 99.9266 60.9858 93.7558C60.1335 87.585 55.4907 83.1279 50.6158 83.8006C45.7409 84.4732 42.48 90.021 43.3322 96.1918C44.1845 102.363 48.8273 106.82 53.7022 106.147Z" fill="#F8FAFA"/>
<path d="M53.7176 106.121C58.5824 105.45 61.8367 99.9139 60.9862 93.756C60.1357 87.5981 55.5025 83.1504 50.6377 83.8216C45.7728 84.4929 42.5186 90.0291 43.369 96.1869C44.2195 102.345 48.8527 106.793 53.7176 106.121Z" fill="#F9FBFB"/>
<path d="M53.732 106.096C58.5868 105.426 61.8344 99.9012 60.9857 93.7562C60.137 87.6112 55.5134 83.1728 50.6586 83.8427C45.8038 84.5126 42.5562 90.0372 43.4049 96.1821C44.2536 102.327 48.8772 106.766 53.732 106.096Z" fill="#FAFCFC"/>
<path d="M53.746 106.067C58.5893 105.398 61.8292 99.8866 60.9825 93.756C60.1358 87.6254 55.5231 83.1973 50.6798 83.8656C45.8364 84.5339 42.5966 90.0455 43.4433 96.1762C44.29 102.307 48.9027 106.735 53.746 106.067Z" fill="#FBFCFC"/>
<path d="M53.7634 106.041C58.5966 105.374 61.8298 99.8739 60.9849 93.7562C60.14 87.6385 55.5369 83.2197 50.7036 83.8867C45.8703 84.5536 42.6371 90.0536 43.482 96.1713C44.327 102.289 48.9301 106.708 53.7634 106.041Z" fill="#FCFDFD"/>
<path d="M53.7749 106.016C58.5981 105.35 61.8246 99.8617 60.9814 93.7569C60.1383 87.6521 55.5448 83.2427 50.7215 83.9082C45.8983 84.5738 42.6718 90.0622 43.515 96.167C44.3581 102.272 48.9516 106.681 53.7749 106.016Z" fill="#FDFEFE"/>
<path d="M53.7902 105.99C58.6034 105.326 61.8232 99.849 60.9819 93.7571C60.1405 87.6652 55.5566 83.2651 50.7434 83.9293C45.9302 84.5934 42.7104 90.0703 43.5518 96.1622C44.3931 102.254 48.9771 106.654 53.7902 105.99Z" fill="#FEFEFE"/>
<path d="M53.804 105.964C58.6057 105.301 61.8177 99.836 60.9781 93.757C60.1385 87.678 55.5653 83.2872 50.7636 83.9497C45.9619 84.6123 42.75 90.0774 43.5895 96.1564C44.4291 102.235 49.0023 106.626 53.804 105.964Z" fill="white"/>
<path d="M56.1341 104.757C59.1485 104.358 61.138 100.609 60.5778 96.3847C60.0177 92.1601 57.1199 89.0592 54.1055 89.4586C51.0911 89.8579 49.1016 93.6063 49.6618 97.8308C50.2219 102.055 53.1197 105.156 56.1341 104.757Z" fill="#472317"/>
<path d="M53.8432 96.7205C54.7006 96.6075 55.2646 95.522 55.1029 94.296C54.9412 93.0701 54.115 92.1678 53.2576 92.2808C52.4002 92.3938 51.8362 93.4792 51.9979 94.7052C52.1596 95.9312 52.9857 96.8335 53.8432 96.7205Z" fill="white"/>
<path d="M59.1958 100.12C59.0961 99.3124 58.5558 98.7093 57.9918 98.7749C57.4252 98.8404 57.0502 99.5457 57.1498 100.356C57.2495 101.163 57.7899 101.766 58.3538 101.701C58.9204 101.635 59.2955 100.927 59.1958 100.12Z" fill="white"/>
<g style="mix-blend-mode:overlay" opacity="0.3">
<path d="M64.3666 97.6797C63.5639 97.9288 62.8636 97.1763 63.4118 96.6467C63.5901 96.4763 63.7869 96.3164 63.9888 96.1722C66.5935 94.3238 70.5806 93.8178 73.744 94.9347C74.5283 95.2126 76.2516 96.4711 74.4653 96.4789C73.0987 96.4842 71.7793 96.3478 70.3996 96.4553C69.0461 96.5602 67.7057 96.7752 66.4073 97.0977C66.2263 97.1423 65.2636 97.4044 64.3666 97.6824V97.6797Z" fill="white"/>
</g>
<g style="mix-blend-mode:overlay" opacity="0.2">
<path d="M68.7542 53.7347C66.7135 51.978 65.0688 49.7835 63.9619 47.3478C65.8295 47.9797 67.6971 48.6116 69.5621 49.2434C67.6709 47.7542 65.9161 46.0972 64.3239 44.3039C66.1863 45.392 68.1798 46.2703 70.252 46.9152C68.4132 45.4339 66.6899 43.8162 65.1003 42.0806C68.2086 43.7979 71.4402 45.5519 75.0181 45.8534C73.355 46.1706 71.9045 46.1602 70.349 45.5362C71.6606 46.501 72.9721 47.4632 74.2836 48.4281C72.4449 48.449 70.6061 48.1082 68.9142 47.4317C70.6953 49.0442 72.4737 50.6566 74.2548 52.269C71.3904 51.9754 68.6126 50.9922 66.2308 49.4322C66.863 51.0892 67.4453 52.5339 68.7542 53.7399V53.7347Z" fill="white"/>
</g>
<path opacity="0.01" d="M104.218 112.308C112.728 109.959 118.513 104.026 117.14 99.0574C115.767 94.0886 107.755 91.965 99.2458 94.3142C90.7363 96.6634 84.9509 102.596 86.3239 107.565C87.697 112.534 95.7084 114.657 104.218 112.308Z" fill="#DEA96F"/>
<path opacity="0.02" d="M104.165 112.207C112.569 109.887 118.282 104.029 116.926 99.123C115.571 94.217 107.659 92.1205 99.2558 94.4405C90.8524 96.7604 85.139 102.618 86.4947 107.524C87.8503 112.43 95.7617 114.527 104.165 112.207Z" fill="#DEA86F"/>
<path opacity="0.03" d="M104.113 112.108C112.41 109.818 118.051 104.033 116.712 99.1887C115.374 94.3441 107.562 92.2737 99.2649 94.5643C90.9675 96.855 85.3264 102.639 86.6651 107.484C88.0038 112.329 95.8153 114.399 104.113 112.108Z" fill="#DFA770"/>
<path opacity="0.04" d="M104.066 112.01C112.257 109.748 117.826 104.039 116.505 99.2568C115.183 94.475 107.472 92.4317 99.2807 94.6931C91.0895 96.9544 85.5204 102.664 86.8417 107.446C88.163 112.228 95.8745 114.271 104.066 112.01Z" fill="#DFA670"/>
<path opacity="0.06" d="M104.012 111.912C112.097 109.679 117.594 104.043 116.29 99.323C114.985 94.6026 107.374 92.5854 99.2887 94.8174C91.2037 97.0495 85.7068 102.686 87.0112 107.406C88.3155 112.126 95.9272 114.144 104.012 111.912Z" fill="#DFA570"/>
<path opacity="0.07" d="M103.96 111.813C111.939 109.611 117.363 104.048 116.076 99.3892C114.789 94.7302 107.277 92.739 99.2978 94.9417C91.3188 97.1445 85.8942 102.707 87.1816 107.366C88.469 112.025 95.9809 114.016 103.96 111.813Z" fill="#DFA470"/>
<path opacity="0.08" d="M103.908 111.715C111.78 109.542 117.131 104.055 115.861 99.4586C114.591 94.8624 107.181 92.8981 99.3091 95.0712C91.4377 97.2442 86.0862 102.732 87.3562 107.328C88.6263 111.924 96.0369 113.889 103.908 111.715Z" fill="#E0A371"/>
<path opacity="0.09" d="M103.857 111.619C111.622 109.476 116.901 104.062 115.648 99.5268C114.395 94.992 107.084 93.0537 99.3191 95.1975C91.5538 97.3412 86.2746 102.755 87.5277 107.29C88.7807 111.825 96.0916 113.763 103.857 111.619Z" fill="#E0A271"/>
<path opacity="0.1" d="M103.803 111.519C111.462 109.404 116.669 104.065 115.434 99.5929C114.198 95.1209 106.987 93.2098 99.3281 95.3242C91.669 97.4387 86.4617 102.778 87.6974 107.25C88.9331 111.722 96.1439 113.633 103.803 111.519Z" fill="#E0A171"/>
<path opacity="0.11" d="M103.751 111.423C111.304 109.338 116.439 104.072 115.22 99.6615C114.001 95.2509 106.89 93.3658 99.3371 95.451C91.7841 97.5362 86.6491 102.802 87.8679 107.213C89.0866 111.623 96.1976 113.508 103.751 111.423Z" fill="#E0A071"/>
<path opacity="0.12" d="M103.701 111.324C111.148 109.269 116.211 104.076 115.009 99.7272C113.807 95.378 106.796 93.519 99.3491 95.5749C91.9022 97.6307 86.8395 102.823 88.0412 107.172C89.243 111.521 96.2542 113.38 103.701 111.324Z" fill="#E09F71"/>
<path opacity="0.13" d="M103.647 111.226C110.988 109.2 115.979 104.082 114.794 99.7957C113.61 95.5094 106.699 93.6775 99.3581 95.7041C92.0173 97.7307 87.0266 102.848 88.211 107.135C89.3954 111.421 96.3065 113.253 103.647 111.226Z" fill="#E19E72"/>
<path opacity="0.14" d="M103.596 111.128C110.83 109.131 115.749 104.087 114.581 99.8619C113.414 95.637 106.603 93.8312 99.3681 95.8284C92.1334 97.8257 87.215 102.87 88.3824 107.095C89.5499 111.32 96.3611 113.125 103.596 111.128Z" fill="#E19D72"/>
<path opacity="0.16" d="M103.545 111.028C110.673 109.06 115.52 104.09 114.37 99.928C113.22 95.7659 106.509 93.9872 99.38 95.9552C92.2515 97.9232 87.405 102.893 88.5551 107.055C89.7052 111.217 96.4163 112.996 103.545 111.028Z" fill="#E19C72"/>
<path opacity="0.17" d="M103.494 110.931C110.517 108.993 115.291 104.097 114.158 99.9962C113.025 95.8955 106.413 94.1428 99.391 96.0815C92.3686 98.0202 87.5944 102.916 88.7275 107.017C89.8606 111.117 96.472 112.87 103.494 110.931Z" fill="#E19B72"/>
<path opacity="0.18" d="M103.443 110.833C110.359 108.924 115.061 104.102 113.945 100.062C112.829 96.0231 106.317 94.2965 99.401 96.2058C92.4847 98.1152 87.7827 102.938 88.8989 106.977C90.0151 111.016 96.5266 112.743 103.443 110.833Z" fill="#E29A73"/>
<path opacity="0.19" d="M103.389 110.733C110.199 108.853 114.829 104.105 113.73 100.128C112.632 96.152 106.22 94.4525 99.41 96.3326C92.5998 98.2127 87.9699 102.96 89.0686 106.937C90.1674 110.913 96.5789 112.613 103.389 110.733Z" fill="#E29973"/>
<path opacity="0.2" d="M103.34 110.636C110.044 108.785 114.601 104.111 113.52 100.196C112.438 96.2811 106.126 94.6076 99.422 96.4584C92.7179 98.3092 88.1602 102.983 89.242 106.898C90.3238 110.813 96.6355 112.487 103.34 110.636Z" fill="#E29873"/>
<path opacity="0.21" d="M103.286 110.539C109.884 108.717 114.369 104.118 113.305 100.266C112.241 96.4134 106.029 94.7671 99.431 96.5886C92.8331 98.4101 88.3473 103.01 89.4118 106.862C90.4762 110.714 96.6878 112.36 103.286 110.539Z" fill="#E29773"/>
<path opacity="0.22" d="M103.234 110.44C109.726 108.648 114.14 104.122 113.092 100.331C112.045 96.54 105.933 94.9198 99.441 96.712C92.9492 98.5042 88.5357 103.03 89.5832 106.821C90.6307 110.612 96.7425 112.232 103.234 110.44Z" fill="#E29673"/>
<path opacity="0.23" d="M103.184 110.342C109.57 108.579 113.912 104.127 112.881 100.399C111.851 96.6714 105.84 95.0783 99.4539 96.8412C93.0682 98.6041 88.7267 103.055 89.7568 106.783C90.787 110.511 96.7987 112.104 103.184 110.342Z" fill="#E39574"/>
<path opacity="0.24" d="M103.131 110.244C109.411 108.51 113.68 104.132 112.667 100.466C111.653 96.799 105.741 95.2319 99.4619 96.9655C93.1824 98.6991 88.9131 103.077 89.9263 106.744C90.9395 110.41 96.8514 111.977 103.131 110.244Z" fill="#E39474"/>
<path opacity="0.26" d="M103.079 110.148C109.252 108.444 113.449 104.139 112.453 100.534C111.456 96.929 105.644 95.388 99.4709 97.0923C93.2975 98.7966 89.1006 103.101 90.0968 106.706C91.093 110.311 96.9051 111.852 103.079 110.148Z" fill="#E39374"/>
<path opacity="0.27" d="M103.025 110.047C109.092 108.372 113.217 104.143 112.238 100.6C111.259 97.0579 105.547 95.5441 99.48 97.2191C93.4127 98.8941 89.2877 103.124 90.2665 106.666C91.2454 110.208 96.9574 111.722 103.025 110.047Z" fill="#E39274"/>
<path opacity="0.28" d="M102.975 109.949C108.936 108.303 112.989 104.147 112.027 100.667C111.065 97.1855 105.453 95.6977 99.4919 97.3434C93.5307 98.9891 89.478 103.145 90.4399 106.626C91.4018 110.107 97.014 111.595 102.975 109.949Z" fill="#E49175"/>
<path opacity="0.29" d="M102.923 109.851C108.778 108.235 112.759 104.153 111.815 100.735C110.87 97.3169 105.358 95.8563 99.5029 97.4727C93.6478 99.0891 89.6671 103.17 90.6116 106.589C91.5561 110.007 97.0682 111.467 102.923 109.851Z" fill="#E49075"/>
<path opacity="0.3" d="M102.872 109.751C108.621 108.164 112.529 104.157 111.602 100.8C110.674 97.443 105.262 96.0084 99.5129 97.5955C93.7639 99.1826 89.8554 103.19 90.783 106.547C91.7106 109.904 97.1229 111.339 102.872 109.751Z" fill="#E49075"/>
<path opacity="0.31" d="M102.822 109.653C108.465 108.096 112.301 104.161 111.391 100.866C110.48 97.5706 105.168 96.1621 99.5248 97.7199C93.882 99.2777 90.0458 103.212 90.9564 106.507C91.867 109.803 97.1795 111.211 102.822 109.653Z" fill="#E48F75"/>
<path opacity="0.32" d="M102.77 109.555C108.307 108.027 112.071 104.167 111.178 100.935C110.285 97.702 105.072 96.3206 99.5358 97.8491C93.9991 99.3776 90.2348 103.237 91.1281 106.47C92.0213 109.702 97.2338 111.084 102.77 109.555Z" fill="#E48E75"/>
<path opacity="0.33" d="M102.717 109.46C108.148 107.96 111.84 104.174 110.963 101.003C110.087 97.832 104.974 96.4767 99.5438 97.9759C94.1133 99.4751 90.4213 103.261 91.2975 106.432C92.1738 109.603 97.2865 110.959 102.717 109.46Z" fill="#E58D76"/>
<path opacity="0.34" d="M102.664 109.361C107.989 107.891 111.609 104.18 110.75 101.072C109.891 97.9634 104.878 96.6352 99.5538 98.1051C94.2294 99.575 90.6094 103.286 91.4683 106.395C92.3272 109.503 97.3398 110.831 102.664 109.361Z" fill="#E58C76"/>
<path opacity="0.36" d="M102.614 109.263C107.832 107.823 111.38 104.185 110.538 101.138C109.696 98.091 104.783 96.7888 99.5648 98.2294C94.3465 99.67 90.7987 103.308 91.6407 106.355C92.4826 109.402 97.3954 110.704 102.614 109.263Z" fill="#E58B76"/>
<path opacity="0.37" d="M102.561 109.165C107.673 107.754 111.149 104.19 110.324 101.204C109.499 98.2186 104.686 96.9424 99.5738 98.3538C94.4616 99.7651 90.9862 103.329 91.8111 106.315C92.6361 109.3 97.4491 110.577 102.561 109.165Z" fill="#E58A76"/>
<path opacity="0.38" d="M102.509 109.067C107.515 107.685 110.919 104.195 110.111 101.273C109.304 98.3499 104.591 97.101 99.5848 98.483C94.5787 99.865 91.1752 103.355 91.9828 106.277C92.7904 109.2 97.5033 110.449 102.509 109.067Z" fill="#E68977"/>
<path opacity="0.39" d="M102.459 108.969C107.359 107.616 110.69 104.2 109.899 101.339C109.109 98.4775 104.496 97.2546 99.5957 98.6073C94.6958 99.96 91.3646 103.376 92.1552 106.237C92.9459 109.099 97.559 110.322 102.459 108.969Z" fill="#E68877"/>
<path opacity="0.4" d="M102.405 108.868C107.199 107.545 110.458 104.203 109.685 101.405C108.912 98.6064 104.399 97.4107 99.6047 98.7341C94.8109 100.058 91.5517 103.399 92.325 106.197C93.0982 108.996 97.6112 110.192 102.405 108.868Z" fill="#E68777"/>
<path opacity="0.41" d="M102.353 108.772C107.04 107.478 110.227 104.21 109.471 101.473C108.715 98.736 104.301 97.5663 99.6138 98.8604C94.9261 100.155 91.7391 103.422 92.4954 106.159C93.2517 108.897 97.6649 110.066 102.353 108.772Z" fill="#E68677"/>
<path opacity="0.42" d="M102.306 108.674C106.888 107.409 110.002 104.214 109.263 101.539C108.524 98.8631 104.21 97.7194 99.6286 98.9842C95.0471 100.249 91.9324 103.443 92.6717 106.119C93.4111 108.795 97.7245 109.938 102.306 108.674Z" fill="#E68577"/>
<path opacity="0.43" d="M102.252 108.573C106.728 107.337 109.77 104.218 109.048 101.605C108.326 98.992 104.113 97.8755 99.6376 99.111C95.1622 100.347 92.1195 103.466 92.8415 106.079C93.5634 108.692 97.7768 109.808 102.252 108.573Z" fill="#E78478"/>
<path opacity="0.44" d="M108.832 101.678C109.538 104.23 106.566 107.276 102.198 108.482C97.8284 109.688 93.7155 108.598 93.0099 106.046C92.3043 103.495 95.2762 100.449 99.6436 99.2428C104.014 98.0367 108.127 99.1274 108.832 101.678Z" fill="#E78378"/>
<path opacity="0.46" d="M102.146 108.376C106.409 107.199 109.308 104.228 108.62 101.739C107.932 99.2505 103.919 98.1872 99.6557 99.3641C95.3925 100.541 92.494 103.513 93.1817 106.001C93.8693 108.49 97.8828 109.553 102.146 108.376Z" fill="#E78278"/>
<path opacity="0.47" d="M102.098 108.283C106.255 107.135 109.082 104.237 108.411 101.81C107.74 99.383 103.827 98.3457 99.6696 99.4933C95.5125 100.641 92.6863 103.539 93.357 105.966C94.0277 108.393 97.9413 109.431 102.098 108.283Z" fill="#E78178"/>
<path opacity="0.48" d="M102.045 108.185C106.096 107.067 108.85 104.242 108.196 101.876C107.542 99.5106 103.729 98.4993 99.6776 99.6176C95.6267 100.736 92.8727 103.56 93.5264 105.926C94.1802 108.292 97.994 109.303 102.045 108.185Z" fill="#E88079"/>
<path opacity="0.49" d="M101.991 108.084C105.936 106.995 108.618 104.245 107.982 101.942C107.345 99.6395 103.631 98.6554 99.6866 99.7444C95.7418 100.833 93.0598 103.583 93.6962 105.886C94.3326 108.189 98.0463 109.173 101.991 108.084Z" fill="#E87F79"/>
<path opacity="0.5" d="M101.943 107.989C105.781 106.929 108.391 104.253 107.772 102.011C107.152 99.7695 103.538 98.8115 99.6995 99.8712C95.8609 100.931 93.2511 103.607 93.8705 105.849C94.4899 108.09 98.1039 109.048 101.943 107.989Z" fill="#E87E79"/>
<path opacity="0.51" d="M101.889 107.887C105.621 106.857 108.159 104.255 107.557 102.077C106.955 99.8979 103.441 98.9671 99.7086 99.9975C95.976 101.028 93.4382 103.63 94.0403 105.808C94.6423 107.987 98.1562 108.918 101.889 107.887Z" fill="#E87D79"/>
<path opacity="0.52" d="M101.835 107.789C105.462 106.788 107.927 104.26 107.342 102.143C106.757 100.026 103.343 99.1207 99.7166 100.122C96.0902 101.123 93.6247 103.651 94.2098 105.768C94.7948 107.886 98.2089 108.791 101.835 107.789Z" fill="#E87C79"/>
<path opacity="0.53" d="M101.784 107.694C105.304 106.722 107.697 104.267 107.129 102.212C106.561 100.156 103.247 99.2768 99.7266 100.249C96.2063 101.22 93.8131 103.675 94.3812 105.731C94.9493 107.787 98.2636 108.666 101.784 107.694Z" fill="#E97B7A"/>
<path opacity="0.54" d="M101.736 107.593C105.15 106.65 107.471 104.27 106.921 102.277C106.37 100.284 103.156 99.4324 99.7415 100.375C96.3273 101.317 94.006 103.697 94.5568 105.69C95.1075 107.684 98.3217 108.535 101.736 107.593Z" fill="#E97A7A"/>
<path opacity="0.56" d="M106.702 102.349C107.235 104.282 104.987 106.586 101.679 107.499C98.3713 108.411 95.2577 107.585 94.7226 105.656C94.1901 103.723 96.4381 101.419 99.7457 100.506C103.053 99.5939 106.167 100.42 106.702 102.349Z" fill="#E9797A"/>
<path opacity="0.57" d="M101.631 107.396C104.833 106.512 107.01 104.281 106.493 102.412C105.977 100.543 102.962 99.7445 99.7605 100.628C96.5586 101.512 94.3815 103.744 94.898 105.613C95.4144 107.482 98.4287 108.28 101.631 107.396Z" fill="#E9787A"/>
<path opacity="0.58" d="M106.277 102.483C106.776 104.289 104.672 106.447 101.577 107.302C98.4818 108.157 95.5675 107.383 95.0692 105.577C94.5708 103.77 96.6745 101.613 99.7697 100.758C102.865 99.9031 105.779 100.677 106.277 102.483Z" fill="#EA777B"/>
<path opacity="0.59" d="M106.063 102.551C106.546 104.297 104.513 106.379 101.523 107.205C98.5324 108.031 95.7205 107.284 95.2379 105.538C94.7552 103.791 96.7881 101.71 99.7784 100.884C102.769 100.058 105.581 100.805 106.063 102.551Z" fill="#EA767B"/>
<path opacity="0.6" d="M101.476 107.103C104.359 106.307 106.32 104.298 105.855 102.614C105.39 100.931 102.675 100.212 99.7914 101.008C96.9079 101.804 94.9474 103.814 95.4125 105.497C95.8776 107.18 98.5923 107.9 101.476 107.103Z" fill="#EA757B"/>
<path d="M111.991 99.0438C115.561 97.2951 119.5 96.4587 123.472 96.6711C123.923 96.6947 123.907 97.3659 123.456 97.3711C119.655 97.4209 115.888 98.252 112.437 99.8487C111.901 100.095 111.453 99.306 111.988 99.0438H111.991Z" fill="#985119"/>
<path d="M105.892 98.9622C111.691 94.6335 118.805 92.4364 125.84 91.1098C127.912 90.7191 130 90.4386 132.093 90.1843C132.455 90.1397 132.613 90.6772 132.235 90.7506C125.205 92.1008 118.181 93.6372 111.697 96.7598C109.887 97.6303 108.15 98.6476 106.482 99.7671C106.015 100.082 105.433 99.3083 105.892 98.9648V98.9622Z" fill="#985119"/>
<g style="mix-blend-mode:overlay" opacity="0.31">
<path d="M97.424 102.283C104.363 101.043 108.876 93.8126 107.503 86.1324C106.13 78.4522 99.3918 73.2307 92.4525 74.47C85.5131 75.7092 81.0006 82.9399 82.3734 90.6201C83.7463 98.3004 90.4846 103.522 97.424 102.283Z" fill="black"/>
</g>
<path d="M96.1759 101.055C102.405 99.9422 106.464 93.4996 105.243 86.6647C104.021 79.8297 97.9807 75.1907 91.7515 76.3031C85.5224 77.4156 81.4631 83.8582 82.6848 90.6931C83.9066 97.5281 89.9467 102.167 96.1759 101.055Z" fill="#C5D5D5"/>
<path d="M96.1521 101.035C102.368 99.9247 106.419 93.4943 105.2 86.6722C103.98 79.8501 97.9524 75.2196 91.7361 76.3298C85.5198 77.4399 81.469 83.8703 82.6885 90.6924C83.9079 97.5145 89.9358 102.145 96.1521 101.035Z" fill="#C6D6D6"/>
<path d="M96.128 101.015C102.333 99.9069 106.376 93.4886 105.159 86.6793C103.942 79.87 97.9252 75.2483 91.7203 76.3564C85.5154 77.4645 81.4721 83.8828 82.6892 90.6921C83.9064 97.5014 89.9231 102.123 96.128 101.015Z" fill="#C7D6D6"/>
<path d="M96.104 100.996C102.297 99.8896 106.333 93.4833 105.119 86.6869C103.904 79.8904 97.898 75.2775 91.7045 76.3835C85.511 77.4896 81.4751 83.8959 82.6899 90.6923C83.9048 97.4888 89.9105 102.102 96.104 100.996Z" fill="#C8D7D7"/>
<path d="M96.0764 100.974C102.257 99.8698 106.285 93.477 105.072 86.6948C103.86 79.9126 97.8669 75.3093 91.6862 76.4131C85.5055 77.5168 81.4779 83.9097 82.6902 90.6919C83.9025 97.4741 89.8957 102.077 96.0764 100.974Z" fill="#C9D8D8"/>
<path d="M96.0523 100.954C102.222 99.8525 106.242 93.4717 105.032 86.7023C103.822 79.933 97.8397 75.3384 91.6704 76.4402C85.5012 77.5419 81.4809 83.9227 82.6909 90.6921C83.901 97.4615 89.883 102.056 96.0523 100.954Z" fill="#CAD8D8"/>
<path d="M96.0263 100.934C102.184 99.8342 106.197 93.4655 104.989 86.709C103.782 79.9524 97.8105 75.3666 91.6527 76.4663C85.4949 77.566 81.482 83.9348 82.6897 90.6913C83.8974 97.4479 89.8684 102.034 96.0263 100.934Z" fill="#CBD9D9"/>
<path d="M95.9996 100.915C102.145 99.8172 106.149 93.4607 104.943 86.717C103.738 79.9733 97.7793 75.396 91.6343 76.4934C85.4893 77.5908 81.485 83.9473 82.6904 90.691C83.8959 97.4348 89.8546 102.012 95.9996 100.915Z" fill="#CCDADA"/>
<path d="M95.9765 100.892C102.11 99.797 106.107 93.4525 104.904 86.7216C103.701 79.9908 97.7531 75.4223 91.6195 76.5176C85.4859 77.613 81.489 83.9574 82.6922 90.6883C83.8953 97.4192 89.8429 101.988 95.9765 100.892Z" fill="#CDDBDB"/>
<path d="M95.9524 100.872C102.075 99.7792 106.064 93.4468 104.863 86.7287C103.662 80.0107 97.7259 75.4509 91.6038 76.5443C85.4816 77.6376 81.492 83.97 82.6929 90.688C83.8937 97.4061 89.8302 101.966 95.9524 100.872Z" fill="#CEDBDB"/>
<path d="M95.9258 100.853C102.035 99.7621 106.016 93.442 104.818 86.7368C103.619 80.0315 97.6948 75.4803 91.5854 76.5714C85.476 77.6624 81.4951 83.9825 82.6936 90.6878C83.8922 97.393 89.8164 101.944 95.9258 100.853Z" fill="#CFDCDC"/>
<path d="M95.9008 100.828C101.999 99.7392 105.973 93.4322 104.776 86.7413C103.58 80.0503 97.6676 75.509 91.5696 76.598C85.4717 77.687 81.4979 83.9939 82.6939 90.6849C83.8899 97.3759 89.8028 101.917 95.9008 100.828Z" fill="#CFDDDD"/>
<path d="M95.8767 100.811C101.963 99.7243 105.93 93.4294 104.736 86.7513C103.542 80.0732 97.6404 75.5406 91.5539 76.6276C85.4673 77.7145 81.5009 84.0094 82.6946 90.6876C83.8883 97.3657 89.7901 101.898 95.8767 100.811Z" fill="#D0DDDD"/>
<path d="M95.8497 100.792C101.925 99.707 105.884 93.4242 104.692 86.7589C103.501 80.0936 97.6103 75.5698 91.5351 76.6547C85.46 77.7396 81.501 84.0224 82.6924 90.6878C83.8838 97.3531 89.7745 101.877 95.8497 100.792Z" fill="#D1DEDE"/>
<path d="M95.824 100.773C101.886 99.69 105.837 93.4194 104.648 86.7669C103.459 80.1144 97.5801 75.5992 91.5178 76.6818C85.4555 77.7644 81.505 84.035 82.6941 90.6875C83.8833 97.34 89.7617 101.855 95.824 100.773Z" fill="#D2DFDF"/>
<path d="M95.7999 100.75C101.851 99.6692 105.794 93.4107 104.607 86.7711C103.42 80.1314 97.5529 75.6249 91.502 76.7055C85.4511 77.7861 81.508 84.0446 82.6949 90.6843C83.8817 97.3239 89.749 101.83 95.7999 100.75Z" fill="#D3DFDF"/>
<path d="M95.7739 100.731C101.813 99.6519 105.749 93.4055 104.565 86.7787C103.38 80.1518 97.5237 75.6541 91.4843 76.7326C85.4448 77.8112 81.5091 84.0577 82.6936 90.6845C83.8782 97.3113 89.7344 101.809 95.7739 100.731Z" fill="#D4E0E0"/>
<path d="M95.7501 100.711C101.777 99.6344 105.704 93.4002 104.522 86.7862C103.339 80.1722 97.4955 75.683 91.4688 76.7592C85.4422 77.8355 81.515 84.0697 82.6973 90.6837C83.8795 97.2977 89.7235 101.787 95.7501 100.711Z" fill="#D5E1E1"/>
<path d="M95.728 100.691C101.743 99.6166 105.663 93.3945 104.483 86.7933C103.303 80.1921 97.4702 75.7117 91.455 76.7859C85.4398 77.8601 81.52 84.0823 82.7 90.6834C83.8799 97.2846 89.7128 101.765 95.728 100.691Z" fill="#D6E1E1"/>
<path d="M95.7011 100.666C101.705 99.5942 105.617 93.3852 104.44 86.7983C103.263 80.2114 97.4411 75.7408 91.4373 76.813C85.4335 77.8852 81.5209 84.0942 82.6983 90.6811C83.8757 97.268 89.6972 101.739 95.7011 100.666Z" fill="#D7E2E2"/>
<path d="M95.6763 100.647C101.667 99.5766 105.571 93.3799 104.396 86.8058C103.221 80.2317 97.4119 75.7697 91.4209 76.8396C85.4299 77.9095 81.5259 84.1062 82.701 90.6803C83.8761 97.2544 89.6854 101.716 95.6763 100.647Z" fill="#D8E3E3"/>
<path d="M95.6513 100.627C101.631 99.5588 105.528 93.3742 104.355 86.8129C103.182 80.2517 97.3837 75.7984 91.4041 76.8663C85.4246 77.9341 81.5279 84.1188 82.7007 90.68C83.8736 97.2413 89.6717 101.695 95.6513 100.627Z" fill="#D9E3E3"/>
<path d="M95.6243 100.607C101.592 99.5415 105.482 93.369 104.311 86.8205C103.141 80.2721 97.3536 75.8276 91.3854 76.8934C85.4173 77.9592 81.528 84.1318 82.6985 90.6802C83.8691 97.2287 89.6561 101.673 95.6243 100.607Z" fill="#DAE4E4"/>
<path d="M95.6006 100.588C101.556 99.524 105.437 93.3637 104.268 86.8281C103.1 80.2925 97.3253 75.8565 91.37 76.92C85.4147 77.9835 81.534 84.1439 82.7022 90.6795C83.8704 97.2151 89.6452 101.651 95.6006 100.588Z" fill="#DBE5E5"/>
<path d="M95.5745 100.568C101.518 99.5067 105.392 93.3584 104.226 86.8356C103.06 80.3129 97.2962 75.8856 91.3523 76.9471C85.4083 78.0086 81.535 84.1569 82.701 90.6797C83.8669 97.2024 89.6306 101.63 95.5745 100.568Z" fill="#DCE6E6"/>
<path d="M95.5505 100.546C101.483 99.4865 105.349 93.3502 104.185 86.8403C103.022 80.3303 97.269 75.9119 91.3365 76.9713C85.404 78.0308 81.538 84.167 82.7017 90.6769C83.8653 97.1869 89.6179 101.605 95.5505 100.546Z" fill="#DDE6E6"/>
<path d="M95.5257 100.526C101.445 99.4689 105.303 93.3449 104.141 86.8478C102.98 80.3507 97.2398 75.9408 91.3201 76.9979C85.4004 78.0551 81.543 84.1791 82.7044 90.6762C83.8657 97.1733 89.6061 101.583 95.5257 100.526Z" fill="#DEE7E7"/>
<path d="M95.5007 100.504C101.409 99.4489 105.259 93.3381 104.1 86.8553C102.942 80.3724 97.2126 75.9724 91.3043 77.0275C85.396 78.0826 81.5458 84.1934 82.7047 90.6762C83.8635 97.1591 89.5925 101.559 95.5007 100.504Z" fill="#DFE8E8"/>
<path d="M95.4747 100.485C101.372 99.4316 105.214 93.3329 104.058 86.8629C102.901 80.3928 97.1835 76.0015 91.2866 77.0546C85.3897 78.1077 81.5469 84.2064 82.7034 90.6764C83.8599 97.1465 89.5778 101.538 95.4747 100.485Z" fill="#E0E8E8"/>
<path d="M95.4487 100.465C101.334 99.4143 105.17 93.3277 104.015 86.8705C102.861 80.4133 97.1543 76.0307 91.2689 77.0818C85.3834 78.1328 81.548 84.2195 82.7022 90.6767C83.8564 97.1339 89.5632 101.516 95.4487 100.465Z" fill="#E1E9E9"/>
<path d="M95.4249 100.443C101.298 99.3938 105.124 93.3194 103.973 86.8751C102.821 80.4307 97.1261 76.0567 91.2534 77.1054C85.3808 78.1542 81.5539 84.2286 82.7059 90.673C83.8578 97.1173 89.5523 101.491 95.4249 100.443Z" fill="#E2EAEA"/>
<path d="M95.3979 100.423C101.259 99.3765 105.079 93.3142 103.929 86.8826C102.779 80.4511 97.0959 76.0858 91.2347 77.1326C85.3735 78.1793 81.554 84.2416 82.7037 90.6732C83.8533 97.1047 89.5367 101.47 95.3979 100.423Z" fill="#E2EAEA"/>
<path d="M95.3748 100.403C101.225 99.3587 105.037 93.3085 103.889 86.8897C102.742 80.471 97.0697 76.1145 91.2199 77.1592C85.3701 78.2039 81.558 84.2542 82.7054 90.6729C83.8527 97.0916 89.525 101.448 95.3748 100.403Z" fill="#E3EBEB"/>
<path d="M95.3482 100.384C101.185 99.3417 104.989 93.3036 103.844 86.8978C102.699 80.4919 97.0386 76.1439 91.2016 77.1863C85.3646 78.2287 81.5611 84.2667 82.7061 90.6726C83.8512 97.0785 89.5112 101.426 95.3482 100.384Z" fill="#E4ECEC"/>
<path d="M95.3241 100.365C101.15 99.3244 104.946 93.2984 103.803 86.9053C102.66 80.5123 97.0114 76.1731 91.1858 77.2134C85.3602 78.2538 81.5641 84.2798 82.7068 90.6728C83.8496 97.0659 89.4985 101.405 95.3241 100.365Z" fill="#E5ECEC"/>
<path d="M95.301 100.342C101.115 99.3034 104.904 93.2906 103.764 86.9118C102.624 80.533 96.9861 76.2037 91.172 77.242C85.3578 78.2803 81.5689 84.2931 82.7091 90.6719C83.8493 97.0507 89.4869 101.38 95.301 100.342Z" fill="#E6EDED"/>
<path d="M95.2734 100.32C101.075 99.2839 104.855 93.2834 103.717 86.9174C102.579 80.5514 96.954 76.2306 91.1527 77.2667C85.3513 78.3027 81.5709 84.3032 82.7088 90.6692C83.8467 97.0352 89.4721 101.356 95.2734 100.32Z" fill="#E7EEEE"/>
<path d="M95.2503 100.3C101.04 99.2656 104.813 93.2772 103.678 86.924C102.542 80.5709 96.9278 76.2588 91.1379 77.2928C85.3479 78.3268 81.5749 84.3153 82.7105 90.6684C83.8461 97.0216 89.4604 101.334 95.2503 100.3Z" fill="#E8EEEE"/>
<path d="M95.2253 100.28C101.004 99.2483 104.769 93.2719 103.636 86.9316C102.503 80.5913 96.8996 76.288 91.1211 77.32C85.3426 78.3519 81.5769 84.3283 82.7103 90.6686C83.8436 97.0089 89.4467 101.312 95.2253 100.28Z" fill="#E9EFEF"/>
<path d="M95.1986 100.261C100.964 99.2313 104.721 93.2671 103.59 86.9396C102.459 80.6121 96.8684 76.3174 91.1028 77.3471C85.3371 78.3767 81.58 84.3409 82.711 90.6684C83.842 96.9959 89.4329 101.291 95.1986 100.261Z" fill="#EAF0F0"/>
<path d="M95.1745 100.238C100.929 99.2105 104.678 93.2584 103.55 86.9438C102.421 80.6291 96.8412 76.3431 91.087 77.3708C85.3327 78.3984 81.583 84.3505 82.7117 90.6652C83.8405 96.9798 89.4203 101.266 95.1745 100.238Z" fill="#EBF1F1"/>
<path d="M95.1504 100.219C100.893 99.1933 104.636 93.2532 103.509 86.9514C102.383 80.6495 96.8141 76.3723 91.0712 77.3979C85.3284 78.4235 81.586 84.3635 82.7125 90.6654C83.8389 96.9672 89.4076 101.244 95.1504 100.219Z" fill="#ECF1F1"/>
<path d="M95.1238 100.202C100.854 99.1786 104.588 93.2508 103.463 86.9618C102.339 80.6728 96.7829 76.4041 91.0528 77.4274C85.3228 78.4507 81.589 84.3785 82.7132 90.6675C83.8374 96.9565 89.3938 101.225 95.1238 100.202Z" fill="#EDF2F2"/>
<path d="M95.0988 100.177C100.817 99.1562 104.544 93.2416 103.422 86.9668C102.301 80.6921 96.7557 76.4333 91.0371 77.4546C85.3185 78.4758 81.5919 84.3904 82.7135 90.6651C83.8351 96.9399 89.3802 101.199 95.0988 100.177Z" fill="#EEF3F3"/>
<path d="M95.0747 100.158C100.782 99.1384 104.501 93.2359 103.382 86.9739C102.262 80.712 96.7285 76.462 91.0213 77.4812C85.3141 78.5004 81.5949 84.4029 82.7142 90.6649C83.8335 96.9268 89.3675 101.177 95.0747 100.158Z" fill="#EFF3F3"/>
<path d="M95.0471 100.138C100.741 99.1213 104.452 93.231 103.335 86.982C102.218 80.7329 96.6963 76.4914 91.002 77.5083C85.3076 78.5252 81.5969 84.4155 82.714 90.6646C83.831 96.9137 89.3527 101.155 95.0471 100.138Z" fill="#F0F4F4"/>
<path d="M95.023 100.119C100.706 99.104 104.409 93.2258 103.294 86.9895C102.18 80.7533 96.6691 76.5205 90.9862 77.5354C85.3032 78.5503 81.6 84.4285 82.7147 90.6648C83.8294 96.9011 89.34 101.134 95.023 100.119Z" fill="#F1F5F5"/>
<path d="M94.9989 100.099C100.67 99.0858 104.366 93.2196 103.254 86.9962C102.141 80.7727 96.642 76.5487 90.9704 77.5616C85.2989 78.5744 81.603 84.4406 82.7154 90.664C83.8279 96.8875 89.3274 101.111 94.9989 100.099Z" fill="#F2F5F5"/>
<path d="M94.9748 100.077C100.635 99.066 104.323 93.2119 103.213 87.0013C102.103 80.7907 96.6148 76.5754 90.9546 77.5863C85.2945 78.5971 81.606 84.4512 82.7161 90.6618C83.8263 96.8724 89.3147 101.088 94.9748 100.077Z" fill="#F3F6F6"/>
<path d="M94.9482 100.057C100.595 99.049 104.275 93.2071 103.168 87.0093C102.06 80.8116 96.5836 76.6048 90.9363 77.6134C85.289 78.6219 81.609 84.4637 82.7169 90.6615C83.8247 96.8593 89.3009 101.066 94.9482 100.057Z" fill="#F4F7F7"/>
<path d="M94.9232 100.035C100.559 99.0285 104.232 93.1998 103.127 87.0163C102.021 80.8328 96.5564 76.6359 90.9205 77.6424C85.2846 78.6489 81.6118 84.4776 82.7171 90.6611C83.8224 96.8446 89.2873 101.041 94.9232 100.035Z" fill="#F5F7F7"/>
<path d="M94.8991 100.015C100.524 99.0107 104.189 93.1941 103.086 87.0234C101.983 80.8527 96.5292 76.6646 90.9047 77.6691C85.2802 78.6735 81.6149 84.4901 82.7179 90.6608C83.8209 96.8315 89.2746 101.02 94.8991 100.015Z" fill="#F5F8F8"/>
<path d="M94.8753 99.9953C100.487 98.9931 104.144 93.1888 103.043 87.0309C101.942 80.8731 96.501 76.6935 90.8893 77.6957C85.2777 78.6978 81.6208 84.5022 82.7215 90.6601C83.8223 96.8179 89.2637 100.997 94.8753 99.9953Z" fill="#F6F9F9"/>
<path d="M94.8493 99.9755C100.45 98.9753 104.099 93.183 103.001 87.038C101.902 80.893 96.4718 76.7222 90.8716 77.7223C85.2713 78.7224 81.6219 84.5147 82.7203 90.6598C83.8187 96.8048 89.2491 100.976 94.8493 99.9755Z" fill="#F7F9F9"/>
<path d="M94.8252 99.9537C100.414 98.9556 104.056 93.1754 102.96 87.0432C101.864 80.911 96.4446 76.7489 90.8558 77.747C85.267 78.7451 81.6249 84.5253 82.721 90.6575C83.8172 96.7897 89.2364 100.952 94.8252 99.9537Z" fill="#F8FAFA"/>
<path d="M94.7996 99.9338C100.376 98.938 104.009 93.1701 102.915 87.0507C101.821 80.9313 96.4144 76.7778 90.8384 77.7736C85.2624 78.7694 81.6289 84.5374 82.7228 90.6568C83.8166 96.7761 89.2236 100.93 94.7996 99.9338Z" fill="#F9FBFB"/>
<path d="M94.7755 99.9169C100.34 98.9232 103.966 93.1673 102.875 87.0607C101.783 80.9542 96.3872 76.8094 90.8227 77.8032C85.2581 78.7969 81.6319 84.5529 82.7235 90.6594C83.815 96.766 89.2109 100.911 94.7755 99.9169Z" fill="#FAFCFC"/>
<path d="M94.7514 99.8947C100.305 98.903 103.923 93.1591 102.834 87.0654C101.745 80.9717 96.3601 76.8357 90.8069 77.8274C85.2537 78.8191 81.635 84.563 82.7242 90.6567C83.8135 96.7504 89.1982 100.886 94.7514 99.8947Z" fill="#FBFCFC"/>
<path d="M94.7238 99.8697C100.264 98.8803 103.875 93.1498 102.788 87.0703C101.701 80.9909 96.3289 76.8646 90.7885 77.854C85.2482 78.8434 81.6378 84.5739 82.7245 90.6534C83.8112 96.7328 89.1835 100.859 94.7238 99.8697Z" fill="#FCFDFD"/>
<path d="M94.6997 99.8504C100.229 98.863 103.832 93.1445 102.747 87.0779C101.663 81.0113 96.3017 76.8937 90.7727 77.8811C85.2438 78.8685 81.6408 84.5869 82.7252 90.6536C83.8096 96.7202 89.1708 100.838 94.6997 99.8504Z" fill="#FDFEFE"/>
<path d="M94.6737 99.831C100.191 98.8457 103.787 93.1393 102.705 87.0855C101.623 81.0317 96.2725 76.9229 90.755 77.9083C85.2375 78.8936 81.6419 84.6 82.724 90.6538C83.8061 96.7076 89.1562 100.816 94.6737 99.831Z" fill="#FEFEFE"/>
<path d="M94.649 99.8136C100.154 98.8306 103.741 93.1365 102.661 87.0955C101.581 81.0545 96.2433 76.9542 90.7386 77.9373C85.2339 78.9204 81.6469 84.6145 82.7267 90.6554C83.8065 96.6964 89.1443 100.797 94.649 99.8136Z" fill="white"/>
<path d="M91.4376 99.144C94.8901 98.5275 97.0811 94.6269 96.3313 90.4318C95.5814 86.2368 92.1747 83.3359 88.7221 83.9524C85.2696 84.569 83.0786 88.4696 83.8284 92.6646C84.5783 96.8597 87.985 99.7606 91.4376 99.144Z" fill="#472317"/>
<path d="M88.6652 88.9909C88.4475 87.7718 87.4743 86.9275 86.4933 87.1032C85.5123 87.2789 84.8933 88.4089 85.111 89.6254C85.3287 90.8446 86.3018 91.6888 87.2829 91.5131C88.2639 91.3375 88.8829 90.2075 88.6652 88.9909Z" fill="white"/>
<path d="M93.565 94.4366C93.4207 93.6343 92.7807 93.0785 92.1354 93.1939C91.4902 93.3092 91.081 94.0538 91.2252 94.8535C91.3695 95.6531 92.0095 96.2116 92.6548 96.0962C93.3001 95.9809 93.7093 95.2363 93.565 94.4366Z" fill="white"/>
<path d="M40.6786 114.289C36.7257 114.709 32.9459 116.101 29.6985 118.398C29.3313 118.657 29.6985 119.218 30.0841 118.982C33.3288 117 36.9565 115.697 40.7284 115.21C41.3134 115.133 41.2714 114.226 40.6786 114.289Z" fill="#985119"/>
<path d="M45.7963 110.97C38.5829 110.396 31.3905 112.325 24.7306 114.95C22.7685 115.723 20.8537 116.596 18.9468 117.496C18.6163 117.65 18.771 118.19 19.1278 118.051C25.7955 115.451 32.5604 113.007 39.7108 112.194C41.707 111.969 43.7162 111.903 45.7255 111.961C46.2894 111.977 46.3681 111.014 45.7989 110.967L45.7963 110.97Z" fill="#985119"/>
<g style="mix-blend-mode:overlay" opacity="0.2">
<path d="M79.9361 126.258C94.6094 123.193 110.148 116.73 115.979 101.757C121.433 87.7014 113.949 74.5555 104.611 63.9265C99.5434 58.2004 94.5098 52.7234 88.4663 48.7041C91.3621 49.6611 94.2134 50.9091 96.7708 52.4035C104.005 56.6299 110.434 62.9276 115.61 69.4507C120.279 75.3315 124.743 81.8888 126.946 89.1434C134.412 113.726 106.306 126.235 86.9449 130.136C74.9366 132.556 58.1858 133.151 47.7041 125.833C58.2042 128.377 69.3495 128.51 79.9361 126.256V126.258Z" fill="black"/>
</g>
<path d="M79.179 115.123C79.179 115.123 78.5206 122.213 75.4831 123.143C72.4456 124.074 66.9714 113.621 67.0999 113.631C67.231 113.642 68.9019 112.905 73.4214 113.574C77.9409 114.242 79.1764 115.126 79.1764 115.126L79.179 115.123Z" fill="white"/>
<path d="M68.6232 116.434C67.6737 114.856 67.0573 113.626 67.1019 113.631C67.233 113.642 68.9039 112.905 73.4234 113.574C77.9429 114.242 79.1784 115.126 79.1784 115.126C79.1784 115.126 79.0944 116.025 78.8505 117.223C75.493 116.217 71.9807 115.734 68.6232 116.437V116.434Z" fill="#DFE5E4"/>
<path d="M64.9906 112.768C67.1599 112.509 69.4393 112.448 71.6846 112.674C71.4433 112.034 71.3095 111.342 71.1521 110.689C70.9056 109.674 70.7088 108.649 70.5226 107.622C70.1711 105.694 69.7698 103.715 69.7173 101.754C69.699 101.077 70.7403 101.07 70.8741 101.691C71.2859 103.615 71.4354 105.611 71.7423 107.556C71.8892 108.479 72.0545 109.397 72.1935 110.322C72.3142 111.124 72.5109 111.953 72.524 112.771C75.8159 113.211 78.9951 114.307 81.5997 116.36C81.8883 116.588 81.5866 117.026 81.2719 116.829C76.3694 113.73 70.8295 113.494 65.2057 113.89C64.4896 113.94 64.2483 112.857 64.9906 112.768Z" fill="#985119"/>
<path d="M65.0178 100.338C65.0178 100.351 65.0204 100.365 65.023 100.378C65.225 101.408 68.4881 102.905 69.8836 103.503C69.8967 103.508 69.9098 103.513 69.9229 103.519C70.1695 103.613 70.4528 103.6 70.6967 103.498C70.7492 103.477 70.799 103.448 70.8488 103.419C70.9039 103.385 70.9564 103.346 71.001 103.301C71.0193 103.285 71.0351 103.267 71.0534 103.251C71.1085 103.199 71.1636 103.144 71.2239 103.086C71.2711 103.039 71.321 102.992 71.3708 102.942C71.4049 102.908 71.439 102.876 71.4731 102.84C71.5807 102.729 71.6961 102.617 71.8141 102.496C71.9243 102.383 72.0371 102.268 72.1499 102.147C72.1604 102.137 72.1709 102.126 72.1787 102.116C72.2286 102.064 72.2784 102.011 72.3282 101.956C72.4043 101.875 72.4778 101.793 72.5538 101.712C72.6037 101.657 72.6535 101.602 72.7033 101.547C72.9997 101.217 73.2909 100.876 73.5532 100.54C73.5794 100.509 73.603 100.475 73.6293 100.443C73.6398 100.43 73.6476 100.42 73.6581 100.407C73.687 100.37 73.7158 100.333 73.7447 100.294C73.9781 99.9818 74.1749 99.6803 74.3191 99.4076C74.3217 99.4023 74.327 99.3971 74.327 99.3892C74.508 99.0405 74.5972 98.7338 74.5552 98.5083C74.306 97.2472 72.2443 97.1659 69.7419 97.6221C69.6422 97.6405 69.5426 97.6588 69.4429 97.6798C69.254 97.7165 69.0652 97.7558 68.8816 97.7978C66.5523 98.3195 64.8237 99.1454 65.0178 100.341V100.338Z" fill="#985119"/>
<g style="mix-blend-mode:overlay" opacity="0.35">
<path d="M68.039 100.679C69.4056 100.684 70.8194 100.522 72.144 100.194C72.8732 100.013 73.6497 99.7744 74.329 99.3916C73.6811 100.64 71.8817 102.457 71.0056 103.301C70.7171 103.579 70.2528 103.663 69.8882 103.505C68.4928 102.907 65.2297 101.408 65.0277 100.38C65.0277 100.367 65.0251 100.354 65.0225 100.341C66.0166 100.553 67.0265 100.676 68.0416 100.679H68.039Z" fill="black"/>
</g>
<g style="mix-blend-mode:overlay" opacity="0.46">
<path d="M66.6941 99.0775C67.9165 98.5924 69.8707 98.0445 71.6517 97.9501C72.0399 97.9343 72.4307 97.9501 72.8137 98.0078C73 98.055 73.2282 98.0445 73.3777 98.1782C73.6846 98.422 73.5062 98.6554 73.1154 98.6449C69.2569 98.5557 66.5892 99.9034 66.2692 99.7801C65.7577 99.6045 66.1695 99.2217 66.6915 99.0749L66.6941 99.0775Z" fill="white"/>
</g>
<g style="mix-blend-mode:overlay" opacity="0.2">
<path d="M125.945 171.904C127.249 170.069 127.952 167.814 127.926 165.564C128.812 166.956 129.392 168.537 129.618 170.171C130.885 166.967 131.357 163.451 130.974 160.027C131.949 161.453 132.923 162.882 133.898 164.308C134.234 161.23 133.864 158.074 132.823 155.158C134.268 156.692 135.491 158.43 136.445 160.307C136.073 156.178 134.462 152.169 131.876 148.929C132.406 150.62 133.03 152.185 133.56 153.876C132.437 152.492 131.317 151.105 130.195 149.72C131.118 152.646 131.753 155.662 132.094 158.711C131.451 156.621 130.171 154.733 128.471 153.362C129.41 157.277 129.594 161.369 129.006 165.352C128.802 163.063 127.755 160.858 126.111 159.251C126.966 163.472 127.147 167.764 125.945 171.901V171.904Z" fill="white"/>
</g>
<path d="M89.6188 135.224C89.6791 134.416 89.5637 133.59 89.3066 132.872C88.4489 130.468 86.4869 128.635 84.5143 127.114C83.1976 126.1 81.8283 125.143 80.6243 123.997C79.8637 125.838 80.3306 128.119 81.7523 129.513C79.7771 128.467 77.6262 127.447 75.651 126.401C75.5278 126.336 75.3914 126.268 75.2523 126.296C74.9533 126.359 74.9245 126.771 74.9848 127.07C75.3782 129.034 76.5665 130.824 78.2243 131.949C77.6 131.91 76.9101 132.382 76.7265 132.98C76.5403 133.577 76.8131 134.283 77.3482 134.605C76.9967 134.713 76.8157 135.127 76.8603 135.491C76.9049 135.856 77.1226 136.173 77.356 136.456C78.6938 138.074 80.7188 138.984 82.7805 139.214C84.4015 139.395 86.2324 139.319 87.6987 138.535C88.9315 137.877 89.5191 136.579 89.6188 135.226V135.224Z" fill="url(#paint14_linear_38_192410)"/>
<g style="mix-blend-mode:overlay" opacity="0.3">
<path d="M85.2562 137.418C87.9554 135.819 88.48 132.988 87.8321 130.266C88.4511 131.055 88.9679 131.918 89.3062 132.87C89.5633 133.588 89.6787 134.416 89.6184 135.221C89.5187 136.572 88.9311 137.872 87.6983 138.53C86.232 139.314 84.4011 139.39 82.7801 139.209C81.9538 139.117 81.1354 138.913 80.3643 138.601C81.9932 138.638 83.6378 138.294 85.2589 137.416L85.2562 137.418Z" fill="black"/>
</g>
<g style="mix-blend-mode:overlay" opacity="0.2">
<path d="M116.225 139.608C116.676 137.644 117.127 135.678 117.578 133.714C118.255 135.694 118.929 137.671 119.606 139.65C120.93 136.905 121.138 133.643 120.17 130.754C121.762 133.006 122.969 135.529 123.721 138.182C123.929 133.316 122.698 128.397 120.225 124.202C120.419 125.791 120.6 127.409 120.794 128.998C119.821 127.815 118.845 126.633 117.872 125.45C118.142 127.681 118.415 129.915 118.685 132.146C117.783 130.358 116.88 128.573 115.978 126.785C115.69 129.577 114.976 132.325 113.869 134.905C115.021 133.672 115.789 132.083 116.041 130.416C115.973 133.158 116.293 136.863 116.227 139.605L116.225 139.608Z" fill="white"/>
</g>
</g>
<defs>
<linearGradient id="paint0_linear_38_192410" x1="192.257" y1="179.09" x2="131.677" y2="165.153" gradientUnits="userSpaceOnUse">
<stop stop-color="#C6884A"/>
<stop offset="0.32" stop-color="#C28345"/>
<stop offset="0.66" stop-color="#B87739"/>
<stop offset="1" stop-color="#A86326"/>
</linearGradient>
<linearGradient id="paint1_linear_38_192410" x1="120.012" y1="164.563" x2="146.575" y2="199.752" gradientUnits="userSpaceOnUse">
<stop offset="0.1" stop-color="#E2B078"/>
<stop offset="0.44" stop-color="#E3B17A"/>
<stop offset="0.66" stop-color="#E6B883"/>
<stop offset="0.85" stop-color="#EDC292"/>
<stop offset="1" stop-color="#F5CFA4"/>
</linearGradient>
<linearGradient id="paint2_linear_38_192410" x1="151.171" y1="207.058" x2="137.595" y2="194.417" gradientUnits="userSpaceOnUse">
<stop stop-color="#C6884A"/>
<stop offset="0.32" stop-color="#C28345"/>
<stop offset="0.66" stop-color="#B87739"/>
<stop offset="1" stop-color="#A86326"/>
</linearGradient>
<linearGradient id="paint3_linear_38_192410" x1="91.3509" y1="173.983" x2="89.2937" y2="202.425" gradientUnits="userSpaceOnUse">
<stop offset="0.51" stop-color="#DFAB71"/>
<stop offset="0.68" stop-color="#E0AC73"/>
<stop offset="0.8" stop-color="#E3B37C"/>
<stop offset="0.9" stop-color="#EABD8B"/>
<stop offset="0.99" stop-color="#F3CCA0"/>
<stop offset="1" stop-color="#F5CFA4"/>
</linearGradient>
<linearGradient id="paint4_linear_38_192410" x1="80.5197" y1="207.951" x2="94.0934" y2="195.311" gradientUnits="userSpaceOnUse">
<stop stop-color="#C6884A"/>
<stop offset="0.32" stop-color="#C28345"/>
<stop offset="0.66" stop-color="#B87739"/>
<stop offset="1" stop-color="#A86326"/>
</linearGradient>
<linearGradient id="paint5_linear_38_192410" x1="113.272" y1="185.055" x2="91.8299" y2="108.428" gradientUnits="userSpaceOnUse">
<stop stop-color="#DEAA6F"/>
<stop offset="1" stop-color="#F5CFA4"/>
</linearGradient>
<linearGradient id="paint6_linear_38_192410" x1="97.7208" y1="155.901" x2="101.189" y2="183.853" gradientUnits="userSpaceOnUse">
<stop stop-color="#F5CFA4"/>
<stop offset="0.28" stop-color="#F5D1A8"/>
<stop offset="0.58" stop-color="#F8D8B5"/>
<stop offset="0.91" stop-color="#FDE4CC"/>
<stop offset="1" stop-color="#FFE9D4"/>
</linearGradient>
<linearGradient id="paint7_linear_38_192410" x1="108.969" y1="141.444" x2="66.7408" y2="141.444" gradientUnits="userSpaceOnUse">
<stop stop-color="#DEAA6F"/>
<stop offset="1" stop-color="#F5CFA4"/>
</linearGradient>
<linearGradient id="paint8_linear_38_192410" x1="126.364" y1="126.541" x2="84.4744" y2="126.541" gradientUnits="userSpaceOnUse">
<stop stop-color="#DEAA6F"/>
<stop offset="1" stop-color="#F5CFA4"/>
</linearGradient>
<linearGradient id="paint9_linear_38_192410" x1="167.115" y1="25.5137" x2="106.445" y2="84.2047" gradientUnits="userSpaceOnUse">
<stop stop-color="#F5CFA4"/>
<stop offset="0.08" stop-color="#EFC698"/>
<stop offset="0.31" stop-color="#DFB07B"/>
<stop offset="0.55" stop-color="#D4A166"/>
<stop offset="0.78" stop-color="#CE985A"/>
<stop offset="1" stop-color="#CC9556"/>
</linearGradient>
<linearGradient id="paint10_linear_38_192410" x1="163.39" y1="38.0887" x2="111.019" y2="80.9061" gradientUnits="userSpaceOnUse">
<stop stop-color="#FFE9D4"/>
<stop offset="0.09" stop-color="#FDE4CC"/>
<stop offset="0.42" stop-color="#F8D8B5"/>
<stop offset="0.72" stop-color="#F5D1A8"/>
<stop offset="1" stop-color="#F5CFA4"/>
</linearGradient>
<linearGradient id="paint11_linear_38_192410" x1="-18.6741" y1="68.8054" x2="63.8509" y2="86.665" gradientUnits="userSpaceOnUse">
<stop stop-color="#F5CFA4"/>
<stop offset="0.08" stop-color="#EFC698"/>
<stop offset="0.31" stop-color="#DFB07B"/>
<stop offset="0.55" stop-color="#D4A166"/>
<stop offset="0.78" stop-color="#CE985A"/>
<stop offset="1" stop-color="#CC9556"/>
</linearGradient>
<linearGradient id="paint12_linear_38_192410" x1="-8.93471" y1="77.5665" x2="58.154" y2="86.3266" gradientUnits="userSpaceOnUse">
<stop stop-color="#FFE9D4"/>
<stop offset="0.09" stop-color="#FDE4CC"/>
<stop offset="0.42" stop-color="#F8D8B5"/>
<stop offset="0.72" stop-color="#F5D1A8"/>
<stop offset="1" stop-color="#F5CFA4"/>
</linearGradient>
<linearGradient id="paint13_linear_38_192410" x1="87.3617" y1="130.169" x2="73.5031" y2="37.9476" gradientUnits="userSpaceOnUse">
<stop stop-color="#DEAA6F"/>
<stop offset="1" stop-color="#F5CFA4"/>
</linearGradient>
<linearGradient id="paint14_linear_38_192410" x1="89.6345" y1="131.645" x2="74.9586" y2="131.645" gradientUnits="userSpaceOnUse">
<stop stop-color="#A86326"/>
<stop offset="0.34" stop-color="#B87739"/>
<stop offset="0.68" stop-color="#C28345"/>
<stop offset="1" stop-color="#C6884A"/>
</linearGradient>
<clipPath id="clip0_38_192410">
<rect width="195" height="203.806" fill="white"/>
</clipPath>
</defs>
</svg>
