<svg width="270" height="326" viewBox="0 0 270 326" fill="none" xmlns="http://www.w3.org/2000/svg">
<g clip-path="url(#clip0_0_15230)">
<path d="M57.6371 252.868C51.8264 250.368 44.6727 252.63 40.4182 257.313C36.1636 261.992 34.5237 268.607 34.7831 274.93C35.009 280.437 36.5318 286.074 34.9797 291.359C33.4402 296.611 28.9221 300.692 23.7514 302.478C17.3675 304.685 9.92518 303.552 4.48673 299.546C-0.951721 295.541 -4.23572 288.771 -4.01818 282.022C-3.74625 273.638 -0.248909 265.471 -2.39501 257.363C-3.54127 253.036 -6.03041 248.678 -10.013 246.634C-13.9957 244.589 -17.6436 244.744 -22.0822 245.337C-27.7298 246.09 -33.2185 248.75 -36.8413 253.148C-40.46 257.547 -42.0079 263.744 -40.2885 269.176C-39.2008 272.605 -36.7326 275.591 -33.6243 277.359C-32.8671 277.79 -33.1013 276.686 -33.8125 276.18C-35.9502 274.666 -36.7911 272.785 -37.7366 270.201C-39.389 265.697 -38.5482 260.462 -35.9252 256.443C-33.3022 252.425 -29.0392 249.615 -24.4124 248.34C-20.6473 247.303 -16.4639 247.278 -12.9874 249.051C-8.42332 251.38 -5.78358 256.464 -5.11005 261.541C-4.43652 266.617 -5.3987 271.756 -6.49476 276.757C-11.4061 299.166 5.53677 314.93 28.2319 307.738C36.3017 305.183 41.3343 298.463 42.2714 290.054C42.8655 284.727 42.1626 277.326 42.9115 272.02C43.6603 266.709 47.4589 265.894 52.7969 265.384C54.5205 261.695 56.3821 256.74 57.6455 252.872L57.6371 252.868Z" fill="url(#paint0_linear_0_15230)"/>
<g style="mix-blend-mode:overlay" opacity="0.3">
<path d="M40.4145 257.313C38.1931 259.759 36.6829 262.732 35.7877 265.914C38.1137 270.673 39.0131 276.364 39.8623 281.553C40.5442 286.286 39.4356 291.225 37.1431 295.419C31.4202 305.086 19.4932 309.05 9.14763 305.722C-1.1938 302.394 -7.97515 291.53 -6.61135 280.625C-6.05077 276.686 -4.59075 272.538 -5.08858 268.615C-5.36887 271.35 -5.9169 274.076 -6.50258 276.765C-11.4139 299.174 5.52895 314.938 28.224 307.746C36.2939 305.191 41.3265 298.471 42.2636 290.062C42.8577 284.735 42.1549 277.334 42.9037 272.027C43.6525 266.717 47.4511 265.902 52.7891 265.391C54.5127 261.703 56.3743 256.748 57.6377 252.88C51.8269 250.38 44.6733 252.642 40.4187 257.325L40.4145 257.313Z" fill="black"/>
</g>
<path d="M95.8662 290.016C82.5713 295.001 67.3353 304.969 58.6923 319.048C53.5216 318.287 51.1956 318.229 45.7613 317.376C45.7613 301.411 46.2759 256.51 50.4342 249.313C69.6487 262.029 75.1792 279.872 95.8662 290.016Z" fill="url(#paint1_linear_0_15230)"/>
<path d="M58.8203 318.957C55.0803 319.977 43.4128 322.528 39.5013 322.98C35.6525 323.427 32.6823 323.619 30.3144 323.619C29.6116 323.619 28.9632 323.599 28.3566 323.565C26.2816 323.448 24.7421 323.143 23.4453 322.708C23.0269 322.57 22.6379 322.415 22.2614 322.248C21.751 322.026 21.2699 321.78 20.7888 321.516C24.5915 317.004 28.708 314.479 34.0251 313.835C39.3423 313.191 57.9585 317.569 58.8203 318.953V318.957Z" fill="url(#paint2_linear_0_15230)"/>
<path d="M33.7407 319.793C33.427 320.328 32.8831 320.73 32.4229 321.186C31.9753 321.633 31.5444 322.101 31.1428 322.578C30.8541 322.917 30.578 323.264 30.3145 323.619C29.6117 323.619 28.9632 323.598 28.3566 323.565C28.7917 322.904 29.2979 322.277 29.871 321.671C30.7328 320.763 31.808 319.622 33.1592 319.191C33.6194 319.045 33.9039 319.509 33.7407 319.793Z" fill="#985119"/>
<path d="M30.6023 316.674C28.6821 317.978 26.7745 319.237 25.1722 320.805C24.5489 321.411 23.9758 322.047 23.4486 322.708C23.0303 322.57 22.6412 322.415 22.2647 322.248C24.2309 319.726 26.9042 317.464 30.0877 316.134C30.5019 315.959 30.9914 316.41 30.6065 316.674H30.6023Z" fill="#985119"/>
<g style="mix-blend-mode:overlay" opacity="0.2">
<path d="M58.4563 318.664C46.8348 320.638 34.8493 320.939 23.6126 318.593C22.6462 319.454 21.7091 320.424 20.7888 321.516C21.2699 321.779 21.751 322.022 22.2614 322.247C22.6379 322.415 23.0269 322.565 23.4453 322.707C24.7421 323.142 26.2816 323.448 28.3566 323.565C28.959 323.598 29.6116 323.619 30.3144 323.619C32.6823 323.619 35.6525 323.427 39.5013 322.979C43.4128 322.528 55.0761 319.977 58.8203 318.957C58.7659 318.869 58.6446 318.773 58.4563 318.664Z" fill="black"/>
</g>
<g style="mix-blend-mode:overlay" opacity="0.2">
<path d="M58.2823 255.364C59.2152 260.771 60.4284 266.111 61.65 271.676C65.1222 288.335 63.2606 304.104 58.2698 318.986C58.4078 319.007 58.5501 319.028 58.6923 319.049C67.3311 304.969 82.5671 295.001 95.8662 290.016C78.2958 281.398 71.6567 267.231 58.2823 255.364Z" fill="black"/>
</g>
<path d="M126.562 316.188C147.985 286.111 148.266 271.852 150.203 259.253C134.172 270.568 114.915 279.115 97.9182 288.917C105.109 298.279 109.749 308.607 111.732 320.244C116.794 320.073 123.625 320.311 126.562 316.188Z" fill="url(#paint3_linear_0_15230)"/>
<path d="M111.662 320.383C115.402 321.403 127.069 323.954 130.981 324.405C134.83 324.853 137.8 325.045 140.168 325.045C140.871 325.045 141.519 325.024 142.126 324.991C144.201 324.874 145.74 324.569 147.037 324.134C147.455 323.996 147.844 323.841 148.221 323.674C148.731 323.452 149.212 323.205 149.693 322.942C145.891 318.43 141.774 315.904 136.457 315.261C131.14 314.617 112.524 318.995 111.662 320.379V320.383Z" fill="url(#paint4_linear_0_15230)"/>
<path d="M136.74 321.22C137.054 321.755 137.598 322.157 138.058 322.612C138.505 323.06 138.936 323.528 139.338 324.005C139.627 324.343 139.903 324.691 140.166 325.046C140.869 325.046 141.517 325.025 142.124 324.992C141.689 324.331 141.183 323.704 140.61 323.097C139.748 322.19 138.673 321.048 137.321 320.618C136.861 320.471 136.577 320.936 136.74 321.22Z" fill="#985119"/>
<path d="M139.882 318.1C141.802 319.405 143.71 320.663 145.312 322.231C145.936 322.838 146.509 323.473 147.036 324.134C147.454 323.996 147.843 323.841 148.22 323.674C146.254 321.152 143.58 318.89 140.397 317.561C139.983 317.389 139.493 317.837 139.878 318.1H139.882Z" fill="#985119"/>
<g style="mix-blend-mode:overlay" opacity="0.2">
<path d="M112.026 320.091C123.647 322.064 135.633 322.365 146.87 320.02C147.836 320.881 148.773 321.851 149.693 322.942C149.212 323.206 148.731 323.448 148.221 323.674C147.844 323.841 147.455 323.992 147.037 324.134C145.74 324.569 144.201 324.874 142.126 324.991C141.523 325.025 140.871 325.046 140.168 325.046C137.8 325.046 134.83 324.853 130.981 324.406C127.069 323.954 115.406 321.404 111.662 320.383C111.716 320.296 111.838 320.199 112.026 320.091Z" fill="black"/>
</g>
<g style="mix-blend-mode:overlay" opacity="0.2">
<path d="M134.345 293.909C124.569 296.443 113.721 298.007 103.108 297.56C103.308 297.581 103.509 297.606 103.71 297.627C107.224 303.832 109.734 310.455 111.223 317.572C116.223 307.926 126.15 300.382 134.341 293.909H134.345Z" fill="black"/>
</g>
<path d="M84.6748 293.834C66.1841 288.661 51.128 274.31 49.5383 255.289C48.7852 246.278 57.4365 235.351 64.0129 224.404C76.5423 203.543 88.0676 182.259 90.3225 181.255C107.441 173.628 143.402 169.827 149.995 187.26C156.437 204.287 154.032 251.266 146.878 275.31C139.214 301.055 111.428 301.319 84.6748 293.834Z" fill="url(#paint5_linear_0_15230)"/>
<path d="M90.5143 256.402C90.1838 258.108 89.9077 259.805 89.686 261.495C88.2804 272.358 95.0366 282.139 103.738 286.776C111.034 290.665 120.129 290.146 127.345 285.906C136.168 280.721 140.347 271.108 141.623 260.884C142.79 251.551 142.56 241.98 141.222 232.734C139.787 222.795 133.369 211.375 123.149 210.15C113.741 209.021 106.662 217.631 102.161 225.434C96.8522 234.633 92.5976 245.634 90.5101 256.402H90.5143Z" fill="url(#paint6_linear_0_15230)"/>
<g style="mix-blend-mode:overlay" opacity="0.3">
<path d="M139.407 263.305C138.876 261.072 138.34 258.839 137.809 256.611C136.839 260.198 135.868 263.786 134.897 267.37C133.881 262.929 132.86 258.484 131.844 254.043C130.329 258.731 128.815 263.414 127.3 268.101C126.618 262.766 125.937 257.426 125.259 252.09C122.904 256.623 120.548 261.16 118.193 265.693C117.942 260.629 117.218 255.599 116.047 250.702C113.114 257.886 110.186 265.074 107.253 272.258C107.366 263.318 106.613 254.386 105.015 245.647C102.564 249.285 100.112 252.927 97.6608 256.565C97.3846 253.897 97.4767 251.183 97.9285 248.528C96.5647 250.848 95.2009 253.169 93.8371 255.49C94.1174 250.844 95.2176 246.24 97.0625 241.992C96.5438 243.962 96.2175 245.772 95.7029 247.737C97.6482 244.911 99.5893 242.08 101.535 239.253C100.995 242.017 100.455 244.785 99.9156 247.549C102.07 243.129 105.12 239.195 108.789 236.104C109.19 243 109.592 249.895 109.993 256.79C112.968 250.087 115.942 243.38 118.917 236.677C119.23 243.903 119.548 251.133 119.862 258.358C121.665 251.258 124.167 244.346 127.313 237.777C128.208 244.405 128.451 251.15 128.041 257.861C129.898 252.237 131.756 246.608 133.613 240.984C134.178 246.721 134.738 252.458 135.303 258.195C136.035 254.102 137.328 250.108 139.131 246.391C139.796 252.095 139.729 257.543 139.407 263.305Z" fill="white"/>
</g>
<g style="mix-blend-mode:overlay" opacity="0.4">
<path d="M149.993 187.26C143.4 169.832 107.44 173.629 90.3211 181.256C88.1624 182.217 77.478 201.82 65.5552 221.825C73.1774 231.43 85.4474 237.192 97.7216 232.366C103.687 244.84 113.184 254.056 124.847 262.46C132.155 267.625 139.46 271.154 147.308 273.813C154.127 249.364 156.302 203.945 149.993 187.26Z" fill="black"/>
</g>
<g style="mix-blend-mode:overlay" opacity="0.2">
<path d="M104.329 217.459C104.546 217.584 104.768 217.706 104.99 217.831C105.019 217.819 105.048 217.802 105.073 217.789L104.329 217.459Z" fill="black"/>
</g>
<path d="M104.328 217.459C118.556 225.6 135.34 230.915 152.73 232.776C153.207 221.439 153.856 212.487 152.592 202.882C154.508 202.238 156.249 201.494 158.002 200.603L158.085 200.402C161.645 211.479 163.674 222.89 163.553 234.319C163.503 239.165 162.771 244.526 158.261 247.8C155.768 249.61 152.379 250.522 149.007 250.723C145.635 250.919 142.251 250.455 138.971 249.79C120.673 246.077 104.655 235.832 96.204 222.443C99.0529 220.984 102.224 219.248 105.069 217.789L104.324 217.459H104.328Z" fill="url(#paint7_linear_0_15230)"/>
<g style="mix-blend-mode:overlay" opacity="0.2">
<path d="M131.806 228.795C122.28 226.161 113.219 222.464 104.99 217.831C102.166 219.282 99.0285 220.996 96.2089 222.439C98.7315 226.441 101.936 230.154 105.672 233.503C114.654 233.599 123.715 232.199 131.806 228.791V228.795Z" fill="black"/>
</g>
<path d="M135.14 221.193C135.144 221.143 135.148 221.122 135.152 221.117C135.813 217.028 133.822 208.882 130.22 209.02C126.877 208.786 116.172 210.513 107.918 208.468C111.616 199.344 122.209 185.437 126.141 179.507C113.725 174.306 103.789 173.657 90.3435 174.293C83.8299 182.108 78.2158 190.676 73.66 199.775C71.903 203.279 70.3049 206.913 69.3929 210.739C68.255 215.506 67.3472 220.8 71.8695 224.032C74.6473 226.018 78.0192 227.193 81.2822 228.08C87.7163 229.823 94.5019 229.727 101.149 229.209C112.809 228.301 124.476 226.098 135.169 221.364C135.165 221.272 135.161 221.122 135.152 221.122C135.152 221.147 135.148 221.172 135.14 221.197V221.193Z" fill="url(#paint8_linear_0_15230)"/>
<g style="mix-blend-mode:overlay" opacity="0.3">
<path d="M160.82 210.593C159.896 204.267 160.067 206.575 158.084 200.399L158.001 200.6C156.386 201.415 154.788 202.113 153.047 202.72C152.449 196.447 151.445 191.091 149.998 187.256C145.697 175.883 128.892 173.549 112.979 175.419C105.829 174.001 98.7759 173.892 90.3463 174.29C86.5101 178.889 82.9918 183.752 79.8166 188.824C102.11 208.82 130.867 210.899 160.829 210.589L160.82 210.593Z" fill="black"/>
</g>
<path d="M97.7684 126.199C92.3215 136.18 85.3729 145.258 78.4535 154.282C75.9183 156.623 72.0361 158.175 67.6895 158.798C63.7153 159.366 59.3478 159.162 55.248 158.078C46.6678 155.804 39.2883 150 34.0339 142.845C28.7837 135.691 25.5206 127.248 23.362 118.643C17.9612 97.0871 19.4881 73.3111 30.4152 53.9591C31.9254 51.2871 33.649 48.6778 35.6069 46.286C39.1502 41.954 43.4591 38.3328 48.6424 36.334C55.0723 33.8544 62.3682 34.1179 68.9069 36.2964C75.4456 38.4708 81.2731 42.4558 86.2932 47.1725C99.0736 59.1734 106.909 76.2883 107.641 93.8004C108.114 105.199 103.211 116.217 97.7642 126.203L97.7684 126.199Z" fill="url(#paint9_linear_0_15230)"/>
<path d="M90.359 122.766C86.6776 131.099 81.7327 138.81 76.8089 146.479C74.9389 148.515 71.9435 150.017 68.5131 150.803C65.3756 151.522 61.8782 151.647 58.5315 151.058C51.5284 149.812 45.2491 145.672 40.5762 140.311C35.9075 134.951 32.7406 128.423 30.4398 121.695C24.6876 104.844 24.3236 85.7552 31.7576 69.5728C32.7825 67.3357 33.9873 65.1404 35.3929 63.0998C37.9323 59.4034 41.1326 56.2254 45.1403 54.2852C50.1102 51.8767 55.9545 51.6007 61.3176 52.9053C66.685 54.2058 71.6005 56.999 75.9261 60.432C86.9327 69.163 94.329 82.3055 96.0819 96.2424C97.2198 105.312 94.0404 114.436 90.3548 122.774L90.359 122.766Z" fill="url(#paint10_linear_0_15230)"/>
<g style="mix-blend-mode:overlay" opacity="0.8">
<path d="M92.4223 82.4478C88.971 76.2633 84.3357 70.7312 78.7801 66.3239C74.4545 62.8951 69.539 60.1018 64.1716 58.8014C58.8085 57.5009 52.9642 57.7727 47.9943 60.1813C43.9908 62.1215 40.7905 65.3036 38.247 68.9959C36.8413 71.0364 35.6407 73.2317 34.6157 75.4688C27.1818 91.6471 27.5457 110.74 33.298 127.591C33.8627 129.243 34.4777 130.882 35.1596 132.492C33.2519 129.063 31.7166 125.409 30.449 121.691C24.6968 104.84 24.3329 85.7512 31.7668 69.5729C32.7918 67.34 33.9966 65.1405 35.4022 63.0999C37.9415 59.4077 41.1419 56.2256 45.1496 54.2853C50.1195 51.8768 55.9637 51.605 61.3269 52.9054C66.6942 54.2059 71.6097 56.9991 75.9354 60.4322C83.202 66.1984 88.8957 73.884 92.4307 82.4519L92.4223 82.4478Z" fill="black"/>
</g>
<g style="mix-blend-mode:overlay" opacity="0.2">
<path d="M107.55 92.0272C105.111 77.4421 97.8443 63.6599 87.051 53.5197C82.0267 48.8072 76.1992 44.818 69.6605 42.6478C63.1218 40.4735 55.8301 40.2058 49.396 42.6855C44.2127 44.6801 39.9038 48.3054 36.3605 52.6333C34.3984 55.0251 32.6749 57.6343 31.1688 60.3063C22.8815 74.9792 19.9991 92.2028 21.4466 109.071C18.606 90.2292 21.0868 70.4799 30.42 53.9546C31.9302 51.2785 33.6538 48.6734 35.6116 46.2816C39.155 41.9495 43.4639 38.3283 48.6472 36.3296C55.0771 33.85 62.373 34.1176 68.9117 36.292C75.4504 38.4663 81.2779 42.4513 86.298 47.168C98.6475 58.7634 106.378 75.1339 107.55 92.023V92.0272Z" fill="white"/>
</g>
<g style="mix-blend-mode:overlay" opacity="0.2">
<path d="M107.645 93.8004C107.415 88.3393 106.499 82.9201 104.955 77.6807C94.8813 83.1166 87.4432 92.0274 79.1893 100.821C65.112 115.979 56.3227 132.479 52.0346 151.848C51.6832 153.454 51.382 155.068 51.1269 156.682C52.4655 157.234 53.8377 157.706 55.2433 158.078C59.3389 159.166 63.7064 159.37 67.6848 158.798C72.0356 158.175 75.9136 156.623 78.4488 154.282C85.3682 145.254 92.3169 136.18 97.7637 126.199C103.21 116.213 108.118 105.199 107.641 93.7962L107.645 93.8004Z" fill="black"/>
</g>
<path d="M174.613 132.81C173.973 144.163 175.09 155.536 176.211 166.852C177.132 170.176 179.608 173.542 182.976 176.36C186.055 178.94 189.87 181.065 193.928 182.302C202.416 184.891 211.754 183.849 219.987 180.542C228.224 177.23 235.449 171.773 241.82 165.601C257.78 150.138 269.021 129.126 269.945 106.927C270.075 103.861 269.983 100.734 269.581 97.6687C268.857 92.1198 267.105 86.7717 263.754 82.3435C259.6 76.849 253.257 73.2278 246.556 71.6304C239.854 70.0331 232.801 70.3467 226.044 71.7057C208.855 75.168 193.167 85.5799 183.306 100.073C176.889 109.511 175.245 121.453 174.609 132.81H174.613Z" fill="url(#paint11_linear_0_15230)"/>
<path d="M182.716 133.801C181.449 142.825 181.583 151.978 181.721 161.09C182.235 163.808 183.988 166.655 186.486 169.135C188.77 171.397 191.677 173.354 194.832 174.609C201.437 177.239 208.959 177.03 215.757 174.939C222.555 172.844 228.688 168.968 234.189 164.464C247.965 153.178 258.344 137.151 260.566 119.484C260.871 117.042 261.009 114.541 260.892 112.07C260.683 107.592 259.641 103.205 257.261 99.4461C254.307 94.7796 249.488 91.4678 244.242 89.745C238.996 88.0222 233.344 87.8048 227.86 88.4404C213.904 90.0586 200.684 97.3261 191.845 108.244C186.092 115.353 183.984 124.778 182.716 133.806V133.801Z" fill="url(#paint12_linear_0_15230)"/>
<g style="mix-blend-mode:overlay" opacity="0.8">
<path d="M234.195 164.464C232.597 165.773 230.945 167.032 229.234 168.207C242.922 156.929 253.221 140.96 255.43 123.373C255.736 120.935 255.874 118.43 255.757 115.955C255.547 111.476 254.506 107.09 252.125 103.331C249.172 98.6643 244.353 95.3526 239.111 93.6298C233.865 91.907 228.209 91.6896 222.728 92.3252C214.144 93.3204 205.84 96.4523 198.661 101.257C206.861 94.257 217.144 89.6783 227.866 88.4364C233.35 87.8008 239.002 88.0224 244.248 89.7452C249.49 91.468 254.313 94.7797 257.267 99.4463C259.647 103.205 260.689 107.596 260.898 112.07C261.015 114.546 260.877 117.046 260.572 119.488C258.35 137.155 247.971 153.183 234.195 164.469V164.464Z" fill="black"/>
</g>
<g style="mix-blend-mode:overlay" opacity="0.2">
<path d="M255.229 149.615C261.864 138.2 266.035 125.459 266.587 112.296C266.712 109.231 266.624 106.103 266.223 103.038C265.499 97.4889 263.746 92.1407 260.395 87.7125C256.237 82.2138 249.899 78.5968 243.197 76.9995C236.495 75.4022 229.442 75.7158 222.686 77.0789C206.107 80.4158 190.925 90.2214 181.023 103.92C181.709 102.599 182.471 101.315 183.316 100.073C193.176 85.5799 208.86 75.168 226.049 71.7057C232.806 70.3467 239.859 70.0331 246.561 71.6304C253.263 73.2278 259.6 76.849 263.759 82.3434C267.11 86.7717 268.863 92.1198 269.586 97.6687C269.992 100.734 270.08 103.861 269.95 106.927C269.314 122.189 263.801 136.895 255.233 149.615H255.229Z" fill="white"/>
</g>
<g style="mix-blend-mode:overlay" opacity="0.2">
<path d="M221.472 157.853C221.531 132.083 211.846 106.099 193.301 88.5283C189.548 91.9864 186.181 95.8543 183.311 100.078C176.894 109.515 175.249 121.458 174.614 132.815C173.973 144.167 175.09 155.541 176.212 166.856C177.132 170.181 179.609 173.547 182.976 176.365C186.055 178.945 189.871 181.069 193.928 182.307C201.634 184.657 210.039 184.013 217.686 181.399C219.836 173.81 221.384 166.053 221.48 157.849L221.472 157.853Z" fill="black"/>
</g>
<path d="M210.231 158.103C210.105 149.51 209.014 140.85 207.369 132.893C206.993 131.065 206.566 129.246 206.089 127.44C201.442 109.794 186.235 90.463 170.572 80.4358C170.417 80.3354 168.802 79.2859 168.769 79.3319C170.216 77.5004 171.082 75.2047 171.12 72.8673C169.371 74.4228 167.271 75.5852 165.021 76.2459C167.418 73.6868 169.183 70.5465 170.12 67.1679C168.116 68.7318 165.803 69.8942 163.351 70.5633C165.786 68.4223 167.857 65.8674 169.443 63.0449C163.172 66.365 154.926 72.6331 145.505 74.3977C142.016 75.05 138.443 75.1253 134.992 75.949C128.357 77.5296 121.526 80.1514 115.652 83.5803C104.114 90.3209 93.8606 100.365 85.6067 110.768C78.1602 120.148 71.04 130.605 67.5301 142.176C55.6241 181.381 100.449 201.331 131.327 207.553C158.633 213.056 201.308 212.647 208.47 178.183C208.478 178.137 208.491 178.091 208.499 178.045C209.821 171.697 210.331 164.923 210.231 158.107V158.103Z" fill="url(#paint13_linear_0_15230)"/>
<g style="mix-blend-mode:overlay" opacity="0.28">
<path d="M169.845 153.809C169.548 153.809 168.44 153.036 167.678 152.546C164.712 150.589 162.562 149.368 159.119 148.854C156.4 148.29 153.166 148.704 150.02 149.741C148.707 150.234 147.652 150.539 146.724 151.167C146.703 151.183 146.682 151.196 146.661 151.208C146.569 151.225 146.473 151.242 146.381 151.263C146.184 151.3 145.987 151.338 145.791 151.376C145.87 151.271 145.946 151.167 146.025 151.066C146.477 150.468 146.933 149.908 147.385 149.381C152.539 143.414 157.655 141.904 159.558 142.189C161.897 142.536 163.382 143.924 164.499 145.158C166.302 147.152 167.825 149.214 168.795 151.058C169.322 152.057 169.691 152.99 169.85 153.813L169.845 153.809Z" fill="black"/>
</g>
<path d="M170.686 153.291C170.585 153.65 170.213 153.926 169.837 153.855C169.539 153.855 168.423 153.153 167.653 152.713C164.666 150.953 162.499 149.849 159.052 149.352C156.332 148.82 153.107 149.134 149.978 149.995C148.673 150.409 147.627 150.66 146.711 151.196C146.69 151.208 146.669 151.221 146.648 151.229C146.556 151.271 146.46 151.283 146.367 151.271C146.229 151.254 146.104 151.187 146.008 151.091C145.87 150.953 145.794 150.752 145.857 150.539C145.945 150.205 146.309 150.1 146.577 149.945C146.828 149.837 147.087 149.732 147.342 149.632C150.379 148.427 153.63 147.679 156.897 147.616C159.064 147.637 161.244 148.001 163.302 148.678C165.201 149.398 167.004 150.355 168.74 151.409C169.263 151.727 169.786 152.057 170.297 152.387C170.305 152.396 170.313 152.4 170.322 152.408C170.619 152.58 170.774 152.956 170.682 153.282L170.686 153.291Z" fill="#B57C3A"/>
<path d="M114.239 106.512C114.339 103.832 118.431 101.812 123.38 101.996C128.329 102.18 132.253 104.509 132.152 107.189C132.052 109.87 128.065 109.088 123.12 108.9C118.176 108.712 114.139 109.192 114.243 106.512H114.239Z" fill="#985119"/>
<g style="mix-blend-mode:overlay" opacity="0.31">
<path d="M123.117 108.9C118.172 108.716 114.135 109.193 114.24 106.512C114.252 106.182 114.323 105.86 114.453 105.555C114.403 105.797 114.39 106.044 114.407 106.291C114.62 108.967 118.569 108.018 123.502 107.629C127.505 107.311 130.927 107.457 131.965 106.094C132.099 106.45 132.161 106.818 132.149 107.19C132.044 109.87 128.062 109.088 123.113 108.9H123.117Z" fill="black"/>
</g>
<path d="M208.275 128.661C209.576 126.316 207.12 122.469 202.79 120.068C198.46 117.668 193.896 117.626 192.595 119.972C191.294 122.318 195.109 123.711 199.439 126.111C203.769 128.511 206.974 131.007 208.275 128.661Z" fill="#985119"/>
<g style="mix-blend-mode:overlay" opacity="0.31">
<path d="M199.443 126.111C203.773 128.511 206.977 131.008 208.274 128.662C208.433 128.373 208.538 128.06 208.588 127.729C208.504 127.963 208.391 128.181 208.245 128.382C206.676 130.56 203.79 127.708 199.769 124.819C196.506 122.473 193.502 120.83 193.323 119.128C193.026 119.362 192.779 119.642 192.599 119.968C191.298 122.314 195.113 123.707 199.443 126.107V126.111Z" fill="black"/>
</g>
<path opacity="0.01" d="M172.639 176.944C171.539 185.09 178.998 192.821 189.297 194.21C199.597 195.598 205.738 189.129 206.839 180.984C207.939 172.838 203.58 166.097 193.28 164.709C182.981 163.321 173.739 168.799 172.639 176.944Z" fill="#DEA96F"/>
<path opacity="0.02" d="M172.898 176.99C171.814 185.036 179.177 192.671 189.347 194.038C199.517 195.41 205.604 189.029 206.687 180.984C207.771 172.939 203.449 166.277 193.275 164.906C183.105 163.534 173.977 168.945 172.893 176.99H172.898Z" fill="#DEA86F"/>
<path opacity="0.03" d="M173.153 177.041C172.082 184.986 179.352 192.521 189.397 193.876C199.441 195.231 205.47 188.938 206.541 180.993C207.612 173.048 203.324 166.466 193.279 165.111C183.235 163.757 174.228 169.1 173.157 177.041H173.153Z" fill="#DFA770"/>
<path opacity="0.04" d="M173.412 177.087C172.354 184.928 179.533 192.371 189.447 193.705C199.362 195.043 205.332 188.833 206.39 180.993C207.449 173.152 203.19 166.642 193.279 165.308C183.365 163.97 174.471 169.247 173.412 177.087Z" fill="#DFA670"/>
<path opacity="0.06" d="M173.671 177.137C172.626 184.877 179.712 192.22 189.497 193.541C199.282 194.858 205.198 188.741 206.244 181.001C207.289 173.261 203.064 166.83 193.279 165.513C183.494 164.195 174.713 169.397 173.671 177.137Z" fill="#DFA570"/>
<path opacity="0.07" d="M173.932 177.183C172.903 184.823 179.893 192.069 189.553 193.37C199.208 194.67 205.069 188.641 206.098 181.001C207.127 173.361 202.939 167.01 193.284 165.709C183.629 164.409 174.965 169.544 173.932 177.183Z" fill="#DFA470"/>
<path opacity="0.08" d="M174.191 177.229C173.174 184.764 180.073 191.919 189.603 193.202C199.132 194.486 204.931 188.54 205.951 181.005C206.968 173.47 202.814 167.193 193.288 165.91C183.758 164.626 175.212 169.694 174.195 177.229H174.191Z" fill="#E0A371"/>
<path opacity="0.09" d="M174.45 177.279C173.446 184.714 180.253 191.768 189.653 193.035C199.053 194.302 204.797 188.444 205.801 181.009C206.805 173.574 202.684 167.377 193.284 166.11C183.884 164.843 175.45 169.844 174.446 177.279H174.45Z" fill="#E0A271"/>
<path opacity="0.1" d="M174.706 177.325C173.714 184.659 180.428 191.617 189.703 192.868C198.974 194.118 204.663 188.347 205.65 181.013C206.642 173.679 202.555 167.561 193.284 166.311C184.014 165.061 175.693 169.995 174.706 177.325Z" fill="#E0A171"/>
<path opacity="0.11" d="M174.966 177.375C173.991 184.609 180.609 191.471 189.754 192.7C198.899 193.934 204.53 188.247 205.505 181.017C206.479 173.783 202.43 167.745 193.289 166.512C184.144 165.278 175.945 170.141 174.966 177.375Z" fill="#E0A071"/>
<path opacity="0.12" d="M175.225 177.421C174.263 184.55 180.789 191.316 189.804 192.533C198.82 193.75 204.392 188.151 205.354 181.021C206.316 173.892 202.3 167.929 193.289 166.712C184.274 165.495 176.187 170.291 175.225 177.421Z" fill="#E09F71"/>
<path opacity="0.13" d="M175.484 177.472C174.534 184.501 180.969 191.17 189.858 192.366C198.744 193.562 204.262 188.055 205.211 181.026C206.161 173.997 202.178 168.114 193.293 166.914C184.407 165.718 176.434 170.443 175.484 177.472Z" fill="#E19E72"/>
<path opacity="0.14" d="M175.743 177.518C174.81 184.446 181.148 191.016 189.908 192.199C198.664 193.378 204.127 187.955 205.06 181.03C205.993 174.101 202.048 168.298 193.292 167.114C184.536 165.935 176.675 170.593 175.743 177.518Z" fill="#E19D72"/>
<path opacity="0.16" d="M175.998 177.564C175.077 184.388 181.327 190.865 189.954 192.028C198.584 193.19 203.985 187.855 204.909 181.03C205.83 174.206 201.918 168.473 193.292 167.311C184.662 166.148 176.922 170.74 176.002 177.564H175.998Z" fill="#E19C72"/>
<path opacity="0.17" d="M176.257 177.614C175.349 184.338 181.507 190.719 190.008 191.864C198.509 193.01 203.855 187.762 204.763 181.038C205.671 174.315 201.793 168.661 193.292 167.515C184.791 166.37 177.165 170.89 176.257 177.614Z" fill="#E19B72"/>
<path opacity="0.18" d="M176.516 177.66C175.621 184.283 181.687 190.564 190.058 191.693C198.429 192.822 203.721 187.658 204.612 181.039C205.508 174.415 201.663 168.841 193.292 167.712C184.921 166.583 177.407 171.036 176.516 177.66Z" fill="#E29A73"/>
<path opacity="0.19" d="M176.776 177.71C175.898 184.229 181.868 190.417 190.109 191.53C198.355 192.642 203.584 187.566 204.467 181.043C205.345 174.524 201.538 169.025 193.297 167.913C185.051 166.8 177.659 171.187 176.776 177.706V177.71Z" fill="#E29973"/>
<path opacity="0.2" d="M177.036 177.756C176.17 184.175 182.047 190.267 190.163 191.358C198.279 192.454 203.454 187.465 204.32 181.043C205.186 174.624 201.412 169.205 193.301 168.109C185.185 167.014 177.906 171.333 177.04 177.752L177.036 177.756Z" fill="#E29873"/>
<path opacity="0.21" d="M177.295 177.806C176.441 184.124 182.227 190.116 190.213 191.195C198.199 192.27 203.32 187.369 204.173 181.051C205.027 174.732 201.287 169.393 193.301 168.314C185.314 167.239 178.148 171.487 177.295 177.802V177.806Z" fill="#E29773"/>
<path opacity="0.22" d="M177.549 177.852C176.713 184.065 182.402 189.965 190.259 191.023C198.115 192.081 203.181 187.268 204.018 181.051C204.855 174.837 201.152 169.572 193.296 168.514C185.439 167.456 178.386 171.634 177.549 177.852Z" fill="#E29673"/>
<path opacity="0.23" d="M177.81 177.902C176.986 184.016 182.584 189.82 190.31 190.861C198.041 191.902 203.045 187.177 203.873 181.059C204.697 174.946 201.028 169.761 193.302 168.72C185.571 167.679 178.639 171.789 177.81 177.902Z" fill="#E39574"/>
<path opacity="0.24" d="M178.069 177.949C177.258 183.962 182.763 189.665 190.365 190.69C197.966 191.714 202.915 187.073 203.726 181.06C204.538 175.047 200.903 169.941 193.301 168.916C185.7 167.892 178.881 171.936 178.069 177.949Z" fill="#E39474"/>
<path opacity="0.26" d="M178.329 177.994C177.53 183.907 182.943 189.514 190.415 190.522C197.886 191.53 202.781 186.976 203.576 181.064C204.375 175.151 200.773 170.125 193.301 169.117C185.83 168.109 179.124 172.086 178.325 177.994H178.329Z" fill="#E39374"/>
<path opacity="0.27" d="M178.587 178.044C177.805 183.853 183.122 189.364 190.464 190.355C197.81 191.346 202.642 186.88 203.428 181.068C204.21 175.26 200.646 170.304 193.304 169.318C185.958 168.327 179.369 172.236 178.587 178.044Z" fill="#E39274"/>
<path opacity="0.28" d="M178.848 178.09C178.078 183.798 183.303 189.213 190.52 190.187C197.736 191.162 202.514 186.78 203.283 181.072C204.053 175.364 200.522 170.488 193.306 169.518C186.09 168.544 179.618 172.383 178.848 178.09Z" fill="#E49175"/>
<path opacity="0.29" d="M179.103 178.14C178.346 183.748 183.479 189.067 190.566 190.02C197.653 190.973 202.376 186.683 203.133 181.076C203.89 175.468 200.393 170.672 193.306 169.719C186.219 168.765 179.86 172.533 179.103 178.14Z" fill="#E49075"/>
<path opacity="0.3" d="M179.363 178.186C178.618 183.689 183.659 188.912 190.616 189.853C197.573 190.789 202.242 186.587 202.982 181.08C203.727 175.577 200.263 170.856 193.306 169.919C186.349 168.983 180.103 172.683 179.363 178.186Z" fill="#E49075"/>
<path opacity="0.31" d="M179.621 178.236C178.893 183.639 183.838 188.765 190.669 189.685C197.501 190.605 202.107 186.486 202.834 181.084C203.562 175.681 200.136 171.04 193.309 170.12C186.477 169.2 180.349 172.834 179.621 178.236Z" fill="#E48F75"/>
<path opacity="0.32" d="M179.88 178.283C179.164 183.585 184.017 188.616 190.719 189.519C197.421 190.422 201.972 186.391 202.688 181.089C203.403 175.787 200.01 171.225 193.309 170.322C186.607 169.418 180.595 172.981 179.88 178.283Z" fill="#E48E75"/>
<path opacity="0.33" d="M180.139 178.328C179.436 183.526 184.197 188.46 190.769 189.347C197.341 190.233 201.839 186.29 202.537 181.088C203.24 175.891 199.881 171.404 193.309 170.517C186.736 169.631 180.838 173.127 180.135 178.328H180.139Z" fill="#E58D76"/>
<path opacity="0.34" d="M180.399 178.379C179.713 183.476 184.377 188.314 190.824 189.184C197.271 190.054 201.705 186.194 202.395 181.097C203.081 176 199.76 171.592 193.317 170.723C186.871 169.853 181.089 173.282 180.403 178.379H180.399Z" fill="#E58C76"/>
<path opacity="0.36" d="M180.654 178.425C179.981 183.422 184.553 188.164 190.87 189.013C197.187 189.866 201.567 186.094 202.241 181.097C202.914 176.1 199.626 171.772 193.309 170.919C186.992 170.066 181.328 173.428 180.65 178.425H180.654Z" fill="#E58B76"/>
<path opacity="0.37" d="M180.913 178.475C180.252 183.371 184.733 188.013 190.92 188.849C197.107 189.681 201.433 186.002 202.094 181.105C202.755 176.208 199.5 171.96 193.313 171.124C187.126 170.292 181.574 173.583 180.913 178.475Z" fill="#E58A76"/>
<path opacity="0.38" d="M181.172 178.521C180.524 183.313 184.912 187.863 190.974 188.678C197.032 189.493 201.299 185.897 201.947 181.105C202.596 176.313 199.374 172.14 193.317 171.321C187.259 170.505 181.821 173.725 181.172 178.521Z" fill="#E68977"/>
<path opacity="0.39" d="M181.432 178.571C180.801 183.263 185.093 187.712 191.025 188.514C196.957 189.313 201.166 185.805 201.797 181.113C202.429 176.422 199.246 172.324 193.313 171.525C187.381 170.726 182.06 173.879 181.428 178.571H181.432Z" fill="#E68877"/>
<path opacity="0.4" d="M181.692 178.617C181.072 183.208 185.273 187.561 191.075 188.343C196.877 189.125 201.031 185.705 201.651 181.113C202.27 176.522 199.12 172.504 193.317 171.722C187.515 170.94 182.311 174.026 181.692 178.617Z" fill="#E68777"/>
<path opacity="0.41" d="M181.947 178.663C181.34 183.15 185.448 187.411 191.125 188.176C196.798 188.941 200.898 185.604 201.5 181.117C202.107 176.631 198.99 172.687 193.317 171.922C187.644 171.157 182.553 174.176 181.947 178.663Z" fill="#E68677"/>
<path opacity="0.42" d="M182.206 178.714C181.617 183.1 185.629 187.261 191.176 188.009C196.723 188.758 200.76 185.509 201.354 181.122C201.944 176.736 198.865 172.872 193.322 172.124C187.775 171.375 182.801 174.327 182.211 178.714H182.206Z" fill="#E68577"/>
<path opacity="0.43" d="M182.466 178.76C181.888 183.046 185.808 187.11 191.226 187.842C196.643 188.574 200.626 185.413 201.203 181.127C201.781 176.841 198.735 173.056 193.318 172.325C187.9 171.593 183.039 174.474 182.462 178.76H182.466Z" fill="#E78478"/>
<path opacity="0.44" d="M182.724 178.81C182.16 182.991 185.988 186.964 191.28 187.675C196.567 188.385 200.496 185.312 201.06 181.131C201.625 176.949 198.613 173.24 193.325 172.525C188.037 171.814 183.293 174.624 182.729 178.81H182.724Z" fill="#E78378"/>
<path opacity="0.46" d="M182.984 178.856C182.431 182.937 186.171 186.809 191.33 187.507C196.488 188.201 200.357 185.216 200.91 181.135C201.462 177.053 198.483 173.424 193.325 172.726C188.167 172.031 183.536 174.775 182.984 178.856Z" fill="#E78278"/>
<path opacity="0.47" d="M183.244 178.905C182.708 182.886 186.352 186.662 191.381 187.339C196.413 188.017 200.224 185.119 200.76 181.138C201.295 177.158 198.354 173.607 193.322 172.93C188.289 172.253 183.775 174.929 183.24 178.91L183.244 178.905Z" fill="#E78178"/>
<path opacity="0.48" d="M183.499 178.951C182.976 182.828 186.527 186.507 191.43 187.172C196.333 187.833 200.09 185.019 200.613 181.142C201.136 177.266 198.228 173.791 193.325 173.131C188.422 172.47 184.026 175.079 183.499 178.955V178.951Z" fill="#E88079"/>
<path opacity="0.49" d="M183.758 178.997C183.247 182.773 186.707 186.357 191.48 187.001C196.254 187.645 199.956 184.919 200.462 181.143C200.973 177.367 198.098 173.971 193.325 173.327C188.552 172.683 184.268 175.222 183.758 179.002V178.997Z" fill="#E87F79"/>
<path opacity="0.5" d="M184.019 179.048C183.521 182.724 186.888 186.211 191.532 186.838C196.18 187.466 199.819 184.827 200.317 181.152C200.815 177.476 197.974 174.156 193.331 173.533C188.683 172.906 184.516 175.377 184.023 179.052L184.019 179.048Z" fill="#E87E79"/>
<path opacity="0.51" d="M184.277 179.093C183.796 182.669 187.067 186.056 191.585 186.666C196.103 187.277 199.689 184.722 200.17 181.151C200.651 177.575 197.848 174.335 193.33 173.729C188.812 173.118 184.758 175.522 184.277 179.098V179.093Z" fill="#E87D79"/>
<path opacity="0.52" d="M184.538 179.144C184.069 182.615 187.249 185.91 191.637 186.504C196.025 187.097 199.556 184.63 200.025 181.16C200.493 177.689 197.724 174.524 193.335 173.934C188.947 173.34 185.01 175.678 184.542 179.148L184.538 179.144Z" fill="#E87C79"/>
<path opacity="0.53" d="M184.797 179.19C184.341 182.56 187.428 185.759 191.687 186.332C195.946 186.905 199.418 184.53 199.874 181.16C200.33 177.789 197.594 174.703 193.335 174.131C189.076 173.558 185.253 175.824 184.797 179.194V179.19Z" fill="#E97B7A"/>
<path opacity="0.54" d="M185.051 179.24C184.611 182.51 187.602 185.609 191.736 186.165C195.869 186.721 199.283 184.43 199.722 181.164C200.161 177.894 197.463 174.887 193.33 174.331C189.196 173.775 185.49 175.97 185.051 179.24Z" fill="#E97A7A"/>
<path opacity="0.56" d="M185.311 179.286C184.885 182.452 187.784 185.458 191.787 185.997C195.791 186.537 199.15 184.333 199.577 181.168C200.004 178.002 197.339 175.071 193.335 174.532C189.332 173.992 185.738 176.121 185.311 179.29V179.286Z" fill="#E9797A"/>
<path opacity="0.57" d="M185.57 179.336C185.156 182.401 187.963 185.312 191.837 185.83C195.711 186.353 199.012 184.237 199.426 181.172C199.84 178.107 197.209 175.255 193.335 174.732C189.461 174.21 185.985 176.271 185.57 179.336Z" fill="#E9787A"/>
<path opacity="0.58" d="M185.829 179.382C185.427 182.347 188.142 185.157 191.891 185.663C195.639 186.169 198.881 184.136 199.283 181.176C199.684 178.211 197.087 175.439 193.338 174.933C189.59 174.427 186.231 176.422 185.829 179.386V179.382Z" fill="#EA777B"/>
<path opacity="0.59" d="M186.089 179.428C185.704 182.289 188.323 185.007 191.941 185.492C195.56 185.981 198.748 184.036 199.133 181.172C199.518 178.312 196.957 175.615 193.339 175.126C189.72 174.636 186.474 176.564 186.089 179.424V179.428Z" fill="#EA767B"/>
<path opacity="0.6" d="M186.344 179.478C185.971 182.238 188.498 184.856 191.987 185.328C195.476 185.801 198.609 183.944 198.982 181.18C199.354 178.42 196.827 175.803 193.338 175.33C189.849 174.858 186.716 176.714 186.344 179.478Z" fill="#EA757B"/>
<g style="mix-blend-mode:overlay" opacity="0.31">
<path d="M186.694 173.96C177.04 172.633 170.588 161.564 172.284 149.237C173.98 136.91 183.181 127.993 192.836 129.32C202.49 130.647 208.942 141.716 207.246 154.043C205.55 166.369 196.349 175.287 186.694 173.96Z" fill="black"/>
</g>
<path d="M185.626 171.561C176.961 170.365 171.164 160.503 172.679 149.534C174.194 138.565 182.447 130.641 191.112 131.837C199.777 133.033 205.574 142.894 204.059 153.864C202.544 164.833 194.291 172.757 185.626 171.561Z" fill="#C5D5D5"/>
<path d="M185.602 171.52C176.953 170.326 171.167 160.483 172.679 149.534C174.192 138.585 182.429 130.677 191.078 131.87C199.727 133.064 205.513 142.907 204.001 153.856C202.489 164.805 194.251 172.713 185.602 171.52Z" fill="#C6D6D6"/>
<path d="M185.58 171.47C176.947 170.279 171.172 160.456 172.681 149.53C174.19 138.604 182.412 130.712 191.045 131.904C199.678 133.095 205.453 142.918 203.944 153.844C202.435 164.77 194.213 172.661 185.58 171.47Z" fill="#C7D6D6"/>
<path d="M185.557 171.433C176.94 170.244 171.175 160.439 172.681 149.534C174.188 138.628 182.394 130.752 191.011 131.941C199.628 133.13 205.393 142.934 203.887 153.84C202.38 164.745 194.174 172.622 185.557 171.433Z" fill="#C8D7D7"/>
<path d="M185.529 171.387C176.931 170.201 171.179 160.415 172.682 149.53C174.185 138.645 182.375 130.783 190.973 131.97C199.572 133.156 205.324 142.942 203.821 153.827C202.318 164.712 194.128 172.574 185.529 171.387Z" fill="#C9D8D8"/>
<path d="M185.51 171.347C176.927 170.163 171.186 160.395 172.687 149.531C174.187 138.667 182.361 130.82 190.944 132.004C199.527 133.188 205.268 142.956 203.767 153.82C202.267 164.684 194.093 172.531 185.51 171.347Z" fill="#CAD8D8"/>
<path d="M185.486 171.306C176.92 170.124 171.189 160.375 172.687 149.531C174.184 138.687 182.343 130.855 190.91 132.037C199.477 133.219 205.207 142.968 203.71 153.812C202.212 164.655 194.053 172.488 185.486 171.306Z" fill="#CBD9D9"/>
<path d="M185.463 171.264C176.913 170.084 171.193 160.354 172.687 149.531C174.182 138.708 182.326 130.891 190.876 132.071C199.427 133.251 205.147 142.981 203.652 153.804C202.157 164.627 194.014 172.444 185.463 171.264Z" fill="#CCDADA"/>
<path d="M185.436 171.223C176.904 170.045 171.196 160.334 172.688 149.531C174.18 138.729 182.306 130.926 190.839 132.104C199.371 133.281 205.079 142.992 203.587 153.795C202.095 164.597 193.968 172.4 185.436 171.223Z" fill="#CDDBDB"/>
<path d="M185.414 171.178C176.897 170.003 171.201 160.312 172.689 149.532C174.178 138.753 182.289 130.967 190.805 132.142C199.322 133.317 205.019 143.008 203.53 153.788C202.041 164.567 193.93 172.353 185.414 171.178Z" fill="#CEDBDB"/>
<path d="M185.391 171.137C176.89 169.964 171.204 160.291 172.69 149.532C174.176 138.773 182.271 131.002 190.772 132.175C199.272 133.348 204.958 143.021 203.473 153.78C201.987 164.539 193.891 172.31 185.391 171.137Z" fill="#CFDCDC"/>
<path d="M185.367 171.095C176.883 169.925 171.207 160.271 172.69 149.532C174.173 138.794 182.253 131.038 190.738 132.208C199.222 133.379 204.898 143.033 203.415 153.772C201.932 164.51 193.851 172.266 185.367 171.095Z" fill="#CFDDDD"/>
<path d="M185.344 171.054C176.875 169.886 171.211 160.25 172.691 149.532C174.171 138.814 182.236 131.073 190.704 132.242C199.173 133.41 204.838 143.046 203.357 153.764C201.877 164.482 193.812 172.223 185.344 171.054Z" fill="#D0DDDD"/>
<path d="M185.315 171.013C176.864 169.847 171.212 160.23 172.69 149.532C174.167 138.835 182.215 131.109 190.665 132.275C199.115 133.441 204.767 143.058 203.29 153.755C201.812 164.452 193.765 172.179 185.315 171.013Z" fill="#D1DEDE"/>
<path d="M185.297 170.972C176.863 169.808 171.221 160.21 172.696 149.533C174.171 138.857 182.203 131.145 190.637 132.309C199.071 133.473 204.713 143.071 203.238 153.748C201.764 164.424 193.731 172.136 185.297 170.972Z" fill="#D2DFDF"/>
<path d="M185.274 170.931C176.856 169.769 171.225 160.189 172.697 149.533C174.168 138.877 182.186 131.181 190.604 132.342C199.022 133.504 204.653 143.084 203.181 153.74C201.709 164.396 193.692 172.093 185.274 170.931Z" fill="#D3DFDF"/>
<path d="M185.25 170.89C176.848 169.73 171.228 160.169 172.697 149.533C174.166 138.898 182.168 131.216 190.57 132.375C198.972 133.535 204.592 143.096 203.123 153.732C201.654 164.367 193.652 172.049 185.25 170.89Z" fill="#D4E0E0"/>
<path d="M185.228 170.84C176.842 169.683 171.232 160.142 172.698 149.529C174.164 138.917 182.15 131.252 190.536 132.409C198.922 133.566 204.532 143.107 203.066 153.72C201.601 164.332 193.614 171.997 185.228 170.84Z" fill="#D5E1E1"/>
<path d="M185.199 170.799C176.831 169.644 171.234 160.121 172.697 149.529C174.16 138.937 182.129 131.287 190.497 132.442C198.864 133.596 204.462 143.119 202.999 153.711C201.536 164.303 193.567 171.953 185.199 170.799Z" fill="#D6E1E1"/>
<path d="M185.176 170.757C176.824 169.605 171.237 160.101 172.697 149.529C174.158 138.958 182.111 131.322 190.463 132.475C198.815 133.627 204.401 143.131 202.941 153.703C201.481 164.274 193.527 171.91 185.176 170.757Z" fill="#D7E2E2"/>
<path d="M185.152 170.716C176.816 169.566 171.24 160.08 172.698 149.529C174.155 138.979 182.094 131.358 190.429 132.508C198.765 133.658 204.341 143.144 202.883 153.695C201.426 164.246 193.488 171.866 185.152 170.716Z" fill="#D8E3E3"/>
<path d="M185.131 170.675C176.811 169.527 171.246 160.06 172.7 149.53C174.155 138.999 182.078 131.394 190.398 132.542C198.717 133.689 204.282 143.157 202.828 153.687C201.374 164.217 193.45 171.823 185.131 170.675Z" fill="#D9E3E3"/>
<path d="M185.108 170.634C176.804 169.488 171.249 160.039 172.701 149.53C174.152 139.02 182.061 131.429 190.364 132.575C198.668 133.721 204.222 143.169 202.771 153.679C201.319 164.188 193.411 171.779 185.108 170.634Z" fill="#DAE4E4"/>
<path d="M185.082 170.593C176.797 169.45 171.255 160.02 172.704 149.531C174.152 139.042 182.043 131.465 190.328 132.609C198.614 133.752 204.156 143.182 202.707 153.671C201.258 164.16 193.367 171.736 185.082 170.593Z" fill="#DBE5E5"/>
<path d="M185.061 170.552C176.792 169.411 171.26 159.999 172.706 149.531C174.152 139.062 182.028 131.501 190.297 132.642C198.566 133.783 204.097 143.194 202.652 153.663C201.206 164.131 193.33 171.693 185.061 170.552Z" fill="#DCE6E6"/>
<path d="M185.037 170.506C176.783 169.367 171.262 159.976 172.705 149.531C174.148 139.085 182.008 131.54 190.261 132.679C198.514 133.818 204.035 143.209 202.592 153.655C201.15 164.1 193.29 171.645 185.037 170.506Z" fill="#DDE6E6"/>
<path d="M185.013 170.465C176.776 169.328 171.266 159.956 172.706 149.531C174.145 139.106 181.99 131.576 190.227 132.712C198.465 133.849 203.975 143.222 202.535 153.647C201.095 164.072 193.25 171.601 185.013 170.465Z" fill="#DEE7E7"/>
<path d="M184.99 170.424C176.768 169.29 171.269 159.936 172.706 149.532C174.143 139.127 181.972 131.612 190.193 132.747C198.415 133.881 203.914 143.235 202.477 153.64C201.04 164.044 193.211 171.559 184.99 170.424Z" fill="#DFE8E8"/>
<path d="M184.963 170.383C176.76 169.251 171.273 159.916 172.707 149.532C174.141 139.148 181.953 131.648 190.156 132.78C198.359 133.912 203.846 143.247 202.412 153.631C200.978 164.014 193.166 171.515 184.963 170.383Z" fill="#E0E8E8"/>
<path d="M184.94 170.341C176.753 169.212 171.276 159.895 172.708 149.532C174.139 139.169 181.936 131.683 190.123 132.813C198.31 133.943 203.786 143.259 202.355 153.623C200.923 163.986 193.126 171.471 184.94 170.341Z" fill="#E1E9E9"/>
<path d="M184.916 170.296C176.745 169.169 171.279 159.87 172.708 149.528C174.136 139.185 181.918 131.715 190.089 132.842C198.26 133.97 203.725 143.268 202.297 153.611C200.868 163.953 193.087 171.424 184.916 170.296Z" fill="#E2EAEA"/>
<path d="M184.893 170.255C176.738 169.13 171.283 159.85 172.708 149.528C174.134 139.206 181.901 131.75 190.055 132.876C198.21 134.001 203.665 143.281 202.24 153.603C200.814 163.925 193.047 171.38 184.893 170.255Z" fill="#E2EAEA"/>
<path d="M184.875 170.214C176.736 169.091 171.292 159.829 172.715 149.528C174.137 139.226 181.888 131.786 190.027 132.909C198.166 134.032 203.61 143.293 202.188 153.595C200.765 163.896 193.014 171.337 184.875 170.214Z" fill="#E3EBEB"/>
<path d="M184.847 170.169C176.727 169.048 171.295 159.807 172.714 149.529C174.134 139.25 181.868 131.826 189.988 132.947C198.108 134.067 203.541 143.308 202.121 153.587C200.701 163.865 192.968 171.289 184.847 170.169Z" fill="#E4ECEC"/>
<path d="M184.824 170.127C176.72 169.009 171.298 159.787 172.715 149.529C174.132 139.271 181.85 131.862 189.955 132.98C198.059 134.098 203.48 143.321 202.064 153.579C200.647 163.837 192.928 171.246 184.824 170.127Z" fill="#E5ECEC"/>
<path d="M184.8 170.086C176.712 168.97 171.301 159.766 172.715 149.529C174.129 139.292 181.832 131.897 189.921 133.013C198.009 134.129 203.42 143.333 202.006 153.571C200.592 163.808 192.889 171.202 184.8 170.086Z" fill="#E6EDED"/>
<path d="M184.777 170.045C176.705 168.931 171.305 159.746 172.716 149.529C174.127 139.312 181.815 131.933 189.887 133.047C197.959 134.16 203.36 143.346 201.948 153.563C200.537 163.779 192.85 171.159 184.777 170.045Z" fill="#E7EEEE"/>
<path d="M184.754 170.004C176.7 168.893 171.312 159.726 172.72 149.53C174.129 139.334 181.799 131.969 189.853 133.08C197.907 134.192 203.295 143.358 201.887 153.555C200.478 163.751 192.808 171.116 184.754 170.004Z" fill="#E8EEEE"/>
<path d="M184.727 169.962C176.689 168.853 171.312 159.705 172.717 149.529C174.123 139.354 181.778 132.004 189.816 133.113C197.854 134.222 203.231 143.37 201.825 153.546C200.42 163.721 192.765 171.071 184.727 169.962Z" fill="#E9EFEF"/>
<path d="M184.703 169.921C176.681 168.814 171.315 159.684 172.717 149.529C174.12 139.374 181.76 132.039 189.782 133.146C197.804 134.253 203.17 143.383 201.768 153.538C200.365 163.693 192.725 171.028 184.703 169.921Z" fill="#EAF0F0"/>
<path d="M184.68 169.88C176.674 168.776 171.318 159.665 172.718 149.53C174.118 139.396 181.742 132.076 189.748 133.18C197.754 134.285 203.11 143.396 201.71 153.531C200.311 163.665 192.686 170.985 184.68 169.88Z" fill="#EBF1F1"/>
<path d="M184.662 169.835C176.672 168.732 171.327 159.642 172.723 149.53C174.12 139.418 181.729 132.115 189.719 133.218C197.709 134.32 203.054 143.411 201.657 153.522C200.261 163.634 192.652 170.937 184.662 169.835Z" fill="#ECF1F1"/>
<path d="M184.638 169.794C176.666 168.694 171.334 159.622 172.728 149.531C174.121 139.44 181.713 132.151 189.685 133.251C197.657 134.351 202.989 143.424 201.596 153.514C200.202 163.605 192.61 170.894 184.638 169.794Z" fill="#EDF2F2"/>
<path d="M184.611 169.753C176.655 168.655 171.334 159.602 172.724 149.531C174.115 139.461 181.692 132.187 189.648 133.285C197.603 134.383 202.925 143.436 201.534 153.506C200.144 163.577 192.567 170.851 184.611 169.753Z" fill="#EEF3F3"/>
<path d="M184.587 169.712C176.648 168.616 171.337 159.581 172.725 149.531C174.113 139.481 181.674 132.223 189.614 133.318C197.553 134.414 202.865 143.449 201.477 153.499C200.089 163.548 192.527 170.807 184.587 169.712Z" fill="#EFF3F3"/>
<path d="M184.564 169.666C176.641 168.573 171.34 159.556 172.725 149.527C174.11 139.498 181.657 132.254 189.58 133.347C197.504 134.441 202.804 143.457 201.419 153.487C200.034 163.516 192.488 170.76 184.564 169.666Z" fill="#F0F4F4"/>
<path d="M184.54 169.625C176.633 168.534 171.343 159.536 172.725 149.527C174.108 139.519 181.639 132.29 189.546 133.381C197.454 134.472 202.744 143.47 201.361 153.479C199.979 163.487 192.448 170.716 184.54 169.625Z" fill="#F1F5F5"/>
<path d="M184.518 169.584C176.628 168.495 171.351 159.516 172.73 149.527C174.11 139.539 181.624 132.325 189.513 133.414C197.402 134.502 202.68 143.482 201.3 153.47C199.921 163.458 192.407 170.672 184.518 169.584Z" fill="#F2F5F5"/>
<path d="M184.49 169.542C176.617 168.456 171.351 159.495 172.727 149.527C174.104 139.56 181.602 132.361 189.476 133.447C197.349 134.533 202.615 143.494 201.239 153.462C199.862 163.429 192.364 170.629 184.49 169.542Z" fill="#F3F6F6"/>
<path d="M184.468 169.497C176.611 168.412 171.355 159.472 172.728 149.527C174.101 139.583 181.584 132.4 189.442 133.484C197.299 134.568 202.555 143.509 201.182 153.453C199.808 163.398 192.325 170.581 184.468 169.497Z" fill="#F4F7F7"/>
<path d="M184.449 169.456C176.607 168.374 171.362 159.452 172.733 149.528C174.103 139.604 181.571 132.436 189.412 133.518C197.253 134.6 202.499 143.523 201.128 153.446C199.757 163.37 192.29 170.538 184.449 169.456Z" fill="#F5F7F7"/>
<path d="M184.425 169.415C176.6 168.335 171.365 159.432 172.733 149.528C174.101 139.625 181.553 132.472 189.378 133.552C197.203 134.632 202.438 143.535 201.07 153.439C199.702 163.342 192.25 170.495 184.425 169.415Z" fill="#F5F8F8"/>
<path d="M184.402 169.373C176.595 168.296 171.373 159.411 172.738 149.528C174.103 139.646 181.538 132.507 189.345 133.585C197.152 134.662 202.374 143.547 201.009 153.43C199.644 163.312 192.209 170.451 184.402 169.373Z" fill="#F6F9F9"/>
<path d="M184.375 169.332C176.584 168.257 171.372 159.391 172.735 149.529C174.097 139.666 181.517 132.543 189.307 133.618C197.098 134.693 202.31 143.559 200.948 153.422C199.586 163.284 192.166 170.407 184.375 169.332Z" fill="#F7F9F9"/>
<path d="M184.351 169.291C176.576 168.218 171.375 159.37 172.735 149.529C174.094 139.687 181.499 132.578 189.273 133.651C197.048 134.724 202.249 143.572 200.89 153.414C199.531 163.255 192.126 170.364 184.351 169.291Z" fill="#F8FAFA"/>
<path d="M184.328 169.25C176.569 168.179 171.379 159.35 172.735 149.529C174.092 139.708 181.481 132.614 189.24 133.685C196.999 134.755 202.189 143.585 200.833 153.406C199.476 163.227 192.087 170.32 184.328 169.25Z" fill="#F9FBFB"/>
<path d="M184.304 169.208C176.562 168.14 171.382 159.329 172.736 149.529C174.089 139.728 181.463 132.649 189.206 133.718C196.949 134.786 202.128 143.597 200.775 153.398C199.421 163.198 192.047 170.277 184.304 169.208Z" fill="#FAFCFC"/>
<path d="M184.282 169.163C176.558 168.097 171.391 159.307 172.741 149.53C174.092 139.752 181.448 132.69 189.173 133.756C196.897 134.821 202.064 143.612 200.714 153.389C199.364 163.167 192.007 170.229 184.282 169.163Z" fill="#FBFCFC"/>
<path d="M184.255 169.122C176.546 168.058 171.39 159.287 172.737 149.53C174.085 139.773 181.426 132.725 189.135 133.789C196.843 134.853 202 143.624 200.652 153.381C199.305 163.138 191.963 170.186 184.255 169.122Z" fill="#FCFDFD"/>
<path d="M184.236 169.082C176.543 168.02 171.397 159.267 172.742 149.531C174.087 139.794 181.413 132.762 189.105 133.823C196.798 134.885 201.944 143.638 200.599 153.374C199.254 163.111 191.928 170.143 184.236 169.082Z" fill="#FDFEFE"/>
<path d="M184.212 169.04C176.536 167.981 171.401 159.246 172.743 149.531C174.085 139.815 181.395 132.797 189.072 133.856C196.748 134.916 201.883 143.651 200.541 153.366C199.2 163.082 191.889 170.1 184.212 169.04Z" fill="#FEFEFE"/>
<path d="M184.189 168.999C176.531 167.942 171.408 159.226 172.747 149.531C174.086 139.836 181.38 132.833 189.038 133.889C196.696 134.946 201.819 143.662 200.48 153.357C199.141 163.053 191.847 170.056 184.189 168.999Z" fill="white"/>
<path d="M180.472 167.074C175.665 166.437 172.492 160.459 173.385 153.721C174.279 146.984 178.9 142.038 183.708 142.675C188.515 143.312 191.688 149.29 190.795 156.028C189.902 162.765 185.28 167.711 180.472 167.074Z" fill="#472317"/>
<path d="M184.126 154.257C182.759 154.077 181.859 152.346 182.117 150.391C182.375 148.435 183.693 146.996 185.06 147.177C186.428 147.357 187.327 149.088 187.069 151.043C186.811 152.999 185.494 154.438 184.126 154.257Z" fill="white"/>
<path d="M175.589 159.68C175.748 158.392 176.61 157.431 177.509 157.535C178.413 157.64 179.011 158.764 178.852 160.057C178.693 161.344 177.831 162.306 176.932 162.202C176.028 162.097 175.43 160.968 175.589 159.68Z" fill="white"/>
<g style="mix-blend-mode:overlay" opacity="0.3">
<path d="M167.344 155.786C168.624 156.184 169.741 154.983 168.867 154.139C168.582 153.867 168.269 153.612 167.946 153.382C163.792 150.434 157.433 149.627 152.388 151.408C151.137 151.851 148.389 153.859 151.238 153.871C153.417 153.88 155.522 153.662 157.722 153.834C159.881 154.001 162.018 154.344 164.089 154.858C164.378 154.929 165.913 155.347 167.344 155.79V155.786Z" fill="white"/>
</g>
<g style="mix-blend-mode:overlay" opacity="0.2">
<path d="M160.345 85.7001C163.6 82.8985 166.223 79.3985 167.988 75.5139C165.01 76.5217 162.031 77.5294 159.057 78.5372C162.073 76.1621 164.872 73.5193 167.411 70.6592C164.441 72.3945 161.261 73.7953 157.956 74.824C160.889 72.4614 163.638 69.8814 166.173 67.1133C161.215 69.8522 156.061 72.6496 150.355 73.1305C153.007 73.6364 155.321 73.6197 157.802 72.6245C155.71 74.1633 153.618 75.6979 151.527 77.2367C154.459 77.2702 157.392 76.7266 160.09 75.6477C157.249 78.2194 154.413 80.791 151.573 83.3626C156.141 82.8943 160.571 81.3262 164.37 78.8382C163.361 81.4809 162.433 83.7849 160.345 85.7084V85.7001Z" fill="white"/>
</g>
<path opacity="0.01" d="M103.785 179.116C90.2133 175.369 80.9864 165.908 83.1762 157.983C85.366 150.058 98.1432 146.671 111.715 150.418C125.287 154.165 134.513 163.626 132.324 171.551C130.134 179.476 117.357 182.863 103.785 179.116Z" fill="#DEA96F"/>
<path opacity="0.02" d="M103.87 178.955C90.468 175.255 81.3559 165.912 83.518 158.088C85.6801 150.263 98.2976 146.92 111.7 150.62C125.102 154.32 134.215 163.662 132.052 171.487C129.89 179.311 117.273 182.655 103.87 178.955Z" fill="#DEA86F"/>
<path opacity="0.03" d="M103.954 178.799C90.7204 175.146 81.7236 165.921 83.8586 158.194C85.9936 150.467 98.452 147.165 111.685 150.819C124.918 154.472 133.915 163.697 131.78 171.424C129.645 179.15 117.187 182.452 103.954 178.799Z" fill="#DFA770"/>
<path opacity="0.04" d="M104.029 178.641C90.9653 175.035 82.0832 165.928 84.1906 158.302C86.298 150.676 98.5967 147.417 111.661 151.023C124.725 154.63 133.607 163.736 131.499 171.363C129.392 178.989 117.093 182.248 104.029 178.641Z" fill="#DFA670"/>
<path opacity="0.06" d="M104.114 178.484C91.2197 174.924 82.4529 165.936 84.5332 158.407C86.6135 150.879 98.7531 147.662 111.648 151.221C124.542 154.781 133.309 163.77 131.229 171.298C129.149 178.827 117.009 182.044 104.114 178.484Z" fill="#DFA570"/>
<path opacity="0.07" d="M104.198 178.327C91.4721 174.814 82.8206 165.943 84.8738 158.512C86.9271 151.082 98.9075 147.906 111.633 151.419C124.358 154.932 133.01 163.804 130.957 171.234C128.903 178.665 116.923 181.841 104.198 178.327Z" fill="#DFA470"/>
<path opacity="0.08" d="M104.279 178.172C91.7253 174.706 83.1903 165.954 85.2159 158.623C87.2414 151.293 99.0604 148.16 111.614 151.626C124.168 155.092 132.703 163.844 130.678 171.174C128.652 178.504 116.833 181.637 104.279 178.172Z" fill="#E0A371"/>
<path opacity="0.09" d="M104.362 178.019C91.9777 174.6 83.558 165.965 85.5565 158.733C87.555 151.5 99.2148 148.409 111.6 151.828C123.984 155.247 132.404 163.882 130.405 171.114C128.407 178.346 116.747 181.438 104.362 178.019Z" fill="#E0A271"/>
<path opacity="0.1" d="M104.447 177.858C92.2319 174.485 83.927 165.97 85.8978 158.838C87.8686 151.705 99.3688 148.657 111.584 152.03C123.8 155.402 132.104 163.918 130.134 171.05C128.163 178.182 116.663 181.23 104.447 177.858Z" fill="#E0A171"/>
<path opacity="0.11" d="M104.53 177.706C92.4843 174.38 84.2947 165.982 86.2384 158.948C88.1822 151.913 99.5232 148.907 111.569 152.232C123.616 155.558 131.805 163.956 129.861 170.991C127.918 178.025 116.577 181.031 104.53 177.706Z" fill="#E0A071"/>
<path opacity="0.12" d="M104.61 177.549C92.7328 174.27 84.6585 165.989 86.5752 159.053C88.4918 152.116 99.6737 149.151 111.551 152.43C123.428 155.709 131.502 163.99 129.585 170.926C127.669 177.863 116.487 180.828 104.61 177.549Z" fill="#E09F71"/>
<path opacity="0.13" d="M104.695 177.392C92.9875 174.16 85.0279 165.998 86.9169 159.162C88.8059 152.326 99.8282 149.404 111.536 152.636C123.243 155.868 131.203 164.03 129.314 170.866C127.425 177.702 116.403 180.624 104.695 177.392Z" fill="#E19E72"/>
<path opacity="0.14" d="M104.778 177.235C93.24 174.05 85.3957 166.005 87.2576 159.267C89.1195 152.529 99.9826 149.648 111.521 152.834C123.059 156.019 130.904 164.064 129.042 170.802C127.18 177.54 116.317 180.42 104.778 177.235Z" fill="#E19D72"/>
<path opacity="0.16" d="M104.86 177.075C93.4907 173.936 85.7612 166.011 87.5954 159.373C89.4297 152.735 100.133 149.898 111.502 153.037C122.871 156.175 130.601 164.101 128.767 170.739C126.932 177.377 116.229 180.214 104.86 177.075Z" fill="#E19C72"/>
<path opacity="0.17" d="M104.939 176.921C93.7393 173.829 86.125 166.021 87.9322 159.481C89.7394 152.941 100.284 150.146 111.484 153.237C122.683 156.329 130.298 164.138 128.491 170.678C126.683 177.218 116.139 180.013 104.939 176.921Z" fill="#E19B72"/>
<path opacity="0.18" d="M105.022 176.764C93.9917 173.719 86.4927 166.028 88.2728 159.586C90.0529 153.144 100.438 150.39 111.469 153.435C122.499 156.481 129.998 164.172 128.218 170.614C126.438 177.056 116.053 179.81 105.022 176.764Z" fill="#E29A73"/>
<path opacity="0.19" d="M105.107 176.603C94.2459 173.605 86.8617 166.033 88.6141 159.691C90.3665 153.349 100.592 150.639 111.453 153.637C122.315 156.636 129.699 164.208 127.947 170.55C126.194 176.892 115.969 179.602 105.107 176.603Z" fill="#E29973"/>
<path opacity="0.2" d="M105.187 176.452C94.4944 173.5 87.2255 166.045 88.9508 159.801C90.6762 153.557 100.743 150.888 111.435 153.84C122.127 156.792 129.396 164.246 127.67 170.49C125.945 176.734 115.879 179.403 105.187 176.452Z" fill="#E29873"/>
<path opacity="0.21" d="M105.272 176.294C94.7491 173.389 87.5949 166.054 89.2926 159.91C90.9903 153.766 100.897 151.141 111.42 154.046C121.943 156.951 129.097 164.286 127.399 170.43C125.702 176.574 115.795 179.2 105.272 176.294Z" fill="#E29773"/>
<path opacity="0.22" d="M105.355 176.138C95.0015 173.279 87.9626 166.061 89.6332 160.015C91.3039 153.969 101.051 151.385 111.405 154.244C121.759 157.102 128.798 164.32 127.127 170.366C125.456 176.412 115.709 178.996 105.355 176.138Z" fill="#E29673"/>
<path opacity="0.23" d="M105.435 175.982C95.2504 173.17 88.3262 166.071 89.9691 160.125C91.6121 154.179 101.2 151.639 111.384 154.45C121.569 157.262 128.493 164.361 126.85 170.307C125.207 176.252 115.619 178.793 105.435 175.982Z" fill="#E39574"/>
<path opacity="0.24" d="M105.52 175.825C95.5047 173.06 88.6959 166.078 90.3117 160.23C91.9276 154.382 101.356 151.883 111.371 154.648C121.387 157.413 128.195 164.395 126.58 170.243C124.964 176.09 115.535 178.59 105.52 175.825Z" fill="#E39474"/>
<path opacity="0.26" d="M105.603 175.672C95.7572 172.954 89.0636 166.089 90.6524 160.339C92.2412 154.589 101.511 152.132 111.357 154.85C121.202 157.568 127.896 164.433 126.307 170.183C124.718 175.932 115.449 178.39 105.603 175.672Z" fill="#E39374"/>
<path opacity="0.27" d="M105.688 175.511C96.0119 172.84 89.433 166.094 90.9942 160.444C92.5553 154.795 101.665 152.38 111.342 155.052C121.018 157.723 127.597 164.469 126.036 170.118C124.475 175.768 115.365 178.182 105.688 175.511Z" fill="#E39274"/>
<path opacity="0.28" d="M105.767 175.355C96.2599 172.73 89.7963 166.102 91.3304 160.55C92.8645 154.999 101.815 152.626 111.323 155.251C120.83 157.875 127.293 164.503 125.759 170.055C124.225 175.607 115.275 177.98 105.767 175.355Z" fill="#E49175"/>
<path opacity="0.29" d="M105.851 175.198C96.5126 172.62 90.1638 166.111 91.6702 160.659C93.1766 155.208 101.968 152.878 111.306 155.456C120.644 158.034 126.993 164.543 125.486 169.995C123.98 175.447 115.189 177.776 105.851 175.198Z" fill="#E49075"/>
<path opacity="0.3" d="M105.932 175.04C96.7631 172.509 90.5296 166.117 92.0089 160.763C93.4882 155.41 102.12 153.122 111.289 155.653C120.458 158.184 126.691 164.576 125.212 169.93C123.733 175.284 115.101 177.571 105.932 175.04Z" fill="#E49075"/>
<path opacity="0.31" d="M106.011 174.883C97.0117 172.399 90.8934 166.124 92.3457 160.869C93.7979 155.613 102.271 153.367 111.27 155.851C120.27 158.336 126.388 164.61 124.936 169.866C123.484 175.121 115.011 177.368 106.011 174.883Z" fill="#E48F75"/>
<path opacity="0.32" d="M106.095 174.727C97.2644 172.29 91.2609 166.134 92.6855 160.979C94.1101 155.823 102.423 153.62 111.254 156.058C120.084 158.495 126.087 164.651 124.663 169.807C123.238 174.962 114.925 177.165 106.095 174.727Z" fill="#E48E75"/>
<path opacity="0.33" d="M106.18 174.574C97.5188 172.183 91.6305 166.145 93.0281 161.088C94.4256 156.03 102.58 153.868 111.241 156.259C119.902 158.651 125.79 164.689 124.392 169.746C122.995 174.804 114.841 176.966 106.18 174.574Z" fill="#E58D76"/>
<path opacity="0.34" d="M106.263 174.417C97.7715 172.073 91.998 166.154 93.3679 161.197C94.7377 156.239 102.732 154.121 111.224 156.465C119.716 158.81 125.489 164.729 124.119 169.686C122.749 174.643 114.755 176.762 106.263 174.417Z" fill="#E58C76"/>
<path opacity="0.36" d="M106.344 174.262C98.022 171.964 92.3638 166.162 93.7066 161.303C95.0493 156.443 102.885 154.366 111.207 156.664C119.53 158.962 125.188 164.764 123.845 169.623C122.502 174.482 114.667 176.559 106.344 174.262Z" fill="#E58B76"/>
<path opacity="0.37" d="M106.427 174.105C98.2739 171.854 92.731 166.169 94.0467 161.408C95.3624 156.646 103.039 154.611 111.192 156.862C119.345 159.113 124.888 164.797 123.572 169.559C122.257 174.32 114.58 176.356 106.427 174.105Z" fill="#E58A76"/>
<path opacity="0.38" d="M106.511 173.948C98.5266 171.744 93.0985 166.178 94.3865 161.517C95.6746 156.855 103.191 154.863 111.175 157.068C119.159 159.272 124.587 164.837 123.299 169.499C122.011 174.16 114.495 176.152 106.511 173.948Z" fill="#E68977"/>
<path opacity="0.39" d="M106.592 173.791C98.7771 171.634 93.4642 166.185 94.7252 161.622C95.9862 157.059 103.344 155.108 111.158 157.266C118.973 159.423 124.286 164.871 123.025 169.435C121.764 173.998 114.407 175.948 106.592 173.791Z" fill="#E68877"/>
<path opacity="0.4" d="M106.677 173.631C99.0318 171.52 93.8337 166.191 95.067 161.728C96.3003 157.265 103.498 155.358 111.143 157.468C118.789 159.579 123.987 164.908 122.754 169.371C121.52 173.835 114.323 175.742 106.677 173.631Z" fill="#E68777"/>
<path opacity="0.41" d="M106.76 173.478C99.2843 171.414 94.2014 166.202 95.4076 161.837C96.6139 157.472 103.652 155.606 111.129 157.67C118.605 159.734 123.688 164.946 122.481 169.311C121.275 173.676 114.237 175.542 106.76 173.478Z" fill="#E68677"/>
<path opacity="0.42" d="M106.836 173.32C99.5289 171.303 94.5613 166.208 95.7405 161.941C96.9196 157.674 103.799 155.85 111.106 157.867C118.413 159.884 123.381 164.979 122.201 169.246C121.022 173.513 114.143 175.338 106.836 173.32Z" fill="#E68577"/>
<path opacity="0.43" d="M106.921 173.159C99.7836 171.189 94.9307 166.213 96.0822 162.046C97.2337 157.879 103.953 156.098 111.091 158.069C118.229 160.039 123.082 165.015 121.93 169.182C120.779 173.349 114.059 175.13 106.921 173.159Z" fill="#E78478"/>
<path opacity="0.44" d="M96.4264 162.163C95.3011 166.232 100.041 171.091 107.006 173.014C113.976 174.938 120.536 173.198 121.661 169.13C122.786 165.061 118.046 160.202 111.081 158.279C104.111 156.355 97.5518 158.095 96.4264 162.163Z" fill="#E78378"/>
<path opacity="0.46" d="M107.089 172.846C100.29 170.969 95.6674 166.23 96.7641 162.261C97.8609 158.292 104.262 156.596 111.061 158.473C117.86 160.35 122.483 165.09 121.386 169.059C120.29 173.028 113.889 174.724 107.089 172.846Z" fill="#E78278"/>
<path opacity="0.47" d="M107.167 172.697C100.537 170.867 96.0293 166.245 97.0989 162.374C98.1686 158.503 104.41 156.849 111.04 158.679C117.67 160.509 122.178 165.131 121.108 169.002C120.038 172.873 113.797 174.528 107.167 172.697Z" fill="#E78178"/>
<path opacity="0.48" d="M107.252 172.542C100.791 170.758 96.3989 166.253 97.4415 162.48C98.4841 158.707 104.567 157.094 111.027 158.878C117.488 160.662 121.88 165.166 120.838 168.939C119.795 172.712 113.713 174.325 107.252 172.542Z" fill="#E88079"/>
<path opacity="0.49" d="M107.337 172.381C101.046 170.644 96.7684 166.258 97.7833 162.585C98.7982 158.912 104.721 157.343 111.013 159.08C117.304 160.817 121.582 165.202 120.567 168.875C119.552 172.548 113.629 174.118 107.337 172.381Z" fill="#E87F79"/>
<path opacity="0.5" d="M107.415 172.228C101.292 170.538 97.1302 166.269 98.1181 162.694C99.1059 159.119 104.87 157.591 110.992 159.282C117.114 160.972 121.276 165.24 120.288 168.815C119.301 172.39 113.537 173.918 107.415 172.228Z" fill="#E87E79"/>
<path opacity="0.51" d="M107.5 172.067C101.547 170.423 97.4997 166.274 98.4599 162.799C99.42 159.325 105.024 157.84 110.977 159.483C116.93 161.127 120.977 165.276 120.017 168.751C119.057 172.226 113.453 173.71 107.5 172.067Z" fill="#E87D79"/>
<path opacity="0.52" d="M107.585 171.911C101.801 170.314 97.8693 166.282 98.8024 162.905C99.7356 159.529 105.181 158.085 110.964 159.682C116.748 161.279 120.68 165.311 119.747 168.688C118.814 172.065 113.369 173.508 107.585 171.911Z" fill="#E87C79"/>
<path opacity="0.53" d="M107.668 171.758C102.054 170.208 98.237 166.293 99.1431 163.015C100.049 159.736 105.335 158.334 110.949 159.884C116.564 161.434 120.381 165.349 119.475 168.627C118.569 171.906 113.283 173.308 107.668 171.758Z" fill="#E97B7A"/>
<path opacity="0.54" d="M107.743 171.596C102.298 170.093 98.5962 166.297 99.4746 163.119C100.353 159.94 105.479 158.582 110.924 160.085C116.37 161.588 120.072 165.384 119.193 168.562C118.315 171.741 113.189 173.099 107.743 171.596Z" fill="#E97A7A"/>
<path opacity="0.56" d="M99.8235 163.234C98.9743 166.316 102.559 169.992 107.835 171.447C113.11 172.902 118.076 171.585 118.929 168.507C119.778 165.425 116.193 161.75 110.918 160.295C105.643 158.84 100.677 160.157 99.8235 163.234Z" fill="#E9797A"/>
<path opacity="0.57" d="M107.912 171.283C102.805 169.873 99.3334 166.314 100.157 163.334C100.981 160.353 105.788 159.08 110.895 160.489C116.001 161.899 119.473 165.458 118.65 168.439C117.826 171.42 113.019 172.693 107.912 171.283Z" fill="#E9787A"/>
<path opacity="0.58" d="M100.501 163.447C99.706 166.328 103.061 169.77 107.998 171.133C112.934 172.496 117.582 171.263 118.377 168.381C119.171 165.5 115.816 162.059 110.88 160.696C105.943 159.333 101.296 160.566 100.501 163.447Z" fill="#EA777B"/>
<path opacity="0.59" d="M100.843 163.555C100.073 166.34 103.316 169.66 108.085 170.978C112.854 172.295 117.338 171.103 118.108 168.318C118.878 165.533 115.636 162.213 110.867 160.896C106.098 159.579 101.613 160.77 100.843 163.555Z" fill="#EA767B"/>
<path opacity="0.6" d="M108.16 170.817C103.561 169.547 100.434 166.341 101.176 163.657C101.918 160.972 106.247 159.825 110.846 161.095C115.445 162.364 118.572 165.57 117.83 168.254C117.088 170.939 112.759 172.086 108.16 170.817Z" fill="#EA757B"/>
<path d="M91.3879 157.962C85.6943 155.173 79.4108 153.839 73.0771 154.178C72.3575 154.215 72.3826 155.286 73.1022 155.294C79.164 155.374 85.1714 156.699 90.6768 159.246C91.5302 159.639 92.2455 158.38 91.3921 157.962H91.3879Z" fill="#985119"/>
<path d="M101.115 157.832C91.8656 150.928 80.5202 147.424 69.3002 145.308C65.9953 144.685 62.6653 144.238 59.3269 143.832C58.7496 143.761 58.4986 144.618 59.101 144.736C70.3126 146.889 81.5158 149.339 91.8572 154.32C94.7438 155.708 97.5132 157.33 100.174 159.116C100.919 159.617 101.847 158.384 101.115 157.836V157.832Z" fill="#985119"/>
<g style="mix-blend-mode:overlay" opacity="0.31">
<path d="M114.621 163.127C103.554 161.151 96.357 149.619 98.5465 137.37C100.736 125.121 111.483 116.793 122.55 118.77C133.617 120.746 140.814 132.278 138.625 144.527C136.435 156.776 125.689 165.104 114.621 163.127Z" fill="black"/>
</g>
<path d="M116.613 161.169C106.678 159.395 100.204 149.12 102.152 138.219C104.101 127.318 113.734 119.92 123.669 121.694C133.604 123.468 140.078 133.743 138.129 144.644C136.181 155.545 126.547 162.943 116.613 161.169Z" fill="#C5D5D5"/>
<path d="M116.651 161.137C106.737 159.366 100.277 149.111 102.221 138.23C104.166 127.35 113.78 119.965 123.694 121.736C133.608 123.506 140.069 133.762 138.124 144.642C136.179 155.523 126.565 162.908 116.651 161.137Z" fill="#C6D6D6"/>
<path d="M116.69 161.106C106.794 159.339 100.345 149.102 102.286 138.242C104.227 127.382 113.823 120.011 123.719 121.779C133.615 123.546 140.064 133.782 138.123 144.642C136.182 155.502 126.586 162.873 116.69 161.106Z" fill="#C7D6D6"/>
<path d="M116.728 161.075C106.85 159.311 100.413 149.094 102.351 138.254C104.288 127.415 113.867 120.058 123.744 121.822C133.622 123.586 140.059 133.803 138.122 144.642C136.184 155.482 126.606 162.839 116.728 161.075Z" fill="#C8D7D7"/>
<path d="M116.772 161.039C106.915 159.279 100.491 149.083 102.425 138.266C104.358 127.449 113.916 120.108 123.774 121.868C133.631 123.629 140.055 133.824 138.121 144.641C136.188 155.458 126.629 162.799 116.772 161.039Z" fill="#C9D8D8"/>
<path d="M116.81 161.008C106.971 159.251 100.559 149.074 102.489 138.278C104.419 127.482 113.96 120.154 123.799 121.911C133.638 123.668 140.05 133.845 138.12 144.641C136.19 155.437 126.65 162.765 116.81 161.008Z" fill="#CAD8D8"/>
<path d="M116.851 160.977C107.03 159.223 100.63 149.066 102.556 138.29C104.482 127.514 114.005 120.2 123.826 121.954C133.647 123.708 140.047 133.865 138.121 144.641C136.195 155.417 126.672 162.731 116.851 160.977Z" fill="#CBD9D9"/>
<path d="M116.893 160.946C107.093 159.195 100.706 149.058 102.629 138.302C104.551 127.547 114.055 120.247 123.855 121.997C133.656 123.747 140.042 133.885 138.12 144.64C136.197 155.396 126.694 162.696 116.893 160.946Z" fill="#CCDADA"/>
<path d="M116.932 160.911C107.149 159.164 100.775 149.045 102.694 138.31C104.612 127.575 114.098 120.289 123.88 122.036C133.663 123.783 140.037 133.902 138.118 144.636C136.2 155.371 126.714 162.658 116.932 160.911Z" fill="#CDDBDB"/>
<path d="M116.97 160.879C107.206 159.136 100.843 149.036 102.758 138.322C104.673 127.607 114.141 120.335 123.905 122.079C133.67 123.823 140.032 133.922 138.117 144.637C136.202 155.351 126.734 162.623 116.97 160.879Z" fill="#CEDBDB"/>
<path d="M117.012 160.848C107.268 159.108 100.919 149.028 102.831 138.334C104.742 127.64 114.191 120.382 123.934 122.122C133.678 123.862 140.027 133.942 138.116 144.636C136.204 155.33 126.756 162.588 117.012 160.848Z" fill="#CFDCDC"/>
<path d="M117.052 160.809C107.326 159.072 100.989 149.013 102.896 138.342C104.804 127.671 114.234 120.428 123.959 122.165C133.685 123.902 140.023 133.96 138.115 144.632C136.208 155.303 126.777 162.546 117.052 160.809Z" fill="#CFDDDD"/>
<path d="M117.09 160.782C107.383 159.048 101.057 149.009 102.961 138.358C104.865 127.707 114.277 120.478 123.985 122.212C133.692 123.945 140.018 133.985 138.114 144.636C136.21 155.286 126.797 162.515 117.09 160.782Z" fill="#D0DDDD"/>
<path d="M117.132 160.75C107.443 159.019 101.129 148.999 103.029 138.369C104.93 127.738 114.325 120.523 124.014 122.254C133.703 123.984 140.017 134.004 138.117 144.635C136.216 155.265 126.821 162.48 117.132 160.75Z" fill="#D1DEDE"/>
<path d="M117.173 160.719C107.504 158.992 101.204 148.992 103.1 138.382C104.997 127.772 114.372 120.571 124.041 122.297C133.709 124.024 140.01 134.025 138.113 144.635C136.217 155.245 126.842 162.446 117.173 160.719Z" fill="#D2DFDF"/>
<path d="M117.211 160.683C107.561 158.96 101.272 148.978 103.165 138.389C105.058 127.799 114.416 120.612 124.066 122.336C133.716 124.059 140.005 134.04 138.112 144.63C136.219 155.219 126.862 162.407 117.211 160.683Z" fill="#D3DFDF"/>
<path d="M117.254 160.652C107.621 158.932 101.345 148.97 103.234 138.401C105.123 127.832 114.463 120.658 124.095 122.379C133.727 124.099 140.004 134.061 138.115 144.63C136.226 155.199 126.886 162.372 117.254 160.652Z" fill="#D4E0E0"/>
<path d="M117.292 160.621C107.681 158.904 101.417 148.961 103.303 138.413C105.188 127.864 114.509 120.705 124.12 122.421C133.732 124.138 139.995 134.081 138.11 144.629C136.224 155.177 126.904 162.337 117.292 160.621Z" fill="#D5E1E1"/>
<path d="M117.327 160.589C107.733 158.875 101.482 148.952 103.364 138.424C105.245 127.896 114.548 120.75 124.142 122.463C133.735 124.177 139.987 134.1 138.105 144.628C136.223 155.156 126.92 162.302 117.327 160.589Z" fill="#D6E1E1"/>
<path d="M117.37 160.549C107.795 158.839 101.555 148.937 103.433 138.432C105.311 127.926 114.595 120.796 124.171 122.506C133.746 124.216 139.986 134.119 138.108 144.624C136.23 155.129 126.946 162.259 117.37 160.549Z" fill="#D7E2E2"/>
<path d="M117.409 160.518C107.854 158.812 101.628 148.929 103.502 138.444C105.376 127.959 114.641 120.843 124.196 122.549C133.751 124.255 139.977 134.138 138.103 144.623C136.229 155.108 126.964 162.224 117.409 160.518Z" fill="#D8E3E3"/>
<path d="M117.449 160.487C107.913 158.784 101.698 148.92 103.569 138.456C105.439 127.991 114.686 120.889 124.223 122.592C133.76 124.295 139.974 134.159 138.104 144.623C136.233 155.088 126.986 162.19 117.449 160.487Z" fill="#D9E3E3"/>
<path d="M117.492 160.456C107.973 158.756 101.77 148.911 103.637 138.468C105.504 128.024 114.734 120.935 124.252 122.635C133.771 124.335 139.973 134.179 138.107 144.623C136.24 155.067 127.01 162.156 117.492 160.456Z" fill="#DAE4E4"/>
<path d="M117.53 160.424C108.032 158.728 101.843 148.903 103.706 138.48C105.569 128.056 114.779 120.982 124.277 122.678C133.775 124.374 139.965 134.199 138.102 144.622C136.238 155.046 127.028 162.121 117.53 160.424Z" fill="#DBE5E5"/>
<path d="M117.573 160.393C108.093 158.7 101.915 148.895 103.775 138.492C105.634 128.089 114.827 121.028 124.306 122.721C133.786 124.414 139.964 134.219 138.104 144.622C136.245 155.025 127.052 162.086 117.573 160.393Z" fill="#DCE6E6"/>
<path d="M117.611 160.357C108.149 158.668 101.984 148.881 103.84 138.499C105.695 128.116 114.87 121.069 124.332 122.759C133.793 124.449 139.959 134.235 138.103 144.618C136.247 155 127.073 162.047 117.611 160.357Z" fill="#DDE6E6"/>
<path d="M117.65 160.326C108.208 158.64 102.056 148.873 103.909 138.511C105.761 128.149 114.916 121.116 124.357 122.802C133.798 124.488 139.95 134.255 138.098 144.617C136.246 154.979 127.091 162.012 117.65 160.326Z" fill="#DEE7E7"/>
<path d="M117.689 160.292C108.266 158.609 102.126 148.863 103.974 138.524C105.822 128.184 114.959 121.167 124.382 122.85C133.805 124.532 139.946 134.278 138.097 144.617C136.249 154.957 127.112 161.974 117.689 160.292Z" fill="#DFE8E8"/>
<path d="M117.732 160.259C108.327 158.58 102.198 148.853 104.043 138.534C105.887 128.216 115.006 121.212 124.411 122.892C133.816 124.571 139.945 134.298 138.1 144.617C136.256 154.935 127.136 161.939 117.732 160.259Z" fill="#E0E8E8"/>
<path d="M117.772 160.228C108.385 158.552 102.268 148.845 104.109 138.546C105.95 128.248 115.052 121.258 124.438 122.935C133.825 124.611 139.942 134.318 138.101 144.617C136.26 154.915 127.159 161.905 117.772 160.228Z" fill="#E1E9E9"/>
<path d="M117.81 160.193C108.444 158.52 102.341 148.833 104.178 138.555C106.015 128.277 115.097 121.301 124.463 122.973C133.829 124.646 139.933 134.334 138.095 144.612C136.258 154.89 127.176 161.866 117.81 160.193Z" fill="#E2EAEA"/>
<path d="M117.852 160.162C108.504 158.493 102.413 148.824 104.246 138.566C106.08 128.309 115.144 121.347 124.492 123.016C133.84 124.686 139.932 134.354 138.098 144.612C136.265 154.869 127.2 161.831 117.852 160.162Z" fill="#E2EAEA"/>
<path d="M117.891 160.131C108.561 158.465 102.481 148.815 104.311 138.578C106.141 128.341 115.188 121.393 124.517 123.059C133.847 124.725 139.927 134.375 138.097 144.612C136.267 154.849 127.22 161.797 117.891 160.131Z" fill="#E3EBEB"/>
<path d="M117.933 160.1C108.624 158.437 102.558 148.807 104.384 138.591C106.21 128.374 115.237 121.44 124.547 123.102C133.856 124.765 139.922 134.394 138.096 144.611C136.269 154.828 127.242 161.762 117.933 160.1Z" fill="#E4ECEC"/>
<path d="M117.972 160.068C108.681 158.409 102.626 148.799 104.449 138.602C106.271 128.406 115.281 121.486 124.572 123.145C133.863 124.804 139.917 134.415 138.095 144.611C136.272 154.807 127.263 161.728 117.972 160.068Z" fill="#E5ECEC"/>
<path d="M118.008 160.032C108.735 158.376 102.692 148.786 104.51 138.613C106.329 128.44 115.32 121.535 124.593 123.191C133.866 124.847 139.909 134.437 138.09 144.61C136.272 154.783 127.28 161.688 118.008 160.032Z" fill="#E6EDED"/>
<path d="M118.052 159.997C108.8 158.344 102.77 148.774 104.585 138.622C106.4 128.469 115.372 121.578 124.624 123.23C133.876 124.882 139.906 134.452 138.091 144.605C136.276 154.758 127.304 161.649 118.052 159.997Z" fill="#E7EEEE"/>
<path d="M118.088 159.966C108.854 158.317 102.837 148.766 104.648 138.633C106.459 128.501 115.413 121.624 124.647 123.273C133.881 124.922 139.899 134.473 138.088 144.605C136.277 154.738 127.323 161.615 118.088 159.966Z" fill="#E8EEEE"/>
<path d="M118.129 159.935C108.913 158.289 102.907 148.757 104.715 138.645C106.522 128.533 115.458 121.67 124.674 123.316C133.89 124.962 139.896 134.493 138.089 144.605C136.281 154.717 127.345 161.58 118.129 159.935Z" fill="#E9EFEF"/>
<path d="M118.171 159.903C108.976 158.261 102.984 148.749 104.787 138.658C106.591 128.566 115.508 121.716 124.704 123.359C133.899 125.001 139.891 134.513 138.087 144.604C136.283 154.696 127.367 161.545 118.171 159.903Z" fill="#EAF0F0"/>
<path d="M118.21 159.867C109.032 158.228 103.052 148.736 104.852 138.664C106.652 128.593 115.551 121.758 124.729 123.397C133.906 125.036 139.886 134.528 138.086 144.6C136.286 154.671 127.387 161.506 118.21 159.867Z" fill="#EBF1F1"/>
<path d="M118.248 159.836C109.089 158.201 103.12 148.727 104.917 138.676C106.713 128.626 115.595 121.804 124.754 123.44C133.913 125.075 139.882 134.549 138.085 144.6C136.288 154.65 127.407 161.472 118.248 159.836Z" fill="#ECF1F1"/>
<path d="M118.29 159.809C109.152 158.177 103.197 148.723 104.99 138.693C106.783 128.662 115.644 121.854 124.783 123.486C133.922 125.118 139.877 134.572 138.084 144.603C136.291 154.633 127.429 161.441 118.29 159.809Z" fill="#EDF2F2"/>
<path d="M118.33 159.769C109.21 158.141 103.266 148.708 105.055 138.7C106.844 128.693 115.688 121.901 124.808 123.529C133.929 125.158 139.872 134.591 138.083 144.599C136.294 154.606 127.451 161.398 118.33 159.769Z" fill="#EEF3F3"/>
<path d="M118.369 159.738C109.266 158.113 103.335 148.699 105.12 138.712C106.905 128.725 115.731 121.947 124.833 123.572C133.936 125.198 139.867 134.612 138.082 144.599C136.297 154.586 127.471 161.364 118.369 159.738Z" fill="#EFF3F3"/>
<path d="M118.413 159.707C109.331 158.085 103.413 148.691 105.195 138.724C106.976 128.758 115.783 121.993 124.865 123.615C133.946 125.237 139.864 134.631 138.083 144.598C136.301 154.564 127.495 161.329 118.413 159.707Z" fill="#F0F4F4"/>
<path d="M118.452 159.676C109.388 158.057 103.482 148.682 105.26 138.736C107.037 128.79 115.826 122.039 124.89 123.658C133.953 125.277 139.86 134.652 138.082 144.598C136.304 154.544 127.515 161.295 118.452 159.676Z" fill="#F1F5F5"/>
<path d="M118.49 159.645C109.445 158.029 103.55 148.674 105.324 138.748C107.098 128.822 115.869 122.086 124.915 123.701C133.96 125.316 139.855 134.672 138.081 144.598C136.306 154.523 127.535 161.26 118.49 159.645Z" fill="#F2F5F5"/>
<path d="M118.528 159.61C109.501 157.998 103.618 148.661 105.389 138.756C107.16 128.851 115.913 122.128 124.94 123.74C133.967 125.352 139.85 134.689 138.079 144.594C136.309 154.499 127.555 161.222 118.528 159.61Z" fill="#F3F6F6"/>
<path d="M118.57 159.578C109.564 157.97 103.695 148.653 105.461 138.768C107.228 128.884 115.962 122.174 124.969 123.783C133.975 125.391 139.845 134.708 138.078 144.593C136.311 154.478 127.577 161.187 118.57 159.578Z" fill="#F4F7F7"/>
<path d="M118.61 159.543C109.622 157.938 103.764 148.642 105.527 138.78C107.29 128.918 116.005 122.225 124.994 123.83C133.982 125.435 139.84 134.731 138.077 144.593C136.314 154.455 127.599 161.148 118.61 159.543Z" fill="#F5F7F7"/>
<path d="M118.649 159.512C109.678 157.91 103.832 148.633 105.592 138.792C107.351 128.95 116.049 122.271 125.019 123.873C133.989 125.475 139.835 134.752 138.076 144.593C136.317 154.434 127.619 161.114 118.649 159.512Z" fill="#F5F8F8"/>
<path d="M118.687 159.48C109.737 157.881 103.905 148.624 105.661 138.803C107.416 128.982 116.095 122.316 125.044 123.915C133.994 125.513 139.826 134.77 138.071 144.591C136.315 154.412 127.637 161.078 118.687 159.48Z" fill="#F6F9F9"/>
<path d="M118.727 159.448C109.796 157.853 103.975 148.615 105.727 138.815C107.479 129.014 116.14 122.363 125.071 123.958C134.003 125.553 139.824 134.791 138.072 144.591C136.32 154.392 127.659 161.044 118.727 159.448Z" fill="#F7F9F9"/>
<path d="M118.766 159.412C109.852 157.821 104.044 148.602 105.792 138.822C107.54 129.042 116.183 122.404 125.097 123.996C134.01 125.588 139.819 134.806 138.07 144.586C136.322 154.366 127.679 161.004 118.766 159.412Z" fill="#F8FAFA"/>
<path d="M118.808 159.381C109.915 157.793 104.12 148.594 105.865 138.834C107.609 129.075 116.233 122.45 125.126 124.038C134.019 125.627 139.814 134.826 138.069 144.585C136.325 154.345 127.701 160.969 118.808 159.381Z" fill="#F9FBFB"/>
<path d="M118.847 159.355C109.972 157.77 104.189 148.59 105.93 138.851C107.67 129.112 116.276 122.501 125.151 124.086C134.026 125.671 139.809 134.851 138.068 144.59C136.327 154.33 127.722 160.94 118.847 159.355Z" fill="#FAFCFC"/>
<path d="M118.885 159.319C110.028 157.737 104.257 148.577 105.994 138.858C107.731 129.139 116.319 122.543 125.176 124.124C134.033 125.706 139.804 134.867 138.067 144.586C136.33 154.304 127.742 160.901 118.885 159.319Z" fill="#FBFCFC"/>
<path d="M118.929 159.279C110.093 157.701 104.335 148.562 106.068 138.866C107.801 129.17 116.369 122.589 125.205 124.167C134.041 125.745 139.8 134.885 138.066 144.581C136.333 154.276 127.765 160.857 118.929 159.279Z" fill="#FCFDFD"/>
<path d="M118.967 159.248C110.149 157.674 104.403 148.553 106.133 138.878C107.862 129.202 116.413 122.635 125.23 124.21C134.048 125.785 139.795 134.905 138.065 144.581C136.336 154.256 127.785 160.823 118.967 159.248Z" fill="#FDFEFE"/>
<path d="M119.008 159.217C110.208 157.646 104.473 148.545 106.199 138.89C107.925 129.235 116.458 122.682 125.258 124.253C134.057 125.825 139.792 134.926 138.066 144.581C136.34 154.236 127.808 160.789 119.008 159.217Z" fill="#FEFEFE"/>
<path d="M119.048 159.19C110.269 157.622 104.548 148.541 106.27 138.906C107.992 129.271 116.506 122.732 125.285 124.3C134.064 125.868 139.785 134.949 138.063 144.584C136.341 154.218 127.828 160.758 119.048 159.19Z" fill="white"/>
<path d="M124.169 158.122C118.663 157.139 115.168 150.918 116.364 144.227C117.56 137.537 122.994 132.91 128.5 133.893C134.006 134.877 137.501 141.098 136.305 147.788C135.109 154.479 129.676 159.105 124.169 158.122Z" fill="#472317"/>
<path d="M128.592 141.929C128.939 139.985 130.491 138.639 132.056 138.919C133.62 139.199 134.608 141.001 134.261 142.941C133.913 144.886 132.361 146.232 130.797 145.952C129.232 145.672 128.245 143.87 128.592 141.929Z" fill="white"/>
<path d="M120.777 150.615C121.007 149.335 122.028 148.449 123.057 148.633C124.086 148.817 124.739 150.004 124.509 151.279C124.278 152.555 123.258 153.445 122.229 153.261C121.199 153.077 120.547 151.89 120.777 150.615Z" fill="white"/>
<path d="M205.125 182.276C211.429 182.946 217.457 185.166 222.637 188.829C223.222 189.243 222.637 190.138 222.022 189.761C216.847 186.6 211.061 184.522 205.045 183.744C204.112 183.623 204.179 182.176 205.125 182.276Z" fill="#985119"/>
<path d="M196.962 176.982C208.467 176.067 219.938 179.144 230.559 183.33C233.689 184.564 236.742 185.956 239.784 187.39C240.311 187.637 240.064 188.498 239.495 188.277C228.861 184.129 218.072 180.231 206.668 178.935C203.484 178.576 200.28 178.471 197.075 178.563C196.176 178.588 196.05 177.054 196.958 176.978L196.962 176.982Z" fill="#985119"/>
<g style="mix-blend-mode:overlay" opacity="0.2">
<path d="M142.512 201.366C119.109 196.477 94.3269 186.17 85.0271 162.289C76.3298 139.872 88.2651 118.906 103.158 101.955C111.24 92.8222 119.268 84.087 128.907 77.6768C124.289 79.203 119.741 81.1934 115.662 83.5769C104.124 90.3174 93.8709 100.361 85.617 110.765C78.1705 120.144 71.0503 130.602 67.5362 142.172C55.6302 181.378 100.456 201.328 131.333 207.55C150.485 211.41 177.201 212.359 193.917 200.688C177.171 204.744 159.396 204.958 142.512 201.361V201.366Z" fill="black"/>
</g>
<path d="M143.72 183.607C143.72 183.607 144.77 194.913 149.614 196.398C154.458 197.882 163.189 181.211 162.984 181.227C162.775 181.244 160.11 180.069 152.902 181.135C145.694 182.202 143.724 183.611 143.724 183.611L143.72 183.607Z" fill="white"/>
<path d="M160.554 185.697C162.068 183.18 163.051 181.219 162.98 181.227C162.771 181.244 160.106 180.069 152.898 181.135C145.69 182.202 143.72 183.611 143.72 183.611C143.72 183.611 143.854 185.045 144.243 186.956C149.598 185.35 155.199 184.581 160.554 185.701V185.697Z" fill="#DFE5E4"/>
<path d="M166.348 179.851C162.888 179.437 159.253 179.341 155.672 179.701C156.056 178.681 156.27 177.577 156.521 176.536C156.914 174.917 157.228 173.282 157.525 171.643C158.085 168.57 158.725 165.413 158.809 162.285C158.838 161.206 157.178 161.194 156.964 162.185C156.307 165.254 156.069 168.436 155.579 171.539C155.345 173.011 155.082 174.474 154.86 175.95C154.668 177.23 154.354 178.551 154.333 179.856C149.083 180.558 144.012 182.306 139.858 185.58C139.398 185.944 139.879 186.642 140.381 186.329C148.2 181.386 157.035 181.01 166.005 181.641C167.147 181.721 167.532 179.994 166.348 179.851Z" fill="#985119"/>
<path d="M166.305 160.027C166.305 160.048 166.301 160.069 166.297 160.09C165.974 161.733 160.77 164.121 158.545 165.074C158.524 165.083 158.503 165.091 158.482 165.099C158.089 165.25 157.637 165.229 157.248 165.066C157.164 165.032 157.085 164.986 157.005 164.94C156.917 164.886 156.834 164.823 156.763 164.752C156.733 164.727 156.708 164.698 156.679 164.673C156.591 164.589 156.503 164.501 156.407 164.409C156.332 164.334 156.252 164.259 156.173 164.179C156.118 164.125 156.064 164.075 156.009 164.016C155.838 163.841 155.654 163.661 155.466 163.468C155.29 163.289 155.11 163.105 154.93 162.912C154.913 162.896 154.897 162.879 154.884 162.862C154.805 162.779 154.725 162.695 154.646 162.607C154.524 162.477 154.407 162.348 154.286 162.218C154.206 162.13 154.127 162.043 154.047 161.955C153.575 161.428 153.11 160.884 152.692 160.349C152.65 160.299 152.613 160.245 152.571 160.194C152.554 160.173 152.541 160.157 152.525 160.136C152.479 160.077 152.433 160.019 152.387 159.956C152.014 159.458 151.701 158.978 151.47 158.543C151.466 158.534 151.458 158.526 151.458 158.513C151.169 157.957 151.027 157.468 151.094 157.108C151.491 155.097 154.78 154.967 158.771 155.695C158.93 155.724 159.088 155.754 159.247 155.787C159.549 155.846 159.85 155.908 160.143 155.975C163.858 156.807 166.614 158.125 166.305 160.031V160.027Z" fill="#985119"/>
<g style="mix-blend-mode:overlay" opacity="0.35">
<path d="M161.486 160.571C159.307 160.579 157.052 160.32 154.939 159.797C153.776 159.509 152.538 159.128 151.455 158.518C152.488 160.508 155.358 163.406 156.755 164.752C157.215 165.195 157.956 165.329 158.537 165.078C160.763 164.125 165.967 161.733 166.289 160.094C166.289 160.073 166.293 160.052 166.297 160.031C164.712 160.37 163.101 160.567 161.482 160.571H161.486Z" fill="black"/>
</g>
<g style="mix-blend-mode:overlay" opacity="0.46">
<path d="M163.632 158.016C161.682 157.243 158.565 156.369 155.725 156.218C155.106 156.193 154.482 156.218 153.872 156.31C153.575 156.385 153.211 156.369 152.972 156.582C152.483 156.971 152.767 157.343 153.391 157.326C159.544 157.184 163.799 159.333 164.309 159.137C165.125 158.857 164.468 158.246 163.636 158.012L163.632 158.016Z" fill="white"/>
</g>
<g style="mix-blend-mode:overlay" opacity="0.2">
<path d="M69.1338 274.165C67.0546 271.238 65.9335 267.642 65.9753 264.054C64.5613 266.274 63.6368 268.796 63.277 271.401C61.2564 266.291 60.5034 260.684 61.1142 255.223C59.5579 257.497 58.0059 259.776 56.4496 262.051C55.9142 257.142 56.504 252.108 58.1648 247.458C55.8598 249.904 53.9103 252.676 52.3875 255.67C52.9816 249.084 55.5502 242.691 59.6751 237.522C58.83 240.22 57.8344 242.716 56.9893 245.413C58.7798 243.205 60.5661 240.993 62.3566 238.785C60.8841 243.452 59.8717 248.261 59.3278 253.124C60.3528 249.791 62.3943 246.78 65.1051 244.593C63.6075 250.836 63.3146 257.364 64.2517 263.715C64.578 260.065 66.2472 256.548 68.8702 253.985C67.5064 260.717 67.2178 267.562 69.1338 274.161V274.165Z" fill="white"/>
</g>
<path d="M127.069 215.665C126.973 214.377 127.157 213.06 127.567 211.914C128.935 208.08 132.064 205.157 135.21 202.732C137.31 201.113 139.494 199.587 141.414 197.76C142.627 200.695 141.883 204.333 139.615 206.558C142.765 204.889 146.196 203.263 149.346 201.594C149.543 201.49 149.76 201.381 149.982 201.427C150.459 201.527 150.505 202.184 150.409 202.66C149.781 205.792 147.886 208.648 145.242 210.442C146.238 210.38 147.338 211.132 147.631 212.086C147.928 213.039 147.493 214.164 146.639 214.678C147.2 214.85 147.489 215.51 147.417 216.091C147.346 216.673 146.999 217.179 146.627 217.63C144.493 220.21 141.264 221.661 137.975 222.029C135.39 222.318 132.47 222.196 130.131 220.946C128.165 219.897 127.228 217.827 127.069 215.669V215.665Z" fill="url(#paint14_linear_0_15230)"/>
<g style="mix-blend-mode:overlay" opacity="0.3">
<path d="M134.026 219.165C129.721 216.614 128.885 212.098 129.918 207.758C128.931 209.016 128.106 210.392 127.567 211.91C127.157 213.056 126.973 214.377 127.069 215.661C127.228 217.814 128.165 219.888 130.131 220.938C132.47 222.188 135.39 222.309 137.975 222.021C139.293 221.875 140.598 221.548 141.828 221.051C139.23 221.109 136.607 220.562 134.022 219.161L134.026 219.165Z" fill="black"/>
</g>
<g style="mix-blend-mode:overlay" opacity="0.2">
<path d="M84.6359 222.656C83.9163 219.524 83.1968 216.388 82.4772 213.256C81.3979 216.413 80.3227 219.566 79.2434 222.723C77.1308 218.345 76.8003 213.144 78.344 208.536C75.8046 212.127 73.8803 216.15 72.6796 220.382C72.3491 212.621 74.3112 204.776 78.2561 198.086C77.9466 200.62 77.6579 203.2 77.3483 205.734C78.9004 203.848 80.4566 201.962 82.0087 200.076C81.5778 203.635 81.1427 207.197 80.7118 210.756C82.1509 207.904 83.59 205.057 85.0291 202.205C85.4893 206.658 86.6272 211.04 88.3926 215.155C86.5561 213.19 85.3303 210.656 84.9287 207.996C85.0375 212.37 84.5271 218.278 84.6317 222.652L84.6359 222.656Z" fill="white"/>
</g>
</g>
<defs>
<linearGradient id="paint0_linear_0_15230" x1="-36.6252" y1="285.625" x2="59.9917" y2="263.398" gradientUnits="userSpaceOnUse">
<stop stop-color="#C6884A"/>
<stop offset="0.32" stop-color="#C28345"/>
<stop offset="0.66" stop-color="#B87739"/>
<stop offset="1" stop-color="#A86326"/>
</linearGradient>
<linearGradient id="paint1_linear_0_15230" x1="78.597" y1="262.456" x2="36.2312" y2="318.578" gradientUnits="userSpaceOnUse">
<stop offset="0.1" stop-color="#E2B078"/>
<stop offset="0.44" stop-color="#E3B17A"/>
<stop offset="0.66" stop-color="#E6B883"/>
<stop offset="0.85" stop-color="#EDC292"/>
<stop offset="1" stop-color="#F5CFA4"/>
</linearGradient>
<linearGradient id="paint2_linear_0_15230" x1="28.9004" y1="330.23" x2="50.5529" y2="310.07" gradientUnits="userSpaceOnUse">
<stop stop-color="#C6884A"/>
<stop offset="0.32" stop-color="#C28345"/>
<stop offset="0.66" stop-color="#B87739"/>
<stop offset="1" stop-color="#A86326"/>
</linearGradient>
<linearGradient id="paint3_linear_0_15230" x1="124.307" y1="277.48" x2="127.588" y2="322.841" gradientUnits="userSpaceOnUse">
<stop offset="0.51" stop-color="#DFAB71"/>
<stop offset="0.68" stop-color="#E0AC73"/>
<stop offset="0.8" stop-color="#E3B37C"/>
<stop offset="0.9" stop-color="#EABD8B"/>
<stop offset="0.99" stop-color="#F3CCA0"/>
<stop offset="1" stop-color="#F5CFA4"/>
</linearGradient>
<linearGradient id="paint4_linear_0_15230" x1="141.582" y1="331.656" x2="119.933" y2="311.496" gradientUnits="userSpaceOnUse">
<stop stop-color="#C6884A"/>
<stop offset="0.32" stop-color="#C28345"/>
<stop offset="0.66" stop-color="#B87739"/>
<stop offset="1" stop-color="#A86326"/>
</linearGradient>
<linearGradient id="paint5_linear_0_15230" x1="89.3454" y1="295.139" x2="123.543" y2="172.929" gradientUnits="userSpaceOnUse">
<stop stop-color="#DEAA6F"/>
<stop offset="1" stop-color="#F5CFA4"/>
</linearGradient>
<linearGradient id="paint6_linear_0_15230" x1="114.147" y1="248.642" x2="108.616" y2="293.222" gradientUnits="userSpaceOnUse">
<stop stop-color="#F5CFA4"/>
<stop offset="0.28" stop-color="#F5D1A8"/>
<stop offset="0.58" stop-color="#F8D8B5"/>
<stop offset="0.91" stop-color="#FDE4CC"/>
<stop offset="1" stop-color="#FFE9D4"/>
</linearGradient>
<linearGradient id="paint7_linear_0_15230" x1="96.2082" y1="225.583" x2="163.557" y2="225.583" gradientUnits="userSpaceOnUse">
<stop stop-color="#DEAA6F"/>
<stop offset="1" stop-color="#F5CFA4"/>
</linearGradient>
<linearGradient id="paint8_linear_0_15230" x1="68.4642" y1="201.816" x2="135.274" y2="201.816" gradientUnits="userSpaceOnUse">
<stop stop-color="#DEAA6F"/>
<stop offset="1" stop-color="#F5CFA4"/>
</linearGradient>
<linearGradient id="paint9_linear_0_15230" x1="3.47231" y1="40.6916" x2="100.234" y2="134.296" gradientUnits="userSpaceOnUse">
<stop stop-color="#F5CFA4"/>
<stop offset="0.08" stop-color="#EFC698"/>
<stop offset="0.31" stop-color="#DFB07B"/>
<stop offset="0.55" stop-color="#D4A166"/>
<stop offset="0.78" stop-color="#CE985A"/>
<stop offset="1" stop-color="#CC9556"/>
</linearGradient>
<linearGradient id="paint10_linear_0_15230" x1="9.41468" y1="60.7471" x2="92.9393" y2="129.035" gradientUnits="userSpaceOnUse">
<stop stop-color="#FFE9D4"/>
<stop offset="0.09" stop-color="#FDE4CC"/>
<stop offset="0.42" stop-color="#F8D8B5"/>
<stop offset="0.72" stop-color="#F5D1A8"/>
<stop offset="1" stop-color="#F5CFA4"/>
</linearGradient>
<linearGradient id="paint11_linear_0_15230" x1="299.783" y1="109.736" x2="168.166" y2="138.22" gradientUnits="userSpaceOnUse">
<stop stop-color="#F5CFA4"/>
<stop offset="0.08" stop-color="#EFC698"/>
<stop offset="0.31" stop-color="#DFB07B"/>
<stop offset="0.55" stop-color="#D4A166"/>
<stop offset="0.78" stop-color="#CE985A"/>
<stop offset="1" stop-color="#CC9556"/>
</linearGradient>
<linearGradient id="paint12_linear_0_15230" x1="284.249" y1="123.709" x2="177.252" y2="137.68" gradientUnits="userSpaceOnUse">
<stop stop-color="#FFE9D4"/>
<stop offset="0.09" stop-color="#FDE4CC"/>
<stop offset="0.42" stop-color="#F8D8B5"/>
<stop offset="0.72" stop-color="#F5D1A8"/>
<stop offset="1" stop-color="#F5CFA4"/>
</linearGradient>
<linearGradient id="paint13_linear_0_15230" x1="130.669" y1="207.603" x2="152.771" y2="60.5207" gradientUnits="userSpaceOnUse">
<stop stop-color="#DEAA6F"/>
<stop offset="1" stop-color="#F5CFA4"/>
</linearGradient>
<linearGradient id="paint14_linear_0_15230" x1="127.044" y1="209.957" x2="150.45" y2="209.957" gradientUnits="userSpaceOnUse">
<stop stop-color="#A86326"/>
<stop offset="0.34" stop-color="#B87739"/>
<stop offset="0.68" stop-color="#C28345"/>
<stop offset="1" stop-color="#C6884A"/>
</linearGradient>
<clipPath id="clip0_0_15230">
<rect width="311" height="325.045" fill="white" transform="matrix(-1 0 0 1 270 0)"/>
</clipPath>
</defs>
</svg>
