<svg width="130" height="176" viewBox="0 0 130 176" fill="none" xmlns="http://www.w3.org/2000/svg">
<g clip-path="url(#clip0_3_167872)">
<path d="M109.566 163.772C115.29 163.111 120.731 160.221 124.471 155.843C128.215 151.468 130.221 145.651 129.978 139.903C129.497 140.757 129.02 141.614 128.54 142.468C129.188 140.073 128.915 137.443 127.793 135.232L127.728 136.464C127.221 132.627 125.807 128.913 123.639 125.703C123.425 127.257 123.214 128.807 123 130.361C122.724 129.648 122.221 128.955 121.945 128.246C121.533 129.468 121.122 130.689 120.708 131.908C120.675 131.074 120.642 130.236 120.609 129.402C115.638 133.15 111.849 138.438 109.901 144.347C107.954 150.256 107.793 157.807 109.566 163.768V163.772Z" fill="url(#paint0_linear_3_167872)"/>
<path opacity="0.5" d="M124.553 148.794C126.55 145.775 127.547 142.116 127.428 138.49L127.402 137.623L126.886 138.336C125.645 140.034 123.172 143.463 121.948 145.174L122.678 145.483C123.007 143.907 123.191 142.3 123.257 140.691C123.372 138.513 123.139 136.221 122.836 134.059C121.652 137.351 119.797 142.553 118.642 145.867L119.343 145.969L119.099 142.639C119.04 141.877 118.813 138.963 118.76 138.254C117.635 141.082 116.533 143.93 115.471 146.784C116.615 144.34 117.727 141.883 118.823 139.417L118.352 139.338L118.477 142.675C118.527 143.821 118.645 146.672 118.695 147.789C119.106 146.692 120.754 142.277 121.195 141.098L123.04 136.07L122.198 135.974C122.468 138.306 122.491 140.671 122.224 143.007C122.096 144.294 121.77 145.93 121.527 147.214C123.201 144.79 125.715 141.134 127.376 138.684L126.833 138.526C127.09 142.07 126.271 145.67 124.557 148.797L124.553 148.794Z" fill="#6F340A"/>
<path opacity="0.25" d="M109.901 144.347C111.608 139.167 114.73 134.463 118.822 130.857C122.944 137.288 122.076 145.365 119.763 152.538C118.855 155.258 121.306 157.373 123.727 156.667C120.026 160.579 114.921 163.151 109.566 163.768C107.792 157.807 107.957 150.252 109.901 144.347Z" fill="#2B041E"/>
<g style="mix-blend-mode:overlay" opacity="0.3">
<path d="M128.974 143.549C128.162 144.609 127.349 145.67 126.537 146.731C127.487 143.89 127.846 140.855 127.579 137.873C127.139 138.779 126.695 139.686 126.254 140.592C126.833 136.796 126.195 132.824 124.458 129.399C125.754 137.916 125.135 146.715 122.658 154.966C122.721 154.713 123.471 154.253 123.678 154.076C124.04 153.757 124.402 153.438 124.767 153.123C125.014 152.91 125.267 152.762 125.451 152.496C125.701 152.141 125.882 151.707 126.076 151.323C126.882 149.747 127.573 148.108 128.139 146.429C128.458 145.48 128.737 144.521 128.978 143.549H128.974Z" fill="white"/>
</g>
<path d="M59.4387 91.2255C64.9883 100.905 65.5146 113.285 60.8006 123.394C51.7344 126.518 41.9807 127.254 32.5921 125.296C32.1711 126.653 31.9276 127.829 31.5033 129.185C29.5624 127.806 27.1709 126.301 25.23 124.922C26.0359 122.265 26.5524 119.568 27.3616 116.911C30.2828 115.968 38.8523 115.052 44.6223 114.346C44.3459 107.326 42.0925 100.11 38.4542 94.0962C40.0267 92.0597 42.9182 92.1977 45.4907 92.0959C50.3659 91.9054 54.5635 91.416 59.4387 91.2255Z" fill="url(#paint1_linear_3_167872)"/>
<path opacity="0.2" d="M27.3649 116.911C28.4209 116.569 30.2137 116.234 32.3421 115.909C37.7108 121.204 46.2638 123.211 53.172 119.765C63.1165 114.92 64.6757 102.15 60.2578 92.7528C65.0277 102.183 65.2679 113.81 60.8006 123.394C51.7344 126.518 41.9807 127.254 32.5921 125.296C32.1711 126.653 31.9276 127.829 31.5033 129.185C29.5624 127.806 27.1709 126.301 25.23 124.922C26.0359 122.265 26.5524 119.568 27.3616 116.911H27.3649Z" fill="#2B041E"/>
<g style="mix-blend-mode:overlay" opacity="0.2">
<path d="M46.7145 106.597C47.0336 109.392 46.981 112.227 46.5665 115.009C43.2834 116.168 39.7866 116.737 36.3062 116.723C38.5332 117.617 40.6912 118.353 43.0762 118.609C44.3065 118.74 45.5631 118.786 46.7704 118.514C47.9777 118.241 49.1389 117.627 49.8857 116.641C51.0568 115.084 50.9877 112.864 50.2114 111.077C49.435 109.291 48.0632 108.006 46.7178 106.597H46.7145Z" fill="white"/>
</g>
<path d="M30.2337 116.891C31.7272 117.246 32.9674 118.33 33.826 119.598C34.6845 120.869 35.2175 122.327 35.7405 123.769C35.9149 124.248 36.0925 124.744 36.0728 125.257C36.053 125.769 35.7931 126.305 35.3194 126.498C34.9017 126.669 34.4082 126.535 34.0431 126.268C33.6779 126.006 33.4115 125.628 33.1549 125.257C33.474 127.008 33.7898 128.811 34.1056 130.565C34.1944 131.064 34.2865 131.566 34.2372 132.072C34.1878 132.575 33.9839 133.087 33.5792 133.393C33.0529 133.79 32.2864 133.761 31.7107 133.442C31.1351 133.123 30.7239 132.565 30.4278 131.977C30.4179 132.48 30.3686 133.176 30.1712 133.639C29.9738 134.102 29.5429 134.503 29.0396 134.516C28.6974 134.523 28.3751 134.355 28.0922 134.155C27.2401 133.557 26.6085 132.65 26.3421 131.642C26.2993 131.964 25.9046 132.266 25.5789 132.263C25.2532 132.263 24.9506 132.085 24.7039 131.869C23.7203 131.011 23.4505 129.602 23.3617 128.298C23.2071 126.022 23.4176 123.723 23.9834 121.516C24.2302 120.557 24.5492 119.604 25.0657 118.757C25.5855 117.913 26.3223 117.177 27.2369 116.789C28.1514 116.402 29.2633 116.658 30.2271 116.888L30.2337 116.891Z" fill="url(#paint2_linear_3_167872)"/>
<path opacity="0.13" d="M25.4604 127.08C25.9012 128.837 26.1216 131.691 28.0986 131.911C29.1974 131.911 29.0625 129.987 29.0625 128.89C30.9014 130.663 31.4705 130.63 32.1317 129.974C33.2304 127.996 32.2765 124.886 32.2765 122.692C34.7897 125.191 35.8358 124.295 35.4279 122.931C35.5332 123.214 35.6351 123.493 35.7371 123.776C35.9115 124.255 36.0891 124.751 36.0694 125.263C36.0496 125.776 35.7898 126.311 35.3161 126.505C34.8983 126.676 34.4048 126.541 34.0397 126.275C33.6745 126.012 33.4081 125.635 33.1515 125.263C33.4706 127.014 33.7864 128.817 34.1022 130.571C34.191 131.071 34.2831 131.573 34.2338 132.079C34.1844 132.581 33.9805 133.094 33.5758 133.399C33.0495 133.797 32.283 133.767 31.7073 133.449C31.1317 133.13 30.7205 132.572 30.4244 131.984C30.4145 132.486 30.3652 133.183 30.1678 133.646C29.9704 134.109 29.5395 134.51 29.0362 134.523C28.6941 134.529 28.3717 134.362 28.0888 134.161C27.2368 133.564 26.6052 132.657 26.3387 131.649C26.2959 131.971 25.9012 132.273 25.5755 132.269C25.2498 132.266 24.9472 132.092 24.7005 131.875C24.5623 131.757 24.4406 131.626 24.332 131.484C24.3386 131.481 24.3452 131.478 24.3518 131.471C25.6709 130.374 25.4505 128.617 25.4505 127.08H25.4604Z" fill="#2B041E"/>
<g style="mix-blend-mode:overlay" opacity="0.3">
<path d="M30.9277 124.531C30.8191 125.139 30.6218 125.776 30.1382 126.16C29.7895 126.436 29.3388 126.538 28.9013 126.633C28.7927 126.656 28.6809 126.682 28.5723 126.705C28.0591 126.817 27.5427 126.932 27.0196 126.981C26.6578 127.017 26.2696 127.017 25.9538 126.84C25.638 126.663 25.4242 126.249 25.5788 125.92C25.5393 126.292 25.4965 126.676 25.286 126.985C25.0755 127.293 24.6511 127.487 24.3221 127.313C24.0228 127.155 23.9274 126.778 23.878 126.439C23.5096 123.808 24.2794 121.039 25.9571 118.98C26.411 118.422 26.944 117.903 27.6118 117.64C30.9672 116.316 31.2764 122.583 30.9244 124.531H30.9277Z" fill="white"/>
</g>
<path d="M74.4262 135.912C72.1794 132.325 68.5148 127.5 64.6232 125.51C60.7283 123.516 56.2017 122.495 51.9252 123.424C45.6125 124.8 40.7471 130.368 39.0332 136.589C37.3226 142.81 38.3918 149.527 40.7504 155.534C43.3459 162.146 47.4908 168.143 52.7575 172.913C52.2246 173.241 51.6522 173.573 51.1193 173.901C55.182 173.763 59.2446 173.622 63.304 173.484C63.1461 173.494 63.3336 173.675 63.1757 173.688C63.8435 170.525 65.1067 167.49 66.8798 164.787C68.2878 165.887 69.8142 166.915 71.2221 168.015C77.1368 157.879 80.6469 145.861 74.4196 135.912H74.4262Z" fill="url(#paint3_linear_3_167872)"/>
<path opacity="0.25" d="M56.1886 162.402C62.5639 158.891 61.4652 150.108 60.8073 143.739C64.1462 151.583 65.3831 161.177 70.7781 167.674C69.4951 166.702 68.1431 165.769 66.8832 164.783C65.1463 167.427 63.8995 170.393 63.2218 173.484C59.1888 173.622 55.1524 173.76 51.1193 173.898C51.6523 173.57 52.2247 173.238 52.7576 172.909C49.2607 169.743 46.2606 166.031 43.8789 161.959C47.4448 164.258 51.5766 164.911 56.1886 162.399V162.402Z" fill="#2B041E"/>
<path d="M29.0923 175.061C29.793 175.018 30.4937 174.975 31.1943 174.936C31.8786 174.896 32.5628 174.86 33.2471 174.827C43.435 174.325 53.6493 174.312 63.8438 174.788C63.7582 174.138 63.653 173.422 63.5674 172.768C53.9914 169.592 45.8364 166.15 35.7636 165.549C33.4214 167.605 29.7765 172.019 29.0956 175.057L29.0923 175.061Z" fill="url(#paint4_linear_3_167872)"/>
<path d="M31.1943 174.936C31.8786 174.896 32.5628 174.86 33.2471 174.827C33.8392 172.456 34.6813 170.186 35.7274 167.95C33.9017 170.052 32.3687 172.41 31.1943 174.933V174.936Z" fill="#DB7B3A"/>
<g style="mix-blend-mode:overlay" opacity="0.4">
<path d="M55.4685 170.656C49.0505 168.741 42.4351 167.303 35.8164 166.261C34.2407 167.67 32.8557 169.293 31.7109 171.07C39.5205 169.654 47.682 169.112 55.4685 170.656Z" fill="white"/>
</g>
<g style="mix-blend-mode:overlay" opacity="0.2">
<path d="M41.2143 152.243C40.3162 148.229 39.7735 144.087 40.257 140.005C40.7406 135.922 42.313 131.879 45.1914 128.939C48.0699 125.999 52.3431 124.298 56.3959 125.027C48.1357 131.32 42.5005 141.949 41.2176 152.243H41.2143Z" fill="white"/>
</g>
<path d="M39.1022 123.362C39.1582 126.597 39.3062 129.832 39.5431 133.058C39.9773 138.97 40.7273 144.912 42.6485 150.522C44.5729 156.132 47.7474 161.43 52.3791 165.138C60.2347 171.428 71.0609 172.357 81.1238 172.022C84.9266 171.898 88.759 171.618 92.5091 170.971C96.2363 170.331 99.8779 169.332 103.316 167.762C106.608 166.261 109.701 164.159 112.237 161.581C113.556 160.244 114.727 158.776 115.694 157.193C116.773 155.435 117.606 153.537 118.125 151.52C119.987 144.307 117.671 136.608 114.059 130.088C110.447 123.569 105.579 117.827 101.733 111.445C98.8515 106.656 96.5225 101.293 95.9896 95.7943C95.9271 95.1406 95.8876 94.4903 95.8777 93.8367C95.8547 92.6477 95.927 91.4586 96.0981 90.2696C96.0356 90.2565 95.9764 90.2466 95.9106 90.2335C94.5487 89.9707 93.1539 89.7375 91.7361 89.5405C90.861 89.4156 89.9728 89.304 89.0781 89.2054C78.6796 88.0427 67.1857 88.427 57.3103 89.4813C51.6061 90.0923 45.7045 90.5061 41.0958 93.9188C41.053 94.2078 41.0069 94.5001 40.9675 94.7892C40.0069 101.224 40.3655 105.408 40.1352 111.912C40.1253 112.234 40.1023 112.578 40.0727 112.94C39.872 115.518 39.2996 119.102 39.1384 121.805C39.1055 122.363 39.0891 122.885 39.0957 123.352L39.1022 123.362Z" fill="url(#paint5_linear_3_167872)"/>
<path d="M85.4302 91.347C85.0946 97.568 90.9896 117.548 97.3879 125.316C103.293 132.486 106.066 134.89 109.727 143.427C112.099 148.962 113.145 155.56 112.244 161.584C113.563 160.247 114.734 158.779 115.701 157.196C117.813 149.632 115.862 141.295 112.379 134.168C108.629 126.498 103.22 119.768 98.8288 112.44C94.6608 105.484 91.3482 97.5975 91.7429 89.5471C91.766 89.1201 91.7989 88.6898 91.8383 88.2595C90.9238 88.5486 90.0027 88.8639 89.0816 89.2153C85.1538 90.7032 88.6606 88.8343 85.4269 91.3503L85.4302 91.347Z" fill="url(#paint6_linear_3_167872)"/>
<path d="M87.5911 97.0064C87.476 104.962 91.2656 112.47 95.8118 119.006C100.358 125.543 105.76 131.511 109.595 138.484C113.431 145.457 115.592 153.882 113.02 161.41C112.809 162.028 112.434 162.799 112.066 163.338C112.484 154.999 109.928 146.357 105.631 139.19C102.052 133.222 97.0718 128.229 93.0518 122.55C87.6602 114.934 84.0416 106.075 82.5547 96.8651C84.2982 96.6878 85.8476 97.1837 87.5911 97.0064Z" fill="url(#paint7_linear_3_167872)"/>
<path d="M93.1935 95.3772C94.6738 102.863 98.503 109.662 102.605 116.099C106.704 122.541 111.158 128.824 114.109 135.863C117.063 142.902 118.415 150.926 116.06 158.185C115.912 158.644 116.096 159.111 115.816 159.505C117.823 152.348 115.063 144.445 111.925 137.709C108.79 130.969 104.335 124.942 100.559 118.537C95.8186 110.499 92.1343 101.844 89.6309 92.8579C90.8743 93.6298 91.95 94.6053 93.1935 95.3772Z" fill="url(#paint8_linear_3_167872)"/>
<path d="M36.382 110.604C37.1616 109.964 37.9446 109.323 38.7242 108.683C37.9347 109.859 37.5005 111.261 37.4478 112.674C37.4116 113.607 37.5432 114.546 37.8524 115.426C38.3262 114.973 38.7439 114.628 39.188 114.224C39.3295 114.099 39.4709 113.968 39.619 113.823C39.3986 116.241 39.2341 118.944 39.1453 121.811C39.1288 122.324 39.1157 122.839 39.1025 123.358C39.1584 126.594 39.3065 129.829 39.5433 133.054C39.9775 138.967 40.7276 144.908 42.6487 150.518C44.5731 156.128 47.7476 161.426 52.3794 165.135C60.235 171.425 71.0611 172.354 81.124 172.019C84.3183 171.914 79.0845 131.553 68.7321 110.926C66.7649 107.005 64.6102 103.792 62.2943 101.71C60.0935 99.7292 66.3076 93.9648 63.5707 92.8284C60.8337 91.6919 57.6428 91.3799 54.9223 92.5525C52.9682 93.3966 51.3366 94.9535 49.2806 95.502C47.2246 96.0473 43.8198 94.7893 44.0238 92.6707C42.9382 93.2751 41.9151 93.9845 40.9677 94.786C37.0827 98.0607 34.4576 102.84 33.9082 107.901C35.0793 106.922 36.2471 105.944 37.4182 104.965C36.9939 106.899 36.7998 108.66 36.3754 110.595L36.382 110.604Z" fill="url(#paint9_linear_3_167872)"/>
<path opacity="0.13" d="M58.5734 122.679C63.192 123.555 67.8073 122.899 72.2056 124.656C82.1007 128.387 89.1372 137.17 93.315 146.83C96.1474 153.898 98.9764 162.386 96.9961 170.009C95.5223 170.4 94.0256 170.722 92.5123 170.981C88.7622 171.628 84.9298 171.904 81.127 172.032C71.0641 172.367 60.2379 171.438 52.3823 165.148C51.8132 164.691 51.2672 164.212 50.7408 163.713C53.3758 164.08 56.1917 163.877 59.2346 162.865C68.4685 159.571 66.0507 145.519 59.8958 138.714C54.6324 133.255 46.7604 131.337 39.5364 132.953C39.3028 129.763 39.1581 126.571 39.1054 123.372C39.0791 121.805 39.3259 119.627 39.5857 117.469C40.4345 116.967 52.6389 121.588 58.5767 122.685L58.5734 122.679Z" fill="#2B041E"/>
<g style="mix-blend-mode:overlay" opacity="0.2">
<path d="M41.8624 135.583C41.2242 145.424 45.1422 155.468 52.2806 162.287C51.6984 152.548 48.2542 142.964 41.8624 135.583Z" fill="white"/>
</g>
<g style="mix-blend-mode:overlay" opacity="0.2">
<path d="M114.997 142.465C114.122 134.743 109.283 128.118 104.513 121.979C99.7396 115.84 94.7065 109.442 93.3183 101.795C91.8676 106.936 93.4466 112.713 96.2823 117.242C99.1179 121.772 103.016 125.516 106.52 129.553C109.872 133.412 112.368 138.08 114.997 142.465Z" fill="white"/>
</g>
<path d="M81.9626 103.865C83.4528 114.917 79.2684 126.584 71.0871 134.178C61.5077 133.662 52.1981 130.673 44.2405 125.329C43.3392 126.426 42.6681 127.425 41.7668 128.522C40.4904 126.515 38.8423 124.222 37.5659 122.215C39.316 120.057 40.8128 117.752 42.5628 115.594C45.6222 115.82 53.9087 118.192 59.5208 119.709C61.9124 113.101 62.5473 105.569 61.4452 98.6322C63.669 97.3381 66.2974 98.5534 68.7186 99.4271C73.3043 101.082 77.3801 102.209 81.9658 103.865H81.9626Z" fill="url(#paint10_linear_3_167872)"/>
<path opacity="0.2" d="M42.5597 115.597C43.665 115.679 45.4545 116.04 47.55 116.54C50.5238 123.463 57.6919 128.538 65.3929 127.947C76.4328 127.198 82.6963 115.958 82.1469 105.589C83.0055 116.116 78.8441 126.978 71.0905 134.181C61.5112 133.665 52.2015 130.676 44.244 125.332C43.3426 126.429 42.6715 127.428 41.7702 128.525C40.4938 126.518 38.8457 124.225 37.5693 122.219C39.3194 120.061 40.8162 117.755 42.5663 115.597H42.5597Z" fill="#2B041E"/>
<g style="mix-blend-mode:overlay" opacity="0.2">
<path d="M64.3766 113.321C63.6167 116.027 62.5016 118.639 61.0673 121.059C57.5902 120.898 54.1328 120.11 50.9155 118.79C52.6426 120.455 54.363 121.949 56.475 123.083C57.5638 123.667 58.7119 124.18 59.9324 124.383C61.1528 124.587 62.4621 124.455 63.5246 123.818C65.199 122.816 65.9688 120.734 65.9227 118.786C65.8767 116.839 65.0905 115.134 64.3766 113.321Z" fill="white"/>
</g>
<path d="M36.4149 121.003C37.5037 119.381 38.2867 117.909 39.2242 116.668C40.7012 114.71 43.4514 114.267 45.4745 115.653C45.6949 115.804 45.9153 115.958 46.1423 116.123C46.185 120.018 45.2113 121.292 44.5731 125.388C44.6455 126.84 44.4284 127.904 44.7376 129.451C45.4021 132.782 43.2046 132.89 41.8723 131.074C41.7112 131.948 41.1092 132.621 40.1058 132.92C40.1025 132.92 40.096 132.92 40.0927 132.92C38.711 132.946 37.5333 132.365 37.2439 130.844C37.1419 130.318 37.0827 129.809 37.0498 129.317C36.007 129.586 34.6484 128.049 34.6813 125.796C34.7043 124.111 35.4543 122.504 36.4149 121.01V121.003Z" fill="url(#paint11_linear_3_167872)"/>
<path opacity="0.13" d="M41.7175 126.026C41.7932 126.623 42.0037 127.431 42.3096 128.16C42.5103 128.637 43.2143 128.492 43.2143 127.977C43.234 122.816 45.6124 119.105 45.79 115.873C45.9052 115.955 46.0236 116.037 46.1387 116.123C46.1815 120.018 45.2078 121.292 44.5696 125.388C44.642 126.84 44.4249 127.904 44.7341 129.451C45.3986 132.782 43.2011 132.89 41.8688 131.074C41.7076 131.948 41.1056 132.621 40.1023 132.92C40.099 132.92 40.0924 132.92 40.0891 132.92C38.6878 132.949 37.5002 132.348 37.2305 130.782C37.4147 130.874 37.6088 130.956 37.816 131.025C41.2767 131.941 41.3326 128.203 41.7142 126.029L41.7175 126.026Z" fill="#2B041E"/>
<path opacity="0.13" d="M35.8424 124.932C37.1253 125.467 37.8819 124.203 38.6188 123.155C37.849 125.48 37.2602 127.822 37.1582 130.358C37.1056 130.003 37.0661 129.655 37.0464 129.313C36.0035 129.583 34.6449 128.045 34.6778 125.792C34.6877 125.217 34.7798 124.649 34.9377 124.094C35.1252 124.436 35.4114 124.725 35.8391 124.935L35.8424 124.932Z" fill="#2B041E"/>
<g style="mix-blend-mode:overlay" opacity="0.3">
<path d="M40.2342 126.732C40.0861 127.053 39.8164 127.434 39.4743 127.339C39.2933 127.29 39.1716 127.106 39.1387 126.919C39.1058 126.732 39.142 126.544 39.1815 126.357C39.4809 124.879 39.7802 123.401 40.0796 121.92C40.1421 121.608 40.1421 121.181 39.8394 121.085C39.5927 121.01 39.3624 121.23 39.2012 121.43L38.0005 122.899C37.8262 123.112 37.5696 123.352 37.3097 123.257C37.0235 123.151 37.0169 122.751 37.0761 122.452C37.4643 120.455 38.369 118.56 39.6848 117.006C39.9842 116.651 40.3098 116.31 40.7112 116.076C41.1125 115.843 41.5994 115.725 42.05 115.847C43.5205 116.241 43.4448 118.202 43.0665 119.331C42.5534 120.869 42.027 122.409 41.4316 123.917C41.0566 124.866 40.6585 125.805 40.2342 126.732Z" fill="white"/>
</g>
<path d="M104.517 136.585C102.27 132.999 98.6051 128.174 94.7135 126.183C90.8186 124.189 86.2921 123.168 82.0156 124.097C75.7028 125.474 70.8375 131.041 69.1236 137.262C67.413 143.483 68.4821 150.2 70.8408 156.207C73.4363 162.819 77.5812 168.817 82.8478 173.586C82.3149 173.914 81.7425 174.246 81.2096 174.575C85.2723 174.437 89.335 174.295 93.3944 174.157C93.2364 174.167 93.424 174.348 93.2661 174.361C93.9339 171.198 95.1971 168.163 96.9702 165.46C98.3781 166.56 99.9045 167.588 101.312 168.689C107.227 158.553 110.737 146.534 104.51 136.585H104.517Z" fill="url(#paint12_linear_3_167872)"/>
<path opacity="0.25" d="M86.2785 163.075C92.6538 159.564 91.555 150.781 90.8971 144.412C94.2361 152.256 95.473 161.85 100.868 168.347C99.585 167.375 98.2329 166.442 96.973 165.457C95.2361 168.101 93.9893 171.067 93.3117 174.157C89.2786 174.295 85.2423 174.433 81.2092 174.571C81.7421 174.243 82.3145 173.911 82.8474 173.583C79.3506 170.416 76.3504 166.705 73.9688 162.632C77.5347 164.931 81.6664 165.585 86.2785 163.072V163.075Z" fill="#2B041E"/>
<path d="M59.0439 175.199C59.7446 175.176 60.4453 175.156 61.1493 175.14C61.8335 175.123 62.5178 175.107 63.202 175.097C73.3998 174.91 83.6108 175.212 93.7856 176C93.7231 175.347 93.6375 174.627 93.5717 173.974C84.0977 170.502 76.0545 166.813 66.0048 165.9C63.6001 167.884 59.8203 172.18 59.0439 175.199Z" fill="url(#paint13_linear_3_167872)"/>
<path d="M61.1494 175.14C61.8337 175.123 62.5179 175.107 63.2021 175.097C63.8699 172.742 64.7779 170.502 65.8963 168.301C64.0048 170.347 62.4028 172.656 61.1494 175.143V175.14Z" fill="#DB7B3A"/>
<g style="mix-blend-mode:overlay" opacity="0.4">
<path d="M85.5416 171.612C79.1861 169.5 72.6167 167.858 66.0342 166.613C64.4157 167.973 62.9815 169.553 61.7808 171.293C69.6298 170.118 77.8045 169.832 85.5416 171.612Z" fill="white"/>
</g>
<g style="mix-blend-mode:overlay" opacity="0.2">
<path d="M71.3076 152.913C70.4095 148.902 69.8667 144.757 70.3503 140.675C70.8339 136.592 72.4063 132.549 75.2847 129.609C78.1631 126.669 82.4363 124.968 86.4891 125.697C78.2289 131.99 72.5938 142.619 71.3109 152.913H71.3076Z" fill="white"/>
</g>
<path opacity="0.5" d="M74.5021 151.136C74.6172 153.688 75.9166 156.257 78.1042 158.388L78.6272 158.901L78.6371 158.28C78.67 156.799 78.7062 153.82 78.7161 152.338L77.943 152.424C78.5878 153.491 79.3608 154.526 80.2359 155.514C81.4004 156.864 82.9136 158.152 84.4071 159.334C83.4728 156.92 81.9826 153.107 81.0122 150.689L80.3806 150.89L82.4991 152.798C82.9893 153.235 84.8545 154.897 85.3084 155.301C84.5946 153.186 83.8478 151.067 83.0682 148.958C83.5452 150.85 84.0551 152.739 84.5847 154.628L85.0124 154.499L82.9827 152.545C82.282 151.875 80.5385 150.21 79.8543 149.559C80.1536 150.371 81.3543 153.632 81.6767 154.506L83.0748 158.208L83.815 157.952C82.2491 156.654 80.8642 155.242 79.7358 153.744C79.0976 152.923 78.42 151.819 77.8772 150.962C77.9101 153.041 77.9726 156.171 78.0318 158.257L78.5647 158.149C76.3113 156.119 74.9001 153.652 74.4922 151.139L74.5021 151.136Z" fill="#6F340A"/>
<path opacity="0.5" d="M96.0029 129.845C94.8252 128.252 92.6771 127.238 89.9927 126.942L89.3513 126.87L89.6046 127.274C90.2066 128.246 91.4434 130.187 92.0652 131.149L92.6573 130.713C91.6803 130.341 90.6112 130.056 89.4796 129.849C87.9598 129.553 86.1801 129.468 84.4629 129.441C86.2492 130.538 89.0782 132.266 90.8974 133.347L91.325 132.907L88.7887 132.723C88.2065 132.683 85.9827 132.529 85.4399 132.493C86.9202 133.508 88.4269 134.506 89.9566 135.482C88.7657 134.496 87.5453 133.527 86.3149 132.572L86.0189 132.864L88.4992 133.123C89.3545 133.209 91.4796 133.426 92.3119 133.508C91.7231 133.133 89.3611 131.619 88.7262 131.215L86.0156 129.514L85.5221 130.046C87.3479 130.111 89.0716 130.338 90.6309 130.749C91.4961 130.962 92.5192 131.34 93.3251 131.629C92.4139 130.302 91.0355 128.315 90.098 126.994L89.7098 127.329C92.404 127.527 94.6015 128.423 95.9996 129.845H96.0029Z" fill="#6F340A"/>
<path opacity="0.2" d="M36.382 110.604C37.1617 109.964 37.9446 109.323 38.7242 108.683C37.9347 109.859 37.5005 111.261 37.4479 112.674C38.3262 112.779 39.2045 112.871 40.0828 112.95C49.8563 113.846 59.6133 113.301 68.742 110.933C78.8937 108.305 88.2658 103.431 96.003 95.7976C96.0194 95.7779 96.0392 95.7614 96.0589 95.7417C95.9833 95.1078 95.9273 94.4739 95.8911 93.8367C95.8221 92.6378 95.8319 91.4357 95.924 90.2335C83.9564 87.9048 69.4229 88.1938 57.3237 89.4847C51.6195 90.0956 45.7179 90.5094 41.1092 93.9221C41.0664 94.2111 41.0204 94.5035 40.9809 94.7925C37.0959 98.0672 34.4708 102.846 33.9214 107.908C35.0925 106.929 36.2603 105.95 37.4314 104.971C37.007 106.906 36.813 108.667 36.3886 110.601L36.382 110.604Z" fill="#2B041E"/>
<path d="M85.9531 22.1117C86.3479 22.4172 86.8479 22.069 87.2427 22.3679C87.2196 22.3613 87.292 22.5485 87.2854 22.5748C89.6112 22.6931 91.9534 22.1872 94.0522 21.1822C95.9667 20.2625 97.6773 18.9257 98.9899 17.2604C101.747 13.7656 102.681 8.91432 101.418 4.64768C101.181 3.84296 100.75 2.95284 99.9274 2.76891C99.911 2.76562 99.8978 2.76234 99.8814 2.75905C99.2826 2.64738 98.6839 2.95941 98.1675 3.29444C95.3088 5.15021 93.1969 7.94538 91.3974 10.8391C89.1901 14.3897 87.3611 18.1768 85.9564 22.1117H85.9531Z" fill="url(#paint14_linear_3_167872)"/>
<path d="M85.9531 22.1118C86.3479 22.4173 86.8479 22.0691 87.2427 22.368C87.2196 22.3615 87.292 22.5487 87.2854 22.575C89.6112 22.6932 91.9534 22.1874 94.0522 21.1823C93.2166 18.5251 93.085 15.6478 93.7002 12.9282C94.5916 9.00642 96.9635 5.5642 99.8814 2.76247C99.2826 2.6508 98.6839 2.96283 98.1675 3.29785C95.3088 5.15363 93.1969 7.94879 91.3974 10.8425C89.1901 14.3931 87.3611 18.1802 85.9564 22.1151L85.9531 22.1118Z" fill="url(#paint15_linear_3_167872)"/>
<path opacity="0.2" d="M91.394 10.839C92.9401 8.35592 94.7165 5.94176 96.9995 4.13525C94.3514 7.09793 92.6605 9.66974 91.3085 13.6441C90.4335 16.3637 90.4795 19.7435 91.9302 22C90.4269 22.45 88.8512 22.6536 87.282 22.5748C87.2886 22.5485 87.2195 22.3613 87.2392 22.3679C86.8445 22.069 86.3445 22.4171 85.9497 22.1117C87.3544 18.1768 89.1834 14.3929 91.3907 10.839H91.394Z" fill="#2B041E"/>
<g style="mix-blend-mode:overlay" opacity="0.4">
<path d="M100.404 3.9021C101.296 5.9878 101.598 8.32312 101.259 10.5665C100.921 12.8098 99.9501 14.9547 98.4829 16.6856C100.22 12.8 100.786 8.13918 100.404 3.9021Z" fill="white"/>
</g>
<path d="M1.55131 55.7063C1.75527 55.3319 1.93619 55.0133 2.07107 54.7965C3.35731 52.6878 4.6896 50.6645 6.07124 48.7233C14.0716 37.477 23.7266 28.9306 36.0495 21.6224C42.9676 17.52 50.662 14.6263 58.613 13.3289C57.0932 11.299 55.9714 8.97027 55.3464 6.51342C57.8794 8.72065 61.0045 10.2381 64.3073 10.8589C62.0309 7.67287 60.59 3.89562 60.1624 0.00341797C62.6329 3.47192 66.0409 6.26379 69.9259 8.0079C70.0181 8.00133 69.0509 3.33396 69.2154 1.23841C71.3635 6.34262 74.9788 10.8162 79.4954 14.0285C84.7819 15.5821 89.4992 18.5086 92.825 23.4815C100.069 34.3172 101.97 48.9795 99.6246 61.6284C99.493 62.3411 97.437 69.3964 97.4863 69.4325C97.7265 69.5967 97.96 69.7675 98.1936 69.9449C102.881 73.4824 105.72 79.0267 105.302 84.9094C104.187 83.7368 103.069 82.5642 101.95 81.3916C104.171 86.7848 103.013 93.4065 99.0917 97.729C99.0917 96.0539 99.0917 94.3787 99.095 92.7069C98.3811 97.821 94.6803 102.406 89.8248 104.186C90.4301 103.254 91.0321 102.321 91.6374 101.385C81.2784 106.959 68.8174 107.008 57.1754 105.323C44.2275 103.454 31.3421 99.5027 20.6804 91.9285C10.6668 84.8141 2.77176 74.2247 0.396655 62.2393C0.242043 61.4674 0.113748 60.6857 0.00519087 59.9007C-0.113235 59.0204 0.837463 57.0201 1.54473 55.7129L1.55131 55.7063Z" fill="url(#paint16_linear_3_167872)"/>
<path d="M0.0119757 59.8941C0.120533 60.6791 0.248828 61.4575 0.40344 62.2327C1.47585 67.6456 3.67332 72.7728 6.68331 77.4238C6.83135 77.657 6.98596 77.8869 7.14386 78.1201C10.7427 83.4805 15.4205 88.184 20.6872 91.9218C31.3488 99.4927 44.2343 103.447 57.1822 105.316C68.8241 106.998 81.2852 106.952 91.6442 101.378C91.0389 102.314 90.4369 103.247 89.8316 104.18C94.6871 102.4 98.3879 97.8143 99.1017 92.7003C99.1017 94.3754 99.1017 96.0505 99.0984 97.7224C103.016 93.3999 104.178 86.7782 101.957 81.3849C103.076 82.5575 104.194 83.7301 105.309 84.9027C105.724 79.0233 102.888 73.4757 98.2004 69.9382C91.0784 66.7719 83.1504 65.5041 75.3902 66.4073C75.4001 58.7379 74.9132 50.9075 72.071 43.78C69.232 36.6558 63.6923 30.2574 56.34 28.0338C48.2509 25.5901 39.4084 28.5298 32.339 33.1479C22.8649 39.3327 15.4436 48.5886 11.4763 59.1715C9.06829 56.9117 5.1043 56.0051 1.56138 55.703C0.850827 57.0102 -0.0998712 59.0105 0.0218446 59.8908L0.0119757 59.8941Z" fill="url(#paint17_linear_3_167872)"/>
<path d="M64.3137 39.6709C64.521 40.1702 64.7019 40.6924 64.692 41.2344C64.6855 41.7731 64.4585 42.3347 64.0078 42.6303C63.3466 43.0639 62.465 42.811 61.7347 42.499C59.33 41.4643 57.1522 39.9074 55.4022 37.963C54.81 37.3061 54.2541 36.5867 53.9778 35.7459C53.7014 34.905 53.7376 33.923 54.2574 33.2069C55.7213 31.1968 58.399 33.1774 59.8563 34.189C61.8136 35.5521 63.3894 37.4703 64.3105 39.6742L64.3137 39.6709Z" fill="url(#paint18_linear_3_167872)"/>
<path opacity="0.13" d="M54.2607 33.2037C54.7015 32.5993 55.2541 32.3563 55.8496 32.3398C55.6752 35.8642 58.399 39.3622 62.0768 40.0848C62.886 40.2885 63.6986 40.2425 64.4387 39.9896C64.5868 40.3903 64.6986 40.8074 64.692 41.2344C64.6855 41.7731 64.4585 42.3348 64.0078 42.6304C63.3466 43.0639 62.465 42.811 61.7347 42.499C59.33 41.4644 57.1522 39.9075 55.4022 37.963C54.81 37.3061 54.2541 36.5868 53.9778 35.7459C53.7014 34.9051 53.7376 33.923 54.2574 33.207L54.2607 33.2037Z" fill="#2B041E"/>
<g style="mix-blend-mode:overlay" opacity="0.15">
<path d="M70.9491 74.3987C72.6828 75.2363 74.344 76.3103 74.9855 77.8344C75.9362 80.0876 73.7519 81.9269 71.39 82.597C66.9819 83.8517 61.8895 83.7433 57.3038 82.3539C53.3859 81.1649 46.7113 78.1924 48.0501 74.0801C49.0304 71.0747 53.3497 70.8251 56.5998 70.8908C61.6001 70.9959 66.5378 72.2604 70.9459 74.3954L70.9491 74.3987Z" fill="white"/>
</g>
<path opacity="0.5" d="M60.2675 15.9007C56.6523 15.6905 52.9778 16.666 49.8987 18.5842L49.1585 19.044L50.0368 19.1327C52.129 19.3528 56.343 19.7699 58.4385 19.9703L58.3431 19.1852C56.8135 19.6944 55.3265 20.3348 53.9021 21.087C51.958 22.0789 50.0895 23.4322 48.3657 24.7789C51.8099 24.1515 57.2477 23.1464 60.6985 22.4797L60.4353 21.8227L57.672 23.7015C57.0404 24.1351 54.6291 25.7905 54.0436 26.1945C57.0602 25.7478 60.08 25.2715 63.0835 24.7591C60.3926 24.9956 57.7049 25.2683 55.0206 25.5573L55.1851 26.004L58.0142 24.2205C58.9813 23.603 61.3926 22.0691 62.3367 21.468C61.1821 21.6651 56.5305 22.4534 55.2838 22.6636L50.0039 23.5931L50.3428 24.3683C52.2277 22.9658 54.264 21.7603 56.422 20.8177C57.5997 20.2856 59.1853 19.7436 60.4156 19.3101C57.4747 19.0801 53.0468 18.7418 50.0928 18.5382L50.2309 19.0867C53.1718 17.0864 56.7049 15.9894 60.2708 15.9007H60.2675Z" fill="#6F340A"/>
<path opacity="0.5" d="M94.4273 36.9415C94.7234 41.0801 94.3714 45.258 93.3713 49.2816H93.8714C93.0983 45.8394 92.7266 42.2822 91.4699 38.9451L90.5061 36.3733L90.7396 39.1126C90.9304 41.3461 90.7495 43.6092 90.2232 45.7868C89.7067 47.9645 88.8448 50.0633 87.6639 51.9618L88.4632 52.1129C87.8448 48.628 87.4763 45.0708 86.5454 41.6286L85.7098 38.5181L85.7164 41.7337C85.7263 45.3927 84.3084 49.0418 81.8511 51.7615L82.4268 52.0571C83.0288 49.0616 82.9071 45.9281 82.0781 42.9917L81.782 41.9439L81.657 43.018C81.2919 46.1777 79.7556 49.1929 77.4595 51.3969C79.9267 49.2882 81.5715 46.2795 82.0847 43.0738L81.6636 43.1001C82.0189 44.5453 82.2097 46.0266 82.2228 47.508C82.259 49.3867 81.9498 51.2819 81.5024 53.1016L82.3445 52.2115C84.9993 49.4097 86.5224 45.5898 86.5585 41.7304L85.7296 41.8355C86.6408 45.2482 86.9665 48.7758 87.6046 52.2574L87.8119 53.3709C89.2889 51.1046 90.4502 48.6083 91.0423 45.9675C91.562 43.6979 91.7199 41.3461 91.493 39.0338L90.766 39.2013C91.3943 40.8206 91.8482 42.5056 92.2233 44.2201C92.6641 46.273 93.0819 48.3915 93.6477 50.4378L93.8746 49.3867C94.7628 45.3073 94.9569 41.0702 94.4306 36.9284L94.4273 36.9415Z" fill="#6F340A"/>
<g style="mix-blend-mode:overlay" opacity="0.2">
<path d="M64.1167 16.0386C61.9093 14.439 60.0211 12.3993 58.5967 10.0771C61.5869 12.176 65.3503 13.5785 68.9787 14.035C67.3997 11.8048 66.176 9.32168 65.3733 6.71045C68.0642 8.96037 70.7518 11.2136 73.4427 13.4635L71.7683 7.998C73.1532 9.53517 74.5349 11.0723 75.9198 12.6095C75.1763 12.0774 74.4921 11.8278 73.7486 11.2924C73.9723 12.7376 74.4033 14.15 75.0316 15.4704C72.6697 14.8003 70.4919 13.4996 68.7846 11.7358C69.5347 13.0168 70.084 14.37 70.8373 15.651C67.8339 15.4441 64.87 14.6722 62.1495 13.3847C62.5113 14.4489 63.2449 15.3291 64.1199 16.0353L64.1167 16.0386Z" fill="white"/>
</g>
<g style="mix-blend-mode:overlay" opacity="0.2">
<path d="M12.9629 43.445C21.8514 31.5516 34.5164 22.5125 48.6651 17.9667C36.4836 26.812 25.3647 34.9085 12.9629 43.445Z" fill="white"/>
</g>
<path d="M24.9076 76.3071C24.6905 75.0655 24.2299 73.9258 23.7003 72.7992C23.1509 71.6824 22.5423 70.6149 21.7002 69.6755C21.914 70.9171 22.3746 72.0601 22.9075 73.1834C23.4601 74.2969 24.0687 75.3677 24.9076 76.3071Z" fill="#984F1A"/>
<path d="M86.976 75.5319C89.5254 77.9624 91.1702 81.3488 91.5683 84.8534L91.7558 86.5548L90.9827 85.0144C90.3215 83.6973 89.4366 82.5017 88.4004 81.4671C87.3641 80.4291 86.1634 79.5587 84.8542 78.9084L85.4134 78.3303C86.0944 79.539 86.5483 80.8693 86.7621 82.2389C87.0483 83.8976 86.874 85.6188 86.4759 87.2479C85.443 85.9636 84.3048 84.7582 83.1534 83.556C82.2126 82.5608 81.2586 81.5656 80.377 80.4915L80.9955 80.0875C81.8211 81.8185 81.6369 83.9666 80.5086 85.5104L80.0678 86.1114C79.9954 85.044 79.8441 83.9568 79.4822 82.9451C79.2158 82.1535 78.8539 81.3882 78.4032 80.6788L78.6664 80.5605C78.9526 81.8546 78.7223 83.2473 78.0381 84.3706C78.6072 83.2177 78.7355 81.8579 78.3802 80.6328L78.1466 79.8215L78.6434 80.5145C79.6599 81.9269 80.3211 83.5922 80.5546 85.3231L80.048 85.195C80.9724 83.8057 81.0941 81.8973 80.3244 80.4226L78.8539 77.5814L80.9428 80.0186C82.7258 82.0911 84.7917 83.9042 86.5648 86.0096L85.8114 86.2001C86.068 84.9454 86.0878 83.6414 85.9003 82.3736C85.7095 81.1058 85.295 79.8675 84.6732 78.7442L83.9956 77.519L85.2325 78.1628C87.9826 79.5949 90.236 81.9433 91.5321 84.7516L90.9465 84.9159C90.6867 81.4638 89.259 78.1497 86.9694 75.5384L86.976 75.5319Z" fill="#DD8345"/>
<path opacity="0.13" d="M20.322 84.676C36.4213 95.9552 71.0314 106.844 82.045 86.7289C84.4004 82.863 85.4037 75.6665 77.479 70.5754C67.8635 64.3971 51.0338 62.1735 39.9675 61.8549C54.0043 60.1732 71.8702 62.6169 81.0055 49.1075C88.0025 38.8531 87.1011 24.1777 79.2488 14.8101L80.1436 14.2222C85.1668 15.8217 89.6407 18.7056 92.8316 23.4781C100.075 34.3138 101.977 48.9761 99.6313 61.625C99.4997 62.3377 97.4437 69.393 97.493 69.4291C97.7332 69.5933 97.9667 69.7641 98.2003 69.9415C102.888 73.479 105.727 79.0233 105.309 84.906C104.194 83.7334 103.076 82.5608 101.957 81.3882C104.178 86.7814 103.02 93.4031 99.0984 97.7256C99.0984 96.0505 99.0984 94.3753 99.1017 92.7035C98.3878 97.8176 94.687 102.403 89.8315 104.183C90.4368 103.25 91.0388 102.317 91.6441 101.381C81.2851 106.955 68.824 107.004 57.1821 105.32C44.2342 103.451 31.3488 99.4993 20.6871 91.9251C10.6735 84.8107 2.77845 74.2213 0.403351 62.2359C0.363875 62.0355 0.32769 61.8319 0.291504 61.6283C8.34448 78.1233 11.6703 78.6817 20.322 84.6793V84.676Z" fill="#2B041E"/>
<g opacity="0.5">
<path d="M57.3398 61.3852C54.6423 68.8641 47.7571 71.8564 41.1516 69.4816C34.5493 67.1069 30.7268 60.2619 33.4243 52.7829C36.1217 45.304 43.6648 41.1687 50.2671 43.5467C56.8693 45.9215 60.0372 53.9095 57.3365 61.3885L57.3398 61.3852Z" fill="#C16A32"/>
</g>
<path d="M55.7942 60.904C59.2384 54.9717 57.6764 47.6426 52.3055 44.534C46.9347 41.4254 39.7887 43.7145 36.3446 49.6468C32.9004 55.5791 34.4624 62.9082 39.8332 66.0168C45.2041 69.1254 52.3501 66.8364 55.7942 60.904Z" fill="#C1BCB4"/>
<path d="M55.6941 60.822C59.1109 54.9367 57.5612 47.6657 52.2327 44.5816C46.9043 41.4976 39.8149 43.7684 36.3981 49.6537C32.9813 55.5389 34.531 62.8099 39.8594 65.894C45.1879 68.978 52.2773 66.7072 55.6941 60.822Z" fill="#C3BEB6"/>
<path d="M55.5926 60.7427C58.983 54.9029 57.4463 47.6887 52.1603 44.6292C46.8743 41.5697 39.8407 43.8236 36.4503 49.6633C33.06 55.503 34.5967 62.7173 39.8827 65.7767C45.1687 68.8362 52.2023 66.5824 55.5926 60.7427Z" fill="#C5C0B9"/>
<path d="M55.4925 60.6606C58.8555 54.8679 57.3311 47.7118 52.0875 44.6769C46.8439 41.642 39.8669 43.8775 36.5039 49.6702C33.1408 55.4628 34.6653 62.619 39.9089 65.6539C45.1524 68.6888 52.1294 66.4532 55.4925 60.6606Z" fill="#C7C2BB"/>
<path d="M55.3927 60.5817C58.7284 54.8361 57.2149 47.7373 52.0122 44.7261C46.8095 41.7148 39.8877 43.9314 36.552 49.6769C33.2163 55.4225 34.7298 62.5213 39.9325 65.5326C45.1352 68.5438 52.0569 66.3273 55.3927 60.5817Z" fill="#C9C5BE"/>
<path d="M55.2927 60.4996C58.602 54.7995 57.1015 47.7575 51.9412 44.7708C46.781 41.7841 39.915 43.9837 36.6058 49.6838C33.2965 55.3838 34.797 62.4258 39.9572 65.4125C45.1175 68.3992 51.9834 66.1996 55.2927 60.4996Z" fill="#CBC7C0"/>
<path d="M55.1911 60.4203C58.473 54.7674 56.9848 47.7834 51.8669 44.8213C46.7491 41.8592 39.9398 44.0405 36.6578 49.6935C33.3759 55.3464 34.8641 62.3304 39.982 65.2925C45.0998 68.2546 51.9091 66.0733 55.1911 60.4203Z" fill="#CDC9C3"/>
<path d="M55.0943 60.3383C58.349 54.7324 56.8729 47.8065 51.7976 44.8689C46.7222 41.9314 39.9694 44.0945 36.7148 49.7004C33.4602 55.3062 34.9362 62.2321 40.0116 65.1697C45.0869 68.1072 51.8397 65.9441 55.0943 60.3383Z" fill="#CFCBC5"/>
<path d="M54.9947 60.2594C58.222 54.7006 56.7582 47.8328 51.7253 44.9198C46.6923 42.0068 39.9961 44.1516 36.7688 49.7104C33.5415 55.2692 35.0053 62.137 40.0382 65.05C45.0712 67.963 51.7674 65.8182 54.9947 60.2594Z" fill="#D1CDC7"/>
<path d="M54.8918 60.1755C58.0926 54.6623 56.6419 47.8513 51.6514 44.9628C46.6609 42.0744 40.0205 44.2023 36.8196 49.7155C33.6187 55.2288 35.0695 62.0398 40.06 64.9282C45.0505 67.8167 51.6909 65.6888 54.8918 60.1755Z" fill="#D3CFCA"/>
<path d="M54.7916 60.0935C57.9652 54.6273 56.5266 47.8744 51.5786 45.0105C46.6305 42.1466 40.0467 44.2562 36.8731 49.7224C33.6996 55.1886 35.1382 61.9415 40.0862 64.8054C45.0343 67.6693 51.6181 65.5597 54.7916 60.0935Z" fill="#D5D2CC"/>
<path d="M54.69 60.0142C57.8362 54.5951 56.4099 47.9003 51.5043 45.061C46.5987 42.2216 40.0714 44.313 36.9252 49.7321C33.779 55.1512 35.2053 61.846 40.1109 64.6854C45.0165 67.5247 51.5438 65.4333 54.69 60.0142Z" fill="#D7D4CF"/>
<path d="M54.5931 59.9337C57.712 54.5617 56.2966 47.9242 51.4319 45.1086C46.5671 42.2929 40.0951 44.3652 36.9763 49.7373C33.8574 55.1093 35.2728 61.7468 40.1375 64.5625C45.0023 67.3781 51.4743 65.3058 54.5931 59.9337Z" fill="#D9D6D1"/>
<path d="M54.4932 59.8516C57.5856 54.5251 56.1832 47.9444 51.3609 45.1533C46.5386 42.3622 40.1224 44.4176 37.03 49.7441C33.9376 55.0707 35.3399 61.6513 40.1622 64.4424C44.9846 67.2335 51.4007 65.1781 54.4932 59.8516Z" fill="#DBD8D3"/>
<path d="M54.393 59.7728C57.4581 54.4934 56.068 47.9708 51.2881 45.2043C46.5082 42.4377 40.1486 44.4749 37.0835 49.7543C34.0184 55.0338 35.4085 61.5563 40.1884 64.3229C44.9683 67.0894 51.3279 65.0523 54.393 59.7728Z" fill="#DDDAD6"/>
<path d="M54.2904 59.6891C57.3282 54.4567 55.9503 47.9922 51.2129 45.2502C46.4754 42.5083 40.1724 44.5271 37.1346 49.7595C34.0969 54.9918 35.4747 61.4563 40.2122 64.1983C44.9496 66.9403 51.2526 64.9214 54.2904 59.6891Z" fill="#DFDCD8"/>
<path d="M54.1885 59.6098C57.1998 54.4229 55.835 48.0152 51.14 45.2978C46.445 42.5804 40.1977 44.5823 37.1864 49.7691C34.1751 54.956 35.5399 61.3637 40.2349 64.0811C44.9299 66.7985 51.1772 64.7966 54.1885 59.6098Z" fill="#E1DFDB"/>
<path d="M54.0888 59.5276C57.0728 54.3878 55.7202 48.0382 51.0676 45.3454C46.4151 42.6525 40.2244 44.6361 37.2404 49.7759C34.2564 54.9157 35.609 61.2653 40.2616 63.9581C44.9142 66.651 51.1048 64.6673 54.0888 59.5276Z" fill="#E3E1DD"/>
<path d="M53.9887 59.4455C56.9454 54.3528 55.605 48.0613 50.9948 45.393C46.3847 42.7247 40.2506 44.6901 37.294 49.7828C34.3373 54.8755 35.6777 61.167 40.2878 63.8353C44.8979 66.5036 51.032 64.5382 53.9887 59.4455Z" fill="#E5E3E0"/>
<path d="M53.889 59.3634C56.8183 54.3178 55.4902 48.0844 50.9225 45.4407C46.3548 42.7969 40.2773 44.744 37.348 49.7897C34.4186 54.8353 35.7468 61.0687 40.3145 63.7124C44.8821 66.3562 50.9597 64.409 53.889 59.3634Z" fill="#E7E5E2"/>
<path d="M53.7903 59.2874C56.6933 54.2873 55.3768 48.11 50.85 45.4899C46.3232 42.8698 40.3002 44.7992 37.3973 49.7993C34.4944 54.7994 35.8108 60.9768 40.3376 63.5968C44.8644 66.2169 50.8874 64.2875 53.7903 59.2874Z" fill="#E9E7E4"/>
<path d="M53.6907 59.2052C56.5663 54.2522 55.2621 48.1329 50.7777 45.5374C46.2933 42.9419 40.3269 44.853 37.4513 49.8061C34.5757 54.7591 35.8799 60.8784 40.3643 63.4739C44.8487 66.0694 50.8151 64.1583 53.6907 59.2052Z" fill="#EBE9E7"/>
<path d="M53.5905 59.1232C56.4388 54.2172 55.1468 48.156 50.7049 45.5851C46.263 43.0141 40.3531 44.907 37.5049 49.8129C34.6566 54.7189 35.9486 60.7801 40.3905 63.351C44.8324 65.922 50.7423 64.0291 53.5905 59.1232Z" fill="#EDECE9"/>
<path d="M53.4909 59.0411C56.3118 54.1822 55.0321 48.1791 50.6326 45.6327C46.2331 43.0863 40.3798 44.961 37.5589 49.8198C34.738 54.6787 36.0177 60.6818 40.4172 63.2282C44.8167 65.7746 50.67 63.8999 53.4909 59.0411Z" fill="#EFEEEC"/>
<path d="M53.3909 58.9589C56.1854 54.1455 54.9187 48.1992 50.5616 45.6774C46.2046 43.1556 40.4071 45.0132 37.6126 49.8265C34.8181 54.6399 36.0848 60.5862 40.4419 63.108C44.7989 65.6298 50.5964 63.7722 53.3909 58.9589Z" fill="#F1F0EE"/>
<path d="M53.2893 58.8829C56.0564 54.1166 54.802 48.2284 50.4874 45.7311C46.1727 43.2339 40.4318 45.0733 37.6647 49.8395C34.8975 54.6058 36.152 60.494 40.4666 62.9913C44.7812 65.4885 50.5221 63.6492 53.2893 58.8829Z" fill="#F3F2F0"/>
<path d="M53.1862 58.7991C55.926 54.0799 54.6838 48.2498 50.4116 45.7771C46.1394 43.3044 40.4551 45.1255 37.7153 49.8447C34.9755 54.5639 36.2177 60.394 40.4899 62.8667C44.762 65.3394 50.4464 63.5183 53.1862 58.7991Z" fill="#F5F4F3"/>
<path d="M53.0862 58.717C55.7996 54.0433 54.5704 48.27 50.3407 45.8219C46.1109 43.3737 40.4824 45.1779 37.769 49.8515C35.0556 54.5252 36.2848 60.2986 40.5146 62.7467C44.7443 65.1948 50.3728 63.3907 53.0862 58.717Z" fill="#F7F6F5"/>
<path d="M52.9893 58.6365C55.6754 54.0099 54.4571 48.2939 50.2683 45.8695C46.0794 43.445 40.5061 45.2301 37.8201 49.8567C35.134 54.4833 36.3523 60.1993 40.5412 62.6238C44.73 65.0483 50.3033 63.2631 52.9893 58.6365Z" fill="#F9F9F8"/>
<path d="M52.8877 58.5573C55.5465 53.9778 54.3404 48.3198 50.194 45.9199C46.0476 43.52 40.5309 45.2869 37.8722 49.8664C35.2134 54.4459 36.4195 60.1038 40.5659 62.5038C44.7123 64.9037 50.229 63.1368 52.8877 58.5573Z" fill="#FBFBFA"/>
<path d="M52.7876 58.4785C55.419 53.9461 54.2252 48.3462 50.1212 45.9709C46.0172 43.5955 40.5571 45.3442 37.9257 49.8766C35.2943 54.409 36.4881 60.0089 40.5921 62.3842C44.6961 64.7596 50.1562 63.0109 52.7876 58.4785Z" fill="#FDFDFD"/>
<path d="M52.6847 58.3947C55.2897 53.9078 54.1089 48.3647 50.0473 46.0139C45.9857 43.6632 40.5814 45.3948 37.9765 49.8817C35.3715 54.3686 36.5523 59.9117 40.6139 62.2625C44.6754 64.6132 50.0797 62.8816 52.6847 58.3947Z" fill="white"/>
<path d="M36.3458 49.6462C35.1615 51.6859 34.5694 53.8899 34.52 56.0314C35.0628 57.4865 36.0497 58.7313 37.4379 59.5328C40.8788 61.5232 45.4613 60.0419 47.6785 56.2285C49.8957 52.4118 48.9022 47.7018 45.4613 45.7113C44.0599 44.9 42.471 44.6668 40.9282 44.9263C39.1156 46.0332 37.5169 47.6295 36.3458 49.6462Z" fill="url(#paint19_linear_3_167872)"/>
<path d="M49.4795 53.449C50.2649 52.0962 49.9447 50.4456 48.7643 49.7624C47.5839 49.0792 45.9902 49.622 45.2048 50.9748C44.4194 52.3276 44.7396 53.9782 45.9201 54.6614C47.1005 55.3446 48.6941 54.8018 49.4795 53.449Z" fill="white"/>
<path d="M38.9348 55.1511C38.4216 56.0346 37.3821 56.3894 36.6091 55.9427C35.836 55.496 35.6288 54.4186 36.1419 53.5351C36.6551 52.6515 37.6946 52.2968 38.4677 52.7435C39.2375 53.1902 39.448 54.2676 38.9348 55.1511Z" fill="white"/>
<path d="M6.98242 77.8606L13.4366 87.0213L15.8446 86.1706L15.8282 86.0425L14.9795 79.6901L14.7755 78.176C14.6472 78.2154 14.5156 78.2482 14.3873 78.2811C12.4399 77.4698 10.4234 76.7373 8.4792 75.9293C8.44301 75.8702 8.40683 75.8111 8.37064 75.752L6.98571 77.8606H6.98242Z" fill="white"/>
<g opacity="0.7">
<path d="M6.98242 77.8606L13.4366 87.0213L15.8446 86.1706L15.8282 86.0425C15.2032 86.1377 14.5683 86.1476 13.963 85.9472C12.1274 85.2279 10.9069 83.2703 11.6537 81.1616C12.2524 79.6179 13.6307 79.3288 14.9795 79.6901L14.7755 78.176C14.6472 78.2154 14.5156 78.2482 14.3873 78.2811C12.4399 77.4698 10.4234 76.7373 8.4792 75.9293C8.44301 75.8702 8.40683 75.8111 8.37064 75.752L6.98571 77.8606H6.98242Z" fill="#C9C5BE"/>
</g>
<path d="M2.03174 59.2634C2.46597 64.8735 4.3246 70.3685 7.25894 75.1673C7.47934 75.5253 7.69645 75.8866 7.93002 76.2446L8.05831 76.2972C10.1209 77.1314 12.2197 77.8639 14.2888 78.6719C15.2165 78.4321 16.1212 78.1135 16.9962 77.726C19.4897 76.6158 21.7003 74.9341 23.5491 72.9436C21.4997 74.6615 19.2397 76.1526 16.7429 77.1249C15.9238 77.4501 15.0718 77.6931 14.2198 77.9033L14.4566 77.9197C12.4499 77.0625 10.4005 76.3169 8.39056 75.4892L8.59452 75.6567L8.00568 74.7173C5.06805 69.9941 3.1206 64.7092 2.03174 59.2667V59.2634Z" fill="#984F1A"/>
<path d="M0.0119058 59.8941C0.120463 60.6791 0.248758 61.4575 0.40337 62.2327C5.26213 63.3199 10.5518 63.0505 15.2724 61.4904C13.9401 56.2942 10.5781 51.6432 6.07138 48.7233C4.68974 50.6677 3.36073 52.6877 2.0712 54.7964C1.47578 55.7719 -0.139417 58.7609 0.0119058 59.8941Z" fill="url(#paint20_linear_3_167872)"/>
<path opacity="0.7" d="M15.1476 61.0437C15.1903 61.1915 15.2364 61.3393 15.2726 61.4904C10.552 63.0506 5.25899 63.3232 0.403523 62.2327C0.248911 61.4608 0.120616 60.6791 0.012059 59.8941C-0.0668918 59.3095 0.327862 58.2288 0.808146 57.1876C4.85437 60.3145 10.1276 61.8024 15.1476 61.0437Z" fill="#0C0126"/>
<g style="mix-blend-mode:overlay" opacity="0.6">
<path d="M1.93994 56.9182C3.08473 54.3333 4.5519 51.8928 6.29539 49.6692C8.9863 51.6169 11.2561 54.3497 12.6411 57.3649C10.766 56.038 8.84484 54.5632 6.96976 53.2362C5.15718 54.1263 3.43343 55.565 1.93994 56.9182Z" fill="white"/>
</g>
</g>
<defs>
<linearGradient id="paint0_linear_3_167872" x1="130.286" y1="143.6" x2="107.435" y2="145.514" gradientUnits="userSpaceOnUse">
<stop stop-color="#C16A32"/>
<stop offset="1" stop-color="#984F1A"/>
</linearGradient>
<linearGradient id="paint1_linear_3_167872" x1="64.2197" y1="103.658" x2="22.701" y2="117.089" gradientUnits="userSpaceOnUse">
<stop stop-color="#984F1A"/>
<stop offset="1" stop-color="#C16A32"/>
</linearGradient>
<linearGradient id="paint2_linear_3_167872" x1="36.0728" y1="125.556" x2="23.3156" y2="125.556" gradientUnits="userSpaceOnUse">
<stop stop-color="#EB985E"/>
<stop offset="0.15" stop-color="#EC9C65"/>
<stop offset="0.36" stop-color="#EFA978"/>
<stop offset="0.62" stop-color="#F5BE98"/>
<stop offset="0.91" stop-color="#FDDBC5"/>
<stop offset="0.96" stop-color="#FFE1CD"/>
</linearGradient>
<linearGradient id="paint3_linear_3_167872" x1="64.7975" y1="159.088" x2="44.9847" y2="123.316" gradientUnits="userSpaceOnUse">
<stop stop-color="#9D521D"/>
<stop offset="1" stop-color="#C16A32"/>
</linearGradient>
<linearGradient id="paint4_linear_3_167872" x1="46.6866" y1="165.172" x2="46.4545" y2="175.195" gradientUnits="userSpaceOnUse">
<stop stop-color="#FFE1CD"/>
<stop offset="1" stop-color="#EB985E"/>
</linearGradient>
<linearGradient id="paint5_linear_3_167872" x1="118.793" y1="130.292" x2="39.1022" y2="130.292" gradientUnits="userSpaceOnUse">
<stop stop-color="#984F1A"/>
<stop offset="1" stop-color="#C16A32"/>
</linearGradient>
<linearGradient id="paint6_linear_3_167872" x1="120.701" y1="156.936" x2="84.8908" y2="95.3129" gradientUnits="userSpaceOnUse">
<stop offset="0.17" stop-color="#FFC498"/>
<stop offset="0.22" stop-color="#F9B888"/>
<stop offset="0.32" stop-color="#F3A975"/>
<stop offset="0.43" stop-color="#EE9F68"/>
<stop offset="0.58" stop-color="#EB9960"/>
<stop offset="0.85" stop-color="#EB985E"/>
</linearGradient>
<linearGradient id="paint7_linear_3_167872" x1="117.365" y1="160.26" x2="81.0395" y2="97.7494" gradientUnits="userSpaceOnUse">
<stop stop-color="#683527"/>
<stop offset="0.33" stop-color="#4C2419"/>
<stop offset="0.76" stop-color="#2E1109"/>
<stop offset="1" stop-color="#230B04"/>
</linearGradient>
<linearGradient id="paint8_linear_3_167872" x1="121.326" y1="156.303" x2="85.7651" y2="95.103" gradientUnits="userSpaceOnUse">
<stop stop-color="#683527"/>
<stop offset="0.33" stop-color="#4C2419"/>
<stop offset="0.76" stop-color="#2E1109"/>
<stop offset="1" stop-color="#230B04"/>
</linearGradient>
<linearGradient id="paint9_linear_3_167872" x1="69.5018" y1="101.848" x2="50.4229" y2="162.701" gradientUnits="userSpaceOnUse">
<stop offset="0.08" stop-color="#EB985E"/>
<stop offset="1" stop-color="#FFE1CD"/>
</linearGradient>
<linearGradient id="paint10_linear_3_167872" x1="81.7087" y1="117.186" x2="38.1883" y2="113.962" gradientUnits="userSpaceOnUse">
<stop stop-color="#984F1A"/>
<stop offset="1" stop-color="#C16A32"/>
</linearGradient>
<linearGradient id="paint11_linear_3_167872" x1="45.596" y1="129.119" x2="37.1728" y2="117.384" gradientUnits="userSpaceOnUse">
<stop stop-color="#EB985E"/>
<stop offset="0.15" stop-color="#EC9C65"/>
<stop offset="0.36" stop-color="#EFA978"/>
<stop offset="0.62" stop-color="#F5BE98"/>
<stop offset="0.91" stop-color="#FDDBC5"/>
<stop offset="0.96" stop-color="#FFE1CD"/>
</linearGradient>
<linearGradient id="paint12_linear_3_167872" x1="94.8911" y1="159.758" x2="75.0751" y2="123.989" gradientUnits="userSpaceOnUse">
<stop stop-color="#9D521D"/>
<stop offset="1" stop-color="#C16A32"/>
</linearGradient>
<linearGradient id="paint13_linear_3_167872" x1="76.9427" y1="165.857" x2="76.4016" y2="175.869" gradientUnits="userSpaceOnUse">
<stop stop-color="#FFE1CD"/>
<stop offset="1" stop-color="#EB985E"/>
</linearGradient>
<linearGradient id="paint14_linear_3_167872" x1="100.98" y1="14.3975" x2="88.4764" y2="11.444" gradientUnits="userSpaceOnUse">
<stop stop-color="#FFE1CD"/>
<stop offset="0.85" stop-color="#EB985E"/>
</linearGradient>
<linearGradient id="paint15_linear_3_167872" x1="97.3361" y1="13.5429" x2="88.475" y2="11.4499" gradientUnits="userSpaceOnUse">
<stop stop-color="#683527"/>
<stop offset="0.33" stop-color="#4C2419"/>
<stop offset="0.76" stop-color="#2E1109"/>
<stop offset="1" stop-color="#230B04"/>
</linearGradient>
<linearGradient id="paint16_linear_3_167872" x1="108.999" y1="60.1176" x2="2.29197" y2="44.1647" gradientUnits="userSpaceOnUse">
<stop stop-color="#984F1A"/>
<stop offset="1" stop-color="#C16A32"/>
</linearGradient>
<linearGradient id="paint17_linear_3_167872" x1="57.9149" y1="28.2509" x2="48.3313" y2="108.437" gradientUnits="userSpaceOnUse">
<stop stop-color="#FFE1CD"/>
<stop offset="0.72" stop-color="#EB985E"/>
<stop offset="0.81" stop-color="#E99459"/>
<stop offset="0.9" stop-color="#E58B4D"/>
<stop offset="0.99" stop-color="#DD7B38"/>
<stop offset="1" stop-color="#DD7936"/>
</linearGradient>
<linearGradient id="paint18_linear_3_167872" x1="54.3754" y1="43.2255" x2="62.2301" y2="34.4566" gradientUnits="userSpaceOnUse">
<stop offset="0.4" stop-color="#984F1A"/>
<stop offset="1" stop-color="#C16A32"/>
</linearGradient>
<linearGradient id="paint19_linear_3_167872" x1="47.7995" y1="52.7278" x2="33.9151" y2="52.508" gradientUnits="userSpaceOnUse">
<stop stop-color="#683527"/>
<stop offset="0.72" stop-color="#37170E"/>
<stop offset="1" stop-color="#230B04"/>
</linearGradient>
<linearGradient id="paint20_linear_3_167872" x1="8.23733" y1="63.5543" x2="4.5223" y2="48.6497" gradientUnits="userSpaceOnUse">
<stop stop-color="#230B04"/>
<stop offset="0.24" stop-color="#2E1109"/>
<stop offset="0.67" stop-color="#4C2419"/>
<stop offset="1" stop-color="#683527"/>
</linearGradient>
<clipPath id="clip0_3_167872">
<rect width="130" height="176" fill="white"/>
</clipPath>
</defs>
</svg>
