<svg width="336" height="351" viewBox="0 0 336 351" fill="none" xmlns="http://www.w3.org/2000/svg">
<path d="M148.958 229.187C145.93 239.167 138.211 247.352 128.955 252.158C119.702 256.966 109.035 258.609 98.6114 258.183C88.5274 257.773 78.2074 255.333 70.2086 249.181C62.2097 243.029 56.9995 232.649 58.9234 222.746C60.6787 213.705 67.8793 206.233 68.6691 197.058C69.309 189.604 65.1852 182.025 58.7364 178.234C52.2841 174.441 43.8531 174.455 37.2519 177.979C30.6508 181.503 26.0039 188.327 24.8085 195.711C24.0519 200.387 24.733 205.55 27.8337 209.133C30.9361 212.713 36.8403 214.003 40.5574 211.067C34.7615 211.726 29.1695 205.916 28.8651 200.089C28.5625 194.266 32.1405 188.793 36.7863 185.269C42.6296 180.843 51.5251 179.215 57.0614 184.024C62.1672 188.457 62.3692 196.417 60.435 202.896C58.5009 209.375 54.8765 215.316 53.5736 221.946C51.1577 234.226 57.4403 247.163 67.3029 254.87C77.1654 262.578 90.0255 265.62 102.538 265.783C113.635 265.926 124.933 263.895 134.661 258.555C144.388 253.215 152.42 244.347 155.449 233.673C152.644 230.722 151.76 232.145 148.954 229.194L148.958 229.187Z" fill="url(#paint0_linear_2_163632)"/>
<g style="mix-blend-mode:overlay" opacity="0.3">
<path d="M148.958 229.187C145.931 239.167 138.211 247.352 128.955 252.158C127.691 252.815 126.397 253.412 125.084 253.952C123.787 257.367 117.824 261.002 112.98 261.771C95.0377 264.615 77.5766 261.454 66.1529 250.186C59.9172 244.036 54.5697 234.498 54.7541 225.744C54.8697 220.312 58.6072 213.243 60.2452 208.064C61.8798 202.884 63.6542 199.078 62.9226 193.698C62.1975 188.373 58.8432 183.076 53.7007 181.56L53.5148 181.926C54.7898 182.4 55.9872 183.087 57.0565 184.018C62.1623 188.451 62.3643 196.411 60.4301 202.89C58.496 209.369 54.8716 215.309 53.5686 221.94C51.1528 234.22 57.4354 247.157 67.2979 254.864C77.1605 262.571 90.0206 265.613 102.533 265.776C113.63 265.919 124.928 263.889 134.656 258.549C144.383 253.209 152.415 244.341 155.444 233.666C152.639 230.716 151.755 232.138 148.95 229.187L148.958 229.187Z" fill="black"/>
</g>
<path d="M218.374 303.041C218.374 303.041 235.493 279.103 229.691 269.725C223.887 260.35 216.232 255.958 216.232 255.958L195.27 285.813C195.27 285.813 198.342 285.676 202.608 285.044C208.014 284.239 214.91 282.972 215.136 283.921C215.537 285.619 214.137 294.08 214.137 294.08L218.379 303.04L218.374 303.041Z" fill="url(#paint1_linear_2_163632)"/>
<g style="mix-blend-mode:overlay" opacity="0.3">
<path d="M218.374 303.041C218.374 303.041 235.493 279.103 229.691 269.725C223.887 260.35 216.232 255.958 216.232 255.958L195.27 285.813C195.27 285.813 198.342 285.676 202.608 285.044C208.014 284.239 214.91 282.972 215.136 283.921C215.537 285.619 214.137 294.08 214.137 294.08L218.379 303.04L218.374 303.041Z" fill="black"/>
</g>
<path d="M214.098 294.128C214.807 297.237 217.476 306.695 218.663 309.709C219.831 312.675 220.838 314.907 221.759 316.626C222.029 317.137 222.298 317.599 222.555 318.025C223.442 319.484 224.263 320.483 225.081 321.26C225.346 321.507 225.606 321.731 225.873 321.94C226.233 322.223 226.599 322.479 226.976 322.727C228.778 318.218 229.017 314.252 227.427 310.143C225.833 306.031 215.44 294.215 214.1 294.124L214.098 294.128Z" fill="url(#paint2_linear_2_163632)"/>
<path d="M223.21 312.661C222.943 313.094 222.861 313.647 222.71 314.157C222.556 314.657 222.383 315.151 222.193 315.627C222.059 315.967 221.915 316.302 221.761 316.632C222.031 317.143 222.3 317.606 222.557 318.032C222.865 317.459 223.127 316.849 223.345 316.2C223.668 315.222 224.085 314 223.871 312.849C223.795 312.459 223.352 312.433 223.21 312.661Z" fill="#985119"/>
<path d="M226.694 313.728C226.49 315.626 226.314 317.501 225.8 319.272C225.6 319.956 225.362 320.621 225.084 321.262C225.349 321.51 225.609 321.733 225.876 321.943C226.944 319.536 227.553 316.723 227.287 313.895C227.253 313.526 226.737 313.346 226.694 313.728Z" fill="#985119"/>
<g style="mix-blend-mode:overlay" opacity="0.2">
<path d="M214.452 294.276C217.522 303.482 221.946 312.299 228.005 319.549C227.756 320.586 227.414 321.642 226.978 322.732C226.6 322.483 226.234 322.228 225.874 321.945C225.607 321.735 225.347 321.512 225.082 321.264C224.263 320.491 223.442 319.492 222.556 318.029C222.297 317.607 222.03 317.141 221.76 316.63C220.839 314.911 219.832 312.679 218.664 309.713C217.477 306.699 214.808 297.242 214.1 294.132C214.184 294.136 214.302 294.187 214.454 294.282L214.452 294.276Z" fill="black"/>
</g>
<path d="M217.056 246.679C220.901 246.431 224.041 243.511 226.287 240.383C232.424 231.832 234.281 220.362 231.152 210.315C229.028 210.373 227.428 210.307 225.418 210.996C220.433 217.083 214.59 222.2 207.904 226.346C211.019 233.037 213.943 239.984 217.058 246.675L217.056 246.679Z" fill="url(#paint3_linear_2_163632)"/>
<g style="mix-blend-mode:overlay" opacity="0.7">
<path d="M217.056 246.679C220.901 246.431 224.041 243.511 226.287 240.383C232.424 231.832 234.281 220.362 231.152 210.315C229.028 210.373 227.428 210.307 225.418 210.996C220.433 217.083 214.59 222.2 207.904 226.346C211.019 233.037 213.943 239.984 217.058 246.675L217.056 246.679Z" fill="black"/>
</g>
<path d="M162.973 282.606C148.034 277.44 136.373 264.904 136.008 249.19C135.835 241.745 143.479 233.196 149.422 224.524C160.747 208 171.264 191.082 173.166 190.368C186.259 185.449 211.71 174.296 219.731 183.19C220.553 184.103 221.195 185.225 221.617 186.59C224.832 196.93 223.627 225.953 220.05 248.592C220.05 248.592 220.049 248.594 220.048 248.596C218.67 257.304 216.944 265.065 214.983 270.453C207.421 291.232 184.576 290.072 162.967 282.6L162.973 282.606Z" fill="url(#paint4_linear_2_163632)"/>
<path d="M172.862 238.519C172.375 240.503 171.932 242.485 171.547 244.448C169.061 257.105 174.075 268.597 181.422 274.118C187.579 278.747 195.859 278.261 202.855 273.405C211.409 267.468 216.259 256.304 218.555 244.397C220.652 233.523 221.515 222.356 221.341 211.556C221.154 199.942 216.629 186.54 207.531 184.985C199.155 183.55 191.796 193.503 186.855 202.545C181.03 213.209 175.959 225.985 172.862 238.519Z" fill="url(#paint5_linear_2_163632)"/>
<g style="mix-blend-mode:overlay" opacity="0.3">
<path d="M211.878 262.776C211.546 260.848 211.217 258.922 210.887 256.991C209.883 259.999 208.876 263.005 207.871 266.017C207.249 262.182 206.626 258.347 206.007 254.514C204.485 258.431 202.966 262.35 201.444 266.267C201.152 261.688 200.862 257.106 200.57 252.527C198.348 256.275 196.13 260.021 193.908 263.769C193.962 259.44 193.622 255.119 192.895 250.892C190.051 256.87 187.206 262.851 184.359 268.826C184.927 261.214 184.765 253.569 183.881 246.045C181.627 249.025 179.373 252.005 177.119 254.986C177.031 252.699 177.248 250.391 177.765 248.152C176.495 250.06 175.227 251.974 173.957 253.882C174.437 249.939 175.606 246.068 177.382 242.54C176.843 244.19 176.474 245.719 175.935 247.369C177.72 245.054 179.504 242.742 181.289 240.427C180.687 242.757 180.089 245.085 179.487 247.416C181.53 243.755 184.304 240.556 187.552 238.099C187.526 243.993 187.498 249.886 187.473 255.78C190.329 250.213 193.184 244.65 196.04 239.083C195.925 245.257 195.808 251.426 195.692 257.601C197.583 251.643 200.051 245.874 203.049 240.431C203.453 246.123 203.299 251.878 202.601 257.573C204.461 252.873 206.318 248.17 208.178 243.469C208.35 248.386 208.52 253.298 208.692 258.216C209.522 254.763 210.822 251.428 212.536 248.347C212.795 253.239 212.452 257.878 211.872 262.769L211.878 262.776Z" fill="white"/>
</g>
<g style="mix-blend-mode:overlay" opacity="0.15">
<path d="M214.983 270.461C216.018 267.621 216.983 264.116 217.87 260.167C214.011 270.15 207.113 279.847 196.623 282.466C180.782 286.466 164.001 281.335 149.381 275.096C153.344 278.318 157.973 280.876 162.969 282.604C184.575 290.08 207.417 291.238 214.984 270.458L214.983 270.461Z" fill="black"/>
</g>
<g style="mix-blend-mode:overlay" opacity="0.5">
<path d="M220.051 248.601C218.802 248.792 217.547 248.927 216.291 248.996C202.578 249.786 190.089 242.937 184.085 229.368C180.903 221.979 177.675 214.682 176.673 206.758C180.607 200.618 183.43 196.407 184.246 196.006C193.697 191.346 210.518 182.068 219.73 183.194C220.552 184.107 221.194 185.228 221.616 186.594C224.831 196.933 223.626 225.956 220.049 248.596C220.049 248.596 220.048 248.597 220.047 248.599L220.051 248.601Z" fill="black"/>
</g>
<path d="M143.582 292.676C143.582 292.676 163.806 296.222 169.571 286.822C175.337 277.422 175.811 268.611 175.811 268.611L139.711 263.322C139.711 263.322 141.216 266.003 143.704 269.526C146.856 273.991 151.091 279.58 150.342 280.207C149.008 281.327 140.817 283.886 140.817 283.886L143.583 292.681L143.582 292.676Z" fill="url(#paint6_linear_2_163632)"/>
<g style="mix-blend-mode:overlay" opacity="0.3">
<path d="M146.529 285.639C150.427 284.867 153.893 283.758 156.046 282.294C152.613 276.8 146.873 271.324 141.056 265.556C141.722 266.62 142.616 267.991 143.7 269.524C146.852 273.989 151.088 279.578 150.339 280.205C149.005 281.325 140.813 283.884 140.813 283.884L143.58 292.679C143.58 292.679 145.818 293.07 149.021 293.247C147.993 290.8 147.151 288.261 146.527 285.642L146.529 285.639Z" fill="black"/>
</g>
<path d="M140.796 283.849C140.476 287.026 139.988 296.838 140.15 300.073C140.313 303.257 140.555 305.695 140.878 307.615C140.975 308.185 141.077 308.71 141.186 309.196C141.563 310.864 142.019 312.069 142.551 313.065C142.722 313.387 142.899 313.681 143.086 313.962C143.338 314.347 143.599 314.705 143.879 315.06C147.024 311.361 148.517 307.681 148.319 303.276C148.122 298.871 142.036 284.358 140.795 283.843L140.796 283.849Z" fill="url(#paint7_linear_2_163632)"/>
<path d="M143.523 304.315C143.131 304.642 142.879 305.139 142.571 305.573C142.268 305.997 141.945 306.41 141.612 306.801C141.374 307.08 141.132 307.352 140.881 307.615C140.977 308.186 141.08 308.711 141.189 309.197C141.666 308.753 142.108 308.261 142.522 307.711C143.141 306.888 143.923 305.861 144.089 304.707C144.145 304.315 143.73 304.147 143.521 304.319L143.523 304.315Z" fill="#985119"/>
<path d="M146.484 306.438C145.685 308.172 144.92 309.89 143.868 311.405C143.46 311.993 143.02 312.542 142.556 313.062C142.727 313.384 142.903 313.677 143.09 313.959C144.871 312.02 146.346 309.547 146.995 306.784C147.082 306.424 146.65 306.087 146.484 306.438Z" fill="#985119"/>
<g style="mix-blend-mode:overlay" opacity="0.2">
<path d="M141.083 284.104C141.055 293.806 142.439 303.57 145.868 312.376C145.301 313.278 144.639 314.17 143.88 315.066C143.6 314.711 143.339 314.352 143.087 313.968C142.9 313.686 142.725 313.389 142.552 313.07C142.02 312.075 141.566 310.866 141.187 309.201C141.078 308.716 140.974 308.194 140.879 307.62C140.554 305.696 140.31 303.261 140.151 300.079C139.989 296.843 140.473 287.029 140.797 283.854C140.877 283.886 140.972 283.973 141.085 284.109L141.083 284.104Z" fill="black"/>
</g>
<path d="M228.691 212.608C231.085 211.097 233.023 208.882 234.209 206.31C234.619 205.419 234.948 204.431 234.765 203.465C234.583 202.499 233.735 201.603 232.754 201.678C233.049 200.816 232.623 199.765 231.81 199.356C230.999 198.944 229.899 199.219 229.378 199.97C229.138 198.51 227.239 197.819 225.864 198.353C224.489 198.887 223.6 200.234 223.007 201.587C221.873 204.168 221.48 207.07 221.877 209.86C224.298 211.235 225.924 212.283 228.693 212.605L228.691 212.608Z" fill="url(#paint8_linear_2_163632)"/>
<path d="M165.688 207.992C170.824 217.509 187.267 231.542 198.479 236.365C204.398 238.91 211.058 240.893 216.787 238.707C221.521 236.9 224.827 232.456 226.595 227.561C228.362 222.665 228.786 217.286 229.197 211.983C228.871 209.155 223.029 208.313 221.918 209.816C221.386 211.895 220.452 213.809 219.351 215.599C218.253 217.391 216.503 218.842 214.41 219.012C212.388 219.178 205.434 212.646 200.165 205.576C194.009 203.979 173.367 202.714 165.688 207.992Z" fill="url(#paint9_linear_2_163632)"/>
<path d="M219.389 143.387C223.526 151.784 228.927 159.49 234.308 167.152C236.312 169.165 239.45 170.574 243.005 171.239C246.255 171.844 249.852 171.827 253.259 171.075C260.391 169.497 266.659 164.979 271.226 159.278C275.789 153.576 278.76 146.742 280.83 139.738C286.012 122.197 285.571 102.582 277.246 86.2879C276.097 84.0358 274.767 81.831 273.238 79.798C270.475 76.1133 267.055 72.9885 262.86 71.1642C257.658 68.9019 251.649 68.8696 246.2 70.4342C240.748 71.9971 235.821 75.0736 231.529 78.7813C220.608 88.2137 213.58 102.019 212.378 116.398C211.598 125.761 215.253 134.986 219.389 143.387Z" fill="url(#paint10_linear_2_163632)"/>
<path d="M225.599 140.82C228.341 147.8 232.141 154.314 235.926 160.79C237.392 162.53 239.802 163.864 242.598 164.63C245.153 165.329 248.026 165.557 250.798 165.181C256.597 164.398 261.907 161.208 265.931 156.96C269.954 152.712 272.781 147.451 274.902 141.997C280.211 128.334 281.162 112.647 275.607 99.0809C274.84 97.2055 273.924 95.3585 272.843 93.6315C270.882 90.5064 268.358 87.7809 265.131 86.0445C261.128 83.8925 256.332 83.465 251.875 84.3524C247.418 85.2398 243.279 87.3658 239.605 90.0369C230.254 96.841 223.725 107.394 221.803 118.796C220.554 126.218 222.86 133.833 225.601 140.816L225.599 140.82Z" fill="url(#paint11_linear_2_163632)"/>
<g style="mix-blend-mode:overlay" opacity="0.8">
<path d="M225.287 107.585C228.339 102.617 232.339 98.227 237.057 94.7924C240.731 92.1212 244.872 89.9918 249.327 89.1078C253.782 88.2239 258.58 88.6479 262.582 90.8C265.81 92.5363 268.331 95.2601 270.295 98.387C271.38 100.116 272.292 101.961 273.059 103.836C278.619 117.4 277.663 133.09 272.36 146.751C271.84 148.089 271.277 149.419 270.664 150.719C272.352 147.963 273.736 145.01 274.907 141.996C280.216 128.333 281.167 112.645 275.612 99.0795C274.845 97.2041 273.929 95.3571 272.844 93.6284C270.884 90.5033 268.359 87.7777 265.132 86.0414C261.13 83.8894 256.334 83.4619 251.877 84.3493C247.42 85.2367 243.28 87.3627 239.605 90.0373C233.432 94.5305 228.485 100.655 225.289 107.582L225.287 107.585Z" fill="black"/>
</g>
<g style="mix-blend-mode:overlay" opacity="0.2">
<path d="M212.521 114.94C215.028 103.027 221.473 91.9399 230.698 83.9731C234.988 80.2688 239.917 77.1889 245.369 75.626C250.817 74.0613 256.827 74.0936 262.028 76.356C266.222 78.1751 269.644 81.305 272.406 84.9898C273.936 87.0228 275.265 89.2276 276.414 91.4797C282.723 103.835 284.506 118.102 282.735 131.926C285.715 116.528 284.353 100.194 277.249 86.2834C276.1 84.0314 274.774 81.8283 273.246 79.7919C270.48 76.1053 267.06 72.9806 262.868 71.158C257.665 68.8991 251.657 68.8634 246.207 70.4315C240.755 71.9944 235.828 75.0709 231.538 78.7751C220.987 87.888 214.069 101.085 212.526 114.938L212.521 114.94Z" fill="white"/>
</g>
<g style="mix-blend-mode:overlay" opacity="0.2">
<path d="M212.377 116.397C212.753 111.914 213.692 107.487 215.144 103.23C223.238 108.049 229.052 115.636 235.537 123.15C246.591 136.102 253.253 149.975 256.114 166.054C256.347 167.389 256.541 168.725 256.692 170.062C255.572 170.469 254.427 170.808 253.256 171.068C249.849 171.821 246.252 171.838 243.002 171.232C239.445 170.571 236.31 169.159 234.305 167.145C228.925 159.484 223.523 151.778 219.386 143.38C215.25 134.98 211.593 125.749 212.375 116.391L212.377 116.397Z" fill="black"/>
</g>
<path d="M155.977 146.175C156.114 155.536 154.805 164.852 153.499 174.121C152.627 176.827 150.474 179.507 147.61 181.713C144.992 183.726 141.779 185.346 138.405 186.223C131.337 188.059 123.694 186.88 117.036 183.877C110.379 180.87 104.624 176.133 99.5936 170.834C86.9986 157.564 78.475 139.891 78.4765 121.601C78.4759 119.073 78.6557 116.506 79.0914 114C79.8783 109.461 81.5021 105.123 84.4073 101.596C88.0144 97.2186 93.3497 94.4583 98.9128 93.3776C104.481 92.2951 110.269 92.7969 115.775 94.1453C129.793 97.5847 142.334 106.689 149.943 118.949C154.895 126.931 155.836 136.813 155.973 146.174L155.977 146.175Z" fill="url(#paint12_linear_2_163632)"/>
<path d="M149.277 146.713C150.009 154.178 149.585 161.702 149.161 169.192C148.646 171.411 147.107 173.694 144.963 175.645C143.005 177.429 140.55 178.935 137.911 179.861C132.391 181.797 126.21 181.365 120.692 179.411C115.175 177.453 110.263 174.056 105.896 170.16C94.9564 160.402 86.9701 146.859 85.7505 132.253C85.582 130.235 85.5558 128.176 85.7338 126.142C86.0594 122.468 87.0651 118.892 89.1512 115.883C91.7374 112.146 95.814 109.588 100.188 108.351C104.563 107.113 109.216 107.129 113.702 107.842C125.125 109.653 135.744 116.086 142.641 125.37C147.128 131.413 148.54 139.241 149.272 146.706L149.277 146.713Z" fill="url(#paint13_linear_2_163632)"/>
<g style="mix-blend-mode:overlay" opacity="0.8">
<path d="M105.9 170.162C107.171 171.294 108.485 172.384 109.85 173.408C98.9793 163.659 91.0601 150.173 89.8436 135.629C89.6751 133.61 89.6489 131.551 89.8303 129.519C90.1525 125.844 91.1616 122.269 93.2477 119.26C95.8339 115.523 99.9105 112.966 104.285 111.728C108.659 110.49 113.313 110.506 117.799 111.219C124.823 112.332 131.543 115.197 137.281 119.396C130.778 113.353 122.48 109.234 113.706 107.844C109.22 107.131 104.565 107.119 100.19 108.356C95.8212 109.592 91.7395 112.152 89.155 115.885C87.0689 118.894 86.0633 122.47 85.7376 126.144C85.5561 128.176 85.5858 130.237 85.7508 132.254C86.9705 146.86 94.9568 160.402 105.897 170.16L105.9 170.162Z" fill="black"/>
</g>
<g style="mix-blend-mode:overlay" opacity="0.2">
<path d="M89.1131 157.223C84.0503 147.604 81.0533 136.981 81.0541 126.135C81.057 123.609 81.2333 121.04 81.669 118.534C82.4559 113.995 84.0797 109.657 86.9849 106.13C90.592 101.753 95.9273 98.9924 101.496 97.9099C107.061 96.8257 112.852 97.3293 118.356 98.6811C131.876 101.998 144.021 110.583 151.694 122.194C151.177 121.084 150.593 120.001 149.94 118.953C142.328 106.691 129.787 97.5867 115.773 94.149C110.264 92.7989 104.475 92.2971 98.907 93.3795C93.3421 94.4637 88.0034 97.2223 84.4014 101.598C81.4944 105.128 79.8706 109.467 79.0855 114.002C78.6481 116.512 78.4683 119.078 78.4706 121.603C78.4705 134.182 82.4974 146.463 89.1079 157.225L89.1131 157.223Z" fill="white"/>
</g>
<g style="mix-blend-mode:overlay" opacity="0.2">
<path d="M116.585 165.161C117.421 143.964 126.272 122.924 142.127 109.111C145.095 112.084 147.732 115.384 149.944 118.954C154.897 126.936 155.837 136.818 155.975 146.179C156.112 155.539 154.803 164.855 153.497 174.125C152.625 176.83 150.472 179.51 147.608 181.716C144.99 183.729 141.777 185.349 138.403 186.227C131.985 187.894 125.098 187.076 118.899 184.663C117.393 178.346 116.388 171.915 116.588 165.163L116.585 165.161Z" fill="black"/>
</g>
<path d="M125.82 165.755C126.219 158.691 127.414 151.607 129.034 145.12C129.406 143.628 129.82 142.149 130.271 140.68C134.697 126.325 147.865 110.946 161.084 103.242C161.214 103.165 162.577 102.355 162.605 102.395C161.475 100.839 160.844 98.9198 160.893 96.9946C162.28 98.3339 163.963 99.3636 165.79 99.9839C163.908 97.7978 162.561 95.1496 161.907 92.3416C163.499 93.6979 165.362 94.7323 167.355 95.3676C165.426 93.5223 163.81 91.3502 162.603 88.973C167.644 91.9183 174.211 97.3589 181.897 99.1343C184.744 99.791 187.681 99.9772 190.489 100.77C195.889 102.3 201.417 104.689 206.131 107.715C215.388 113.656 223.473 122.27 229.906 131.109C235.707 139.08 241.201 147.928 243.695 157.566C252.142 190.224 214.598 205.089 188.996 209.147C166.353 212.733 131.276 210.927 126.573 182.331C126.566 182.293 126.56 182.255 126.553 182.216C125.685 176.95 125.499 171.36 125.815 165.757L125.82 165.755Z" fill="url(#paint14_linear_2_163632)"/>
<g style="mix-blend-mode:overlay" opacity="0.28">
<path d="M159.428 164.384C159.676 164.376 160.56 163.705 161.176 163.279C163.555 161.583 165.29 160.511 168.106 159.988C170.325 159.444 172.999 159.687 175.62 160.446C176.714 160.815 177.59 161.031 178.372 161.519C178.392 161.53 178.408 161.542 178.425 161.551C178.503 161.56 178.583 161.574 178.659 161.587C178.821 161.609 178.986 161.636 179.15 161.663C179.083 161.581 179.018 161.496 178.947 161.412C178.557 160.932 178.167 160.486 177.78 160.068C173.366 155.308 169.111 154.218 167.552 154.507C165.638 154.863 164.457 156.048 163.576 157.098C162.151 158.789 160.964 160.535 160.217 162.08C159.814 162.917 159.538 163.698 159.43 164.381L159.428 164.384Z" fill="black"/>
</g>
<path d="M158.721 163.98C158.814 164.275 159.126 164.49 159.437 164.417C159.681 164.407 160.581 163.8 161.198 163.415C163.603 161.879 165.349 160.908 168.172 160.397C170.395 159.877 173.053 160.042 175.653 160.661C176.737 160.965 177.609 161.138 178.379 161.556C178.396 161.565 178.413 161.573 178.43 161.582C178.507 161.612 178.588 161.623 178.664 161.61C178.777 161.593 178.878 161.531 178.953 161.452C179.064 161.335 179.116 161.166 179.06 160.994C178.977 160.722 178.676 160.647 178.45 160.528C178.239 160.447 178.026 160.369 177.812 160.295C175.277 159.393 172.582 158.874 169.892 158.918C168.111 159.003 166.329 159.365 164.655 159.982C163.116 160.633 161.661 161.47 160.261 162.386C159.838 162.662 159.422 162.95 159.006 163.239C159.003 163.245 158.991 163.252 158.986 163.254C158.749 163.403 158.633 163.717 158.716 163.981L158.721 163.98Z" fill="#B57C3A"/>
<path d="M206.521 126.624C206.527 124.417 203.234 122.612 199.159 122.595C195.084 122.577 191.776 124.358 191.767 126.564C191.758 128.77 195.064 128.266 199.135 128.281C203.207 128.297 206.511 128.83 206.517 126.623L206.521 126.624Z" fill="#985119"/>
<g style="mix-blend-mode:overlay" opacity="0.31">
<path d="M199.139 128.283C203.214 128.3 206.515 128.832 206.521 126.624C206.521 126.35 206.473 126.087 206.378 125.83C206.409 126.033 206.415 126.235 206.389 126.439C206.122 128.632 202.906 127.718 198.864 127.226C195.583 126.826 192.761 126.83 191.959 125.674C191.839 125.961 191.769 126.26 191.769 126.568C191.763 128.776 195.066 128.27 199.139 128.283Z" fill="black"/>
</g>
<path d="M128.44 141.606C127.451 139.63 129.601 136.554 133.245 134.727C136.887 132.905 140.641 133.024 141.631 134.999C142.621 136.975 139.434 137.987 135.792 139.81C132.15 141.633 129.432 143.578 128.442 141.602L128.44 141.606Z" fill="#985119"/>
<g style="mix-blend-mode:overlay" opacity="0.31">
<path d="M135.79 139.814C132.148 141.637 129.43 143.582 128.44 141.607C128.321 141.363 128.245 141.103 128.213 140.831C128.275 141.027 128.36 141.21 128.473 141.38C129.685 143.226 132.161 140.979 135.565 138.744C138.326 136.929 140.856 135.679 141.061 134.285C141.297 134.487 141.491 134.729 141.629 135.004C142.619 136.979 139.433 137.991 135.79 139.814Z" fill="black"/>
</g>
<path d="M162.554 189.836C161.725 188.186 161.326 186.927 161.326 186.927C161.326 186.927 165.629 188.181 172.159 187.462C178.69 186.743 180.32 183.793 180.32 183.793C180.32 183.793 180.436 185.394 180.218 187.498C174.944 190.684 168.634 191.038 162.552 189.831L162.554 189.836Z" fill="#DFE5E4"/>
<path d="M180.219 187.502C179.825 191.302 178.346 196.757 173.125 197.447C167.689 198.167 164.236 193.193 162.554 189.836C168.635 191.042 174.942 190.687 180.219 187.502Z" fill="white"/>
<path d="M159.495 187.621C160.139 187.797 160.076 187.769 160.895 187.977C160.914 187.982 160.93 187.986 160.95 187.988C164.272 188.769 167.743 189.239 171.123 188.564C173.724 188.123 176.195 187.117 178.456 185.773C178.878 185.531 179.289 185.271 179.689 185.005C180.708 184.325 181.676 183.575 182.656 182.844C183.058 182.54 182.851 181.853 182.356 181.81C182.04 181.766 181.82 182.028 181.574 182.185C180.944 182.647 180.311 183.106 179.671 183.554C178.359 184.468 176.036 185.602 174.047 186.267C173.429 186.448 172.82 186.604 172.209 186.728C172.017 186.208 171.499 184.425 171.104 182.561C170.504 179.784 169.904 177.008 169.502 174.193C169.454 173.868 169.408 173.541 169.36 173.217C169.176 171.946 168.978 170.677 168.786 169.407C168.674 168.677 168.565 167.944 168.457 167.216C168.411 166.905 168.368 166.597 168.325 166.288C168.29 166.04 168.257 165.798 168.224 165.555C168.092 165.575 167.962 165.591 167.829 165.615C167.579 165.653 167.331 165.696 167.088 165.738C167.121 165.989 167.156 166.237 167.191 166.485C167.201 166.551 167.209 166.62 167.219 166.686C167.25 166.923 167.287 167.159 167.32 167.393C167.418 168.09 167.52 168.785 167.618 169.482C167.666 169.823 167.717 170.166 167.769 170.51C167.901 171.437 168.025 172.373 168.147 173.304C168.383 175.087 168.622 176.864 168.958 178.629C169.284 180.406 169.649 182.177 169.994 183.95C170.189 184.967 170.422 185.979 170.526 187.014C168.593 187.261 166.626 187.242 164.501 186.969C163.303 186.821 162.115 186.603 160.928 186.4C160.579 186.344 160.226 186.286 159.876 186.238C159.451 186.135 158.979 186.165 158.793 186.626C158.57 187.398 159.254 187.59 159.502 187.625L159.495 187.621Z" fill="#985119"/>
<path d="M161.874 168.851C161.874 168.851 161.877 168.888 161.879 168.901C162.09 170.264 166.282 172.409 168.083 173.268C168.1 173.276 168.114 173.283 168.131 173.292C168.449 173.428 168.823 173.427 169.149 173.306C169.219 173.281 169.288 173.246 169.351 173.209C169.424 173.168 169.494 173.116 169.556 173.061C169.579 173.042 169.603 173.02 169.628 172.998C169.701 172.931 169.778 172.865 169.86 172.79C169.924 172.731 169.99 172.669 170.06 172.609C170.103 172.566 170.151 172.525 170.199 172.48C170.347 172.343 170.503 172.2 170.663 172.047C170.813 171.906 170.964 171.762 171.12 171.61C171.132 171.595 171.146 171.585 171.161 171.571C171.229 171.506 171.297 171.44 171.367 171.371C171.47 171.272 171.571 171.167 171.676 171.064C171.745 170.995 171.815 170.926 171.881 170.855C172.289 170.437 172.691 170.007 173.05 169.582C173.085 169.539 173.118 169.499 173.157 169.458C173.169 169.442 173.181 169.427 173.193 169.411C173.235 169.363 173.272 169.317 173.31 169.267C173.633 168.871 173.908 168.485 174.113 168.133C174.116 168.126 174.122 168.116 174.125 168.109C174.379 167.66 174.515 167.265 174.472 166.965C174.216 165.297 171.513 165.078 168.209 165.535C168.077 165.555 167.947 165.571 167.813 165.595C167.564 165.633 167.316 165.676 167.073 165.718C163.988 166.273 161.678 167.262 161.865 168.842L161.874 168.851Z" fill="#985119"/>
<g style="mix-blend-mode:overlay" opacity="0.35">
<path d="M165.816 169.462C167.608 169.544 169.471 169.409 171.226 169.051C172.192 168.851 173.224 168.581 174.133 168.118C173.215 169.719 170.754 172.003 169.559 173.064C169.165 173.411 168.552 173.498 168.08 173.272C166.281 172.409 162.083 170.266 161.876 168.906C161.873 168.887 161.873 168.869 161.871 168.855C163.163 169.186 164.481 169.405 165.814 169.466L165.816 169.462Z" fill="black"/>
</g>
<g style="mix-blend-mode:overlay" opacity="0.46">
<path d="M164.141 167.289C165.77 166.718 168.361 166.107 170.703 166.081C171.21 166.083 171.724 166.123 172.226 166.222C172.468 166.293 172.768 166.293 172.957 166.476C173.346 166.813 173.1 167.109 172.588 167.074C167.533 166.746 163.958 168.368 163.548 168.19C162.885 167.931 163.449 167.454 164.141 167.289Z" fill="white"/>
</g>
<path opacity="0.01" d="M156.086 182.55C156.71 189.287 150.314 195.39 141.798 196.177C133.282 196.965 128.452 191.434 127.828 184.697C127.204 177.96 131.021 172.564 139.536 171.777C148.052 170.99 155.462 175.813 156.09 182.551L156.086 182.55Z" fill="#DEA96F"/>
<path opacity="0.02" d="M155.871 182.579C156.489 189.235 150.171 195.261 141.76 196.037C133.35 196.812 128.565 191.356 127.947 184.701C127.33 178.045 131.116 172.717 139.525 171.936C147.935 171.16 155.254 175.924 155.868 182.577L155.871 182.579Z" fill="#DEA86F"/>
<path opacity="0.03" d="M155.657 182.609C156.266 189.178 150.027 195.127 141.724 195.897C133.421 196.666 128.678 191.279 128.069 184.71C127.459 178.142 131.213 172.87 139.519 172.102C147.822 171.333 155.049 176.037 155.657 182.609Z" fill="#DFA770"/>
<path opacity="0.04" d="M155.446 182.64C156.045 189.125 149.888 194.999 141.691 195.757C133.494 196.515 128.796 191.203 128.196 184.717C127.596 178.232 131.316 173.026 139.513 172.268C147.71 171.51 154.843 176.152 155.446 182.64Z" fill="#DFA670"/>
<path opacity="0.06" d="M155.23 182.669C155.823 189.074 149.744 194.87 141.653 195.616C133.561 196.363 128.908 191.126 128.313 184.725C127.72 178.321 131.411 173.179 139.503 172.432C147.594 171.685 154.635 176.269 155.23 182.669Z" fill="#DFA570"/>
<path opacity="0.07" d="M155.015 182.699C155.6 189.017 149.603 194.737 141.616 195.476C133.628 196.214 129.021 191.048 128.436 184.731C127.851 178.413 131.511 173.333 139.495 172.593C147.482 171.854 154.428 176.376 155.012 182.697L155.015 182.699Z" fill="#DFA470"/>
<path opacity="0.08" d="M154.8 182.728C155.379 188.964 149.46 194.607 141.582 195.336C133.704 196.065 129.135 190.976 128.557 184.74C127.978 178.504 131.61 173.488 139.488 172.759C147.366 172.03 154.225 176.494 154.8 182.728Z" fill="#E0A371"/>
<path opacity="0.09" d="M154.585 182.759C155.156 188.908 149.317 194.479 141.545 195.197C133.772 195.914 129.249 190.9 128.68 184.747C128.109 178.597 131.71 173.643 139.479 172.924C147.251 172.206 154.015 176.609 154.585 182.759Z" fill="#E0A271"/>
<path opacity="0.1" d="M154.373 182.791C154.934 188.857 149.175 194.347 141.51 195.059C133.842 195.768 129.364 190.825 128.804 184.759C128.243 178.692 131.808 173.799 139.475 173.092C147.143 172.383 153.812 176.724 154.376 182.793L154.373 182.791Z" fill="#E0A171"/>
<path opacity="0.11" d="M154.156 182.824C154.712 188.806 149.031 194.222 141.471 194.922C133.912 195.622 129.476 190.751 128.92 184.77C128.364 178.788 131.901 173.959 139.46 173.259C147.019 172.559 153.6 176.843 154.153 182.822L154.156 182.824Z" fill="#E0A071"/>
<path opacity="0.12" d="M153.943 182.852C154.489 188.751 148.889 194.091 141.436 194.78C133.982 195.468 129.59 190.673 129.044 184.775C128.498 178.876 132.003 174.109 139.457 173.42C146.911 172.731 153.396 176.954 153.943 182.852Z" fill="#E09F71"/>
<path opacity="0.13" d="M153.726 182.882C154.264 188.694 148.746 193.958 141.397 194.639C134.047 195.32 129.702 190.595 129.16 184.782C128.622 178.97 132.096 174.265 139.446 173.584C146.795 172.904 153.186 177.065 153.726 182.882Z" fill="#E19E72"/>
<path opacity="0.14" d="M153.515 182.913C154.047 188.644 148.607 193.831 141.363 194.5C134.123 195.171 129.819 190.52 129.287 184.79C128.755 179.06 132.201 174.418 139.44 173.75C146.68 173.079 152.983 177.183 153.515 182.913Z" fill="#E19D72"/>
<path opacity="0.16" d="M153.301 182.945C153.823 188.592 148.465 193.704 141.327 194.361C134.192 195.021 129.933 190.445 129.409 184.801C128.887 179.154 132.296 174.576 139.434 173.918C146.569 173.259 152.777 177.301 153.301 182.945Z" fill="#E19C72"/>
<path opacity="0.17" d="M153.085 182.973C153.602 188.535 148.318 193.571 141.292 194.221C134.263 194.87 130.048 190.368 129.531 184.806C129.013 179.244 132.394 174.73 139.425 174.078C146.454 173.43 152.573 177.409 153.085 182.973Z" fill="#E19B72"/>
<path opacity="0.18" d="M152.871 183.004C153.379 188.483 148.178 193.44 141.256 194.082C134.331 194.722 130.161 190.295 129.653 184.816C129.146 179.337 132.495 174.885 139.42 174.245C146.345 173.605 152.367 177.526 152.875 183.005L152.871 183.004Z" fill="#E29A73"/>
<path opacity="0.19" d="M152.659 183.034C153.159 188.427 148.038 193.311 141.222 193.942C134.406 194.573 130.277 190.219 129.775 184.821C129.276 179.429 132.594 175.039 139.41 174.409C146.226 173.778 152.156 177.64 152.659 183.034Z" fill="#E29973"/>
<path opacity="0.2" d="M152.443 183.065C152.936 188.376 147.894 193.183 141.184 193.803C134.474 194.422 130.389 190.143 129.896 184.832C129.403 179.521 132.693 175.195 139.403 174.576C146.113 173.957 151.954 177.756 152.443 183.065Z" fill="#E29873"/>
<path opacity="0.21" d="M152.229 183.094C152.714 188.319 147.754 193.05 141.147 193.662C134.541 194.273 130.503 190.065 130.018 184.841C129.533 179.617 132.787 175.351 139.393 174.74C146 174.129 151.744 177.87 152.229 183.094Z" fill="#E29773"/>
<path opacity="0.22" d="M152.014 183.125C152.489 188.266 147.611 192.922 141.11 193.522C134.613 194.123 130.616 189.988 130.137 184.846C129.662 179.705 132.885 175.501 139.386 174.901C145.883 174.3 151.535 177.982 152.014 183.125Z" fill="#E29673"/>
<path opacity="0.23" d="M151.798 183.154C152.269 188.21 147.464 192.79 141.072 193.38C134.681 193.971 130.728 189.911 130.258 184.855C129.787 179.798 132.982 175.659 139.373 175.069C145.765 174.478 151.328 178.097 151.797 183.157L151.798 183.154Z" fill="#E39574"/>
<path opacity="0.24" d="M151.587 183.187C152.047 188.16 147.326 192.662 141.042 193.246C134.755 193.828 130.848 189.839 130.387 184.866C129.926 179.893 133.09 175.816 139.375 175.237C145.663 174.655 151.129 178.216 151.59 183.189L151.587 183.187Z" fill="#E39474"/>
<path opacity="0.26" d="M151.372 183.218C151.822 188.108 147.183 192.534 141.005 193.107C134.827 193.679 130.961 189.764 130.505 184.875C130.054 179.986 133.184 175.974 139.362 175.401C145.54 174.829 150.919 178.332 151.372 183.218Z" fill="#E39374"/>
<path opacity="0.27" d="M151.156 183.247C151.603 188.052 147.04 192.404 140.967 192.965C134.895 193.526 131.074 189.686 130.627 184.881C130.181 180.076 133.285 176.124 139.357 175.563C145.43 175.002 150.715 178.441 151.16 183.249L151.156 183.247Z" fill="#E39274"/>
<path opacity="0.28" d="M150.942 183.278C151.379 188 146.899 192.273 140.931 192.826C134.964 193.376 131.186 189.613 130.746 184.89C130.31 180.168 133.377 176.28 139.345 175.727C145.312 175.177 150.502 178.555 150.942 183.278Z" fill="#E49175"/>
<path opacity="0.29" d="M150.729 183.31C151.161 187.947 146.759 192.145 140.896 192.687C135.037 193.231 131.301 189.538 130.871 184.897C130.439 180.261 133.48 176.433 139.341 175.895C145.2 175.351 150.301 178.675 150.729 183.31Z" fill="#E49075"/>
<path opacity="0.3" d="M150.514 183.338C150.936 187.891 146.612 192.013 140.859 192.545C135.105 193.077 131.411 189.457 130.992 184.905C130.57 180.351 133.578 176.59 139.331 176.058C145.085 175.526 150.093 178.784 150.514 183.338Z" fill="#E49075"/>
<path opacity="0.31" d="M150.299 183.369C150.713 187.836 146.469 191.885 140.822 192.406C135.174 192.927 131.524 189.381 131.11 184.914C130.696 180.447 133.672 176.748 139.321 176.223C144.969 175.703 149.882 178.9 150.299 183.369Z" fill="#E48F75"/>
<path opacity="0.32" d="M150.085 183.398C150.492 187.783 146.328 191.752 140.788 192.266C135.244 192.779 131.641 189.305 131.237 184.921C130.829 180.536 133.777 176.9 139.317 176.386C144.861 175.873 149.681 179.014 150.085 183.398Z" fill="#E48E75"/>
<path opacity="0.33" d="M149.874 183.43C150.271 187.733 146.19 191.625 140.755 192.129C135.32 192.632 131.758 189.231 131.358 184.932C130.961 180.629 133.871 177.058 139.31 176.556C144.744 176.053 149.475 179.131 149.872 183.434L149.874 183.43Z" fill="#E58D76"/>
<path opacity="0.34" d="M149.659 183.459C150.048 187.675 146.046 191.495 140.718 191.987C135.389 192.479 131.871 189.153 131.481 184.937C131.092 180.721 133.973 177.208 139.301 176.717C144.63 176.225 149.269 179.243 149.659 183.459Z" fill="#E58C76"/>
<path opacity="0.36" d="M149.443 183.489C149.826 187.623 145.905 191.363 140.68 191.847C135.455 192.331 131.983 189.076 131.602 184.946C131.219 180.812 134.07 177.366 139.295 176.883C144.52 176.399 149.062 179.36 149.447 183.491L149.443 183.489Z" fill="#E58B76"/>
<path opacity="0.37" d="M149.226 183.522C149.601 187.57 145.757 191.236 140.641 191.71C135.525 192.184 132.094 189.002 131.719 184.955C131.344 180.907 134.165 177.52 139.281 177.046C144.397 176.571 148.85 179.469 149.223 183.521L149.226 183.522Z" fill="#E58A76"/>
<path opacity="0.38" d="M149.011 183.552C149.38 187.519 145.614 191.107 140.604 191.57C135.594 192.033 132.206 188.929 131.841 184.964C131.472 180.998 134.263 177.678 139.273 177.216C144.283 176.753 148.645 179.591 149.01 183.556L149.011 183.552Z" fill="#E68977"/>
<path opacity="0.39" d="M148.801 183.583C149.162 187.463 145.477 190.975 140.571 191.43C135.667 191.882 132.323 188.853 131.964 184.97C131.604 181.09 134.365 177.829 139.266 177.376C144.171 176.924 148.437 179.702 148.798 183.581L148.801 183.583Z" fill="#E68877"/>
<path opacity="0.4" d="M148.586 183.613C148.937 187.41 145.334 190.847 140.534 191.291C135.737 191.736 132.437 188.776 132.086 184.98C131.735 181.183 134.46 177.986 139.26 177.543C144.057 177.098 148.232 179.815 148.586 183.613Z" fill="#E68777"/>
<path opacity="0.41" d="M148.371 183.644C148.718 187.355 145.192 190.718 140.5 191.152C135.809 191.586 132.553 188.701 132.212 184.988C131.866 181.276 134.565 178.14 139.256 177.706C143.947 177.272 148.031 179.93 148.373 183.64L148.371 183.644Z" fill="#E68677"/>
<path opacity="0.42" d="M148.155 183.672C148.491 187.301 145.049 190.585 140.462 191.011C135.876 191.433 132.665 188.623 132.328 184.995C131.992 181.367 134.657 178.295 139.243 177.873C143.828 177.451 147.817 180.048 148.153 183.676L148.155 183.672Z" fill="#E68577"/>
<path opacity="0.43" d="M147.943 183.705C148.27 187.25 144.906 190.456 140.428 190.873C135.947 191.287 132.781 188.549 132.453 185.007C132.127 181.462 134.76 178.453 139.237 178.04C143.718 177.625 147.615 180.163 147.942 183.708L147.943 183.705Z" fill="#E78478"/>
<path opacity="0.44" d="M147.729 183.734C148.051 187.194 144.763 190.327 140.391 190.732C136.019 191.137 132.895 188.471 132.573 185.011C132.251 181.551 134.856 178.606 139.229 178.201C143.601 177.796 147.407 180.274 147.729 183.734Z" fill="#E78378"/>
<path opacity="0.46" d="M147.514 183.764C147.826 187.141 144.62 190.198 140.354 190.592C136.087 190.985 133.008 188.394 132.694 185.021C132.382 181.644 134.952 178.759 139.219 178.365C143.486 177.972 147.197 180.389 147.51 183.762L147.514 183.764Z" fill="#E78278"/>
<path opacity="0.47" d="M147.3 183.792C147.604 187.083 144.48 190.064 140.318 190.45C136.155 190.835 133.122 188.316 132.818 185.025C132.514 181.735 135.053 178.912 139.215 178.527C143.378 178.141 146.998 180.498 147.301 183.789L147.3 183.792Z" fill="#E78178"/>
<path opacity="0.48" d="M147.087 183.824C147.384 187.033 144.34 189.937 140.283 190.311C136.229 190.687 133.235 188.244 132.938 185.035C132.64 181.826 135.149 179.071 139.203 178.695C143.256 178.319 146.784 180.617 147.082 183.826L147.087 183.824Z" fill="#E88079"/>
<path opacity="0.49" d="M146.872 183.857C147.161 186.979 144.197 189.811 140.249 190.176C136.301 190.54 133.352 188.172 133.064 185.046C132.775 181.924 135.254 179.227 139.201 178.863C143.149 178.498 146.583 180.735 146.875 183.859L146.872 183.857Z" fill="#E87F79"/>
<path opacity="0.5" d="M146.655 183.886C146.938 186.927 144.05 189.677 140.21 190.035C136.368 190.388 133.463 188.095 133.18 185.054C132.897 182.013 135.346 179.383 139.186 179.025C143.028 178.672 146.372 180.845 146.652 183.885L146.655 183.886Z" fill="#E87E79"/>
<path opacity="0.51" d="M146.441 183.918C146.716 186.872 143.908 189.549 140.173 189.896C136.439 190.243 133.577 188.019 133.304 185.061C133.029 182.107 135.448 179.536 139.182 179.189C142.917 178.842 146.168 180.96 146.443 183.914L146.441 183.918Z" fill="#E87D79"/>
<path opacity="0.52" d="M146.23 183.949C146.495 186.82 143.769 189.422 140.14 189.757C136.511 190.093 133.694 187.943 133.429 185.072C133.164 182.201 135.546 179.694 139.175 179.359C142.804 179.023 145.963 181.081 146.228 183.952L146.23 183.949Z" fill="#E87C79"/>
<path opacity="0.53" d="M146.015 183.979C146.274 186.768 143.628 189.289 140.103 189.616C136.58 189.94 133.807 187.866 133.547 185.08C133.288 182.29 135.642 179.847 139.165 179.523C142.689 179.199 145.755 181.192 146.013 183.982L146.015 183.979Z" fill="#E97B7A"/>
<path opacity="0.54" d="M145.799 184.008C146.05 186.711 143.484 189.159 140.065 189.476C136.65 189.793 133.919 187.789 133.669 185.086C133.418 182.382 135.741 180.002 139.157 179.684C142.572 179.366 145.545 181.303 145.796 184.006L145.799 184.008Z" fill="#E97A7A"/>
<path opacity="0.56" d="M145.584 184.037C145.825 186.657 143.341 189.03 140.028 189.335C136.718 189.641 134.032 187.711 133.79 185.095C133.549 182.475 135.84 180.156 139.15 179.85C142.46 179.543 145.342 181.421 145.584 184.037Z" fill="#E9797A"/>
<path opacity="0.57" d="M145.37 184.067C145.606 186.602 143.198 188.896 139.995 189.196C136.791 189.491 134.15 187.636 133.914 185.101C133.678 182.566 135.94 180.311 139.145 180.016C142.349 179.721 145.138 181.534 145.374 184.069L145.37 184.067Z" fill="#E9787A"/>
<path opacity="0.58" d="M145.158 184.099C145.385 186.551 143.058 188.769 139.961 189.058C136.861 189.345 134.264 187.564 134.038 185.112C133.812 182.66 136.04 180.466 139.138 180.182C142.238 179.895 144.93 181.65 145.16 184.104L145.158 184.099Z" fill="#EA777B"/>
<path opacity="0.59" d="M144.943 184.128C145.164 186.495 142.914 188.639 139.923 188.916C136.932 189.194 134.377 187.486 134.157 185.116C133.935 182.749 136.135 180.618 139.13 180.342C142.121 180.065 144.725 181.762 144.943 184.128Z" fill="#EA767B"/>
<path opacity="0.6" d="M144.728 184.159C144.94 186.443 142.771 188.511 139.886 188.777C137.001 189.043 134.49 187.411 134.278 185.127C134.066 182.843 136.234 180.775 139.12 180.508C142.005 180.242 144.516 181.875 144.728 184.159Z" fill="#EA757B"/>
<g style="mix-blend-mode:overlay" opacity="0.31">
<path d="M143.472 179.863C151.087 180 157.405 171.939 157.583 161.86C157.762 151.781 151.733 143.5 144.118 143.363C136.503 143.227 130.185 151.287 130.007 161.367C129.829 171.446 135.857 179.727 143.472 179.863Z" fill="black"/>
</g>
<path d="M144.577 177.907C151.411 178.048 157.1 170.892 157.284 161.923C157.468 152.954 152.076 145.569 145.242 145.427C138.408 145.286 132.719 152.442 132.535 161.411C132.351 170.38 137.743 177.765 144.577 177.907Z" fill="#C5D5D5"/>
<path d="M144.596 177.872C151.417 178.013 157.095 170.871 157.279 161.919C157.462 152.967 152.081 145.596 145.26 145.455C138.439 145.314 132.76 152.456 132.577 161.408C132.393 170.36 137.774 177.731 144.596 177.872Z" fill="#C6D6D6"/>
<path d="M144.621 177.834C151.427 177.975 157.093 170.846 157.276 161.911C157.459 152.977 152.09 145.619 145.284 145.479C138.478 145.338 132.811 152.467 132.628 161.401C132.445 170.336 137.814 177.693 144.621 177.834Z" fill="#C7D6D6"/>
<path d="M144.646 177.801C151.439 177.942 157.094 170.826 157.277 161.909C157.46 152.991 152.101 145.648 145.308 145.507C138.514 145.367 132.859 152.482 132.676 161.4C132.493 170.317 137.852 177.661 144.646 177.801Z" fill="#C8D7D7"/>
<path d="M144.669 177.77C151.449 177.91 157.094 170.809 157.276 161.908C157.459 153.008 152.11 145.679 145.329 145.538C138.549 145.398 132.904 152.499 132.721 161.4C132.539 170.301 137.888 177.63 144.669 177.77Z" fill="#C9D8D8"/>
<path d="M144.691 177.734C151.459 177.874 157.093 170.786 157.275 161.903C157.457 153.019 152.119 145.704 145.351 145.564C138.583 145.424 132.949 152.512 132.767 161.395C132.585 170.279 137.924 177.594 144.691 177.734Z" fill="#CAD8D8"/>
<path d="M144.713 177.699C151.468 177.839 157.092 170.765 157.274 161.898C157.455 153.032 152.127 145.731 145.372 145.591C138.617 145.452 132.993 152.526 132.812 161.392C132.63 170.259 137.958 177.559 144.713 177.699Z" fill="#CBD9D9"/>
<path d="M144.736 177.668C151.479 177.808 157.091 170.747 157.273 161.898C157.454 153.049 152.135 145.762 145.393 145.622C138.651 145.483 133.039 152.543 132.857 161.393C132.676 170.242 137.994 177.529 144.736 177.668Z" fill="#CCDADA"/>
<path d="M144.761 177.632C151.491 177.771 157.093 170.724 157.274 161.892C157.455 153.06 152.146 145.787 145.417 145.648C138.688 145.508 133.086 152.555 132.905 161.387C132.724 170.22 138.032 177.492 144.761 177.632Z" fill="#CDDBDB"/>
<path d="M144.785 177.6C151.502 177.739 157.093 170.706 157.274 161.891C157.454 153.076 152.156 145.817 145.44 145.678C138.723 145.539 133.132 152.573 132.951 161.388C132.77 170.203 138.069 177.461 144.785 177.6Z" fill="#CEDBDB"/>
<path d="M144.81 177.564C151.514 177.703 157.094 170.683 157.275 161.885C157.455 153.088 152.167 145.843 145.463 145.704C138.76 145.566 133.179 152.585 132.999 161.383C132.818 170.181 138.107 177.426 144.81 177.564Z" fill="#CFDCDC"/>
<path d="M144.833 177.53C151.524 177.668 157.094 170.662 157.274 161.881C157.454 153.101 152.176 145.87 145.485 145.732C138.794 145.593 133.224 152.599 133.044 161.38C132.864 170.161 138.142 177.391 144.833 177.53Z" fill="#CFDDDD"/>
<path d="M144.858 177.497C151.536 177.635 157.095 170.642 157.275 161.879C157.455 153.115 152.187 145.899 145.509 145.76C138.831 145.622 133.271 152.615 133.092 161.378C132.912 170.142 138.18 177.358 144.858 177.497Z" fill="#D0DDDD"/>
<path d="M144.874 177.464C151.539 177.602 157.088 170.623 157.267 161.877C157.446 153.13 152.189 145.928 145.523 145.79C138.858 145.652 133.31 152.631 133.13 161.377C132.951 170.124 138.209 177.326 144.874 177.464Z" fill="#D1DEDE"/>
<path d="M144.902 177.426C151.552 177.564 157.088 170.598 157.267 161.869C157.446 153.139 152.2 145.951 145.55 145.814C138.9 145.676 133.364 152.641 133.185 161.371C133.006 170.1 138.252 177.288 144.902 177.426Z" fill="#D2DFDF"/>
<path d="M144.926 177.395C151.563 177.532 157.089 170.581 157.267 161.868C157.446 153.156 152.21 145.982 145.573 145.844C138.935 145.707 133.41 152.658 133.231 161.371C133.053 170.083 138.289 177.257 144.926 177.395Z" fill="#D3DFDF"/>
<path d="M144.947 177.357C151.572 177.494 157.086 170.556 157.265 161.861C157.443 153.165 152.217 146.005 145.592 145.868C138.968 145.731 133.453 152.669 133.275 161.364C133.097 170.06 138.322 177.22 144.947 177.357Z" fill="#D4E0E0"/>
<path d="M144.97 177.326C151.582 177.462 157.086 170.538 157.264 161.86C157.442 153.182 152.226 146.036 145.614 145.899C139.002 145.762 133.498 152.686 133.32 161.365C133.143 170.043 138.358 177.189 144.97 177.326Z" fill="#D5E1E1"/>
<path d="M144.994 177.294C151.593 177.431 157.086 170.52 157.264 161.859C157.441 153.198 152.236 146.066 145.637 145.93C139.038 145.793 133.545 152.704 133.367 161.365C133.189 170.026 138.395 177.158 144.994 177.294Z" fill="#D6E1E1"/>
<path d="M145.017 177.258C151.603 177.394 157.086 170.497 157.263 161.853C157.44 153.209 152.245 146.092 145.659 145.955C139.072 145.819 133.59 152.716 133.413 161.36C133.235 170.004 138.431 177.122 145.017 177.258Z" fill="#D7E2E2"/>
<path d="M145.044 177.226C151.617 177.362 157.089 170.477 157.266 161.848C157.443 153.219 152.257 146.113 145.684 145.977C139.111 145.841 133.639 152.726 133.462 161.355C133.285 169.984 138.47 177.09 145.044 177.226Z" fill="#D8E3E3"/>
<path d="M145.064 177.194C151.624 177.33 157.085 170.459 157.262 161.847C157.438 153.235 152.263 146.144 145.703 146.008C139.142 145.872 133.681 152.744 133.505 161.355C133.328 169.967 138.503 177.059 145.064 177.194Z" fill="#D9E3E3"/>
<path d="M145.087 177.158C151.634 177.294 157.085 170.436 157.261 161.841C157.437 153.247 152.272 146.169 145.725 146.034C139.177 145.898 133.726 152.756 133.55 161.351C133.374 169.946 138.539 177.023 145.087 177.158Z" fill="#DAE4E4"/>
<path d="M145.111 177.124C151.646 177.259 157.086 170.415 157.262 161.837C157.438 153.26 152.283 146.196 145.748 146.061C139.213 145.926 133.773 152.77 133.598 161.348C133.422 169.925 138.577 176.989 145.111 177.124Z" fill="#DBE5E5"/>
<path d="M145.134 177.093C151.656 177.228 157.086 170.397 157.261 161.837C157.437 153.276 152.292 146.227 145.77 146.092C139.248 145.957 133.819 152.787 133.643 161.348C133.468 169.909 138.613 176.958 145.134 177.093Z" fill="#DCE6E6"/>
<path d="M145.159 177.056C151.668 177.191 157.087 170.374 157.262 161.831C157.437 153.287 152.303 146.252 145.794 146.117C139.284 145.983 133.866 152.799 133.691 161.343C133.516 169.886 138.65 176.921 145.159 177.056Z" fill="#DDE6E6"/>
<path d="M145.182 177.025C151.676 177.159 157.083 170.356 157.257 161.83C157.432 153.303 152.309 146.282 145.815 146.148C139.321 146.014 133.915 152.817 133.74 161.343C133.565 169.87 138.688 176.89 145.182 177.025Z" fill="#DEE7E7"/>
<path d="M145.202 176.99C151.684 177.124 157.079 170.335 157.254 161.826C157.428 153.316 152.315 146.31 145.834 146.175C139.353 146.041 133.957 152.831 133.783 161.34C133.608 169.849 138.721 176.856 145.202 176.99Z" fill="#DFE8E8"/>
<path d="M145.225 176.958C151.694 177.091 157.079 170.316 157.253 161.824C157.427 153.331 152.324 146.339 145.856 146.205C139.387 146.071 134.002 152.847 133.828 161.339C133.654 169.831 138.757 176.824 145.225 176.958Z" fill="#E0E8E8"/>
<path d="M145.252 176.921C151.708 177.055 157.082 170.293 157.256 161.817C157.429 153.342 152.337 146.364 145.881 146.23C139.426 146.097 134.052 152.859 133.878 161.334C133.704 169.809 138.797 176.788 145.252 176.921Z" fill="#E1E9E9"/>
<path d="M145.275 176.886C151.718 177.02 157.081 170.271 157.255 161.813C157.428 153.355 152.346 146.391 145.903 146.257C139.46 146.124 134.097 152.873 133.923 161.331C133.75 169.789 138.832 176.753 145.275 176.886Z" fill="#E2EAEA"/>
<path d="M145.298 176.854C151.728 176.987 157.081 170.252 157.254 161.811C157.427 153.37 152.355 146.42 145.925 146.287C139.495 146.154 134.142 152.889 133.969 161.329C133.796 169.77 138.868 176.721 145.298 176.854Z" fill="#E2EAEA"/>
<path d="M145.318 176.821C151.735 176.954 157.077 170.232 157.25 161.809C157.423 153.385 152.361 146.448 145.943 146.316C139.526 146.183 134.184 152.904 134.012 161.328C133.839 169.752 138.901 176.688 145.318 176.821Z" fill="#E3EBEB"/>
<path d="M145.345 176.781C151.749 176.914 157.081 170.206 157.253 161.8C157.425 153.393 152.373 146.471 145.969 146.338C139.565 146.206 134.233 152.913 134.061 161.32C133.889 169.726 138.941 176.649 145.345 176.781Z" fill="#E4ECEC"/>
<path d="M145.372 176.752C151.763 176.884 157.084 170.19 157.256 161.8C157.428 153.411 152.386 146.503 145.995 146.37C139.603 146.238 134.282 152.932 134.11 161.321C133.939 169.711 138.98 176.619 145.372 176.752Z" fill="#E5ECEC"/>
<path d="M145.388 176.719C151.767 176.851 157.077 170.171 157.248 161.798C157.42 153.426 152.388 146.532 146.009 146.4C139.631 146.268 134.321 152.948 134.149 161.32C133.978 169.693 139.009 176.587 145.388 176.719Z" fill="#E6EDED"/>
<path d="M145.411 176.682C151.777 176.814 157.076 170.148 157.247 161.792C157.419 153.437 152.397 146.557 146.031 146.425C139.665 146.293 134.366 152.96 134.195 161.315C134.024 169.671 139.045 176.551 145.411 176.682Z" fill="#E7EEEE"/>
<path d="M145.435 176.651C151.788 176.783 157.077 170.13 157.247 161.792C157.418 153.453 152.407 146.587 146.054 146.456C139.701 146.324 134.412 152.977 134.241 161.315C134.07 169.654 139.082 176.52 145.435 176.651Z" fill="#E8EEEE"/>
<path d="M145.461 176.615C151.799 176.746 157.075 170.107 157.246 161.786C157.416 153.465 152.417 146.613 146.079 146.482C139.741 146.35 134.464 152.99 134.294 161.311C134.123 169.632 139.123 176.484 145.461 176.615Z" fill="#E9EFEF"/>
<path d="M145.484 176.58C151.809 176.711 157.075 170.086 157.245 161.782C157.415 153.478 152.425 146.64 146.1 146.509C139.775 146.378 134.509 153.004 134.339 161.308C134.169 169.612 139.159 176.45 145.484 176.58Z" fill="#EAF0F0"/>
<path d="M145.508 176.547C151.82 176.678 157.075 170.066 157.245 161.779C157.415 153.492 152.435 146.668 146.123 146.538C139.811 146.407 134.556 153.019 134.386 161.306C134.216 169.593 139.195 176.417 145.508 176.547Z" fill="#EBF1F1"/>
<path d="M145.533 176.516C151.832 176.647 157.076 170.048 157.246 161.778C157.415 153.509 152.446 146.699 146.147 146.569C139.847 146.438 134.603 153.037 134.433 161.306C134.264 169.576 139.233 176.386 145.533 176.516Z" fill="#ECF1F1"/>
<path d="M145.554 176.476C151.84 176.606 157.074 170.022 157.243 161.769C157.412 153.516 152.453 146.721 146.166 146.591C139.88 146.46 134.646 153.045 134.477 161.298C134.308 169.551 139.267 176.346 145.554 176.476Z" fill="#EDF2F2"/>
<path d="M145.577 176.446C151.85 176.575 157.073 170.004 157.242 161.769C157.411 153.533 152.462 146.752 146.188 146.622C139.914 146.492 134.691 153.063 134.522 161.299C134.354 169.534 139.303 176.316 145.577 176.446Z" fill="#EEF3F3"/>
<path d="M145.601 176.414C151.862 176.544 157.074 169.987 157.242 161.768C157.411 153.55 152.472 146.782 146.211 146.653C139.95 146.523 134.737 153.08 134.569 161.299C134.401 169.517 139.34 176.285 145.601 176.414Z" fill="#EFF3F3"/>
<path d="M145.624 176.378C151.872 176.507 157.073 169.963 157.241 161.762C157.409 153.561 152.481 146.807 146.232 146.678C139.984 146.549 134.783 153.092 134.615 161.294C134.446 169.495 139.375 176.249 145.624 176.378Z" fill="#F0F4F4"/>
<path d="M145.648 176.347C151.884 176.476 157.075 169.946 157.242 161.761C157.41 153.577 152.491 146.838 146.256 146.709C140.021 146.58 134.83 153.11 134.662 161.294C134.494 169.478 139.413 176.218 145.648 176.347Z" fill="#F1F5F5"/>
<path d="M145.67 176.305C151.893 176.434 157.073 169.918 157.24 161.75C157.408 153.583 152.499 146.858 146.277 146.729C140.054 146.6 134.874 153.117 134.707 161.284C134.539 169.451 139.448 176.177 145.67 176.305Z" fill="#F2F5F5"/>
<path d="M145.693 176.274C151.903 176.403 157.072 169.9 157.24 161.75C157.407 153.6 152.508 146.888 146.298 146.76C140.089 146.632 134.919 153.134 134.752 161.284C134.585 169.434 139.484 176.146 145.693 176.274Z" fill="#F3F6F6"/>
<path d="M145.713 176.241C151.91 176.369 157.069 169.88 157.236 161.747C157.402 153.614 152.514 146.917 146.317 146.789C140.12 146.661 134.962 153.15 134.795 161.283C134.628 169.416 139.517 176.113 145.713 176.241Z" fill="#F4F7F7"/>
<path d="M145.743 176.205C151.925 176.333 157.071 169.857 157.238 161.741C157.404 153.625 152.528 146.943 146.346 146.815C140.164 146.687 135.017 153.162 134.851 161.278C134.685 169.394 139.561 176.077 145.743 176.205Z" fill="#F5F7F7"/>
<path d="M145.76 176.174C151.929 176.301 157.065 169.839 157.231 161.741C157.397 153.642 152.531 146.973 146.362 146.845C140.192 146.718 135.057 153.18 134.891 161.278C134.725 169.377 139.591 176.046 145.76 176.174Z" fill="#F5F8F8"/>
<path d="M145.786 176.139C151.942 176.266 157.067 169.818 157.233 161.737C157.399 153.655 152.542 147 146.386 146.873C140.23 146.745 135.105 153.194 134.939 161.275C134.774 169.357 139.63 176.012 145.786 176.139Z" fill="#F6F9F9"/>
<path d="M145.809 176.104C151.953 176.232 157.067 169.797 157.232 161.732C157.397 153.668 152.551 147.027 146.408 146.9C140.264 146.773 135.15 153.208 134.985 161.272C134.82 169.337 139.666 175.977 145.809 176.104Z" fill="#F7F9F9"/>
<path d="M145.834 176.071C151.965 176.198 157.068 169.777 157.233 161.73C157.398 153.682 152.562 147.056 146.431 146.929C140.301 146.802 135.197 153.223 135.032 161.27C134.867 169.318 139.704 175.944 145.834 176.071Z" fill="#F8FAFA"/>
<path d="M145.857 176.04C151.975 176.167 157.068 169.76 157.232 161.729C157.397 153.699 152.571 147.086 146.453 146.96C140.335 146.833 135.243 153.24 135.078 161.271C134.913 169.301 139.739 175.914 145.857 176.04Z" fill="#F9FBFB"/>
<path d="M145.879 176.001C151.984 176.127 157.066 169.733 157.23 161.72C157.395 153.707 152.579 147.108 146.474 146.982C140.369 146.856 135.287 153.249 135.123 161.263C134.958 169.276 139.774 175.874 145.879 176.001Z" fill="#FAFCFC"/>
<path d="M145.902 175.97C151.994 176.096 157.066 169.716 157.23 161.719C157.393 153.723 152.588 147.139 146.496 147.013C140.403 146.887 135.332 153.267 135.168 161.263C135.004 169.259 139.81 175.844 145.902 175.97Z" fill="#FBFCFC"/>
<path d="M145.925 175.936C152.004 176.062 157.065 169.696 157.229 161.717C157.392 153.738 152.597 147.168 146.517 147.042C140.438 146.916 135.377 153.282 135.214 161.261C135.05 169.24 139.846 175.811 145.925 175.936Z" fill="#FCFDFD"/>
<path d="M145.95 175.902C152.016 176.027 157.066 169.675 157.23 161.713C157.393 153.751 152.607 147.195 146.541 147.069C140.474 146.944 135.424 153.296 135.261 161.258C135.098 169.22 139.883 175.776 145.95 175.902Z" fill="#FDFEFE"/>
<path d="M145.975 175.866C152.028 175.991 157.068 169.652 157.231 161.707C157.394 153.762 152.618 147.22 146.565 147.095C140.511 146.97 135.471 153.309 135.309 161.254C135.146 169.198 139.921 175.741 145.975 175.866Z" fill="#FEFEFE"/>
<path d="M145.999 175.831C152.04 175.956 157.068 169.631 157.231 161.703C157.393 153.775 152.628 147.247 146.587 147.122C140.546 146.997 135.518 153.323 135.355 161.25C135.193 169.178 139.958 175.706 145.999 175.831Z" fill="white"/>
<path d="M149.315 174.907C153.107 174.891 156.162 170.416 156.137 164.911C156.112 159.407 153.018 154.958 149.226 154.974C145.434 154.99 142.38 159.466 142.405 164.97C142.429 170.474 145.523 174.923 149.315 174.907Z" fill="#472317"/>
<path d="M149.507 161.332C149.425 159.74 148.486 158.537 147.413 158.648C146.34 158.758 145.533 160.142 145.614 161.734C145.695 163.325 146.635 164.528 147.708 164.418C148.78 164.308 149.588 162.924 149.507 161.332Z" fill="white"/>
<path d="M154.082 168.92C154.028 167.872 153.41 167.08 152.705 167.151C151.998 167.226 151.467 168.133 151.52 169.181C151.574 170.229 152.192 171.021 152.898 170.95C153.605 170.875 154.136 169.968 154.082 168.92Z" fill="white"/>
<g style="mix-blend-mode:overlay" opacity="0.3">
<path d="M161.539 165.936C160.498 166.301 159.546 165.344 160.239 164.623C160.462 164.389 160.716 164.171 160.974 163.972C164.304 161.421 169.511 160.572 173.712 161.887C174.754 162.213 177.075 163.784 174.733 163.879C172.94 163.953 171.202 163.834 169.399 164.038C167.63 164.237 165.88 164.585 164.192 165.069C163.957 165.137 162.704 165.525 161.541 165.932L161.539 165.936Z" fill="white"/>
</g>
<g style="mix-blend-mode:overlay" opacity="0.2">
<path d="M169.323 107.919C166.747 105.502 164.705 102.535 163.39 99.2776C165.805 100.21 168.217 101.141 170.633 102.07C168.234 100.012 166.024 97.7458 164.035 95.301C166.42 96.8307 168.985 98.0915 171.668 99.0518C169.337 97.0064 167.166 94.7907 165.174 92.4272C169.159 94.8527 173.299 97.3312 177.973 97.9224C175.775 98.2469 173.872 98.1525 171.867 97.2505C173.535 98.5849 175.201 99.9227 176.869 101.257C174.455 101.185 172.067 100.636 169.88 99.6544C172.126 101.869 174.373 104.08 176.619 106.294C172.876 105.751 169.29 104.31 166.253 102.132C166.993 104.341 167.675 106.265 169.327 107.921L169.323 107.919Z" fill="white"/>
</g>
<path opacity="0.01" d="M212.645 186.693C223.931 184.079 231.841 176.614 230.312 170.02C228.783 163.427 218.394 160.201 207.107 162.816C195.821 165.43 187.912 172.895 189.441 179.489C190.97 186.082 201.359 189.308 212.645 186.693Z" fill="#DEA96F"/>
<path opacity="0.02" d="M212.583 186.558C223.73 183.976 231.542 176.605 230.032 170.094C228.522 163.584 218.262 160.4 207.115 162.982C195.969 165.564 188.157 172.935 189.666 179.446C191.176 185.956 201.436 189.14 212.583 186.558Z" fill="#DEA86F"/>
<path opacity="0.03" d="M212.521 186.426C223.526 183.876 231.239 176.598 229.748 170.169C228.257 163.74 218.127 160.595 207.122 163.144C196.117 165.694 188.404 172.972 189.895 179.401C191.386 185.83 201.516 188.975 212.521 186.426Z" fill="#DFA770"/>
<path opacity="0.04" d="M212.459 186.292C223.324 183.775 230.94 176.59 229.468 170.244C227.996 163.899 217.995 160.795 207.13 163.312C196.264 165.829 188.649 173.014 190.121 179.359C191.592 185.705 201.594 188.809 212.459 186.292Z" fill="#DFA670"/>
<path opacity="0.06" d="M212.393 186.165C223.117 183.681 230.632 176.588 229.18 170.324C227.727 164.059 217.856 160.995 207.132 163.479C196.408 165.964 188.893 173.056 190.345 179.32C191.798 185.585 201.669 188.649 212.393 186.165Z" fill="#DFA570"/>
<path opacity="0.07" d="M212.333 186.031C222.917 183.579 230.335 176.581 228.902 170.4C227.468 164.218 217.726 161.195 207.142 163.647C196.558 166.099 189.14 173.098 190.573 179.279C192.007 185.46 201.749 188.483 212.333 186.031Z" fill="#DFA470"/>
<path opacity="0.08" d="M212.267 185.9C222.71 183.481 230.028 176.575 228.613 170.475C227.199 164.375 217.587 161.392 207.144 163.811C196.702 166.23 189.383 173.136 190.798 179.236C192.212 185.336 201.825 188.319 212.267 185.9Z" fill="#E0A371"/>
<path opacity="0.09" d="M212.205 185.766C222.506 183.38 229.725 176.568 228.33 170.551C226.935 164.535 217.453 161.592 207.152 163.978C196.851 166.364 189.632 173.176 191.027 179.193C192.423 185.209 201.904 188.152 212.205 185.766Z" fill="#E0A271"/>
<path opacity="0.1" d="M212.145 185.638C222.306 183.284 229.428 176.564 228.051 170.629C226.675 164.694 217.321 161.791 207.16 164.145C196.999 166.498 189.878 173.218 191.254 179.154C192.631 185.089 201.984 187.992 212.145 185.638Z" fill="#E0A171"/>
<path opacity="0.11" d="M212.082 185.504C222.102 183.182 229.124 176.557 227.767 170.705C226.409 164.853 217.187 161.991 207.167 164.312C197.148 166.633 190.126 173.259 191.483 179.111C192.84 184.962 202.063 187.825 212.082 185.504Z" fill="#E0A071"/>
<path opacity="0.12" d="M212.021 185.372C221.901 183.083 228.825 176.55 227.487 170.779C226.148 165.008 217.054 162.186 207.174 164.474C197.294 166.763 190.37 173.297 191.708 179.067C193.047 184.838 202.141 187.661 212.021 185.372Z" fill="#E09F71"/>
<path opacity="0.13" d="M211.958 185.243C221.696 182.987 228.521 176.548 227.202 170.86C225.883 165.173 216.92 162.391 207.181 164.647C197.443 166.903 190.618 173.342 191.937 179.03C193.256 184.717 202.22 187.499 211.958 185.243Z" fill="#E19E72"/>
<path opacity="0.14" d="M211.896 185.112C221.493 182.889 228.218 176.542 226.918 170.936C225.618 165.33 216.784 162.587 207.188 164.811C197.591 167.034 190.866 173.381 192.166 178.987C193.466 184.593 202.299 187.335 211.896 185.112Z" fill="#E19D72"/>
<path opacity="0.16" d="M211.829 184.979C221.286 182.788 227.914 176.535 226.633 171.012C225.352 165.489 216.648 162.788 207.191 164.979C197.734 167.17 191.106 173.423 192.387 178.946C193.667 184.468 202.372 187.17 211.829 184.979Z" fill="#E19C72"/>
<path opacity="0.17" d="M211.772 184.845C221.087 182.687 227.616 176.526 226.354 171.084C225.092 165.643 216.517 162.981 207.202 165.139C197.886 167.297 191.358 173.458 192.62 178.899C193.882 184.341 202.457 187.003 211.772 184.845Z" fill="#E19B72"/>
<path opacity="0.18" d="M211.71 184.714C220.886 182.588 227.317 176.522 226.074 171.163C224.831 165.805 216.385 163.185 207.21 165.31C198.034 167.436 191.603 173.503 192.846 178.861C194.088 184.219 202.534 186.84 211.71 184.714Z" fill="#E29A73"/>
<path opacity="0.19" d="M211.644 184.584C220.678 182.491 227.009 176.517 225.785 171.24C224.562 165.963 216.246 163.381 207.212 165.474C198.178 167.567 191.847 173.541 193.07 178.818C194.294 184.095 202.61 186.677 211.644 184.584Z" fill="#E29973"/>
<path opacity="0.2" d="M225.485 171.333C226.689 176.528 220.456 182.411 211.563 184.47C202.67 186.529 194.483 183.987 193.279 178.792C192.075 173.598 198.307 167.714 207.2 165.655C216.093 163.596 224.281 166.139 225.485 171.333Z" fill="#E29873"/>
<path opacity="0.21" d="M211.52 184.32C220.273 182.292 226.407 176.504 225.221 171.391C224.036 166.279 215.979 163.778 207.226 165.806C198.473 167.834 192.339 173.622 193.525 178.734C194.71 183.847 202.767 186.347 211.52 184.32Z" fill="#E29773"/>
<path opacity="0.22" d="M211.458 184.193C220.069 182.198 226.104 176.502 224.937 171.471C223.77 166.44 215.843 163.979 207.232 165.973C198.621 167.968 192.587 173.664 193.753 178.695C194.92 183.726 202.847 186.188 211.458 184.193Z" fill="#E29673"/>
<path opacity="0.23" d="M211.396 184.057C219.867 182.094 225.804 176.493 224.657 171.545C223.51 166.597 215.712 164.177 207.24 166.139C198.769 168.102 192.832 173.704 193.979 178.652C195.127 183.599 202.924 186.02 211.396 184.057Z" fill="#E39574"/>
<path opacity="0.24" d="M211.333 183.929C219.663 181.999 225.5 176.489 224.372 171.623C223.243 166.756 215.575 164.376 207.246 166.305C198.916 168.235 193.078 173.744 194.207 178.611C195.335 183.478 203.003 185.858 211.333 183.929Z" fill="#E39474"/>
<path opacity="0.26" d="M211.27 183.793C219.46 181.895 225.2 176.48 224.091 171.697C222.981 166.913 215.443 164.574 207.253 166.471C199.062 168.369 193.322 173.784 194.431 178.568C195.541 183.351 203.08 185.69 211.27 183.793Z" fill="#E39374"/>
<path opacity="0.27" d="M211.206 183.668C219.254 181.803 224.895 176.48 223.804 171.778C222.714 167.076 215.305 164.776 207.257 166.641C199.208 168.505 193.568 173.828 194.658 178.53C195.749 183.232 203.157 185.532 211.206 183.668Z" fill="#E39274"/>
<path opacity="0.28" d="M211.147 183.532C219.054 181.7 224.595 176.471 223.524 171.852C222.453 167.233 215.175 164.974 207.268 166.806C199.361 168.638 193.82 173.867 194.891 178.485C195.962 183.104 203.24 185.363 211.147 183.532Z" fill="#E49175"/>
<path opacity="0.29" d="M211.081 183.4C218.848 181.6 224.291 176.464 223.239 171.926C222.187 167.389 215.037 165.169 207.27 166.968C199.503 168.768 194.059 173.905 195.111 178.442C196.164 182.98 203.313 185.199 211.081 183.4Z" fill="#E49075"/>
<path opacity="0.3" d="M211.019 183.265C218.644 181.499 223.989 176.456 222.956 172.002C221.923 167.548 214.904 165.369 207.278 167.136C199.652 168.902 194.308 173.945 195.341 178.399C196.374 182.853 203.393 185.032 211.019 183.265Z" fill="#E49075"/>
<path opacity="0.31" d="M210.957 183.138C218.443 181.403 223.689 176.453 222.675 172.08C221.661 167.707 214.77 165.568 207.284 167.302C199.798 169.037 194.552 173.987 195.566 178.36C196.58 182.733 203.471 184.872 210.957 183.138Z" fill="#E48F75"/>
<path opacity="0.32" d="M210.895 183.007C218.239 181.305 223.386 176.449 222.391 172.159C221.397 167.87 214.636 165.772 207.292 167.473C199.948 169.174 194.801 174.031 195.795 178.32C196.79 182.61 203.55 184.708 210.895 183.007Z" fill="#E48E75"/>
<path opacity="0.33" d="M210.833 182.875C218.037 181.206 223.087 176.441 222.111 172.233C221.135 168.025 214.503 165.967 207.298 167.636C200.093 169.305 195.044 174.069 196.02 178.277C196.996 182.486 203.628 184.544 210.833 182.875Z" fill="#E58D76"/>
<path opacity="0.34" d="M210.767 182.744C217.83 181.108 222.78 176.437 221.823 172.312C220.867 168.188 214.365 166.17 207.302 167.806C200.239 169.443 195.289 174.113 196.246 178.238C197.202 182.363 203.704 184.38 210.767 182.744Z" fill="#E58C76"/>
<path opacity="0.36" d="M210.71 182.612C217.631 181.008 222.482 176.43 221.544 172.387C220.606 168.343 214.235 166.365 207.313 167.968C200.392 169.572 195.541 174.15 196.479 178.193C197.417 182.237 203.788 184.215 210.71 182.612Z" fill="#E58B76"/>
<path opacity="0.37" d="M210.646 182.476C217.427 180.905 222.181 176.421 221.262 172.461C220.344 168.501 214.101 166.564 207.32 168.135C200.538 169.706 195.785 174.19 196.703 178.15C197.622 182.111 203.864 184.047 210.646 182.476Z" fill="#E58A76"/>
<path opacity="0.38" d="M210.581 182.346C217.221 180.807 221.874 176.416 220.975 172.537C220.075 168.658 213.963 166.76 207.323 168.298C200.683 169.836 196.029 174.228 196.929 178.107C197.828 181.986 203.941 183.884 210.581 182.346Z" fill="#E68977"/>
<path opacity="0.39" d="M210.522 182.216C217.022 180.71 221.578 176.412 220.698 172.616C219.817 168.82 213.834 166.964 207.334 168.47C200.833 169.976 196.277 174.274 197.157 178.07C198.038 181.865 204.021 183.722 210.522 182.216Z" fill="#E68877"/>
<path opacity="0.4" d="M220.391 172.706C221.253 176.419 216.795 180.624 210.438 182.096C204.081 183.568 198.227 181.751 197.365 178.038C196.502 174.325 200.96 170.119 207.318 168.648C213.675 167.176 219.529 168.992 220.391 172.706Z" fill="#E68777"/>
<path opacity="0.41" d="M210.394 181.95C216.611 180.51 220.968 176.399 220.126 172.768C219.284 169.137 213.561 167.361 207.344 168.801C201.127 170.241 196.77 174.352 197.612 177.983C198.454 181.615 204.177 183.391 210.394 181.95Z" fill="#E68677"/>
<path opacity="0.42" d="M210.33 181.817C216.407 180.409 220.666 176.39 219.843 172.84C219.02 169.29 213.426 167.554 207.348 168.962C201.271 170.37 197.011 174.389 197.834 177.939C198.658 181.489 204.252 183.225 210.33 181.817Z" fill="#E68577"/>
<path opacity="0.43" d="M210.27 181.692C216.205 180.317 220.366 176.392 219.562 172.925C218.758 169.458 213.294 167.763 207.358 169.138C201.422 170.513 197.262 174.438 198.066 177.905C198.87 181.371 204.334 183.067 210.27 181.692Z" fill="#E78478"/>
<path opacity="0.44" d="M210.209 181.557C216.006 180.214 220.068 176.381 219.283 172.996C218.498 169.61 213.162 167.954 207.366 169.297C201.57 170.64 197.508 174.473 198.293 177.858C199.078 181.244 204.413 182.899 210.209 181.557Z" fill="#E78378"/>
<path opacity="0.46" d="M218.976 173.089C219.742 176.393 215.777 180.132 210.124 181.441C204.471 182.75 199.265 181.137 198.499 177.833C197.733 174.529 201.698 170.789 207.351 169.481C213.004 168.172 218.21 169.785 218.976 173.089Z" fill="#E78278"/>
<path opacity="0.47" d="M210.079 181.291C215.594 180.013 219.46 176.367 218.713 173.146C217.966 169.925 212.889 168.35 207.374 169.628C201.859 170.905 197.994 174.552 198.741 177.773C199.488 180.993 204.564 182.569 210.079 181.291Z" fill="#E78178"/>
<path opacity="0.48" d="M218.412 173.24C219.141 176.378 215.375 179.932 210.001 181.178C204.627 182.425 199.682 180.888 198.955 177.747C198.226 174.609 201.992 171.056 207.366 169.809C212.738 168.566 217.684 170.099 218.412 173.24Z" fill="#E88079"/>
<path opacity="0.49" d="M209.955 181.031C215.187 179.819 218.854 176.359 218.145 173.303C217.436 170.247 212.62 168.752 207.389 169.964C202.157 171.176 198.491 174.636 199.199 177.692C199.908 180.748 204.724 182.243 209.955 181.031Z" fill="#E87F79"/>
<path opacity="0.5" d="M209.898 180.899C214.99 179.72 218.559 176.352 217.869 173.377C217.179 170.402 212.492 168.947 207.4 170.126C202.308 171.306 198.739 174.674 199.429 177.649C200.119 180.624 204.806 182.079 209.898 180.899Z" fill="#E87E79"/>
<path opacity="0.51" d="M209.83 180.768C214.781 179.622 218.25 176.348 217.58 173.456C216.909 170.565 212.352 169.15 207.402 170.297C202.452 171.444 198.982 174.718 199.653 177.609C200.323 180.501 204.88 181.915 209.83 180.768Z" fill="#E87D79"/>
<path opacity="0.52" d="M209.769 180.641C214.58 179.526 217.952 176.345 217.3 173.534C216.648 170.724 212.22 169.349 207.409 170.464C202.598 171.578 199.227 174.76 199.878 177.57C200.53 180.38 204.958 181.755 209.769 180.641Z" fill="#E87C79"/>
<path opacity="0.53" d="M216.995 173.624C217.628 176.352 214.355 179.44 209.687 180.52C205.018 181.603 200.72 180.265 200.09 177.538C199.457 174.81 202.73 171.722 207.397 170.642C212.067 169.559 216.365 170.898 216.997 173.621L216.995 173.624Z" fill="#E97B7A"/>
<path opacity="0.54" d="M209.646 180.374C214.174 179.325 217.346 176.33 216.733 173.684C216.119 171.039 211.952 169.744 207.424 170.793C202.897 171.842 199.724 174.837 200.338 177.482C200.951 180.128 205.119 181.423 209.646 180.374Z" fill="#E97A7A"/>
<path opacity="0.56" d="M209.584 180.242C213.972 179.225 217.047 176.324 216.453 173.761C215.859 171.199 211.82 169.946 207.432 170.962C203.044 171.979 199.969 174.88 200.563 177.442C201.158 180.005 205.196 181.258 209.584 180.242Z" fill="#E9797A"/>
<path opacity="0.57" d="M216.15 173.855C216.725 176.337 213.747 179.144 209.503 180.127C205.256 181.112 201.347 179.898 200.771 177.416C200.195 174.934 203.173 172.127 207.418 171.144C211.664 170.158 215.574 171.373 216.15 173.855Z" fill="#E9787A"/>
<path opacity="0.58" d="M209.454 179.977C213.561 179.026 216.439 176.311 215.883 173.913C215.327 171.515 211.547 170.343 207.44 171.294C203.334 172.245 200.456 174.96 201.012 177.358C201.568 179.756 205.348 180.929 209.454 179.977Z" fill="#EA777B"/>
<path opacity="0.59" d="M215.581 174.004C216.12 176.319 213.34 178.941 209.375 179.861C205.41 180.781 201.759 179.646 201.22 177.331C200.681 175.016 203.461 172.394 207.426 171.474C211.392 170.553 215.042 171.688 215.577 174.002L215.581 174.004Z" fill="#EA767B"/>
<path opacity="0.6" d="M209.332 179.713C213.157 178.827 215.839 176.298 215.321 174.065C214.803 171.832 211.282 170.74 207.457 171.626C203.631 172.512 200.95 175.041 201.468 177.274C201.986 179.507 205.507 180.6 209.332 179.713Z" fill="#EA757B"/>
<path d="M223.547 169.727C228.324 167.63 233.534 166.748 238.733 167.245C239.322 167.301 239.266 168.181 238.675 168.163C233.687 168.02 228.703 168.9 224.089 170.806C223.373 171.103 222.828 170.039 223.543 169.725L223.547 169.727Z" fill="#985119"/>
<path d="M215.554 169.29C223.396 163.93 232.845 161.437 242.144 160.084C244.883 159.687 247.637 159.432 250.395 159.21C250.872 159.17 251.051 159.887 250.553 159.96C241.261 161.342 231.964 162.974 223.29 166.713C220.869 167.758 218.538 168.992 216.286 170.371C215.655 170.758 214.936 169.71 215.555 169.287L215.554 169.29Z" fill="#985119"/>
<g style="mix-blend-mode:overlay" opacity="0.31">
<path d="M204.264 173.175C213.432 171.93 219.745 162.693 218.364 152.543C216.983 142.393 208.432 135.174 199.264 136.419C190.096 137.664 183.783 146.901 185.164 157.051C186.545 167.201 195.096 174.42 204.264 173.175Z" fill="black"/>
</g>
<path d="M202.699 171.496C210.928 170.379 216.603 162.15 215.374 153.117C214.145 144.083 206.478 137.666 198.249 138.784C190.02 139.901 184.345 148.13 185.574 157.163C186.803 166.197 194.47 172.614 202.699 171.496Z" fill="#C5D5D5"/>
<path d="M202.672 171.47C210.887 170.354 216.551 162.141 215.325 153.124C214.098 144.108 206.445 137.703 198.231 138.819C190.016 139.934 184.352 148.148 185.578 157.164C186.805 166.18 194.458 172.585 202.672 171.47Z" fill="#C6D6D6"/>
<path d="M202.636 171.444C210.834 170.331 216.486 162.133 215.262 153.133C214.038 144.134 206.4 137.741 198.203 138.854C190.006 139.967 184.353 148.165 185.577 157.165C186.801 166.164 194.439 172.557 202.636 171.444Z" fill="#C7D6D6"/>
<path d="M202.607 171.415C210.789 170.304 216.432 162.122 215.21 153.139C213.988 144.157 206.364 137.776 198.182 138.887C189.999 139.998 184.357 148.181 185.579 157.163C186.801 166.146 194.425 172.527 202.607 171.415Z" fill="#C8D7D7"/>
<path d="M202.574 171.382C210.739 170.273 216.37 162.108 215.151 153.145C213.932 144.181 206.324 137.814 198.158 138.923C189.993 140.032 184.362 148.197 185.581 157.16C186.8 166.124 194.408 172.491 202.574 171.382Z" fill="#C9D8D8"/>
<path d="M202.541 171.354C210.692 170.247 216.313 162.097 215.096 153.151C213.879 144.204 206.285 137.849 198.134 138.956C189.983 140.063 184.363 148.213 185.58 157.159C186.797 166.105 194.391 172.461 202.541 171.354Z" fill="#CAD8D8"/>
<path d="M202.51 171.329C210.646 170.224 216.257 162.09 215.042 153.16C213.827 144.231 206.247 137.888 198.111 138.993C189.975 140.097 184.365 148.232 185.579 157.161C186.794 166.091 194.374 172.434 202.51 171.329Z" fill="#CBD9D9"/>
<path d="M202.482 171.298C210.601 170.195 216.2 162.077 214.987 153.164C213.775 144.251 206.21 137.92 198.091 139.023C189.972 140.125 184.374 148.244 185.586 157.157C186.798 166.069 194.363 172.4 202.482 171.298Z" fill="#CCDADA"/>
<path d="M202.445 171.271C210.549 170.171 216.137 162.067 214.927 153.172C213.717 144.276 206.166 137.957 198.062 139.058C189.958 140.158 184.37 148.262 185.58 157.157C186.79 166.053 194.341 172.372 202.445 171.271Z" fill="#CDDBDB"/>
<path d="M202.416 171.241C210.503 170.142 216.08 162.054 214.872 153.176C213.665 144.297 206.13 137.99 198.042 139.088C189.955 140.186 184.379 148.274 185.586 157.153C186.794 166.032 194.329 172.339 202.416 171.241Z" fill="#CEDBDB"/>
<path d="M202.384 171.216C210.456 170.119 216.023 162.047 214.817 153.185C213.612 144.323 206.091 138.028 198.018 139.124C189.946 140.221 184.38 148.293 185.585 157.155C186.791 166.017 194.312 172.312 202.384 171.216Z" fill="#CFDCDC"/>
<path d="M202.355 171.188C210.412 170.093 215.969 162.036 214.765 153.192C213.562 144.347 206.055 138.064 197.997 139.158C189.94 140.252 184.384 148.309 185.587 157.154C186.79 165.999 194.297 172.282 202.355 171.188Z" fill="#CFDDDD"/>
<path d="M202.318 171.159C210.358 170.067 215.903 162.027 214.702 153.201C213.502 144.376 206.01 138.106 197.97 139.198C189.929 140.29 184.384 148.33 185.585 157.156C186.786 165.981 194.277 172.251 202.318 171.159Z" fill="#D0DDDD"/>
<path d="M202.287 171.131C210.313 170.041 215.848 162.017 214.649 153.208C213.451 144.399 205.973 138.142 197.948 139.232C189.922 140.322 184.387 148.346 185.586 157.155C186.784 165.963 194.262 172.221 202.287 171.131Z" fill="#D1DEDE"/>
<path d="M202.258 171.103C210.269 170.015 215.793 162.006 214.597 153.214C213.401 144.422 205.938 138.177 197.927 139.265C189.916 140.353 184.391 148.362 185.587 157.154C186.783 165.946 194.247 172.191 202.258 171.103Z" fill="#D2DFDF"/>
<path d="M202.224 171.073C210.218 169.987 215.73 161.994 214.536 153.219C213.343 144.444 205.895 138.211 197.901 139.297C189.907 140.382 184.394 148.376 185.588 157.15C186.782 165.925 194.23 172.159 202.224 171.073Z" fill="#D3DFDF"/>
<path d="M202.192 171.049C210.171 169.965 215.674 161.987 214.482 153.229C213.291 144.471 205.857 138.25 197.878 139.333C189.899 140.417 184.396 148.395 185.588 157.153C186.779 165.911 194.213 172.132 202.192 171.049Z" fill="#D4E0E0"/>
<path d="M202.156 171.023C210.118 169.941 215.609 161.979 214.42 153.238C213.231 144.497 205.812 138.288 197.85 139.369C189.888 140.45 184.398 148.413 185.587 157.154C186.776 165.894 194.194 172.104 202.156 171.023Z" fill="#D5E1E1"/>
<path d="M202.128 170.991C210.075 169.912 215.556 161.965 214.369 153.241C213.182 144.517 205.777 138.32 197.83 139.399C189.883 140.478 184.403 148.425 185.589 157.149C186.776 165.873 194.181 172.07 202.128 170.991Z" fill="#D6E1E1"/>
<path d="M202.097 170.963C210.029 169.886 215.499 161.954 214.315 153.247C213.13 144.54 205.74 138.355 197.807 139.432C189.875 140.509 184.405 148.441 185.589 157.148C186.773 165.855 194.164 172.04 202.097 170.963Z" fill="#D7E2E2"/>
<path d="M202.066 170.935C209.982 169.86 215.44 161.944 214.258 153.254C213.076 144.564 205.701 138.391 197.785 139.466C189.87 140.541 184.411 148.457 185.594 157.147C186.776 165.837 194.151 172.01 202.066 170.935Z" fill="#D8E3E3"/>
<path d="M202.03 170.905C209.931 169.832 215.379 161.933 214.2 153.262C213.02 144.591 205.659 138.431 197.758 139.504C189.858 140.577 184.409 148.476 185.589 157.147C186.769 165.818 194.129 171.977 202.03 170.905Z" fill="#D9E3E3"/>
<path d="M202.005 170.875C209.888 169.805 215.325 161.921 214.148 153.267C212.97 144.613 205.625 138.465 197.741 139.536C189.858 140.607 184.421 148.49 185.598 157.144C186.776 165.798 194.121 171.946 202.005 170.875Z" fill="#DAE4E4"/>
<path d="M201.969 170.849C209.838 169.78 215.265 161.912 214.09 153.275C212.915 144.638 205.583 138.502 197.715 139.571C189.846 140.64 184.419 148.508 185.594 157.145C186.769 165.782 194.101 171.917 201.969 170.849Z" fill="#DBE5E5"/>
<path d="M201.941 170.819C209.795 169.752 215.211 161.9 214.039 153.279C212.866 144.659 205.549 138.536 197.695 139.602C189.841 140.669 184.424 148.522 185.597 157.142C186.77 165.762 194.087 171.885 201.941 170.819Z" fill="#DCE6E6"/>
<path d="M201.906 170.793C209.743 169.729 215.147 161.891 213.977 153.288C212.807 144.685 205.505 138.574 197.668 139.638C189.831 140.702 184.426 148.539 185.597 157.142C186.767 165.746 194.069 171.857 201.906 170.793Z" fill="#DDE6E6"/>
<path d="M201.874 170.768C209.696 169.706 215.09 161.884 213.922 153.298C212.754 144.712 205.466 138.612 197.644 139.675C189.822 140.737 184.427 148.559 185.595 157.145C186.763 165.731 194.051 171.831 201.874 170.768Z" fill="#DEE7E7"/>
<path d="M201.843 170.74C209.649 169.68 215.031 161.874 213.865 153.305C212.7 144.736 205.427 138.648 197.622 139.708C189.817 140.768 184.434 148.574 185.6 157.144C186.766 165.713 194.038 171.8 201.843 170.74Z" fill="#DFE8E8"/>
<path d="M201.814 170.712C209.604 169.654 214.977 161.864 213.813 153.311C212.65 144.759 205.391 138.684 197.601 139.742C189.81 140.8 184.438 148.59 185.602 157.143C186.765 165.695 194.024 171.77 201.814 170.712Z" fill="#E0E8E8"/>
<path d="M201.777 170.686C209.552 169.63 214.915 161.855 213.753 153.319C212.592 144.784 205.348 138.721 197.572 139.777C189.797 140.832 184.434 148.608 185.596 157.143C186.757 165.679 194.001 171.742 201.777 170.686Z" fill="#E1E9E9"/>
<path d="M201.749 170.647C209.507 169.593 214.858 161.835 213.699 153.319C212.541 144.803 205.312 138.753 197.553 139.807C189.794 140.86 184.444 148.618 185.603 157.134C186.761 165.651 193.99 171.701 201.749 170.647Z" fill="#E2EAEA"/>
<path d="M201.715 170.622C209.459 169.571 214.799 161.828 213.643 153.329C212.487 144.829 205.272 138.792 197.528 139.843C189.784 140.895 184.444 148.638 185.6 157.137C186.757 165.636 193.971 171.674 201.715 170.622Z" fill="#E2EAEA"/>
<path d="M201.681 170.596C209.408 169.547 214.736 161.82 213.582 153.338C212.429 144.855 205.229 138.83 197.502 139.879C189.776 140.928 184.447 148.655 185.601 157.138C186.755 165.62 193.954 171.646 201.681 170.596Z" fill="#E3EBEB"/>
<path d="M201.655 170.568C209.367 169.521 214.685 161.809 213.533 153.344C212.382 144.878 205.196 138.865 197.484 139.912C189.772 140.959 184.454 148.671 185.606 157.136C186.757 165.602 193.943 171.615 201.655 170.568Z" fill="#E4ECEC"/>
<path d="M201.626 170.537C209.323 169.491 214.632 161.795 213.482 153.347C212.333 144.898 205.161 138.897 197.464 139.942C189.767 140.987 184.459 148.683 185.608 157.132C186.758 165.58 193.929 171.582 201.626 170.537Z" fill="#E5ECEC"/>
<path d="M201.589 170.514C209.269 169.471 214.566 161.79 213.419 153.359C212.272 144.927 205.116 138.938 197.436 139.981C189.755 141.024 184.459 148.704 185.606 157.136C186.753 165.567 193.909 171.557 201.589 170.514Z" fill="#E6EDED"/>
<path d="M201.563 170.484C209.228 169.443 214.514 161.778 213.37 153.363C212.225 144.949 205.083 138.971 197.417 140.012C189.752 141.053 184.466 148.718 185.611 157.133C186.755 165.548 193.897 171.525 201.563 170.484Z" fill="#E7EEEE"/>
<path d="M201.531 170.455C209.179 169.416 214.453 161.766 213.311 153.369C212.168 144.971 205.042 139.005 197.394 140.044C189.745 141.083 184.471 148.732 185.613 157.13C186.756 165.528 193.882 171.493 201.531 170.455Z" fill="#E8EEEE"/>
<path d="M201.492 170.427C209.126 169.391 214.39 161.758 213.25 153.38C212.111 145.001 204.998 139.049 197.365 140.086C189.731 141.123 184.467 148.755 185.607 157.134C186.747 165.512 193.859 171.464 201.492 170.427Z" fill="#E9EFEF"/>
<path d="M201.463 170.401C209.082 169.366 214.336 161.749 213.198 153.387C212.061 145.026 204.963 139.086 197.344 140.121C189.725 141.155 184.471 148.773 185.608 157.134C186.746 165.496 193.844 171.436 201.463 170.401Z" fill="#EAF0F0"/>
<path d="M201.433 170.373C209.035 169.341 214.277 161.74 213.142 153.395C212.006 145.05 204.924 139.122 197.322 140.155C189.72 141.187 184.478 148.789 185.613 157.133C186.748 165.478 193.831 171.406 201.433 170.373Z" fill="#EBF1F1"/>
<path d="M201.4 170.342C208.987 169.311 214.22 161.725 213.087 153.397C211.954 145.07 204.885 139.154 197.298 140.184C189.711 141.215 184.479 148.801 185.612 157.128C186.745 165.456 193.814 171.372 201.4 170.342Z" fill="#ECF1F1"/>
<path d="M201.37 170.314C208.942 169.285 214.164 161.715 213.034 153.404C211.903 145.093 204.848 139.189 197.276 140.218C189.704 141.246 184.482 148.817 185.613 157.128C186.743 165.438 193.798 171.342 201.37 170.314Z" fill="#EDF2F2"/>
<path d="M201.335 170.288C208.89 169.262 214.1 161.706 212.972 153.413C211.844 145.119 204.804 139.227 197.249 140.253C189.694 141.279 184.484 148.834 185.612 157.128C186.741 165.422 193.78 171.314 201.335 170.288Z" fill="#EEF3F3"/>
<path d="M201.305 170.259C208.845 169.235 214.045 161.695 212.919 153.419C211.793 145.142 204.768 139.262 197.227 140.286C189.687 141.31 184.487 148.85 185.613 157.127C186.739 165.404 193.764 171.283 201.305 170.259Z" fill="#EFF3F3"/>
<path d="M201.273 170.235C208.797 169.213 213.985 161.689 212.861 153.429C211.738 145.169 204.728 139.302 197.204 140.323C189.681 141.345 184.493 148.869 185.617 157.129C186.74 165.389 193.75 171.257 201.273 170.235Z" fill="#F0F4F4"/>
<path d="M201.245 170.203C208.754 169.184 213.931 161.675 212.81 153.432C211.689 145.189 204.693 139.333 197.184 140.353C189.676 141.373 184.498 148.881 185.619 157.124C186.741 165.367 193.737 171.223 201.245 170.203Z" fill="#F1F5F5"/>
<path d="M201.209 170.173C208.703 169.155 213.87 161.664 212.752 153.44C211.633 145.216 204.651 139.374 197.157 140.392C189.664 141.409 184.496 148.901 185.615 157.125C186.733 165.349 193.715 171.191 201.209 170.173Z" fill="#F2F5F5"/>
<path d="M201.179 170.145C208.655 169.13 213.811 161.654 212.695 153.447C211.578 145.24 204.612 139.41 197.136 140.425C189.659 141.441 184.503 148.917 185.619 157.124C186.736 165.331 193.702 171.16 201.179 170.145Z" fill="#F3F6F6"/>
<path d="M201.143 170.119C208.605 169.105 213.751 161.645 212.637 153.455C211.523 145.265 204.571 139.447 197.109 140.46C189.647 141.473 184.501 148.934 185.615 157.124C186.729 165.314 193.681 171.132 201.143 170.119Z" fill="#F4F7F7"/>
<path d="M201.112 170.091C208.557 169.08 213.691 161.635 212.579 153.462C211.467 145.289 204.531 139.483 197.086 140.494C189.641 141.505 184.507 148.95 185.619 157.123C186.73 165.296 193.667 171.102 201.112 170.091Z" fill="#F5F7F7"/>
<path d="M201.081 170.068C208.511 169.059 213.635 161.629 212.525 153.473C211.416 145.317 204.493 139.523 197.063 140.532C189.633 141.541 184.509 148.971 185.618 157.127C186.728 165.283 193.651 171.077 201.081 170.068Z" fill="#F5F8F8"/>
<path d="M201.052 170.033C208.468 169.026 213.581 161.611 212.474 153.472C211.367 145.333 204.458 139.551 197.043 140.558C189.628 141.565 184.514 148.98 185.621 157.119C186.728 165.258 193.637 171.04 201.052 170.033Z" fill="#F6F9F9"/>
<path d="M201.017 170.005C208.416 169.001 213.517 161.602 212.413 153.48C211.308 145.358 204.414 139.588 197.016 140.592C189.618 141.597 184.516 148.996 185.621 157.118C186.726 165.24 193.619 171.01 201.017 170.005Z" fill="#F7F9F9"/>
<path d="M200.989 169.976C208.372 168.973 213.464 161.589 212.361 153.484C211.259 145.379 204.38 139.621 196.996 140.624C189.612 141.627 184.521 149.01 185.623 157.115C186.726 165.22 193.605 170.978 200.989 169.976Z" fill="#F8FAFA"/>
<path d="M200.955 169.953C208.321 168.953 213.401 161.585 212.301 153.497C211.2 145.408 204.337 139.662 196.97 140.663C189.604 141.663 184.524 149.031 185.624 157.119C186.724 165.208 193.588 170.953 200.955 169.953Z" fill="#F9FBFB"/>
<path d="M200.925 169.919C208.277 168.92 213.347 161.57 212.249 153.501C211.151 145.431 204.302 139.699 196.95 140.698C189.598 141.696 184.529 149.047 185.626 157.116C186.724 165.185 193.574 170.917 200.925 169.919Z" fill="#FAFCFC"/>
<path d="M200.89 169.892C208.227 168.896 213.287 161.561 212.191 153.508C211.096 145.456 204.26 139.736 196.923 140.733C189.586 141.729 184.527 149.064 185.622 157.117C186.717 165.169 193.553 170.889 200.89 169.892Z" fill="#FBFCFC"/>
<path d="M200.86 169.865C208.18 168.871 213.228 161.551 212.135 153.516C211.041 145.48 204.221 139.772 196.901 140.767C189.581 141.761 184.534 149.08 185.627 157.116C186.72 165.151 193.54 170.859 200.86 169.865Z" fill="#FCFDFD"/>
<path d="M200.825 169.838C208.13 168.846 213.167 161.542 212.077 153.524C210.986 145.505 204.18 139.809 196.875 140.801C189.569 141.793 184.532 149.098 185.623 157.116C186.713 165.134 193.52 170.83 200.825 169.838Z" fill="#FDFEFE"/>
<path d="M200.794 169.81C208.083 168.821 213.108 161.532 212.02 153.531C210.931 145.529 204.141 139.845 196.853 140.835C189.564 141.825 184.539 149.113 185.627 157.115C186.716 165.116 193.506 170.8 200.794 169.81Z" fill="#FEFEFE"/>
<path d="M200.764 169.783C208.037 168.795 213.053 161.521 211.967 153.537C210.881 145.553 204.104 139.881 196.831 140.868C189.557 141.856 184.542 149.129 185.628 157.114C186.714 165.098 193.491 170.77 200.764 169.783Z" fill="white"/>
<path d="M197.467 169.365C202.03 168.746 205.117 163.748 204.363 158.202C203.608 152.657 199.298 148.664 194.735 149.283C190.172 149.903 187.085 154.901 187.84 160.446C188.594 165.992 192.904 169.985 197.467 169.365Z" fill="#472317"/>
<path d="M194.381 155.894C194.161 154.284 192.932 153.12 191.634 153.298C190.335 153.476 189.462 154.922 189.681 156.532C189.901 158.142 191.13 159.306 192.428 159.127C193.725 158.953 194.601 157.504 194.381 155.894Z" fill="white"/>
<path d="M200.507 163.309C200.363 162.25 199.553 161.486 198.7 161.6C197.845 161.717 197.271 162.667 197.415 163.726C197.558 164.785 198.369 165.549 199.222 165.435C200.076 165.318 200.651 164.368 200.507 163.309Z" fill="white"/>
<path d="M129.194 185.816C123.989 186.149 118.956 187.768 114.569 190.603C114.071 190.923 114.525 191.679 115.042 191.39C119.405 188.97 124.231 187.458 129.208 187.026C129.978 186.957 129.975 185.765 129.194 185.816Z" fill="#985119"/>
<path d="M136.086 181.744C126.656 180.594 117.12 182.73 108.242 185.809C105.626 186.716 103.068 187.757 100.519 188.832C100.078 189.016 100.248 189.732 100.725 189.571C109.613 186.523 118.617 183.691 128.038 183.021C130.67 182.835 133.307 182.86 135.937 183.045C136.674 183.099 136.833 181.838 136.087 181.749L136.086 181.744Z" fill="#985119"/>
<g style="mix-blend-mode:overlay" opacity="0.2">
<path d="M180.022 203.67C199.43 200.455 220.163 192.831 228.627 173.51C236.546 155.371 227.452 137.717 215.787 123.26C209.454 115.471 203.154 108.011 195.446 102.407C199.194 103.821 202.862 105.612 206.137 107.716C215.395 113.657 223.479 122.271 229.912 131.11C235.713 139.081 241.207 147.929 243.702 157.567C252.149 190.225 214.604 205.09 189.002 209.148C173.121 211.663 151.121 211.524 137.777 201.351C151.405 205.265 166.016 206.053 180.024 203.675L180.022 203.67Z" fill="black"/>
</g>
<g style="mix-blend-mode:overlay" opacity="0.2">
<path d="M226.593 227.561C228.361 222.665 228.784 217.286 229.195 211.983C228.869 209.155 223.028 208.313 221.916 209.816C221.874 209.985 221.826 210.147 221.776 210.313C223.869 212.007 225.13 214.664 224.749 217.497C224.007 223.879 220.832 231.551 215.522 234.611C208.364 238.898 201.014 236.716 194.428 234.358C195.831 235.137 197.189 235.814 198.479 236.37C204.398 238.915 211.058 240.898 216.787 238.711C221.521 236.905 224.827 232.461 226.594 227.566L226.593 227.561Z" fill="black"/>
</g>
<g style="mix-blend-mode:overlay" opacity="0.2">
<path d="M199.439 213.534C201.121 215.353 202.804 217.169 204.486 218.988C202.368 217.968 200.25 216.947 198.131 215.926C200.489 218.75 202.846 221.573 205.202 224.399L193.679 217.694C195.198 221.294 197.322 224.636 199.937 227.543C195.491 225.777 191.282 223.407 187.467 220.521C188.655 223.609 190.439 226.467 192.694 228.886C188.319 226.279 184.188 223.262 180.377 219.887C182.121 220.943 183.576 221.396 185.322 222.449C182.846 219.748 181.095 216.382 180.308 212.802C184.141 215.706 187.971 218.605 191.804 221.51C189.781 218.448 188.401 214.958 187.782 211.338C190.58 213.56 193.375 215.78 196.173 218.002C194.354 215.683 192.814 213.14 191.598 210.455C193.918 212.147 196.236 213.842 198.556 215.535C197.955 214 197.352 212.468 196.751 210.933C197.783 211.81 198.517 212.544 199.437 213.537L199.439 213.534Z" fill="white"/>
</g>
<g style="mix-blend-mode:overlay" opacity="0.2">
<path d="M156.674 246.305C155.325 249.599 154.417 253.076 153.985 256.61C153.21 253.401 152.432 250.195 151.653 246.985C150.8 249.86 149.941 252.738 149.087 255.613C148.676 252.294 148.263 248.979 147.852 245.66C146.348 248.67 145.507 252.008 145.405 255.37C144.182 251.734 143.858 247.799 144.465 244.007C142.416 246.371 140.965 249.251 140.278 252.303C138.519 245.567 140.684 237.95 145.721 233.145C143.902 236.654 142.745 240.297 141.84 244.145C143.389 240.603 145.914 237.491 149.064 235.244C147.537 238.537 146.559 242.084 146.193 245.694C147.195 242.594 148.904 239.728 151.154 237.371C150.764 241.129 150.377 244.889 149.987 248.648C150.91 246.285 152.103 244.025 153.535 241.934C153.459 244.819 153.384 247.708 153.308 250.593C154.371 248.996 155.612 247.898 156.675 246.302L156.674 246.305Z" fill="white"/>
</g>
<defs>
<linearGradient id="paint0_linear_2_163632" x1="22.0466" y1="211.813" x2="155.286" y2="234.459" gradientUnits="userSpaceOnUse">
<stop stop-color="#C6884A"/>
<stop offset="0.32" stop-color="#C28345"/>
<stop offset="0.66" stop-color="#B87739"/>
<stop offset="1" stop-color="#A86326"/>
</linearGradient>
<linearGradient id="paint1_linear_2_163632" x1="202.344" y1="271.892" x2="228.584" y2="285.233" gradientUnits="userSpaceOnUse">
<stop stop-color="#DEAA6F"/>
<stop offset="0.25" stop-color="#E1AE76"/>
<stop offset="0.63" stop-color="#E9BC89"/>
<stop offset="1" stop-color="#F5CFA4"/>
</linearGradient>
<linearGradient id="paint2_linear_2_163632" x1="217.657" y1="320.165" x2="223.907" y2="296.631" gradientUnits="userSpaceOnUse">
<stop stop-color="#C6884A"/>
<stop offset="0.32" stop-color="#C28345"/>
<stop offset="0.66" stop-color="#B87739"/>
<stop offset="1" stop-color="#A86326"/>
</linearGradient>
<linearGradient id="paint3_linear_2_163632" x1="210.362" y1="221.51" x2="230.975" y2="231.99" gradientUnits="userSpaceOnUse">
<stop stop-color="#DEAA6F"/>
<stop offset="1" stop-color="#F5CFA4"/>
</linearGradient>
<linearGradient id="paint4_linear_2_163632" x1="162.881" y1="283.051" x2="215.154" y2="180.238" gradientUnits="userSpaceOnUse">
<stop stop-color="#DEAA6F"/>
<stop offset="1" stop-color="#F5CFA4"/>
</linearGradient>
<linearGradient id="paint5_linear_2_163632" x1="196.265" y1="227.514" x2="187.071" y2="279.474" gradientUnits="userSpaceOnUse">
<stop stop-color="#F5CFA4"/>
<stop offset="0.28" stop-color="#F5D1A8"/>
<stop offset="0.58" stop-color="#F8D8B5"/>
<stop offset="0.91" stop-color="#FDE4CC"/>
<stop offset="1" stop-color="#FFE9D4"/>
</linearGradient>
<linearGradient id="paint6_linear_2_163632" x1="158.522" y1="264.572" x2="148.019" y2="300.467" gradientUnits="userSpaceOnUse">
<stop offset="0.09" stop-color="#E1AE75"/>
<stop offset="0.8" stop-color="#F5CFA4"/>
</linearGradient>
<linearGradient id="paint7_linear_2_163632" x1="135.482" y1="309.64" x2="148.903" y2="289.327" gradientUnits="userSpaceOnUse">
<stop stop-color="#C6884A"/>
<stop offset="0.32" stop-color="#C28345"/>
<stop offset="0.66" stop-color="#B87739"/>
<stop offset="1" stop-color="#A86326"/>
</linearGradient>
<linearGradient id="paint8_linear_2_163632" x1="229.698" y1="201.332" x2="225.037" y2="212.557" gradientUnits="userSpaceOnUse">
<stop stop-color="#C6884A"/>
<stop offset="0.32" stop-color="#C28345"/>
<stop offset="0.66" stop-color="#B87739"/>
<stop offset="1" stop-color="#A86326"/>
</linearGradient>
<linearGradient id="paint9_linear_2_163632" x1="222.112" y1="230.532" x2="175.184" y2="205.922" gradientUnits="userSpaceOnUse">
<stop stop-color="#E9BB87"/>
<stop offset="0.86" stop-color="#EFC697"/>
</linearGradient>
<linearGradient id="paint10_linear_2_163632" x1="299.884" y1="76.3051" x2="217.083" y2="149.957" gradientUnits="userSpaceOnUse">
<stop stop-color="#F5CFA4"/>
<stop offset="0.08" stop-color="#EFC698"/>
<stop offset="0.31" stop-color="#DFB07B"/>
<stop offset="0.55" stop-color="#D4A166"/>
<stop offset="0.78" stop-color="#CE985A"/>
<stop offset="1" stop-color="#CC9556"/>
</linearGradient>
<linearGradient id="paint11_linear_2_163632" x1="294.302" y1="92.6348" x2="223.271" y2="145.91" gradientUnits="userSpaceOnUse">
<stop stop-color="#FFE9D4"/>
<stop offset="0.09" stop-color="#FDE4CC"/>
<stop offset="0.42" stop-color="#F8D8B5"/>
<stop offset="0.72" stop-color="#F5D1A8"/>
<stop offset="1" stop-color="#F5CFA4"/>
</linearGradient>
<linearGradient id="paint12_linear_2_163632" x1="53.7594" y1="122.697" x2="161.011" y2="150.62" gradientUnits="userSpaceOnUse">
<stop stop-color="#F5CFA4"/>
<stop offset="0.08" stop-color="#EFC698"/>
<stop offset="0.31" stop-color="#DFB07B"/>
<stop offset="0.55" stop-color="#D4A166"/>
<stop offset="0.78" stop-color="#CE985A"/>
<stop offset="1" stop-color="#CC9556"/>
</linearGradient>
<linearGradient id="paint13_linear_2_163632" x1="66.0322" y1="135.256" x2="153.529" y2="150.417" gradientUnits="userSpaceOnUse">
<stop stop-color="#FFE9D4"/>
<stop offset="0.09" stop-color="#FDE4CC"/>
<stop offset="0.42" stop-color="#F8D8B5"/>
<stop offset="0.72" stop-color="#F5D1A8"/>
<stop offset="1" stop-color="#F5CFA4"/>
</linearGradient>
<linearGradient id="paint14_linear_2_163632" x1="189.521" y1="209.236" x2="176.396" y2="87.4974" gradientUnits="userSpaceOnUse">
<stop stop-color="#DEAA6F"/>
<stop offset="1" stop-color="#F5CFA4"/>
</linearGradient>
</defs>
</svg>
