<svg width="269" height="379" viewBox="0 0 269 379" fill="none" xmlns="http://www.w3.org/2000/svg">
<g clip-path="url(#clip0_3_172828)">
<path d="M37.2662 325.365C40.115 337.766 47.6427 349.342 57.6362 357.499C60.6114 359.927 63.7741 362.087 67.0794 363.997C78.3771 370.524 91.3743 374.137 104.535 375.646C107.367 375.974 110.208 376.204 113.036 376.342C125.112 376.937 137.254 376.01 149.106 373.639C160.848 371.292 172.304 367.529 183.121 362.419C184.906 361.578 186.675 360.696 188.427 359.781C197.426 355.072 206.03 349.387 215.164 345.033C219.255 343.083 223.453 341.396 227.847 340.186C230.166 339.547 232.575 339.077 235.016 338.794C240.384 338.171 245.91 338.446 251.017 339.769C257.795 341.517 263.839 345.11 267.776 350.892C271.452 333.437 266.671 312.317 255.182 298.609C253.593 296.711 251.877 294.923 250.051 293.243C242.703 286.487 233.622 281.603 223.922 279.102C218.656 277.743 213.215 277.087 207.77 277.213C206.413 277.245 205.06 277.322 203.715 277.439C193.868 278.293 184.34 281.295 174.819 284.391C169.48 286.126 164.145 287.89 158.761 289.323C154.86 290.363 150.927 291.229 146.954 291.779C144.749 292.086 142.528 292.301 140.286 292.39C137.4 292.507 134.486 292.41 131.576 292.107C128.267 291.767 124.958 291.16 121.705 290.31C115.486 288.688 109.45 286.167 103.903 282.89C93.2124 276.574 84.3234 267.442 79.4123 256.436C70.3522 262.752 61.239 269.125 53.5076 276.99C46.2733 284.354 40.2495 293.191 37.5555 303.092C37.3721 303.767 37.201 304.447 37.0461 305.135C35.5585 311.847 35.746 318.718 37.2702 325.353L37.2662 325.365Z" fill="url(#paint0_linear_3_172828)"/>
<path d="M37.2654 325.365C68.4603 323.508 98.6689 311.111 121.7 290.318C115.481 288.696 109.445 286.175 103.898 282.898C84.1596 295.392 60.9611 302.545 37.5506 303.1C37.3672 303.775 37.1961 304.455 37.0412 305.143C35.5536 311.855 35.7411 318.726 37.2654 325.361V325.365Z" fill="#E6EFEF"/>
<path d="M67.0825 364.001C78.3802 370.528 91.3774 374.141 104.538 375.65C124.256 351.131 139.144 321.979 146.953 291.787C144.748 292.094 142.527 292.309 140.285 292.398C137.399 292.515 134.485 292.418 131.575 292.115C116.475 320.85 94.0795 345.778 67.0866 364.001H67.0825Z" fill="#E6EFEF"/>
<path d="M149.109 373.643C160.851 371.296 172.307 367.533 183.124 362.423C185.773 336.128 183.263 309.043 174.822 284.395C169.483 286.13 164.148 287.895 158.764 289.327C160.268 317.702 156.975 346.324 149.113 373.643H149.109Z" fill="#E6EFEF"/>
<path d="M203.714 277.448C210.195 293.846 213.993 311.293 215.012 328.881C215.322 334.263 215.375 339.656 215.163 345.041C219.255 343.091 223.453 341.404 227.846 340.194C230.165 339.555 232.574 339.085 235.015 338.802C235.671 318.353 231.963 297.698 223.921 279.106C218.656 277.747 213.215 277.092 207.77 277.217C206.412 277.249 205.059 277.326 203.714 277.444V277.448Z" fill="#E6EFEF"/>
<path d="M251.016 339.781C257.794 341.529 263.838 345.122 267.775 350.904C271.451 333.449 266.671 312.329 255.182 298.621C253.592 296.723 251.876 294.935 250.05 293.256C253.494 308.485 253.8 324.419 251.016 339.781Z" fill="#E6EFEF"/>
<g style="mix-blend-mode:overlay" opacity="0.4">
<path d="M37.0453 305.147C37.196 304.459 37.3672 303.78 37.5547 303.104C40.2487 293.203 46.2684 284.366 53.5067 277.003C60.741 269.643 69.1857 263.59 77.6671 257.666C76.0083 270.391 77.2595 283.294 83.3322 295.441C96.3213 322.173 127.732 328.303 154 321.522C174.186 316.254 193.142 310.856 214.572 308.501C224.961 307.445 234.844 308.19 243.994 312.875C255.287 318.572 264.225 327.457 268.998 338.365C269.03 342.65 268.635 346.874 267.787 350.904C263.846 345.122 257.806 341.529 251.028 339.781C245.922 338.458 240.395 338.179 235.027 338.806C232.586 339.086 230.177 339.559 227.858 340.198C223.465 341.408 219.267 343.095 215.175 345.045C206.041 349.403 197.438 355.084 188.439 359.793C186.69 360.708 184.917 361.59 183.132 362.431C172.316 367.538 160.863 371.304 149.117 373.651C137.269 376.022 125.128 376.949 113.048 376.354C110.215 376.216 107.378 375.986 104.546 375.658C91.3898 374.149 78.3885 370.532 67.0908 364.009C63.7855 362.1 60.6228 359.939 57.6476 357.511C47.6541 349.354 40.1264 337.779 37.2776 325.377C35.7533 318.742 35.5658 311.872 37.0534 305.159L37.0453 305.147Z" fill="black"/>
</g>
<path d="M17.8494 34.0963C17.8494 34.0963 17.8494 34.1215 17.8494 34.1341C17.8367 34.1173 17.8367 34.1005 17.8494 34.0963Z" fill="url(#paint1_linear_3_172828)"/>
<path d="M17.845 34.1327C17.9306 34.2662 18.6479 34.687 18.5338 34.7315C20.3556 33.8616 22.1733 32.9917 23.9951 32.1259C28.6332 51.0534 34.3513 70.252 38.9894 89.1836C52.0844 107.65 67.0175 123.927 83.0103 136.782C85.8429 130.47 88.6225 124.51 91.2594 118.975C112.689 121.763 136.992 128.948 156.828 140.342C173.624 127.241 189.299 110.345 202.973 91.0651C207.37 73.1248 212.734 54.9417 217.229 36.9811L224.459 39.6677C226.896 65.2309 229.77 93.9175 222.515 116.272C211.866 149.094 198.212 179.573 182.052 206.674C182.183 228.401 183.744 253.45 188.916 270.29C191.724 279.426 194.516 289.392 195.001 299.11C195.054 299.984 195.074 300.858 195.074 301.724C195.102 307.486 194.238 313.126 191.989 318.414C189.205 326.102 184.836 333.13 180.104 339.166C178.523 341.185 174.728 346.077 176.31 351.661C178.384 358.98 180.736 367.21 183.088 372.874C180.394 372.7 181.164 373.048 178.47 372.874C169.406 369.055 154.485 356.763 152.435 354.452C150.515 352.284 149.158 349.747 148.269 346.822C137.828 348.978 127.101 349.767 117.69 349.868C110.611 349.941 103.869 349.168 97.5522 347.631C96.6678 349.091 95.6203 350.52 94.4139 351.976C92.368 354.44 71.7534 368.173 62.6892 372.247C59.9952 372.429 60.7655 372.061 58.0715 372.247C62.1716 365.122 66.0353 357.738 70.1354 350.613C71.4477 348.331 69.6952 345.486 68.607 343.123C67.8367 341.444 60.146 329.638 53.735 314.198C51.0859 309.225 49.0114 303.836 47.5767 298.087C46.0932 292.127 45.2985 285.787 45.2699 279.139C45.1558 253.871 50.5193 227.187 58.206 201.79C39.0179 172.464 31.8203 152.574 19.4345 114.399C11.8334 90.976 15.3548 60.5981 17.8368 34.1489L17.845 34.1327Z" fill="url(#paint2_linear_3_172828)"/>
<path d="M0.486558 18.0208C-0.695377 15.4394 0.376516 12.7042 2.57328 13.1655C4.31765 13.5337 6.03757 14.3348 7.66783 15.3746C6.38808 13.303 5.0798 10.9563 4.4277 8.54081C3.8245 6.30333 4.40324 3.74621 6.34325 3.83118C7.7901 3.89592 9.23287 5.13806 10.4963 6.49755C10.4637 6.37212 10.427 6.24669 10.3944 6.11721C9.7301 3.38611 10.2803 -0.0692373 12.742 -0.000453986C15.1588 0.0764215 17.2007 3.31328 18.509 5.85827C19.9192 8.60151 21.0318 11.6482 21.9203 14.796C22.067 12.3077 22.2953 9.61707 23.0167 7.4241C23.8073 5.01264 25.6821 4.62017 26.7377 6.72413C27.6792 8.60151 27.5855 12.0326 27.4917 14.2013C27.2961 18.7086 26.9293 23.2564 26.1631 27.6343C25.5558 31.1098 24.6632 38.7043 21.7002 39.6632C20.502 40.0517 19.4179 39.0563 18.4316 38.235C17.0907 37.1102 15.7702 35.9328 14.4741 34.7027C11.9432 32.3034 9.50594 29.7099 7.16652 26.9505C5.89085 25.4453 4.64778 23.8916 3.44139 22.2853C2.45509 20.9744 1.22425 19.6432 0.486558 18.0208Z" fill="#272D2D"/>
<path d="M241.043 20.7684C242.225 18.1871 241.153 15.4519 238.956 15.9132C237.212 16.2813 235.492 17.0825 233.862 18.1223C235.141 16.0507 236.45 13.704 237.102 11.2885C237.705 9.05101 237.126 6.49389 235.186 6.57886C233.739 6.6436 232.297 7.88574 231.033 9.24522C231.066 9.11979 231.103 8.99437 231.135 8.86489C231.799 6.13379 231.249 2.6744 228.788 2.74722C226.371 2.8241 224.329 6.06096 223.021 8.60594C221.61 11.3492 220.498 14.3959 219.609 17.5437C219.463 15.0554 219.234 12.3647 218.513 10.1718C217.722 7.76031 215.847 7.36784 214.792 9.4718C213.85 11.3492 213.944 14.7803 214.038 16.949C214.233 21.4563 214.6 26.0041 215.367 30.3819C215.974 33.8575 216.866 41.452 219.829 42.4109C221.028 42.8034 222.112 41.804 223.098 40.9826C224.439 39.8578 225.759 38.6804 227.055 37.4504C229.586 35.0511 232.024 32.4576 234.363 29.6981C235.639 28.193 236.882 26.6393 238.088 25.033C239.074 23.7221 240.305 22.3909 241.043 20.7684Z" fill="#272D2D"/>
<path d="M183.108 371.349C181.78 370.345 179.371 370.05 177.777 369.73C175.764 369.33 173.722 369.107 171.672 368.994C167.613 368.771 163.615 369.204 159.563 369.237C158.52 369.245 157.477 369.269 156.433 369.314C155.308 369.362 154.885 370.544 155.39 371.337C154.624 371.474 153.874 371.644 153.14 371.859C152.219 372.13 151.848 373.404 152.614 374.06C153.902 375.156 155.48 375.435 157.098 375.545C157.077 375.565 157.053 375.585 157.028 375.609C156.49 376.196 156.613 377.191 157.346 377.568C159.286 378.563 161.634 378.365 163.753 378.344C167.682 378.304 171.713 378.001 175.536 377.058C176.93 376.714 186.149 373.651 183.1 371.349H183.108Z" fill="#272D2D"/>
<path d="M101.184 318.859C101.351 336.913 117.458 350.722 135.48 348.323C135.603 348.306 135.721 348.29 135.839 348.274C156.234 345.434 165.359 339.757 175.601 325.377C181.018 317.771 182.224 308.643 181.331 299.915C180.439 291.188 177.594 282.675 175.389 274.101C170.694 255.882 168.893 237.193 169.956 218.614C169.81 217.736 169.659 216.854 169.516 215.967C169.63 216.364 169.818 216.732 170.046 217.08C171.269 218.933 173.783 220.256 174.403 222.356C179.139 217.703 180.622 211.06 178.189 205.387C180.023 208.628 181.857 211.869 183.691 215.114C186.573 209.186 185.472 202.134 180.863 196.955C184.669 200.143 188.476 203.327 192.283 206.512C191.692 195.272 186.463 184.23 177.708 175.43C176.229 173.937 174.639 172.509 172.96 171.153C157.094 158.372 117.381 161.175 95.6859 156.324C86.4669 181.264 86.9111 209.83 94.5162 235.113C96.391 241.357 98.2699 247.596 100.149 253.835C97.5648 250.966 94.9849 248.097 92.4051 245.233C96.3095 257.448 100.214 269.663 104.123 281.878C100.177 277.371 96.228 272.855 92.2828 268.348C98.979 283.424 101.037 302.877 101.184 318.863V318.859Z" fill="url(#paint3_linear_3_172828)"/>
<g style="mix-blend-mode:overlay" opacity="0.4">
<path d="M133.956 202.623C102.068 202.316 68.6275 191.25 50.3605 162.053C39.2136 144.226 39.5234 123.632 45.4086 104.886C45.9221 103.272 46.5294 101.702 47.1978 100.157C58.202 114.12 70.2699 126.537 83.0145 136.778C85.847 130.466 88.6266 124.506 91.2635 118.971C112.693 121.759 136.996 128.944 156.832 140.338C173.628 127.237 189.303 110.341 202.977 91.061C205.658 80.1204 208.699 69.0908 211.682 58.0734C217.559 69.5399 222.519 81.4071 226.685 93.5615C226.077 101.561 224.802 109.228 222.515 116.264C214.523 140.893 204.843 164.202 193.676 185.755C175.955 197.003 154.803 202.838 133.952 202.623H133.956Z" fill="black"/>
</g>
<g style="mix-blend-mode:overlay" opacity="0.4">
<path d="M51.5998 254.874C56.2419 276.699 66.1498 295.752 83.1778 310.2C105.467 329.565 136.43 331.718 164.295 324.645C175.197 321.736 185.207 317.063 194.231 311.046C193.733 313.555 193.004 316.015 191.989 318.402C189.205 326.089 184.836 333.117 180.105 339.154C178.523 341.173 174.729 346.065 176.31 351.648C178.385 358.968 180.736 367.198 183.088 372.862C180.394 372.688 181.164 373.036 178.47 372.862C169.406 369.043 154.485 356.751 152.435 354.44C150.515 352.272 149.158 349.735 148.27 346.809C137.828 348.966 127.101 349.755 117.69 349.856C110.611 349.929 103.87 349.156 97.5526 347.619C96.6682 349.079 95.6207 350.508 94.4143 351.964C92.3684 354.428 71.7538 368.161 62.6896 372.235C59.9956 372.417 60.7659 372.049 58.0719 372.235C62.172 365.11 66.0357 357.726 70.1358 350.601C71.4481 348.319 69.6956 345.474 68.6074 343.111C67.8371 341.432 60.1464 329.626 53.7354 314.186C51.0863 309.213 49.0118 303.824 47.5771 298.074C46.0936 292.115 45.2989 285.774 45.2703 279.127C45.201 263.756 47.1614 247.859 50.4342 232.051C49.7332 239.556 50.0388 247.179 51.5916 254.883L51.5998 254.874Z" fill="black"/>
</g>
<path d="M66.1049 105.299C55.3289 98.3723 44.557 91.4413 33.781 84.5145C25.0918 84.9312 15.9135 83.4989 7.97412 79.9707C9.85299 85 13.2765 89.5478 17.9309 92.2708C22.5894 94.9897 28.5112 95.718 33.5039 93.6748C43.53 101.071 55.1741 105.938 67.5762 107.415C67.1687 106.513 66.5125 106.205 66.1049 105.303V105.299Z" fill="url(#paint4_linear_3_172828)"/>
<path d="M69.4877 100.857C58.4509 98.9994 47.414 97.1422 36.3772 95.2851C25.858 93.517 16.7123 105.19 9.37207 112.877C18.6564 113.153 27.529 110.765 34.9182 105.178C45.5189 104.211 56.3478 104.263 66.9486 103.296C68.0775 103.195 69.7159 101.961 69.4877 100.857Z" fill="url(#paint5_linear_3_172828)"/>
<path d="M122.809 57.2236L121.778 26.9954C121.778 26.9954 114.1 30.0987 108.822 39.4977C103.544 48.8968 103.14 62.2812 103.14 62.2812L122.809 57.2236Z" fill="url(#paint6_linear_3_172828)"/>
<path d="M166.178 56.4185L173.009 29.152C173.009 29.152 179.917 34.7153 183.267 45.1825C186.618 55.6497 184.433 68.0267 184.433 68.0267L166.178 56.4185Z" fill="url(#paint7_linear_3_172828)"/>
<path d="M25.6177 125.663C25.6177 125.663 31.1239 133.274 41.2926 143.166C41.8509 143.709 42.4215 144.259 43.0084 144.813C43.3141 145.1 43.6238 145.396 43.9377 145.687C44.2393 145.966 44.5408 146.25 44.8465 146.533C45.1563 146.82 45.4701 147.103 45.788 147.395C47.0555 148.552 48.3801 149.725 49.7617 150.911C50.0226 151.133 50.2834 151.364 50.5524 151.59C51.3553 152.27 52.1745 152.954 53.0141 153.642C53.332 153.905 53.654 154.168 53.98 154.427C54.7992 155.09 55.6347 155.754 56.4865 156.417C56.8207 156.68 57.1631 156.943 57.5014 157.202C57.8926 157.502 58.288 157.805 58.6874 158.105C58.9401 158.295 59.1968 158.485 59.4495 158.675C59.5473 158.744 59.637 158.817 59.7348 158.885C59.9223 159.027 60.1139 159.173 60.3095 159.31C60.9901 159.812 61.683 160.314 62.3758 160.811C62.7875 161.107 63.2032 161.398 63.6189 161.693C63.6189 161.693 63.6189 161.693 63.623 161.693C64.0468 161.993 64.4748 162.288 64.9068 162.584C65.2655 162.834 65.6323 163.081 65.995 163.328C66.5044 163.672 67.0139 164.012 67.5274 164.356C67.9228 164.619 68.3263 164.878 68.7297 165.141C68.8642 165.23 68.9987 165.315 69.1373 165.404C69.4674 165.614 69.8016 165.833 70.1399 166.043C70.2092 166.087 70.2785 166.132 70.3478 166.176C70.7676 166.439 71.1833 166.702 71.6071 166.961C72.0147 167.212 72.4182 167.463 72.8258 167.71C73.4697 168.098 74.1177 168.487 74.7739 168.871C75.1163 169.069 75.4545 169.272 75.7969 169.466C75.8254 169.486 75.854 169.498 75.8825 169.514C76.3267 169.769 76.7669 170.02 77.2152 170.271C77.9774 170.7 78.7436 171.125 79.5179 171.546C79.734 171.667 79.954 171.78 80.1741 171.898C82.4565 173.12 84.8041 174.301 87.2127 175.43C87.5673 175.596 87.926 175.762 88.2846 175.923C88.7004 176.114 89.1161 176.3 89.5318 176.49C91.7163 177.465 93.9416 178.396 96.224 179.27C96.55 179.395 96.8761 179.52 97.2062 179.646C97.6831 179.828 98.164 180.002 98.6449 180.18C99.0606 180.326 99.4763 180.479 99.8961 180.625C100.789 180.937 101.685 181.244 102.59 181.539C102.998 181.673 103.401 181.806 103.809 181.936C103.854 181.952 103.902 181.968 103.947 181.98C104.404 182.126 104.86 182.268 105.321 182.409C105.402 182.434 105.484 182.458 105.561 182.482C105.94 182.595 106.319 182.709 106.702 182.822C107.624 183.093 108.557 183.352 109.494 183.603C109.963 183.728 110.432 183.854 110.904 183.971C110.913 183.971 110.917 183.979 110.925 183.979C111.389 184.101 111.858 184.214 112.327 184.331C112.771 184.44 113.211 184.542 113.66 184.647C113.692 184.655 113.725 184.663 113.757 184.667C114.238 184.776 114.715 184.885 115.196 184.991C115.681 185.096 116.162 185.197 116.647 185.298C117.091 185.391 117.535 185.48 117.984 185.565C118.086 185.585 118.192 185.606 118.294 185.626C118.717 185.707 119.145 185.788 119.577 185.861C120.066 185.95 120.564 186.035 121.053 186.12C121.615 186.213 122.182 186.306 122.748 186.391C123.16 186.451 123.576 186.512 123.991 186.577C124.387 186.633 124.782 186.686 125.181 186.739C125.393 186.767 125.601 186.795 125.817 186.824C125.85 186.824 125.886 186.832 125.923 186.836C126.302 186.884 126.689 186.933 127.068 186.973C127.578 187.034 128.083 187.091 128.593 187.143C129.542 187.24 130.5 187.329 131.462 187.406C131.918 187.443 132.379 187.475 132.839 187.507C133.076 187.528 133.312 187.54 133.549 187.552C133.96 187.58 134.372 187.6 134.784 187.621C135.664 187.665 136.54 187.706 137.404 187.734C138.244 187.762 139.079 187.782 139.911 187.791C141.06 187.811 142.197 187.815 143.33 187.803C143.567 187.803 143.807 187.803 144.043 187.795C144.386 187.787 144.724 187.787 145.066 187.774C145.551 187.766 146.032 187.754 146.517 187.738C146.843 187.73 147.169 187.718 147.491 187.706C147.915 187.689 148.339 187.673 148.759 187.653C149.346 187.629 149.933 187.596 150.516 187.56C150.732 187.548 150.948 187.536 151.168 187.519C151.522 187.499 151.877 187.475 152.231 187.451C152.602 187.426 152.977 187.398 153.348 187.366C154.033 187.313 154.709 187.256 155.386 187.192C155.7 187.163 156.018 187.135 156.331 187.103C156.629 187.074 156.926 187.046 157.224 187.01C157.587 186.973 157.954 186.933 158.312 186.888C158.602 186.856 158.895 186.824 159.184 186.787C160.093 186.678 160.994 186.565 161.887 186.439C162.229 186.395 162.571 186.342 162.91 186.294C163.17 186.257 163.431 186.221 163.688 186.176C164.951 185.99 166.199 185.784 167.438 185.557C167.813 185.492 168.183 185.424 168.554 185.355C168.99 185.274 169.422 185.193 169.858 185.104C170.246 185.031 170.633 184.954 171.02 184.873C171.036 184.873 171.049 184.865 171.065 184.865C171.097 184.857 171.122 184.853 171.155 184.845C171.566 184.76 171.974 184.675 172.385 184.586C173.812 184.287 175.222 183.959 176.616 183.619C177.162 183.486 177.704 183.348 178.246 183.21C179.232 182.96 180.211 182.697 181.177 182.425C181.584 182.316 181.983 182.203 182.387 182.086C182.424 182.078 182.456 182.065 182.497 182.053C182.864 181.948 183.227 181.843 183.589 181.734C184.384 181.499 185.179 181.256 185.961 181.009C187.53 180.52 189.071 180.01 190.587 179.48C190.86 179.387 191.129 179.294 191.394 179.197C191.586 179.128 191.777 179.063 191.969 178.99C194.883 177.946 197.695 176.838 200.405 175.685C200.756 175.539 201.098 175.389 201.445 175.24C206.829 172.909 211.78 170.417 216.276 167.908C216.508 167.775 216.74 167.645 216.973 167.52C217.433 167.257 217.894 166.998 218.346 166.735C218.803 166.472 219.247 166.213 219.691 165.95C220.576 165.432 221.436 164.906 222.283 164.392C222.561 164.222 222.83 164.052 223.103 163.886C223.249 163.793 223.392 163.704 223.531 163.619C223.897 163.393 224.256 163.166 224.606 162.94C224.651 162.907 224.704 162.879 224.749 162.847C225.149 162.592 225.544 162.341 225.935 162.082C226.131 161.956 226.322 161.831 226.514 161.706C226.71 161.58 226.897 161.455 227.089 161.329C227.843 160.823 228.584 160.33 229.298 159.84C229.477 159.719 229.652 159.593 229.831 159.476C230.361 159.112 230.879 158.748 231.38 158.392C231.547 158.27 231.714 158.153 231.877 158.036C232.04 157.914 232.208 157.797 232.371 157.684C232.53 157.566 232.693 157.449 232.851 157.332C233.01 157.214 233.165 157.101 233.324 156.988C233.483 156.87 233.638 156.757 233.793 156.644C234.099 156.417 234.404 156.191 234.702 155.968C235.012 155.738 235.313 155.507 235.615 155.28C236.03 154.969 236.43 154.661 236.817 154.354C238.158 153.314 239.356 152.347 240.404 151.469C240.424 151.449 240.448 151.433 240.469 151.416C242.71 149.547 244.263 148.123 245.078 147.35C245.523 146.929 245.751 146.703 245.751 146.703C245.751 146.703 245.042 143.814 243.195 138.748C242.49 136.802 241.618 134.536 240.55 131.991C240.518 131.906 240.481 131.817 240.44 131.732C240.432 131.712 240.42 131.688 240.412 131.667C240.11 130.972 239.796 130.259 239.47 129.539C237.49 125.109 235.158 120.266 232.464 115.232C231.221 112.91 229.901 110.551 228.503 108.168C228.148 107.561 227.777 106.946 227.406 106.327C227.182 105.951 226.95 105.574 226.718 105.194C226.567 104.943 226.412 104.696 226.253 104.445C226.021 104.069 225.784 103.693 225.552 103.317C225.091 102.576 224.619 101.836 224.138 101.095C224.117 101.067 224.101 101.043 224.085 101.014C223.848 100.65 223.612 100.29 223.372 99.93C223.123 99.5537 222.874 99.1775 222.622 98.8012C222.369 98.4249 222.116 98.0486 221.859 97.6723C221.35 96.9238 220.832 96.1712 220.303 95.4267C220.237 95.3296 220.168 95.2366 220.103 95.1395C219.642 94.488 219.174 93.8407 218.697 93.1893C218.444 92.8453 218.191 92.5055 217.939 92.1616C217.898 92.109 217.857 92.0523 217.816 91.9997C217.56 91.6558 217.299 91.3119 217.038 90.968C216.761 90.5998 216.476 90.2316 216.194 89.8634C215.648 89.1472 215.086 88.4392 214.515 87.7311C214.483 87.6947 214.454 87.6542 214.421 87.6178C214.144 87.2739 213.867 86.93 213.586 86.5901C213.288 86.226 212.991 85.8659 212.689 85.5098C212.388 85.1537 212.09 84.7936 211.785 84.4376C211.617 84.2393 211.45 84.0451 211.279 83.8509C211.173 83.7255 211.067 83.6001 210.957 83.4746C210.925 83.4423 210.9 83.4058 210.863 83.3735C210.717 83.1995 210.566 83.0296 210.415 82.8556C210.256 82.6735 210.097 82.4914 209.93 82.3134C209.649 81.9938 209.364 81.6782 209.074 81.3626C209.001 81.2776 208.928 81.1967 208.85 81.1117C208.638 80.877 208.426 80.6464 208.214 80.4158C208.092 80.2782 207.962 80.1407 207.835 80.0112C207.611 79.7725 207.391 79.5297 207.163 79.295C207.085 79.2101 207.008 79.1291 206.93 79.0482C206.69 78.7974 206.445 78.5465 206.205 78.2997C206.054 78.1379 205.903 77.9881 205.749 77.8303C205.537 77.6078 205.316 77.3893 205.096 77.1708C204.803 76.8714 204.505 76.5801 204.208 76.2847C204.13 76.2119 204.057 76.135 203.98 76.0622C203.678 75.7709 203.381 75.4796 203.075 75.1883C202.781 74.905 202.484 74.6259 202.186 74.3467C202.076 74.2415 201.962 74.1363 201.848 74.0351C201.6 73.8045 201.355 73.5779 201.106 73.3513C201.074 73.319 201.037 73.2907 201.004 73.2583C200.654 72.9386 200.303 72.6271 199.949 72.3115C199.651 72.0485 199.35 71.7815 199.048 71.5225C198.889 71.385 198.734 71.2474 198.575 71.1139C198.323 70.8954 198.062 70.6769 197.805 70.4584C197.658 70.337 197.516 70.2156 197.373 70.0943C197.129 69.8879 196.884 69.6896 196.635 69.4873C196.114 69.0625 195.584 68.6417 195.054 68.229C194.879 68.0874 194.699 67.9498 194.52 67.8123C194.137 67.5129 193.75 67.2175 193.359 66.9262C193.249 66.8453 193.138 66.7643 193.028 66.6794C192.951 66.6227 192.874 66.5661 192.796 66.5094C191.362 65.4534 189.902 64.4459 188.411 63.4749C188.211 63.3454 188.007 63.2119 187.808 63.0864C187.608 62.957 187.4 62.8275 187.2 62.7021C186.997 62.5726 186.793 62.4472 186.589 62.3258C186.198 62.0871 185.811 61.8483 185.419 61.6177C185.419 61.6177 185.383 61.5934 185.362 61.5813C185.264 61.5247 185.171 61.468 185.073 61.4073C184.963 61.3426 184.853 61.2819 184.743 61.2172C184.327 60.9744 183.911 60.7397 183.491 60.505C183.28 60.3877 183.072 60.2744 182.864 60.1571C182.342 59.8698 181.812 59.5906 181.287 59.3195C181.16 59.2508 181.03 59.186 180.903 59.1213C179.848 58.5832 178.784 58.0653 177.704 57.5757C177.484 57.4745 177.264 57.3774 177.04 57.2763C176.828 57.1792 176.62 57.0902 176.408 56.9971C175.687 56.6856 174.961 56.3861 174.228 56.0948C173.967 55.9896 173.706 55.8885 173.449 55.7914C173.249 55.7145 173.05 55.6376 172.85 55.5648C172.626 55.4798 172.398 55.3949 172.173 55.3139C171.949 55.229 171.717 55.1521 171.493 55.0712C171.269 54.9902 171.036 54.9093 170.808 54.8365C170.592 54.7596 170.372 54.6868 170.156 54.614C169.724 54.4723 169.296 54.3348 168.86 54.1972C168.664 54.1365 168.469 54.0758 168.273 54.0192C167.808 53.8776 167.344 53.7441 166.879 53.6146C166.757 53.5822 166.643 53.5458 166.525 53.5175C166.321 53.4608 166.117 53.4042 165.913 53.3516C165.538 53.2545 165.159 53.1533 164.784 53.0643C163.753 52.8094 162.718 52.5747 161.666 52.3684C161.609 52.3562 161.552 52.3441 161.491 52.336C161.312 52.2996 161.133 52.2632 160.953 52.2268C160.688 52.1782 160.419 52.1297 160.15 52.0811C159.665 51.9962 159.18 51.9152 158.691 51.8384C158.243 51.7696 157.795 51.7008 157.342 51.6401C157.041 51.5956 156.731 51.5551 156.425 51.5187C154.717 51.3083 153.018 51.1546 151.31 51.0656C150.039 50.9968 148.763 50.9644 147.491 50.9604C144.475 50.9523 141.468 51.1262 138.468 51.4621C136.984 51.6239 135.509 51.8303 134.034 52.069C130.341 52.6759 126.669 53.5094 123.029 54.5452C122.928 54.5735 122.83 54.6018 122.728 54.6301C121.55 54.97 120.376 55.3301 119.211 55.7104C119.039 55.763 118.868 55.8197 118.697 55.8763C118.322 55.9977 117.951 56.1272 117.58 56.2526C114.332 57.3612 111.12 58.6196 107.95 60.0074C106.34 60.7074 104.738 61.4437 103.153 62.2084C102.9 62.3298 102.647 62.4512 102.394 62.5766C102.015 62.7628 101.641 62.9489 101.266 63.135C100.389 63.572 99.5171 64.017 98.649 64.4702C97.9561 64.8344 97.2673 65.1985 96.5826 65.5707C94.9279 66.469 93.2895 67.3915 91.6715 68.3383C90.2083 69.196 88.7574 70.07 87.3228 70.9642C84.7674 72.5543 82.2568 74.197 79.8073 75.8842C79.7625 75.9166 79.7136 75.9449 79.6687 75.9772C76.8403 77.9234 74.0811 79.9222 71.4074 81.9412C71.2607 82.0504 71.1099 82.1637 70.9632 82.281C67.8902 84.6116 64.9313 86.9745 62.0987 89.3333C60.391 90.7576 58.7241 92.1777 57.106 93.5898C56.8167 93.8447 56.5314 94.0956 56.2501 94.3464C55.9812 94.5811 55.7122 94.8198 55.4432 95.0545C54.7014 95.71 53.9719 96.3654 53.2546 97.0168C52.9122 97.3243 52.578 97.6318 52.2397 97.9394C50.7399 99.315 49.2849 100.67 47.891 101.998C47.0107 102.835 46.1467 103.665 45.3111 104.482C45.0381 104.745 44.7691 105.012 44.5042 105.267C32.7093 116.839 25.634 125.651 25.634 125.651L25.6177 125.663Z" fill="url(#paint8_linear_3_172828)"/>
<path d="M25.6174 125.663C25.6174 125.663 31.1235 133.274 41.2922 143.166C41.8506 143.708 42.4212 144.259 43.0081 144.813C43.3138 145.1 43.6235 145.396 43.9373 145.687C44.2389 145.966 44.5405 146.249 44.8462 146.533C45.156 146.82 45.4698 147.103 45.7877 147.394C47.0552 148.552 48.3798 149.725 49.7614 150.911C50.0223 151.133 50.2831 151.364 50.5521 151.59C51.355 152.27 52.1742 152.954 53.0138 153.642C53.3317 153.905 53.6537 154.168 53.9797 154.427C54.7989 155.09 55.6344 155.754 56.4862 156.417C56.8204 156.68 57.1628 156.943 57.5011 157.202C57.8923 157.502 58.2877 157.805 58.6871 158.104C58.9398 158.295 59.1965 158.485 59.4492 158.675C59.547 158.744 59.6367 158.817 59.7345 158.885C59.922 159.027 60.1135 159.173 60.3092 159.31C60.9898 159.812 61.6827 160.314 62.3755 160.811C62.7872 161.107 63.2029 161.398 63.6186 161.693C63.6186 161.693 63.6186 161.693 63.6227 161.693C64.0465 161.993 64.4745 162.288 64.9065 162.583C65.2651 162.834 65.6319 163.081 65.9947 163.328C66.5041 163.672 67.0136 164.012 67.5271 164.356C67.9225 164.619 68.3259 164.878 68.7294 165.141C68.8639 165.23 68.9984 165.315 69.137 165.404C69.4671 165.614 69.8013 165.832 70.1396 166.043C70.2089 166.087 70.2782 166.132 70.3475 166.176C70.7673 166.439 71.183 166.702 71.6068 166.961C72.0144 167.212 72.4179 167.463 72.8254 167.71C73.4694 168.098 74.1174 168.487 74.7736 168.871C75.116 169.069 75.4542 169.272 75.7966 169.466C75.8251 169.486 75.8536 169.498 75.8822 169.514C76.3264 169.769 76.7666 170.02 77.2149 170.271C77.977 170.7 78.7433 171.125 79.5176 171.545C79.7336 171.667 79.9537 171.78 80.1738 171.898C82.4562 173.119 84.8037 174.301 87.2124 175.43C87.567 175.596 87.9257 175.761 88.2843 175.923C88.7 176.114 89.1158 176.3 89.5315 176.49C91.716 177.465 93.9413 178.396 96.2237 179.269C96.5497 179.395 96.8758 179.52 97.2059 179.646C97.6827 179.828 98.1637 180.002 98.6446 180.18C99.0603 180.325 99.476 180.479 99.8958 180.625C100.788 180.936 101.685 181.244 102.59 181.539C102.997 181.673 103.401 181.806 103.808 181.936C103.853 181.952 103.902 181.968 103.947 181.98C104.403 182.126 104.86 182.268 105.32 182.409C105.402 182.433 105.484 182.458 105.561 182.482C105.94 182.595 106.319 182.709 106.702 182.822C107.623 183.093 108.557 183.352 109.494 183.603C109.963 183.728 110.431 183.854 110.904 183.971C110.912 183.971 110.916 183.979 110.924 183.979C111.389 184.1 111.858 184.214 112.326 184.331C112.771 184.44 113.211 184.541 113.659 184.647C113.692 184.655 113.724 184.663 113.757 184.667C114.238 184.776 114.715 184.885 115.196 184.991C115.681 185.096 116.162 185.197 116.647 185.298C117.091 185.391 117.535 185.48 117.983 185.565C118.085 185.585 118.191 185.606 118.293 185.626C118.717 185.707 119.145 185.788 119.577 185.861C120.066 185.95 120.563 186.034 121.052 186.119C121.615 186.213 122.181 186.306 122.748 186.391C123.16 186.451 123.575 186.512 123.991 186.577C124.386 186.633 124.782 186.686 125.181 186.739C125.393 186.767 125.601 186.795 125.817 186.823C125.849 186.823 125.886 186.832 125.923 186.836C126.302 186.884 126.689 186.933 127.068 186.973C127.578 187.034 128.083 187.091 128.592 187.143C129.542 187.24 130.5 187.329 131.462 187.406C131.918 187.443 132.379 187.475 132.839 187.507C133.076 187.527 133.312 187.54 133.548 187.552C133.96 187.58 134.372 187.6 134.783 187.621C135.664 187.665 136.54 187.706 137.404 187.734C138.243 187.762 139.079 187.782 139.91 187.79C141.06 187.811 142.197 187.815 143.33 187.803C143.566 187.803 143.807 187.803 144.043 187.795C144.385 187.786 144.724 187.786 145.066 187.774C145.551 187.766 146.032 187.754 146.517 187.738C146.843 187.73 147.169 187.718 147.491 187.706C147.915 187.689 148.339 187.673 148.759 187.653C149.345 187.629 149.932 187.596 150.515 187.56C150.731 187.548 150.947 187.536 151.167 187.519C151.522 187.499 151.876 187.475 152.231 187.451C152.602 187.426 152.977 187.398 153.348 187.366C154.032 187.313 154.709 187.256 155.386 187.192C155.699 187.163 156.017 187.135 156.331 187.103C156.629 187.074 156.926 187.046 157.224 187.01C157.586 186.973 157.953 186.933 158.312 186.888C158.601 186.856 158.895 186.823 159.184 186.787C160.093 186.678 160.994 186.565 161.886 186.439C162.229 186.395 162.571 186.342 162.909 186.293C163.17 186.257 163.431 186.221 163.688 186.176C164.951 185.99 166.198 185.784 167.437 185.557C167.812 185.492 168.183 185.424 168.554 185.355C168.99 185.274 169.422 185.193 169.858 185.104C170.245 185.031 170.633 184.954 171.02 184.873C171.036 184.873 171.048 184.865 171.065 184.865C171.097 184.857 171.122 184.853 171.154 184.845C171.566 184.76 171.973 184.675 172.385 184.586C173.812 184.287 175.222 183.959 176.616 183.619C177.162 183.485 177.704 183.348 178.246 183.21C179.232 182.959 180.21 182.696 181.176 182.425C181.584 182.316 181.983 182.203 182.387 182.086C182.423 182.077 182.456 182.065 182.497 182.053C182.864 181.948 183.226 181.843 183.589 181.734C184.384 181.499 185.178 181.256 185.961 181.009C187.53 180.52 189.071 180.01 190.587 179.48C190.86 179.387 191.129 179.294 191.394 179.197C191.585 179.128 191.777 179.063 191.968 178.99C194.883 177.946 197.695 176.838 200.405 175.685C200.756 175.539 201.098 175.389 201.444 175.24C206.828 172.909 211.78 170.417 216.276 167.908C216.508 167.775 216.74 167.645 216.973 167.52C217.433 167.257 217.894 166.998 218.346 166.735C218.802 166.472 219.247 166.213 219.691 165.95C220.575 165.432 221.435 164.906 222.283 164.392C222.56 164.222 222.829 164.052 223.102 163.886C223.249 163.793 223.392 163.704 223.53 163.619C223.897 163.393 224.256 163.166 224.606 162.939C224.651 162.907 224.704 162.879 224.749 162.846C225.148 162.592 225.544 162.341 225.935 162.082C226.13 161.956 226.322 161.831 226.514 161.705C226.709 161.58 226.897 161.455 227.088 161.329C227.842 160.823 228.584 160.33 229.297 159.84C229.477 159.719 229.652 159.593 229.831 159.476C230.361 159.112 230.879 158.748 231.38 158.392C231.547 158.27 231.714 158.153 231.877 158.036C232.04 157.914 232.207 157.797 232.37 157.684C232.529 157.566 232.692 157.449 232.851 157.332C233.01 157.214 233.165 157.101 233.324 156.988C233.483 156.87 233.638 156.757 233.793 156.644C234.098 156.417 234.404 156.191 234.702 155.968C235.011 155.737 235.313 155.507 235.614 155.28C236.03 154.969 236.43 154.661 236.817 154.354C238.158 153.314 239.356 152.347 240.403 151.469C240.424 151.449 240.448 151.432 240.469 151.416C242.71 149.547 244.263 148.123 245.078 147.35C245.522 146.929 245.751 146.703 245.751 146.703C245.751 146.703 245.041 143.814 243.195 138.748C242.49 136.802 241.618 134.536 240.55 131.991C240.517 131.906 240.481 131.817 240.44 131.732C240.432 131.712 240.42 131.688 240.411 131.667C240.122 130.975 239.812 130.263 239.49 129.531C237.669 125.364 235.374 120.561 232.517 115.277C231.286 112.995 229.949 110.62 228.503 108.168C228.148 107.561 227.777 106.946 227.406 106.327C227.182 105.951 226.95 105.574 226.717 105.194C226.326 104.894 225.931 104.587 225.527 104.284C222.507 102.002 219.137 99.6467 215.668 97.5792C203.898 90.5633 181.576 84.4658 181.576 84.4658L172.035 93.0071L158.821 104.838L138.17 89.2807L132.142 84.7369C132.142 84.7369 123.42 82.5318 83.7074 85.7242C75.6254 86.3715 68.4645 88.0911 62.078 89.3292C60.3703 90.7534 58.7034 92.1736 57.0853 93.5857C56.796 93.8406 56.5107 94.0914 56.2295 94.3423C55.9605 94.577 55.6915 94.8157 55.4225 95.0504C54.6807 95.7058 53.9512 96.3613 53.2339 97.0127C52.8915 97.3202 52.5573 97.6277 52.219 97.9352C50.7192 99.3109 49.2642 100.666 47.8703 101.993C46.99 102.831 46.126 103.66 45.2904 104.478C45.0174 104.741 44.7484 105.008 44.4835 105.263C32.6886 116.834 25.6133 125.647 25.6133 125.647L25.6174 125.663Z" fill="url(#paint9_linear_3_172828)"/>
<path d="M159.869 112.594L131.311 92.7846L52.6431 93.6464L42.8208 103.798C42.8208 103.798 59.0622 118.465 74.4926 128.576C89.9229 138.687 111.23 147.479 111.23 147.479L158.438 123.292L202.023 141.908L241.129 129.009L237.697 119.711C237.697 119.711 231.653 113.642 217.82 105.202C203.992 96.7619 182.171 92.465 182.171 92.465L159.869 112.594Z" fill="url(#paint10_linear_3_172828)"/>
<path d="M111.336 134.977C118.933 134.977 125.092 127.95 125.092 119.282C125.092 110.614 118.933 103.588 111.336 103.588C103.74 103.588 97.5811 110.614 97.5811 119.282C97.5811 127.95 103.74 134.977 111.336 134.977Z" fill="white"/>
<path d="M191.965 137.49C199.562 137.49 205.72 130.463 205.72 121.795C205.72 113.127 199.562 106.1 191.965 106.1C184.368 106.1 178.209 113.127 178.209 121.795C178.209 130.463 184.368 137.49 191.965 137.49Z" fill="white"/>
<path d="M183.744 125.877C186.099 125.877 188.007 123.698 188.007 121.01C188.007 118.322 186.099 116.143 183.744 116.143C181.39 116.143 179.481 118.322 179.481 121.01C179.481 123.698 181.39 125.877 183.744 125.877Z" fill="#0F1111"/>
<path d="M119.875 125.877C122.229 125.877 124.138 123.698 124.138 121.01C124.138 118.322 122.229 116.143 119.875 116.143C117.52 116.143 115.612 118.322 115.612 121.01C115.612 123.698 117.52 125.877 119.875 125.877Z" fill="#0F1111"/>
<path d="M139.548 187.762C139.548 187.762 139.67 187.782 139.911 187.811C141.06 187.831 142.197 187.835 143.33 187.823C143.566 187.823 143.807 187.823 144.043 187.815C144.386 187.807 144.724 187.807 145.066 187.795C145.551 187.786 146.032 187.774 146.517 187.758C146.843 187.75 147.169 187.738 147.491 187.726C147.915 187.71 148.339 187.693 148.759 187.673C149.346 187.649 149.933 187.617 150.515 187.58C150.731 187.568 150.947 187.556 151.168 187.54C151.522 187.519 151.877 187.495 152.231 187.471C152.602 187.447 152.977 187.418 153.348 187.386C154.033 187.333 154.709 187.277 155.386 187.212C155.7 187.184 156.018 187.155 156.331 187.123C156.629 187.095 156.926 187.066 157.224 187.03C157.587 186.993 157.953 186.953 158.312 186.908C158.601 186.876 158.895 186.844 159.184 186.807C160.093 186.698 160.994 186.585 161.886 186.459C162.229 186.415 162.571 186.362 162.909 186.314C163.17 186.277 163.431 186.241 163.688 186.196C164.951 186.01 166.198 185.804 167.437 185.577C167.812 185.513 168.183 185.444 168.554 185.375C168.99 185.294 169.422 185.213 169.858 185.124C170.246 185.051 170.633 184.974 171.02 184.894C171.036 184.894 171.048 184.885 171.065 184.885C177.708 183.392 185.382 181.236 194.068 178.153C212.229 171.699 228.706 160.536 240.55 151.08C242.148 149.806 243.66 148.564 245.078 147.366C247.577 145.262 249.794 143.304 251.689 141.572C256.519 137.166 259.257 134.253 259.257 134.253L240.546 132.007L238.847 131.805L234.062 131.34L204.416 128.443L178.686 125.93L160.423 124.146L158.716 123.98C155.206 124.02 147.605 153.484 143.098 172.347C140.974 181.228 139.536 187.762 139.536 187.762H139.548Z" fill="url(#paint11_linear_3_172828)"/>
<path d="M238.855 131.805C239.568 137.263 245.042 141.35 251.697 141.576C256.527 137.17 259.266 134.257 259.266 134.257L238.855 131.805Z" fill="#454C4C"/>
<path d="M130.907 49.7991L117.931 8.68286C117.931 8.68286 105.85 16.4635 100.238 31.8102C94.6262 47.157 98.8934 65.7487 98.8934 65.7487L130.907 49.795V49.7991Z" fill="url(#paint12_linear_3_172828)"/>
<path d="M123.881 49.439L115.563 26.7324C115.563 26.7324 108.993 31.3935 106.242 40.133C103.491 48.8726 106.356 59.1779 106.356 59.1779L123.881 49.435V49.439Z" fill="url(#paint13_linear_3_172828)"/>
<path d="M160.941 52.251L172.267 10.6573C172.267 10.6573 184.649 17.9565 190.868 33.0686C197.088 48.1807 193.566 66.9302 193.566 66.9302L160.941 52.251Z" fill="url(#paint14_linear_3_172828)"/>
<path d="M167.947 51.6158L175.352 28.6017C175.352 28.6017 182.101 33.0038 185.199 41.626C188.296 50.2482 185.847 60.6628 185.847 60.6628L167.947 51.6198V51.6158Z" fill="url(#paint15_linear_3_172828)"/>
<g style="mix-blend-mode:overlay" opacity="0.4">
<path d="M125.658 33.1737L130.908 49.799L98.8934 65.7527C98.8934 65.7527 96.6845 56.115 97.5403 44.9883C99.5048 43.6328 101.592 42.4028 103.817 41.3225C110.864 37.8631 118.2 35.2777 125.662 33.1737H125.658Z" fill="black"/>
</g>
<g style="mix-blend-mode:overlay" opacity="0.4">
<path d="M194.117 46.364C195.364 57.3491 193.566 66.9302 193.566 66.9302L160.941 52.251L166.504 31.8184C176.469 34.9622 185.831 39.9469 194.117 46.364Z" fill="black"/>
</g>
<g style="mix-blend-mode:overlay" opacity="0.6">
<path d="M55.4308 95.0666C57.5624 93.177 59.7836 91.2632 62.0863 89.3454C87.123 68.5041 121.945 47.2379 156.417 51.5267C188.549 55.5242 211.393 80.3995 226.261 104.462C213.545 101.674 200.788 98.8213 187.514 95.9729C142.535 86.2421 98.1639 86.8409 55.4268 95.0666H55.4308Z" fill="black"/>
</g>
<g style="mix-blend-mode:overlay" opacity="0.2">
<path d="M41.2926 143.166C41.851 143.709 42.4216 144.259 43.0085 144.813C43.3142 145.1 43.6239 145.396 43.9377 145.687C44.2393 145.966 44.5409 146.249 44.8466 146.533C45.1563 146.82 45.4702 147.103 45.7881 147.395C47.0556 148.552 48.3802 149.725 49.7618 150.911C50.0227 151.133 50.2835 151.364 50.5525 151.59C51.3554 152.27 52.1746 152.954 53.0142 153.642C53.3321 153.905 53.654 154.168 53.9801 154.427C54.7993 155.09 55.6348 155.754 56.4866 156.417C56.8208 156.68 57.1632 156.943 57.5014 157.202C57.8927 157.502 58.288 157.805 58.6875 158.104C58.9401 158.295 59.1969 158.485 59.4496 158.675C59.5474 158.744 59.6371 158.817 59.7349 158.885C59.9224 159.027 60.1139 159.173 60.3096 159.31C60.9902 159.812 61.683 160.314 62.3759 160.811C62.7875 161.107 63.2033 161.398 63.619 161.693C63.619 161.693 63.619 161.693 63.6231 161.693C64.0469 161.993 64.4749 162.288 64.9069 162.583C65.2655 162.834 65.6323 163.081 65.9951 163.328C66.5045 163.672 67.014 164.012 67.5275 164.356C67.9228 164.619 68.3263 164.878 68.7298 165.141C68.8643 165.23 68.9988 165.315 69.1374 165.404C69.4675 165.614 69.8017 165.832 70.14 166.043C70.2093 166.087 70.2786 166.132 70.3479 166.176C70.7676 166.439 71.1834 166.702 71.6072 166.961C72.0148 167.212 72.4183 167.463 72.8258 167.71C73.4698 168.098 74.1178 168.487 74.774 168.871C75.1163 169.069 75.4546 169.272 75.797 169.466C75.8255 169.486 75.854 169.498 75.8826 169.514C76.3268 169.769 76.767 170.02 77.2153 170.271C77.9774 170.7 78.7437 171.125 79.518 171.546C79.734 171.667 79.9541 171.78 80.1742 171.898C82.4566 173.119 84.8041 174.301 87.2128 175.43C87.5674 175.596 87.9261 175.762 88.2847 175.923C88.7004 176.114 89.1161 176.3 89.5319 176.49C91.7164 177.465 93.9417 178.396 96.2241 179.27C96.5501 179.395 96.8762 179.52 97.2063 179.646C97.6831 179.828 98.1641 180.002 98.645 180.18C99.0607 180.326 99.4764 180.479 99.8962 180.625C100.789 180.941 101.685 181.244 102.59 181.539C102.998 181.673 103.401 181.806 103.809 181.936C103.854 181.952 103.903 181.968 103.947 181.98C104.404 182.126 104.86 182.268 105.321 182.409C105.402 182.434 105.484 182.458 105.561 182.482C105.94 182.595 106.319 182.709 106.703 182.822C107.624 183.093 108.557 183.352 109.494 183.603C109.963 183.728 110.432 183.854 110.904 183.971C110.913 183.971 110.917 183.979 110.925 183.979C111.389 184.101 111.858 184.214 112.327 184.331C112.771 184.44 113.211 184.542 113.66 184.647C113.692 184.655 113.725 184.663 113.757 184.667C114.238 184.776 114.715 184.885 115.196 184.991C115.681 185.096 116.162 185.197 116.647 185.298C117.091 185.391 117.536 185.48 117.984 185.565C118.086 185.585 118.192 185.606 118.294 185.626C118.717 185.707 119.145 185.788 119.577 185.861C120.067 185.95 120.564 186.035 121.053 186.12C121.615 186.213 122.182 186.306 122.748 186.391C123.16 186.451 123.576 186.512 123.991 186.577C124.387 186.633 124.782 186.686 125.181 186.739C125.393 186.767 125.601 186.795 125.817 186.824C125.85 186.824 125.887 186.832 125.923 186.836C126.302 186.884 126.689 186.933 127.068 186.973C127.578 187.034 128.083 187.091 128.593 187.143C129.542 187.24 130.5 187.329 131.462 187.406C131.918 187.443 132.379 187.475 132.84 187.507C133.076 187.528 133.312 187.54 133.549 187.552C133.96 187.58 134.372 187.6 134.784 187.621C135.664 187.665 136.54 187.706 137.404 187.734C138.244 187.762 139.079 187.782 139.911 187.791C141.06 187.811 142.197 187.815 143.33 187.803C143.567 187.803 143.807 187.803 144.043 187.795C144.386 187.787 144.724 187.786 145.066 187.774C145.551 187.766 146.032 187.754 146.517 187.738C146.843 187.73 147.169 187.718 147.491 187.706C147.915 187.689 148.339 187.673 148.759 187.653C149.346 187.629 149.933 187.596 150.516 187.56C150.732 187.548 150.948 187.536 151.168 187.519C151.522 187.499 151.877 187.475 152.231 187.451C152.602 187.426 152.977 187.398 153.348 187.366C154.033 187.313 154.709 187.256 155.386 187.192C155.7 187.163 156.018 187.135 156.332 187.103C156.629 187.074 156.927 187.046 157.224 187.01C157.587 186.973 157.954 186.933 158.312 186.888C158.602 186.856 158.895 186.824 159.184 186.787C160.093 186.678 160.994 186.565 161.887 186.439C162.229 186.395 162.571 186.342 162.91 186.293C163.17 186.257 163.431 186.221 163.688 186.176C164.951 185.99 166.199 185.784 167.438 185.557C167.813 185.492 168.183 185.424 168.554 185.355C168.99 185.274 169.422 185.193 169.859 185.104C170.246 185.031 170.633 184.954 171.02 184.873C171.036 184.873 171.049 184.865 171.065 184.865C171.098 184.857 171.122 184.853 171.155 184.845C171.566 184.76 171.974 184.675 172.385 184.586C173.812 184.287 175.222 183.959 176.616 183.619C177.162 183.486 177.704 183.352 178.246 183.21C179.232 182.96 180.211 182.697 181.177 182.425C181.584 182.316 181.984 182.203 182.387 182.086C182.424 182.077 182.456 182.065 182.497 182.053C182.864 181.948 183.227 181.843 183.589 181.734C184.384 181.499 185.179 181.256 185.961 181.009C187.53 180.52 189.071 180.01 190.587 179.48C190.86 179.387 191.129 179.294 191.394 179.197C191.586 179.128 191.777 179.063 191.969 178.99C194.883 177.946 197.695 176.838 200.405 175.685C200.756 175.539 201.098 175.389 201.445 175.24C206.829 172.909 211.781 170.417 216.276 167.908C216.508 167.775 216.741 167.645 216.973 167.52C217.433 167.257 217.894 166.998 218.346 166.735C218.803 166.472 219.247 166.213 219.691 165.95C220.576 165.432 221.436 164.906 222.283 164.392C222.561 164.218 222.834 164.052 223.103 163.886C223.249 163.793 223.392 163.704 223.531 163.619C223.897 163.393 224.256 163.166 224.607 162.94C224.651 162.907 224.704 162.879 224.749 162.846C225.149 162.592 225.544 162.337 225.935 162.082C226.131 161.956 226.322 161.831 226.514 161.705C226.71 161.58 226.897 161.455 227.089 161.329C227.843 160.823 228.584 160.33 229.298 159.84C229.477 159.719 229.652 159.593 229.832 159.476C230.357 159.112 230.875 158.748 231.38 158.392C231.547 158.27 231.714 158.153 231.877 158.036C232.041 157.914 232.208 157.797 232.371 157.684C232.53 157.566 232.693 157.449 232.852 157.332C233.011 157.214 233.165 157.101 233.324 156.988C233.483 156.87 233.638 156.757 233.793 156.644C234.099 156.417 234.404 156.191 234.702 155.968C235.012 155.738 235.313 155.507 235.615 155.28C236.026 154.965 236.43 154.657 236.817 154.354C238.158 153.31 239.352 152.343 240.404 151.469C240.424 151.449 240.449 151.433 240.469 151.416C240.864 151.085 241.235 150.769 241.59 150.465C241.243 150.664 240.897 150.866 240.55 151.06C219.365 163.101 195.592 170.498 171.102 172.173C161.72 172.856 152.378 172.885 143.106 172.322C107.685 170.17 73.2252 159.363 41.2886 143.142L41.2926 143.166Z" fill="black"/>
</g>
<path d="M81.4619 70.3127L96.9004 72.0606L99.0646 72.3074L211.544 85.0242C211.544 85.0242 206.335 69.637 193.485 56.382C190.326 53.1169 186.699 49.9852 182.574 47.2419C181.454 46.4934 180.296 45.7773 179.102 45.0935C177.178 43.9929 175.157 42.9814 173.037 42.0832C172.52 41.8607 171.994 41.6462 171.464 41.4439C169.94 40.8491 168.359 40.311 166.732 39.8417C165.387 39.4492 164.01 39.1012 162.596 38.8099C161.124 38.4943 159.608 38.2394 158.055 38.0412C157.338 37.9441 156.613 37.8672 155.875 37.7984C154.807 37.7013 153.719 37.6244 152.614 37.584C152.451 37.5799 152.284 37.5718 152.117 37.5678C150.108 37.499 148.139 37.5111 146.199 37.5921C144.573 37.6608 142.967 37.7782 141.394 37.94C138.289 38.2597 135.277 38.7573 132.375 39.3966C130.292 39.8538 128.262 40.3879 126.29 40.9827C125.132 41.3306 123.995 41.6988 122.879 42.0872C120.27 42.9936 117.772 44.001 115.383 45.0854C93.9863 54.7677 81.4701 70.3127 81.4701 70.3127H81.4619Z" fill="url(#paint16_linear_3_172828)"/>
<path d="M182.574 47.2419C185.085 50.1956 187.371 53.3232 189.507 56.5641C192.168 60.59 194.471 64.806 196.493 69.1798C198.506 73.5253 200.046 78.0569 201.77 82.5197C202.003 83.1306 203.034 83.0133 202.961 82.3052C201.986 73.2097 198.102 64.2881 193.485 56.382C190.326 53.1168 186.699 49.9852 182.574 47.2419Z" fill="#0F1111"/>
<path d="M173.037 42.0833C174.928 45.3403 176.689 48.6703 178.197 52.1539C180.068 56.4751 181.657 60.9622 182.819 65.5222C183.401 67.8042 183.911 70.1145 184.278 72.441C184.62 74.6218 184.714 77.1506 185.602 79.1939C185.806 79.6632 186.625 79.906 186.858 79.3031C187.644 77.2517 187.502 74.7472 187.318 72.5988C187.114 70.1549 186.768 67.7273 186.279 65.3239C185.301 60.4969 183.825 55.8075 181.918 51.2678C181.046 49.1922 180.108 47.1287 179.106 45.0976C177.182 43.997 175.161 42.9855 173.041 42.0873L173.037 42.0833Z" fill="#0F1111"/>
<path d="M171.464 41.4439C169.939 40.8491 168.358 40.311 166.732 39.8417C167.38 42.063 167.971 44.3005 168.497 46.5622C169.56 51.1181 170.42 55.7387 171.081 60.3715C171.725 64.8869 172.12 69.4468 173.037 73.9177C173.192 74.6703 174.427 74.5853 174.545 73.853C175.307 69.1595 175.067 64.3609 174.618 59.6472C174.17 54.9174 173.42 50.2401 172.422 45.5992C172.124 44.2074 171.802 42.8236 171.46 41.4399L171.464 41.4439Z" fill="#0F1111"/>
<path d="M157.012 61.5934C156.967 65.8175 156.784 70.0861 157.562 74.2616C157.713 75.0587 158.866 74.8524 159.046 74.1969C160.199 70.0213 160.358 65.6192 160.766 61.3263C161.169 57.0941 161.434 52.8498 161.768 48.6136C162.025 45.3524 162.318 42.0791 162.591 38.8059C161.12 38.4903 159.604 38.2354 158.051 38.0371C157.835 41.5289 157.664 45.0206 157.493 48.4922C157.277 52.8579 157.057 57.2277 157.012 61.5974V61.5934Z" fill="#0F1111"/>
<path d="M144.141 74.9052C146.456 70.8348 146.863 65.9795 148.102 61.5248C149.358 57.0053 150.756 52.5466 152.317 48.1202C153.527 44.6891 154.709 41.2459 155.87 37.7986C154.803 37.7015 153.714 37.6246 152.61 37.5842C152.447 37.5801 152.28 37.572 152.113 37.568C151.008 40.7239 149.834 43.8596 148.775 47.0318C147.299 51.4582 145.812 55.9331 144.813 60.4931C144.324 62.7305 143.9 65.0004 143.627 67.2743C143.346 69.6372 143.228 72.0446 142.678 74.3671C142.47 75.2451 143.705 75.6578 144.137 74.9052H144.141Z" fill="#0F1111"/>
<path d="M126.766 73.4083C131.017 65.7612 134.975 57.9765 139.099 50.2647C141.141 46.4493 143.248 42.6621 145.421 38.9195C145.677 38.4745 145.938 38.0334 146.195 37.5924C144.569 37.6612 142.963 37.7785 141.39 37.9404C139.466 41.4402 137.599 44.9684 135.79 48.529C131.759 56.4552 128.193 64.4745 125.442 72.9227C125.185 73.7117 126.391 74.084 126.766 73.4123V73.4083Z" fill="#0F1111"/>
<path d="M113.093 72.5906C115.416 69.552 116.924 65.862 118.721 62.5078C120.547 59.0848 122.349 55.6578 124.305 52.3076C126.302 48.8766 128.34 45.4698 130.516 42.1479C131.123 41.2254 131.747 40.307 132.371 39.3966C130.288 39.8538 128.258 40.3879 126.286 40.9827C124.362 43.9808 122.499 47.0316 120.784 50.147C118.872 53.6226 117.034 57.1589 115.449 60.7923C113.924 64.2759 112.098 68.0105 111.605 71.8097C111.507 72.5704 112.518 73.3472 113.097 72.5906H113.093Z" fill="#0F1111"/>
<path d="M98.0618 73.323C98.4205 73.0236 98.7547 72.6797 99.0685 72.3034C100.128 71.0531 100.988 69.4873 101.873 68.2007C103.042 66.4973 104.277 64.8384 105.508 63.1754C108.047 59.7403 110.814 56.4832 113.561 53.218C116.325 49.9326 119.137 46.6836 121.847 43.3578C122.19 42.937 122.536 42.5121 122.878 42.0873C120.27 42.9936 117.772 44.0011 115.383 45.0854C113.606 47.1934 111.817 49.2933 110.056 51.4135C107.285 54.7515 104.636 58.2028 102.17 61.7714C100.972 63.5072 99.8714 65.3441 98.8933 67.2134C98.1189 68.6862 97.2141 70.3694 96.9084 72.0606C96.8595 72.3317 96.8228 72.6028 96.8065 72.8698C96.7658 73.5658 97.6502 73.675 98.0659 73.323H98.0618Z" fill="#0F1111"/>
<g style="mix-blend-mode:overlay" opacity="0.4">
<path d="M167.079 53.3717C172.581 51.7209 178.095 49.9487 183.397 47.8043C187.184 50.41 190.542 53.3353 193.489 56.382C206.339 69.6369 211.548 85.0242 211.548 85.0242L99.0685 72.3074L96.9043 72.0605L81.4658 70.3126C81.4658 70.3126 88.8753 61.1119 102.036 52.4614C123.502 57.4259 145.327 59.6027 167.083 53.3758L167.079 53.3717Z" fill="black"/>
</g>
<path d="M66.4927 82.6573C66.4927 82.6573 68.1922 82.5075 71.196 82.2729C72.5124 82.1677 74.0774 82.0463 75.8585 81.9209C78.5036 81.7267 81.6296 81.5122 85.1183 81.2897C86.6019 81.1966 88.1465 81.1036 89.7523 81.0065C92.7724 80.8284 96.0003 80.6544 99.3749 80.4886C100.818 80.4157 102.289 80.3469 103.785 80.2863C107.432 80.1244 111.215 79.9788 115.074 79.8614C116.562 79.8129 118.058 79.7724 119.562 79.736C123.552 79.6389 127.591 79.5741 131.609 79.558C132.954 79.5499 134.299 79.5458 135.636 79.5499C140.07 79.562 144.455 79.6308 148.694 79.7724C150.084 79.821 151.462 79.8776 152.815 79.9423C156.886 80.1325 160.787 80.3995 164.426 80.7596C165.824 80.8932 167.181 81.0469 168.498 81.2128C168.962 81.2695 169.419 81.3301 169.871 81.3908C172.883 81.8035 175.744 82.2688 178.463 82.7746C179.934 83.0497 181.36 83.333 182.746 83.6283C186.748 84.4861 190.392 85.4248 193.697 86.4039C195.173 86.8409 196.579 87.2819 197.916 87.731C202.321 89.1957 205.998 90.6968 209.005 92.0846C210.815 92.9221 212.376 93.7152 213.701 94.4394C217.678 96.6041 219.541 98.1173 219.541 98.1173C222.345 98.9427 216.643 80.962 212.209 78.0083C211.349 77.4378 210.375 76.6772 209.071 75.7951C207.921 75.0183 206.519 74.1484 204.71 73.2178C202.044 71.8461 198.494 70.3531 193.591 68.8723C192.361 68.5 191.044 68.1278 189.634 67.7636C186.956 67.0637 183.944 66.3718 180.545 65.7042C179.437 65.4857 178.283 65.2713 177.089 65.0568C174.187 64.5389 171.033 64.0453 167.593 63.5719C166.525 63.4222 165.433 63.2806 164.308 63.139C162.959 62.969 161.569 62.8032 160.134 62.6413C158.162 62.4188 156.185 62.2205 154.208 62.0506C153.112 61.9575 152.02 61.8726 150.924 61.7957C146.938 61.5125 142.964 61.3344 139.043 61.2373C138.118 61.2171 137.193 61.1969 136.276 61.1847C132.428 61.1321 128.646 61.1564 124.962 61.2454C123.861 61.2737 122.769 61.3061 121.689 61.3425C117.956 61.476 114.341 61.6662 110.884 61.9009C109.882 61.9697 108.887 62.0425 107.917 62.1153C104.258 62.4026 100.805 62.7303 97.6183 63.0823C96.4975 63.2078 95.4134 63.3332 94.3619 63.4627C91.566 63.8066 89.0187 64.1626 86.7527 64.5025C85.4485 64.7048 84.238 64.9031 83.1335 65.0932C78.7644 65.8539 76.0297 66.5255 75.4631 66.8816C71.1674 69.5803 66.5008 82.6613 66.5008 82.6613L66.4927 82.6573Z" fill="url(#paint17_linear_3_172828)"/>
<path d="M204.701 73.2096C205.288 75.8962 205.94 78.5747 206.547 81.2573C207.362 84.8623 208.149 88.4755 208.996 92.0724C210.806 92.91 212.367 93.703 213.692 94.4272C212.819 89.7702 211.682 85.1779 210.423 80.6058C209.975 78.9996 209.534 77.3892 209.062 75.7829C207.912 75.0061 206.51 74.1362 204.701 73.2056V73.2096Z" fill="#0F1111"/>
<path d="M189.625 67.7556C189.727 68.0914 189.825 68.4232 189.91 68.7469C190.518 70.9965 191.092 73.2421 191.61 75.5119C192.425 79.113 193.122 82.7463 193.692 86.3918C195.168 86.8288 196.574 87.2698 197.911 87.719C197.422 83.3694 196.607 79.0927 195.465 74.8565C194.923 72.8415 194.292 70.8306 193.582 68.8642C192.352 68.492 191.035 68.1198 189.625 67.7556Z" fill="#0F1111"/>
<path d="M177.316 69.556C177.443 71.7935 177.626 74.0269 177.818 76.2563C178.005 78.4291 178.217 80.5978 178.453 82.7624C179.925 83.0376 181.351 83.3208 182.737 83.6161C182.464 81.1035 182.174 78.5909 181.869 76.0824C181.579 73.7518 181.294 71.4213 180.968 69.0948C180.813 68.0064 180.707 66.8411 180.532 65.6961C179.423 65.4776 178.27 65.2631 177.076 65.0487C177.055 66.5579 177.231 68.1035 177.312 69.556H177.316Z" fill="#0F1111"/>
<path d="M164.421 80.7475C165.819 80.881 167.176 81.0347 168.493 81.2006C168.423 78.3441 168.309 75.4876 168.171 72.627C168.024 69.6208 167.91 66.5741 167.584 63.5638C166.516 63.4141 165.424 63.2725 164.299 63.1309C164.156 66.3475 164.266 69.5924 164.299 72.7929C164.327 75.4471 164.364 78.0973 164.425 80.7475H164.421Z" fill="#0F1111"/>
<path d="M148.693 79.7643C150.083 79.8129 151.461 79.8695 152.814 79.9342C153.115 76.9118 153.389 73.8935 153.641 70.8629C153.845 68.4393 153.975 66.0117 154.126 63.5841C154.155 63.0702 154.179 62.5563 154.2 62.0425C153.103 61.9494 152.011 61.8645 150.915 61.7876C150.584 63.8794 150.307 65.9793 150.018 68.0792C149.488 71.9675 149.064 75.8639 148.693 79.7684V79.7643Z" fill="#0F1111"/>
<path d="M131.608 79.55C132.953 79.5419 134.298 79.5379 135.635 79.5419C136.658 73.4121 137.913 67.3389 139.03 61.2294C138.105 61.2091 137.18 61.1889 136.263 61.1768C134.156 67.1164 132.713 73.3271 131.612 79.55H131.608Z" fill="#0F1111"/>
<path d="M115.073 79.8538C116.561 79.8052 118.057 79.7648 119.561 79.7284C120.115 77.7984 120.673 75.8724 121.236 73.9465C122.462 69.7305 123.905 65.5226 124.949 61.2378C123.848 61.2661 122.756 61.2985 121.676 61.3349C120.054 65.0451 118.778 68.9456 117.449 72.7489C116.626 75.1077 115.835 77.4787 115.073 79.8578V79.8538Z" fill="#0F1111"/>
<path d="M99.374 80.4845C100.817 80.4117 102.288 80.3429 103.784 80.2822C104.831 77.6887 105.871 75.0951 106.91 72.4976C108.304 69.0099 109.738 65.4898 110.871 61.8969C109.869 61.9656 108.874 62.0385 107.904 62.1113C106.315 65.0083 104.921 68.0267 103.556 71.0288C102.129 74.1646 100.731 77.3164 99.374 80.4845Z" fill="#0F1111"/>
<path d="M85.1177 81.2856C86.6012 81.1925 88.1459 81.0995 89.7517 81.0024C92.515 75.0992 95.1315 69.1191 97.6054 63.0742C96.4846 63.1996 95.4005 63.3251 94.349 63.4546C93.9007 64.1828 93.485 64.9354 93.0733 65.7042C91.6835 68.2815 90.3182 70.8629 88.9936 73.4767C87.6772 76.0702 86.3852 78.6718 85.1177 81.2856Z" fill="#0F1111"/>
<path d="M71.195 82.2728C72.5114 82.1676 74.0765 82.0462 75.8575 81.9208C77.6467 79.1573 79.4115 76.3777 81.1762 73.5899C83.0592 70.6201 85.1092 67.6463 86.7395 64.4984C85.4353 64.7007 84.2248 64.899 83.1203 65.0891C81.3637 67.2417 79.7661 69.5601 78.1806 71.7935C75.7475 75.2246 73.4162 78.6961 71.1909 82.2728H71.195Z" fill="#0F1111"/>
<g style="mix-blend-mode:overlay" opacity="0.4">
<path d="M198.485 78.595C205.015 80.3955 211.299 83.0336 217.335 86.1733C219.768 92.0199 221.26 98.615 219.536 98.1093C219.536 98.1093 217.673 96.596 213.696 94.4314C212.371 93.7071 210.81 92.9101 209.001 92.0766C205.997 90.6888 202.316 89.1877 197.911 87.723C196.57 87.2739 195.164 86.8328 193.692 86.3959C190.387 85.4167 186.743 84.4821 182.741 83.6203C181.355 83.3249 179.929 83.0417 178.458 82.7665C175.739 82.2608 172.882 81.7955 169.866 81.3828C169.414 81.3221 168.957 81.2614 168.493 81.2048C167.176 81.0348 165.819 80.8851 164.421 80.7516C160.782 80.3915 156.881 80.1244 152.81 79.9343C151.457 79.8695 150.083 79.8129 148.689 79.7643C144.451 79.6227 140.065 79.5499 135.631 79.5418C134.294 79.5418 132.949 79.5418 131.604 79.5499C127.586 79.5661 123.547 79.6308 119.557 79.7279C118.053 79.7684 116.553 79.8089 115.069 79.8534C111.214 79.9707 107.432 80.1164 103.78 80.2782C102.284 80.3429 100.813 80.4117 99.37 80.4805C95.9954 80.6464 92.7675 80.8204 89.7474 80.9984C88.1416 81.0955 86.5929 81.1886 85.1134 81.2816C81.6247 81.5042 78.5028 81.7226 75.8536 81.9128C74.0725 82.0423 72.5075 82.1596 71.1911 82.2648C68.1873 82.4995 66.4878 82.6492 66.4878 82.6492C66.4878 82.6492 67.1847 80.6949 68.2892 78.1378C111.051 69.0706 155.214 67.2458 198.481 78.5869L198.485 78.595Z" fill="black"/>
</g>
<g style="mix-blend-mode:overlay" opacity="0.3">
<path d="M252.541 135.07L157.68 126.517L148.433 135.932L252.541 135.07Z" fill="white"/>
</g>
<path d="M136.255 151.991C148.661 138.137 166.06 143.393 166.06 143.393C166.06 143.393 162.139 148.697 159.934 156.47C157.558 164.849 157.807 177.42 157.807 177.42L157.403 177.441C151.057 163.818 143.525 155.527 136.25 151.991H136.255Z" fill="#991908"/>
<path d="M135.753 152.557C135.916 152.363 136.083 152.177 136.251 151.991C143.521 155.527 151.053 163.818 157.403 177.441L123.897 179.019C123.897 179.019 123.319 167.127 135.753 152.557Z" fill="#E94A23"/>
<g style="mix-blend-mode:overlay" opacity="0.2">
<path d="M17.8494 34.0963C17.8494 34.0963 17.8494 34.1215 17.8494 34.1341C17.8367 34.1173 17.8367 34.1005 17.8494 34.0963Z" fill="black"/>
</g>
<g style="mix-blend-mode:overlay" opacity="0.2">
<path d="M75.1444 240.535C70.8405 252.516 69.6382 265.576 71.6883 278.131C73.4082 272.078 75.1322 266.025 76.8521 259.973C79.2078 269.169 81.5676 278.37 83.9233 287.567C85.4191 280.09 86.9148 272.617 88.4147 265.139C92.743 275.109 97.0713 285.074 101.404 295.044C101.844 285.758 102.288 276.476 102.728 267.191C107.403 276.812 112.078 286.43 116.753 296.051C116.973 286.632 117.193 277.213 117.413 267.798C122.45 280.227 127.488 292.661 132.525 305.09C133.577 291.977 134.628 278.864 135.68 265.75C141.59 280.276 147.495 294.801 153.405 309.327C153.869 295.254 154.33 281.182 154.795 267.11C159.893 276.141 164.996 285.172 170.094 294.202C171.619 286.248 171.513 277.99 169.785 270.08L180.345 288.922C181.408 281.522 179.998 273.794 176.387 267.239C182.427 274.085 186.78 282.388 188.965 291.229C188.765 276.646 184.42 262.141 176.567 249.817C178.136 254.903 179.212 259.827 180.781 264.917C177.402 259.499 174.019 254.077 170.641 248.66C172.132 256.8 173.624 264.945 175.112 273.086C170.131 265.091 165.155 257.096 160.174 249.101C162.314 258.399 164.454 267.692 166.594 276.99C160.411 265.548 154.228 254.11 148.045 242.667C148.832 253.754 149.614 264.84 150.401 275.922C144.552 261.53 138.708 247.138 132.859 232.742C132.211 247.498 131.559 262.259 130.911 277.015C126.465 261.142 122.022 245.269 117.576 229.396C114.69 244.994 113.443 260.891 113.855 276.748C109.465 262.125 105.072 247.503 100.682 232.88C97.9924 245.678 97.1325 258.848 98.1351 271.884C95.1354 258.419 92.1357 244.954 89.1361 231.488C87.2735 242.947 85.4069 254.405 83.5443 265.864C82.6151 256.869 81.6858 247.871 80.7566 238.876C78.3234 246.103 75.8862 253.325 73.453 260.551C74.1989 253.774 74.4027 247.316 75.1485 240.543L75.1444 240.535Z" fill="white"/>
</g>
<path d="M58.3775 371.976C59.7062 370.973 62.1149 370.677 63.7085 370.358C65.7218 369.957 67.7637 369.734 69.8138 369.621C73.8731 369.399 77.8713 369.832 81.9225 369.864C82.9658 369.872 84.0092 369.896 85.0526 369.941C86.1774 369.989 86.6013 371.171 86.0959 371.964C86.8622 372.101 87.6121 372.271 88.3457 372.486C89.2668 372.757 89.6377 374.031 88.8714 374.687C87.5835 375.783 86.0063 376.063 84.3882 376.172C84.4086 376.192 84.4331 376.212 84.4575 376.237C84.9955 376.823 84.8732 377.819 84.1396 378.195C82.1996 379.19 79.8521 378.992 77.7327 378.972C73.8038 378.931 69.773 378.628 65.9501 377.685C64.5562 377.341 55.3371 374.278 58.3857 371.976H58.3775Z" fill="#272D2D"/>
</g>
<defs>
<linearGradient id="paint0_linear_3_172828" x1="269.803" y1="335.028" x2="36.3184" y2="309.769" gradientUnits="userSpaceOnUse">
<stop stop-color="#454C4C"/>
<stop offset="1" stop-color="#272D2D"/>
</linearGradient>
<linearGradient id="paint1_linear_3_172828" x1="17.8451" y1="34.0963" x2="17.8451" y2="34.1257" gradientUnits="userSpaceOnUse">
<stop offset="0.23" stop-color="#707C7C"/>
<stop offset="0.41" stop-color="#798686"/>
<stop offset="0.71" stop-color="#94A2A2"/>
<stop offset="1" stop-color="#B3C3C4"/>
</linearGradient>
<linearGradient id="paint2_linear_3_172828" x1="121.766" y1="50.9077" x2="113.154" y2="373.189" gradientUnits="userSpaceOnUse">
<stop offset="0.23" stop-color="#707C7C"/>
<stop offset="0.41" stop-color="#798686"/>
<stop offset="0.71" stop-color="#94A2A2"/>
<stop offset="1" stop-color="#B3C3C4"/>
</linearGradient>
<linearGradient id="paint3_linear_3_172828" x1="137.237" y1="333.737" x2="141.254" y2="169.384" gradientUnits="userSpaceOnUse">
<stop stop-color="#E6EFEF"/>
<stop offset="0.02" stop-color="#E4EDED"/>
<stop offset="0.4" stop-color="#C9D6D6"/>
<stop offset="0.74" stop-color="#B8C7C8"/>
<stop offset="1" stop-color="#B3C3C4"/>
</linearGradient>
<linearGradient id="paint4_linear_3_172828" x1="47.8431" y1="84.8671" x2="27.0059" y2="103.641" gradientUnits="userSpaceOnUse">
<stop stop-color="#272D2D"/>
<stop offset="1" stop-color="#454C4C"/>
</linearGradient>
<linearGradient id="paint5_linear_3_172828" x1="56.1946" y1="89.0429" x2="23.3295" y2="125.578" gradientUnits="userSpaceOnUse">
<stop stop-color="#272D2D"/>
<stop offset="1" stop-color="#454C4C"/>
</linearGradient>
<linearGradient id="paint6_linear_3_172828" x1="112.382" y1="60.0717" x2="120.032" y2="26.2122" gradientUnits="userSpaceOnUse">
<stop stop-color="#454C4C"/>
<stop offset="0.17" stop-color="#4C5454"/>
<stop offset="1" stop-color="#707C7C"/>
</linearGradient>
<linearGradient id="paint7_linear_3_172828" x1="175.396" y1="63.3313" x2="177.121" y2="28.9087" gradientUnits="userSpaceOnUse">
<stop stop-color="#454C4C"/>
<stop offset="0.17" stop-color="#4C5454"/>
<stop offset="1" stop-color="#707C7C"/>
</linearGradient>
<linearGradient id="paint8_linear_3_172828" x1="161.878" y1="37.7742" x2="105.901" y2="251.208" gradientUnits="userSpaceOnUse">
<stop stop-color="#B3C3C4"/>
<stop offset="0.29" stop-color="#94A2A2"/>
<stop offset="0.59" stop-color="#798686"/>
<stop offset="0.77" stop-color="#707C7C"/>
</linearGradient>
<linearGradient id="paint9_linear_3_172828" x1="131.05" y1="185.776" x2="140.145" y2="87.1038" gradientUnits="userSpaceOnUse">
<stop stop-color="#B3C3C4"/>
<stop offset="0.26" stop-color="#B8C7C8"/>
<stop offset="0.6" stop-color="#C9D6D6"/>
<stop offset="0.98" stop-color="#E4EDED"/>
<stop offset="1" stop-color="#E6EFEF"/>
</linearGradient>
<linearGradient id="paint10_linear_3_172828" x1="147.101" y1="96.184" x2="131.481" y2="159.814" gradientUnits="userSpaceOnUse">
<stop stop-color="#454C4C"/>
<stop offset="1" stop-color="#272D2D"/>
</linearGradient>
<linearGradient id="paint11_linear_3_172828" x1="198.115" y1="184.311" x2="200.866" y2="133.988" gradientUnits="userSpaceOnUse">
<stop stop-color="#B3C3C4"/>
<stop offset="0.48" stop-color="#B8C8C8"/>
<stop offset="1" stop-color="#C6D4D4"/>
</linearGradient>
<linearGradient id="paint12_linear_3_172828" x1="114.375" y1="58.6519" x2="112.499" y2="7.94027" gradientUnits="userSpaceOnUse">
<stop stop-color="#B3C3C4"/>
<stop offset="0.15" stop-color="#BFCDCE"/>
<stop offset="0.57" stop-color="#DBE5E6"/>
<stop offset="0.81" stop-color="#E6EFEF"/>
</linearGradient>
<linearGradient id="paint13_linear_3_172828" x1="114.934" y1="55.0722" x2="112.599" y2="26.7134" gradientUnits="userSpaceOnUse">
<stop stop-color="#454C4C"/>
<stop offset="0.17" stop-color="#4C5454"/>
<stop offset="1" stop-color="#707C7C"/>
</linearGradient>
<linearGradient id="paint14_linear_3_172828" x1="177.938" y1="60.7266" x2="177.821" y2="9.98591" gradientUnits="userSpaceOnUse">
<stop stop-color="#B3C3C4"/>
<stop offset="0.15" stop-color="#BFCDCE"/>
<stop offset="0.57" stop-color="#DBE5E6"/>
<stop offset="0.81" stop-color="#E6EFEF"/>
</linearGradient>
<linearGradient id="paint15_linear_3_172828" x1="177.175" y1="56.8368" x2="178.384" y2="28.4077" gradientUnits="userSpaceOnUse">
<stop stop-color="#454C4C"/>
<stop offset="0.17" stop-color="#4C5454"/>
<stop offset="1" stop-color="#707C7C"/>
</linearGradient>
<linearGradient id="paint16_linear_3_172828" x1="210.518" y1="59.8329" x2="81.3209" y2="65.4239" gradientUnits="userSpaceOnUse">
<stop stop-color="#454C4C"/>
<stop offset="1" stop-color="#272D2D"/>
</linearGradient>
<linearGradient id="paint17_linear_3_172828" x1="219.512" y1="77.5236" x2="66.6256" y2="84.1398" gradientUnits="userSpaceOnUse">
<stop stop-color="#454C4C"/>
<stop offset="1" stop-color="#272D2D"/>
</linearGradient>
<clipPath id="clip0_3_172828">
<rect width="269" height="379" fill="white"/>
</clipPath>
</defs>
</svg>
