<svg width="212" height="222" viewBox="0 0 212 222" fill="none" xmlns="http://www.w3.org/2000/svg">
<g clip-path="url(#clip0_116_199870)">
<path d="M66.9914 172.892C63.049 171.192 58.1956 172.73 55.3091 175.915C52.4225 179.096 51.3099 183.594 51.4859 187.892C51.6392 191.636 52.6723 195.469 51.6193 199.062C50.5748 202.633 47.5095 205.408 44.0014 206.622C39.6702 208.123 34.6209 207.353 30.9311 204.629C27.2414 201.905 25.0133 197.303 25.1609 192.714C25.3454 187.014 27.7182 181.461 26.2622 175.949C25.4845 173.006 23.7957 170.044 21.0937 168.653C18.3916 167.263 15.9167 167.368 12.9053 167.772C9.0736 168.284 5.3498 170.092 2.89185 173.083C0.436747 176.074 -0.613428 180.287 0.553102 183.98C1.29105 186.311 2.96563 188.341 5.07447 189.544C5.5882 189.837 5.42927 189.086 4.94676 188.742C3.4964 187.713 2.92591 186.434 2.28446 184.677C1.16334 181.615 1.73382 178.055 3.51342 175.323C5.29301 172.591 8.18522 170.681 11.3243 169.813C13.8788 169.108 16.7171 169.091 19.0757 170.297C22.1722 171.88 23.9632 175.337 24.4201 178.789C24.8771 182.24 24.2243 185.734 23.4807 189.135C20.1485 204.37 31.6435 215.089 47.0412 210.199C52.5162 208.461 55.9306 203.893 56.5664 198.175C56.9695 194.553 56.4926 189.521 57.0007 185.913C57.5087 182.303 60.0859 181.748 63.7075 181.402C64.8769 178.894 66.1399 175.525 66.9971 172.895L66.9914 172.892Z" fill="url(#paint0_linear_116_199870)"/>
<g style="mix-blend-mode:overlay" opacity="0.3">
<path d="M55.306 175.915C53.7989 177.578 52.7743 179.599 52.1669 181.763C53.745 184.998 54.3552 188.868 54.9314 192.396C55.394 195.614 54.6419 198.972 53.0865 201.823C49.2038 208.396 41.1119 211.092 34.0928 208.829C27.0766 206.565 22.4757 199.179 23.401 191.765C23.7813 189.087 24.7719 186.266 24.4342 183.599C24.244 185.459 23.8722 187.312 23.4748 189.141C20.1427 204.376 31.6377 215.095 47.0353 210.205C52.5103 208.467 55.9248 203.899 56.5606 198.181C56.9636 194.559 56.4868 189.527 56.9948 185.919C57.5029 182.309 60.08 181.754 63.7017 181.408C64.871 178.9 66.1341 175.531 66.9912 172.901C63.0489 171.201 58.1954 172.739 55.3089 175.923L55.306 175.915Z" fill="black"/>
</g>
<path d="M92.9268 198.15C83.9067 201.539 73.5697 208.316 67.7059 217.889C64.1978 217.371 62.6197 217.332 58.9328 216.752C58.9328 205.897 59.2819 175.368 62.1031 170.476C75.1393 179.121 78.8915 191.252 92.9268 198.15Z" fill="url(#paint1_linear_116_199870)"/>
<path d="M67.7959 217.827C65.2585 218.52 57.3425 220.255 54.6888 220.562C52.0775 220.866 50.0624 220.997 48.4559 220.997C47.9791 220.997 47.5391 220.982 47.1276 220.96C45.7198 220.88 44.6753 220.673 43.7955 220.377C43.5116 220.283 43.2477 220.178 42.9922 220.064C42.646 219.913 42.3195 219.746 41.9931 219.567C44.5731 216.499 47.366 214.782 50.9734 214.344C54.5809 213.906 67.2112 216.883 67.7959 217.824V217.827Z" fill="url(#paint2_linear_116_199870)"/>
<path d="M50.78 218.395C50.5672 218.759 50.1982 219.032 49.886 219.342C49.5823 219.646 49.2899 219.964 49.0175 220.289C48.8216 220.519 48.6343 220.755 48.4555 220.996C47.9787 220.996 47.5387 220.982 47.1272 220.96C47.4224 220.51 47.7658 220.084 48.1546 219.672C48.7393 219.055 49.4688 218.279 50.3855 217.986C50.6977 217.886 50.8907 218.202 50.78 218.395Z" fill="#985119"/>
<path d="M48.6505 216.274C47.3477 217.161 46.0535 218.017 44.9664 219.083C44.5435 219.496 44.1547 219.928 43.797 220.377C43.5132 220.283 43.2493 220.178 42.9938 220.064C44.3278 218.35 46.1415 216.812 48.3014 215.908C48.5824 215.788 48.9144 216.095 48.6533 216.274H48.6505Z" fill="#985119"/>
<g style="mix-blend-mode:overlay" opacity="0.2">
<path d="M67.549 217.628C59.6642 218.97 51.5326 219.175 43.909 217.58C43.2533 218.165 42.6176 218.825 41.9931 219.567C42.3195 219.746 42.646 219.911 42.9922 220.064C43.2477 220.178 43.5116 220.28 43.7955 220.377C44.6753 220.673 45.7198 220.88 47.1276 220.96C47.5363 220.983 47.9791 220.997 48.4559 220.997C50.0624 220.997 52.0775 220.866 54.6888 220.562C57.3425 220.255 65.2556 218.521 67.7959 217.827C67.759 217.767 67.6767 217.702 67.549 217.628Z" fill="black"/>
</g>
<g style="mix-blend-mode:overlay" opacity="0.2">
<path d="M67.4277 174.59C68.0606 178.266 68.8837 181.897 69.7125 185.681C72.0683 197.008 70.8053 207.729 67.4192 217.847C67.5129 217.861 67.6094 217.875 67.7059 217.89C73.5669 208.317 83.9039 201.539 92.9268 198.15C81.006 192.291 76.5017 182.659 67.4277 174.59Z" fill="black"/>
</g>
<path d="M113.754 215.945C128.289 195.495 128.479 185.8 129.793 177.234C118.917 184.927 105.852 190.738 94.3202 197.402C99.1992 203.768 102.347 210.79 103.692 218.702C107.127 218.586 111.761 218.748 113.754 215.945Z" fill="url(#paint3_linear_116_199870)"/>
<path d="M103.644 218.796C106.181 219.49 114.097 221.224 116.751 221.531C119.362 221.836 121.377 221.966 122.984 221.966C123.46 221.966 123.9 221.952 124.312 221.929C125.72 221.85 126.764 221.642 127.644 221.347C127.928 221.253 128.192 221.148 128.447 221.034C128.793 220.883 129.12 220.715 129.446 220.536C126.866 217.469 124.073 215.752 120.466 215.314C116.859 214.876 104.228 217.853 103.644 218.794V218.796Z" fill="url(#paint4_linear_116_199870)"/>
<path d="M120.66 219.364C120.873 219.728 121.241 220.001 121.554 220.311C121.857 220.615 122.15 220.934 122.422 221.258C122.618 221.488 122.805 221.724 122.984 221.966C123.461 221.966 123.901 221.952 124.312 221.929C124.017 221.48 123.674 221.053 123.285 220.641C122.7 220.024 121.971 219.248 121.054 218.955C120.742 218.855 120.549 219.171 120.66 219.364Z" fill="#985119"/>
<path d="M122.791 217.244C124.093 218.131 125.388 218.987 126.475 220.053C126.898 220.465 127.286 220.898 127.644 221.347C127.928 221.253 128.192 221.148 128.447 221.034C127.113 219.32 125.3 217.782 123.14 216.877C122.859 216.761 122.527 217.065 122.788 217.244H122.791Z" fill="#985119"/>
<g style="mix-blend-mode:overlay" opacity="0.2">
<path d="M103.89 218.598C111.775 219.94 119.907 220.144 127.53 218.549C128.186 219.135 128.822 219.795 129.446 220.537C129.12 220.716 128.793 220.881 128.447 221.034C128.192 221.148 127.928 221.25 127.644 221.347C126.764 221.643 125.72 221.85 124.312 221.93C123.903 221.952 123.46 221.967 122.984 221.967C121.377 221.967 119.362 221.836 116.751 221.532C114.097 221.225 106.184 219.49 103.644 218.797C103.68 218.737 103.763 218.672 103.89 218.598Z" fill="black"/>
</g>
<g style="mix-blend-mode:overlay" opacity="0.2">
<path d="M119.034 200.797C112.401 202.52 105.041 203.583 97.8408 203.279C97.977 203.293 98.1133 203.31 98.2495 203.324C100.634 207.543 102.337 212.047 103.347 216.886C106.739 210.327 113.474 205.198 119.031 200.797H119.034Z" fill="black"/>
</g>
<path d="M85.3348 200.746C72.7896 197.229 62.5747 187.472 61.4962 174.539C60.9853 168.412 66.8548 160.983 71.3166 153.54C79.8172 139.356 87.6367 124.885 89.1665 124.203C100.781 119.017 125.178 116.433 129.652 128.285C134.023 139.862 132.391 171.804 127.537 188.151C122.337 205.656 103.486 205.835 85.3348 200.746Z" fill="url(#paint5_linear_116_199870)"/>
<path d="M89.2968 175.295C89.0726 176.455 88.8853 177.609 88.7349 178.758C87.7812 186.144 92.365 192.794 98.2686 195.947C103.219 198.591 109.389 198.238 114.285 195.356C120.271 191.83 123.106 185.294 123.972 178.343C124.764 171.997 124.608 165.49 123.7 159.204C122.726 152.446 118.372 144.681 111.438 143.848C105.055 143.081 100.253 148.935 97.1986 154.24C93.5968 160.494 90.7103 167.974 89.294 175.295H89.2968Z" fill="url(#paint6_linear_116_199870)"/>
<g style="mix-blend-mode:overlay" opacity="0.3">
<path d="M122.468 179.989C122.107 178.47 121.744 176.952 121.383 175.437C120.725 177.876 120.066 180.315 119.408 182.752C118.718 179.733 118.026 176.711 117.336 173.691C116.308 176.878 115.281 180.062 114.254 183.249C113.791 179.622 113.328 175.991 112.869 172.364C111.271 175.445 109.673 178.53 108.075 181.612C107.904 178.169 107.413 174.749 106.619 171.42C104.629 176.304 102.642 181.191 100.653 186.075C100.729 179.997 100.218 173.924 99.1341 167.982C97.4709 170.456 95.8077 172.932 94.1444 175.406C93.9571 173.592 94.0195 171.747 94.3261 169.941C93.4008 171.519 92.4755 173.097 91.5502 174.675C91.7404 171.516 92.4869 168.386 93.7385 165.498C93.3866 166.837 93.1652 168.068 92.8161 169.404C94.1359 167.482 95.4529 165.557 96.7727 163.635C96.4065 165.515 96.0404 167.397 95.6742 169.276C97.136 166.271 99.2051 163.596 101.694 161.495C101.967 166.183 102.239 170.871 102.512 175.559C104.53 171.002 106.548 166.441 108.566 161.884C108.779 166.797 108.994 171.712 109.207 176.625C110.43 171.798 112.128 167.098 114.262 162.632C114.869 167.138 115.034 171.724 114.756 176.287C116.016 172.463 117.276 168.636 118.537 164.812C118.92 168.713 119.3 172.614 119.683 176.514C120.18 173.731 121.057 171.016 122.28 168.488C122.732 172.366 122.686 176.071 122.468 179.989Z" fill="white"/>
</g>
<g style="mix-blend-mode:overlay" opacity="0.4">
<path d="M129.652 128.285C125.179 116.436 100.781 119.017 89.1669 124.203C87.7023 124.857 80.4534 138.185 72.3643 151.786C77.5356 158.316 85.8603 162.234 94.1878 158.953C98.2352 167.434 104.678 173.7 112.591 179.414C117.55 182.925 122.505 185.325 127.83 187.133C132.456 170.51 133.932 139.629 129.652 128.285Z" fill="black"/>
</g>
<g style="mix-blend-mode:overlay" opacity="0.2">
<path d="M98.6686 148.818C98.8162 148.904 98.9666 148.986 99.1171 149.071C99.1369 149.063 99.1568 149.052 99.1738 149.043L98.6686 148.818Z" fill="black"/>
</g>
<path d="M98.6686 148.818C108.322 154.353 119.709 157.967 131.507 159.232C131.831 151.524 132.271 145.438 131.414 138.907C132.714 138.469 133.894 137.963 135.084 137.358L135.14 137.221C137.556 144.752 138.932 152.511 138.85 160.281C138.816 163.576 138.319 167.221 135.26 169.447C133.568 170.678 131.269 171.298 128.981 171.434C126.694 171.568 124.398 171.252 122.172 170.8C109.758 168.276 98.89 161.31 93.1567 152.207C95.0895 151.215 97.241 150.035 99.171 149.042L98.6658 148.818H98.6686Z" fill="url(#paint7_linear_116_199870)"/>
<g style="mix-blend-mode:overlay" opacity="0.2">
<path d="M117.312 156.525C110.849 154.734 104.701 152.221 99.1182 149.071C97.2024 150.057 95.0737 151.223 93.1607 152.204C94.8721 154.925 97.0463 157.449 99.5808 159.726C105.675 159.792 111.822 158.839 117.312 156.522V156.525Z" fill="black"/>
</g>
<path d="M119.573 151.357C119.576 151.323 119.579 151.308 119.582 151.306C120.03 148.525 118.679 142.987 116.235 143.081C113.968 142.921 106.705 144.096 101.105 142.705C103.614 136.502 110.8 127.046 113.468 123.015C105.044 119.478 98.3032 119.037 89.181 119.469C84.7618 124.783 80.9529 130.608 77.862 136.795C76.6699 139.177 75.5857 141.648 74.9669 144.249C74.1949 147.49 73.579 151.089 76.6472 153.287C78.5318 154.638 80.8195 155.436 83.0333 156.039C87.3986 157.225 92.0023 157.159 96.5123 156.807C104.423 156.19 112.338 154.692 119.593 151.473C119.59 151.411 119.587 151.308 119.582 151.308C119.582 151.325 119.579 151.342 119.573 151.36V151.357Z" fill="url(#paint8_linear_116_199870)"/>
<g style="mix-blend-mode:overlay" opacity="0.3">
<path d="M136.996 144.149C136.369 139.848 136.485 141.417 135.14 137.218L135.083 137.355C133.988 137.909 132.903 138.384 131.723 138.796C131.317 134.532 130.636 130.89 129.654 128.283C126.736 120.55 115.335 118.963 104.538 120.234C99.6872 119.27 94.9019 119.196 89.1827 119.466C86.5801 122.594 84.1931 125.9 82.0388 129.349C97.164 142.944 116.674 144.357 137.002 144.147L136.996 144.149Z" fill="black"/>
</g>
<path d="M94.2197 86.7684C90.5243 93.5547 85.8099 99.7269 81.1154 105.862C79.3954 107.454 76.7615 108.509 73.8125 108.933C71.1162 109.319 68.153 109.18 65.3715 108.444C59.5502 106.897 54.5435 102.951 50.9786 98.0865C47.4166 93.2221 45.2027 87.482 43.7382 81.6311C40.074 66.9753 41.1099 50.8098 48.5235 37.6523C49.5481 35.8356 50.7175 34.0616 52.0458 32.4353C54.4498 29.49 57.3732 27.0279 60.8899 25.6689C65.2523 23.983 70.2022 24.1621 74.6385 25.6434C79.0747 27.1217 83.0284 29.8311 86.4343 33.0381C95.1052 41.1975 100.421 52.8341 100.918 64.7407C101.239 72.4907 97.9123 79.9821 94.2169 86.7713L94.2197 86.7684Z" fill="url(#paint9_linear_116_199870)"/>
<path d="M89.1935 84.4343C86.6958 90.1005 83.341 95.343 80.0003 100.557C78.7316 101.942 76.6994 102.962 74.372 103.497C72.2433 103.986 69.8705 104.071 67.5999 103.67C62.8486 102.823 58.5884 100.008 55.4181 96.3637C52.2505 92.7189 50.102 88.2809 48.5409 83.7065C44.6383 72.2491 44.3914 59.2707 49.435 48.2682C50.1303 46.7472 50.9478 45.2546 51.9014 43.8672C53.6243 41.3539 55.7955 39.1932 58.5146 37.8741C61.8865 36.2365 65.8515 36.0488 69.4902 36.9359C73.1317 37.8201 76.4667 39.7192 79.4014 42.0533C86.8689 47.9896 91.887 56.9252 93.0762 66.401C93.8483 72.5675 91.6912 78.771 89.1906 84.44L89.1935 84.4343Z" fill="url(#paint10_linear_116_199870)"/>
<g style="mix-blend-mode:overlay" opacity="0.8">
<path d="M90.592 57.0216C88.2504 52.8168 85.1056 49.0554 81.3364 46.0589C78.4016 43.7276 75.0666 41.8285 71.4251 40.9443C67.7865 40.0601 63.8214 40.2449 60.4495 41.8825C57.7333 43.2016 55.562 45.3652 53.8364 47.8756C52.8827 49.263 52.0681 50.7556 51.3727 52.2766C46.3291 63.2763 46.576 76.2575 50.4787 87.7149C50.8618 88.8379 51.2791 89.9524 51.7417 91.0469C50.4475 88.7157 49.4058 86.2308 48.5458 83.7034C44.6432 72.246 44.3963 59.2676 49.4399 48.2679C50.1353 46.7497 50.9527 45.2543 51.9063 43.8669C53.6291 41.3565 55.8004 39.193 58.5195 37.8738C61.8914 36.2362 65.8564 36.0514 69.4951 36.9356C73.1366 37.8198 76.4716 39.7189 79.4063 42.0531C84.3364 45.9736 88.1993 51.1991 90.5977 57.0244L90.592 57.0216Z" fill="black"/>
</g>
<g style="mix-blend-mode:overlay" opacity="0.2">
<path d="M100.855 63.5351C99.2008 53.6186 94.2707 44.248 86.9479 37.3536C83.5392 34.1495 79.5855 31.4373 75.1492 29.9618C70.713 28.4834 65.7659 28.3014 61.4006 29.9873C57.884 31.3435 54.9606 33.8084 52.5566 36.7509C51.2254 38.3771 50.0561 40.1512 49.0343 41.9679C43.4117 51.944 41.4561 63.6545 42.4381 75.1232C40.511 62.3126 42.1941 48.8849 48.5262 37.6493C49.5509 35.8298 50.7202 34.0586 52.0485 32.4323C54.4526 29.487 57.376 27.0249 60.8926 25.6659C65.255 23.98 70.205 24.162 74.6412 25.6404C79.0774 27.1187 83.0311 29.8281 86.437 33.0351C94.8156 40.9188 100.061 52.0492 100.855 63.5322V63.5351Z" fill="white"/>
</g>
<g style="mix-blend-mode:overlay" opacity="0.2">
<path d="M100.921 64.7406C100.764 61.0276 100.143 57.3431 99.0955 53.7808C92.2609 57.4767 87.2145 63.5352 81.6146 69.5141C72.0638 79.82 66.1006 91.0386 63.1913 104.208C62.9529 105.299 62.7486 106.397 62.5754 107.494C63.4837 107.869 64.4146 108.191 65.3683 108.444C68.147 109.183 71.1101 109.322 73.8093 108.933C76.7611 108.509 79.3922 107.454 81.1122 105.862C85.8067 99.7241 90.5211 93.5547 94.2165 86.7684C97.9119 79.9792 101.241 72.4907 100.918 64.7378L100.921 64.7406Z" fill="black"/>
</g>
<path d="M146.355 91.2628C145.92 98.9816 146.678 106.715 147.439 114.408C148.063 116.668 149.743 118.957 152.028 120.873C154.117 122.627 156.706 124.071 159.459 124.913C165.218 126.673 171.553 125.965 177.138 123.716C182.727 121.464 187.629 117.754 191.951 113.558C202.779 103.044 210.406 88.7581 211.033 73.6645C211.121 71.5805 211.059 69.4539 210.786 67.37C210.295 63.5973 209.106 59.9611 206.832 56.9503C204.014 53.2146 199.711 50.7525 195.164 49.6665C190.617 48.5804 185.832 48.7937 181.248 49.7176C169.586 52.0717 158.942 59.1508 152.252 69.0047C147.899 75.4215 146.783 83.5411 146.352 91.2628H146.355Z" fill="url(#paint11_linear_116_199870)"/>
<path d="M151.853 91.9361C150.993 98.0714 151.084 104.295 151.177 110.49C151.527 112.338 152.716 114.274 154.41 115.96C155.96 117.498 157.933 118.828 160.073 119.681C164.554 121.469 169.657 121.327 174.27 119.906C178.882 118.481 183.043 115.846 186.775 112.784C196.122 105.111 203.163 94.2134 204.67 82.2016C204.878 80.5413 204.971 78.8411 204.892 77.1609C204.75 74.116 204.043 71.1337 202.428 68.5778C200.424 65.405 197.155 63.1533 193.595 61.982C190.036 60.8107 186.202 60.6628 182.481 61.095C173.012 62.1952 164.043 67.1364 158.046 74.5595C154.143 79.3927 152.713 85.8009 151.853 91.939V91.9361Z" fill="url(#paint12_linear_116_199870)"/>
<g style="mix-blend-mode:overlay" opacity="0.8">
<path d="M186.779 112.784C185.695 113.674 184.574 114.53 183.413 115.329C192.7 107.661 199.687 96.8035 201.186 84.8458C201.393 83.1883 201.487 81.4853 201.407 79.8022C201.266 76.7574 200.559 73.775 198.944 71.2191C196.94 68.0463 193.67 65.7946 190.114 64.6233C186.555 63.452 182.717 63.3042 178.999 63.7363C173.175 64.4129 167.541 66.5424 162.671 69.809C168.234 65.0498 175.21 61.9367 182.485 61.0923C186.206 60.6601 190.04 60.8108 193.599 61.9821C197.156 63.1535 200.428 65.4052 202.432 68.578C204.047 71.1339 204.754 74.119 204.896 77.1611C204.975 78.8441 204.882 80.5443 204.674 82.2046C203.167 94.2164 196.125 105.114 186.779 112.787V112.784Z" fill="black"/>
</g>
<g style="mix-blend-mode:overlay" opacity="0.2">
<path d="M201.049 102.689C205.55 94.9274 208.38 86.2647 208.755 77.3149C208.84 75.231 208.78 73.1044 208.508 71.0204C208.017 67.2477 206.827 63.6115 204.554 60.6007C201.733 56.8622 197.433 54.403 192.886 53.3169C188.339 52.2309 183.554 52.4441 178.97 53.3709C167.722 55.6397 157.422 62.3066 150.703 71.6203C151.169 70.7219 151.685 69.8491 152.259 69.0047C158.949 59.1508 169.589 52.0717 181.252 49.7176C185.836 48.7937 190.621 48.5804 195.168 49.6665C199.715 50.7525 204.015 53.2146 206.836 56.9503C209.109 59.9611 210.299 63.5973 210.79 67.37C211.065 69.4539 211.125 71.5805 211.037 73.6645C210.605 84.0415 206.864 94.0404 201.051 102.689H201.049Z" fill="white"/>
</g>
<g style="mix-blend-mode:overlay" opacity="0.2">
<path d="M178.147 108.289C178.186 90.7678 171.616 73.1012 159.034 61.1548C156.488 63.506 154.203 66.1358 152.256 69.0072C147.902 75.4239 146.787 83.5436 146.355 91.2653C145.921 98.9841 146.679 106.717 147.439 114.41C148.064 116.671 149.744 118.959 152.029 120.875C154.118 122.63 156.706 124.074 159.459 124.915C164.688 126.513 170.39 126.075 175.578 124.298C177.037 119.138 178.087 113.864 178.152 108.286L178.147 108.289Z" fill="black"/>
</g>
<path d="M170.519 108.461C170.434 102.618 169.693 96.7303 168.578 91.32C168.322 90.0776 168.033 88.8409 167.709 87.6127C164.556 75.6151 154.239 62.4718 143.612 55.6542C143.507 55.586 142.412 54.8724 142.389 54.9037C143.371 53.6584 143.958 52.0976 143.984 50.5083C142.798 51.566 141.373 52.3563 139.846 52.8055C141.472 51.0656 142.67 48.9305 143.306 46.6333C141.946 47.6966 140.377 48.487 138.713 48.9418C140.365 47.4862 141.77 45.7491 142.846 43.8301C138.591 46.0874 132.997 50.3491 126.605 51.5489C124.238 51.9924 121.814 52.0436 119.473 52.6037C114.971 53.6783 110.336 55.4609 106.351 57.7922C98.5234 62.3751 91.5668 69.2041 85.9669 76.2775C80.9148 82.6545 76.084 89.7649 73.7027 97.6315C65.625 124.288 96.0371 137.852 116.986 142.082C135.512 145.824 164.465 145.545 169.324 122.113C169.33 122.082 169.338 122.05 169.344 122.019C170.241 117.703 170.587 113.098 170.519 108.463V108.461Z" fill="url(#paint13_linear_116_199870)"/>
<g style="mix-blend-mode:overlay" opacity="0.28">
<path d="M143.12 105.541C142.919 105.541 142.167 105.015 141.65 104.682C139.638 103.352 138.179 102.522 135.843 102.172C133.998 101.788 131.804 102.07 129.67 102.775C128.778 103.11 128.063 103.318 127.433 103.744C127.419 103.756 127.405 103.764 127.391 103.773C127.328 103.784 127.263 103.795 127.2 103.81C127.067 103.835 126.934 103.861 126.8 103.886C126.854 103.815 126.905 103.744 126.959 103.676C127.266 103.27 127.575 102.889 127.882 102.53C131.378 98.4733 134.849 97.447 136.141 97.6403C137.727 97.8763 138.735 98.8202 139.493 99.6589C140.716 101.015 141.749 102.417 142.408 103.67C142.765 104.35 143.015 104.984 143.123 105.544L143.12 105.541Z" fill="black"/>
</g>
<path d="M143.69 105.188C143.622 105.433 143.369 105.62 143.114 105.572C142.912 105.572 142.154 105.094 141.632 104.796C139.606 103.599 138.135 102.848 135.797 102.51C133.952 102.149 131.764 102.362 129.641 102.948C128.755 103.229 128.045 103.4 127.424 103.764C127.41 103.772 127.395 103.781 127.381 103.786C127.319 103.815 127.254 103.823 127.191 103.815C127.097 103.804 127.012 103.758 126.947 103.693C126.853 103.599 126.802 103.462 126.845 103.317C126.904 103.09 127.151 103.019 127.333 102.914C127.503 102.84 127.679 102.769 127.852 102.7C129.913 101.882 132.118 101.373 134.335 101.33C135.805 101.344 137.284 101.592 138.68 102.052C139.969 102.541 141.192 103.192 142.37 103.909C142.725 104.125 143.08 104.349 143.426 104.574C143.432 104.58 143.437 104.583 143.443 104.588C143.645 104.705 143.75 104.961 143.687 105.182L143.69 105.188Z" fill="#B57C3A"/>
<path d="M105.394 73.3831C105.462 71.5607 108.238 70.1875 111.596 70.3126C114.953 70.4377 117.616 72.0213 117.548 73.8436C117.479 75.666 114.775 75.1344 111.42 75.0064C108.065 74.8785 105.326 75.2054 105.397 73.3831H105.394Z" fill="#985119"/>
<g style="mix-blend-mode:overlay" opacity="0.31">
<path d="M111.416 75.0068C108.061 74.8817 105.322 75.2059 105.393 73.3835C105.402 73.1589 105.45 72.94 105.538 72.7324C105.504 72.8973 105.495 73.0651 105.507 73.2328C105.651 75.0523 108.331 74.407 111.677 74.1426C114.393 73.9265 116.715 74.026 117.419 73.0992C117.51 73.3408 117.552 73.591 117.544 73.844C117.473 75.6664 114.771 75.1348 111.413 75.0068H111.416Z" fill="black"/>
</g>
<path d="M169.192 88.4433C170.075 86.8484 168.409 84.2328 165.471 82.6009C162.534 80.969 159.437 80.9406 158.554 82.5355C157.672 84.1305 160.26 85.0772 163.198 86.7091C166.136 88.341 168.31 90.0383 169.192 88.4433Z" fill="#985119"/>
<g style="mix-blend-mode:overlay" opacity="0.31">
<path d="M163.201 86.7093C166.138 88.3412 168.313 90.0385 169.192 88.4435C169.3 88.2474 169.371 88.0341 169.405 87.8095C169.349 87.9687 169.272 88.1166 169.173 88.253C168.108 89.7343 166.15 87.7953 163.422 85.8308C161.208 84.2358 159.17 83.1185 159.048 81.9614C158.847 82.1206 158.679 82.3111 158.557 82.5329C157.675 84.1278 160.263 85.0745 163.201 86.7064V86.7093Z" fill="black"/>
</g>
<path opacity="0.01" d="M145.016 121.272C144.269 126.81 149.33 132.067 156.318 133.01C163.306 133.954 167.472 129.556 168.219 124.018C168.965 118.48 166.008 113.897 159.02 112.953C152.032 112.009 145.762 115.733 145.016 121.272Z" fill="#DEA96F"/>
<path opacity="0.02" d="M145.192 121.303C144.457 126.773 149.452 131.964 156.352 132.894C163.252 133.826 167.381 129.488 168.116 124.018C168.851 118.548 165.92 114.019 159.017 113.086C152.117 112.154 145.924 115.833 145.189 121.303H145.192Z" fill="#DEA86F"/>
<path opacity="0.03" d="M145.364 121.337C144.638 126.739 149.57 131.862 156.385 132.783C163.2 133.704 167.29 129.425 168.016 124.024C168.743 118.622 165.834 114.147 159.019 113.226C152.204 112.305 146.094 115.938 145.367 121.337H145.364Z" fill="#DFA770"/>
<path opacity="0.04" d="M145.54 121.368C144.822 126.699 149.693 131.759 156.42 132.666C163.146 133.576 167.196 129.354 167.915 124.023C168.633 118.693 165.743 114.266 159.019 113.359C152.293 112.45 146.258 116.037 145.54 121.368Z" fill="#DFA670"/>
<path opacity="0.06" d="M145.717 121.403C145.007 126.665 149.815 131.657 156.454 132.556C163.093 133.451 167.106 129.292 167.815 124.03C168.525 118.767 165.658 114.395 159.02 113.499C152.381 112.603 146.423 116.14 145.717 121.403Z" fill="#DFA570"/>
<path opacity="0.07" d="M145.893 121.433C145.195 126.627 149.937 131.554 156.491 132.439C163.042 133.323 167.018 129.223 167.716 124.029C168.414 118.835 165.573 114.516 159.023 113.632C152.472 112.748 146.594 116.239 145.893 121.433Z" fill="#DFA470"/>
<path opacity="0.08" d="M146.068 121.465C145.378 126.588 150.059 131.452 156.524 132.325C162.99 133.198 166.924 129.155 167.616 124.032C168.306 118.909 165.488 114.641 159.025 113.768C152.559 112.896 146.761 116.341 146.071 121.465H146.068Z" fill="#E0A371"/>
<path opacity="0.09" d="M146.243 121.499C145.562 126.554 150.18 131.35 156.558 132.211C162.935 133.073 166.832 129.09 167.513 124.035C168.194 118.98 165.399 114.766 159.021 113.905C152.644 113.043 146.922 116.444 146.24 121.499H146.243Z" fill="#E0A271"/>
<path opacity="0.1" d="M146.417 121.53C145.744 126.517 150.299 131.247 156.592 132.097C162.881 132.947 166.742 129.024 167.411 124.037C168.084 119.051 165.311 114.891 159.021 114.041C152.732 113.191 147.086 116.546 146.417 121.53Z" fill="#E0A171"/>
<path opacity="0.11" d="M146.595 121.564C145.933 126.482 150.423 131.148 156.628 131.984C162.832 132.822 166.653 128.956 167.314 124.04C167.975 119.122 165.228 115.017 159.026 114.178C152.822 113.339 147.259 116.646 146.595 121.564Z" fill="#E0A071"/>
<path opacity="0.12" d="M146.77 121.595C146.117 126.443 150.545 131.043 156.661 131.87C162.778 132.697 166.558 128.891 167.211 124.043C167.864 119.196 165.139 115.142 159.025 114.314C152.909 113.487 147.423 116.748 146.77 121.595Z" fill="#E09F71"/>
<path opacity="0.13" d="M146.946 121.63C146.302 126.409 150.667 130.943 156.698 131.757C162.727 132.57 166.471 128.825 167.115 124.046C167.759 119.267 165.057 115.267 159.029 114.451C153 113.638 147.59 116.851 146.946 121.63Z" fill="#E19E72"/>
<path opacity="0.14" d="M147.121 121.661C146.488 126.372 150.788 130.838 156.731 131.643C162.672 132.445 166.379 128.757 167.012 124.049C167.645 119.338 164.968 115.392 159.028 114.587C153.087 113.786 147.754 116.953 147.121 121.661Z" fill="#E19D72"/>
<path opacity="0.16" d="M147.293 121.692C146.669 126.332 150.909 130.736 156.762 131.526C162.617 132.316 166.282 128.689 166.909 124.049C167.533 119.409 164.879 115.511 159.027 114.721C153.172 113.931 147.921 117.052 147.296 121.692H147.293Z" fill="#E19C72"/>
<path opacity="0.17" d="M147.471 121.726C146.855 126.298 151.033 130.636 156.8 131.415C162.568 132.194 166.195 128.626 166.811 124.055C167.427 119.483 164.796 115.639 159.028 114.86C153.261 114.081 148.087 117.155 147.471 121.726Z" fill="#E19B72"/>
<path opacity="0.18" d="M147.647 121.758C147.04 126.261 151.155 130.531 156.834 131.299C162.514 132.066 166.104 128.555 166.709 124.055C167.316 119.551 164.708 115.762 159.028 114.994C153.349 114.226 148.251 117.254 147.647 121.758Z" fill="#E29A73"/>
<path opacity="0.19" d="M147.822 121.791C147.226 126.223 151.276 130.431 156.867 131.187C162.462 131.944 166.01 128.492 166.608 124.057C167.204 119.625 164.622 115.886 159.03 115.13C153.436 114.374 148.421 117.356 147.822 121.788V121.791Z" fill="#E29973"/>
<path opacity="0.2" d="M147.999 121.823C147.412 126.187 151.399 130.33 156.906 131.072C162.412 131.817 165.923 128.425 166.51 124.058C167.098 119.694 164.538 116.009 159.034 115.264C153.528 114.52 148.59 117.456 148.002 121.82L147.999 121.823Z" fill="#E29873"/>
<path opacity="0.21" d="M148.174 121.857C147.595 126.153 151.521 130.227 156.939 130.96C162.357 131.691 165.831 128.359 166.41 124.063C166.989 119.767 164.452 116.137 159.034 115.403C153.615 114.672 148.753 117.561 148.174 121.854V121.857Z" fill="#E29773"/>
<path opacity="0.22" d="M148.346 121.888C147.779 126.113 151.639 130.124 156.969 130.844C162.299 131.563 165.736 128.291 166.304 124.063C166.872 119.838 164.36 116.259 159.03 115.54C153.699 114.82 148.914 117.66 148.346 121.888Z" fill="#E29673"/>
<path opacity="0.23" d="M148.524 121.922C147.964 126.079 151.762 130.025 157.004 130.733C162.25 131.441 165.644 128.228 166.206 124.069C166.765 119.912 164.276 116.387 159.034 115.679C153.789 114.971 149.086 117.766 148.524 121.922Z" fill="#E39574"/>
<path opacity="0.24" d="M148.701 121.953C148.15 126.042 151.885 129.92 157.043 130.616C162.2 131.313 165.557 128.157 166.108 124.069C166.659 119.98 164.192 116.509 159.035 115.812C153.878 115.116 149.251 117.865 148.701 121.953Z" fill="#E39474"/>
<path opacity="0.26" d="M148.876 121.985C148.334 126.005 152.007 129.817 157.076 130.502C162.145 131.188 165.466 128.091 166.005 124.071C166.547 120.051 164.103 116.634 159.034 115.949C153.965 115.264 149.415 117.967 148.873 121.985H148.876Z" fill="#E39374"/>
<path opacity="0.27" d="M149.052 122.02C148.521 125.969 152.129 129.716 157.11 130.39C162.094 131.063 165.372 128.027 165.906 124.075C166.436 120.126 164.018 116.757 159.037 116.086C154.053 115.413 149.583 118.071 149.052 122.02Z" fill="#E39274"/>
<path opacity="0.28" d="M149.227 122.051C148.705 125.932 152.25 129.614 157.146 130.276C162.042 130.938 165.283 127.959 165.806 124.078C166.328 120.197 163.932 116.882 159.036 116.223C154.14 115.56 149.749 118.17 149.227 122.051Z" fill="#E49175"/>
<path opacity="0.29" d="M149.4 122.084C148.886 125.897 152.368 129.513 157.176 130.161C161.984 130.81 165.189 127.893 165.703 124.08C166.216 120.268 163.844 117.007 159.035 116.359C154.227 115.71 149.913 118.272 149.4 122.084Z" fill="#E49075"/>
<path opacity="0.3" d="M149.576 122.116C149.07 125.857 152.491 129.408 157.211 130.048C161.931 130.685 165.098 127.827 165.601 124.083C166.106 120.342 163.756 117.132 159.036 116.495C154.316 115.858 150.078 118.374 149.576 122.116Z" fill="#E49075"/>
<path opacity="0.31" d="M149.754 122.149C149.26 125.823 152.615 129.308 157.249 129.934C161.884 130.559 165.009 127.759 165.503 124.085C165.997 120.412 163.672 117.256 159.04 116.631C154.405 116.006 150.247 118.476 149.754 122.149Z" fill="#E48F75"/>
<path opacity="0.32" d="M149.928 122.181C149.442 125.786 152.735 129.206 157.282 129.82C161.829 130.434 164.917 127.693 165.402 124.088C165.887 120.483 163.586 117.382 159.039 116.768C154.492 116.153 150.413 118.576 149.928 122.181Z" fill="#E48E75"/>
<path opacity="0.33" d="M150.104 122.213C149.627 125.747 152.857 129.101 157.316 129.704C161.775 130.307 164.826 127.626 165.3 124.089C165.777 120.555 163.498 117.505 159.039 116.902C154.58 116.299 150.578 118.676 150.101 122.213H150.104Z" fill="#E58D76"/>
<path opacity="0.34" d="M150.281 122.247C149.815 125.713 152.98 129.002 157.354 129.593C161.728 130.185 164.736 127.561 165.205 124.095C165.67 120.629 163.416 117.633 159.045 117.041C154.672 116.45 150.749 118.781 150.284 122.247H150.281Z" fill="#E58C76"/>
<path opacity="0.36" d="M150.454 122.278C149.997 125.676 153.099 128.9 157.385 129.477C161.671 130.057 164.643 127.492 165.1 124.095C165.557 120.697 163.326 117.755 159.04 117.175C154.754 116.595 150.911 118.881 150.451 122.278H150.454Z" fill="#E58B76"/>
<path opacity="0.37" d="M150.629 122.312C150.181 125.641 153.221 128.797 157.418 129.365C161.616 129.931 164.551 127.429 164.999 124.1C165.448 120.771 163.24 117.882 159.042 117.314C154.844 116.748 151.078 118.985 150.629 122.312Z" fill="#E58A76"/>
<path opacity="0.38" d="M150.806 122.344C150.367 125.602 153.344 128.695 157.457 129.25C161.566 129.804 164.461 127.359 164.901 124.101C165.341 120.843 163.156 118.005 159.046 117.448C154.936 116.894 151.246 119.083 150.806 122.344Z" fill="#E68977"/>
<path opacity="0.39" d="M150.982 122.377C150.554 125.567 153.466 128.592 157.49 129.138C161.515 129.681 164.37 127.295 164.799 124.106C165.227 120.916 163.068 118.13 159.043 117.587C155.018 117.044 151.408 119.187 150.979 122.377H150.982Z" fill="#E68877"/>
<path opacity="0.4" d="M151.157 122.409C150.737 125.531 153.587 128.49 157.524 129.022C161.46 129.554 164.279 127.228 164.699 124.106C165.119 120.985 162.982 118.253 159.045 117.721C155.108 117.189 151.577 119.288 151.157 122.409Z" fill="#E68777"/>
<path opacity="0.41" d="M151.331 122.44C150.919 125.491 153.706 128.388 157.558 128.908C161.407 129.429 164.188 127.16 164.597 124.109C165.008 121.059 162.894 118.378 159.045 117.857C155.196 117.337 151.742 119.39 151.331 122.44Z" fill="#E68677"/>
<path opacity="0.42" d="M151.505 122.475C151.105 125.457 153.827 128.286 157.591 128.795C161.354 129.303 164.093 127.094 164.496 124.112C164.896 121.13 162.807 118.503 159.047 117.994C155.283 117.485 151.908 119.492 151.508 122.475H151.505Z" fill="#E68577"/>
<path opacity="0.43" d="M151.683 122.505C151.292 125.419 153.951 128.183 157.627 128.68C161.302 129.178 164.004 127.029 164.396 124.115C164.788 121.2 162.722 118.627 159.046 118.13C155.37 117.632 152.072 119.591 151.681 122.505H151.683Z" fill="#E78478"/>
<path opacity="0.44" d="M151.86 122.54C151.477 125.383 154.074 128.084 157.664 128.567C161.252 129.05 163.917 126.961 164.3 124.118C164.683 121.275 162.639 118.753 159.052 118.267C155.464 117.783 152.246 119.694 151.863 122.54H151.86Z" fill="#E78378"/>
<path opacity="0.46" d="M152.035 122.571C151.66 125.346 154.198 127.978 157.697 128.453C161.197 128.925 163.822 126.895 164.197 124.12C164.571 121.346 162.551 118.878 159.051 118.403C155.551 117.931 152.409 119.796 152.035 122.571Z" fill="#E78278"/>
<path opacity="0.47" d="M152.211 122.605C151.848 125.312 154.32 127.879 157.732 128.34C161.146 128.8 163.732 126.83 164.095 124.123C164.459 121.417 162.463 119.003 159.049 118.542C155.634 118.082 152.572 119.901 152.209 122.608L152.211 122.605Z" fill="#E78178"/>
<path opacity="0.48" d="M152.384 122.636C152.029 125.272 154.439 127.774 157.765 128.226C161.092 128.675 163.64 126.762 163.995 124.126C164.35 121.491 162.377 119.128 159.051 118.679C155.724 118.23 152.741 120.004 152.384 122.639V122.636Z" fill="#E88079"/>
<path opacity="0.49" d="M152.559 122.668C152.213 125.235 154.56 127.671 157.798 128.109C161.037 128.547 163.549 126.693 163.892 124.126C164.238 121.559 162.288 119.25 159.05 118.813C155.811 118.375 152.905 120.1 152.559 122.67V122.668Z" fill="#E87F79"/>
<path opacity="0.5" d="M152.736 122.702C152.398 125.201 154.683 127.572 157.833 127.998C160.987 128.425 163.456 126.631 163.794 124.132C164.132 121.633 162.204 119.375 159.054 118.952C155.901 118.525 153.074 120.206 152.739 122.705L152.736 122.702Z" fill="#E87E79"/>
<path opacity="0.51" d="M152.912 122.733C152.585 125.164 154.805 127.467 157.87 127.882C160.935 128.297 163.368 126.56 163.694 124.132C164.021 121.701 162.119 119.498 159.054 119.085C155.988 118.67 153.238 120.305 152.912 122.736V122.733Z" fill="#E87D79"/>
<path opacity="0.52" d="M153.088 122.767C152.77 125.127 154.927 127.367 157.904 127.771C160.882 128.175 163.277 126.497 163.595 124.138C163.913 121.778 162.034 119.626 159.057 119.225C156.079 118.821 153.408 120.41 153.091 122.77L153.088 122.767Z" fill="#E87C79"/>
<path opacity="0.53" d="M153.264 122.799C152.954 125.09 155.049 127.265 157.938 127.655C160.828 128.044 163.183 126.429 163.493 124.138C163.802 121.846 161.946 119.748 159.057 119.359C156.167 118.969 153.573 120.51 153.264 122.801V122.799Z" fill="#E97B7A"/>
<path opacity="0.54" d="M153.436 122.833C153.138 125.056 155.168 127.163 157.972 127.541C160.776 127.919 163.092 126.361 163.39 124.141C163.688 121.917 161.858 119.873 159.053 119.495C156.249 119.117 153.734 120.61 153.436 122.833Z" fill="#E97A7A"/>
<path opacity="0.56" d="M153.611 122.864C153.322 125.016 155.289 127.06 158.005 127.427C160.721 127.793 163 126.295 163.29 124.143C163.579 121.991 161.771 119.998 159.055 119.631C156.339 119.264 153.901 120.711 153.611 122.866V122.864Z" fill="#E9797A"/>
<path opacity="0.57" d="M153.789 122.898C153.508 124.982 155.413 126.96 158.041 127.313C160.669 127.668 162.909 126.23 163.19 124.146C163.471 122.062 161.685 120.123 159.057 119.767C156.429 119.412 154.07 120.814 153.789 122.898Z" fill="#E9787A"/>
<path opacity="0.58" d="M153.965 122.929C153.693 124.945 155.535 126.855 158.078 127.199C160.621 127.543 162.821 126.161 163.093 124.149C163.366 122.133 161.603 120.248 159.06 119.904C156.517 119.56 154.238 120.916 153.965 122.932V122.929Z" fill="#EA777B"/>
<path opacity="0.59" d="M154.141 122.96C153.88 124.905 155.657 126.753 158.112 127.082C160.567 127.415 162.73 126.093 162.991 124.146C163.252 122.201 161.515 120.367 159.06 120.035C156.605 119.702 154.402 121.013 154.141 122.957V122.96Z" fill="#EA767B"/>
<path opacity="0.6" d="M154.314 122.994C154.061 124.871 155.776 126.65 158.143 126.972C160.51 127.293 162.636 126.031 162.888 124.151C163.141 122.275 161.427 120.495 159.06 120.174C156.692 119.853 154.567 121.115 154.314 122.994Z" fill="#EA757B"/>
<g style="mix-blend-mode:overlay" opacity="0.31">
<path d="M154.549 119.242C147.999 118.339 143.622 110.814 144.772 102.432C145.923 94.0513 152.166 87.9884 158.716 88.8907C165.266 89.793 169.643 97.3187 168.493 105.7C167.342 114.081 161.099 120.144 154.549 119.242Z" fill="black"/>
</g>
<path d="M153.824 117.61C147.945 116.797 144.013 110.092 145.041 102.634C146.069 95.1759 151.668 89.7888 157.547 90.6018C163.426 91.4147 167.358 98.1198 166.33 105.578C165.302 113.036 159.703 118.423 153.824 117.61Z" fill="#C5D5D5"/>
<path d="M153.808 117.582C147.94 116.77 144.015 110.078 145.041 102.634C146.067 95.1895 151.655 89.8126 157.523 90.624C163.391 91.4355 167.317 98.128 166.291 105.572C165.265 113.016 159.676 118.393 153.808 117.582Z" fill="#C6D6D6"/>
<path d="M153.793 117.549C147.935 116.739 144.017 110.06 145.041 102.631C146.065 95.2028 151.643 89.8373 157.5 90.6472C163.357 91.4572 167.276 98.1359 166.252 105.564C165.228 112.993 159.65 118.359 153.793 117.549Z" fill="#C7D6D6"/>
<path d="M153.777 117.523C147.931 116.715 144.02 110.049 145.042 102.634C146.064 95.2194 151.631 89.864 157.478 90.6724C163.324 91.4809 167.235 98.147 166.213 105.562C165.191 112.976 159.624 118.332 153.777 117.523Z" fill="#C8D7D7"/>
<path d="M153.758 117.492C147.924 116.685 144.022 110.032 145.041 102.631C146.061 95.2308 151.618 89.8854 157.451 90.6921C163.285 91.4989 167.188 98.1522 166.168 105.553C165.148 112.953 159.592 118.299 153.758 117.492Z" fill="#C9D8D8"/>
<path d="M153.745 117.465C147.922 116.66 144.027 110.019 145.045 102.633C146.063 95.2459 151.609 89.9106 157.432 90.7159C163.255 91.5211 167.15 98.1619 166.132 105.549C165.114 112.935 159.569 118.27 153.745 117.465Z" fill="#CAD8D8"/>
<path d="M153.729 117.437C147.917 116.633 144.029 110.005 145.045 102.632C146.061 95.2596 151.597 89.9344 157.409 90.7381C163.221 91.5418 167.109 98.1701 166.093 105.543C165.077 112.915 159.541 118.241 153.729 117.437Z" fill="#CBD9D9"/>
<path d="M153.715 117.408C147.914 116.606 144.033 109.99 145.047 102.632C146.061 95.2732 151.586 89.9582 157.387 90.7604C163.189 91.5626 167.069 98.1782 166.055 105.537C165.041 112.896 159.516 118.211 153.715 117.408Z" fill="#CCDADA"/>
<path d="M153.695 117.38C147.907 116.58 144.034 109.977 145.047 102.632C146.059 95.2876 151.572 89.9825 157.361 90.783C163.15 91.5835 167.022 98.1864 166.01 105.531C164.998 112.876 159.484 118.181 153.695 117.38Z" fill="#CDDBDB"/>
<path d="M153.68 117.349C147.902 116.55 144.037 109.961 145.047 102.632C146.057 95.3029 151.56 90.0092 157.338 90.8082C163.116 91.6072 166.981 98.1963 165.971 105.525C164.961 112.854 159.458 118.148 153.68 117.349Z" fill="#CEDBDB"/>
<path d="M153.665 117.322C147.898 116.524 144.04 109.948 145.048 102.633C146.056 95.3175 151.548 90.0339 157.316 90.8314C163.083 91.6289 166.941 98.2054 165.932 105.521C164.924 112.836 159.432 118.119 153.665 117.322Z" fill="#CFDCDC"/>
<path d="M153.648 117.293C147.892 116.497 144.041 109.933 145.048 102.632C146.054 95.3311 151.536 90.0577 157.292 90.8537C163.048 91.6497 166.899 98.2136 165.893 105.515C164.887 112.816 159.405 118.089 153.648 117.293Z" fill="#CFDDDD"/>
<path d="M153.632 117.265C147.887 116.471 144.043 109.919 145.048 102.632C146.052 95.3452 151.524 90.0819 157.269 90.8764C163.014 91.6709 166.858 98.2223 165.853 105.509C164.849 112.796 159.377 118.06 153.632 117.265Z" fill="#D0DDDD"/>
<path d="M153.615 117.237C147.882 116.444 144.047 109.906 145.049 102.633C146.052 95.3596 151.512 90.1063 157.245 90.8991C162.978 91.6918 166.812 98.2305 165.81 105.504C164.808 112.777 159.348 118.03 153.615 117.237Z" fill="#D1DEDE"/>
<path d="M153.6 117.21C147.878 116.419 144.051 109.892 145.051 102.633C146.051 95.3742 151.501 90.131 157.223 90.9223C162.945 91.7135 166.773 98.2396 165.773 105.499C164.772 112.758 159.322 118.001 153.6 117.21Z" fill="#D2DFDF"/>
<path d="M153.586 117.181C147.875 116.392 144.054 109.878 145.053 102.633C146.051 95.3879 151.491 90.1548 157.202 90.9445C162.913 91.7343 166.734 98.2478 165.735 105.493C164.736 112.738 159.297 117.971 153.586 117.181Z" fill="#D3DFDF"/>
<path d="M153.57 117.154C147.869 116.366 144.056 109.865 145.053 102.634C146.049 95.4025 151.478 90.1795 157.179 90.9678C162.879 91.756 166.692 98.257 165.696 105.488C164.699 112.719 159.27 117.942 153.57 117.154Z" fill="#D4E0E0"/>
<path d="M153.553 117.12C147.864 116.333 144.058 109.846 145.052 102.63C146.046 95.4148 151.465 90.2033 157.154 90.99C162.844 91.7768 166.65 98.2639 165.655 105.479C164.661 112.695 159.243 117.907 153.553 117.12Z" fill="#D5E1E1"/>
<path d="M153.536 117.092C147.859 116.307 144.061 109.832 145.054 102.631C146.046 95.4292 151.453 90.2276 157.13 91.0127C162.807 91.7977 166.605 98.2721 165.612 105.474C164.62 112.675 159.213 117.877 153.536 117.092Z" fill="#D6E1E1"/>
<path d="M153.519 117.063C147.853 116.28 144.063 109.818 145.053 102.63C146.044 95.4429 151.44 90.2514 157.107 91.0349C162.773 91.8184 166.563 98.2803 165.573 105.468C164.582 112.655 159.186 117.847 153.519 117.063Z" fill="#D7E2E2"/>
<path d="M153.503 117.036C147.848 116.254 144.065 109.805 145.053 102.631C146.042 95.458 151.428 90.2766 157.083 91.0586C162.739 91.8407 166.522 98.2899 165.533 105.463C164.544 112.637 159.158 117.818 153.503 117.036Z" fill="#D8E3E3"/>
<path d="M153.489 117.008C147.844 116.227 144.068 109.791 145.055 102.631C146.042 95.4716 151.418 90.3004 157.062 91.0809C162.706 91.8614 166.482 98.2981 165.496 105.458C164.509 112.617 159.133 117.788 153.489 117.008Z" fill="#D9E3E3"/>
<path d="M153.472 116.979C147.839 116.2 144.07 109.776 145.055 102.631C146.04 95.4852 151.405 90.3241 157.039 91.1031C162.672 91.8822 166.441 98.3063 165.456 105.452C164.471 112.597 159.106 117.758 153.472 116.979Z" fill="#DAE4E4"/>
<path d="M153.457 116.952C147.836 116.175 144.076 109.764 145.059 102.632C146.042 95.5006 151.395 90.3494 157.016 91.1268C162.637 91.9041 166.398 98.3154 165.415 105.447C164.432 112.579 159.078 117.73 153.457 116.952Z" fill="#DBE5E5"/>
<path d="M153.44 116.924C147.829 116.148 144.077 109.749 145.058 102.632C146.039 95.5142 151.382 90.3732 156.992 91.149C162.602 91.9248 166.355 98.3236 165.374 105.441C164.393 112.559 159.05 117.7 153.44 116.924Z" fill="#DCE6E6"/>
<path d="M153.424 116.893C147.825 116.119 144.079 109.734 145.058 102.632C146.037 95.5295 151.369 90.3999 156.969 91.1742C162.568 91.9485 166.314 98.3335 165.335 105.435C164.356 112.537 159.024 117.667 153.424 116.893Z" fill="#DDE6E6"/>
<path d="M153.41 116.865C147.821 116.093 144.083 109.72 145.06 102.632C146.037 95.5441 151.359 90.4246 156.947 91.1974C162.536 91.9702 166.275 98.3426 165.298 105.431C164.321 112.519 158.998 117.638 153.41 116.865Z" fill="#DEE7E7"/>
<path d="M153.394 116.837C147.816 116.066 144.085 109.706 145.06 102.632C146.035 95.5582 151.346 90.4489 156.924 91.2202C162.502 91.9914 166.233 98.3513 165.258 105.425C164.283 112.499 158.971 117.609 153.394 116.837Z" fill="#DFE8E8"/>
<path d="M153.374 116.809C147.809 116.04 144.086 109.693 145.059 102.633C146.032 95.5726 151.333 90.4732 156.898 91.2428C162.463 92.0124 166.186 98.3595 165.213 105.419C164.24 112.479 158.94 117.579 153.374 116.809Z" fill="#E0E8E8"/>
<path d="M153.36 116.781C147.806 116.013 144.09 109.678 145.061 102.632C146.032 95.5863 151.322 90.497 156.876 91.2651C162.431 92.0331 166.146 98.3677 165.175 105.414C164.204 112.46 158.914 117.549 153.36 116.781Z" fill="#E1E9E9"/>
<path d="M153.344 116.75C147.8 115.984 144.092 109.662 145.061 102.63C146.03 95.5979 151.31 90.5188 156.853 91.2854C162.397 92.0519 166.105 98.3739 165.136 105.406C164.167 112.438 158.887 117.517 153.344 116.75Z" fill="#E2EAEA"/>
<path d="M153.326 116.722C147.794 115.957 144.093 109.648 145.06 102.63C146.027 95.6116 151.296 90.5425 156.829 91.3076C162.362 92.0727 166.063 98.3821 165.095 105.4C164.128 112.418 158.859 117.487 153.326 116.722Z" fill="#E2EAEA"/>
<path d="M153.314 116.695C147.792 115.931 144.098 109.634 145.064 102.63C146.029 95.6262 151.288 90.5673 156.81 91.3308C162.331 92.0944 166.025 98.3912 165.06 105.395C164.095 112.399 158.836 117.458 153.314 116.695Z" fill="#E3EBEB"/>
<path d="M153.295 116.664C147.786 115.902 144.101 109.619 145.064 102.631C146.027 95.6422 151.274 90.5946 156.783 91.3564C162.293 92.1182 165.978 98.4011 165.015 105.39C164.052 112.378 158.805 117.426 153.295 116.664Z" fill="#E4ECEC"/>
<path d="M153.281 116.635C147.783 115.875 144.104 109.605 145.066 102.63C146.027 95.6559 151.263 90.6183 156.762 91.3787C162.26 92.139 165.939 98.4093 164.977 105.384C164.016 112.358 158.78 117.396 153.281 116.635Z" fill="#E5ECEC"/>
<path d="M153.265 116.607C147.777 115.849 144.106 109.591 145.065 102.63C146.025 95.67 151.251 90.6426 156.739 91.4014C162.226 92.1602 165.897 98.418 164.938 105.378C163.979 112.339 158.752 117.366 153.265 116.607Z" fill="#E6EDED"/>
<path d="M153.248 116.58C147.772 115.823 144.108 109.577 145.065 102.631C146.023 95.6846 151.239 90.6673 156.715 91.4246C162.192 92.182 165.856 98.4271 164.898 105.374C163.941 112.32 158.725 117.337 153.248 116.58Z" fill="#E7EEEE"/>
<path d="M153.233 116.552C147.769 115.796 144.113 109.564 145.069 102.631C146.024 95.699 151.229 90.6917 156.693 91.4473C162.157 92.2029 165.812 98.4353 164.857 105.368C163.902 112.3 158.697 117.308 153.233 116.552Z" fill="#E8EEEE"/>
<path d="M153.214 116.523C147.76 115.769 144.112 109.55 145.066 102.631C146.019 95.7126 151.213 90.7154 156.667 91.4695C162.12 92.2236 165.768 98.4435 164.815 105.362C163.861 112.28 158.667 117.278 153.214 116.523Z" fill="#E9EFEF"/>
<path d="M153.197 116.495C147.755 115.742 144.114 109.535 145.066 102.631C146.017 95.7262 151.201 90.7392 156.643 91.4918C162.086 92.2444 165.727 98.4517 164.775 105.356C163.824 112.261 158.64 117.248 153.197 116.495Z" fill="#EAF0F0"/>
<path d="M153.183 116.468C147.751 115.716 144.118 109.522 145.068 102.631C146.017 95.7408 151.19 90.7639 156.622 91.515C162.054 92.2661 165.687 98.4608 164.738 105.351C163.788 112.242 158.615 117.219 153.183 116.468Z" fill="#EBF1F1"/>
<path d="M153.17 116.436C147.749 115.687 144.122 109.506 145.07 102.631C146.017 95.7561 151.18 90.7906 156.601 91.5402C162.022 92.2898 165.648 98.4707 164.7 105.346C163.753 112.22 158.59 117.186 153.17 116.436Z" fill="#ECF1F1"/>
<path d="M153.154 116.409C147.746 115.661 144.128 109.493 145.073 102.632C146.019 95.771 151.17 90.8154 156.578 91.5633C161.987 92.3112 165.605 98.4793 164.659 105.34C163.713 112.201 158.563 117.157 153.154 116.409Z" fill="#EDF2F2"/>
<path d="M153.136 116.381C147.738 115.635 144.128 109.479 145.071 102.633C146.015 95.7856 151.155 90.8402 156.553 91.5865C161.951 92.3329 165.561 98.4885 164.618 105.335C163.674 112.182 158.533 117.128 153.136 116.381Z" fill="#EEF3F3"/>
<path d="M153.12 116.353C147.733 115.608 144.129 109.465 145.071 102.632C146.013 95.7992 151.143 90.8639 156.53 91.6088C161.916 92.3537 165.52 98.4967 164.578 105.33C163.636 112.163 158.506 117.098 153.12 116.353Z" fill="#EFF3F3"/>
<path d="M153.104 116.322C147.728 115.578 144.132 109.448 145.072 102.629C146.012 95.8099 151.132 90.8847 156.507 91.6281C161.883 92.3715 165.479 98.5019 164.54 105.321C163.6 112.14 158.48 117.065 153.104 116.322Z" fill="#F0F4F4"/>
<path d="M153.088 116.294C147.723 115.552 144.134 109.434 145.072 102.629C146.01 95.8245 151.119 90.9095 156.484 91.6514C161.849 92.3932 165.438 98.5111 164.5 105.316C163.562 112.121 158.453 117.036 153.088 116.294Z" fill="#F1F5F5"/>
<path d="M153.072 116.266C147.72 115.526 144.14 109.421 145.075 102.63C146.011 95.839 151.109 90.9338 156.462 91.674C161.814 92.4141 165.395 98.5193 164.459 105.31C163.523 112.101 158.425 117.006 153.072 116.266Z" fill="#F2F5F5"/>
<path d="M153.054 116.238C147.713 115.499 144.139 109.406 145.073 102.629C146.007 95.8526 151.095 90.9576 156.436 91.6962C161.778 92.4349 165.351 98.5275 164.417 105.304C163.483 112.081 158.396 116.976 153.054 116.238Z" fill="#F3F6F6"/>
<path d="M153.039 116.206C147.708 115.469 144.142 109.391 145.074 102.629C146.006 95.8679 151.082 90.9843 156.413 91.7214C161.744 92.4586 165.31 98.5373 164.378 105.299C163.446 112.06 158.369 116.944 153.039 116.206Z" fill="#F4F7F7"/>
<path d="M153.026 116.18C147.706 115.444 144.148 109.378 145.077 102.63C146.007 95.883 151.074 91.0095 156.394 91.7451C161.714 92.4808 165.273 98.547 164.343 105.294C163.413 112.042 158.346 116.915 153.026 116.18Z" fill="#F5F7F7"/>
<path d="M153.01 116.151C147.701 115.417 144.149 109.363 145.077 102.63C146.005 95.8966 151.061 91.0333 156.371 91.7674C161.68 92.5015 165.231 98.5552 164.303 105.289C163.375 112.022 158.319 116.885 153.01 116.151Z" fill="#F5F8F8"/>
<path d="M152.994 116.123C147.697 115.391 144.154 109.35 145.08 102.63C146.006 95.911 151.05 91.0576 156.347 91.79C161.644 92.5225 165.187 98.5633 164.261 105.283C163.335 112.002 158.29 116.855 152.994 116.123Z" fill="#F6F9F9"/>
<path d="M152.975 116.096C147.69 115.365 144.154 109.336 145.078 102.631C146.002 95.9256 151.036 91.0823 156.322 91.8133C161.608 92.5442 165.143 98.5725 164.219 105.278C163.295 111.983 158.261 116.826 152.975 116.096Z" fill="#F7F9F9"/>
<path d="M152.959 116.067C147.684 115.338 144.156 109.322 145.078 102.631C146 95.9392 151.024 91.1061 156.299 91.8355C161.573 92.5649 165.102 98.5807 164.18 105.272C163.258 111.963 158.234 116.797 152.959 116.067Z" fill="#F8FAFA"/>
<path d="M152.943 116.039C147.679 115.311 144.157 109.308 145.078 102.63C145.998 95.9528 151.011 91.1299 156.275 91.8578C161.539 92.5857 165.061 98.5889 164.14 105.266C163.22 111.944 158.207 116.767 152.943 116.039Z" fill="#F9FBFB"/>
<path d="M152.928 116.011C147.675 115.285 144.161 109.294 145.079 102.631C145.998 95.9675 151.001 91.1546 156.254 91.881C161.507 92.6074 165.021 98.598 164.103 105.261C163.184 111.925 158.182 116.738 152.928 116.011Z" fill="#FAFCFC"/>
<path d="M152.912 115.979C147.671 115.255 144.165 109.278 145.081 102.63C145.998 95.9825 150.989 91.1809 156.23 91.9056C161.47 92.6303 164.976 98.6069 164.06 105.255C163.144 111.903 158.152 116.704 152.912 115.979Z" fill="#FBFCFC"/>
<path d="M152.893 115.952C147.664 115.229 144.165 109.265 145.079 102.631C145.994 95.9976 150.974 91.2061 156.204 91.9293C161.434 92.6525 164.933 98.6165 164.018 105.25C163.104 111.884 158.123 116.676 152.893 115.952Z" fill="#FCFDFD"/>
<path d="M152.88 115.925C147.661 115.203 144.17 109.252 145.082 102.632C145.995 96.0122 150.965 91.2309 156.184 91.9525C161.403 92.6742 164.894 98.6257 163.982 105.246C163.07 111.865 158.099 116.647 152.88 115.925Z" fill="#FDFEFE"/>
<path d="M152.864 115.897C147.656 115.176 144.172 109.238 145.082 102.632C145.993 96.0259 150.953 91.2546 156.161 91.9748C161.369 92.695 164.853 98.6339 163.942 105.24C163.032 111.846 158.072 116.617 152.864 115.897Z" fill="#FEFEFE"/>
<path d="M152.848 115.869C147.653 115.15 144.177 109.224 145.086 102.632C145.994 96.0403 150.943 91.279 156.138 91.9974C161.334 92.7159 164.809 98.6421 163.901 105.234C162.992 111.826 158.044 116.587 152.848 115.869Z" fill="white"/>
<path d="M150.329 114.56C147.067 114.127 144.914 110.062 145.52 105.481C146.127 100.9 149.262 97.5378 152.524 97.9708C155.786 98.4038 157.938 102.468 157.332 107.049C156.726 111.63 153.591 114.993 150.329 114.56Z" fill="#472317"/>
<path d="M152.809 105.846C151.881 105.723 151.27 104.546 151.445 103.217C151.62 101.887 152.514 100.909 153.442 101.032C154.37 101.154 154.98 102.331 154.805 103.661C154.63 104.99 153.736 105.968 152.809 105.846Z" fill="white"/>
<path d="M147.017 109.532C147.125 108.656 147.709 108.003 148.32 108.074C148.933 108.145 149.339 108.909 149.231 109.788C149.123 110.664 148.538 111.318 147.928 111.246C147.315 111.175 146.909 110.408 147.017 109.532Z" fill="white"/>
<g style="mix-blend-mode:overlay" opacity="0.3">
<path d="M141.423 106.886C142.291 107.156 143.049 106.34 142.456 105.766C142.263 105.581 142.05 105.407 141.832 105.251C139.013 103.247 134.699 102.698 131.276 103.909C130.427 104.21 128.563 105.575 130.496 105.584C131.974 105.589 133.402 105.442 134.895 105.558C136.359 105.672 137.81 105.905 139.215 106.255C139.411 106.303 140.452 106.587 141.423 106.889V106.886Z" fill="white"/>
</g>
<g style="mix-blend-mode:overlay" opacity="0.2">
<path d="M136.674 59.2339C138.882 57.3291 140.662 54.9495 141.859 52.3083C139.839 52.9935 137.818 53.6787 135.8 54.3638C137.846 52.749 139.745 50.9522 141.468 49.0076C139.453 50.1874 137.295 51.1398 135.053 51.8392C137.043 50.2329 138.908 48.4788 140.628 46.5967C137.264 48.4589 133.767 50.3608 129.896 50.6878C131.696 51.0318 133.265 51.0204 134.948 50.3438C133.529 51.39 132.11 52.4334 130.691 53.4796C132.68 53.5024 134.67 53.1328 136.501 52.3993C134.574 54.1478 132.649 55.8962 130.722 57.6447C133.821 57.3263 136.827 56.2601 139.404 54.5685C138.72 56.3653 138.09 57.9318 136.674 59.2396V59.2339Z" fill="white"/>
</g>
<path opacity="0.01" d="M98.3003 122.747C89.0925 120.2 82.8324 113.767 84.3181 108.379C85.8038 102.991 94.4725 100.688 103.68 103.236C112.888 105.783 119.148 112.216 117.662 117.604C116.177 122.992 107.508 125.295 98.3003 122.747Z" fill="#DEA96F"/>
<path opacity="0.02" d="M98.3574 122.639C89.2645 120.123 83.0823 113.771 84.5492 108.451C86.0161 103.131 94.5766 100.858 103.67 103.374C112.762 105.889 118.945 112.241 117.478 117.561C116.011 122.881 107.45 125.155 98.3574 122.639Z" fill="#DEA86F"/>
<path opacity="0.03" d="M98.4141 122.531C89.4359 120.048 83.332 113.775 84.7805 108.522C86.229 103.269 94.6815 101.024 103.66 103.507C112.638 105.991 118.742 112.264 117.293 117.517C115.845 122.77 107.392 125.015 98.4141 122.531Z" fill="#DFA770"/>
<path opacity="0.04" d="M98.4664 122.425C89.6031 119.973 83.577 113.781 85.0067 108.596C86.4365 103.411 94.7807 101.195 103.644 103.647C112.507 106.1 118.533 112.291 117.104 117.476C115.674 122.661 107.33 124.877 98.4664 122.425Z" fill="#DFA670"/>
<path opacity="0.06" d="M98.523 122.318C89.7746 119.898 83.8267 113.786 85.2381 108.668C86.6494 103.549 94.8856 101.362 103.634 103.782C112.383 106.202 118.33 112.314 116.919 117.433C115.508 122.551 107.271 124.739 98.523 122.318Z" fill="#DFA570"/>
<path opacity="0.07" d="M98.5806 122.211C89.947 119.823 84.0773 113.791 85.4704 108.739C86.8634 103.687 94.9916 101.528 103.625 103.916C112.259 106.305 118.129 112.337 116.736 117.389C115.342 122.441 107.214 124.6 98.5806 122.211Z" fill="#DFA470"/>
<path opacity="0.08" d="M98.6337 122.105C90.1164 119.749 84.3258 113.798 85.7001 108.814C87.0743 103.83 95.093 101.7 103.61 104.057C112.128 106.413 117.918 112.364 116.544 117.347C115.17 122.331 107.151 124.461 98.6337 122.105Z" fill="#E0A371"/>
<path opacity="0.09" d="M98.6904 122.001C90.2879 119.676 84.5755 113.806 85.9314 108.888C87.2873 103.971 95.198 101.869 103.6 104.194C112.003 106.518 117.715 112.389 116.359 117.306C115.004 122.224 107.093 124.326 98.6904 122.001Z" fill="#E0A271"/>
<path opacity="0.1" d="M98.7495 121.892C90.4619 119.599 84.8274 113.809 86.1645 108.96C87.5016 104.111 95.304 102.038 103.592 104.331C111.879 106.624 117.514 112.414 116.177 117.263C114.84 122.112 107.037 124.185 98.7495 121.892Z" fill="#E0A171"/>
<path opacity="0.11" d="M98.8061 121.788C90.6334 119.527 85.077 113.817 86.3958 109.034C87.7145 104.251 95.4089 102.207 103.582 104.468C111.755 106.73 117.311 112.44 115.992 117.222C114.673 122.005 106.979 124.049 98.8061 121.788Z" fill="#E0A071"/>
<path opacity="0.12" d="M98.8589 121.681C90.8009 119.452 85.3228 113.822 86.6232 109.106C87.9236 104.39 95.51 102.374 103.568 104.603C111.626 106.832 117.104 112.463 115.804 117.179C114.503 121.895 106.917 123.911 98.8589 121.681Z" fill="#E09F71"/>
<path opacity="0.13" d="M98.917 121.576C90.9739 119.378 85.5737 113.829 86.8553 109.181C88.1369 104.533 95.615 102.547 103.558 104.744C111.501 106.942 116.901 112.491 115.62 117.139C114.338 121.787 106.86 123.773 98.917 121.576Z" fill="#E19E72"/>
<path opacity="0.14" d="M98.9747 121.468C91.1464 119.303 85.8243 113.833 87.0876 109.252C88.3508 104.67 95.721 102.712 103.549 104.878C111.378 107.044 116.7 112.513 115.436 117.095C114.173 121.676 106.803 123.634 98.9747 121.468Z" fill="#E19D72"/>
<path opacity="0.16" d="M99.0289 121.36C91.3155 119.226 86.0713 113.837 87.3158 109.324C88.5602 104.811 95.822 102.882 103.536 105.016C111.249 107.15 116.493 112.539 115.249 117.052C114.004 121.565 106.742 123.494 99.0289 121.36Z" fill="#E19C72"/>
<path opacity="0.17" d="M99.0817 121.255C91.483 119.153 86.3171 113.844 87.5432 109.397C88.7693 104.951 95.9231 103.05 103.522 105.153C111.12 107.255 116.286 112.564 115.06 117.01C113.834 121.457 106.68 123.357 99.0817 121.255Z" fill="#E19B72"/>
<path opacity="0.18" d="M99.1383 121.148C91.6545 119.078 86.5668 113.849 87.7745 109.469C88.9822 105.089 96.0281 103.216 103.512 105.287C110.996 107.357 116.083 112.586 114.876 116.966C113.668 121.346 106.622 123.219 99.1383 121.148Z" fill="#E29A73"/>
<path opacity="0.19" d="M99.1974 121.039C91.8285 119.001 86.8186 113.852 88.0075 109.54C89.1965 105.228 96.1341 103.386 103.503 105.424C110.872 107.463 115.882 112.611 114.693 116.923C113.504 121.235 106.566 123.078 99.1974 121.039Z" fill="#E29973"/>
<path opacity="0.2" d="M99.2502 120.935C91.996 118.928 87.0644 113.86 88.235 109.614C89.4055 105.369 96.2351 103.555 103.489 105.561C110.743 107.568 115.675 112.637 114.504 116.882C113.334 121.128 106.504 122.942 99.2502 120.935Z" fill="#E29873"/>
<path opacity="0.21" d="M99.3083 120.829C92.169 118.854 87.3152 113.866 88.467 109.689C89.6188 105.512 96.3401 103.727 103.479 105.702C110.619 107.677 115.473 112.665 114.321 116.842C113.169 121.019 106.448 122.804 99.3083 120.829Z" fill="#E29773"/>
<path opacity="0.22" d="M99.366 120.722C92.3415 118.779 87.5659 113.871 88.6993 109.76C89.8328 105.65 96.4461 103.893 103.471 105.836C110.495 107.78 115.271 112.687 114.137 116.798C113.004 120.909 106.39 122.666 99.366 120.722Z" fill="#E29673"/>
<path opacity="0.23" d="M99.4202 120.617C92.5106 118.705 87.8128 113.878 88.9275 109.836C90.0422 105.793 96.5472 104.066 103.457 105.977C110.366 107.889 115.064 112.716 113.949 116.758C112.835 120.801 106.33 122.528 99.4202 120.617Z" fill="#E39574"/>
<path opacity="0.24" d="M99.4769 120.509C92.6821 118.629 88.0625 113.882 89.1588 109.906C90.2551 105.93 96.6521 104.231 103.447 106.111C110.242 107.991 114.861 112.738 113.765 116.714C112.669 120.69 106.272 122.389 99.4769 120.509Z" fill="#E39474"/>
<path opacity="0.26" d="M99.5315 120.406C92.8516 118.558 88.3103 113.891 89.3882 109.981C90.4661 106.072 96.7552 104.401 103.435 106.249C110.115 108.097 114.656 112.764 113.578 116.674C112.501 120.583 106.212 122.254 99.5315 120.406Z" fill="#E39374"/>
<path opacity="0.27" d="M99.5907 120.296C93.0255 118.48 88.5621 113.893 89.6213 110.052C90.6804 106.211 96.8611 104.569 103.426 106.386C109.991 108.202 114.455 112.788 113.396 116.63C112.337 120.471 106.156 122.112 99.5907 120.296Z" fill="#E39274"/>
<path opacity="0.28" d="M99.6454 120.19C93.1951 118.405 88.8098 113.899 89.8506 110.124C90.8914 106.35 96.9642 104.736 103.414 106.521C109.865 108.305 114.25 112.812 113.209 116.587C112.168 120.361 106.096 121.975 99.6454 120.19Z" fill="#E49175"/>
<path opacity="0.29" d="M99.7016 120.084C93.3661 118.331 89.0587 113.905 90.0807 110.199C91.1028 106.492 97.0672 104.909 103.403 106.661C109.738 108.414 114.046 112.84 113.023 116.546C112.001 120.253 106.037 121.837 99.7016 120.084Z" fill="#E49075"/>
<path opacity="0.3" d="M99.7572 119.976C93.5366 118.255 89.3074 113.909 90.3111 110.269C91.3147 106.629 97.1712 105.074 103.392 106.795C109.612 108.515 113.842 112.861 112.838 116.501C111.834 120.141 105.978 121.697 99.7572 119.976Z" fill="#E49075"/>
<path opacity="0.31" d="M99.81 119.869C93.7042 118.18 89.5532 113.914 90.5385 110.341C91.5238 106.767 97.2723 105.24 103.378 106.929C109.484 108.618 113.635 112.885 112.65 116.458C111.664 120.031 105.916 121.559 99.81 119.869Z" fill="#E48F75"/>
<path opacity="0.32" d="M99.8681 119.764C93.8772 118.106 89.8041 113.921 90.7706 110.416C91.7371 106.911 97.3773 105.413 103.368 107.07C109.359 108.728 113.432 112.913 112.466 116.418C111.499 119.923 105.859 121.421 99.8681 119.764Z" fill="#E48E75"/>
<path opacity="0.33" d="M99.9248 119.659C94.0486 118.034 90.0537 113.928 91.0019 110.489C91.9501 107.051 97.4822 105.581 103.358 107.207C109.234 108.833 113.229 112.938 112.281 116.377C111.333 119.815 105.801 121.285 99.9248 119.659Z" fill="#E58D76"/>
<path opacity="0.34" d="M99.982 119.553C94.2207 117.959 90.3036 113.934 91.233 110.564C92.1624 107.193 97.5862 105.753 103.348 107.347C109.109 108.941 113.026 112.965 112.097 116.336C111.167 119.706 105.743 121.147 99.982 119.553Z" fill="#E58C76"/>
<path opacity="0.36" d="M100.037 119.446C94.3902 117.884 90.5514 113.939 91.4624 110.635C92.3734 107.331 97.6893 105.919 103.336 107.482C108.982 109.044 112.821 112.988 111.91 116.292C110.999 119.596 105.683 121.008 100.037 119.446Z" fill="#E58B76"/>
<path opacity="0.37" d="M100.093 119.34C94.5617 117.81 90.801 113.945 91.6937 110.707C92.5863 107.47 97.7943 106.086 103.326 107.617C108.858 109.147 112.618 113.012 111.726 116.249C110.833 119.487 105.625 120.871 100.093 119.34Z" fill="#E58A76"/>
<path opacity="0.38" d="M100.15 119.233C94.7327 117.735 91.0499 113.95 91.9238 110.781C92.7977 107.612 97.8973 106.258 103.314 107.756C108.731 109.255 112.414 113.039 111.54 116.208C110.666 119.377 105.566 120.732 100.15 119.233Z" fill="#E68977"/>
<path opacity="0.39" d="M100.203 119.127C94.9013 117.66 91.2967 113.956 92.1522 110.853C93.0077 107.751 97.9993 106.425 103.301 107.891C108.603 109.358 112.208 113.063 111.352 116.165C110.497 119.268 105.505 120.594 100.203 119.127Z" fill="#E68877"/>
<path opacity="0.4" d="M100.261 119.017C95.0743 117.582 91.5476 113.959 92.3843 110.924C93.221 107.89 98.1043 106.593 103.291 108.028C108.479 109.463 112.005 113.086 111.169 116.121C110.332 119.156 105.449 120.452 100.261 119.017Z" fill="#E68777"/>
<path opacity="0.41" d="M100.318 118.914C95.2457 117.511 91.7972 113.967 92.6156 110.999C93.434 108.031 98.2093 106.763 103.282 108.166C108.354 109.569 111.802 113.113 110.984 116.081C110.166 119.049 105.39 120.317 100.318 118.914Z" fill="#E68677"/>
<path opacity="0.42" d="M100.37 118.807C95.4123 117.435 92.042 113.971 92.8421 111.07C93.6421 108.168 98.3094 106.928 103.267 108.3C108.224 109.671 111.595 113.135 110.795 116.037C109.995 118.938 105.327 120.178 100.37 118.807Z" fill="#E68577"/>
<path opacity="0.43" d="M100.428 118.697C95.5853 117.357 92.2929 113.974 93.0741 111.141C93.8554 108.308 98.4144 107.097 103.257 108.437C108.1 109.777 111.392 113.16 110.611 115.993C109.83 118.826 105.271 120.037 100.428 118.697Z" fill="#E78478"/>
<path opacity="0.44" d="M93.3074 111.221C92.5439 113.987 95.7597 117.291 100.485 118.598C105.214 119.906 109.664 118.724 110.428 115.957C111.191 113.191 107.976 109.887 103.25 108.58C98.5213 107.272 94.0709 108.455 93.3074 111.221Z" fill="#E78378"/>
<path opacity="0.46" d="M100.541 118.484C95.9278 117.208 92.7915 113.986 93.5356 111.287C94.2797 108.588 98.6224 107.435 103.235 108.712C107.848 109.988 110.985 113.21 110.241 115.909C109.497 118.607 105.154 119.76 100.541 118.484Z" fill="#E78278"/>
<path opacity="0.47" d="M100.595 118.384C96.0964 117.139 93.0382 113.997 93.764 111.365C94.4897 108.733 98.7245 107.608 103.223 108.853C107.721 110.097 110.779 113.24 110.053 115.872C109.327 118.504 105.093 119.628 100.595 118.384Z" fill="#E78178"/>
<path opacity="0.48" d="M100.651 118.277C96.2679 117.065 93.2879 114.002 93.9953 111.437C94.7027 108.871 98.8294 107.775 103.213 108.987C107.596 110.2 110.576 113.263 109.869 115.828C109.161 118.393 105.034 119.49 100.651 118.277Z" fill="#E88079"/>
<path opacity="0.49" d="M100.709 118.168C96.4408 116.987 93.5388 114.005 94.2274 111.508C94.9159 109.011 98.9344 107.944 103.203 109.124C107.471 110.305 110.373 113.287 109.685 115.784C108.996 118.282 104.978 119.349 100.709 118.168Z" fill="#E87F79"/>
<path opacity="0.5" d="M100.763 118.064C96.6094 116.915 93.7855 114.013 94.4558 111.582C95.126 109.152 99.0365 108.113 103.19 109.262C107.344 110.411 110.168 113.313 109.497 115.744C108.827 118.175 104.917 119.213 100.763 118.064Z" fill="#E87E79"/>
<path opacity="0.51" d="M100.821 117.955C96.7824 116.837 94.0364 114.016 94.6878 111.654C95.3393 109.291 99.1415 108.282 103.18 109.399C107.219 110.517 109.965 113.338 109.314 115.7C108.662 118.063 104.86 119.072 100.821 117.955Z" fill="#E87D79"/>
<path opacity="0.52" d="M100.878 117.848C96.9539 116.763 94.2861 114.021 94.9191 111.725C95.5522 109.429 99.2464 108.448 103.17 109.534C107.094 110.619 109.762 113.361 109.129 115.657C108.496 117.953 104.802 118.934 100.878 117.848Z" fill="#E87C79"/>
<path opacity="0.53" d="M100.934 117.744C97.1254 116.69 94.5358 114.029 95.1505 111.799C95.7652 109.57 99.3514 108.617 103.161 109.671C106.97 110.725 109.559 113.386 108.945 115.616C108.33 117.845 104.744 118.798 100.934 117.744Z" fill="#E97B7A"/>
<path opacity="0.54" d="M100.986 117.634C97.2915 116.612 94.7798 114.032 95.3757 111.87C95.9717 109.709 99.4496 108.786 103.144 109.808C106.838 110.83 109.35 113.41 108.754 115.572C108.158 117.733 104.68 118.656 100.986 117.634Z" fill="#E97A7A"/>
<path opacity="0.56" d="M95.6123 111.948C95.0361 114.044 97.4685 116.543 101.048 117.532C104.627 118.522 107.996 117.626 108.575 115.533C109.151 113.438 106.718 110.939 103.139 109.95C99.5604 108.96 96.1913 109.856 95.6123 111.948Z" fill="#E9797A"/>
<path opacity="0.57" d="M101.101 117.421C97.636 116.463 95.2803 114.043 95.8391 112.016C96.3979 109.99 99.6595 109.124 103.124 110.082C106.589 111.041 108.944 113.461 108.386 115.487C107.827 117.514 104.565 118.38 101.101 117.421Z" fill="#E9787A"/>
<path opacity="0.58" d="M96.0723 112.094C95.533 114.053 97.8093 116.393 101.158 117.319C104.508 118.246 107.661 117.408 108.2 115.449C108.739 113.49 106.463 111.15 103.114 110.223C99.7649 109.296 96.6116 110.135 96.0723 112.094Z" fill="#EA777B"/>
<path opacity="0.59" d="M96.3045 112.168C95.7822 114.061 97.9819 116.318 101.218 117.214C104.453 118.11 107.496 117.299 108.018 115.406C108.54 113.512 106.341 111.255 103.105 110.359C99.8693 109.464 96.8267 110.274 96.3045 112.168Z" fill="#EA767B"/>
<path opacity="0.6" d="M101.269 117.105C98.149 116.242 96.0276 114.062 96.5309 112.237C97.0342 110.412 99.9716 109.632 103.092 110.495C106.212 111.358 108.333 113.538 107.83 115.363C107.327 117.188 104.389 117.968 101.269 117.105Z" fill="#EA757B"/>
<path d="M89.8917 108.363C86.0288 106.467 81.7658 105.56 77.4686 105.791C76.9804 105.816 76.9975 106.544 77.4857 106.55C81.5983 106.604 85.6741 107.505 89.4092 109.236C89.9882 109.503 90.4736 108.648 89.8946 108.363H89.8917Z" fill="#985119"/>
<path d="M96.4909 108.276C90.2155 103.582 82.5181 101.199 74.9059 99.7608C72.6637 99.3372 70.4044 99.033 68.1395 98.7572C67.7478 98.7089 67.5775 99.2917 67.9862 99.3713C75.5928 100.835 83.1937 102.501 90.2099 105.888C92.1683 106.831 94.0472 107.935 95.8523 109.148C96.3575 109.49 96.9876 108.651 96.4909 108.279V108.276Z" fill="#985119"/>
<g style="mix-blend-mode:overlay" opacity="0.31">
<path d="M105.654 111.876C98.1451 110.532 93.2623 102.692 94.7477 94.3635C96.2332 86.0353 103.524 80.3734 111.033 81.7172C118.542 83.061 123.425 90.9017 121.939 99.2298C120.454 107.558 113.162 113.22 105.654 111.876Z" fill="black"/>
</g>
<path d="M107.004 110.546C100.264 109.34 95.8718 102.354 97.1938 94.9421C98.5158 87.5305 105.052 82.5002 111.792 83.7065C118.532 84.9127 122.924 91.8989 121.602 99.3104C120.28 106.722 113.745 111.752 107.004 110.546Z" fill="#C5D5D5"/>
<path d="M107.031 110.524C100.304 109.32 95.9213 102.347 97.2408 94.9494C98.5603 87.5517 105.083 82.5306 111.809 83.7344C118.535 84.9382 122.919 91.911 121.599 99.3087C120.28 106.706 113.757 111.727 107.031 110.524Z" fill="#C6D6D6"/>
<path d="M107.056 110.503C100.342 109.302 95.9671 102.342 97.2841 94.958C98.6011 87.5743 105.112 82.5627 111.826 83.7643C118.54 84.9659 122.915 91.9256 121.598 99.3094C120.281 106.693 113.77 111.705 107.056 110.503Z" fill="#C7D6D6"/>
<path d="M107.084 110.482C100.382 109.283 96.0149 102.336 97.3294 94.9662C98.644 87.5964 105.142 82.5943 111.844 83.7937C118.546 84.993 122.913 91.9398 121.598 99.3096C120.284 106.679 113.785 111.682 107.084 110.482Z" fill="#C8D7D7"/>
<path d="M107.113 110.458C100.425 109.261 96.067 102.329 97.3788 94.9746C98.6906 87.6202 105.176 82.6286 111.863 83.8255C118.551 85.0224 122.909 91.9546 121.597 99.3089C120.286 106.663 113.801 111.655 107.113 110.458Z" fill="#C9D8D8"/>
<path d="M107.138 110.436C100.463 109.241 96.1129 102.322 97.4222 94.9818C98.7315 87.6414 105.204 82.6592 111.88 83.8539C118.555 85.0486 122.905 91.9677 121.596 99.3081C120.287 106.649 113.814 111.631 107.138 110.436Z" fill="#CAD8D8"/>
<path d="M107.166 110.415C100.503 109.223 96.1606 102.317 97.4675 94.99C98.7743 87.6635 105.235 82.6908 111.898 83.8833C118.561 85.0758 122.904 91.9818 121.597 99.3083C120.29 106.635 113.829 111.608 107.166 110.415Z" fill="#CBD9D9"/>
<path d="M107.194 110.394C100.545 109.204 96.212 102.311 97.5164 94.9987C98.8207 87.6861 105.268 82.7227 111.918 83.9127C118.567 85.1027 122.9 91.9954 121.595 99.3081C120.291 106.621 113.843 111.584 107.194 110.394Z" fill="#CCDADA"/>
<path d="M107.22 110.37C100.583 109.182 96.2579 102.303 97.5597 95.004C98.8616 87.7053 105.297 82.7514 111.934 83.9392C118.571 85.127 122.896 92.0066 121.594 99.3053C120.292 106.604 113.856 111.558 107.22 110.37Z" fill="#CDDBDB"/>
<path d="M107.247 110.349C100.623 109.164 96.3056 102.297 97.605 95.0122C98.9044 87.7274 105.328 82.783 111.953 83.9686C118.577 85.1541 122.894 92.0207 121.595 99.3055C120.295 106.59 113.872 111.535 107.247 110.349Z" fill="#CEDBDB"/>
<path d="M107.275 110.328C100.665 109.145 96.357 102.291 97.6539 95.0204C98.9508 87.7496 105.361 82.8144 111.972 83.9975C118.582 85.1806 122.89 92.0339 121.593 99.3048C120.296 106.576 113.886 111.511 107.275 110.328Z" fill="#CFDCDC"/>
<path d="M107.304 110.3C100.705 109.119 96.4056 102.28 97.6997 95.0249C98.9939 87.7694 105.392 82.845 111.99 84.0259C118.589 85.2068 122.888 92.0458 121.594 99.3012C120.3 106.557 113.902 111.481 107.304 110.3Z" fill="#CFDDDD"/>
<path d="M107.329 110.282C100.743 109.103 96.4514 102.278 97.7431 95.036C99.0347 87.7945 105.421 82.8796 112.007 84.0582C118.593 85.2369 122.885 92.0628 121.593 99.3043C120.301 106.546 113.915 111.461 107.329 110.282Z" fill="#D0DDDD"/>
<path d="M107.359 110.261C100.785 109.085 96.5011 102.272 97.7903 95.0442C99.0795 87.8166 105.454 82.9112 112.027 84.0876C118.601 85.2641 122.885 92.0769 121.595 99.3045C120.306 106.532 113.932 111.438 107.359 110.261Z" fill="#D1DEDE"/>
<path d="M107.385 110.24C100.825 109.066 96.5506 102.267 97.8373 95.0529C99.124 87.8392 105.485 82.943 112.044 84.117C118.604 85.291 122.879 92.0905 121.592 99.3042C120.305 106.518 113.945 111.414 107.385 110.24Z" fill="#D2DFDF"/>
<path d="M107.41 110.215C100.863 109.043 96.5964 102.257 97.8806 95.0572C99.1648 87.8574 105.514 82.9707 112.061 84.1425C118.608 85.3143 122.875 92.1007 121.591 99.3005C120.307 106.5 113.958 111.387 107.41 110.215Z" fill="#D3DFDF"/>
<path d="M107.44 110.194C100.905 109.025 96.6461 102.251 97.9279 95.0654C99.2096 87.8795 105.546 83.0023 112.081 84.1719C118.616 85.3414 122.875 92.1149 121.593 99.3007C120.312 106.487 113.975 111.364 107.44 110.194Z" fill="#D4E0E0"/>
<path d="M107.466 110.173C100.945 109.006 96.6956 102.246 97.9748 95.0736C99.2541 87.9017 105.578 83.0337 112.099 84.2008C118.62 85.3679 122.869 92.128 121.59 99.3C120.311 106.472 113.987 111.34 107.466 110.173Z" fill="#D5E1E1"/>
<path d="M107.49 110.151C100.981 108.986 96.7395 102.239 98.0162 95.0809C99.293 87.9228 105.604 83.0644 112.113 84.2292C118.622 85.3941 122.863 92.1411 121.587 99.2992C120.31 106.457 113.998 111.316 107.49 110.151Z" fill="#D6E1E1"/>
<path d="M107.52 110.124C101.024 108.962 96.79 102.229 98.064 95.0863C99.338 87.9437 105.637 83.096 112.134 84.2586C118.63 85.4213 122.864 92.154 121.59 99.2966C120.316 106.439 114.016 111.287 107.52 110.124Z" fill="#D7E2E2"/>
<path d="M107.546 110.103C101.064 108.943 96.8394 102.224 98.1109 95.095C99.3825 87.9663 105.668 83.1279 112.151 84.288C118.634 85.4482 122.858 92.1676 121.586 99.2963C120.315 106.425 114.029 111.263 107.546 110.103Z" fill="#D8E3E3"/>
<path d="M107.572 110.082C101.102 108.924 96.8852 102.218 98.1543 95.1032C99.4233 87.9884 105.697 83.1595 112.167 84.3174C118.638 85.4754 122.854 92.1817 121.585 99.2965C120.316 106.411 114.042 111.24 107.572 110.082Z" fill="#D9E3E3"/>
<path d="M107.601 110.06C101.143 108.905 96.935 102.211 98.2015 95.1104C99.4681 88.0096 105.73 83.1901 112.188 84.3458C118.646 85.5016 122.854 92.1949 121.588 99.2957C120.321 106.397 114.059 111.216 107.601 110.06Z" fill="#DAE4E4"/>
<path d="M107.628 110.04C101.184 108.887 96.9844 102.207 98.2485 95.1196C99.5126 88.0327 105.761 83.2225 112.205 84.3757C118.649 85.529 122.848 92.209 121.584 99.2959C120.32 106.383 114.071 111.193 107.628 110.04Z" fill="#DBE5E5"/>
<path d="M107.657 110.018C101.225 108.867 97.0341 102.2 98.2957 95.1269C99.5573 88.0538 105.794 83.2531 112.226 84.4041C118.657 85.5552 122.848 92.2221 121.587 99.2952C120.325 106.368 114.089 111.169 107.657 110.018Z" fill="#DCE6E6"/>
<path d="M107.682 109.994C101.263 108.845 97.0799 102.191 98.3391 95.1321C99.5982 88.073 105.823 83.2817 112.242 84.4306C118.661 85.5794 122.845 92.2333 121.585 99.2924C120.326 106.352 114.102 111.143 107.682 109.994Z" fill="#DDE6E6"/>
<path d="M107.709 109.973C101.303 108.827 97.1294 102.186 98.3861 95.1408C99.6427 88.0956 105.854 83.3136 112.259 84.46C118.665 85.6063 122.839 92.2469 121.582 99.2921C120.325 106.337 114.114 111.119 107.709 109.973Z" fill="#DEE7E7"/>
<path d="M107.735 109.949C101.342 108.805 97.176 102.179 98.4299 95.1492C99.6838 88.1194 105.883 83.3482 112.276 84.4923C118.669 85.6365 122.835 92.2627 121.581 99.2925C120.327 106.322 114.128 111.093 107.735 109.949Z" fill="#DFE8E8"/>
<path d="M107.765 109.927C101.384 108.785 97.2257 102.172 98.4771 95.1564C99.7285 88.1405 105.916 83.3788 112.296 84.5207C118.677 85.6627 122.835 92.2758 121.584 99.2917C120.332 106.308 114.145 111.069 107.765 109.927Z" fill="#E0E8E8"/>
<path d="M107.789 109.906C101.421 108.767 97.2706 102.167 98.5195 95.1646C99.7684 88.1627 105.943 83.4104 112.312 84.5501C118.68 85.6898 122.83 92.29 121.581 99.2919C120.332 106.294 114.157 111.046 107.789 109.906Z" fill="#E1E9E9"/>
<path d="M107.815 109.882C101.461 108.745 97.32 102.158 98.5665 95.1699C99.8129 88.1819 105.975 83.4389 112.329 84.5761C118.684 85.7133 122.825 92.3002 121.578 99.2882C120.332 106.276 114.17 111.019 107.815 109.882Z" fill="#E2EAEA"/>
<path d="M107.845 109.861C101.503 108.726 97.3697 102.152 98.6137 95.1781C99.8577 88.204 106.007 83.4705 112.35 84.6055C118.692 85.7405 122.825 92.3143 121.581 99.2884C120.337 106.263 114.187 110.996 107.845 109.861Z" fill="#E2EAEA"/>
<path d="M107.87 109.841C101.54 108.708 97.4156 102.147 98.6571 95.1868C99.8985 88.2266 106.036 83.5025 112.366 84.6354C118.696 85.7682 122.821 92.3289 121.579 99.2891C120.338 106.249 114.2 110.973 107.87 109.841Z" fill="#E3EBEB"/>
<path d="M107.9 109.819C101.585 108.689 97.4689 102.141 98.7079 95.195C99.9469 88.2487 106.071 83.5339 112.387 84.6643C118.703 85.7946 122.819 92.342 121.58 99.2883C120.341 106.235 114.216 110.949 107.9 109.819Z" fill="#E4ECEC"/>
<path d="M107.926 109.797C101.622 108.669 97.5147 102.135 98.7513 95.2022C99.9878 88.2699 106.1 83.5646 112.404 84.6927C118.707 85.8208 122.815 92.3552 121.578 99.2876C120.342 106.22 114.229 110.925 107.926 109.797Z" fill="#E5ECEC"/>
<path d="M107.95 109.772C101.659 108.647 97.5594 102.127 98.7931 95.2096C100.027 88.2927 106.127 83.5981 112.418 84.724C118.71 85.85 122.809 92.37 121.576 99.2869C120.342 106.204 114.242 110.898 107.95 109.772Z" fill="#E6EDED"/>
<path d="M107.981 109.749C101.703 108.626 97.6127 102.119 98.844 95.2159C100.075 88.3129 106.162 83.6276 112.44 84.751C118.717 85.8744 122.808 92.3812 121.576 99.2842C120.345 106.187 114.258 110.872 107.981 109.749Z" fill="#E7EEEE"/>
<path d="M108.006 109.727C101.741 108.606 97.6586 102.112 98.8874 95.2231C100.116 88.334 106.191 83.6582 112.456 84.7794C118.721 85.9006 122.804 92.3943 121.575 99.2834C120.346 106.173 114.271 110.848 108.006 109.727Z" fill="#E8EEEE"/>
<path d="M108.032 109.707C101.779 108.588 97.7044 102.107 98.9307 95.2318C100.157 88.3566 106.22 83.6903 112.473 84.8093C118.725 85.9283 122.8 92.4089 121.573 99.2841C120.347 106.159 114.284 110.826 108.032 109.707Z" fill="#E9EFEF"/>
<path d="M108.062 109.685C101.823 108.569 97.7577 102.101 98.9816 95.24C100.205 88.3787 106.255 83.7217 112.494 84.8382C118.733 85.9547 122.798 92.422 121.574 99.2833C120.35 106.145 114.301 110.802 108.062 109.685Z" fill="#EAF0F0"/>
<path d="M108.087 109.661C101.861 108.547 97.8036 102.093 99.0249 95.2453C100.246 88.3979 106.284 83.7504 112.51 84.8647C118.737 85.979 122.794 92.4332 121.573 99.2806C120.351 106.128 114.314 110.776 108.087 109.661Z" fill="#EBF1F1"/>
<path d="M108.115 109.639C101.901 108.527 97.8513 102.086 99.0702 95.2525C100.289 88.4191 106.315 83.781 112.529 84.8931C118.743 86.0052 122.792 92.4464 121.573 99.2798C120.354 106.113 114.329 110.751 108.115 109.639Z" fill="#ECF1F1"/>
<path d="M108.143 109.621C101.943 108.511 97.9027 102.083 99.1191 95.2637C100.336 88.4441 106.348 83.8153 112.548 84.9249C118.748 86.0346 122.788 92.4624 121.572 99.282C120.356 106.102 114.343 110.73 108.143 109.621Z" fill="#EDF2F2"/>
<path d="M108.17 109.594C101.982 108.487 97.9493 102.073 99.163 95.2691C100.377 88.465 106.377 83.8469 112.565 84.9543C118.752 86.0617 122.785 92.4753 121.571 99.2794C120.357 106.083 114.357 110.702 108.17 109.594Z" fill="#EEF3F3"/>
<path d="M108.197 109.574C102.021 108.468 97.9971 102.068 99.2083 95.2778C100.419 88.4876 106.407 83.879 112.583 84.9842C118.758 86.0894 122.783 92.4899 121.572 99.2801C120.361 106.07 114.372 110.679 108.197 109.574Z" fill="#EFF3F3"/>
<path d="M108.225 109.552C102.064 108.449 98.0485 102.062 99.2572 95.286C100.466 88.5097 106.441 83.9104 112.602 85.0131C118.764 86.1158 122.779 92.503 121.57 99.2793C120.362 106.056 114.387 110.655 108.225 109.552Z" fill="#F0F4F4"/>
<path d="M108.251 109.531C102.101 108.431 98.0943 102.057 99.3005 95.2942C100.507 88.5318 106.469 83.942 112.619 85.0425C118.768 86.143 122.775 92.5171 121.569 99.2795C120.363 106.042 114.4 110.632 108.251 109.531Z" fill="#F1F5F5"/>
<path d="M108.278 109.509C102.141 108.411 98.1421 102.05 99.3458 95.3014C100.55 88.553 106.5 83.9726 112.637 85.0709C118.774 86.1692 122.773 92.5303 121.57 99.2787C120.366 106.027 114.415 110.608 108.278 109.509Z" fill="#F2F5F5"/>
<path d="M108.304 109.485C102.179 108.389 98.1879 102.041 99.3892 95.3067C100.59 88.5722 106.529 84.0013 112.654 85.0974C118.778 86.1935 122.769 92.5414 121.568 99.276C120.367 106.011 114.428 110.581 108.304 109.485Z" fill="#F3F6F6"/>
<path d="M108.334 109.464C102.223 108.37 98.2413 102.036 99.44 95.3149C100.639 88.5943 106.564 84.0327 112.675 85.1263C118.786 86.2199 122.767 92.5546 121.569 99.2752C120.37 105.996 114.445 110.557 108.334 109.464Z" fill="#F4F7F7"/>
<path d="M108.36 109.441C102.262 108.349 98.2879 102.029 99.4839 95.3237C100.68 88.6186 106.593 84.0677 112.691 85.1591C118.79 86.2505 122.764 92.5709 121.568 99.276C120.372 105.981 114.459 110.532 108.36 109.441Z" fill="#F5F7F7"/>
<path d="M108.386 109.419C102.3 108.33 98.3337 102.022 99.5272 95.331C100.721 88.6397 106.622 84.0983 112.708 85.1875C118.794 86.2767 122.76 92.584 121.566 99.2753C120.373 105.967 114.472 110.508 108.386 109.419Z" fill="#F5F8F8"/>
<path d="M108.412 109.397C102.34 108.311 98.3832 102.017 99.5742 95.3392C100.765 88.6619 106.653 84.1297 112.725 85.2164C118.797 86.3031 122.754 92.5971 121.563 99.2745C120.372 105.952 114.484 110.484 108.412 109.397Z" fill="#F6F9F9"/>
<path d="M108.44 109.376C102.38 108.292 98.4309 102.011 99.6195 95.3474C100.808 88.684 106.684 84.1613 112.744 85.2458C118.803 86.3303 122.752 92.6113 121.564 99.2747C120.375 105.938 114.499 110.461 108.44 109.376Z" fill="#F7F9F9"/>
<path d="M108.465 109.351C102.418 108.269 98.4767 102.001 99.6628 95.3517C100.849 88.7022 106.713 84.189 112.76 85.2713C118.808 86.3536 122.748 92.6215 121.562 99.271C120.376 105.921 114.512 110.434 108.465 109.351Z" fill="#F8FAFA"/>
<path d="M108.493 109.33C102.46 108.25 98.5282 101.996 99.7117 95.3599C100.895 88.7243 106.746 84.2204 112.779 85.3002C118.813 86.38 122.745 92.6346 121.561 99.2702C120.377 105.906 114.527 110.41 108.493 109.33Z" fill="#F9FBFB"/>
<path d="M108.521 109.312C102.5 108.235 98.5759 101.993 99.757 95.3715C100.938 88.7498 106.777 84.2554 112.798 85.333C118.819 86.4106 122.743 92.6521 121.562 99.2738C120.381 105.896 114.542 110.39 108.521 109.312Z" fill="#FAFCFC"/>
<path d="M108.546 109.288C102.537 108.213 98.6217 101.985 99.8004 95.3768C100.979 88.769 106.806 84.2841 112.814 85.3595C118.823 86.4349 122.739 92.6633 121.56 99.2711C120.382 105.879 114.555 110.364 108.546 109.288Z" fill="#FBFCFC"/>
<path d="M108.575 109.261C102.581 108.188 98.6739 101.975 99.8498 95.3823C101.026 88.7899 106.839 84.3155 112.834 85.3884C118.829 86.4613 122.735 92.6752 121.559 99.2675C120.384 105.86 114.57 110.334 108.575 109.261Z" fill="#FCFDFD"/>
<path d="M108.603 109.24C102.62 108.17 98.7217 101.969 99.8951 95.3905C101.068 88.812 106.87 84.3471 112.852 85.4178C118.835 86.4885 122.733 92.6893 121.56 99.2677C120.387 105.846 114.586 110.311 108.603 109.24Z" fill="#FDFEFE"/>
<path d="M108.628 109.218C102.658 108.15 98.7675 101.962 99.9384 95.3977C101.109 88.8332 106.898 84.3777 112.869 85.4462C118.839 86.5147 122.73 92.7025 121.559 99.267C120.388 105.831 114.599 110.287 108.628 109.218Z" fill="#FEFEFE"/>
<path d="M108.657 109.2C102.7 108.134 98.8189 101.959 99.9873 95.4088C101.156 88.8582 106.932 84.4121 112.888 85.4781C118.844 86.544 122.726 92.7185 121.557 99.2691C120.389 105.82 114.613 110.266 108.657 109.2Z" fill="white"/>
<path d="M112.132 108.473C108.396 107.804 106.026 103.574 106.837 99.0254C107.649 94.4764 111.335 91.3308 115.071 91.9994C118.806 92.668 121.177 96.8976 120.366 101.447C119.554 105.996 115.868 109.141 112.132 108.473Z" fill="#472317"/>
<path d="M115.134 97.4627C115.37 96.1407 116.423 95.2252 117.484 95.4157C118.546 95.6062 119.216 96.8315 118.98 98.1507C118.745 99.4727 117.692 100.388 116.63 100.198C115.569 100.007 114.899 98.7818 115.134 97.4627Z" fill="white"/>
<path d="M109.831 103.367C109.988 102.497 110.68 101.895 111.378 102.02C112.077 102.145 112.519 102.952 112.363 103.819C112.207 104.687 111.515 105.292 110.816 105.167C110.118 105.042 109.675 104.235 109.831 103.367Z" fill="white"/>
<path d="M167.055 124.896C171.333 125.351 175.423 126.861 178.936 129.351C179.334 129.633 178.936 130.241 178.519 129.985C175.008 127.836 171.083 126.423 167.002 125.894C166.369 125.812 166.414 124.828 167.055 124.896Z" fill="#985119"/>
<path d="M161.517 121.297C169.322 120.675 177.105 122.767 184.311 125.613C186.434 126.452 188.506 127.398 190.57 128.374C190.927 128.541 190.76 129.127 190.374 128.976C183.159 126.156 175.839 123.506 168.102 122.625C165.942 122.38 163.768 122.309 161.594 122.372C160.983 122.389 160.898 121.346 161.514 121.294L161.517 121.297Z" fill="#985119"/>
<g style="mix-blend-mode:overlay" opacity="0.2">
<path d="M124.574 137.875C108.697 134.551 91.8833 127.543 85.5738 111.306C79.673 96.065 87.7706 81.8101 97.8748 70.2844C103.358 64.0753 108.805 58.1362 115.344 53.7778C112.211 54.8155 109.126 56.1688 106.358 57.7893C98.5305 62.3723 91.5739 69.2013 85.974 76.2747C80.9218 82.6516 76.0911 89.762 73.707 97.6287C65.6292 124.285 96.0413 137.849 116.991 142.079C129.984 144.704 148.109 145.349 159.451 137.414C148.09 140.172 136.03 140.317 124.574 137.872V137.875Z" fill="black"/>
</g>
<path d="M125.395 125.8C125.395 125.8 126.108 133.488 129.394 134.497C132.681 135.506 138.604 124.171 138.465 124.182C138.323 124.194 136.515 123.395 131.625 124.12C126.735 124.845 125.398 125.803 125.398 125.803L125.395 125.8Z" fill="white"/>
<path d="M136.815 127.222C137.843 125.51 138.51 124.177 138.461 124.182C138.319 124.194 136.512 123.395 131.621 124.12C126.731 124.845 125.394 125.803 125.394 125.803C125.394 125.803 125.485 126.778 125.749 128.077C129.382 126.986 133.182 126.463 136.815 127.224V127.222Z" fill="#DFE5E4"/>
<path d="M140.747 123.247C138.399 122.966 135.933 122.9 133.503 123.145C133.765 122.451 133.909 121.7 134.08 120.992C134.346 119.892 134.559 118.781 134.761 117.666C135.141 115.577 135.575 113.43 135.632 111.303C135.652 110.57 134.525 110.561 134.38 111.235C133.935 113.322 133.773 115.486 133.441 117.595C133.282 118.596 133.103 119.591 132.953 120.594C132.822 121.464 132.609 122.363 132.595 123.25C129.033 123.727 125.593 124.916 122.775 127.142C122.463 127.389 122.789 127.864 123.13 127.651C128.434 124.29 134.429 124.035 140.514 124.464C141.289 124.518 141.55 123.344 140.747 123.247Z" fill="#985119"/>
<path d="M140.719 109.768C140.719 109.782 140.716 109.797 140.714 109.811C140.495 110.928 136.964 112.551 135.454 113.2C135.44 113.205 135.426 113.211 135.412 113.217C135.145 113.319 134.838 113.305 134.574 113.194C134.518 113.171 134.464 113.14 134.41 113.109C134.35 113.072 134.293 113.029 134.245 112.981C134.225 112.964 134.208 112.944 134.188 112.927C134.129 112.87 134.069 112.81 134.004 112.748C133.953 112.696 133.899 112.645 133.845 112.591C133.808 112.554 133.771 112.52 133.734 112.48C133.618 112.361 133.493 112.239 133.365 112.108C133.246 111.986 133.124 111.861 133.002 111.73C132.991 111.718 132.979 111.707 132.971 111.696C132.917 111.639 132.863 111.582 132.809 111.522C132.727 111.434 132.647 111.346 132.565 111.258C132.511 111.198 132.457 111.138 132.403 111.079C132.082 110.721 131.767 110.351 131.484 109.987C131.455 109.953 131.43 109.916 131.401 109.882C131.39 109.868 131.381 109.856 131.37 109.842C131.339 109.802 131.308 109.762 131.276 109.72C131.024 109.381 130.811 109.055 130.655 108.759C130.652 108.753 130.646 108.747 130.646 108.739C130.45 108.361 130.354 108.028 130.399 107.784C130.669 106.416 132.9 106.328 135.608 106.823C135.715 106.843 135.823 106.863 135.931 106.885C136.135 106.925 136.34 106.968 136.538 107.013C139.059 107.579 140.929 108.475 140.719 109.771V109.768Z" fill="#985119"/>
<g style="mix-blend-mode:overlay" opacity="0.35">
<path d="M137.45 110.138C135.971 110.143 134.441 109.967 133.008 109.612C132.219 109.415 131.379 109.157 130.644 108.742C131.345 110.095 133.292 112.065 134.24 112.981C134.552 113.282 135.054 113.373 135.449 113.202C136.959 112.554 140.49 110.928 140.708 109.814C140.708 109.799 140.711 109.785 140.714 109.771C139.638 110.001 138.545 110.135 137.447 110.138H137.45Z" fill="black"/>
</g>
<g style="mix-blend-mode:overlay" opacity="0.46">
<path d="M138.905 108.4C137.582 107.874 135.468 107.28 133.541 107.178C133.121 107.161 132.698 107.178 132.283 107.24C132.082 107.291 131.835 107.28 131.673 107.425C131.341 107.689 131.534 107.942 131.957 107.931C136.132 107.834 139.019 109.296 139.365 109.162C139.918 108.972 139.473 108.556 138.908 108.397L138.905 108.4Z" fill="white"/>
</g>
<g style="mix-blend-mode:overlay" opacity="0.2">
<path d="M74.79 187.372C73.3794 185.382 72.6188 182.937 72.6471 180.497C71.6878 182.007 71.0605 183.721 70.8165 185.493C69.4456 182.019 68.9347 178.206 69.3491 174.493C68.2932 176.04 67.2402 177.589 66.1844 179.136C65.8211 175.798 66.2213 172.375 67.3481 169.214C65.7842 170.877 64.4616 172.762 63.4284 174.797C63.8315 170.319 65.5742 165.972 68.3727 162.458C67.7994 164.292 67.1239 165.99 66.5505 167.823C67.7653 166.322 68.9773 164.818 70.192 163.317C69.193 166.49 68.5061 169.759 68.1371 173.066C68.8325 170.8 70.2176 168.753 72.0568 167.266C71.0407 171.511 70.842 175.949 71.4778 180.267C71.6992 177.785 72.8316 175.394 74.6112 173.651C73.6859 178.229 73.4901 182.883 74.79 187.369V187.372Z" fill="white"/>
</g>
<path d="M114.097 147.598C114.032 146.723 114.157 145.827 114.435 145.048C115.363 142.441 117.486 140.454 119.621 138.805C121.045 137.704 122.527 136.667 123.83 135.424C124.653 137.42 124.148 139.894 122.609 141.406C124.747 140.272 127.074 139.166 129.211 138.031C129.345 137.96 129.492 137.886 129.643 137.918C129.966 137.986 129.997 138.432 129.932 138.756C129.506 140.886 128.221 142.828 126.427 144.047C127.102 144.005 127.849 144.516 128.047 145.165C128.249 145.813 127.954 146.578 127.375 146.927C127.755 147.044 127.951 147.493 127.903 147.888C127.854 148.283 127.619 148.627 127.366 148.934C125.919 150.689 123.728 151.675 121.497 151.925C119.743 152.121 117.762 152.039 116.175 151.189C114.841 150.475 114.205 149.068 114.097 147.601V147.598Z" fill="url(#paint14_linear_116_199870)"/>
<g style="mix-blend-mode:overlay" opacity="0.3">
<path d="M118.818 149.977C115.897 148.243 115.33 145.173 116.031 142.222C115.361 143.077 114.802 144.013 114.436 145.045C114.158 145.824 114.033 146.722 114.098 147.595C114.206 149.059 114.842 150.469 116.176 151.183C117.762 152.033 119.743 152.115 121.497 151.919C122.391 151.82 123.277 151.598 124.111 151.26C122.349 151.299 120.569 150.927 118.815 149.975L118.818 149.977Z" fill="black"/>
</g>
<g style="mix-blend-mode:overlay" opacity="0.2">
<path d="M85.3086 152.352C84.8205 150.222 84.3323 148.09 83.8441 145.961C83.1118 148.107 82.3824 150.251 81.6501 152.397C80.2168 149.42 79.9926 145.884 81.0399 142.751C79.3171 145.193 78.0114 147.928 77.1969 150.805C76.9726 145.528 78.3038 140.195 80.9803 135.646C80.7703 137.369 80.5744 139.123 80.3644 140.846C81.4174 139.564 82.4732 138.281 83.5262 136.999C83.2339 139.419 82.9387 141.841 82.6463 144.26C83.6227 142.321 84.5991 140.385 85.5754 138.446C85.8877 141.474 86.6597 144.454 87.8574 147.251C86.6114 145.915 85.7798 144.192 85.5073 142.384C85.5811 145.358 85.2349 149.375 85.3058 152.349L85.3086 152.352Z" fill="white"/>
</g>
</g>
<defs>
<linearGradient id="paint0_linear_116_199870" x1="3.03848" y1="195.164" x2="68.6029" y2="180.113" gradientUnits="userSpaceOnUse">
<stop stop-color="#C6884A"/>
<stop offset="0.32" stop-color="#C28345"/>
<stop offset="0.66" stop-color="#B87739"/>
<stop offset="1" stop-color="#A86326"/>
</linearGradient>
<linearGradient id="paint1_linear_116_199870" x1="81.2104" y1="179.411" x2="52.3888" y2="217.51" gradientUnits="userSpaceOnUse">
<stop offset="0.1" stop-color="#E2B078"/>
<stop offset="0.44" stop-color="#E3B17A"/>
<stop offset="0.66" stop-color="#E6B883"/>
<stop offset="0.85" stop-color="#EDC292"/>
<stop offset="1" stop-color="#F5CFA4"/>
</linearGradient>
<linearGradient id="paint2_linear_116_199870" x1="47.4966" y1="225.491" x2="62.2159" y2="211.815" gradientUnits="userSpaceOnUse">
<stop stop-color="#C6884A"/>
<stop offset="0.32" stop-color="#C28345"/>
<stop offset="0.66" stop-color="#B87739"/>
<stop offset="1" stop-color="#A86326"/>
</linearGradient>
<linearGradient id="paint3_linear_116_199870" x1="112.224" y1="189.627" x2="114.46" y2="220.467" gradientUnits="userSpaceOnUse">
<stop offset="0.51" stop-color="#DFAB71"/>
<stop offset="0.68" stop-color="#E0AC73"/>
<stop offset="0.8" stop-color="#E3B37C"/>
<stop offset="0.9" stop-color="#EABD8B"/>
<stop offset="0.99" stop-color="#F3CCA0"/>
<stop offset="1" stop-color="#F5CFA4"/>
</linearGradient>
<linearGradient id="paint4_linear_116_199870" x1="123.943" y1="226.461" x2="109.226" y2="212.785" gradientUnits="userSpaceOnUse">
<stop stop-color="#C6884A"/>
<stop offset="0.32" stop-color="#C28345"/>
<stop offset="0.66" stop-color="#B87739"/>
<stop offset="1" stop-color="#A86326"/>
</linearGradient>
<linearGradient id="paint5_linear_116_199870" x1="88.5036" y1="201.633" x2="111.797" y2="118.567" gradientUnits="userSpaceOnUse">
<stop stop-color="#DEAA6F"/>
<stop offset="1" stop-color="#F5CFA4"/>
</linearGradient>
<linearGradient id="paint6_linear_116_199870" x1="105.331" y1="170.02" x2="101.562" y2="200.328" gradientUnits="userSpaceOnUse">
<stop stop-color="#F5CFA4"/>
<stop offset="0.28" stop-color="#F5D1A8"/>
<stop offset="0.58" stop-color="#F8D8B5"/>
<stop offset="0.91" stop-color="#FDE4CC"/>
<stop offset="1" stop-color="#FFE9D4"/>
</linearGradient>
<linearGradient id="paint7_linear_116_199870" x1="93.1595" y1="154.342" x2="138.853" y2="154.342" gradientUnits="userSpaceOnUse">
<stop stop-color="#DEAA6F"/>
<stop offset="1" stop-color="#F5CFA4"/>
</linearGradient>
<linearGradient id="paint8_linear_116_199870" x1="74.3368" y1="138.182" x2="119.664" y2="138.182" gradientUnits="userSpaceOnUse">
<stop stop-color="#DEAA6F"/>
<stop offset="1" stop-color="#F5CFA4"/>
</linearGradient>
<linearGradient id="paint9_linear_116_199870" x1="30.2439" y1="28.6316" x2="96.0277" y2="92.1336" gradientUnits="userSpaceOnUse">
<stop stop-color="#F5CFA4"/>
<stop offset="0.08" stop-color="#EFC698"/>
<stop offset="0.31" stop-color="#DFB07B"/>
<stop offset="0.55" stop-color="#D4A166"/>
<stop offset="0.78" stop-color="#CE985A"/>
<stop offset="1" stop-color="#CC9556"/>
</linearGradient>
<linearGradient id="paint10_linear_116_199870" x1="34.2763" y1="42.2675" x2="91.041" y2="88.5784" gradientUnits="userSpaceOnUse">
<stop stop-color="#FFE9D4"/>
<stop offset="0.09" stop-color="#FDE4CC"/>
<stop offset="0.42" stop-color="#F8D8B5"/>
<stop offset="0.72" stop-color="#F5D1A8"/>
<stop offset="1" stop-color="#F5CFA4"/>
</linearGradient>
<linearGradient id="paint11_linear_116_199870" x1="231.277" y1="75.5748" x2="141.963" y2="94.8622" gradientUnits="userSpaceOnUse">
<stop stop-color="#F5CFA4"/>
<stop offset="0.08" stop-color="#EFC698"/>
<stop offset="0.31" stop-color="#DFB07B"/>
<stop offset="0.55" stop-color="#D4A166"/>
<stop offset="0.78" stop-color="#CE985A"/>
<stop offset="1" stop-color="#CC9556"/>
</linearGradient>
<linearGradient id="paint12_linear_116_199870" x1="220.739" y1="85.0744" x2="148.14" y2="94.5337" gradientUnits="userSpaceOnUse">
<stop stop-color="#FFE9D4"/>
<stop offset="0.09" stop-color="#FDE4CC"/>
<stop offset="0.42" stop-color="#F8D8B5"/>
<stop offset="0.72" stop-color="#F5D1A8"/>
<stop offset="1" stop-color="#F5CFA4"/>
</linearGradient>
<linearGradient id="paint13_linear_116_199870" x1="116.54" y1="142.116" x2="131.598" y2="42.1233" gradientUnits="userSpaceOnUse">
<stop stop-color="#DEAA6F"/>
<stop offset="1" stop-color="#F5CFA4"/>
</linearGradient>
<linearGradient id="paint14_linear_116_199870" x1="114.08" y1="143.717" x2="129.96" y2="143.717" gradientUnits="userSpaceOnUse">
<stop stop-color="#A86326"/>
<stop offset="0.34" stop-color="#B87739"/>
<stop offset="0.68" stop-color="#C28345"/>
<stop offset="1" stop-color="#C6884A"/>
</linearGradient>
<clipPath id="clip0_116_199870">
<rect width="211" height="221" fill="white" transform="matrix(-1 0 0 1 211.07 0.966797)"/>
</clipPath>
</defs>
</svg>
