<svg width="305" height="290" viewBox="0 0 305 290" fill="none" xmlns="http://www.w3.org/2000/svg">
<path d="M240.78 105.056C243.928 102.243 246.806 99.1266 249.351 95.7531C250.169 105.161 248.493 114.777 244.525 123.361C248.782 121.768 253.048 120.177 257.308 118.582C254.976 125.413 249.609 131.158 242.949 133.963C249.426 136.207 255.589 139.335 261.21 143.244C255.444 145.006 249.725 146.171 243.741 145.429C253.636 155.759 257.87 171.193 254.635 185.137C254.454 185.919 254.079 186.853 253.277 186.926C252.728 186.973 252.254 186.575 251.852 186.202C250.122 184.591 249.486 183.689 247.761 182.079C250.287 196.749 243.276 212.635 230.717 220.706C231.08 216.638 231.45 212.569 231.815 208.504C223.279 234.282 201.009 254.812 174.912 262.466C173.487 262.887 172.043 263.267 170.599 263.607C188.158 225.916 191.071 181.673 178.594 142.085C190.094 133.896 201.017 124.931 211.055 115.116C221.042 105.357 230.162 94.7414 238.123 83.1965C241.688 89.8081 242.656 97.7717 240.781 105.051L240.78 105.056Z" fill="#7F3E12"/>
<g style="mix-blend-mode:overlay" opacity="0.2">
<path d="M249.351 95.7532C246.806 99.1266 243.928 102.243 240.78 105.056C242.655 97.7765 241.69 89.811 238.122 83.2012C230.161 94.7462 221.041 105.362 211.054 115.121C201.013 124.938 190.089 133.9 178.593 142.09C191.07 181.678 188.16 225.92 170.601 263.61C172.048 263.269 173.487 262.888 174.914 262.469C175.549 262.284 176.181 262.081 176.812 261.882C190.256 248.105 206.114 234.753 209.191 215.491C212.849 219.045 215.315 223.815 218.268 227.804C224.347 214.848 219.004 200.716 216.367 187.816C222.186 188.583 226.627 192.62 232.043 195.085C233.398 195.702 236.105 196.937 236.238 196.368C236.308 184.702 228.751 174.839 220.433 166.9C230.12 165.279 239.999 167.894 249.311 170.377C244.596 161.183 237.283 154.077 229.481 147.755C238.055 141.978 248.555 143.24 258.406 143.453C250.637 139.535 242.029 136.617 234.123 133.267C241.996 131.085 247.834 125.621 253.569 119.985C250.555 121.112 247.538 122.24 244.524 123.366C248.489 114.784 250.168 105.166 249.35 95.7579L249.351 95.7532Z" fill="black"/>
</g>
<path d="M211.052 115.118C213.538 113.876 215.982 112.533 218.386 111.085C219.004 122.63 215.115 134.372 207.722 143.293C213.336 141.661 219.301 139.102 224.449 136.329C221.77 143.89 216.789 150.627 210.334 155.416C215.914 155.303 221.46 153.726 226.269 150.891C222.025 158.496 215.231 165.155 207.182 168.493C213.382 169.889 218.842 174.223 221.599 179.937C217.111 178.746 213.33 179.14 208.693 179.466C215.156 189.387 216.265 202.581 211.542 213.462C209.154 210.321 207.803 207.538 205.419 204.395C202.93 226.609 191.757 247.724 174.91 262.466C173.484 262.888 172.041 263.267 170.597 263.607C188.155 225.917 191.068 181.674 178.591 142.087C190.092 133.898 201.014 124.933 211.052 115.118Z" fill="url(#paint0_linear_3_172569)"/>
<g style="mix-blend-mode:overlay" opacity="0.2">
<path d="M205.442 138.453C203.918 143.371 201.26 147.943 197.735 151.707C204.019 151.586 210.239 149.195 214.981 145.069C210.253 151.398 204.21 157.938 197.612 162.292C203.347 162.198 209.069 161.328 214.57 159.705C209.771 163.582 204.652 167.067 199.284 170.11C204.186 170.915 208.889 172.882 212.902 175.799C208.966 176.179 205.196 176.762 201.26 177.142C205.007 180.597 207.181 185.481 208.225 190.467C209.269 195.453 209.276 200.592 209.275 205.686C206.429 202.719 202.936 199.984 199.298 198.061C198.806 217.708 190.884 237.099 177.464 251.515C189.304 234.044 195.392 211.263 193.577 190.276C197.981 192.022 201.942 195.414 204.752 199.22C202.878 191.114 199.25 183.42 194.196 176.811C197.32 175.349 200.412 175.238 203.858 175.331C199.941 173.885 195.787 173.076 191.609 172.94C195.761 170.296 199.916 167.649 204.07 165.007C199.176 165.946 194.288 166.886 189.394 167.826C193.964 163.335 198.532 158.847 203.099 154.358C197.999 157.361 192.094 158.99 186.178 159.026C194.088 153.825 201.038 146.826 205.439 138.454L205.442 138.453Z" fill="white"/>
</g>
<path d="M61.8516 109.271C58.623 106.55 55.6551 103.518 53.0137 100.219C52.4691 109.645 54.4239 119.209 58.6403 127.675C54.3388 126.204 50.0278 124.736 45.7233 123.264C48.253 130.025 53.7844 135.613 60.5233 138.226C54.1146 140.655 48.0444 143.958 42.5396 148.027C48.3543 149.622 54.1055 150.623 60.0647 149.709C50.4738 160.318 46.6908 175.866 50.3296 189.711C50.5328 190.487 50.9352 191.409 51.7391 191.459C52.2896 191.491 52.7519 191.08 53.1427 190.695C54.8252 189.036 55.4344 188.116 57.1122 186.457C55.0135 201.192 62.4836 216.869 75.2724 224.577C74.7914 220.521 74.3027 216.465 73.8199 212.412C83.1053 237.935 105.963 257.817 132.272 264.719C133.709 265.1 135.163 265.438 136.616 265.736C117.969 228.567 113.771 184.429 125.092 144.502C113.358 136.647 102.179 128 91.8599 118.477C81.593 109.009 72.1688 98.6594 63.8747 87.3482C60.5031 94.0587 59.7672 102.046 61.8533 109.268L61.8516 109.271Z" fill="#7F3E12"/>
<g style="mix-blend-mode:overlay" opacity="0.2">
<path d="M53.0134 100.218C55.6549 103.517 58.6227 106.55 61.8514 109.271C59.7652 102.049 60.4981 94.0597 63.8727 87.351C72.1669 98.6622 81.591 109.011 91.858 118.48C102.18 128.004 113.361 136.648 125.09 144.505C113.769 184.431 117.965 228.573 136.614 265.738C135.158 265.439 133.709 265.099 132.27 264.722C131.63 264.555 130.992 264.37 130.356 264.189C116.517 250.804 100.276 237.913 96.6405 218.748C93.0876 222.406 90.7611 227.244 87.9251 231.316C81.4724 218.541 86.4019 204.262 88.663 191.293C82.8686 192.226 78.5468 196.388 73.2051 199.007C71.8685 199.662 69.1983 200.974 69.0492 200.409C68.64 188.752 75.9068 178.677 83.9905 170.504C74.2611 169.161 64.4617 172.058 55.2251 174.806C59.6709 165.482 66.7748 158.169 74.3896 151.627C65.6519 146.099 55.1925 147.661 45.3511 148.156C53.0031 144.017 61.5228 140.855 69.3286 137.279C61.3957 135.324 55.4013 130.03 49.5043 124.561C52.55 125.601 55.5987 126.642 58.6443 127.681C54.4309 119.217 52.4731 109.651 53.0177 100.225L53.0134 100.218Z" fill="black"/>
</g>
<path d="M91.8578 118.48C89.3367 117.31 86.8543 116.037 84.4094 114.659C84.1278 126.217 88.3562 137.841 96.0062 146.546C90.3469 145.076 84.3097 142.689 79.0829 140.065C81.9806 147.545 87.1554 154.136 93.7469 158.738C88.1655 158.786 82.576 157.368 77.6871 154.672C82.1505 162.152 89.1346 168.613 97.2777 171.719C91.1206 173.292 85.7893 177.78 83.1992 183.57C87.6512 182.251 91.442 182.537 96.0871 182.73C89.9142 192.831 89.1898 206.051 94.2271 216.791C96.5224 213.583 97.792 210.763 100.084 207.553C103.213 229.687 114.997 250.476 132.268 264.726C133.705 265.106 135.159 265.444 136.612 265.742C117.965 228.573 113.768 184.435 125.089 144.509C113.355 136.653 102.176 128.006 91.856 118.483L91.8578 118.48Z" fill="url(#paint1_linear_3_172569)"/>
<g style="mix-blend-mode:overlay" opacity="0.2">
<path d="M98.1391 141.64C99.8076 146.515 102.595 151.007 106.228 154.667C99.9427 154.727 93.6561 152.515 88.7951 148.527C93.7053 154.717 99.9365 161.082 106.658 165.244C100.924 165.315 95.178 164.608 89.6316 163.144C94.5418 166.881 99.76 170.218 105.215 173.106C100.338 174.051 95.6933 176.152 91.7669 179.183C95.7124 179.45 99.4981 179.924 103.444 180.192C99.7988 183.752 97.767 188.696 96.8684 193.71C95.9698 198.723 96.1127 203.86 96.2615 208.952C99.0204 205.905 102.432 203.071 106.013 201.045C107.076 220.668 115.559 239.823 129.392 253.847C117.05 236.724 110.301 214.128 111.505 193.1C107.154 194.971 103.293 198.475 100.594 202.359C102.233 194.203 105.635 186.41 110.496 179.659C107.33 178.287 104.236 178.264 100.794 178.455C104.667 176.898 108.796 175.971 112.969 175.715C108.741 173.191 104.511 170.664 100.282 168.143C105.201 168.941 110.115 169.741 115.035 170.54C110.338 166.184 105.639 161.827 100.943 157.471C106.128 160.326 112.078 161.785 117.994 161.652C109.935 156.68 102.785 149.884 98.1421 141.642L98.1391 141.64Z" fill="white"/>
</g>
<path d="M167.005 283.342C167.198 284.322 167.42 285.205 167.648 285.939C167.662 285.973 167.668 286.011 167.686 286.046C168.204 287.704 169.179 289.505 171.076 289.92C173.014 290.35 175.012 288.982 175.668 287.33C176.242 285.883 176.045 284.318 175.661 282.809C175.602 282.587 175.54 282.372 175.481 282.158C175.326 281.618 175.16 281.06 175.067 280.51C174.956 279.904 174.936 279.294 175.112 278.702C175.447 277.57 176.826 276.583 178.08 276.988C179.006 277.29 179.466 278.176 179.832 278.979C180.444 280.312 181.052 281.642 181.664 282.978C181.981 283.667 182.292 284.36 182.61 285.049C182.714 285.281 182.825 285.509 182.946 285.745C183.879 287.607 185.23 289.512 187.472 289.713C190.237 289.962 192.286 287.296 192.486 284.872C192.659 282.788 191.954 280.79 190.679 279.049C190.247 278.446 189.739 277.875 189.176 277.338C187.407 275.655 185.091 274.34 182.621 273.609C181.66 273.329 180.651 273.097 179.849 272.553C179.435 272.266 179.093 271.857 178.916 271.417C178.768 271.019 178.754 270.6 178.958 270.216C179.493 269.202 180.979 269.136 182.296 269.409C182.576 269.465 182.845 269.534 183.101 269.617C184.483 270.064 185.817 270.611 187.092 271.255C188.243 271.833 189.345 272.484 190.385 273.211C191.522 274 192.587 274.873 193.561 275.818C194.031 276.272 194.505 276.76 195.012 277.217C195.939 278.076 196.955 278.841 198.14 279.152C198.506 279.253 198.89 279.308 199.29 279.312C201.941 279.329 203.845 276.85 203.973 274.527C204.014 273.831 203.935 273.135 203.762 272.46C203.482 271.369 202.947 270.33 202.224 269.385C201.582 268.537 200.787 267.775 199.892 267.128C199.087 266.546 198.223 266.061 197.304 265.646H197.3C196.395 265.237 195.444 264.908 194.467 264.638C193.333 264.32 192.158 264.095 190.983 263.932C190.576 263.876 190.157 263.828 189.736 263.786C188.281 263.648 186.743 263.603 185.168 263.658C182.303 263.752 179.331 264.171 176.573 264.936C178.07 263.132 179.504 261.287 180.862 259.403C181.802 258.105 182.707 256.789 183.574 255.456C184.774 253.621 185.907 251.758 186.978 249.861C187.808 248.386 188.599 246.894 189.349 245.384C192.524 239.003 194.961 232.338 196.588 225.524C187.431 230.956 179.804 236.257 170.077 240.862C171.172 244.588 171.687 248.047 171.825 251.18C171.884 252.426 171.877 253.617 171.825 254.757C171.767 256.072 171.646 257.319 171.48 258.486C171.307 259.729 171.079 260.878 170.834 261.934C169.68 266.826 167.986 269.641 168.118 269.69C167.496 270.663 167.067 271.826 166.794 273.09C166.542 274.257 166.424 275.51 166.397 276.77C166.355 279.059 166.628 281.389 167.015 283.335L167.005 283.342Z" fill="url(#paint2_linear_3_172569)"/>
<path opacity="0.6" d="M171.815 254.764C177.002 253.521 182.075 251.866 186.968 249.868C187.797 248.393 188.588 246.901 189.338 245.391C183.678 247.697 177.824 249.612 171.815 251.187C171.874 252.433 171.867 253.624 171.815 254.764Z" fill="#E08B0E"/>
<path opacity="0.6" d="M170.823 261.941C174.227 261.276 177.572 260.431 180.851 259.41C181.791 258.112 182.696 256.796 183.564 255.463C179.607 256.678 175.56 257.686 171.469 258.493C171.296 259.736 171.068 260.885 170.823 261.941Z" fill="#E08B0E"/>
<path opacity="0.6" d="M178.909 271.424C178.76 271.026 178.746 270.607 178.95 270.223C179.486 269.208 180.972 269.143 182.288 269.416C184.953 267.72 187.455 265.84 189.725 263.8C188.27 263.662 186.732 263.617 185.157 263.672C182.755 265.428 180.222 267.051 177.489 268.488C174.05 270.299 170.477 271.829 166.78 273.1C166.527 274.267 166.41 275.52 166.382 276.781C170.726 275.427 174.956 273.619 178.905 271.428L178.909 271.424Z" fill="#E08B0E"/>
<path opacity="0.6" d="M167.004 283.342C167.198 284.322 167.419 285.205 167.647 285.939C167.661 285.973 167.668 286.011 167.685 286.046C170.443 285.184 173.104 284.1 175.657 282.812C175.598 282.59 175.536 282.376 175.478 282.161C175.322 281.621 175.156 281.064 175.063 280.513C172.457 281.628 169.762 282.559 167.008 283.342H167.004Z" fill="#E08B0E"/>
<path opacity="0.6" d="M181.656 282.982C181.974 283.671 182.285 284.363 182.603 285.052C182.707 285.284 182.817 285.513 182.938 285.748C185.786 283.785 188.357 281.521 190.672 279.052C190.24 278.45 189.732 277.878 189.169 277.342C186.853 279.433 184.331 281.285 181.656 282.978V282.982Z" fill="#E08B0E"/>
<path opacity="0.6" d="M187.085 271.262C188.236 271.84 189.338 272.491 190.378 273.218C193.07 271.092 195.351 268.419 197.293 265.656C196.387 265.248 195.437 264.919 194.459 264.649C192.165 266.958 189.652 269.042 187.109 271.237C187.102 271.244 187.092 271.251 187.085 271.258V271.262Z" fill="#E08B0E"/>
<path opacity="0.6" d="M195.005 277.224C195.932 278.082 196.947 278.848 198.133 279.159C200.389 277.231 202.255 274.928 203.755 272.47C203.475 271.379 202.939 270.341 202.217 269.395C199.933 272.096 197.466 274.634 195.002 277.224H195.005Z" fill="#E08B0E"/>
<g style="mix-blend-mode:overlay" opacity="0.2">
<path d="M166.386 276.777C166.41 275.517 166.531 274.263 166.783 273.096C167.056 271.836 167.485 270.669 168.107 269.696C167.976 269.648 169.669 266.833 170.823 261.941C171.072 260.885 171.296 259.735 171.469 258.492C171.635 257.329 171.756 256.079 171.815 254.763C171.867 253.624 171.873 252.433 171.815 251.187C171.68 248.053 171.162 244.594 170.066 240.869C179.794 236.26 187.42 230.963 196.577 225.531C194.95 232.344 192.514 239.01 189.338 245.391C188.588 246.9 187.797 248.393 186.967 249.867C186.532 250.64 186.083 251.405 185.627 252.163C174.348 258.922 168.553 271.438 169.928 283.463C170.236 286.025 171.469 288.033 173.19 289.73C172.523 289.989 171.794 290.079 171.075 289.92C169.178 289.501 168.207 287.704 167.685 286.046C167.668 286.011 167.661 285.973 167.647 285.938C167.419 285.208 167.198 284.325 167.005 283.342C166.618 281.396 166.345 279.066 166.386 276.777Z" fill="black"/>
</g>
<g style="mix-blend-mode:overlay" opacity="0.3">
<path d="M193.066 264.912C195.834 265.511 198.416 266.986 200.251 268.893C201.882 270.59 203.44 273.107 202.901 275.378C202.725 276.126 201.45 276.441 200.876 275.846C199.535 274.454 198.803 272.778 197.338 271.442C195.789 270.033 194.051 269.118 191.943 268.478C189.397 267.702 190.399 264.337 193.066 264.915V264.912Z" fill="white"/>
</g>
<g style="mix-blend-mode:overlay" opacity="0.3">
<path d="M188.011 276.846C190.171 278.907 192.597 283.172 190.758 285.911C190.326 286.555 189.176 286.749 188.574 286.157C187.603 285.201 187.32 283.923 186.688 282.798C186.003 281.586 185.181 280.458 184.331 279.329C182.873 277.39 186.214 275.129 188.015 276.843L188.011 276.846Z" fill="white"/>
</g>
<path d="M195.938 227.231C197.559 235.115 199.439 242.943 201.574 250.702C198.696 248.49 196.301 245.651 194.604 242.438C194.131 246.35 192.842 250.166 190.848 253.562C190.513 251.201 190.174 248.839 189.839 246.478C187.14 251.976 182.679 256.588 177.278 259.465C176.984 257.281 176.87 254.719 176.898 252.513C174.762 255.072 173.636 258.454 173.819 261.785C172.644 259.777 171.469 257.769 170.294 255.761C168.729 258.617 166.096 261.391 163.151 262.775C165.684 257.862 165.449 251.627 162.561 246.914C172.167 238.806 184.289 231.943 195.938 227.231Z" fill="#7F3E12"/>
<path d="M134.539 283.342C134.346 284.322 134.125 285.205 133.897 285.939C133.883 285.973 133.876 286.011 133.859 286.046C133.34 287.704 132.366 289.505 130.469 289.92C128.53 290.35 126.533 288.982 125.876 287.33C125.302 285.883 125.499 284.318 125.883 282.809C125.942 282.587 126.004 282.372 126.063 282.158C126.218 281.618 126.384 281.06 126.477 280.51C126.588 279.904 126.609 279.294 126.432 278.702C126.097 277.57 124.718 276.583 123.464 276.988C122.538 277.29 122.078 278.176 121.712 278.979C121.1 280.312 120.492 281.642 119.881 282.978C119.563 283.667 119.248 284.36 118.934 285.049C118.83 285.281 118.72 285.509 118.599 285.745C117.666 287.607 116.314 289.512 114.072 289.713C111.307 289.962 109.258 287.296 109.058 284.872C108.885 282.788 109.59 280.79 110.865 279.049C111.297 278.446 111.805 277.875 112.368 277.338C114.137 275.655 116.453 274.34 118.923 273.609C119.884 273.329 120.893 273.097 121.695 272.553C122.109 272.266 122.452 271.857 122.628 271.417C122.776 271.019 122.79 270.6 122.586 270.216C122.051 269.202 120.565 269.136 119.248 269.409C118.968 269.465 118.699 269.534 118.443 269.617C117.061 270.064 115.727 270.611 114.452 271.255C113.301 271.833 112.195 272.484 111.159 273.211C110.022 274 108.958 274.873 107.983 275.818C107.513 276.272 107.04 276.76 106.532 277.217C105.606 278.076 104.59 278.841 103.404 279.152C103.038 279.253 102.655 279.308 102.254 279.312C99.6032 279.329 97.6992 276.85 97.5714 274.527C97.5299 273.831 97.6094 273.135 97.7821 272.46C98.0621 271.369 98.5977 270.33 99.3199 269.385C99.9626 268.537 100.757 267.775 101.652 267.128C102.458 266.546 103.321 266.061 104.241 265.646H104.244C105.149 265.237 106.1 264.908 107.078 264.638C108.211 264.32 109.386 264.095 110.561 263.932C110.969 263.876 111.387 263.828 111.808 263.786C113.263 263.648 114.801 263.603 116.377 263.658C119.241 263.752 122.213 264.171 124.971 264.936C123.474 263.132 122.04 261.287 120.682 259.403C119.742 258.105 118.837 256.789 117.97 255.456C116.771 253.621 115.637 251.758 114.566 249.861C113.737 248.386 112.945 246.894 112.195 245.384C109.02 239.003 106.584 232.338 104.956 225.524C114.113 230.956 121.736 236.257 131.467 240.862C130.372 244.588 129.857 248.047 129.719 251.18C129.66 252.426 129.667 253.617 129.719 254.757C129.777 256.072 129.898 257.319 130.064 258.486C130.237 259.729 130.465 260.878 130.71 261.934C131.865 266.826 133.558 269.641 133.427 269.69C134.049 270.663 134.477 271.826 134.75 273.09C135.002 274.257 135.12 275.51 135.147 276.77C135.189 279.059 134.916 281.389 134.529 283.335L134.539 283.342Z" fill="url(#paint3_linear_3_172569)"/>
<path opacity="0.6" d="M129.729 254.764C124.542 253.521 119.469 251.866 114.576 249.868C113.747 248.393 112.955 246.901 112.206 245.391C117.866 247.697 123.72 249.612 129.729 251.187C129.67 252.433 129.677 253.624 129.729 254.764Z" fill="#E08B0E"/>
<path opacity="0.6" d="M130.721 261.941C127.317 261.276 123.972 260.431 120.693 259.41C119.753 258.112 118.847 256.796 117.98 255.463C121.937 256.678 125.983 257.686 130.075 258.493C130.247 259.736 130.475 260.885 130.721 261.941Z" fill="#E08B0E"/>
<path opacity="0.6" d="M122.635 271.424C122.783 271.026 122.797 270.607 122.593 270.223C122.058 269.208 120.572 269.143 119.255 269.416C116.591 267.72 114.089 265.84 111.819 263.8C113.274 263.662 114.811 263.617 116.387 263.672C118.792 265.428 121.322 267.051 124.055 268.488C127.493 270.299 131.066 271.829 134.764 273.1C135.016 274.267 135.134 275.52 135.161 276.781C130.818 275.427 126.588 273.619 122.638 271.428L122.635 271.424Z" fill="#E08B0E"/>
<path opacity="0.6" d="M134.539 283.342C134.346 284.322 134.124 285.205 133.896 285.939C133.882 285.973 133.876 286.011 133.858 286.046C131.101 285.184 128.44 284.1 125.886 282.812C125.945 282.59 126.007 282.376 126.066 282.161C126.221 281.621 126.387 281.064 126.481 280.513C129.086 281.628 131.781 282.559 134.536 283.342H134.539Z" fill="#E08B0E"/>
<path opacity="0.6" d="M119.888 282.982C119.57 283.671 119.255 284.363 118.941 285.052C118.837 285.284 118.727 285.513 118.606 285.748C115.758 283.785 113.187 281.521 110.872 279.052C111.304 278.45 111.812 277.878 112.375 277.342C114.69 279.433 117.213 281.285 119.888 282.978V282.982Z" fill="#E08B0E"/>
<path opacity="0.6" d="M114.459 271.262C113.308 271.84 112.202 272.491 111.166 273.218C108.474 271.092 106.193 268.419 104.251 265.656C105.156 265.248 106.107 264.919 107.085 264.649C109.379 266.958 111.891 269.042 114.435 271.237C114.442 271.244 114.452 271.251 114.459 271.258V271.262Z" fill="#E08B0E"/>
<path opacity="0.6" d="M106.539 277.224C105.613 278.082 104.597 278.848 103.411 279.159C101.155 277.231 99.2888 274.928 97.7891 272.47C98.069 271.379 98.6046 270.341 99.3268 269.395C101.611 272.096 104.082 274.634 106.542 277.224H106.539Z" fill="#E08B0E"/>
<g style="mix-blend-mode:overlay" opacity="0.2">
<path d="M135.158 276.777C135.134 275.517 135.013 274.264 134.76 273.097C134.487 271.836 134.059 270.67 133.437 269.697C133.568 269.648 131.875 266.833 130.721 261.941C130.472 260.885 130.247 259.736 130.075 258.493C129.909 257.329 129.788 256.079 129.729 254.764C129.677 253.624 129.67 252.433 129.729 251.187C129.864 248.054 130.379 244.595 131.478 240.869C121.75 236.261 114.124 230.963 104.966 225.531C106.594 232.345 109.03 239.01 112.206 245.391C112.956 246.901 113.747 248.393 114.576 249.868C115.012 250.64 115.461 251.405 115.917 252.163C127.196 258.922 132.991 271.438 131.616 283.463C131.308 286.025 130.075 288.033 128.354 289.73C129.021 289.99 129.75 290.08 130.469 289.92C132.366 289.501 133.337 287.704 133.858 286.046C133.876 286.011 133.883 285.973 133.897 285.939C134.125 285.208 134.346 284.325 134.539 283.342C134.926 281.396 135.199 279.066 135.158 276.777Z" fill="black"/>
</g>
<g style="mix-blend-mode:overlay" opacity="0.3">
<path d="M108.477 264.912C105.71 265.511 103.128 266.986 101.293 268.893C99.6622 270.59 98.1038 273.107 98.6428 275.378C98.8191 276.126 100.094 276.441 100.668 275.846C102.009 274.454 102.741 272.778 104.206 271.442C105.754 270.033 107.493 269.118 109.601 268.478C112.147 267.702 111.145 264.337 108.477 264.915V264.912Z" fill="white"/>
</g>
<g style="mix-blend-mode:overlay" opacity="0.3">
<path d="M113.533 276.846C111.373 278.907 108.947 283.172 110.785 285.911C111.217 286.555 112.368 286.749 112.969 286.157C113.94 285.201 114.224 283.923 114.856 282.798C115.54 281.586 116.363 280.458 117.213 279.329C118.671 277.39 115.329 275.129 113.529 276.843L113.533 276.846Z" fill="white"/>
</g>
<path d="M105.606 227.231C103.985 235.115 102.105 242.943 99.9697 250.702C102.848 248.49 105.243 245.651 106.94 242.438C107.413 246.35 108.702 250.166 110.696 253.562C111.031 251.201 111.37 248.839 111.705 246.478C114.404 251.976 118.865 256.588 124.266 259.465C124.56 257.281 124.674 254.719 124.646 252.513C126.782 255.072 127.908 258.454 127.725 261.785C128.9 259.777 130.075 257.769 131.25 255.761C132.815 258.617 135.448 261.391 138.392 262.775C135.859 257.862 136.094 251.627 138.983 246.914C129.377 238.806 117.255 231.943 105.606 227.231Z" fill="#7F3E12"/>
<path d="M99.8902 55.2973C87.578 40.0525 82.4257 19.2438 86.1957 0C81.0469 5.29048 77.0764 11.6889 75.4903 18.9079C75.0791 16.0169 74.6713 13.1293 74.2601 10.2382C68.5688 19.2022 67.1865 30.7838 70.6041 40.8385C69.5847 39.5782 68.5653 38.3179 67.5459 37.0576C70.141 49.0062 80.7117 58.7804 92.8063 60.4181C95.3012 59.092 97.8963 57.2985 99.8868 55.2938L99.8902 55.2973Z" fill="#7F3E12"/>
<g style="mix-blend-mode:overlay" opacity="0.3">
<path d="M92.8098 60.4216C95.3047 59.0955 97.8998 57.302 99.8903 55.2973C91.4621 44.8618 86.3893 31.8156 85.2386 18.4509C83.5108 27.0479 83.4658 36.0293 84.8515 44.5398C79.9031 41.6487 77.0177 36.6906 73.7211 32.56C75.7806 38.7542 77.0177 44.9518 80.729 50.7339C77.4393 49.9999 74.7958 48.6184 71.938 47.1608C76.7032 54.1859 84.385 59.279 92.8132 60.4181L92.8098 60.4216Z" fill="black"/>
</g>
<path d="M204.494 56.246C216.806 41.0012 221.959 20.1925 218.189 0.9487C223.337 6.23918 227.308 12.6376 228.894 19.8566C229.305 16.9656 229.713 14.078 230.124 11.1869C235.816 20.1509 237.198 31.7325 233.78 41.7872C234.8 40.5269 235.819 39.2666 236.838 38.0063C234.243 49.9549 223.673 59.7291 211.578 61.3668C209.083 60.0407 206.488 58.2472 204.498 56.2425L204.494 56.246Z" fill="#7F3E12"/>
<g style="mix-blend-mode:overlay" opacity="0.3">
<path d="M211.575 61.3703C209.08 60.0442 206.485 58.2507 204.494 56.246C212.922 45.8104 217.995 32.7643 219.146 19.3996C220.874 27.9966 220.919 36.978 219.533 45.4885C224.481 42.5974 227.367 37.6393 230.663 33.5087C228.604 39.7029 227.367 45.9005 223.655 51.6826C226.945 50.9486 229.589 49.5671 232.446 48.1095C227.681 55.1346 219.999 60.2277 211.571 61.3668L211.575 61.3703Z" fill="black"/>
</g>
<path d="M151.966 255.363C182.161 252.707 209.391 229.194 216.464 199.66C216.727 203.746 216.223 207.883 214.989 211.785C227.978 192.777 235.062 169.777 235.024 146.738C236.883 149.761 238.743 152.787 240.602 155.81C241.113 145.623 239.323 135.326 235.408 125.912C238.01 127.159 240.612 128.405 243.214 129.651C243.114 119.576 239.672 109.563 233.559 101.565C234.613 102.507 242.976 104.38 244.03 105.321C235.259 63.5966 208.769 45.0279 178.287 35.4476C182.023 32.9166 186.439 31.407 190.938 31.1231C184.977 27.8754 177.91 26.674 171.265 28.0589C177.036 22.72 183.184 17.7827 189.642 13.2989C182.935 13.3301 176.127 13.6105 169.728 15.6291C163.328 17.6476 157.298 21.6086 154.06 27.4946C154.931 21.0788 157.401 14.8847 161.182 9.63574C153.137 13.5447 146.582 20.7084 144.246 29.3539C140.981 21.5047 133.295 15.681 124.871 14.6665C127.939 19.4931 131.008 24.3231 134.08 29.1496C126.574 25.199 116.895 25.7911 109.929 30.6315C115.499 29.2361 121.664 30.4653 126.277 33.8895C109.949 37.6116 94.5927 45.7308 83.4104 58.223C72.2281 70.7117 65.0301 86.7286 63.1053 103.396C66.3743 99.9963 69.6468 96.5963 72.9158 93.1963C61.654 113.905 58.9414 139.121 65.5415 161.758C66.3847 158.316 67.2279 154.871 68.071 151.43C71.2709 175.663 76.4094 200.377 89.9069 220.736C103.404 241.098 127.67 257.499 151.973 255.363H151.966Z" fill="url(#paint4_linear_3_172569)"/>
<path d="M143.534 105.287C144.246 91.0531 134.861 76.8921 121.494 72.0275C108.128 67.1594 91.8594 71.9824 83.286 83.3528C85.1797 82.9477 87.0734 82.5392 88.967 82.1341C81.1505 89.8759 76.3058 100.561 75.625 111.554C77.3839 108.967 79.1428 106.384 80.9017 103.798C77.4806 114.587 82.1872 127.408 91.7695 133.401C91.1821 131.656 90.5946 129.911 90.0106 128.166C94.8139 134.838 103.553 138.418 111.646 137.03C110.779 135.634 109.666 134.98 108.802 133.585C116.957 137.068 126.968 135.711 133.91 130.185C140.849 124.655 143.095 114.168 143.538 105.294L143.534 105.287Z" fill="#7F3E12"/>
<g style="mix-blend-mode:overlay" opacity="0.2">
<path d="M133.7 88.1689C133.513 87.9647 133.319 87.7569 133.123 87.5526C130.089 84.395 126.232 82.0267 122.044 80.7457C111.259 77.4391 99.8659 81.6736 93.3867 89.5677C91.9803 91.2885 90.8088 93.089 89.9035 94.9482C88.7804 97.2265 88.0374 99.5843 87.6573 101.942C85.3144 116.027 95.7607 130.198 115.281 129.374C115.8 129.354 116.315 129.326 116.823 129.288C117.849 129.191 118.861 129.035 119.86 128.817C133.116 125.961 141.108 112.551 139.322 100.211C138.707 95.9073 136.893 91.7213 133.7 88.1724V88.1689Z" fill="black"/>
</g>
<path d="M123.706 83.4532C114.818 80.7318 104.68 84.4434 98.539 91.3578C94.8795 95.4814 92.6403 100.741 92.9375 106.45C93.4835 116.955 102.281 124.652 112.316 126.047C120.828 127.231 130.299 123.644 135.268 116.477C143.327 104.854 137.148 87.5665 123.706 83.4497V83.4532Z" fill="url(#paint5_radial_3_172569)"/>
<path d="M117.144 92.3655C108.318 95.4366 105.146 107.288 110.288 114.625C116.988 124.191 133.838 122.405 137.228 110.744C140.677 98.8782 128.409 88.4461 117.144 92.3655Z" fill="#4FA89F"/>
<path d="M121.501 97.0879C119.476 97.7389 117.669 99.148 116.525 101.378C112.576 109.095 122.237 118.143 129.636 113.52C133.658 111.007 134.681 105.463 132.414 101.437C130.165 97.4307 125.424 95.8311 121.498 97.0914L121.501 97.0879Z" fill="#472113"/>
<path d="M127.449 100.221C125.351 100.626 123.779 102.711 123.983 104.84C124.245 107.593 127.245 109.404 129.812 108.351C134.311 106.506 132.407 99.2589 127.449 100.221Z" fill="white"/>
<path d="M120.202 110.2C119.874 109.933 119.504 109.767 119.086 109.698C118.771 109.636 118.464 109.653 118.163 109.757C117.863 109.805 117.59 109.923 117.344 110.117C117.085 110.29 116.888 110.512 116.75 110.785C116.56 111.038 116.449 111.325 116.408 111.644C116.404 111.851 116.397 112.063 116.394 112.27C116.442 112.679 116.584 113.053 116.826 113.385C116.964 113.531 117.099 113.676 117.237 113.822C117.565 114.088 117.935 114.254 118.353 114.324C118.668 114.386 118.975 114.369 119.276 114.265C119.577 114.216 119.85 114.099 120.095 113.905C120.354 113.732 120.551 113.51 120.689 113.236C120.879 112.984 120.99 112.696 121.031 112.378C121.035 112.17 121.042 111.959 121.045 111.751C120.997 111.342 120.855 110.969 120.613 110.636L120.202 110.2Z" fill="white"/>
<g style="mix-blend-mode:overlay" opacity="0.3">
<path d="M117.144 92.3653C108.311 95.4399 105.146 107.292 110.288 114.621C116.995 124.195 133.834 122.405 137.224 110.743C140.673 98.8711 128.413 88.4459 117.144 92.3618V92.3653ZM135.69 109.601C132.604 120.258 117.206 121.885 111.09 113.146C106.39 106.447 109.286 95.6199 117.344 92.8189C127.639 89.2319 138.838 98.7637 135.69 109.601Z" fill="black"/>
</g>
<path d="M160.118 105.297C159.402 90.9769 168.843 76.7258 182.296 71.8301C195.745 66.9343 212.114 71.785 220.743 83.2247C218.838 82.8161 216.931 82.4076 215.027 81.9955C222.892 89.7858 227.768 100.536 228.452 111.595C226.683 108.995 224.913 106.391 223.141 103.791C226.582 114.646 221.848 127.546 212.204 133.578C212.795 131.822 213.386 130.067 213.976 128.308C209.146 135.022 200.351 138.626 192.206 137.224C193.077 135.821 194.197 135.163 195.067 133.758C186.86 137.262 176.787 135.897 169.804 130.337C162.82 124.773 160.563 114.22 160.118 105.294V105.297Z" fill="#7F3E12"/>
<g style="mix-blend-mode:overlay" opacity="0.2">
<path d="M169.949 88.1689C170.135 87.9647 170.329 87.7569 170.526 87.5526C173.56 84.395 177.416 82.0267 181.604 80.7457C192.389 77.4391 203.782 81.6736 210.262 89.5677C211.668 91.2885 212.839 93.089 213.745 94.9482C214.868 97.2265 215.611 99.5843 215.991 101.942C218.334 116.027 207.888 130.198 188.367 129.374C187.849 129.354 187.334 129.326 186.826 129.288C185.8 129.191 184.787 129.035 183.788 128.817C170.533 125.961 162.54 112.551 164.326 100.211C164.942 95.9073 166.756 91.7213 169.949 88.1724V88.1689Z" fill="black"/>
</g>
<path d="M179.942 83.4532C188.83 80.7318 198.969 84.4434 205.109 91.3578C208.769 95.4814 211.008 100.741 210.711 106.45C210.165 116.955 201.367 124.652 191.332 126.047C182.821 127.231 173.349 123.644 168.38 116.477C160.321 104.854 166.5 87.5665 179.942 83.4497V83.4532Z" fill="url(#paint6_radial_3_172569)"/>
<path d="M186.504 92.3653C195.33 95.4364 198.502 107.288 193.36 114.625C186.66 124.191 169.811 122.405 166.421 110.743C162.972 98.878 175.236 88.4459 186.504 92.3653Z" fill="#4FA89F"/>
<path d="M182.151 97.0879C184.176 97.7389 185.983 99.148 187.127 101.378C191.076 109.095 181.415 118.143 174.016 113.52C169.994 111.007 168.971 105.463 171.238 101.437C173.487 97.4307 178.229 95.8311 182.154 97.0914L182.151 97.0879Z" fill="#472113"/>
<path d="M176.2 100.221C178.298 100.626 179.87 102.711 179.666 104.84C179.403 107.593 176.404 109.404 173.836 108.351C169.337 106.506 171.241 99.2589 176.2 100.221Z" fill="white"/>
<path d="M183.446 110.2C183.774 109.933 184.144 109.767 184.562 109.698C184.877 109.636 185.184 109.653 185.485 109.757C185.786 109.805 186.059 109.923 186.304 110.117C186.563 110.29 186.76 110.512 186.898 110.785C187.088 111.038 187.199 111.325 187.24 111.644C187.244 111.851 187.251 112.063 187.254 112.27C187.206 112.679 187.064 113.053 186.822 113.385C186.684 113.531 186.549 113.676 186.411 113.822C186.083 114.088 185.713 114.254 185.295 114.324C184.98 114.386 184.673 114.369 184.372 114.265C184.072 114.216 183.799 114.099 183.553 113.905C183.294 113.732 183.097 113.51 182.959 113.236C182.769 112.984 182.658 112.696 182.617 112.378C182.613 112.17 182.606 111.959 182.603 111.751C182.651 111.342 182.793 110.969 183.035 110.636L183.446 110.2Z" fill="white"/>
<g style="mix-blend-mode:overlay" opacity="0.3">
<path d="M166.428 110.743C169.818 122.405 186.657 124.191 193.364 114.621C198.506 107.288 195.337 95.4362 186.508 92.3651C175.239 88.4492 162.982 98.8743 166.431 110.747L166.428 110.743ZM186.304 92.8152C194.363 95.6163 197.262 106.447 192.559 113.143C186.442 121.882 171.048 120.254 167.958 109.597C164.81 98.7601 176.007 89.2282 186.304 92.8152Z" fill="black"/>
</g>
<path d="M143.033 150.633C137.926 147.254 131.236 146.395 125.444 148.376C128.952 148.885 132.248 150.73 134.522 153.455C124.691 154.691 115.14 160.286 109.435 168.402C112.607 167.599 115.782 166.795 118.955 165.989C108.256 173.613 102.064 187.161 103.291 200.259C104.579 197.469 106.401 194.924 108.629 192.805C105.83 202.534 107.589 213.478 113.298 221.833C112.603 218.849 113.136 216.328 113.789 213.333C113.93 221.023 116.709 228.644 121.55 234.613C126.388 240.585 133.261 244.872 140.742 246.592C139.567 244.975 139.177 243.736 138.005 242.119C141.976 244.712 145.95 247.302 149.92 249.896C152.467 246.793 155.691 244.965 158.238 241.866C157.965 244.761 157.08 247.593 155.663 250.131C161.728 246.43 167.133 241.652 171.559 236.088C171.887 237.462 171.155 239.228 170.284 240.339C181.256 233.723 188.284 221.009 188.06 208.178C189.518 209.916 190.475 213.78 190.434 216.051C194.128 207.568 194.598 197.721 191.723 188.923C193.305 190.675 194.891 192.424 196.474 194.176C196.612 179.554 187.42 165.265 174.075 159.351C177.071 159.116 180.108 159.417 183.001 160.234C177.655 153.961 168.815 150.896 160.743 152.52C162.046 150.183 161.963 146.949 162.271 144.29C158.656 146.783 155.045 149.276 151.43 151.769C151.316 147.424 148.967 143.196 145.338 140.814C144.879 144.404 143.493 147.043 143.033 150.633Z" fill="url(#paint7_linear_3_172569)"/>
<path d="M143.268 104.501C134.411 113.309 140.044 128.263 146.247 136.839C150.625 142.891 156.202 135.17 158.559 131.338C162.502 124.915 166.082 117.09 163.766 109.483C161.244 101.191 149.574 98.2305 143.268 104.501Z" fill="url(#paint8_linear_3_172569)"/>
<g style="mix-blend-mode:overlay" opacity="0.25">
<path d="M163.766 109.483C162.968 106.862 161.258 104.778 159.091 103.344C161.745 110.262 161.983 117.931 156.762 123.949C152.391 128.64 147.135 130.192 141.996 129.572C143.244 132.255 144.726 134.741 146.246 136.843C150.625 142.895 156.202 135.174 158.559 131.341C162.505 124.918 166.082 117.093 163.766 109.487V109.483Z" fill="black"/>
</g>
<g style="mix-blend-mode:overlay" opacity="0.4">
<path d="M152.439 102.925C143.641 103.587 138.941 113.822 142.366 121.813C142.874 123 144.695 122.152 144.356 120.937C143.458 117.724 143.79 114.171 145.659 111.387C147.38 108.829 150.113 107.513 152.933 106.734C154.913 106.19 154.578 102.763 152.439 102.925Z" fill="white"/>
</g>
<g style="mix-blend-mode:overlay" opacity="0.25">
<path d="M134.916 40.8524C132.607 36.9815 130.112 32.927 126.152 30.7838C128.786 31.2305 131.436 31.6806 133.965 32.5358C136.495 33.391 138.931 34.679 140.794 36.5971C139.228 32.3765 137.888 28.6683 136.322 24.4477C139.425 27.7854 142.369 31.2755 145.137 34.8937C146.143 30.6073 147.947 26.3209 150.57 22.7927C149.567 26.6706 149.512 30.7873 150.411 34.6894C155.47 27.3804 163.431 21.2728 172.001 18.9599C168.998 22.6992 166.455 26.8125 164.447 31.1716C170.204 29.0631 176.345 28.4156 182.371 29.5547C178.695 31.5317 175.332 34.0904 172.447 37.1096C178.045 35.7004 184.334 37.5147 188.332 41.6868C181.39 39.7167 173.909 40.1841 167.236 42.9367C168.711 38.3526 171.611 34.5232 175.723 32.0268C169.603 32.8993 163.725 35.3957 158.839 39.1939C160.027 33.803 162.792 28.4883 166.707 24.6035C160.176 28.1628 154.761 33.7407 151.389 40.378C149.616 37.5147 148.527 34.5336 147.957 31.2132C147.29 34.5267 147.028 37.9232 147.187 41.299C145.583 38.73 144.059 36.289 142.031 34.0385C143.012 36.4552 143.994 38.8719 144.975 41.2886C142.176 38.5118 138.243 36.5971 134.325 36.2024C134.639 37.9024 134.598 39.1593 134.912 40.8593L134.916 40.8524Z" fill="white"/>
</g>
<g style="mix-blend-mode:overlay" opacity="0.2">
<path d="M182.427 59.975C178.961 58.5104 175.26 57.5929 171.511 57.2709C172.488 60.3143 173.777 63.2573 175.357 66.0341C170.816 63.3508 165.902 61.076 160.746 59.9715C160.073 65.3243 158.759 70.594 156.845 75.6352C155.922 71.5185 154.312 67.5575 152.104 63.9671C150.38 69.7215 147.677 75.6525 143.503 79.9666C143.026 72.848 140.97 65.8402 137.521 59.601C135.441 61.8585 133.693 64.4241 132.345 67.1871C131.294 63.3992 131.263 59.9854 131.754 56.0867C127.372 55.924 122.96 56.7342 118.92 58.4446C121.114 54.269 124.857 50.9313 129.252 49.2347C126.989 50.4812 125.962 52.06 124.57 54.2413C127.694 52.6659 131.215 51.8938 134.709 52.015C134.722 55.0723 134.204 57.6725 133.786 60.7021C135.085 58.5069 136.388 56.3118 137.687 54.1201C142.262 58.3165 145.552 63.839 146.527 69.9777C147.826 66.0549 148.8 61.855 149.336 57.7556C152.726 60.3074 155.763 63.6797 157.139 67.696C157.488 63.4546 157.636 59.1959 157.578 54.9372C162.395 56.0106 166.942 58.3857 170.419 61.8931C169.828 59.6183 169.306 56.9939 168.715 54.7191C173.691 55.0342 178.183 57.347 182.423 59.9784L182.427 59.975Z" fill="white"/>
</g>
<g style="mix-blend-mode:overlay" opacity="0.2">
<path d="M97.4538 168.381C92.222 160.653 88.3621 151.994 86.116 142.933C83.6798 148.656 82.5498 154.933 82.8297 161.148C77.4701 151.059 75.1376 139.377 76.2088 128C71.8893 132.338 68.2851 137.39 65.5794 142.884C64.4978 134.274 67.0066 125.268 72.3835 118.464C71.5576 122.138 70.8112 125.244 69.9853 128.917C72.3109 125.136 75.3484 121.799 78.8903 119.126C78.5932 129.357 80.1378 139.637 83.431 149.328C83.9286 143.068 86.154 136.953 89.7927 131.843C90.9573 144.314 92.298 156.969 97.4503 168.381H97.4538Z" fill="white"/>
</g>
<g style="mix-blend-mode:overlay" opacity="0.2">
<path d="M228.476 119.455C233.58 126.414 237.042 134.578 238.501 143.092C236.32 138.418 232.813 134.374 228.49 131.563C227.495 140.042 226.499 148.518 225.504 156.997C224.689 150.325 222.09 143.345 219.008 137.376C214.356 146.451 209.215 155.273 203.613 163.79C205.044 156.775 204.321 149.335 201.571 142.725C198.983 148.355 195.026 153.341 190.133 157.136C192.234 152.908 193.443 148.237 193.658 143.518C194.553 145.776 195.195 146.693 194.819 149.092C196.888 144.951 198.958 140.807 201.028 136.666C204.232 142.521 206.257 149.016 206.948 155.654C210.196 146.703 213.444 137.757 216.692 128.807C220.269 133.017 223.085 137.871 224.972 143.068C224.699 136.874 224.43 130.68 224.157 124.482C227.177 126.774 230.193 129.066 233.214 131.358C232.578 126.899 230.971 123.194 228.469 119.451L228.476 119.455Z" fill="white"/>
</g>
<g style="mix-blend-mode:overlay" opacity="0.5">
<path d="M166.227 162.049C168.753 158.919 172.851 157.129 176.86 157.406C170.26 156.152 163.082 155.411 156.672 157.433C156.949 154.695 157.222 151.952 157.498 149.214C154.83 151.935 152.816 155.29 151.662 158.926C150.618 154.975 149.08 151.156 147.086 147.59C146.506 151.274 146.82 155.096 147.985 158.638C146.755 156.346 144.595 154.663 142.245 153.548C139.895 152.434 137.345 151.831 134.816 151.236C137.701 153.739 139.992 156.481 142.877 158.984C135.351 157.62 127.317 159.32 120.986 163.62C126.325 164.057 131.384 165.03 136.174 167.436C134.947 165.414 132.898 163.908 130.603 163.34C136.298 162.291 142.293 162.935 147.636 165.172C146.651 162.88 145.355 160.84 143.976 158.763C146.385 160.068 148.434 162.028 149.847 164.375C149.55 162.031 149.25 159.684 148.952 157.34C150.245 159.545 151.23 161.934 151.872 164.41C152.367 161.581 153.244 158.797 154.336 156.145C154.222 158.839 154.319 161.54 154.623 164.216C155.943 162.346 157.857 160.961 159.914 159.957C161.97 158.953 166.569 158.081 168.763 157.437C168.058 158.901 166.552 160.494 166.22 162.045L166.227 162.049Z" fill="white"/>
</g>
<g style="mix-blend-mode:overlay" opacity="0.3">
<path d="M62.3521 144.744C62.8635 150.502 63.9174 156.208 65.5346 161.758C66.1221 159.355 66.7095 156.952 67.3005 154.549C66.91 155.096 66.5022 155.64 66.0703 156.166C64.301 152.458 63.1607 148.628 62.3521 144.744Z" fill="black"/>
</g>
<g style="mix-blend-mode:overlay" opacity="0.2">
<path d="M233.849 138.404C230.553 154.927 226.015 171.449 219.008 187.144C218.596 181.774 219.008 175.991 215.711 171.449C212 184.665 205.818 197.056 197.573 208.209C198.398 202.015 200.869 195.405 199.221 188.795C190.153 204.078 183.145 221.425 168.304 232.165C170.778 224.731 171.189 217.294 170.778 209.448C163.77 221.013 157.588 234.644 146.457 242.493C148.517 236.299 150.169 230.101 150.169 223.492C144.809 228.034 142.335 235.056 136.153 238.774C134.505 231.753 133.679 224.319 131.204 217.297C128.319 223.492 127.908 230.513 125.434 237.123C117.6 223.907 109.769 209.864 108.121 194.165C104.41 198.296 106.473 204.078 103.587 208.209C95.3423 199.948 94.9311 187.144 91.2198 176.819C87.5085 181.362 88.3344 187.559 86.6861 192.929C75.9668 177.646 78.0298 159.061 75.1444 141.711C72.5666 145.263 70.7385 149.321 68.292 153.095C71.5091 176.791 76.7167 200.844 89.9032 220.739C103.401 241.101 127.666 257.502 151.969 255.366C182.164 252.71 209.394 229.198 216.468 199.664C216.73 203.749 216.226 207.887 214.992 211.789C227.982 192.78 235.066 169.78 235.028 146.742C236.441 149.041 237.858 151.34 239.271 153.642C237.675 148.514 235.878 143.431 233.853 138.408L233.849 138.404Z" fill="black"/>
</g>
<defs>
<linearGradient id="paint0_linear_3_172569" x1="143.856" y1="216.825" x2="245.591" y2="158.677" gradientUnits="userSpaceOnUse">
<stop offset="0.11" stop-color="#C16A30"/>
<stop offset="0.44" stop-color="#B36128"/>
<stop offset="0.93" stop-color="#98501A"/>
</linearGradient>
<linearGradient id="paint1_linear_3_172569" x1="161.987" y1="218.21" x2="58.5925" y2="163.019" gradientUnits="userSpaceOnUse">
<stop offset="0.11" stop-color="#C16A30"/>
<stop offset="0.44" stop-color="#B36128"/>
<stop offset="0.93" stop-color="#98501A"/>
</linearGradient>
<linearGradient id="paint2_linear_3_172569" x1="203.976" y1="257.765" x2="166.383" y2="257.765" gradientUnits="userSpaceOnUse">
<stop stop-color="#FCC64C"/>
<stop offset="0.04" stop-color="#FBC349"/>
<stop offset="0.71" stop-color="#F4A72C"/>
</linearGradient>
<linearGradient id="paint3_linear_3_172569" x1="97.5679" y1="-0.000158118" x2="135.161" y2="-0.000158118" gradientUnits="userSpaceOnUse">
<stop stop-color="#FCC64C"/>
<stop offset="0.04" stop-color="#FBC349"/>
<stop offset="0.71" stop-color="#F4A72C"/>
</linearGradient>
<linearGradient id="paint4_linear_3_172569" x1="152.643" y1="56.1421" x2="153.677" y2="238.532" gradientUnits="userSpaceOnUse">
<stop offset="0.11" stop-color="#C16A30"/>
<stop offset="0.44" stop-color="#B36128"/>
<stop offset="0.93" stop-color="#98501A"/>
</linearGradient>
<radialGradient id="paint5_radial_3_172569" cx="0" cy="0" r="1" gradientUnits="userSpaceOnUse" gradientTransform="translate(115.889 104.418) scale(22.406 22.4499)">
<stop stop-color="white"/>
<stop offset="0.48" stop-color="#FDFDFD"/>
<stop offset="0.65" stop-color="#F6F8F8"/>
<stop offset="0.77" stop-color="#EAEEEF"/>
<stop offset="0.87" stop-color="#D9E1E1"/>
<stop offset="0.95" stop-color="#C3D0D1"/>
<stop offset="1" stop-color="#B3C3C4"/>
</radialGradient>
<radialGradient id="paint6_radial_3_172569" cx="0" cy="0" r="1" gradientUnits="userSpaceOnUse" gradientTransform="translate(187.759 0.173143) rotate(-180) scale(22.406 22.4499)">
<stop stop-color="white"/>
<stop offset="0.48" stop-color="#FDFDFD"/>
<stop offset="0.65" stop-color="#F6F8F8"/>
<stop offset="0.77" stop-color="#EAEEEF"/>
<stop offset="0.87" stop-color="#D9E1E1"/>
<stop offset="0.95" stop-color="#C3D0D1"/>
<stop offset="1" stop-color="#B3C3C4"/>
</radialGradient>
<linearGradient id="paint7_linear_3_172569" x1="150.912" y1="163.35" x2="147.661" y2="256.816" gradientUnits="userSpaceOnUse">
<stop stop-color="#FCE3AC"/>
<stop offset="1" stop-color="#E8BA67"/>
</linearGradient>
<linearGradient id="paint8_linear_3_172569" x1="151.824" y1="109.878" x2="150.53" y2="140.038" gradientUnits="userSpaceOnUse">
<stop stop-color="#FCC64C"/>
<stop offset="0.04" stop-color="#FBC349"/>
<stop offset="0.71" stop-color="#F4A72C"/>
</linearGradient>
</defs>
</svg>
