<svg width="155" height="254" viewBox="0 0 155 254" fill="none" xmlns="http://www.w3.org/2000/svg">
<g clip-path="url(#clip0_3_168144)">
<path d="M121.089 196.101C120.684 191.333 123.186 186.671 127.589 184.67C131.987 182.67 137.124 183.451 140.424 187.114C144.408 191.534 144.781 197.352 144.002 203.125C141.673 220.401 132.648 235.399 118.852 245.944C120.151 229.311 122.521 212.848 121.089 196.106V196.101Z" fill="url(#paint0_linear_3_168144)"/>
<path opacity="0.17" d="M121.089 196.101C120.684 191.333 123.186 186.671 127.589 184.67C131.987 182.67 137.124 183.451 140.424 187.114C144.408 191.534 144.781 197.352 144.002 203.125C141.673 220.401 132.648 235.399 118.852 245.944C120.151 229.311 122.521 212.848 121.089 196.106V196.101Z" fill="#2B041E"/>
<path d="M34.5492 195.804C34.9639 191.036 32.5072 186.392 28.1089 184.383C23.7105 182.373 18.5601 183.131 15.2374 186.789C11.2265 191.205 10.8482 197.014 11.6093 202.796C13.8883 220.095 22.922 235.075 36.7233 245.619C35.4334 228.996 33.0861 212.533 34.5492 195.804Z" fill="url(#paint1_linear_3_168144)"/>
<path opacity="0.17" d="M34.5492 195.804C34.9639 191.036 32.5072 186.392 28.1089 184.383C23.7105 182.373 18.5601 183.131 15.2374 186.789C11.2265 191.205 10.8482 197.014 11.6093 202.796C13.8883 220.095 22.922 235.075 36.7233 245.619C35.4334 228.996 33.0861 212.533 34.5492 195.804Z" fill="#2B041E"/>
<path d="M36.354 140.28C42.2154 149.236 33.6739 164.101 31.1671 171.984C25.9483 188.388 20.9802 202.997 24.1252 219.657C30.962 255.895 82.6803 255.685 109.572 245.464C121.855 240.797 129.859 231.841 134.166 219.369C139.321 204.449 134.376 188.356 127.94 174.249C121.504 160.142 113.332 146.364 110.42 130.854C85.0003 129.923 60.766 132.837 36.354 140.28Z" fill="url(#paint2_linear_3_168144)"/>
<path d="M48.8107 146.45C45.9894 152.803 45.8891 160.434 44.7815 166.987C43.0632 177.171 41.076 186.246 39.7223 196.462C38.6238 204.751 38.1225 212.93 42.7806 220.42C42.9037 219.25 43.0268 218.022 43.1498 216.83C47.2291 225.639 53.1863 231.266 62.2018 234.833C61.4224 233.362 60.643 231.896 59.8636 230.425C64.1981 235.91 69.3941 238.564 76.3722 238.842C79.8909 235.855 83.7013 233.248 87.22 230.257C86.7278 233.732 85.5382 236.614 83.4233 239.427C86.0258 238.445 88.478 237.783 91.1124 236.737C96.1854 234.732 99.777 231.403 102.384 226.567C102.876 228.891 102.051 230.964 100.957 232.997C104.221 230.827 107.489 228.658 110.752 226.489C110.629 227.937 110.511 229.384 110.388 230.832C115.456 225.47 118.701 219.703 120.67 212.592C121.299 214.277 121.901 215.976 122.53 217.661C123.628 211.985 123.446 206.746 121.947 201.166C122.99 201.472 124.034 201.778 125.082 202.088C123.068 196.727 121.062 191.365 119.084 185.995C120.616 187.237 122.357 188.173 123.893 189.401C122.366 178.204 117.799 168.147 112.065 158.552C106.327 148.957 99.7633 140.125 94.4078 130.338C78.1817 132.672 62.5846 137.326 48.8107 146.441V146.45Z" fill="url(#paint3_linear_3_168144)"/>
<g style="mix-blend-mode:overlay" opacity="0.15">
<path d="M63.186 213.154C59.7813 214.163 56.2443 215.369 54.6582 218.369C52.3155 222.799 55.7749 226.142 60.0639 227.959C68.0721 231.357 77.8305 232.449 86.4722 231.325C93.8515 230.362 106.718 227.941 105.875 218.876C105.26 212.25 96.7548 211.409 91.0073 210.669C82.1559 209.537 71.8505 210.583 63.186 213.149V213.154Z" fill="white"/>
</g>
<path opacity="0.5" d="M109.266 168.782C112.425 172.924 113.975 177.117 114.262 182.368C114.298 183.008 114.262 184.035 114.28 184.716C114.02 184.086 113.687 183.099 113.446 182.515C112.625 180.523 111.682 178.847 110.374 177.222C109.066 175.596 107.557 174.354 105.852 173.18C106.135 172.943 106.418 172.696 106.709 172.454C107.416 174.285 107.903 176.085 108.004 178.057C108.122 180.455 107.644 182.684 106.919 184.958C105.638 183.035 104.271 181.213 102.849 179.391C101.682 177.888 100.515 176.354 99.4395 174.778C99.7448 174.619 100.046 174.459 100.356 174.299C101.099 177.089 100.688 179.432 98.9199 181.752C98.7467 181.98 98.4322 182.282 98.2407 182.519C98.259 181.008 98.2043 179.532 97.8624 178.057C97.5981 176.907 97.1879 175.838 96.6865 174.774C96.8141 174.733 96.9417 174.687 97.0694 174.646C97.1924 176.596 96.7594 178.213 95.6792 179.838C96.5862 178.172 96.9098 176.605 96.6591 174.696C96.6181 174.381 96.5042 173.897 96.4586 173.564C96.6227 173.856 96.8916 174.294 97.0374 174.568C98.2407 176.811 98.8424 178.98 99.0247 181.492C98.7968 181.409 98.5643 181.323 98.3456 181.25C99.7266 179.121 100.196 177.167 99.3574 174.641C98.9563 173.427 98.2043 171.819 97.7576 170.563C98.4914 171.6 99.5808 173.198 100.269 174.148C102.598 177.381 104.977 180.09 107.224 183.264C106.864 183.309 106.509 183.369 106.158 183.419C106.618 181.656 106.896 179.953 106.805 178.121C106.714 176.29 106.308 174.66 105.625 172.906C105.438 172.426 105.078 171.664 104.882 171.148C105.337 171.458 106.053 171.888 106.472 172.189C110.192 174.861 112.566 177.975 114.248 182.195C113.97 182.241 113.697 182.291 113.418 182.341C113.314 177.286 112.006 173.038 109.271 168.787L109.266 168.782Z" fill="#EB985E"/>
<path opacity="0.5" d="M33.5462 211.176C32.9355 215.876 33.2727 220.182 34.6629 224.712C34.3803 224.726 34.0932 224.74 33.8106 224.754C34.2709 222.529 34.7404 220.296 35.2144 218.077C35.497 216.748 35.7841 215.414 36.0622 214.104C36.2399 216.707 36.2536 219.657 36.9008 222.132C37.9993 226.32 39.8543 229.489 42.621 232.704C42.3201 232.942 42.0193 233.198 41.7139 233.444C40.146 230.809 39.4851 228.297 39.6811 225.192C39.7176 224.639 39.8498 223.776 39.9045 223.187C40.1278 223.717 40.4195 224.557 40.6292 225.046C42.3475 229.042 44.631 232.202 47.8261 235.065C48.8972 236.029 50.0458 236.742 51.2308 237.518C47.3293 235.467 44.2892 232.819 41.755 229.224C40.9026 228.014 40.3375 226.763 39.7085 225.448C40.0367 225.402 40.3466 225.352 40.6702 225.306C40.5927 228.078 41.2263 230.421 42.6893 232.777C42.3885 233.029 42.0877 233.271 41.7823 233.522C40.816 232.444 39.8862 231.449 39.1068 230.202C36.7732 226.466 35.5471 222.625 35.2007 218.223C35.5608 218.25 35.9163 218.291 36.281 218.31C36.0029 219.474 35.775 220.447 35.4788 221.657C35.105 223.192 34.6766 224.927 34.2892 226.503C32.6893 221.319 32.3657 216.488 33.5462 211.176Z" fill="#6F340A"/>
<path opacity="0.5" d="M114.978 234.065C117.32 229.667 119.741 225.315 122.17 220.968C121.723 223.986 121.281 227.005 120.825 230.024C120.524 229.887 120.224 229.736 119.923 229.608C122.785 225.735 124.376 222.013 124.905 217.109C125.046 215.798 125.114 213.766 125.242 212.341C125.967 216.286 126.696 220.287 127.425 224.251C127.038 224.26 126.655 224.274 126.267 224.283C126.532 222.397 126.796 220.511 127.06 218.625C127.329 216.739 127.607 214.853 127.885 212.966C127.945 212.569 127.999 212.172 128.063 211.779C128.25 212.062 128.537 212.501 128.701 212.756C129.567 214.085 130.379 215.337 131.217 216.647C130.994 216.725 130.775 216.807 130.556 216.885C130.301 213.149 130.078 209.409 129.9 205.669C130.452 209.843 130.967 214.017 131.436 218.2C130.269 216.565 129.112 214.926 127.958 213.282C128.236 213.213 128.51 213.154 128.788 213.085C128.355 216.908 127.895 220.602 127.425 224.461C127.288 225.589 127.111 226.978 126.978 228.188C126.682 226.64 126.591 226.137 126.245 224.333C125.903 222.525 125.31 219.401 124.923 217.341C125.315 217.268 125.72 217.287 126.122 217.25C125.502 222.255 123.847 226.311 120.689 230.288C120.374 230.681 119.818 231.279 119.472 231.704C119.991 228.804 120.534 225.891 121.067 222.991C121.308 223.087 121.564 223.16 121.796 223.265C121.304 224.059 120.588 225.215 120.137 225.941C118.382 228.754 116.741 231.348 114.978 234.07V234.065Z" fill="#6F340A"/>
<path d="M44.0976 193.16C42.6664 197.855 42.835 202.038 44.7311 206.568C44.4667 206.619 44.2024 206.673 43.938 206.724C44.2708 202.878 45.6108 199.344 46.8323 195.731C46.7776 196.919 46.5862 198.654 46.5543 199.745C46.4084 204.851 47.5069 209.066 49.9453 213.419C50.7566 214.871 51.7639 215.967 52.8305 217.2C52.5114 217.415 52.1924 217.638 51.8688 217.862C50.8432 215.149 50.7931 212.761 51.8414 210.003C52.0556 209.445 52.4704 208.623 52.7074 208.039C52.794 208.669 52.7621 209.582 52.8578 210.176C54.134 218.059 58.5643 222.936 66.0894 225.306C60.2051 224.119 56.1121 220.981 53.2817 215.72C52.3245 213.944 52.083 212.199 51.773 210.272C52.1285 210.331 52.4613 210.391 52.8031 210.446C51.9964 212.884 51.9599 214.935 52.9626 217.387C53.3364 218.296 54.0018 219.556 54.4029 220.515C53.7238 219.767 52.6299 218.762 52.01 218.045C47.2607 212.56 45.3191 206.897 45.4877 199.709C45.8341 199.782 46.1668 199.855 46.5087 199.924C45.7065 202.202 45.0091 204.34 44.763 206.792C44.7174 207.231 44.6901 207.975 44.6445 208.45C44.4622 208.002 44.1431 207.363 43.9836 206.938C42.2015 202.152 42.2288 197.891 44.0884 193.165L44.0976 193.16Z" fill="#D87C3D"/>
<path opacity="0.5" d="M62.8078 156.94C60.9846 159.74 59.1524 162.539 57.3064 165.325C57.2016 165.197 57.1013 165.056 56.9965 164.932C59.5535 163.676 61.3402 162.201 62.8078 159.648C63.3547 158.694 64.0521 157.223 64.6127 156.205C64.3301 157.315 63.8288 158.922 63.5781 159.959C62.6802 163.695 62.8215 166.85 63.7741 170.481C63.4368 170.481 63.0904 170.49 62.7485 170.495C63.569 167.421 64.3939 164.343 65.2235 161.27C65.7385 163.74 66.3083 166.161 67.4751 168.408C68.2818 169.96 69.2754 171.253 70.4104 172.559C70.0594 172.687 69.713 172.901 69.3575 172.984C69.2116 170.869 68.9518 167.207 68.8242 165.458C68.6966 163.708 68.7057 163.864 68.6145 162.498C69.0065 163.256 69.5352 164.27 69.8999 164.905C71.5544 167.777 73.4596 169.91 76.0211 171.906C75.7522 171.979 75.4924 172.061 75.2235 172.139C75.9254 170.44 76.6547 168.764 77.393 167.079C78.3183 164.96 79.2435 162.827 80.1414 160.69C80.4742 163.334 80.816 165.978 81.1305 168.622C80.9664 168.586 80.8069 168.549 80.6428 168.517C82.4979 165.631 83.7285 162.663 84.5079 159.324C83.9427 162.763 82.8351 165.786 81.0895 168.814C80.9983 168.969 80.8297 169.234 80.7294 169.399C80.6929 169.207 80.6382 168.887 80.6109 168.709C80.2417 166.535 79.909 164.403 79.558 162.242C79.8087 162.274 80.0594 162.302 80.3101 162.329C78.9792 165.75 77.5708 169.111 76.2125 172.536C76.1487 172.691 76.0439 172.97 75.971 173.144C75.816 173.034 75.5699 172.87 75.4286 172.769C72.6939 170.737 70.62 168.426 68.888 165.499C69.2572 165.394 69.6264 165.284 69.9956 165.179C70.2372 168.335 70.4787 171.495 70.7112 174.646C70.3784 174.276 69.8497 173.746 69.5489 173.404C67.0512 170.531 65.5243 167.549 64.5945 163.891C64.9774 163.905 65.3511 163.914 65.7294 163.923C64.9135 166.791 64.1114 169.673 63.2955 172.532C63.1542 172.029 62.8944 171.285 62.7759 170.819C61.7686 166.992 61.8142 163.571 62.7759 159.772C63.0311 159.881 63.2818 159.982 63.5371 160.087C61.919 162.603 59.9682 164.284 57.1879 165.421C56.9783 165.508 56.6319 165.613 56.3994 165.7C58.5371 162.781 60.6565 159.84 62.8215 156.936L62.8078 156.94Z" fill="#EB985E"/>
<path opacity="0.17" d="M122.899 163.786C122.243 162.471 121.591 161.155 120.944 159.84C120.556 160.722 120.133 161.585 119.677 162.434C120.757 162.868 121.833 163.32 122.899 163.786Z" fill="#2B041E"/>
<path opacity="0.17" d="M127.999 174.294C126.454 170.833 124.549 167.188 122.908 163.795C121.814 163.311 120.784 162.873 119.663 162.434C110.429 177.857 92.425 182.981 75.2463 182.565C68.6055 181.72 57.0968 182.341 55.2691 173.966C52.7942 162.617 68.7149 159.347 77.5572 157.89C91.4861 155.598 106.24 157.269 119.663 162.434C120.155 161.589 120.547 160.722 120.948 159.845C116.44 150.501 112.411 141.093 110.41 130.85C85.0184 129.937 60.7614 132.832 36.3584 140.285C42.2199 149.241 33.6784 164.106 31.1716 171.988C25.9573 188.392 20.9801 203.006 24.1251 219.671C30.9665 255.913 82.6757 255.671 109.576 245.478C121.864 240.824 129.827 231.823 134.18 219.374C139.385 204.481 134.253 188.278 128.004 174.29L127.999 174.294ZM114.225 232.047C99.6036 246.574 77.5754 248.044 59.7222 238.737C51.2582 234.618 43.5918 227.987 41.3174 219.15C38.8607 209.601 42.7258 199.211 51.9692 198.942C60.342 198.7 65.7568 208.514 77.6346 207.756C89.0202 207.03 106.358 196.334 110.593 197.873C114.554 199.312 116.997 203.499 118.669 208.062C121.732 216.405 120.178 225.069 114.23 232.047H114.225Z" fill="#2B041E"/>
<path d="M44.5808 252.785C44.517 252.831 44.4349 252.885 44.3665 252.917C42.2107 253.972 39.795 253.981 37.8305 252.598C23.7558 242.674 11.413 231.01 0.556152 217.606C0.638194 215.423 1.06664 210.615 1.17147 209.112C1.24895 207.993 1.1897 208.856 1.1897 208.852C1.34011 206.979 1.63637 205.504 1.97821 203.824C2.78952 199.86 3.92899 196.069 5.38295 192.292C7.12862 192.726 8.86062 193.178 10.5607 193.763C12.5069 194.434 14.3984 195.192 16.2398 196.11C18.537 197.257 20.6473 198.645 22.6984 200.179C28.2225 216.09 36.568 230.321 46.2398 244.09C48.2863 247.003 47.4568 250.675 44.5762 252.78L44.5808 252.785Z" fill="url(#paint4_linear_3_168144)"/>
<path d="M8.7878 215.487C6.32199 214.41 2.24724 210.784 1.39491 209.149C0.761367 207.929 1.24906 208.87 1.24906 208.866C1.33566 206.975 1.69573 205.527 1.97376 203.824C3.86984 207.948 6.17613 211.912 8.7878 215.483V215.487Z" fill="#DB7B3A"/>
<path d="M15.5199 207.518C14.1707 202.81 12.5299 198.252 10.5654 193.767C12.5071 194.443 14.3941 195.215 16.2446 196.115C16.4086 199.969 16.1716 203.719 15.5199 207.518Z" fill="#DB7B3A"/>
<path opacity="0.13" d="M46.2444 244.103C36.5771 230.321 28.2271 216.104 22.7029 200.188C20.6564 198.645 18.5324 197.279 16.2444 196.119C15.2234 195.603 14.1842 195.16 13.1313 194.722C24.2389 210.391 32.1833 228.128 31.1122 247.702C33.3775 249.364 35.4285 251.063 37.8214 252.62C39.8816 253.959 42.1377 253.995 44.362 252.922C44.4349 252.885 44.5078 252.835 44.5716 252.789C47.4568 250.675 48.2818 247.022 46.2353 244.108L46.2444 244.103Z" fill="#2B041E"/>
<g style="mix-blend-mode:overlay" opacity="0.25">
<path d="M25.5196 238.303C17.3063 232.088 10.0912 225.046 3.90159 216.798C3.8469 209.126 4.82228 201.864 6.89156 194.48C10.3556 210.213 16.6865 224.854 25.5196 238.303Z" fill="white"/>
</g>
<path d="M110.994 253.104C111.058 253.15 111.14 253.205 111.208 253.242C113.35 254.292 115.78 254.315 117.74 252.931C131.796 242.998 144.139 231.334 154.996 217.94C154.923 215.775 154.499 210.925 154.399 209.45C154.321 208.322 154.381 209.19 154.381 209.19C154.235 207.317 153.943 205.842 153.606 204.162C152.804 200.198 151.678 196.407 150.237 192.63C148.492 193.064 146.76 193.516 145.06 194.101C143.113 194.768 141.222 195.53 139.376 196.448C137.079 197.59 134.964 198.978 132.908 200.508C127.352 216.405 119.007 230.649 109.34 244.414C107.293 247.327 108.118 250.995 110.989 253.104H110.994Z" fill="url(#paint5_linear_3_168144)"/>
<path d="M146.783 215.812C149.239 214.752 153.342 211.09 154.18 209.482C154.823 208.254 154.326 209.199 154.326 209.194C154.244 207.304 153.888 205.856 153.615 204.152C151.71 208.272 149.394 212.24 146.783 215.807V215.812Z" fill="#DB7B3A"/>
<path d="M140.073 207.842C141.436 203.134 143.086 198.581 145.059 194.092C143.118 194.768 141.226 195.535 139.376 196.439C139.203 200.293 139.426 204.038 140.073 207.842Z" fill="#DB7B3A"/>
<path opacity="0.13" d="M109.344 244.418C119.011 230.64 127.357 216.405 132.918 200.508C134.969 198.969 137.093 197.604 139.381 196.444C140.402 195.928 141.441 195.485 142.494 195.046C131.354 210.71 123.392 228.43 124.444 248.022C122.184 249.684 120.133 251.383 117.744 252.94C115.684 254.278 113.433 254.31 111.208 253.237C111.135 253.2 111.062 253.15 110.999 253.105C108.123 250.99 107.298 247.337 109.344 244.418Z" fill="#2B041E"/>
<g style="mix-blend-mode:overlay" opacity="0.25">
<path d="M130.042 238.628C138.25 232.412 145.465 225.37 151.664 217.127C151.737 209.459 150.78 202.198 148.733 194.813C145.228 210.537 138.875 225.183 130.042 238.628Z" fill="white"/>
</g>
<path d="M37.9945 144.971C28.1039 158.187 22.5068 173.408 21.5679 189.908C36.9325 196.891 53.8514 198.563 70.0182 193.379C69.1248 189.488 68.5232 185.538 67.6253 181.647C59.5852 180.976 51.5542 180.245 43.5186 179.555C39.4302 168.389 37.3473 156.886 37.999 144.975L37.9945 144.971Z" fill="url(#paint6_linear_3_168144)"/>
<path opacity="0.17" d="M64.1021 181.364C59.6627 185.049 55.4785 188.31 49.6125 189.52C42.5843 190.973 35.5013 189.548 30.6198 184.086C26.5314 179.51 25.7748 174.431 25.4193 168.631C23.3135 175.614 22.0009 182.597 21.5679 189.908C36.9325 196.896 53.8514 198.563 70.0182 193.379C69.1248 189.484 68.5232 185.538 67.6253 181.642C66.4539 181.556 65.2598 181.423 64.1021 181.364Z" fill="#2B041E"/>
<path d="M76.4542 200.86C76.4314 201.504 76.3995 202.221 76.3129 202.892C76.3129 202.919 76.3083 202.947 76.3038 202.983C76.2992 203.02 76.2946 203.052 76.2855 203.097C76.2764 203.148 76.2582 203.221 76.2536 203.28C76.2536 203.289 76.2536 203.266 76.2536 203.298C76.2536 203.33 76.2263 203.422 76.2126 203.477C76.1989 203.536 76.1853 203.586 76.1625 203.659C76.1397 203.737 76.0804 203.901 76.0485 203.979C76.0166 204.057 75.9938 204.111 75.9665 204.166C75.9391 204.225 75.9209 204.257 75.8935 204.308C75.8662 204.358 75.8389 204.408 75.8115 204.449C75.7842 204.495 75.7568 204.541 75.7295 204.582C75.5289 204.865 75.2919 205.111 75.023 205.322C74.9546 205.376 74.8635 205.436 74.8133 205.468C74.7632 205.5 74.8133 205.468 74.7632 205.5C74.7176 205.532 74.5809 205.6 74.5353 205.628C74.4852 205.65 74.5171 205.637 74.4715 205.659C74.4259 205.682 74.2755 205.746 74.239 205.765C74.198 205.778 74.2071 205.778 74.1935 205.783C73.9883 205.86 73.8015 205.92 73.5873 205.97C73.5781 205.97 73.6009 205.97 73.5508 205.979C73.5007 205.993 73.332 206.034 73.25 206.039C73.2454 206.039 73.2728 206.039 73.2272 206.039C73.1816 206.039 72.9765 206.075 72.9036 206.084C72.8671 206.084 72.9309 206.084 72.8808 206.084C72.8306 206.089 72.5936 206.107 72.5526 206.107C72.507 206.107 72.5298 206.107 72.5253 206.107C71.1898 205.71 70.3739 205.025 69.9227 203.705C67.4751 206.623 65.6474 205.308 65.848 201.636C65.9391 199.933 65.8343 197.9 65.7067 196.005C65.6201 194.745 65.0777 193.306 64.6447 192.032C64.157 190.589 63.7331 189.223 63.25 187.716C62.7668 186.209 62.4113 184.597 63.2363 183.099C63.2636 183.054 63.291 183.003 63.3275 182.967C64.3894 181.884 65.7614 181.291 67.27 181.291C69.3393 181.291 70.9665 181.944 72.3703 183.497C73.9382 185.227 75.1962 187.374 76.6502 189.255C77.9674 190.963 79.2664 193.713 79.394 195.603C79.5626 198.138 78.8881 200.453 76.4633 200.855L76.4542 200.86Z" fill="url(#paint7_linear_3_168144)"/>
<g style="mix-blend-mode:overlay" opacity="0.2">
<path d="M36.7231 164.973C37.1242 171.061 38.4505 176.619 40.9027 182.209C45.7431 182.323 50.5836 182.355 55.4286 182.474C52.7486 183.771 50.1278 185.095 47.1515 185.684C44.1752 186.273 40.0184 187.607 37.3384 185.73C34.043 183.419 34.6492 179.03 34.5763 175.445C34.5034 171.86 35.7431 168.385 36.7231 164.973Z" fill="white"/>
</g>
<path opacity="0.25" d="M76.4542 200.86C76.4314 201.504 76.3995 202.221 76.3129 202.892C76.3129 202.919 76.3083 202.947 76.3038 202.983C76.2992 203.02 76.2946 203.052 76.2855 203.097C76.2764 203.148 76.2582 203.221 76.2536 203.28C76.2536 203.289 76.2536 203.266 76.2536 203.298C76.2536 203.33 76.2263 203.422 76.2126 203.477C76.1989 203.536 76.1853 203.586 76.1625 203.659C76.1397 203.737 76.0804 203.901 76.0485 203.979C76.0166 204.057 75.9938 204.111 75.9665 204.166C75.9391 204.225 75.9209 204.257 75.8935 204.308C75.8662 204.358 75.8389 204.408 75.8115 204.449C75.7842 204.495 75.7568 204.541 75.7295 204.582C75.5289 204.865 75.2919 205.111 75.023 205.322C74.9546 205.376 74.8635 205.436 74.8133 205.468C74.7632 205.5 74.8133 205.468 74.7632 205.5C74.7176 205.532 74.5809 205.6 74.5353 205.628C74.4852 205.65 74.5171 205.637 74.4715 205.659C74.4259 205.682 74.2755 205.746 74.239 205.765C74.198 205.778 74.2071 205.778 74.1935 205.783C73.9883 205.86 73.8015 205.92 73.5873 205.97C73.5781 205.97 73.6009 205.97 73.5508 205.979C73.5007 205.993 73.332 206.034 73.25 206.039C73.2454 206.039 73.2728 206.039 73.2272 206.039C73.1816 206.039 72.9765 206.075 72.9036 206.084C72.8671 206.084 72.9309 206.084 72.8808 206.084C72.8306 206.089 72.5936 206.107 72.5526 206.107C72.507 206.107 72.5298 206.107 72.5253 206.107C71.1898 205.71 70.3739 205.025 69.9227 203.705C67.4751 206.623 65.6474 205.308 65.848 201.636C65.9391 199.933 65.8343 197.9 65.7067 196.005C65.6201 194.745 65.0777 193.306 64.6447 192.032C64.157 190.589 63.7331 189.223 63.25 187.716C62.7668 186.209 62.4113 184.597 63.2363 183.099C63.2636 183.054 63.291 183.003 63.3275 182.967C64.3894 181.884 65.7614 181.291 67.27 181.291C69.3393 181.291 70.9665 181.944 72.3703 183.497C73.9382 185.227 75.1962 187.374 76.6502 189.255C77.9674 190.963 79.2664 193.713 79.394 195.603C79.5626 198.138 78.8881 200.453 76.4633 200.855L76.4542 200.86Z" fill="#2B041E"/>
<path d="M115.005 144.345C124.777 157.571 129.995 173.294 130.83 189.671C115.488 196.626 98.5779 198.234 82.4385 193.119C83.3364 189.219 83.938 185.259 84.8359 181.359C92.8852 180.647 100.93 179.898 108.979 179.213C113.163 167.997 115.428 156.337 115.005 144.34V144.345Z" fill="url(#paint8_linear_3_168144)"/>
<path opacity="0.17" d="M88.3593 181.067C92.8078 184.734 96.9737 187.995 102.84 189.21C109.868 190.662 116.924 189.274 121.832 183.803C125.944 179.222 126.764 174.08 127.165 168.243C129.189 175.281 130.433 182.327 130.825 189.671C115.488 196.631 98.5736 198.229 82.4341 193.119C83.332 189.219 83.9336 185.264 84.8315 181.359C86.0029 181.268 87.2016 181.126 88.3548 181.062L88.3593 181.067Z" fill="#2B041E"/>
<path d="M75.9804 200.627C76.0032 201.271 76.0351 201.983 76.1172 202.659C76.1172 202.686 76.1217 202.714 76.1263 202.75C76.1308 202.787 76.1354 202.819 76.1445 202.865C76.1536 202.915 76.1718 202.988 76.1764 203.047C76.1764 203.056 76.1764 203.034 76.1764 203.066C76.1764 203.097 76.2038 203.189 76.2174 203.244C76.2311 203.298 76.2448 203.353 76.2676 203.426C76.2904 203.504 76.3496 203.668 76.3815 203.746C76.4134 203.824 76.4362 203.878 76.4635 203.933C76.4909 203.988 76.5091 204.025 76.5365 204.075C76.5638 204.125 76.5912 204.175 76.6185 204.216C76.6459 204.262 76.6732 204.308 76.7006 204.349C76.9011 204.632 77.1381 204.879 77.407 205.084C77.4754 205.139 77.5666 205.198 77.6167 205.23C77.6668 205.262 77.6167 205.23 77.6668 205.262C77.7124 205.294 77.8491 205.363 77.8947 205.39C77.9449 205.413 77.913 205.399 77.9585 205.422C78.0041 205.445 78.1545 205.509 78.191 205.527C78.2275 205.541 78.2229 205.541 78.2366 205.545C78.4417 205.623 78.6285 205.678 78.8428 205.733C78.8519 205.733 78.8291 205.733 78.8792 205.742C78.9294 205.755 79.098 205.792 79.1801 205.801C79.1846 205.801 79.1573 205.801 79.2028 205.801C79.2484 205.801 79.4535 205.838 79.5264 205.847C79.5629 205.847 79.4991 205.847 79.5492 205.847C79.5994 205.851 79.8364 205.87 79.8774 205.87C79.923 205.87 79.9002 205.87 79.9048 205.87C81.2402 205.468 82.0606 204.778 82.5119 203.458C84.9594 206.386 86.778 205.043 86.5912 201.38C86.5046 199.681 86.614 197.636 86.7461 195.74C86.8327 194.48 87.3797 193.032 87.8127 191.758C88.3004 190.315 88.7288 188.94 89.212 187.433C89.6951 185.926 90.0506 184.309 89.2302 182.812C89.2028 182.766 89.1755 182.716 89.139 182.679C88.077 181.597 86.7051 181.012 85.1919 181.021C83.1181 181.03 81.4955 181.697 80.0962 183.255C78.5283 184.994 77.2657 187.15 75.8163 189.036C74.4991 190.749 73.191 193.503 73.0634 195.393C72.8902 197.928 73.5602 200.239 75.9804 200.631V200.627Z" fill="url(#paint9_linear_3_168144)"/>
<path opacity="0.13" d="M76.1165 202.659C76.1211 202.718 76.1348 202.792 76.1439 202.855C76.153 202.919 76.1712 202.974 76.1758 203.043C76.1758 203.052 76.1758 203.029 76.1758 203.061C76.1758 203.093 76.2031 203.184 76.2168 203.239C76.2305 203.294 76.2442 203.349 76.267 203.422C76.2897 203.499 76.349 203.664 76.3809 203.741C76.4128 203.819 76.4356 203.874 76.4629 203.929C76.4903 203.988 76.5085 204.02 76.5359 204.07C76.5632 204.121 76.5906 204.171 76.6179 204.212C76.6453 204.258 76.6726 204.303 76.6999 204.344C76.9005 204.627 77.1375 204.874 77.4064 205.08C77.4748 205.134 77.5659 205.194 77.6161 205.226C77.6662 205.258 77.6161 205.226 77.6662 205.258C77.7118 205.285 77.8485 205.358 77.8941 205.386C77.9442 205.408 77.9123 205.395 77.9579 205.417C78.0035 205.44 78.1539 205.504 78.1904 205.523C78.2314 205.536 78.2223 205.536 78.236 205.541C78.4411 205.618 78.6279 205.678 78.8422 205.728C78.8513 205.728 78.8285 205.728 78.8786 205.737C78.9288 205.751 79.0974 205.792 79.1794 205.797C79.184 205.797 79.1567 205.797 79.2022 205.797C79.2478 205.797 79.4529 205.833 79.5258 205.842C79.5623 205.842 79.4985 205.842 79.5486 205.842C79.5988 205.847 79.8358 205.865 79.8768 205.865C79.9224 205.865 79.8996 205.865 79.9041 205.865C81.2396 205.463 82.06 204.774 82.5113 203.454C84.9588 206.381 86.7774 205.038 86.5906 201.376C86.504 199.677 86.6134 197.631 86.7455 195.736C86.8321 194.475 87.3791 193.028 87.8121 191.753C88.2998 190.31 88.7282 188.936 89.2113 187.429C89.6945 185.922 90.05 184.305 89.2296 182.807C88.0081 188.47 85.3964 193.416 84.6216 199.284C84.5441 199.878 83.6416 200.115 83.3864 199.449C82.9944 198.421 82.8531 197.485 82.7255 196.425C81.937 200.097 81.4493 203.783 76.9005 203.038C76.6179 202.992 76.3718 202.769 76.1074 202.668L76.1165 202.659Z" fill="#2B041E"/>
<path opacity="0.13" d="M74.7175 194.402C76.5726 195.046 77.6346 193.535 78.692 192.178C77.4477 195.412 76.4996 198.617 76.053 202.065C76.012 201.581 75.9937 201.088 75.9846 200.609C73.4732 200.44 73.0038 197.622 73.022 195.471C73.0265 194.923 73.3046 193.795 73.5051 193.192C73.8652 193.653 74.0794 194.179 74.713 194.398L74.7175 194.402Z" fill="#2B041E"/>
<g style="mix-blend-mode:overlay" opacity="0.3">
<path d="M80.6201 197.279C80.3922 197.718 80.0503 198.17 79.5262 198.051C79.2481 197.987 79.1342 197.709 79.0977 197.453C79.0613 197.197 79.1342 196.932 79.198 196.677C79.7358 194.658 80.2828 192.598 80.8206 190.593C80.9346 190.169 80.971 189.607 80.5654 189.433C80.1597 189.26 79.8999 189.593 79.6492 189.84C79.0385 190.452 78.4596 191.16 77.858 191.767C77.5936 192.037 77.2746 192.384 76.8735 192.192C76.477 192 76.4997 191.489 76.6228 191.068C77.4432 188.287 78.7513 185.899 80.693 183.739C81.1351 183.245 81.6182 182.816 82.1971 182.533C82.7714 182.25 83.4551 182.067 84.0522 182.337C86.012 183.223 85.7933 185.533 85.1734 187.182C84.3347 189.429 83.4596 191.352 82.5161 193.457C81.9236 194.777 81.281 196.005 80.6155 197.275L80.6201 197.279Z" fill="white"/>
</g>
<g style="mix-blend-mode:overlay" opacity="0.2">
<path d="M115.916 164.572C115.447 170.687 114.07 176.276 111.582 181.884C106.737 181.99 101.896 182.017 97.0513 182.145C99.7267 183.442 102.348 184.766 105.319 185.36C108.291 185.954 112.434 187.301 115.119 185.428C118.423 183.122 117.853 178.706 117.958 175.107C118.063 171.509 116.86 168.01 115.916 164.572Z" fill="white"/>
</g>
<path d="M148.013 120.145C148.209 125.625 146.518 129.964 142.73 133.91C142.995 132.371 143.528 130.695 143.624 129.238C141.254 139.134 127.954 144.811 119.904 147.784C90.3374 158.708 58.0722 158.977 28.1041 150.793C18.6875 148.222 9.28002 143.253 6.35841 133.234C6.64556 134.686 6.96461 136.257 7.26543 137.755C3.55076 134.001 1.97829 129.868 2.25176 124.589C1.49971 125.772 0.747656 126.95 -0.00439453 128.137C0.565341 115.711 7.82605 107.207 17.9354 100.69C17.8124 94.3425 18.1497 87.3049 18.9792 81.0301C22.8807 51.5008 38.373 28.1231 69.9318 26.7622C97.9354 25.5565 115.438 42.632 125.378 66.8226C129.171 76.0477 129.699 84.8434 131.883 94.2968C144.977 97.7219 149.973 111.24 150.214 123.776C149.485 122.566 148.747 121.351 148.008 120.141L148.013 120.145Z" fill="url(#paint10_linear_3_168144)"/>
<path d="M53.3319 35.4575C52.671 35.3844 52.3109 34.8135 51.6591 34.7359C51.6409 34.8135 51.5042 34.8775 51.4404 34.946C48.774 33.037 46.4267 30.9363 44.8542 28.0135C43.4185 25.3465 42.3975 22.7433 42.3064 19.6288C42.1195 13.0936 44.5625 7.81431 49.3301 3.35706C50.228 2.51676 51.2945 2.09205 52.4887 2.36149C52.5115 2.36606 52.5343 2.37976 52.5525 2.38889C53.3045 2.83644 53.7831 3.52604 54.0794 4.34807C55.7157 8.90122 56.1213 13.4818 55.9116 18.2724C55.6473 24.1499 54.6856 29.758 53.3364 35.4575H53.3319Z" fill="url(#paint11_linear_3_168144)"/>
<path d="M53.3317 35.4575C52.6708 35.3844 52.3107 34.8136 51.6589 34.7359C51.6498 34.809 51.4948 34.8821 51.4493 34.9414C48.6781 33.0873 46.5632 30.8632 44.8267 28.0318C47.7528 25.3739 50.2186 22.6155 51.627 18.8342C53.6553 13.3813 53.473 8.06095 52.5614 2.38892C53.2998 2.8319 53.7875 3.52606 54.0837 4.3481C55.72 8.90125 56.1257 13.4818 55.916 18.2724C55.6516 24.15 54.6899 29.7581 53.3408 35.4575H53.3317Z" fill="url(#paint12_linear_3_168144)"/>
<path opacity="0.2" d="M55.9119 18.277C56.1124 14.176 55.7888 10.2119 54.7724 6.21594C55.2145 11.6459 55.3376 16.1945 53.7605 21.6154C52.6894 25.3054 50.1552 28.7716 46.6001 30.6212C47.9994 32.3383 49.5946 33.7267 51.4451 34.946C51.4953 34.8866 51.6457 34.8136 51.6548 34.7405C52.3111 34.8181 52.6666 35.389 53.3275 35.4621C54.6949 29.7718 55.6247 24.1454 55.9073 18.2861L55.9119 18.277Z" fill="#2B041E"/>
<g style="mix-blend-mode:overlay" opacity="0.4">
<path d="M51.0485 3.2749C48.4322 5.16558 46.3219 7.28917 44.8999 10.2302C43.4778 13.1713 43.1223 16.1534 43.259 19.3868C44.6538 13.3128 47.2609 8.19797 51.0485 3.2749Z" fill="white"/>
</g>
<path d="M85.6794 33.1969C86.3403 33.1375 86.7049 32.5758 87.3612 32.5073C87.3749 32.5849 87.5116 32.6535 87.5754 32.722C90.26 30.8632 92.6347 28.8173 94.2527 25.9219C95.7295 23.2823 96.7824 20.7203 96.91 17.6011C97.1835 11.0568 94.7951 5.69989 90.1096 1.13761C89.2254 0.279038 88.1725 -0.177647 86.9692 0.064396C86.9465 0.064396 86.9237 0.0826635 86.9054 0.0917972C86.1443 0.525648 85.6611 1.20154 85.3558 2.01901C83.6648 6.55389 83.1999 11.139 83.3503 15.9388C83.5326 21.83 84.4077 27.4701 85.6794 33.1969Z" fill="url(#paint13_linear_3_168144)"/>
<path d="M85.6792 33.1969C86.3401 33.1375 86.7047 32.5758 87.3611 32.5073C87.3702 32.5804 87.5206 32.658 87.5662 32.7174C90.3556 30.918 92.4978 28.7351 94.2799 25.9447C91.3948 23.2229 88.97 20.4097 87.6209 16.601C85.6746 11.1025 85.9208 5.76839 86.9007 0.0917969C86.1532 0.521081 85.6655 1.20154 85.3601 2.01901C83.6692 6.55389 83.2043 11.139 83.3547 15.9388C83.537 21.83 84.4121 27.4701 85.6838 33.1969H85.6792Z" fill="url(#paint14_linear_3_168144)"/>
<path opacity="0.2" d="M83.3501 15.9434C83.2042 11.8332 83.578 7.86916 84.6445 3.87317C84.134 9.31229 83.9563 13.8837 85.4513 19.3365C86.4677 23.0494 88.9472 26.5704 92.4704 28.4885C91.0483 30.1782 89.4348 31.5346 87.5707 32.7174C87.5251 32.6535 87.3747 32.5804 87.3656 32.5073C86.7138 32.5713 86.3446 33.1376 85.6837 33.1969C84.3984 27.4747 83.5552 21.8209 83.3501 15.9434Z" fill="#2B041E"/>
<g style="mix-blend-mode:overlay" opacity="0.4">
<path d="M88.3955 1.01433C90.9844 2.97351 93.0628 5.1519 94.4438 8.12949C95.8249 11.1071 96.1439 14.0984 95.9616 17.3408C94.6489 11.2167 92.1102 6.0333 88.3955 1.00977V1.01433Z" fill="white"/>
</g>
<path d="M125.41 66.8911C117.644 47.4272 103.386 31.5711 82.2333 27.3741C82.598 24.3189 82.2743 21.5742 81.1486 18.7108C80.8249 20.3823 79.8723 21.4966 78.4321 22.3552C79.5351 18.3546 79.2206 14.8061 77.2652 11.1344C75.9708 16.569 73.309 20.4005 68.5961 23.4101C69.9863 20.944 70.6882 18.5418 70.5104 15.6967C67.762 20.6152 64.3573 24.497 59.8723 27.9084C33.5961 34.2564 22.5159 55.9535 18.938 81.0209C20.8432 77.3172 22.1331 72.2663 24.6764 69.138C30.5606 61.8904 36.8596 57.3875 45.5515 54.4875C58.8058 70.5765 64.9544 91.4607 68.1176 111.751C74.2251 111.13 80.2506 109.902 86.3491 109.24C83.8423 89.4833 82.8942 68.4256 91.8368 50.0531C105.36 51.1446 115.966 57.3692 125.419 66.8957L125.41 66.8911Z" fill="url(#paint15_linear_3_168144)"/>
<path opacity="0.6" d="M19.4941 116.286C15.1733 119.173 12.3291 122.607 10.3419 127.47C10.1003 128.06 9.80407 129.037 9.5625 129.672C10.0137 129.16 10.6518 128.343 11.0666 127.872C12.4887 126.26 13.929 124.986 15.6974 123.876C17.4659 122.767 19.3027 122.077 21.2945 121.52C21.1031 121.205 20.9162 120.881 20.7202 120.561C19.4622 122.059 18.4094 123.598 17.6755 125.425C16.7822 127.649 16.5178 129.9 16.4677 132.279C18.3045 130.877 20.196 129.603 22.1286 128.338C23.7193 127.297 25.3191 126.219 26.846 125.077C26.609 124.831 26.372 124.584 26.135 124.333C24.5306 126.726 24.1614 129.069 25.0867 131.827C25.1778 132.097 25.3784 132.485 25.4832 132.768C25.9572 131.339 26.4859 129.959 27.2836 128.676C27.9034 127.676 28.6372 126.795 29.4531 125.95C29.3483 125.868 29.2389 125.785 29.1341 125.708C28.3911 127.507 28.2772 129.174 28.774 131.06C28.4595 129.192 28.6509 127.607 29.5032 125.886C29.6445 125.603 29.9089 125.178 30.0593 124.877C29.8132 125.1 29.4121 125.429 29.1842 125.644C27.3291 127.375 26.0529 129.233 25.073 131.549C25.3145 131.549 25.5607 131.535 25.7931 131.54C25.1733 129.083 25.3647 127.091 26.9691 124.977C27.7393 123.959 28.97 122.675 29.7995 121.629C28.7694 122.374 27.2243 123.538 26.2671 124.214C23.0174 126.521 19.8861 128.311 16.7275 130.58C17.0557 130.736 17.3702 130.909 17.6892 131.069C17.8214 129.261 18.1131 127.566 18.7922 125.868C19.4759 124.169 20.392 122.762 21.5999 121.328C21.928 120.935 22.5206 120.332 22.8761 119.908C22.3428 120.054 21.5224 120.232 21.0301 120.383C16.6546 121.716 13.382 123.876 10.4103 127.311C10.661 127.448 10.9025 127.58 11.1486 127.717C12.8943 122.977 15.5288 119.41 19.485 116.286H19.4941Z" fill="#DD8345"/>
<path opacity="0.6" d="M134.316 114.519C138.769 117.327 141.472 120.89 143.364 125.84C143.592 126.443 143.883 127.452 144.111 128.101C143.665 127.585 143.036 126.753 142.621 126.274C141.212 124.639 139.804 123.356 138.031 122.237C136.253 121.118 134.403 120.488 132.375 120.008C132.575 119.67 132.776 119.332 132.981 118.99C134.262 120.501 135.301 122.027 136.003 123.904C136.855 126.192 137.088 128.525 137.088 130.964C135.26 129.553 133.359 128.311 131.404 127.073C129.799 126.055 128.181 125 126.627 123.895C126.873 123.63 127.115 123.374 127.361 123.109C129.025 125.548 129.294 127.959 128.327 130.763C128.232 131.037 128.017 131.453 127.908 131.745C127.448 130.302 126.928 128.904 126.126 127.612C125.501 126.607 124.768 125.73 123.943 124.89C124.052 124.803 124.161 124.717 124.271 124.63C125.018 126.475 125.091 128.178 124.562 130.092C124.909 128.197 124.749 126.575 123.888 124.822C123.747 124.534 123.478 124.123 123.323 123.821C123.573 124.041 123.984 124.356 124.216 124.566C126.103 126.283 127.375 128.137 128.346 130.471C128.099 130.475 127.844 130.48 127.607 130.485C128.268 128 128.15 125.931 126.5 123.794C125.707 122.767 124.467 121.538 123.619 120.497C124.672 121.214 126.249 122.337 127.224 122.99C130.533 125.214 133.696 126.941 136.851 129.215C136.518 129.384 136.194 129.571 135.871 129.745C135.77 127.9 135.52 126.132 134.85 124.401C134.18 122.671 133.273 121.273 132.051 119.83C131.718 119.437 131.126 118.844 130.766 118.419C131.308 118.547 132.147 118.693 132.648 118.825C137.129 120.004 140.324 122.168 143.273 125.68C143.017 125.826 142.771 125.972 142.516 126.119C140.866 121.291 138.377 117.606 134.298 114.523L134.316 114.519Z" fill="#DD8345"/>
<path d="M76.0347 112.605C77.3838 115.017 78.2999 117.474 78.8013 120.195C79.3027 122.917 79.3163 125.557 78.9107 128.292C78.2635 125.708 77.7895 123.091 77.3109 120.474C76.8323 117.857 76.3583 115.25 76.0347 112.61V112.605Z" fill="#984F1A"/>
<path d="M57.5664 124.502C58.0359 122.776 58.9201 121.657 60.5017 120.817C60.5154 122.78 59.4762 124.073 57.5664 124.502Z" fill="#984F1A"/>
<path d="M94.2891 115.871C95.3875 116.583 96.208 117.396 96.96 118.487C97.197 118.834 97.4112 119.291 97.5753 119.702C97.074 119.688 96.5863 119.643 96.1442 119.373C94.8178 118.57 94.1432 117.442 94.2891 115.875V115.871Z" fill="#984F1A"/>
<g style="mix-blend-mode:overlay" opacity="0.25">
<path d="M79.7584 29.6165C80.5287 26.9312 80.8614 24.3053 80.793 21.5104C79.5305 24.4651 77.7894 26.6298 75.0547 28.3332C76.8049 24.8076 77.4476 21.3962 77.1331 17.4733C74.4667 21.862 71.0939 24.8259 66.4676 27.0226C67.0009 25.0862 67.5342 23.1544 68.0674 21.2181C66.3901 24.15 64.2798 26.301 61.3901 28.041C63.1176 27.7259 64.453 27.0226 65.5925 25.6708C65.3099 27.3285 64.7356 28.7488 63.7785 30.1326C68.0492 29.1187 71.4676 27.2509 74.6353 24.2094C74.1294 26.9404 73.35 29.5115 72.1923 32.0415C74.886 30.676 77.1194 28.9635 79.1477 26.7257C79.4485 27.6847 79.7721 28.5981 79.7584 29.6165Z" fill="white"/>
</g>
<path d="M88.4867 123.159C88.0628 125.036 87.5934 126.918 87.01 128.758C86.0483 131.782 84.8587 134.668 83.4366 137.504C80.4421 138.175 77.5797 138.472 74.5305 138.061C74.5168 138.038 74.4986 138.015 74.4804 137.988C72.2424 134.531 70.5059 130.928 69.0884 127.069C72.3382 127.722 75.3372 128.005 78.6508 127.384C82.2288 126.717 85.4284 125.141 88.4867 123.155V123.159Z" fill="white"/>
<g opacity="0.7">
<path d="M88.4867 123.159C88.0765 125.032 87.5706 126.927 87.0191 128.749C85.278 128.598 84.0656 128.407 82.3609 129.32C78.8149 131.22 76.3673 134.38 74.4849 137.988C72.2424 134.544 70.5059 130.932 69.0884 127.073C72.3382 127.726 75.3372 128.009 78.6508 127.388C82.2288 126.721 85.4284 125.146 88.4867 123.159Z" fill="#C9C5BE"/>
</g>
<path d="M59.0202 123.063C68.3957 127.356 77.9627 127.703 87.4021 123.406C90.5106 121.99 93.0493 119.931 95.6747 117.798C93.3684 120.437 91.1077 122.762 87.9536 124.452C78.4778 129.53 67.9627 129.133 59.0202 123.063Z" fill="#984F1A"/>
<path opacity="0.13" d="M150.219 123.776C149.954 111.235 145.023 97.7265 131.855 94.2877C130.802 89.5427 130.378 84.6836 129.357 79.9249C124.603 86.5149 119.284 91.1365 111.937 94.7443C100.438 99.5806 87.8213 99.4482 75.9526 96.3427C54.3665 90.6936 38.9836 71.9649 40.2324 49.3818C40.515 44.2898 41.9644 39.5494 43.5734 34.7405C28.2771 45.7557 21.5406 62.7764 18.9335 81.1443C18.1039 87.0081 17.8624 94.5251 17.9307 100.677C7.835 107.216 0.569736 115.702 0 128.133C0.752051 126.945 1.5041 125.767 2.25615 124.584C1.97812 129.863 3.55515 133.996 7.26983 137.75C6.96901 136.252 6.64995 134.681 6.36281 133.229C9.28441 143.249 18.6919 148.218 28.1085 150.789C58.0766 158.973 90.3418 158.703 119.909 147.779C127.953 144.806 141.258 139.13 143.628 129.233C143.532 130.69 142.999 132.366 142.735 133.905C146.518 129.959 148.213 125.621 148.017 120.141C148.756 121.351 149.49 122.561 150.223 123.776H150.219ZM127.739 133.818C109.234 146.455 78.3683 151.624 54.608 146.907C40.7156 144.153 17.0055 140.97 21.3674 121.593C24.0884 109.5 39.7356 107.376 49.8268 105.979C62.1057 104.28 73.7876 104.536 86.0073 104.805C98.6463 105.084 111.386 105.983 124.061 106.865C126.819 107.057 129.654 106.157 132.662 107.975C145.465 115.72 141.773 124.237 127.744 133.818H127.739Z" fill="#2B041E"/>
<path d="M89.5443 101.33C79.5671 98.8819 70.6792 100.101 61.9053 105.499C65.0912 111.897 69.8907 115.396 76.9873 116.286C83.4458 113.144 88.0903 108.541 89.5488 101.33H89.5443Z" fill="url(#paint16_linear_3_168144)"/>
<path opacity="0.7" d="M85.3875 106.755C77.0876 112.984 69.599 112.779 62.001 105.435C61.9554 105.454 61.9372 105.476 61.9053 105.495C65.0912 111.893 69.8907 115.391 76.9873 116.282C83.4458 113.14 88.0903 108.536 89.5443 101.325C89.403 101.28 89.2161 101.229 89.1022 101.193C88.1359 103.385 87.4659 105.193 85.3875 106.755Z" fill="#0C0126"/>
<g style="mix-blend-mode:overlay" opacity="0.4">
<path d="M64.0386 105.376C71.3221 101.439 78.3367 100.343 86.5044 101.581C79.1343 104.709 72.0194 105.846 64.0386 105.376Z" fill="white"/>
</g>
<g opacity="0.5">
<path d="M91.559 93.6666C93.5234 104.298 101.969 109.568 112.908 107.527C123.847 105.481 129.075 98.3521 127.398 87.7023C125.72 77.0569 116.746 69.9692 106.386 71.7137C96.0257 73.4537 89.5991 83.0395 91.559 93.6666Z" fill="#C16A32"/>
</g>
<path d="M92.3293 88.5655C92.1789 98.6765 98.6511 105.504 108.838 105.431C119.029 105.358 125.224 98.9733 125.26 88.9034C125.296 78.8335 119.221 71.7869 109.02 71.6864C98.8197 71.5859 92.4797 78.4499 92.3247 88.5655H92.3293Z" fill="#C1BCB4"/>
<path d="M92.5163 88.5381C92.3658 98.5578 98.8016 105.344 108.897 105.271C118.993 105.198 125.155 98.8501 125.192 88.8761C125.228 78.9021 119.184 71.8919 109.08 71.796C98.9748 71.7001 92.6667 78.523 92.5163 88.5427V88.5381Z" fill="#C3BEB6"/>
<path d="M92.7031 88.5107C92.5573 98.4345 98.9565 105.184 108.957 105.111C118.957 105.043 125.087 98.7268 125.123 88.8441C125.16 78.9614 119.148 71.9924 109.139 71.8965C99.1297 71.8006 92.8581 78.587 92.7077 88.5107H92.7031Z" fill="#C5C0B9"/>
<path d="M92.8945 88.4879C92.7487 98.3157 99.1161 105.024 109.016 104.961C118.92 104.892 125.014 98.608 125.05 88.8212C125.087 79.0345 119.107 72.1066 109.194 72.0107C99.2801 71.9147 93.0404 78.66 92.8945 88.4879Z" fill="#C7C2BB"/>
<path d="M93.0811 88.4605C92.9352 98.1924 99.2661 104.865 109.075 104.801C118.879 104.737 124.945 98.4847 124.982 88.7893C125.018 79.0984 119.07 72.207 109.252 72.1111C99.4348 72.0152 93.2269 78.7239 93.0856 88.4559L93.0811 88.4605Z" fill="#C9C5BE"/>
<path d="M93.268 88.4331C93.1267 98.0737 99.4211 104.705 109.129 104.641C118.838 104.577 124.868 98.3568 124.909 88.7619C124.945 79.1624 119.029 72.3121 109.307 72.2207C99.5852 72.1248 93.4138 78.797 93.2725 88.4331H93.268Z" fill="#CBC7C0"/>
<path d="M93.4599 88.4057C93.3186 97.9504 99.5765 104.545 109.194 104.481C118.806 104.422 124.804 98.2335 124.841 88.7299C124.877 79.2263 118.989 72.4171 109.362 72.3258C99.7361 72.2344 93.5966 78.8609 93.4599 88.4057Z" fill="#CDC9C3"/>
<path d="M93.6467 88.3782C93.5099 97.827 99.7314 104.385 109.248 104.326C118.765 104.266 124.731 98.1102 124.768 88.7024C124.804 79.2947 118.947 72.5221 109.417 72.4307C99.8864 72.3394 93.7834 78.9294 93.6421 88.3782H93.6467Z" fill="#CFCBC5"/>
<path d="M93.8332 88.3509C93.6964 97.7038 99.886 104.221 109.307 104.166C118.728 104.106 124.658 97.9869 124.695 88.6705C124.731 79.3587 118.906 72.6272 109.471 72.5359C100.036 72.4445 93.9653 78.998 93.8286 88.3509H93.8332Z" fill="#D1CDC7"/>
<path d="M94.0246 88.3234C93.8924 97.585 100.041 104.061 109.366 104.006C118.692 103.951 124.59 97.859 124.626 88.6431C124.663 79.4226 118.87 72.7322 109.531 72.6408C100.191 72.5495 94.1568 79.0618 94.02 88.3234H94.0246Z" fill="#D3CFCA"/>
<path d="M94.2116 88.296C94.0794 97.4617 100.196 103.901 109.426 103.846C118.656 103.791 124.517 97.7357 124.558 88.6111C124.594 79.4865 118.833 72.8326 109.59 72.7459C100.346 72.6591 94.3438 79.1303 94.2116 88.296Z" fill="#D5D2CC"/>
<path d="M94.403 88.2686C94.2708 97.3384 100.351 103.741 109.49 103.691C118.624 103.641 124.453 97.6124 124.49 88.5837C124.531 79.5551 118.797 72.9423 109.649 72.8555C100.501 72.7687 94.5352 79.2034 94.403 88.2732V88.2686Z" fill="#D7D4CF"/>
<path d="M94.5899 88.2412C94.4623 97.2151 100.506 103.581 109.544 103.531C118.583 103.481 124.376 97.4891 124.417 88.5517C124.458 79.6144 118.756 73.0427 109.704 72.956C100.652 72.8692 94.7175 79.2628 94.5899 88.2412Z" fill="#D9D6D1"/>
<path d="M94.7769 88.2138C94.6493 97.0963 100.661 103.417 109.604 103.371C118.546 103.326 124.307 97.3612 124.348 88.5244C124.389 79.6829 118.715 73.1478 109.763 73.0656C100.807 72.9788 94.9045 79.3359 94.7815 88.2184L94.7769 88.2138Z" fill="#DBD8D3"/>
<path d="M94.9682 88.191C94.8451 96.9776 100.816 103.262 109.663 103.216C118.51 103.17 124.239 97.2425 124.275 88.4969C124.316 79.7514 118.674 73.2574 109.818 73.1706C100.957 73.0884 95.0912 79.4043 94.9682 88.191Z" fill="#DDDAD6"/>
<path d="M95.1552 88.1636C95.0321 96.8544 100.971 103.102 109.722 103.056C118.473 103.015 124.166 97.1147 124.207 88.4651C124.248 79.8154 118.637 73.3579 109.877 73.2757C101.112 73.1935 95.2783 79.4684 95.1598 88.1636H95.1552Z" fill="#DFDCD8"/>
<path d="M95.3421 88.1362C95.2236 96.731 101.121 102.942 109.777 102.901C118.432 102.86 124.093 96.9959 124.134 88.4376C124.175 79.8793 118.596 73.4629 109.932 73.3807C101.267 73.2985 95.4651 79.5368 95.3421 88.1316V88.1362Z" fill="#E1DFDB"/>
<path d="M95.5335 88.1088C95.415 96.6123 101.281 102.782 109.841 102.741C118.4 102.7 124.025 96.8726 124.066 88.4102C124.107 79.9478 118.56 73.5725 109.991 73.4903C101.422 73.4081 95.652 79.6099 95.5335 88.1088Z" fill="#E3E1DD"/>
<path d="M95.7204 88.0814C95.6064 96.4889 101.436 102.618 109.895 102.581C118.359 102.545 123.952 96.7447 123.993 88.3782C124.034 80.0117 118.519 73.6729 110.041 73.5953C101.568 73.5131 95.8343 79.6738 95.7158 88.0814H95.7204Z" fill="#E5E3E0"/>
<path d="M95.9074 88.054C95.7935 96.3657 101.587 102.458 109.955 102.421C118.323 102.385 123.884 96.6214 123.925 88.3463C123.966 80.0711 118.483 73.778 110.101 73.6958C101.723 73.6182 96.0214 79.7377 95.9074 88.0494V88.054Z" fill="#E7E5E2"/>
<path d="M96.0988 88.0266C95.9849 96.2469 101.746 102.298 110.019 102.266C118.291 102.234 123.815 96.4981 123.856 88.3189C123.897 80.1396 118.446 73.8831 110.16 73.8054C101.878 73.7278 96.2082 79.8108 96.0988 88.0266Z" fill="#E9E7E4"/>
<path d="M96.2857 87.9991C96.1763 96.1236 101.901 102.138 110.073 102.106C118.246 102.074 123.742 96.3748 123.783 88.2914C123.824 80.2081 118.401 73.988 110.215 73.9104C102.029 73.8328 96.3951 79.8747 96.2857 87.9991Z" fill="#EBE9E7"/>
<path d="M96.4723 87.9718C96.3629 96.0003 102.051 101.974 110.132 101.946C118.209 101.919 123.669 96.2469 123.715 88.2595C123.756 80.2721 118.364 74.0932 110.274 74.0155C102.183 73.9379 96.5816 79.9433 96.4768 87.9718H96.4723Z" fill="#EDECE9"/>
<path d="M96.664 87.9444C96.5592 95.877 102.211 101.814 110.192 101.787C118.173 101.759 123.601 96.1236 123.642 88.2275C123.683 80.3315 118.323 74.1936 110.329 74.1205C102.334 74.0475 96.7689 80.0118 96.664 87.9444Z" fill="#EFEEEC"/>
<path d="M96.8506 87.9169C96.7457 95.7582 102.361 101.654 110.251 101.631C118.136 101.608 123.528 96.0003 123.573 88.2001C123.619 80.3999 118.286 74.2986 110.387 74.2255C102.489 74.1525 96.9554 80.0757 96.8506 87.9169Z" fill="#F1F0EE"/>
<path d="M97.0375 87.8941C96.9372 95.6395 102.516 101.499 110.305 101.476C118.095 101.453 123.455 95.8815 123.501 88.1772C123.546 80.4729 118.245 74.4127 110.442 74.3397C102.639 74.2666 97.1423 80.1533 97.0375 87.8986V87.8941Z" fill="#F3F2F0"/>
<path d="M97.2289 87.8668C97.1286 95.5163 102.676 101.339 110.369 101.316C118.063 101.293 123.391 95.7537 123.432 88.1454C123.478 80.5324 118.209 74.5133 110.501 74.4403C102.794 74.3672 97.3292 80.2173 97.2289 87.8668Z" fill="#F5F4F3"/>
<path d="M97.4158 87.8394C97.3201 95.393 102.826 101.175 110.424 101.156C118.022 101.138 123.314 95.6304 123.359 88.1134C123.405 80.5964 118.168 74.6138 110.556 74.5453C102.944 74.4768 97.5161 80.2812 97.4158 87.8394Z" fill="#F7F6F5"/>
<path d="M97.6028 87.8119C97.5071 95.2742 102.981 101.015 110.483 100.996C117.986 100.978 123.245 95.5025 123.291 88.0814C123.337 80.6602 118.127 74.7188 110.616 74.6503C103.1 74.5818 97.7031 80.3497 97.6074 87.8119H97.6028Z" fill="#F9F9F8"/>
<path d="M97.7941 87.7845C97.6984 95.1509 103.136 100.855 110.543 100.841C117.949 100.827 123.172 95.3838 123.218 88.0586C123.264 80.7333 118.086 74.8284 110.666 74.7599C103.245 74.6914 97.8807 80.4228 97.7896 87.7845H97.7941Z" fill="#FBFBFA"/>
<path d="M97.9811 87.7571C97.89 95.0275 103.291 100.695 110.602 100.681C117.913 100.668 123.104 95.2604 123.15 88.0265C123.195 80.7926 118.049 74.9334 110.725 74.8649C103.4 74.7964 98.0723 80.4867 97.9811 87.7571Z" fill="#FDFDFD"/>
<path d="M98.1725 87.7297C98.0814 94.9043 103.451 100.535 110.666 100.521C117.881 100.512 123.036 95.1326 123.086 87.9946C123.132 80.8566 118.018 75.0339 110.789 74.9654C103.56 74.9014 98.2637 80.5506 98.1771 87.7252L98.1725 87.7297Z" fill="white"/>
<path d="M95.4149 89.3464C95.3466 95.1508 99.2891 100.229 105.306 100.234C111.322 100.238 115.21 95.2696 115.246 89.4971C115.283 83.7246 111.454 78.5366 105.456 78.4818C99.4532 78.4316 95.4833 83.5419 95.4149 89.3418V89.3464Z" fill="url(#paint17_linear_3_168144)"/>
<path d="M95.1415 84.7338C95.1142 86.7387 96.3904 88.6111 98.5007 88.6202C100.611 88.6339 101.933 86.7798 101.951 84.7795C101.969 82.7792 100.711 80.8977 98.601 80.8794C96.4907 80.8611 95.1689 82.729 95.1415 84.7338Z" fill="white"/>
<path d="M106.628 94.1781C106.618 95.4887 107.48 96.6898 108.852 96.6898C110.224 96.6898 111.076 95.5207 111.076 94.21C111.076 92.9039 110.237 91.6891 108.861 91.68C107.484 91.6709 106.637 92.8628 106.628 94.1735V94.1781Z" fill="white"/>
<g opacity="0.5">
<path d="M21.6046 93.8401C19.6128 104.435 25.6748 111.664 36.1807 113.784C46.6912 115.903 55.6474 111.719 57.8763 101.147C60.1051 90.5748 53.446 81.3634 43.3503 79.2901C33.2546 77.2167 23.5964 83.245 21.6046 93.8401Z" fill="#C16A32"/>
</g>
<path d="M23.528 94.1644C23.3548 104.184 29.4533 111.231 39.6173 111.413C49.7814 111.596 56.0713 104.791 56.2126 94.7855C56.3539 84.784 50.3284 77.7009 40.1688 77.4908C30.0093 77.2807 23.7012 84.1447 23.528 94.1644Z" fill="#C1BCB4"/>
<path d="M23.7149 94.1415C23.5462 104.065 29.6082 111.075 39.6766 111.253C49.7449 111.436 56.0029 104.668 56.1396 94.758C56.2764 84.8479 50.2828 77.8059 40.2235 77.5958C30.1597 77.3857 23.8835 84.2131 23.7149 94.1369V94.1415Z" fill="#C3BEB6"/>
<path d="M23.9019 94.1187C23.7332 103.947 29.7679 110.916 39.736 111.098C49.7086 111.276 55.9347 104.549 56.0714 94.7307C56.2082 84.9165 50.2465 77.911 40.2784 77.7055C30.3103 77.5 24.0705 84.2863 23.9019 94.1187Z" fill="#C5C0B9"/>
<path d="M24.0887 94.0913C23.9246 103.828 29.9228 110.756 39.7998 110.934C49.6767 111.112 55.8663 104.422 56.003 94.6987C56.1398 84.9759 50.21 78.016 40.3376 77.8105C30.4652 77.605 24.2574 84.3548 24.0933 94.0913H24.0887Z" fill="#C7C2BB"/>
<path d="M24.2756 94.0684C24.1115 103.709 30.0777 110.6 39.859 110.779C49.6402 110.957 55.7979 104.303 55.9301 94.6713C56.0668 85.0443 50.1643 78.121 40.3877 77.92C30.611 77.7191 24.4351 84.4278 24.271 94.0684H24.2756Z" fill="#C9C5BE"/>
<path d="M24.4623 94.0456C24.2982 103.595 30.2326 110.445 39.9181 110.619C49.6036 110.792 55.7294 104.179 55.8616 94.6438C55.9937 85.1082 50.1278 78.226 40.4468 78.025C30.7659 77.8241 24.6264 84.4963 24.4623 94.041V94.0456Z" fill="#CBC7C0"/>
<path d="M24.6492 94.0182C24.4896 103.472 30.3921 110.285 39.9773 110.459C49.5671 110.632 55.6564 104.056 55.7886 94.6165C55.9208 85.1768 50.0867 78.3311 40.5015 78.1347C30.9162 77.9338 24.8087 84.5648 24.6492 94.0228V94.0182Z" fill="#CDC9C3"/>
<path d="M24.8318 93.9954C24.6723 103.357 30.5428 110.13 40.0369 110.299C49.531 110.473 55.5884 103.933 55.7206 94.5845C55.8528 85.2362 50.046 78.4361 40.5565 78.2397C31.067 78.0434 24.9913 84.6333 24.8318 93.9954Z" fill="#CFCBC5"/>
<path d="M25.0183 93.9726C24.8588 103.239 30.6974 109.97 40.0958 110.144C49.4942 110.313 55.5197 103.814 55.6473 94.5617C55.7795 85.3093 50.0047 78.5458 40.6108 78.3494C31.217 78.153 25.1779 84.7065 25.0183 93.9726Z" fill="#D1CDC7"/>
<path d="M25.2052 93.9451C25.0502 103.12 30.8524 109.81 40.155 109.979C49.4577 110.148 55.4467 103.686 55.5789 94.5251C55.7065 85.364 49.9682 78.6416 40.6655 78.4498C31.3674 78.258 25.3601 84.7703 25.2052 93.9451Z" fill="#D3CFCA"/>
<path d="M25.3922 93.9223C25.2372 103.001 31.0121 109.655 40.219 109.824C49.4259 109.993 55.3831 103.567 55.5107 94.5023C55.6383 85.4371 49.9273 78.7512 40.7249 78.564C31.5226 78.3722 25.5472 84.848 25.3922 93.9269V93.9223Z" fill="#D5D2CC"/>
<path d="M25.5792 93.8949C25.4243 102.882 31.1672 109.495 40.2784 109.66C49.3896 109.824 55.3149 103.44 55.4379 94.4657C55.5656 85.4919 49.8864 78.8517 40.7798 78.6599C31.6686 78.4726 25.7342 84.9073 25.5792 93.8903V93.8949Z" fill="#D7D4CF"/>
<path d="M25.7661 93.872C25.6157 102.764 31.3221 109.34 40.3376 109.504C49.3531 109.669 55.2419 103.321 55.3696 94.4429C55.4926 85.5604 49.8499 78.9613 40.8345 78.774C31.819 78.5868 25.9165 84.9804 25.7661 93.8766V93.872Z" fill="#D9D6D1"/>
<path d="M25.9526 93.8493C25.8022 102.65 31.4768 109.185 40.4011 109.345C49.3209 109.504 55.1778 103.198 55.3008 94.411C55.4239 85.6244 49.8086 79.0618 40.8934 78.8792C31.9736 78.6919 26.103 85.049 25.9526 93.8493Z" fill="#DBD8D3"/>
<path d="M26.1397 93.8218C25.9892 102.526 31.6365 109.02 40.4605 109.185C49.2846 109.349 55.1096 103.074 55.2326 94.3835C55.3557 85.6882 49.7723 79.1668 40.9482 78.9841C32.1242 78.8014 26.2901 85.1174 26.1397 93.8218Z" fill="#DDDAD6"/>
<path d="M26.3265 93.799C26.1807 102.412 31.7914 108.865 40.5198 109.025C49.2481 109.185 55.0366 102.951 55.1597 94.3516C55.2828 85.7523 49.7312 79.2719 41.0029 79.0892C32.2745 78.9065 26.4724 85.186 26.3265 93.799Z" fill="#DFDCD8"/>
<path d="M26.5133 93.7762C26.3675 102.293 31.9463 108.71 40.5835 108.865C49.2207 109.02 54.9728 102.828 55.0913 94.3242C55.2098 85.8162 49.6902 79.3769 41.0576 79.1988C32.4249 79.0207 26.6546 85.259 26.5088 93.7762H26.5133Z" fill="#E1DFDB"/>
<path d="M26.7001 93.7488C26.5542 102.175 32.1012 108.55 40.6426 108.705C49.1841 108.861 54.9043 102.704 55.0228 94.2922C55.1413 85.8801 49.6536 79.4774 41.1167 79.2993C32.5797 79.1212 26.8459 85.323 26.7001 93.7442V93.7488Z" fill="#E3E1DD"/>
<path d="M26.8825 93.7259C26.7412 102.056 32.2563 108.395 40.6975 108.545C49.1432 108.701 54.8269 102.586 54.9454 94.2648C55.0639 85.944 49.6082 79.587 41.1669 79.4089C32.7257 79.2353 27.0238 85.396 26.8825 93.7259Z" fill="#E5E3E0"/>
<path d="M27.0696 93.6985C26.9283 101.937 32.4114 108.235 40.7614 108.385C49.1115 108.536 54.7633 102.462 54.8818 94.2328C55.0003 86.0079 49.5718 79.6874 41.2263 79.5139C32.8809 79.3403 27.2109 85.4599 27.0741 93.6985H27.0696Z" fill="#E7E5E2"/>
<path d="M27.2566 93.6757C27.1153 101.818 32.5665 108.075 40.8209 108.226C49.0752 108.376 54.6951 102.339 54.809 94.2054C54.923 86.0719 49.531 79.7925 41.2812 79.6235C33.0314 79.45 27.3979 85.533 27.2566 93.6757Z" fill="#E9E7E4"/>
<path d="M27.4434 93.6528C27.3067 101.7 32.7215 107.92 40.8801 108.07C49.0387 108.221 54.6221 102.22 54.7406 94.1826C54.8546 86.1449 49.4945 79.902 41.3359 79.7331C33.1818 79.5641 27.5802 85.606 27.4434 93.6574V93.6528Z" fill="#EBE9E7"/>
<path d="M27.63 93.6255C27.4932 101.581 32.8807 107.76 40.9436 107.906C49.0065 108.052 54.558 102.092 54.6719 94.1461C54.7859 86.1997 49.4531 80.0025 41.3948 79.8336C33.3365 79.6646 27.7667 85.67 27.6345 93.6255H27.63Z" fill="#EDECE9"/>
<path d="M27.8171 93.6027C27.6849 101.462 33.0358 107.605 41.003 107.751C48.9702 107.897 54.4898 101.974 54.5992 94.1233C54.7131 86.2729 49.4123 80.1122 41.4451 79.9478C33.478 79.7834 27.9492 85.7477 27.8125 93.6072L27.8171 93.6027Z" fill="#EFEEEC"/>
<path d="M28.0039 93.5798C27.8717 101.348 33.1907 107.449 41.0622 107.591C48.9337 107.733 54.4214 101.85 54.5308 94.0913C54.6402 86.3322 49.3758 80.2127 41.5043 80.0483C33.6329 79.8839 28.1361 85.8116 28.0039 93.5753V93.5798Z" fill="#F1F0EE"/>
<path d="M28.1909 93.5524C28.0587 101.225 33.3459 107.29 41.1216 107.431C48.8974 107.573 54.3486 101.727 54.458 94.0639C54.5674 86.4007 49.3304 80.3177 41.5592 80.1578C33.7834 79.998 28.3185 85.8801 28.1909 93.557V93.5524Z" fill="#F3F2F0"/>
<path d="M28.3778 93.5296C28.2501 101.111 33.5054 107.13 41.1854 107.271C48.8655 107.413 54.2848 101.604 54.3942 94.0319C54.5036 86.4601 49.2985 80.4227 41.6184 80.2628C33.9384 80.103 28.5099 85.9486 28.3778 93.5296Z" fill="#F5F4F3"/>
<path d="M28.5643 93.5067C28.4367 100.992 33.66 106.974 41.2443 107.116C48.8287 107.253 54.2161 101.485 54.3209 94.0091C54.4257 86.5332 49.2571 80.5323 41.6728 80.3725C34.0885 80.2126 28.6919 86.0217 28.5643 93.5067Z" fill="#F7F6F5"/>
<path d="M28.7511 93.4793C28.6235 100.873 33.815 106.815 41.3036 106.952C48.7922 107.089 54.1431 101.357 54.2479 93.9725C54.3528 86.5879 49.2115 80.6282 41.7229 80.4729C34.2343 80.3176 28.8696 86.0856 28.7466 93.4793H28.7511Z" fill="#F9F9F8"/>
<path d="M28.9382 93.4565C28.8151 100.754 33.9701 106.659 41.3675 106.792C48.765 106.924 54.0795 101.234 54.1843 93.9451C54.2891 86.6564 49.1798 80.7332 41.7869 80.5825C34.394 80.4318 29.0658 86.1586 28.9382 93.4565Z" fill="#FBFBFA"/>
<path d="M29.1203 93.4291C28.9973 100.636 34.1249 106.499 41.4221 106.632C48.7192 106.764 54.0064 101.111 54.1067 93.9131C54.2115 86.7158 49.134 80.8383 41.8368 80.683C34.5397 80.5323 29.2434 86.2226 29.1203 93.4245V93.4291Z" fill="#FDFDFD"/>
<path d="M29.3074 93.4063C29.1843 100.517 34.28 106.344 41.4815 106.472C48.6829 106.604 53.9336 100.987 54.0384 93.8858C54.1387 86.7843 49.0931 80.9433 41.8917 80.7926C34.6902 80.6419 29.4304 86.2911 29.3074 93.4063Z" fill="white"/>
<path d="M34.9909 94.3197C34.8997 100.06 38.6463 105.303 44.6399 105.413C50.6335 105.522 54.5214 100.435 54.6035 94.7033C54.6855 88.9673 50.9663 83.7155 44.9772 83.5922C38.9882 83.4688 35.082 88.5792 34.9909 94.3197Z" fill="url(#paint18_linear_3_168144)"/>
<path d="M34.7356 89.7071C34.6992 91.6937 35.9389 93.6027 38.0401 93.6392C40.1413 93.6803 41.4403 91.8216 41.4676 89.835C41.4995 87.853 40.2689 85.9395 38.1677 85.8984C36.0665 85.8573 34.7676 87.7205 34.7356 89.7026V89.7071Z" fill="white"/>
<path d="M46.0119 99.325C45.9936 100.622 46.805 101.864 48.1769 101.892C49.5488 101.919 50.3966 100.709 50.4102 99.4117C50.4285 98.1148 49.6172 96.8726 48.2452 96.8452C46.8733 96.8178 46.0256 98.0326 46.0073 99.3295L46.0119 99.325Z" fill="white"/>
<path d="M28.7604 72.1567C28.3182 72.8097 28.0311 73.4765 27.9308 74.2254C27.8306 74.9744 27.9764 75.769 28.5917 76.2623C29.4896 76.9838 30.6382 76.8559 31.7139 76.5454C35.2554 75.5133 38.4048 73.9058 41.29 71.6178C42.2654 70.846 43.145 69.9509 43.6783 68.8639C44.2116 67.777 44.476 66.3842 43.7832 65.3612C41.8324 62.4841 38.3912 64.2743 36.0165 65.521C32.826 67.2016 30.7066 69.2658 28.7604 72.1521V72.1567Z" fill="url(#paint19_linear_3_168144)"/>
<path opacity="0.13" d="M43.8242 65.3521C43.3867 64.4159 42.7394 64.0916 41.837 63.8085C40.6793 69.2385 37.1697 72.3576 31.7458 73.1568C30.538 73.3349 29.5945 72.9924 28.5097 72.5768C28.2682 73.0929 27.9719 73.6409 27.9263 74.2346C27.8671 74.9836 27.9673 75.7782 28.5918 76.2714C29.5079 76.993 30.6383 76.8697 31.7139 76.5546C35.2691 75.5179 38.3912 73.924 41.2946 71.6269C42.2791 70.8506 43.1086 69.9829 43.6875 68.8685C44.2663 67.7542 44.3393 66.4618 43.8242 65.3566V65.3521Z" fill="#2B041E"/>
<path d="M114.139 63.667C114.777 64.1282 115.278 64.6534 115.638 65.3247C115.998 65.9961 116.14 66.7861 115.734 67.462C115.141 68.453 114.034 68.727 112.917 68.8001C109.23 69.0513 105.702 68.6311 102.192 67.4848C101.007 67.0967 99.8634 66.5623 98.9883 65.7266C98.1131 64.8909 97.3748 63.6761 97.671 62.475C98.5142 59.1001 102.375 59.5796 105.032 59.9267C108.61 60.3925 111.313 61.621 114.134 63.6624L114.139 63.667Z" fill="url(#paint20_linear_3_168144)"/>
<path opacity="0.13" d="M97.6303 62.4841C97.7169 61.452 98.2182 60.9222 98.9703 60.3468C101.942 65.0461 106.331 66.7541 111.705 65.6352C112.899 65.3886 113.651 64.7447 114.526 63.9729C114.932 64.3748 115.401 64.7903 115.652 65.3247C115.967 66.0051 116.153 66.7861 115.743 67.4665C115.137 68.4575 114.048 68.7315 112.927 68.8092C109.226 69.0604 105.725 68.6448 102.197 67.4939C101.003 67.1057 99.9138 66.5806 98.9839 65.7357C98.0541 64.8908 97.53 63.7034 97.6348 62.4887L97.6303 62.4841Z" fill="#2B041E"/>
<g style="mix-blend-mode:overlay" opacity="0.2">
<path d="M118.573 59.1229C113.956 52.7339 109.613 46.4819 103.76 41.0656C97.9125 35.6493 91.3446 32.046 83.5825 30.0914C94.722 40.3897 106.235 50.2678 118.573 59.1229Z" fill="white"/>
</g>
<g style="mix-blend-mode:overlay" opacity="0.15">
<path d="M73.8697 139.915C72.8442 140.221 71.7822 140.6 71.3036 141.5C70.5971 142.833 71.609 143.847 72.8989 144.4C75.3146 145.427 78.2225 145.747 80.8296 145.382C83.0538 145.071 86.9691 144.286 86.7321 141.555C86.5589 139.559 83.9791 139.321 82.2471 139.116C79.5853 138.805 76.4768 139.134 73.8697 139.915Z" fill="white"/>
</g>
<path opacity="0.5" d="M78.706 37.371C81.5865 40.3897 83.7789 43.5956 85.5473 47.4135C85.6886 47.7195 85.912 48.2629 86.0578 48.6009C85.7524 48.3908 85.2693 48.0437 84.9913 47.8473C83.0587 46.4727 81.2174 45.1346 79.3167 43.7646C79.5628 43.5545 79.8044 43.3444 80.0505 43.1343C81.4635 45.9247 82.334 48.6602 82.7397 51.8022C82.7898 52.195 82.8445 52.8663 82.8946 53.3001C80.9439 51.5191 78.8883 49.843 76.8965 48.1031C77.2155 47.8656 77.5346 47.6327 77.8582 47.3998C78.3185 48.5278 78.633 49.6375 78.6832 50.866C78.7515 52.5512 78.3094 54.0902 77.7534 55.6703C76.5957 53.5513 75.4516 51.4232 74.3167 49.2859C74.6586 49.1626 75.0004 49.0347 75.3468 48.9114C75.7069 51.7931 75.3103 54.2729 74.0204 56.8943C73.9202 57.0998 73.7287 57.4194 73.6102 57.6341C73.5009 57.424 73.3276 57.0861 73.2319 56.8943C71.8737 54.2227 70.561 51.5876 69.2438 48.916C69.4079 48.8703 69.5674 48.8201 69.7269 48.7698C69.7452 51.4917 68.9019 53.6153 66.9922 55.5516C68.6649 53.5285 69.3896 51.4643 69.2119 48.8109C69.1891 48.4502 69.0843 47.9113 69.0478 47.5231C70.7251 50.487 72.3842 53.4737 74.0296 56.465C73.7652 56.465 73.4963 56.4558 73.2319 56.465C74.2939 53.9943 74.6768 51.8251 74.2483 49.0895C74.0979 48.1396 73.7698 46.7376 73.5874 45.7192C75.1143 48.4319 76.6503 51.1766 78.1545 53.9167C77.7944 53.9532 77.4343 53.9806 77.0742 54.0171C77.6349 51.8433 77.5984 50.0303 76.7415 47.8839C76.4361 47.1166 75.8892 46.0297 75.5473 45.2123C77.8217 47.3313 80.2192 49.3498 82.5619 51.4095C82.2383 51.5739 81.9101 51.7383 81.5865 51.9073C81.231 48.9342 80.4881 46.3266 79.1754 43.5865C78.9247 43.0658 78.4826 42.221 78.2046 41.6501C80.6066 43.5088 83.0314 45.3721 85.4334 47.2491C85.2465 47.3952 85.0596 47.5413 84.8682 47.6875C83.3049 43.9016 81.2994 40.5586 78.7151 37.3801L78.706 37.371Z" fill="#6F340A"/>
<path opacity="0.5" d="M65.0273 80.1853C65.7931 77.1712 65.9025 74.2895 65.5014 71.216C65.6837 71.4946 65.9799 71.8919 66.144 72.1476C67.6983 74.6183 68.4412 77.0524 68.6053 79.9432C68.3136 79.8884 68.0173 79.8336 67.7256 79.7834C68.6281 76.8971 69.0246 74.1753 68.9061 71.1109C68.8879 70.636 68.8149 69.8505 68.7922 69.3299C70.7657 71.7868 72.5114 74.3306 73.7694 77.2442C74.7903 79.5962 75.3783 82.012 75.8067 84.5329C75.433 84.4736 75.0638 84.405 74.6946 84.3457C75.5971 82.4139 76.2944 80.5643 76.536 78.4133C76.7776 76.2623 76.6591 74.3945 76.1486 72.1705C75.8842 71.0105 75.3829 69.2796 75.0775 68.0283C76.6955 71.2434 78.3455 74.4904 79.9544 77.7283C79.7493 77.774 79.5442 77.8151 79.3391 77.8608C79.6217 74.6137 79.5305 71.4535 79.0793 68.2247C79.8997 71.8188 80.1459 75.349 79.9225 79.0162C79.2571 77.8288 78.423 76.3354 77.8031 75.2165C77.1832 74.0977 76.7776 73.3533 76.1987 72.3029C76.4904 72.2024 76.7639 72.0745 77.0556 71.9649C77.598 74.1616 77.8624 76.2715 77.6208 78.5412C77.3792 80.8109 76.7366 82.8249 75.7247 84.9165C75.5196 85.3412 75.1231 86.04 74.8906 86.4921C74.7995 85.9852 74.7129 85.1951 74.6308 84.7293C73.7192 79.7286 71.928 75.5728 69.0292 71.4489C69.3665 71.321 69.7037 71.1931 70.041 71.0607C70.0775 74.2484 69.6536 77.0661 68.5597 80.1213C68.3273 80.7653 67.9034 81.7974 67.6481 82.4961C67.6937 80.3497 67.7621 78.1667 67.2197 76.0705C66.8778 74.7462 66.3355 73.6318 65.6882 72.4536C65.8569 72.3988 66.0301 72.3349 66.1987 72.2755C66.3036 75.0339 65.9389 77.5685 65.0273 80.1761V80.1853Z" fill="#6F340A"/>
<path d="M70.1003 144.706C74.5032 146.994 78.6509 147.679 83.4731 146.418C85.0547 146.003 86.3947 145.213 87.8304 144.468C86.5679 145.633 85.4695 146.701 83.7785 147.313C78.7192 149.149 74.1249 148.359 70.0957 144.706H70.1003Z" fill="#984F1A"/>
<path d="M21.1533 102.275C27.2928 99.2381 34.3302 97.2744 40.9984 97.142C47.6665 97.0095 53.4459 98.5623 59.1114 101.741C56.0622 110.692 48.8288 114.807 39.9136 114.752C30.9984 114.697 24.2527 110.368 21.1533 102.275Z" fill="url(#paint21_linear_3_168144)"/>
<path d="M91.7731 100.188C98.0129 97.0918 105.046 95.0321 111.864 94.8175C118.683 94.6029 124.421 96.4433 130.688 98.5349C127.831 107.577 119.854 111.993 111.007 112.194C102.161 112.391 94.9819 108.322 91.7686 100.188H91.7731Z" fill="url(#paint22_linear_3_168144)"/>
<g style="mix-blend-mode:overlay" opacity="0.15">
<path d="M33.0085 111.751C31.0851 112.336 29.107 113.067 28.2227 114.784C26.9192 117.323 28.8335 119.3 31.2674 120.36C35.8116 122.342 41.2218 122.972 46.1398 122.305C50.3421 121.734 57.539 120.2 57.0468 115.049C56.6822 111.285 51.9146 110.728 48.6512 110.313C43.6284 109.673 37.8991 110.272 33.0039 111.756L33.0085 111.751Z" fill="white"/>
</g>
<g style="mix-blend-mode:overlay" opacity="0.15">
<path d="M105.114 109.02C103.177 109.632 101.139 110.345 100.255 112.062C98.9425 114.601 100.911 116.455 103.405 117.428C108.063 119.246 113.687 119.725 118.66 118.876C122.912 118.145 130.488 116.396 129.982 111.171C129.612 107.353 124.448 107.321 121.162 107.098C116.103 106.755 110.045 107.463 105.114 109.025V109.02Z" fill="white"/>
</g>
<path opacity="0.13" d="M57.7666 104.796C58.2954 103.791 58.7739 102.809 59.1295 101.7C53.423 98.5988 47.6664 97.005 40.9982 97.1374C34.33 97.2698 27.2698 99.2747 21.1714 102.234C22.3929 106.399 25.2416 109.326 28.5916 111.879C37.7256 106.869 47.4111 104.887 57.7666 104.796Z" fill="#2B041E"/>
<path opacity="0.13" d="M130.707 98.4983C124.408 96.4844 118.683 94.5982 111.869 94.8175C105.05 95.0321 98.0039 97.1329 91.7915 100.152C92.2883 101.887 93.2364 103.371 94.2209 104.842C104.558 105.052 114.809 105.869 125.069 107.102C127.475 104.622 129.722 101.923 130.707 98.4983Z" fill="#2B041E"/>
<path opacity="0.15" d="M76.4542 200.86C76.4314 201.504 76.3995 202.221 76.3129 202.892C76.3129 202.919 76.3083 202.947 76.3037 202.983C76.2992 203.02 76.2946 203.052 76.2855 203.097C76.2764 203.148 76.2582 203.221 76.2536 203.28C76.2536 203.289 76.2536 203.266 76.2536 203.298C76.2536 203.33 76.2263 203.422 76.2126 203.477C76.1989 203.536 76.1852 203.586 76.1625 203.659C76.1397 203.737 76.0804 203.901 76.0485 203.979C76.0166 204.057 75.9938 204.111 75.9665 204.166C75.9391 204.225 75.9209 204.257 75.8935 204.308C75.8662 204.358 75.8388 204.408 75.8115 204.449C75.7841 204.495 75.7568 204.541 75.7295 204.582C75.5289 204.865 75.2919 205.111 75.023 205.322C74.9546 205.376 74.8635 205.436 74.8133 205.468C74.7632 205.5 74.8133 205.468 74.7632 205.5C74.7176 205.532 74.5809 205.6 74.5353 205.628C74.4852 205.65 74.5171 205.637 74.4715 205.659C74.4259 205.682 74.2755 205.746 74.239 205.765C74.198 205.778 74.2071 205.778 74.1934 205.783C73.9883 205.86 73.8015 205.92 73.5872 205.97C73.5781 205.97 73.6009 205.97 73.5508 205.979C73.5006 205.993 73.332 206.034 73.25 206.039C73.2454 206.039 73.2728 206.039 73.2272 206.039C73.1816 206.039 72.9765 206.075 72.9036 206.084C72.8671 206.084 72.9309 206.084 72.8808 206.084C72.8306 206.089 72.5936 206.107 72.5526 206.107C72.507 206.107 72.5298 206.107 72.5253 206.107C71.1898 205.71 70.3739 205.025 69.9227 203.705C67.4751 206.623 65.6474 205.308 65.848 201.636C65.9391 199.933 65.8343 197.9 65.7067 196.005C65.6201 194.745 65.0777 193.306 64.6447 192.032C64.157 190.589 63.7331 189.223 63.25 187.716C62.7668 186.209 62.4113 184.597 63.2363 183.099C63.2636 183.054 63.291 183.003 63.3275 182.967C64.3894 181.884 65.7614 181.291 67.27 181.291C69.3393 181.291 70.9665 181.944 72.3703 183.497C73.9382 185.227 75.1962 187.374 76.6501 189.255C77.9674 190.963 79.2664 193.713 79.394 195.603C79.5626 198.138 78.8881 200.453 76.4633 200.855L76.4542 200.86Z" fill="#2B041E"/>
</g>
<defs>
<linearGradient id="paint0_linear_3_168144" x1="153.852" y1="191.219" x2="133.019" y2="207.405" gradientUnits="userSpaceOnUse">
<stop stop-color="#C16A32"/>
<stop offset="1" stop-color="#984F1A"/>
</linearGradient>
<linearGradient id="paint1_linear_3_168144" x1="1.79165" y1="190.927" x2="22.5973" y2="207.09" gradientUnits="userSpaceOnUse">
<stop stop-color="#C16A32"/>
<stop offset="1" stop-color="#984F1A"/>
</linearGradient>
<linearGradient id="paint2_linear_3_168144" x1="28.9109" y1="208.085" x2="134.99" y2="171.646" gradientUnits="userSpaceOnUse">
<stop stop-color="#984F1A"/>
<stop offset="1" stop-color="#C16A32"/>
</linearGradient>
<linearGradient id="paint3_linear_3_168144" x1="113.697" y1="141.532" x2="50.9461" y2="231.931" gradientUnits="userSpaceOnUse">
<stop stop-color="#FFE1CD"/>
<stop offset="0.85" stop-color="#EB985E"/>
</linearGradient>
<linearGradient id="paint4_linear_3_168144" x1="11.96" y1="194.041" x2="31.007" y2="254.257" gradientUnits="userSpaceOnUse">
<stop stop-color="#FFE1CD"/>
<stop offset="0.85" stop-color="#EB985E"/>
</linearGradient>
<linearGradient id="paint5_linear_3_168144" x1="143.615" y1="194.357" x2="124.568" y2="254.576" gradientUnits="userSpaceOnUse">
<stop stop-color="#FFE1CD"/>
<stop offset="0.85" stop-color="#EB985E"/>
</linearGradient>
<linearGradient id="paint6_linear_3_168144" x1="18.6326" y1="181.373" x2="62.37" y2="166.351" gradientUnits="userSpaceOnUse">
<stop stop-color="#984F1A"/>
<stop offset="1" stop-color="#C16A32"/>
</linearGradient>
<linearGradient id="paint7_linear_3_168144" x1="64.2071" y1="200.152" x2="76.1627" y2="185.894" gradientUnits="userSpaceOnUse">
<stop stop-color="#EB985E"/>
<stop offset="0.15" stop-color="#EC9C65"/>
<stop offset="0.36" stop-color="#EFA978"/>
<stop offset="0.62" stop-color="#F5BE98"/>
<stop offset="0.91" stop-color="#FDDBC5"/>
<stop offset="0.96" stop-color="#FFE1CD"/>
</linearGradient>
<linearGradient id="paint8_linear_3_168144" x1="133.856" y1="180.848" x2="90.1642" y2="165.839" gradientUnits="userSpaceOnUse">
<stop stop-color="#984F1A"/>
<stop offset="1" stop-color="#C16A32"/>
</linearGradient>
<linearGradient id="paint9_linear_3_168144" x1="88.2366" y1="199.882" x2="76.2901" y2="185.639" gradientUnits="userSpaceOnUse">
<stop stop-color="#EB985E"/>
<stop offset="0.15" stop-color="#EC9C65"/>
<stop offset="0.36" stop-color="#EFA978"/>
<stop offset="0.62" stop-color="#F5BE98"/>
<stop offset="0.91" stop-color="#FDDBC5"/>
<stop offset="0.96" stop-color="#FFE1CD"/>
</linearGradient>
<linearGradient id="paint10_linear_3_168144" x1="92.0603" y1="52.4416" x2="62.4562" y2="178.255" gradientUnits="userSpaceOnUse">
<stop stop-color="#FFE1CD"/>
<stop offset="0.72" stop-color="#EB985E"/>
<stop offset="0.76" stop-color="#E99459"/>
<stop offset="0.81" stop-color="#E58B4D"/>
<stop offset="0.85" stop-color="#DD7936"/>
</linearGradient>
<linearGradient id="paint11_linear_3_168144" x1="42.2998" y1="14.882" x2="58.824" y2="21.3219" gradientUnits="userSpaceOnUse">
<stop stop-color="#FFE1CD"/>
<stop offset="0.85" stop-color="#EB985E"/>
</linearGradient>
<linearGradient id="paint12_linear_3_168144" x1="46.9656" y1="16.7076" x2="58.8214" y2="21.3281" gradientUnits="userSpaceOnUse">
<stop stop-color="#683527"/>
<stop offset="0.33" stop-color="#4C2419"/>
<stop offset="0.76" stop-color="#2E1109"/>
<stop offset="1" stop-color="#230B04"/>
</linearGradient>
<linearGradient id="paint13_linear_3_168144" x1="96.9128" y1="12.9259" x2="80.4555" y2="18.8814" gradientUnits="userSpaceOnUse">
<stop stop-color="#FFE1CD"/>
<stop offset="0.85" stop-color="#EB985E"/>
</linearGradient>
<linearGradient id="paint14_linear_3_168144" x1="92.1306" y1="14.6632" x2="80.4575" y2="18.8874" gradientUnits="userSpaceOnUse">
<stop stop-color="#683527"/>
<stop offset="0.33" stop-color="#4C2419"/>
<stop offset="0.76" stop-color="#2E1109"/>
<stop offset="1" stop-color="#230B04"/>
</linearGradient>
<linearGradient id="paint15_linear_3_168144" x1="25.8022" y1="84.8708" x2="123.426" y2="42.0062" gradientUnits="userSpaceOnUse">
<stop stop-color="#984F1A"/>
<stop offset="1" stop-color="#C16A32"/>
</linearGradient>
<linearGradient id="paint16_linear_3_168144" x1="75.4787" y1="101.343" x2="77.2586" y2="116.294" gradientUnits="userSpaceOnUse">
<stop stop-color="#683527"/>
<stop offset="0.33" stop-color="#4C2419"/>
<stop offset="0.76" stop-color="#2E1109"/>
<stop offset="1" stop-color="#230B04"/>
</linearGradient>
<linearGradient id="paint17_linear_3_168144" x1="97.8652" y1="85.0051" x2="115.065" y2="95.0187" gradientUnits="userSpaceOnUse">
<stop stop-color="#683527"/>
<stop offset="0.72" stop-color="#37170E"/>
<stop offset="1" stop-color="#230B04"/>
</linearGradient>
<linearGradient id="paint18_linear_3_168144" x1="37.3494" y1="90.1546" x2="54.4503" y2="100.107" gradientUnits="userSpaceOnUse">
<stop stop-color="#683527"/>
<stop offset="0.72" stop-color="#37170E"/>
<stop offset="1" stop-color="#230B04"/>
</linearGradient>
<linearGradient id="paint19_linear_3_168144" x1="41.5088" y1="78.975" x2="32.6057" y2="65.5006" gradientUnits="userSpaceOnUse">
<stop offset="0.4" stop-color="#984F1A"/>
<stop offset="1" stop-color="#C16A32"/>
</linearGradient>
<linearGradient id="paint20_linear_3_168144" x1="104.461" y1="74.4842" x2="108.287" y2="58.7584" gradientUnits="userSpaceOnUse">
<stop offset="0.4" stop-color="#984F1A"/>
<stop offset="1" stop-color="#C16A32"/>
</linearGradient>
<linearGradient id="paint21_linear_3_168144" x1="41.518" y1="96.0962" x2="37.1261" y2="114.752" gradientUnits="userSpaceOnUse">
<stop stop-color="#FFE1CD"/>
<stop offset="0.1" stop-color="#FCD6BD"/>
<stop offset="0.33" stop-color="#F7C4A1"/>
<stop offset="0.55" stop-color="#F3B68D"/>
<stop offset="0.78" stop-color="#F1AE81"/>
<stop offset="1" stop-color="#F1AC7D"/>
</linearGradient>
<linearGradient id="paint22_linear_3_168144" x1="110.889" y1="93.9681" x2="112.083" y2="112.678" gradientUnits="userSpaceOnUse">
<stop stop-color="#FFE1CD"/>
<stop offset="0.03" stop-color="#FEDDC8"/>
<stop offset="0.28" stop-color="#F9CBAC"/>
<stop offset="0.52" stop-color="#F5BE98"/>
<stop offset="0.76" stop-color="#F3B68C"/>
<stop offset="1" stop-color="#F3B488"/>
</linearGradient>
<clipPath id="clip0_3_168144">
<rect width="155" height="254" fill="white"/>
</clipPath>
</defs>
</svg>
