<svg width="268" height="308" viewBox="0 0 268 308" fill="none" xmlns="http://www.w3.org/2000/svg">
<g clip-path="url(#clip0_3_167975)">
<path d="M88.6594 228.713C76.3339 216.244 62.4441 206.432 41.0359 218.509C40.3108 218.919 39.5726 219.355 38.83 219.818C37.6216 219.025 36.4045 218.24 35.1873 217.46C34.537 215.402 33.7548 213.017 32.9331 211.417C33.2671 210.844 33.601 210.28 33.935 209.725C33.9438 209.707 33.9569 209.685 33.9701 209.668C54.6269 175.341 74.7872 176.637 88.4749 180.168C89.3888 196.15 90.0172 212.762 88.655 228.713H88.6594Z" fill="url(#paint0_linear_3_167975)"/>
<path opacity="0.5" d="M57.4653 192.165C59.8513 189.415 63.9247 187.859 68.8725 187.709L70.0589 187.669L69.536 188.379C68.2925 190.076 65.7527 193.461 64.4784 195.136L63.4589 194.25C65.3001 193.708 67.2906 193.342 69.391 193.13C72.212 192.809 75.4769 192.91 78.6187 193.113C75.1956 194.871 69.7689 197.626 66.2931 199.349L65.5769 198.477L70.2391 198.508C71.3112 198.516 75.3978 198.561 76.3908 198.574C73.539 200.218 70.6389 201.835 67.7036 203.404C70.0237 201.769 72.3922 200.169 74.7826 198.591L75.2791 199.173L70.7048 199.292C69.1317 199.327 65.2122 199.411 63.6786 199.442C64.8079 198.838 69.347 196.405 70.5642 195.753L75.7669 193.025L76.593 194.069C73.2446 193.924 70.0633 194.091 67.1588 194.616C65.5461 194.885 63.6215 195.427 62.1055 195.837C63.9642 193.536 66.7721 190.08 68.6747 187.797L69.3339 188.467C64.3773 188.436 60.238 189.763 57.4697 192.17L57.4653 192.165Z" fill="#6F340A"/>
<path d="M123.575 217.103C126.699 234.381 126.757 251.42 104.623 262.1C103.872 262.461 103.094 262.818 102.29 263.162C102.246 264.612 102.193 266.062 102.127 267.508C103.437 269.222 104.935 271.228 105.775 272.823C106.434 272.876 107.088 272.929 107.734 272.969C107.756 272.969 107.778 272.969 107.8 272.969C147.681 275.657 174.868 244.21 179.824 230.934C167.292 221.026 137.386 225.116 123.575 217.099V217.103Z" fill="url(#paint1_linear_3_167975)"/>
<path opacity="0.5" d="M127.016 269.103C130.632 268.72 134.235 266.261 137.193 262.281L137.904 261.328L137.026 261.355C134.925 261.408 130.707 261.553 128.606 261.641L128.747 262.99C130.241 261.787 131.687 260.359 133.062 258.754C134.943 256.621 136.727 253.88 138.366 251.178C134.969 252.985 129.608 255.863 126.207 257.741L126.506 258.829L129.151 254.982C129.758 254.096 132.06 250.711 132.623 249.886C129.643 251.288 126.66 252.743 123.698 254.263C126.365 253.294 129.028 252.262 131.687 251.2L131.498 250.459L128.782 254.149C127.851 255.422 125.539 258.596 124.634 259.839C125.777 259.257 130.364 256.917 131.594 256.291L136.806 253.58L136.424 252.302C134.626 255.136 132.667 257.657 130.571 259.746C129.428 260.919 127.881 262.188 126.677 263.202C129.622 262.995 134.051 262.664 137.008 262.408L136.841 261.483C134.024 265.573 130.566 268.217 127.016 269.112V269.103Z" fill="#6F340A"/>
<path opacity="0.22" d="M88.4793 180.168C81.5717 178.387 73.0163 177.175 63.5821 180.825C63.3493 183.138 62.9933 185.466 62.4572 187.802C59.3506 201.932 49.8109 212.105 38.2764 219.461C38.4609 219.58 38.6499 219.699 38.8344 219.823C39.577 219.36 40.3152 218.923 41.0403 218.514C62.4485 206.437 76.3383 216.248 88.6638 228.717C90.026 212.77 89.3976 196.154 88.4837 180.172L88.4793 180.168Z" fill="#2B041E"/>
<path opacity="0.22" d="M179.824 230.938C167.292 221.03 137.386 225.12 123.575 217.103C126.699 234.381 126.757 251.42 104.623 262.1C103.872 262.461 103.094 262.818 102.29 263.162C102.246 264.612 102.193 266.062 102.127 267.508C102.562 268.081 103.019 268.685 103.468 269.293C118.03 262.884 134.099 257.904 149.615 262.774C166.159 253.029 176.894 238.797 179.829 230.938H179.824Z" fill="#2B041E"/>
<path d="M41.1896 218.152C41.1412 218.267 41.0885 218.386 41.0358 218.509C40.737 219.219 40.4294 219.981 40.135 220.669C39.7044 220.382 39.2693 220.1 38.8299 219.818C37.6215 219.025 36.4044 218.24 35.1872 217.46C25.3487 211.17 15.251 205.291 4.93802 199.839C4.1295 199.411 3.31659 198.984 2.50368 198.56C1.67319 198.128 0.838302 197.701 0.00341797 197.273C0.170395 197.097 0.34616 196.925 0.543896 196.749C0.640566 196.661 0.737237 196.577 0.842696 196.493C1.04922 196.321 1.26453 196.154 1.49742 195.986C1.60727 195.907 1.71273 195.832 1.82698 195.753C1.83577 195.748 1.84016 195.744 1.84895 195.74C2.08623 195.572 2.3367 195.413 2.59595 195.25C6.02777 193.117 11.0063 191.442 14.1525 190.843C22.1542 196.264 28.0336 202.699 33.9744 209.667C33.992 209.689 34.014 209.716 34.0359 209.738C34.8093 210.646 35.5871 211.563 36.3692 212.488C36.8921 213.105 37.4194 213.731 37.9467 214.357C38.1137 214.551 38.285 214.749 38.452 214.952C38.7508 215.305 39.054 215.657 39.3572 216.01C39.9592 216.72 40.5744 217.434 41.194 218.152H41.1896Z" fill="url(#paint2_linear_3_167975)"/>
<path d="M2.50391 198.565C3.31682 198.988 4.12973 199.411 4.93386 199.839C7.23199 197.503 9.74543 195.457 12.4742 193.589C8.9413 194.77 5.5754 196.449 2.50391 198.56V198.565Z" fill="#DB7B3A"/>
<g style="mix-blend-mode:overlay" opacity="0.4">
<path d="M33.3197 210.188C27.247 203.594 20.6207 197.419 13.7219 191.702C10.9492 192.253 8.25123 193.183 5.72461 194.457C15.6685 198.151 25.4191 203.096 33.3197 210.188Z" fill="white"/>
</g>
<path opacity="0.17" d="M41.1896 218.152C41.1412 218.267 41.0885 218.386 41.0358 218.509C40.737 219.219 40.4294 219.981 40.135 220.669C39.7044 220.382 39.2693 220.1 38.8299 219.818C37.6215 219.025 36.4044 218.24 35.1872 217.46C25.3487 211.17 15.251 205.291 4.93802 199.839C4.1295 199.411 3.31659 198.984 2.50368 198.56C1.67319 198.129 0.838302 197.701 0.00341797 197.273C0.170395 197.097 0.34616 196.925 0.543896 196.749C0.640566 196.661 0.737237 196.577 0.842696 196.493C1.04922 196.321 1.26453 196.154 1.49742 195.986C1.60727 195.907 1.71273 195.832 1.82698 195.753C1.83577 195.748 1.84016 195.744 1.84895 195.74C2.08623 195.577 2.3367 195.413 2.59595 195.25C3.35614 195.863 4.12511 196.458 4.90726 197.044C5.45653 197.459 6.01898 197.864 6.58143 198.261C14.4074 203.783 23.1956 207.799 32.5375 209.496C32.5947 209.509 32.6518 209.518 32.7045 209.526C33.1176 209.601 33.5306 209.672 33.9436 209.734C33.9744 209.738 34.0096 209.747 34.0403 209.751C34.8137 210.659 35.5871 211.576 36.3692 212.502C36.8921 213.119 37.4194 213.744 37.9467 214.37C38.1137 214.564 38.285 214.763 38.452 214.965C38.7508 215.318 39.054 215.671 39.3572 216.023C39.9592 216.733 40.5744 217.447 41.194 218.165L41.1896 218.152Z" fill="#2B041E"/>
<path d="M105.005 262.179C104.882 262.153 104.755 262.126 104.627 262.1C103.876 261.937 103.076 261.756 102.342 261.602C102.329 262.122 102.312 262.642 102.294 263.162C102.25 264.612 102.197 266.062 102.131 267.508C101.631 279.201 100.651 290.868 99.1962 302.473C99.082 303.381 98.9677 304.293 98.8447 305.206C98.7173 306.136 98.5942 307.066 98.4668 308C98.7041 307.965 98.9501 307.916 99.205 307.859C99.328 307.833 99.4555 307.797 99.5873 307.762C99.8466 307.692 100.106 307.608 100.378 307.515C100.506 307.471 100.629 307.427 100.761 307.379C100.769 307.379 100.778 307.374 100.783 307.37C101.055 307.268 101.332 307.154 101.609 307.035C105.317 305.435 109.54 302.306 111.829 300.058C111.983 290.37 110.094 281.85 107.804 272.973C107.8 272.942 107.791 272.912 107.782 272.881C107.484 271.722 107.18 270.558 106.873 269.39C106.666 268.605 106.46 267.816 106.253 267.023C106.192 266.772 106.126 266.521 106.055 266.269C105.937 265.82 105.823 265.37 105.708 264.921C105.475 264.017 105.243 263.105 105.014 262.184L105.005 262.179Z" fill="url(#paint3_linear_3_167975)"/>
<path d="M98.8403 305.206C98.959 304.298 99.0776 303.385 99.1919 302.477C102.417 301.927 105.528 301.032 108.617 299.859C105.625 302.085 102.325 303.892 98.8403 305.206Z" fill="#DB7B3A"/>
<g style="mix-blend-mode:overlay" opacity="0.4">
<path d="M107.005 273.211C108.912 281.982 110.16 290.965 110.88 299.912C108.841 301.874 106.534 303.562 104.047 304.91C106.728 294.619 108.275 283.772 107.005 273.211Z" fill="white"/>
</g>
<path opacity="0.17" d="M105.005 262.179C104.882 262.153 104.755 262.126 104.627 262.1C103.876 261.937 103.076 261.756 102.342 261.602C102.329 262.122 102.312 262.642 102.294 263.162C102.25 264.612 102.197 266.062 102.131 267.508C101.631 279.201 100.651 290.868 99.1962 302.473C99.082 303.381 98.9677 304.293 98.8447 305.206C98.7173 306.136 98.5942 307.066 98.4668 308C98.7041 307.965 98.9501 307.916 99.205 307.859C99.328 307.833 99.4555 307.797 99.5873 307.762C99.8466 307.692 100.106 307.608 100.378 307.515C100.506 307.471 100.629 307.427 100.761 307.379C100.769 307.379 100.778 307.374 100.783 307.37C101.051 307.268 101.332 307.154 101.609 307.035C101.547 306.061 101.499 305.082 101.468 304.108C101.446 303.416 101.437 302.729 101.433 302.037C101.402 292.441 103.16 282.912 107.128 274.265C107.15 274.212 107.176 274.159 107.198 274.11C107.374 273.727 107.554 273.348 107.738 272.973C107.752 272.942 107.765 272.912 107.782 272.881C107.484 271.722 107.18 270.562 106.868 269.39C106.662 268.605 106.455 267.816 106.249 267.023C106.187 266.772 106.121 266.521 106.051 266.269C105.932 265.82 105.818 265.37 105.704 264.921C105.471 264.017 105.238 263.105 105.01 262.184L105.005 262.179Z" fill="#2B041E"/>
<path d="M241.122 73.3683C242.933 74.5054 245.626 76.2067 247.441 77.3439C248.395 77.9433 233.125 101.193 231.653 103.282C225.686 111.718 219.121 119.736 211.998 127.22C204.889 134.686 197.225 141.628 189.065 147.918C185.071 150.994 180.963 153.916 176.74 156.671C174.266 158.284 167.191 164.314 164.344 163.075C164.225 163.022 169.081 135.056 169.481 132.487C170.232 127.643 173.369 126.713 177.434 124.518C182.373 121.851 187.211 118.995 191.939 115.967C210.254 104.226 226.89 89.8437 241.127 73.3727L241.122 73.3683Z" fill="url(#paint4_linear_3_167975)"/>
<path d="M254.599 90.2977C251.721 89.901 249.186 88.1115 246.91 86.0885C246.91 86.0885 246.905 86.0885 246.905 86.0796C246.158 85.4141 245.442 84.7265 244.752 84.0566C244.172 83.6158 243.579 83.1398 242.986 82.6418C242.937 82.6021 242.893 82.5668 242.845 82.5272C242.801 82.4875 242.753 82.4522 242.709 82.4082C242.678 82.3817 242.643 82.3553 242.617 82.3244C239.58 79.5917 238.543 75.2547 239.967 71.3981C239.98 71.3584 239.998 71.3143 240.015 71.2747C240.015 71.2747 240.02 71.2659 240.028 71.2526C240.028 71.2482 240.037 71.2394 240.042 71.2306L240.055 71.1997C240.085 71.1292 240.134 71.0102 240.209 70.8427L240.244 70.759C240.674 69.7541 241.764 67.4004 243.935 64.8484C243.996 64.7691 244.062 64.6986 244.132 64.6193C244.282 64.4474 244.44 64.2711 244.607 64.0903C244.673 64.0154 244.748 63.9405 244.818 63.8656C244.888 63.795 244.959 63.7201 245.033 63.6408C245.104 63.5658 245.178 63.4909 245.257 63.416C245.763 62.9091 246.316 62.3978 246.918 61.8998C247.006 61.8249 247.098 61.7499 247.191 61.675C247.569 61.3709 247.969 61.0668 248.386 60.7715C248.39 60.7715 248.395 60.7626 248.399 60.7626C248.478 60.7053 248.562 60.6436 248.65 60.5863C249.028 60.3263 249.454 60.1588 249.898 60.0883C249.977 60.0751 250.06 60.0618 250.139 60.053C250.174 60.0486 250.21 60.0442 250.245 60.0442C250.381 60.0398 250.522 60.0442 250.662 60.053C250.732 60.0574 250.803 60.0707 250.869 60.0839C250.882 60.0839 250.895 60.0839 250.908 60.0883C250.983 60.1015 251.053 60.1191 251.124 60.1368C251.185 60.15 251.242 60.1676 251.299 60.1897C251.356 60.2073 251.414 60.2293 251.471 60.2514C251.515 60.269 251.559 60.291 251.602 60.3131C251.646 60.3351 251.69 60.3527 251.734 60.3792C251.906 60.4673 252.068 60.5731 252.213 60.6921C252.323 60.7803 252.429 60.8772 252.525 60.9786C252.525 60.9786 252.53 60.9874 252.534 60.9874C253.597 62.0981 253.861 63.914 252.552 64.8573C248.65 67.6737 247.345 69.2957 247.243 70.3667C248.008 70.3667 248.781 70.3843 249.586 70.3932C254.454 70.3226 258.862 70.3094 263.058 67.18C264.099 66.4087 265.536 66.7172 266.362 67.634C267.536 68.9387 267.188 71.1513 265.782 72.1165C262.368 74.4657 259.481 75.6954 255.043 75.5324C254.968 75.5324 254.898 75.5147 254.819 75.5103C254.753 75.8145 254.687 76.123 254.621 76.4271C257.662 76.8943 260.61 77.1279 263.928 76.5108C268.287 75.6998 269.746 82.2759 265.268 83.3249C260.747 84.3827 257.056 83.629 253.334 81.7646C253.11 82.5227 252.872 83.2632 252.6 83.9684C253.931 84.4929 255.122 85.0306 256.827 85.3039C263.155 86.3353 259.85 91.0161 254.59 90.3021L254.599 90.2977Z" fill="url(#paint5_linear_3_167975)"/>
<path opacity="0.13" d="M245.235 79.4771C246.404 81.2665 248.707 82.7078 250.781 82.3728C248.592 79.1641 246.053 75.7791 246.11 71.5787C243.438 73.6679 243.544 76.9648 245.235 79.4771Z" fill="#2B041E"/>
<path opacity="0.13" d="M246.905 86.0839C246.158 85.4184 245.442 84.7308 244.752 84.0609C244.172 83.6201 243.579 83.1441 242.986 82.646C242.893 82.5711 242.801 82.4918 242.709 82.4124C242.678 82.386 242.643 82.3596 242.617 82.3287C239.58 79.596 238.543 75.259 239.967 71.4024C239.98 71.3627 239.998 71.3186 240.015 71.279C240.015 71.279 240.02 71.2702 240.028 71.2569C240.028 71.2525 240.037 71.2393 240.042 71.2349C240.046 71.2217 240.05 71.2129 240.055 71.204C240.085 71.1335 240.134 71.0145 240.209 70.847C240.222 70.8206 240.235 70.7941 240.244 70.7633C240.674 69.7584 241.764 67.4047 243.935 64.8527C243.996 64.7734 244.062 64.7029 244.132 64.6236C244.282 64.4517 244.44 64.2754 244.607 64.0946C244.673 64.0197 244.748 63.9448 244.818 63.8699C244.888 63.7993 244.959 63.7244 245.033 63.6451C245.104 63.5701 245.178 63.4952 245.257 63.4203C245.763 62.9134 246.316 62.4021 246.918 61.9041C247.006 61.8292 247.099 61.7542 247.191 61.6793C247.569 61.3752 247.969 61.0711 248.386 60.7758C248.39 60.7758 248.395 60.7669 248.399 60.7669C248.931 60.3923 249.52 60.119 250.139 60.0573C250.174 60.0529 250.21 60.0485 250.245 60.0485C250.381 60.0397 250.522 60.0397 250.662 60.0573C250.715 60.0573 250.768 60.0661 250.82 60.075C250.838 60.075 250.855 60.0794 250.873 60.0838C250.886 60.0838 250.899 60.0838 250.913 60.0882C250.987 60.1014 251.058 60.119 251.128 60.1367C251.189 60.1499 251.247 60.1675 251.304 60.1896C251.361 60.2072 251.418 60.2292 251.475 60.2513C251.519 60.2689 251.563 60.2909 251.607 60.313C251.651 60.335 251.695 60.3526 251.739 60.3791C251.91 60.4672 252.068 60.573 252.218 60.692C252.442 60.8727 252.64 61.0799 252.811 61.3091C250.895 60.6347 248.843 61.6352 247.173 63.0368C244.194 65.6593 241.905 69.4234 241.382 73.3285C240.956 78.2605 243.438 82.6372 246.905 86.0884V86.0839Z" fill="#2B041E"/>
<g style="mix-blend-mode:overlay" opacity="0.3">
<path d="M260.632 69.9172C260.338 70.3095 260.087 70.8384 260.316 71.2703C260.562 71.7287 261.199 71.7948 261.713 71.7111C262.768 71.5392 263.757 70.9662 264.429 70.1332C264.71 69.785 264.947 69.3707 264.969 68.9255C265.123 66.1972 261.248 69.093 260.628 69.9172H260.632Z" fill="white"/>
</g>
<g style="mix-blend-mode:overlay" opacity="0.3">
<path d="M260.681 78.7013C260.083 79.1862 259.591 79.9443 259.797 80.6759C259.916 81.0991 260.254 81.4296 260.645 81.6368C261.037 81.8395 261.476 81.9321 261.915 81.9982C262.755 82.1304 263.625 82.1877 264.442 81.9541C265.259 81.7205 266.02 81.1564 266.301 80.3586C266.758 79.0451 265.677 78.0534 264.49 77.8066C263.181 77.5333 261.731 77.8507 260.685 78.7013H260.681Z" fill="white"/>
</g>
<g style="mix-blend-mode:overlay" opacity="0.3">
<path d="M255.298 86.5909C254.687 86.7099 254.028 86.9832 253.791 87.5562C253.584 88.0586 253.791 88.6625 254.186 89.0283C254.582 89.3985 255.131 89.5704 255.672 89.6321C256.427 89.7203 257.231 89.6057 257.86 89.1782C258.58 88.6889 259.182 87.543 258.352 86.8995C257.605 86.3177 256.164 86.4234 255.294 86.5909H255.298Z" fill="white"/>
</g>
<path opacity="0.5" d="M217.275 98.3503C220.496 97.6186 223.502 96.1641 225.87 94.1278L226.978 93.1714C226.297 95.5911 225.136 97.9448 223.181 99.8885L222.434 99.2097C223.585 98.4605 224.737 97.7068 225.892 96.9663C226.815 96.3757 229.816 94.4584 230.695 93.8986C229.922 97.9315 227.703 101.656 223.963 104.415L223.647 103.613C225.686 103.631 227.914 103.066 229.636 102.017L230.62 101.391C229.684 104.217 227.786 106.879 224.991 108.712C227.136 106.91 228.735 104.622 229.5 102.198L230.111 102.529C228.713 103.516 227.048 104.08 225.33 104.393C224.403 104.587 223.181 104.556 222.228 104.552C225.651 102.101 228.199 98.7558 229.113 95.0975L230.102 95.6088C228.037 96.9134 225.136 98.7205 223.084 99.9767L219.143 102.414C220.589 100.968 223.282 98.5795 224.337 96.9398C224.912 96.1024 225.383 95.2121 225.756 94.2997L226.442 94.6347C223.889 96.6049 220.628 97.9536 217.284 98.3547L217.275 98.3503Z" fill="#6F340A"/>
<path opacity="0.3" d="M226.828 88.4332C216.129 98.7205 204.423 107.954 191.93 115.963C187.202 118.991 182.364 121.847 177.425 124.513C173.361 126.708 170.223 127.643 169.472 132.482C169.072 135.052 164.217 163.018 164.335 163.071C167.183 164.309 174.257 158.28 176.731 156.667C180.954 153.912 185.062 150.99 189.056 147.913C197.221 141.624 204.884 134.682 211.989 127.215C217.073 121.873 221.872 116.258 226.376 110.418C225.523 103.146 225.704 95.7277 226.824 88.4376L226.828 88.4332Z" fill="#2B041E"/>
<path d="M46.5502 81.3063C44.9684 82.5845 42.6131 84.4973 41.0312 85.7799C40.1963 86.4543 54.9298 108.303 56.3448 110.255C62.0747 118.149 68.3231 125.571 75.0549 132.421C81.7692 139.257 88.9624 145.52 96.5774 151.096C100.304 153.824 104.126 156.389 108.042 158.778C110.335 160.175 116.957 165.588 119.471 164.12C119.576 164.058 114.018 136.665 113.547 134.144C112.669 129.393 109.804 128.727 106.051 126.88C101.494 124.637 97.0168 122.2 92.6315 119.581C75.6482 109.426 60.0622 96.5079 46.5459 81.3151L46.5502 81.3063Z" fill="url(#paint6_linear_3_167975)"/>
<path d="M31.1975 95.0446C34.0097 95.7718 37.0329 95.0799 39.9023 94.0705C39.9023 94.0705 39.9066 94.0705 39.911 94.0705C40.8514 93.74 41.7742 93.3741 42.6706 93.0171C43.3736 92.8276 44.103 92.6116 44.8413 92.378C44.8984 92.3604 44.9555 92.3428 45.0126 92.3251C45.0697 92.3075 45.1269 92.2899 45.184 92.2678C45.2235 92.259 45.2631 92.2458 45.3026 92.2282C49.1431 90.853 51.7444 87.23 51.8762 83.1222C51.8762 83.0781 51.8762 83.034 51.8762 82.9899C51.8762 82.9899 51.8762 82.9811 51.8762 82.9635C51.8762 82.9591 51.8762 82.9503 51.8762 82.937V82.9018C51.8762 82.8269 51.8762 82.6946 51.8719 82.5139V82.4214C51.8543 81.3283 51.7312 78.7366 50.6898 75.5456C50.6591 75.4486 50.6283 75.3561 50.5932 75.2591C50.5229 75.0431 50.4394 74.8183 50.3515 74.5891C50.3163 74.4922 50.2812 74.3996 50.2416 74.2982C50.2021 74.2057 50.1669 74.1087 50.123 74.0073C50.0878 73.9104 50.0483 73.8134 50.0044 73.7164C49.7275 73.0553 49.4067 72.3721 49.0376 71.6802C48.9849 71.5744 48.9278 71.473 48.8707 71.3672C48.6334 70.9397 48.3829 70.5077 48.1061 70.0758C48.1061 70.0758 48.1017 70.067 48.0973 70.0626C48.0446 69.9788 47.9918 69.8907 47.9347 69.8069C47.6843 69.4235 47.3503 69.1061 46.968 68.8725C46.8977 68.8285 46.8274 68.7844 46.7571 68.7491C46.7263 68.7315 46.6956 68.7183 46.6604 68.7006C46.5374 68.6433 46.4056 68.5905 46.2693 68.5508C46.2034 68.5288 46.1331 68.5111 46.0672 68.4979C46.054 68.4979 46.0408 68.4891 46.0277 68.4891C45.953 68.4715 45.8827 68.4626 45.808 68.4494C45.7464 68.4406 45.6893 68.4318 45.6234 68.4318C45.5619 68.4274 45.5048 68.423 45.4389 68.423C45.3905 68.423 45.3422 68.423 45.2938 68.4274C45.2455 68.4274 45.1972 68.4318 45.1488 68.4362C44.9555 68.4538 44.7666 68.4891 44.5864 68.5464C44.4502 68.5861 44.3183 68.6389 44.1909 68.6962C44.1909 68.6962 44.1821 68.6962 44.1777 68.7006C42.776 69.3221 41.8445 70.9088 42.7013 72.2752C45.2499 76.3654 45.8475 78.362 45.5355 79.3934C44.8281 79.1025 44.103 78.8248 43.3604 78.5251C38.8828 76.6122 34.8095 74.9241 32.1027 70.4328C31.4304 69.3221 29.9847 69.0621 28.873 69.5998C27.2955 70.3623 26.7814 72.5396 27.7173 73.9677C29.9935 77.4364 32.1994 79.6755 36.3694 81.2093C36.4397 81.2357 36.51 81.249 36.5847 81.271C36.532 81.5795 36.4748 81.888 36.4221 82.1922C33.4297 81.4693 30.6131 80.5658 27.7789 78.7366C24.0526 76.3301 20.2166 81.8616 23.9648 84.5326C27.7525 87.23 31.448 87.9352 35.6004 87.6223C35.5213 88.4112 35.4642 89.187 35.4466 89.9407C34.0185 89.923 32.7135 89.9627 31.0261 89.5704C24.7821 88.1203 26.0695 93.7091 31.2107 95.0446H31.1975Z" fill="url(#paint7_linear_3_167975)"/>
<path opacity="0.13" d="M43.9491 88.5875C42.1915 89.7996 39.5155 90.258 37.7227 89.1649C40.9611 87.0272 44.5907 84.8543 46.1198 80.9492C47.8072 83.8979 46.4626 86.9082 43.9491 88.5919V88.5875Z" fill="#2B041E"/>
<path opacity="0.13" d="M39.9111 94.0662C40.8515 93.7356 41.7742 93.3698 42.6706 93.0127C43.3737 92.8232 44.1031 92.6073 44.8413 92.3737C44.9556 92.3384 45.0698 92.3031 45.1841 92.2635C45.2236 92.2547 45.2632 92.2414 45.3027 92.2238C49.1432 90.8486 51.7445 87.2256 51.8763 83.1178C51.8763 83.0737 51.8763 83.0296 51.8763 82.9856C51.8763 82.9856 51.8763 82.9767 51.8763 82.9591C51.8763 82.9547 51.8763 82.9415 51.8763 82.9327C51.8763 82.9194 51.8763 82.9106 51.8763 82.8974C51.8763 82.8225 51.8763 82.6903 51.8719 82.5095C51.8719 82.4787 51.8719 82.4478 51.8719 82.417C51.8544 81.3239 51.7313 78.7323 50.6899 75.5412C50.6592 75.4442 50.6284 75.3517 50.5933 75.2547C50.5229 75.0387 50.4395 74.814 50.3516 74.5848C50.3164 74.4878 50.2813 74.3952 50.2417 74.2939C50.2022 74.2013 50.167 74.1043 50.1231 74.003C50.0879 73.906 50.0484 73.809 50.0044 73.7121C49.7276 73.0509 49.4068 72.3678 49.0377 71.6758C48.985 71.57 48.9279 71.4686 48.8708 71.3628C48.6335 70.9353 48.383 70.5034 48.1062 70.0714C48.1062 70.0714 48.1018 70.0626 48.0974 70.0582C47.7503 69.5117 47.3064 69.0312 46.7528 68.7403C46.722 68.7227 46.6913 68.7095 46.6561 68.6919C46.5331 68.6302 46.4056 68.5773 46.265 68.542C46.2167 68.5244 46.164 68.5112 46.1112 68.4979C46.0937 68.4979 46.0761 68.4891 46.0585 68.4891C46.0453 68.4891 46.0321 68.4803 46.019 68.4803C45.9443 68.4627 45.874 68.4539 45.7993 68.4406C45.7377 68.4318 45.6806 68.423 45.6147 68.423C45.5532 68.4186 45.4961 68.4142 45.4302 68.4142C45.3818 68.4142 45.3335 68.4142 45.2851 68.4186C45.2368 68.4186 45.1885 68.423 45.1401 68.4274C44.9512 68.445 44.7622 68.4803 44.5777 68.5376C44.3009 68.6213 44.0372 68.7359 43.7955 68.8858C45.8256 68.9872 47.346 70.6973 48.3566 72.6278C50.1231 76.1847 50.8217 80.5394 49.8331 84.3519C48.3654 89.0812 44.4151 92.1885 39.9023 94.0662H39.9111Z" fill="#2B041E"/>
<g style="mix-blend-mode:overlay" opacity="0.3">
<path d="M33.3069 73.8884C33.4299 74.3644 33.4607 74.9506 33.0872 75.2591C32.6873 75.5897 32.0722 75.409 31.624 75.1357C30.71 74.576 30.0157 73.668 29.7081 72.6455C29.5763 72.2135 29.5148 71.7463 29.6598 71.3232C30.5474 68.7404 33.0433 72.8923 33.3025 73.8884H33.3069Z" fill="white"/>
</g>
<g style="mix-blend-mode:overlay" opacity="0.3">
<path d="M29.9495 81.9983C30.3186 82.6727 30.4899 83.563 30.0198 84.1624C29.7517 84.5062 29.3079 84.6869 28.8729 84.7266C28.4335 84.7662 27.9941 84.6825 27.5634 84.5811C26.7373 84.3828 25.9113 84.1051 25.2433 83.5806C24.5754 83.0561 24.0833 82.2407 24.1272 81.3989C24.1975 80.0061 25.5729 79.5036 26.7681 79.724C28.0863 79.9664 29.3035 80.8127 29.9539 81.9983H29.9495Z" fill="white"/>
</g>
<g style="mix-blend-mode:overlay" opacity="0.3">
<path d="M31.9534 91.3467C32.4763 91.6861 32.9816 92.193 32.9816 92.81C32.9816 93.3521 32.5641 93.8326 32.0588 94.0221C31.5535 94.216 30.9823 94.1631 30.455 94.0133C29.7211 93.8061 29.0225 93.3962 28.6006 92.7615C28.1217 92.0343 27.9942 90.7473 29.0049 90.4652C29.9145 90.2096 31.2064 90.8575 31.9534 91.3423V91.3467Z" fill="white"/>
</g>
<path opacity="0.3" d="M60.0581 95.0974C70.125 104.437 81.0576 112.648 92.6406 119.573C97.0215 122.195 101.499 124.628 106.06 126.871C109.813 128.718 112.678 129.384 113.557 134.135C114.022 136.656 119.581 164.049 119.48 164.111C116.966 165.579 110.344 160.166 108.051 158.769C104.136 156.38 100.308 153.815 96.5865 151.087C88.9715 145.507 81.7783 139.243 75.064 132.412C70.2613 127.524 65.7046 122.341 61.4027 116.906C61.8641 109.607 61.3851 102.251 60.0625 95.0974H60.0581Z" fill="#2B041E"/>
<path d="M110.564 127.039C113.28 137.362 108.908 148.328 102.712 157.01C96.5161 165.693 88.5056 172.957 82.4242 181.719C76.3427 190.481 72.2562 201.619 75.3804 211.827C78.6584 222.542 88.8396 229.435 98.6253 234.852C111.034 241.719 124.287 247.749 138.41 248.97C152.528 250.191 167.749 245.893 176.885 235.029C186.569 223.507 187.8 207.107 186.644 192.081C185.493 177.056 180.141 148.742 182.949 133.937C159.22 123.055 136.582 128.97 110.564 127.048V127.039Z" fill="url(#paint8_linear_3_167975)"/>
<path d="M125.126 139.451C120.398 151.809 113.952 163.503 106.029 174.09C102.685 178.559 99.0512 182.874 96.5246 187.854C93.998 192.835 92.6402 198.688 94.1869 204.057C94.7142 203.016 95.2371 201.976 95.7644 200.94C95.7644 209.672 99.8993 218.311 106.688 223.78C106.495 222.189 106.297 220.594 106.104 219.003C107.497 225.081 112.181 230.29 118.06 232.309C122.292 230.731 126.558 229.933 130.794 228.355C129.349 231.251 127.029 233.697 124.216 235.289C126.827 235.381 129.432 235.478 132.042 235.571C137.06 235.751 142.122 233.808 145.734 230.304C145.664 232.278 143.766 234.367 142.228 235.601C145.919 234.782 149.61 233.962 153.301 233.138C152.695 234.398 152.084 235.659 151.478 236.919C157.744 234.235 163.21 229.709 167.024 224.049C167.015 225.742 166.962 227.567 166.954 229.259C169.959 224.816 171.756 219.558 172.095 214.198C172.93 214.833 173.769 215.472 174.604 216.107C174.626 210.589 174.652 205.066 174.674 199.548C175.588 201.271 176.95 202.549 177.864 204.273C180.518 193.902 179.552 182.931 177.587 172.406C175.619 161.881 172.67 151.532 171.365 140.901C156.329 137.123 140.211 135.894 125.122 139.446L125.126 139.451Z" fill="url(#paint9_linear_3_167975)"/>
<g style="mix-blend-mode:overlay" opacity="0.17">
<path d="M145.743 187.33C142.101 187.383 138.313 187.996 135.633 190.556C131.673 194.338 133.097 200.332 136.076 204.052C141.639 211.003 149.764 215.781 158.504 217.376C165.97 218.738 179.723 219.069 182.114 209.152C183.862 201.906 177.337 197.132 172.152 194.087C164.168 189.397 155.019 187.193 145.743 187.334V187.33Z" fill="white"/>
</g>
<path opacity="0.5" d="M171.647 180.657C173.242 185.104 173.181 190.151 171.559 194.594L170.764 196.749V194.439C170.759 192.465 170.417 190.499 169.797 188.635C169.182 186.77 168.263 185.003 167.09 183.438L168.105 183.077C168.198 184.937 167.943 186.805 167.38 188.573C166.73 190.737 165.495 192.694 164.045 194.413C163.579 192.253 162.938 190.124 162.279 187.991C161.747 186.232 161.207 184.469 160.793 182.649L161.773 182.535C161.725 185.104 160.222 187.572 157.95 188.754L157.063 189.208C157.617 187.885 158.082 186.488 158.258 185.056C158.412 183.945 158.438 182.812 158.324 181.688L158.711 181.706C158.28 183.429 157.173 184.968 155.683 185.902C157.054 184.862 158.016 183.301 158.328 181.622L158.535 180.511L158.715 181.64C159.089 183.945 158.882 186.338 158.122 188.555L157.595 188.097C159.528 186.982 160.815 184.765 160.78 182.535L160.723 178.242L161.76 182.42C162.652 185.972 164.036 189.388 164.898 192.98L163.883 192.756C164.937 191.403 165.741 189.851 166.277 188.216C166.809 186.576 167.055 184.844 166.98 183.125L166.901 181.248L167.995 182.764C170.43 186.131 171.717 190.301 171.585 194.448L170.79 194.294C172.543 189.997 172.82 185.157 171.647 180.653V180.657Z" fill="#EB985E"/>
<path opacity="0.5" d="M81.9317 189.38C79.6907 193.201 78.4032 197.538 78.2626 201.963L77.4849 201.703C78.3681 200.323 80.1565 197.542 81.0529 196.172L83.1928 192.879C82.4985 195.096 81.378 198.146 81.1495 200.438C80.6398 204.308 81.1583 208.319 82.6699 211.915L81.5978 212.268C80.9694 209.553 81.3341 206.622 82.604 204.145L83.5136 202.391V204.352C83.5268 208.363 84.5945 212.352 86.5236 215.869C87.1695 217.05 87.9121 218.183 88.7514 219.25C85.9128 216.288 83.9662 212.493 83.0742 208.482C82.7798 207.133 82.604 205.758 82.5557 204.374L83.4653 204.577C82.3755 206.873 82.1031 209.544 82.7007 212.008L81.6285 212.361C81.0836 211.1 80.6618 209.791 80.3586 208.455C79.4534 204.449 79.6599 200.182 80.9958 196.295L81.9317 196.753L80.073 199.468C79.4754 200.328 77.8891 202.615 77.3179 203.444C77.4629 198.441 78.9701 193.417 81.9405 189.375L81.9317 189.38Z" fill="#6F340A"/>
<path opacity="0.5" d="M154.497 241.411C158.025 238.321 161.883 235.112 165.491 232.102C164.23 234.345 162.432 237.55 161.158 239.793L160.49 239.101C164.3 236.959 167.429 233.592 169.27 229.62L171.229 225.376C170.729 228.069 169.604 234.134 169.094 236.875L168.039 236.501L170.702 231.674C171.366 230.476 172.719 228.06 173.391 226.861L173.958 225.852L174.2 226.972C174.516 228.422 174.824 229.876 175.123 231.331L174.446 231.317C175.465 227.968 176.612 224.318 177.711 220.986C176.801 224.865 175.786 228.968 174.784 232.807C174.297 230.947 173.809 229.03 173.347 227.17L174.16 227.28C172.754 230.017 170.482 234.288 169.028 237.038L167.332 240.247L167.978 236.668L169.221 229.757L170.329 230.114C168.364 234.301 165.038 237.81 160.965 239.974L159.352 240.833C160.631 238.726 162.507 235.641 163.799 233.534L164.366 234.028L161.914 235.892C159.537 237.686 156.896 239.665 154.492 241.406L154.497 241.411Z" fill="#6F340A"/>
<path d="M104.794 179.947C101.859 183.288 100.326 187.833 100.73 192.244L99.9652 192.108C101.341 188.833 104.166 185.933 106.372 183.205L104.698 186.77C102.755 190.935 102.193 195.726 103.037 200.24C103.314 201.747 103.749 203.219 104.342 204.63L103.248 204.894C103.072 202.28 104.078 199.654 105.915 197.82L107.4 196.335L106.772 198.336C104.68 204.982 107.629 212.797 113.473 216.543C108.692 214.035 105.612 208.804 105.229 203.444C105.098 201.633 105.265 199.786 105.787 198.032L106.644 198.547C105.054 200.196 104.223 202.554 104.386 204.819L104.623 208.187L103.292 205.084C100.739 199.156 100.923 192.117 103.784 186.334L104.627 186.88C103.138 188.608 101.653 190.358 100.695 192.438L100.005 193.919L99.9301 192.302C99.7016 187.731 101.499 183.086 104.794 179.947Z" fill="#D87C3D"/>
<path opacity="0.5" d="M134.134 153.793C131.871 155.437 128.606 157.799 126.29 159.443L126.15 158.981C128.725 158.932 131.269 157.962 133.176 156.27L136.023 153.744L133.752 156.816C131.713 159.576 130.531 162.939 130.329 166.341L129.397 166.002C130.395 164.631 133.883 159.822 134.815 158.54C134.415 160.867 134.028 163.419 134.354 165.773C134.538 167.408 134.947 169.012 135.558 170.533L134.455 170.581L136.656 163.393L137.434 160.854L137.759 163.489C138.128 166.469 139.165 169.382 140.813 171.904L140.018 171.837C141.23 170.542 142.483 169.285 143.722 168.025C145.286 166.447 146.868 164.821 148.41 163.216C147.778 165.706 147.171 168.241 146.525 170.722L146.126 170.458C148.78 168.624 151.043 166.231 152.787 163.507C151.218 166.376 149.021 168.884 146.424 170.872L145.888 171.282L146.024 170.608C146.442 168.536 146.899 166.478 147.334 164.411L147.975 164.75C145.611 167.386 143.138 169.916 140.76 172.525L140.325 172.997L139.965 172.459C138.199 169.828 137.034 166.782 136.63 163.622L137.733 163.714C137.386 164.873 135.386 171.511 135.087 172.512L134.464 170.965C133.163 167.721 132.776 164.12 133.33 160.673L134.34 161.096C133.571 162.128 129.858 167.095 129.169 168.02L129.292 166.271C129.542 162.661 130.913 159.166 133.11 156.327L133.686 156.874C131.568 158.61 128.843 159.567 126.141 159.479L125.324 159.452C127.987 157.746 131.467 155.45 134.125 153.784L134.134 153.793Z" fill="#EB985E"/>
<path opacity="0.17" d="M163.03 229.475C134.429 230.193 121.822 207.16 124.432 194.664C131.072 162.895 156.07 165.552 172.223 174.31C177.372 177.052 182.474 180.789 186.051 185.549C184.733 172.662 180.624 148.473 183.028 135.806C159.299 124.923 136.586 128.961 110.569 127.039C113.284 137.362 108.912 148.328 102.716 157.01C96.5205 165.693 88.51 172.957 82.4286 181.719C76.3471 190.481 72.2606 201.619 75.3848 211.827C78.6628 222.542 88.844 229.435 98.6297 234.852C111.039 241.719 124.291 247.749 138.414 248.97C152.532 250.191 167.754 245.893 176.889 235.029C181.288 229.797 183.937 223.56 185.414 216.905C179.715 223.3 172.429 229.246 163.03 229.484V229.475Z" fill="#2B041E"/>
<path opacity="0.5" d="M105.563 84.9292C103.432 82.8577 101.859 80.2792 101.099 77.5069L100.743 76.2023C99.9829 78.5339 99.627 81.0285 100.11 83.5408L101.059 83.3116C100.559 82.1657 100.062 81.0153 99.5523 79.8693C99.1436 78.957 97.8254 75.9951 97.4343 75.1312C95.8744 78.8556 95.6151 82.9767 97.0652 86.9787L97.7419 86.4498C96.1336 85.5419 94.6967 84.0609 93.9102 82.3993L93.4796 81.4296C92.6974 84.2196 92.7545 87.3049 93.9629 90.1037C93.2467 87.6222 93.2247 84.9865 93.9278 82.6108H93.273C93.8355 84.0697 94.8417 85.295 96.0194 86.3352C96.6433 86.917 97.6144 87.4459 98.3614 87.8735C96.9949 84.2725 96.7927 80.3189 98.0407 76.8458L96.9905 76.8237C97.9089 78.8468 99.2095 81.672 100.145 83.6554L101.925 87.4812C101.569 85.6168 100.743 82.3949 100.796 80.5481C100.796 79.5873 100.901 78.6308 101.099 77.6964L100.383 77.6656C101.327 80.4732 103.155 83.078 105.559 84.9292H105.563Z" fill="#6F340A"/>
<path d="M217.57 107.844C218.708 112.432 217.429 117.554 214.27 121.058C214.393 119.568 214.511 118.074 214.63 116.584C213.9 125.677 201.215 132.663 194.254 136.123C168.681 148.839 135.553 153.132 107.422 148.588C98.581 147.159 87.6177 143.567 84.5813 134.078C85.0339 135.502 85.4909 136.925 85.9479 138.349C82.0679 135.66 79.6599 130.966 79.7302 126.241C79.137 127.462 78.5438 128.679 77.9506 129.895C76.6763 118.264 80.0774 107.417 92.2711 96.6665C91.3703 90.2403 90.8254 88.8255 90.9396 82.6813C91.4757 53.7722 103.876 29.5659 134.121 24.9424C160.956 20.8433 180.461 36.5034 191.359 57.7566C195.515 65.8621 196.895 70.6443 198.477 79.5961C215.935 85.987 218.716 99.2538 220.136 111C219.283 109.946 218.426 108.897 217.574 107.848L217.57 107.844Z" fill="url(#paint10_linear_3_167975)"/>
<path d="M115.951 35.547C115.38 35.8908 114.773 35.353 114.202 35.688C114.233 35.688 114.11 35.9216 114.114 35.9569C111.008 35.7497 107.98 34.714 105.357 33.0435C102.962 31.5229 100.897 29.469 99.4158 27.0492C96.3004 21.9629 95.817 15.3516 98.1591 9.85975C98.5985 8.82397 99.3103 7.70445 100.426 7.58985C100.448 7.58985 100.466 7.58545 100.488 7.58985C101.301 7.53256 102.043 8.04383 102.676 8.56833C106.178 11.4861 108.547 15.5411 110.485 19.6798C112.862 24.7573 114.699 30.086 115.951 35.5514V35.547Z" fill="url(#paint11_linear_3_167975)"/>
<path d="M115.951 35.547C115.379 35.8908 114.773 35.3531 114.202 35.688C114.233 35.688 114.11 35.9216 114.114 35.9569C111.007 35.7498 107.98 34.714 105.356 33.0435C106.881 29.6321 107.501 25.8151 107.105 22.0951C106.53 16.7267 103.92 11.7726 100.488 7.58106C101.301 7.52377 102.043 8.03504 102.676 8.55954C106.178 11.4773 108.547 15.5323 110.484 19.671C112.862 24.7485 114.698 30.0772 115.951 35.5426V35.547Z" fill="url(#paint12_linear_3_167975)"/>
<path opacity="0.2" d="M110.485 19.6753C108.819 16.1229 106.838 12.6321 104.091 9.86853C107.145 14.2276 108.986 17.9211 110.164 23.4262C110.902 27.1858 110.318 31.6859 108.037 34.4671C109.962 35.3001 112.023 35.8202 114.114 35.9569C114.114 35.9172 114.229 35.6836 114.202 35.688C114.773 35.353 115.38 35.8907 115.951 35.547C114.699 30.086 112.862 24.7528 110.485 19.6753Z" fill="#2B041E"/>
<g style="mix-blend-mode:overlay" opacity="0.4">
<path d="M99.6137 9.02234C98.1065 11.6625 97.3419 14.7257 97.443 17.7713C97.5396 20.8126 98.4976 23.8229 100.172 26.3617C98.4756 20.9139 98.4448 14.6155 99.6137 9.02675V9.02234Z" fill="white"/>
</g>
<path d="M157.045 30.7868C157.678 30.994 158.148 30.3284 158.78 30.5224C158.75 30.5224 158.921 30.7295 158.926 30.7648C161.9 29.8524 164.616 28.1511 166.791 25.9253C168.777 23.8934 170.319 21.4252 171.211 18.7278C173.088 13.0641 172.055 6.51442 168.531 1.70578C167.868 0.797826 166.923 -0.132169 165.807 0.0132808C165.785 0.0132808 165.767 0.0176883 165.745 0.0220959C164.941 0.154323 164.33 0.819863 163.838 1.47659C161.092 5.12164 159.708 9.60853 158.763 14.0778C157.603 19.5652 157.027 25.176 157.045 30.7824V30.7868Z" fill="url(#paint13_linear_3_167975)"/>
<path d="M157.045 30.7868C157.678 30.994 158.148 30.3284 158.78 30.5224C158.75 30.5224 158.921 30.7295 158.926 30.7648C161.9 29.8524 164.616 28.1511 166.791 25.9253C164.532 22.9502 163.06 19.3801 162.599 15.6645C161.94 10.3093 163.355 4.88363 165.745 0.0220947C164.941 0.154321 164.33 0.819862 163.838 1.47659C161.092 5.12164 159.708 9.60853 158.763 14.0778C157.603 19.5652 157.027 25.176 157.045 30.7824V30.7868Z" fill="url(#paint14_linear_3_167975)"/>
<path opacity="0.2" d="M158.763 14.0822C159.576 10.2432 160.714 6.39103 162.757 3.07214C160.776 8.01742 159.822 12.0327 159.928 17.6612C160.064 21.4913 161.654 25.7358 164.506 27.9219C162.823 29.1737 160.934 30.1478 158.926 30.7648C158.926 30.7252 158.75 30.5224 158.781 30.5224C158.148 30.3241 157.678 30.9896 157.045 30.7869C157.023 25.1804 157.603 19.5696 158.763 14.0822Z" fill="#2B041E"/>
<g style="mix-blend-mode:overlay" opacity="0.4">
<path d="M166.927 1.22534C168.997 3.45116 170.434 6.26318 171.031 9.24709C171.629 12.231 171.378 15.378 170.324 18.2341C170.737 12.5395 169.335 6.39981 166.927 1.22534Z" fill="white"/>
</g>
<path d="M191.358 57.7567C182.118 39.7298 166.685 25.7358 145.84 24.3959C145.985 21.5486 145.326 18.6617 143.889 16.2023C143.902 17.6876 142.896 19.1774 141.661 19.9884C142.487 16.3918 141.67 12.2223 139.372 9.34412C139.055 14.404 136.471 19.1553 132.323 22.0555C133.435 19.7151 133.949 16.9736 133.356 14.4525C131.475 19.3713 128.364 23.8097 124.423 27.2873C101.195 35.1768 91.414 57.0912 90.9395 82.6859C92.2181 79.3097 93.5496 59.2817 110.788 50.0214C122.88 57.6333 130.078 76.1054 134.898 87.5121L154.755 81.6633C152.075 69.851 149.983 51.9343 154.184 40.8449C165.978 40.2367 182.781 47.6722 191.354 57.7655L191.358 57.7567Z" fill="url(#paint15_linear_3_167975)"/>
<path d="M145.176 92.3604C146.785 94.4495 147.848 96.8737 148.612 99.3772C149.346 101.889 149.786 104.503 149.579 107.134C148.634 104.706 147.958 102.269 147.206 99.8003C146.486 97.3233 145.721 94.9123 145.176 92.3604Z" fill="#984F1A"/>
<g style="mix-blend-mode:overlay" opacity="0.25">
<path d="M143.696 26.8112C144.21 24.2195 144.262 21.5353 143.841 18.9261C143.116 21.7866 141.463 24.3958 139.047 26.0795C140.453 22.7298 140.747 18.979 139.908 15.4441C138.137 19.8076 134.78 23.4614 130.671 25.7401C130.979 23.8317 131.287 21.9188 131.594 20.0103C130.474 22.9237 128.461 25.4801 125.899 27.2563C127.437 26.8905 128.892 25.9164 129.683 24.5457C129.648 26.1104 129.208 27.6618 128.413 29.0105C132.258 27.8425 135.773 25.3831 138.212 22.1788C138.071 24.7837 137.57 27.4899 136.691 29.945C139.113 28.464 141.213 26.4586 142.808 24.1093C143.168 24.9512 143.674 25.8988 143.696 26.8156V26.8112Z" fill="white"/>
</g>
<g style="mix-blend-mode:overlay" opacity="0.2">
<path d="M185.492 50.6076C180.584 44.913 175.509 39.289 169.484 34.7977C163.46 30.3064 156.386 26.9787 148.898 26.4321C160.358 34.9035 173.048 43.6657 185.492 50.6032V50.6076Z" fill="white"/>
</g>
<path opacity="0.5" d="M142.162 25.5463C145.242 27.9792 147.83 31.0204 149.777 34.4363L150.405 35.5426L149.28 34.9167C147.32 33.8281 145.378 32.713 143.427 31.6067L144.064 30.9235C145.743 33.3212 146.929 36.0627 147.558 38.9232L147.87 40.3601C145.835 38.8306 143.673 37.5128 141.564 36.0098L142.408 35.2341C143.005 36.2214 143.396 37.3277 143.577 38.4604C143.867 40.0075 143.577 41.6427 143.199 43.1545C141.867 41.2548 140.527 39.3243 139.218 37.4114L140.162 36.9486C140.918 39.4874 140.778 42.2729 139.758 44.7147L139.442 45.4772L138.994 44.7985C137.42 42.4096 135.861 40.0075 134.318 37.5965L134.766 37.407C135.228 39.8047 134.507 42.3919 132.877 44.1814C134.305 42.3082 134.841 39.7871 134.283 37.5128L133.975 36.2831C135.909 38.9408 137.825 41.625 139.719 44.3136L138.954 44.393C139.806 42.1275 139.877 39.5667 139.147 37.266L138.128 34.0705C139.815 36.4197 141.744 39.0951 143.392 41.4443L142.368 41.6515C142.794 39.6901 142.43 37.5657 141.41 35.8467L139.956 33.3873C142.302 35.1812 144.908 36.8693 147.342 38.5926L146.459 39.1656C145.906 36.4285 144.816 33.806 143.282 31.47L142.127 29.6894C144.609 31.2188 147.184 32.7658 149.654 34.3041L149.157 34.7845C147.382 31.3422 144.992 28.2084 142.171 25.5507L142.162 25.5463Z" fill="#6F340A"/>
<path opacity="0.5" d="M130.597 69.2074C131.089 66.3337 130.847 63.3763 130.056 60.5863L130.79 61.4193C132.53 63.4159 133.664 65.9459 133.998 68.5904L133.136 68.5331C133.752 65.7872 133.822 62.9135 133.317 60.1499L133 58.4354C135.184 60.4981 137.179 62.8341 138.651 65.461C139.868 67.5722 140.778 69.8554 141.389 72.2134L140.308 72.1473C141.037 70.2961 141.419 68.2995 141.433 66.2985C141.441 64.2974 141.103 62.2832 140.382 60.4144L138.875 56.5181C140.567 59.1097 142.931 62.6887 144.601 65.2847L144.029 65.4742C144.003 62.3801 143.555 59.2904 142.724 56.3021C143.964 59.5593 144.588 63.0413 144.715 66.5277C144.302 65.9547 142.689 63.6936 142.245 63.0765L140.422 60.5025L141.195 60.0838C142.03 62.0408 142.456 64.1696 142.478 66.2985C142.505 68.4273 142.144 70.5738 141.362 72.5704L140.725 74.1924L140.281 72.5043C139.077 67.9866 136.704 63.795 133.462 60.4364L134.389 59.956C134.868 62.8694 134.736 65.8841 133.98 68.7358L133.352 71.1468C133.18 69.181 133.031 66.8626 132.244 65.0335C131.783 63.8611 131.146 62.7592 130.373 61.7587L130.843 61.5295C131.317 64.0682 131.238 66.7084 130.592 69.203L130.597 69.2074Z" fill="#6F340A"/>
<path opacity="0.13" d="M220.131 110.996C218.712 99.2494 215.931 85.9827 198.473 79.5917C196.891 70.6444 195.511 65.8578 191.354 57.7523C189.592 54.3144 187.602 51.0263 185.396 47.9411C183.084 66.012 162.173 74.9814 145.22 75.7924C130.337 76.2508 114.316 72.5132 106.679 58.6294C102.373 50.8545 104.201 42.8768 108.784 36.2434C96.6828 46.967 91.2868 63.8215 90.9353 82.677C90.8166 88.8211 91.3659 90.236 92.2667 96.6622C80.073 107.408 76.6719 118.255 77.9462 129.891C78.5394 128.67 79.1326 127.453 79.7258 126.237C79.6555 130.962 82.0635 135.656 85.9435 138.344C85.4865 136.921 85.0295 135.497 84.577 134.074C87.6133 143.563 98.5766 147.155 107.418 148.583C135.549 153.127 168.681 148.83 194.25 136.119C201.21 132.659 213.896 125.673 214.626 116.58C214.507 118.074 214.388 119.564 214.265 121.054C217.429 117.55 218.708 112.428 217.565 107.84C218.418 108.889 219.275 109.942 220.127 110.991L220.131 110.996ZM200.389 117.395C179.556 140.848 143.792 147.42 114.716 137.926C103.801 134.36 90.5749 123.773 95.782 110.841C101.464 96.7415 117.195 91.3379 130.808 87.2521C141.415 84.0698 152.216 81.39 163.285 80.5438C178.181 79.4022 195.546 79.5388 203.965 94.0485C208.474 101.819 206.699 110.083 201.013 116.681C200.806 116.919 200.599 117.157 200.389 117.395Z" fill="#2B041E"/>
<path d="M154.351 87.6355C153.516 89.0019 152.484 90.3197 151.28 91.523C149.922 92.8717 148.34 94.0706 146.547 95.005C144.583 95.146 142.623 94.8904 140.765 94.3042C139.57 93.9295 138.414 93.4138 137.329 92.7747C134.683 91.2277 132.447 88.9666 131.01 86.2295C131.036 86.2075 131.062 86.181 131.089 86.159C132.152 85.2202 133.29 84.3607 134.481 83.5894C139.811 80.1383 146.249 78.4193 152.585 78.7587C153.899 78.8292 155.208 78.9923 156.5 79.2391C156.649 79.27 156.799 79.292 156.948 79.3273C156.983 81.8352 156.074 84.8279 154.356 87.6311L154.351 87.6355Z" fill="url(#paint16_linear_3_167975)"/>
<path opacity="0.7" d="M154.351 87.6355C153.516 89.0019 152.484 90.3197 151.28 91.523C149.922 92.8717 148.34 94.0706 146.547 95.005C144.583 95.146 142.623 94.8904 140.765 94.3042C139.57 93.9295 138.414 93.4138 137.329 92.7747C134.683 91.2277 132.447 88.9666 131.01 86.2295C131.036 86.2075 131.062 86.181 131.089 86.159C132.631 87.6752 134.442 88.7903 136.384 89.4955C142.215 91.62 149.223 90.0905 153.648 84.9689C153.683 84.9293 153.719 84.8852 153.754 84.8455C155.169 83.1486 156.245 81.1608 156.496 79.2435C156.645 79.2744 156.794 79.2964 156.944 79.3317C156.979 81.8396 156.069 84.8323 154.351 87.6355Z" fill="#0C0126"/>
<g style="mix-blend-mode:overlay" opacity="0.4">
<path d="M133.04 85.877C138.933 81.2446 146.662 79.0364 154.101 79.8562C147.817 83.7349 140.418 85.7403 133.04 85.877Z" fill="white"/>
</g>
<path d="M101.793 67.321C101.495 67.9778 101.231 68.6742 101.218 69.397C101.205 70.1198 101.477 70.8823 102.07 71.3011C102.936 71.9137 104.122 71.614 105.107 71.2261C108.363 69.9479 111.337 67.9513 113.763 65.4214C114.585 64.5663 115.354 63.6231 115.762 62.5124C116.171 61.4017 116.167 60.075 115.503 59.0921C113.636 56.3286 109.975 58.8673 107.985 60.1632C105.309 61.9042 103.125 64.4076 101.793 67.321Z" fill="url(#paint17_linear_3_167975)"/>
<path opacity="0.13" d="M115.499 59.0921C114.936 58.2591 114.211 57.9109 113.416 57.8624C113.491 62.5961 109.698 67.1668 104.759 67.969C103.67 68.207 102.589 68.1056 101.609 67.7353C101.394 68.2687 101.227 68.8196 101.213 69.3926C101.2 70.1154 101.473 70.8779 102.066 71.2967C102.931 71.9093 104.118 71.6096 105.102 71.2217C108.358 69.9435 111.333 67.9469 113.759 65.417C114.58 64.5619 115.349 63.6187 115.758 62.508C116.167 61.3929 116.162 60.0706 115.499 59.0877V59.0921Z" fill="#2B041E"/>
<path d="M173.356 49.6247C173.967 50.0126 174.56 50.4533 174.964 51.0528C175.368 51.6522 175.553 52.4455 175.281 53.1155C174.885 54.0984 173.725 54.4951 172.688 54.7066C169.261 55.4074 165.684 55.3545 162.278 54.5524C161.127 54.2791 159.967 53.9133 159.022 53.1992C158.078 52.4852 157.366 51.3745 157.388 50.1889C157.458 46.8524 161.905 46.9846 164.278 46.989C167.468 46.9934 170.658 47.9014 173.352 49.6203L173.356 49.6247Z" fill="url(#paint18_linear_3_167975)"/>
<path opacity="0.13" d="M157.392 50.1977C157.414 49.1928 157.832 48.5052 158.473 48.0292C160.973 52.0445 166.637 53.8119 171.216 51.7932C172.257 51.401 173.114 50.7266 173.734 49.8803C174.204 50.2065 174.643 50.5811 174.964 51.0572C175.368 51.6566 175.553 52.45 175.281 53.1199C174.885 54.1028 173.725 54.4995 172.688 54.711C169.261 55.4118 165.684 55.3589 162.278 54.5568C161.127 54.2835 159.967 53.9177 159.022 53.2036C158.078 52.4896 157.366 51.3789 157.388 50.1933L157.392 50.1977Z" fill="#2B041E"/>
<g style="mix-blend-mode:overlay" opacity="0.15">
<path d="M173.211 82.1393C171.255 82.4787 169.304 83.0605 168.241 84.3695C166.672 86.3001 168.338 88.6978 170.5 90.0024C174.538 92.4442 179.635 93.7488 184.583 93.6651C188.81 93.5946 196.275 92.5456 196.082 88.1689C195.941 84.9734 191.71 83.5277 188.458 82.6947C183.453 81.4121 178.189 81.2754 173.211 82.1349V82.1393Z" fill="white"/>
</g>
<g style="mix-blend-mode:overlay" opacity="0.15">
<path d="M100.514 104.539C99.2444 106.077 98.1415 107.805 98.1942 109.519C98.2689 112.053 101.112 112.851 103.617 112.472C108.296 111.762 113.038 109.471 116.755 106.187C119.928 103.379 124.924 97.7024 121.901 94.3967C119.69 91.9814 115.52 93.599 112.497 95.0623C107.839 97.3101 103.744 100.629 100.514 104.539Z" fill="white"/>
</g>
<path d="M103.81 95.5383C103.788 94.7537 103.792 93.9692 103.814 93.1803C103.836 92.3957 103.889 91.6068 103.968 90.8178C104.139 89.2443 104.456 87.6576 105.023 86.1193C105.581 84.5899 106.455 83.0958 107.598 81.8616C108.749 80.6275 110.186 79.605 111.851 79.0364C112.686 78.7587 113.574 78.6133 114.466 78.6133C115.353 78.6133 116.241 78.7631 117.067 79.0496C118.719 79.6182 120.138 80.6231 121.272 81.8308C122.419 83.0473 123.263 84.4533 123.931 85.8946C124.265 86.6174 124.555 87.3535 124.814 88.0983C125.073 88.8432 125.31 89.5881 125.521 90.3462C124.673 89.0239 123.895 87.6708 123.021 86.4147C122.155 85.1585 121.211 83.9817 120.112 83.0429C119.018 82.0953 117.77 81.3548 116.461 80.9801C115.806 80.7906 115.138 80.6981 114.479 80.7201C113.82 80.7289 113.161 80.8435 112.519 81.0595C111.24 81.487 110.054 82.2804 109.039 83.2677C108.534 83.7657 108.077 84.3167 107.659 84.9029C107.25 85.4847 106.881 86.1193 106.556 86.7805C105.906 88.1072 105.414 89.544 104.992 91.0205C104.57 92.4971 104.223 94.0221 103.81 95.5383Z" fill="url(#paint19_linear_3_167975)"/>
<path d="M162.428 80.8522C162.419 79.4066 162.485 77.9653 162.674 76.5196C162.867 75.0739 163.201 73.6194 163.768 72.2178C164.339 70.8118 165.169 69.4851 166.259 68.3612C166.804 67.7971 167.419 67.299 168.096 66.8715C168.777 66.4483 169.52 66.1134 170.306 65.893C171.093 65.677 171.914 65.5845 172.719 65.6021C173.523 65.6285 174.314 65.7608 175.065 65.9811C176.572 66.4263 177.939 67.1888 179.116 68.1497C180.29 69.1105 181.265 70.2388 182.113 71.4245C182.535 72.0195 182.931 72.6277 183.295 73.2492C183.664 73.8707 184.016 74.4965 184.345 75.1444C182.307 73.1082 180.404 70.9529 178.137 69.4896C177.016 68.7667 175.799 68.2114 174.551 67.9161C173.307 67.6207 172.037 67.5943 170.864 67.9249C169.687 68.2466 168.592 68.9166 167.648 69.7893C166.699 70.6664 165.899 71.7374 165.262 72.9186C163.961 75.2987 163.289 78.0931 162.432 80.8478L162.428 80.8522Z" fill="url(#paint20_linear_3_167975)"/>
<path d="M121.105 103.578C121.308 101.277 122.485 99.3729 124.467 98.1873C125.051 100.532 123.461 103.071 121.105 103.578Z" fill="#984F1A"/>
<path d="M158.908 132.143C155.797 132.853 152.717 133.002 149.606 133.717C144.944 130.415 131.59 114.482 127.068 103.551C126.95 103.26 126.84 102.983 126.73 102.701C127.292 102.855 127.855 102.996 128.422 103.128C128.633 103.177 128.848 103.225 129.059 103.269C130.026 103.899 130.957 104.556 131.919 105.12C133.106 105.821 134.332 106.381 135.69 106.579C140.58 107.311 145.506 106.976 150.203 105.548C155.274 104.005 160.055 101.18 164.265 97.3145C164.748 96.8693 165.148 96.3669 165.495 95.8159C166.044 94.9609 166.466 94.0088 166.901 93.0392C167.068 92.8937 167.226 92.7395 167.389 92.5852C167.802 92.1973 168.211 91.8006 168.619 91.3907C168.602 91.7125 168.584 92.0298 168.562 92.3472C167.239 113.111 160.103 129.966 158.908 132.147V132.143Z" fill="#984F1A"/>
<path d="M162.863 116.461C162.204 118.506 161.479 120.503 160.684 122.446C160.495 122.922 160.297 123.394 160.095 123.857C159.357 125.585 158.552 127.264 157.7 128.895C154.958 129.538 152.247 129.662 149.509 130.301C146.165 127.837 142.993 124.862 140.066 121.481C139.183 120.467 138.326 119.41 137.491 118.321C135.927 116.298 134.459 114.147 133.075 111.895C131.586 109.466 130.201 106.914 128.954 104.256C128.769 103.882 128.598 103.503 128.426 103.128C128.637 103.177 128.852 103.225 129.063 103.269C129.424 103.348 129.784 103.423 130.149 103.49C132.447 104.442 134.793 105.103 137.149 105.468C141.459 106.152 145.796 105.865 149.927 104.583C154.391 103.194 158.588 100.633 162.279 97.1206C162.753 96.6666 163.228 96.195 163.685 95.7102C164.792 94.8727 165.864 93.9824 166.897 93.0392C167.064 92.8937 167.222 92.7395 167.385 92.5852C167.349 93.0304 167.314 93.4711 167.275 93.9119C166.598 101.766 165.13 109.391 162.859 116.465L162.863 116.461Z" fill="url(#paint21_linear_3_167975)"/>
<path d="M160.095 123.852C159.357 125.58 158.552 127.259 157.7 128.89C154.958 129.534 152.247 129.657 149.509 130.296C146.165 127.832 142.993 124.857 140.066 121.477C144.465 120.362 149.127 120.278 153.534 121.34C155.819 121.887 158.025 122.737 160.09 123.852H160.095Z" fill="#FFB3B3"/>
<g style="mix-blend-mode:overlay" opacity="0.4">
<path d="M158.192 124.355C154.764 121.878 150.01 121.062 145.8 122.23C149.425 123.623 152.809 125.818 155.358 128.582C156.812 127.546 157.787 126.008 158.187 124.35L158.192 124.355Z" fill="white"/>
</g>
<path d="M161.545 98.1827C161.228 100.201 160.802 102.194 160.261 104.173C159.378 107.421 158.183 110.608 156.619 113.684C152.835 114.834 148.832 115.663 144.86 115.566C144.838 115.544 144.812 115.522 144.785 115.5C141.38 112.415 138.493 108.875 136.239 105.041C140.514 105.398 144.842 105.054 148.999 103.988C153.49 102.837 157.752 100.845 161.545 98.1783V98.1827Z" fill="white"/>
<g opacity="0.7">
<path d="M161.545 98.1827C161.228 100.201 160.802 102.194 160.261 104.173C158.28 104.018 156.241 104.353 154.202 105.354C150.01 107.509 146.745 111.238 144.785 115.5C141.38 112.415 138.493 108.875 136.239 105.041C140.514 105.398 144.842 105.054 148.999 103.987C153.49 102.837 157.752 100.845 161.545 98.1783V98.1827Z" fill="#C9C5BE"/>
</g>
<path d="M170.733 89.1208C170.083 90.236 169.358 91.3114 168.567 92.3428C168.158 92.8761 167.732 93.4006 167.284 93.9075C166.712 94.5642 166.119 95.1989 165.5 95.8071C164.291 97.0016 162.986 98.099 161.606 99.1128C153.279 105.394 142.022 107.549 131.924 105.116C130.922 104.873 129.929 104.587 128.954 104.252C128.321 104.036 127.692 103.802 127.073 103.547C125.61 102.947 124.19 102.238 122.828 101.422C124.111 101.907 125.416 102.33 126.739 102.696C127.301 102.85 127.864 102.991 128.431 103.124C128.642 103.172 128.857 103.221 129.068 103.265C129.428 103.344 129.788 103.419 130.153 103.485C140.611 105.477 151.671 103.648 160.706 97.7861C161.729 97.1382 162.727 96.4418 163.694 95.7057C164.801 94.8683 165.873 93.978 166.906 93.0348C167.073 92.8893 167.231 92.735 167.393 92.5808C167.806 92.1929 168.215 91.7962 168.624 91.3863C169.349 90.6591 170.052 89.901 170.733 89.1208Z" fill="#984F1A"/>
<path d="M150.094 142.056C153.438 142.408 156.645 141.447 159.431 139.702C162.213 137.939 164.392 135.409 165.447 132.2C165.513 133.937 164.942 135.704 163.992 137.207C161.206 141.61 154.998 144.334 150.094 142.051V142.056Z" fill="#984F1A"/>
<g style="mix-blend-mode:overlay" opacity="0.2">
<path d="M150.339 140.83C153.573 141.253 156.966 140.235 159.44 138.106C161.913 135.978 163.434 132.769 163.513 129.498C160.028 133.946 155.195 137.952 150.339 140.826V140.83Z" fill="white"/>
</g>
<path d="M169.142 86.4234C170.781 87.2035 171.915 88.2304 173.031 89.5836C173.374 90.0243 173.712 90.4959 174.024 91.1394C173.316 91.2584 172.675 91.1262 172.086 90.897C170.333 90.1698 168.944 88.4068 169.138 86.4189L169.142 86.4234Z" fill="#984F1A"/>
<path d="M37.6084 40.2983C40.8117 41.3606 43.9447 42.5859 47.0558 43.8596C50.1624 45.1378 53.2427 46.4821 56.2966 47.8749C59.3505 49.2721 62.3781 50.7222 65.3793 52.2384C68.3761 53.759 71.3509 55.3281 74.251 57.0603C71.0433 55.9981 67.9147 54.7772 64.8036 53.5034C61.697 52.2252 58.6167 50.8809 55.5628 49.4837C52.5089 48.0865 49.4813 46.6364 46.4801 45.1202C43.4833 43.5996 40.5085 42.0305 37.604 40.2983H37.6084Z" fill="url(#paint22_linear_3_167975)"/>
<path d="M47.4731 17.9652C50.1931 20.2439 52.79 22.6504 55.3474 25.0878C57.9004 27.534 60.4007 30.0287 62.8614 32.563C65.3221 35.0974 67.7389 37.6758 70.1029 40.3027C72.4669 42.934 74.787 45.6006 76.9841 48.395C74.2597 46.1163 71.6672 43.7141 69.1098 41.2724C66.5568 38.8262 64.0566 36.3315 61.5959 33.7971C59.1352 31.2628 56.7228 28.6844 54.3543 26.0575C51.9947 23.4262 49.6702 20.7596 47.4731 17.9652Z" fill="url(#paint23_linear_3_167975)"/>
<path d="M62.3252 10.0625C63.8192 11.8476 65.1638 13.7252 66.4601 15.6292C67.7519 17.5377 68.9823 19.4814 70.1643 21.456C71.3463 23.4306 72.4756 25.4361 73.5434 27.4768C74.6068 29.5219 75.6262 31.5934 76.4919 33.7575C74.9979 31.9725 73.6533 30.0948 72.357 28.1908C71.0651 26.2823 69.8348 24.3386 68.6527 22.364C67.4707 20.3894 66.3414 18.384 65.2737 16.3433C64.2103 14.2982 63.1908 12.2266 62.3252 10.0625Z" fill="url(#paint24_linear_3_167975)"/>
<path d="M197.673 36.4285C198.93 33.8721 200.332 31.4127 201.773 28.9797C203.223 26.5511 204.735 24.1667 206.29 21.8086C207.846 19.455 209.458 17.1322 211.124 14.8491C212.798 12.5704 214.512 10.3181 216.379 8.16724C215.127 10.728 213.725 13.1874 212.279 15.616C210.829 18.0446 209.318 20.4291 207.758 22.7871C206.198 25.1407 204.59 27.4635 202.924 29.7466C201.25 32.0253 199.536 34.2776 197.673 36.4285Z" fill="url(#paint25_linear_3_167975)"/>
<path d="M206.826 42.3435C208.685 40.4527 210.649 38.7029 212.644 36.9927C214.643 35.2914 216.687 33.643 218.765 32.0386C220.843 30.4387 222.961 28.8828 225.119 27.3887C227.281 25.8945 229.478 24.4488 231.78 23.1398C229.926 25.0306 227.962 26.7848 225.963 28.4905C223.963 30.1919 221.92 31.8403 219.837 33.4402C217.759 35.0402 215.641 36.5916 213.483 38.0902C211.321 39.58 209.124 41.03 206.826 42.3435Z" fill="url(#paint26_linear_3_167975)"/>
<path d="M209.968 54.5656C211.629 53.7194 213.338 53.0406 215.065 52.4147C216.792 51.7977 218.536 51.2423 220.298 50.7487C222.06 50.255 223.836 49.8187 225.633 49.4484C227.43 49.087 229.24 48.7741 231.104 48.6375C229.443 49.4881 227.733 50.1625 226.006 50.7883C224.279 51.4054 222.535 51.9607 220.773 52.45C219.011 52.9436 217.236 53.38 215.438 53.7502C213.641 54.1116 211.831 54.4246 209.968 54.5656Z" fill="url(#paint27_linear_3_167975)"/>
</g>
<defs>
<linearGradient id="paint0_linear_3_167975" x1="36.2445" y1="194.54" x2="93.1758" y2="205.624" gradientUnits="userSpaceOnUse">
<stop stop-color="#C16A32"/>
<stop offset="1" stop-color="#984F1A"/>
</linearGradient>
<linearGradient id="paint1_linear_3_167975" x1="125.828" y1="281.749" x2="153.864" y2="218.705" gradientUnits="userSpaceOnUse">
<stop stop-color="#C16A32"/>
<stop offset="1" stop-color="#984F1A"/>
</linearGradient>
<linearGradient id="paint2_linear_3_167975" x1="23.0379" y1="190.35" x2="19.303" y2="217.004" gradientUnits="userSpaceOnUse">
<stop stop-color="#FFE1CD"/>
<stop offset="1" stop-color="#EB985E"/>
</linearGradient>
<linearGradient id="paint3_linear_3_167975" x1="117.353" y1="293.08" x2="93.4169" y2="280.912" gradientUnits="userSpaceOnUse">
<stop stop-color="#FFE1CD"/>
<stop offset="1" stop-color="#EB985E"/>
</linearGradient>
<linearGradient id="paint4_linear_3_167975" x1="167.519" y1="165.3" x2="234.126" y2="68.2525" gradientUnits="userSpaceOnUse">
<stop stop-color="#984F1A"/>
<stop offset="1" stop-color="#C16A32"/>
</linearGradient>
<linearGradient id="paint5_linear_3_167975" x1="266.108" y1="71.1841" x2="237.737" y2="79.7714" gradientUnits="userSpaceOnUse">
<stop stop-color="#FFE1CD"/>
<stop offset="1" stop-color="#EB985E"/>
</linearGradient>
<linearGradient id="paint6_linear_3_167975" x1="118.985" y1="164.94" x2="50.7971" y2="78.4032" gradientUnits="userSpaceOnUse">
<stop stop-color="#984F1A"/>
<stop offset="1" stop-color="#C16A32"/>
</linearGradient>
<linearGradient id="paint7_linear_3_167975" x1="27.861" y1="73.3471" x2="50.9018" y2="92.0405" gradientUnits="userSpaceOnUse">
<stop stop-color="#FFE1CD"/>
<stop offset="1" stop-color="#EB985E"/>
</linearGradient>
<linearGradient id="paint8_linear_3_167975" x1="83.5125" y1="185.939" x2="194.243" y2="189.887" gradientUnits="userSpaceOnUse">
<stop stop-color="#984F1A"/>
<stop offset="1" stop-color="#C16A32"/>
</linearGradient>
<linearGradient id="paint9_linear_3_167975" x1="184.916" y1="157.818" x2="97.2872" y2="217.294" gradientUnits="userSpaceOnUse">
<stop stop-color="#FFE1CD"/>
<stop offset="0.85" stop-color="#EB985E"/>
</linearGradient>
<linearGradient id="paint10_linear_3_167975" x1="157.056" y1="47.1533" x2="142.624" y2="171.037" gradientUnits="userSpaceOnUse">
<stop stop-color="#FFE1CD"/>
<stop offset="0.72" stop-color="#EB985E"/>
<stop offset="0.76" stop-color="#E99459"/>
<stop offset="0.81" stop-color="#E58B4D"/>
<stop offset="0.85" stop-color="#DD7936"/>
</linearGradient>
<linearGradient id="paint11_linear_3_167975" x1="97.2498" y1="22.9413" x2="114.301" y2="20.9774" gradientUnits="userSpaceOnUse">
<stop stop-color="#FFE1CD"/>
<stop offset="0.85" stop-color="#EB985E"/>
</linearGradient>
<linearGradient id="paint12_linear_3_167975" x1="102.217" y1="22.3657" x2="114.301" y2="20.9739" gradientUnits="userSpaceOnUse">
<stop stop-color="#683527"/>
<stop offset="0.33" stop-color="#4C2419"/>
<stop offset="0.76" stop-color="#2E1109"/>
<stop offset="1" stop-color="#230B04"/>
</linearGradient>
<linearGradient id="paint13_linear_3_167975" x1="172.449" y1="14.274" x2="155.398" y2="16.2379" gradientUnits="userSpaceOnUse">
<stop stop-color="#FFE1CD"/>
<stop offset="0.85" stop-color="#EB985E"/>
</linearGradient>
<linearGradient id="paint14_linear_3_167975" x1="167.482" y1="14.8497" x2="155.398" y2="16.2414" gradientUnits="userSpaceOnUse">
<stop stop-color="#683527"/>
<stop offset="0.33" stop-color="#4C2419"/>
<stop offset="0.76" stop-color="#2E1109"/>
<stop offset="1" stop-color="#230B04"/>
</linearGradient>
<linearGradient id="paint15_linear_3_167975" x1="90.9504" y1="57.1112" x2="195.808" y2="37.4631" gradientUnits="userSpaceOnUse">
<stop stop-color="#984F1A"/>
<stop offset="1" stop-color="#C16A32"/>
</linearGradient>
<linearGradient id="paint16_linear_3_167975" x1="144.426" y1="78.7752" x2="142.638" y2="94.854" gradientUnits="userSpaceOnUse">
<stop stop-color="#683527"/>
<stop offset="0.33" stop-color="#4C2419"/>
<stop offset="0.76" stop-color="#2E1109"/>
<stop offset="1" stop-color="#230B04"/>
</linearGradient>
<linearGradient id="paint17_linear_3_167975" x1="114.908" y1="72.5181" x2="104.755" y2="60.4502" gradientUnits="userSpaceOnUse">
<stop offset="0.4" stop-color="#984F1A"/>
<stop offset="1" stop-color="#C16A32"/>
</linearGradient>
<linearGradient id="paint18_linear_3_167975" x1="165.125" y1="61.0824" x2="167.072" y2="45.4193" gradientUnits="userSpaceOnUse">
<stop offset="0.4" stop-color="#984F1A"/>
<stop offset="1" stop-color="#C16A32"/>
</linearGradient>
<linearGradient id="paint19_linear_3_167975" x1="104.535" y1="85.8946" x2="126.257" y2="90.934" gradientUnits="userSpaceOnUse">
<stop stop-color="#683527"/>
<stop offset="0.72" stop-color="#37170E"/>
<stop offset="1" stop-color="#230B04"/>
</linearGradient>
<linearGradient id="paint20_linear_3_167975" x1="163.614" y1="71.6404" x2="183.8" y2="78.5577" gradientUnits="userSpaceOnUse">
<stop stop-color="#683527"/>
<stop offset="0.72" stop-color="#37170E"/>
<stop offset="1" stop-color="#230B04"/>
</linearGradient>
<linearGradient id="paint21_linear_3_167975" x1="151.235" y1="104.557" x2="170.027" y2="141.454" gradientUnits="userSpaceOnUse">
<stop offset="0.14" stop-color="#E24747"/>
<stop offset="0.55" stop-color="#F27777"/>
<stop offset="0.84" stop-color="#FF9D9C"/>
</linearGradient>
<linearGradient id="paint22_linear_3_167975" x1="37.2437" y1="48.6771" x2="74.6157" y2="48.6771" gradientUnits="userSpaceOnUse">
<stop stop-color="#683527"/>
<stop offset="0.33" stop-color="#4C2419"/>
<stop offset="0.76" stop-color="#2E1109"/>
<stop offset="1" stop-color="#230B04"/>
</linearGradient>
<linearGradient id="paint23_linear_3_167975" x1="46.8404" y1="33.1801" x2="77.6169" y2="33.1801" gradientUnits="userSpaceOnUse">
<stop stop-color="#683527"/>
<stop offset="0.33" stop-color="#4C2419"/>
<stop offset="0.76" stop-color="#2E1109"/>
<stop offset="1" stop-color="#230B04"/>
</linearGradient>
<linearGradient id="paint24_linear_3_167975" x1="61.5694" y1="21.91" x2="77.252" y2="21.91" gradientUnits="userSpaceOnUse">
<stop stop-color="#683527"/>
<stop offset="0.33" stop-color="#4C2419"/>
<stop offset="0.76" stop-color="#2E1109"/>
<stop offset="1" stop-color="#230B04"/>
</linearGradient>
<linearGradient id="paint25_linear_3_167975" x1="196.935" y1="22.2979" x2="217.113" y2="22.2979" gradientUnits="userSpaceOnUse">
<stop stop-color="#683527"/>
<stop offset="0.33" stop-color="#4C2419"/>
<stop offset="0.76" stop-color="#2E1109"/>
<stop offset="1" stop-color="#230B04"/>
</linearGradient>
<linearGradient id="paint26_linear_3_167975" x1="206.29" y1="32.7438" x2="232.321" y2="32.7438" gradientUnits="userSpaceOnUse">
<stop stop-color="#683527"/>
<stop offset="0.33" stop-color="#4C2419"/>
<stop offset="0.76" stop-color="#2E1109"/>
<stop offset="1" stop-color="#230B04"/>
</linearGradient>
<linearGradient id="paint27_linear_3_167975" x1="209.73" y1="51.6037" x2="231.336" y2="51.6037" gradientUnits="userSpaceOnUse">
<stop stop-color="#683527"/>
<stop offset="0.33" stop-color="#4C2419"/>
<stop offset="0.76" stop-color="#2E1109"/>
<stop offset="1" stop-color="#230B04"/>
</linearGradient>
<clipPath id="clip0_3_167975">
<rect width="268" height="308" fill="white"/>
</clipPath>
</defs>
</svg>
