<svg width="178" height="358" viewBox="0 0 178 358" fill="none" xmlns="http://www.w3.org/2000/svg">
<g clip-path="url(#clip0_2_164009)">
<path d="M10.2965 263.533C10.5865 260.885 10.9255 258.245 11.3029 255.607C12.3862 248.097 13.833 240.636 15.6222 233.262C17.415 225.888 19.5571 218.598 22.0383 211.423C24.4915 204.329 27.2767 197.353 30.3869 190.52C33.1372 184.477 36.1355 178.546 39.3855 172.755C41.9435 163.917 44.1731 154.985 45.9099 145.952C45.9343 145.826 45.9588 145.701 45.9833 145.575C45.9833 145.561 45.9868 145.55 45.9903 145.536C47.9403 135.305 49.2263 124.955 49.726 114.553C50.1453 105.83 50.0335 97.0768 49.387 88.3685C48.7265 85.7941 48.3107 83.1533 48.1639 80.5021C47.9612 76.7784 48.4015 72.8277 50.5018 69.684C50.5263 69.4534 50.5542 69.2229 50.5857 68.9923C50.6031 68.8491 50.6241 68.7094 50.6451 68.5662C50.6556 68.5068 50.6625 68.4439 50.673 68.3845C50.694 68.2413 50.7185 68.1016 50.7429 67.9584C50.8338 67.4204 50.9456 66.886 51.0644 66.3515C51.9241 62.6209 53.4792 59.0615 55.4991 55.8094C54.8246 55.4042 54.0803 55.502 53.9929 54.5484C54.1571 54.2899 54.0243 53.9755 53.8042 53.8009C53.7972 53.8009 53.7937 53.7939 53.7902 53.7904C53.7622 53.7694 53.7308 53.7485 53.6993 53.7345C53.4862 53.6681 53.301 53.6018 53.1402 53.5354C52.2281 53.1721 52.0254 52.8438 52.0254 52.4875C52.0254 52.0264 52.3749 51.5199 51.952 50.8422C51.8961 50.7514 51.8262 50.6606 51.7424 50.5663C51.7214 50.5732 51.6969 50.5802 51.676 50.5872C51.4209 50.6571 51.1588 50.6711 50.8967 50.6711C50.715 50.6711 50.5367 50.6676 50.355 50.6711C50.1139 50.6711 49.8867 50.678 49.6701 50.6815H49.5827C49.2996 50.6815 49.0376 50.6746 48.7999 50.6501C47.9158 50.5523 47.3986 50.1995 47.3986 49.0538C47.3986 48.7988 47.4231 48.4984 47.479 48.156C47.8424 45.8576 48.4574 43.6569 48.2792 41.4283C48.2687 41.4283 48.2583 41.4283 48.2443 41.4283C48.2443 41.4528 48.2478 41.4772 48.2478 41.4982C48.1464 41.5227 48.0416 41.5471 47.9402 41.5716C46.4341 41.9174 44.9209 42.2422 43.3973 42.5077C43.3274 42.5182 43.2575 42.5287 43.1911 42.5426C43.1457 42.5531 43.1002 42.5636 43.0513 42.5706C42.9849 42.5845 42.9185 42.5985 42.8486 42.6125C42.6215 42.6614 42.3943 42.7103 42.1672 42.7592C38.7809 43.4683 35.3492 44.0132 31.9035 44.3416C31.8232 44.3486 31.7428 44.3555 31.6624 44.3625C31.589 44.3695 31.5157 44.373 31.4423 44.38C31.0229 44.4184 30.5302 44.4324 30.1528 44.1984C29.9046 44.0412 29.7544 43.7862 29.7334 43.5067C29.7264 43.4404 29.7334 43.374 29.7404 43.3041C29.7893 42.9339 30.006 42.6055 30.2296 42.3156C30.2681 42.2597 30.3135 42.2073 30.3555 42.1549C30.6525 41.7776 30.96 41.4109 31.2606 41.0406L35.5659 35.7276C37.7989 32.9751 40.0285 30.219 42.2615 27.463C42.3489 27.0298 42.4293 26.5932 42.4957 26.1565C42.4957 26.1356 42.5027 26.1076 42.5062 26.0867C42.5271 25.94 42.5516 25.7967 42.5726 25.65V25.6116C42.7752 24.2283 42.8766 22.8311 42.8871 21.4304C42.8976 20.0786 42.8207 18.7232 42.6564 17.3819C42.6564 17.3749 42.6564 17.3679 42.6564 17.3609C42.6564 17.3539 42.6564 17.3505 42.6564 17.3435C42.6494 17.2841 42.6424 17.2212 42.6355 17.1618C42.632 17.1234 42.625 17.0815 42.6215 17.0431C42.6215 17.0291 42.6215 17.0116 42.618 16.9942C42.4433 15.7192 42.1951 14.4582 41.8701 13.2111C41.6709 12.4566 41.4403 11.6882 41.2341 10.9092C41.0175 10.2525 40.7833 9.59579 40.5422 8.94258C40.0949 7.74794 39.6231 6.52187 39.5358 5.23641C39.4554 4.06622 39.7629 2.9135 40.5282 2.00879C41.2201 1.18792 42.1881 0.622035 43.2051 0.31115C45.7701 -0.485275 48.4749 0.374025 50.9631 1.05518C51.9346 1.32065 52.9061 1.58613 53.8776 1.8516C54.1746 1.93194 54.4681 2.01578 54.7652 2.09612C54.7757 2.09612 54.7896 2.09961 54.8001 2.10311C55.9394 2.41399 57.0786 2.72488 58.2144 3.03576C58.9972 2.99035 59.7764 2.94843 60.5592 2.9135C61.6915 2.86111 62.8237 2.82268 63.956 2.79474C65.0498 2.76679 66.1436 2.74583 67.2374 2.78426C69.3621 2.85761 71.5148 3.17549 73.4159 4.1815C75.0059 5.01984 76.3338 6.25989 77.4626 7.64315C78.0427 8.35574 78.5739 9.10326 79.0736 9.87174C79.0981 9.90667 79.119 9.9451 79.1435 9.98003C79.1924 10.0569 79.2413 10.1337 79.2903 10.2106C79.6083 10.7101 79.9158 11.2201 80.2163 11.7301C80.2583 11.8034 80.3002 11.8733 80.3421 11.9466C80.3631 11.9781 80.3806 12.013 80.4016 12.0479C80.4435 12.1178 80.4854 12.1912 80.5273 12.261C80.5658 12.3309 80.6042 12.3972 80.6462 12.4671L84.1268 12.5929L84.4483 12.6033L85.0004 12.6243C85.8112 12.6522 86.6219 12.6802 87.4327 12.7116C88.1875 12.7396 88.9458 12.7501 89.7007 12.8269C90.8888 12.9492 92.1609 13.267 92.9751 14.1752C93.0485 14.2556 93.1219 14.3464 93.1883 14.4407C93.2057 14.4617 93.2197 14.4826 93.2372 14.5071C93.335 14.6503 93.4154 14.8005 93.4853 14.9542C93.5692 15.1428 93.6356 15.3349 93.6845 15.534C93.8662 16.292 93.7998 17.1164 93.5657 17.85C93.1114 19.3066 92.0525 20.4698 91.0705 21.5981C90.0012 22.8241 88.9353 24.0537 87.866 25.2798C87.2999 25.926 86.7372 26.5722 86.1746 27.2219C86.1746 27.18 86.1746 27.1381 86.1746 27.0962C86.1956 28.9615 86.1432 30.8268 86.0034 32.6886C86.2725 32.5594 86.545 32.4301 86.8176 32.3044C86.9155 32.259 87.0133 32.2101 87.1147 32.1647C87.1286 32.2729 87.1426 32.3812 87.1566 32.4895C87.5026 35.0255 87.8485 37.5615 88.1945 40.094C88.5824 42.9304 88.9703 45.7702 89.3547 48.6066C89.6622 49.0782 89.9697 49.5498 90.2738 50.0213C91.5248 51.9391 92.7724 53.8568 94.02 55.778C94.4708 56.4696 94.9216 57.1647 95.3724 57.8598C95.4493 57.9751 95.5227 58.0904 95.5995 58.2092C95.7079 58.3733 95.8127 58.5375 95.9175 58.7017C97.2036 58.9427 98.4791 59.2291 99.7441 59.554C102.103 60.1583 104.423 60.9058 106.695 61.7896C108.334 62.4323 109.948 63.1414 111.524 63.9204C113.1 64.7028 114.645 65.5551 116.144 66.4773L116.7 66.7533C116.836 66.8371 116.969 66.9209 117.102 67.0048C117.703 67.3855 118.293 67.7767 118.874 68.1819C120.684 69.4499 122.4 70.8541 123.934 72.44C124.612 73.1386 125.251 73.8722 125.852 74.6372C125.94 74.7489 126.027 74.8607 126.111 74.976C126.733 75.8004 127.306 76.6597 127.82 77.5539C128.159 78.1477 128.473 78.7555 128.756 79.3773C134.12 81.8469 139.485 84.3165 144.852 86.7861L149.64 88.9903C150.86 89.5527 152.079 90.1185 153.253 90.7683C155.479 91.9943 157.674 93.5592 158.932 95.8262C161.85 101.076 157.975 106.721 154.924 110.895C151.167 116.034 147.166 120.987 142.93 125.738C140.792 128.141 138.59 130.488 136.333 132.783C135.483 133.95 134.617 135.103 133.736 136.241C132.118 138.33 130.444 140.37 128.714 142.368C128.599 142.504 128.48 142.637 128.361 142.773C128.288 142.857 128.215 142.945 128.141 143.028C128.134 143.039 128.124 143.046 128.113 143.056C128.76 144.482 129.399 145.907 130.018 147.342C130.636 148.778 131.227 150.224 131.772 151.691C132.527 153.735 133.177 155.82 133.663 157.944C134.676 160.92 135.253 164.057 135.539 167.201C136.109 173.45 135.623 179.734 135.232 185.976L133.834 208.23C133.366 215.685 132.897 223.135 132.429 230.59C132.059 236.476 131.688 242.361 131.321 248.247C131.314 248.352 131.307 248.457 131.304 248.562C131.199 248.569 131.094 248.579 130.989 248.586C130.441 248.628 129.892 248.663 129.343 248.691C128.634 248.729 127.928 248.754 127.219 248.775L127.159 249.421C127.103 250.015 127.047 250.609 126.991 251.199C127.289 251.995 127.586 252.792 127.872 253.588C129.473 257.986 130.954 262.426 132.314 266.904C134.065 272.675 135.62 278.505 136.972 284.383C138.317 290.231 139.46 296.127 140.404 302.055C141.34 307.941 142.074 313.858 142.609 319.793C143.032 324.498 143.329 329.217 143.493 333.943C143.496 334.048 143.5 334.156 143.503 334.261C143.399 334.286 143.297 334.307 143.192 334.331C142.777 334.425 142.364 334.513 141.948 334.6C141.515 334.691 141.078 334.778 140.641 334.859C140.701 335.498 140.764 336.137 140.834 336.773C140.844 336.892 140.858 337.01 140.872 337.133C141.117 339.358 141.421 341.555 141.802 343.71C141.84 343.818 141.882 343.93 141.924 344.038C141.976 343.996 142.025 343.955 142.078 343.913C142.134 344 142.189 344.091 142.245 344.182C142.818 345.118 143.329 346.089 143.773 347.091C143.954 347.504 144.122 347.919 144.279 348.342C144.464 348.733 144.632 349.128 144.779 349.537C144.796 349.585 144.814 349.638 144.831 349.687C144.866 349.788 144.901 349.886 144.933 349.987C144.933 349.991 144.933 349.994 144.936 350.001C145.045 349.945 145.153 349.889 145.258 349.83C145.356 349.781 145.45 349.729 145.544 349.673C145.569 349.778 145.593 349.882 145.618 349.991C145.695 350.35 145.764 350.714 145.827 351.077C145.845 351.185 145.859 351.294 145.876 351.405C145.778 351.461 145.681 351.514 145.583 351.566C143.633 352.61 141.491 353.292 139.299 353.571C138.866 353.627 138.429 353.665 137.992 353.69C137.888 353.697 137.786 353.7 137.678 353.704C137.667 353.599 137.653 353.498 137.643 353.393C137.633 353.288 137.619 353.187 137.605 353.082C136.99 353.285 136.409 353.582 135.843 353.92C135.71 353.997 135.581 354.078 135.448 354.158C134.704 354.622 133.974 355.125 133.219 355.527C131.384 356.502 129.343 357.099 127.271 357.277C126.659 357.33 126.051 357.347 125.44 357.33C125.335 357.33 125.23 357.323 125.129 357.319C125.083 357.319 125.038 357.316 124.993 357.312C124.888 357.309 124.783 357.302 124.682 357.291C124.675 357.186 124.668 357.082 124.664 356.973C124.657 356.869 124.654 356.76 124.647 356.655C124.64 356.551 124.633 356.442 124.629 356.341C124.734 356.348 124.835 356.355 124.94 356.362C124.972 356.362 125.003 356.362 125.038 356.366V356.32C125.038 356.215 125.045 356.111 125.055 356.006C125.09 355.649 125.185 355.3 125.356 354.961C125.629 354.427 126.083 354.078 126.604 353.798C127.131 353.512 127.662 353.246 128.159 352.907C130.098 351.573 131.548 349.606 132.23 347.353C132.516 346.403 132.667 345.411 132.674 344.416C132.674 344.311 132.674 344.206 132.674 344.101C132.775 344.101 132.88 344.112 132.985 344.126C133.383 344.182 133.771 344.325 134.127 344.503C134.253 344.566 134.379 344.636 134.501 344.709C134.508 344.643 134.515 344.576 134.522 344.51C134.547 344.234 134.564 343.955 134.575 343.672C134.582 343.528 134.582 343.389 134.582 343.245C134.582 342.963 134.578 342.673 134.564 342.386C134.55 342.096 134.529 341.806 134.501 341.513C134.417 340.633 134.271 339.728 134.072 338.813C134.037 338.659 134.002 338.505 133.967 338.352C133.785 337.583 133.568 336.808 133.32 336.022C133.313 335.997 133.303 335.969 133.296 335.945C132.006 336.078 130.717 336.186 129.42 336.263C127.313 336.385 125.206 336.434 123.095 336.402C122.676 336.399 122.256 336.389 121.837 336.375C121.729 336.375 121.62 336.368 121.512 336.364C121.487 336.259 121.463 336.154 121.439 336.05C120.82 333.489 120.191 330.929 119.548 328.375C118.297 323.401 116.997 318.438 115.652 313.491C114.313 308.566 112.926 303.651 111.493 298.754C110.053 293.832 108.564 288.924 107.034 284.027C105.874 280.324 104.689 276.632 103.473 272.947C103.448 272.902 103.42 272.856 103.396 272.811C102.393 270.963 101.586 269.01 100.992 266.998C100.922 266.754 100.852 266.506 100.782 266.258C100.31 264.487 99.9992 262.667 99.8699 260.836C99.8105 259.974 99.7861 259.107 99.8035 258.245C98.2589 258.615 96.6968 258.936 95.1313 259.205C91.9931 259.743 88.8305 260.071 85.6539 260.232C85.7133 262.548 85.7483 264.86 85.7553 267.176C85.7623 269.154 85.7518 271.131 85.7238 273.108C85.626 279.556 85.3359 286.001 84.8572 292.428C84.3819 298.778 83.7214 305.115 82.8722 311.427C82.0161 317.788 80.9747 324.121 79.7446 330.419C79.0561 333.95 78.3048 337.468 77.4975 340.975C77.4731 341.08 77.4486 341.188 77.4241 341.293C77.3158 341.3 77.2075 341.303 77.0992 341.31C75.7083 341.387 74.314 341.426 72.9196 341.422C71.9726 341.422 71.029 341.398 70.0855 341.359C70.0471 341.534 70.0051 341.708 69.9667 341.88L69.9422 341.998C69.8444 342.432 69.75 342.861 69.6592 343.294C69.6487 343.343 69.6382 343.396 69.6277 343.445C69.5368 343.871 69.4495 344.293 69.3656 344.72C69.3551 344.772 69.3446 344.824 69.3342 344.877C69.2503 345.303 69.1664 345.729 69.0895 346.159C69.0826 346.204 69.0756 346.25 69.0651 346.295C68.9847 346.735 68.9043 347.175 68.8309 347.615C68.8274 347.643 68.8205 347.675 68.817 347.706C68.7366 348.174 68.6597 348.639 68.5898 349.107C68.5898 349.226 68.5933 349.341 68.6003 349.46C68.6597 349.439 68.7226 349.414 68.7855 349.39C68.81 349.491 68.8344 349.596 68.8589 349.697C69.1035 350.766 69.2782 351.849 69.3761 352.942C69.4145 353.389 69.4425 353.837 69.46 354.287C69.5089 354.717 69.5403 355.146 69.5508 355.576C69.5508 355.628 69.5508 355.684 69.5508 355.737C69.5508 355.842 69.5508 355.95 69.5508 356.055V356.069C69.6696 356.051 69.7919 356.03 69.9108 356.009C70.0191 355.992 70.1239 355.971 70.2288 355.95C70.2218 356.058 70.2113 356.166 70.1973 356.275C70.1589 356.641 70.1065 357.005 70.0471 357.372C70.0296 357.48 70.0121 357.588 69.9911 357.7C69.8793 357.721 69.771 357.742 69.6627 357.759C67.482 358.126 65.2315 358.091 63.0684 357.654C62.6385 357.571 62.2122 357.466 61.7928 357.351C61.6915 357.323 61.5901 357.295 61.4923 357.263C61.5133 357.162 61.5342 357.057 61.5552 356.956C61.5762 356.855 61.5971 356.753 61.6181 356.652C60.9716 356.652 60.3251 356.746 59.6821 356.883C59.5318 356.914 59.385 356.945 59.2348 356.984C58.3821 357.186 57.5294 357.427 56.6837 357.571C54.6324 357.909 52.5077 357.826 50.4878 357.337C49.8937 357.19 49.3101 357.012 48.737 356.802C48.6392 356.767 48.5413 356.729 48.4435 356.69C48.4015 356.676 48.3596 356.659 48.3177 356.641C48.2198 356.603 48.122 356.565 48.0276 356.523C48.0556 356.421 48.08 356.317 48.108 356.215C48.1359 356.114 48.1639 356.009 48.1919 355.908C48.2198 355.807 48.2478 355.705 48.2757 355.604C48.3701 355.646 48.4679 355.688 48.5658 355.726C48.5937 355.737 48.6252 355.751 48.6566 355.761C48.6566 355.747 48.6636 355.733 48.6706 355.719C48.7056 355.621 48.744 355.52 48.7859 355.426C48.9327 355.101 49.1319 354.797 49.4045 354.535C49.8343 354.112 50.3795 353.927 50.9596 353.83C51.5502 353.728 52.1373 353.644 52.7174 353.48C54.9784 352.834 56.9843 351.433 58.3471 349.516C58.9238 348.705 59.385 347.814 59.7066 346.875C59.7415 346.777 59.7729 346.676 59.8044 346.574C59.9022 346.609 59.9966 346.651 60.091 346.697C60.4509 346.875 60.7724 347.133 61.052 347.416C61.1533 347.518 61.2477 347.622 61.342 347.731C61.37 347.671 61.3979 347.612 61.4259 347.549C62.31 345.558 62.7608 343.238 62.9251 340.73C61.5482 340.538 60.1713 340.315 58.8084 340.049C56.5964 339.62 54.4018 339.089 52.2386 338.46L51.9311 338.369C51.9381 338.261 51.9416 338.156 51.9485 338.048C52.4518 329.07 52.955 320.093 53.4547 311.12C54.1501 298.663 54.8491 286.21 55.548 273.754C55.7472 270.219 55.9429 266.687 56.1421 263.152C56.1386 262.464 56.1421 261.776 56.156 261.088C56.17 260.375 56.191 259.663 56.2189 258.954C56.2329 258.541 56.2539 258.126 56.2749 257.71C54.8351 257.441 53.3953 257.162 51.959 256.872C51.3719 257.036 50.7849 257.193 50.1978 257.35C50.0859 257.382 49.9741 257.413 49.8623 257.441C47.7236 258.011 45.5779 258.545 43.4217 259.044C39.1129 260.04 34.7726 260.896 30.4114 261.608C26.2283 262.29 22.0243 262.845 17.8098 263.264C17.691 263.278 17.5757 263.289 17.4569 263.299C17.401 263.303 17.3416 263.31 17.2857 263.313C15.0631 263.53 12.8371 263.708 10.6075 263.851C10.5027 263.858 10.4013 263.861 10.293 263.868C10.3035 263.764 10.3139 263.655 10.3279 263.551L10.2965 263.533ZM121.557 123.869C121.683 123.572 121.809 123.275 121.938 122.978L122.183 122.395C122.836 120.854 123.493 119.31 124.147 117.77C125.017 115.719 125.887 113.672 126.757 111.626C127.627 109.575 128.498 107.528 129.368 105.478C130.095 103.77 130.818 102.061 131.545 100.35C129.616 99.6407 127.69 98.9351 125.761 98.226C124.835 97.8872 123.909 97.5483 122.98 97.206L122.669 97.0908C122.574 97.0558 122.476 97.0209 122.382 96.986C122.449 98.1038 122.501 99.2215 122.539 100.339C122.669 104.157 122.627 107.979 122.424 111.793C122.487 111.821 122.532 111.884 122.504 111.971C122.466 112.08 122.431 112.188 122.396 112.296C122.368 112.792 122.337 113.288 122.302 113.781C122.099 116.697 121.799 119.604 121.404 122.496C121.446 122.954 121.498 123.408 121.557 123.865V123.869Z" fill="#3D322D"/>
<path d="M45.2948 111.147C45.3262 111.084 45.3542 111.021 45.3856 110.962C45.3996 111.035 45.3647 111.123 45.2948 111.147Z" fill="#7C716C"/>
<path d="M73.1784 136.413L73.1994 136.731L73.3287 138.708C73.4545 140.615 73.5803 142.522 73.7061 144.43C73.7306 144.803 73.755 145.174 73.7795 145.547C73.7865 145.652 73.7935 145.757 73.8004 145.862C73.9053 145.876 74.0101 145.886 74.115 145.897C77.5991 146.253 81.1007 146.442 84.6022 146.463C88.5581 146.487 92.5175 146.298 96.4559 145.9C100.373 145.505 104.27 144.905 108.121 144.098C111.979 143.291 115.792 142.281 119.541 141.069C122.117 140.238 124.661 139.309 127.166 138.289C127.264 138.25 127.362 138.208 127.46 138.166C127.439 138.062 127.422 137.96 127.401 137.856C127.345 137.573 127.289 137.29 127.236 137.007C126.932 135.449 126.628 133.887 126.324 132.326C126.136 131.351 125.943 130.377 125.755 129.399C125.734 129.294 125.713 129.193 125.695 129.088C125.597 129.126 125.496 129.165 125.398 129.203C122.274 130.401 119.094 131.46 115.879 132.378C112.21 133.43 108.488 134.296 104.731 134.984C100.957 135.676 97.1478 136.179 93.3213 136.493C89.5191 136.808 85.6995 136.937 81.88 136.877C79.0808 136.836 76.2816 136.689 73.4929 136.441C73.3881 136.434 73.2832 136.423 73.1784 136.413Z" fill="#2B211D"/>
<path d="M0.291473 228.923C6.2882 226.495 12.2849 224.068 18.2816 221.64C22.7617 219.827 27.3222 218.126 31.6065 215.876C35.5939 213.784 39.3366 211.126 42.0554 207.493C47.3532 200.419 48.4225 191.289 50.9107 183.048C52.1478 178.958 53.8566 175.077 55.9639 171.364C58.0851 167.63 60.5103 164.084 62.9531 160.556C67.7546 153.619 72.7869 146.591 75.3903 138.476C75.5546 137.963 75.7083 137.446 75.8516 136.926C75.8865 136.8 75.918 136.678 75.9529 136.552C76.0333 136.653 76.1137 136.751 76.1941 136.852C77.3787 138.326 78.5599 139.8 79.7446 141.274L82.8338 145.12L83.0645 145.41C83.026 145.529 82.9876 145.648 82.9491 145.763C80.6392 152.746 76.5366 159.002 72.3745 165.034C67.4611 172.157 62.2716 179.269 59.3886 187.512C56.5195 195.718 55.7053 204.772 51.1693 212.338C48.9048 216.117 45.7002 219.107 41.975 221.43C38.1344 223.823 33.9235 225.535 29.7404 227.229C20.8502 230.827 11.9599 234.428 3.06617 238.026C2.96832 238.065 2.87398 238.103 2.77612 238.145C2.74467 238.044 2.71322 237.946 2.68526 237.844C2.56644 237.46 2.45113 237.076 2.33231 236.692L0.123734 229.468C0.109749 229.426 0.0992584 229.384 0.0852814 229.342C0.053833 229.241 0.0258865 229.143 -0.00556946 229.042C0.0922775 229.003 0.190125 228.962 0.287979 228.923H0.291473Z" fill="#2B211D"/>
<path d="M99.8459 260.826C99.9787 262.656 100.286 264.473 100.758 266.247C101.6 265.926 102.421 265.559 103.222 265.147C105.196 264.124 107.027 262.817 108.631 261.273C110.274 259.694 111.696 257.805 113.88 256.938C115.051 256.474 116.298 256.236 117.522 255.96C118.832 255.66 120.146 255.359 121.456 255.059C123.588 254.57 125.72 254.084 127.852 253.595C127.562 252.795 127.268 251.999 126.971 251.203C127.027 250.609 127.083 250.015 127.139 249.421L127.198 248.775C126.345 248.796 125.496 248.803 124.644 248.796C123.34 248.785 122.04 248.74 120.74 248.66C119.143 249.858 117.48 250.958 115.753 251.961C115.641 252.027 115.526 252.093 115.414 252.156L117.64 235.843C118.72 227.925 119.8 220.006 120.88 212.087C120.792 212.433 120.705 212.779 120.618 213.124C119.486 217.561 118.262 221.976 116.955 226.363C115.652 230.733 114.265 235.075 112.793 239.389C111.315 243.724 109.75 248.027 108.1 252.299C107.593 253.606 107.083 254.912 106.562 256.215C106.43 256.261 106.3 256.309 106.171 256.355C104.074 257.092 101.939 257.717 99.7795 258.238C99.762 259.104 99.783 259.967 99.8459 260.83V260.826Z" fill="#2B211D"/>
<path d="M56.1842 258.932C56.8133 259.331 57.4563 259.708 58.1063 260.071C60.2065 261.245 62.4011 262.247 64.6551 263.096C67.0105 263.983 69.4322 264.7 71.8855 265.269C74.4819 265.873 77.1169 266.313 79.7623 266.635C81.7437 266.876 83.7356 267.043 85.7275 267.162C85.7205 264.846 85.6856 262.53 85.6262 260.218C83.3198 260.333 81.0063 260.354 78.6964 260.295C75.8064 260.221 72.9164 260.022 70.0403 259.729C69.932 259.718 69.8271 259.708 69.7188 259.697C66.4898 259.359 63.2713 258.904 60.0702 258.37C58.7912 258.157 57.5157 257.93 56.2401 257.692C56.2192 258.105 56.1982 258.52 56.1807 258.936L56.1842 258.932Z" fill="#2B211D"/>
<path d="M124.486 139.155C124.591 139.231 124.692 139.312 124.793 139.392C127.984 141.855 130.93 144.625 133.498 147.741C135.721 150.437 137.608 153.382 139.146 156.522C140.757 159.813 142.018 163.26 143.287 166.691C144.527 170.047 145.778 173.411 147.365 176.625C148.955 179.849 150.936 182.811 153.295 185.518C155.479 188.026 157.912 190.314 160.312 192.634C160.91 193.207 161.504 193.787 162.095 194.366C164.017 196.267 165.876 198.223 167.525 200.361C167.742 200.643 167.959 200.933 168.172 201.223C168.511 201.691 168.843 202.17 169.161 202.662L175.566 196.843C175.21 196.291 174.843 195.75 174.462 195.226C174.064 194.674 173.651 194.132 173.229 193.612C171.659 191.67 169.937 189.871 168.161 188.121C167.7 187.667 167.235 187.213 166.771 186.762C163.779 183.863 160.728 181.016 158.128 177.753C153.449 171.888 151.101 164.79 148.49 157.864C147.218 154.489 145.855 151.132 144.084 147.985C142.403 145.005 140.355 142.239 138.048 139.713C134.432 135.752 130.207 132.392 125.671 129.535C125.576 129.475 125.478 129.412 125.384 129.356C125.367 129.468 125.346 129.58 125.328 129.688C125.255 130.146 125.185 130.603 125.118 131.061C124.87 132.811 124.696 134.568 124.587 136.332C124.538 137.143 124.507 137.953 124.486 138.767C124.482 138.896 124.479 139.025 124.479 139.155H124.486Z" fill="#2B211D"/>
<path d="M159.488 193.38L160.316 192.629L166.774 186.761L168.368 185.311C168.647 185.056 169.084 185.077 169.339 185.357L177.415 194.233C177.67 194.512 177.649 194.949 177.37 195.204L175.57 196.838L169.164 202.658L168.486 203.273C168.207 203.528 167.77 203.507 167.515 203.227L159.439 194.351C159.184 194.072 159.205 193.635 159.484 193.38H159.488ZM162.182 194.481L167.525 200.356L167.644 200.489C167.899 200.768 168.336 200.789 168.616 200.534L174.462 195.221L174.623 195.074C174.903 194.819 174.924 194.383 174.668 194.103L169.203 188.099C168.948 187.819 168.514 187.798 168.231 188.053L168.158 188.12L162.224 193.513C161.98 193.733 161.934 194.089 162.091 194.365C162.116 194.407 162.144 194.449 162.179 194.484L162.182 194.481Z" fill="#2B211D"/>
<path d="M44.4912 31.9485C44.9071 34.0409 45.7563 36.0285 47.1157 37.7785C47.2135 37.9427 47.3009 38.1068 47.3847 38.271C47.4337 38.3723 47.4826 38.4701 47.528 38.5679C47.7272 38.3688 47.9264 38.1732 48.1291 37.9776C50.6242 35.5604 53.3116 33.3423 55.9849 31.1311C57.4701 29.9016 58.9798 28.7034 60.5733 27.6171C62.1389 26.5517 63.7744 25.5876 65.4378 24.6759C68.8276 22.8141 72.2977 21.0885 75.7958 19.4363C78.8326 18.0006 81.9009 16.6348 84.9971 15.3354C84.9796 15.2306 84.9586 15.1258 84.9377 15.0245C84.8817 14.7346 84.8258 14.4446 84.7664 14.1582C84.6616 14.1652 84.5568 14.1722 84.4519 14.1827C84.2003 14.2036 83.9522 14.2246 83.7006 14.2455C83.4 14.2735 83.103 14.3014 82.8025 14.3364C82.474 14.3713 82.142 14.4097 81.8135 14.4516C81.6912 14.4656 81.5689 14.4796 81.4466 14.497C81.2124 14.5285 80.9748 14.5599 80.7407 14.5913C80.7127 14.5948 80.6847 14.5983 80.6568 14.6053C80.5974 14.6123 80.5415 14.6228 80.4855 14.6298C80.1745 14.6752 79.8635 14.7241 79.5525 14.773C79.4512 14.7905 79.3498 14.8079 79.2485 14.8219C79.1261 14.8428 79.0073 14.8638 78.8885 14.8848C78.7033 14.9162 78.5181 14.9511 78.3329 14.9861C78.2385 15.0035 78.1407 15.021 78.0428 15.042C77.9485 15.0594 77.8506 15.0769 77.7563 15.0978C77.5186 15.1433 77.281 15.1922 77.0434 15.2411C76.9455 15.262 76.8477 15.283 76.7498 15.3039C76.7498 15.3039 76.7463 15.3039 76.7428 15.3039C76.6764 15.3179 76.61 15.3319 76.5436 15.3459C76.4353 15.3703 76.3305 15.3913 76.2221 15.4157C76.0859 15.4437 75.9461 15.4751 75.8098 15.5065C75.4848 15.5799 75.1598 15.6602 74.8348 15.7406C74.8103 15.7476 74.7894 15.7511 74.7684 15.758C74.6041 15.7965 74.4434 15.8384 74.2791 15.8803C74.2512 15.8873 74.2232 15.8943 74.1953 15.9013C74.038 15.9432 73.8808 15.9816 73.7235 16.027C73.6606 16.0445 73.5977 16.0619 73.5348 16.0759C73.3426 16.1283 73.1469 16.1807 72.9547 16.2366C72.9547 16.2366 72.9512 16.2366 72.9477 16.2366C72.8044 16.275 72.6577 16.3169 72.5144 16.3589C72.2313 16.4392 71.9483 16.523 71.6652 16.6104C71.5743 16.6383 71.487 16.6662 71.3961 16.6942C71.2458 16.7396 71.0956 16.7885 70.9488 16.8339C70.8509 16.8653 70.7531 16.8968 70.6552 16.9282C70.5784 16.9527 70.5015 16.9771 70.4246 17.0016C70.2464 17.061 70.0717 17.1169 69.8969 17.1762C69.8725 17.1832 69.848 17.1937 69.8235 17.2007C69.6628 17.2566 69.502 17.309 69.3448 17.3649C69.3028 17.3788 69.2609 17.3928 69.219 17.4068C69.0303 17.4731 68.8416 17.5395 68.6529 17.6094C68.569 17.6408 68.4886 17.6688 68.4047 17.7002C68.3418 17.7246 68.2824 17.7456 68.2195 17.7701C68.1776 17.784 68.1391 17.798 68.0972 17.8155C68.0343 17.8399 67.9679 17.8644 67.9015 17.8888C67.8701 17.8993 67.8351 17.9133 67.8037 17.9272C67.6639 17.9796 67.5241 18.032 67.3878 18.0879C67.3878 18.0879 67.3843 18.0879 67.3808 18.0879C67.234 18.1438 67.0873 18.2032 66.937 18.2591C66.909 18.2696 66.8776 18.2835 66.8461 18.294C66.7832 18.3185 66.7238 18.3429 66.6609 18.3674C66.2975 18.5141 65.9341 18.6643 65.5706 18.818C65.3714 18.9018 65.1722 18.9891 64.973 19.0765C62.401 20.1978 59.9094 21.4937 57.5156 22.9573C56.925 23.3171 56.3414 23.6874 55.7648 24.0681C54.5976 24.8401 53.4514 25.6505 52.3401 26.4993C51.8963 26.7997 51.4524 27.1036 51.0086 27.4075C50.4076 27.8162 49.8065 28.2284 49.2089 28.6441C48.9957 28.7908 48.7861 28.9375 48.5764 29.0842C48.4087 29.1995 48.2409 29.3182 48.0732 29.4335C47.3148 29.961 46.56 30.4919 45.8052 31.0229C45.4278 31.2883 45.0504 31.5538 44.6764 31.8228C44.6415 31.8472 44.6065 31.8717 44.5716 31.8961C44.5436 31.9171 44.5122 31.938 44.4877 31.9555L44.4912 31.9485Z" fill="#2B211D"/>
</g>
<defs>
<clipPath id="clip0_2_164009">
<rect width="177.596" height="358" fill="white" transform="matrix(-1 0 0 1 177.596 0)"/>
</clipPath>
</defs>
</svg>
