<svg width="167" height="193" viewBox="0 0 167 193" fill="none" xmlns="http://www.w3.org/2000/svg">
<g clip-path="url(#clip0_3_172753)">
<path d="M113.226 153.715C116.258 159.175 119.076 166.639 119.465 172.02C119.565 173.395 116.832 186.877 115.301 190.528C114.55 191.247 114.672 190.928 113.922 191.647C113.093 188.113 112.296 180.835 111.467 177.301C111.201 176.171 109.859 175.581 108.852 175.003C107.845 174.425 106.733 174.08 105.641 173.699C99.2589 171.464 91.7701 166.527 88.0747 163.311C96.2249 160.335 105.074 156.691 113.224 153.715H113.226Z" fill="url(#paint0_linear_3_172753)"/>
<g style="mix-blend-mode:overlay" opacity="0.3">
<path d="M113.226 153.715C114.902 156.734 116.511 160.362 117.682 163.915C115.393 168.171 114.214 173.052 114.072 177.933C113.928 181.185 115.138 184 116.483 186.774C116.058 188.36 115.65 189.696 115.301 190.526C114.55 191.245 114.672 190.926 113.922 191.645C113.093 188.112 112.296 180.833 111.467 177.299C111.201 176.169 109.859 175.58 108.852 175.001C107.845 174.423 106.733 174.079 105.641 173.697C99.2589 171.462 91.7701 166.526 88.0747 163.309C96.2249 160.333 105.074 156.69 113.224 153.714L113.226 153.715Z" fill="black"/>
</g>
<path d="M118.159 105.807C116.786 113.134 116.06 120.583 115.99 128.038C119.683 125.727 123.309 123.305 127.002 120.994C127.277 121.719 127.752 122.527 128.028 123.251C122.945 130.198 115.265 135.189 106.879 137.051C103.823 130.652 101.881 123.379 100.842 116.36C106.206 112.118 111.989 108.75 118.159 105.809V105.807Z" fill="url(#paint1_linear_3_172753)"/>
<path d="M69.7513 166.303C70.3777 168.408 70.884 170.567 71.5103 172.672C55.2099 181.194 34.3363 180.103 19.0078 169.932C20.1404 170.258 21.2731 170.584 22.4057 170.908C19.952 169.009 17.4964 167.111 15.0426 165.212C16.9587 166.088 18.8766 166.965 20.7927 167.84C4.76196 153.597 -3.35131 129.997 1.30491 109.033C4.81924 112.938 9.34058 115.823 14.1114 118.007C18.8803 120.194 23.9208 121.719 28.941 123.237C28.0671 122.332 27.1562 121.278 26.2822 120.376C33.2259 123.205 39.5413 127.569 44.6521 133.065C43.7449 131.472 42.8358 129.876 41.9286 128.283C48.353 132.307 52.0817 139.418 55.415 146.24C58.7464 153.063 62.2275 160.238 68.4062 164.632C68.8552 164.951 69.5924 165.775 69.7513 166.303Z" fill="url(#paint2_linear_3_172753)"/>
<path opacity="0.8" d="M45.0195 178.318C48.0424 178.47 51.0782 178.367 54.0825 178.007C57.1719 170.324 58.9531 162.112 59.3245 153.836C57.9128 151.364 56.6527 148.777 55.4147 146.24C55.145 145.688 54.8715 145.134 54.5962 144.578C52.6653 156.108 49.5538 167.554 45.0195 178.318Z" fill="#E6EFEF"/>
<path opacity="0.8" d="M23.8076 172.735C26.9764 174.351 30.3152 175.622 33.752 176.547C42.8981 165.753 49.0343 152.4 51.2479 138.408C49.5739 135.656 47.6744 133.084 45.3759 130.945C41.3627 146.216 33.8942 160.596 23.8095 172.735H23.8076Z" fill="#E6EFEF"/>
<path opacity="0.8" d="M9.06104 153.552C10.8829 156.614 12.9578 159.515 15.2601 162.204C25.3966 152.646 33.9921 141.446 40.6125 129.174C38.8978 127.691 37.087 126.32 35.195 125.075C28.3308 136.238 19.6595 145.901 9.06104 153.552Z" fill="#E6EFEF"/>
<path opacity="0.8" d="M1.15137 132.852C1.726 135.798 2.51128 138.708 3.49426 141.552C12.4205 137.503 20.0423 130.552 24.8316 121.98C22.7769 121.337 20.7334 120.663 18.7194 119.91C13.8562 125.369 7.8105 129.856 1.15321 132.852H1.15137Z" fill="#E6EFEF"/>
<path opacity="0.8" d="M0.0331543 123.116C4.07039 121.673 7.80461 119.369 10.9106 116.406C7.33898 114.461 4.0205 112.05 1.30438 109.031C0.280747 113.642 -0.125748 118.378 0.035002 123.114L0.0331543 123.116Z" fill="#E6EFEF"/>
<g style="mix-blend-mode:overlay" opacity="0.4">
<path d="M0.535951 113.299C0.984944 117.314 1.91988 121.282 3.31675 125.079C4.38657 128.181 5.69475 131.162 6.88467 134.262C7.47963 135.574 8.07459 136.768 8.90606 137.841C8.78781 136.171 8.07274 134.501 8.3111 132.711C10.5708 138.198 14.9702 142.61 19.1331 146.667C18.5382 144.878 16.8734 143.565 16.5168 141.658C22.701 146.667 27.9337 153.704 35.7828 156.21C33.8797 154.422 32.0966 152.632 30.5501 150.604C35.901 153.347 40.7771 157.522 46.9614 158.357C45.2966 156.688 44.3451 154.422 43.1551 152.394C46.1281 154.303 48.6262 157.166 51.9558 158.596C49.9344 155.376 48.2696 152.037 47.6746 148.34C48.8645 149.055 49.5778 150.606 51.1243 150.964C51.1243 146.789 48.9828 143.211 47.913 139.275C49.3394 140.111 50.0545 141.66 51.2425 142.734C50.8859 139.753 49.2212 137.129 48.1495 134.266C48.3176 134.375 48.4858 134.487 48.6521 134.598C49.5815 135.81 50.4388 137.09 51.2444 138.413C52.4583 140.407 53.5522 142.495 54.5924 144.584C54.8677 145.138 55.1412 145.694 55.411 146.246C56.6508 148.783 57.9091 151.37 59.3207 153.842C61.7043 158.02 64.522 161.878 68.404 164.639C68.853 164.958 69.5903 165.783 69.7473 166.311C70.3737 168.418 70.88 170.575 71.5063 172.68C66.0796 175.517 60.1466 177.288 54.0788 178.013C51.0744 178.372 48.0386 178.476 45.0158 178.324C41.2095 178.135 37.4254 177.542 33.7485 176.552C30.3117 175.628 26.9748 174.357 23.8041 172.741C22.1541 171.899 20.5485 170.966 19.0019 169.937C20.1346 170.263 21.2672 170.588 22.3999 170.914C19.9443 169.014 17.4923 167.117 15.0367 165.219C16.9528 166.094 18.8707 166.972 20.785 167.847C18.8209 166.101 16.975 164.215 15.2566 162.21C12.9525 159.521 10.8794 156.619 9.05757 153.558C6.80337 149.769 4.93164 145.734 3.48859 141.558C2.50561 138.715 1.72033 135.804 1.14569 132.858C0.517474 129.641 0.138694 126.383 0.0296798 123.122C-0.0811826 119.835 0.0814156 116.549 0.532256 113.304L0.535951 113.299Z" fill="black"/>
</g>
<g style="mix-blend-mode:overlay" opacity="0.4">
<path d="M42.3659 133.069C39.4115 129.543 35.79 126.58 31.7527 124.384C33.0184 125.755 34.2841 127.126 35.5479 128.497C30.2265 125.429 24.4192 123.209 18.4104 121.947C20.1454 122.694 21.7141 123.832 22.9632 125.251C16.2061 123.072 9.90915 119.468 4.60254 114.74C10.1216 122.694 18.6968 128.307 28.2643 129.645C26.8194 127.734 25.2248 125.84 23.3346 124.373C28.4749 127.332 33.8351 130.074 38.9754 133.036C38.0386 131.585 37.4455 129.817 36.5087 128.366C40.0138 131.396 43.0644 134.952 45.5255 138.88C44.5887 136.671 43.9051 134.905 42.3659 133.067V133.069Z" fill="white"/>
</g>
<path d="M61.4441 156.256C62.6562 162.655 65.9636 168.862 71.3718 172.468C75.1836 175.009 79.6366 176.059 84.2356 176.252C87.9956 176.41 91.8555 175.993 95.5417 175.348C101.85 174.245 108.72 172.096 111.888 166.514C113.564 163.563 113.936 160.02 113.66 156.634C113.385 153.247 112.504 149.945 111.822 146.616C110.37 139.545 109.811 132.294 110.142 125.084C110.151 124.886 110.161 124.688 110.17 124.489C110.454 119.043 111.247 113.623 112.539 108.327C112.821 107.174 113.124 106.026 113.455 104.884C106.452 95.3928 95.9371 89.6632 84.2817 87.9991C73.2177 102.238 65.5663 119.125 62.1499 136.849C60.9175 143.244 60.232 149.857 61.4441 156.258V156.256Z" fill="url(#paint3_linear_3_172753)"/>
<path d="M84.2333 176.252C87.9934 176.41 91.8532 175.993 95.5394 175.348C101.847 174.245 108.717 172.096 111.886 166.514C113.562 163.562 113.933 160.019 113.658 156.634C113.383 153.247 112.501 149.944 111.82 146.616C110.367 139.545 109.809 132.294 110.14 125.084C110.096 124.743 110.048 124.4 110.005 124.057C110.04 124.211 110.097 124.354 110.17 124.489C110.548 125.208 111.326 125.723 111.517 126.537C112.982 124.732 113.44 122.154 112.688 119.951C113.255 121.207 113.822 122.466 114.39 123.726C115.28 121.426 114.94 118.689 113.514 116.679C114.691 117.915 115.868 119.151 117.047 120.387C116.864 116.025 115.247 111.74 112.538 108.325C112.08 107.745 111.589 107.193 111.069 106.667C106.162 101.706 96.3857 103.668 89.6748 101.788C86.8238 111.466 84.4532 121.674 86.8053 131.486C87.3855 133.908 87.9657 136.33 88.5477 138.752C87.7476 137.638 86.9513 136.527 86.1531 135.413C87.3615 140.153 88.568 144.893 89.7764 149.633C88.5569 147.884 87.3356 146.133 86.1143 144.383C86.7665 149.891 87.4206 155.418 87.3411 160.963C87.2635 166.34 86.312 171.323 84.2314 176.252H84.2333Z" fill="url(#paint4_linear_3_172753)"/>
<path d="M113.74 190.793C114.218 190.367 115.133 190.182 115.733 190.013C116.493 189.8 117.269 189.653 118.05 189.55C119.599 189.346 121.143 189.398 122.696 189.292C123.095 189.264 123.496 189.244 123.897 189.231C124.329 189.216 124.527 189.661 124.355 189.983C124.652 190.013 124.944 190.057 125.231 190.12C125.593 190.2 125.77 190.682 125.497 190.958C125.037 191.421 124.44 191.573 123.823 191.662C123.832 191.67 123.841 191.677 123.85 191.684C124.072 191.896 124.055 192.285 123.786 192.452C123.072 192.893 122.167 192.885 121.354 192.939C119.846 193.037 118.296 193.037 116.803 192.783C116.258 192.691 112.638 191.773 113.738 190.795L113.74 190.793Z" fill="#272D2D"/>
<g style="mix-blend-mode:overlay" opacity="0.3">
<path d="M81.6577 121.826C82.0679 122.977 81.9386 123.518 82.4393 124.638C84.2371 128.666 86.6022 132.47 89.4532 135.952C91.9513 139.054 95.2809 141.081 98.3721 143.348C102.956 141.524 106.751 138.437 110.249 135.031C110.173 133.94 110.122 132.847 110.09 131.755C110.042 130.2 110.037 128.646 110.072 127.091C105.998 128.512 102.067 130.263 98.1356 132.016C91.8016 127.847 87.4521 122.705 82.5483 117.047C82.1566 118.608 81.8591 120.201 81.6577 121.828V121.826Z" fill="black"/>
</g>
<g style="mix-blend-mode:overlay" opacity="0.3">
<path d="M90.6429 172.687C97.897 171.017 104.796 167.439 108.006 160.522C110.321 155.654 111.322 150.55 111.57 145.36C111.65 145.779 111.733 146.2 111.818 146.618C112.499 149.946 113.381 153.249 113.656 156.636C113.931 160.021 113.56 163.564 111.884 166.516C108.715 172.098 101.846 174.247 95.5375 175.35C91.8513 175.995 87.9915 176.412 84.2314 176.254C79.6325 176.061 75.1795 175.011 71.3677 172.47C69.7251 171.375 68.2765 170.037 67.02 168.529C73.8916 172.757 82.1287 174.599 90.6411 172.689L90.6429 172.687Z" fill="black"/>
</g>
<path d="M89.2742 101.378C89.8489 111.001 93.6533 120.403 99.9299 127.704C105.573 126.348 111.011 123.922 115.669 120.451C116.136 121.104 116.58 121.732 117.047 122.384C113.481 130.273 106.116 136.178 97.7626 138.378C90.6378 134.896 84.6125 129.129 80.978 122.067C81.7615 114.431 84.6697 107.51 89.2742 101.376V101.378Z" fill="url(#paint5_linear_3_172753)"/>
<g style="mix-blend-mode:overlay" opacity="0.15">
<path d="M99.0909 134.509C105.521 132.591 111.576 129.09 116.149 124.182C114.588 127.037 112.52 129.593 110.09 131.753C106.578 134.877 102.317 137.179 97.7624 138.38C91.5227 135.33 86.1256 130.528 82.4394 124.637C82.2657 124.361 82.0994 124.082 81.9331 123.8C86.8369 128.57 92.5371 132.422 99.0909 134.509Z" fill="black"/>
</g>
<path d="M124.525 117.279C124.94 117.516 125.277 117.913 125.546 118.345C125.905 118.161 126.299 118.113 126.692 118.167C126.751 117.957 126.803 117.75 126.849 117.54C126.518 117.416 126.165 117.349 125.829 117.344C124.711 117.325 124.722 115.665 125.829 115.611C126.295 115.589 126.742 115.652 127.16 115.784C127.16 115.773 127.163 115.761 127.165 115.75C127.028 115.667 126.879 115.595 126.705 115.524C126.324 115.369 125.587 114.992 125.173 115.104C124.068 115.4 123.593 113.649 124.702 113.39C125.619 113.175 126.57 113.59 127.394 113.975C128.543 114.511 129.419 115.435 129.817 116.651C130.504 118.754 130.258 121.345 128.702 123.016C128.318 123.427 127.808 123.748 127.248 123.794C124.628 124.011 124.972 119.734 123.656 118.411C123.078 117.831 123.815 116.875 124.527 117.281L124.525 117.279Z" fill="black"/>
<g style="mix-blend-mode:overlay" opacity="0.3">
<path d="M113.453 104.884C113.124 106.026 112.819 107.173 112.537 108.327C114.804 111.186 116.306 114.655 116.844 118.27C116.221 118.269 115.596 118.248 114.974 118.213C114.488 117.702 114 117.192 113.514 116.681C113.843 117.144 114.113 117.646 114.323 118.17C108.074 117.702 101.86 115.635 96.1141 112.932C88.6697 109.465 82.3413 104.658 76.813 98.8617C79.0931 95.1019 81.5819 91.4699 84.2796 87.9991C95.9349 89.665 106.45 95.3946 113.453 104.884Z" fill="black"/>
</g>
<path d="M116.443 64.4303L116.626 47.7122C116.626 47.7122 111.282 49.1427 107.394 54.1385C103.507 59.1325 102.84 66.502 102.84 66.502L116.443 64.4322V64.4303Z" fill="url(#paint6_linear_3_172753)"/>
<path d="M113.919 63.4612L113.599 54.0903C113.599 54.0903 110.641 55.028 108.59 57.9243C106.539 60.8206 106.351 64.9658 106.351 64.9658L113.919 63.4593V63.4612Z" fill="url(#paint7_linear_3_172753)"/>
<path d="M125.476 64.6157L130.942 48.8203C130.942 48.8203 135.489 51.9798 137.462 57.9984C139.435 64.0171 137.58 71.1791 137.58 71.1791L125.476 64.6175V64.6157Z" fill="url(#paint8_linear_3_172753)"/>
<path d="M128.178 64.5582L131.638 55.8489C131.638 55.8489 134.105 57.7334 135.06 61.156C136.014 64.5767 134.793 68.5422 134.793 68.5422L128.178 64.5582Z" fill="url(#paint9_linear_3_172753)"/>
<g style="mix-blend-mode:overlay" opacity="0.4">
<path d="M116.443 64.4303L102.84 66.5001C102.84 66.5001 103.073 63.9355 104.061 60.8057C107.993 58.7859 112.211 57.4517 116.529 56.5734L116.445 64.4284L116.443 64.4303Z" fill="black"/>
</g>
<g style="mix-blend-mode:overlay" opacity="0.4">
<path d="M138.345 63.1647C138.539 67.4805 137.58 71.1791 137.58 71.1791L125.476 64.6175L128.194 56.7606C131.871 58.3654 135.191 60.6353 138.345 63.1647Z" fill="black"/>
</g>
<path d="M83.7013 78.9433C80.9205 74.8592 78.1416 70.7751 75.3608 66.6892C72.2197 65.544 69.1839 63.665 66.8983 61.219C66.8114 63.2981 67.3436 65.4365 68.5852 67.1043C69.8287 68.772 71.8169 69.9153 73.8918 69.9264C76.3364 74.0661 79.7343 77.5425 83.9064 79.9181C83.8972 79.5345 83.7105 79.3269 83.7013 78.9433Z" fill="url(#paint10_linear_3_172753)"/>
<path d="M83.3744 78.2985C79.6365 76.1675 75.8986 74.0365 72.1607 71.9055C68.5983 69.8745 63.7518 72.9265 60.0859 74.7629C63.4007 76.0859 66.9188 76.3861 70.3259 75.3206C74.28 76.3657 78.1824 77.8111 82.1365 78.8544C82.5577 78.9656 83.3116 78.7321 83.3763 78.2985H83.3744Z" fill="url(#paint11_linear_3_172753)"/>
<path d="M71.2588 87.4525C71.2588 87.4525 85.8335 111.297 111.341 114.496C136.849 117.694 155.795 104.082 155.795 104.082C155.795 104.082 153.868 94.9425 148.883 85.1695C143.875 75.3521 135.781 64.8954 123.456 62.4234C110.369 59.7977 96.4319 67.0542 86.2529 74.42C77.3026 80.8945 71.2588 87.4562 71.2588 87.4562V87.4525Z" fill="url(#paint12_linear_3_172753)"/>
<path d="M71.2592 87.4525C71.2592 87.4525 85.8339 111.298 111.341 114.496C136.849 117.694 155.795 104.082 155.795 104.082C155.795 104.082 153.868 94.9425 148.883 85.1696C147.684 84.0837 146.306 82.9311 144.863 81.9138C140.55 78.8674 137.392 78.015 137.392 78.015L127.494 84.5321L119.538 74.8481C119.538 74.8481 109.64 72.5948 94.6382 73.6307C91.5304 73.8457 88.7329 74.1199 86.2515 74.4201C77.3012 80.8946 71.2573 87.4563 71.2573 87.4563L71.2592 87.4525Z" fill="url(#paint13_linear_3_172753)"/>
<path d="M126.644 87.3116L117.899 77.5665L82.5132 75.8209L78.4648 79.4751C78.4648 79.4751 86.3194 87.9621 91.9476 92.3056C97.5757 96.651 107.09 99.8178 107.09 99.8178L127.534 90.9251L138.384 98.6801L153.729 94.7813L152.676 91.0863C152.676 91.0863 150.531 88.568 145.47 84.9138C140.409 81.2596 137.575 80.3257 137.575 80.3257L126.644 87.3098V87.3116Z" fill="url(#paint14_linear_3_172753)"/>
<path d="M109.329 91.2864C109.538 91.3124 109.739 91.3346 109.939 91.3513C109.939 91.3513 109.939 91.3513 109.941 91.3513C110.139 91.3661 110.333 91.3772 110.521 91.3828C110.772 91.3902 111.014 91.3883 111.247 91.3809C115.257 91.2216 116.746 88.7292 116.746 88.7292L112.988 87.875L110.331 87.2709L108.446 86.8428L104.492 85.9441C104.492 85.9441 103.866 90.5749 109.329 91.2883V91.2864Z" fill="white"/>
<path d="M117.69 88.9442L102.683 85.8125L103.119 83.8965L117.69 88.9442Z" fill="#0F1111"/>
<path d="M106.208 82.9144L118.437 88.6311L119.275 84.9935L106.208 82.9144Z" fill="#0F1111"/>
<path d="M145.237 85.3586L132.207 88.8664L132.008 85.1381L145.237 85.3586Z" fill="#0F1111"/>
<path d="M132.331 89.8578C132.331 89.8578 132.479 93.6547 136.544 94.2198C136.985 94.281 137.475 94.3051 138.016 94.281H138.02C138.44 94.2625 138.835 94.2236 139.206 94.1698C143.72 93.512 144.881 90.4748 144.881 90.4748L139.639 90.2191L138.312 90.1543L135.106 89.9968L132.331 89.8615V89.8578Z" fill="white"/>
<path d="M130.971 89.7132L146.176 91.6589L146.387 89.7058L130.971 89.7132Z" fill="#0F1111"/>
<path d="M108.008 87.2116C108.008 87.8138 108.265 88.505 108.729 88.9034C109.895 89.9022 110.815 88.2326 110.815 87.2116C110.815 87.1578 110.815 87.1041 110.809 87.0503L109.235 86.6927L108.117 86.4388C108.045 86.676 108.006 86.9373 108.006 87.2116H108.008Z" fill="#0F1111"/>
<path d="M135.064 90.5934C135.064 91.1956 135.321 91.8868 135.784 92.2852C136.95 93.284 137.871 91.6144 137.871 90.5934C137.871 90.5397 137.871 90.4859 137.865 90.4322L136.291 90.0745L135.173 89.8207C135.101 90.0579 135.062 90.3191 135.062 90.5934H135.064Z" fill="#0F1111"/>
<path d="M113.163 114.677C113.163 114.677 121.178 116.414 137.211 112.485C148.341 109.758 158.375 103.507 163.469 99.9421C165.714 98.3707 166.998 97.32 166.998 97.32L158.188 95.8005L127.553 91.0475C125.306 90.9252 113.161 114.677 113.161 114.677H113.163Z" fill="url(#paint15_linear_3_172753)"/>
<path d="M158.192 95.8004C158.329 97.9333 160.581 99.6677 163.471 99.942C165.716 98.3706 167 97.3199 167 97.3199L158.19 95.8004H158.192Z" fill="#454C4C"/>
<g style="mix-blend-mode:overlay" opacity="0.2">
<path d="M116.422 66.5187C116.114 67.8417 115.807 69.1648 115.499 70.4897C116.003 69.6892 116.507 68.8887 117.012 68.0882C117.376 69.5984 117.742 71.1087 118.106 72.6189C118.597 71.1198 119.087 69.6207 119.578 68.1216C120.182 70.1302 120.787 72.1408 121.391 74.1495C121.581 72.7875 121.773 71.4255 121.964 70.0635C122.738 71.9981 123.51 73.9327 124.284 75.8673C124.179 74.0606 124.074 72.2538 123.967 70.4471C125.467 73.3342 126.967 76.2212 128.468 79.1082C128.449 76.5158 128.432 73.9253 128.414 71.3329C129.665 73.4565 130.916 75.5782 132.165 77.7018C131.96 75.3373 131.755 72.9747 131.55 70.6102C132.704 71.9147 133.861 73.2193 135.016 74.5257C134.722 73.5046 134.43 72.4836 134.136 71.4626C135.092 72.3724 136.047 73.2823 137.002 74.1903C136.004 71.7609 134.489 69.5447 132.59 67.7343C133.312 68.9369 133.959 70.0135 134.681 71.218C133.652 70.1173 132.623 69.0166 131.594 67.9159C132.119 69.037 132.645 70.158 133.17 71.2791C132.159 69.7467 130.951 68.3476 129.585 67.1265C130.186 68.9276 130.55 70.8085 130.663 72.7041C129.421 70.9159 128.179 69.1259 126.938 67.3377C127.017 69.3687 127.098 71.4014 127.178 73.4324C125.923 71.1457 124.502 68.7794 123.248 66.4927C123.357 67.99 123.466 69.4891 123.575 70.9864C122.939 69.4205 122.302 67.8547 121.666 66.2889C121.164 67.7695 121.032 69.3779 121.291 70.9215C120.617 68.7998 119.942 66.678 119.27 64.5544C118.636 66.124 118.335 67.8288 118.392 69.5206C118.096 68.1901 117.801 66.8596 117.505 65.5273C117.021 66.3815 116.788 67.397 116.306 68.2513C116.352 67.6583 116.413 66.8967 116.422 66.5205V66.5187Z" fill="white"/>
</g>
<g style="mix-blend-mode:overlay" opacity="0.3">
<path d="M164.844 97.9722L127.86 92.3075L121.665 95.2316L164.844 97.9722Z" fill="white"/>
</g>
<g style="mix-blend-mode:overlay" opacity="0.2">
<path d="M74.646 84.0707C77.3862 88.4105 80.6677 92.4224 85.0541 95.7541C99.2076 106.489 115.976 111.14 133.22 108.994C142.261 107.86 151.093 105.718 159.515 102.564C153.988 106.042 145.938 110.345 137.211 112.483C136.744 112.598 136.284 112.708 135.829 112.813C132.054 113.794 127.853 114.55 123.315 114.844C117.492 115.33 114.176 114.855 113.361 114.713C112.692 114.651 112.018 114.579 111.34 114.494C85.832 111.296 71.2573 87.4507 71.2573 87.4507C71.2573 87.4507 72.4824 86.122 74.6442 84.0688L74.646 84.0707Z" fill="black"/>
</g>
<path d="M113.496 98.0779C120.222 103.018 127.609 105.522 135.569 107.491C129.828 111.874 122.021 112.722 114.97 111.201C113.084 106.758 112.463 103.316 113.496 98.0779Z" fill="#707C7C"/>
<path d="M118.976 102.827C118.38 103.691 117.868 104.58 117.393 105.481C116.781 105.145 116.177 104.799 115.584 104.436C115.76 102.937 115.845 101.424 115.832 99.9031C121.016 103.426 126.79 106.079 132.842 107.703C132.134 108.184 131.402 108.62 130.652 109.011C130.408 109.137 130.159 109.261 129.909 109.378C129.582 109.531 129.25 109.678 128.915 109.815C125.756 109.118 122.653 108.051 119.71 106.661C119.368 105.401 119.205 104.108 118.975 102.827H118.976Z" fill="white"/>
<path d="M122.557 111.401C119.974 111.661 117.339 111.488 114.776 110.879C114.096 109.57 113.64 108.179 113.363 106.745C116.766 107.417 120.002 109.031 122.557 111.401Z" fill="#E94A23"/>
<path d="M113.039 103.872C113.025 103.468 113.021 103.061 113.026 102.655C113.052 101.171 113.22 99.6807 113.49 98.2261C114.255 98.8061 115.037 99.3638 115.831 99.9031C115.844 101.424 115.759 102.937 115.584 104.436C116.177 104.799 116.781 105.145 117.393 105.481C117.866 104.58 118.377 103.691 118.976 102.827C119.207 104.108 119.368 105.401 119.711 106.661C122.655 108.051 125.757 109.118 128.917 109.815C126.886 110.653 124.741 111.181 122.559 111.401C120.003 109.031 116.768 107.417 113.364 106.745C113.183 105.801 113.078 104.841 113.041 103.872H113.039Z" fill="#991908"/>
<path d="M115.916 116.792C116.232 116.076 116.605 115.385 117.04 114.737C117.413 114.177 117.895 113.464 118.51 113.158C118.754 113.036 119.065 113.182 119.065 113.477C119.061 114.103 118.723 114.765 118.468 115.326C118.333 115.624 118.191 115.919 118.052 116.215C118.385 115.776 118.741 115.361 119.146 115.013C120.79 113.59 122.997 113.288 125.092 113.245C126.043 113.225 126.313 114.824 125.323 114.959C123.621 115.191 121.568 115.282 120.271 116.558C120.062 116.764 119.868 116.988 119.682 117.222C119.667 117.324 119.656 117.425 119.649 117.527C121.555 116.551 123.597 116.23 125.72 116.049C126.686 115.967 126.984 117.383 126.202 117.831C125.718 118.107 124.905 117.95 124.362 118.013C122.976 118.172 121.592 118.584 120.358 119.24C120.14 119.356 119.928 119.479 119.721 119.607C119.78 119.631 119.841 119.655 119.904 119.673C120.238 119.779 120.574 119.847 120.925 119.877C121.238 119.903 121.555 119.89 121.875 119.864C122.79 119.69 123.725 119.66 124.656 119.84C125.787 120.059 125.312 121.808 124.179 121.576C122.431 121.219 120.676 122.028 119.046 122.56C117.967 122.912 116.071 123.24 115.196 122.229C114.035 120.889 115.33 118.135 115.92 116.797L115.916 116.792Z" fill="#272D2D"/>
<path d="M86.7351 163.353C85.6616 169.509 83.1616 177.084 80.0834 181.511C79.2981 182.641 71.1756 188.618 67.6945 190.484C66.6598 190.567 66.9554 190.398 65.9207 190.484C67.4949 187.215 68.9805 183.829 70.5547 180.561C71.0592 179.515 70.3848 178.209 69.9672 177.125C69.5496 176.039 68.901 175.068 68.2931 174.082C64.7419 168.316 62.0257 159.749 61.1758 154.916C69.3741 157.755 78.535 160.516 86.7333 163.353H86.7351Z" fill="url(#paint16_linear_3_172753)"/>
<g style="mix-blend-mode:overlay" opacity="0.3">
<path d="M62.1479 136.847C62.6043 134.483 63.1364 132.133 63.7425 129.804C61.5862 144.217 62.5063 158.643 71.9721 170.302C74.692 173.641 78.1509 176.367 81.9922 178.241C81.3899 179.447 80.7506 180.553 80.0854 181.511C79.3001 182.642 71.1776 188.618 67.6965 190.484C66.6618 190.567 66.9575 190.398 65.9227 190.484C67.497 187.215 68.9825 183.829 70.5568 180.561C71.0612 179.515 70.3868 178.209 69.9692 177.125C69.5516 176.039 68.9031 175.068 68.2952 174.082C65.7177 169.896 63.5799 164.235 62.2772 159.599C61.9465 158.535 61.6749 157.453 61.4642 156.365C61.3534 155.854 61.2573 155.37 61.1778 154.918C61.1908 154.924 61.2056 154.927 61.2203 154.933C60.3279 148.949 61.0023 142.807 62.1497 136.851L62.1479 136.847Z" fill="black"/>
</g>
<path d="M65.9171 190.272C66.4271 189.883 67.3528 189.768 67.9644 189.644C68.7367 189.488 69.522 189.401 70.3091 189.359C71.8686 189.272 73.4059 189.44 74.9598 189.453C75.3607 189.457 75.7617 189.466 76.1626 189.483C76.595 189.501 76.7576 189.959 76.5636 190.269C76.8574 190.32 77.1456 190.387 77.4265 190.471C77.7812 190.576 77.9235 191.071 77.6279 191.325C77.1327 191.751 76.5285 191.858 75.9058 191.901C75.915 191.91 75.9243 191.918 75.9317 191.927C76.1368 192.155 76.0906 192.54 75.8097 192.687C75.0651 193.072 74.1634 192.996 73.3486 192.989C71.839 192.972 70.2925 192.855 68.8235 192.489C68.2877 192.355 64.7475 191.167 65.9171 190.274V190.272Z" fill="#272D2D"/>
<g style="mix-blend-mode:overlay" opacity="0.15">
<path d="M66.806 142.833C66.3496 145.886 66.7764 149.066 68.0181 151.892C68.3451 149.867 68.6703 147.841 68.9974 145.816C69.8455 148.592 70.6917 151.368 71.5398 154.144C71.6507 151.446 71.7597 148.748 71.8706 146.049C73.4393 149.355 75.0061 152.663 76.5748 155.969C76.6284 153.419 76.6838 150.871 76.7374 148.321C77.8811 151.023 79.0267 153.725 80.1705 156.428C80.2518 153.614 80.3331 150.799 80.4125 147.986C81.5193 150.719 82.6279 153.452 83.7347 156.186C83.6737 152.63 83.6127 149.072 83.5518 145.516C83.4372 147.193 83.2155 148.26 83.1009 149.937C82.2658 147.4 81.4324 144.862 80.5973 142.325C80.1686 144.923 79.7418 147.521 79.3131 150.119C78.3616 147.424 77.4118 144.732 76.4603 142.038C76.1591 144.617 75.8579 147.198 75.5549 149.778C74.3206 146.793 73.2249 144.061 71.9907 141.076C71.3384 143.309 71.0483 145.647 71.1352 147.973C70.4774 145.731 69.8178 143.487 69.16 141.245C68.7128 143.463 68.2657 145.681 67.8167 147.899C67.5913 145.972 67.0314 144.762 66.806 142.833Z" fill="white"/>
</g>
<g style="mix-blend-mode:overlay" opacity="0.15">
<path d="M84.8157 122.74C84.9524 122.866 85.0873 122.994 85.224 123.12C84.2946 121.51 83.3652 119.899 82.4377 118.289C83.9676 119.338 85.4975 120.387 87.0274 121.435C86.3437 119.86 85.6601 118.287 84.9746 116.712C86.2514 117.829 87.53 118.945 88.8067 120.062C87.8459 118.417 87.2417 116.562 87.0477 114.666C88.2746 116.162 89.5015 117.657 90.7283 119.152C90.4475 117.8 90.4863 116.582 90.2054 115.231C91.7335 117.796 93.2616 120.361 94.7896 122.923C93.9452 121.882 93.1433 121.05 92.297 120.009C92.5557 120.948 92.8126 121.888 93.0712 122.827C92.0975 121.75 91.1219 120.676 90.1482 119.599C90.8226 121.139 91.4988 122.681 92.1733 124.221C90.8558 122.894 89.5384 121.567 88.2229 120.238C89.1763 122.178 90.1297 124.117 91.0831 126.057C89.5809 124.802 88.0769 123.546 86.5747 122.292C87.4228 124.009 88.2727 125.727 89.1208 127.445C86.1682 125.627 83.5851 123.207 81.5767 120.374C82.7666 121.337 83.696 121.691 84.8157 122.736V122.74Z" fill="white"/>
</g>
<path d="M56.4016 56.957C55.4629 56.957 54.7017 56.1936 54.7017 55.2522V55.0095C54.7017 54.0681 55.4629 53.3047 56.4016 53.3047C57.3402 53.3047 58.1014 54.0681 58.1014 55.0095V55.2522C58.1014 56.1936 57.3402 56.957 56.4016 56.957Z" fill="url(#paint17_linear_3_172753)"/>
<g style="mix-blend-mode:overlay" opacity="0.6">
<path d="M54.7016 55.0075C54.7016 54.0662 55.4628 53.3027 56.4014 53.3027C57.3401 53.3027 58.1013 54.0662 58.1013 55.0075V55.2503C58.1013 55.4838 58.0551 55.7043 57.9701 55.9063C56.9872 56.2398 55.9136 56.2658 54.8919 56.036C54.7699 55.8006 54.6997 55.5338 54.6997 55.2484V55.0057L54.7016 55.0075Z" fill="black"/>
</g>
<path d="M44.2896 31.2163C44.2896 24.7455 49.6424 19.4995 56.2461 19.4995C62.8498 19.4995 68.2026 24.7455 68.2026 31.2163C68.2026 34.3294 66.9628 37.159 64.9414 39.2585C63.1417 41.1264 61.9481 43.5001 61.4473 46.0499L60.5826 50.4398L51.3404 50.349L50.6309 45.935C50.2114 43.3278 49.0271 40.9151 47.2662 38.9528C45.413 36.8885 44.2896 34.1812 44.2896 31.2163Z" fill="url(#paint18_linear_3_172753)"/>
<path d="M50.2761 32.8229C50.084 34.0256 50.6217 35.2356 50.9875 36.3345C51.1575 36.8477 51.3256 37.361 51.4956 37.8743C51.9225 39.1733 52.3493 40.4723 52.7761 41.7731C53.2269 43.1518 53.6778 44.5305 54.1231 45.9128C54.3023 46.4669 54.7217 47.247 54.7217 47.84L55.1264 47.7177L52.0056 35.8008C51.8836 35.2523 51.7321 34.7075 51.6046 34.2183C51.4384 33.5845 51.3127 33.0416 51.5363 32.5987C51.7617 32.1503 52.2384 31.8594 52.6412 31.9205C52.8703 31.9557 53.0773 32.0891 53.2565 32.267C52.8906 33.5642 52.9553 34.9725 53.456 36.2288C53.7554 36.9793 54.2007 37.1609 54.5222 37.1813C54.5425 37.1813 54.561 37.1831 54.5813 37.1831C55.0137 37.1831 55.4146 36.8885 55.5938 36.4364C55.7232 36.1102 55.7158 35.7841 55.6899 35.4821C55.5975 34.4332 55.2927 33.3881 54.8086 32.4616C54.7291 32.3115 54.6478 32.1707 54.5628 32.0391C54.7402 31.6222 55.0469 31.0885 55.5255 30.8643C56.1943 30.5511 57.0535 30.9643 57.4951 31.5684C57.375 31.6815 57.2605 31.8056 57.1551 31.939C56.684 32.5339 56.3662 33.2936 56.1518 34.3239C56.0798 34.6704 56.0225 35.0447 56.0872 35.4339C56.1722 35.9546 56.4715 36.3845 56.8854 36.5828C57.5432 36.8978 58.2675 36.5587 58.6444 36.0621C58.9788 35.6173 59.0842 35.0799 59.1414 34.613C59.2634 33.629 59.2098 32.7618 58.9862 32.0169C59.1655 31.9594 59.3484 31.9372 59.5221 31.9539C60.2279 32.0243 60.7582 32.7192 60.9171 33.3696C61.0372 33.8606 60.9651 34.3999 60.8376 35.0095C60.8358 35.0095 57.4748 47.84 57.4748 47.84L57.8795 47.9623C57.8573 47.9549 58.7497 45.1939 58.8033 45.0326C59.3003 43.5002 59.8011 41.9696 60.3036 40.4389C60.5494 39.6885 60.797 38.938 61.0427 38.1893C61.233 37.6093 62.0774 35.3987 62.1495 34.8242C62.2437 34.0737 62.1624 33.3066 61.8686 32.6043C61.4714 31.6574 60.688 30.8735 59.6311 30.7679C59.2505 30.7308 58.8569 30.792 58.4818 30.9384C57.7704 29.8914 56.32 29.1817 55.0488 29.7784C54.5203 30.0267 54.0658 30.4862 53.7184 31.12C53.4357 30.918 53.1327 30.7901 52.813 30.7401C51.8208 30.5863 50.9524 31.2089 50.5274 32.0539C50.4055 32.2948 50.3205 32.5542 50.278 32.8211L50.2761 32.8229ZM57.9792 32.7896C58.0661 33.2788 58.0716 33.8384 57.994 34.4647C57.9571 34.7723 57.8961 35.1151 57.7316 35.332C57.6263 35.4728 57.4489 35.5413 57.3713 35.5043C57.3159 35.4783 57.2494 35.3783 57.2254 35.2375C57.1958 35.0559 57.2254 34.8428 57.2808 34.5759C57.4415 33.7939 57.6651 33.2232 57.9774 32.7896H57.9792ZM54.184 33.9348C54.3707 34.4684 54.4908 35.0281 54.5406 35.5914C54.548 35.6729 54.5536 35.7619 54.5499 35.8378C54.5425 35.8193 54.5333 35.7989 54.524 35.7785C54.2931 35.2004 54.1803 34.5685 54.1822 33.9366L54.184 33.9348Z" fill="#F4A72C"/>
<path d="M85.3865 12.9731L72.8369 22.7035L87.4874 18.271L85.3865 12.9731Z" fill="url(#paint19_linear_3_172753)"/>
<path d="M55.0342 0L57.329 11.7798L59.3061 0.372462L55.0342 0Z" fill="url(#paint20_linear_3_172753)"/>
<path d="M80.6672 46.3724L69.5957 39.6199L77.2544 49.5281L80.6672 46.3724Z" fill="url(#paint21_linear_3_172753)"/>
<path d="M28.9519 7.98853L38.5471 20.6578L25.5503 12.5581L28.9519 7.98853Z" fill="url(#paint22_linear_3_172753)"/>
<path d="M30.999 45.3292L40.8621 39.1178L34.1069 48.1199L30.999 45.3292Z" fill="url(#paint23_linear_3_172753)"/>
<g style="mix-blend-mode:overlay" opacity="0.3">
<path d="M46.7397 24.1118C45.8196 27.716 46.3277 31.4758 49.0697 34.6353C51.686 37.6168 55.7288 38.5711 59.5351 38.4525C62.436 38.3265 65.0394 37.3036 67.2936 35.71C66.7319 37.0331 65.9318 38.2339 64.9433 39.2586C63.1418 41.1265 61.95 43.5002 61.4493 46.05L60.5846 50.4399L51.3423 50.3491L50.6328 45.9351C50.2134 43.3279 49.029 40.9152 47.2682 38.9528C45.4149 36.8886 44.2915 34.1813 44.2915 31.2164C44.2915 28.5443 45.2043 26.0816 46.7416 24.1118H46.7397Z" fill="black"/>
</g>
<g style="mix-blend-mode:overlay" opacity="0.4">
<path d="M66.6894 30.9644C65.797 31.4184 65.008 31.7167 64.0195 31.8779C63.0291 30.2398 61.6212 28.863 59.9712 27.8994L62.4804 24.1526C64.5738 25.8833 66.0797 28.3145 66.6894 30.9644Z" fill="white"/>
</g>
<g style="mix-blend-mode:overlay" opacity="0.4">
<path d="M52.5565 26.5522C53.0092 24.7918 53.6744 22.9554 54.4523 21.3118C56.7527 21.2859 59.0549 21.927 61.0246 23.1167L58.7962 27.3008C56.8044 26.4318 54.7128 26.1964 52.5547 26.5503L52.5565 26.5522Z" fill="white"/>
</g>
<path d="M50.0066 48.2625C50.0066 47.4305 50.6792 46.756 51.5088 46.756H60.982C61.8116 46.756 62.4842 47.4305 62.4842 48.2625C62.4842 48.7888 62.2144 49.252 61.8079 49.5207C62.2163 49.7894 62.4842 50.2527 62.4842 50.7789C62.4842 51.5739 61.8689 52.2243 61.091 52.2799C60.3316 54.1756 58.4821 55.5135 56.3202 55.5135H56.117C53.9533 55.5135 52.1038 54.1737 51.3444 52.2762C50.5905 52.1947 50.0029 51.5554 50.0029 50.7771C50.0029 50.2508 50.2727 49.7876 50.6792 49.5189C50.2708 49.2502 50.0029 48.7869 50.0029 48.2607L50.0066 48.2625Z" fill="url(#paint24_linear_3_172753)"/>
<path opacity="0.5" d="M50.3097 49.8746C52.1094 50.1452 53.9331 50.2804 55.7457 50.3212C57.8909 50.3694 60.11 50.3268 62.257 49.9784C62.1406 49.7968 61.9891 49.6411 61.8098 49.5226C61.965 49.4206 62.0999 49.2891 62.2089 49.1371C60.0952 49.2483 57.9851 49.3854 55.8602 49.3095C53.922 49.2409 52.0022 49.0333 50.0898 48.7535C50.1989 49.0704 50.4095 49.341 50.6848 49.5226C50.5388 49.6171 50.4132 49.7375 50.3097 49.8765V49.8746Z" fill="#8F9D9E"/>
<path opacity="0.5" d="M51.3921 52.3818C51.5676 52.795 51.7949 53.1786 52.0665 53.527C53.2269 53.5863 54.3872 53.5955 55.5457 53.5751C57.229 53.5455 58.927 53.4436 60.6029 53.2138C60.7803 52.947 60.9336 52.6635 61.0593 52.3651C59.2448 52.4837 57.4304 52.5856 55.6049 52.5745C54.1969 52.5652 52.7927 52.4893 51.3921 52.3799V52.3818Z" fill="#8F9D9E"/>
<g style="mix-blend-mode:overlay" opacity="0.3">
<path d="M50.3095 49.8747C50.4129 49.7357 50.5386 49.6171 50.6846 49.5208C50.4093 49.3392 50.1986 49.0705 50.0896 48.7518C50.036 48.5979 50.0083 48.433 50.0083 48.2607C50.0083 47.4287 50.6809 46.7523 51.5123 46.7523H52.1941C52.1295 47.3935 52.1442 48.042 52.2828 48.7054C52.7577 51.2107 54.8992 52.7599 57.2772 53.238C58.3156 53.4733 59.354 53.566 60.3721 53.5308C59.4316 54.7371 57.9682 55.5117 56.3256 55.5117H56.1224C54.4761 55.5117 53.009 54.7334 52.0685 53.5233C51.7969 53.175 51.5696 52.7914 51.3941 52.3782C51.3793 52.343 51.3664 52.3096 51.3516 52.2744C50.5977 52.1929 50.0102 51.5536 50.0102 50.7771C50.0102 50.514 50.0785 50.2657 50.1949 50.0507C50.23 49.9877 50.2688 49.9284 50.3113 49.871L50.3095 49.8747Z" fill="black"/>
</g>
<g style="mix-blend-mode:overlay" opacity="0.5">
<path d="M53.1754 47.2378L61.2721 47.1359C61.2721 47.1359 61.9354 47.399 62.0722 47.8715C62.2089 48.344 62.0574 48.6628 62.0574 48.6628C62.0574 48.6628 54.2988 48.8147 53.4951 48.4645C52.6913 48.1143 52.6747 47.2415 53.1754 47.2359V47.2378Z" fill="white"/>
</g>
<g style="mix-blend-mode:overlay" opacity="0.5">
<path d="M54.9953 50.9921L61.8762 50.5474C61.8762 50.5474 62.0277 50.6548 62.0591 51.0644C62.0868 51.4405 61.854 51.787 61.854 51.787C61.854 51.787 55.9099 52.1651 55.2817 51.9223C54.6535 51.6796 54.6129 51.0125 54.9953 50.9921Z" fill="white"/>
</g>
</g>
<defs>
<linearGradient id="paint0_linear_3_172753" x1="104.179" y1="170.044" x2="107.233" y2="189.647" gradientUnits="userSpaceOnUse">
<stop stop-color="#9EADAE"/>
<stop offset="0.2" stop-color="#A6B5B6"/>
<stop offset="0.54" stop-color="#B0C0C1"/>
</linearGradient>
<linearGradient id="paint1_linear_3_172753" x1="125.439" y1="120.416" x2="97.9648" y2="122.601" gradientUnits="userSpaceOnUse">
<stop offset="0.23" stop-color="#707C7C"/>
<stop offset="0.41" stop-color="#798686"/>
<stop offset="0.71" stop-color="#94A2A2"/>
<stop offset="1" stop-color="#B3C3C4"/>
</linearGradient>
<linearGradient id="paint2_linear_3_172753" x1="11.7925" y1="130.786" x2="63.5065" y2="180.317" gradientUnits="userSpaceOnUse">
<stop stop-color="#454C4C"/>
<stop offset="1" stop-color="#272D2D"/>
</linearGradient>
<linearGradient id="paint3_linear_3_172753" x1="84.5497" y1="178.656" x2="94.5955" y2="85.0664" gradientUnits="userSpaceOnUse">
<stop stop-color="#B3C3C4"/>
<stop offset="0.29" stop-color="#94A2A2"/>
<stop offset="0.59" stop-color="#798686"/>
<stop offset="0.77" stop-color="#707C7C"/>
</linearGradient>
<linearGradient id="paint4_linear_3_172753" x1="100.088" y1="170.8" x2="101.67" y2="106.741" gradientUnits="userSpaceOnUse">
<stop stop-color="#E6EFEF"/>
<stop offset="0.02" stop-color="#E4EDED"/>
<stop offset="0.4" stop-color="#C9D6D6"/>
<stop offset="0.74" stop-color="#B8C7C8"/>
<stop offset="1" stop-color="#B3C3C4"/>
</linearGradient>
<linearGradient id="paint5_linear_3_172753" x1="98.0227" y1="128.173" x2="101.606" y2="105.544" gradientUnits="userSpaceOnUse">
<stop stop-color="#7A8787"/>
<stop offset="1" stop-color="#707C7C"/>
</linearGradient>
<linearGradient id="paint6_linear_3_172753" x1="109.347" y1="65.783" x2="114.749" y2="46.8513" gradientUnits="userSpaceOnUse">
<stop stop-color="#B3C3C4"/>
<stop offset="0.15" stop-color="#BFCDCE"/>
<stop offset="0.57" stop-color="#DBE5E6"/>
<stop offset="0.81" stop-color="#E6EFEF"/>
</linearGradient>
<linearGradient id="paint7_linear_3_172753" x1="109.993" y1="64.3895" x2="112.537" y2="53.6455" gradientUnits="userSpaceOnUse">
<stop stop-color="#454C4C"/>
<stop offset="0.17" stop-color="#4C5454"/>
<stop offset="1" stop-color="#707C7C"/>
</linearGradient>
<linearGradient id="paint8_linear_3_172753" x1="131.715" y1="68.2455" x2="133.054" y2="48.6015" gradientUnits="userSpaceOnUse">
<stop stop-color="#B3C3C4"/>
<stop offset="0.15" stop-color="#BFCDCE"/>
<stop offset="0.57" stop-color="#DBE5E6"/>
<stop offset="0.81" stop-color="#E6EFEF"/>
</linearGradient>
<linearGradient id="paint9_linear_3_172753" x1="131.599" y1="66.7964" x2="132.846" y2="55.8259" gradientUnits="userSpaceOnUse">
<stop stop-color="#454C4C"/>
<stop offset="0.17" stop-color="#4C5454"/>
<stop offset="1" stop-color="#707C7C"/>
</linearGradient>
<linearGradient id="paint10_linear_3_172753" x1="80.2658" y1="68.8641" x2="70.043" y2="72.3858" gradientUnits="userSpaceOnUse">
<stop stop-color="#272D2D"/>
<stop offset="1" stop-color="#454C4C"/>
</linearGradient>
<linearGradient id="paint11_linear_3_172753" x1="80.1801" y1="72.14" x2="63.3944" y2="80.9683" gradientUnits="userSpaceOnUse">
<stop stop-color="#272D2D"/>
<stop offset="1" stop-color="#454C4C"/>
</linearGradient>
<linearGradient id="paint12_linear_3_172753" x1="123.774" y1="56.868" x2="102.065" y2="138.805" gradientUnits="userSpaceOnUse">
<stop stop-color="#B3C3C4"/>
<stop offset="0.29" stop-color="#94A2A2"/>
<stop offset="0.59" stop-color="#798686"/>
<stop offset="0.77" stop-color="#707C7C"/>
</linearGradient>
<linearGradient id="paint13_linear_3_172753" x1="111.842" y1="113.96" x2="115.328" y2="76.5344" gradientUnits="userSpaceOnUse">
<stop stop-color="#B3C3C4"/>
<stop offset="0.26" stop-color="#B8C7C8"/>
<stop offset="0.6" stop-color="#C9D6D6"/>
<stop offset="0.98" stop-color="#E4EDED"/>
<stop offset="1" stop-color="#E6EFEF"/>
</linearGradient>
<linearGradient id="paint14_linear_3_172753" x1="118.678" y1="79.1916" x2="110.582" y2="103.949" gradientUnits="userSpaceOnUse">
<stop stop-color="#454C4C"/>
<stop offset="1" stop-color="#272D2D"/>
</linearGradient>
<linearGradient id="paint15_linear_3_172753" x1="139.655" y1="113.766" x2="140.709" y2="94.6927" gradientUnits="userSpaceOnUse">
<stop stop-color="#B3C3C4"/>
<stop offset="0.48" stop-color="#B8C8C8"/>
<stop offset="1" stop-color="#C6D4D4"/>
</linearGradient>
<linearGradient id="paint16_linear_3_172753" x1="73.9102" y1="159.447" x2="70.153" y2="184.801" gradientUnits="userSpaceOnUse">
<stop stop-color="#9EADAE"/>
<stop offset="0.2" stop-color="#A6B5B6"/>
<stop offset="0.54" stop-color="#B0C0C1"/>
</linearGradient>
<linearGradient id="paint17_linear_3_172753" x1="57.1647" y1="54.3924" x2="55.008" y2="56.4635" gradientUnits="userSpaceOnUse">
<stop stop-color="#454C4C"/>
<stop offset="1" stop-color="#272D2D"/>
</linearGradient>
<linearGradient id="paint18_linear_3_172753" x1="62.3195" y1="28.837" x2="45.04" y2="45.4183" gradientUnits="userSpaceOnUse">
<stop stop-color="#FCE3AC"/>
<stop offset="0.09" stop-color="#FCDFA0"/>
<stop offset="0.5" stop-color="#FCD172"/>
<stop offset="0.82" stop-color="#FCC956"/>
<stop offset="1" stop-color="#FCC64C"/>
</linearGradient>
<linearGradient id="paint19_linear_3_172753" x1="87.0478" y1="19.969" x2="74.4041" y2="16.6827" gradientUnits="userSpaceOnUse">
<stop stop-color="#FCE3AC"/>
<stop offset="0.09" stop-color="#FCDFA0"/>
<stop offset="0.5" stop-color="#FCD172"/>
<stop offset="0.82" stop-color="#FCC956"/>
<stop offset="1" stop-color="#FCC64C"/>
</linearGradient>
<linearGradient id="paint20_linear_3_172753" x1="59.3061" y1="5.88897" x2="55.0342" y2="5.88897" gradientUnits="userSpaceOnUse">
<stop stop-color="#FCE3AC"/>
<stop offset="0.09" stop-color="#FCDFA0"/>
<stop offset="0.5" stop-color="#FCD172"/>
<stop offset="0.82" stop-color="#FCC956"/>
<stop offset="1" stop-color="#FCC64C"/>
</linearGradient>
<linearGradient id="paint21_linear_3_172753" x1="80.4492" y1="46.8824" x2="68.4561" y2="42.9136" gradientUnits="userSpaceOnUse">
<stop stop-color="#FCE3AC"/>
<stop offset="0.09" stop-color="#FCDFA0"/>
<stop offset="0.5" stop-color="#FCD172"/>
<stop offset="0.82" stop-color="#FCC956"/>
<stop offset="1" stop-color="#FCC64C"/>
</linearGradient>
<linearGradient id="paint22_linear_3_172753" x1="38.5471" y1="14.3241" x2="25.5503" y2="14.3241" gradientUnits="userSpaceOnUse">
<stop stop-color="#FCE3AC"/>
<stop offset="0.09" stop-color="#FCDFA0"/>
<stop offset="0.5" stop-color="#FCD172"/>
<stop offset="0.82" stop-color="#FCC956"/>
<stop offset="1" stop-color="#FCC64C"/>
</linearGradient>
<linearGradient id="paint23_linear_3_172753" x1="40.8621" y1="43.6188" x2="30.9972" y2="43.6188" gradientUnits="userSpaceOnUse">
<stop stop-color="#FCE3AC"/>
<stop offset="0.09" stop-color="#FCDFA0"/>
<stop offset="0.5" stop-color="#FCD172"/>
<stop offset="0.82" stop-color="#FCC956"/>
<stop offset="1" stop-color="#FCC64C"/>
</linearGradient>
<linearGradient id="paint24_linear_3_172753" x1="58.7555" y1="47.1729" x2="51.7463" y2="53.8978" gradientUnits="userSpaceOnUse">
<stop stop-color="#E6EFEF"/>
<stop offset="0.02" stop-color="#E4EDED"/>
<stop offset="0.4" stop-color="#C9D6D6"/>
<stop offset="0.74" stop-color="#B8C7C8"/>
<stop offset="1" stop-color="#B3C3C4"/>
</linearGradient>
<clipPath id="clip0_3_172753">
<rect width="167" height="193" fill="white"/>
</clipPath>
</defs>
</svg>
