<svg width="180" height="153" viewBox="0 0 180 153" fill="none" xmlns="http://www.w3.org/2000/svg">
<g clip-path="url(#clip0_3_172672)">
<path d="M92.8729 119.642C91.765 121.848 90.7798 124.134 89.6719 126.342C106.047 138.993 129.381 141.912 148.358 133.689C147.04 133.826 145.721 133.961 144.403 134.099C147.496 132.483 150.586 130.869 153.679 129.253C151.385 129.842 149.09 130.434 146.795 131.023C167.348 118.432 180.977 93.924 179.948 69.8112C175.288 73.4367 169.711 75.7337 163.999 77.2101C158.288 78.6866 152.405 79.3759 146.546 80.0631C147.691 79.2364 148.909 78.2493 150.054 77.4225C141.809 79.1801 133.954 82.7599 127.211 87.8307C128.531 86.2459 129.849 84.6612 131.168 83.0764C123.262 86.2605 117.733 93.3888 112.698 100.28C107.666 107.17 102.399 114.42 94.6895 118.06C94.1304 118.324 93.1493 119.088 92.8708 119.644L92.8729 119.642Z" fill="url(#paint0_linear_3_172672)"/>
<path opacity="0.8" d="M117.899 137.824C114.521 137.393 111.179 136.681 107.921 135.688C106.011 126.577 105.656 117.139 106.874 107.908C108.923 105.45 110.827 102.839 112.7 100.278C113.107 99.7195 113.519 99.1593 113.933 98.6012C113.804 111.737 114.997 125.017 117.899 137.824Z" fill="#E6EFEF"/>
<path opacity="0.8" d="M142.488 135.842C138.659 137.004 134.712 137.749 130.725 138.093C122.721 124.342 118.551 108.355 118.853 92.4392C121.247 89.7257 123.858 87.2559 126.826 85.3442C128.264 103.033 133.708 120.419 142.488 135.844V135.842Z" fill="#E6EFEF"/>
<path opacity="0.8" d="M162.594 117.533C159.973 120.561 157.107 123.36 154.026 125.879C144.681 113.299 137.365 99.2093 132.449 84.3218C134.637 83.0202 136.913 81.8624 139.254 80.8586C144.658 94.5654 152.361 106.973 162.594 117.533Z" fill="#E6EFEF"/>
<path opacity="0.8" d="M175.429 96.1938C174.213 99.3404 172.771 102.404 171.122 105.357C162.035 99.1113 154.959 89.9152 151.343 79.4841C153.744 79.178 156.14 78.8365 158.518 78.4033C162.829 85.4045 168.643 91.5624 175.427 96.1959L175.429 96.1938Z" fill="#E6EFEF"/>
<path opacity="0.8" d="M178.58 85.6441C174.394 83.2472 170.711 79.9631 167.855 76.071C172.193 74.6237 176.344 72.6141 179.946 69.8112C180.173 75.1131 179.69 80.4359 178.582 85.6441H178.58Z" fill="#E6EFEF"/>
<g style="mix-blend-mode:overlay" opacity="0.4">
<path d="M179.957 74.682C178.67 79.0364 176.853 83.2409 174.558 87.1643C172.763 90.3838 170.728 93.4241 168.801 96.6207C167.884 97.9556 166.99 99.1572 165.858 100.18C166.317 98.3554 167.437 96.6499 167.525 94.6236C163.943 100.246 158.2 104.259 152.792 107.924C153.802 106.063 155.905 104.94 156.674 102.899C148.84 107.218 141.659 113.97 132.474 115.19C134.933 113.587 137.261 111.96 139.372 110.023C132.906 112 126.683 115.654 119.67 115.357C121.842 113.838 123.343 111.519 125.057 109.511C121.389 111.036 118.059 113.707 114.091 114.634C116.963 111.471 119.464 108.105 120.85 104.132C119.393 104.688 118.298 106.263 116.514 106.354C117.335 101.735 120.412 98.1992 122.37 94.0572C120.626 94.6986 119.53 96.2729 118.001 97.2267C118.982 93.9989 121.343 91.425 123.091 88.4679C122.883 88.5554 122.675 88.6449 122.47 88.7344C121.202 89.8923 120 91.1397 118.849 92.4433C117.111 94.4091 115.49 96.5041 113.927 98.6074C113.511 99.1655 113.101 99.7257 112.694 100.284C110.823 102.845 108.919 105.457 106.868 107.914C103.407 112.064 99.5263 115.777 94.6832 118.064C94.1241 118.328 93.143 119.093 92.8665 119.646C91.7586 121.854 90.7734 124.14 89.6655 126.346C95.1176 130.559 101.341 133.691 107.915 135.692C111.172 136.685 114.515 137.397 117.893 137.828C122.145 138.372 126.454 138.466 130.719 138.097C134.706 137.753 138.653 137.008 142.482 135.846C144.475 135.242 146.438 134.524 148.352 133.695C147.034 133.832 145.714 133.968 144.396 134.103C147.489 132.487 150.58 130.873 153.671 129.257C151.376 129.846 149.081 130.438 146.787 131.027C149.306 129.484 151.721 127.762 154.018 125.883C157.098 123.364 159.967 120.565 162.586 117.537C165.828 113.791 168.695 109.696 171.114 105.361C172.763 102.41 174.205 99.3446 175.421 96.198C176.751 92.764 177.811 89.2322 178.574 85.6482C179.343 82.0331 179.811 78.3659 179.95 74.6862L179.957 74.682Z" fill="black"/>
</g>
<g style="mix-blend-mode:overlay" opacity="0.4">
<path d="M129.74 88.2868C133.706 84.9694 138.3 82.408 143.203 80.7753C141.532 82.0415 139.861 83.3097 138.19 84.5758C144.687 82.233 151.557 80.9253 158.46 80.717C156.39 81.2001 154.432 82.1477 152.769 83.4742C160.682 82.3996 168.364 79.657 175.172 75.4755C167.495 83.1826 156.893 87.6995 146.032 87.2872C148.007 85.4588 150.148 83.6783 152.53 82.4288C146.254 84.6862 139.778 86.6624 133.502 88.9198C134.824 87.4996 135.83 85.6608 137.152 84.2405C132.675 86.8978 128.597 90.2318 125.097 94.0906C126.57 91.8332 127.674 90.0131 129.74 88.2847V88.2868Z" fill="white"/>
</g>
<path d="M30.9334 30.1715C30.9334 30.1715 30.9334 30.1632 30.9334 30.1611C30.9272 30.1611 30.9272 30.1674 30.9334 30.1715Z" fill="url(#paint1_linear_3_172672)"/>
<path d="M140.33 54.1094C140.33 54.1094 140.328 54.1156 140.326 54.1198C140.334 54.1177 140.337 54.1135 140.33 54.1094Z" fill="url(#paint2_linear_3_172672)"/>
<path d="M119.522 119.215C117.252 119.011 112.856 120.681 108.47 122.716C108.029 121.013 107.539 119.424 107.092 118.018C105.094 111.731 101.979 102.524 99.5239 93.4533C107.252 93.4033 114.976 92.662 122.573 91.2313C130.571 89.7257 137.104 82.9806 142.96 77.3184C142.902 77.3122 142.592 77.131 142.615 77.181C142.309 76.373 142.002 75.5629 141.696 74.7549C135.664 76.5104 129.256 77.9286 123.224 79.6841C113.999 78.1847 104.795 75.3984 96.3249 71.3959L96.3208 71.4063L96.0672 69.9986C96.0111 69.9986 95.9529 70.0027 95.8947 70.0048C95.8988 69.959 95.903 69.9132 95.9072 69.8674C86.9589 59.832 73.7662 59.2801 61.38 58.0952C60.8687 58.7574 60.374 59.4197 59.8918 60.0819L60.0955 60.2152L57.491 65.0298C50.3449 67.837 38.5739 73.3909 31.2324 74.4696C25.2274 72.6225 18.8317 71.7291 12.8267 69.8819C12.5087 70.6858 12.1886 71.4896 11.8706 72.2934C11.8934 72.2455 11.5796 72.4205 11.5234 72.4267C17.2915 78.1785 23.7226 85.0214 31.696 86.6499C36.6908 87.6703 41.7458 88.3888 46.8259 88.8094C43.9554 101.423 44.4958 112.799 44.8055 121.054C41.4424 119.638 38.3578 118.647 36.5785 118.807C31.0641 119.303 24.4854 150.223 24.4854 150.223L26.4559 152.587C26.4559 152.587 38.1333 137.991 39.8564 139.546C41.2657 140.819 56.0132 147.158 61.326 149.419C68.8774 152.635 77.3455 153.38 85.4187 152.139C93.627 150.877 113.677 140.811 116.236 139.957C116.851 139.751 129.636 152.997 129.636 152.997L131.607 150.633C131.607 150.633 125.03 119.713 119.513 119.217L119.522 119.215Z" fill="url(#paint3_linear_3_172672)"/>
<path d="M61.2989 62.1914C55.1173 67.4288 51.6481 75.136 50.692 79.9819C52.174 78.9656 53.3983 77.7869 54.6932 76.5479C51.9475 81.7665 50.0788 89.3196 48.9751 95.138C50.4634 93.1576 51.9641 91.223 53.1738 89.0635C51.7625 98.0347 50.0539 107.91 50.3532 116.981C50.6047 124.603 51.8186 131.04 56.5141 137.783C61.2096 144.526 70.137 150.463 79.1164 150.621C88.0959 150.779 97.1127 145.425 99.9333 136.596C101.679 131.129 100.987 125.357 99.8356 119.926C98.6841 114.494 97.015 109.374 96.3187 103.895C95.7117 105.867 95.1568 107.799 94.4625 109.726C94.0427 105.504 93.4607 101.367 92.5648 97.2205C92.0306 98.547 91.4902 99.8693 90.956 101.194C90.1869 90.7211 88.0896 80.3234 89.5218 69.8174C80.1765 67.0269 70.746 64.5925 61.2948 62.1914H61.2989Z" fill="url(#paint4_linear_3_172672)"/>
<path d="M2.63774 76.021C1.61508 76.0189 1.13077 75.0943 1.82709 74.3113C2.38207 73.6865 3.04929 73.1513 3.75809 72.6953C2.85183 72.8244 1.86035 72.916 1.02061 72.7328C0.241144 72.5641 -0.32007 71.8685 0.205808 71.1168C0.596579 70.5566 1.31576 70.2109 2.0204 69.9589C1.97675 69.9485 1.9331 69.9402 1.88945 69.9298C0.958251 69.6944 0.139294 68.8469 0.794044 67.8848C1.44048 66.9414 2.86846 66.7228 3.91398 66.6686C5.04056 66.6103 6.17546 66.7249 7.28126 66.9456C6.62651 66.4354 5.93851 65.8523 5.51448 65.1672C5.04888 64.4133 5.42302 63.6012 6.28147 63.5658C7.04846 63.5345 7.97758 64.1968 8.5575 64.6299C9.761 65.5295 10.9312 66.502 11.9497 67.6037C12.7604 68.4762 14.6415 70.2151 14.1426 71.5624C13.941 72.108 13.3839 72.3558 12.8996 72.5953C12.2407 72.9202 11.5714 73.2284 10.8938 73.5178C9.57185 74.0822 8.22078 74.5778 6.84684 75.0005C6.09856 75.2317 5.34403 75.4399 4.58536 75.6253C3.96594 75.7773 3.27794 76.021 2.63566 76.0189L2.63774 76.021Z" fill="#272D2D"/>
<path d="M147.834 85.363C148.722 85.8753 149.601 85.3193 149.391 84.2905C149.225 83.4721 148.915 82.6724 148.529 81.9207C149.248 82.4892 150.06 83.066 150.879 83.3305C151.638 83.5762 152.472 83.2555 152.395 82.3413C152.337 81.6604 151.888 81.0002 151.405 80.4275C151.449 80.44 151.491 80.4546 151.534 80.4692C152.457 80.7337 153.592 80.413 153.505 79.251C153.417 78.1098 152.293 77.2018 151.416 76.6291C150.47 76.0127 149.431 75.54 148.364 75.1777C149.185 75.0631 150.073 74.907 150.784 74.5279C151.563 74.1094 151.646 73.2181 150.921 72.7579C150.273 72.3455 149.138 72.4517 148.42 72.535C146.93 72.7079 145.429 72.9619 143.995 73.4034C142.858 73.7512 140.36 74.3093 140.117 75.7254C140.017 76.298 140.376 76.7937 140.674 77.2435C141.081 77.8557 141.505 78.4596 141.946 79.051C142.806 80.2047 143.727 81.3105 144.704 82.3663C145.236 82.9411 145.783 83.5013 146.346 84.0448C146.805 84.4883 147.279 85.0444 147.836 85.3651L147.834 85.363Z" fill="#272D2D"/>
<path d="M26.9364 152.233C26.9884 152.004 26.9634 151.758 26.9281 151.523C26.5436 148.978 25.5687 146.51 24.2883 144.334C23.6959 143.326 22.5381 141.331 21.9832 141.339C21.0644 141.352 20.9709 142.506 21.1455 142.674C20.9148 142.447 20.179 141.685 19.9212 141.502C19.597 141.273 18.9755 141.633 18.8736 142.168C18.7032 143.066 18.9422 143.749 19.2644 144.382C19.2498 144.382 19.2332 144.39 19.2228 144.382C17.8738 143.47 17.8073 145.288 18.142 145.902C19.3912 148.191 22.8354 153.091 25.8555 152.997C26.2692 152.984 26.7057 152.785 26.8782 152.406C26.9031 152.349 26.9239 152.291 26.9364 152.231V152.233Z" fill="#272D2D"/>
<path d="M129.034 152.233C128.982 152.004 129.007 151.758 129.042 151.523C129.426 148.978 130.401 146.51 131.682 144.334C132.274 143.326 133.432 141.331 133.987 141.339C134.906 141.352 134.999 142.506 134.825 142.674C135.055 142.447 135.791 141.685 136.049 141.502C136.373 141.273 136.995 141.633 137.096 142.168C137.267 143.066 137.028 143.749 136.706 144.382C136.72 144.382 136.737 144.39 136.747 144.382C138.096 143.47 138.163 145.288 137.828 145.902C136.579 148.191 133.135 153.091 130.114 152.997C129.701 152.984 129.264 152.785 129.092 152.406C129.067 152.349 129.046 152.291 129.034 152.231V152.233Z" fill="#272D2D"/>
<g style="mix-blend-mode:overlay" opacity="0.2">
<path d="M96.325 71.3938L96.3208 71.4042L96.0672 69.9965C96.0111 69.9965 95.9529 70.0006 95.8947 70.0027C95.8989 69.9569 95.903 69.9111 95.9072 69.8653C86.9589 59.8299 73.7663 59.2781 61.3801 58.0931C60.8687 58.7554 60.374 59.4176 59.8918 60.0798L60.0955 60.2131L57.4911 65.0277C53.5023 66.5937 48.0731 69.0156 42.7769 71.0398C48.2809 74.9007 54.3067 77.8911 60.9976 79.6862C74.9115 83.4388 88.6925 83.0368 103.008 80.0881C106.335 79.4279 109.522 78.5262 112.552 77.3621C106.976 75.8399 101.511 73.8469 96.3208 71.3938H96.325Z" fill="black"/>
</g>
<g style="mix-blend-mode:overlay" opacity="0.3">
<path d="M120.94 138.664C118.229 132.614 117.001 126.113 116.832 119.528C114.502 120.092 111.484 121.317 108.47 122.716C108.03 121.013 107.539 119.424 107.092 118.018C105.095 111.731 101.979 102.525 99.5242 93.4533C107.252 93.4033 114.976 92.662 122.573 91.2313C128.921 90.036 134.347 85.54 139.244 80.9044C125.666 89.2009 110.048 91.0543 95.2507 88.6657C97.7928 97.512 98.4621 106.76 97.7928 116.011C97.5246 119.228 97.3916 122.445 95.92 125.259C93.9142 129.28 91.7732 133.168 88.1607 135.981C83.3446 139.869 77.4581 142.549 71.5716 140.806C61.5384 137.858 54.1781 132.495 49.096 124.453C47.1713 121.442 46.0031 118.428 44.6209 115.417C44.6728 117.422 44.7477 119.307 44.8121 121.05C41.449 119.634 38.3644 118.643 36.5851 118.803C36.2442 118.834 35.8971 118.982 35.55 119.232C35.6144 128.945 33.9786 138.809 29.6967 147.508C29.042 148.818 28.3145 150.063 27.5371 151.267C30.4637 147.712 38.4621 138.278 39.863 139.542C41.2723 140.815 56.0198 147.154 61.3326 149.415C68.884 152.631 77.3521 153.376 85.4253 152.135C93.6336 150.873 113.683 140.806 116.242 139.953C116.857 139.746 129.643 152.993 129.643 152.993L130.838 151.56C126.533 148.18 123.11 143.755 120.94 138.659V138.664Z" fill="black"/>
</g>
<g style="mix-blend-mode:overlay" opacity="0.2">
<path d="M17.9153 71.2397C16.2025 70.8316 14.5023 70.3943 12.8311 69.8799C12.5131 70.6837 12.193 71.4875 11.875 72.2914C11.8978 72.2435 11.584 72.4184 11.5278 72.4246C17.2959 78.1764 23.727 85.0194 31.7004 86.6478C32.9413 86.9019 34.1884 87.1351 35.4355 87.3517C33.6979 86.5562 32.0392 85.5691 30.4948 84.378C25.7328 80.4963 21.1184 76.2751 17.9132 71.2397H17.9153Z" fill="black"/>
</g>
<path d="M86.6079 23.6972L96.9904 8.04956C96.9904 8.04956 101.056 12.7684 101.52 19.8738C101.981 26.9791 97.9507 34.249 97.9507 34.249L86.6079 23.6972Z" fill="url(#paint5_linear_3_172672)"/>
<path d="M89.5659 24.3968L95.7788 15.8942C95.7788 15.8942 97.9384 18.6409 98.0174 22.633C98.0964 26.6251 95.6561 30.5942 95.6561 30.5942L89.568 24.3948L89.5659 24.3968Z" fill="url(#paint6_linear_3_172672)"/>
<path d="M78.0899 18.1412L82.9767 0.000854492C82.9767 0.000854492 76.7534 0.052916 71.1205 4.39068C65.4855 8.73053 62.6919 16.5606 62.6919 16.5606L78.0899 18.1412Z" fill="url(#paint7_linear_3_172672)"/>
<path d="M75.6125 16.3732L77.8906 6.08582C77.8906 6.08582 74.4069 6.27324 71.3597 8.84716C68.3125 11.4211 66.9448 15.8796 66.9448 15.8796L75.6104 16.3732H75.6125Z" fill="url(#paint8_linear_3_172672)"/>
<g style="mix-blend-mode:overlay" opacity="0.4">
<path d="M90.5426 17.7684L86.6079 23.6972L97.9507 34.249C97.9507 34.249 98.9318 32.4768 99.8713 29.83C97.4414 25.3028 94.442 21.1503 90.5426 17.7684Z" fill="black"/>
</g>
<g style="mix-blend-mode:overlay" opacity="0.4">
<path d="M64.5025 12.631C63.2927 14.8738 62.6899 16.5627 62.6899 16.5627L78.088 18.1433L79.7945 11.8105C74.7602 10.4382 69.3081 10.6423 64.5025 12.6331V12.631Z" fill="black"/>
</g>
<path d="M108.042 60.2526C111.038 55.5754 114.035 50.8982 117.03 46.221C120.524 44.8341 123.879 42.6246 126.371 39.8049C126.535 42.1373 126.005 44.5571 124.663 46.4688C123.318 48.3805 121.119 49.7299 118.784 49.8091C116.167 54.5383 112.459 58.5533 107.843 61.3563C107.843 60.9232 108.044 60.6858 108.042 60.2547V60.2526Z" fill="url(#paint9_linear_3_172672)"/>
<path d="M108.389 59.5176C112.523 57.0041 116.66 54.4905 120.794 51.9749C124.735 49.578 130.283 52.8516 134.465 54.7967C130.78 56.3897 126.832 56.8395 122.968 55.7504C118.555 57.052 114.213 58.7991 109.801 60.1007C109.331 60.2402 108.474 60.0007 108.389 59.5155V59.5176Z" fill="url(#paint10_linear_3_172672)"/>
<path d="M114.095 73.7386C114.095 73.7386 85.4919 86.6478 59.753 73.4429C34.014 60.238 24.9868 35.5755 24.9868 35.5755C24.9868 35.5755 32.5466 28.3056 43.3531 22.3893C54.2074 16.446 68.3333 11.8625 81.3556 17.3831C95.1822 23.2431 103.565 38.8241 108.381 52.1227C112.617 63.8136 114.097 73.7407 114.097 73.7407L114.095 73.7386Z" fill="url(#paint11_linear_3_172672)"/>
<path d="M114.095 73.7387C114.095 73.7387 85.4919 86.6478 59.753 73.443C34.014 60.2381 24.9868 35.5755 24.9868 35.5755C24.9868 35.5755 32.5466 28.3056 43.3531 22.3894C45.1531 22.1416 47.1631 21.9437 49.146 21.9146C55.0783 21.8188 58.5536 23.0287 58.5536 23.0287L63.6461 35.361L77.1569 31.4106C77.1569 31.4106 87.7846 35.5943 101.081 46.069C103.835 48.239 106.263 50.2673 108.383 52.1207C112.619 63.8116 114.099 73.7387 114.099 73.7387H114.095Z" fill="url(#paint12_linear_3_172672)"/>
<path d="M62.6775 38.4826L76.9614 34.9757L110.971 55.7941L112.43 61.7561C112.43 61.7561 101.179 62.6662 92.5382 62.6099C84.5482 62.56 74.093 59.3238 74.093 59.3238L59.5721 41.2731L44.5877 41.5959L32.7793 28.2431L36.0905 25.4776C36.0905 25.4776 39.6739 24.4989 46.687 24.3135C53.7001 24.1282 56.924 25.057 56.924 25.057L62.6816 38.4784L62.6775 38.4826Z" fill="url(#paint13_linear_3_172672)"/>
<path d="M93.958 37.6538L81.1187 29.5488L84.037 26.5397L93.958 37.6538Z" fill="#0F1111"/>
<path d="M47.9839 18.691L62.96 21.1524L62.7667 16.9604L47.9839 18.691Z" fill="#0F1111"/>
<path d="M68.751 49.3822C68.751 49.3822 72.3552 42.6954 78.3768 42.9349C84.4005 43.1744 82.773 54.4259 82.773 54.4259C82.773 54.4259 81.5945 46.4771 78.3581 45.0361C75.525 43.7741 68.751 49.3822 68.751 49.3822Z" fill="#0F1111"/>
<path d="M39.6157 36.9C39.6157 36.9 43.22 30.2132 49.2416 30.4527C55.2653 30.6922 53.6378 41.9437 53.6378 41.9437C53.6378 41.9437 52.4592 33.995 49.2229 32.5539C46.3898 31.2919 39.6157 36.9 39.6157 36.9Z" fill="#0F1111"/>
<path d="M57.9424 72.4559C57.9424 72.4559 49.3912 68.9865 36.9613 55.1673C28.3311 45.5734 22.9476 33.4056 20.4596 26.8604C19.3641 23.9783 18.832 22.1874 18.832 22.1874L27.984 26.3627L59.4743 41.3752C61.6402 42.6871 57.9445 72.4559 57.9445 72.4559H57.9424Z" fill="url(#paint14_linear_3_172672)"/>
<path d="M27.9839 26.3627C26.5101 28.2577 23.3216 28.4389 20.4615 26.8625C19.3661 23.9804 18.834 22.1895 18.834 22.1895L27.9859 26.3648L27.9839 26.3627Z" fill="#454C4C"/>
<g style="mix-blend-mode:overlay" opacity="0.2">
<path d="M84.4215 25.1799C83.8977 26.6147 83.3719 28.0475 82.8481 29.4823C82.8668 28.4181 82.8834 27.354 82.9021 26.2899C81.63 27.4831 80.3579 28.6764 79.0859 29.8696C79.5473 28.1578 80.0067 26.446 80.4681 24.7322C78.6639 26.2482 76.8597 27.7622 75.0555 29.2782C75.7144 27.8809 76.3712 26.4815 77.0301 25.0841C75.1116 26.4252 73.1952 27.7642 71.2767 29.1053C72.4885 27.4727 73.6982 25.8401 74.91 24.2074C71.7236 25.9942 68.535 27.7788 65.3486 29.5656C66.9595 27.1416 68.5704 24.7155 70.1813 22.2915C67.6995 23.5139 65.2156 24.7364 62.7337 25.9588C64.38 23.8638 66.0283 21.7688 67.6745 19.676C65.7851 20.1883 63.8957 20.7005 62.0042 21.2128C62.9083 20.434 63.8125 19.6572 64.7146 18.8784C63.2575 19.1429 61.7984 19.4073 60.3413 19.6718C62.7753 18.0058 65.5627 16.8605 68.4644 16.3315C67.0447 17.0146 65.7747 17.6268 64.355 18.312C66.0013 17.9142 67.6454 17.5144 69.2916 17.1166C68.1068 17.8455 66.9241 18.5744 65.7394 19.3011C67.6309 18.4869 69.6304 17.9184 71.6674 17.6143C69.9942 18.9367 68.4955 20.4798 67.2214 22.1895C69.4891 21.2753 71.7589 20.3632 74.0266 19.449C72.7026 21.3086 71.3764 23.1683 70.0524 25.0279C72.6402 23.6535 75.4317 22.3103 78.0196 20.9359C76.9948 22.277 75.9701 23.616 74.9474 24.9571C76.5105 23.8784 78.0715 22.7997 79.6346 21.723C79.196 23.4265 78.3313 25.0175 77.1382 26.3086C79.0775 24.7301 81.0168 23.1537 82.9562 21.5752C82.5862 23.4411 81.8213 25.2299 80.7279 26.7855C81.8254 25.7172 82.9208 24.6489 84.0183 23.5827C83.9476 24.6843 83.5423 25.7817 83.4716 26.8834C83.7938 26.2982 84.2054 25.5443 84.4278 25.1841L84.4215 25.1799Z" fill="white"/>
</g>
<g style="mix-blend-mode:overlay" opacity="0.3">
<path d="M20.3184 24.2532L58.4414 42.1165L62.4156 48.7262L20.3184 24.2532Z" fill="white"/>
</g>
<g style="mix-blend-mode:overlay" opacity="0.2">
<path d="M100.854 72.51C87.2792 74.0531 73.8662 72.4455 61.2846 65.9482C42.5255 56.1544 27.4892 40.9066 19.073 22.2977L18.834 22.1874C18.834 22.1874 19.3661 23.9783 20.4615 26.8604C22.9496 33.4056 28.3331 45.5734 36.9633 55.1673C37.3249 55.5713 37.6845 55.9628 38.04 56.3501C40.9313 59.655 44.363 63.0223 48.3954 66.1752C53.5025 70.3172 56.8864 71.9811 57.7344 72.3642C58.3954 72.7308 59.0689 73.091 59.7527 73.443C85.4917 86.6478 114.095 73.7387 114.095 73.7387C114.095 73.7387 113.893 72.3851 113.426 70.0902C109.322 71.3168 105.111 72.0581 100.854 72.51Z" fill="black"/>
</g>
<path d="M57.1007 66.4562C59.3393 68.3242 61.5863 69.6965 63.4487 69.8215C67.0508 70.0651 69.1252 66.627 70.2373 63.6491C68.7906 63.2576 67.2815 63.0951 65.7081 63.2576C62.5466 63.5637 59.6698 64.7632 57.0986 66.4562H57.1007Z" fill="#E94A23"/>
<path d="M58.4661 58.6012C51.4177 57.6891 46.5352 54.8153 46.5352 54.8153C46.5352 54.8153 51.7939 62.0289 57.1005 66.4563C59.6717 64.7653 62.5485 63.5658 65.71 63.2576C67.2834 63.0952 68.7925 63.2576 70.2392 63.6491C71.0664 61.4354 71.3637 59.4759 71.3637 59.4759C71.3637 59.4759 65.5125 59.5154 58.4641 58.6012H58.4661Z" fill="#991908"/>
<g style="mix-blend-mode:overlay" opacity="0.4">
<path d="M91.4198 110.173C92.0808 115.177 91.1371 120.382 88.7634 124.832C89.044 121.339 88.7883 117.803 88.0089 114.388C86.0176 120.227 84.0242 126.067 82.033 131.904C81.6921 126.683 81.3491 121.46 81.0082 116.24C78.6158 122.422 76.2234 128.605 73.8289 134.788C73.5358 129.903 72.3842 125.071 70.4429 120.579C70.0874 124.944 69.7341 129.307 69.3786 133.672C67.1192 128.486 64.8598 123.301 62.6004 118.116C61.2493 121.054 61.1142 124.534 62.2325 127.57C59.3038 123.282 57.4248 118.282 56.8012 113.126C55.5083 116.677 54.9097 120.479 55.0531 124.257C53.4027 118.972 52.7272 113.382 53.066 107.853C53.4131 110.615 53.8725 113.108 54.2196 115.869C54.6 111.771 55.8222 107.753 57.7865 104.138C57.6576 108.868 58.1814 113.616 59.3412 118.201C59.362 112.999 60.817 107.812 63.5004 103.359C62.9351 110.646 64.4483 118.082 67.8156 124.567C68.6407 118.228 69.4244 112.145 70.2496 105.806C73.3134 111.333 74.9554 117.645 74.97 123.97C76.7326 116.718 78.0816 109.365 79.0024 101.958C81.557 107.418 83.1596 113.324 83.7145 119.33C84.6644 114.107 85.6143 108.886 86.5642 103.664C88.5701 107.643 89.6987 112.066 89.8442 116.523C90.289 114.051 90.975 112.643 91.4198 110.171V110.173Z" fill="white"/>
</g>
</g>
<defs>
<linearGradient id="paint0_linear_3_172672" x1="164.071" y1="91.7792" x2="97.1054" y2="136.436" gradientUnits="userSpaceOnUse">
<stop stop-color="#454C4C"/>
<stop offset="1" stop-color="#272D2D"/>
</linearGradient>
<linearGradient id="paint1_linear_3_172672" x1="30.9334" y1="30.1715" x2="30.9334" y2="30.1591" gradientUnits="userSpaceOnUse">
<stop stop-color="#B3C3C4"/>
<stop offset="0.29" stop-color="#94A2A2"/>
<stop offset="0.59" stop-color="#798686"/>
<stop offset="0.77" stop-color="#707C7C"/>
</linearGradient>
<linearGradient id="paint2_linear_3_172672" x1="140.33" y1="54.1198" x2="140.328" y2="54.1094" gradientUnits="userSpaceOnUse">
<stop stop-color="#B3C3C4"/>
<stop offset="0.29" stop-color="#94A2A2"/>
<stop offset="0.59" stop-color="#798686"/>
<stop offset="0.77" stop-color="#707C7C"/>
</linearGradient>
<linearGradient id="paint3_linear_3_172672" x1="86.3707" y1="160.29" x2="77.8754" y2="81.0639" gradientUnits="userSpaceOnUse">
<stop stop-color="#B3C3C4"/>
<stop offset="0.05" stop-color="#ABBABB"/>
<stop offset="0.26" stop-color="#919F9F"/>
<stop offset="0.47" stop-color="#7E8B8B"/>
<stop offset="0.68" stop-color="#737F7F"/>
<stop offset="0.89" stop-color="#707C7C"/>
</linearGradient>
<linearGradient id="paint4_linear_3_172672" x1="74.2983" y1="64.9548" x2="75.5251" y2="149.157" gradientUnits="userSpaceOnUse">
<stop stop-color="#B3C3C4"/>
<stop offset="0.15" stop-color="#C0CFCF"/>
<stop offset="0.44" stop-color="#D5E0E1"/>
<stop offset="0.72" stop-color="#E1EBEB"/>
<stop offset="1" stop-color="#E6EFEF"/>
</linearGradient>
<linearGradient id="paint5_linear_3_172672" x1="92.3108" y1="29.3724" x2="99.2929" y2="8.3781" gradientUnits="userSpaceOnUse">
<stop stop-color="#B3C3C4"/>
<stop offset="0.15" stop-color="#BFCDCE"/>
<stop offset="0.57" stop-color="#DBE5E6"/>
<stop offset="0.81" stop-color="#E6EFEF"/>
</linearGradient>
<linearGradient id="paint6_linear_3_172672" x1="92.699" y1="27.8506" x2="97.1419" y2="16.2658" gradientUnits="userSpaceOnUse">
<stop stop-color="#454C4C"/>
<stop offset="0.17" stop-color="#4C5454"/>
<stop offset="1" stop-color="#707C7C"/>
</linearGradient>
<linearGradient id="paint7_linear_3_172672" x1="70.127" y1="17.4462" x2="81.3228" y2="-1.63004" gradientUnits="userSpaceOnUse">
<stop stop-color="#B3C3C4"/>
<stop offset="0.15" stop-color="#BFCDCE"/>
<stop offset="0.57" stop-color="#DBE5E6"/>
<stop offset="0.81" stop-color="#E6EFEF"/>
</linearGradient>
<linearGradient id="paint8_linear_3_172672" x1="71.1766" y1="16.42" x2="76.9657" y2="5.44818" gradientUnits="userSpaceOnUse">
<stop stop-color="#454C4C"/>
<stop offset="0.17" stop-color="#4C5454"/>
<stop offset="1" stop-color="#707C7C"/>
</linearGradient>
<linearGradient id="paint9_linear_3_172672" x1="111.603" y1="48.8361" x2="123.208" y2="52.4728" gradientUnits="userSpaceOnUse">
<stop stop-color="#272D2D"/>
<stop offset="1" stop-color="#454C4C"/>
</linearGradient>
<linearGradient id="paint10_linear_3_172672" x1="111.813" y1="52.5436" x2="130.962" y2="61.9399" gradientUnits="userSpaceOnUse">
<stop stop-color="#272D2D"/>
<stop offset="1" stop-color="#454C4C"/>
</linearGradient>
<linearGradient id="paint11_linear_3_172672" x1="84.5209" y1="11.9412" x2="52.7641" y2="101.746" gradientUnits="userSpaceOnUse">
<stop stop-color="#B3C3C4"/>
<stop offset="0.29" stop-color="#94A2A2"/>
<stop offset="0.59" stop-color="#798686"/>
<stop offset="0.77" stop-color="#707C7C"/>
</linearGradient>
<linearGradient id="paint12_linear_3_172672" x1="59.5841" y1="72.5461" x2="80.0417" y2="35.6115" gradientUnits="userSpaceOnUse">
<stop stop-color="#B3C3C4"/>
<stop offset="0.26" stop-color="#B8C7C8"/>
<stop offset="0.6" stop-color="#C9D6D6"/>
<stop offset="0.98" stop-color="#E4EDED"/>
<stop offset="1" stop-color="#E6EFEF"/>
</linearGradient>
<linearGradient id="paint13_linear_3_172672" x1="75.3305" y1="35.3587" x2="68.0312" y2="60.471" gradientUnits="userSpaceOnUse">
<stop stop-color="#454C4C"/>
<stop offset="1" stop-color="#272D2D"/>
</linearGradient>
<linearGradient id="paint14_linear_3_172672" x1="33.8442" y1="54.7298" x2="44.9354" y2="36.3645" gradientUnits="userSpaceOnUse">
<stop stop-color="#B3C3C4"/>
<stop offset="0.48" stop-color="#B8C8C8"/>
<stop offset="1" stop-color="#C6D4D4"/>
</linearGradient>
<clipPath id="clip0_3_172672">
<rect width="180" height="153" fill="white"/>
</clipPath>
</defs>
</svg>
