<svg width="390" height="397" viewBox="0 0 390 397" fill="none" xmlns="http://www.w3.org/2000/svg">
<g clip-path="url(#clip0_1194_212329)">
<path d="M183.838 285.128C193.451 304.502 205.855 326.392 221.054 341.076C229.077 348.829 238.642 356.115 249.233 356.075C257.981 356.041 266.024 350.849 271.861 343.976C277.698 337.103 281.645 328.642 285.533 320.284C282.806 316.898 278.963 313.84 275.084 312.312C272.961 315.366 261.297 329.381 253.046 328.161C249.458 327.631 240.731 301.5 236.511 286.804C223.486 285.466 199.464 281.26 183.846 285.134L183.838 285.128Z" fill="url(#paint0_linear_1194_212329)"/>
<g style="mix-blend-mode:overlay" opacity="0.6">
<path d="M183.838 285.128C193.451 304.502 205.855 326.392 221.054 341.076C229.077 348.829 238.642 356.115 249.233 356.075C257.981 356.041 266.024 350.849 271.861 343.976C277.698 337.103 281.645 328.642 285.533 320.284C282.806 316.898 278.963 313.84 275.084 312.312C272.961 315.366 261.297 329.381 253.046 328.161C249.458 327.631 240.731 301.5 236.511 286.804C223.486 285.466 199.464 281.26 183.846 285.134L183.838 285.128Z" fill="black"/>
</g>
<path d="M274.402 318.079C273.322 316.584 272.554 314.851 272.187 313.145C270.964 307.46 272.547 301.564 274.526 296.252C275.432 293.824 276.416 291.426 277.251 288.974C277.829 287.268 280.101 287.001 281.082 288.509C282.797 291.157 283.461 294.505 282.717 297.582C285.512 295.697 287.071 293.106 288.151 292.912C289.516 292.673 293.05 295.394 292.42 298.062C293.577 297.241 295.464 297.324 296.537 298.263C297.608 299.196 297.933 300.894 297.28 302.156C298.082 301.945 298.93 302.528 299.283 303.287C299.636 304.046 299.592 304.92 299.482 305.748C298.842 310.486 296.029 314.678 292.335 317.592C289.427 319.885 285.817 321.934 282.05 322.173C278.892 322.378 276.204 320.566 274.394 318.073L274.402 318.079Z" fill="url(#paint1_linear_1194_212329)"/>
<g style="mix-blend-mode:overlay" opacity="0.3">
<path d="M285.432 317.098C278.317 317.236 273.92 312.381 271.918 306.334C271.673 308.605 271.706 310.892 272.194 313.144C272.56 314.844 273.329 316.584 274.409 318.078C276.219 320.578 278.907 322.383 282.065 322.178C285.832 321.939 289.441 319.89 292.349 317.597C293.831 316.427 295.163 315.053 296.278 313.525C293.186 315.552 289.609 316.85 285.438 317.097L285.432 317.098Z" fill="black"/>
</g>
<path d="M292.531 297.79C292.52 296.761 292.507 295.718 292.277 294.719C292.046 293.713 291.583 292.739 290.798 292.072C289.729 291.16 288.183 290.956 286.826 291.302C285.469 291.649 284.282 292.495 283.288 293.477C281.289 295.457 279.938 298.087 279.485 300.867C279.382 301.505 279.323 302.164 279.483 302.793C279.642 303.422 280.034 304.02 280.628 304.272C281.574 304.679 282.641 304.134 283.486 303.545C285.693 302.005 287.609 300.057 289.115 297.826C290.136 297.945 291.509 297.813 292.538 297.789L292.531 297.79Z" fill="url(#paint2_linear_1194_212329)"/>
<path d="M297.752 301.752C297.741 300.723 297.728 299.681 297.498 298.682C297.267 297.676 296.804 296.701 296.018 296.035C294.95 295.122 293.404 294.919 292.047 295.265C290.69 295.612 289.502 296.458 288.508 297.44C286.509 299.42 285.159 302.05 284.706 304.83C284.603 305.468 284.544 306.127 284.704 306.756C284.863 307.385 285.255 307.983 285.849 308.235C286.795 308.642 287.862 308.097 288.706 307.508C290.914 305.968 292.829 304.02 294.335 301.789C295.357 301.908 296.729 301.776 297.759 301.752L297.752 301.752Z" fill="url(#paint3_linear_1194_212329)"/>
<path d="M299.104 307.386C299.617 306.144 299.573 303.98 299.377 303.132C299.181 302.284 298.786 301.457 298.129 300.895C297.229 300.129 295.922 299.947 294.781 300.244C293.633 300.535 292.636 301.247 291.797 302.079C290.108 303.752 288.971 305.967 288.587 308.318C288.499 308.858 288.453 309.414 288.585 309.945C288.718 310.476 289.05 310.98 289.552 311.197C290.348 311.543 291.25 311.082 291.959 310.586C293.821 309.289 295.44 307.639 296.71 305.758C297.574 305.858 298.243 307.408 299.112 307.392L299.104 307.386Z" fill="url(#paint4_linear_1194_212329)"/>
<path d="M90.2012 334.064C79.3999 348.471 63.5028 357.8 47.8209 361.052C32.1448 364.297 16.7022 361.849 2.99016 356.238C-10.2794 350.803 -22.5021 342.041 -29.0924 328.481C-35.6893 314.921 -35.687 295.979 -26.4182 281.169C-17.9599 267.649 -3.23946 259.199 4.0144 245.008C9.90794 233.477 9.47616 219.495 3.37244 210.418C-2.73218 201.334 -14.0759 197.361 -25.3222 199.828C-36.5686 202.296 -47.4186 210.92 -54.0106 222.078C-58.1822 229.139 -60.7514 237.663 -59.0052 244.816C-57.2523 251.968 -50.1905 256.814 -43.2139 253.915C-51.4424 252.211 -55.0367 240.339 -51.5188 230.947C-47.9934 221.56 -39.494 214.564 -30.876 211.178C-20.0343 206.921 -6.98325 208.555 -2.79121 218.813C1.07591 228.268 -4.02707 241.001 -10.9906 250.365C-17.9607 259.731 -26.8356 267.443 -33.0638 277.352C-44.5925 295.702 -44.8863 319.213 -36.8355 336.127C-28.7857 353.035 -13.5634 363.96 3.14241 370.149C17.9581 375.638 34.5047 377.767 51.1762 373.899C67.8476 370.031 84.6229 359.763 95.9024 344.253C94.1289 338.243 91.9756 340.081 90.2012 334.064Z" fill="url(#paint5_linear_1194_212329)"/>
<g style="mix-blend-mode:overlay" opacity="0.3">
<path d="M90.2013 334.064C79.4 348.471 63.5029 357.8 47.821 361.052C45.6814 361.498 43.5397 361.829 41.4119 362.064C37.3665 366.87 26.9003 369.815 19.8709 368.741C-6.15371 364.752 -27.4815 351.455 -35.2242 328.153C-39.4533 315.432 -40.197 297.756 -34.0457 283.946C-30.2267 275.381 -20.4335 265.931 -14.7347 258.487C-9.0426 251.044 -4.09234 245.843 -1.43844 236.948C1.18172 228.152 0.250346 218.15 -5.6358 213.314L-6.13648 213.802C-4.74441 215.159 -3.59456 216.82 -2.78542 218.805C1.08171 228.261 -4.02127 240.993 -10.9848 250.358C-17.9549 259.723 -26.8298 267.435 -33.0572 277.351C-44.5858 295.701 -44.8796 319.212 -36.8289 336.126C-28.779 353.034 -13.5567 363.959 3.1491 370.148C17.9648 375.637 34.5114 377.766 51.1829 373.898C67.8543 370.03 84.6296 359.762 95.9091 344.252C94.1356 338.242 91.9823 340.08 90.2079 334.063L90.2013 334.064Z" fill="black"/>
</g>
<path d="M237.77 439.106C237.77 439.106 224.831 365.845 217.021 349.406C207.255 375.632 183.908 399.843 171.799 425.064C187.748 430.345 210.259 439.583 221.909 451.732C227.715 447.467 237.777 439.106 237.777 439.106L237.77 439.106Z" fill="url(#paint6_linear_1194_212329)"/>
<path d="M235.853 307.931C233.967 338.762 224.828 381.296 212.144 401.83C192.026 434.423 151.511 432.019 116.081 414.465C91.597 402.328 74.3032 378.22 77.0428 351.096C77.3326 348.257 79.1108 344.897 81.8472 341.238C82.0018 341.034 82.1497 340.831 82.3051 340.633C83.716 338.794 85.3599 336.883 87.1603 334.931C87.3489 334.729 87.5308 334.528 87.726 334.325C87.9327 334.107 88.1327 333.89 88.3394 333.673C88.5461 333.455 88.7536 333.244 88.9594 333.019C90.0945 331.835 91.276 330.644 92.4973 329.448C92.7763 329.166 93.0628 328.89 93.3493 328.613C93.5044 328.464 93.6596 328.314 93.8147 328.164C94.1003 327.881 94.3934 327.604 94.6856 327.32C95.0083 327.012 95.3367 326.697 95.6659 326.387C96.2455 325.834 96.8327 325.287 97.4189 324.733C100.873 321.491 104.444 318.261 107.856 315.155C108.307 314.748 108.751 314.335 109.196 313.936C111.297 312.01 113.33 310.134 115.214 308.347C115.423 308.149 115.626 307.952 115.829 307.762C116.301 307.304 116.76 306.862 117.213 306.421C117.542 306.106 117.863 305.791 118.172 305.478C118.231 305.415 118.291 305.36 118.344 305.305C118.577 305.077 118.808 304.842 119.033 304.608C120.202 303.426 121.264 302.299 122.205 301.229C145.157 275.249 149.919 258.752 153.324 257.938C179.23 251.747 230.469 255.889 235.136 282.089C236.279 288.531 236.466 297.57 235.833 307.934L235.853 307.931Z" fill="url(#paint7_linear_1194_212329)"/>
<path d="M144.85 350.564C143.597 353.12 142.419 355.68 141.33 358.248C134.304 374.767 139.077 392.492 148.938 402.85C157.203 411.539 170.017 413.964 181.977 409.894C196.595 404.915 206.861 391.34 213.41 375.781C219.386 361.574 223.537 346.502 226.01 331.543C228.668 315.461 225.136 295.29 211.587 289.737C199.11 284.623 185.304 295.587 175.433 306.207C163.796 318.727 152.781 334.445 144.858 350.57L144.85 350.564Z" fill="url(#paint8_linear_1194_212329)"/>
<g style="mix-blend-mode:overlay" opacity="0.3">
<path d="M209.193 378.773C209.502 375.083 209.806 371.401 210.116 367.712C207.098 372.982 204.082 378.259 201.064 383.529C201.732 376.212 202.399 368.887 203.074 361.569C198.793 368.373 194.505 375.172 190.224 381.976C191.777 373.372 193.331 364.775 194.884 356.171C189.511 362.432 184.138 368.7 178.765 374.961C180.781 366.938 182.141 358.801 182.799 350.712C175.39 360.924 167.981 371.135 160.573 381.353C164.909 367.389 168.043 353.127 169.915 338.866C164.826 343.692 159.738 348.524 154.65 353.35C155.514 349.077 156.912 344.853 158.772 340.852C155.804 344 152.838 347.155 149.863 350.304C152.42 343.131 156.091 336.307 160.628 330.302C158.997 333.201 157.698 335.92 156.06 338.82C160.068 335.083 164.077 331.346 168.085 327.61C166.048 331.75 164.005 335.892 161.968 340.032C167.011 333.877 173.065 328.799 179.576 325.258C176.91 336.202 174.244 347.147 171.578 358.091C178.821 348.648 186.064 339.205 193.307 329.762C190.363 341.198 187.425 352.627 184.481 364.063C190.288 353.581 196.979 343.65 204.4 334.474C202.537 345.174 199.723 355.827 196.021 366.193C201.219 358.044 206.409 349.89 211.608 341.741C209.702 350.928 207.803 360.114 205.898 369.308C208.823 363.155 212.478 357.365 216.708 352.181C214.963 361.353 212.325 369.867 209.186 378.774L209.193 378.773Z" fill="white"/>
</g>
<path d="M47.6234 404.929C47.6234 404.929 70.8206 429.722 89.223 424.833C107.632 419.943 118.722 409.456 118.722 409.456L79.8737 359.58C79.8737 359.58 78.5625 364.74 77.4742 372.142C76.0941 381.523 74.7363 393.605 73.0543 393.494C70.0457 393.305 56.7591 386.701 56.7591 386.701L47.6234 404.929Z" fill="url(#paint9_linear_1194_212329)"/>
<g style="mix-blend-mode:overlay" opacity="0.4">
<path d="M235.853 307.931C232.854 307.809 229.24 307.736 225.156 307.727C210.943 307.682 191.056 308.393 171.842 310.185C155.667 311.687 139.972 313.951 128.574 317.186C131.244 328.715 134.168 340.271 137.568 351.355C118.28 352.602 98.9882 349.591 81.8546 341.243C82.0092 341.039 82.1571 340.836 82.3125 340.639C83.7233 338.8 85.3673 336.889 87.1677 334.937C87.3562 334.735 87.5382 334.534 87.7334 334.331C87.9401 334.113 88.1401 333.896 88.3468 333.678C88.5534 333.46 88.7601 333.243 88.9668 333.025C90.1019 331.84 91.2834 330.65 92.5047 329.453C92.7837 329.172 93.0702 328.895 93.3567 328.619C93.5118 328.469 93.667 328.32 93.8221 328.17C94.1077 327.887 94.4008 327.61 94.693 327.326C95.0157 327.018 95.344 326.702 95.6733 326.393C96.2529 325.84 96.8401 325.293 97.4263 324.739C100.881 321.497 104.452 318.267 107.863 315.16C108.314 314.753 108.758 314.341 109.203 313.941C111.304 312.016 113.338 310.14 115.221 308.352C115.43 308.155 115.633 307.958 115.837 307.767C116.308 307.31 116.768 306.868 117.221 306.427C117.549 306.111 117.871 305.797 118.179 305.483C118.238 305.421 118.298 305.366 118.352 305.311C118.583 305.076 118.815 304.848 119.04 304.614C120.209 303.432 121.271 302.305 122.213 301.235C145.165 275.255 149.926 258.758 153.332 257.944C179.238 251.752 230.476 255.895 235.143 282.095C236.287 288.537 236.473 297.576 235.841 307.939L235.853 307.931Z" fill="black"/>
</g>
<path d="M171.095 252.321C150.805 259.568 127.701 269.298 111.389 282.683C102.777 289.749 94.4421 298.405 93.2302 308.976C92.2279 317.708 96.4105 326.354 102.515 332.998C108.613 339.642 116.52 344.603 124.317 349.491C127.985 347.177 131.47 343.714 133.434 340.031C130.667 337.545 118.196 324.22 120.374 316.142C121.322 312.63 168.799 292.171 183.835 289.732C186.699 276.91 173.076 268.371 171.096 252.328L171.095 252.321Z" fill="url(#paint10_linear_1194_212329)"/>
<path d="M147.148 197.372C143.705 213.236 137.852 228.456 132.016 243.594C129.491 247.814 124.82 251.492 119.138 254.086C113.945 256.451 107.901 257.915 101.882 258.067C89.2691 258.374 76.8803 253.363 66.8584 245.651C56.8366 237.939 49.0182 227.664 42.6351 216.726C26.6566 189.328 19.2494 156.109 26.424 125.211C27.4173 120.941 28.7218 116.676 30.4392 112.619C33.5382 105.263 37.9768 98.5799 44.2488 93.77C52.0303 87.7994 62.0919 85.2552 71.8737 85.6235C81.663 85.9975 91.1989 89.1313 99.9364 93.5936C122.161 104.945 139.686 125.287 147.682 149.009C152.881 164.453 150.592 181.516 147.149 197.379L147.148 197.372Z" fill="url(#paint11_linear_1194_212329)"/>
<path d="M135.674 195.62C133.982 208.521 130.318 221.065 126.665 233.547C124.932 237.09 121.445 240.336 117.08 242.786C113.091 245.022 108.364 246.598 103.563 247.121C93.5123 248.206 83.2899 245.036 74.7784 239.553C66.266 234.064 59.3389 226.38 53.5158 218.078C38.9372 197.269 30.8176 171.238 34.4989 146.082C35.0065 142.61 35.7678 139.117 36.8707 135.753C38.8604 129.674 41.9567 124.04 46.6427 119.778C52.4589 114.494 60.3178 111.781 68.1586 111.422C75.9993 111.064 83.8248 112.931 91.0917 115.905C109.592 123.484 124.931 138.549 132.888 156.962C138.063 168.944 137.367 182.727 135.675 195.627L135.674 195.62Z" fill="url(#paint12_linear_1194_212329)"/>
<g style="mix-blend-mode:overlay" opacity="0.8">
<path d="M122.382 139.512C115.202 132.405 106.671 126.674 97.3377 122.848C90.0709 119.874 82.2454 118.007 74.4046 118.365C66.5639 118.723 58.7041 121.43 52.8887 126.72C48.2028 130.983 45.1065 136.616 43.1168 142.696C42.013 146.053 41.2517 149.546 40.7449 153.025C37.0637 178.181 45.1833 204.212 59.7619 225.021C61.1922 227.057 62.686 229.065 64.2578 231.001C60.2813 227.059 56.7352 222.658 53.5149 218.072C38.9362 197.263 30.8167 171.232 34.4979 146.075C35.0056 142.603 35.7735 139.109 36.8697 135.747C38.8594 129.667 41.9557 124.034 46.6417 119.771C52.458 114.487 60.3168 111.774 68.1576 111.416C75.9984 111.057 83.8238 112.925 91.0916 115.905C103.304 120.907 114.143 129.172 122.382 139.512Z" fill="black"/>
</g>
<g style="mix-blend-mode:overlay" opacity="0.2">
<path d="M146.844 146.608C137.689 127.578 122.272 111.581 103.499 101.992C94.7686 97.5355 85.2251 94.3959 75.4358 94.0219C65.6466 93.6479 55.5925 96.1979 47.8109 102.168C41.539 106.978 37.1069 113.661 34.0014 121.017C32.2849 125.081 30.9738 129.347 29.9804 133.617C24.5397 157.046 27.4811 181.82 36.1945 204.366C24.8002 179.668 20.2901 151.588 26.4243 125.211C27.4177 120.941 28.7221 116.676 30.4387 112.613C33.5442 105.256 37.9763 98.5735 44.2482 93.7636C52.0306 87.7997 62.0914 85.2488 71.874 85.6237C81.6624 85.9911 91.1992 89.1315 99.9368 93.5939C121.415 104.566 138.496 123.923 146.838 146.615L146.844 146.608Z" fill="white"/>
</g>
<g style="mix-blend-mode:overlay" opacity="0.2">
<path d="M147.687 148.995C145.192 141.598 141.778 134.536 137.58 127.966C126.01 139.44 119.418 154.632 111.673 169.981C98.5243 196.388 93.1191 222.517 95.0098 250.789C95.1725 253.133 95.4081 255.467 95.7081 257.779C97.7564 258.003 99.814 258.097 101.886 258.046C107.906 257.901 113.95 256.437 119.143 254.065C124.824 251.471 129.496 247.8 132.02 243.573C137.856 228.429 143.709 213.215 147.152 197.352C150.595 181.482 152.891 164.425 147.685 148.982L147.687 148.995Z" fill="black"/>
</g>
<path d="M254.614 175.754C258.278 191.576 264.342 206.726 270.388 221.797C272.974 225.989 277.697 229.613 283.412 232.139C288.638 234.447 294.698 235.836 300.722 235.914C313.337 236.074 325.656 230.918 335.568 223.093C345.48 215.267 353.158 204.897 359.386 193.89C374.98 166.304 381.924 133.01 374.316 102.192C373.266 97.934 371.894 93.6863 370.123 89.6417C366.918 82.3274 362.394 75.6935 356.055 70.9533C348.192 65.0774 338.097 62.6432 328.316 63.1291C318.535 63.6149 309.041 66.8618 300.367 71.4213C278.3 83.0308 261.062 103.572 253.399 127.384C248.415 142.887 250.941 159.92 254.606 175.748L254.614 175.754Z" fill="url(#paint13_linear_1194_212329)"/>
<path d="M266.068 173.875C267.943 186.753 271.785 199.256 275.611 211.692C277.398 215.213 280.931 218.422 285.326 220.822C289.349 223.016 294.096 224.534 298.897 224.995C308.962 225.962 319.139 222.677 327.574 217.092C336.008 211.508 342.831 203.742 348.532 195.369C362.815 174.388 370.577 148.271 366.543 123.157C365.985 119.687 365.175 116.204 364.027 112.862C361.957 106.803 358.782 101.207 354.033 96.9968C348.142 91.7755 340.242 89.1589 332.404 88.893C324.56 88.6281 316.76 90.5809 309.535 93.642C291.142 101.431 276.013 116.676 268.311 135.178C263.304 147.22 264.193 160.991 266.067 173.869L266.068 173.875Z" fill="url(#paint14_linear_1194_212329)"/>
<g style="mix-blend-mode:overlay" opacity="0.8">
<path d="M348.532 195.369C346.872 197.804 345.122 200.184 343.26 202.477C357.429 181.546 365.097 155.536 361.093 130.541C360.535 127.071 359.725 123.587 358.576 120.238C356.506 114.18 353.331 108.584 348.582 104.373C342.691 99.1521 334.797 96.5345 326.953 96.2696C319.109 96.0047 311.31 97.9641 304.084 101.019C292.769 105.814 282.692 113.425 274.823 122.878C283.214 110.005 295.411 99.6186 309.541 93.6345C316.766 90.5733 324.566 88.6205 332.41 88.8855C340.248 89.1513 348.148 91.768 354.039 96.9893C358.788 101.199 361.963 106.796 364.033 112.854C365.182 116.203 365.992 119.687 366.55 123.157C370.577 148.271 362.823 174.394 348.539 195.368L348.532 195.369Z" fill="black"/>
</g>
<g style="mix-blend-mode:overlay" opacity="0.2">
<path d="M371.295 166.607C375.784 148.304 376.388 129.164 371.879 110.902C370.83 106.644 369.457 102.396 367.687 98.3517C364.481 91.0307 359.958 84.4035 353.619 79.6633C345.756 73.7874 335.66 71.3532 325.879 71.839C316.099 72.3248 306.605 75.5717 297.931 80.1379C276.646 91.3365 259.854 110.841 251.816 133.578C252.222 131.496 252.751 129.424 253.406 127.39C261.069 103.578 278.307 83.0366 300.374 71.427C309.049 66.8675 318.542 63.6206 328.322 63.1282C338.103 62.6424 348.199 65.0765 356.061 70.9524C362.4 75.6927 366.93 82.3189 370.13 89.6408C371.906 93.6845 373.272 97.9331 374.322 102.191C379.55 123.373 377.907 145.738 371.295 166.607Z" fill="white"/>
</g>
<g style="mix-blend-mode:overlay" opacity="0.2">
<path d="M328.541 191.382C318.326 156.022 294.743 124.258 262.421 107.571C258.684 113.806 255.639 120.463 253.407 127.396C248.424 142.899 250.95 159.933 254.615 175.761C258.279 191.582 264.343 206.732 270.389 221.804C272.975 225.995 277.698 229.619 283.413 232.146C288.639 234.454 294.699 235.842 300.722 235.92C312.174 236.062 323.384 231.83 332.769 225.194C332.672 213.926 331.686 202.677 328.535 191.389L328.541 191.382Z" fill="black"/>
</g>
<path d="M313.309 196.214C309.706 184.479 304.76 173.041 299.341 162.786C298.096 160.426 296.79 158.109 295.42 155.82C282.036 133.473 253.566 113.043 228.2 105.547C227.946 105.473 225.328 104.676 225.298 104.754C226.539 101.664 226.808 98.1702 225.925 94.9475C224.157 97.7839 221.759 100.211 218.954 102.015C221.203 97.5539 222.359 92.5363 222.287 87.5292C220.182 90.4722 217.486 92.9869 214.41 94.8888C216.877 90.9815 218.679 86.6557 219.721 82.1417C212.491 89.1967 203.744 101.088 191.598 107.271C187.104 109.562 182.256 111.087 177.878 113.592C169.461 118.409 161.187 124.731 154.544 131.781C141.501 145.631 131.526 163.499 124.413 181.06C118.003 196.898 112.464 214.077 112.295 231.347C111.715 289.865 180.829 299.319 225.43 295.521C264.874 292.164 322.929 274.562 318.926 224.441C318.917 224.375 318.914 224.307 318.912 224.24C318.18 215.01 316.17 205.514 313.308 196.207L313.309 196.214Z" fill="url(#paint15_linear_1194_212329)"/>
<g style="mix-blend-mode:overlay" opacity="0.28">
<path d="M257.512 208.228C257.106 208.317 255.369 207.549 254.186 207.086C249.571 205.204 246.284 204.11 241.436 204.388C237.561 204.385 233.271 205.889 229.278 208.247C227.628 209.319 226.275 210.044 225.195 211.187C225.173 211.218 225.149 211.241 225.125 211.265C225.004 211.315 224.876 211.366 224.755 211.423C224.5 211.533 224.238 211.643 223.983 211.752C224.062 211.585 224.134 211.42 224.212 211.253C224.655 210.285 225.111 209.368 225.581 208.505C230.882 198.674 234.808 195.68 237.422 195.048C243.709 193.531 253.426 202.382 255.291 204.685C256.303 205.931 257.073 207.128 257.534 208.239L257.512 208.228Z" fill="black"/>
</g>
<path d="M258.508 207.259C258.479 207.792 258.046 208.284 257.514 208.289C257.107 208.371 255.385 207.717 254.204 207.321C249.613 205.72 246.344 204.8 241.498 205.098C237.629 205.135 233.327 206.505 229.308 208.616C227.649 209.573 226.293 210.225 225.196 211.241C225.172 211.265 225.148 211.289 225.124 211.305C225.007 211.389 224.884 211.433 224.751 211.444C224.558 211.464 224.367 211.401 224.212 211.3C223.982 211.148 223.825 210.885 223.85 210.57C223.871 210.079 224.336 209.826 224.66 209.531C224.974 209.305 225.295 209.086 225.61 208.873C229.408 206.318 233.619 204.33 238.063 203.307C241.026 202.715 244.108 202.595 247.112 202.947C249.907 203.409 252.65 204.223 255.326 205.196C256.136 205.493 256.94 205.797 257.732 206.117C257.746 206.122 257.761 206.133 257.776 206.138C258.229 206.294 258.55 206.772 258.515 207.258L258.508 207.259Z" fill="#B57C3A"/>
<path d="M161.755 163.799C160.825 160.081 165.6 155.677 172.42 153.959C179.239 152.241 185.526 153.863 186.462 157.573C187.391 161.291 181.643 161.807 174.824 163.525C168.004 165.243 162.69 167.509 161.761 163.791L161.755 163.799Z" fill="#985119"/>
<g style="mix-blend-mode:overlay" opacity="0.31">
<path d="M174.817 163.526C167.997 165.244 162.683 167.51 161.755 163.799C161.638 163.34 161.608 162.869 161.666 162.401C161.694 162.756 161.774 163.098 161.9 163.427C163.257 167.012 168.266 164.136 174.843 161.63C180.176 159.599 184.91 158.428 185.775 156.148C186.097 156.579 186.337 157.055 186.462 157.58C187.392 161.298 181.644 161.813 174.818 163.532L174.817 163.526Z" fill="black"/>
</g>
<path d="M298.875 156.619C299.712 152.885 294.83 148.585 287.964 147.028C281.099 145.471 274.859 147.232 274.022 150.966C273.186 154.7 278.947 155.084 285.807 156.649C292.673 158.206 298.039 160.353 298.875 156.619Z" fill="#985119"/>
<g style="mix-blend-mode:overlay" opacity="0.31">
<path d="M285.806 156.649C292.666 158.214 298.038 160.353 298.875 156.619C298.974 156.158 298.998 155.687 298.927 155.215C298.908 155.571 298.84 155.912 298.716 156.247C297.445 159.857 292.368 157.108 285.731 154.748C280.349 152.833 275.59 151.784 274.668 149.516C274.357 149.958 274.132 150.436 274.014 150.96C273.177 154.694 278.939 155.079 285.806 156.642L285.806 156.649Z" fill="black"/>
</g>
<path opacity="0.01" d="M269.549 237.056C271.306 248.669 284.562 256.288 299.17 254.076C313.771 251.865 319.572 240.543 317.816 228.938C316.058 217.325 307.422 209.825 292.82 212.036C278.219 214.247 267.799 225.45 269.556 237.056L269.549 237.056Z" fill="#DEA96F"/>
<path opacity="0.02" d="M269.922 237.019C271.653 248.486 284.747 256.012 299.17 253.832C313.594 251.652 319.346 240.472 317.616 229.005C315.885 217.538 307.322 210.13 292.898 212.31C278.475 214.49 268.191 225.553 269.922 237.019Z" fill="#DEA86F"/>
<path opacity="0.03" d="M270.294 236.982C272.005 248.303 284.938 255.735 299.176 253.58C313.414 251.426 319.125 240.387 317.414 229.067C315.703 217.746 307.22 210.429 292.982 212.584C278.744 214.738 268.583 225.662 270.294 236.982Z" fill="#DFA770"/>
<path opacity="0.04" d="M270.661 236.946C272.352 248.12 285.117 255.46 299.17 253.331C313.23 251.207 318.892 240.31 317.208 229.135C315.517 217.961 307.113 210.735 293.054 212.866C278.994 214.989 268.97 225.773 270.654 236.947L270.661 236.946Z" fill="#DFA670"/>
<path opacity="0.06" d="M271.034 236.909C272.698 247.938 285.301 255.177 299.177 253.085C313.051 250.987 318.678 240.231 317.007 229.203C315.343 218.175 307.012 211.04 293.138 213.139C279.264 215.237 269.362 225.882 271.034 236.909Z" fill="#DFA570"/>
<path opacity="0.07" d="M271.406 236.872C273.052 247.761 285.487 254.902 299.176 252.835C312.872 250.76 318.452 240.153 316.807 229.264C315.161 218.376 306.911 211.339 293.222 213.412C279.527 215.487 269.761 225.984 271.406 236.872Z" fill="#DFA470"/>
<path opacity="0.08" d="M271.779 236.835C273.405 247.578 285.672 254.626 299.183 252.583C312.694 250.541 318.231 240.068 316.613 229.331C314.988 218.589 306.818 211.643 293.307 213.686C279.796 215.728 270.16 226.092 271.779 236.835Z" fill="#E0A371"/>
<path opacity="0.09" d="M272.152 236.792C273.751 247.388 285.857 254.343 299.182 252.325C312.507 250.308 318.004 239.983 316.405 229.386C314.806 218.79 306.709 211.936 293.384 213.953C280.058 215.97 270.546 226.196 272.152 236.792Z" fill="#E0A271"/>
<path opacity="0.1" d="M272.525 236.755C274.104 247.205 286.042 254.067 299.189 252.08C312.336 250.094 317.791 239.903 316.212 229.453C314.632 219.003 306.616 212.246 293.469 214.233C280.322 216.219 270.945 226.304 272.525 236.755Z" fill="#E0A171"/>
<path opacity="0.11" d="M272.897 236.718C274.457 247.021 286.227 253.791 299.189 251.83C312.15 249.868 317.564 239.826 316.005 229.522C314.445 219.218 306.509 212.553 293.547 214.507C280.585 216.468 271.338 226.414 272.891 236.719L272.897 236.718Z" fill="#E0A071"/>
<path opacity="0.12" d="M273.264 236.682C274.798 246.846 286.406 253.516 299.189 251.579C311.972 249.649 317.337 239.741 315.804 229.583C314.27 219.419 306.415 212.85 293.631 214.781C280.847 216.711 271.73 226.517 273.264 236.682Z" fill="#E09F71"/>
<path opacity="0.13" d="M273.637 236.644C275.151 246.663 286.591 253.24 299.189 251.335C311.788 249.429 317.118 239.669 315.604 229.651C314.09 219.633 306.315 213.155 293.71 215.061C281.112 216.967 272.124 226.633 273.638 236.651L273.637 236.644Z" fill="#E19E72"/>
<path opacity="0.14" d="M274.009 236.608C275.503 246.479 286.775 252.957 299.195 251.083C311.614 249.202 316.897 239.584 315.403 229.712C313.908 219.84 306.212 213.454 293.792 215.328C281.373 217.209 272.514 226.729 274.008 236.601L274.009 236.608Z" fill="#E19D72"/>
<path opacity="0.16" d="M274.382 236.57C275.85 246.297 286.96 252.681 299.195 250.832C311.429 248.983 316.67 239.506 315.203 229.78C313.735 220.054 306.112 213.759 293.878 215.608C281.643 217.457 272.914 226.844 274.382 236.57Z" fill="#E19C72"/>
<path opacity="0.17" d="M274.755 236.533C276.203 246.113 287.146 252.405 299.201 250.581C311.257 248.756 316.45 239.421 315.002 229.841C313.554 220.261 306.011 214.057 293.956 215.882C281.9 217.707 273.307 226.954 274.755 236.533Z" fill="#E19B72"/>
<path opacity="0.18" d="M275.127 236.49C276.556 245.93 287.33 252.123 299.201 250.33C311.072 248.537 316.23 239.342 314.801 229.902C313.372 220.462 305.91 214.356 294.039 216.149C282.168 217.942 273.698 227.05 275.127 236.49Z" fill="#E29A73"/>
<path opacity="0.19" d="M275.5 236.453C276.903 245.747 287.516 251.847 299.208 250.078C310.9 248.309 316.01 239.264 314.608 229.969C313.205 220.675 305.816 214.66 294.124 216.429C282.432 218.198 274.099 227.165 275.5 236.453Z" fill="#E29973"/>
<path opacity="0.2" d="M275.873 236.416C277.256 245.564 287.708 251.57 299.214 249.826C310.721 248.089 315.789 239.178 314.407 230.03C313.025 220.882 305.715 214.958 294.209 216.702C282.701 218.439 274.491 227.268 275.873 236.416Z" fill="#E29873"/>
<path opacity="0.21" d="M276.239 236.38C277.602 245.381 287.886 251.295 299.207 249.583C310.529 247.871 315.556 239.108 314.2 230.099C312.837 221.098 305.608 215.265 294.286 216.976C282.964 218.688 274.883 227.377 276.246 236.379L276.239 236.38Z" fill="#E29773"/>
<path opacity="0.22" d="M276.613 236.343C277.949 245.199 288.071 251.012 299.215 249.331C310.357 247.644 315.343 239.022 314 230.167C312.664 221.311 305.508 215.57 294.365 217.257C283.222 218.945 275.277 227.487 276.613 236.349L276.613 236.343Z" fill="#E29673"/>
<path opacity="0.23" d="M276.986 236.306C278.303 245.022 288.256 250.736 299.214 249.081C310.173 247.425 315.117 238.944 313.8 230.228C312.482 221.512 305.407 215.868 294.449 217.524C283.49 219.18 275.668 227.589 276.985 236.299L276.986 236.306Z" fill="#E39574"/>
<path opacity="0.24" d="M277.358 236.269C278.655 244.838 288.441 250.46 299.22 248.829C309.999 247.197 314.895 238.859 313.598 230.289C312.301 221.72 305.305 216.167 294.526 217.798C283.746 219.43 276.06 227.692 277.357 236.262L277.358 236.269Z" fill="#E39474"/>
<path opacity="0.26" d="M277.731 236.232C279.002 244.656 288.626 250.184 299.221 248.585C309.815 246.985 314.67 238.788 313.399 230.364C312.128 221.939 305.206 216.478 294.612 218.085C284.017 219.684 276.461 227.814 277.732 236.238L277.731 236.232Z" fill="#E39374"/>
<path opacity="0.27" d="M278.103 236.188C279.354 244.466 288.811 249.902 299.227 248.326C309.642 246.751 314.455 238.695 313.204 230.417C311.953 222.14 305.111 216.769 294.701 218.344C284.286 219.919 276.859 227.909 278.11 236.187L278.103 236.188Z" fill="#E39274"/>
<path opacity="0.28" d="M278.476 236.151C279.707 244.282 288.996 249.626 299.226 248.075C309.456 246.525 314.228 238.617 312.996 230.479C311.765 222.348 305.002 217.069 294.772 218.619C284.542 220.169 277.244 228.013 278.469 236.152L278.476 236.151Z" fill="#E49175"/>
<path opacity="0.29" d="M278.842 236.115C280.047 244.107 289.174 249.351 299.226 247.831C309.278 246.312 314.001 238.54 312.797 230.554C311.591 222.562 304.903 217.381 294.858 218.906C284.806 220.425 277.638 228.136 278.849 236.121L278.842 236.115Z" fill="#E49075"/>
<path opacity="0.3" d="M279.215 236.078C280.4 243.924 289.36 249.075 299.226 247.581C309.093 246.087 313.775 238.462 312.589 230.616C311.404 222.77 304.802 217.686 294.928 219.174C285.062 220.668 278.023 228.233 279.208 236.079L279.215 236.078Z" fill="#E49075"/>
<path opacity="0.31" d="M279.588 236.041C280.754 243.74 289.544 248.792 299.233 247.329C308.921 245.866 313.561 238.376 312.395 230.676C311.23 222.977 304.708 217.983 295.019 219.446C285.331 220.91 278.429 228.34 279.588 236.041Z" fill="#E48F75"/>
<path opacity="0.32" d="M279.961 236.004C281.1 243.558 289.729 248.516 299.233 247.078C308.736 245.64 313.335 238.298 312.194 230.737C311.055 223.183 304.607 218.282 295.104 219.72C285.601 221.158 278.821 228.443 279.968 236.003L279.961 236.004Z" fill="#E48E75"/>
<path opacity="0.33" d="M280.334 235.967C281.454 243.374 289.915 248.24 299.24 246.833C308.559 245.427 313.115 238.219 311.996 230.812C310.876 223.404 304.508 218.593 295.183 220.001C285.864 221.407 279.215 228.559 280.334 235.967Z" fill="#E58D76"/>
<path opacity="0.34" d="M280.706 235.93C281.807 243.197 290.1 247.964 299.239 246.582C308.379 245.2 312.888 238.141 311.794 230.873C310.694 223.605 304.406 218.892 295.266 220.274C286.127 221.656 279.607 228.669 280.706 235.93Z" fill="#E58C76"/>
<path opacity="0.36" d="M281.08 235.893C282.154 243.015 290.286 247.688 299.246 246.33C308.2 244.974 312.674 238.055 311.594 230.934C310.52 223.812 304.305 219.19 295.344 220.541C286.39 221.898 279.999 228.765 281.072 235.887L281.08 235.893Z" fill="#E58B76"/>
<path opacity="0.37" d="M281.445 235.85C282.499 242.825 290.469 247.405 299.239 246.08C308.014 244.755 312.44 237.978 311.386 231.003C310.332 224.027 304.197 219.496 295.422 220.822C286.646 222.148 280.392 228.881 281.446 235.856L281.445 235.85Z" fill="#E58A76"/>
<path opacity="0.38" d="M281.818 235.813C282.852 242.642 290.655 247.129 299.245 245.829C307.835 244.528 312.22 237.893 311.192 231.063C310.158 224.234 304.103 219.794 295.512 221.095C286.922 222.395 280.79 228.983 281.824 235.812L281.818 235.813Z" fill="#E68977"/>
<path opacity="0.39" d="M282.191 235.776C283.199 242.459 290.84 246.847 299.246 245.578C307.658 244.308 312.001 237.814 310.986 231.125C309.978 224.441 303.996 220.093 295.584 221.363C287.171 222.633 281.176 229.086 282.184 235.77L282.191 235.776Z" fill="#E68877"/>
<path opacity="0.4" d="M282.564 235.739C283.553 242.283 291.025 246.571 299.251 245.326C307.478 244.082 311.779 237.729 310.792 231.192C309.803 224.648 303.902 220.398 295.675 221.642C287.448 222.887 281.575 229.195 282.564 235.739Z" fill="#E68777"/>
<path opacity="0.41" d="M282.937 235.702C283.906 242.099 291.21 246.295 299.252 245.082C307.3 243.862 311.554 237.658 310.585 231.261C309.616 224.863 303.795 220.704 295.754 221.923C287.706 223.143 281.969 229.311 282.938 235.708L282.937 235.702Z" fill="#E68677"/>
<path opacity="0.42" d="M283.31 235.665C284.252 241.917 291.395 246.019 299.259 244.831C307.122 243.642 311.333 237.573 310.391 231.321C309.449 225.069 303.7 221.001 295.837 222.19C287.974 223.378 282.367 229.413 283.309 235.658L283.31 235.665Z" fill="#E68577"/>
<path opacity="0.43" d="M283.683 235.628C284.605 241.733 291.581 245.743 299.259 244.58C306.936 243.416 311.114 237.494 310.191 231.389C309.269 225.283 303.6 221.306 295.922 222.47C288.245 223.633 282.76 229.523 283.683 235.628Z" fill="#E78478"/>
<path opacity="0.44" d="M284.055 235.591C284.958 241.55 291.765 245.467 299.265 244.335C306.765 243.202 310.893 237.415 309.99 231.456C309.088 225.498 303.499 221.611 296 222.751C288.501 223.883 283.153 229.639 284.056 235.597L284.055 235.591Z" fill="#E78378"/>
<path opacity="0.46" d="M284.421 235.548C285.298 241.368 291.944 245.185 299.258 244.078C306.572 242.971 310.66 237.332 309.783 231.512C308.906 225.692 303.391 221.904 296.077 223.011C288.763 224.119 283.544 229.728 284.421 235.548Z" fill="#E78278"/>
<path opacity="0.47" d="M284.793 235.511C285.651 241.184 292.128 244.903 299.264 243.826C306.4 242.75 310.438 237.246 309.582 231.58C308.725 225.906 303.29 222.209 296.161 223.291C289.025 224.368 283.937 229.844 284.794 235.518L284.793 235.511Z" fill="#E78178"/>
<path opacity="0.48" d="M285.167 235.474C286.004 241.001 292.314 244.627 299.264 243.575C306.214 242.524 310.219 237.168 309.382 231.641C308.544 226.114 303.189 222.508 296.239 223.559C289.288 224.61 284.329 229.94 285.159 235.468L285.167 235.474Z" fill="#E88079"/>
<path opacity="0.49" d="M285.539 235.437C286.35 240.818 292.498 244.351 299.271 243.33C306.042 242.304 309.999 237.089 309.188 231.708C308.377 226.326 303.103 222.818 296.33 223.838C289.559 224.865 284.729 230.055 285.546 235.436L285.539 235.437Z" fill="#E87F79"/>
<path opacity="0.5" d="M285.912 235.4C286.703 240.635 292.684 244.075 299.27 243.08C305.857 242.085 309.772 237.011 308.98 231.77C308.189 226.535 302.995 223.117 296.401 224.113C289.814 225.108 285.115 230.166 285.906 235.401L285.912 235.4Z" fill="#E87E79"/>
<path opacity="0.51" d="M286.285 235.363C287.057 240.458 292.869 243.799 299.277 242.828C305.685 241.857 309.551 236.926 308.787 231.837C308.015 226.741 302.901 223.422 296.492 224.386C290.084 225.356 285.52 230.267 286.285 235.363Z" fill="#E87D79"/>
<path opacity="0.52" d="M286.659 235.326C287.404 240.276 293.055 243.523 299.277 242.577C305.5 241.638 309.332 236.848 308.58 231.899C307.834 226.949 302.794 223.721 296.57 224.66C290.347 225.599 285.906 230.377 286.658 235.319L286.659 235.326Z" fill="#E87C79"/>
<path opacity="0.53" d="M287.025 235.29C287.75 240.093 293.233 243.248 299.278 242.333C305.322 241.418 309.105 236.77 308.38 231.966C307.654 227.163 302.693 224.026 296.649 224.94C290.604 225.855 286.299 230.486 287.025 235.29Z" fill="#E97B7A"/>
<path opacity="0.54" d="M287.397 235.246C288.103 239.903 293.424 242.964 299.283 242.075C305.143 241.192 308.884 236.684 308.179 232.028C307.473 227.371 302.592 224.324 296.732 225.207C290.873 226.09 286.691 230.589 287.397 235.246Z" fill="#E97A7A"/>
<path opacity="0.56" d="M287.77 235.209C288.449 239.72 293.608 242.681 299.283 241.824C304.957 240.966 308.657 236.6 307.978 232.089C307.298 227.577 302.491 224.623 296.81 225.481C291.136 226.339 287.083 230.692 287.763 235.21L287.77 235.209Z" fill="#E9797A"/>
<path opacity="0.57" d="M288.142 235.172C288.803 239.544 293.793 242.406 299.29 241.579C304.785 240.745 308.444 236.527 307.784 232.156C307.124 227.784 302.397 224.927 296.901 225.761C291.406 226.594 287.489 230.807 288.149 235.171L288.142 235.172Z" fill="#E9787A"/>
<path opacity="0.58" d="M288.515 235.135C289.156 239.36 293.979 242.13 299.289 241.328C304.6 240.526 308.217 236.443 307.577 232.224C306.937 227.999 302.29 225.233 296.979 226.035C291.668 226.836 287.875 230.91 288.515 235.135Z" fill="#EA777B"/>
<path opacity="0.59" d="M288.888 235.098C289.502 239.177 294.164 241.854 299.296 241.076C304.427 240.299 307.997 236.364 307.383 232.285C306.769 228.205 302.195 225.531 297.063 226.308C291.932 227.085 288.274 231.019 288.888 235.098Z" fill="#EA767B"/>
<path opacity="0.6" d="M289.261 235.061C289.855 238.994 294.349 241.578 299.296 240.826C304.243 240.08 307.77 236.28 307.176 232.347C306.581 228.414 302.087 225.83 297.141 226.582C292.194 227.328 288.667 231.128 289.261 235.061Z" fill="#EA757B"/>
<g style="mix-blend-mode:overlay" opacity="0.31">
<path d="M287.547 227.327C301.246 225.29 310.235 209.388 307.624 191.808C305.012 174.229 291.789 161.629 278.089 163.666C264.389 165.703 255.4 181.605 258.012 199.184C260.624 216.764 273.847 229.363 287.547 227.327Z" fill="black"/>
</g>
<path d="M285.09 224.479C297.388 222.66 305.483 208.5 303.169 192.853C300.856 177.206 289.011 165.997 276.712 167.817C264.414 169.637 256.32 183.796 258.633 199.443C260.947 215.09 272.792 226.299 285.09 224.479Z" fill="#C5D5D5"/>
<path d="M285.042 224.432C297.319 222.615 305.399 208.482 303.09 192.865C300.781 177.247 288.957 166.059 276.681 167.876C264.404 169.692 256.324 183.825 258.633 199.443C260.942 215.06 272.766 226.248 285.042 224.432Z" fill="#C6D6D6"/>
<path d="M284.994 224.378C297.245 222.565 305.308 208.462 303.004 192.878C300.7 177.293 288.901 166.129 276.65 167.941C264.399 169.754 256.336 183.857 258.64 199.442C260.944 215.026 272.743 226.191 284.994 224.378Z" fill="#C7D6D6"/>
<path d="M284.946 224.331C297.175 222.521 305.224 208.444 302.925 192.889C300.625 177.334 288.847 166.191 276.618 168.001C264.389 169.81 256.34 183.887 258.64 199.442C260.94 214.997 272.718 226.14 284.946 224.331Z" fill="#C8D7D7"/>
<path d="M284.899 224.283C297.102 222.478 305.134 208.428 302.839 192.902C300.543 177.376 288.79 166.254 276.586 168.06C264.383 169.865 256.351 183.915 258.647 199.441C260.942 214.967 272.696 226.089 284.899 224.283Z" fill="#C9D8D8"/>
<path d="M284.845 224.237C297.026 222.435 305.044 208.411 302.752 192.915C300.461 177.419 288.729 166.317 276.548 168.12C264.366 169.922 256.349 183.946 258.64 199.442C260.931 214.938 272.663 226.04 284.845 224.237Z" fill="#CAD8D8"/>
<path d="M284.797 224.19C296.956 222.39 304.96 208.393 302.673 192.926C300.386 177.459 288.675 166.379 276.516 168.179C264.356 169.978 256.353 183.975 258.64 199.442C260.927 214.909 272.638 225.989 284.797 224.19Z" fill="#CBD9D9"/>
<path d="M284.749 224.136C296.883 222.34 304.869 208.37 302.586 192.933C300.304 177.495 288.617 166.436 276.483 168.231C264.349 170.026 256.363 183.997 258.645 199.434C260.928 214.872 272.615 225.931 284.749 224.136Z" fill="#CCDADA"/>
<path d="M284.702 224.095C296.814 222.303 304.786 208.359 302.508 192.951C300.23 177.543 288.564 166.505 276.452 168.297C264.34 170.089 256.368 184.033 258.646 199.441C260.925 214.849 272.59 225.887 284.702 224.095Z" fill="#CDDBDB"/>
<path d="M284.654 224.041C296.74 222.253 304.695 208.336 302.421 192.957C300.147 177.578 288.506 166.561 276.42 168.349C264.333 170.137 256.378 184.054 258.652 199.433C260.926 214.812 272.567 225.829 284.654 224.041Z" fill="#CEDBDB"/>
<path d="M284.598 223.988C296.663 222.203 304.604 208.316 302.335 192.97C300.066 177.624 288.446 166.631 276.382 168.416C264.317 170.201 256.376 184.088 258.645 199.434C260.914 214.78 272.534 225.773 284.598 223.988Z" fill="#CFDCDC"/>
<path d="M284.551 223.941C296.593 222.159 304.52 208.298 302.255 192.982C299.991 177.665 288.392 166.693 276.35 168.475C264.307 170.257 256.381 184.118 258.645 199.434C260.91 214.751 272.508 225.723 284.551 223.941Z" fill="#CFDDDD"/>
<path d="M284.503 223.894C296.52 222.116 304.43 208.281 302.169 192.994C299.909 177.707 288.335 166.756 276.318 168.534C264.301 170.312 256.392 184.146 258.652 199.433C260.912 214.72 272.486 225.672 284.503 223.894Z" fill="#D0DDDD"/>
<path d="M284.456 223.846C296.451 222.072 304.346 208.264 302.09 193.006C299.834 177.748 288.281 166.818 276.286 168.593C264.291 170.368 256.396 184.176 258.652 199.433C260.908 214.691 272.461 225.621 284.456 223.846Z" fill="#D1DEDE"/>
<path d="M284.408 223.799C296.378 222.028 304.256 208.247 302.004 193.019C299.753 177.79 288.224 166.881 276.255 168.652C264.285 170.423 256.407 184.204 258.659 199.432C260.91 214.661 272.439 225.57 284.408 223.799Z" fill="#D2DFDF"/>
<path d="M284.361 223.752C296.308 221.984 304.172 208.23 301.925 193.03C299.677 177.831 288.17 166.943 276.223 168.711C264.275 170.479 256.412 184.233 258.659 199.432C260.906 214.631 272.413 225.52 284.361 223.752Z" fill="#D3DFDF"/>
<path d="M284.306 223.705C296.232 221.941 304.081 208.213 301.838 193.043C299.596 177.874 288.11 167.006 276.184 168.771C264.258 170.536 256.409 184.264 258.652 199.433C260.895 214.603 272.381 225.47 284.306 223.705Z" fill="#D4E0E0"/>
<path d="M284.259 223.658C296.159 221.897 303.991 208.196 301.753 193.056C299.514 177.916 288.052 167.069 276.152 168.83C264.252 170.591 256.42 184.292 258.659 199.432C260.897 214.573 272.359 225.419 284.259 223.658Z" fill="#D5E1E1"/>
<path d="M284.211 223.611C296.089 221.853 303.907 208.179 301.673 193.068C299.439 177.957 287.999 167.132 276.121 168.889C264.242 170.647 256.424 184.321 258.659 199.432C260.893 214.543 272.333 225.369 284.211 223.611Z" fill="#D6E1E1"/>
<path d="M284.163 223.557C296.015 221.803 303.817 208.159 301.587 193.081C299.358 178.003 287.942 167.201 276.09 168.955C264.237 170.709 256.436 184.353 258.665 199.431C260.895 214.509 272.31 225.311 284.163 223.557Z" fill="#D7E2E2"/>
<path d="M284.115 223.51C295.946 221.759 303.733 208.141 301.508 193.092C299.283 178.044 287.889 167.263 276.058 169.014C264.227 170.764 256.44 184.383 258.665 199.431C260.89 214.48 272.285 225.26 284.115 223.51Z" fill="#D8E3E3"/>
<path d="M284.06 223.457C295.865 221.71 303.635 208.118 301.414 193.099C299.194 178.08 287.824 167.321 276.019 169.067C264.213 170.814 256.444 184.405 258.664 199.425C260.885 214.444 272.255 225.203 284.06 223.457Z" fill="#D9E3E3"/>
<path d="M284.013 223.416C295.797 221.673 303.552 208.108 301.336 193.118C299.119 178.128 287.771 167.389 275.988 169.133C264.204 170.876 256.449 184.441 258.665 199.431C260.882 214.421 272.23 225.16 284.013 223.416Z" fill="#DAE4E4"/>
<path d="M283.965 223.362C295.726 221.622 303.467 208.083 301.255 193.123C299.043 178.162 287.716 167.445 275.955 169.185C264.194 170.925 256.452 184.464 258.664 199.425C260.876 214.385 272.204 225.102 283.965 223.362Z" fill="#DBE5E5"/>
<path d="M283.917 223.315C295.653 221.578 303.377 208.067 301.169 193.135C298.962 178.204 287.659 167.508 275.923 169.244C264.187 170.981 256.463 184.493 258.671 199.424C260.879 214.355 272.182 225.051 283.917 223.315Z" fill="#DCE6E6"/>
<path d="M283.87 223.268C295.584 221.534 303.293 208.049 301.09 193.147C298.887 178.245 287.605 167.57 275.891 169.303C264.177 171.037 256.468 184.522 258.671 199.424C260.874 214.325 272.156 225.001 283.87 223.268Z" fill="#DDE6E6"/>
<path d="M283.816 223.221C295.504 221.492 303.196 208.033 300.997 193.161C298.798 178.289 287.541 167.634 275.853 169.363C264.165 171.093 256.472 184.551 258.671 199.424C260.87 214.296 272.128 224.951 283.816 223.221Z" fill="#DEE7E7"/>
<path d="M283.769 223.181C295.435 221.454 303.114 208.022 300.919 193.179C298.724 178.336 287.488 167.703 275.822 169.429C264.156 171.155 256.477 184.587 258.672 199.43C260.866 214.273 272.103 224.907 283.769 223.181Z" fill="#DFE8E8"/>
<path d="M283.72 223.127C295.365 221.404 303.029 208.001 300.84 193.191C298.65 178.381 287.435 167.772 275.791 169.495C264.147 171.218 256.482 184.62 258.672 199.43C260.861 214.24 272.076 224.85 283.72 223.127Z" fill="#E0E8E8"/>
<path d="M283.673 223.079C295.292 221.36 302.939 207.984 300.754 193.204C298.568 178.423 287.378 167.835 275.759 169.554C264.141 171.273 256.493 184.649 258.679 199.429C260.864 214.21 272.054 224.798 283.673 223.079Z" fill="#E1E9E9"/>
<path d="M283.625 223.032C295.222 221.316 302.855 207.967 300.674 193.215C298.493 178.464 287.324 167.897 275.727 169.613C264.131 171.329 256.498 184.678 258.679 199.429C260.86 214.181 272.029 224.748 283.625 223.032Z" fill="#E2EAEA"/>
<path d="M283.578 222.985C295.149 221.273 302.765 207.95 300.588 193.228C298.412 178.506 287.267 167.96 275.696 169.672C264.124 171.384 256.509 184.706 258.685 199.428C260.862 214.15 272.007 224.697 283.578 222.985Z" fill="#E2EAEA"/>
<path d="M283.524 222.938C295.073 221.23 302.675 207.934 300.502 193.241C298.33 178.548 287.206 168.023 275.657 169.732C264.108 171.441 256.506 184.737 258.678 199.429C260.851 214.122 271.974 224.647 283.524 222.938Z" fill="#E3EBEB"/>
<path d="M283.476 222.891C295.003 221.186 302.591 207.916 300.423 193.253C298.255 178.59 287.152 168.085 275.625 169.791C264.098 171.497 256.51 184.766 258.678 199.429C260.846 214.093 271.949 224.597 283.476 222.891Z" fill="#E4ECEC"/>
<path d="M283.429 222.844C294.93 221.142 302.501 207.899 300.337 193.265C298.173 178.632 287.095 168.148 275.593 169.85C264.092 171.552 256.522 184.794 258.685 199.428C260.849 214.062 271.927 224.546 283.429 222.844Z" fill="#E5ECEC"/>
<path d="M283.38 222.79C294.86 221.091 302.416 207.875 300.256 193.271C298.097 178.666 287.04 168.204 275.561 169.902C264.081 171.601 256.525 184.817 258.684 199.422C260.843 214.026 271.9 224.489 283.38 222.79Z" fill="#E6EDED"/>
<path d="M283.332 222.736C294.786 221.041 302.325 207.855 300.171 193.283C298.016 178.712 286.984 168.273 275.53 169.968C264.076 171.663 256.537 184.849 258.691 199.421C260.845 213.992 271.877 224.431 283.332 222.736Z" fill="#E7EEEE"/>
<path d="M283.277 222.69C294.71 220.998 302.234 207.838 300.084 193.296C297.934 178.754 286.924 168.337 275.491 170.028C264.059 171.72 256.534 184.88 258.684 199.422C260.834 213.964 271.845 224.381 283.277 222.69Z" fill="#E8EEEE"/>
<path d="M283.23 222.642C294.64 220.954 302.151 207.82 300.005 193.308C297.859 178.795 286.87 168.399 275.459 170.087C264.049 171.775 256.538 184.909 258.684 199.422C260.83 213.934 271.819 224.331 283.23 222.642Z" fill="#E9EFEF"/>
<path d="M283.182 222.595C294.567 220.91 302.06 207.804 299.919 193.32C297.778 178.837 286.812 168.462 275.428 170.146C264.043 171.831 256.549 184.937 258.691 199.421C260.832 213.904 271.797 224.28 283.182 222.595Z" fill="#EAF0F0"/>
<path d="M283.135 222.548C294.498 220.866 301.977 207.786 299.84 193.332C297.703 178.878 286.759 168.524 275.396 170.205C264.033 171.887 256.554 184.967 258.691 199.421C260.828 213.875 271.772 224.229 283.135 222.548Z" fill="#EBF1F1"/>
<path d="M283.087 222.501C294.425 220.823 301.887 207.77 299.754 193.345C297.621 178.92 286.701 168.587 275.364 170.264C264.027 171.942 256.565 184.995 258.698 199.42C260.83 213.844 271.75 224.178 283.087 222.501Z" fill="#ECF1F1"/>
<path d="M283.033 222.454C294.348 220.78 301.796 207.753 299.668 193.358C297.539 178.962 286.641 168.65 275.325 170.324C264.01 171.998 256.562 185.025 258.691 199.421C260.819 213.816 271.717 224.128 283.033 222.454Z" fill="#EDF2F2"/>
<path d="M282.985 222.407C294.279 220.736 301.712 207.735 299.588 193.369C297.464 179.003 286.587 168.712 275.293 170.383C264 172.054 256.567 185.055 258.691 199.421C260.815 213.787 271.692 224.078 282.985 222.407Z" fill="#EEF3F3"/>
<path d="M282.938 222.36C294.206 220.692 301.622 207.719 299.502 193.382C297.383 179.046 286.53 168.775 275.262 170.442C263.994 172.11 256.578 185.083 258.697 199.42C260.817 213.756 271.67 224.027 282.938 222.36Z" fill="#EFF3F3"/>
<path d="M282.889 222.306C294.135 220.642 301.538 207.697 299.423 193.394C297.308 179.09 286.477 168.844 275.231 170.508C263.985 172.172 256.583 185.116 258.697 199.42C260.812 213.723 271.643 223.97 282.889 222.306Z" fill="#F0F4F4"/>
<path d="M282.841 222.252C294.061 220.591 301.447 207.674 299.336 193.4C297.226 179.126 286.419 168.9 275.198 170.56C263.978 172.221 256.593 185.138 258.703 199.412C260.814 213.686 271.62 223.912 282.841 222.252Z" fill="#F1F5F5"/>
<path d="M282.787 222.212C293.986 220.555 301.357 207.664 299.251 193.419C297.145 179.174 286.359 168.97 275.161 170.627C263.962 172.284 256.591 185.175 258.697 199.42C260.803 213.664 271.589 223.869 282.787 222.212Z" fill="#F2F5F5"/>
<path d="M282.739 222.158C293.912 220.505 301.266 207.641 299.164 193.425C297.062 179.21 286.301 169.026 275.128 170.679C263.955 172.333 256.601 185.197 258.703 199.412C260.805 213.628 271.566 223.811 282.739 222.158Z" fill="#F3F6F6"/>
<path d="M282.691 222.111C293.843 220.461 301.182 207.623 299.085 193.437C296.987 179.251 286.247 169.089 275.096 170.739C263.945 172.389 256.606 185.226 258.703 199.412C260.8 213.598 271.54 223.761 282.691 222.111Z" fill="#F4F7F7"/>
<path d="M282.644 222.064C293.773 220.417 301.098 207.606 299.005 193.449C296.912 179.292 286.193 169.151 275.064 170.798C263.935 172.444 256.61 185.256 258.703 199.412C260.796 213.569 271.515 223.71 282.644 222.064Z" fill="#F5F7F7"/>
<path d="M282.597 222.016C293.7 220.373 301.008 207.589 298.919 193.462C296.83 179.334 286.136 169.214 275.032 170.857C263.929 172.499 256.621 185.284 258.71 199.411C260.799 213.538 271.493 223.659 282.597 222.016Z" fill="#F5F8F8"/>
<path d="M282.549 221.969C293.631 220.329 300.924 207.571 298.84 193.473C296.755 179.375 286.082 169.276 275.001 170.916C263.919 172.555 256.625 185.313 258.71 199.411C260.794 213.509 271.467 223.609 282.549 221.969Z" fill="#F6F9F9"/>
<path d="M282.495 221.923C293.551 220.287 300.827 207.556 298.747 193.487C296.667 179.419 286.018 169.34 274.962 170.976C263.906 172.612 256.63 185.343 258.71 199.411C260.79 213.48 271.439 223.559 282.495 221.923Z" fill="#F7F9F9"/>
<path d="M282.446 221.869C293.48 220.236 300.743 207.534 298.668 193.499C296.593 179.463 285.965 169.409 274.931 171.041C263.897 172.674 256.634 185.376 258.71 199.411C260.785 213.447 271.412 223.501 282.446 221.869Z" fill="#F8FAFA"/>
<path d="M282.398 221.821C293.411 220.192 300.659 207.517 298.588 193.511C296.517 179.504 285.912 169.471 274.899 171.1C263.887 172.73 256.639 185.405 258.71 199.411C260.78 213.417 271.386 223.451 282.398 221.821Z" fill="#F9FBFB"/>
<path d="M282.351 221.774C293.338 220.148 300.569 207.5 298.502 193.523C296.436 179.546 285.854 169.534 274.868 171.159C263.881 172.785 256.65 185.433 258.716 199.41C260.783 213.387 271.364 223.4 282.351 221.774Z" fill="#FAFCFC"/>
<path d="M282.304 221.727C293.268 220.104 300.485 207.482 298.423 193.535C296.361 179.588 285.8 169.596 274.836 171.218C263.871 172.841 256.654 185.463 258.716 199.41C260.778 213.358 271.339 223.349 282.304 221.727Z" fill="#FBFCFC"/>
<path d="M282.249 221.68C293.188 220.062 300.388 207.467 298.33 193.549C296.273 179.631 285.736 169.66 274.797 171.279C263.858 172.897 256.658 185.492 258.716 199.41C260.774 213.328 271.31 223.299 282.249 221.68Z" fill="#FCFDFD"/>
<path d="M282.203 221.64C293.12 220.024 300.305 207.456 298.252 193.567C296.198 179.678 285.684 169.729 274.766 171.344C263.849 172.96 256.664 185.528 258.717 199.417C260.771 213.306 271.285 223.255 282.203 221.64Z" fill="#FDFEFE"/>
<path d="M282.155 221.593C293.05 219.98 300.222 207.438 298.172 193.579C296.123 179.72 285.63 169.791 274.734 171.403C263.839 173.015 256.668 185.558 258.717 199.417C260.766 213.276 271.26 223.205 282.155 221.593Z" fill="#FEFEFE"/>
<path d="M282.107 221.539C292.976 219.93 300.13 207.415 298.086 193.585C296.041 179.755 285.572 169.847 274.702 171.456C263.832 173.064 256.678 185.579 258.723 199.409C260.768 213.239 271.237 223.147 282.107 221.539Z" fill="white"/>
<path d="M274.376 215.776C281.188 214.73 285.517 206.102 284.045 196.504C282.573 186.907 275.858 179.974 269.046 181.02C262.233 182.066 257.904 190.694 259.376 200.292C260.848 209.889 267.563 216.822 274.376 215.776Z" fill="#472317"/>
<path d="M269.982 192.293C269.531 189.513 270.727 186.985 272.66 186.655C274.592 186.325 276.522 188.308 276.974 191.094C277.425 193.873 276.229 196.402 274.296 196.732C272.364 197.061 270.435 195.079 269.982 192.293Z" fill="white"/>
<path d="M264.773 207.569C264.477 205.738 265.264 204.079 266.537 203.859C267.81 203.639 269.08 204.944 269.376 206.775C269.671 208.606 268.884 210.266 267.611 210.486C266.339 210.706 265.068 209.4 264.773 207.569Z" fill="white"/>
<g style="mix-blend-mode:overlay" opacity="0.3">
<path d="M254.672 211.712C256.533 211.9 257.705 209.897 256.27 208.966C255.804 208.663 255.302 208.399 254.792 208.17C248.267 205.245 239.359 205.944 232.997 209.892C231.416 210.872 228.253 214.468 232.14 213.669C235.114 213.056 237.926 212.146 240.969 211.746C243.961 211.361 246.979 211.223 249.959 211.347C250.373 211.366 252.592 211.506 254.672 211.712Z" fill="white"/>
</g>
<g style="mix-blend-mode:overlay" opacity="0.2">
<path d="M216.337 116.851C219.655 111.71 221.839 105.868 222.694 99.8331C219.034 102.404 215.374 104.975 211.714 107.546C214.881 103.083 217.64 98.3491 219.959 93.4041C216.597 96.972 212.824 100.155 208.726 102.887C211.78 98.4795 214.505 93.8388 216.856 89.0318C211.182 94.7707 205.273 100.664 197.687 103.597C201.512 103.235 204.656 102.286 207.644 99.9286C205.404 102.87 203.164 105.811 200.925 108.758C204.943 107.637 208.719 105.722 211.976 103.158C209.132 107.815 206.282 112.479 203.438 117.136C209.481 114.669 214.902 110.754 219.086 105.821C218.761 109.844 218.416 113.376 216.337 116.851Z" fill="white"/>
</g>
<path opacity="0.01" d="M212.384 245.747C212.205 234.006 195.841 224.718 175.834 225.002C155.828 225.285 139.754 235.033 139.933 246.774C140.113 258.515 156.477 267.803 176.483 267.52C196.49 267.236 212.563 257.488 212.384 245.747Z" fill="#DEA96F"/>
<path opacity="0.02" d="M211.985 245.77C211.809 234.177 195.647 225.007 175.888 225.287C156.128 225.567 140.254 235.192 140.431 246.785C140.608 258.377 156.769 267.548 176.528 267.268C196.288 266.987 212.162 257.363 211.985 245.77Z" fill="#DEA86F"/>
<path opacity="0.03" d="M211.586 245.793C211.412 234.345 195.455 225.289 175.947 225.565C156.439 225.842 140.766 235.347 140.941 246.794C141.116 258.242 157.072 267.298 176.58 267.022C196.088 266.745 211.761 257.241 211.586 245.793Z" fill="#DFA770"/>
<path opacity="0.04" d="M211.193 245.816C211.021 234.516 195.267 225.577 176.006 225.851C156.746 226.124 141.272 235.505 141.444 246.805C141.617 258.104 157.37 267.043 176.631 266.77C195.892 266.496 211.366 257.115 211.193 245.816Z" fill="#DFA670"/>
<path opacity="0.06" d="M210.788 245.839C210.618 234.684 195.069 225.86 176.06 226.129C157.05 226.399 141.778 235.66 141.948 246.815C142.118 257.97 157.667 266.794 176.676 266.524C195.686 266.255 210.958 256.993 210.788 245.839Z" fill="#DFA570"/>
<path opacity="0.07" d="M210.395 245.861C210.227 234.855 194.881 226.148 176.119 226.414C157.357 226.68 142.284 235.818 142.452 246.825C142.62 257.831 157.966 266.538 176.728 266.272C195.49 266.006 210.563 256.868 210.395 245.861Z" fill="#DFA470"/>
<path opacity="0.08" d="M209.997 245.891C209.831 235.029 194.69 226.437 176.179 226.699C157.668 226.962 142.797 235.98 142.963 246.842C143.128 257.703 158.269 266.296 176.78 266.033C195.291 265.771 210.162 256.753 209.997 245.891Z" fill="#E0A371"/>
<path opacity="0.09" d="M209.591 245.914C209.427 235.2 194.492 226.725 176.232 226.984C157.973 227.243 143.303 236.138 143.466 246.851C143.63 257.565 158.565 266.04 176.825 265.781C195.084 265.522 209.754 256.627 209.591 245.914Z" fill="#E0A271"/>
<path opacity="0.1" d="M209.199 245.937C209.037 235.368 194.305 227.007 176.292 227.263C158.28 227.518 143.809 236.293 143.97 246.862C144.131 257.43 158.864 265.791 176.876 265.536C194.889 265.28 209.36 256.505 209.199 245.937Z" fill="#E0A171"/>
<path opacity="0.11" d="M208.799 245.96C208.64 235.539 194.112 227.296 176.351 227.548C158.59 227.8 144.321 236.451 144.48 246.872C144.639 257.292 159.166 265.535 176.927 265.283C194.688 265.031 208.958 256.38 208.799 245.96Z" fill="#E0A071"/>
<path opacity="0.12" d="M208.407 245.981C208.25 235.706 193.925 227.577 176.411 227.825C158.897 228.074 144.827 236.605 144.984 246.881C145.14 257.157 159.465 265.285 176.979 265.037C194.493 264.789 208.563 256.257 208.407 245.981Z" fill="#E09F71"/>
<path opacity="0.13" d="M208.008 246.011C207.853 235.884 193.734 227.873 176.471 228.117C159.208 228.362 145.339 236.77 145.494 246.898C145.649 257.025 159.768 265.036 177.031 264.791C194.293 264.547 208.162 256.138 208.008 246.011Z" fill="#E19E72"/>
<path opacity="0.14" d="M207.608 246.034C207.456 236.051 193.542 228.154 176.531 228.396C159.519 228.637 145.852 236.925 146.004 246.908C146.157 256.89 160.071 264.787 177.082 264.546C194.094 264.305 207.761 256.017 207.608 246.034Z" fill="#E19D72"/>
<path opacity="0.16" d="M207.21 246.057C207.059 236.223 193.348 228.443 176.584 228.681C159.82 228.919 146.352 237.084 146.502 246.918C146.652 256.752 160.363 264.531 177.127 264.294C193.891 264.056 207.36 255.891 207.21 246.057Z" fill="#E19C72"/>
<path opacity="0.17" d="M206.81 246.086C206.663 236.397 193.156 228.732 176.643 228.966C160.131 229.2 146.864 237.245 147.012 246.934C147.16 256.624 160.666 264.289 177.179 264.055C193.692 263.821 206.958 255.776 206.81 246.086Z" fill="#E19B72"/>
<path opacity="0.18" d="M206.418 246.109C206.273 236.568 192.969 229.02 176.704 229.251C160.438 229.482 147.37 237.403 147.516 246.944C147.662 256.486 160.966 264.033 177.231 263.803C193.496 263.572 206.564 255.65 206.418 246.109Z" fill="#E29A73"/>
<path opacity="0.19" d="M206.011 246.126C205.868 236.729 192.77 229.296 176.755 229.523C160.741 229.75 147.875 237.551 148.019 246.948C148.162 256.344 161.26 263.778 177.275 263.55C193.289 263.323 206.155 255.522 206.011 246.126Z" fill="#E29973"/>
<path opacity="0.2" d="M205.619 246.155C205.478 236.903 192.582 229.584 176.815 229.808C161.049 230.032 148.381 237.713 148.523 246.965C148.664 256.216 161.56 263.535 177.327 263.312C193.094 263.088 205.761 255.407 205.619 246.155Z" fill="#E29873"/>
<path opacity="0.21" d="M205.22 246.178C205.081 237.074 192.391 229.873 176.875 230.093C161.359 230.313 148.894 237.871 149.033 246.975C149.172 256.078 161.863 263.279 177.378 263.059C192.894 262.839 205.359 255.281 205.22 246.178Z" fill="#E29773"/>
<path opacity="0.22" d="M204.815 246.201C204.678 237.242 192.193 230.155 176.928 230.371C161.664 230.588 149.4 238.026 149.537 246.985C149.674 255.943 162.159 263.03 177.424 262.814C192.688 262.597 204.952 255.159 204.815 246.201Z" fill="#E29673"/>
<path opacity="0.23" d="M204.429 246.229C204.295 237.419 192.012 230.45 176.995 230.662C161.978 230.875 149.913 238.19 150.048 247.001C150.182 255.811 162.465 262.78 177.482 262.568C192.499 262.355 204.564 255.04 204.429 246.229Z" fill="#E39574"/>
<path opacity="0.24" d="M204.03 246.252C203.898 237.587 191.82 230.731 177.054 230.941C162.289 231.15 150.426 238.345 150.558 247.011C150.69 255.676 162.768 262.531 177.533 262.322C192.299 262.113 204.162 254.918 204.03 246.252Z" fill="#E39474"/>
<path opacity="0.26" d="M203.63 246.269C203.5 237.751 191.625 231.014 177.107 231.219C162.588 231.425 150.924 238.497 151.054 247.014C151.184 255.531 163.059 262.269 177.578 262.063C192.096 261.857 203.76 254.786 203.63 246.269Z" fill="#E39374"/>
<path opacity="0.27" d="M203.232 246.298C203.104 237.925 191.434 231.302 177.167 231.504C162.9 231.707 151.437 238.658 151.565 247.031C151.693 255.403 163.362 262.027 177.63 261.824C191.897 261.622 203.359 254.671 203.232 246.298Z" fill="#E39274"/>
<path opacity="0.28" d="M202.833 246.321C202.707 238.097 191.243 231.591 177.227 231.789C163.211 231.988 151.95 238.816 152.075 247.041C152.201 255.265 163.665 261.771 177.681 261.572C191.697 261.373 202.958 254.545 202.833 246.321Z" fill="#E49175"/>
<path opacity="0.29" d="M202.434 246.344C202.31 238.264 191.049 231.873 177.28 232.068C163.511 232.263 152.449 238.971 152.573 247.051C152.696 255.13 163.958 261.522 177.726 261.327C191.495 261.131 202.557 254.423 202.434 246.344Z" fill="#E49075"/>
<path opacity="0.3" d="M202.035 246.373C201.914 238.442 190.857 232.168 177.34 232.36C163.822 232.552 152.962 239.136 153.083 247.068C153.204 254.999 164.26 261.273 177.778 261.081C191.296 260.889 202.156 254.305 202.035 246.373Z" fill="#E49075"/>
<path opacity="0.31" d="M201.642 246.396C201.523 238.61 190.669 232.45 177.399 232.638C164.129 232.826 153.468 239.291 153.587 247.078C153.705 254.864 164.559 261.024 177.829 260.836C191.1 260.647 201.761 254.183 201.642 246.396Z" fill="#E48F75"/>
<path opacity="0.32" d="M201.242 246.412C201.126 238.774 190.477 232.732 177.458 232.917C164.439 233.101 153.98 239.443 154.097 247.081C154.213 254.719 164.862 260.761 177.881 260.577C190.9 260.392 201.359 254.05 201.242 246.412Z" fill="#E48E75"/>
<path opacity="0.33" d="M200.844 246.442C200.729 238.948 190.283 233.021 177.512 233.202C164.74 233.383 154.479 239.604 154.594 247.098C154.708 254.591 165.154 260.519 177.926 260.338C190.697 260.157 200.958 253.935 200.844 246.442Z" fill="#E58D76"/>
<path opacity="0.34" d="M200.451 246.464C200.339 239.119 190.098 233.308 177.578 233.486C165.057 233.664 154.998 239.762 155.11 247.107C155.223 254.452 165.463 260.262 177.984 260.085C190.504 259.907 200.563 253.809 200.451 246.464Z" fill="#E58C76"/>
<path opacity="0.36" d="M200.052 246.487C199.942 239.286 189.907 233.59 177.638 233.764C165.369 233.938 155.511 239.917 155.621 247.117C155.731 254.317 165.767 260.013 178.036 259.839C190.305 259.665 200.162 253.687 200.052 246.487Z" fill="#E58B76"/>
<path opacity="0.37" d="M199.653 246.516C199.545 239.464 189.712 233.886 177.691 234.056C165.669 234.227 156.01 240.082 156.118 247.134C156.226 254.186 166.059 259.764 178.08 259.594C190.102 259.423 199.761 253.568 199.653 246.516Z" fill="#E58A76"/>
<path opacity="0.38" d="M199.254 246.539C199.149 239.632 189.521 234.168 177.751 234.335C165.98 234.501 156.524 240.236 156.629 247.144C156.734 254.051 166.362 259.515 178.132 259.348C189.903 259.181 199.36 253.446 199.254 246.539Z" fill="#E68977"/>
<path opacity="0.39" d="M198.861 246.555C198.758 239.796 189.333 234.45 177.809 234.613C166.286 234.777 157.028 240.388 157.132 247.147C157.235 253.906 166.66 259.253 178.183 259.089C189.706 258.926 198.964 253.314 198.861 246.555Z" fill="#E68877"/>
<path opacity="0.4" d="M198.497 246.619C198.397 240.004 189.178 234.77 177.906 234.928C166.634 235.086 157.577 240.576 157.677 247.19C157.777 253.805 166.996 259.039 178.268 258.881C189.54 258.723 198.597 253.233 198.497 246.619Z" fill="#E68777"/>
<path opacity="0.41" d="M198.098 246.641C198 240.175 188.987 235.059 177.966 235.213C166.945 235.368 158.09 240.734 158.188 247.2C158.285 253.666 167.298 258.783 178.319 258.628C189.34 258.474 198.195 253.107 198.098 246.641Z" fill="#E68677"/>
<path opacity="0.42" d="M197.705 246.664C197.61 240.343 188.799 235.341 178.025 235.492C167.252 235.643 158.596 240.889 158.691 247.21C158.786 253.532 167.597 258.534 178.371 258.383C189.144 258.232 197.801 252.985 197.705 246.664Z" fill="#E68577"/>
<path opacity="0.43" d="M197.3 246.694C197.207 240.521 188.601 235.636 178.079 235.784C167.557 235.931 159.102 241.055 159.195 247.227C159.288 253.4 167.894 258.285 178.416 258.137C188.938 257.99 197.393 252.867 197.3 246.694Z" fill="#E78478"/>
<path opacity="0.44" d="M196.908 246.716C196.817 240.688 188.414 235.918 178.139 236.062C167.864 236.206 159.608 241.209 159.699 247.237C159.79 253.266 168.193 258.036 178.468 257.892C188.743 257.748 196.999 252.744 196.908 246.716Z" fill="#E78378"/>
<path opacity="0.46" d="M196.508 246.733C196.419 240.853 188.221 236.2 178.197 236.341C168.174 236.481 160.12 241.361 160.209 247.241C160.297 253.121 168.495 257.773 178.519 257.633C188.542 257.493 196.596 252.612 196.508 246.733Z" fill="#E78278"/>
<path opacity="0.47" d="M196.115 246.761C196.029 241.026 188.034 236.488 178.257 236.625C168.481 236.762 160.626 241.522 160.712 247.257C160.799 252.992 168.794 257.53 178.571 257.393C188.347 257.256 196.202 252.496 196.115 246.761Z" fill="#E78178"/>
<path opacity="0.48" d="M195.716 246.784C195.632 241.194 187.842 236.77 178.317 236.903C168.792 237.037 161.138 241.677 161.223 247.267C161.307 252.857 169.097 257.281 178.622 257.148C188.147 257.014 195.801 252.374 195.716 246.784Z" fill="#E88079"/>
<path opacity="0.49" d="M195.318 246.807C195.236 241.365 187.651 237.058 178.377 237.188C169.103 237.318 161.652 241.835 161.734 247.277C161.816 252.719 169.4 257.025 178.674 256.895C187.948 256.766 195.4 252.249 195.318 246.807Z" fill="#E87F79"/>
<path opacity="0.5" d="M194.919 246.836C194.839 241.539 187.457 237.347 178.43 237.473C169.403 237.6 162.151 241.997 162.231 247.294C162.311 252.591 169.693 256.783 178.719 256.657C187.746 256.53 194.999 252.134 194.919 246.836Z" fill="#E87E79"/>
<path opacity="0.51" d="M194.52 246.859C194.442 241.71 187.265 237.635 178.49 237.758C169.714 237.881 162.663 242.155 162.741 247.304C162.819 252.453 169.996 256.527 178.771 256.404C187.546 256.282 194.597 252.008 194.52 246.859Z" fill="#E87D79"/>
<path opacity="0.52" d="M194.127 246.882C194.052 241.877 187.077 237.917 178.55 238.037C170.022 238.156 163.17 242.31 163.245 247.314C163.321 252.318 170.295 256.278 178.823 256.159C187.351 256.04 194.203 251.886 194.127 246.882Z" fill="#E87C79"/>
<path opacity="0.53" d="M193.721 246.905C193.648 242.049 186.879 238.206 178.602 238.322C170.325 238.438 163.675 242.468 163.748 247.324C163.821 252.18 170.591 256.023 178.867 255.907C187.144 255.791 193.794 251.76 193.721 246.905Z" fill="#E97B7A"/>
<path opacity="0.54" d="M193.322 246.928C193.251 242.216 186.687 238.488 178.661 238.601C170.636 238.713 164.187 242.623 164.258 247.335C164.33 252.046 170.893 255.774 178.919 255.661C186.945 255.549 193.393 251.639 193.322 246.928Z" fill="#E97A7A"/>
<path opacity="0.56" d="M192.929 246.95C192.86 242.387 186.499 238.777 178.721 238.886C170.943 238.995 164.693 242.782 164.762 247.345C164.831 251.908 171.192 255.518 178.97 255.409C186.749 255.3 192.998 251.513 192.929 246.95Z" fill="#E9797A"/>
<path opacity="0.57" d="M192.524 246.98C192.457 242.562 186.301 239.065 178.774 239.171C171.247 239.276 165.199 242.943 165.266 247.362C165.333 251.78 171.489 255.276 179.016 255.17C186.543 255.065 192.59 251.398 192.524 246.98Z" fill="#E9787A"/>
<path opacity="0.58" d="M192.138 247.001C192.074 242.732 186.12 239.353 178.841 239.455C171.561 239.557 165.712 243.101 165.776 247.371C165.841 251.64 171.794 255.019 179.074 254.917C186.353 254.815 192.203 251.271 192.138 247.001Z" fill="#EA777B"/>
<path opacity="0.59" d="M166.259 247.37C166.319 251.497 172.073 254.758 179.099 254.659C186.124 254.56 191.774 251.136 191.714 247.009C191.654 242.882 185.9 239.621 178.875 239.72C171.849 239.819 166.199 243.243 166.259 247.37Z" fill="#EA767B"/>
<path opacity="0.6" d="M166.766 247.376C166.826 251.354 172.369 254.5 179.152 254.408C185.929 254.316 191.379 251.007 191.319 247.035C191.259 243.057 185.716 239.911 178.933 240.004C172.156 240.096 166.706 243.404 166.766 247.376Z" fill="#EA757B"/>
<path d="M151.133 243.469C142.256 241.914 133.15 242.6 124.641 245.591C123.675 245.932 124.136 247.388 125.117 247.113C133.422 244.8 142.137 244.221 150.667 245.512C151.99 245.712 152.459 243.696 151.132 243.463L151.133 243.469Z" fill="#985119"/>
<path d="M164.35 239.412C148.976 233.64 132.1 233.359 115.949 234.946C111.194 235.415 106.472 236.13 101.758 236.898C100.939 237.029 100.944 238.31 101.81 238.226C117.962 236.7 134.224 235.586 150.321 238.284C154.817 239.037 159.234 240.154 163.579 241.537C164.799 241.928 165.565 239.864 164.357 239.411L164.35 239.412Z" fill="#985119"/>
<g style="mix-blend-mode:overlay" opacity="0.31">
<path d="M210.196 206.187C208.292 188.518 193.87 175.578 177.984 177.286C162.097 178.994 150.762 194.703 152.666 212.372C154.571 230.042 168.993 242.982 184.879 241.274C200.766 239.566 212.1 223.857 210.196 206.187Z" fill="black"/>
</g>
<path d="M209.567 206.546C207.872 190.821 194.939 179.315 180.679 180.848C166.42 182.381 156.234 196.372 157.929 212.098C159.623 227.824 172.557 239.329 186.816 237.796C201.076 236.263 211.262 222.272 209.567 206.546Z" fill="#C5D5D5"/>
<path d="M209.569 206.552C207.878 190.855 194.968 179.371 180.734 180.902C166.5 182.432 156.332 196.397 158.024 212.093C159.715 227.79 172.625 239.274 186.859 237.743C201.093 236.213 211.261 222.248 209.569 206.552Z" fill="#C6D6D6"/>
<path d="M209.564 206.551C207.875 190.884 194.992 179.422 180.787 180.949C166.583 182.476 156.436 196.414 158.125 212.081C159.813 227.748 172.697 239.211 186.901 237.683C201.106 236.156 211.252 222.218 209.564 206.551Z" fill="#C7D6D6"/>
<path d="M209.571 206.542C207.885 190.905 195.025 179.464 180.846 180.988C166.668 182.512 156.54 196.425 158.225 212.062C159.91 227.699 172.77 239.14 186.949 237.616C201.128 236.092 211.256 222.179 209.571 206.542Z" fill="#C8D7D7"/>
<path d="M209.559 206.542C207.877 190.938 195.044 179.522 180.894 181.043C166.745 182.564 156.637 196.447 158.319 212.051C160.001 227.655 172.834 239.072 186.984 237.55C201.133 236.029 211.24 222.146 209.559 206.542Z" fill="#C9D8D8"/>
<path d="M209.56 206.541C207.881 190.966 195.071 179.571 180.947 181.09C166.824 182.608 156.735 196.465 158.413 212.039C160.092 227.614 172.902 239.009 187.025 237.49C201.149 235.972 211.238 222.115 209.56 206.541Z" fill="#CAD8D8"/>
<path d="M209.561 206.539C207.886 190.994 195.099 179.621 181.001 181.137C166.903 182.652 156.832 196.483 158.507 212.028C160.183 227.573 172.969 238.946 187.067 237.43C201.165 235.915 211.236 222.084 209.561 206.539Z" fill="#CBD9D9"/>
<path d="M209.555 206.539C207.883 191.023 195.123 179.671 181.054 181.184C166.986 182.696 156.936 196.5 158.608 212.016C160.28 227.531 173.041 238.883 187.109 237.371C201.178 235.858 211.227 222.054 209.555 206.539Z" fill="#CCDADA"/>
<path d="M209.556 206.537C207.888 191.051 195.151 179.721 181.108 181.231C167.065 182.74 157.034 196.518 158.702 212.004C160.371 227.49 173.108 238.821 187.151 237.311C201.194 235.801 211.225 222.023 209.556 206.537Z" fill="#CDDBDB"/>
<path d="M209.552 206.543C207.886 191.086 195.176 179.778 181.162 181.284C167.149 182.791 157.139 196.542 158.804 211.999C160.47 227.455 173.181 238.764 187.194 237.257C201.208 235.751 211.218 221.999 209.552 206.543Z" fill="#CEDBDB"/>
<path d="M209.552 206.535C207.89 191.108 195.202 179.821 181.215 181.325C167.227 182.828 157.235 196.554 158.898 211.981C160.56 227.408 173.247 238.695 187.235 237.191C201.223 235.687 211.214 221.962 209.552 206.535Z" fill="#CFDCDC"/>
<path d="M209.547 206.534C207.887 191.137 195.224 179.871 181.262 181.372C167.299 182.874 157.326 196.573 158.985 211.97C160.645 227.368 173.308 238.633 187.27 237.132C201.233 235.631 211.206 221.932 209.547 206.534Z" fill="#CFDDDD"/>
<path d="M209.541 206.534C207.885 191.169 195.248 179.928 181.316 181.426C167.383 182.924 157.43 196.594 159.086 211.958C160.742 227.322 173.379 238.563 187.311 237.065C201.244 235.567 211.197 221.898 209.541 206.534Z" fill="#D0DDDD"/>
<path d="M209.542 206.532C207.889 191.197 195.276 179.978 181.369 181.473C167.462 182.968 157.528 196.612 159.18 211.946C160.833 227.281 173.446 238.501 187.353 237.005C201.26 235.51 211.195 221.867 209.542 206.532Z" fill="#D1DEDE"/>
<path d="M209.551 206.536C207.902 191.231 195.311 180.033 181.43 181.526C167.549 183.018 157.633 196.635 159.282 211.941C160.931 227.246 173.522 238.444 187.403 236.951C201.284 235.459 211.2 221.842 209.551 206.536Z" fill="#D2DFDF"/>
<path d="M209.538 206.53C207.891 191.254 195.328 180.078 181.476 181.567C167.624 183.056 157.729 196.647 159.375 211.923C161.021 227.199 173.585 238.375 187.437 236.886C201.289 235.397 211.184 221.806 209.538 206.53Z" fill="#D3DFDF"/>
<path d="M209.539 206.529C207.896 191.282 195.356 180.128 181.53 181.614C167.703 183.101 157.827 196.665 159.47 211.911C161.113 227.158 173.653 238.312 187.479 236.826C201.306 235.339 211.182 221.775 209.539 206.529Z" fill="#D4E0E0"/>
<path d="M209.54 206.527C207.9 191.31 195.386 180.177 181.59 181.66C167.793 183.144 157.937 196.682 159.577 211.898C161.217 227.115 173.731 238.248 187.528 236.765C201.325 235.282 211.18 221.744 209.54 206.527Z" fill="#D5E1E1"/>
<path d="M209.535 206.526C207.898 191.339 195.408 180.228 181.637 181.708C167.865 183.189 158.028 196.701 159.665 211.888C161.302 227.075 173.792 238.187 187.563 236.706C201.334 235.226 211.171 221.714 209.535 206.526Z" fill="#D6E1E1"/>
<path d="M209.536 206.525C207.902 191.367 195.435 180.277 181.69 181.755C167.944 183.233 158.126 196.719 159.759 211.876C161.393 227.034 173.86 238.124 187.605 236.646C201.351 235.169 211.169 221.683 209.536 206.525Z" fill="#D7E2E2"/>
<path d="M209.53 206.524C207.9 191.396 195.46 180.327 181.743 181.802C168.027 183.277 158.23 196.736 159.86 211.864C161.49 226.992 173.931 238.061 187.647 236.586C201.363 235.112 211.161 221.652 209.53 206.524Z" fill="#D8E3E3"/>
<path d="M209.531 206.523C207.905 191.428 195.488 180.384 181.797 181.856C168.107 183.328 158.327 196.758 159.954 211.853C161.581 226.948 173.998 237.992 187.688 236.52C201.378 235.048 211.158 221.618 209.531 206.523Z" fill="#D9E3E3"/>
<path d="M209.527 206.529C207.903 191.463 195.513 180.441 181.852 181.909C168.191 183.378 158.432 196.782 160.056 211.847C161.679 226.913 174.07 237.935 187.731 236.467C201.392 234.998 211.15 221.594 209.527 206.529Z" fill="#DAE4E4"/>
<path d="M209.528 206.527C207.908 191.491 195.54 180.49 181.905 181.956C168.27 183.422 158.53 196.8 160.15 211.836C161.77 226.872 174.138 237.873 187.773 236.407C201.408 234.941 211.148 221.563 209.528 206.527Z" fill="#DBE5E5"/>
<path d="M209.528 206.519C207.911 191.513 195.568 180.534 181.958 181.997C168.348 183.46 158.627 196.811 160.244 211.818C161.861 226.824 174.205 237.803 187.814 236.34C201.424 234.877 211.146 221.526 209.528 206.519Z" fill="#DCE6E6"/>
<path d="M209.523 206.518C207.909 191.541 195.592 180.584 182.012 182.044C168.431 183.504 158.731 196.829 160.345 211.806C161.959 226.783 174.276 237.74 187.856 236.28C201.436 234.82 211.137 221.495 209.523 206.518Z" fill="#DDE6E6"/>
<path d="M209.524 206.517C207.913 191.569 195.619 180.633 182.065 182.091C168.51 183.548 158.828 196.847 160.439 211.794C162.05 226.742 174.344 237.678 187.898 236.22C201.453 234.763 211.135 221.464 209.524 206.517Z" fill="#DEE7E7"/>
<path d="M209.512 206.517C207.904 191.599 195.637 180.684 182.112 182.138C168.586 183.593 158.925 196.865 160.533 211.783C162.141 226.701 174.408 237.615 187.933 236.161C201.458 234.707 211.119 221.435 209.512 206.517Z" fill="#DFE8E8"/>
<path d="M209.52 206.515C207.915 191.626 195.671 180.733 182.172 182.185C168.672 183.636 159.03 196.882 160.634 211.771C162.238 226.659 174.482 237.552 187.982 236.101C201.481 234.649 211.124 221.403 209.52 206.515Z" fill="#E0E8E8"/>
<path d="M209.522 206.52C207.92 191.661 195.7 180.79 182.226 182.238C168.752 183.687 159.128 196.907 160.729 211.766C162.33 226.625 174.551 237.496 188.025 236.047C201.498 234.599 211.123 221.379 209.522 206.52Z" fill="#E1E9E9"/>
<path d="M209.516 206.519C207.918 191.693 195.724 180.847 182.28 182.292C168.836 183.737 159.232 196.928 160.83 211.753C162.427 226.579 174.621 237.426 188.066 235.981C201.51 234.535 211.114 221.345 209.516 206.519Z" fill="#E2EAEA"/>
<path d="M209.51 206.512C207.915 191.716 195.745 180.891 182.326 182.333C168.907 183.776 159.322 196.94 160.917 211.736C162.511 226.533 174.682 237.358 188.1 235.915C201.519 234.473 211.104 221.308 209.51 206.512Z" fill="#E2EAEA"/>
<path d="M209.504 206.511C207.913 191.745 195.769 180.941 182.38 182.38C168.99 183.82 159.426 196.957 161.018 211.724C162.609 226.491 174.753 237.295 188.142 235.855C201.532 234.416 211.096 221.278 209.504 206.511Z" fill="#E3EBEB"/>
<path d="M209.505 206.51C207.917 191.773 195.797 180.99 182.433 182.427C169.069 183.864 159.524 196.975 161.112 211.713C162.7 226.45 174.821 237.232 188.184 235.795C201.548 234.359 211.094 221.247 209.505 206.51Z" fill="#E4ECEC"/>
<path d="M209.506 206.508C207.921 191.801 195.824 181.04 182.486 182.474C169.149 183.908 159.621 196.993 161.206 211.701C162.791 226.409 174.888 237.169 188.226 235.735C201.564 234.301 211.091 221.216 209.506 206.508Z" fill="#E5ECEC"/>
<path d="M209.495 206.508C207.913 191.83 195.842 181.091 182.534 182.522C169.225 183.953 159.719 197.012 161.3 211.69C162.882 226.368 174.953 237.107 188.262 235.676C201.57 234.246 211.076 221.187 209.495 206.508Z" fill="#E6EDED"/>
<path d="M209.503 206.513C207.924 191.864 195.877 181.147 182.594 182.575C169.311 184.003 159.823 197.035 161.402 211.684C162.981 226.333 175.028 237.05 188.311 235.622C201.594 234.194 211.082 221.162 209.503 206.513Z" fill="#E7EEEE"/>
<path d="M209.498 206.512C207.922 191.893 195.901 181.197 182.648 182.622C169.394 184.046 159.928 197.053 161.503 211.672C163.078 226.291 175.099 236.987 188.353 235.562C201.606 234.138 211.073 221.131 209.498 206.512Z" fill="#E8EEEE"/>
<path d="M209.499 206.511C207.927 191.925 195.93 181.253 182.702 182.675C169.474 184.097 160.025 197.075 161.597 211.661C163.169 226.247 175.166 236.918 188.394 235.496C201.622 234.074 211.071 221.097 209.499 206.511Z" fill="#E9EFEF"/>
<path d="M209.499 206.503C207.93 191.946 195.956 181.296 182.754 182.716C169.552 184.135 160.122 197.086 161.69 211.642C163.259 226.199 175.233 236.849 188.435 235.429C201.637 234.01 211.068 221.059 209.499 206.503Z" fill="#EAF0F0"/>
<path d="M209.494 206.502C207.928 191.975 195.981 181.347 182.808 182.763C169.635 184.179 160.226 197.103 161.791 211.63C163.357 226.157 175.304 236.786 188.477 235.37C201.65 233.953 211.059 221.029 209.494 206.502Z" fill="#EBF1F1"/>
<path d="M209.488 206.501C207.926 192.004 196.002 181.397 182.855 182.81C169.708 184.224 160.317 197.122 161.879 211.62C163.442 226.117 175.366 236.724 188.513 235.31C201.659 233.897 211.051 220.999 209.488 206.501Z" fill="#ECF1F1"/>
<path d="M209.497 206.506C207.938 192.038 196.037 181.453 182.916 182.863C169.794 184.274 160.422 197.146 161.981 211.614C163.54 226.082 175.441 236.667 188.562 235.256C201.683 233.846 211.056 220.974 209.497 206.506Z" fill="#EDF2F2"/>
<path d="M209.484 206.506C207.928 192.067 196.054 181.504 182.962 182.911C169.871 184.319 160.519 197.164 162.075 211.603C163.631 226.041 175.505 236.605 188.597 235.197C201.689 233.79 211.04 220.944 209.484 206.506Z" fill="#EEF3F3"/>
<path d="M209.486 206.504C207.933 192.095 196.082 181.553 183.016 182.958C169.95 184.363 160.617 197.182 162.169 211.591C163.722 226 175.573 236.542 188.639 235.137C201.705 233.733 211.039 220.913 209.486 206.504Z" fill="#EFF3F3"/>
<path d="M209.48 206.504C207.93 192.124 196.106 181.604 183.069 183.005C170.033 184.407 160.72 197.2 162.27 211.579C163.82 225.959 175.644 236.479 188.681 235.078C201.717 233.676 211.03 220.883 209.48 206.504Z" fill="#F0F4F4"/>
<path d="M209.481 206.496C207.934 192.146 196.133 181.647 183.122 183.046C170.111 184.444 160.817 197.211 162.364 211.561C163.91 225.911 175.711 236.41 188.722 235.011C201.733 233.612 211.027 220.845 209.481 206.496Z" fill="#F1F5F5"/>
<path d="M209.482 206.494C207.939 192.177 196.162 181.703 183.176 183.099C170.191 184.495 160.915 197.233 162.458 211.549C164.001 225.866 175.778 236.34 188.763 234.944C201.749 233.548 211.025 220.811 209.482 206.494Z" fill="#F2F5F5"/>
<path d="M209.476 206.493C207.937 192.206 196.186 181.753 183.23 183.146C170.274 184.539 161.019 197.25 162.559 211.537C164.099 225.825 175.85 236.278 188.805 234.885C201.761 233.492 211.016 220.781 209.476 206.493Z" fill="#F3F6F6"/>
<path d="M209.478 206.498C207.942 192.241 196.214 181.81 183.284 183.2C170.354 184.59 161.118 197.275 162.654 211.533C164.19 225.79 175.918 236.221 188.848 234.831C201.778 233.441 211.015 220.756 209.478 206.498Z" fill="#F4F7F7"/>
<path d="M209.473 206.498C207.939 192.27 196.238 181.86 183.337 183.247C170.436 184.634 161.221 197.292 162.755 211.521C164.288 225.749 175.989 236.159 188.89 234.772C201.791 233.385 211.006 220.726 209.473 206.498Z" fill="#F5F7F7"/>
<path d="M209.474 206.496C207.944 192.298 196.266 181.91 183.391 183.294C170.516 184.678 161.319 197.31 162.849 211.509C164.379 225.708 176.056 236.096 188.932 234.712C201.807 233.327 211.004 220.695 209.474 206.496Z" fill="#F5F8F8"/>
<path d="M209.475 206.495C207.948 192.326 196.294 181.959 183.444 183.341C170.595 184.722 161.416 197.328 162.943 211.498C164.47 225.667 176.125 236.033 188.974 234.652C201.823 233.27 211.002 220.664 209.475 206.495Z" fill="#F6F9F9"/>
<path d="M209.469 206.488C207.945 192.348 196.317 182.003 183.497 183.381C170.677 184.759 161.52 197.339 163.043 211.479C164.567 225.618 176.195 235.963 189.015 234.585C201.835 233.207 210.992 220.627 209.469 206.488Z" fill="#F7F9F9"/>
<path d="M209.47 206.486C207.949 192.376 196.345 182.052 183.55 183.428C170.756 184.804 161.617 197.357 163.137 211.467C164.658 225.577 176.262 235.901 189.057 234.525C201.851 233.15 210.99 220.596 209.47 206.486Z" fill="#F8FAFA"/>
<path d="M209.464 206.485C207.947 192.405 196.369 182.103 183.604 183.475C170.839 184.847 161.721 197.374 163.238 211.455C164.756 225.536 176.334 235.838 189.099 234.465C201.864 233.093 210.982 220.566 209.464 206.485Z" fill="#F9FBFB"/>
<path d="M209.459 206.485C207.945 192.437 196.391 182.16 183.651 183.53C170.912 184.899 161.812 197.397 163.326 211.445C164.84 225.492 176.394 235.769 189.133 234.4C201.873 233.03 210.973 220.532 209.459 206.485Z" fill="#FAFCFC"/>
<path d="M209.468 206.489C207.957 192.471 196.426 182.216 183.713 183.582C170.999 184.949 161.917 197.421 163.428 211.439C164.938 225.457 176.469 235.713 189.183 234.346C201.897 232.979 210.978 220.507 209.468 206.489Z" fill="#FBFCFC"/>
<path d="M209.462 206.488C207.954 192.5 196.45 182.266 183.766 183.629C171.081 184.993 162.021 197.438 163.528 211.427C165.036 225.415 176.54 235.649 189.225 234.286C201.909 232.922 210.969 220.477 209.462 206.488Z" fill="#FCFDFD"/>
<path d="M209.456 206.488C207.952 192.529 196.471 182.316 183.813 183.677C171.154 185.038 162.112 197.457 163.616 211.416C165.12 225.375 176.602 235.588 189.26 234.227C201.918 232.866 210.961 220.447 209.456 206.488Z" fill="#FDFEFE"/>
<path d="M209.457 206.479C207.956 192.55 196.501 182.359 183.872 183.717C171.243 185.074 162.222 197.467 163.723 211.396C165.224 225.326 176.679 235.517 189.308 234.159C201.937 232.802 210.958 220.409 209.457 206.479Z" fill="#FEFEFE"/>
<path d="M209.451 206.479C207.953 192.579 196.522 182.409 183.919 183.764C171.315 185.119 162.312 197.486 163.81 211.386C165.308 225.286 176.74 235.455 189.343 234.1C201.946 232.745 210.949 220.379 209.451 206.479Z" fill="white"/>
<path d="M208.944 207.26C207.904 197.606 200.651 190.469 192.744 191.319C184.838 192.169 179.272 200.684 180.312 210.338C181.352 219.992 188.605 227.129 196.512 226.279C204.418 225.429 209.984 216.914 208.944 207.26Z" fill="#472317"/>
<path d="M196.085 202.308C195.787 199.508 197.361 197.037 199.609 196.793C201.857 196.549 203.921 198.629 204.226 201.428C204.525 204.228 202.95 206.699 200.702 206.943C198.454 207.187 196.391 205.108 196.085 202.308Z" fill="white"/>
<path d="M188.891 217.338C188.695 215.494 189.73 213.869 191.207 213.709C192.683 213.549 194.043 214.918 194.246 216.761C194.449 218.605 193.407 220.231 191.93 220.39C190.454 220.55 189.094 219.182 188.891 217.338Z" fill="white"/>
<path d="M315.989 231.395C324.857 229.8 333.966 230.435 342.492 233.387C343.462 233.724 343.012 235.181 342.023 234.909C333.705 232.64 324.98 232.102 316.462 233.44C315.14 233.646 314.652 231.638 315.989 231.395Z" fill="#985119"/>
<path d="M302.739 227.403C318.069 221.554 334.946 221.191 351.104 222.694C355.867 223.133 360.591 223.828 365.309 224.578C366.124 224.711 366.134 225.985 365.267 225.906C349.103 224.464 332.833 223.43 316.756 226.207C312.266 226.985 307.857 228.119 303.52 229.527C302.305 229.923 301.52 227.866 302.726 227.405L302.739 227.403Z" fill="#985119"/>
<g style="mix-blend-mode:overlay" opacity="0.2">
<path d="M238.205 282.575C204.326 285.217 166.403 280.977 144.184 251.95C123.37 224.679 131.271 191.174 144.818 161.981C152.199 146.234 159.655 131.047 170.244 118.411C164.549 122.349 159.145 126.892 154.532 131.789C141.489 145.639 131.514 163.507 124.4 181.068C117.991 196.907 112.452 214.085 112.283 231.355C111.703 289.874 180.817 299.327 225.418 295.529C253.086 293.173 289.906 283.807 308.049 261.13C286.824 273.377 262.667 280.769 238.192 282.583L238.205 282.575Z" fill="black"/>
</g>
<path d="M244.819 219.977C244.53 218.348 242.145 218.678 242.294 220.319C242.876 226.952 243.651 233.559 243.94 240.218C244.209 246.635 244.116 253.062 243.975 259.487C243.746 259.539 243.513 259.618 243.286 259.73C242.042 260.36 241.245 261.505 240.688 262.767C240.392 263.275 240.142 263.817 239.95 264.393C239.739 265.031 239.52 265.854 239.468 266.661C239.17 268.051 239.131 269.602 240.647 269.979C241.716 270.248 242.557 269.585 243.201 268.657C245.029 266.761 246.546 262.718 246.506 261.429C246.478 260.429 245.96 259.794 245.258 259.544C246.103 253.28 246.387 246.97 246.354 240.65C246.317 233.76 246.023 226.769 244.825 219.976L244.819 219.977Z" fill="#985119"/>
<path d="M240.098 271.504C238.147 271.647 237.237 269.12 236.932 267.615C236.602 265.979 236.788 264.313 237.338 262.747C237.563 262.113 236.677 261.752 236.386 262.347C235.224 264.722 235.043 267.322 235.956 269.822C236.666 271.773 238.07 273.569 240.332 273.229C241.443 273.058 241.202 271.429 240.099 271.511L240.098 271.504Z" fill="#B57C3A"/>
<path d="M254.152 216.392C254.152 216.392 254.16 216.452 254.165 216.486C254.38 218.87 248.236 224.225 245.577 226.416C245.552 226.433 245.529 226.457 245.504 226.474C245.027 226.837 244.4 226.99 243.803 226.921C243.673 226.905 243.548 226.881 243.422 226.844C243.281 226.802 243.146 226.753 243.015 226.682C242.965 226.662 242.921 226.634 242.87 226.607C242.717 226.526 242.564 226.445 242.397 226.353C242.266 226.282 242.127 226.206 241.982 226.131C241.888 226.083 241.792 226.028 241.697 225.973C241.391 225.804 241.069 225.624 240.741 225.438C240.433 225.263 240.112 225.083 239.789 224.889C239.76 224.873 239.73 224.857 239.708 224.839C239.568 224.757 239.422 224.675 239.282 224.585C239.069 224.458 238.855 224.325 238.635 224.198C238.489 224.11 238.348 224.02 238.208 223.931C237.352 223.396 236.501 222.84 235.722 222.275C235.647 222.217 235.573 222.166 235.491 222.11C235.461 222.093 235.438 222.069 235.408 222.046C235.318 221.984 235.236 221.921 235.153 221.857C234.446 221.323 233.827 220.79 233.339 220.279C233.331 220.267 233.316 220.256 233.307 220.243C232.693 219.594 232.3 218.983 232.249 218.461C231.988 215.541 236.423 214.058 242.153 213.457C242.379 213.433 242.605 213.409 242.839 213.391C243.272 213.353 243.707 213.321 244.134 213.29C249.534 212.944 253.821 213.651 254.165 216.391L254.152 216.392Z" fill="#985119"/>
<g style="mix-blend-mode:overlay" opacity="0.35">
<path d="M247.798 219.057C244.833 219.941 241.647 220.481 238.553 220.609C236.855 220.677 235.009 220.65 233.294 220.245C235.498 222.563 240.571 225.387 243.014 226.682C243.815 227.109 244.88 226.999 245.578 226.423C248.236 224.225 254.38 218.87 254.165 216.492C254.161 216.459 254.157 216.432 254.153 216.406C252.129 217.501 250.012 218.411 247.8 219.071L247.798 219.057Z" fill="black"/>
</g>
<g style="mix-blend-mode:overlay" opacity="0.46">
<path d="M249.697 214.698C246.73 214.416 242.126 214.457 238.196 215.39C237.341 215.601 236.502 215.884 235.702 216.257C235.327 216.478 234.825 216.607 234.587 216.992C234.078 217.718 234.611 218.114 235.453 217.85C243.792 215.201 250.454 216.446 251.072 215.976C252.075 215.264 250.931 214.693 249.698 214.705L249.697 214.698Z" fill="white"/>
</g>
<path d="M124.529 335.585C126.145 334.708 127.956 334.178 129.686 334.045C135.455 333.588 141.068 335.959 146.048 338.646C147.599 339.48 149.135 340.356 150.685 341.19C153.329 342.621 152.748 346.646 149.796 347.175C147.747 347.541 145.599 347.378 143.653 346.611C145.145 349.65 147.494 351.548 147.543 352.653C147.596 354.042 144.454 357.194 141.898 356.212C142.554 357.472 142.221 359.341 141.161 360.285C140.101 361.228 138.386 361.319 137.222 360.5C137.321 361.328 136.636 362.098 135.845 362.341C135.055 362.584 134.19 362.43 133.391 362.206C128.805 360.937 125.034 357.57 122.647 353.501C120.768 350.298 119.224 346.426 119.481 342.649C119.698 339.474 121.838 337.041 124.542 335.576L124.529 335.585Z" fill="url(#paint16_linear_1194_212329)"/>
<g style="mix-blend-mode:overlay" opacity="0.3">
<path d="M124.038 346.688C124.837 339.59 130.21 335.865 136.44 334.681C134.232 334.126 131.97 333.864 129.685 334.038C127.956 334.178 126.144 334.701 124.529 335.578C121.825 337.043 119.685 339.475 119.468 342.651C119.211 346.428 120.756 350.306 122.634 353.503C123.59 355.129 124.774 356.643 126.133 357.957C124.545 354.606 123.728 350.873 124.037 346.682L124.038 346.688Z" fill="black"/>
</g>
<g style="mix-blend-mode:overlay" opacity="0.2">
<path d="M106.027 397.612C98.4466 411.88 82.1738 419.633 66.1628 419.662C73.3735 423.864 81.6979 426.823 89.2287 424.825C100.433 421.848 108.921 416.806 113.852 413.31C114.594 413.704 115.335 414.092 116.094 414.463C135.758 424.203 156.983 429.277 175.421 426.295C191.005 431.72 211.116 440.477 221.909 451.732C222.142 451.565 222.381 451.383 222.626 451.201C217.918 438.185 210.303 426.072 201.624 415.426C169.124 422.708 133.945 416.103 106.034 397.611L106.027 397.612Z" fill="black"/>
</g>
<path d="M57.1493 386.092C52.6734 389.316 39.4088 399.942 35.4127 403.867C31.4756 407.729 28.597 410.838 26.484 413.471C25.8537 414.248 25.2928 414.988 24.7936 415.686C23.0679 418.09 22.027 420.068 21.3436 421.897C21.126 422.482 20.9407 423.056 20.7876 423.62C20.5746 424.387 20.4136 425.141 20.2753 425.913C28.6642 425.765 35.1374 423.484 40.6058 418.172C46.0808 412.86 57.9078 388.301 57.1493 386.092Z" fill="url(#paint17_linear_1194_212329)"/>
<g style="mix-blend-mode:overlay" opacity="0.2">
<path d="M57.1516 386.756C44.565 397.853 33.5051 410.851 26.0322 425.417C24.217 425.717 22.3016 425.875 20.2753 425.913C20.4136 425.141 20.5746 424.387 20.7876 423.62C20.9407 423.056 21.1194 422.483 21.3436 421.897C22.026 420.062 23.067 418.083 24.7936 415.686C25.2928 414.988 25.8537 414.248 26.484 413.471C28.6046 410.844 31.4756 407.729 35.4127 403.867C39.4154 399.941 52.6734 389.316 57.1493 386.092C57.1948 386.228 57.198 386.451 57.145 386.757L57.1516 386.756Z" fill="black"/>
</g>
</g>
<path d="M218.406 5.89844L220.003 64.9361" stroke="white" stroke-width="10" stroke-linecap="round"/>
<path d="M299.667 46.8594L251.258 80.6903" stroke="white" stroke-width="10" stroke-linecap="round"/>
<path d="M258.016 16.875L235.022 72.4723" stroke="white" stroke-width="10" stroke-linecap="round"/>
<defs>
<linearGradient id="paint0_linear_1194_212329" x1="263.45" y1="354.023" x2="205.931" y2="289.757" gradientUnits="userSpaceOnUse">
<stop stop-color="#EFC697"/>
<stop offset="1" stop-color="#F0C698"/>
</linearGradient>
<linearGradient id="paint1_linear_1194_212329" x1="270.649" y1="311.855" x2="295.67" y2="296.391" gradientUnits="userSpaceOnUse">
<stop stop-color="#A86326"/>
<stop offset="0.34" stop-color="#B87739"/>
<stop offset="0.68" stop-color="#C28345"/>
<stop offset="1" stop-color="#C6884A"/>
</linearGradient>
<linearGradient id="paint2_linear_1194_212329" x1="284.058" y1="300.541" x2="291.878" y2="290.488" gradientUnits="userSpaceOnUse">
<stop stop-color="#A86326"/>
<stop offset="0.34" stop-color="#B87739"/>
<stop offset="0.68" stop-color="#C28345"/>
<stop offset="1" stop-color="#C6884A"/>
</linearGradient>
<linearGradient id="paint3_linear_1194_212329" x1="289.278" y1="304.501" x2="297.098" y2="294.448" gradientUnits="userSpaceOnUse">
<stop stop-color="#A86326"/>
<stop offset="0.34" stop-color="#B87739"/>
<stop offset="0.68" stop-color="#C28345"/>
<stop offset="1" stop-color="#C6884A"/>
</linearGradient>
<linearGradient id="paint4_linear_1194_212329" x1="292.699" y1="308.235" x2="299.292" y2="299.743" gradientUnits="userSpaceOnUse">
<stop stop-color="#A86326"/>
<stop offset="0.34" stop-color="#B87739"/>
<stop offset="0.68" stop-color="#C28345"/>
<stop offset="1" stop-color="#C6884A"/>
</linearGradient>
<linearGradient id="paint5_linear_1194_212329" x1="-68.4315" y1="246.237" x2="95.7332" y2="344.641" gradientUnits="userSpaceOnUse">
<stop stop-color="#C6884A"/>
<stop offset="0.32" stop-color="#C28345"/>
<stop offset="0.66" stop-color="#B87739"/>
<stop offset="1" stop-color="#A86326"/>
</linearGradient>
<linearGradient id="paint6_linear_1194_212329" x1="199.235" y1="393.322" x2="239.7" y2="444.202" gradientUnits="userSpaceOnUse">
<stop offset="0.51" stop-color="#DFAB71"/>
<stop offset="0.68" stop-color="#E0AC73"/>
<stop offset="0.8" stop-color="#E3B37C"/>
<stop offset="0.9" stop-color="#EABD8B"/>
<stop offset="0.99" stop-color="#F3CCA0"/>
<stop offset="1" stop-color="#F5CFA4"/>
</linearGradient>
<linearGradient id="paint7_linear_1194_212329" x1="116.339" y1="439.657" x2="199.596" y2="255.84" gradientUnits="userSpaceOnUse">
<stop offset="0.13" stop-color="#DEAA6F"/>
<stop offset="0.92" stop-color="#F5CFA4"/>
</linearGradient>
<linearGradient id="paint8_linear_1194_212329" x1="190.444" y1="352.846" x2="162.167" y2="420.905" gradientUnits="userSpaceOnUse">
<stop stop-color="#F5CFA4"/>
<stop offset="0.28" stop-color="#F5D1A8"/>
<stop offset="0.58" stop-color="#F8D8B5"/>
<stop offset="0.91" stop-color="#FDE4CC"/>
<stop offset="1" stop-color="#FFE9D4"/>
</linearGradient>
<linearGradient id="paint9_linear_1194_212329" x1="69.7536" y1="418.023" x2="99.7774" y2="384.283" gradientUnits="userSpaceOnUse">
<stop stop-color="#F5CFA4"/>
<stop offset="0.79" stop-color="#E0AE75"/>
</linearGradient>
<linearGradient id="paint10_linear_1194_212329" x1="104.116" y1="322.984" x2="174.833" y2="273.94" gradientUnits="userSpaceOnUse">
<stop stop-color="#EFC697"/>
<stop offset="1" stop-color="#F0C698"/>
</linearGradient>
<linearGradient id="paint11_linear_1194_212329" x1="-15.6281" y1="117.761" x2="154.178" y2="206.684" gradientUnits="userSpaceOnUse">
<stop stop-color="#F5CFA4"/>
<stop offset="0.08" stop-color="#EFC698"/>
<stop offset="0.31" stop-color="#DFB07B"/>
<stop offset="0.55" stop-color="#D4A166"/>
<stop offset="0.78" stop-color="#CE985A"/>
<stop offset="1" stop-color="#CC9556"/>
</linearGradient>
<linearGradient id="paint12_linear_1194_212329" x1="0.436605" y1="142.935" x2="141.915" y2="202.602" gradientUnits="userSpaceOnUse">
<stop stop-color="#FFE9D4"/>
<stop offset="0.09" stop-color="#FDE4CC"/>
<stop offset="0.42" stop-color="#F8D8B5"/>
<stop offset="0.72" stop-color="#F5D1A8"/>
<stop offset="1" stop-color="#F5CFA4"/>
</linearGradient>
<linearGradient id="paint13_linear_1194_212329" x1="416.011" y1="94.2036" x2="247.559" y2="185.3" gradientUnits="userSpaceOnUse">
<stop stop-color="#F5CFA4"/>
<stop offset="0.08" stop-color="#EFC698"/>
<stop offset="0.31" stop-color="#DFB07B"/>
<stop offset="0.55" stop-color="#D4A166"/>
<stop offset="0.78" stop-color="#CE985A"/>
<stop offset="1" stop-color="#CC9556"/>
</linearGradient>
<linearGradient id="paint14_linear_1194_212329" x1="400.501" y1="119.943" x2="259.984" y2="181.483" gradientUnits="userSpaceOnUse">
<stop stop-color="#FFE9D4"/>
<stop offset="0.09" stop-color="#FDE4CC"/>
<stop offset="0.42" stop-color="#F8D8B5"/>
<stop offset="0.72" stop-color="#F5D1A8"/>
<stop offset="1" stop-color="#F5CFA4"/>
</linearGradient>
<linearGradient id="paint15_linear_1194_212329" x1="224.547" y1="295.878" x2="195.997" y2="85.3659" gradientUnits="userSpaceOnUse">
<stop stop-color="#DEAA6F"/>
<stop offset="1" stop-color="#F5CFA4"/>
</linearGradient>
<linearGradient id="paint16_linear_1194_212329" x1="130.63" y1="332.493" x2="142.74" y2="359.409" gradientUnits="userSpaceOnUse">
<stop stop-color="#A86326"/>
<stop offset="0.34" stop-color="#B87739"/>
<stop offset="0.68" stop-color="#C28345"/>
<stop offset="1" stop-color="#C6884A"/>
</linearGradient>
<linearGradient id="paint17_linear_1194_212329" x1="17.4011" y1="409.054" x2="59.0464" y2="403.218" gradientUnits="userSpaceOnUse">
<stop stop-color="#C6884A"/>
<stop offset="0.32" stop-color="#C28345"/>
<stop offset="0.66" stop-color="#B87739"/>
<stop offset="1" stop-color="#A86326"/>
</linearGradient>
<clipPath id="clip0_1194_212329">
<rect width="449.266" height="383.918" fill="white" transform="translate(-78.0425 105.217) rotate(-7.72348)"/>
</clipPath>
</defs>
</svg>
