<svg width="231" height="196" viewBox="0 0 231 196" fill="none" xmlns="http://www.w3.org/2000/svg">
<path d="M121.44 108.748C124.984 119.155 129.77 131.019 136.471 139.448C140.007 143.897 144.359 148.217 149.734 148.92C154.175 149.5 158.612 147.436 162.046 144.375C165.48 141.314 168.065 137.325 170.612 133.384C169.462 131.494 167.723 129.692 165.86 128.658C164.573 130.05 157.691 136.308 153.589 135.131C151.806 134.619 149.176 120.871 148.046 113.187C141.531 111.624 129.633 107.867 121.444 108.751L121.44 108.748Z" fill="url(#paint0_linear_2_163965)"/>
<g style="mix-blend-mode:overlay" opacity="0.6">
<path d="M121.44 108.748C124.984 119.155 129.77 131.019 136.471 139.448C140.007 143.897 144.359 148.217 149.734 148.92C154.175 149.5 158.612 147.436 162.046 144.375C165.48 141.314 168.065 137.325 170.612 133.384C169.462 131.494 167.723 129.692 165.86 128.658C164.573 130.05 157.691 136.308 153.589 135.131C151.806 134.619 149.176 120.871 148.046 113.187C141.531 111.624 129.633 107.867 121.444 108.751L121.44 108.748Z" fill="black"/>
</g>
<path d="M165.117 131.515C164.672 130.689 164.401 129.764 164.333 128.88C164.103 125.936 165.312 123.076 166.681 120.537C167.308 119.377 167.972 118.238 168.565 117.06C168.975 116.241 170.146 116.262 170.54 117.088C171.228 118.538 171.334 120.268 170.745 121.766C172.293 121.008 173.262 119.811 173.823 119.787C174.532 119.759 176.138 121.37 175.635 122.67C176.278 122.336 177.23 122.506 177.709 123.052C178.189 123.595 178.237 124.472 177.819 125.062C178.24 125.011 178.63 125.362 178.757 125.768C178.884 126.174 178.802 126.611 178.689 127.021C178.038 129.361 176.323 131.279 174.248 132.494C172.615 133.449 170.643 134.234 168.715 134.098C167.099 133.985 165.86 132.89 165.113 131.511L165.117 131.515Z" fill="url(#paint1_linear_2_163965)"/>
<g style="mix-blend-mode:overlay" opacity="0.3">
<path d="M170.779 131.774C167.16 131.357 165.264 128.614 164.665 125.434C164.384 126.56 164.243 127.713 164.336 128.88C164.404 129.76 164.675 130.688 165.12 131.514C165.866 132.896 167.106 133.988 168.722 134.101C170.649 134.237 172.621 133.452 174.254 132.497C175.086 132.009 175.857 131.408 176.528 130.716C174.819 131.524 172.916 131.934 170.783 131.774H170.779Z" fill="black"/>
</g>
<path d="M175.71 122.54C175.775 122.021 175.84 121.496 175.792 120.977C175.744 120.455 175.577 119.933 175.224 119.544C174.745 119.012 173.974 118.804 173.262 118.885C172.55 118.967 171.889 119.312 171.317 119.738C170.167 120.598 169.301 121.83 168.88 123.198C168.784 123.512 168.709 123.84 168.746 124.168C168.784 124.495 168.941 124.823 169.226 124.99C169.677 125.259 170.256 125.058 170.725 124.819C171.951 124.195 173.057 123.345 173.974 122.325C174.484 122.455 175.19 122.482 175.714 122.54H175.71Z" fill="url(#paint2_linear_2_163965)"/>
<path d="M178.086 124.891C178.151 124.372 178.216 123.846 178.168 123.328C178.12 122.806 177.953 122.284 177.6 121.895C177.121 121.362 176.35 121.154 175.638 121.236C174.926 121.318 174.265 121.663 173.693 122.089C172.543 122.949 171.677 124.181 171.256 125.549C171.16 125.863 171.085 126.191 171.122 126.518C171.16 126.846 171.317 127.173 171.602 127.341C172.053 127.61 172.632 127.409 173.101 127.17C174.327 126.545 175.433 125.696 176.35 124.676C176.86 124.805 177.566 124.833 178.09 124.891H178.086Z" fill="url(#paint3_linear_2_163965)"/>
<path d="M178.384 127.818C178.729 127.228 178.856 126.136 178.815 125.696C178.774 125.256 178.63 124.812 178.336 124.484C177.932 124.037 177.281 123.857 176.682 123.928C176.079 123.997 175.525 124.287 175.042 124.648C174.07 125.375 173.34 126.412 172.984 127.569C172.902 127.835 172.841 128.112 172.871 128.388C172.902 128.665 173.036 128.941 173.275 129.084C173.655 129.313 174.145 129.142 174.539 128.941C175.573 128.415 176.507 127.695 177.281 126.836C177.713 126.945 177.945 127.77 178.387 127.822L178.384 127.818Z" fill="url(#paint4_linear_2_163965)"/>
<path d="M70.5701 126.986C64.0992 133.5 55.3926 137.11 47.2133 137.677C39.0374 138.24 31.3717 135.953 24.8015 132.193C18.4436 128.552 12.8458 123.308 10.4355 116.033C8.02178 108.758 9.32623 99.2239 15.0473 92.4028C20.2685 86.1755 28.3177 82.927 32.974 76.2799C36.7572 70.8783 37.5002 63.8116 35.0282 58.8263C32.5563 53.8376 27.0749 51.0634 21.1998 51.5377C15.3246 52.012 9.22694 55.6119 5.11503 60.7781C2.51299 64.047 0.623082 68.1622 1.01681 71.8815C1.41397 75.6009 4.66309 78.5218 8.40182 77.5391C4.34469 76.1196 3.33811 69.899 5.76896 65.4119C8.20324 60.9282 12.9965 57.9869 17.6014 56.871C23.3944 55.4686 29.9029 57.1816 31.3238 62.6309C32.635 67.6538 29.1702 73.7139 24.9933 77.9519C20.8129 82.19 15.78 85.4657 11.9385 90.0279C4.82743 98.4766 3.06078 110.29 5.98123 119.353C8.90168 128.412 15.8724 134.95 23.9216 139.205C31.0601 142.979 39.3079 145.18 48.0316 144.371C56.7553 143.563 65.972 139.54 72.7613 132.504C72.2751 129.358 71.0563 130.136 70.5701 126.986Z" fill="url(#paint5_linear_2_163965)"/>
<g style="mix-blend-mode:overlay" opacity="0.3">
<path d="M70.5696 126.986C64.0987 133.5 55.3922 137.11 47.2129 137.676C46.0967 137.755 44.9874 137.775 43.8918 137.748C41.5089 139.891 35.9967 140.659 32.5045 139.639C19.5764 135.854 9.67155 127.706 7.34683 115.449C6.07662 108.758 6.91544 99.8107 10.9863 93.2796C13.513 89.2293 19.1313 85.1414 22.5345 81.7838C25.9343 78.4261 28.8034 76.1467 30.7618 71.8507C32.6962 67.6024 32.9119 62.5045 30.2585 59.6689L29.9709 59.8805C30.5837 60.6585 31.0528 61.573 31.3267 62.6274C32.638 67.6502 29.1732 73.7104 24.9962 77.9484C20.8158 82.1864 15.7829 85.4622 11.9415 90.0278C4.83038 98.4765 3.06373 110.29 5.98418 119.353C8.90463 128.412 15.8754 134.95 23.9246 139.205C31.0631 142.979 39.3109 145.18 48.0345 144.371C56.7582 143.563 65.975 139.54 72.7642 132.503C72.2781 129.357 71.0592 130.135 70.573 126.986H70.5696Z" fill="black"/>
</g>
<path d="M138.206 189.931C138.206 189.931 136.682 152.174 133.851 143.367C127.092 155.9 113.582 166.492 105.704 178.36C113.431 182.106 124.216 188.293 129.29 195.203C132.529 193.452 138.209 189.931 138.209 189.931H138.206Z" fill="url(#paint6_linear_2_163965)"/>
<path d="M146.259 123.774C143.181 139.164 135.618 159.948 127.77 169.417C115.322 184.448 94.9334 180.472 78.1673 169.219C66.5814 161.439 59.4669 148.124 62.7228 134.66C63.0652 133.25 64.1985 131.681 65.8384 130.026C65.9309 129.934 66.0199 129.841 66.1123 129.753C66.9546 128.924 67.9201 128.074 68.9677 127.214C69.0773 127.125 69.1834 127.037 69.2964 126.948C69.4162 126.852 69.5327 126.757 69.6525 126.661C69.7723 126.566 69.8921 126.474 70.012 126.375C70.6693 125.856 71.3507 125.337 72.0525 124.819C72.2134 124.696 72.3778 124.576 72.5421 124.457C72.6311 124.392 72.7202 124.327 72.8092 124.262C72.9735 124.14 73.1413 124.02 73.309 123.897C73.4939 123.764 73.6822 123.628 73.8705 123.495C74.2026 123.256 74.5382 123.02 74.8737 122.782C76.8492 121.386 78.8829 120.004 80.8276 118.673C81.0844 118.499 81.3377 118.322 81.5911 118.151C82.7894 117.325 83.95 116.52 85.0285 115.749C85.1483 115.664 85.2647 115.578 85.3811 115.496C85.6516 115.298 85.9153 115.107 86.1755 114.916C86.3638 114.78 86.5486 114.643 86.7267 114.507C86.7609 114.48 86.7952 114.456 86.826 114.432C86.9595 114.333 87.093 114.23 87.2231 114.128C87.8976 113.613 88.5139 113.118 89.0651 112.644C102.496 101.134 106.047 93.1563 107.831 92.9789C121.399 91.6311 147.108 97.2135 147.673 110.719C147.81 114.039 147.282 118.602 146.248 123.774H146.259Z" fill="url(#paint7_linear_2_163965)"/>
<path d="M97.1586 139.02C96.3472 140.222 95.5734 141.429 94.8442 142.648C90.1434 150.482 91.3451 159.729 95.6351 165.616C99.23 170.553 105.564 172.648 111.912 171.416C119.67 169.908 125.812 163.776 130.205 156.392C134.214 149.65 137.357 142.347 139.64 134.987C142.095 127.074 141.691 116.68 135.2 112.961C129.222 109.535 121.464 114.111 115.726 118.782C108.96 124.29 102.291 131.449 97.162 139.024L97.1586 139.02Z" fill="url(#paint8_linear_2_163965)"/>
<g style="mix-blend-mode:overlay" opacity="0.3">
<path d="M127.859 157.613C128.27 155.777 128.678 153.944 129.089 152.109C127.195 154.555 125.302 157.005 123.409 159.452C124.251 155.814 125.093 152.173 125.939 148.536C123.299 151.668 120.656 154.798 118.016 157.93C119.396 153.706 120.776 149.485 122.155 145.26C118.999 148.045 115.842 150.832 112.685 153.617C114.26 149.717 115.51 145.714 116.4 141.688C111.939 146.321 107.478 150.955 103.017 155.593C106.177 148.86 108.748 141.896 110.679 134.846C107.766 136.928 104.852 139.012 101.938 141.094C102.671 139.002 103.671 136.972 104.89 135.085C103.167 136.467 101.445 137.852 99.7197 139.234C101.51 135.798 103.842 132.614 106.557 129.902C105.53 131.25 104.684 132.529 103.654 133.877C105.944 132.27 108.235 130.663 110.525 129.055C109.207 131 107.885 132.945 106.567 134.89C109.549 132.137 112.97 129.994 116.517 128.656C114.411 133.983 112.305 139.309 110.2 144.636C114.524 140.377 118.848 136.119 123.172 131.86C120.892 137.415 118.615 142.967 116.335 148.522C120.002 143.643 124.08 139.101 128.476 134.989C126.795 140.248 124.634 145.417 122.043 150.382C125.24 146.635 128.435 142.885 131.632 139.139C130.034 143.633 128.438 148.127 126.839 152.624C128.746 149.727 130.999 147.062 133.502 144.742C131.985 149.239 130.061 153.344 127.856 157.613H127.859Z" fill="white"/>
</g>
<path d="M44.0938 159.75C44.0938 159.75 54.1561 173.812 63.8282 172.607C73.5037 171.402 79.8513 166.881 79.8513 166.881L63.5748 139.126C63.5748 139.126 62.5546 141.634 61.4932 145.285C60.1477 149.912 58.6275 155.901 57.7819 155.73C56.2686 155.43 49.9826 151.199 49.9826 151.199L44.0938 159.75Z" fill="url(#paint9_linear_2_163965)"/>
<g style="mix-blend-mode:overlay" opacity="0.4">
<path d="M146.259 123.775C144.745 123.509 142.917 123.226 140.846 122.942C133.639 121.949 123.501 120.95 113.63 120.54C105.321 120.192 97.2032 120.26 91.198 121.11C91.7595 127.095 92.4477 133.111 93.4098 138.922C83.5391 138.233 73.9595 135.401 65.8418 130.03C65.9342 129.938 66.0233 129.845 66.1157 129.757C66.9579 128.927 67.9234 128.078 68.9711 127.218C69.0807 127.129 69.1868 127.041 69.2998 126.952C69.4196 126.856 69.536 126.761 69.6558 126.665C69.7757 126.57 69.8955 126.474 70.0153 126.379C70.6727 125.86 71.354 125.341 72.0559 124.823C72.2168 124.7 72.3811 124.58 72.5455 124.461C72.6345 124.396 72.7235 124.331 72.8125 124.266C72.9769 124.143 73.1446 124.024 73.3124 123.901C73.4973 123.768 73.6856 123.632 73.8739 123.499C74.206 123.26 74.5415 123.024 74.877 122.785C76.8525 121.39 78.8862 120.008 80.8309 118.677C81.0877 118.503 81.3411 118.326 81.5944 118.155C82.7927 117.329 83.9534 116.524 85.0319 115.753C85.1517 115.667 85.2681 115.582 85.3845 115.5C85.655 115.302 85.9186 115.111 86.1788 114.92C86.3671 114.784 86.552 114.647 86.73 114.511C86.7643 114.483 86.7985 114.46 86.8293 114.436C86.9628 114.333 87.0964 114.234 87.2265 114.132C87.901 113.617 88.5172 113.122 89.0684 112.648C102.5 101.138 106.05 93.1602 107.834 92.9828C121.402 91.635 147.111 97.2174 147.676 110.723C147.813 114.043 147.286 118.605 146.252 123.778L146.259 123.775Z" fill="black"/>
</g>
<path d="M117.232 91.3652C106.44 93.6276 94.0497 96.9477 84.8536 102.571C79.9987 105.54 75.1746 109.327 73.8325 114.565C72.7232 118.892 74.2502 123.529 76.8899 127.289C79.5262 131.05 83.1965 134.087 86.8154 137.079C88.8354 136.165 90.8417 134.66 92.0913 132.94C90.8588 131.5 85.4493 123.942 87.1098 120.025C87.8322 118.322 113.325 111.265 121.121 111.064C123.456 104.806 117.133 99.5785 117.232 91.3686V91.3652Z" fill="url(#paint10_linear_2_163965)"/>
<path d="M108.864 62.075C106.026 69.8242 102.01 77.0855 98.0073 84.3058C96.4358 86.2577 93.8132 87.7898 90.7524 88.7076C87.9552 89.5437 84.7883 89.8678 81.724 89.5334C75.3045 88.8271 69.3643 85.4592 64.8107 80.8936C60.2572 76.328 56.9978 70.6227 54.5121 64.682C48.2912 49.8011 46.819 32.5761 52.5846 17.5144C53.3823 15.4329 54.3375 13.3753 55.4879 11.4508C57.5661 7.96011 60.2777 4.89931 63.7905 2.90656C68.1489 0.432676 73.4283 -0.161056 78.3653 0.692007C83.3058 1.54848 87.9278 3.77668 92.0534 6.61909C102.547 13.8497 110.038 25.2841 112.462 37.7695C114.037 45.8975 111.702 54.3292 108.864 62.0784V62.075Z" fill="url(#paint11_linear_2_163965)"/>
<path d="M103.164 60.4094C101.418 66.7869 98.6959 72.8505 95.9843 78.8834C94.8613 80.5485 92.8687 81.9442 90.4858 82.8791C88.3083 83.7322 85.8021 84.2031 83.3302 84.1382C78.1569 83.9983 73.189 81.7053 69.2483 78.3647C65.3076 75.0207 62.3221 70.6803 59.9392 66.1045C53.975 54.6359 51.6469 40.9801 55.2452 28.5697C55.7417 26.8567 56.3682 25.1506 57.1591 23.5332C58.5868 20.6089 60.5452 17.9849 63.2157 16.1593C66.5299 13.897 70.7034 13.0678 74.7058 13.4227C78.7081 13.7776 82.5495 15.2517 86.0315 17.2444C94.8955 22.3219 101.64 30.9514 104.41 40.7617C106.211 47.146 104.91 54.0353 103.164 60.4128V60.4094Z" fill="url(#paint12_linear_2_163965)"/>
<g style="mix-blend-mode:overlay" opacity="0.8">
<path d="M100.281 31.2624C97.1278 27.195 93.194 23.7282 88.7225 21.1656C85.2406 19.1728 81.3992 17.6987 77.3968 17.3439C73.3945 16.989 69.2209 17.8148 65.9067 20.0805C63.2362 21.906 61.2778 24.5301 59.8501 27.4544C59.0593 29.0684 58.4327 30.7745 57.9363 32.4909C54.3379 44.9012 56.6661 58.5571 62.6302 70.0256C63.2157 71.1483 63.8354 72.2607 64.4996 73.3423C62.7535 71.0868 61.2573 68.63 59.9392 66.1015C53.975 54.633 51.6469 40.9771 55.2452 28.5668C55.7417 26.8538 56.3716 25.1477 57.1591 23.5303C58.5868 20.606 60.5452 17.982 63.2157 16.1564C66.5299 13.8941 70.7034 13.0649 74.7058 13.4198C78.7081 13.7746 82.5495 15.2487 86.0315 17.2449C91.8827 20.5957 96.8128 25.4957 100.281 31.2624Z" fill="black"/>
</g>
<g style="mix-blend-mode:overlay" opacity="0.2">
<path d="M112.202 36.5032C108.868 26.3006 102.147 17.1967 93.2828 11.0888C89.1607 8.24976 84.5352 6.01815 79.5947 5.16167C74.6543 4.3052 69.3783 4.90234 65.0199 7.37622C61.5071 9.36898 58.7989 12.4298 56.7173 15.9205C55.5669 17.8484 54.6083 19.906 53.8105 21.9875C49.4384 33.4083 49.2262 46.078 52.0952 58.0209C48.0142 44.812 47.6581 30.3714 52.5848 17.514C53.3826 15.4326 54.3378 13.375 55.4882 11.447C57.5698 7.95631 60.278 4.89552 63.7907 2.90276C68.1492 0.432289 73.4286 -0.164855 78.3656 0.69162C83.3061 1.54468 87.9281 3.7763 92.0537 6.6187C102.195 13.607 109.528 24.516 112.199 36.5066L112.202 36.5032Z" fill="white"/>
</g>
<g style="mix-blend-mode:overlay" opacity="0.2">
<path d="M112.466 37.7624C111.71 33.869 110.463 30.0814 108.786 26.4883C102.127 31.4736 97.7373 38.67 92.7524 45.8665C84.2649 58.2598 79.725 71.0421 78.739 85.4008C78.6602 86.5917 78.6192 87.7826 78.6123 88.9666C79.636 89.2191 80.6734 89.4068 81.7279 89.5228C84.7922 89.8606 87.9591 89.5365 90.7563 88.6971C93.8171 87.7792 96.4397 86.2505 98.0112 84.2953C102.014 77.0715 106.03 69.8137 108.868 62.0644C111.706 54.3118 114.045 45.8835 112.466 37.7555V37.7624Z" fill="black"/>
</g>
<path d="M164.87 58.5298C165.64 66.7431 167.674 74.7823 169.704 82.7807C170.728 85.0669 172.874 87.2132 175.6 88.8749C178.092 90.3934 181.071 91.5058 184.121 91.9562C190.51 92.898 197.114 91.1441 202.681 87.882C208.248 84.6199 212.857 79.9246 216.773 74.8096C226.582 61.9898 232.396 45.7065 230.657 29.6758C230.417 27.4612 230.013 25.2296 229.393 23.0731C228.27 19.1729 226.432 15.5252 223.542 12.7066C219.957 9.2125 215.003 7.29823 210.008 6.87511C205.013 6.45199 199.973 7.43813 195.259 9.14084C183.265 13.4778 173.107 22.6397 167.581 34.1015C163.986 41.5641 164.096 50.3097 164.866 58.5264L164.87 58.5298Z" fill="url(#paint13_linear_2_163965)"/>
<path d="M170.81 58.3656C170.875 64.9751 171.964 71.53 173.049 78.0508C173.713 79.9446 175.285 81.8009 177.349 83.3091C179.239 84.6877 181.543 85.7762 183.947 86.3358C188.987 87.5096 194.376 86.5508 199.039 84.3157C203.702 82.0807 207.697 78.6377 211.166 74.8126C219.855 65.2276 225.59 52.6125 225.271 39.6971C225.227 37.9125 225.056 36.104 224.703 34.3433C224.07 31.1528 222.844 28.1193 220.725 25.6762C218.095 22.6461 214.267 20.7898 210.31 20.121C206.348 19.4522 202.257 19.9026 198.381 20.9502C188.514 23.6152 179.79 30.2554 174.61 39.042C171.241 44.7609 170.745 51.7526 170.81 58.3621V58.3656Z" fill="url(#paint14_linear_2_163965)"/>
<g style="mix-blend-mode:overlay" opacity="0.8">
<path d="M211.165 74.8131C210.155 75.9255 209.104 77.0038 208.002 78.0309C216.63 68.4629 222.31 55.8956 221.998 43.0416C221.954 41.257 221.782 39.4485 221.43 37.6844C220.796 34.4939 219.571 31.4604 217.451 29.0173C214.822 25.9872 210.998 24.1309 207.036 23.4621C203.075 22.7933 198.984 23.2471 195.108 24.2913C189.038 25.9326 183.402 29.0753 178.76 33.2962C183.902 27.3896 190.804 22.9946 198.385 20.9473C202.26 19.8997 206.352 19.4493 210.313 20.1181C214.271 20.7869 218.099 22.6432 220.728 25.6732C222.847 28.1164 224.073 31.1499 224.706 34.3404C225.059 36.1045 225.23 37.913 225.275 39.6976C225.59 52.613 219.858 65.2315 211.169 74.8131H211.165Z" fill="black"/>
</g>
<g style="mix-blend-mode:overlay" opacity="0.2">
<path d="M224.692 61.8905C228.229 52.9845 229.852 43.3927 228.821 33.8929C228.581 31.6784 228.177 29.4468 227.558 27.2902C226.435 23.3866 224.596 19.7423 221.707 16.9238C218.122 13.4297 213.168 11.5154 208.173 11.0923C203.177 10.6691 198.138 11.6553 193.423 13.3614C181.854 17.5448 171.994 26.2154 166.352 37.1107C166.701 36.0904 167.112 35.0838 167.584 34.1045C173.11 22.6427 183.268 13.4808 195.262 9.14387C199.976 7.44116 205.016 6.45502 210.011 6.87472C215.006 7.29784 219.96 9.21212 223.545 12.7063C226.435 15.5248 228.277 19.1691 229.396 23.0727C230.019 25.2292 230.42 27.4608 230.66 29.6754C231.855 40.6936 229.482 51.838 224.692 61.8905Z" fill="white"/>
</g>
<g style="mix-blend-mode:overlay" opacity="0.2">
<path d="M201.299 71.4418C198.549 52.9474 188.771 35.3504 173.522 24.7451C171.197 27.6285 169.194 30.7712 167.585 34.1083C163.99 41.5709 164.1 50.3165 164.87 58.5332C165.64 66.7465 167.674 74.7858 169.704 82.7841C170.728 85.0703 172.875 87.2166 175.6 88.8784C178.092 90.3969 181.071 91.5093 184.122 91.9597C189.922 92.8127 195.899 91.4478 201.117 88.7487C201.843 83.0708 202.117 77.3416 201.295 71.4452L201.299 71.4418Z" fill="black"/>
</g>
<path d="M193.239 72.8336C192.218 66.6813 190.496 60.587 188.452 55.0557C187.983 53.7829 187.48 52.5272 186.942 51.2818C181.69 39.1205 168.653 26.8944 156.3 21.3904C156.177 21.3358 154.903 20.7558 154.882 20.7933C155.725 19.3226 156.101 17.5824 155.875 15.9001C154.783 17.207 153.4 18.2648 151.852 18.9814C153.301 16.8897 154.232 14.4431 154.54 11.918C153.27 13.2556 151.729 14.3373 150.038 15.0846C151.558 13.2863 152.77 11.2322 153.609 9.03125C149.456 12.0886 144.2 17.4766 137.613 19.7594C135.175 20.6056 132.611 21.0424 130.218 22.0046C125.616 23.8541 120.984 26.4713 117.129 29.5662C109.559 35.6468 103.27 43.9591 98.4523 52.3123C94.111 59.8465 90.119 68.1144 88.8453 76.7952C84.5246 106.209 118.937 115.685 141.824 116.817C162.065 117.821 192.728 112.924 194.146 87.4244C194.146 87.3902 194.149 87.3561 194.153 87.322C194.416 82.6267 194.05 77.7097 193.239 72.8301V72.8336Z" fill="url(#paint15_linear_2_163965)"/>
<g style="mix-blend-mode:overlay" opacity="0.28">
<path d="M164.107 75.0716C163.894 75.0886 163.066 74.5836 162.498 74.2697C160.286 73.0072 158.694 72.2326 156.215 72.0415C154.25 71.7754 151.97 72.2394 149.782 73.1539C148.871 73.5804 148.135 73.8534 147.508 74.355C147.495 74.3687 147.481 74.3789 147.467 74.3891C147.402 74.4062 147.334 74.4233 147.269 74.4437C147.132 74.4813 146.991 74.5188 146.854 74.5563C146.906 74.4779 146.954 74.3994 147.005 74.3209C147.296 73.8636 147.591 73.4337 147.888 73.0311C151.254 68.445 153.452 67.2063 154.822 67.0664C158.115 66.732 162.436 71.8504 163.223 73.1368C163.651 73.8329 163.959 74.4881 164.117 75.0784L164.107 75.0716Z" fill="black"/>
</g>
<path d="M164.678 74.6522C164.627 74.9183 164.373 75.1367 164.103 75.1026C163.891 75.1162 163.062 74.6692 162.49 74.3894C160.272 73.2702 158.676 72.5844 156.198 72.4035C154.232 72.1578 151.956 72.5536 149.771 73.3419C148.864 73.7104 148.131 73.9458 147.505 74.3826C147.491 74.3929 147.477 74.4031 147.464 74.4099C147.399 74.444 147.334 74.4577 147.265 74.4543C147.166 74.4509 147.073 74.4065 147.001 74.3451C146.895 74.2529 146.834 74.1096 146.868 73.9527C146.912 73.707 147.166 73.6114 147.351 73.4852C147.525 73.3931 147.703 73.3043 147.878 73.219C149.98 72.1919 152.253 71.4788 154.578 71.2672C156.122 71.1717 157.694 71.3218 159.193 71.704C160.58 72.1271 161.915 72.7243 163.206 73.3965C163.596 73.6012 163.983 73.8094 164.363 74.0243C164.37 74.0277 164.377 74.0346 164.384 74.038C164.603 74.1472 164.733 74.4099 164.682 74.6522H164.678Z" fill="#B57C3A"/>
<path d="M118.584 46.1739C118.369 44.2391 121.094 42.3487 124.672 41.9495C128.249 41.5503 131.327 42.7957 131.547 44.7271C131.762 46.6618 128.811 46.5287 125.233 46.928C121.655 47.3272 118.803 48.1052 118.588 46.1704L118.584 46.1739Z" fill="#985119"/>
<g style="mix-blend-mode:overlay" opacity="0.31">
<path d="M125.229 46.9281C121.652 47.3274 118.8 48.1054 118.584 46.174C118.557 45.9352 118.574 45.6963 118.635 45.4643C118.625 45.6451 118.642 45.8226 118.683 45.9966C119.125 47.8938 121.864 46.7882 125.373 45.9761C128.218 45.3176 130.701 45.0514 131.296 43.9629C131.43 44.2017 131.519 44.4577 131.546 44.7306C131.762 46.6654 128.811 46.5323 125.229 46.9316V46.9281Z" fill="black"/>
</g>
<path d="M188.642 51.9196C189.323 50.0975 187.142 47.5997 183.766 46.3474C180.391 45.0951 177.104 45.5558 176.422 47.3779C175.741 49.2001 178.638 49.787 182.01 51.0427C185.386 52.295 187.96 53.7418 188.642 51.9196Z" fill="#985119"/>
<g style="mix-blend-mode:overlay" opacity="0.31">
<path d="M182.009 51.043C185.382 52.2987 187.96 53.7421 188.641 51.92C188.723 51.6947 188.768 51.4593 188.765 51.217C188.73 51.3945 188.672 51.5617 188.586 51.722C187.693 53.4521 185.307 51.722 182.102 50.0808C179.503 48.75 177.161 47.8969 176.85 46.6924C176.662 46.8937 176.514 47.1189 176.419 47.3748C175.737 49.197 178.634 49.7839 182.009 51.0396V51.043Z" fill="black"/>
</g>
<path opacity="0.01" d="M168.229 90.4033C168.321 96.3679 174.521 101.107 182.084 100.991C189.644 100.875 193.366 95.5728 193.273 89.6116C193.181 83.647 189.315 79.2827 181.756 79.3987C174.196 79.5148 168.139 84.4421 168.232 90.4033H168.229Z" fill="#DEA96F"/>
<path opacity="0.02" d="M168.42 90.4102C168.509 96.2998 174.634 100.981 182.101 100.869C189.568 100.756 193.256 95.5218 193.167 89.6322C193.078 83.7427 189.243 79.4296 181.776 79.5422C174.309 79.6548 168.331 84.5207 168.42 90.4102Z" fill="#DEA86F"/>
<path opacity="0.03" d="M168.612 90.4173C168.701 96.2318 174.751 100.855 182.122 100.743C189.494 100.63 193.15 95.464 193.061 89.6496C192.972 83.8351 189.172 79.5732 181.801 79.6858C174.429 79.7984 168.523 84.6028 168.612 90.4173Z" fill="#DFA770"/>
<path opacity="0.04" d="M168.8 90.4239C168.889 96.1633 174.86 100.729 182.136 100.616C189.415 100.507 193.037 95.4092 192.951 89.6698C192.862 83.9304 189.096 79.7197 181.817 79.8323C174.538 79.9415 168.711 84.6845 168.797 90.4239H168.8Z" fill="#DFA670"/>
<path opacity="0.06" d="M168.992 90.4309C169.078 96.0952 174.973 100.599 182.157 100.494C189.34 100.384 192.934 95.3548 192.845 89.6904C192.76 84.0261 189.025 79.8665 181.842 79.9757C174.659 80.0849 168.903 84.7665 168.992 90.4309Z" fill="#DFA570"/>
<path opacity="0.07" d="M169.184 90.438C169.269 96.0307 175.086 100.473 182.173 100.368C189.264 100.258 192.825 95.3004 192.739 89.7077C192.653 84.1151 188.952 80.0101 181.865 80.1193C174.775 80.2285 169.098 84.8453 169.184 90.438Z" fill="#DFA470"/>
<path opacity="0.08" d="M169.375 90.4439C169.461 95.9616 175.199 100.346 182.193 100.241C189.188 100.135 192.718 95.2416 192.636 89.7274C192.55 84.2098 188.883 80.156 181.889 80.2618C174.894 80.3676 169.293 84.9263 169.375 90.4439Z" fill="#E0A371"/>
<path opacity="0.09" d="M169.567 90.4481C169.65 95.8907 175.312 100.217 182.211 100.112C189.11 100.006 192.609 95.1843 192.527 89.7418C192.445 84.2992 188.809 80.2967 181.91 80.4024C175.011 80.5082 169.482 85.0056 169.567 90.4481Z" fill="#E0A271"/>
<path opacity="0.1" d="M169.759 90.4546C169.841 95.8221 175.425 100.091 182.231 99.9884C189.038 99.8861 192.506 95.1294 192.424 89.7619C192.342 84.3944 188.74 80.4465 181.934 80.5488C175.127 80.6512 169.677 85.0871 169.759 90.4546Z" fill="#E0A171"/>
<path opacity="0.11" d="M169.951 90.4616C170.033 95.754 175.538 99.9647 182.249 99.8623C188.959 99.7599 192.397 95.0749 192.314 89.7825C192.232 84.4901 188.665 80.5933 181.954 80.6923C175.244 80.7946 169.868 85.1692 169.947 90.4616H169.951Z" fill="#E0A071"/>
<path opacity="0.12" d="M170.139 90.4686C170.217 95.6894 175.647 99.8387 182.265 99.7363C188.884 99.6374 192.287 95.0172 192.208 89.7998C192.129 84.5791 188.596 80.7369 181.978 80.8359C175.36 80.9348 170.06 85.2479 170.139 90.4686Z" fill="#E09F71"/>
<path opacity="0.13" d="M170.331 90.4752C170.41 95.6209 175.761 99.7122 182.283 99.6133C188.805 99.5143 192.181 94.9658 192.103 89.8201C192.024 84.6744 188.525 80.8834 181.999 80.9824C175.477 81.0813 170.252 85.333 170.331 90.4787V90.4752Z" fill="#E19E72"/>
<path opacity="0.14" d="M170.522 90.4817C170.601 95.5523 175.874 99.5822 182.303 99.4866C188.733 99.3877 192.075 94.9074 191.996 89.8368C191.917 84.7662 188.453 81.0264 182.023 81.1219C175.593 81.2209 170.444 85.4077 170.522 90.4783V90.4817Z" fill="#E19D72"/>
<path opacity="0.16" d="M170.714 90.4883C170.789 95.4839 175.986 99.4557 182.32 99.3602C188.654 99.2646 191.965 94.8526 191.89 89.8571C191.814 84.8615 188.38 81.1729 182.046 81.2684C175.712 81.364 170.638 85.4928 170.714 90.4883Z" fill="#E19C72"/>
<path opacity="0.17" d="M170.906 90.4954C170.981 95.4159 176.1 99.3297 182.341 99.2342C188.583 99.1387 191.859 94.7949 191.784 89.8744C191.709 84.9539 188.309 81.3165 182.068 81.412C175.826 81.5075 170.831 85.5749 170.906 90.4954Z" fill="#E19B72"/>
<path opacity="0.18" d="M171.098 90.4994C171.173 95.3483 176.213 99.2007 182.358 99.1086C188.504 99.0164 191.753 94.7409 191.678 89.8921C191.602 85.0433 188.237 81.4604 182.091 81.5525C175.946 81.6446 171.022 85.6506 171.098 90.4994Z" fill="#E29A73"/>
<path opacity="0.19" d="M171.289 90.506C171.361 95.2798 176.325 99.0742 182.378 98.9821C188.432 98.89 191.646 94.6861 191.575 89.9123C191.503 85.1386 188.168 81.6069 182.115 81.699C176.062 81.7912 171.217 85.7357 171.289 90.506Z" fill="#E29973"/>
<path opacity="0.2" d="M171.481 90.5131C171.553 95.2118 176.442 98.9482 182.4 98.8561C188.357 98.7674 191.541 94.6283 191.469 89.9296C191.397 85.231 188.097 81.7505 182.139 81.8426C176.182 81.9313 171.409 85.8145 171.481 90.5131Z" fill="#E29873"/>
<path opacity="0.21" d="M171.669 90.5191C171.741 95.1427 176.551 98.8211 182.413 98.7324C188.274 98.6437 191.427 94.5763 191.359 89.9493C191.287 85.3257 188.021 81.8964 182.159 81.9851C176.298 82.0738 171.6 85.8955 171.672 90.5191H171.669Z" fill="#E29773"/>
<path opacity="0.22" d="M171.861 90.5267C171.93 95.0752 176.665 98.6922 182.434 98.6069C188.203 98.5182 191.325 94.5191 191.253 89.9705C191.185 85.422 187.949 82.0438 182.18 82.1326C176.411 82.2213 171.793 85.9782 171.861 90.5301V90.5267Z" fill="#E29673"/>
<path opacity="0.23" d="M172.053 90.5332C172.121 95.0101 176.777 98.5656 182.45 98.4803C188.124 98.395 191.215 94.4641 191.147 89.9872C191.078 85.5103 187.877 82.1868 182.204 82.2721C176.531 82.3574 171.984 86.0563 172.053 90.5298V90.5332Z" fill="#E39574"/>
<path opacity="0.24" d="M172.245 90.5403C172.313 94.9421 176.891 98.4396 182.472 98.3543C188.052 98.269 191.11 94.4063 191.041 90.0045C190.973 85.6027 187.806 82.3304 182.225 82.4157C176.644 82.501 172.176 86.1351 172.245 90.5369V90.5403Z" fill="#E39474"/>
<path opacity="0.26" d="M172.436 90.5464C172.501 94.8731 177.004 98.3127 182.488 98.2308C187.973 98.1489 191 94.3545 190.935 90.0277C190.87 85.701 187.734 82.4798 182.249 82.5651C176.764 82.647 172.371 86.2231 172.436 90.5498V90.5464Z" fill="#E39374"/>
<path opacity="0.27" d="M172.628 90.5499C172.693 94.8016 177.116 98.1831 182.509 98.1012C187.901 98.0194 190.897 94.2932 190.832 90.0415C190.767 85.7898 187.665 82.6199 182.276 82.7017C176.884 82.7836 172.566 86.2983 172.631 90.5499H172.628Z" fill="#E39274"/>
<path opacity="0.28" d="M172.82 90.557C172.885 94.7336 177.229 98.0571 182.526 97.9753C187.822 97.8934 190.787 94.2388 190.722 90.0588C190.657 85.8822 187.59 82.7634 182.293 82.8453C176.996 82.9272 172.754 86.377 172.816 90.557H172.82Z" fill="#E49175"/>
<path opacity="0.29" d="M173.008 90.5641C173.069 94.6691 177.339 97.9312 182.543 97.8527C187.747 97.7742 190.678 94.1845 190.616 90.083C190.554 85.9781 187.518 82.9139 182.317 82.9957C177.113 83.0742 172.946 86.466 173.011 90.5675L173.008 90.5641Z" fill="#E49075"/>
<path opacity="0.3" d="M173.199 90.5705C173.261 94.6003 177.452 97.8044 182.56 97.726C187.668 97.6475 190.568 94.1294 190.506 90.0996C190.445 86.0697 187.446 83.0601 182.334 83.1352C177.226 83.2136 173.134 86.5406 173.196 90.5705H173.199Z" fill="#E49075"/>
<path opacity="0.31" d="M173.391 90.5776C173.453 94.5324 177.565 97.675 182.581 97.6C187.596 97.5249 190.465 94.0717 190.404 90.1169C190.342 86.1621 187.377 83.2037 182.361 83.2787C177.346 83.3538 173.333 86.6228 173.391 90.5776Z" fill="#E48F75"/>
<path opacity="0.32" d="M173.583 90.5846C173.641 94.4644 177.678 97.549 182.598 97.474C187.518 97.3989 190.356 94.0174 190.298 90.1342C190.24 86.2545 187.305 83.3473 182.385 83.4223C177.466 83.4974 173.525 86.7015 173.586 90.5846H173.583Z" fill="#E48E75"/>
<path opacity="0.33" d="M173.775 90.5911C173.833 94.3958 177.791 97.4224 182.619 97.3508C187.443 97.2791 190.25 93.9624 190.192 90.1578C190.134 86.3531 187.234 83.497 182.406 83.5687C177.582 83.6404 173.717 86.7865 173.775 90.5911Z" fill="#E58D76"/>
<path opacity="0.34" d="M173.966 90.5982C174.025 94.3312 177.904 97.2965 182.635 97.2248C187.367 97.1531 190.14 93.9081 190.085 90.1751C190.027 86.4421 187.162 83.6406 182.43 83.7123C177.698 83.7839 173.908 86.8686 173.966 90.5982Z" fill="#E58C76"/>
<path opacity="0.36" d="M174.158 90.6047C174.213 94.2626 178.017 97.1698 182.656 97.0982C187.292 97.0265 190.038 93.8497 189.979 90.1918C189.925 86.5339 187.09 83.7836 182.451 83.8518C177.815 83.9235 174.1 86.9433 174.155 90.6013L174.158 90.6047Z" fill="#E58B76"/>
<path opacity="0.37" d="M174.346 90.6079C174.401 94.1907 178.13 97.04 182.669 96.9717C187.213 96.9035 189.924 93.7949 189.87 90.2121C189.815 86.6292 187.014 83.9301 182.471 83.9983C177.928 84.0666 174.292 87.0284 174.346 90.6113V90.6079Z" fill="#E58A76"/>
<path opacity="0.38" d="M174.538 90.615C174.593 94.1228 178.243 96.914 182.69 96.8457C187.137 96.7775 189.818 93.7372 189.767 90.2294C189.712 86.7216 186.946 84.0737 182.498 84.1419C178.051 84.2102 174.487 87.1072 174.542 90.615H174.538Z" fill="#E68977"/>
<path opacity="0.39" d="M174.731 90.6214C174.782 94.0542 178.356 96.784 182.708 96.7191C187.063 96.6543 189.713 93.6822 189.658 90.2461C189.607 86.8134 186.871 84.2166 182.516 84.2815C178.161 84.3463 174.676 87.1853 174.727 90.618L174.731 90.6214Z" fill="#E68877"/>
<path opacity="0.4" d="M174.921 90.629C174.973 93.9901 178.468 96.6585 182.728 96.5936C186.987 96.5288 189.606 93.625 189.555 90.2673C189.503 86.9062 186.802 84.3641 182.543 84.4289C178.284 84.4938 174.87 87.2679 174.921 90.629Z" fill="#E68777"/>
<path opacity="0.41" d="M175.114 90.6356C175.165 93.9216 178.582 96.532 182.745 96.4706C186.912 96.4057 189.497 93.5736 189.446 90.2876C189.394 87.0016 186.727 84.5106 182.564 84.5755C178.397 84.6403 175.063 87.353 175.114 90.639V90.6356Z" fill="#E68677"/>
<path opacity="0.42" d="M175.305 90.6421C175.353 93.853 178.695 96.4054 182.766 96.344C186.836 96.2825 189.39 93.5152 189.343 90.3043C189.295 87.0933 186.658 84.6536 182.588 84.715C178.517 84.7764 175.257 87.4312 175.305 90.6387V90.6421Z" fill="#E68577"/>
<path opacity="0.43" d="M175.497 90.6487C175.545 93.7846 178.807 96.2789 182.782 96.2175C186.757 96.1561 189.284 93.4604 189.236 90.3245C189.188 87.1887 186.586 84.8001 182.611 84.8615C178.636 84.9229 175.449 87.5128 175.497 90.6487Z" fill="#E78478"/>
<path opacity="0.44" d="M175.689 90.6563C175.737 93.7171 178.921 96.1534 182.804 96.0954C186.686 96.0374 189.179 93.4065 189.131 90.3458C189.083 87.285 186.515 84.9476 182.632 85.009C178.75 85.067 175.641 87.5989 175.689 90.6597V90.6563Z" fill="#E78378"/>
<path opacity="0.46" d="M175.877 90.6598C175.922 93.6489 179.031 96.0239 182.817 95.9659C186.604 95.9079 189.066 93.3487 189.021 90.3595C188.977 87.3704 186.44 85.0876 182.653 85.1456C178.866 85.2036 175.833 87.6707 175.877 90.6598Z" fill="#E78278"/>
<path opacity="0.47" d="M176.069 90.6664C176.113 93.5805 179.143 95.894 182.838 95.8394C186.532 95.7848 188.959 93.2904 188.915 90.3798C188.87 87.4657 186.367 85.2341 182.677 85.2921C178.982 85.3467 176.024 87.7558 176.069 90.6698V90.6664Z" fill="#E78178"/>
<path opacity="0.48" d="M176.261 90.6729C176.305 93.5119 179.256 95.7674 182.855 95.7128C186.453 95.6582 188.853 93.2355 188.809 90.3965C188.764 87.5575 186.296 85.3771 182.697 85.4317C179.099 85.4863 176.216 87.8305 176.257 90.6695L176.261 90.6729Z" fill="#E88079"/>
<path opacity="0.49" d="M176.452 90.6803C176.493 93.4443 179.369 95.6418 182.875 95.5906C186.381 95.536 188.747 93.1815 188.706 90.4176C188.665 87.6537 186.23 85.5278 182.724 85.579C179.219 85.6336 176.411 87.9164 176.456 90.6803H176.452Z" fill="#E87F79"/>
<path opacity="0.5" d="M176.644 90.6865C176.685 93.3753 179.482 95.5148 182.892 95.4636C186.302 95.4124 188.637 93.1262 188.596 90.434C188.555 87.7451 186.155 85.6704 182.741 85.7216C179.331 85.7728 176.599 87.9976 176.64 90.6865H176.644Z" fill="#E87E79"/>
<path opacity="0.51" d="M176.835 90.6934C176.876 93.3106 179.595 95.3887 182.912 95.3375C186.23 95.2863 188.531 93.0684 188.493 90.4546C188.452 87.8374 186.086 85.8173 182.769 85.8651C179.451 85.9163 176.798 88.0762 176.835 90.6934Z" fill="#E87D79"/>
<path opacity="0.52" d="M177.028 90.7005C177.065 93.2426 179.709 95.2627 182.93 95.2115C186.152 95.1637 188.425 93.014 188.384 90.4719C188.347 87.9298 186.012 85.9609 182.79 86.0087C179.568 86.0564 176.987 88.1584 177.028 90.6971V90.7005Z" fill="#E87C79"/>
<path opacity="0.53" d="M177.215 90.7071C177.253 93.1742 179.817 95.1362 182.947 95.0885C186.076 95.0407 188.315 92.9592 188.277 90.4921C188.24 88.0251 185.939 86.1074 182.81 86.1552C179.68 86.2029 177.178 88.2401 177.215 90.7071Z" fill="#E97B7A"/>
<path opacity="0.54" d="M177.408 90.7102C177.445 93.1022 179.934 95.0062 182.968 94.9584C186.001 94.9141 188.21 92.9008 188.172 90.5088C188.134 88.1169 185.868 86.2504 182.834 86.2947C179.801 86.3391 177.37 88.3182 177.408 90.7102Z" fill="#E97A7A"/>
<path opacity="0.56" d="M177.599 90.7173C177.634 93.0342 180.047 94.8768 182.985 94.8324C185.923 94.7881 188.1 92.8431 188.066 90.5262C188.032 88.2092 185.796 86.3939 182.855 86.4383C179.917 86.4827 177.562 88.3969 177.596 90.7173H177.599Z" fill="#E9797A"/>
<path opacity="0.57" d="M177.791 90.7239C177.825 92.9691 180.16 94.7503 183.005 94.7094C185.851 94.665 187.997 92.7917 187.963 90.5464C187.929 88.3012 185.727 86.5404 182.882 86.5848C180.037 86.6292 177.76 88.482 177.794 90.7239H177.791Z" fill="#E9787A"/>
<path opacity="0.58" d="M177.983 90.7308C178.017 92.901 180.273 94.6242 183.023 94.5833C185.772 94.5423 187.888 92.7338 187.853 90.567C187.819 88.3969 185.652 86.6873 182.903 86.7283C180.153 86.7692 177.949 88.5606 177.983 90.7308Z" fill="#EA777B"/>
<path opacity="0.59" d="M178.174 90.7379C178.205 92.833 180.386 94.4982 183.043 94.4573C185.7 94.4163 187.781 92.6795 187.75 90.5844C187.72 88.4892 185.583 86.8309 182.926 86.8718C180.269 86.9128 178.143 88.6428 178.174 90.7379Z" fill="#EA767B"/>
<path opacity="0.6" d="M178.367 90.745C178.397 92.7651 180.5 94.3722 183.06 94.3313C185.621 94.2937 187.672 92.6217 187.641 90.6017C187.611 88.5816 185.508 86.9745 182.948 87.0154C180.387 87.0529 178.336 88.7249 178.367 90.745Z" fill="#EA757B"/>
<g style="mix-blend-mode:overlay" opacity="0.31">
<path d="M178.029 86.7346C185.12 86.6446 190.774 79.2544 190.658 70.2282C190.543 61.2021 184.702 53.9579 177.611 54.0479C170.521 54.1379 164.867 61.5281 164.982 70.5543C165.098 79.5805 170.939 86.8247 178.029 86.7346Z" fill="black"/>
</g>
<path d="M176.979 85.1331C183.343 85.0567 188.423 78.4826 188.326 70.4494C188.229 62.4162 182.991 55.966 176.627 56.0423C170.263 56.1187 165.182 62.6929 165.279 70.726C165.376 78.7592 170.614 85.2095 176.979 85.1331Z" fill="#C5D5D5"/>
<path d="M176.957 85.1061C183.31 85.0299 188.382 78.4681 188.285 70.45C188.188 62.4318 182.959 55.9937 176.606 56.0699C170.254 56.1462 165.182 62.708 165.279 70.7261C165.376 78.7442 170.604 85.1824 176.957 85.1061Z" fill="#C6D6D6"/>
<path d="M176.937 85.0762C183.276 85.0001 188.337 78.4522 188.24 70.4511C188.144 62.4499 182.926 56.0254 176.586 56.1015C170.247 56.1776 165.186 62.7255 165.282 70.7266C165.379 78.7278 170.597 85.1523 176.937 85.0762Z" fill="#C7D6D6"/>
<path d="M176.916 85.0492C183.245 84.9733 188.296 78.4377 188.2 70.4516C188.103 62.4655 182.895 56.0531 176.567 56.1291C170.239 56.205 165.187 62.7406 165.283 70.7267C165.38 78.7128 170.588 85.1252 176.916 85.0492Z" fill="#C8D7D7"/>
<path d="M176.895 85.0213C183.21 84.9455 188.251 78.4223 188.155 70.4513C188.058 62.4803 182.861 56.0799 176.546 56.1557C170.231 56.2315 165.189 62.7547 165.286 70.7258C165.382 78.6968 170.58 85.0971 176.895 85.0213Z" fill="#C9D8D8"/>
<path d="M176.87 84.9943C183.174 84.9186 188.206 78.4077 188.11 70.4518C188.014 62.4959 182.826 56.1076 176.522 56.1833C170.219 56.259 165.186 62.7699 165.282 70.7258C165.379 78.6817 170.567 85.0699 176.87 84.9943Z" fill="#CAD8D8"/>
<path d="M176.85 84.9673C183.143 84.8918 188.166 78.3932 188.07 70.4523C187.974 62.5115 182.795 56.1354 176.503 56.2109C170.21 56.2864 165.187 62.785 165.283 70.7258C165.379 78.6667 170.558 85.0428 176.85 84.9673Z" fill="#CBD9D9"/>
<path d="M176.829 84.9374C183.108 84.862 188.12 78.3758 188.025 70.45C187.929 62.5243 182.761 56.1602 176.482 56.2356C170.203 56.311 165.19 62.7972 165.286 70.723C165.381 78.6487 170.549 85.0128 176.829 84.9374Z" fill="#CCDADA"/>
<path d="M176.808 84.9133C183.076 84.8381 188.08 78.3642 187.984 70.4535C187.889 62.5428 182.73 56.1909 176.462 56.2661C170.194 56.3414 165.191 62.8152 165.286 70.7259C165.382 78.6366 170.541 84.9886 176.808 84.9133Z" fill="#CDDBDB"/>
<path d="M176.788 84.8834C183.042 84.8084 188.035 78.3468 187.94 70.4512C187.844 62.5556 182.697 56.2158 176.442 56.2908C170.188 56.3659 165.195 62.8274 165.29 70.7231C165.385 78.6187 170.533 84.9585 176.788 84.8834Z" fill="#CEDBDB"/>
<path d="M176.762 84.8525C183.006 84.7776 187.99 78.3299 187.894 70.4513C187.799 62.5726 182.661 56.2464 176.418 56.3213C170.174 56.3963 165.19 62.844 165.286 70.7226C165.381 78.6013 170.519 84.9275 176.762 84.8525Z" fill="#CFDCDC"/>
<path d="M176.742 84.8255C182.974 84.7507 187.949 78.3154 187.854 70.4518C187.759 62.5882 182.63 56.2741 176.398 56.3489C170.166 56.4237 165.191 62.8591 165.286 70.7227C165.381 78.5863 170.51 84.9003 176.742 84.8255Z" fill="#CFDDDD"/>
<path d="M176.721 84.7986C182.94 84.7239 187.904 78.3009 187.81 70.4524C187.715 62.6039 182.597 56.3019 176.378 56.3766C170.159 56.4512 165.195 62.8742 165.29 70.7227C165.385 78.5712 170.503 84.8732 176.721 84.7986Z" fill="#D0DDDD"/>
<path d="M176.7 84.7716C182.908 84.6971 187.863 78.2864 187.768 70.453C187.674 62.6195 182.565 56.3297 176.357 56.4042C170.15 56.4787 165.195 62.8893 165.29 70.7228C165.384 78.5562 170.493 84.8461 176.7 84.7716Z" fill="#D1DEDE"/>
<path d="M176.68 84.7446C182.874 84.6703 187.818 78.272 187.724 70.4536C187.629 62.6352 182.531 56.3574 176.337 56.4318C170.143 56.5061 165.199 62.9044 165.293 70.7228C165.388 78.5412 170.485 84.819 176.68 84.7446Z" fill="#D2DFDF"/>
<path d="M176.658 84.7176C182.841 84.6434 187.777 78.2574 187.682 70.4541C187.588 62.6508 182.5 56.3852 176.317 56.4594C170.134 56.5336 165.199 62.9196 165.293 70.7229C165.387 78.5262 170.476 84.7918 176.658 84.7176Z" fill="#D3DFDF"/>
<path d="M176.634 84.6906C182.806 84.6165 187.732 78.2429 187.638 70.4547C187.544 62.6664 182.465 56.4129 176.293 56.487C170.122 56.561 165.195 62.9347 165.29 70.7229C165.384 78.5111 170.463 84.7647 176.634 84.6906Z" fill="#D4E0E0"/>
<path d="M176.614 84.6636C182.772 84.5897 187.688 78.2284 187.594 70.4553C187.5 62.6821 182.432 56.4407 176.273 56.5146C170.115 56.5885 165.199 62.9498 165.293 70.723C165.387 78.4961 170.455 84.7376 176.614 84.6636Z" fill="#D5E1E1"/>
<path d="M176.592 84.6366C182.739 84.5629 187.646 78.2139 187.552 70.4558C187.459 62.6978 182.4 56.4684 176.253 56.5422C170.106 56.616 165.199 62.9649 165.293 70.723C165.387 78.4811 170.445 84.7104 176.592 84.6366Z" fill="#D6E1E1"/>
<path d="M176.571 84.6058C182.705 84.5322 187.601 78.1971 187.508 70.456C187.414 62.7149 182.366 56.4991 176.233 56.5728C170.099 56.6464 165.203 62.9815 165.296 70.7226C165.39 78.4637 170.438 84.6794 176.571 84.6058Z" fill="#D7E2E2"/>
<path d="M176.55 84.5788C182.673 84.5053 187.56 78.1825 187.467 70.4565C187.373 62.7305 182.334 56.5269 176.212 56.6003C170.09 56.6738 165.203 62.9966 165.296 70.7226C165.389 78.4487 170.428 84.6523 176.55 84.5788Z" fill="#D8E3E3"/>
<path d="M176.527 84.5489C182.636 84.4756 187.512 78.1652 187.419 70.4542C187.326 62.7432 182.298 56.5517 176.189 56.625C170.08 56.6984 165.203 63.0088 165.297 70.7197C165.39 78.4307 170.418 84.6222 176.527 84.5489Z" fill="#D9E3E3"/>
<path d="M176.505 84.5248C182.603 84.4516 187.471 78.1536 187.378 70.4577C187.285 62.7618 182.266 56.5824 176.169 56.6556C170.071 56.7288 165.203 63.0268 165.296 70.7227C165.389 78.4186 170.408 84.598 176.505 84.5248Z" fill="#DAE4E4"/>
<path d="M176.484 84.4939C182.571 84.4209 187.429 78.1351 187.336 70.4543C187.244 62.7735 182.234 56.6062 176.148 56.6792C170.062 56.7523 165.203 63.0381 165.296 70.7189C165.389 78.3997 170.398 84.567 176.484 84.4939Z" fill="#DBE5E5"/>
<path d="M176.464 84.467C182.537 84.3941 187.385 78.1207 187.292 70.4549C187.199 62.7892 182.201 56.634 176.128 56.7069C170.055 56.7798 165.207 63.0532 165.3 70.7189C165.392 78.3846 170.39 84.5398 176.464 84.467Z" fill="#DCE6E6"/>
<path d="M176.443 84.44C182.505 84.3672 187.344 78.1061 187.252 70.4555C187.159 62.8048 182.17 56.6617 176.109 56.7345C170.047 56.8072 165.208 63.0683 165.3 70.719C165.393 78.3696 170.382 84.5127 176.443 84.44Z" fill="#DDE6E6"/>
<path d="M176.419 84.413C182.467 84.3404 187.296 78.0917 187.203 70.4561C187.111 62.8205 182.133 56.6895 176.085 56.7621C170.036 56.8347 165.208 63.0834 165.3 70.719C165.392 78.3546 170.37 84.4856 176.419 84.413Z" fill="#DEE7E7"/>
<path d="M176.397 84.3899C182.435 84.3174 187.254 78.081 187.162 70.4605C187.07 62.84 182.101 56.7211 176.064 56.7936C170.027 56.8661 165.207 63.1024 165.3 70.723C165.392 78.3435 170.36 84.4624 176.397 84.3899Z" fill="#DFE8E8"/>
<path d="M176.377 84.359C182.403 84.2867 187.213 78.0641 187.121 70.4606C187.03 62.857 182.07 56.7518 176.044 56.8241C170.019 56.8964 165.208 63.119 165.3 70.7225C165.392 78.3261 170.351 84.4313 176.377 84.359Z" fill="#E0E8E8"/>
<path d="M176.356 84.332C182.369 84.2599 187.169 78.0497 187.077 70.4612C186.985 62.8728 182.037 56.7796 176.024 56.8517C170.012 56.9239 165.212 63.1341 165.304 70.7226C165.395 78.311 170.344 84.4042 176.356 84.332Z" fill="#E1E9E9"/>
<path d="M176.335 84.305C182.336 84.233 187.127 78.0352 187.036 70.4618C186.944 62.8884 182.005 56.8073 176.004 56.8793C170.003 56.9514 165.212 63.1492 165.303 70.7226C165.395 78.296 170.334 84.3771 176.335 84.305Z" fill="#E2EAEA"/>
<path d="M176.315 84.2781C182.303 84.2062 187.083 78.0207 186.991 70.4624C186.9 62.9041 181.972 56.8351 175.984 56.907C169.996 56.9788 165.216 63.1643 165.307 70.7227C165.398 78.281 170.327 84.35 176.315 84.2781Z" fill="#E2EAEA"/>
<path d="M176.29 84.2511C182.267 84.1793 187.038 78.0062 186.947 70.4629C186.856 62.9197 181.937 56.8628 175.96 56.9346C169.984 57.0063 165.213 63.1795 165.304 70.7227C165.395 78.266 170.314 84.3228 176.29 84.2511Z" fill="#E3EBEB"/>
<path d="M176.269 84.2241C182.235 84.1525 186.997 77.9916 186.906 70.4635C186.815 62.9353 181.905 56.8906 175.94 56.9622C169.975 57.0338 165.212 63.1946 165.303 70.7228C165.394 78.2509 170.304 84.2957 176.269 84.2241Z" fill="#E4ECEC"/>
<path d="M176.249 84.1971C182.201 84.1257 186.952 77.9772 186.861 70.4641C186.77 62.951 181.872 56.9183 175.92 56.9898C169.968 57.0612 165.216 63.2097 165.307 70.7228C165.398 78.2359 170.296 84.2686 176.249 84.1971Z" fill="#E5ECEC"/>
<path d="M176.227 84.1662C182.168 84.0949 186.91 77.9587 186.82 70.4607C186.729 62.9627 181.84 56.9422 175.899 57.0135C169.958 57.0848 165.216 63.2209 165.307 70.7189C165.397 78.217 170.287 84.2375 176.227 84.1662Z" fill="#E6EDED"/>
<path d="M176.206 84.1363C182.134 84.0652 186.866 77.9429 186.775 70.4618C186.685 62.9808 181.807 56.9739 175.879 57.045C169.952 57.1162 165.22 63.2384 165.31 70.7195C165.401 78.2006 170.279 84.2075 176.206 84.1363Z" fill="#E7EEEE"/>
<path d="M176.182 84.1093C182.099 84.0383 186.821 77.9284 186.731 70.4624C186.641 62.9964 181.772 57.0016 175.856 57.0726C169.94 57.1436 165.217 63.2535 165.307 70.7195C165.397 78.1855 170.266 84.1803 176.182 84.1093Z" fill="#E8EEEE"/>
<path d="M176.161 84.0823C182.066 84.0114 186.78 77.9138 186.69 70.4629C186.6 63.012 181.74 57.0293 175.835 57.1002C169.93 57.1711 165.217 63.2687 165.307 70.7196C165.397 78.1705 170.256 84.1532 176.161 84.0823Z" fill="#E9EFEF"/>
<path d="M176.14 84.0544C182.032 83.9837 186.735 77.8984 186.645 70.4626C186.556 63.0267 181.707 57.0561 175.815 57.1268C169.924 57.1976 165.22 63.2828 165.31 70.7187C165.4 78.1545 170.249 84.1251 176.14 84.0544Z" fill="#EAF0F0"/>
<path d="M176.119 84.0274C181.999 83.9568 186.694 77.8839 186.604 70.4631C186.514 63.0423 181.675 57.0839 175.795 57.1544C169.914 57.225 165.22 63.2979 165.31 70.7187C165.399 78.1395 170.239 84.098 176.119 84.0274Z" fill="#EBF1F1"/>
<path d="M176.099 84.0004C181.966 83.93 186.649 77.8694 186.56 70.4637C186.47 63.058 181.641 57.1116 175.774 57.1821C169.907 57.2525 165.224 63.3131 165.313 70.7188C165.403 78.1244 170.232 84.0708 176.099 84.0004Z" fill="#ECF1F1"/>
<path d="M176.074 83.9734C181.93 83.9031 186.605 77.8549 186.515 70.4643C186.426 63.0737 181.607 57.1394 175.751 57.2097C169.895 57.2799 165.221 63.3282 165.31 70.7188C165.399 78.1094 170.219 84.0437 176.074 83.9734Z" fill="#EDF2F2"/>
<path d="M176.053 83.9464C181.897 83.8763 186.563 77.8404 186.474 70.4648C186.385 63.0893 181.575 57.1671 175.73 57.2372C169.886 57.3074 165.221 63.3433 165.31 70.7188C165.399 78.0944 170.209 84.0166 176.053 83.9464Z" fill="#EEF3F3"/>
<path d="M176.032 83.9195C181.864 83.8495 186.518 77.8259 186.429 70.4654C186.341 63.105 181.541 57.1949 175.71 57.2649C169.879 57.3349 165.224 63.3584 165.313 70.7189C165.402 78.0794 170.201 83.9894 176.032 83.9195Z" fill="#EFF3F3"/>
<path d="M176.012 83.8895C181.832 83.8197 186.478 77.81 186.389 70.4665C186.3 63.123 181.511 57.2265 175.691 57.2964C169.871 57.3662 165.225 63.3759 165.314 70.7194C165.403 78.0629 170.192 83.9594 176.012 83.8895Z" fill="#F0F4F4"/>
<path d="M175.99 83.8587C181.797 83.789 186.432 77.7916 186.344 70.4632C186.255 63.1348 181.476 57.2504 175.67 57.3201C169.863 57.3898 165.228 63.3872 165.317 70.7156C165.405 78.044 170.184 83.9284 175.99 83.8587Z" fill="#F1F5F5"/>
<path d="M175.966 83.8356C181.761 83.766 186.388 77.781 186.299 70.4676C186.211 63.1543 181.441 57.282 175.646 57.3516C169.851 57.4212 165.225 63.4062 165.313 70.7195C165.402 78.0329 170.171 83.9051 175.966 83.8356Z" fill="#F2F5F5"/>
<path d="M175.946 83.8047C181.728 83.7353 186.343 77.7626 186.255 70.4644C186.167 63.1661 181.408 57.3059 175.626 57.3753C169.844 57.4447 165.229 63.4174 165.317 70.7157C165.405 78.0139 170.164 83.8741 175.946 83.8047Z" fill="#F3F6F6"/>
<path d="M175.924 83.7777C181.695 83.7084 186.302 77.7481 186.214 70.4649C186.126 63.1817 181.376 57.3336 175.606 57.4029C169.835 57.4722 165.229 63.4325 165.317 70.7157C165.405 77.9989 170.154 83.847 175.924 83.7777Z" fill="#F4F7F7"/>
<path d="M175.904 83.7507C181.663 83.6816 186.261 77.7336 186.173 70.4654C186.085 63.1973 181.345 57.3614 175.586 57.4305C169.827 57.4996 165.229 63.4476 165.317 70.7158C165.405 77.9839 170.145 83.8198 175.904 83.7507Z" fill="#F5F7F7"/>
<path d="M175.883 83.7237C181.629 83.6548 186.216 77.7191 186.129 70.4661C186.041 63.213 181.312 57.3892 175.566 57.4581C169.82 57.5271 165.233 63.4628 165.321 70.7158C165.408 77.9689 170.138 83.7927 175.883 83.7237Z" fill="#F5F8F8"/>
<path d="M175.862 83.6967C181.597 83.6279 186.175 77.7046 186.087 70.4666C186 63.2286 181.28 57.4169 175.546 57.4857C169.811 57.5546 165.233 63.4779 165.32 70.7159C165.408 77.9538 170.128 83.7656 175.862 83.6967Z" fill="#F6F9F9"/>
<path d="M175.838 83.6698C181.559 83.6011 186.126 77.6901 186.039 70.4672C185.952 63.2443 181.243 57.4447 175.522 57.5134C169.8 57.582 165.233 63.493 165.32 70.7159C165.407 77.9388 170.116 83.7385 175.838 83.6698Z" fill="#F7F9F9"/>
<path d="M175.817 83.6389C181.527 83.5703 186.086 77.6732 185.999 70.4673C185.912 63.2613 181.212 57.4753 175.502 57.5439C169.792 57.6124 165.234 63.5095 165.321 70.7155C165.408 77.9214 170.107 83.7074 175.817 83.6389Z" fill="#F8FAFA"/>
<path d="M175.796 83.6119C181.495 83.5435 186.044 77.6587 185.957 70.4678C185.87 63.277 181.18 57.5031 175.481 57.5715C169.783 57.6399 165.234 63.5247 165.32 70.7155C165.407 77.9064 170.097 83.6803 175.796 83.6119Z" fill="#F9FBFB"/>
<path d="M175.775 83.5849C181.461 83.5167 186 77.6442 185.913 70.4684C185.826 63.2927 181.147 57.5309 175.461 57.5991C169.776 57.6673 165.237 63.5398 165.324 70.7156C165.411 77.8914 170.09 83.6532 175.775 83.5849Z" fill="#FAFCFC"/>
<path d="M175.754 83.5579C181.428 83.4898 185.958 77.6297 185.871 70.469C185.785 63.3083 181.115 57.5586 175.441 57.6267C169.767 57.6948 165.237 63.5549 165.324 70.7156C165.41 77.8763 170.08 83.626 175.754 83.5579Z" fill="#FBFCFC"/>
<path d="M175.73 83.531C181.39 83.463 185.91 77.6152 185.823 70.4696C185.737 63.324 181.078 57.5864 175.417 57.6543C169.756 57.7223 165.237 63.57 165.323 70.7157C165.41 77.8613 170.069 83.5989 175.73 83.531Z" fill="#FCFDFD"/>
<path d="M175.709 83.5069C181.359 83.4391 185.869 77.6036 185.783 70.4731C185.697 63.3425 181.047 57.617 175.397 57.6848C169.748 57.7526 165.238 63.5881 165.324 70.7186C165.41 77.8492 170.06 83.5747 175.709 83.5069Z" fill="#FDFEFE"/>
<path d="M175.688 83.4799C181.326 83.4122 185.827 77.5891 185.741 70.4736C185.655 63.3581 181.015 57.6447 175.377 57.7124C169.739 57.7801 165.238 63.6032 165.324 70.7187C165.41 77.8342 170.05 83.5476 175.688 83.4799Z" fill="#FEFEFE"/>
<path d="M175.667 83.45C181.292 83.3825 185.783 77.5717 185.697 70.4713C185.611 63.3709 180.982 57.6696 175.357 57.7371C169.732 57.8046 165.241 63.6154 165.327 70.7158C165.413 77.8162 170.043 83.5175 175.667 83.45Z" fill="white"/>
<path d="M172.142 80.0223C175.67 79.9609 178.46 75.9137 178.373 70.9826C178.287 66.0515 175.357 62.1039 171.829 62.1652C168.301 62.2266 165.511 66.2738 165.598 71.2049C165.684 76.136 168.614 80.0836 172.142 80.0223Z" fill="#472317"/>
<path d="M171.529 67.9026C171.491 66.4728 172.272 65.2819 173.275 65.2478C174.278 65.2137 175.12 66.3432 175.158 67.7763C175.195 69.206 174.415 70.3969 173.412 70.431C172.409 70.4652 171.566 69.3357 171.529 67.9026Z" fill="white"/>
<path d="M167.835 75.2359C167.811 74.2941 168.324 73.5127 168.985 73.4888C169.646 73.465 170.201 74.2088 170.225 75.1506C170.249 76.0924 169.735 76.8738 169.074 76.8977C168.413 76.9216 167.859 76.1777 167.835 75.2359Z" fill="white"/>
<g style="mix-blend-mode:overlay" opacity="0.3">
<path d="M162.426 76.6316C163.357 76.8534 164.09 75.9252 163.425 75.3588C163.21 75.1746 162.973 75.0074 162.73 74.8572C159.622 72.9395 155.054 72.6836 151.555 74.2362C150.686 74.6218 148.833 76.2153 150.86 76.0788C152.411 75.973 153.901 75.7069 155.472 75.7137C157.016 75.7239 158.557 75.8604 160.06 76.1266C160.269 76.1641 161.385 76.3859 162.426 76.6316Z" fill="white"/>
</g>
<g style="mix-blend-mode:overlay" opacity="0.2">
<path d="M149.504 26.2701C151.541 23.9088 153.051 21.1176 153.9 18.1387C151.867 19.1828 149.833 20.227 147.799 21.2711C149.713 19.2408 151.439 17.0467 152.955 14.7162C151.004 16.2824 148.871 17.6268 146.604 18.7222C148.456 16.7123 150.158 14.5626 151.682 12.3037C148.409 14.8049 145.005 17.3675 140.955 18.3263C142.92 18.4048 144.581 18.1421 146.258 17.1593C144.92 18.4867 143.581 19.8141 142.242 21.1449C144.358 20.8548 146.406 20.1485 148.234 19.0804C146.471 21.2302 144.704 23.3833 142.941 25.533C146.176 24.7038 149.196 23.1035 151.658 20.906C151.216 22.909 150.798 24.6629 149.504 26.2701Z" fill="white"/>
</g>
<path opacity="0.01" d="M138.631 90.8754C139.347 84.9538 131.685 79.162 121.516 77.9391C111.347 76.7163 102.522 80.5253 101.805 86.4469C101.088 92.3685 108.751 98.1603 118.92 99.3832C129.089 100.606 137.914 96.797 138.631 90.8754Z" fill="#DEA96F"/>
<path opacity="0.02" d="M138.426 90.8594C139.134 85.0127 131.566 79.2938 121.523 78.0861C111.479 76.8783 102.764 80.639 102.056 86.4858C101.348 92.3325 108.916 98.0513 118.96 99.2591C129.003 100.467 137.718 96.7062 138.426 90.8594Z" fill="#DEA86F"/>
<path opacity="0.03" d="M138.222 90.8442C138.921 85.0704 131.45 79.4231 121.534 78.2307C111.618 77.0383 103.013 80.7523 102.314 86.5261C101.615 92.2999 109.087 97.9471 119.003 99.1395C128.919 100.332 137.523 96.618 138.222 90.8442Z" fill="#DFA770"/>
<path opacity="0.04" d="M138.022 90.8292C138.712 85.1302 131.335 79.5559 121.545 78.3787C111.755 77.2014 103.26 80.8669 102.57 86.5659C101.88 92.2648 109.257 97.8391 119.047 99.0164C128.836 100.194 137.332 96.5282 138.022 90.8292Z" fill="#DFA670"/>
<path opacity="0.06" d="M137.814 90.813C138.495 85.187 131.215 79.6843 121.552 78.5223C111.89 77.3604 103.505 80.9792 102.824 86.6052C102.143 92.2312 109.424 97.7339 119.086 98.8959C128.748 100.058 137.133 96.4389 137.814 90.813Z" fill="#DFA570"/>
<path opacity="0.07" d="M137.614 90.797C138.286 85.2459 131.1 79.8161 121.563 78.6693C112.027 77.5225 103.751 81.0929 103.079 86.6441C102.407 92.1952 109.593 97.625 119.13 98.7718C128.666 99.9186 136.942 96.3482 137.614 90.797Z" fill="#DFA470"/>
<path opacity="0.08" d="M137.409 90.7847C138.072 85.3065 130.983 79.9483 121.574 78.8169C112.165 77.6854 104 81.2091 103.337 86.6873C102.673 92.1655 109.763 97.5237 119.172 98.6551C128.581 99.7866 136.746 96.2629 137.409 90.7847Z" fill="#E0A371"/>
<path opacity="0.09" d="M137.202 90.7689C137.856 85.3655 130.862 80.0805 121.581 78.9644C112.3 77.8483 104.246 81.3238 103.592 86.7271C102.938 92.1305 109.931 97.4155 119.212 98.5316C128.494 99.6477 136.548 96.1722 137.202 90.7689Z" fill="#E0A271"/>
<path opacity="0.1" d="M137.001 90.7535C137.646 85.4231 130.747 80.2094 121.592 79.1085C112.437 78.0075 104.492 81.4361 103.846 86.7665C103.201 92.0968 110.1 97.3105 119.255 98.4115C128.41 99.5124 136.356 96.0838 137.001 90.7535Z" fill="#E0A171"/>
<path opacity="0.11" d="M136.797 90.7377C137.433 85.4821 130.63 80.3416 121.602 79.256C112.575 78.1703 104.74 81.5507 104.104 86.8063C103.468 92.0618 110.271 97.2023 119.298 98.288C128.326 99.3736 136.16 95.9932 136.797 90.7377Z" fill="#E0A071"/>
<path opacity="0.12" d="M136.597 90.7222C137.224 85.5397 130.516 80.4706 121.614 79.4001C112.712 78.3296 104.987 81.663 104.36 86.8456C103.732 92.0282 110.44 97.0973 119.342 98.1678C128.244 99.2383 135.969 95.9048 136.597 90.7222Z" fill="#E09F71"/>
<path opacity="0.13" d="M136.391 90.7094C137.01 85.6016 130.398 80.6056 121.624 79.5505C112.849 78.4953 105.235 81.7806 104.617 86.8883C103.998 91.9961 110.61 96.9921 119.384 98.0472C128.159 99.1024 135.773 95.8171 136.391 90.7094Z" fill="#E19E72"/>
<path opacity="0.14" d="M136.188 90.6941C136.797 85.6594 130.282 80.7349 121.635 79.6951C112.988 78.6553 105.485 81.8939 104.875 86.9287C104.266 91.9634 110.781 96.8878 119.428 97.9276C128.074 98.9674 135.578 95.7289 136.188 90.6941Z" fill="#E19D72"/>
<path opacity="0.16" d="M135.984 90.6782C136.585 85.7183 130.164 80.8668 121.643 79.8421C113.122 78.8174 105.728 82.0076 105.127 86.9675C104.527 91.9274 110.948 96.7789 119.468 97.8036C127.989 98.8283 135.384 95.6381 135.984 90.6782Z" fill="#E19C72"/>
<path opacity="0.17" d="M135.779 90.6658C136.371 85.7789 130.047 80.999 121.653 79.9897C113.26 78.9803 105.976 82.1238 105.385 87.0108C104.793 91.8977 111.118 96.6776 119.511 97.6869C127.904 98.6962 135.188 95.5528 135.779 90.6658Z" fill="#E19B72"/>
<path opacity="0.18" d="M135.579 90.6509C136.162 85.8387 129.932 81.1318 121.664 80.1376C113.397 79.1434 106.222 82.2384 105.64 87.0506C105.057 91.8627 111.287 96.5696 119.555 97.5638C127.822 98.558 134.996 95.463 135.579 90.6509Z" fill="#E29A73"/>
<path opacity="0.19" d="M135.371 90.6307C135.945 85.8916 129.811 81.2562 121.672 80.2774C113.532 79.2985 106.468 82.3468 105.894 87.086C105.321 91.8252 111.454 96.4605 119.594 97.4394C127.734 98.4182 134.797 95.3699 135.371 90.6307Z" fill="#E29973"/>
<path opacity="0.2" d="M135.17 90.6192C135.735 85.953 129.696 81.3891 121.682 80.4253C113.668 79.4616 106.714 82.4631 106.149 87.1292C105.584 91.7954 111.623 96.3594 119.637 97.3231C127.651 98.2868 134.605 95.2854 135.17 90.6192Z" fill="#E29873"/>
<path opacity="0.21" d="M134.967 90.6034C135.523 86.0121 129.58 81.5212 121.694 80.5729C113.807 79.6245 106.964 82.5777 106.408 87.1691C105.852 91.7604 111.795 96.2512 119.681 97.1996C127.567 98.148 134.411 95.1948 134.967 90.6034Z" fill="#E29773"/>
<path opacity="0.22" d="M134.759 90.5872C135.306 86.0688 129.46 81.6496 121.701 80.7165C113.942 79.7835 107.209 82.69 106.662 87.2084C106.115 91.7268 111.962 96.146 119.72 97.079C127.479 98.0121 134.212 95.1055 134.759 90.5872Z" fill="#E29673"/>
<path opacity="0.23" d="M134.562 90.5751C135.1 86.1316 129.348 81.7853 121.715 80.8674C114.082 79.9495 107.458 82.8076 106.92 87.2511C106.382 91.6947 112.134 96.041 119.767 96.9589C127.4 97.8768 134.024 95.0187 134.562 90.5751Z" fill="#E39574"/>
<path opacity="0.24" d="M134.358 90.5599C134.887 86.1893 129.232 81.9146 121.726 81.012C114.221 80.1095 107.708 82.9209 107.179 87.2914C106.65 91.662 112.305 95.9367 119.81 96.8393C127.316 97.7418 133.829 94.9304 134.358 90.5599Z" fill="#E39474"/>
<path opacity="0.26" d="M134.154 90.541C134.674 86.2452 129.113 82.0435 121.733 81.156C114.354 80.2686 107.95 83.0316 107.43 87.3274C106.91 91.6231 112.471 95.8249 119.85 96.7123C127.23 97.5997 133.633 94.8367 134.154 90.541Z" fill="#E39374"/>
<path opacity="0.27" d="M133.949 90.5286C134.46 86.3059 128.996 82.1757 121.744 81.3036C114.492 80.4316 108.199 83.1478 107.687 87.3706C107.176 91.5934 112.641 95.7236 119.892 96.5956C127.144 97.4677 133.437 94.7514 133.949 90.5286Z" fill="#E39274"/>
<path opacity="0.28" d="M133.745 90.5129C134.248 86.3649 128.879 82.3079 121.755 81.4511C114.631 80.5944 108.449 83.2625 107.946 87.4104C107.444 91.5583 112.812 95.6154 119.937 96.4721C127.061 97.3288 133.243 94.6608 133.745 90.5129Z" fill="#E49175"/>
<path opacity="0.29" d="M133.542 90.4965C134.035 86.4215 128.761 82.4358 121.763 81.5942C114.765 80.7527 108.691 83.3738 108.198 87.4488C107.705 91.5237 112.978 95.5094 119.976 96.351C126.975 97.1926 133.048 94.5714 133.542 90.4965Z" fill="#E49075"/>
<path opacity="0.3" d="M133.337 90.4846C133.822 86.4844 128.644 82.5719 121.773 81.7457C114.903 80.9194 108.94 83.4924 108.456 87.4925C107.972 91.4926 113.149 95.4052 120.02 96.2314C126.891 97.0576 132.853 94.4847 133.337 90.4846Z" fill="#E49075"/>
<path opacity="0.31" d="M133.136 90.4691C133.612 86.542 128.529 82.7009 121.784 81.8897C115.039 81.0786 109.186 83.6047 108.71 87.5318C108.235 91.459 113.318 95.3001 120.063 96.1112C126.808 96.9224 132.661 94.3963 133.136 90.4691Z" fill="#E48F75"/>
<path opacity="0.32" d="M132.932 90.4495C133.398 86.5971 128.412 82.8291 121.795 82.0334C115.177 81.2376 109.435 83.7154 108.968 87.5677C108.502 91.42 113.488 95.1881 120.106 95.9838C126.723 96.7796 132.466 94.3018 132.932 90.4495Z" fill="#E48E75"/>
<path opacity="0.33" d="M132.728 90.4379C133.186 86.6586 128.294 82.962 121.803 82.1813C115.311 81.4007 109.678 83.8316 109.22 87.611C108.763 91.3903 113.654 95.0869 120.146 95.8676C126.637 96.6482 132.271 94.2173 132.728 90.4379Z" fill="#E58D76"/>
<path opacity="0.34" d="M132.527 90.4221C132.975 86.7176 128.18 83.0941 121.816 82.3289C115.452 81.5636 109.929 83.9463 109.481 87.6508C109.033 91.3553 113.828 94.9788 120.192 95.7441C126.556 96.5094 132.078 94.1267 132.527 90.4221Z" fill="#E58C76"/>
<path opacity="0.36" d="M132.323 90.4059C132.763 86.7744 128.064 83.2225 121.827 82.4725C115.591 81.7226 110.179 84.0586 109.739 87.6901C109.3 91.3217 113.999 94.8736 120.235 95.6235C126.471 96.3734 131.883 94.0374 132.323 90.4059Z" fill="#E58B76"/>
<path opacity="0.37" d="M132.119 90.3939C132.549 86.8372 127.945 83.3582 121.834 82.6234C115.724 81.8886 110.421 84.1762 109.991 87.7329C109.56 91.2896 114.164 94.7685 120.275 95.5033C126.385 96.2382 131.688 93.9506 132.119 90.3939Z" fill="#E58A76"/>
<path opacity="0.38" d="M131.915 90.3776C132.337 86.8939 127.828 83.4865 121.846 82.767C115.863 82.0476 110.671 84.2885 110.249 87.7722C109.827 91.256 114.335 94.6633 120.318 95.3828C126.301 96.1022 131.493 93.8614 131.915 90.3776Z" fill="#E68977"/>
<path opacity="0.39" d="M131.714 90.3597C132.127 86.9508 127.714 83.6164 121.857 82.912C115.999 82.2077 110.917 84.4002 110.504 87.8091C110.091 91.218 114.505 94.5524 120.362 95.2568C126.219 95.9611 131.302 93.7686 131.714 90.3597Z" fill="#E68877"/>
<path opacity="0.4" d="M131.525 90.3667C131.929 87.0309 127.613 83.7673 121.883 83.0773C116.154 82.3873 111.182 84.5322 110.777 87.8681C110.373 91.2039 114.689 94.4675 120.419 95.1575C126.148 95.8475 131.12 93.7026 131.525 90.3667Z" fill="#E68777"/>
<path opacity="0.41" d="M131.322 90.3509C131.717 87.0899 127.496 83.8994 121.895 83.2248C116.293 82.5502 111.432 84.6469 111.036 87.9079C110.641 91.1689 114.861 94.3594 120.463 95.034C126.065 95.7086 130.926 93.6119 131.322 90.3509Z" fill="#E68677"/>
<path opacity="0.42" d="M131.121 90.3354C131.507 87.1473 127.381 84.0283 121.905 83.3688C116.43 82.7094 111.677 84.7592 111.291 87.9472C110.904 91.1353 115.03 94.2543 120.506 94.9138C125.982 95.5733 130.734 93.5234 131.121 90.3354Z" fill="#E68577"/>
<path opacity="0.43" d="M130.913 90.3224C131.291 87.2092 127.261 84.1633 121.913 83.5192C116.565 82.8751 111.923 84.8768 111.546 87.99C111.168 91.1032 115.198 94.1491 120.546 94.7932C125.894 95.4373 130.536 93.4356 130.913 90.3224Z" fill="#E78478"/>
<path opacity="0.44" d="M130.712 90.3069C131.081 87.2667 127.146 84.2922 121.924 83.6632C116.701 83.0343 112.169 84.9891 111.8 88.0293C111.432 91.0696 115.366 94.044 120.589 94.673C125.811 95.3019 130.344 93.3472 130.712 90.3069Z" fill="#E78378"/>
<path opacity="0.46" d="M130.508 90.2881C130.868 87.3227 127.029 84.4214 121.934 83.8078C116.839 83.1942 112.418 85.1008 112.058 88.0662C111.699 91.0316 115.537 93.9329 120.632 94.5465C125.727 95.1601 130.149 93.2535 130.508 90.2881Z" fill="#E78278"/>
<path opacity="0.47" d="M130.307 90.2755C130.658 87.3831 126.914 84.5532 121.945 83.9548C116.976 83.3563 112.663 85.216 112.313 88.1085C111.962 91.0009 115.706 93.8308 120.675 94.4292C125.644 95.0277 129.956 93.168 130.307 90.2755Z" fill="#E78178"/>
<path opacity="0.48" d="M130.103 90.2602C130.445 87.4407 126.797 84.6824 121.956 84.0994C117.115 83.5163 112.913 85.3293 112.571 88.1488C112.229 90.9683 115.877 93.7266 120.718 94.3096C125.56 94.8927 129.761 93.0797 130.103 90.2602Z" fill="#E88079"/>
<path opacity="0.49" d="M129.899 90.2443C130.232 87.4997 126.68 84.8145 121.967 84.2468C117.253 83.6791 113.162 85.4439 112.829 88.1886C112.496 90.9332 116.048 93.6184 120.761 94.1861C125.475 94.7537 129.566 92.989 129.899 90.2443Z" fill="#E87F79"/>
<path opacity="0.5" d="M129.695 90.2317C130.019 87.5601 126.562 84.9463 121.974 84.3938C117.386 83.8413 113.405 85.5592 113.081 88.2309C112.757 90.9025 116.213 93.5163 120.801 94.0688C125.389 94.6213 129.371 92.9034 129.695 90.2317Z" fill="#E87E79"/>
<path opacity="0.51" d="M129.491 90.2159C129.806 87.619 126.445 85.0784 121.985 84.5413C117.525 84.0041 113.653 85.6738 113.339 88.2707C113.024 90.8675 116.384 93.4081 120.845 93.9453C125.305 94.4824 129.176 92.8127 129.491 90.2159Z" fill="#E87D79"/>
<path opacity="0.52" d="M129.291 90.2004C129.597 87.6765 126.331 85.2073 121.996 84.6853C117.662 84.1633 113.9 85.7861 113.594 88.31C113.288 90.8339 116.554 93.3031 120.888 93.8251C125.223 94.3471 128.985 92.7242 129.291 90.2004Z" fill="#E87C79"/>
<path opacity="0.53" d="M129.083 90.1845C129.379 87.7354 126.21 85.3394 122.003 84.8328C117.796 84.3261 114.145 85.9008 113.848 88.3498C113.551 90.7988 116.721 93.1949 120.928 93.7015C125.135 94.2082 128.786 92.6335 129.083 90.1845Z" fill="#E97B7A"/>
<path opacity="0.54" d="M128.879 90.1682C129.167 87.7921 126.093 85.4676 122.014 84.9764C117.935 84.4851 114.395 86.0131 114.107 88.3891C113.818 90.7652 116.892 93.0897 120.971 93.5809C125.05 94.0722 128.591 92.5442 128.879 90.1682Z" fill="#E97A7A"/>
<path opacity="0.56" d="M128.678 90.1531C128.957 87.8519 125.979 85.6004 122.025 85.1243C118.072 84.6481 114.641 86.1277 114.362 88.4289C114.083 90.7302 117.061 92.9817 121.015 93.4578C124.968 93.9339 128.399 92.4544 128.678 90.1531Z" fill="#E9797A"/>
<path opacity="0.57" d="M128.471 90.1407C128.741 87.9124 125.858 85.7325 122.032 85.2718C118.207 84.8111 114.886 86.2439 114.616 88.4722C114.346 90.7005 117.228 92.8803 121.054 93.3411C124.88 93.8018 128.2 92.369 128.471 90.1407Z" fill="#E9787A"/>
<path opacity="0.58" d="M128.273 90.1247C128.534 87.9712 125.746 85.8643 122.046 85.4187C118.346 84.9731 115.135 86.3576 114.874 88.511C114.613 90.6645 117.401 92.7714 121.101 93.217C124.801 93.6626 128.012 92.2781 128.273 90.1247Z" fill="#EA777B"/>
<path opacity="0.59" d="M115.119 88.5441C114.866 90.6256 117.56 92.6593 121.131 93.0892C124.702 93.5192 127.804 92.1816 128.057 90.1001C128.311 88.0186 125.616 85.9849 122.045 85.555C118.474 85.125 115.372 86.4626 115.119 88.5441Z" fill="#EA767B"/>
<path opacity="0.6" d="M115.376 88.5819C115.133 90.5883 117.728 92.5504 121.176 92.9667C124.62 93.3829 127.613 92.0897 127.856 90.0867C128.099 88.0803 125.504 86.1183 122.056 85.702C118.612 85.2857 115.619 86.5789 115.376 88.5819Z" fill="#EA757B"/>
<path d="M107.714 85.5472C103.318 84.1584 98.651 83.882 94.1283 84.8067C93.6147 84.9125 93.7482 85.6768 94.2652 85.6052C98.6373 85.008 103.098 85.3117 107.337 86.5435C107.994 86.7346 108.371 85.7519 107.714 85.5437V85.5472Z" fill="#985119"/>
<path d="M114.698 84.4077C107.296 80.4529 98.7541 79.1597 90.4516 78.856C88.007 78.7673 85.5625 78.8048 83.1179 78.8697C82.6934 78.8799 82.6078 79.5248 83.0529 79.5419C91.352 79.8763 99.6785 80.4257 107.659 82.8825C109.888 83.5683 112.052 84.4316 114.161 85.4246C114.753 85.7044 115.284 84.7183 114.702 84.4077H114.698Z" fill="#985119"/>
<g style="mix-blend-mode:overlay" opacity="0.31">
<path d="M140.243 70.8144C140.493 61.7909 134.066 54.2937 125.89 54.0689C117.713 53.8441 110.882 60.9769 110.632 70.0004C110.382 79.0239 116.808 86.5211 124.985 86.7459C133.162 86.9707 139.993 79.8379 140.243 70.8144Z" fill="black"/>
</g>
<path d="M139.899 70.9525C140.121 62.9217 134.352 56.248 127.012 56.0462C119.673 55.8445 113.543 62.1911 113.32 70.2218C113.098 78.2525 118.868 84.9263 126.207 85.128C133.547 85.3298 139.677 78.9832 139.899 70.9525Z" fill="#C5D5D5"/>
<path d="M139.9 70.955C140.122 62.9393 134.363 56.2781 127.037 56.0767C119.71 55.8753 113.591 62.21 113.369 70.2256C113.148 78.2413 118.907 84.9025 126.233 85.1039C133.559 85.3053 139.678 78.9706 139.9 70.955Z" fill="#C6D6D6"/>
<path d="M139.897 70.9544C140.119 62.9538 134.371 56.3052 127.06 56.1042C119.749 55.9032 113.643 62.226 113.421 70.2266C113.2 78.2272 118.947 84.8758 126.258 85.0768C133.57 85.2778 139.676 78.955 139.897 70.9544Z" fill="#C7D6D6"/>
<path d="M139.901 70.9501C140.122 62.9646 134.386 56.3284 127.088 56.1278C119.79 55.9272 113.694 62.2381 113.473 70.2236C113.252 78.2091 118.989 84.8453 126.287 85.0459C133.585 85.2465 139.68 78.9356 139.901 70.9501Z" fill="#C8D7D7"/>
<path d="M139.895 70.949C140.115 62.9805 134.39 56.3584 127.107 56.1582C119.825 55.958 113.742 62.2554 113.521 70.224C113.301 78.1925 119.026 84.8146 126.309 85.0149C133.592 85.2151 139.674 78.9176 139.895 70.949Z" fill="#C9D8D8"/>
<path d="M139.896 70.9486C140.116 62.9951 134.401 56.3856 127.132 56.1857C119.862 55.9859 113.791 62.2714 113.57 70.2249C113.35 78.1784 119.065 84.788 126.335 84.9878C133.604 85.1877 139.676 78.9021 139.896 70.9486Z" fill="#CAD8D8"/>
<path d="M139.896 70.9482C140.116 63.0098 134.411 56.4128 127.155 56.2133C119.899 56.0138 113.838 62.2874 113.619 70.2258C113.399 78.1643 119.103 84.7613 126.359 84.9608C133.616 85.1603 139.676 78.8866 139.896 70.9482Z" fill="#CBD9D9"/>
<path d="M139.893 70.9476C140.113 63.0243 134.42 56.4398 127.179 56.2407C119.938 56.0417 113.89 62.3034 113.67 70.2268C113.451 78.1501 119.144 84.7346 126.385 84.9337C133.626 85.1327 139.674 78.871 139.893 70.9476Z" fill="#CCDADA"/>
<path d="M139.894 70.9463C140.113 63.038 134.431 56.466 127.203 56.2673C119.975 56.0686 113.938 62.3184 113.72 70.2267C113.501 78.135 119.183 84.707 126.411 84.9057C133.639 85.1044 139.675 78.8545 139.894 70.9463Z" fill="#CDDBDB"/>
<path d="M139.892 70.9496C140.11 63.0564 134.44 56.4969 127.227 56.2987C120.014 56.1004 113.99 62.3383 113.772 70.2315C113.553 78.1247 119.223 84.6842 126.436 84.8825C133.649 85.0808 139.673 78.8428 139.892 70.9496Z" fill="#CEDBDB"/>
<path d="M139.893 70.9453C140.111 63.0672 134.451 56.5202 127.251 56.3223C120.052 56.1244 114.039 62.3504 113.821 70.2285C113.603 78.1067 119.262 84.6536 126.462 84.8515C133.661 85.0495 139.675 78.8234 139.893 70.9453Z" fill="#CFDCDC"/>
<path d="M139.89 70.9449C140.108 63.0818 134.458 56.5474 127.272 56.3498C120.085 56.1523 114.083 62.3664 113.866 70.2295C113.648 78.0925 119.297 84.6269 126.484 84.8245C133.67 85.0221 139.672 78.8079 139.89 70.9449Z" fill="#CFDDDD"/>
<path d="M139.887 70.9438C140.104 63.0977 134.467 56.5774 127.296 56.3802C120.124 56.1831 114.135 62.3838 113.918 70.2299C113.7 78.076 119.338 84.5963 126.509 84.7935C133.68 84.9906 139.67 78.7899 139.887 70.9438Z" fill="#D0DDDD"/>
<path d="M139.887 70.9434C140.104 63.1124 134.477 56.6045 127.319 56.4078C120.161 56.211 114.182 62.3998 113.966 70.2308C113.749 78.0618 119.376 84.5697 126.534 84.7665C133.692 84.9632 139.67 78.7744 139.887 70.9434Z" fill="#D1DEDE"/>
<path d="M139.891 70.946C140.108 63.13 134.491 56.6347 127.346 56.4383C120.201 56.2418 114.234 62.4187 114.018 70.2347C113.801 78.0506 119.418 84.5459 126.563 84.7424C133.708 84.9388 139.675 78.7619 139.891 70.946Z" fill="#D2DFDF"/>
<path d="M139.886 70.9415C140.101 63.1406 134.497 56.6578 127.367 56.4618C120.237 56.2658 114.283 62.4308 114.067 70.2317C113.851 78.0326 119.456 84.5153 126.585 84.7113C133.715 84.9073 139.67 78.7423 139.886 70.9415Z" fill="#D3DFDF"/>
<path d="M139.886 70.9411C140.101 63.1552 134.507 56.685 127.39 56.4893C120.274 56.2937 114.33 62.4468 114.115 70.2326C113.899 78.0184 119.494 84.4887 126.61 84.6843C133.727 84.8799 139.67 78.7269 139.886 70.9411Z" fill="#D4E0E0"/>
<path d="M139.887 70.9405C140.102 63.1697 134.519 56.712 127.418 56.5168C120.317 56.3216 114.386 62.4628 114.171 70.2335C113.956 78.0043 119.538 84.462 126.639 84.6572C133.741 84.8524 139.672 78.7112 139.887 70.9405Z" fill="#D5E1E1"/>
<path d="M139.884 70.9401C140.099 63.1844 134.527 56.7392 127.439 56.5444C120.35 56.3495 114.43 62.4788 114.216 70.2344C114.001 77.9901 119.573 84.4353 126.661 84.6302C133.749 84.825 139.669 78.6958 139.884 70.9401Z" fill="#D6E1E1"/>
<path d="M139.884 70.9397C140.098 63.1991 134.537 56.7664 127.462 56.5719C120.387 56.3774 114.478 62.4948 114.264 70.2354C114.05 77.976 119.611 84.4086 126.686 84.6031C133.761 84.7976 139.67 78.6803 139.884 70.9397Z" fill="#D7E2E2"/>
<path d="M139.881 70.9381C140.095 63.2126 134.546 56.7925 127.486 56.5984C120.426 56.4043 114.53 62.5098 114.316 70.2353C114.102 77.9609 119.652 84.381 126.712 84.575C133.771 84.7691 139.668 78.6637 139.881 70.9381Z" fill="#D8E3E3"/>
<path d="M139.883 70.9382C140.096 63.2296 134.556 56.8235 127.51 56.6298C120.463 56.4361 114.578 62.5281 114.365 70.2367C114.151 77.9453 119.691 84.3514 126.737 84.5451C133.784 84.7388 139.669 78.6468 139.883 70.9382Z" fill="#D9E3E3"/>
<path d="M139.88 70.9406C140.093 63.247 134.565 56.8535 127.534 56.6602C120.502 56.4669 114.63 62.547 114.417 70.2406C114.204 77.9341 119.731 84.3276 126.763 84.5209C133.794 84.7142 139.667 78.6341 139.88 70.9406Z" fill="#DAE4E4"/>
<path d="M139.881 70.9402C140.093 63.2617 134.576 56.8807 127.558 56.6878C120.54 56.4948 114.678 62.563 114.466 70.2415C114.253 77.9199 119.77 84.3009 126.789 84.4939C133.807 84.6868 139.668 78.6186 139.881 70.9402Z" fill="#DBE5E5"/>
<path d="M139.881 70.9359C140.093 63.2725 134.586 56.904 127.581 56.7114C120.577 56.5188 114.726 62.5751 114.514 70.2385C114.302 77.9019 119.809 84.2704 126.813 84.4629C133.818 84.6555 139.669 78.5992 139.881 70.9359Z" fill="#DCE6E6"/>
<path d="M139.878 70.9353C140.09 63.287 134.595 56.931 127.605 56.7389C120.616 56.5467 114.778 62.5911 114.566 70.2394C114.354 77.8877 119.849 84.2437 126.839 84.4358C133.829 84.628 139.667 78.5836 139.878 70.9353Z" fill="#DDE6E6"/>
<path d="M139.879 70.9349C140.091 63.3016 134.606 56.9582 127.63 56.7664C120.653 56.5746 114.826 62.6071 114.615 70.2403C114.404 77.8736 119.888 84.217 126.865 84.4088C133.841 84.6006 139.668 78.5681 139.879 70.9349Z" fill="#DEE7E7"/>
<path d="M139.873 70.9333C140.084 63.3151 134.611 56.9843 127.65 56.7929C120.688 56.6015 114.874 62.6221 114.663 70.2403C114.452 77.8584 119.925 84.1893 126.886 84.3807C133.848 84.5721 139.662 78.5515 139.873 70.9333Z" fill="#DFE8E8"/>
<path d="M139.877 70.9329C140.087 63.3298 134.625 57.0114 127.677 56.8204C120.729 56.6294 114.925 62.6381 114.715 70.2412C114.505 77.8443 119.967 84.1627 126.915 84.3537C133.863 84.5447 139.666 78.536 139.877 70.9329Z" fill="#E0E8E8"/>
<path d="M139.878 70.9354C140.088 63.3474 134.636 57.0416 127.701 56.8509C120.766 56.6603 114.974 62.657 114.764 70.245C114.554 77.8331 120.006 84.1389 126.941 84.3296C133.876 84.5202 139.668 78.5235 139.878 70.9354Z" fill="#E1E9E9"/>
<path d="M139.875 70.9353C140.085 63.3643 134.645 57.0725 127.725 56.8823C120.805 56.692 115.025 62.6754 114.816 70.2465C114.606 77.8175 120.046 84.1093 126.966 84.2995C133.886 84.4898 139.665 78.5064 139.875 70.9353Z" fill="#E2EAEA"/>
<path d="M139.872 70.931C140.081 63.375 134.652 57.0958 127.745 56.9059C120.839 56.716 115.07 62.6875 114.861 70.2435C114.652 77.7995 120.081 84.0787 126.988 84.2686C133.895 84.4585 139.663 78.487 139.872 70.931Z" fill="#E2EAEA"/>
<path d="M139.869 70.9305C140.078 63.3895 134.661 57.1228 127.769 56.9334C120.878 56.7439 115.122 62.7035 114.913 70.2444C114.704 77.7853 120.122 84.052 127.013 84.2415C133.905 84.4309 139.661 78.4714 139.869 70.9305Z" fill="#E3EBEB"/>
<path d="M139.871 70.9301C140.079 63.4042 134.672 57.15 127.793 56.9609C120.915 56.7718 115.17 62.7195 114.962 70.2453C114.754 77.7712 120.161 84.0254 127.039 84.2144C133.918 84.4035 139.662 78.4559 139.871 70.9301Z" fill="#E4ECEC"/>
<path d="M139.871 70.9287C140.079 63.4179 134.682 57.1762 127.817 56.9875C120.952 56.7988 115.218 62.7345 115.01 70.2452C114.802 77.756 120.199 83.9977 127.064 84.1864C133.929 84.3752 139.663 78.4395 139.871 70.9287Z" fill="#E5ECEC"/>
<path d="M139.865 70.9281C140.072 63.4324 134.688 57.2032 127.838 57.0149C120.988 56.8266 115.267 62.7504 115.059 70.2462C114.852 77.7419 120.237 83.971 127.087 84.1593C133.936 84.3476 139.658 78.4238 139.865 70.9281Z" fill="#E6EDED"/>
<path d="M139.869 70.9306C140.076 63.45 134.702 57.2334 127.865 57.0454C121.028 56.8575 115.318 62.7694 115.111 70.25C114.904 77.7307 120.279 83.9473 127.115 84.1352C133.952 84.3232 139.662 78.4113 139.869 70.9306Z" fill="#E7EEEE"/>
<path d="M139.866 70.9301C140.073 63.4645 134.71 57.2604 127.889 57.0729C121.067 56.8854 115.37 62.7854 115.163 70.2509C114.957 77.7165 120.319 83.9206 127.141 84.1081C133.962 84.2956 139.66 78.3956 139.866 70.9301Z" fill="#E8EEEE"/>
<path d="M139.866 70.9292C140.073 63.4805 134.72 57.2905 127.912 57.1033C121.104 56.9162 115.417 62.8028 115.211 70.2514C115.005 77.7 120.357 83.89 127.166 84.0772C133.974 84.2643 139.66 78.3778 139.866 70.9292Z" fill="#E9EFEF"/>
<path d="M139.868 70.9258C140.073 63.4923 134.732 57.3148 127.936 57.128C121.141 56.9412 115.466 62.8158 115.26 70.2493C115.054 77.6829 120.396 83.8604 127.191 84.0472C133.986 84.234 139.662 78.3594 139.868 70.9258Z" fill="#EAF0F0"/>
<path d="M139.865 70.9243C140.07 63.5058 134.74 57.3408 127.96 57.1544C121.18 56.9681 115.517 62.8308 115.312 70.2493C115.107 77.6678 120.437 83.8327 127.217 84.0191C133.997 84.2055 139.659 78.3428 139.865 70.9243Z" fill="#EBF1F1"/>
<path d="M139.862 70.9239C140.067 63.5205 134.747 57.368 127.981 57.182C121.214 56.996 115.562 62.8468 115.357 70.2502C115.152 77.6536 120.472 83.8061 127.239 83.9921C134.005 84.1781 139.657 78.3273 139.862 70.9239Z" fill="#ECF1F1"/>
<path d="M139.866 70.9264C140.071 63.5381 134.761 57.3981 128.008 57.2125C121.254 57.0268 115.614 62.8657 115.409 70.2541C115.205 77.6424 120.514 83.7823 127.267 83.968C134.021 84.1537 139.662 78.3147 139.866 70.9264Z" fill="#EDF2F2"/>
<path d="M139.86 70.9258C140.064 63.5525 134.767 57.4252 128.029 57.2399C121.29 57.0547 115.662 62.8817 115.458 70.255C115.254 77.6283 120.551 83.7556 127.29 83.9409C134.028 84.1261 139.656 78.2991 139.86 70.9258Z" fill="#EEF3F3"/>
<path d="M139.86 70.9254C140.064 63.5672 134.777 57.4523 128.052 57.2675C121.327 57.0826 115.71 62.8977 115.506 70.2559C115.303 77.6141 120.59 83.729 127.315 83.9139C134.04 84.0987 139.657 78.2836 139.86 70.9254Z" fill="#EFF3F3"/>
<path d="M139.858 70.9248C140.061 63.5817 134.786 57.4794 128.076 57.2949C121.366 57.1105 115.762 62.9137 115.558 70.2568C115.355 77.6 120.63 83.7023 127.34 83.8867C134.05 84.0712 139.654 78.268 139.858 70.9248Z" fill="#F0F4F4"/>
<path d="M139.859 70.9205C140.062 63.5925 134.797 57.5027 128.1 57.3186C121.404 57.1345 115.81 62.9258 115.607 70.2538C115.405 77.5819 120.669 83.6717 127.366 83.8558C134.063 84.0399 139.656 78.2486 139.859 70.9205Z" fill="#F1F5F5"/>
<path d="M139.859 70.9196C140.061 63.6085 134.807 57.5328 128.124 57.349C121.44 57.1653 115.858 62.9432 115.655 70.2543C115.453 77.5654 120.707 83.6411 127.391 83.8249C134.074 84.0086 139.657 78.2307 139.859 70.9196Z" fill="#F2F5F5"/>
<path d="M139.856 70.9191C140.058 63.623 134.816 57.5598 128.147 57.3765C121.479 57.1932 115.909 62.9592 115.707 70.2552C115.505 77.5512 120.748 83.6144 127.416 83.7978C134.085 83.9811 139.654 78.2151 139.856 70.9191Z" fill="#F3F6F6"/>
<path d="M139.857 70.9216C140.059 63.6406 134.827 57.5899 128.172 57.407C121.516 57.224 115.958 62.9781 115.756 70.259C115.555 77.54 120.787 83.5907 127.442 83.7737C134.097 83.9566 139.656 78.2025 139.857 70.9216Z" fill="#F4F7F7"/>
<path d="M139.854 70.921C140.056 63.6551 134.836 57.617 128.196 57.4344C121.555 57.2519 116.01 62.9941 115.808 70.26C115.607 77.5258 120.827 83.564 127.467 83.7465C134.107 83.9291 139.653 78.1869 139.854 70.921Z" fill="#F5F7F7"/>
<path d="M139.856 70.9206C140.056 63.6698 134.847 57.6441 128.22 57.462C121.593 57.2798 116.058 63.0101 115.857 70.2609C115.657 77.5117 120.866 83.5373 127.493 83.7195C134.12 83.9017 139.655 78.1714 139.856 70.9206Z" fill="#F5F8F8"/>
<path d="M139.856 70.9202C140.056 63.6845 134.857 57.6713 128.243 57.4895C121.63 57.3077 116.106 63.0261 115.906 70.2618C115.705 77.4975 120.904 83.5107 127.518 83.6925C134.132 83.8743 139.656 78.156 139.856 70.9202Z" fill="#F6F9F9"/>
<path d="M139.853 70.9157C140.053 63.695 134.866 57.6945 128.267 57.5131C121.669 57.3317 116.157 63.0381 115.958 70.2588C115.758 77.4795 120.945 83.4801 127.543 83.6615C134.142 83.8429 139.653 78.1364 139.853 70.9157Z" fill="#F7F9F9"/>
<path d="M139.854 70.9153C140.054 63.7097 134.877 57.7217 128.291 57.5406C121.706 57.3596 116.206 63.0541 116.007 70.2597C115.807 77.4653 120.984 83.4534 127.569 83.6344C134.155 83.8155 139.655 78.1209 139.854 70.9153Z" fill="#F8FAFA"/>
<path d="M139.851 70.9147C140.05 63.7242 134.885 57.7487 128.315 57.5681C121.745 57.3875 116.258 63.0701 116.059 70.2607C115.86 77.4512 121.024 83.4267 127.595 83.6073C134.165 83.7879 139.652 78.1053 139.851 70.9147Z" fill="#F9FBFB"/>
<path d="M139.848 70.9138C140.047 63.7403 134.893 57.7788 128.336 57.5986C121.779 57.4183 116.302 63.0875 116.104 70.2611C115.905 77.4347 121.06 83.3961 127.617 83.5764C134.174 83.7566 139.65 78.0874 139.848 70.9138Z" fill="#FAFCFC"/>
<path d="M139.853 70.9164C140.051 63.7579 134.907 57.8089 128.363 57.629C121.819 57.4491 116.354 63.1064 116.156 70.2649C115.957 77.4234 121.102 83.3724 127.645 83.5523C134.189 83.7322 139.654 78.0749 139.853 70.9164Z" fill="#FBFCFC"/>
<path d="M139.85 70.9158C140.047 63.7724 134.915 57.836 128.387 57.6565C121.858 57.477 116.405 63.1224 116.208 70.2659C116.01 77.4093 121.142 83.3457 127.671 83.5252C134.199 83.7046 139.652 78.0592 139.85 70.9158Z" fill="#FCFDFD"/>
<path d="M139.847 70.9154C140.044 63.787 134.922 57.8631 128.407 57.684C121.892 57.5049 116.45 63.1384 116.253 70.2668C116.055 77.3951 121.177 83.319 127.693 83.4981C134.208 83.6773 139.65 78.0438 139.847 70.9154Z" fill="#FDFEFE"/>
<path d="M139.848 70.9109C140.045 63.7976 134.935 57.8863 128.435 57.7076C121.935 57.5289 116.505 63.1505 116.309 70.2638C116.112 77.3771 121.222 83.2884 127.722 83.4671C134.222 83.6458 139.651 78.0242 139.848 70.9109Z" fill="#FEFEFE"/>
<path d="M139.845 70.9105C140.042 63.8123 134.942 57.9135 128.455 57.7351C121.968 57.5568 116.55 63.1665 116.354 70.2647C116.157 77.3629 121.257 83.2618 127.744 83.4401C134.231 83.6184 139.649 78.0087 139.845 70.9105Z" fill="white"/>
<path d="M139.534 71.2687C139.67 66.3387 136.482 62.2515 132.412 62.1397C128.343 62.0278 124.933 65.9336 124.797 70.8636C124.66 75.7935 127.849 79.8807 131.918 79.9926C135.988 80.1045 139.397 76.1986 139.534 71.2687Z" fill="#472317"/>
<path d="M133.352 67.8992C133.393 66.4695 134.362 65.3332 135.519 65.3639C136.676 65.3946 137.58 66.5821 137.542 68.0118C137.501 69.4415 136.532 70.5778 135.375 70.5471C134.218 70.5164 133.314 69.3289 133.352 67.8992Z" fill="white"/>
<path d="M128.668 74.9727C128.695 74.0309 129.332 73.2836 130.092 73.3041C130.852 73.3246 131.448 74.106 131.424 75.0478C131.4 75.9896 130.76 76.7368 130 76.7164C129.239 76.6959 128.644 75.9145 128.668 74.9727Z" fill="white"/>
<path d="M192.178 90.724C196.786 90.5261 201.364 91.4679 205.486 93.5357C205.955 93.7712 205.626 94.4741 205.143 94.2694C201.079 92.5598 196.69 91.6931 192.277 91.7852C191.592 91.7989 191.483 90.7547 192.178 90.724Z" fill="#985119"/>
<path d="M185.731 87.8098C193.91 85.9126 202.497 86.8817 210.59 88.7414C212.977 89.2873 215.325 89.9596 217.667 90.6591C218.071 90.7819 217.989 91.4234 217.554 91.3245C209.454 89.4955 201.271 87.8644 192.924 88.1647C190.592 88.25 188.278 88.5196 185.98 88.9325C185.337 89.0485 185.08 87.96 185.724 87.8098H185.731Z" fill="#985119"/>
<g style="mix-blend-mode:overlay" opacity="0.2">
<path d="M149.196 111.173C131.827 110.19 112.88 105.468 103.605 89.3416C94.9225 74.1946 101.236 57.8704 110.117 44.1019C114.945 36.6803 119.772 29.5452 126.013 23.9082C122.853 25.5017 119.799 27.4194 117.122 29.5691C109.552 35.6498 103.263 43.962 98.4455 52.3152C94.1042 59.8495 90.1121 68.1174 88.8385 76.7981C84.5177 106.212 118.93 115.688 141.817 116.82C156.016 117.523 175.339 115.322 186.104 105.147C174.494 109.863 161.73 111.934 149.189 111.177L149.196 111.173Z" fill="black"/>
</g>
<path d="M156.859 80.1185C156.824 79.2791 155.592 79.2825 155.554 80.1185C155.393 83.4966 155.332 86.8748 155.02 90.2461C154.715 93.4945 154.226 96.7225 153.712 99.9471C153.592 99.9574 153.469 99.9812 153.346 100.022C152.671 100.254 152.189 100.776 151.819 101.373C151.634 101.609 151.47 101.865 151.333 102.141C151.182 102.448 151.014 102.848 150.932 103.25C150.686 103.929 150.559 104.707 151.302 105.001C151.826 105.209 152.298 104.932 152.689 104.509C153.746 103.68 154.794 101.749 154.863 101.097C154.917 100.592 154.698 100.237 154.359 100.063C155.219 96.9682 155.797 93.8119 156.215 90.6283C156.67 87.158 157.002 83.6195 156.862 80.1185H156.859Z" fill="#985119"/>
<path d="M150.918 105.731C149.918 105.67 149.63 104.335 149.579 103.557C149.524 102.711 149.733 101.885 150.12 101.135C150.277 100.831 149.853 100.589 149.665 100.869C148.911 101.984 148.641 103.281 148.932 104.602C149.158 105.632 149.747 106.632 150.918 106.615C151.493 106.605 151.483 105.769 150.918 105.734V105.731Z" fill="#B57C3A"/>
<path d="M161.84 78.9518C161.84 78.9518 161.84 78.9825 161.84 78.9996C161.785 80.2143 158.3 82.4903 156.8 83.4116C156.787 83.4184 156.773 83.4287 156.759 83.4355C156.492 83.5856 156.164 83.6197 155.866 83.5447C155.801 83.5276 155.739 83.5071 155.678 83.4798C155.609 83.4491 155.544 83.415 155.482 83.3707C155.458 83.357 155.438 83.3399 155.414 83.3229C155.342 83.2717 155.27 83.2205 155.191 83.1625C155.13 83.1181 155.065 83.0704 154.996 83.0226C154.952 82.9919 154.907 82.9578 154.863 82.9236C154.719 82.8179 154.568 82.7053 154.414 82.5892C154.27 82.4801 154.12 82.3675 153.969 82.248C153.955 82.2378 153.942 82.2275 153.931 82.2173C153.866 82.1661 153.798 82.1149 153.733 82.0603C153.634 81.9819 153.534 81.9 153.432 81.8215C153.363 81.7669 153.298 81.7123 153.233 81.6577C152.836 81.3301 152.442 80.9923 152.086 80.6545C152.052 80.6204 152.018 80.5897 151.98 80.5555C151.966 80.5453 151.956 80.5317 151.942 80.518C151.901 80.4805 151.863 80.4429 151.826 80.4054C151.504 80.0881 151.227 79.7775 151.014 79.4875C151.011 79.4807 151.004 79.4739 151.001 79.467C150.734 79.0985 150.576 78.7641 150.586 78.498C150.655 77.0102 153.007 76.5666 155.955 76.6553C156.071 76.6588 156.188 76.6622 156.307 76.669C156.53 76.6792 156.753 76.6929 156.972 76.7065C159.735 76.901 161.861 77.5494 161.847 78.9518H161.84Z" fill="#985119"/>
<g style="mix-blend-mode:overlay" opacity="0.35">
<path d="M158.434 79.8598C156.869 80.1021 155.216 80.1567 153.637 80.01C152.771 79.9281 151.836 79.7882 150.994 79.4674C151.953 80.7845 154.332 82.5521 155.483 83.371C155.859 83.6406 156.407 83.6577 156.801 83.4154C158.3 82.4907 161.786 80.2147 161.841 79.0033C161.841 78.9863 161.841 78.9726 161.841 78.959C160.738 79.3719 159.601 79.6858 158.434 79.8666V79.8598Z" fill="black"/>
</g>
<g style="mix-blend-mode:overlay" opacity="0.46">
<path d="M159.697 77.7946C158.211 77.4499 155.872 77.1565 153.815 77.3578C153.366 77.4056 152.921 77.4909 152.49 77.624C152.284 77.7093 152.021 77.74 151.873 77.9174C151.565 78.2484 151.808 78.4838 152.253 78.4088C156.667 77.6444 159.96 78.7261 160.306 78.5316C160.864 78.2416 160.323 77.8765 159.697 77.798V77.7946Z" fill="white"/>
</g>
<path d="M87.8802 130.097C88.7601 129.766 89.7153 129.623 90.602 129.674C93.5602 129.838 96.2444 131.414 98.5862 133.107C99.3155 133.632 100.034 134.178 100.764 134.704C102.007 135.605 101.435 137.591 99.9009 137.655C98.8361 137.7 97.7577 137.471 96.823 136.953C97.3708 138.584 98.4321 139.699 98.3808 140.259C98.3123 140.962 96.5012 142.334 95.272 141.665C95.5185 142.344 95.2207 143.262 94.6181 143.664C94.0155 144.067 93.139 143.995 92.6049 143.504C92.5981 143.927 92.1975 144.268 91.7798 144.337C91.3621 144.405 90.9342 144.268 90.5439 144.101C88.3047 143.149 86.6237 141.197 85.6924 138.986C84.9597 137.246 84.4427 135.192 84.833 133.308C85.1617 131.725 86.4148 130.647 87.887 130.094L87.8802 130.097Z" fill="url(#paint16_linear_2_163965)"/>
<g style="mix-blend-mode:overlay" opacity="0.3">
<path d="M86.8668 135.652C87.7604 132.134 90.7424 130.626 93.9847 130.455C92.9028 130.025 91.773 129.738 90.6021 129.67C89.7153 129.622 88.7601 129.762 87.8802 130.093C86.408 130.646 85.1549 131.724 84.8262 133.308C84.4359 135.191 84.9529 137.249 85.6856 138.986C86.0588 139.869 86.5552 140.712 87.1544 141.466C86.5792 139.672 86.4217 137.737 86.8668 135.649V135.652Z" fill="black"/>
</g>
<g style="mix-blend-mode:overlay" opacity="0.2">
<path d="M74.2261 160.053C69.3986 166.717 60.6099 169.508 52.4854 168.43C55.8543 171.037 59.8738 173.094 63.8316 172.603C69.7205 171.869 74.3733 169.911 77.1157 168.488C77.465 168.737 77.8142 168.983 78.1737 169.221C87.4794 175.466 97.8978 179.468 107.457 179.226C114.989 183.021 124.589 188.801 129.29 195.202C129.42 195.134 129.554 195.059 129.691 194.984C128.198 188.112 125.168 181.495 121.498 175.544C104.509 176.991 87.1165 171.265 74.2295 160.053H74.2261Z" fill="black"/>
</g>
<path d="M129.182 195.322C131.941 194.731 140.333 192.49 143.01 191.476C145.646 190.48 147.632 189.616 149.163 188.825C149.618 188.589 150.029 188.361 150.409 188.139C151.71 187.375 152.603 186.665 153.295 185.948C153.518 185.72 153.72 185.491 153.908 185.259C154.165 184.945 154.394 184.628 154.617 184.297C150.648 182.659 147.146 182.4 143.496 183.758C139.843 185.116 129.281 194.138 129.185 195.318L129.182 195.322Z" fill="url(#paint17_linear_2_163965)"/>
<path d="M145.67 187.504C146.05 187.747 146.536 187.822 146.988 187.962C147.43 188.102 147.861 188.259 148.282 188.433C148.583 188.555 148.874 188.685 149.165 188.825C149.621 188.59 150.032 188.361 150.412 188.139C149.908 187.859 149.374 187.624 148.799 187.423C147.94 187.126 146.861 186.747 145.844 186.921C145.499 186.982 145.471 187.375 145.67 187.504Z" fill="#985119"/>
<path d="M146.653 184.447C148.327 184.648 149.984 184.826 151.545 185.3C152.151 185.484 152.733 185.703 153.295 185.952C153.517 185.723 153.719 185.494 153.908 185.262C151.792 184.293 149.31 183.727 146.807 183.928C146.482 183.955 146.314 184.409 146.653 184.447Z" fill="#985119"/>
<g style="mix-blend-mode:overlay" opacity="0.2">
<path d="M129.318 195.011C137.491 192.411 145.334 188.613 151.812 183.358C152.726 183.59 153.654 183.904 154.613 184.3C154.39 184.631 154.161 184.949 153.904 185.262C153.716 185.494 153.514 185.723 153.291 185.952C152.596 186.665 151.706 187.375 150.405 188.142C150.025 188.368 149.614 188.596 149.159 188.828C147.628 189.62 145.646 190.483 143.006 191.476C140.329 192.486 131.937 194.731 129.178 195.322C129.185 195.247 129.229 195.144 129.315 195.011H129.318Z" fill="black"/>
</g>
<path d="M50.2227 150.918C47.7302 152.235 40.2699 156.678 37.9725 158.381C35.7094 160.056 34.0352 161.424 32.7821 162.605C32.409 162.953 32.0734 163.287 31.7721 163.605C30.7313 164.697 30.0671 165.621 29.5946 166.495C29.444 166.775 29.3105 167.051 29.1941 167.324C29.0331 167.696 28.8996 168.065 28.7764 168.443C33.0423 168.941 36.4832 168.235 39.6228 165.935C42.7658 163.635 50.4555 152.082 50.2227 150.918Z" fill="url(#paint18_linear_2_163965)"/>
<path d="M36.5036 162.922C36.0722 162.792 35.5826 162.854 35.1101 162.84C34.6479 162.826 34.1891 162.792 33.7372 162.738C33.4154 162.7 33.097 162.656 32.7786 162.598C32.4054 162.946 32.0698 163.28 31.7686 163.597C32.33 163.731 32.9087 163.812 33.5147 163.847C34.4254 163.898 35.5621 163.969 36.4933 163.526C36.8083 163.372 36.7296 162.99 36.5002 162.918L36.5036 162.922Z" fill="#985119"/>
<path d="M36.394 166.133C34.7266 166.395 33.0866 166.675 31.4535 166.645C30.8201 166.631 30.2004 166.58 29.591 166.494C29.4404 166.774 29.3068 167.051 29.1904 167.324C31.4912 167.678 34.035 167.552 36.3871 166.675C36.6918 166.563 36.7295 166.082 36.394 166.133Z" fill="#985119"/>
<g style="mix-blend-mode:overlay" opacity="0.2">
<path d="M50.1782 151.252C43.0294 155.978 36.5243 161.766 31.7311 168.587C30.7895 168.614 29.8069 168.563 28.7764 168.443C28.8996 168.065 29.0331 167.696 29.1941 167.324C29.3105 167.051 29.4406 166.775 29.5946 166.495C30.0671 165.618 30.7313 164.693 31.7721 163.605C32.0734 163.287 32.409 162.953 32.7821 162.605C34.0387 161.428 35.7094 160.056 37.9725 158.381C40.2733 156.678 47.7302 152.235 50.2227 150.918C50.2364 150.99 50.2227 151.102 50.1747 151.252H50.1782Z" fill="black"/>
</g>
<defs>
<linearGradient id="paint0_linear_2_163965" x1="157.088" y1="148.858" x2="132.597" y2="112.406" gradientUnits="userSpaceOnUse">
<stop stop-color="#EFC697"/>
<stop offset="1" stop-color="#F0C698"/>
</linearGradient>
<linearGradient id="paint1_linear_2_163965" x1="163.641" y1="128.126" x2="177.363" y2="121.97" gradientUnits="userSpaceOnUse">
<stop stop-color="#A86326"/>
<stop offset="0.34" stop-color="#B87739"/>
<stop offset="0.68" stop-color="#C28345"/>
<stop offset="1" stop-color="#C6884A"/>
</linearGradient>
<linearGradient id="paint2_linear_2_163965" x1="171.222" y1="123.346" x2="175.845" y2="118.784" gradientUnits="userSpaceOnUse">
<stop stop-color="#A86326"/>
<stop offset="0.34" stop-color="#B87739"/>
<stop offset="0.68" stop-color="#C28345"/>
<stop offset="1" stop-color="#C6884A"/>
</linearGradient>
<linearGradient id="paint3_linear_2_163965" x1="173.598" y1="125.695" x2="178.221" y2="121.133" gradientUnits="userSpaceOnUse">
<stop stop-color="#A86326"/>
<stop offset="0.34" stop-color="#B87739"/>
<stop offset="0.68" stop-color="#C28345"/>
<stop offset="1" stop-color="#C6884A"/>
</linearGradient>
<linearGradient id="paint4_linear_2_163965" x1="175.076" y1="127.808" x2="178.974" y2="123.953" gradientUnits="userSpaceOnUse">
<stop stop-color="#A86326"/>
<stop offset="0.34" stop-color="#B87739"/>
<stop offset="0.68" stop-color="#C28345"/>
<stop offset="1" stop-color="#C6884A"/>
</linearGradient>
<linearGradient id="paint5_linear_2_163965" x1="-3.86301" y1="71.9532" x2="72.1757" y2="133.274" gradientUnits="userSpaceOnUse">
<stop stop-color="#C6884A"/>
<stop offset="0.32" stop-color="#C28345"/>
<stop offset="0.66" stop-color="#B87739"/>
<stop offset="1" stop-color="#A86326"/>
</linearGradient>
<linearGradient id="paint6_linear_2_163965" x1="121.806" y1="164.256" x2="138.636" y2="192.744" gradientUnits="userSpaceOnUse">
<stop offset="0.51" stop-color="#DFAB71"/>
<stop offset="0.68" stop-color="#E0AC73"/>
<stop offset="0.8" stop-color="#E3B37C"/>
<stop offset="0.9" stop-color="#EABD8B"/>
<stop offset="0.99" stop-color="#F3CCA0"/>
<stop offset="1" stop-color="#F5CFA4"/>
</linearGradient>
<linearGradient id="paint7_linear_2_163965" x1="76.565" y1="181.916" x2="130.828" y2="94.6952" gradientUnits="userSpaceOnUse">
<stop offset="0.13" stop-color="#DEAA6F"/>
<stop offset="0.92" stop-color="#F5CFA4"/>
</linearGradient>
<linearGradient id="paint8_linear_2_163965" x1="120.132" y1="143.281" x2="101.327" y2="175.735" gradientUnits="userSpaceOnUse">
<stop stop-color="#F5CFA4"/>
<stop offset="0.28" stop-color="#F5D1A8"/>
<stop offset="0.58" stop-color="#F8D8B5"/>
<stop offset="0.91" stop-color="#FDE4CC"/>
<stop offset="1" stop-color="#FFE9D4"/>
</linearGradient>
<linearGradient id="paint9_linear_2_163965" x1="54.4197" y1="167.85" x2="71.8547" y2="152.782" gradientUnits="userSpaceOnUse">
<stop stop-color="#F5CFA4"/>
<stop offset="0.79" stop-color="#E0AE75"/>
</linearGradient>
<linearGradient id="paint10_linear_2_163965" x1="78.3913" y1="122.359" x2="117.512" y2="102.251" gradientUnits="userSpaceOnUse">
<stop stop-color="#EFC697"/>
<stop offset="1" stop-color="#F0C698"/>
</linearGradient>
<linearGradient id="paint11_linear_2_163965" x1="31.7638" y1="10.8941" x2="111.365" y2="67.8356" gradientUnits="userSpaceOnUse">
<stop stop-color="#F5CFA4"/>
<stop offset="0.08" stop-color="#EFC698"/>
<stop offset="0.31" stop-color="#DFB07B"/>
<stop offset="0.55" stop-color="#D4A166"/>
<stop offset="0.78" stop-color="#CE985A"/>
<stop offset="1" stop-color="#CC9556"/>
</linearGradient>
<linearGradient id="paint12_linear_2_163965" x1="38.1817" y1="24.6605" x2="105.571" y2="64.8163" gradientUnits="userSpaceOnUse">
<stop stop-color="#FFE9D4"/>
<stop offset="0.09" stop-color="#FDE4CC"/>
<stop offset="0.42" stop-color="#F8D8B5"/>
<stop offset="0.72" stop-color="#F5D1A8"/>
<stop offset="1" stop-color="#F5CFA4"/>
</linearGradient>
<linearGradient id="paint13_linear_2_163965" x1="252.359" y1="28.5015" x2="160.815" y2="63.3313" gradientUnits="userSpaceOnUse">
<stop stop-color="#F5CFA4"/>
<stop offset="0.08" stop-color="#EFC698"/>
<stop offset="0.31" stop-color="#DFB07B"/>
<stop offset="0.55" stop-color="#D4A166"/>
<stop offset="0.78" stop-color="#CE985A"/>
<stop offset="1" stop-color="#CC9556"/>
</linearGradient>
<linearGradient id="paint14_linear_2_163965" x1="242.72" y1="40.3974" x2="167.29" y2="62.0941" gradientUnits="userSpaceOnUse">
<stop stop-color="#FFE9D4"/>
<stop offset="0.09" stop-color="#FDE4CC"/>
<stop offset="0.42" stop-color="#F8D8B5"/>
<stop offset="0.72" stop-color="#F5D1A8"/>
<stop offset="1" stop-color="#F5CFA4"/>
</linearGradient>
<linearGradient id="paint15_linear_2_163965" x1="141.352" y1="116.937" x2="141.352" y2="9.03466" gradientUnits="userSpaceOnUse">
<stop stop-color="#DEAA6F"/>
<stop offset="1" stop-color="#F5CFA4"/>
</linearGradient>
<linearGradient id="paint16_linear_2_163965" x1="91.1878" y1="128.957" x2="95.4176" y2="143.35" gradientUnits="userSpaceOnUse">
<stop stop-color="#A86326"/>
<stop offset="0.34" stop-color="#B87739"/>
<stop offset="0.68" stop-color="#C28345"/>
<stop offset="1" stop-color="#C6884A"/>
</linearGradient>
<linearGradient id="paint17_linear_2_163965" x1="152.304" y1="192.624" x2="131.578" y2="186.82" gradientUnits="userSpaceOnUse">
<stop stop-color="#C6884A"/>
<stop offset="0.32" stop-color="#C28345"/>
<stop offset="0.66" stop-color="#B87739"/>
<stop offset="1" stop-color="#A86326"/>
</linearGradient>
<linearGradient id="paint18_linear_2_163965" x1="28.4782" y1="159.762" x2="50.0068" y2="159.666" gradientUnits="userSpaceOnUse">
<stop stop-color="#C6884A"/>
<stop offset="0.32" stop-color="#C28345"/>
<stop offset="0.66" stop-color="#B87739"/>
<stop offset="1" stop-color="#A86326"/>
</linearGradient>
</defs>
</svg>
