<svg width="152" height="230" viewBox="0 0 152 230" fill="none" xmlns="http://www.w3.org/2000/svg">
<g clip-path="url(#clip0_3_165289)">
<path d="M67.4867 203.878C67.4982 203.858 67.5136 203.843 67.529 203.824C67.9099 197.005 68.8334 190.202 70.7074 183.552C72.5736 184.057 74.9093 185.112 76.8679 185.24C73.147 190.564 70.6958 196.481 69.68 202.556C70.5765 202.348 71.5732 202.31 72.4543 202.267C81.8549 201.797 91.3131 201.951 100.598 203.323C101.549 203.465 102.699 203.774 102.849 204.556C102.995 205.314 102.08 205.885 101.437 206.447C100.402 207.352 99.9171 208.658 100.167 209.88C100.329 210.677 100.775 211.413 101.075 212.183C101.375 212.954 101.522 213.821 101.091 214.545C100.687 215.227 99.8401 215.666 98.9743 215.936C98.1047 216.201 97.1812 216.332 96.3154 216.602C94.5915 217.134 93.1293 218.212 92.3097 219.565C91.8441 220.331 91.5363 221.221 90.6974 221.73C89.089 222.7 86.8033 221.691 85.2872 221.052C79.296 218.528 73.7203 214.999 69.5491 210.654C68.6179 209.683 67.7406 208.651 67.2712 207.48C66.8017 206.308 66.7709 204.968 67.4905 203.885L67.4867 203.878Z" fill="url(#paint0_linear_3_165289)"/>
<g style="mix-blend-mode:overlay" opacity="0.2">
<path d="M67.4867 203.878C67.4982 203.858 67.5136 203.843 67.529 203.824C67.9099 197.005 68.8334 190.202 70.7074 183.552C72.5736 184.057 74.9093 185.112 76.8679 185.24C73.147 190.564 70.6958 196.481 69.68 202.556C70.5765 202.348 71.5732 202.31 72.4543 202.267C81.8549 201.797 91.3131 201.951 100.598 203.323C101.549 203.465 102.699 203.774 102.849 204.556C102.995 205.314 102.08 205.885 101.437 206.447C100.402 207.352 99.9171 208.658 100.167 209.88C100.329 210.677 100.775 211.413 101.075 212.183C101.375 212.954 101.522 213.821 101.091 214.545C100.687 215.227 99.8401 215.666 98.9743 215.936C98.1047 216.201 97.1812 216.332 96.3154 216.602C94.5915 217.134 93.1293 218.212 92.3097 219.565C91.8441 220.331 91.5363 221.221 90.6974 221.73C89.089 222.7 86.8033 221.691 85.2872 221.052C79.296 218.528 73.7203 214.999 69.5491 210.654C68.6179 209.683 67.7406 208.651 67.2712 207.48C66.8017 206.308 66.7709 204.968 67.4905 203.885L67.4867 203.878Z" fill="black"/>
</g>
<path d="M87.3995 180.127C87.3995 180.127 81.6968 191.55 70.2877 191.357C58.8785 191.164 54.6958 178.602 54.6958 178.602L87.3995 180.123V180.127Z" fill="url(#paint1_linear_3_165289)"/>
<path d="M53.1644 206.848C53.1759 206.824 53.1913 206.801 53.2067 206.778C53.5877 198.434 54.5112 190.105 56.3851 181.965C58.2514 182.581 60.5871 183.876 62.5457 184.03C58.8247 190.548 56.3736 197.791 55.3577 205.226C56.2543 204.971 57.2509 204.925 58.1321 204.871C67.5326 204.297 76.9908 204.482 86.2759 206.162C87.2264 206.335 88.3769 206.717 88.527 207.672C88.6732 208.604 87.7574 209.302 87.1148 209.987C86.0797 211.093 85.5948 212.696 85.8449 214.19C86.0066 215.165 86.4529 216.066 86.7531 217.006C87.0532 217.946 87.1994 219.01 86.7685 219.9C86.3644 220.735 85.5179 221.275 84.6521 221.602C83.7824 221.93 82.8589 222.092 81.9932 222.415C80.2693 223.062 78.8071 224.388 77.9874 226.04C77.5218 226.976 77.214 228.07 76.3752 228.691C74.7667 229.877 72.481 228.641 70.965 227.859C64.9737 224.769 59.398 220.45 55.2269 215.13C54.2957 213.944 53.4183 212.676 52.9489 211.243C52.4795 209.81 52.4487 208.169 53.1682 206.844L53.1644 206.848Z" fill="url(#paint2_linear_3_165289)"/>
<g style="mix-blend-mode:overlay" opacity="0.2">
<path d="M53.1644 206.848C53.176 206.824 53.1913 206.801 53.2067 206.778C53.5877 198.434 54.5112 190.105 56.3851 181.965C58.2514 182.581 60.5871 183.876 62.5457 184.03C58.8247 190.548 56.3736 197.791 55.3577 205.226C55.6964 205.129 56.0542 205.064 56.4082 205.014C56.162 210.099 57.5588 215.388 59.9753 220.096C60.0214 220.192 60.0715 220.285 60.1215 220.377C58.3437 218.759 56.693 217.01 55.2231 215.13C54.2919 213.944 53.4145 212.676 52.9451 211.243C52.4718 209.81 52.4448 208.169 53.1644 206.844V206.848Z" fill="black"/>
</g>
<g style="mix-blend-mode:overlay" opacity="0.2">
<path d="M83.5782 207.383C84.0707 207.491 84.5748 207.61 85.0019 207.88C85.429 208.15 85.7676 208.612 85.7676 209.117C85.7676 209.695 85.3405 210.172 84.9827 210.627C83.9437 211.944 83.2703 213.705 83.7667 215.304C84.0245 216.14 84.594 216.918 84.5478 217.792C84.494 218.825 83.5974 219.618 82.6585 220.05C81.7196 220.481 80.6807 220.682 79.7918 221.209C78.2565 222.122 77.4369 223.837 76.4287 225.312C76.2709 225.543 76.0785 225.786 75.8053 225.825C75.4821 225.867 75.1858 225.582 75.1088 225.266C75.0319 224.95 75.1165 224.619 75.2204 224.307C75.9246 222.211 77.4946 220.466 79.3993 219.349C79.9072 219.052 80.4806 218.752 80.6922 218.201C80.9808 217.465 80.4844 216.683 80.2189 215.935C79.7572 214.645 80.0111 213.119 80.8692 212.048C81.254 211.567 81.7889 211.078 81.7081 210.465C81.6273 209.818 80.9154 209.475 80.3036 209.252C78.4835 208.585 76.6596 207.919 74.8395 207.256C74.5663 207.156 74.27 207.04 74.1238 206.786C73.5928 205.869 75.1627 206.139 75.509 206.177C76.4171 206.277 77.3214 206.378 78.2295 206.493C80.0227 206.721 81.8081 206.99 83.5743 207.372L83.5782 207.383Z" fill="white"/>
</g>
<path d="M73.2661 182.157C73.2661 182.157 67.5635 193.58 56.1544 193.387C44.7452 193.198 40.5625 180.632 40.5625 180.632L73.2661 182.154V182.157Z" fill="url(#paint3_linear_3_165289)"/>
<path d="M10.3754 162.93C20.2761 176.864 34.4674 184.754 51.2482 187.947C68.0291 191.141 86.2145 187.03 99.5322 176.321C112.85 165.611 120.842 148.337 119.642 131.278C118.118 109.605 103.496 90.2156 100.452 68.3223C96.9002 67.9525 97.6813 66.2921 94.1297 65.9223C86.2183 65.1017 78.1877 64.2503 70.8112 61.2686C74.2127 70.8572 76.6908 79.8911 80.0924 89.4797C81.4584 93.336 82.836 97.2385 83.2131 101.31C83.5863 105.382 82.8552 109.709 80.3618 112.949C55.6195 107.366 27.3063 118.573 13.0112 139.546C9.96752 137.369 6.28119 134.611 3.94549 131.687C3.06431 135.296 4.09556 139.318 6.60442 142.054C4.63427 140.944 2.66797 139.838 0.697826 138.729C1.5867 142.874 3.52221 146.792 6.26964 150.02C3.95318 149.188 1.80603 147.89 -0.00634766 146.222C1.2173 149.82 3.7377 152.967 6.98151 154.948C4.79204 154.871 2.42555 154.805 0.143722 154.72C2.35244 158.03 8.06279 159.682 10.3677 162.926L10.3754 162.93Z" fill="url(#paint4_linear_3_165289)"/>
<g style="mix-blend-mode:overlay" opacity="0.4">
<path d="M13.0191 157.309C9.6291 155.687 6.56999 153.38 4.06882 150.571C5.82733 152.216 8.06683 153.337 10.4372 153.761C7.48964 150.04 5.08853 145.887 3.32617 141.48C5.30786 143.656 7.87829 145.29 10.6911 146.16C8.60555 142.924 6.84319 139.48 5.43484 135.897C8.06299 138.729 11.3299 140.963 14.92 142.389C13.1654 142.231 11.5377 142.165 9.88306 141.553C11.276 144.284 12.669 147.012 14.0619 149.743C11.8763 149.462 9.75608 148.645 7.9514 147.381C9.5329 150.271 11.6724 152.856 14.212 154.951C12.9537 155.344 11.5685 155.317 10.3256 154.878C11.2722 155.757 12.0764 156.431 13.023 157.309H13.0191Z" fill="white"/>
</g>
<g style="mix-blend-mode:overlay" opacity="0.3">
<path d="M34.4325 179.607C31.9506 177.619 28.9723 176.375 26.9868 173.643C34.4325 177.619 42.3785 180.354 50.5669 181.845C47.3385 180.601 44.3602 178.613 41.8783 176.128C50.2168 179.707 58.7861 182.134 67.8019 182.762C68.1713 182.808 68.5484 182.835 68.9332 182.835C68.5561 182.816 68.179 182.785 67.8019 182.762C64.3772 182.315 61.6452 179.957 58.5091 178.613C65.7586 177.068 73.1043 177.06 80.3654 176.259C77.8565 174.98 75.5131 173.324 73.4045 171.155C73.6546 172.646 73.9008 173.89 74.3972 175.381C71.4189 171.155 68.1905 167.179 65.7086 162.456C64.9621 163.7 65.2122 165.438 65.7086 166.682C59.321 157.301 60.4215 145.544 61.649 134.549C63.269 132.573 64.8505 130.519 66.3166 128.393C74.2087 132.966 83.9902 134.021 92.7673 132.388C92.0208 133.135 91.028 133.879 90.2854 134.626C94.7528 134.129 98.2275 130.65 101.952 128.663C101.206 130.901 99.9668 132.638 99.2203 134.877C116.347 124.687 108.405 101.576 99.2203 88.1545C99.7167 91.1363 100.96 93.6211 101.456 96.6028C96.7384 91.6332 94.0102 85.1728 89.0463 80.4497C89.2965 82.191 89.5427 83.6819 90.0391 85.4193C86.5644 84.6719 85.0753 80.9467 82.3432 79.2054C82.3432 80.9467 82.8396 82.4375 83.0897 83.9284C80.0845 81.1239 77.5525 77.9302 75.2091 74.5825C73.82 70.1907 72.4232 65.7913 70.8186 61.2686C78.1951 64.2503 86.2258 65.1017 94.1372 65.9223C97.6888 66.2921 96.9077 67.9525 100.459 68.3223C103.503 90.2117 118.125 109.605 119.649 131.278C120.442 142.543 117.221 153.904 111.11 163.404C110.906 163.723 110.699 164.039 110.487 164.351C110.352 164.552 110.218 164.748 110.079 164.945C109.952 165.126 109.825 165.307 109.698 165.488C109.564 165.68 109.429 165.869 109.29 166.058C109.059 166.374 108.829 166.686 108.59 166.998C108.459 167.167 108.328 167.337 108.198 167.506C108.04 167.707 107.882 167.911 107.72 168.111C107.59 168.273 107.463 168.435 107.332 168.593C107.07 168.913 106.805 169.228 106.535 169.54C106.424 169.668 106.312 169.795 106.2 169.926C105.997 170.157 105.793 170.388 105.589 170.615C105.473 170.742 105.354 170.873 105.238 171.001C104.942 171.32 104.642 171.64 104.338 171.952C104.257 172.033 104.176 172.114 104.096 172.199C103.838 172.461 103.58 172.719 103.318 172.973C103.214 173.073 103.111 173.173 103.007 173.273C102.676 173.593 102.341 173.909 102.002 174.217C101.96 174.256 101.918 174.291 101.875 174.329C101.56 174.614 101.244 174.892 100.925 175.169C100.829 175.25 100.733 175.335 100.636 175.415C100.275 175.724 99.9129 176.028 99.5435 176.325C99.1164 176.667 98.6854 177.003 98.2506 177.33C98.2006 177.369 98.1506 177.403 98.1044 177.438C97.7119 177.731 97.3156 178.024 96.9154 178.305C96.9038 178.312 96.8923 178.32 96.8808 178.328C83.8632 187.531 66.9476 190.933 51.2596 187.947C40.7162 185.94 31.1964 182.08 23.1157 176.028C26.8367 177.426 30.6384 178.601 34.4441 179.607H34.4325Z" fill="black"/>
</g>
<path d="M98.6744 19.8212C100.052 19.9214 101.403 20.1255 102.715 20.426C105.243 19.3859 107.49 17.6523 109.102 15.4372C108.802 17.19 108.071 19.8559 106.536 20.7535C111.323 20.114 115.44 16.4157 118.337 12.5479C117.526 16.3656 115.563 19.6979 112.477 22.0787C114.678 21.3506 116.775 20.3143 118.691 19.0122C118.095 21.8245 116.537 24.4171 114.359 26.2855C121.535 32.3685 125.837 42.0612 125.071 52.6476C123.844 69.629 111.211 76.1704 95.4037 75.0224C79.5963 73.8743 66.598 65.4799 67.8255 48.4947C69.053 31.5133 82.8671 18.6732 98.6744 19.8212Z" fill="url(#paint5_linear_3_165289)"/>
<g style="mix-blend-mode:overlay" opacity="0.2">
<path d="M112.646 49.9346C113.042 55.6592 109.079 61.0603 103.653 62.7361C97.481 64.6431 90.4547 60.6481 88.8193 54.4342C87.9766 51.2367 88.7308 47.6886 90.3816 44.8763C91.4783 43.0079 93.0174 41.3899 94.8875 40.2881C100.078 37.237 107.382 39.4868 110.679 44.3255C111.892 46.1014 112.511 48.0238 112.642 49.9346H112.646Z" fill="black"/>
</g>
<path d="M111.903 50.2278C112.25 55.236 108.786 59.959 104.038 61.4229C98.6395 63.091 92.4943 59.5969 91.0629 54.1611C90.3279 51.3643 90.9859 48.2593 92.4289 45.8014C93.387 44.168 94.7338 42.7503 96.3692 41.7872C100.91 39.1175 107.297 41.0861 110.179 45.3199C111.238 46.8762 111.78 48.552 111.896 50.224L111.903 50.2278Z" fill="white"/>
<path d="M111.022 53.1561C110.491 56.4191 107.536 60.2099 104.111 60.1405C101.475 60.0905 99.705 58.0217 99.6819 55.3674C99.6627 53.1253 100.582 50.7869 101.91 49.0032C102.102 48.7413 102.31 48.4909 102.529 48.2559C104.219 46.4414 106.82 45.9059 108.844 47.3236C110.033 48.1557 110.822 49.5426 111.045 51.0257C111.153 51.7269 111.137 52.4473 111.022 53.1561Z" fill="#4C280F"/>
<path opacity="0.1" d="M91.066 54.1611C92.4974 59.5969 98.6425 63.091 104.037 61.4229C107.073 60.4829 109.586 58.21 110.91 55.3824C109.667 57.7708 107.477 59.6739 104.857 60.4791C99.9508 61.9969 94.3636 58.8187 93.0669 53.8799C92.3973 51.3412 92.9938 48.5174 94.3098 46.283C95.1794 44.7959 96.403 43.5092 97.8922 42.6347C102.021 40.2116 107.824 41.9991 110.444 45.8476C110.706 46.229 110.929 46.622 111.121 47.0188C110.871 46.4409 110.563 45.8708 110.186 45.3199C107.304 41.0861 100.913 39.1175 96.3723 41.7872C94.7369 42.7465 93.3901 44.168 92.432 45.7976C90.9851 48.2593 90.331 51.3643 91.066 54.1573V54.1611Z" fill="black"/>
<path d="M98.2662 26.7937C97.0618 27.3292 95.8612 28.1921 95.8881 29.1745C95.9112 29.9719 96.7424 30.5536 97.6005 30.9658C100.417 32.3142 104.157 32.6725 107.667 31.9289C108.825 31.6824 110.037 31.2779 110.737 30.5228C111.703 29.4827 111.341 28.0919 110.306 27.2714C107.532 25.0717 101.972 25.1487 98.27 26.7975L98.2662 26.7937Z" fill="#BC8B66"/>
<g style="mix-blend-mode:overlay" opacity="0.2">
<path d="M103.145 31.3083C100.456 31.0001 98.1701 29.8175 96.3 28.1455C96.0383 28.4653 95.8767 28.812 95.8883 29.1741C95.9114 29.9716 96.7425 30.5533 97.6006 30.9655C100.417 32.3138 104.157 32.6721 107.667 31.9286C108.825 31.682 110.037 31.2775 110.737 30.5224C110.899 30.3491 111.018 30.168 111.107 29.9793C108.671 31.081 105.908 31.5703 103.145 31.3122V31.3083Z" fill="black"/>
</g>
<g style="mix-blend-mode:overlay" opacity="0.3">
<path d="M68.406 44.2681C67.848 49.1067 68.6369 53.9029 71.8537 58.5181C72.227 56.7999 70.6378 54.6927 72.2501 53.0631C73.3583 58.3756 76.5021 63.0909 81.0272 65.9109C79.6304 64.5626 79.2995 62.2973 78.1682 60.7217C81.7006 63.4685 84.8983 67.4403 89.6197 67.5328C88.2075 66.4348 87.057 65.1057 85.9103 63.7767C91.9746 67.4133 103.853 70.3103 112.684 65.2213C117.987 62.0508 121.985 57.8632 125.04 53.0015C123.662 69.7209 111.099 76.1622 95.3993 75.0257C79.592 73.8777 66.5936 65.4833 67.8211 48.498C67.925 47.0572 68.1212 45.6472 68.4021 44.2719L68.406 44.2681Z" fill="black"/>
</g>
<g style="mix-blend-mode:overlay" opacity="0.4">
<path d="M100.275 22.0783C102.687 21.8664 105.023 20.8455 106.816 19.2121C105.966 20.9264 104.484 22.3171 102.726 23.0645C106.758 22.7486 110.676 21.1229 113.75 18.4917C112.5 20.5527 110.776 22.3287 108.752 23.6347C111.349 23.627 113.939 22.8449 116.105 21.4195C114.87 23.1069 113.304 24.5477 111.518 25.6341C111.942 25.1333 112.323 24.3782 112.746 23.8812C110.599 24.9869 108.032 25.2527 105.7 24.6132C107.166 23.9082 108.486 22.9066 109.567 21.6931C106.416 23.2841 102.734 23.8042 99.2627 23.1493C100.683 23.026 102.064 22.5021 103.211 21.6545C102.149 22.0282 101.394 22.1476 100.271 22.0821L100.275 22.0783Z" fill="white"/>
</g>
<path d="M110.941 69.9136C116.498 68.0182 121.423 60.8797 124.382 55.8022C129.203 59.7856 133.859 62.4746 139.847 64.2737C139.408 66.5119 138.581 68.6924 137.411 70.6186C134.975 74.6213 130.581 75.0489 125.944 74.4248C122.493 73.9586 119.322 73.1728 115.913 72.4909C117.837 73.5387 119.464 77.2255 118.922 77.9035C114.535 74.9256 110.579 73.5696 110.502 73.6736C110.937 71.8629 111.245 70.5531 110.945 69.9175L110.941 69.9136Z" fill="url(#paint6_linear_3_165289)"/>
<g style="mix-blend-mode:overlay" opacity="0.2">
<path d="M135.433 69.5631C136.872 68.8196 138.135 67.8642 139.2 66.7431C138.746 68.0992 138.15 69.4051 137.415 70.611C134.979 74.6136 130.585 75.0412 125.948 74.4171C122.497 73.951 119.326 73.1651 115.917 72.4832C117.841 73.5311 119.468 77.2178 118.926 77.8959C114.539 74.9179 110.583 73.5619 110.506 73.6659C110.941 71.8553 111.249 70.5455 110.949 69.9098C112.819 69.2742 114.616 68.0414 116.29 66.4966C121.423 70.7496 128.495 72.464 135.437 69.5631H135.433Z" fill="black"/>
</g>
<g style="mix-blend-mode:overlay" opacity="0.2">
<path d="M137.781 64.2505C138.077 64.3353 138.454 64.5318 138.389 64.8053C138.346 64.9825 138.138 65.0595 137.95 65.1058C136.78 65.387 135.522 65.3292 134.298 65.1404C132.467 64.8554 130.619 64.2775 128.949 63.4184C127.653 62.7519 126.333 61.9699 125.386 60.8797C124.713 60.1053 124.243 59.1538 124.213 58.1868C124.201 57.7939 124.317 57.1274 124.851 57.1428C125.217 57.1544 125.483 57.4973 125.733 57.7169C126.087 58.025 126.452 58.3294 126.822 58.6222C130.038 61.1725 133.802 63.0948 137.777 64.2544L137.781 64.2505Z" fill="white"/>
</g>
<path d="M119.08 133.509C119.137 128.447 118.618 123.378 117.54 118.431C123.493 128.455 126.926 139.785 124.186 151.119C121.446 162.453 112.361 172.5 100.894 174.561C103.499 172.896 105.766 170.701 107.517 168.15C103.826 170.808 98.7972 171.494 94.5298 169.919C99.9169 168.166 104.738 164.718 108.148 160.187C104.584 161.031 100.76 160.734 97.3657 159.351C103.857 157.888 109.698 153.731 113.212 148.075C109.148 150.364 104.119 150.865 99.6822 149.424C107.001 144.651 114.07 140.675 119.076 133.509H119.08Z" fill="url(#paint7_linear_3_165289)"/>
<g style="mix-blend-mode:overlay" opacity="0.3">
<path d="M107.52 168.146C103.83 170.805 98.8011 171.49 94.5337 169.915C99.9208 168.162 104.742 164.714 108.152 160.183C104.588 161.027 100.764 160.731 97.3696 159.348C103.861 157.884 109.702 153.727 113.215 148.072C109.152 150.36 104.123 150.861 99.6861 149.42C107.005 144.647 114.074 140.671 119.08 133.506C119.137 128.444 118.618 123.374 117.541 118.427C119.58 121.864 121.323 125.45 122.624 129.141C122.547 132.889 121.816 136.715 121.558 140.34C123.047 139.592 123.297 137.605 124.29 136.364C124.54 141.831 122.551 146.8 120.069 151.277C121.061 150.283 121.808 149.038 123.047 148.295C121.308 153.265 118.826 157.737 114.855 161.216C115.847 160.966 116.84 160.469 117.833 160.222C113.4 164.837 108.713 170.466 102.776 173.216C104.596 171.775 106.201 170.061 107.517 168.146H107.52Z" fill="black"/>
</g>
<path d="M63.9538 114.637C66.0432 126.768 75.7054 137.25 87.6186 140.305C99.528 143.364 113.038 138.826 120.699 129.199C121.781 134.245 120.495 139.581 116.555 142.775C117.602 142.374 121.354 141.345 121.354 141.345C121.354 141.345 121.038 145.044 118.314 148.669C115.986 151.766 113.25 154.613 109.848 156.466C111.16 156.505 112.472 156.547 113.785 156.586C111.08 162.634 104.773 166.864 98.1774 167.187C98.9046 167.58 101.556 169.441 101.556 169.441C101.556 169.441 99.9513 171.302 95.8917 171.71C87.4993 172.55 78.9531 170.554 72.3038 165.357C61.645 157.029 55.2305 143.522 55.4999 129.989C55.6191 123.994 58.5359 117.187 63.9538 114.633V114.637Z" fill="url(#paint8_linear_3_165289)"/>
<g style="mix-blend-mode:overlay" opacity="0.15">
<path d="M73.9006 163.207C81.8427 166.44 89.7887 171.409 98.7236 169.421C95.4952 167.433 92.5169 165.195 90.5314 161.967C96.9844 161.967 103.687 162.217 109.398 159.232C106.169 159.232 103.191 157.244 99.9665 156.747C106.173 154.759 111.88 151.03 116.101 145.814C112.376 146.311 108.655 147.058 104.93 146.808C108.405 144.569 111.88 142.335 114.115 138.856C102.202 144.323 88.0533 144.82 76.3863 137.115C72.4576 134.445 69.8025 130.508 68.498 126.197C72.8693 133.031 79.7533 138.29 87.6185 140.309C99.5278 143.367 113.038 138.829 120.699 129.202C121.78 134.249 120.495 139.584 116.555 142.778C117.602 142.377 121.353 141.349 121.353 141.349C121.353 141.349 121.038 145.047 118.313 148.672C115.985 151.77 113.25 154.616 109.848 156.469C111.16 156.508 112.472 156.55 113.784 156.589C111.079 162.637 104.773 166.867 98.1772 167.191C98.9045 167.584 101.556 169.444 101.556 169.444C101.556 169.444 99.9511 171.305 95.8915 171.713C87.4992 172.553 78.9529 170.558 72.3037 165.361C71.4302 164.679 70.5913 163.959 69.7794 163.211C72.6038 164.822 75.7014 166.02 79.1145 166.682C77.129 165.935 75.3897 164.694 73.9006 163.204V163.207Z" fill="black"/>
</g>
<g style="mix-blend-mode:overlay" opacity="0.2">
<path d="M79.4302 141.195C86.6297 144.655 94.668 146.35 102.652 146.092C99.6165 148.445 96.0956 150.171 92.3746 151.119C95.8147 151.882 99.2548 152.645 102.691 153.407C98.7892 154.813 94.8874 156.223 90.9817 157.63C92.8518 157.868 94.6796 158.427 96.365 159.271C92.7017 159.721 89.0423 160.168 85.3791 160.619C86.8606 162.888 88.5844 164.999 90.5122 166.902C86.5104 165.508 82.8779 163.058 80.0882 159.864C81.8082 160.584 83.5244 161.301 85.2444 162.021C83.3281 160.118 81.6658 157.957 80.319 155.615C83.5783 157.017 87.0491 157.922 90.5777 158.292C88.7922 157.075 87.1645 156.05 85.3791 154.833C88.0727 154.409 90.7624 153.985 93.4559 153.561C90.216 153.003 87.0645 151.928 84.1593 150.387C87.3492 149.324 90.5392 148.264 93.7291 147.201C88.0688 147.255 83.6283 144.998 79.434 141.188L79.4302 141.195Z" fill="white"/>
</g>
<path d="M139.205 0.054051C136.253 -0.365862 133.348 1.70673 132.882 4.67694C132.682 5.95209 134.395 6.46831 134.837 5.21628C135.641 2.94721 138.254 1.16354 140.471 2.91639C142.799 4.75399 142.194 8.79517 141.363 11.2029C140.363 14.0999 138.493 16.5847 136.773 19.0849C135.468 20.9842 133.052 23.9197 134.341 26.3544C134.622 26.8899 135.345 26.497 135.257 25.9692C134.93 24.0931 136.438 22.398 137.469 20.9688C138.539 19.4856 139.659 18.0409 140.686 16.527C142.625 13.6762 144.242 10.3515 144.138 6.81888C144.045 3.72925 142.552 0.535602 139.205 0.0579034V0.054051Z" fill="#96603B"/>
<path d="M135.737 31.2818C135.464 31.0699 135.102 31.0353 134.802 31.1624C134.621 31.0738 134.36 31.1739 134.313 31.3858C134.29 31.4937 134.286 31.6054 134.29 31.7133C134.179 32.0484 134.26 32.4106 134.51 32.6802C134.679 32.8652 134.929 32.9461 135.172 32.9538C135.464 32.9653 135.733 32.8074 135.906 32.5839C136.222 32.1717 136.149 31.5939 135.737 31.278V31.2818Z" fill="#96603B"/>
<path d="M150.302 3.49381C149.475 7.52728 148.797 11.5877 148.024 15.6327C147.651 17.5936 147.258 19.5468 146.885 21.5077C146.52 23.4185 145.804 25.6028 145.969 27.5598C146 27.9412 146.496 28.1184 146.712 27.7601C147.716 26.0843 148.013 23.823 148.463 21.943C148.928 20.0052 149.352 18.0636 149.763 16.1143C150.614 12.0847 151.433 8.0435 151.987 3.95995C152.134 2.87742 150.533 2.36505 150.302 3.49381Z" fill="#96603B"/>
<path d="M146.127 32.9996C146.038 32.9072 145.923 32.8417 145.8 32.7993C145.746 32.7338 145.68 32.6722 145.604 32.6298C145.342 32.4757 145.026 32.4719 144.761 32.6144C144.572 32.7184 144.411 32.9264 144.357 33.1383C144.303 33.3463 144.314 33.5621 144.418 33.7547C144.438 33.9088 144.484 34.0629 144.572 34.1977C144.753 34.4751 145.03 34.6408 145.361 34.6523C145.638 34.6639 145.854 34.5252 146.061 34.3634C146.008 34.4058 145.954 34.4443 145.9 34.4867C146.119 34.3518 146.292 34.1554 146.362 33.905C146.454 33.5775 146.354 33.2423 146.119 32.9996H146.127Z" fill="#96603B"/>
</g>
<defs>
<linearGradient id="paint0_linear_3_165289" x1="102.868" y1="202.841" x2="66.9287" y2="202.841" gradientUnits="userSpaceOnUse">
<stop offset="0.23" stop-color="#EA8E49"/>
<stop offset="0.99" stop-color="#C6601A"/>
</linearGradient>
<linearGradient id="paint1_linear_3_165289" x1="71.6691" y1="172.573" x2="68.6916" y2="205.179" gradientUnits="userSpaceOnUse">
<stop stop-color="#F9EFE8"/>
<stop offset="0.34" stop-color="#F8EDE5"/>
<stop offset="0.58" stop-color="#F5E7DC"/>
<stop offset="0.78" stop-color="#F0DDCC"/>
<stop offset="0.97" stop-color="#E9CFB6"/>
<stop offset="1" stop-color="#E8CDB3"/>
</linearGradient>
<linearGradient id="paint2_linear_3_165289" x1="88.5462" y1="205.576" x2="52.6064" y2="205.576" gradientUnits="userSpaceOnUse">
<stop offset="0.23" stop-color="#EA8E49"/>
<stop offset="0.99" stop-color="#C6601A"/>
</linearGradient>
<linearGradient id="paint3_linear_3_165289" x1="57.5358" y1="174.603" x2="54.5583" y2="207.209" gradientUnits="userSpaceOnUse">
<stop stop-color="#F9EFE8"/>
<stop offset="0.34" stop-color="#F8EDE5"/>
<stop offset="0.58" stop-color="#F5E7DC"/>
<stop offset="0.78" stop-color="#F0DDCC"/>
<stop offset="0.97" stop-color="#E9CFB6"/>
<stop offset="1" stop-color="#E8CDB3"/>
</linearGradient>
<linearGradient id="paint4_linear_3_165289" x1="60.2409" y1="192.686" x2="59.4194" y2="72.7873" gradientUnits="userSpaceOnUse">
<stop stop-color="#F9EFE8"/>
<stop offset="1" stop-color="#E8CDB3"/>
</linearGradient>
<linearGradient id="paint5_linear_3_165289" x1="90.9714" y1="72.9194" x2="104.657" y2="17.1162" gradientUnits="userSpaceOnUse">
<stop stop-color="#E8CDB3"/>
<stop offset="1" stop-color="#F9EFE8"/>
</linearGradient>
<linearGradient id="paint6_linear_3_165289" x1="129.805" y1="51.0881" x2="121.713" y2="80.761" gradientUnits="userSpaceOnUse">
<stop offset="0.23" stop-color="#EA8E49"/>
<stop offset="0.99" stop-color="#C6601A"/>
</linearGradient>
<linearGradient id="paint7_linear_3_165289" x1="125.144" y1="146.496" x2="94.5375" y2="146.496" gradientUnits="userSpaceOnUse">
<stop stop-color="#D3AD8D"/>
<stop offset="0.08" stop-color="#D0A988"/>
<stop offset="0.65" stop-color="#C1936F"/>
<stop offset="0.99" stop-color="#BC8B66"/>
</linearGradient>
<linearGradient id="paint8_linear_3_165289" x1="112.071" y1="160.437" x2="60.6829" y2="117.258" gradientUnits="userSpaceOnUse">
<stop stop-color="#D3AD8D"/>
<stop offset="0.31" stop-color="#DDBEA3"/>
<stop offset="0.74" stop-color="#E9D1BC"/>
<stop offset="0.99" stop-color="#EED9C6"/>
</linearGradient>
<clipPath id="clip0_3_165289">
<rect width="152" height="229.188" fill="white"/>
</clipPath>
</defs>
</svg>
