<?xml version="1.0" encoding="utf-8"?>
<!-- Generator: Adobe Illustrator 28.0.0, SVG Export Plug-In . SVG Version: 6.00 Build 0)  -->
<svg version="1.1" id="Layer_1" xmlns="http://www.w3.org/2000/svg" xmlns:xlink="http://www.w3.org/1999/xlink" x="0px" y="0px"
	 viewBox="0 0 96 96" style="enable-background:new 0 0 96 96;" xml:space="preserve">
<style type="text/css">
	.st0{fill:#B3B3B3;}
</style>
<path class="st0" d="M48,8c-11.9,0-21.7,8.7-23.6,20h8.2c1.8-6.9,8-12,15.4-12c4.3,0,8.3,1.8,11.3,4.7L52,28h20V8l-7.1,7.1
	C60.5,10.7,54.5,8,48,8z M16,36c-4.4,0-8,3.6-8,8v32c0,4.4,3.6,8,8,8h64c4.4,0,8-3.6,8-8V44c0-4.4-3.6-8-8-8H16z M16,44h60v32H16V44
	z"/>
</svg>
