<svg width="24" height="24" viewBox="0 0 24 24" fill="none" xmlns="http://www.w3.org/2000/svg">
<circle cx="12" cy="12" r="12" fill="#939E17"/>
<path d="M11.25 6.91667V7.26042L8.625 6.91667C8.14102 6.91667 7.75 7.3263 7.75 7.83333C7.75 8.34036 8.14102 8.75 8.625 8.75L11.25 8.40625L12.0977 8.29453L12.125 8.29167L12.1523 8.29453L13 8.40625L15.625 8.75C16.109 8.75 16.5 8.34036 16.5 7.83333C16.5 7.3263 16.109 6.91667 15.625 6.91667L13 7.26042V6.91667C13 6.40964 12.609 6 12.125 6C11.641 6 11.25 6.40964 11.25 6.91667ZM6.875 11.5C6.39102 11.5 6 11.9096 6 12.4167V14.25C6 14.757 6.39102 15.1667 6.875 15.1667H9.61211C10.1645 15.9974 11.0859 16.5417 12.125 16.5417C13.1641 16.5417 14.0855 15.9974 14.6379 15.1667H15.625C16.109 15.1667 16.5 15.5763 16.5 16.0833C16.5 16.5904 16.891 17 17.375 17H19.125C19.609 17 20 16.5904 20 16.0833C20 13.551 18.0422 11.5 15.625 11.5H14.75L14.132 10.8526C13.968 10.6807 13.7465 10.5833 13.5141 10.5833H13V9.32865L12.125 9.21406L11.25 9.32865V10.5833H10.7387C10.5063 10.5833 10.2848 10.6807 10.1207 10.8526L9.5 11.5H6.875Z" fill="white"/>
</svg>
