<?xml version="1.0" encoding="utf-8"?>
<!-- Generator: Adobe Illustrator 28.0.0, SVG Export Plug-In . SVG Version: 6.00 Build 0)  -->
<svg version="1.1" id="Layer_1" xmlns="http://www.w3.org/2000/svg" xmlns:xlink="http://www.w3.org/1999/xlink" x="0px" y="0px"
	 viewBox="0 0 96 96" style="enable-background:new 0 0 96 96;" xml:space="preserve">
<style type="text/css">
	.st0{fill:#B3B3B3;}
</style>
<path class="st0" d="M14.8,9.2l-5.7,5.7l11.7,11.7c-5.7,2.9-10.8,6.6-15.3,11l7.8,7.8c4.8-4.3,10.3-7.6,16.4-9.9l6.3,6.3
	c-6.4,1.8-12.2,5-17.1,9.3l8.5,8.5c5.2-4.3,11.8-7.1,18.9-7.4l9.2,9.2c-2.4-0.8-5-1.3-7.6-1.3c-5.6,0-10.7,1.9-14.8,5.2L48,80
	l13.2-13.2l20,20l5.7-5.7L14.8,9.2z M48,20c-3.4,0-6.7,0.4-10,0.9l11.1,11.2c12.9,0.3,24.6,5.3,33.5,13.3l7.8-7.8
	C79.6,26.7,64.6,20,48,20z M58.4,41.3l14.1,14.1L77,51C71.8,46.4,65.4,43,58.4,41.3z"/>
</svg>
