<svg width="96" height="96" viewBox="0 0 96 96" fill="none" xmlns="http://www.w3.org/2000/svg">
<path d="M48 8.03906C32.576 8.03906 20.0312 20.5916 20.0312 36.0156C20.0312 53.9476 43.8981 83.0767 44.9141 84.3047L48 88.0469L51.0859 84.3047C52.1019 83.0727 75.9688 53.9476 75.9688 36.0156C75.9687 20.5876 63.424 8.03906 48 8.03906ZM48 16.0391C59.012 16.0391 67.9688 25.0036 67.9688 36.0156C67.9687 46.8356 55.512 65.4447 48 75.3047C40.488 65.4527 28.0312 46.8516 28.0312 36.0156C28.0312 25.0036 36.988 16.0391 48 16.0391ZM48 26C42.476 26 38 30.476 38 36C38 41.524 42.476 46 48 46C53.524 46 58 41.524 58 36C58 30.476 53.524 26 48 26Z" fill="#4F4AFF"/>
</svg>
