<svg width="96" height="96" viewBox="0 0 96 96" fill="none" xmlns="http://www.w3.org/2000/svg">
<path d="M48 20C31.432 20 16.4303 26.7143 5.57031 37.5703L13.3438 45.3438C22.5557 37.0798 34.68 32 48 32C61.32 32 73.4482 37.0758 82.6562 45.3438L90.4219 37.5781C79.5659 26.7181 64.568 20 48 20ZM48 40C36.884 40 26.7482 44.1722 18.9922 50.9922L27.4766 59.4766C33.0406 54.8166 40.196 52 48 52C55.804 52 62.9634 54.8126 68.5234 59.4766L77 51C69.248 44.176 59.116 40 48 40ZM48 60C42.4 60 37.2599 61.9479 33.1719 65.1719L48 80L62.8281 65.1719C58.7401 61.9479 53.6 60 48 60Z" fill="#4F4AFF"/>
</svg>
