<?xml version="1.0" encoding="utf-8"?>
<!-- Generator: Adobe Illustrator 28.0.0, SVG Export Plug-In . SVG Version: 6.00 Build 0)  -->
<svg version="1.1" id="Layer_1" xmlns="http://www.w3.org/2000/svg" xmlns:xlink="http://www.w3.org/1999/xlink" x="0px" y="0px"
	 viewBox="0 0 96 96" style="enable-background:new 0 0 96 96;" xml:space="preserve">
<style type="text/css">
	.st0{fill:#B3B3B3;}
</style>
<path class="st0" d="M68,12c-4.4,0-8,3.6-8,8v28l8-8h16c4.4,0,8-3.6,8-8V20c0-4.4-3.6-8-8-8H68z M38,20c-7.7,0-14,6.3-14,14
	s6.3,14,14,14s14-6.3,14-14S45.7,20,38,20z M68,20h16v12H68V20z M38,28c3.4,0,6,2.6,6,6s-2.6,6-6,6s-6-2.6-6-6S34.6,28,38,28z
	 M38,56c-5.9,0-12.8,1.7-18.6,4.5c-2.9,1.4-5.5,3.1-7.6,5.2C9.7,67.9,8,70.7,8,74v10h60v-4v-6c0-3.3-1.7-6.1-3.8-8.2
	c-2.1-2.1-4.7-3.8-7.6-5.2C50.8,57.7,43.9,56,38,56z M38,64c4.3,0,10.5,1.5,15.1,3.7c2.3,1.1,4.2,2.4,5.4,3.6
	c1.2,1.2,1.5,2.1,1.5,2.7v2H16v-2c0-0.6,0.3-1.5,1.5-2.7c1.2-1.2,3.1-2.5,5.4-3.6C27.5,65.5,33.7,64,38,64z"/>
</svg>
