<svg width="125" height="125" viewBox="0 0 125 125" fill="none" xmlns="http://www.w3.org/2000/svg">
<g filter="url(#filter0_d_955_144825)">
<path d="M96.8747 5.01657C97.1172 4.57071 97.4451 4.17702 97.8398 3.85803C98.2344 3.53904 98.688 3.301 99.1747 3.15752C99.6614 3.01404 100.172 2.96794 100.676 3.02185C101.181 3.07575 101.669 3.22862 102.115 3.4717C103.757 4.37287 105.996 6.09799 108.204 8.78093C110.428 11.4845 112.142 14.6721 113.125 18.3592C114.466 23.3072 114.261 28.5472 112.538 33.3754C112.13 34.5924 111.6 35.7654 110.958 36.8771C110.449 37.7133 109.642 38.325 108.699 38.5883C107.757 38.8516 106.749 38.747 105.881 38.2956C105.012 37.8442 104.348 37.0797 104.021 36.1568C103.695 35.2338 103.731 34.2212 104.122 33.3239L104.364 32.8604C106.336 28.9978 106.804 24.5402 105.677 20.3521C105.028 17.9094 103.859 15.6362 102.249 13.6885C100.735 11.8501 99.258 10.7069 98.419 10.2486C97.5202 9.7587 96.8527 8.93186 96.5632 7.9498C96.2736 6.96775 96.3857 5.91599 96.8747 5.01657ZM76.3467 71.3742C76.2153 70.8842 75.9887 70.4249 75.6799 70.0225C75.371 69.6202 74.9859 69.2826 74.5466 69.0292C74.1073 68.7757 73.6224 68.6113 73.1196 68.5454C72.6168 68.4795 72.1059 68.5133 71.6162 68.6449L61.6713 71.3124L61.1772 71.4772C60.2759 71.8567 59.5521 72.5641 59.152 73.4567C58.7519 74.3493 58.7053 75.3605 59.0215 76.2862C59.3378 77.2119 59.9934 77.983 60.8559 78.4438C61.7184 78.9046 62.7236 79.0209 63.6685 78.769L73.6134 76.1067L74.1127 75.9368C74.9736 75.5751 75.6744 74.9136 76.0852 74.0747C76.4959 73.2358 76.5888 72.2764 76.3467 71.3742ZM78.4366 21.8454C78.0424 20.3754 77.3626 18.9975 76.436 17.7904C75.5095 16.5833 74.3542 15.5706 73.0363 14.8103C71.7185 14.0499 70.2638 13.5568 68.7553 13.359C67.2469 13.1612 65.7143 13.2627 64.245 13.6576L40.6079 19.9967C37.6426 20.7932 35.1148 22.735 33.5801 25.3954C32.0454 28.0557 31.6293 31.2168 32.4235 34.1839L46.6047 87.1526C47.3986 90.121 49.3387 92.6523 51.9982 94.1898C54.6577 95.7272 57.8187 96.1448 60.7859 95.3507L84.4385 89.0167C85.9083 88.6235 87.2862 87.9444 88.4935 87.0182C89.7009 86.0921 90.714 84.937 91.475 83.6191C92.236 82.3011 92.73 80.846 92.9287 79.337C93.1275 77.828 93.0271 76.2946 92.6332 74.8244L78.4366 21.8454ZM66.2474 21.1142C66.7375 20.9818 67.2489 20.9474 67.7523 21.0129C68.2557 21.0785 68.7412 21.2427 69.1811 21.4962C69.6209 21.7497 70.0065 22.0875 70.3157 22.4903C70.6249 22.8931 70.8517 23.3529 70.9831 23.8435L85.1746 76.8328C85.4388 77.8216 85.2999 78.8748 84.7883 79.7612C84.2768 80.6476 83.4345 81.2946 82.4464 81.5601L58.7887 87.8941C58.299 88.0257 57.7881 88.0596 57.2853 87.9936C56.7825 87.9277 56.2976 87.7633 55.8583 87.5099C55.419 87.2564 55.0339 86.9189 54.7251 86.5165C54.4162 86.1141 54.1896 85.6548 54.0582 85.1648L39.8821 32.191C39.6179 31.2022 39.7569 30.1489 40.2684 29.2625C40.7799 28.3762 41.6222 27.7292 42.6103 27.4636L66.2474 21.1142ZM96.221 14.8471C95.8185 14.5311 95.3573 14.2982 94.864 14.162C94.3708 14.0258 93.8554 13.9891 93.3479 14.054C92.8403 14.1189 92.3507 14.284 91.9075 14.5399C91.4644 14.7957 91.0765 15.1371 90.7663 15.5443C90.4562 15.9515 90.2301 16.4162 90.1012 16.9116C89.9722 17.407 89.9429 17.923 90.0151 18.4298C90.0873 18.9366 90.2594 19.4239 90.5216 19.8636C90.7837 20.3032 91.1306 20.6863 91.542 20.9906L91.7118 21.1348C91.9177 21.3253 92.2215 21.6395 92.5252 22.0411C92.9048 22.5201 93.1895 23.0672 93.3642 23.6529C93.5835 24.6321 93.5301 25.6527 93.2098 26.6037L92.9524 27.3658C92.7047 28.31 92.8235 29.3131 93.2851 30.1732C93.7466 31.0332 94.5166 31.6866 95.4401 32.0017C96.3637 32.3169 97.3723 32.2705 98.263 31.8718C99.1537 31.4732 99.8605 30.7519 100.241 29.8531C100.332 29.6332 100.415 29.4098 100.488 29.1836L100.756 28.267C101.302 26.1454 101.425 23.9053 100.823 21.6549C100.393 20.1046 99.6659 18.6529 98.6815 17.3807C97.9768 16.4312 97.1494 15.5793 96.221 14.8471ZM13.8 72.0591C14.2895 71.2123 15.0819 70.5828 16.0173 70.2979C16.9527 70.0129 17.9614 70.0936 18.8396 70.5238C19.7178 70.9539 20.4001 71.7014 20.7488 72.6153C21.0975 73.5292 21.0865 74.5414 20.7182 75.4475L20.2292 76.4414C18.5845 80.235 18.2796 84.4756 19.3644 88.4657C20.0541 91.0405 21.2329 93.2806 22.7668 95.2065C24.0949 96.8647 25.392 97.9822 26.2671 98.5641L26.612 98.7803C27.0546 99.0321 27.443 99.3689 27.755 99.7715C28.0669 100.174 28.2962 100.634 28.4296 101.126C28.563 101.617 28.5979 102.131 28.5323 102.636C28.4666 103.141 28.3018 103.628 28.0472 104.069C27.7926 104.51 27.4534 104.896 27.0489 105.206C26.6445 105.515 26.1829 105.742 25.6906 105.872C25.1984 106.002 24.6853 106.033 24.1809 105.964C23.6764 105.895 23.1906 105.727 22.7514 105.47C21.13 104.532 18.9165 102.756 16.7392 100.027C14.4811 97.2097 12.835 93.9528 11.9057 90.4638C10.5637 85.5287 10.716 80.3062 12.3433 75.4578C12.858 73.913 13.3933 72.7595 13.8 72.0591ZM29.8343 76.8946C29.3659 76.7004 28.8638 76.6005 28.3567 76.6005C27.8497 76.6005 27.3476 76.7005 26.8792 76.8946C26.4107 77.0888 25.9851 77.3733 25.6266 77.732C25.2681 78.0908 24.9838 78.5166 24.7898 78.9853C24.7177 79.1656 24.6354 79.387 24.5479 79.6548L24.2853 80.5611C23.75 82.6724 23.6265 84.9176 24.2339 87.1629C24.6457 88.7283 25.392 90.1496 26.3546 91.4267C27.2297 92.5957 28.1151 93.4402 28.7997 93.9655C29.6127 94.5599 30.6258 94.8129 31.6227 94.6707C32.6197 94.5284 33.5216 94.002 34.136 93.2039C34.7505 92.4057 35.029 91.3989 34.9119 90.3983C34.7949 89.3977 34.2917 88.4824 33.5096 87.8478L33.3397 87.6984C33.0429 87.4185 32.7708 87.1136 32.5264 86.7869C32.1463 86.3025 31.8616 85.7503 31.6874 85.1597C31.4695 84.1786 31.5229 83.1568 31.8418 82.2038L32.0889 81.4417C32.3255 80.5391 32.2275 79.5814 31.8131 78.7456C31.3986 77.9097 30.6957 77.2522 29.8343 76.8946Z" fill="#B3B3B3"/>
</g>
<defs>
<filter id="filter0_d_955_144825" x="0.435897" y="0.358974" width="124.128" height="124.128" filterUnits="userSpaceOnUse" color-interpolation-filters="sRGB">
<feFlood flood-opacity="0" result="BackgroundImageFix"/>
<feColorMatrix in="SourceAlpha" type="matrix" values="0 0 0 0 0 0 0 0 0 0 0 0 0 0 0 0 0 0 127 0" result="hardAlpha"/>
<feOffset dy="7.92308"/>
<feGaussianBlur stdDeviation="5.28205"/>
<feComposite in2="hardAlpha" operator="out"/>
<feColorMatrix type="matrix" values="0 0 0 0 0 0 0 0 0 0 0 0 0 0 0 0 0 0 0.25 0"/>
<feBlend mode="normal" in2="BackgroundImageFix" result="effect1_dropShadow_955_144825"/>
<feBlend mode="normal" in="SourceGraphic" in2="effect1_dropShadow_955_144825" result="shape"/>
</filter>
</defs>
</svg>
