<?xml version="1.0" encoding="utf-8"?>
<!-- Generator: Adobe Illustrator 28.0.0, SVG Export Plug-In . SVG Version: 6.00 Build 0)  -->
<svg version="1.1" id="Layer_1" xmlns="http://www.w3.org/2000/svg" xmlns:xlink="http://www.w3.org/1999/xlink" x="0px" y="0px"
	 viewBox="0 0 96 96" style="enable-background:new 0 0 96 96;" xml:space="preserve">
<style type="text/css">
	.st0{fill:#B3B3B3;}
</style>
<path class="st0" d="M48,16L32,32h12v16.6c-6.9,1.8-12,8-12,15.4c0,8.8,7.2,16,16,16s16-7.2,16-16c0-7.4-5.1-13.6-12-15.4V32h12
	L48,16z M47.6,56c0.2,0,0.5,0,0.7,0c4.3,0.2,7.6,3.6,7.6,8c0,4.5-3.5,8-8,8s-8-3.5-8-8C40,59.7,43.4,56.2,47.6,56z"/>
</svg>
