<?xml version="1.0" encoding="utf-8"?>
<!-- Generator: Adobe Illustrator 28.0.0, SVG Export Plug-In . SVG Version: 6.00 Build 0)  -->
<svg version="1.1" id="Layer_1" xmlns="http://www.w3.org/2000/svg" xmlns:xlink="http://www.w3.org/1999/xlink" x="0px" y="0px"
	 viewBox="0 0 96 96" style="enable-background:new 0 0 96 96;" xml:space="preserve">
<style type="text/css">
	.st0{fill:#B3B3B3;}
</style>
<path class="st0" d="M48,20c-16.6,0-31.6,6.7-42.4,17.6l7.8,7.8C22.6,37.1,34.7,32,48,32s25.4,5.1,34.7,13.3l7.8-7.8
	C79.6,26.7,64.6,20,48,20z M48,40c-11.1,0-21.3,4.2-29,11l8.5,8.5C33,54.8,40.2,52,48,52s15,2.8,20.5,7.5L77,51
	C69.2,44.2,59.1,40,48,40z M48,60c-5.6,0-10.7,1.9-14.8,5.2L48,80l14.8-14.8C58.7,61.9,53.6,60,48,60z M71.5,65.9l-5.7,5.7l8.5,8.5
	l-8.5,8.5l5.7,5.7l8.5-8.5l8.5,8.5l5.7-5.7L85.7,80l8.5-8.5l-5.7-5.7L80,74.3L71.5,65.9z"/>
</svg>
