<?xml version="1.0" encoding="utf-8"?>
<!-- Generator: Adobe Illustrator 28.0.0, SVG Export Plug-In . SVG Version: 6.00 Build 0)  -->
<svg version="1.1" id="Layer_1" xmlns="http://www.w3.org/2000/svg" xmlns:xlink="http://www.w3.org/1999/xlink" x="0px" y="0px"
	 viewBox="0 0 96 96" style="enable-background:new 0 0 96 96;" xml:space="preserve">
<style type="text/css">
	.st0{fill:#B3B3B3;}
</style>
<path class="st0" d="M44,12L20,36h-8c-4.4,0-8,3.6-8,8v8c0,4.4,3.6,8,8,8h8l24,24V12z M77.9,14.1l-5.7,5.7
	c15.7,15.7,15.7,40.9,0,56.6l5.7,5.7C96.7,63.2,96.7,32.8,77.9,14.1z M66.6,25.4L61,31c9.4,9.4,9.4,24.5,0,33.9l5.7,5.7
	C79.1,58.2,79.1,37.8,66.6,25.4z M36,31.3v33.4L25.7,54.3L23.3,52H20h-8v-8h8h3.3l2.3-2.3L36,31.3z M55.3,36.7l-5.7,5.7
	c3.2,3.2,3.2,8.2,0,11.3l5.7,5.7C61.5,53.1,61.5,42.9,55.3,36.7z"/>
</svg>
