<?xml version="1.0" encoding="utf-8"?>
<!-- Generator: Adobe Illustrator 28.0.0, SVG Export Plug-In . SVG Version: 6.00 Build 0)  -->
<svg version="1.1" id="Layer_1" xmlns="http://www.w3.org/2000/svg" xmlns:xlink="http://www.w3.org/1999/xlink" x="0px" y="0px"
	 viewBox="0 0 96 96" style="enable-background:new 0 0 96 96;" xml:space="preserve">
<style type="text/css">
	.st0{fill:#B3B3B3;}
</style>
<path class="st0" d="M48,8C32.6,8,20,20.6,20,36c0,17.9,23.9,47.1,24.9,48.3L48,88l3.1-3.7C52.1,83.1,76,53.9,76,36
	C76,20.6,63.4,8,48,8z M48,16c11,0,20,9,20,20c0,10.8-12.5,29.4-20,39.3C40.5,65.5,28,46.9,28,36C28,25,37,16,48,16z M48,26
	c-5.5,0-10,4.5-10,10s4.5,10,10,10s10-4.5,10-10S53.5,26,48,26z"/>
</svg>
