<?xml version="1.0" encoding="utf-8"?>
<!-- Generator: Adobe Illustrator 28.0.0, SVG Export Plug-In . SVG Version: 6.00 Build 0)  -->
<svg version="1.1" id="Layer_1" xmlns="http://www.w3.org/2000/svg" xmlns:xlink="http://www.w3.org/1999/xlink" x="0px" y="0px"
	 viewBox="0 0 96 96" style="enable-background:new 0 0 96 96;" xml:space="preserve">
<style type="text/css">
	.st0{fill:#B3B3B3;}
</style>
<path class="st0" d="M48,8C26.2,8,8,23.9,8,44s18.2,36,40,36c1.4,0,2.7-0.3,4-0.4v12.8l6.2-4c8.6-5.6,27.4-20,29.6-40.6
	c0.1-1.2,0.2-2.5,0.2-3.8C88,23.9,69.8,8,48,8z M48,16c18,0,32,12.8,32,28c0,1-0.1,1.9-0.2,2.9v0l0,0C78.4,59.7,68.2,69.8,60,76.3
	v-6l-4.8,1C52.9,71.7,50.5,72,48,72c-18,0-32-12.8-32-28S30,16,48,16z"/>
</svg>
