<?xml version="1.0" encoding="utf-8"?>
<!-- Generator: Adobe Illustrator 28.0.0, SVG Export Plug-In . SVG Version: 6.00 Build 0)  -->
<svg version="1.1" id="Layer_1" xmlns="http://www.w3.org/2000/svg" xmlns:xlink="http://www.w3.org/1999/xlink" x="0px" y="0px"
	 viewBox="0 0 96 96" style="enable-background:new 0 0 96 96;" xml:space="preserve">
<style type="text/css">
	.st0{fill:#B3B3B3;}
</style>
<path class="st0" d="M48,8c-6.4,0-12.3,2.2-17,5.9l5.7,5.7C39.9,17.4,43.8,16,48,16c11,0,20,9,20,20c0,3.4-1.2,7.5-3.1,11.8l6,6
	c3-6.2,5.1-12.5,5.1-17.8C76,20.6,63.4,8,48,8z M14.8,9.2l-5.7,5.7l12.3,12.3C20.5,29.9,20,32.9,20,36c0,17.9,23.9,47.1,24.9,48.3
	L48,88l3.1-3.7c0.5-0.6,5.9-7.3,11.5-16l18.5,18.5l5.7-5.7L67,61.3c0,0,0,0,0-0.1l-5.9-5.9c0,0,0,0,0,0.1l-30-30c0,0,0,0,0-0.1
	l-5.8-5.8c0,0,0,0,0,0.1L14.8,9.2z M48.1,26.1c-1.4,0-2.8,0.3-4.1,0.9l13.2,13.2c0.6-1.2,0.9-2.6,0.9-4.1
	C58.1,30.5,53.6,26.1,48.1,26.1z M28.2,33.8l28.7,28.7c-3.1,4.8-6.3,9.4-8.9,12.8C40.5,65.5,28,46.9,28,36
	C28,35.3,28.1,34.6,28.2,33.8z"/>
</svg>
