<svg width="198" height="105" viewBox="0 0 198 105" fill="none" xmlns="http://www.w3.org/2000/svg">
<g filter="url(#filter0_d_955_144832)">
<path d="M182.69 27.3575C176.68 14.8567 166.82 7.07153 153.164 4.71368C147.101 3.67283 140.77 4.08705 134.557 4.05518C124.409 4.0127 121.104 7.91059 122.441 18.4041C107.491 18.4041 92.5944 18.3722 77.6871 18.4359C75.3452 18.4359 75.4521 17.6819 75.7195 15.6533C76.6712 8.40977 72.9391 4.24636 65.5603 4.0658C60.4166 3.93835 55.2514 4.04456 50.1077 4.17201C39.8737 4.41629 31.2651 8.44163 23.8008 15.2815C18.7105 19.9335 16.1761 26.1149 13 31.9352V35.1215C16.7001 37.6174 17.438 34.8878 18.3897 32.2113C21.9615 22.132 28.9018 15.1435 38.7401 11.0756C47.9368 7.27333 57.6682 8.64343 67.2179 8.7284C69.8592 8.74964 71.3671 11.0438 71.3778 13.476C71.3778 16.1737 69.8379 18.2235 66.8115 18.3085C62.3628 18.4359 57.9142 18.5528 53.4762 18.3616C49.0276 18.1704 48.3218 20.3265 49.2415 24.0013C50.4927 28.9825 54.6633 32.8167 60.2775 33.2522C65.4106 33.6558 70.5864 33.4115 75.7409 33.5814C78.6175 33.677 82.5315 32.8698 82.4459 37.4262C82.3711 41.4091 78.8742 41.0798 76.0189 41.1648C75.1313 41.186 74.2437 41.2073 73.3561 41.2391C72.137 41.2922 71.3136 41.972 71.089 43.0872C70.8538 44.2767 71.613 45.2751 72.6717 45.5194C75.4094 46.1566 77.6444 47.3462 76.7568 50.4687C75.9013 53.4851 73.0246 53.2302 70.5116 53.1877C69.624 53.1771 68.7257 53.1877 67.8488 53.2408C66.6939 53.3258 65.7635 53.9205 65.4748 55.0145C65.0898 56.4802 65.9132 57.3405 67.3034 57.7228C69.6988 58.3919 71.8376 59.454 71.1532 62.4067C70.426 65.5292 67.7312 65.5398 65.1646 65.5505C64.277 65.5505 63.3788 65.5186 62.5019 65.593C61.4539 65.6885 60.2882 65.6992 59.9888 67.0374C59.6787 68.4287 60.1599 69.6608 61.5715 69.9369C64.5551 70.5105 66.1912 72.008 65.293 75.0668C64.4482 77.9664 61.7961 77.584 59.5076 77.584C47.231 77.5946 34.9545 77.584 22.6672 77.6052C20.8065 77.6052 18.2614 77.0848 18.3362 80.048C18.4004 82.7245 20.8279 82.066 22.4427 82.0767C35.4357 82.1298 48.4181 82.1085 61.4111 82.0979C63.5926 82.0979 65.6138 81.6199 67.389 80.2286C70.9821 77.4141 68.7578 72.3054 70.6613 69.9582C73.1209 66.9418 76.4039 64.9238 75.9227 60.4418C75.9013 60.2612 75.912 60.0701 75.8264 59.9214C74.896 58.2326 75.8264 57.5529 77.2594 56.7882C81.3231 54.6003 81.0771 50.8617 81.6011 46.8364C82.0502 43.3527 87.9532 41.9082 87.333 37.0545C87.3116 36.8845 87.333 36.6827 87.2795 36.534C86.3278 34.07 87.4399 33.4964 89.7605 33.5389C95.9843 33.6345 102.219 33.6027 108.443 33.5496C110.346 33.5389 111.394 33.7301 110.892 36.1835C110.186 39.6247 111.672 42.6092 114.656 44.298C116.677 45.4344 116.762 46.6877 116.538 48.5782C116.035 52.816 118.891 54.8552 121.585 57.6485C123.746 59.8895 121.115 65.0619 124.729 67.8021C125.286 68.2269 125.831 68.7792 126.473 68.981C128.323 69.5758 128.012 70.6698 127.863 72.2629C127.285 78.4868 130.397 81.9917 136.76 82.0554C149.571 82.2041 162.382 82.1404 175.194 82.0554C176.905 82.0448 179.653 82.9794 179.674 79.9206C179.696 76.9467 177.054 77.6265 175.237 77.6052C168.852 77.5415 162.468 77.5734 155.859 77.5734C156.822 72.4222 153.303 69.4908 151.731 65.816C149.614 60.856 146.695 56.1934 144.994 51.2334C143.807 47.771 143.946 44.1068 140.321 41.9932C137.049 40.0921 140.011 37.1925 139.145 34.8134C138.631 33.4009 140.449 33.6664 141.412 33.5496C143.936 33.2628 145.518 33.8788 146.716 36.5871C149.881 43.7457 155.742 47.7391 163.548 48.78C165.206 49.003 167.494 49.5341 167.879 47.0382C168.286 44.436 166.05 44.5953 164.297 44.3192C157.656 43.2465 152.844 39.8053 150.341 33.454C149.004 30.0553 149.208 26.4972 149.325 22.9817C149.454 19.5299 148.021 18.2129 144.577 18.3616C140.31 18.5422 136.033 18.3935 131.766 18.3828C128.483 18.3722 126.633 16.418 126.644 13.476C126.644 10.5233 128.601 8.62219 131.819 8.57971C135.199 8.5266 138.578 8.62219 141.957 8.53722C160.319 8.10176 173.461 15.5577 179.899 33.1884C180.872 35.8543 182.284 37.1182 185 35.1108V31.9245C183.428 30.7987 183.439 28.887 182.701 27.3469L182.69 27.3575ZM88.5842 28.8551C79.3661 28.7701 70.148 28.8551 60.9299 28.7595C57.8287 28.7276 55.6899 26.9964 53.7436 23.226C65.9667 23.226 77.4198 23.2579 88.8836 23.2048C91.5357 23.1941 90.862 24.9784 91.0117 26.4441C91.2042 28.2922 90.4449 28.8763 88.5949 28.8657L88.5842 28.8551ZM98.8075 28.887C96.9361 28.9082 95.4069 28.9932 95.3748 26.253C95.3427 23.4915 96.5618 22.8755 98.861 23.1941C101.043 22.9923 102.593 23.141 102.604 26.083C102.615 29.1843 100.775 28.8657 98.7968 28.887H98.8075ZM118.206 40.7506C116.217 40.3894 115.223 38.9344 115.458 36.8633C115.693 34.7603 117.126 33.7514 119.062 33.6876C122.954 33.5708 126.847 33.5708 130.739 33.677C132.942 33.7407 134.514 34.9409 134.557 37.235C134.6 39.5291 133.017 40.7718 130.889 41.0161C128.964 41.2391 126.997 41.0586 125.05 41.0586V41.3453C122.751 41.1648 120.441 41.1435 118.195 40.7399L118.206 40.7506ZM151.443 73.7073C151.507 76.0864 149.967 77.5521 147.379 77.5734C145.615 77.5734 143.839 77.5734 142.075 77.5734V77.5946C140.481 77.5946 138.888 77.584 137.295 77.5946C134.717 77.6265 132.568 76.8936 132.493 73.941C132.408 71.0202 134.365 70.0537 137.049 70.0856C140.407 70.1175 143.775 70.1387 147.133 70.0856C149.689 70.0431 151.379 71.307 151.443 73.7073ZM142.503 58.0308C144.502 58.222 145.721 59.4222 145.764 61.5251C145.807 63.5962 144.673 65.1256 142.727 65.2425C138.492 65.4974 134.236 65.5292 130.002 65.3062C127.777 65.1894 126.494 63.4157 126.686 61.2384C126.857 59.316 128.258 58.0627 130.28 57.9565C132.397 57.8397 134.536 57.9246 136.664 57.9246C136.664 57.9459 136.664 57.9671 136.664 57.9884C138.61 57.9884 140.578 57.8397 142.503 58.0308ZM140.086 49.6403C139.99 51.9238 138.439 53.0815 136.225 53.1346C132.515 53.2195 128.804 53.2408 125.104 53.1452C122.666 53.0815 120.954 51.7751 121.072 49.2686C121.179 47.1125 122.719 45.838 124.965 45.753C126.9 45.6787 128.847 45.7424 130.793 45.7318C132.557 45.7318 134.333 45.6468 136.086 45.7424C138.514 45.8805 140.193 47.0382 140.086 49.6403ZM141.711 23.1729C144.214 23.141 144.545 24.2031 144.577 26.3061C144.62 28.5471 143.593 28.887 141.701 28.8551C136.386 28.7701 131.06 28.8232 125.745 28.8232C120.43 28.8232 115.105 28.7701 109.79 28.8551C107.876 28.887 106.903 28.5152 106.935 26.2848C106.967 24.1819 107.288 23.1304 109.801 23.1623C120.441 23.2897 131.082 23.2897 141.722 23.1623L141.711 23.1729Z" fill="#B3B3B3"/>
</g>
<defs>
<filter id="filter0_d_955_144832" x="0.490909" y="0.872727" width="197.018" height="103.2" filterUnits="userSpaceOnUse" color-interpolation-filters="sRGB">
<feFlood flood-opacity="0" result="BackgroundImageFix"/>
<feColorMatrix in="SourceAlpha" type="matrix" values="0 0 0 0 0 0 0 0 0 0 0 0 0 0 0 0 0 0 127 0" result="hardAlpha"/>
<feOffset dy="9.38182"/>
<feGaussianBlur stdDeviation="6.25455"/>
<feComposite in2="hardAlpha" operator="out"/>
<feColorMatrix type="matrix" values="0 0 0 0 0 0 0 0 0 0 0 0 0 0 0 0 0 0 0.25 0"/>
<feBlend mode="normal" in2="BackgroundImageFix" result="effect1_dropShadow_955_144832"/>
<feBlend mode="normal" in="SourceGraphic" in2="effect1_dropShadow_955_144832" result="shape"/>
</filter>
</defs>
</svg>
