<?xml version="1.0" encoding="utf-8"?>
<!-- Generator: Adobe Illustrator 28.0.0, SVG Export Plug-In . SVG Version: 6.00 Build 0)  -->
<svg version="1.1" id="Layer_1" xmlns="http://www.w3.org/2000/svg" xmlns:xlink="http://www.w3.org/1999/xlink" x="0px" y="0px"
	 viewBox="0 0 96 96" style="enable-background:new 0 0 96 96;" xml:space="preserve">
<style type="text/css">
	.st0{fill:#B3B3B3;}
</style>
<path class="st0" d="M14.8,9.2l-5.7,5.7l16,16L20,36h-8c-4.4,0-8,3.6-8,8v8c0,4.4,3.6,8,8,8h8l24,24V49.7l37.2,37.2l5.7-5.7
	L14.8,9.2z M44,12l-7.5,7.5L44,27V12z M77.9,14.1l-5.7,5.7C79.8,27.3,84,37.3,84,48c0,5.5-1.1,10.9-3.2,15.8l6,6
	C90.2,63.1,92,55.7,92,48C92,35.2,87,23.1,77.9,14.1z M66.6,25.4L61,31c5.4,5.4,7.6,12.7,6.8,19.7l6.8,6.8
	C77.9,46.6,75.3,34.1,66.6,25.4z M30.8,36.5l5.2,5.2v23L25.7,54.3L23.3,52H12v-8h11.3L30.8,36.5z"/>
</svg>
