<?xml version="1.0" encoding="utf-8"?>
<!-- Generator: Adobe Illustrator 28.0.0, SVG Export Plug-In . SVG Version: 6.00 Build 0)  -->
<svg version="1.1" id="Layer_1" xmlns="http://www.w3.org/2000/svg" xmlns:xlink="http://www.w3.org/1999/xlink" x="0px" y="0px"
	 viewBox="0 0 96 96" style="enable-background:new 0 0 96 96;" xml:space="preserve">
<style type="text/css">
	.st0{fill:#B3B3B3;}
</style>
<path class="st0" d="M48,12c-6.6,0-12,5.4-12,12v24c0,6.6,5.4,12,12,12s12-5.4,12-12V24C60,17.4,54.6,12,48,12z M48,20
	c2.2,0,4,1.8,4,4v24c0,2.2-1.8,4-4,4s-4-1.8-4-4V24C44,21.8,45.8,20,48,20z M20,48c0,14.1,10.4,25.7,24,27.7V88h8V75.7
	c2.9-0.4,5.7-1.3,8.2-2.5L54,67c-1.9,0.6-3.9,1-6,1c-11,0-20-9-20-20H20z M69.7,60L64,65.7l8.5,8.5L64,82.6l5.7,5.7l8.5-8.5l8.5,8.5
	l5.7-5.7l-8.5-8.5l8.5-8.5L86.6,60l-8.5,8.5L69.7,60z"/>
</svg>
