<svg width="96" height="96" viewBox="0 0 96 96" fill="none" xmlns="http://www.w3.org/2000/svg">
<path d="M14.8281 9.17188L9.17188 14.8281L20.875 26.5312C15.205 29.4126 10.0257 33.1182 5.57031 37.5703L13.3438 45.3438C18.1054 41.071 23.6761 37.7184 29.7578 35.4141L36.0625 41.7188C29.6733 43.5321 23.8533 46.7173 18.9922 50.9922L27.4766 59.4766C32.659 55.1361 39.2321 52.4258 46.4141 52.0703L55.625 61.2812C53.227 60.4691 50.6705 60 48 60C42.4 60 37.2599 61.9479 33.1719 65.1719L48 80L61.1719 66.8281L81.1719 86.8281L86.8281 81.1719L14.8281 9.17188ZM48 20C44.588 20 41.2678 20.3504 38.0078 20.8984L49.1562 32.0547C62.0162 32.3427 73.7162 37.3198 82.6562 45.3438L90.4219 37.5781C79.5659 26.7181 64.568 20 48 20ZM58.4062 41.2969L72.5547 55.4453L77 51C71.752 46.38 65.4023 43.0129 58.4062 41.2969Z" fill="#4F4AFF"/>
</svg>
