<?xml version="1.0" encoding="utf-8"?>
<!-- Generator: Adobe Illustrator 28.0.0, SVG Export Plug-In . SVG Version: 6.00 Build 0)  -->
<svg version="1.1" id="Layer_1" xmlns="http://www.w3.org/2000/svg" xmlns:xlink="http://www.w3.org/1999/xlink" x="0px" y="0px"
	 viewBox="0 0 96 96" style="enable-background:new 0 0 96 96;" xml:space="preserve">
<style type="text/css">
	.st0{fill:#B3B3B3;}
</style>
<path class="st0" d="M20,12c-4.4,0-8,3.6-8,8v56c0,4.4,3.6,8,8,8h20.1l7.9,8l7.9-8H76c4.4,0,8-3.6,8-8V20c0-4.4-3.6-8-8-8H20z
	 M20,20h56v56H52.5L48,80.6L43.5,76H20V20z M44,28v8h8v-8H44z M44,44v24h8V44H44z"/>
</svg>
