<?xml version="1.0" encoding="utf-8"?>
<!-- Generator: Adobe Illustrator 28.0.0, SVG Export Plug-In . SVG Version: 6.00 Build 0)  -->
<svg version="1.1" id="Layer_1" xmlns="http://www.w3.org/2000/svg" xmlns:xlink="http://www.w3.org/1999/xlink" x="0px" y="0px"
	 viewBox="0 0 96 96" style="enable-background:new 0 0 96 96;" xml:space="preserve">
<style type="text/css">
	.st0{fill:#B3B3B3;}
</style>
<path class="st0" d="M48,12L24,36H8v24h16l24,24V12z M56,12.4v8c12.8,1.9,22.7,12.2,23.9,25C80,46.3,80,47.1,80,48
	c0,14-10.4,25.6-24,27.6v8c18-2,32-17.2,32-35.6S74,14.4,56,12.4z M56,28.4v8.4c4.8,1.6,8,6,8,11.2s-3.2,9.6-8,11.2v8.4
	c9.2-2,16-10,16-19.6S65.2,30.4,56,28.4z M40,31.3v33.4L27.3,52H16v-8h11.3L40,31.3z"/>
</svg>
