<?xml version="1.0" encoding="utf-8"?>
<!-- Generator: Adobe Illustrator 28.0.0, SVG Export Plug-In . SVG Version: 6.00 Build 0)  -->
<svg version="1.1" id="Layer_1" xmlns="http://www.w3.org/2000/svg" xmlns:xlink="http://www.w3.org/1999/xlink" x="0px" y="0px"
	 viewBox="0 0 96 96" style="enable-background:new 0 0 96 96;" xml:space="preserve">
<style type="text/css">
	.st0{fill:#B3B3B3;}
</style>
<path class="st0" d="M28,4c-4.4,0-8,3.6-8,8v72c0,4.4,3.6,8,8,8h40c4.4,0,8-3.6,8-8v-8l-8-8H28V28h40l8-8v-8c0-4.4-3.6-8-8-8H28z
	 M28,12h40v8H28V12z M82.6,25.4L77,31c9.4,9.4,9.4,24.6,0,33.9l5.7,5.7C95.1,58.1,95.1,37.9,82.6,25.4z M71.3,36.7l-5.7,5.7
	c1.5,1.5,2.3,3.5,2.3,5.7s-0.8,4.1-2.3,5.7l5.7,5.7c3-3,4.7-7,4.7-11.3S74.3,39.7,71.3,36.7z M28,76h40v8H28V76z"/>
</svg>
