<svg width="68" height="68" viewBox="0 0 68 68" fill="none" xmlns="http://www.w3.org/2000/svg">
<g filter="url(#filter0_d_1273_410757)">
<circle cx="34" cy="31" r="30" fill="#939E17"/>
</g>
<path d="M37.0592 35.08C37.0592 35.6133 37.0526 36.12 37.0392 36.6C37.0259 37.08 37.0192 37.6 37.0192 38.16V39.44H33.2192V38.16C33.2192 37.6 33.2126 37.08 33.1992 36.6C33.1859 36.12 33.1792 35.6133 33.1792 35.08V26.16C33.1792 25.72 33.1992 25.0933 33.2392 24.28C33.2792 23.4667 33.3192 22.6467 33.3592 21.82C33.3992 20.9933 33.4126 20.34 33.3992 19.86L33.3192 15.68C33.6659 15.6 33.9992 15.5533 34.3192 15.54C34.6392 15.5133 34.9326 15.5 35.1992 15.5C35.4926 15.5 35.7859 15.5133 36.0792 15.54C36.3859 15.5533 36.7126 15.6 37.0592 15.68V35.08ZM30.9592 37.7C31.2392 37.7 31.6326 37.7067 32.1392 37.72C32.6459 37.7333 33.0326 37.74 33.2992 37.74H36.9392C37.2192 37.74 37.6192 37.7333 38.1392 37.72C38.6726 37.7067 39.0726 37.7 39.3392 37.7H42.1392C42.2592 38.2333 42.3192 38.7867 42.3192 39.36C42.3192 39.8933 42.2592 40.44 42.1392 41H27.2592C27.1392 40.4267 27.0792 39.88 27.0792 39.36C27.0792 38.7867 27.1392 38.2333 27.2592 37.7H30.9592ZM25.8792 23.3C27.8126 22.1133 29.4059 20.8467 30.6592 19.5C31.9259 18.1533 32.8126 16.88 33.3192 15.68L34.7992 18.86C34.4659 19.82 33.9059 20.74 33.1192 21.62C32.3459 22.4867 31.4659 23.2733 30.4792 23.98C29.5059 24.6733 28.5326 25.2333 27.5592 25.66C27.1459 25.42 26.7859 25.0933 26.4792 24.68C26.1859 24.2667 25.9859 23.8067 25.8792 23.3Z" fill="white"/>
<defs>
<filter id="filter0_d_1273_410757" x="0" y="0" width="68" height="68" filterUnits="userSpaceOnUse" color-interpolation-filters="sRGB">
<feFlood flood-opacity="0" result="BackgroundImageFix"/>
<feColorMatrix in="SourceAlpha" type="matrix" values="0 0 0 0 0 0 0 0 0 0 0 0 0 0 0 0 0 0 127 0" result="hardAlpha"/>
<feOffset dy="3"/>
<feGaussianBlur stdDeviation="2"/>
<feComposite in2="hardAlpha" operator="out"/>
<feColorMatrix type="matrix" values="0 0 0 0 0 0 0 0 0 0 0 0 0 0 0 0 0 0 0.25 0"/>
<feBlend mode="normal" in2="BackgroundImageFix" result="effect1_dropShadow_1273_410757"/>
<feBlend mode="normal" in="SourceGraphic" in2="effect1_dropShadow_1273_410757" result="shape"/>
</filter>
</defs>
</svg>
