<svg width="68" height="68" viewBox="0 0 68 68" fill="none" xmlns="http://www.w3.org/2000/svg">
<g filter="url(#filter0_d_1273_410760)">
<circle cx="34" cy="31" r="30" fill="#939E17"/>
</g>
<path d="M25.8992 35.4C25.6326 35 25.4192 34.6 25.2592 34.2C25.0992 33.7867 25.0192 33.3933 25.0192 33.02C25.0192 32.7267 25.0926 32.3733 25.2392 31.96C25.3992 31.5333 25.5926 31.0667 25.8192 30.56L32.6792 15.44C33.0526 15.36 33.4726 15.34 33.9392 15.38C34.4192 15.42 34.8792 15.5067 35.3192 15.64C35.7592 15.7733 36.1059 15.9467 36.3592 16.16L31.4992 26.7C31.2726 27.22 30.9992 27.82 30.6792 28.5C30.3726 29.18 30.0592 29.84 29.7392 30.48C29.4192 31.12 29.1259 31.66 28.8592 32.1L28.9592 32.24C29.4659 32.2 30.0126 32.1733 30.5992 32.16C31.1859 32.1333 31.7326 32.12 32.2392 32.12C32.7592 32.1067 33.1659 32.1 33.4592 32.1H39.0792C39.3859 32.1 39.6859 32.0933 39.9792 32.08C40.2726 32.0667 40.5726 32.06 40.8792 32.06H43.1192C43.1592 32.3267 43.1859 32.5867 43.1992 32.84C43.2126 33.0933 43.2192 33.3333 43.2192 33.56C43.2192 33.8133 43.1992 34.1067 43.1592 34.44C43.1326 34.76 43.0659 35.0733 42.9592 35.38H40.8792C40.5726 35.38 40.2726 35.38 39.9792 35.38C39.6859 35.3667 39.3859 35.36 39.0792 35.36H35.3392C35.0326 35.36 34.6926 35.3667 34.3192 35.38C33.9459 35.3933 33.6059 35.4 33.2992 35.4H25.8992ZM35.2992 37.4C35.2992 37.0933 35.3059 36.7533 35.3192 36.38C35.3326 36.0067 35.3392 35.6667 35.3392 35.36V32.42C35.3392 32.2467 35.3326 31.9733 35.3192 31.6C35.3059 31.2133 35.2992 30.9267 35.2992 30.74V27.42C35.2992 26.4733 35.5326 25.74 35.9992 25.22C36.4659 24.7 37.0859 24.44 37.8592 24.44H38.9592L39.1192 24.6V30.04C39.1192 30.3467 39.1126 30.6933 39.0992 31.08C39.0859 31.4533 39.0792 31.7933 39.0792 32.1V35.36C39.0792 35.6667 39.0859 36.0067 39.0992 36.38C39.1126 36.7533 39.1192 37.0933 39.1192 37.4V41C38.8126 41.0533 38.4992 41.0933 38.1792 41.12C37.8592 41.1467 37.5326 41.16 37.1992 41.16C36.8792 41.16 36.5592 41.1467 36.2392 41.12C35.9192 41.0933 35.6059 41.0533 35.2992 41V37.4Z" fill="white"/>
<defs>
<filter id="filter0_d_1273_410760" x="0" y="0" width="68" height="68" filterUnits="userSpaceOnUse" color-interpolation-filters="sRGB">
<feFlood flood-opacity="0" result="BackgroundImageFix"/>
<feColorMatrix in="SourceAlpha" type="matrix" values="0 0 0 0 0 0 0 0 0 0 0 0 0 0 0 0 0 0 127 0" result="hardAlpha"/>
<feOffset dy="3"/>
<feGaussianBlur stdDeviation="2"/>
<feComposite in2="hardAlpha" operator="out"/>
<feColorMatrix type="matrix" values="0 0 0 0 0 0 0 0 0 0 0 0 0 0 0 0 0 0 0.25 0"/>
<feBlend mode="normal" in2="BackgroundImageFix" result="effect1_dropShadow_1273_410760"/>
<feBlend mode="normal" in="SourceGraphic" in2="effect1_dropShadow_1273_410760" result="shape"/>
</filter>
</defs>
</svg>
