<svg width="68" height="68" viewBox="0 0 68 68" fill="none" xmlns="http://www.w3.org/2000/svg">
<g filter="url(#filter0_d_1273_410758)">
<circle cx="34" cy="31" r="30" fill="#939E17"/>
</g>
<path d="M25.9192 20.9C26.2926 19.8867 26.8526 18.9467 27.5992 18.08C28.3592 17.2 29.2726 16.4933 30.3392 15.96C31.4192 15.4267 32.6326 15.16 33.9792 15.16C35.5659 15.16 36.9326 15.4733 38.0792 16.1C39.2392 16.7267 40.1326 17.6 40.7592 18.72C41.3859 19.8267 41.6992 21.1 41.6992 22.54C41.6992 23.8333 41.4659 24.96 40.9992 25.92C40.5326 26.8667 39.9126 27.72 39.1392 28.48C38.3792 29.24 37.5659 29.9867 36.6992 30.72L33.5992 33.28C32.8126 33.9467 32.1126 34.5867 31.4992 35.2C30.8992 35.8133 30.4259 36.3733 30.0792 36.88C29.7326 37.3867 29.5592 37.8133 29.5592 38.16L29.4792 41.02H27.2192C26.8192 40.5933 26.4526 40.1733 26.1192 39.76C25.7859 39.3333 25.6192 38.8467 25.6192 38.3C25.6192 37.54 25.8526 36.7467 26.3192 35.92C26.7992 35.08 27.4259 34.2467 28.1992 33.42C28.9726 32.58 29.7926 31.7933 30.6592 31.06L34.5392 27.78C35.4992 26.9667 36.2526 26.16 36.7992 25.36C37.3592 24.5467 37.6392 23.5933 37.6392 22.5C37.6392 21.2333 37.2659 20.24 36.5192 19.52C35.7726 18.7867 34.8126 18.42 33.6392 18.42C32.5192 18.42 31.5326 18.7867 30.6792 19.52C29.8392 20.2533 29.1926 21.1667 28.7392 22.26C28.2592 22.2333 27.7326 22.1067 27.1592 21.88C26.5859 21.6533 26.1726 21.3267 25.9192 20.9ZM42.3192 37.54C42.3192 38.9 42.1192 39.82 41.7192 40.3C41.3326 40.78 40.6592 41.02 39.6992 41.02H27.4792L26.3192 38.4C27.0926 38.1867 28.0126 38.02 29.0792 37.9C30.1592 37.7667 31.2126 37.6733 32.2392 37.62C33.2792 37.5667 34.1326 37.54 34.7992 37.54H42.3192Z" fill="white"/>
<defs>
<filter id="filter0_d_1273_410758" x="0" y="0" width="68" height="68" filterUnits="userSpaceOnUse" color-interpolation-filters="sRGB">
<feFlood flood-opacity="0" result="BackgroundImageFix"/>
<feColorMatrix in="SourceAlpha" type="matrix" values="0 0 0 0 0 0 0 0 0 0 0 0 0 0 0 0 0 0 127 0" result="hardAlpha"/>
<feOffset dy="3"/>
<feGaussianBlur stdDeviation="2"/>
<feComposite in2="hardAlpha" operator="out"/>
<feColorMatrix type="matrix" values="0 0 0 0 0 0 0 0 0 0 0 0 0 0 0 0 0 0 0.25 0"/>
<feBlend mode="normal" in2="BackgroundImageFix" result="effect1_dropShadow_1273_410758"/>
<feBlend mode="normal" in="SourceGraphic" in2="effect1_dropShadow_1273_410758" result="shape"/>
</filter>
</defs>
</svg>
