<svg width="68" height="68" viewBox="0 0 68 68" fill="none" xmlns="http://www.w3.org/2000/svg">
<g filter="url(#filter0_d_1273_410761)">
<circle cx="34" cy="31" r="30" fill="#939E17"/>
</g>
<path d="M30.6392 23.86C30.6126 24.3933 30.5526 24.94 30.4592 25.5C30.3792 26.06 30.2659 26.5867 30.1192 27.08C29.6259 27.2667 29.0926 27.4133 28.5192 27.52C27.9592 27.6267 27.3259 27.72 26.6192 27.8L27.1992 15.94L30.6792 16.48C30.7192 16.8533 30.7526 17.3467 30.7792 17.96C30.8059 18.56 30.8192 19.16 30.8192 19.76C30.8192 20.3467 30.8126 20.8133 30.7992 21.16L30.6392 23.86ZM25.7192 39C25.7992 38.5733 25.9992 38.1 26.3192 37.58C26.6392 37.0467 26.9992 36.6333 27.3992 36.34C28.2126 36.9 29.0592 37.3667 29.9392 37.74C30.8326 38.1 31.8326 38.28 32.9392 38.28C33.8459 38.28 34.6926 38.08 35.4792 37.68C36.2792 37.2667 36.9259 36.6333 37.4192 35.78C37.9126 34.9267 38.1592 33.8333 38.1592 32.5C38.1592 31.1667 37.8992 30.1267 37.3792 29.38C36.8726 28.62 36.2326 28.0867 35.4592 27.78C34.6992 27.4733 33.9326 27.32 33.1592 27.32C32.3592 27.32 31.5592 27.4733 30.7592 27.78C29.9726 28.0867 29.2259 28.5333 28.5192 29.12C28.1726 29.0533 27.8126 28.8867 27.4392 28.62C27.0659 28.3533 26.7926 28.08 26.6192 27.8C27.1259 27.2 27.7659 26.6267 28.5392 26.08C29.3126 25.52 30.1792 25.0667 31.1392 24.72C32.0992 24.36 33.1126 24.18 34.1792 24.18C36.6059 24.18 38.5592 24.9 40.0392 26.34C41.5192 27.7667 42.2592 29.7467 42.2592 32.28C42.2592 34.3867 41.8192 36.1267 40.9392 37.5C40.0592 38.86 38.9259 39.8733 37.5392 40.54C36.1526 41.1933 34.6992 41.52 33.1792 41.52C31.5926 41.52 30.1592 41.2733 28.8792 40.78C27.6126 40.2867 26.5592 39.6933 25.7192 39ZM40.8992 15.68C41.0059 15.96 41.0792 16.2467 41.1192 16.54C41.1592 16.8333 41.1792 17.0867 41.1792 17.3C41.1792 18.4733 40.5926 19.06 39.4192 19.06H32.4592C31.7792 19.06 31.0992 19.0533 30.4192 19.04C29.7526 19.0133 29.1459 18.98 28.5992 18.94C28.0526 18.9 27.6259 18.8667 27.3192 18.84L27.1992 15.94L27.4592 15.68H40.8992Z" fill="white"/>
<defs>
<filter id="filter0_d_1273_410761" x="0" y="0" width="68" height="68" filterUnits="userSpaceOnUse" color-interpolation-filters="sRGB">
<feFlood flood-opacity="0" result="BackgroundImageFix"/>
<feColorMatrix in="SourceAlpha" type="matrix" values="0 0 0 0 0 0 0 0 0 0 0 0 0 0 0 0 0 0 127 0" result="hardAlpha"/>
<feOffset dy="3"/>
<feGaussianBlur stdDeviation="2"/>
<feComposite in2="hardAlpha" operator="out"/>
<feColorMatrix type="matrix" values="0 0 0 0 0 0 0 0 0 0 0 0 0 0 0 0 0 0 0.25 0"/>
<feBlend mode="normal" in2="BackgroundImageFix" result="effect1_dropShadow_1273_410761"/>
<feBlend mode="normal" in="SourceGraphic" in2="effect1_dropShadow_1273_410761" result="shape"/>
</filter>
</defs>
</svg>
