<svg width="68" height="68" viewBox="0 0 68 68" fill="none" xmlns="http://www.w3.org/2000/svg">
<g filter="url(#filter0_d_1273_410759)">
<circle cx="34" cy="31" r="30" fill="#939E17"/>
</g>
<path d="M38.2192 32.92C38.2192 31.4667 37.8059 30.3467 36.9792 29.56C36.1526 28.7733 35.0326 28.38 33.6192 28.38C33.1659 28.38 32.6859 28.44 32.1792 28.56C31.6726 28.6667 31.2259 28.8333 30.8392 29.06C30.4659 28.86 30.1259 28.56 29.8192 28.16C29.5259 27.76 29.3259 27.3467 29.2192 26.92C29.9392 26.56 30.7592 26.2667 31.6792 26.04C32.6126 25.8133 33.5926 25.7 34.6192 25.7C36.0059 25.7 37.2792 25.9667 38.4392 26.5C39.6126 27.02 40.5526 27.8267 41.2592 28.92C41.9659 30 42.3192 31.3867 42.3192 33.08C42.3192 34.5067 42.0592 35.7467 41.5392 36.8C41.0326 37.8533 40.3392 38.7333 39.4592 39.44C38.5926 40.1333 37.6259 40.6533 36.5592 41C35.4926 41.3467 34.4059 41.52 33.2992 41.52C31.6192 41.52 30.0992 41.2733 28.7392 40.78C27.3926 40.2733 26.2792 39.6533 25.3992 38.92C25.4926 38.4533 25.6992 37.9733 26.0192 37.48C26.3526 36.9733 26.7259 36.5667 27.1392 36.26C27.9392 36.8467 28.8059 37.3333 29.7392 37.72C30.6726 38.1067 31.6926 38.3 32.7992 38.3C33.8126 38.3 34.7259 38.1 35.5392 37.7C36.3526 37.2867 36.9992 36.68 37.4792 35.88C37.9726 35.08 38.2192 34.0933 38.2192 32.92ZM36.2392 24.4C35.7992 24.8533 35.2926 25.3 34.7192 25.74C34.1459 26.1667 33.5726 26.5533 32.9992 26.9C32.4392 27.2333 31.9526 27.5067 31.5392 27.72L29.2192 26.92L34.3592 21.54C34.5592 21.3267 34.8259 21.0533 35.1592 20.72C35.5059 20.3867 35.8526 20.0533 36.1992 19.72C36.5592 19.3733 36.8526 19.1 37.0792 18.9L36.9392 18.74C36.4859 18.8467 35.7992 18.9333 34.8792 19C33.9592 19.0667 33.0792 19.1 32.2392 19.1H26.4992C26.4059 18.82 26.3459 18.56 26.3192 18.32C26.2926 18.0667 26.2792 17.84 26.2792 17.64C26.2792 17.3333 26.2992 17.0133 26.3392 16.68C26.3926 16.3467 26.4859 16.0133 26.6192 15.68H40.5192C40.8259 16.24 41.0459 16.7333 41.1792 17.16C41.3126 17.5867 41.3792 17.9333 41.3792 18.2C41.3792 18.4933 41.3192 18.7867 41.1992 19.08C41.0792 19.36 40.8659 19.66 40.5592 19.98L36.2392 24.4Z" fill="white"/>
<defs>
<filter id="filter0_d_1273_410759" x="0" y="0" width="68" height="68" filterUnits="userSpaceOnUse" color-interpolation-filters="sRGB">
<feFlood flood-opacity="0" result="BackgroundImageFix"/>
<feColorMatrix in="SourceAlpha" type="matrix" values="0 0 0 0 0 0 0 0 0 0 0 0 0 0 0 0 0 0 127 0" result="hardAlpha"/>
<feOffset dy="3"/>
<feGaussianBlur stdDeviation="2"/>
<feComposite in2="hardAlpha" operator="out"/>
<feColorMatrix type="matrix" values="0 0 0 0 0 0 0 0 0 0 0 0 0 0 0 0 0 0 0.25 0"/>
<feBlend mode="normal" in2="BackgroundImageFix" result="effect1_dropShadow_1273_410759"/>
<feBlend mode="normal" in="SourceGraphic" in2="effect1_dropShadow_1273_410759" result="shape"/>
</filter>
</defs>
</svg>
