<svg width="48" height="47" viewBox="0 0 48 47" fill="none" xmlns="http://www.w3.org/2000/svg">
<g clip-path="url(#clip0_3_173140)">
<path d="M29.5928 4.69543C25.5498 5.62731 21.6978 7.56299 18.7211 10.483C15.7444 13.403 13.6858 17.3342 13.2578 21.5067C18.5893 16.6541 23.7031 11.5587 28.5799 6.24008C29.0064 5.77414 29.1293 5.12392 29.5914 4.69543H29.5928Z" fill="#5A7084"/>
<path d="M47.3598 0.00152305C10.814 2.6818 9.20419 36.0512 9.20419 36.0512C3.94381 34.938 0 39.154 0 39.154C2.72053 42.8875 8.58811 38.9847 8.58811 38.9847C7.61956 44.7947 11.9366 47 11.9366 47C14.041 43.7519 10.7666 37.0984 10.7666 37.0984C39.9757 29.2449 46.8962 5.40553 47.9832 0.74463C48.0751 0.349105 47.7611 -0.0269427 47.3598 0.00302125V0.00152305Z" fill="#8195AA"/>
<path d="M29.8683 4.52466C29.3737 4.77186 28.8909 5.02655 28.4199 5.28724C28.5547 6.24459 28.6672 7.20643 28.7531 8.16978C29.5632 7.20044 29.6195 5.79513 29.8683 4.52466Z" fill="#516577"/>
<path d="M33.1738 3.06388C32.4392 3.35003 31.7254 3.65117 31.0353 3.96729C30.9879 4.27742 30.9271 4.59054 30.8886 4.89617C30.7761 5.76962 30.9642 6.85282 31.7757 7.17044C32.2422 5.80109 32.7087 4.43173 33.1752 3.06238L33.1738 3.06388Z" fill="#516577"/>
<path d="M18.78 20.5569C18.4764 18.4325 18.1728 16.3095 17.8692 14.1851C17.4086 14.7604 16.9747 15.3402 16.5615 15.923C16.8873 16.9417 17.2117 17.9605 17.5375 18.9793C17.7522 19.6535 18.0884 20.44 18.78 20.5569Z" fill="#516577"/>
<path d="M10.1284 30.3656C10.5446 31.0713 11.0599 31.7739 11.6923 32.4871C11.2851 31.0848 10.9563 29.6585 10.6956 28.2202C10.475 28.9753 10.2884 29.6914 10.1284 30.3656Z" fill="#516577"/>
<path d="M25.0772 7.38471C25.2978 8.33157 25.52 9.27843 25.7406 10.2238C26.2308 9.02224 26.3715 7.66637 26.5996 6.36743C26.0768 6.69853 25.5674 7.03563 25.0757 7.38321L25.0772 7.38471Z" fill="#516577"/>
<path d="M12.7422 22.6515C12.8251 22.9616 12.9066 23.2702 12.9984 23.5759C13.3746 24.8433 13.9758 26.1468 15.1117 26.803C14.4601 24.9857 13.8055 23.1144 13.4145 21.2207C13.1776 21.7016 12.954 22.1781 12.7422 22.65V22.6515Z" fill="#516577"/>
<path d="M33.9617 2.76128C33.6966 3.59278 33.5693 4.47072 33.5944 5.34417C34.2964 5.43706 34.757 4.64002 35.0088 3.97032C35.2309 3.38003 35.4368 2.78225 35.6515 2.18896C35.0769 2.37175 34.5126 2.56052 33.9632 2.76128H33.9617Z" fill="#516577"/>
<path d="M21.6162 10.1773C22.0546 11.4358 22.4944 12.6958 22.9328 13.9543C22.7551 12.2733 22.8128 10.5684 23.0883 8.90088C22.5788 9.31738 22.0901 9.74436 21.6177 10.1773H21.6162Z" fill="#516577"/>
<path d="M20.165 11.5872C19.6822 12.0831 19.2216 12.5865 18.7803 13.0958C19.3282 14.5326 19.971 15.9334 20.7203 17.2743C20.8847 15.4076 20.3664 13.4584 20.165 11.5872Z" fill="#516577"/>
<path d="M13.3186 29.1372C12.6625 27.7004 12.193 26.1782 11.9176 24.6201C11.7206 25.1265 11.5385 25.6239 11.3696 26.1123C11.6599 26.8494 11.9487 27.5851 12.239 28.3222C12.4285 28.8031 12.8713 29.3874 13.3186 29.1372Z" fill="#516577"/>
<path d="M16.8224 23.7704C16.2226 21.7778 15.6228 19.7073 15.4125 17.6443C15.0675 18.1941 14.7402 18.744 14.4321 19.2908C14.715 20.0849 14.9993 20.8804 15.2822 21.6744C15.5843 22.5224 15.9827 23.4693 16.8224 23.7689V23.7704Z" fill="#516577"/>
<path d="M10.7665 37.0984C39.9756 29.2449 46.8962 5.40551 47.9832 0.744608C48.0069 0.642731 48.0024 0.542351 47.9787 0.449463C46.2223 0.945367 43.8617 3.47283 42.5125 4.45864C40.7694 5.73211 39.0189 7.01307 37.4905 8.54423C34.7922 11.2455 32.8729 14.6344 30.3967 17.5439C24.4966 24.4776 15.5412 28.5946 10.8865 36.4377C10.5948 36.9291 10.7665 37.0984 10.7665 37.0984Z" fill="#A7B7C6"/>
<g style="mix-blend-mode:overlay" opacity="0.1">
<path d="M47.9832 0.74463C48.0751 0.349105 47.7611 -0.0269427 47.3598 0.00302125C46.76 0.046469 46.1691 0.100404 45.5885 0.160332C41.1678 10.1308 34.2888 18.9852 25.7051 25.6237C23.5621 27.2807 21.2489 28.8344 18.6216 29.4531C16.5261 29.946 13.7878 29.4486 13.1302 27.3751C12.7778 26.2635 13.1584 25.0589 13.5967 23.9772C14.4483 21.8707 15.522 19.8587 16.7616 17.9604C18.9549 14.6045 21.6606 11.6156 24.5988 8.91431C26.0739 7.55844 27.6111 6.27448 29.1868 5.04147C29.3868 4.88565 29.7526 4.64894 30.1865 4.36728C10.2646 14.0861 9.20419 36.0512 9.20419 36.0512C3.94381 34.938 0 39.154 0 39.154C2.72053 42.8875 8.58811 38.9847 8.58811 38.9847C7.61956 44.7947 11.9366 47 11.9366 47C14.041 43.7519 10.7666 37.0984 10.7666 37.0984C39.9757 29.2449 46.8962 5.40553 47.9832 0.74463Z" fill="black"/>
</g>
<g style="mix-blend-mode:overlay" opacity="0.2">
<path d="M22.1391 13.7236C25.0032 10.041 28.7901 6.92177 33.2641 5.71123C33.892 5.54193 34.668 5.45354 35.0916 5.95244C35.4781 6.40939 35.3433 7.10755 35.1301 7.66937C34.4947 9.34586 33.387 10.7901 32.2748 12.1909C27.9563 17.6354 23.1935 22.9825 17.0134 26.0912C13.7272 27.7422 17.3096 21.5637 17.7983 20.6363C19.0705 18.2257 20.4656 15.8735 22.1376 13.7236H22.1391Z" fill="white"/>
</g>
<g style="mix-blend-mode:overlay" opacity="0.2">
<path d="M47.9831 0.74463C48.0749 0.349105 47.761 -0.0269427 47.3596 0.00302125C42.6235 0.350603 38.4798 1.21656 34.844 2.45557C34.3301 3.91782 34.1183 5.48343 34.2501 6.9217C34.4826 9.45216 35.9355 11.9272 38.2088 13.0104C39.2173 13.4913 40.3384 13.6891 41.4506 13.761C41.809 13.7835 42.1718 13.7909 42.5361 13.782C46.1008 7.82362 47.5359 2.66232 47.9831 0.746128V0.74463Z" fill="white"/>
</g>
<path d="M40.2451 4.201C40.531 5.05797 40.0748 5.98836 39.2262 6.27601C38.3791 6.56516 37.4595 6.10372 37.1751 5.24525C36.8893 4.38828 37.3454 3.4579 38.194 3.17024C39.0411 2.88109 39.9608 3.34254 40.2451 4.201Z" fill="#A7B7C6"/>
<path d="M39.795 4.35382C39.9964 4.96059 39.6736 5.6168 39.0752 5.82205C38.4755 6.02581 37.8268 5.6992 37.6239 5.09393C37.4225 4.48716 37.7453 3.83094 38.3436 3.62569C38.9434 3.42194 39.5921 3.74854 39.795 4.35382Z" fill="#516577"/>
<g style="mix-blend-mode:overlay" opacity="0.4">
<path d="M47.3596 0.0015564C46.431 0.0689754 45.5321 0.163362 44.6494 0.269734C44.6998 1.18513 45.073 2.18443 45.3958 2.91256C45.4728 3.08635 46.1511 4.06467 46.7509 4.8692C47.4099 3.01743 47.7905 1.57467 47.9845 0.743165C48.0764 0.34764 47.7624 -0.0284076 47.3611 0.0015564H47.3596Z" fill="black"/>
</g>
<path d="M27.0646 13.7566C26.61 14.0412 26.1153 14.3813 26.0013 14.9102C25.9228 15.2743 26.0457 15.6473 26.1671 15.9994C26.376 16.6032 26.6322 17.2654 27.1979 17.55C27.4645 17.6849 27.7725 17.7163 28.0687 17.6849C29.0224 17.58 29.7837 16.8638 30.4575 16.1747C31.4497 15.1619 32.4257 14.1176 33.1914 12.9206C33.8326 11.9198 34.505 10.6194 34.4976 9.40431C33.6105 9.14512 31.7504 10.8171 30.9566 11.3145C29.6593 12.128 28.3605 12.9431 27.0631 13.7566H27.0646Z" fill="#516577"/>
<g style="mix-blend-mode:overlay" opacity="0.1">
<path d="M11.2583 42.519C10.1861 42.0725 9.55964 40.8829 9.45449 39.7158C9.34934 38.5487 9.67515 37.3876 10.0276 36.2715C9.30788 37.2873 8.10237 37.8311 6.90871 38.1547C5.05751 38.6581 4.51399 38.0798 3.71872 36.6535C1.43063 37.6274 -0.00146484 39.1555 -0.00146484 39.1555C2.71907 42.889 8.58665 38.9862 8.58665 38.9862C7.6181 44.7962 11.9351 47.0016 11.9351 47.0016C12.6815 45.851 12.7496 44.2719 12.529 42.7137C12.0936 42.7392 11.6656 42.6898 11.2568 42.519H11.2583Z" fill="black"/>
</g>
</g>
<defs>
<clipPath id="clip0_3_173140">
<rect width="48" height="47" fill="white"/>
</clipPath>
</defs>
</svg>
