<svg width="57" height="59" viewBox="0 0 57 59" fill="none" xmlns="http://www.w3.org/2000/svg">
<g clip-path="url(#clip0_3_173136)">
<path d="M40.9088 24.7699C35.8893 16.8104 32.534 9.70171 32.8105 7.79932L6.98606 26.6585C5.75896 27.4324 8.12444 33.3884 12.27 39.962C16.4155 46.5356 20.7709 51.2368 21.9979 50.4629L40.1738 40.224C43.1322 38.5576 46.5481 37.8823 49.9257 38.2973L51.3443 38.4715C48.9793 36.4022 44.9608 31.1958 40.9085 24.7701L40.9088 24.7699Z" fill="#B0DEE8"/>
<path d="M15.3085 20.5811C14.2667 19.5017 12.2911 17.3689 12.1911 16.6201C12.0553 15.601 23.884 8.22618 24.2957 8.47676C24.6202 8.67429 26.4228 10.6458 27.1102 11.9627L28.7522 10.7633C27.7258 9.22822 25.2799 5.77847 24.0583 5.82175C22.4876 5.87753 9.01464 14.799 9.01739 16.4117C9.01987 17.6643 11.9612 20.7494 13.2758 22.0655L15.3085 20.5811Z" fill="#99D0DA"/>
<path d="M14.2203 21.3757L15.3084 20.5811C14.2666 19.5017 12.2911 17.3688 12.1911 16.62C12.0553 15.601 23.8839 8.22615 24.2956 8.47672C24.6202 8.67426 26.4227 10.6458 27.1101 11.9626L27.8544 11.4193C27.0256 9.98394 25.1206 6.97793 23.8611 7.28485C22.213 7.68691 10.1393 14.4119 10.4572 16.8853C10.6292 18.2255 12.5221 20.0158 14.2205 21.3761L14.2203 21.3757Z" fill="#83C2CC"/>
<path d="M53.3975 38.0398C52.9017 35.3238 49.7733 28.9764 45.353 21.9672C40.9328 14.958 36.5531 9.39974 34.3159 7.78196L33.7624 6.90435L33.0368 7.36198C31.8097 8.13583 35.3339 15.9294 40.909 24.7698C46.484 33.6102 51.9982 40.1488 53.2253 39.375L53.9509 38.9174L53.3975 38.0398Z" fill="#8EC9D3"/>
<g style="mix-blend-mode:overlay" opacity="0.2">
<path d="M41.6346 24.3123C47.2095 33.1524 52.7237 39.6914 53.9509 38.9175C55.178 38.1436 51.6535 30.3498 46.0786 21.5097C40.5037 12.6695 34.9895 6.13055 33.7623 6.90446C32.5352 7.67837 36.0597 15.4721 41.6346 24.3123Z" fill="white"/>
</g>
<g style="mix-blend-mode:overlay" opacity="0.3">
<path d="M42.0339 15.4725L38.0135 18.2113C39.0782 20.13 40.2964 22.1903 41.6346 24.3122C42.544 25.7543 43.4516 27.1339 44.3395 28.4318C46.2536 27.8951 48.1574 27.4919 49.6186 27.4651C48.5732 25.5878 47.3832 23.5782 46.0786 21.5096C44.7056 19.3324 43.3364 17.2957 42.0337 15.4721L42.0339 15.4725Z" fill="white"/>
</g>
<g style="mix-blend-mode:overlay" opacity="0.1">
<path d="M33.7627 6.90477C34.3989 6.50354 36.189 8.07141 38.5409 10.9031L35.4306 13.1979C33.8015 9.71389 33.1099 7.31645 33.7627 6.90477ZM52.0619 32.1577C50.5166 32.1957 48.9145 32.4183 47.4236 32.7143C50.6175 36.904 53.1648 39.4128 53.9511 38.9169C54.6324 38.4873 53.8476 35.8921 52.062 32.1572L52.0619 32.1577Z" fill="black"/>
</g>
<path d="M33.5363 7.34924C35.3778 7.93218 40.3404 14.0175 45.3538 21.9673C50.3672 29.9171 53.7199 37.0173 53.4526 38.9306C53.659 38.9959 53.8278 38.9956 53.9513 38.9177C55.1782 38.1435 51.6538 30.3497 46.0789 21.5096C40.5041 12.6695 34.9899 6.13085 33.7628 6.9047C33.6393 6.98261 33.566 7.13499 33.5363 7.34924Z" fill="#83C2CC"/>
<g style="mix-blend-mode:overlay" opacity="0.2">
<path d="M40.9093 24.7699C36.7016 18.0977 33.6635 12.0235 32.9531 9.11182L8.22644 27.0171C6.99934 27.7909 9.1655 33.4309 13.0649 39.6142C16.9642 45.7974 21.1202 50.1825 22.3473 49.4087L40.4904 39.1178C43.4434 37.4427 46.0944 37.1628 49.4038 37.4689L50.5055 37.6759C48.0939 35.2398 44.515 30.4875 40.9089 24.7692L40.9093 24.7699Z" fill="white"/>
</g>
<g style="mix-blend-mode:overlay" opacity="0.2">
<path d="M10.0922 34.358C10.9013 35.9868 11.9059 37.7758 13.0653 39.6143C14.1527 41.3385 15.2598 42.9223 16.3179 44.294C22.2942 40.2956 36.6372 31.2314 44.7766 30.5566C43.5277 28.7979 42.2205 26.8491 40.9092 24.7699C38.8983 21.5811 37.159 18.534 35.8091 15.8986C30.3617 19.7719 16.0911 30.0395 10.0919 34.3582L10.0922 34.358Z" fill="white"/>
</g>
<g style="mix-blend-mode:overlay" opacity="0.3">
<path d="M21.6408 41.2126C19.2283 37.3754 17.3014 33.1241 16.8671 28.6176C16.4868 24.6724 17.3704 20.5051 19.7119 17.3656L6.98668 26.6586C5.75958 27.4325 8.12506 33.3885 12.2706 39.9621C16.4161 46.5357 20.7715 51.2369 21.9986 50.4631L26.7205 47.8032C24.8118 45.7799 23.1087 43.5469 21.6411 41.2124L21.6408 41.2126Z" fill="black"/>
</g>
<g style="mix-blend-mode:overlay" opacity="0.3">
<path d="M21.4919 31.7695L34.6689 22.1851L38.8101 28.7517L24.0802 35.8738L21.4919 31.7695Z" fill="white"/>
</g>
<g style="mix-blend-mode:overlay" opacity="0.3">
<path d="M27.1107 11.9626L28.7527 10.7632C28.1687 9.89 27.1258 8.39842 26.1097 7.28135C25.8836 8.01055 25.5781 8.71245 25.196 9.37283C25.8569 10.1124 26.691 11.1584 27.1108 11.9621L27.1107 11.9626Z" fill="black"/>
</g>
<g style="mix-blend-mode:overlay" opacity="0.3">
<path d="M15.3088 20.5811C14.4006 19.64 12.7834 17.8993 12.3174 16.9717C11.2272 16.8036 10.1572 16.5082 9.13074 16.0998C9.06194 16.2204 9.01771 16.3279 9.01809 16.4115C9.02056 17.664 11.9619 20.7492 13.2765 22.0652L15.3092 20.5809L15.3088 20.5811Z" fill="black"/>
</g>
<g style="mix-blend-mode:overlay" opacity="0.3">
<path d="M21.9983 50.4633L33.3901 44.0459C31.8834 43.9184 30.385 43.6241 28.9449 43.1851C24.5253 41.838 20.5731 39.2633 16.9101 36.4344C13.2346 33.5958 9.73011 30.3812 6.98485 26.6608C5.76198 27.4399 8.12732 33.3928 12.2705 39.9627C16.4138 46.5326 20.7714 51.2375 21.9985 50.4636L21.9983 50.4633Z" fill="black"/>
</g>
<path d="M16.3949 32.5172C16.1644 32.6625 15.856 32.5744 15.7355 32.3283C15.0443 30.9151 14.5008 29.6342 14.1329 28.5553C14.0646 28.3544 14.1458 28.1352 14.3243 28.0226L14.4266 27.9581C14.6863 27.7943 15.0282 27.9255 15.1127 28.2223C15.4053 29.2509 15.8999 30.5152 16.562 31.93C16.6608 32.1409 16.5904 32.3934 16.3943 32.517L16.3949 32.5172Z" fill="#99D0DA"/>
<path d="M19.7049 30.4295C19.4744 30.5749 19.1661 30.4868 19.0456 30.2406C18.3544 28.8275 17.8109 27.5465 17.443 26.4676C17.3747 26.2668 17.4558 26.0476 17.6343 25.935L17.7367 25.8704C17.9963 25.7067 18.3383 25.8378 18.4227 26.1347C18.7154 27.1632 19.21 28.4276 19.8721 29.8423C19.9709 30.0533 19.9005 30.3058 19.7044 30.4294L19.7049 30.4295Z" fill="#99D0DA"/>
<path d="M23.0155 28.3419C22.785 28.4873 22.4766 28.3991 22.3561 28.153C21.6649 26.7398 21.1214 25.4589 20.7535 24.38C20.6852 24.1791 20.7664 23.9599 20.9449 23.8473L21.0472 23.7828C21.3069 23.619 21.6488 23.7502 21.7333 24.047C22.0259 25.0756 22.5205 26.3399 23.1826 27.7547C23.2814 27.9656 23.211 28.2181 23.0149 28.3418L23.0155 28.3419Z" fill="#99D0DA"/>
<path d="M26.326 26.2542C26.0955 26.3996 25.7872 26.3115 25.6667 26.0653C24.9755 24.6522 24.432 23.3712 24.0641 22.2923C23.9957 22.0915 24.0769 21.8723 24.2554 21.7597L24.3578 21.6951C24.6174 21.5314 24.9594 21.6626 25.0438 21.9594C25.3365 22.988 25.8311 24.2523 26.4932 25.667C26.5919 25.878 26.5216 26.1305 26.3255 26.2541L26.326 26.2542Z" fill="#99D0DA"/>
<path d="M29.6366 24.1665C29.4061 24.3118 29.0977 24.2237 28.9772 23.9776C28.286 22.5644 27.7425 21.2835 27.3746 20.2046C27.3063 20.0037 27.3875 19.7845 27.566 19.6719L27.6683 19.6074C27.928 19.4436 28.2699 19.5748 28.3544 19.8716C28.647 20.9002 29.1416 22.1645 29.8037 23.5793C29.9025 23.7902 29.8321 24.0427 29.636 24.1663L29.6366 24.1665Z" fill="#99D0DA"/>
<path d="M32.9471 22.0788C32.7166 22.2242 32.4083 22.1361 32.2878 21.8899C31.5966 20.4768 31.0531 19.1958 30.6852 18.1169C30.6168 17.9161 30.698 17.6968 30.8765 17.5843L30.9789 17.5197C31.2385 17.356 31.5805 17.4871 31.6649 17.784C31.9576 18.8125 32.4522 20.0769 33.1143 21.4916C33.213 21.7026 33.1427 21.955 32.9466 22.0787L32.9471 22.0788Z" fill="#99D0DA"/>
<g style="mix-blend-mode:overlay" opacity="0.6">
<path d="M42.6155 36.1862L43.6569 34.085L42.601 33.3488L43.4176 32.3659L42.2883 33.1209L40.998 32.289L40.9904 30.7949L41.2696 29.4289L44.3395 28.4319L43.571 27.3827L40.7433 28.996L40.374 33.1383L37.4165 33.7712L34.8474 32.3106L34.6939 29.4541L35.5819 27.9295L34.2679 29.213L32.0559 28.8655L34.1826 29.649L34.2397 31.9504L32.7228 30.9522L30.8319 33.7829L32.7769 31.6685L36.8267 34.125L36.0471 36.7594L34.3784 36.3244L33.2268 35.1383L33.8589 36.7735L35.9144 37.3528L33.214 38.7765L30.4018 42.1466L33.4166 39.0979L36.5237 37.6487L37.7164 34.3408L41.0051 33.6327L41.0032 33.2713L43.0167 34.276L42.6155 36.1862Z" fill="black"/>
</g>
</g>
<defs>
<clipPath id="clip0_3_173136">
<rect width="44.3537" height="38.4398" fill="white" transform="translate(32.5142) rotate(57.7631)"/>
</clipPath>
</defs>
</svg>
