<svg width="118" height="163" viewBox="0 0 118 163" fill="none" xmlns="http://www.w3.org/2000/svg">
<path d="M28.9837 161.513L84.2833 162.967C100.712 163.402 114.39 150.429 114.826 134.01L117.507 31.9905C117.942 15.5712 104.962 1.8999 88.5335 1.4648L33.2339 0.0106325C16.8056 -0.424467 3.12671 12.5484 2.69137 28.9676L0.0106383 130.987C-0.424701 147.406 12.5553 161.078 28.9837 161.513Z" fill="#999999"/>
<path d="M25.3638 47.78L94.3422 49.5891C99.4288 49.7265 103.668 45.7076 103.794 40.6238L104.114 28.3494C104.252 23.2656 100.231 19.0291 95.1442 18.9031L26.1657 17.094C21.0791 16.9566 16.8402 20.9756 16.7142 26.0594L16.3936 38.3338C16.2561 43.4176 20.2772 47.6541 25.3638 47.78Z" fill="#C9D037"/>
<path d="M16.5342 61.8038L16.3371 69.2781C16.2612 72.1544 18.5327 74.5475 21.4105 74.6234L29.1179 74.8264C31.9957 74.9022 34.3902 72.632 34.4661 69.7557L34.6632 62.2814C34.739 59.4052 32.4676 57.0121 29.5897 56.9363L21.8824 56.7332C19.0045 56.6574 16.6101 58.9275 16.5342 61.8038Z" fill="#707070"/>
<g style="mix-blend-mode:overlay" opacity="0.4">
<path d="M34.5517 62.4933L34.3684 69.3976C34.2882 72.4318 31.7564 74.8364 28.7205 74.7563L21.606 74.573C19.2918 74.5158 17.3557 73.0387 16.6111 70.9892C17.4589 71.5617 18.4556 71.8937 19.521 71.9281L26.6353 72.1113C29.6713 72.1915 32.2032 69.7869 32.2834 66.7526L32.4666 59.8483C32.4895 59.127 32.3521 58.4171 32.1 57.7874C33.6352 58.8179 34.5975 60.5582 34.5517 62.5047V62.4933Z" fill="black"/>
</g>
<path d="M39.5282 70.1922L39.7251 62.7293C39.8008 59.8564 42.1987 57.583 45.0732 57.6588L52.7691 57.8615C55.6437 57.9372 57.9184 60.3337 57.8426 63.2066L57.6457 70.6695C57.57 73.5424 55.1721 75.8159 52.2976 75.7402L44.6017 75.5374C41.7271 75.4617 39.4525 73.0651 39.5282 70.1922Z" fill="#707070"/>
<g style="mix-blend-mode:overlay" opacity="0.4">
<path d="M57.7392 63.4208L57.5559 70.3251C57.4757 73.3593 54.9439 75.7639 51.908 75.6837L44.7935 75.5005C42.4793 75.4433 40.5432 73.9548 39.7986 71.9167C40.6464 72.4892 41.6431 72.8212 42.7085 72.8556L49.8228 73.0388C52.8588 73.1189 55.3907 70.7144 55.4709 67.6801L55.6541 60.7758C55.677 60.0545 55.5396 59.3446 55.2875 58.7148C56.8227 59.7453 57.785 61.4857 57.7392 63.4322V63.4208Z" fill="black"/>
</g>
<path d="M62.7309 71.1177L62.9277 63.6549C63.0035 60.782 65.4013 58.5086 68.2759 58.5844L75.9718 58.7871C78.8463 58.8628 81.121 61.2593 81.0452 64.1322L80.8484 71.5951C80.7726 74.468 78.3748 76.7415 75.5002 76.6658L67.8043 76.463C64.9298 76.3873 62.6551 73.9907 62.7309 71.1177Z" fill="#707070"/>
<g style="mix-blend-mode:overlay" opacity="0.4">
<path d="M80.9379 64.3483L80.7546 71.2526C80.6744 74.2869 78.1426 76.6914 75.1067 76.6112L67.9922 76.428C65.6781 76.3707 63.742 74.8822 62.9973 72.8441C63.8451 73.4166 64.8418 73.7487 65.9073 73.783L73.0216 73.9663C76.0575 74.0464 78.5894 71.6419 78.6696 68.6076L78.8528 61.7033C78.8757 60.982 78.7383 60.2721 78.4863 59.6423C80.0214 60.6728 80.9837 62.4132 80.9379 64.3597V64.3483Z" fill="black"/>
</g>
<path d="M86.1192 64.5805L85.922 72.0548C85.8462 74.9311 88.1176 77.3243 90.9955 77.4001L98.7029 77.6032C101.581 77.679 103.975 75.4087 104.051 72.5324L104.248 65.0582C104.324 62.1819 102.053 59.7888 99.1747 59.713L91.4673 59.51C88.5895 59.4341 86.195 61.7043 86.1192 64.5805Z" fill="#707070"/>
<g style="mix-blend-mode:overlay" opacity="0.4">
<path d="M104.137 65.2758L103.954 72.1801C103.873 75.2144 101.342 77.6189 98.3057 77.5387L91.1912 77.3555C88.877 77.2982 86.9409 75.8097 86.1963 73.7716C87.0441 74.3441 88.0408 74.6762 89.1062 74.7105L96.2206 74.8938C99.2565 74.9739 101.788 72.5694 101.869 69.5352L102.052 62.6308C102.075 61.9095 101.937 61.1996 101.685 60.5698C103.22 61.6003 104.183 63.3407 104.137 65.2872V65.2758Z" fill="black"/>
</g>
<path d="M15.5409 92.4452L15.7378 84.9824C15.8135 82.1094 18.2114 79.8359 21.0859 79.9117L28.7818 80.1144C31.6564 80.1902 33.931 82.5868 33.8553 85.4597L33.6584 92.9225C33.5827 95.7955 31.1848 98.0689 28.3103 97.9931L20.6144 97.7904C17.7398 97.7146 15.4651 95.3182 15.5409 92.4452Z" fill="#707070"/>
<g style="mix-blend-mode:overlay" opacity="0.4">
<path d="M33.7831 85.6795L33.5998 92.5838C33.5196 95.6181 30.9878 98.0226 27.9519 97.9425L20.8376 97.7592C18.5234 97.702 16.5872 96.2135 15.8425 94.1754C16.6903 94.7479 17.687 95.0799 18.7525 95.1143L25.8668 95.2975C28.9027 95.3777 31.4346 92.9731 31.5148 89.9389L31.6982 83.0346C31.7211 82.3132 31.5835 81.6033 31.3315 80.9736C32.8666 82.0041 33.829 83.7445 33.7831 85.691V85.6795Z" fill="black"/>
</g>
<path d="M38.755 93.3824L38.9519 85.9195C39.0276 83.0466 41.4255 80.7731 44.3 80.8488L51.996 81.0516C54.8705 81.1273 57.1452 83.5239 57.0694 86.3969L56.8726 93.8597C56.7968 96.7326 54.3989 99.006 51.5244 98.9303L43.8285 98.7275C40.9539 98.6518 38.6793 96.2553 38.755 93.3824Z" fill="#707070"/>
<g style="mix-blend-mode:overlay" opacity="0.4">
<path d="M56.9712 86.607L56.788 93.5113C56.7078 96.5456 54.1759 98.9501 51.14 98.87L44.0257 98.6867C41.7115 98.6295 39.7754 97.141 39.0308 95.1029C39.8785 95.6754 40.8751 96.0074 41.9406 96.0418L49.055 96.225C52.0909 96.3052 54.6227 93.9006 54.7029 90.8664L54.8862 83.962C54.9092 83.2407 54.7716 82.5308 54.5196 81.9011C56.0547 82.9316 57.0171 84.672 56.9712 86.6185V86.607Z" fill="black"/>
</g>
<path d="M62.1548 86.8451L61.9577 94.3194C61.8818 97.1957 64.1533 99.5887 67.0311 99.6646L74.7385 99.8676C77.6164 99.9434 80.0108 97.6733 80.0867 94.7971L80.2838 87.3228C80.3597 84.4465 78.0882 82.0533 75.2104 81.9775L67.503 81.7744C64.6251 81.6986 62.2307 83.9689 62.1548 86.8451Z" fill="#707070"/>
<g style="mix-blend-mode:overlay" opacity="0.4">
<path d="M80.1702 87.5345L79.987 94.4389C79.9068 97.4731 77.3749 99.8776 74.339 99.7975L67.2247 99.6142C64.9105 99.557 62.9744 98.0685 62.2297 96.0304C63.0775 96.6029 64.0741 96.9349 65.1395 96.9693L72.254 97.1525C75.2899 97.2327 77.8217 94.8281 77.9019 91.7938L78.0852 84.8895C78.1081 84.1682 77.9706 83.4583 77.7185 82.8286C79.2537 83.8591 80.216 85.5994 80.1702 87.5459V87.5345Z" fill="black"/>
</g>
<path d="M85.346 87.7707L85.1488 95.245C85.073 98.1213 87.3444 100.514 90.2223 100.59L97.9297 100.793C100.808 100.869 103.202 98.5989 103.278 95.7227L103.475 88.2484C103.551 85.3721 101.279 82.9789 98.4015 82.9031L90.6941 82.7C87.8163 82.6242 85.4218 84.8945 85.346 87.7707Z" fill="#707070"/>
<g style="mix-blend-mode:overlay" opacity="0.4">
<path d="M103.369 88.462L103.186 95.3664C103.106 98.4006 100.574 100.805 97.5377 100.725L90.4234 100.542C88.1092 100.484 86.1731 98.9959 85.4285 96.9579C86.2762 97.5303 87.2728 97.8624 88.3383 97.8968L95.4527 98.08C98.4887 98.1601 101.02 95.7557 101.101 92.7214L101.284 85.817C101.307 85.0957 101.169 84.3858 100.917 83.756C102.452 84.7865 103.415 86.5269 103.369 88.4734V88.462Z" fill="black"/>
</g>
<path d="M14.7907 115.647L14.9875 108.184C15.0633 105.311 17.4611 103.037 20.3357 103.113L28.0316 103.316C30.9061 103.392 33.1808 105.788 33.105 108.661L32.9082 116.124C32.8324 118.997 30.4346 121.27 27.56 121.195L19.8641 120.992C16.9896 120.916 14.7149 118.52 14.7907 115.647Z" fill="#707070"/>
<g style="mix-blend-mode:overlay" opacity="0.4">
<path d="M33.0163 108.866L32.833 115.77C32.7528 118.804 30.2209 121.209 27.1849 121.129L20.0706 120.945C17.7564 120.888 15.8203 119.411 15.0757 117.362C15.9235 117.934 16.9201 118.266 17.9855 118.3L25.0999 118.484C28.1359 118.564 30.6676 116.159 30.7478 113.125L30.9312 106.221C30.9541 105.499 30.8167 104.789 30.5646 104.16C32.0998 105.19 33.0621 106.931 33.0163 108.877V108.866Z" fill="black"/>
</g>
<path d="M38.1453 109.087L37.9482 116.561C37.8723 119.437 40.1437 121.83 43.0216 121.906L50.729 122.109C53.6068 122.185 56.0013 119.915 56.0771 117.039L56.2743 109.564C56.3501 106.688 54.0787 104.295 51.2008 104.219L43.4934 104.016C40.6156 103.94 38.2211 106.211 38.1453 109.087Z" fill="#707070"/>
<g style="mix-blend-mode:overlay" opacity="0.4">
<path d="M56.2043 109.793L56.0209 116.697C55.9407 119.732 53.4088 122.136 50.3729 122.056L43.2586 121.873C40.9444 121.816 39.0083 120.339 38.2637 118.289C39.1114 118.862 40.1082 119.194 41.1736 119.228L48.2879 119.411C51.3239 119.491 53.8556 117.087 53.9358 114.053L54.1192 107.148C54.1421 106.427 54.0047 105.717 53.7526 105.087C55.2878 106.118 56.2501 107.858 56.2043 109.805V109.793Z" fill="black"/>
</g>
<path d="M61.3816 110.035L61.1845 117.509C61.1086 120.386 63.3801 122.779 66.2579 122.855L73.9653 123.058C76.8432 123.133 79.2376 120.863 79.3135 117.987L79.5106 110.513C79.5865 107.637 77.315 105.243 74.4372 105.167L66.7298 104.964C63.8519 104.889 61.4575 107.159 61.3816 110.035Z" fill="#707070"/>
<g style="mix-blend-mode:overlay" opacity="0.4">
<path d="M79.4025 110.72L79.2192 117.625C79.139 120.659 76.6071 123.064 73.5712 122.983L66.4568 122.8C64.1427 122.743 62.2066 121.266 61.4619 119.216C62.3097 119.789 63.3064 120.121 64.3719 120.155L71.4862 120.338C74.5221 120.419 77.0539 118.014 77.1341 114.98L77.3174 108.076C77.3403 107.354 77.2029 106.644 76.9509 106.015C78.486 107.045 79.4483 108.785 79.4025 110.732V110.72Z" fill="black"/>
</g>
<path d="M84.319 118.389L84.5158 110.926C84.5916 108.053 86.9895 105.78 89.864 105.856L97.5599 106.059C100.434 106.134 102.709 108.531 102.633 111.404L102.437 118.867C102.361 121.74 99.9629 124.013 97.0884 123.937L89.3924 123.735C86.5179 123.659 84.2432 121.262 84.319 118.389Z" fill="#707070"/>
<g style="mix-blend-mode:overlay" opacity="0.4">
<path d="M102.602 111.648L102.419 118.553C102.338 121.587 99.8065 123.991 96.7706 123.911L89.6563 123.728C87.3421 123.671 85.406 122.194 84.6614 120.144C85.5091 120.717 86.5059 121.049 87.5713 121.083L94.6856 121.266C97.7216 121.346 100.253 118.942 100.334 115.908L100.517 109.003C100.54 108.282 100.402 107.572 100.15 106.942C101.685 107.973 102.648 109.713 102.602 111.66V111.648Z" fill="black"/>
</g>
<path d="M14.1695 131.317L13.9723 138.791C13.8965 141.667 16.1679 144.061 19.0458 144.136L26.7531 144.34C29.631 144.415 32.0254 142.145 32.1013 139.269L32.2984 131.795C32.3743 128.918 30.1029 126.525 27.225 126.449L19.5176 126.246C16.6398 126.171 14.2453 128.441 14.1695 131.317Z" fill="#707070"/>
<g style="mix-blend-mode:overlay" opacity="0.4">
<path d="M32.237 132.052L32.0537 138.956C31.9735 141.991 29.4417 144.395 26.4058 144.315L19.2913 144.132C16.9771 144.075 15.041 142.597 14.2964 140.548C15.1442 141.12 16.1409 141.452 17.2063 141.487L24.3207 141.67C27.3566 141.75 29.8885 139.346 29.9687 136.311L30.152 129.407C30.1749 128.686 30.0374 127.976 29.7853 127.346C31.3205 128.377 32.2828 130.117 32.237 132.064V132.052Z" fill="black"/>
</g>
<path d="M37.4173 132.288L37.2201 139.762C37.1443 142.639 39.4157 145.032 42.2936 145.108L50.001 145.311C52.8788 145.387 55.2732 143.116 55.3491 140.24L55.5462 132.766C55.6221 129.89 53.3507 127.496 50.4728 127.421L42.7654 127.218C39.8876 127.142 37.4931 129.412 37.4173 132.288Z" fill="#707070"/>
<g style="mix-blend-mode:overlay" opacity="0.4">
<path d="M55.4357 132.979L55.2524 139.884C55.1722 142.918 52.6404 145.322 49.6045 145.242L42.49 145.059C40.1759 145.002 38.2398 143.513 37.4951 141.475C38.3429 142.048 39.3396 142.38 40.4051 142.414L47.5194 142.597C50.5553 142.678 53.0872 140.273 53.1674 137.239L53.3507 130.334C53.3737 129.613 53.2361 128.903 52.9841 128.273C54.5192 129.304 55.4816 131.044 55.4357 132.991V132.979Z" fill="black"/>
</g>
<path d="M60.5518 133.179L60.3546 140.654C60.2788 143.53 62.5502 145.923 65.4281 145.999L73.1355 146.202C76.0133 146.278 78.4078 144.008 78.4836 141.131L78.6808 133.657C78.7566 130.781 76.4852 128.388 73.6073 128.312L65.8999 128.109C63.0221 128.033 60.6276 130.303 60.5518 133.179Z" fill="#707070"/>
<g style="mix-blend-mode:overlay" opacity="0.4">
<path d="M78.6354 133.907L78.4521 140.811C78.3719 143.845 75.8401 146.25 72.8042 146.17L65.6898 145.987C63.3756 145.929 61.4395 144.452 60.6948 142.403C61.5426 142.975 62.5393 143.307 63.6048 143.342L70.7191 143.525C73.755 143.605 76.2869 141.2 76.3671 138.166L76.5504 131.262C76.5734 130.541 76.4358 129.831 76.1838 129.201C77.7189 130.231 78.6813 131.972 78.6354 133.918V133.907Z" fill="black"/>
</g>
<path d="M83.812 134.139L83.6149 141.614C83.539 144.49 85.8105 146.883 88.6883 146.959L96.3957 147.162C99.2736 147.238 101.668 144.968 101.744 142.091L101.941 134.617C102.017 131.741 99.7454 129.348 96.8676 129.272L89.1602 129.069C86.2823 128.993 83.8879 131.263 83.812 134.139Z" fill="#707070"/>
<g style="mix-blend-mode:overlay" opacity="0.4">
<path d="M101.823 134.834L101.639 141.739C101.559 144.773 99.0274 147.177 95.9915 147.097L88.877 146.914C86.5628 146.857 84.6267 145.368 83.8821 143.33C84.7298 143.903 85.7266 144.235 86.792 144.269L93.9063 144.452C96.9423 144.533 99.4742 142.128 99.5544 139.094L99.7377 132.189C99.7606 131.468 99.6231 130.758 99.371 130.128C100.906 131.159 101.869 132.899 101.823 134.846V134.834Z" fill="black"/>
</g>
<g style="mix-blend-mode:overlay" opacity="0.4">
<path d="M104.125 28.3609L103.804 40.6238C103.667 45.6962 99.4282 49.7265 94.3416 49.5891L25.3632 47.7801C21.9721 47.6885 19.0852 45.7878 17.5386 43.0169C18.6384 43.5436 19.8756 43.8527 21.2045 43.8871L90.1829 45.6962C95.2581 45.8336 99.5084 41.8032 99.6458 36.7308L99.9666 24.445C100.012 22.7504 99.6115 21.1588 98.8095 19.7734C102.017 21.2733 104.205 24.5824 104.114 28.3494L104.125 28.3609Z" fill="black"/>
</g>
<g style="mix-blend-mode:overlay" opacity="0.3">
<path d="M117.506 31.8188L114.814 134.193C114.39 150.509 100.792 163.414 84.4434 162.99L28.8117 161.524C18.5125 161.25 9.57657 155.742 4.47852 147.613C9.51929 152.193 16.1983 155.032 23.5304 155.215L79.1621 156.681C95.5102 157.116 109.097 144.223 109.533 127.884L112.225 25.5441C112.385 19.5215 110.724 13.8767 107.769 9.13635C113.955 14.7125 117.736 22.8649 117.506 31.8188Z" fill="black"/>
</g>
<g style="mix-blend-mode:overlay" opacity="0.3">
<path d="M24.0001 25.361C23.9199 28.5555 37.7249 30.4447 55.1728 30.9027C72.6208 31.3607 87.1015 30.2158 87.1931 27.0212C87.2733 23.8267 73.9725 22.8992 56.5246 22.4298C39.0766 21.9718 24.0918 22.155 24.0001 25.3495V25.361Z" fill="white"/>
</g>
<g style="mix-blend-mode:overlay" opacity="0.15">
<path d="M22.5225 7.41889C22.4423 10.6134 38.9851 10.2699 59.0108 10.7966C79.0364 11.3233 94.9606 12.5141 95.0408 9.31956C95.121 6.12501 79.8497 5.14033 59.8241 4.61363C39.7985 4.08693 22.6026 4.21288 22.511 7.40743L22.5225 7.41889Z" fill="white"/>
</g>
<g style="mix-blend-mode:overlay" opacity="0.15">
<path d="M8.69495 28.2692C5.49864 28.1891 5.84238 44.7229 5.31539 64.7375C4.7884 84.7521 3.59699 100.668 6.7933 100.748C9.98961 100.828 10.9748 85.565 11.5018 65.5504C12.0288 45.5358 11.9027 28.3494 8.69495 28.2578V28.2692Z" fill="white"/>
</g>
</svg>
