<svg width="69" height="93" viewBox="0 0 69 93" fill="none" xmlns="http://www.w3.org/2000/svg">
<path d="M59.8739 13.4297H8.65327C6.64294 13.4297 4.99742 14.9021 4.69238 16.7988L8.57099 83.5338C8.60359 84.0877 8.7076 84.6199 8.86206 85.1303C9.28198 86.5213 10.1187 87.7252 11.2325 88.5925C12.41 89.5103 13.8902 90.0549 15.4907 90.0549H53.0303C54.6315 90.0549 56.1109 89.5103 57.2884 88.5925C58.4023 87.7252 59.239 86.5213 59.6589 85.1303C59.8126 84.6206 59.9174 84.0877 59.95 83.5338L63.8301 16.7748C63.515 14.8897 61.8757 13.4297 59.8739 13.4297ZM44.4239 87.0922H15.5978C12.833 87.0922 10.5479 84.9387 10.3842 82.1809L6.77955 23.1523C6.62509 20.5481 8.69674 18.3519 11.3071 18.3519H30.3943C42.9817 18.3519 53.0854 28.7363 52.7353 41.3114L51.4088 80.3043C51.3032 84.0838 48.2078 87.093 44.4247 87.093L44.4239 87.0922Z" fill="#513F37"/>
<path d="M35.407 10.8285H4.34473L4.41846 12.0922L4.60164 15.2503L4.69168 16.7988C4.99672 14.902 6.64147 13.4296 8.65257 13.4296H59.874C61.8758 13.4296 63.5159 14.8896 63.8302 16.7747L63.9187 15.2503L64.1019 12.0922L64.1756 10.8285H35.407ZM63.9234 15.0905C63.9265 14.5739 63.7961 14.0859 63.5655 13.6592C63.7968 14.0859 63.9265 14.5739 63.9234 15.0905Z" fill="#4C372E"/>
<path d="M59.6384 0.000488281H2.34719C1.05096 0.000488281 0 1.05087 0 2.34639V5.28421C0 3.42238 1.51046 1.91274 3.37331 1.91274H65.6259C67.4888 1.91274 68.9992 3.42238 68.9992 5.28498V2.34639C68.9992 1.05087 67.9483 0.000488281 66.652 0.000488281H59.6376H59.6384Z" fill="#846F66"/>
<path d="M65.6259 1.91264H3.37331C1.51046 1.91264 0 3.42228 0 5.28411V8.26924C0 8.87201 0.488998 9.36151 1.09287 9.36151H2.08639V7.19015C2.08639 5.32755 3.59685 3.81869 5.45971 3.81869H43.7452C45.6088 3.81869 47.1185 5.32832 47.1185 7.19015V9.36151H67.9063C68.5102 9.36151 68.9992 8.87278 68.9992 8.26924V5.28411C68.9992 3.4215 67.4888 1.91187 65.6259 1.91187V1.91264Z" fill="#594A43"/>
<path d="M47.118 9.36155V7.19019C47.118 5.32758 45.6076 3.81873 43.7447 3.81873H5.45925C3.5964 3.81873 2.08594 5.32836 2.08594 7.19019V9.36155H47.1188H47.118Z" fill="#6D615C"/>
<path d="M67.9071 9.36156H1.09287C0.489774 9.36156 0 8.87283 0 8.26929V9.73625C0 10.339 0.488998 10.8285 1.09287 10.8285H67.9071C68.511 10.8285 69 10.3398 69 9.73625V8.26929C69 8.87205 68.511 9.36156 67.9071 9.36156Z" fill="#513F37"/>
<path d="M52.7353 41.3113C53.0861 28.7362 42.9817 18.3518 30.3943 18.3518H11.307C8.6967 18.3518 6.62583 20.548 6.77952 23.1522L10.3841 82.1808C10.5471 84.9386 12.833 87.0921 15.5978 87.0921H44.4246C48.2078 87.0921 51.3032 84.0829 51.4088 80.3034L52.7353 41.3105V41.3113ZM43.9907 47.2156L42.9064 79.0886C42.8203 82.1777 40.2899 84.6376 37.1975 84.6376H16.7551C14.4956 84.6376 12.6273 82.8774 12.4938 80.623L9.5474 32.3722C9.42166 30.2435 11.1145 28.4484 13.2483 28.4484H25.7938C36.0829 28.4484 44.2787 36.9367 43.9915 47.2156H43.9907Z" fill="#594A43"/>
<path d="M25.793 28.4476H13.2475C11.1137 28.4476 9.42088 30.2427 9.54662 32.3714L12.493 80.6223C12.6265 82.8767 14.4948 84.6369 16.7543 84.6369H37.1968C40.2891 84.6369 42.8195 82.177 42.9056 79.0879L43.99 47.2149C44.2764 36.9353 36.0806 28.4476 25.7922 28.4476H25.793Z" fill="#6D615C"/>
<mask id="mask0_281_202328" style="mask-type:alpha" maskUnits="userSpaceOnUse" x="20" y="32" width="30" height="30">
<rect x="20" y="32" width="30" height="30" fill="#D9D9D9"/>
</mask>
<g mask="url(#mask0_281_202328)">
<path d="M35 58.875C33.3542 58.875 31.8125 58.5625 30.375 57.9375C28.9375 57.3125 27.6823 56.4635 26.6094 55.3906C25.5365 54.3177 24.6875 53.0625 24.0625 51.625C23.4375 50.1875 23.125 48.6458 23.125 47C23.125 45.3542 23.4375 43.8125 24.0625 42.375C24.6875 40.9375 25.5365 39.6823 26.6094 38.6094C27.6823 37.5365 28.9375 36.6875 30.375 36.0625C31.8125 35.4375 33.3542 35.125 35 35.125V32L40 37L35 42V38.875C32.75 38.875 30.8333 39.6667 29.25 41.25C27.6667 42.8333 26.875 44.75 26.875 47C26.875 48.375 27.1927 49.651 27.8281 50.8281C28.4635 52.0052 29.3125 52.9583 30.375 53.6875C30.7083 53.1042 31.2031 52.6094 31.8594 52.2031C32.5156 51.7969 33.2708 51.5417 34.125 51.4375C34.0625 51 33.9792 50.5625 33.875 50.125C33.7708 49.6875 33.6458 49.2812 33.5 48.9062C33.2708 49.0938 33.0208 49.2396 32.75 49.3437C32.4792 49.4479 32.1875 49.5 31.875 49.5C31.1875 49.5 30.599 49.2552 30.1094 48.7656C29.6198 48.276 29.375 47.6875 29.375 47V45.75C29.375 45.3958 29.3177 45.0625 29.2031 44.75C29.0885 44.4375 28.9375 44.1458 28.75 43.875C29.7917 43.8542 30.7188 43.9479 31.5312 44.1562C32.2396 44.3437 32.8854 44.651 33.4688 45.0781C34.0521 45.5052 34.3542 46.1458 34.375 47C34.375 47.1875 34.3594 47.3594 34.3281 47.5156C34.2969 47.6719 34.2396 47.8333 34.1562 48C33.8854 47.7917 33.6146 47.6042 33.3438 47.4375C33.0729 47.2708 32.7917 47.125 32.5 47C32.8542 47.2708 33.2604 47.6875 33.7188 48.25C34.1771 48.8125 34.6042 49.4792 35 50.25C35.4167 49.2292 35.9375 48.224 36.5625 47.2344C37.1875 46.2448 37.9167 45.3333 38.75 44.5C38.2708 44.8333 37.8125 45.1875 37.375 45.5625C36.9375 45.9375 36.5104 46.3333 36.0938 46.75C35.9479 46.5208 35.8333 46.2656 35.75 45.9844C35.6667 45.7031 35.625 45.4167 35.625 45.125C35.625 44.25 35.9271 43.5104 36.5312 42.9062C37.1354 42.3021 37.875 42 38.75 42H40C40.4792 42 40.875 41.9375 41.1875 41.8125C41.5 41.6875 41.7604 41.5417 41.9688 41.375C42.1979 41.1875 42.375 40.9792 42.5 40.75C42.5833 42.1458 42.5104 43.3958 42.2812 44.5C42.0938 45.4375 41.7396 46.2969 41.2188 47.0781C40.6979 47.8594 39.875 48.25 38.75 48.25C38.4375 48.25 38.1406 48.2083 37.8594 48.125C37.5781 48.0417 37.3229 47.9271 37.0938 47.7812C36.9479 48.1771 36.7813 48.7031 36.5938 49.3594C36.4063 50.0156 36.2604 50.7187 36.1562 51.4687C36.9479 51.6146 37.6458 51.8854 38.25 52.2812C38.8542 52.6771 39.3125 53.1458 39.625 53.6875C40.6875 52.9583 41.5365 52.0104 42.1719 50.8437C42.8073 49.6771 43.125 48.3958 43.125 47H46.875C46.875 48.6458 46.5625 50.1875 45.9375 51.625C45.3125 53.0625 44.4635 54.3177 43.3906 55.3906C42.3177 56.4635 41.0625 57.3125 39.625 57.9375C38.1875 58.5625 36.6458 58.875 35 58.875Z" fill="#1C1B1F"/>
</g>
</svg>
