<svg width="37" height="39" viewBox="0 0 37 39" fill="none" xmlns="http://www.w3.org/2000/svg">
<g clip-path="url(#clip0_3_173142)">
<path d="M27.703 27.6751C26.1863 28.6651 24.2262 29.1924 22.5014 28.6007C20.7783 28.0089 19.5296 26.0537 20.1761 24.3959C18.7209 24.3645 17.4175 23.0769 17.4158 21.6671C16.1363 22.0786 14.5924 21.1249 14.4372 19.8291C13.4357 20.3696 12.03 20.039 11.3954 19.1118C10.3445 20.1845 8.15399 19.6953 7.69508 18.2854C5.93109 19.0606 3.58193 17.6127 3.55634 15.7367C2.2922 16.1103 0.794341 15.4607 0.239893 14.2988C-0.31626 13.1369 0.140946 11.6113 1.25155 10.9171C0.361019 9.90559 0.17336 8.36681 0.796047 7.18174C1.41873 5.99666 2.81424 5.23967 4.18244 5.34214C4.59188 3.89923 6.41559 3.01166 7.85374 3.55379C9.29189 4.09592 10.0169 5.94542 9.31236 7.27595C9.84463 5.92394 11.8014 5.06282 13.2942 5.01489C14.7869 4.96695 16.2677 5.85287 16.8921 7.16686C17.4994 6.76688 18.1426 6.35532 18.8745 6.29747C19.6063 6.23963 20.4354 6.67928 20.5156 7.38668C21.0871 6.65118 21.6996 5.88262 22.5748 5.52561C23.4516 5.17025 24.6646 5.41652 25.0143 6.27268C26.2034 5.75204 27.575 5.42974 28.8085 5.84295C30.0419 6.25615 30.987 7.62304 30.5298 8.80646C31.5926 8.34698 32.9711 8.73539 33.6142 9.67584C34.2557 10.6163 34.0868 11.9981 33.2338 12.765C34.3632 12.3435 35.6307 13.3583 35.8576 14.5104C36.0828 15.6624 35.5744 16.8243 34.9978 17.854C36.25 18.5218 37.0569 19.9052 37.0006 21.2869C36.9443 22.6703 36.0299 23.9876 34.7282 24.5595C34.1857 24.7975 33.5733 24.9215 33.1178 25.295C32.7271 25.6157 32.5019 26.0818 32.1914 26.4768C31.2429 27.6833 29.1343 28.2932 27.7081 27.6701L27.703 27.6751Z" fill="#447F00"/>
<path d="M6.92032 13.8805C8.18446 14.021 9.4486 14.1615 10.711 14.302C11.3627 15.2209 11.3064 16.4325 11.1665 17.5382C11.0249 18.6439 10.8339 19.8108 11.2757 20.8389C11.7176 21.8669 13.0909 22.6074 14.0497 21.9926C14.4693 21.7231 14.7133 21.2686 14.9317 20.829C15.7249 19.2224 16.3988 17.558 16.943 15.8573C17.8796 16.3614 18.8145 16.8655 19.7511 17.3696C19.3195 18.6489 18.2891 19.6356 17.4975 20.7414C16.7059 21.8471 16.1378 23.3115 16.7588 24.5164C17.2211 25.4139 18.3112 25.9428 19.3417 25.837C20.3721 25.7296 21.295 25.0321 21.7266 24.1197C22.3067 24.7743 22.8867 25.4288 23.4685 26.0816C19.8603 30.1327 13.8876 31.7905 10.6547 36.1308C9.83586 37.2316 9.08181 38.577 7.72555 38.9191C7.03462 39.0927 6.29252 38.9621 5.634 38.6943C-0.246556 36.3192 5.70224 30.9905 6.89303 27.6452C7.67949 25.4354 8.08722 23.0966 8.09746 20.7596C8.10087 19.9976 7.83815 13.9797 6.92032 13.8772V13.8805Z" fill="#A6C427"/>
<g style="mix-blend-mode:overlay" opacity="0.2">
<path d="M4.10076 37.805C6.21277 33.0151 8.22243 28.1542 9.14538 23.0321C9.45757 21.3016 10.1553 17.9348 9.0669 16.3431C8.71376 15.8258 8.20026 15.558 7.61339 15.4407C7.97848 17.3067 8.0979 20.2438 8.09619 20.7611C8.08596 23.0982 7.67822 25.4369 6.89176 27.6468C5.83404 30.6218 1.01803 35.1638 4.09905 37.8034L4.10076 37.805Z" fill="black"/>
</g>
<g style="mix-blend-mode:overlay" opacity="0.2">
<path d="M10.8396 14.5185C10.7475 14.7135 10.6776 14.9234 10.6196 15.13C9.8877 17.7134 10.2903 20.5777 11.7046 22.8785C12.0987 23.5181 12.8783 24.1892 13.5368 23.8041C13.7791 23.6619 13.9241 23.409 14.0571 23.1661C15.12 21.2339 16.1828 19.3018 17.2456 17.3696C16.7799 18.8985 16.3125 20.429 15.8467 21.9579C15.3673 23.5313 15.0637 25.604 16.495 26.48C18.288 27.5775 20.4631 25.4949 22.4847 24.9759C22.2323 24.6916 21.9798 24.4073 21.7273 24.1214C21.2957 25.0338 20.3727 25.7312 19.3423 25.8387C18.3119 25.9461 17.2218 25.4172 16.7594 24.5181C16.1402 23.3148 16.7066 21.8488 17.4981 20.743C18.2897 19.6373 19.3201 18.6506 19.7517 17.3713C18.8152 16.8672 17.8803 16.363 16.9437 15.8589C16.3995 17.5613 15.7256 19.2241 14.9323 20.8306C14.7157 21.2703 14.47 21.7265 14.0503 21.9942C13.0898 22.6074 11.7182 21.8686 11.2764 20.8405C10.8345 19.8125 11.0273 18.6456 11.1672 17.5399C11.2968 16.5168 11.348 15.4061 10.8396 14.5168V14.5185Z" fill="black"/>
</g>
<g style="mix-blend-mode:overlay" opacity="0.2">
<path d="M23.1395 25.7131C21.7559 26.3858 20.3723 27.0585 18.9871 27.7312C16.6686 28.8585 14.3297 29.9989 12.3286 31.5972C9.90777 33.5326 8.06018 36.1243 7.01611 38.9903C7.25495 38.9952 7.49379 38.9803 7.72581 38.9225C9.08207 38.5804 9.83441 37.235 10.655 36.1342C13.8879 31.7939 19.8588 30.1361 23.4687 26.085C23.3595 25.9611 23.2486 25.8371 23.1395 25.7148V25.7131Z" fill="black"/>
</g>
<path d="M26.5362 28.1873C25.3198 29.5823 22.8479 29.6947 21.5035 28.4138C20.1592 27.1328 20.2309 24.7379 21.6503 23.5346C20.5021 23.371 19.6031 22.2256 19.7464 21.1099C18.4566 21.0637 17.2505 20.1397 16.9059 18.9348C15.362 19.3761 13.5468 18.6109 12.8286 17.2176C11.5098 18.0952 9.52406 17.839 8.48682 16.6572C7.4581 17.2423 6.00972 16.7895 5.36656 15.8176C4.7234 14.8441 4.82405 13.5169 5.43991 12.5285C4.22525 12.074 3.34837 10.874 3.31083 9.61291C3.2733 8.35181 4.07512 7.10393 5.25908 6.57998C5.2659 5.24946 7.5417 4.64949 8.43564 5.65771C9.90961 5.24616 11.2232 4.31562 12.0728 3.07765C12.4447 2.53553 12.7364 1.93225 13.2124 1.47276C14.3179 0.406692 16.3651 0.486027 17.3785 1.63639C19.0026 0.722381 21.0378 0.367024 22.7899 1.02319C24.5419 1.67937 25.8675 3.48259 25.603 5.28417C26.5021 4.85774 27.5991 5.72878 27.7202 6.69072C27.843 7.65267 27.3107 8.57329 26.7444 9.37325C28.5101 10.165 29.4279 12.3847 28.7131 14.1383C30.617 14.1797 32.1796 16.2143 31.673 17.9927C32.6641 17.8985 33.6877 18.4489 34.1279 19.315C34.568 20.1794 34.3974 21.3017 33.7167 22.0074C34.8871 22.2239 35.566 23.5412 35.4057 24.6833C35.2453 25.8271 34.4623 26.794 33.6144 27.6039C32.6027 28.5691 30.9752 29.417 29.8595 28.5658C29.7998 29.5625 28.6517 30.3492 27.6622 30.0749C26.6727 29.7988 26.0381 29.0633 26.5328 28.1873H26.5362Z" fill="#709E0A"/>
<g style="mix-blend-mode:overlay" opacity="0.2">
<path d="M26.7407 29.0302C26.6042 28.8914 26.4934 28.7344 26.3944 28.5691C26.2477 29.2699 26.8243 29.8385 27.6654 30.0732C28.172 30.2136 28.718 30.0732 29.1411 29.7723C28.2812 29.9079 27.3481 29.6418 26.7407 29.0302Z" fill="black"/>
</g>
<g style="mix-blend-mode:overlay" opacity="0.2">
<path d="M26.3073 28.4188C25.9115 27.6436 25.9115 26.6734 26.367 25.9247C25.833 26.1495 25.4253 25.4024 25.4235 24.8388C25.4133 23.2207 26.2697 21.6207 27.6396 20.6952C27.1278 20.5646 26.715 20.1249 26.6314 19.6192C26.6075 20.4373 25.6675 21.1001 24.8572 20.872C24.0468 20.6423 23.622 19.5927 24.057 18.8919C23.2706 19.5448 21.9501 18.7316 21.8103 17.7366C21.6704 16.7416 22.2743 15.8045 22.8816 14.9896C21.6891 14.5781 21.2695 12.8591 22.1446 11.9732C21.2797 12.8062 19.6778 12.7385 18.8896 11.836C18.7702 13.2475 17.7329 14.5467 16.3545 15.0144C15.9263 15.1599 15.4367 15.2243 15.0341 15.026C14.6297 14.8276 14.3926 14.2855 14.6519 13.9252C13.8381 14.9152 12.2482 15.2061 11.1154 14.5731C9.98431 13.9401 9.45034 12.4592 9.92972 11.2807C6.11683 10.5931 7.2769 7.71224 8.03607 5.3454C7.00053 4.81154 5.26724 5.41647 5.26212 6.57676C4.07646 7.1007 3.27464 8.34858 3.31388 9.60969C3.35141 10.8708 4.22829 12.0707 5.44296 12.5253C4.82709 13.5153 4.72473 14.8425 5.3696 15.8144C6.01276 16.7879 7.46115 17.2391 8.48986 16.654C9.5254 17.8358 11.5129 18.092 12.8316 17.2143C13.5515 18.6093 15.3667 19.3729 16.9089 18.9316C17.2535 20.1365 18.4597 21.0604 19.7494 21.1067C19.6061 22.2224 20.5052 23.3678 21.6533 23.5314C20.2339 24.733 20.1623 27.1296 21.5066 28.4105C22.7724 29.6154 25.0346 29.5873 26.3107 28.4172L26.3073 28.4188Z" fill="black"/>
</g>
<path d="M23.6001 8.25091C23.6155 7.86249 23.5404 7.50383 23.3664 7.15343C23.0525 6.5171 22.324 5.94687 21.5495 6.15182C21.007 6.29562 20.6078 6.63445 20.34 7.1022C20.154 7.42615 20.0738 7.77159 20.0551 8.13852C20.0346 8.53354 20.1523 8.87237 20.3092 9.22607C20.7989 10.3384 22.672 10.4095 23.2538 9.34342C23.4449 8.99137 23.5848 8.65915 23.6001 8.25256V8.25091Z" fill="#75BC0F"/>
<path d="M27.1539 9.57813C27.234 9.21451 27.2443 8.87072 27.0703 8.52694C26.9201 8.23273 26.6506 7.99142 26.3452 7.85589C25.7839 7.60797 25.1016 7.67573 24.7382 8.22282C24.368 8.78147 24.4055 9.59796 24.8968 10.074C25.2363 10.4029 25.6952 10.5665 26.1729 10.4607C26.6062 10.3649 27.0549 10.0161 27.1522 9.57648L27.1539 9.57813Z" fill="#75BC0F"/>
<path d="M25.209 12.484C25.3369 11.9683 25.1697 11.3518 24.6648 11.0725C24.153 10.7899 23.5712 10.8461 23.1157 11.2064C22.9281 11.3551 22.7796 11.5287 22.6687 11.7369C22.5306 11.9981 22.4521 12.2427 22.4811 12.5418C22.5067 12.7947 22.6056 13.1137 22.8103 13.2856C23.0168 13.4592 23.155 13.5435 23.4057 13.6492C23.6582 13.755 23.996 13.7021 24.24 13.6145C24.5317 13.5104 24.7194 13.3451 24.9087 13.1038C25.0554 12.917 25.1527 12.7121 25.209 12.484Z" fill="#75BC0F"/>
<path d="M27.9743 14.5944C27.976 14.3515 27.9401 14.1217 27.877 13.8887C27.715 13.292 27.0701 12.8292 26.4218 13.0011C25.7667 13.1747 25.3777 13.7647 25.5057 14.411C25.5518 14.649 25.6217 14.8705 25.7326 15.0886C25.9561 15.5299 26.5549 15.8109 27.0513 15.6803C27.5546 15.5481 27.9709 15.12 27.976 14.5944H27.9743Z" fill="#75BC0F"/>
<path d="M9.42647 9.53026C9.15692 9.18977 8.75942 8.95011 8.33975 8.83111C7.92861 8.71376 7.48505 8.85094 7.21209 9.16663C6.91525 9.51042 6.91695 9.9071 7.07561 10.3087C7.23597 10.712 7.55499 11.031 7.9269 11.2657C8.41993 11.5765 9.08356 11.4508 9.45035 11.0261C9.84444 10.5682 9.78643 9.98809 9.42476 9.53026H9.42647Z" fill="#75BC0F"/>
<path d="M11.472 8.26757C11.3031 7.90064 10.938 7.68412 10.5405 7.62131C10.1532 7.56016 9.87346 7.66594 9.57321 7.89733C9.2576 8.1403 9.18936 8.64606 9.37531 8.97993C9.38043 8.98985 9.38555 8.99811 9.39066 9.00803C9.40772 9.051 9.4299 9.11216 9.46743 9.21133C9.52714 9.30885 9.59538 9.4014 9.67215 9.4857C10.0321 9.89229 10.6838 9.92865 11.1188 9.63445C11.5863 9.31876 11.6989 8.76176 11.472 8.26757Z" fill="#75BC0F"/>
<path d="M14.0705 7.54355C13.8248 7.20141 13.4648 7.08572 13.0622 7.04274C12.6596 6.99977 12.2587 7.29562 12.1018 7.62784C11.9602 7.92866 11.9943 8.22451 12.1376 8.49557C12.1529 8.53524 12.1717 8.58152 12.1973 8.64267C12.2519 8.7187 12.3065 8.79473 12.3611 8.86911C12.4907 9.02117 12.7091 9.13522 12.9002 9.19968C13.3454 9.35174 13.8657 9.14017 14.1131 8.76829C14.3639 8.39145 14.3315 7.90386 14.0722 7.5419L14.0705 7.54355Z" fill="#75BC0F"/>
<path d="M12.6597 11.8822C12.6359 11.6475 12.5335 11.4574 12.3868 11.2739C12.3493 11.2276 11.9791 10.9053 12.1241 11.0326C11.8801 10.8177 11.585 10.7186 11.2608 10.8343C10.9793 10.9334 10.7217 11.221 10.7354 11.5285C10.749 11.8309 10.7456 12.1102 10.9043 12.3879C11.1278 12.778 11.6413 12.9929 12.0814 12.8375C12.4704 12.6986 12.699 12.2722 12.6597 11.8838V11.8822Z" fill="#75BC0F"/>
<path d="M33.1384 24.3711C33.3056 23.8372 33.1213 23.4042 32.8109 22.9728C32.4458 22.4654 31.6371 22.191 31.0127 22.1728C30.4378 22.1563 29.8407 22.2819 29.4057 22.667C29.0235 23.0058 28.9263 23.5711 29.1583 24.0157C29.3767 24.4339 29.7776 24.7479 30.187 24.9843C30.7654 25.3181 31.3676 25.4487 32.0363 25.3694C32.5515 25.3082 32.9968 24.8305 33.1401 24.3727L33.1384 24.3711Z" fill="#75BC0F"/>
<path d="M30.6203 26.4782C30.303 26.2997 29.9857 26.184 29.6138 26.194C29.1719 26.2055 28.7727 26.3791 28.5305 26.751C28.2899 27.1212 28.3121 27.5146 28.4674 27.903C28.4912 27.9674 28.5151 28.0335 28.5424 28.098C28.568 28.1525 28.597 28.2054 28.6243 28.2583C28.9348 28.8715 29.8953 29.2351 30.5214 28.8385C30.6203 28.7757 30.7278 28.7079 30.8199 28.6368C31.5211 28.093 31.3761 26.9014 30.6203 26.4782Z" fill="#75BC0F"/>
<path d="M28.4791 27.9394C28.474 27.9278 28.4723 27.9146 28.4672 27.903C28.4484 27.8551 28.4297 27.8072 28.4126 27.7576C28.4348 27.8187 28.457 27.8782 28.4791 27.9394Z" fill="#75BC0F"/>
<path d="M28.0187 28.0319C27.6059 27.8038 27.0327 27.7972 26.6352 28.0616C26.2189 27.7211 25.5126 27.6236 25.1237 28.0616C24.9718 28.2319 24.8029 28.3938 24.7057 28.5988C24.5436 28.9442 24.5743 29.3376 24.7978 29.6483C24.9889 29.9128 25.3199 30.0847 25.6576 30.0962C25.8607 30.1029 26.0432 30.0417 26.2189 29.9591C26.4799 30.321 26.9849 30.5392 27.4216 30.4202C27.8993 30.2913 28.1245 30.0516 28.406 29.683C28.7899 29.1773 28.5698 28.336 28.0187 28.0319Z" fill="#75BC0F"/>
<path d="M18.673 2.31246C18.5757 1.71248 18.0861 1.14226 17.4788 0.991853C17.216 0.92574 16.8953 0.930699 16.6531 1.06623C16.3784 1.21994 16.2385 1.42655 16.1071 1.70422C15.8444 2.26287 16.1071 2.97689 16.5046 3.41159C16.8629 3.80165 17.5453 3.93884 18.023 3.67273C18.5348 3.38679 18.7617 2.87277 18.673 2.31411V2.31246Z" fill="#75BC0F"/>
<path d="M20.9338 1.53724C20.9748 1.31576 21.0174 1.1075 20.9645 0.882719C20.8826 0.532321 20.6114 0.241424 20.2787 0.0959754C19.7396 -0.142031 18.8986 0.0695303 18.7536 0.704214C18.6205 1.28931 18.8269 1.79342 19.3609 2.10746C19.888 2.41819 20.811 2.21489 20.9338 1.53724Z" fill="#75BC0F"/>
</g>
<defs>
<clipPath id="clip0_3_173142">
<rect width="37" height="39" fill="white"/>
</clipPath>
</defs>
</svg>
