<svg width="115" height="138" viewBox="0 0 115 138" fill="none" xmlns="http://www.w3.org/2000/svg">
<g clip-path="url(#clip0_3_173248)">
<path d="M51.2561 34.6959C51.4927 33.8327 51.7945 32.5776 52.5481 32.0158C52.6813 31.9153 52.8144 31.846 52.9462 31.7993C52.9901 31.3917 53.0369 30.9856 53.0893 30.5823C53.3244 28.7781 53.5752 26.9541 53.9605 25.1754C54.0823 24.6122 54.2268 24.049 54.4067 23.4999C53.7324 17.9317 53.1162 12.3563 52.5099 6.77954C50.8878 14.9204 50.2177 23.2254 50.1767 31.5219C50.1696 33.0969 50.1908 34.6718 50.2234 36.2468C50.426 36.5171 50.6172 36.7973 50.7872 37.0916C50.8836 36.2822 51.0394 35.4841 51.2547 34.6973L51.2561 34.6959Z" fill="#38631C"/>
<path d="M61.8827 78.3025C61.9493 74.0233 61.8232 69.7244 61.2084 65.4834C60.9647 63.8009 60.6559 62.1283 60.3315 60.46C59.5467 61.9217 58.674 63.3424 58.0337 64.8707C57.1837 66.9013 57.2305 69.0211 57.3381 71.1791C57.4146 72.7031 57.5875 74.4549 57.2517 76.0214C57.5265 75.9393 57.7886 75.9337 57.8623 76.1488C58.2462 77.2794 57.8566 78.519 56.991 79.3242C56.7828 79.5194 56.525 79.6779 56.2544 79.8152C58.2731 89.1249 59.2874 98.6822 59.7563 108.119C59.7903 108.804 59.8102 109.489 59.8385 110.173C59.932 111.082 60.0198 111.964 60.1006 112.816C60.2847 109.907 60.459 106.999 60.629 104.093C61.1305 95.5097 61.7495 86.899 61.8841 78.2997L61.8827 78.3025Z" fill="#38631C"/>
<path d="M55.0698 74.8553C55.1137 74.8468 55.1548 74.8327 55.2016 74.8298C55.1548 74.8327 55.1137 74.8454 55.0698 74.8553Z" fill="#38631C"/>
<path d="M33.2962 69.3043C32.544 68.8302 31.7776 68.3802 30.9616 68.0236C29.7192 67.4817 28.4471 67.2977 27.1353 67.3062C27.709 67.7576 28.2827 68.2104 28.8466 68.6731C30.8639 70.3316 32.8047 72.1103 34.3828 74.2018C36.189 76.5961 37.5674 79.2776 38.8905 81.9577C44.2766 92.8792 49.1569 104.087 52.8756 115.691C53.0881 116.355 53.2964 117.02 53.5004 117.687C53.5004 117.687 57.1936 126.191 58.4671 135.201C58.4444 134.1 58.4147 132.998 58.3807 131.895C57.0689 120.368 52.0894 96.2343 33.2976 69.3043H33.2962Z" fill="#38631C"/>
<path d="M92.1888 28.9622C92.3758 30.8994 92.4126 32.8777 91.9649 34.7838C91.5654 36.4819 90.8713 38.0625 89.9689 39.5525C88.0847 42.6657 85.3648 45.142 82.6378 47.5038C80.187 49.6278 77.5081 51.6711 75.563 54.2989C74.9836 56.6451 74.4567 59.004 73.9651 61.3672C74.1138 61.5355 74.2328 61.7308 74.3207 61.9615C74.4184 62.2176 74.4609 62.4836 74.4807 62.7567C74.485 62.8148 74.485 62.877 74.4836 62.9407C74.4467 63.2478 74.3773 63.5548 74.2668 63.8633C73.9722 64.6926 73.5047 65.4284 73.0584 66.1798C73.0386 66.2123 73.0145 66.2519 72.9918 66.2916C71.6191 73.6541 70.5566 81.0691 69.5607 88.4925C68.9743 95.807 68.2943 102.025 67.5718 107.326C67.5845 107.292 67.5973 107.258 67.61 107.224C68.8751 103.942 70.3045 100.721 71.8982 97.5843C72.3529 96.6899 72.8389 95.807 73.3743 94.9551C74.0501 92.8056 74.7117 90.7424 75.3576 88.7684C75.3661 88.3722 75.42 87.9717 75.4894 87.5826C75.6537 86.6543 75.8832 85.6949 76.5264 84.9817C76.5391 84.9166 76.5519 84.8515 76.566 84.7879C76.9244 83.1025 77.6143 81.5106 78.3383 79.9314C79.1755 77.5286 79.9844 75.2744 80.765 73.1546C80.8627 72.4627 80.9066 71.758 80.8585 71.0278C80.68 68.3194 79.7719 65.7284 79.4588 63.0383C79.1755 60.5988 79.4659 58.1422 80.2252 55.8102C81.9139 50.6212 86.0349 46.1481 91.2212 44.3298C91.7907 44.1303 92.3205 44.4062 92.5783 44.9298C92.5826 44.9383 92.5868 44.9482 92.5911 44.9567C98.0041 32.9782 100.179 26.4858 100.394 0.530762C100.367 0.60293 100.342 0.675098 100.315 0.747266C98.2491 6.23913 95.0872 11.2074 91.9423 16.129C91.0469 17.5313 90.1672 18.9379 89.3059 20.3558C89.3186 20.3671 89.3342 20.377 89.3484 20.3883C91.6547 22.4784 91.9125 26.0627 92.1916 28.9622H92.1888Z" fill="#477A26"/>
<path d="M69.0535 109.241C70.0182 105.927 70.9561 102.789 71.8684 99.8071C70.0692 103.567 68.5024 107.433 67.1821 111.384C67.7445 110.614 68.3735 109.902 69.0535 109.241Z" fill="#477A26"/>
<path d="M60.8398 137.51H60.8937C60.9008 137.417 60.9107 137.323 60.9178 137.229C60.8908 137.322 60.8682 137.417 60.8413 137.51H60.8398Z" fill="#477A26"/>
<path d="M92.6488 45.0796C93.3359 46.4805 94.047 47.9663 94.6463 49.5045C94.7865 49.4224 94.9282 49.3418 95.0741 49.2668C95.2866 49.1564 95.5033 49.0573 95.7229 48.9639C98.0816 41.7287 99.6088 34.2586 100.341 26.6498C101.177 17.9684 101.079 9.22188 100.391 0.531982C100.177 26.4871 98.0009 32.9794 92.5879 44.9579C92.6077 44.9989 92.6276 45.04 92.6488 45.081V45.0796Z" fill="#3F6D21"/>
<path d="M76.4556 91.2716C76.2304 91.0706 76.0207 90.8541 75.8507 90.6135C75.4569 90.0532 75.3421 89.4164 75.3549 88.7683C74.7089 90.7423 74.0473 92.8055 73.3716 94.955C73.662 94.4937 73.9609 94.0394 74.2881 93.6036C74.9101 92.7715 75.6198 91.9267 76.4556 91.2716Z" fill="#3F6D21"/>
<path d="M74.4724 94.8207C73.5586 96.2938 72.7993 97.8687 72.0457 99.4281C71.9847 99.5541 71.9281 99.6814 71.8686 99.8074C70.9563 102.789 70.0199 105.927 69.0537 109.242C69.8839 108.436 70.7891 107.705 71.7354 107.019C73.475 101.923 75.2855 96.8499 77.2206 91.825C77.164 91.7924 77.1116 91.7556 77.0577 91.7217C76.0817 92.657 75.209 93.6334 74.4738 94.8193L74.4724 94.8207Z" fill="#3F6D21"/>
<path d="M78.3354 79.9313C79.3498 77.7181 80.425 75.5304 80.7622 73.1545C79.9816 75.2743 79.1727 77.5285 78.3354 79.9313Z" fill="#3F6D21"/>
<path d="M38.0718 51.4263C38.0477 52.0574 38.0817 52.6913 38.1426 53.3224C39.7406 56.9224 41.4944 60.4558 43.3898 63.7189C43.9522 64.3953 44.4665 65.1057 44.8362 65.9179C44.8986 66.0538 44.9439 66.2123 44.9977 66.3623C45.7273 67.507 46.4767 68.608 47.2445 69.6523C48.7362 71.6801 50.0636 73.9739 51.2494 76.4517C51.2635 76.446 51.2692 76.4361 51.2848 76.4318C51.0411 75.9847 50.8371 75.5121 50.6657 75.0338C50.3526 74.1578 50.0934 73.255 49.871 72.3423C47.865 67.8226 45.6664 63.3765 44.4339 58.5653C43.8318 56.2148 43.4819 53.7908 43.5145 51.3626C43.5187 51.0187 43.5315 50.6763 43.5513 50.3324C43.5967 49.5796 43.6987 48.8424 43.8347 48.1108C42.3203 45.6259 40.7336 43.1835 39.1229 40.7524C39.4941 44.3665 38.2106 47.8263 38.0718 51.4277V51.4263Z" fill="#477A26"/>
<path d="M30.759 28.7089C31.1018 28.8872 31.4347 29.0797 31.7605 29.282C29.8792 26.0755 28.1679 22.777 26.8179 19.3171C26.8179 19.3171 27.6069 22.7331 29.1029 27.9448C29.7163 28.1726 30.2971 28.4698 30.759 28.7089Z" fill="#477A26"/>
<path d="M54.5244 75.1286C54.6859 74.9927 54.8672 74.8951 55.0698 74.8555C54.8687 74.8965 54.6873 74.9927 54.5244 75.1286Z" fill="#477A26"/>
<path d="M56.6962 92.7137C56.6254 92.1972 56.5588 91.6935 56.4851 91.1642C56.2046 89.1265 55.859 87.0988 55.5473 85.0653C55.2952 83.4154 54.3743 81.7442 54.1859 80.0772C54.0386 80.0305 53.8969 79.9668 53.7624 79.8848C53.683 79.8367 53.6264 79.7716 53.5867 79.7008C53.1603 79.565 52.7565 79.3329 52.4321 79.0938C54.1987 83.3149 55.5997 87.9605 56.6948 92.7166L56.6962 92.7137Z" fill="#477A26"/>
<path d="M56.2527 79.8167C56.0926 79.8973 55.9311 79.9794 55.7583 80.0346C56.0246 81.4751 56.1805 82.951 56.4029 84.3887C56.682 86.1958 56.9724 88.0014 57.2387 89.8098C58.4216 97.8488 59.2588 104.556 59.8382 110.175C59.8099 109.491 59.7901 108.806 59.7561 108.122C59.2872 98.6851 58.2728 89.1278 56.2541 79.8181L56.2527 79.8167Z" fill="#477A26"/>
<path d="M39.8394 69.1357C40.3989 69.031 40.967 68.9928 41.5351 69.0367C40.967 68.9942 40.3989 69.031 39.8394 69.1357Z" fill="#3F6D21"/>
<path d="M56.696 92.7137C55.601 87.9591 54.1999 83.3134 52.4334 79.0909C52.4192 79.081 52.4008 79.0711 52.3866 79.0612C51.6216 78.481 51.1485 77.6136 51.0762 76.6598C51.0691 76.5593 51.14 76.4942 51.2491 76.4476C50.0633 73.9698 48.7345 71.676 47.2442 69.6482C46.4764 68.6039 45.727 67.5029 44.9974 66.3582C45.1348 66.7473 45.251 67.1633 45.2977 67.5949C45.778 68.1878 46.2426 69.0722 46.1534 69.5364C46.1222 69.6963 46.0783 69.8505 46.0287 70.0019C46.0797 70.1307 46.1081 70.275 46.1095 70.4321C46.1137 71.3646 45.7312 72.1939 45.1377 72.8519C47.4751 76.5282 49.4783 80.4295 51.1442 84.4483C54.5612 92.6854 56.645 101.428 57.8039 110.253C58.3875 114.694 58.7133 119.167 58.8706 123.647C59.2729 125.886 59.6384 128.131 59.9472 130.387C60.2546 124.195 59.6129 114.15 56.696 92.7109V92.7137Z" fill="#3F6D21"/>
<path d="M41.5604 61.6119C42.1498 62.3251 42.7972 63.0029 43.3893 63.7175C41.4924 60.4544 39.7401 56.9224 38.1421 53.321C38.4297 56.3365 39.6409 59.2884 41.5604 61.6119Z" fill="#3F6D21"/>
<path d="M44.398 67.0967C44.3626 67.1688 44.3243 67.2382 44.2875 67.3075C44.2875 67.3089 44.2861 67.3104 44.2847 67.3118C44.2847 67.3104 44.2861 67.3089 44.2875 67.3075C44.3243 67.2368 44.3626 67.1688 44.398 67.0967Z" fill="#3F6D21"/>
<path d="M57.2827 115.83C56.5291 109.11 55.3575 102.424 53.4946 95.9329C51.2705 88.1826 48.0632 80.7082 43.6476 73.9556C43.4166 74.0659 43.1772 74.1593 42.935 74.2329C42.6077 74.332 42.1601 74.4381 41.6699 74.5089C44.5018 80.2781 47.3436 86.036 49.766 92.0005C52.9096 99.7437 55.4099 107.713 57.2827 115.83Z" fill="#3F6D21"/>
<path d="M29.1044 27.9448C27.607 22.7331 26.8193 19.3171 26.8193 19.3171C26.8264 22.0864 26.9497 24.8543 27.1678 27.6137C27.7827 27.5457 28.4612 27.7042 29.1044 27.9434V27.9448Z" fill="#3F6D21"/>
<path d="M43.0977 69.0155C43.1189 68.9942 43.1345 68.9787 43.1402 68.9716C43.2337 68.8655 43.3172 68.7466 43.4022 68.6292C43.3158 68.7452 43.2337 68.8641 43.1402 68.9716C43.1345 68.9773 43.1189 68.9928 43.0977 69.0155Z" fill="#3F6D21"/>
<path d="M65.0215 114.767C65.2651 114.33 65.5244 113.891 65.7964 113.453C65.9026 112.779 66.0089 112.083 66.1151 111.371C65.7341 112.497 65.3657 113.628 65.0215 114.767Z" fill="#6A963C"/>
<path d="M67.0953 111.493C67.1223 111.455 67.1548 111.422 67.1818 111.384C68.5021 107.433 70.0689 103.567 71.868 99.8072C71.9289 99.6813 71.9842 99.5539 72.0451 99.428C72.7987 97.8686 73.5581 96.295 74.4718 94.8205C75.207 93.6347 76.0797 92.6569 77.0557 91.7229C76.8418 91.5885 76.6407 91.4385 76.4551 91.2729C75.6193 91.9281 74.9095 92.7729 74.2876 93.605C73.9618 94.0408 73.6615 94.495 73.3711 94.9564C72.8356 95.8068 72.3497 96.6898 71.8949 97.5855C70.3012 100.723 68.8718 103.942 67.6067 107.225C67.594 107.259 67.5812 107.293 67.5685 107.327C67.3574 108.872 67.1435 110.344 66.9268 111.736C66.9834 111.656 67.0344 111.575 67.0925 111.494L67.0953 111.493Z" fill="#6A963C"/>
<path d="M61.3128 134.618C61.2363 134.807 61.1612 134.991 61.089 135.164C61.0267 135.852 60.9686 136.539 60.9162 137.227C60.9091 137.32 60.8992 137.414 60.8921 137.509H62.0452C61.8795 137.165 61.5607 136.145 61.3114 134.618H61.3128Z" fill="#6A963C"/>
<path d="M6.52705 51.0498C6.56105 51.054 6.59505 51.0583 6.63046 51.0625C6.71546 51.0724 6.80188 51.0823 6.88688 51.0894C6.91946 51.0922 6.95346 51.0965 6.98604 51.0993C7.09937 51.1092 7.2127 51.1191 7.32745 51.1262C7.34162 51.1262 7.35578 51.1276 7.36995 51.129C7.47195 51.1361 7.57395 51.1417 7.67595 51.146C7.71419 51.1474 7.75103 51.1488 7.78928 51.1517C7.87286 51.1559 7.95644 51.1587 8.04002 51.1616C8.07402 51.1616 8.10802 51.1644 8.14344 51.1658C8.25393 51.1686 8.36443 51.1729 8.47351 51.1743C8.51743 51.1743 8.55993 51.1757 8.60385 51.1771C8.67893 51.1785 8.75259 51.18 8.82767 51.1814C8.96367 51.1842 9.09967 51.187 9.23567 51.1884C9.24417 51.1884 9.25267 51.1884 9.26117 51.1884C9.26117 51.1884 9.264 51.1884 9.26542 51.1884C9.38725 51.1913 9.50766 51.1941 9.62949 51.1969C9.63799 51.1969 9.64649 51.1969 9.65499 51.1969C9.75841 51.1998 9.86041 51.2026 9.96382 51.2068C9.9964 51.2068 10.029 51.2097 10.0616 51.2111C10.1452 51.2139 10.2301 51.2182 10.3137 51.2224C10.3477 51.2238 10.3803 51.2252 10.4143 51.2281C10.5276 51.2337 10.641 51.2408 10.7543 51.2493C10.3236 50.0055 10.0007 48.722 9.76124 47.4357C9.58416 46.4777 9.45808 45.5098 9.37308 44.5391C7.47762 44.7471 5.60907 45.2155 3.82976 45.9541C3.37219 46.1437 3.22202 46.6645 3.37785 47.1032C3.80851 48.3102 4.36242 49.5427 5.04666 50.696C5.4079 50.829 5.78048 50.9394 6.18564 51.0031C6.30039 51.0215 6.41513 51.037 6.5313 51.0512L6.52705 51.0498Z" fill="#B490D3"/>
<path d="M23.5993 44.6355C23.6489 44.6595 23.6999 44.6793 23.7509 44.702C23.7509 44.5718 23.7551 44.4402 23.7594 44.31C23.7594 44.2831 23.7608 44.2548 23.7622 44.2279C23.7679 44.0977 23.775 43.9675 23.7821 43.8374C23.7877 43.7539 23.7934 43.669 23.7991 43.5855C23.8756 42.5114 23.9563 41.436 24.0385 40.362C24.1617 38.7629 24.3105 37.1653 24.4875 35.5706C23.9549 35.2649 23.4081 34.989 22.8457 34.747C22.0212 34.3918 21.1641 34.1116 20.2886 33.9107C19.2786 33.6786 18.2982 33.5753 17.4185 34.2234C16.4226 34.9564 16.6195 38.2606 16.9198 41.1275C18.3082 41.6454 19.627 42.3346 20.9049 43.0944C21.7945 43.6237 22.6587 44.1982 23.5979 44.6369L23.5993 44.6355Z" fill="#B490D3"/>
<path d="M27.5273 62.795C27.6095 62.8049 27.6931 62.8148 27.7752 62.8275C27.8517 62.8389 27.9268 62.8516 28.0033 62.8629C28.0302 62.8672 28.0557 62.8714 28.0826 62.8756C28.1747 62.8912 28.2668 62.9096 28.3575 62.928C28.3645 62.9294 28.3716 62.9308 28.3787 62.9323C28.4765 62.9521 28.5742 62.9747 28.672 62.9988C28.6833 63.0016 28.696 63.003 28.7074 63.0058C28.7116 63.0058 28.7145 63.0087 28.7173 63.0101C28.8108 63.0341 28.9043 63.0596 28.9978 63.0865C29.0006 63.0865 29.002 63.0879 29.0049 63.0879C29.2542 63.1615 29.5007 63.2492 29.7444 63.3511C29.7812 63.3667 29.8166 63.3808 29.8534 63.3978C29.9073 63.4219 29.9597 63.4473 30.0135 63.4728C30.0659 63.4983 30.1183 63.5238 30.1708 63.5506C30.2161 63.5747 30.2614 63.5973 30.3068 63.6228C30.3705 63.6582 30.4343 63.6936 30.4966 63.7318C30.532 63.753 30.5688 63.7742 30.6043 63.7954C30.7034 63.8577 30.8026 63.9214 30.9017 63.9907C33.5169 65.8218 35.4095 69 38.4539 70.1462C38.8619 70.408 39.2911 70.6443 39.7331 70.8326C39.5645 70.0543 39.5277 69.1939 39.8365 69.1359C40.3961 69.0312 40.9642 68.993 41.5322 69.0368C41.8184 69.0581 42.1003 69.1048 42.3794 69.1699L42.776 69.2746C42.7987 69.2788 42.8171 69.2831 42.837 69.2873C42.9106 69.2024 43.031 69.0821 43.0962 69.017C43.1174 68.9958 43.133 68.9802 43.1387 68.9732C43.2322 68.867 43.3158 68.7482 43.4008 68.6307C43.4659 68.5416 43.5354 68.4552 43.6019 68.3689C43.7309 68.1991 43.8527 68.0293 43.966 67.8538C44.0793 67.6784 44.1856 67.4987 44.2848 67.3133C43.3809 66.4204 42.3978 65.5982 41.3991 64.82C40.1383 63.8365 38.7981 62.9365 37.7186 61.7436C36.6618 60.5762 36.0796 59.1569 35.69 57.6512C35.0001 54.9824 35.0695 51.7801 32.6881 49.9278C30.4229 48.1647 27.312 47.934 24.5722 47.5562C23.7321 47.4401 22.8935 47.3156 22.0619 47.1614C22.7136 47.5519 23.65 49.4226 26.9791 51.65C27.6931 52.4254 28.4623 53.1924 29.0275 54.0825C29.3902 54.6541 29.6353 55.3022 29.8322 55.9631C29.0644 55.0348 28.1804 54.1971 27.2171 53.4853C25.9407 52.5414 24.5283 51.8792 23.0266 51.3825C21.5944 50.9099 20.0234 50.4273 19.0445 49.2061C18.8036 48.9062 18.3574 49.2642 18.5784 49.5769C19.4227 50.7712 20.454 51.7235 21.661 52.5429C22.9431 53.4131 24.3611 54.0626 25.6318 54.9499C26.8275 55.7848 27.8602 56.8079 28.713 57.9838C28.6748 57.9739 28.6365 57.964 28.5983 57.9541C25.6418 57.1829 22.4954 56.6041 19.7372 55.247C17.9111 54.3485 16.3472 53.0636 15.1133 51.4858C15.2039 54.5452 16.5682 57.5069 18.6974 59.7286C20.93 62.0592 24.2563 62.2813 27.448 62.7879C27.4735 62.7907 27.499 62.795 27.5259 62.7978L27.5273 62.795Z" fill="#CBAAE5"/>
<path d="M10.7503 51.248C11.0365 52.0729 11.3694 52.8795 11.7604 53.6578C13.4561 57.0384 16.1633 59.9364 19.6383 61.5171C19.9613 61.6642 20.2872 61.7888 20.6144 61.9034C20.6059 61.885 20.5974 61.8652 20.5889 61.8468C20.6158 61.8737 20.6456 61.8977 20.6739 61.9232C22.1359 62.427 23.6432 62.6336 25.2142 62.6661C25.3786 62.6689 25.5415 62.6732 25.7044 62.6774C25.7483 62.6774 25.7908 62.6802 25.8347 62.6817C26.1733 62.6916 26.5091 62.7071 26.8391 62.7298C26.8788 62.7326 26.917 62.7354 26.9567 62.7383C27.1225 62.751 27.2868 62.7652 27.4497 62.785C24.258 62.2784 20.9317 62.0548 18.6991 59.7256C16.5699 57.504 15.2057 54.5436 15.115 51.4829C16.3475 53.0592 17.9115 54.3441 19.7389 55.2441C22.4971 56.6026 25.6421 57.1813 28.6 57.9511C28.6383 57.961 28.6765 57.9709 28.7148 57.9808C27.8619 56.8049 26.8292 55.7818 25.6336 54.9469C24.3628 54.0597 22.9448 53.4116 21.6627 52.5399C20.4557 51.7206 19.4244 50.7682 18.5801 49.5739C18.3605 49.2626 18.8054 48.9032 19.0462 49.2032C20.0251 50.4244 21.5961 50.9055 23.0284 51.3796C24.53 51.8762 25.9424 52.5385 27.2188 53.4823C28.1821 54.1941 29.0675 55.0318 29.8339 55.9601C29.637 55.3007 29.3933 54.6512 29.0293 54.0795C28.464 53.1908 27.6948 52.4225 26.9808 51.647C23.6517 49.4211 22.7153 47.5504 22.0636 47.1584C22.8952 47.3127 23.7338 47.4386 24.5739 47.5532C27.3137 47.931 30.4246 48.1617 32.6899 49.9249C35.0698 51.7772 35.0018 54.9795 35.6917 57.6483C36.0813 59.1539 36.6635 60.5732 37.7203 61.7406C38.7998 62.9335 40.14 63.8335 41.4008 64.817C42.3995 65.5967 43.3812 66.4188 44.2865 67.3103C44.2865 67.3089 44.2879 67.3075 44.2893 67.3061C44.1873 67.1136 44.0754 66.9269 43.9592 66.7471C43.9592 66.7471 43.9592 66.7457 43.9578 66.7443C43.8997 66.6537 43.8402 66.566 43.7807 66.4797C43.7751 66.4712 43.7694 66.4627 43.7637 66.4542C43.7071 66.3721 43.6504 66.2901 43.5937 66.2108C42.9761 65.3321 42.2111 64.5764 41.3795 63.9C40.5961 63.2618 39.7773 62.6746 39.1625 61.8609C38.0476 60.3864 37.7104 58.4959 37.4073 56.7172C37.0843 54.8266 36.8194 52.8724 36.0175 51.1093C35.2455 49.4112 33.9492 47.941 32.3484 46.9773C30.5479 45.8934 28.6368 45.6698 26.5898 45.425C25.5981 45.3061 24.6632 45.1023 23.7523 44.7005C23.7013 44.6778 23.6517 44.658 23.6007 44.634C22.6615 44.1953 21.7959 43.6208 20.9076 43.0915C19.6298 42.3302 18.3109 41.6425 16.9226 41.1246C16.3829 40.9237 15.8332 40.7468 15.2694 40.6039C14.2636 40.3477 13.2479 40.2218 12.2095 40.2345C11.2688 40.2458 10.1171 40.2642 9.55185 41.143C9.01778 41.9722 9.26286 43.2033 9.33369 44.1274C9.34361 44.2646 9.35777 44.4019 9.37052 44.5391C9.45694 45.5099 9.5816 46.4778 9.75868 47.4358C9.99668 48.7221 10.3197 50.0055 10.7517 51.2494L10.7503 51.248Z" fill="#D8B6EF"/>
<path d="M28.6724 63C28.688 63.0043 28.7037 63.0071 28.7193 63.0114C28.7165 63.0099 28.7122 63.0071 28.7094 63.0071C28.698 63.0043 28.6852 63.0028 28.6738 63H28.6724Z" fill="#D8B6EF"/>
<path d="M35.8926 43.9235C36.2326 41.9594 36.0782 39.9146 35.3075 38.0623C34.7097 36.626 33.8243 35.443 32.7306 34.4157C32.8666 35.569 32.8326 36.7166 32.5493 37.8883C32.1356 39.5963 29.1635 43.2627 29.2584 42.4122C29.6579 38.8392 28.9071 35.2393 26.9734 32.2209C26.1177 34.3251 26.3232 36.7944 25.8868 38.992C25.6531 40.1722 25.0128 42.7745 23.7831 43.8358C23.7746 43.966 23.7675 44.0962 23.7633 44.2263C23.7633 44.2532 23.7619 44.2815 23.7605 44.3084C23.7562 44.44 23.752 44.5702 23.752 44.7004C24.6629 45.1023 25.5978 45.3075 26.5895 45.4249C28.6365 45.6697 30.5476 45.8947 32.3481 46.9772C33.9489 47.9409 35.2452 49.4111 36.0172 51.1092C36.8191 52.871 37.084 54.8252 37.407 56.7171C37.7101 58.4958 38.0473 60.3864 39.1622 61.8609C39.777 62.6745 40.5944 63.2618 41.3792 63.9C42.2108 64.5764 42.9758 65.332 43.5934 66.2108C43.6487 66.29 43.7054 66.3721 43.7634 66.4542C43.7691 66.4626 43.7748 66.4711 43.7804 66.4796C43.8399 66.5659 43.8994 66.6551 43.9575 66.7442C43.9575 66.7442 43.9575 66.7457 43.9589 66.7471C44.0751 66.9268 44.1884 67.115 44.289 67.306C44.3258 67.2353 44.3641 67.1673 44.3995 67.0952C44.4788 66.9339 44.6602 66.9848 44.8797 67.1617C45.0115 67.2678 45.156 67.4192 45.2991 67.5961C45.2523 67.1645 45.1376 66.7485 44.9987 66.3593C44.9463 66.2093 44.8996 66.0509 44.8372 65.915C44.4675 65.1042 43.9533 64.3938 43.3909 63.716C42.7973 63.0014 42.1513 62.325 41.562 61.6104C39.6424 59.2869 38.4312 56.335 38.1436 53.3195C38.0827 52.6884 38.0487 52.0559 38.0728 51.4234C38.2116 47.822 39.4951 44.3622 39.1239 40.7481C39.0998 40.5175 39.0715 40.2868 39.0333 40.0562C38.7953 38.5944 38.3306 37.168 37.6804 35.8308C38.3745 40.7241 35.8147 44.382 35.894 43.9221L35.8926 43.9235Z" fill="#C39DE0"/>
<path d="M19.6371 61.5157C16.162 59.9365 13.4548 57.0385 11.7591 53.6565C11.3695 52.8796 11.0352 52.0716 10.749 51.2466C10.6357 51.2381 10.5224 51.2311 10.4091 51.2254C10.3751 51.224 10.3425 51.2226 10.3085 51.2198C10.2249 51.2155 10.1399 51.2113 10.0563 51.2084C10.0237 51.2084 9.99114 51.2056 9.95856 51.2042C9.85656 51.1999 9.75315 51.1971 9.64973 51.1943C9.64123 51.1943 9.63273 51.1943 9.62423 51.1943C9.5024 51.1915 9.38199 51.1886 9.26016 51.1858C9.26016 51.1858 9.25732 51.1858 9.25591 51.1858C7.77693 51.7405 6.21154 51.9301 4.60649 51.8013C4.11775 51.7617 3.63184 51.6796 3.15443 51.5693C3.0071 51.5353 2.78611 51.5155 2.62744 51.4532V51.4547C2.68836 51.6344 2.79885 51.7787 2.9136 51.9301C3.15868 52.2542 3.43918 52.5556 3.73809 52.8329C5.20573 54.1928 6.86745 55.298 8.498 56.447C10.3014 57.7177 12.0566 59.0663 13.9393 60.221C14.4451 60.5309 8.91591 60.2394 6.8887 59.0408C7.49644 59.6932 8.15376 60.2988 8.80683 60.8648C10.2093 62.0804 11.6571 63.2492 13.1007 64.4166C14.2453 65.3435 15.431 66.2279 16.689 66.9963C17.7586 67.326 18.8593 67.5567 19.9685 67.6571C21.0664 67.7576 22.1558 67.7066 23.2452 67.6133C22.3698 65.7072 21.4943 63.8011 20.6117 61.8978C20.2845 61.7832 19.9586 61.6587 19.6356 61.5115L19.6371 61.5157Z" fill="#C39DE0"/>
<path d="M27.1352 67.3062C28.447 67.2978 29.7191 67.4831 30.9615 68.0237C31.7789 68.3803 32.5439 68.8303 33.2962 69.3043C33.8076 69.6255 34.3133 69.9567 34.8205 70.2835C36.0954 71.1029 37.4157 71.9278 38.8664 72.4005C38.9032 72.4132 38.9429 72.4245 38.9811 72.4373C39.2021 72.3283 39.443 72.2278 39.6555 72.1486C39.868 72.0693 40.0521 72.0127 40.1555 71.9887C40.038 71.8344 39.9204 71.5387 39.824 71.192C39.7915 71.076 39.7617 70.9557 39.7362 70.8326C39.2928 70.6444 38.8636 70.4081 38.457 70.1463C35.4126 69.0015 33.52 65.8218 30.9049 63.9907C30.8057 63.9214 30.7065 63.8577 30.6074 63.7955C30.5719 63.7728 30.5351 63.753 30.4997 63.7318C30.436 63.695 30.3736 63.6582 30.3099 63.6228C30.2645 63.5974 30.2192 63.5747 30.1739 63.5507C30.1215 63.5238 30.069 63.4983 30.0166 63.4728C29.9628 63.4474 29.9104 63.4219 29.8565 63.3978C29.8197 63.3823 29.7843 63.3667 29.7475 63.3511C29.5038 63.2478 29.2573 63.1601 29.008 63.0879C29.0051 63.0879 29.0037 63.0865 29.0009 63.0865C28.9074 63.0596 28.8139 63.0342 28.7204 63.0101C28.7048 63.0059 28.6892 63.0016 28.6737 62.9988C28.5759 62.9747 28.4782 62.9521 28.3804 62.9323C28.3733 62.9309 28.3662 62.9295 28.3592 62.928C28.2671 62.9096 28.1764 62.8912 28.0843 62.8757C28.0574 62.8714 28.0319 62.8672 28.005 62.8629C27.9285 62.8502 27.8534 62.8375 27.7769 62.8276C27.6948 62.8162 27.6126 62.8049 27.529 62.795C27.5035 62.7922 27.478 62.7879 27.4511 62.7851C27.2882 62.7667 27.1224 62.7526 26.9581 62.7384C26.9198 62.7356 26.8802 62.7328 26.8405 62.7299C26.509 62.7059 26.1747 62.6917 25.8361 62.6818C25.7922 62.6818 25.7497 62.679 25.7058 62.6776C25.5429 62.6733 25.38 62.6691 25.2156 62.6662C23.6432 62.6337 22.1359 62.4271 20.6753 61.9233C22.6841 63.8676 24.9295 65.5685 27.138 67.3062H27.1352Z" fill="#C39DE0"/>
<path d="M3.10756 57.0653C3.79605 57.7912 4.48737 58.5143 5.19286 59.2232C7.95814 62.0038 10.9572 64.5991 14.5767 66.2066C15.2623 66.5108 15.9707 66.7783 16.6917 67.0004C15.4338 66.232 14.248 65.3476 13.1034 64.4208C11.6612 63.2533 10.212 62.0845 8.80954 60.8689C8.15647 60.3029 7.49915 59.6973 6.89141 59.0449C8.91862 60.2435 14.4478 60.535 13.942 60.2251C12.0593 59.0704 10.3041 57.7218 8.50071 56.4511C6.87016 55.3021 5.20702 54.1969 3.7408 52.8371C3.44189 52.5611 3.16281 52.2597 2.91631 51.9342C2.80157 51.7828 2.69107 51.6399 2.63015 51.4588C2.63015 51.4588 2.63015 51.4588 2.63015 51.4574C2.78882 51.5196 3.00981 51.5394 3.15714 51.5734C3.63455 51.6824 4.12046 51.7659 4.6092 51.8055C6.21425 51.9342 7.77964 51.7446 9.25862 51.1899C9.25012 51.1899 9.24162 51.1899 9.23312 51.1899C9.09712 51.1871 8.96112 51.1843 8.82512 51.1828C8.75004 51.1828 8.67638 51.18 8.6013 51.1786C8.55738 51.1786 8.51488 51.1772 8.47096 51.1758C8.36047 51.1729 8.24997 51.1701 8.14089 51.1673C8.10689 51.1673 8.07289 51.1644 8.03747 51.163C7.95389 51.1602 7.87031 51.1574 7.78673 51.1531C7.74848 51.1517 7.71165 51.1503 7.6734 51.1475C7.5714 51.1432 7.4694 51.1376 7.3674 51.1305C7.35323 51.1305 7.33907 51.1291 7.3249 51.1277C7.21157 51.1206 7.09824 51.1107 6.98349 51.1008C6.95091 51.0979 6.91691 51.0951 6.88433 51.0909C6.79933 51.0824 6.71291 51.0739 6.62791 51.064C6.59391 51.0597 6.55992 51.0555 6.5245 51.0512C6.40975 51.0371 6.29359 51.0215 6.17884 51.0031C5.77368 50.9395 5.40252 50.8291 5.03986 50.6961C4.61912 50.5404 4.21112 50.3522 3.78046 50.1569C2.96873 49.7904 2.0125 49.755 1.29568 50.3465C-0.1153 51.5126 0.362108 53.5701 1.21918 54.8875C1.74333 55.6926 2.44457 56.3719 3.10331 57.0653H3.10756Z" fill="#CBAAE5"/>
<path d="M23.7987 43.5825C23.7931 43.6659 23.7874 43.7508 23.7817 43.8343C25.0114 42.7745 25.6503 40.1707 25.8854 38.9906C26.3218 36.793 26.1164 34.3237 26.972 32.2195C28.9071 35.2364 29.6565 38.8377 29.2571 42.4108C29.1621 43.2612 32.1343 39.5948 32.5479 37.8868C32.8327 36.7152 32.8652 35.569 32.7292 34.4143C33.8229 35.443 34.7083 36.6246 35.3061 38.0609C36.0754 39.9118 36.2312 41.958 35.8912 43.9221C35.8119 44.382 38.3717 40.724 37.6776 35.8307C36.9083 34.2501 35.8756 32.7954 34.6332 31.5615C33.7577 30.6926 32.8015 29.9271 31.7603 29.2804C31.4344 29.0781 31.1015 28.8856 30.7587 28.7073C30.2983 28.4682 29.716 28.1696 29.1026 27.9432C28.4581 27.704 27.7809 27.5455 27.1661 27.6135C26.7184 27.663 26.3048 27.8286 25.9662 28.1767C25.3457 28.8149 25.2777 29.7842 25.1445 30.6191C24.9689 31.72 24.8159 32.8237 24.6785 33.9303C24.6119 34.4751 24.5481 35.0213 24.4872 35.5675C24.3101 37.1623 24.1614 38.7599 24.0382 40.3589C23.9546 41.433 23.8752 42.507 23.7987 43.5825Z" fill="#CBAAE5"/>
<path d="M51.1446 84.4495C49.4772 80.4307 47.4755 76.5294 45.1381 72.853C45.7316 72.195 46.1141 71.3658 46.1099 70.4333C46.1099 70.2762 46.0801 70.1319 46.0291 70.0031C46.0787 69.8517 46.1226 69.6974 46.1538 69.5375C46.243 69.0734 45.777 68.189 45.2981 67.5961C45.1551 67.4192 45.0106 67.2678 44.8788 67.1617C44.6606 66.9848 44.4779 66.9338 44.3986 67.0951C44.3632 67.1673 44.3249 67.2367 44.2881 67.306C44.2881 67.3074 44.2867 67.3088 44.2852 67.3102C44.1861 67.4956 44.0798 67.6753 43.9665 67.8508C43.8532 68.0263 43.7327 68.1975 43.6024 68.3659C43.5358 68.4522 43.4664 68.5385 43.4013 68.6277C43.3163 68.7437 43.2327 68.8626 43.1392 68.9701C43.1335 68.9758 43.1179 68.9913 43.0967 69.014C43.0315 69.0791 42.9125 69.1993 42.8374 69.2842C42.819 69.28 42.7992 69.2758 42.7765 69.2715L42.3799 69.1668C42.1008 69.1017 41.8189 69.055 41.5327 69.0338C40.9646 68.9913 40.3966 69.0281 39.837 69.1328C39.5282 69.1909 39.565 70.0512 39.7336 70.8295C39.7605 70.9526 39.7902 71.0729 39.8214 71.1889C39.9177 71.5356 40.0367 71.8314 40.1529 71.9856C40.0495 72.0082 39.8653 72.0663 39.6528 72.1455C39.4403 72.2247 39.1981 72.3252 38.9785 72.4342C38.5946 72.6238 38.2758 72.8403 38.2843 73.0172C38.3665 74.612 40.2025 74.7181 41.6673 74.5058C42.1574 74.4351 42.6051 74.3275 42.9323 74.2299C43.1746 74.1563 43.414 74.0629 43.6449 73.9525C48.0606 80.7038 51.2679 88.1796 53.492 95.9299C55.3549 102.422 56.5264 109.108 57.2801 115.827C57.5393 118.138 57.7504 120.453 57.9204 122.765C58.1442 125.799 58.2817 128.846 58.3766 131.892C58.4106 132.995 58.4403 134.096 58.463 135.198C58.4786 135.968 58.497 136.737 58.5083 137.506H58.8993C59.0098 132.894 59.0268 128.265 58.8653 123.645C58.7081 119.165 58.3822 114.692 57.7986 110.252C56.6398 101.426 54.5559 92.6837 51.1389 84.4466L51.1446 84.4495Z" fill="#74A944"/>
<path d="M53.0894 30.5824C53.037 30.9857 52.9902 31.3918 52.9463 31.7993C53.3656 31.6508 53.7708 31.7484 54.1433 31.9621C54.5287 32.1828 54.88 32.5267 55.1761 32.8422C55.2143 32.8833 55.2512 32.9243 55.2894 32.9654C55.4367 30.298 55.7583 27.6391 56.3746 25.0368C56.6494 23.875 56.937 22.6467 57.481 21.5614C57.5093 21.4722 57.5362 21.3831 57.5674 21.2953C57.4937 21.1722 57.4215 21.0491 57.3492 20.926C57.1084 20.5128 56.4624 20.1873 56.0459 20.6161C55.2526 21.4326 54.7582 22.4373 54.4083 23.5014C54.2283 24.0505 54.0838 24.6137 53.962 25.1768C53.5767 26.9556 53.3259 28.7796 53.0908 30.5838L53.0894 30.5824Z" fill="#BB9AD8"/>
<path d="M72.4468 26.0769C72.3207 28.0934 72.3419 30.1197 72.5218 32.1319C72.6054 33.0659 72.6763 34.0295 72.8987 34.9437C72.9893 35.3158 73.1168 35.7234 73.3619 36.0234C75.7971 33.6036 77.4503 30.332 77.8725 26.9288C78.1969 24.3222 77.8597 21.5883 76.9177 19.1063C76.0606 18.2502 75.2262 17.7181 74.651 17.595C74.3677 17.5342 74.0901 17.6573 73.879 17.8497C73.6325 18.5643 73.4441 19.303 73.284 20.0416C72.8519 22.0284 72.5728 24.0463 72.4453 26.0755L72.4468 26.0769Z" fill="#C39DE0"/>
<path d="M63.8391 53.372C65.7771 55.5045 67.1867 58.0813 67.9474 60.8605C68.0225 61.1364 68.1627 61.3657 68.361 61.5199C68.2166 61.0091 68.1018 60.4869 68.0026 59.9548C67.7476 58.5907 67.572 57.1898 66.9756 55.9205C66.3466 54.5833 65.3054 53.4894 64.2953 52.431C63.9737 52.0942 63.6606 51.7517 63.3447 51.4121C63.2923 51.8324 63.2243 52.2541 63.1436 52.6743C63.3759 52.9064 63.6181 53.1286 63.8405 53.372H63.8391Z" fill="#B490D3"/>
<path d="M56.0446 33.7776C56.0587 32.8592 56.1012 31.9394 56.1622 31.0253C56.284 29.2112 56.42 27.3914 56.6622 25.59C56.6849 25.423 56.7076 25.2546 56.7316 25.0848C56.8988 23.9061 57.1127 22.699 57.4796 21.5627C56.9371 22.6467 56.6495 23.8764 56.3732 25.0381C55.757 27.6404 55.434 30.2993 55.2881 32.9667C55.5417 33.237 55.7924 33.5087 56.0432 33.7804L56.0446 33.7776Z" fill="#B490D3"/>
<path d="M67.8143 33.2696C67.8483 33.3743 67.8837 33.479 67.9205 33.5823C67.9687 33.7195 68.0225 33.8554 68.0763 33.9912C68.0976 34.0436 68.1188 34.0959 68.1401 34.1469C68.1613 34.1964 68.1826 34.2445 68.2053 34.2941C68.2577 34.4115 68.3129 34.5275 68.371 34.6436C69.1827 36.2369 70.2424 37.6577 70.8983 39.3359C71.3077 40.3802 71.6066 41.4614 71.8205 42.5594C72.4821 41.7727 73.2046 41.034 73.8846 40.26C73.9936 40.1354 74.1013 40.0081 74.2061 39.8793C74.2274 39.8538 74.2486 39.8284 74.2685 39.8029C74.3733 39.6741 74.4767 39.5425 74.5773 39.4109C74.5801 39.4067 74.583 39.4024 74.5872 39.3982C74.6921 39.2609 74.7926 39.1223 74.8932 38.9822C74.8989 38.9737 74.906 38.9652 74.9116 38.9567C75.015 38.8124 75.1156 38.6652 75.2148 38.518C75.2913 38.4048 75.365 38.2902 75.4386 38.1756C75.4443 38.1671 75.45 38.1586 75.4556 38.1487C75.5265 38.0369 75.5973 37.9251 75.6667 37.8133C75.6695 37.8077 75.6724 37.8034 75.6766 37.7978C75.8919 37.4454 76.0988 37.0874 76.2985 36.7237C76.3113 36.6997 76.3254 36.6756 76.3382 36.6516C76.3878 36.5596 76.4374 36.4676 76.4869 36.3756C76.5054 36.3417 76.5224 36.3091 76.5408 36.2751C76.5875 36.1888 76.6328 36.1011 76.6782 36.0134C76.6952 35.9808 76.7122 35.9483 76.7292 35.9157C76.7901 35.7983 76.8496 35.6808 76.9091 35.5634C78.0424 33.3219 79.1686 31.0819 80.3303 28.8588C80.4124 28.1088 80.4847 27.3588 80.5541 26.6117C80.6547 25.5164 79.6871 22.8858 78.415 20.9543C77.9404 20.2354 77.4248 19.6128 76.9162 19.1048C77.8582 21.5868 78.1954 24.3193 77.871 26.9272C77.4474 30.3305 75.7956 33.6021 73.3604 36.0218C73.1153 35.7233 72.9878 35.3143 72.8972 34.9422C72.6748 34.0294 72.6025 33.0644 72.5203 32.1304C72.3404 30.1168 72.3192 28.0918 72.4453 26.0754C72.5728 24.0476 72.8518 22.0283 73.2839 20.0415C73.444 19.3029 73.6324 18.5642 73.8789 17.8496C73.7571 17.9614 73.6579 18.0958 73.5956 18.2331C72.5487 20.4972 71.4423 22.733 70.394 24.9971C69.2224 27.5272 68.1642 30.1734 67.708 32.9214C67.7321 33.0063 67.759 33.0898 67.7845 33.1733C67.7944 33.2045 67.8029 33.2356 67.8128 33.2667L67.8143 33.2696Z" fill="#B490D3"/>
<path d="M56.7335 25.0834C56.7094 25.2518 56.6867 25.4216 56.664 25.5886C56.4204 27.3899 56.2844 29.2111 56.164 31.0238C56.1031 31.9379 56.0606 32.8577 56.0464 33.7761C56.5025 34.27 56.9545 34.7681 57.3936 35.2789C58.8074 36.9204 60.1235 38.6453 61.1973 40.5302C63.1083 43.8853 63.8096 47.6367 63.3463 51.4106C63.6623 51.7502 63.9753 52.0927 64.2969 52.4295C65.3056 53.4879 66.3468 54.5832 66.9772 55.919C67.5736 57.1869 67.7493 58.5878 68.0043 59.9534C68.1034 60.4854 68.2196 61.0076 68.3627 61.5184C68.4647 61.8807 68.5822 62.2373 68.7182 62.5868C68.629 61.3033 68.5752 60.0156 68.5582 58.7322C68.5511 58.2369 68.5525 57.7416 68.5624 57.2463C68.51 56.3662 68.4788 55.486 68.4703 54.6044C68.4392 51.1021 68.7437 47.4414 70.5372 44.3509C70.9098 43.7084 71.3532 43.1212 71.8264 42.558C71.6124 41.4599 71.3121 40.3788 70.9041 39.3345C70.2468 37.6576 69.1872 36.2369 68.3768 34.6421C68.3173 34.5261 68.2635 34.4101 68.2111 34.2926C68.1898 34.2431 68.1672 34.195 68.1459 34.1454C68.1233 34.0931 68.1034 34.0407 68.0822 33.9898C68.0269 33.8539 67.9745 33.7181 67.9263 33.5808C68.1204 34.5261 68.3598 35.4629 68.4916 36.4194C68.6035 38.1968 68.3103 40.8585 65.868 41.5391C63.4257 42.2198 60.1532 40.8245 58.6643 28.4045C57.7917 21.1325 59.1021 18.6661 60.3374 17.8694C59.9067 18.0349 59.5299 18.2854 59.1998 18.5911C58.5609 19.1797 58.0963 19.9722 57.7733 20.7632C57.7024 20.9372 57.6359 21.1141 57.5735 21.2938C57.5424 21.3816 57.5154 21.4721 57.4871 21.5613C57.1202 22.6976 56.9063 23.906 56.7391 25.0834H56.7335Z" fill="#C1A4DD"/>
<path d="M76.7299 35.9172C76.7129 35.9498 76.6959 35.9823 76.6789 36.0149C76.6335 36.1026 76.5882 36.1889 76.5414 36.2767C76.5244 36.3106 76.506 36.3432 76.4876 36.3771C76.438 36.4691 76.3885 36.5611 76.3389 36.6531C76.3261 36.6771 76.3119 36.7012 76.2992 36.7252C76.0995 37.0889 75.8926 37.4469 75.6773 37.7993C75.6745 37.8035 75.6716 37.8092 75.6674 37.8148C75.598 37.928 75.5285 38.0398 75.4563 38.1502C75.4506 38.1587 75.445 38.1672 75.4393 38.1771C75.3656 38.2917 75.2906 38.4063 75.2155 38.5195C74.9265 39.1747 74.6417 39.8327 74.3655 40.4921C74.0227 41.3129 73.6203 42.169 73.4447 43.0463C73.3172 43.6803 73.2888 44.4175 73.8031 44.8902C74.3258 45.3699 75.1191 45.4095 75.7821 45.3005C77.3348 45.0458 78.9172 44.1869 80.2573 43.3916C85.972 40.0025 89.5476 33.8258 89.8862 27.2259C90.001 24.9958 89.8465 22.1727 88.794 19.9567C87.6578 19.1969 86.2341 18.9874 85.2368 20.1662C84.6673 20.8397 84.2749 21.7043 83.8386 22.4642C83.3385 23.3373 82.8441 24.2147 82.3553 25.0934C81.6626 26.3415 80.9911 27.5967 80.331 28.8589C79.1679 31.082 78.0431 33.322 76.9098 35.5635C76.8503 35.6809 76.7894 35.7984 76.7299 35.9158V35.9172Z" fill="#D8B6EF"/>
<path d="M89.887 27.2273C89.547 33.8272 85.9728 40.0025 80.2581 43.393C78.9165 44.1883 77.3355 45.0472 75.7829 45.3019C75.1199 45.4109 74.3266 45.3713 73.8038 44.8916C73.2896 44.4203 73.3194 43.6817 73.4454 43.0477C73.6211 42.1704 74.0234 41.3143 74.3662 40.4936C74.6425 39.8327 74.9272 39.1761 75.2162 38.521C75.1171 38.6681 75.0165 38.8153 74.9131 38.9596C74.9074 38.9681 74.9003 38.9766 74.8947 38.9851C74.7955 39.1252 74.6935 39.2639 74.5887 39.4011C74.5858 39.4054 74.583 39.4096 74.5787 39.4139C74.4782 39.5455 74.3747 39.6756 74.2699 39.8058C74.2487 39.8313 74.2288 39.8568 74.2076 39.8822C74.1027 40.0096 73.9965 40.137 73.886 40.2629C73.206 41.0369 72.4835 41.7756 71.822 42.5624C71.3488 43.1256 70.9054 43.7114 70.5328 44.3553C68.7393 47.4458 68.4348 51.1051 68.4659 54.6088C68.4744 55.4904 68.5056 56.372 68.558 57.2507C68.5481 57.746 68.5481 58.2427 68.5538 58.7365C68.5708 60.02 68.6232 61.3077 68.7138 62.5912C68.7138 62.6067 68.7167 62.6223 68.7167 62.6379C68.7677 62.6478 68.8144 62.6563 68.8555 62.6662C68.9278 62.4808 69.102 62.1681 69.3074 61.8582C69.4448 61.6516 69.5964 61.4478 69.7395 61.2822C69.9562 61.0346 70.156 60.8789 70.2707 60.9412C70.4407 61.0346 70.6022 61.1379 70.7581 61.2483C71.0683 61.469 71.3516 61.7237 71.6066 62.0039C71.7341 62.144 71.8545 62.2912 71.9679 62.444C72.0316 62.369 72.1223 62.2459 72.2271 62.1001C72.2795 62.028 72.3348 61.9501 72.3929 61.8695C72.6252 61.5483 72.8915 61.1931 73.0955 61.012C73.1465 60.9667 73.1947 60.9327 73.2358 60.9129C73.2584 60.6341 73.2825 60.3568 73.3094 60.0794C73.4851 58.346 73.9512 56.754 74.8876 55.2725C75.0987 54.9385 75.3281 54.6187 75.5619 54.3017C77.5084 51.674 80.1858 49.6306 82.6366 47.5066C85.3636 45.1449 88.0836 42.6671 89.9677 39.5554C90.8701 38.0639 91.5643 36.4847 91.9638 34.7866C92.4114 32.8805 92.3746 30.9023 92.1876 28.965C91.9085 26.0656 91.6507 22.4812 89.3444 20.3912C89.3316 20.3798 89.3161 20.3699 89.3019 20.3586C89.1404 20.2157 88.9718 20.0813 88.7933 19.9624C89.8459 22.1784 90.0003 25.0014 89.8856 27.2316L89.887 27.2273Z" fill="#CEACE8"/>
<path d="M67.9331 64.0825C68.5338 65.0702 69.3554 70.4644 69.3143 71.7493C69.252 73.6611 69.2322 75.5742 69.1415 77.486C68.4601 92.0427 67.348 103.035 66.1142 111.371C66.0093 112.083 65.9031 112.779 65.7954 113.453C66.1496 112.881 66.525 112.308 66.9273 111.735C67.1441 110.342 67.358 108.871 67.569 107.325C68.2915 102.026 68.9715 95.8068 69.558 88.4923C69.8569 84.7665 70.1318 80.7576 70.374 76.4417C70.4377 75.3124 70.3882 74.1804 70.3938 73.0498C70.8146 71.0786 71.326 69.1442 72.261 67.3923C72.3205 67.3711 72.7469 66.6919 72.9891 66.2914C73.0132 66.2518 73.0373 66.2122 73.0557 66.1796C73.5019 65.4282 73.9694 64.6924 74.2641 63.8632C74.3732 63.5547 74.444 63.2476 74.4808 62.9406C74.4808 62.8769 74.4823 62.8132 74.478 62.7566C74.4582 62.4835 74.4157 62.2189 74.3179 61.9613C74.2301 61.7307 74.1097 61.5368 73.9623 61.367C73.7966 61.1788 73.5954 61.0231 73.3518 60.8972C73.3206 60.8816 73.2795 60.8859 73.2342 60.9085C73.1917 60.9283 73.1449 60.9637 73.0939 61.0076C72.8885 61.1887 72.6236 61.5439 72.3913 61.8651C72.3332 61.9458 72.278 62.0236 72.2255 62.0958C72.1207 62.2401 72.03 62.3646 71.9663 62.4396C71.853 62.2868 71.7326 62.1396 71.6051 61.9995C71.3501 61.7194 71.0681 61.4661 70.7565 61.2439C70.6007 61.1335 70.4392 61.0302 70.2692 60.9368C70.1558 60.8731 69.9547 61.0302 69.7379 61.2779C69.5934 61.442 69.4433 61.6472 69.3058 61.8538C69.1004 62.1637 68.9262 62.4764 68.8539 62.6618C68.8129 62.6533 68.7661 62.6434 68.7151 62.6335C68.2915 62.5542 67.5591 62.4707 67.0038 62.4693C67.2489 63.0127 67.5945 63.5278 67.9303 64.0811L67.9331 64.0825Z" fill="#74A944"/>
<path d="M61.1092 133.074C60.9845 133.416 60.8641 133.736 60.7494 134.035C61.1021 130.198 61.1375 123.818 60.0991 112.819C60.0184 111.965 59.932 111.084 59.8371 110.175C59.2577 104.558 58.4204 97.8487 57.2375 89.8097C56.9712 88.0013 56.6808 86.1957 56.4017 84.3886C56.1793 82.9509 56.0249 81.475 55.7571 80.0345C55.93 79.9793 56.0915 79.8972 56.2515 79.8165C56.5235 79.6793 56.78 79.5208 56.9882 79.3255C57.8523 78.5189 58.2433 77.2793 57.8594 76.1501C57.7872 75.9364 57.5251 75.9421 57.2489 76.0228C57.0817 76.0723 56.9074 76.1501 56.77 76.2251C56.6312 76.2987 56.5292 76.3695 56.4995 76.4034C56.43 75.9789 56.3025 75.5742 56.0929 75.2827C55.8846 74.9898 55.5942 74.8101 55.199 74.8313C55.1522 74.8341 55.1111 74.8468 55.0672 74.8568C54.8661 74.8978 54.6847 74.994 54.5218 75.1299C54.1932 75.4072 53.9311 75.8162 53.6733 76.0964C53.6463 76.1261 53.6208 76.1501 53.5939 76.1742C53.4848 76.235 53.3743 76.2959 53.2653 76.3581C53.1392 76.3893 52.9989 76.3935 52.819 76.3921C52.5725 76.3921 51.6885 76.286 51.282 76.4289C51.2678 76.4345 51.2607 76.443 51.2466 76.4487C51.1389 76.4954 51.0666 76.5605 51.0737 76.661C51.1474 77.6147 51.6191 78.4821 52.3841 79.0623C52.3983 79.0722 52.4167 79.0821 52.4309 79.092C52.7553 79.3326 53.159 79.5632 53.5854 79.6991C53.6251 79.7713 53.6818 79.8349 53.7611 79.8831C53.8957 79.9665 54.0373 80.0288 54.1847 80.0755C54.3717 81.7439 55.2939 83.4151 55.5461 85.0636C55.8563 87.097 56.2034 89.1248 56.4839 91.1625C56.5561 91.6918 56.6241 92.1955 56.695 92.712C59.6118 114.152 60.2536 124.196 59.9461 130.388C59.7974 133.367 59.4319 135.462 58.9942 137.509H60.2337C60.2805 137.302 60.3258 137.073 60.3711 136.832C60.568 136.381 60.8089 135.835 61.088 135.164C61.1602 134.991 61.2339 134.807 61.3118 134.618C61.2353 134.148 61.1645 133.634 61.1078 133.072L61.1092 133.074Z" fill="#74A944"/>
<path d="M58.6578 28.406C60.1481 40.826 63.4206 42.2212 65.8614 41.5406C68.3037 40.8599 68.597 38.1982 68.4851 36.4209C68.3547 35.4629 68.1139 34.5275 67.9198 33.5823C67.883 33.479 67.8476 33.3742 67.8136 33.2695C67.8037 33.2384 67.7952 33.2073 67.7852 33.1761C67.7583 33.0926 67.7328 33.0092 67.7087 32.9243C67.1478 30.9361 67.1633 28.8107 67.0585 26.7433C66.9197 24.0391 66.5159 20.984 64.4831 18.9887C63.3837 17.9104 61.8453 17.2949 60.338 17.8708C60.3365 17.8708 60.3351 17.8708 60.3337 17.8722C59.0984 18.6675 57.788 21.134 58.6607 28.4074L58.6578 28.406Z" fill="#CBAAE5"/>
<path d="M50.857 43.5769C50.9717 44.9495 51.1049 46.3222 51.1757 47.6976C51.2069 48.3146 51.2267 48.9329 51.2239 49.5513C51.2239 49.7282 51.2182 49.9051 51.2125 50.0806C51.2111 50.1216 51.2097 50.1626 51.2083 50.2023C51.2012 50.3763 51.1927 50.5489 51.18 50.7216C51.3032 52.0376 51.3542 53.3635 51.3216 54.7022C51.2961 55.7521 51.2182 56.7964 51.1077 57.8408C51.0001 58.8497 50.8527 59.9053 51.0851 60.9072C51.2494 61.6204 51.6673 62.3944 52.3402 62.7454C53.0499 63.1147 53.9283 62.9803 54.6267 62.6605C56.219 61.9317 57.3367 60.1898 58.1909 58.7323C59.0905 57.1983 59.7535 55.479 60.1671 53.7512C61.0214 50.1754 60.9789 46.4 60.0311 42.8496C58.9658 38.8577 56.8196 35.1106 54.145 31.9621C53.7724 31.7484 53.3673 31.6508 52.9479 31.7994C52.8162 31.8461 52.683 31.9154 52.5499 32.0159C51.7962 32.5791 51.493 33.8342 51.2579 34.696C51.0426 35.4842 50.8867 36.2823 50.7904 37.0903C50.7691 37.2672 50.7507 37.444 50.7351 37.6223C50.7337 37.6422 50.7323 37.662 50.7309 37.6818C50.7224 37.7837 50.7139 37.8855 50.7068 37.9874C50.704 38.0355 50.7011 38.0837 50.6983 38.1318C50.6941 38.2054 50.6884 38.2804 50.6856 38.3539C50.6827 38.4091 50.6813 38.4629 50.6785 38.5181C50.6756 38.586 50.6728 38.6525 50.67 38.7204C50.6686 38.7799 50.6671 38.8393 50.6657 38.8987C50.6643 38.9624 50.6615 39.0247 50.6615 39.0884C50.6615 39.1506 50.6601 39.2143 50.6586 39.2766C50.6586 39.336 50.6572 39.3954 50.6572 39.4549C50.6572 39.5199 50.6572 39.5865 50.6572 39.6515C50.6572 39.7081 50.6572 39.7648 50.6572 39.8214C50.6572 39.8893 50.6586 39.9558 50.6601 40.0237C50.6601 40.0789 50.6615 40.1341 50.6629 40.1893C50.6629 40.2586 50.6657 40.3279 50.6686 40.3973C50.67 40.4496 50.6714 40.502 50.6728 40.5558C50.6756 40.6279 50.6785 40.7001 50.6799 40.7737C50.6813 40.8232 50.6827 40.8727 50.6856 40.9223C50.6884 40.9973 50.6926 41.0737 50.6955 41.1487C50.6983 41.1954 50.6997 41.2407 50.7026 41.2874C50.7068 41.3666 50.7111 41.4444 50.7153 41.5237C50.7181 41.5661 50.7196 41.6086 50.7224 41.651C50.7266 41.7331 50.7323 41.8166 50.738 41.8987C50.7408 41.9369 50.7422 41.9751 50.7451 42.0147C50.7507 42.1024 50.7564 42.1902 50.7621 42.2779C50.7649 42.3104 50.7663 42.3416 50.7691 42.3741C50.7762 42.4689 50.7833 42.5637 50.7904 42.6571C50.7918 42.6812 50.7946 42.7067 50.7961 42.7307C50.8031 42.834 50.8116 42.9359 50.8201 43.0392C50.8201 43.0534 50.823 43.0675 50.823 43.0817C50.8315 43.1963 50.8414 43.3109 50.8513 43.4255C50.8527 43.4482 50.8556 43.4708 50.857 43.4934C50.8598 43.5203 50.8612 43.5486 50.8641 43.5769H50.857Z" fill="#E0C6F4"/>
<path d="M52.8218 76.3923C53.0017 76.3923 53.142 76.3895 53.268 76.3583C53.3771 76.2961 53.4876 76.2366 53.5967 76.1744C53.6222 76.1503 53.6491 76.1263 53.676 76.0966C53.9339 75.815 54.1959 75.406 54.5246 75.1301C54.6861 74.9942 54.8674 74.8966 55.07 74.857C55.1139 74.8485 55.155 74.8343 55.2017 74.8315C55.597 74.8103 55.8874 74.99 56.0956 75.2829C56.3053 75.5758 56.4328 75.9791 56.5022 76.4036C56.5306 76.3697 56.634 76.2989 56.7728 76.2253C56.9116 76.1517 57.0845 76.0739 57.2516 76.023C57.5874 74.4565 57.4145 72.7047 57.338 71.1806C57.2304 69.0227 57.1836 66.9029 58.0336 64.8723C58.6739 63.3426 59.5466 61.9233 60.3314 60.4615C60.5722 60.0144 60.806 59.563 61.0199 59.1031C61.945 57.1135 62.6731 55.0319 63.1094 52.8796C63.1236 52.8117 63.1293 52.7438 63.142 52.6759C63.2228 52.2556 63.2922 51.8339 63.3432 51.4136C63.8078 47.6382 63.1052 43.8869 61.1941 40.5332C60.1203 38.6483 58.8043 36.9234 57.3905 35.2819C56.9513 34.7725 56.4994 34.2744 56.0432 33.7791C55.7925 33.5074 55.5417 33.2357 55.2882 32.9654C55.2499 32.9244 55.2131 32.8834 55.1748 32.8423C54.8788 32.5268 54.5288 32.1843 54.1421 31.9622C56.8167 35.1107 58.9643 38.8563 60.0282 42.8497C60.976 46.4 61.0185 50.1769 60.1642 53.7513C59.7506 55.4791 59.0876 57.1984 58.188 58.7323C57.3338 60.1898 56.2161 61.9318 54.6238 62.6605C53.9239 62.9803 53.0456 63.1148 52.3373 62.7454C51.6644 62.3945 51.2479 61.6219 51.0822 60.9073C50.8498 59.904 50.9986 58.8484 51.1048 57.8408C51.2153 56.7965 51.2932 55.7522 51.3187 54.7022C51.3513 53.3622 51.3003 52.0362 51.1771 50.7216C51.17 50.8207 51.1601 50.9198 51.1516 51.0188C51.1431 51.115 51.136 51.2127 51.1261 51.3089C51.1247 51.3245 51.1232 51.34 51.1218 51.3556C51.1204 51.3726 51.119 51.3881 51.1162 51.4051C51.0963 51.5947 51.0737 51.7844 51.0482 51.974C51.0453 51.9966 51.0411 52.0193 51.0382 52.0419C51.0241 52.1424 51.0071 52.2428 50.9915 52.3433C50.9787 52.424 50.9674 52.5046 50.9547 52.5853C50.9518 52.6037 50.949 52.6221 50.9462 52.6405C50.9136 52.8273 50.8796 53.0141 50.8413 53.1994C50.8342 53.2334 50.8272 53.2688 50.8201 53.3027C50.7818 53.4881 50.7422 53.6749 50.6982 53.8603C50.6968 53.8673 50.694 53.8744 50.6926 53.8829C50.6912 53.8914 50.6883 53.8985 50.6869 53.907C50.6657 53.9947 50.643 54.0838 50.6217 54.1716C50.6005 54.2593 50.5792 54.3485 50.5566 54.4362C50.5481 54.4673 50.541 54.497 50.5325 54.5282C50.5212 54.5706 50.5084 54.6131 50.4971 54.6569C50.4602 54.7956 50.422 54.9329 50.3823 55.0716C50.3724 55.1083 50.3611 55.1451 50.3498 55.1819C50.3384 55.2215 50.3257 55.2626 50.3129 55.3022C50.2704 55.448 50.2265 55.5937 50.1812 55.7395C49.4998 57.8946 48.9019 60.0214 48.7631 62.2884C48.7461 62.5686 48.7334 62.8502 48.7263 63.1303C48.6937 64.3784 48.756 65.6279 48.8906 66.8689C48.9444 67.3614 49.0082 67.851 49.0833 68.3406C49.1173 68.5642 49.1527 68.7878 49.1909 69.0113C49.2377 69.2873 49.2873 69.5646 49.3383 69.8434C49.4275 70.3288 49.5253 70.8141 49.6301 71.2995C49.7052 71.6476 49.7831 71.9957 49.8681 72.341C50.0919 73.2537 50.3497 74.1579 50.6628 75.0324C50.8342 75.5107 51.0382 75.9819 51.2819 76.4305C51.6885 76.2876 52.5739 76.3923 52.819 76.3937L52.8218 76.3923Z" fill="#D8B6EF"/>
<path d="M46.689 53.3438C46.8236 53.4372 46.9738 53.5066 47.1395 53.5349C47.1834 53.5419 47.2274 53.5476 47.2727 53.5504C47.3733 53.5547 47.4597 53.5405 47.5376 53.5122C47.6311 53.4783 47.709 53.4231 47.777 53.3537C47.7926 53.3382 47.8068 53.3212 47.8209 53.3042C47.8436 53.2759 47.8648 53.2462 47.8847 53.2151C47.9527 53.1103 48.0093 52.9915 48.0618 52.8669C48.3989 52.0759 48.678 51.2495 48.916 50.4175C48.9953 50.1401 49.0704 49.8628 49.1412 49.5854C49.7901 47.0539 50.1272 44.4275 50.0706 41.8125C50.0592 41.3073 50.0366 40.8021 50.0011 40.2969C49.9416 39.455 49.8481 38.6144 49.7206 37.7824C49.698 37.6324 49.2192 36.3687 48.6057 36.0885C48.015 35.8197 47.2996 36.4607 46.7429 39.8837C46.7315 39.9573 46.7202 40.0309 46.7117 40.1059C46.6508 40.6238 46.6635 41.1446 46.6791 41.6653C46.6975 42.2611 46.7188 42.8582 46.6352 43.4511C46.4765 44.5818 46.2173 45.6982 46.0005 46.819C45.9524 47.068 45.9056 47.3185 45.8603 47.5704C45.7597 48.1406 45.6747 48.7152 45.6322 49.2911C45.6223 49.4298 45.6138 49.5684 45.6096 49.7071C45.6053 49.8458 45.6025 49.9845 45.6039 50.1231C45.6039 50.1797 45.6039 50.2363 45.6067 50.2944C45.6095 50.4189 45.6152 50.5462 45.6237 50.675C45.6776 51.4901 45.856 52.3632 46.3377 52.9985C46.4383 53.1316 46.5573 53.2518 46.6919 53.3452L46.689 53.3438Z" fill="#E0C6F4"/>
<path d="M43.514 51.3597C43.5948 51.9795 43.6897 52.5979 43.786 53.2205C43.9418 54.2238 44.1232 55.2638 44.6204 56.1624C45.4194 57.6058 47.1548 58.2001 48.3178 56.8091C48.9072 56.1044 49.1636 55.1719 49.3647 54.2945C49.6098 53.2233 49.8152 52.138 49.9952 51.054C50.4102 48.531 50.695 45.981 50.8437 43.4254C50.8338 43.3108 50.8253 43.1962 50.8154 43.0816C50.8154 43.0674 50.8126 43.0533 50.8126 43.0391C50.8041 42.9358 50.797 42.8339 50.7885 42.7306C50.7871 42.7066 50.7842 42.6811 50.7828 42.657C50.7757 42.5622 50.7686 42.4674 50.7616 42.374C50.7587 42.3415 50.7573 42.3103 50.7545 42.2778C50.7488 42.1901 50.7431 42.1023 50.7375 42.0146C50.7346 41.9764 50.7332 41.9382 50.7304 41.8986C50.7247 41.8165 50.7205 41.733 50.7148 41.6509C50.712 41.6085 50.7106 41.566 50.7077 41.5236C50.7035 41.4443 50.6992 41.3665 50.695 41.2873C50.6921 41.2406 50.6907 41.1953 50.6879 41.1486C50.6851 41.0736 50.6808 40.9972 50.678 40.9222C50.6766 40.8726 50.6737 40.8231 50.6723 40.7736C50.6695 40.7014 50.6666 40.6293 50.6652 40.5557C50.6638 40.5033 50.6624 40.451 50.661 40.3972C50.6596 40.3278 50.6567 40.2585 50.6553 40.1892C50.6553 40.134 50.6539 40.0788 50.6525 40.0236C50.6525 39.9557 50.6496 39.8892 50.6496 39.8213C50.6496 39.7646 50.6496 39.708 50.6496 39.6514C50.6496 39.5863 50.6496 39.5198 50.6496 39.4548C50.6496 39.3953 50.6496 39.3359 50.6511 39.2765C50.6511 39.2142 50.6511 39.1505 50.6539 39.0883C50.6539 39.0246 50.6567 38.9623 50.6581 38.8986C50.6596 38.8392 50.661 38.7798 50.6624 38.7203C50.6652 38.6524 50.6681 38.5859 50.6709 38.518C50.6737 38.4628 50.6751 38.409 50.678 38.3538C50.6822 38.2802 50.6865 38.2052 50.6907 38.1317C50.6936 38.0836 50.6964 38.0354 50.6992 37.9873C50.7063 37.8854 50.7148 37.7836 50.7233 37.6817C50.7247 37.6619 50.7261 37.6421 50.7276 37.6222C50.7431 37.4439 50.7616 37.2671 50.7828 37.0902C50.6128 36.7958 50.4216 36.5157 50.219 36.2454C49.8053 35.6935 49.3279 35.2011 48.7726 34.8445C48.4312 34.6266 47.9708 34.5883 47.6435 34.8685C45.571 36.6388 45.8472 39.7279 45.2905 42.1589C44.8315 44.1584 44.2011 46.1027 43.8299 48.1079C43.6939 48.838 43.5919 49.5767 43.5466 50.3295C43.5268 50.6734 43.514 51.0158 43.5098 51.3597H43.514ZM45.6206 50.6734C45.6121 50.5446 45.6064 50.4172 45.6036 50.2927C45.6036 50.2347 45.6007 50.1781 45.6007 50.1215C45.6007 49.9828 45.6007 49.8441 45.6064 49.7055C45.6121 49.5668 45.6191 49.4281 45.6291 49.2894C45.6716 48.7135 45.7566 48.139 45.8571 47.5687C45.9011 47.3168 45.9492 47.0664 45.9974 46.8173C46.2141 45.6966 46.4748 44.5815 46.632 43.4495C46.7156 42.8551 46.6944 42.2594 46.676 41.6637C46.6604 41.1429 46.6476 40.6222 46.7085 40.1043C46.717 40.0307 46.727 39.9571 46.7397 39.8821C47.2964 36.4591 48.0133 35.818 48.6026 36.0869C49.216 36.3671 49.6948 37.6307 49.7175 37.7807C49.8464 38.6128 49.9385 39.4533 49.998 40.2953C50.0334 40.8005 50.0561 41.3057 50.0674 41.8108C50.1241 44.4259 49.7883 47.0522 49.1381 49.5838C49.0673 49.8611 48.9922 50.1385 48.9128 50.4158C48.6748 51.2479 48.3958 52.0743 48.0586 52.8653C48.0062 52.9898 47.9495 53.1087 47.8815 53.2134C47.8617 53.2445 47.8404 53.2743 47.8178 53.3026C47.8036 53.3195 47.7894 53.3365 47.7739 53.3521C47.7073 53.4214 47.6279 53.4766 47.5344 53.5106C47.4579 53.5389 47.3701 53.553 47.2695 53.5488C47.2242 53.5474 47.1803 53.5417 47.1364 53.5332C46.972 53.5035 46.8205 53.4356 46.6859 53.3422C46.5513 53.2488 46.4323 53.1285 46.3317 52.9955C45.8486 52.3615 45.6716 51.487 45.6177 50.672L45.6206 50.6734Z" fill="#D8B6EF"/>
<path d="M49.3409 69.8404C49.2899 69.5631 49.2404 69.2857 49.1936 69.0084C49.1554 68.7848 49.12 68.5612 49.086 68.3376C49.0109 67.8494 48.9471 67.3584 48.8933 66.866C48.7587 65.6235 48.6964 64.374 48.729 63.1274C48.736 62.8472 48.7488 62.5656 48.7658 62.2854C48.9046 60.0185 49.5039 57.8902 50.1838 55.7365C50.2306 55.5907 50.2731 55.445 50.3156 55.2992C50.3269 55.2596 50.3411 55.2186 50.3524 55.179C50.3638 55.1422 50.3737 55.1054 50.385 55.0686C50.4247 54.9299 50.4629 54.7926 50.4998 54.654C50.5111 54.6115 50.5238 54.5691 50.5352 54.5252C50.5437 54.4941 50.5508 54.4629 50.5593 54.4332C50.5819 54.3455 50.6032 54.2563 50.6244 54.1686C50.6457 54.0809 50.6698 53.9931 50.6896 53.904C50.691 53.8955 50.6938 53.8884 50.6953 53.8799C50.6967 53.8729 50.6995 53.8658 50.7009 53.8573C50.7434 53.6719 50.7845 53.4865 50.8228 53.2997C50.8298 53.2658 50.8369 53.2304 50.844 53.1964C50.8808 53.0097 50.9163 52.8243 50.9488 52.6375C50.9517 52.6191 50.9545 52.6007 50.9573 52.5823C50.9715 52.5017 50.9814 52.421 50.9942 52.3403C51.0097 52.2399 51.0267 52.1394 51.0409 52.0389C51.0437 52.0163 51.048 51.9936 51.0508 51.971C51.0763 51.7828 51.099 51.5932 51.1188 51.4021C51.1202 51.3852 51.1217 51.3696 51.1245 51.3526C51.1259 51.3371 51.1273 51.3215 51.1287 51.3059C51.1387 51.2097 51.1457 51.1121 51.1542 51.0158C51.1627 50.9168 51.1727 50.8191 51.1797 50.7187C51.1911 50.546 51.201 50.372 51.2081 50.1993C51.2095 50.1583 51.2109 50.1187 51.2123 50.0777C51.218 49.9022 51.2222 49.7253 51.2237 49.5484C51.2265 48.93 51.2067 48.3116 51.1755 47.6947C51.1061 46.3192 50.9715 44.9466 50.8568 43.574C50.8539 43.5471 50.8525 43.5188 50.8497 43.4905C50.8483 43.4679 50.8454 43.4452 50.844 43.4226C50.6953 45.9796 50.4105 48.5282 49.9954 51.0512C49.8169 52.1351 49.6115 53.2205 49.365 54.2917C49.1639 55.1676 48.9075 56.1016 48.3181 56.8063C47.1551 58.1973 45.4197 57.6015 44.6207 56.1596C44.1235 55.261 43.9407 54.221 43.7863 53.2177C43.69 52.5965 43.595 51.9781 43.5143 51.3569C43.4817 53.7851 43.8316 56.2091 44.4337 58.5595C45.6662 63.3707 47.8648 67.8169 49.8708 72.3366C49.7858 71.9913 49.7079 71.6432 49.6328 71.2951C49.5279 70.8097 49.4302 70.3244 49.3409 69.839V69.8404Z" fill="#CBAAE5"/>
<path d="M94.6462 49.5045C94.6902 49.6191 94.7341 49.7323 94.778 49.8469C94.7907 49.8795 94.8021 49.912 94.8148 49.946C94.8474 50.0337 94.8786 50.12 94.9111 50.2078C94.9225 50.2389 94.9338 50.2714 94.9451 50.3026C95.0287 50.5375 95.1109 50.7738 95.1874 51.0101C95.1959 51.0356 95.203 51.0596 95.2115 51.0851C95.2441 51.1856 95.2752 51.2846 95.3064 51.3851C95.3135 51.4063 95.3206 51.429 95.3262 51.4502C95.4013 51.6964 95.4721 51.9426 95.5387 52.1903C95.543 52.2044 95.5458 52.2186 95.5501 52.2327C95.5812 52.3473 95.6096 52.462 95.6379 52.5766C95.6407 52.5879 95.6436 52.5992 95.6464 52.6105C95.7087 52.8667 95.7668 53.1228 95.8178 53.3789C95.8178 53.3832 95.8192 53.3874 95.8206 53.3917C95.8461 53.519 95.8702 53.6449 95.8929 53.7723C95.8929 53.7751 95.8929 53.778 95.8943 53.7822C95.9212 53.9308 95.9439 54.0794 95.9665 54.2294C95.9708 54.2548 95.9736 54.2803 95.9779 54.3058C95.9977 54.4501 96.0161 54.593 96.0331 54.7374C96.036 54.7643 96.0388 54.7897 96.0416 54.8166C96.0572 54.9652 96.0714 55.1138 96.0827 55.2624C96.0827 55.2652 96.0827 55.2694 96.0827 55.2723C96.094 55.4166 96.1011 55.5609 96.1068 55.7053C96.1068 55.7237 96.1096 55.7421 96.1096 55.7591C96.1096 55.7732 96.1096 55.7859 96.1096 55.8001C96.1139 55.9161 96.1167 56.0336 96.1181 56.1496C96.1181 56.1539 96.1181 56.1567 96.1181 56.1609C96.1195 56.4199 96.1139 56.6774 96.0997 56.9364C96.0997 56.9505 96.0983 56.9647 96.0969 56.9788C96.0898 57.0892 96.0813 57.201 96.0714 57.3114C96.07 57.3312 96.0685 57.3524 96.0657 57.3722C96.043 57.617 96.0119 57.8633 95.9722 58.1081C95.9665 58.1392 95.9623 58.1689 95.9566 58.2C95.941 58.292 95.924 58.3826 95.9056 58.4746C95.8986 58.5085 95.8929 58.5425 95.8858 58.5764C95.8617 58.6953 95.8348 58.8142 95.8065 58.933C95.373 60.7132 94.4592 62.2386 93.5483 63.7782C95.6705 61.4872 98.1383 59.5401 100.974 58.2807C101.125 58.2142 101.275 58.1505 101.426 58.0897C101.684 56.8515 101.853 55.5878 101.914 54.3015C102.004 52.3983 102.051 50.1313 100.843 48.5309C100.447 48.0059 100.072 47.7229 99.3976 47.8772C98.9273 47.9833 98.4584 48.0937 97.9909 48.2139C97.2174 48.412 96.4525 48.6469 95.7186 48.9625C95.4991 49.0559 95.2823 49.1564 95.0698 49.2653C94.9239 49.3403 94.7822 49.421 94.642 49.5031L94.6462 49.5045Z" fill="#B492D3"/>
<path d="M108.793 65.298C108.73 65.4127 108.67 65.5287 108.612 65.6462C108.594 65.6844 108.577 65.724 108.558 65.7636C108.521 65.8414 108.484 65.9207 108.449 65.9999C108.429 66.0466 108.411 66.0919 108.392 66.1386C108.363 66.2108 108.331 66.2829 108.303 66.3565C108.285 66.406 108.266 66.4556 108.249 66.5051C108.224 66.5758 108.197 66.6466 108.173 66.7174C108.156 66.7683 108.14 66.8192 108.123 66.8702C108.101 66.9409 108.076 67.0117 108.055 67.0824C108.04 67.1334 108.025 67.1843 108.011 67.2353C107.99 67.3074 107.97 67.3796 107.95 67.4518C107.938 67.5013 107.925 67.5522 107.912 67.6018C107.894 67.6754 107.874 67.7503 107.857 67.8239C107.846 67.872 107.834 67.9216 107.823 67.9697C107.806 68.0461 107.789 68.1239 107.772 68.2003C107.762 68.247 107.752 68.2937 107.744 68.339C107.727 68.4197 107.711 68.5017 107.695 68.5824C107.687 68.6234 107.68 68.6659 107.671 68.7069C107.654 68.7961 107.639 68.8838 107.623 68.973C107.617 69.0069 107.612 69.0395 107.606 69.0734C107.589 69.1753 107.572 69.2758 107.555 69.3777C107.552 69.3961 107.549 69.4145 107.547 69.4329C107.484 69.8206 107.426 70.2097 107.365 70.6003C107.341 70.7531 107.319 70.9074 107.294 71.0602C107.279 71.1564 107.263 71.2526 107.248 71.3503C106.905 73.3908 106.338 75.4129 105.266 77.1987C104.446 78.5628 103.334 79.7628 101.972 80.5836C105.534 79.6623 108.552 77.3232 110.591 74.2427C111.845 72.3479 112.811 70.2663 113.577 68.131C113.956 67.0768 114.317 66.0084 114.627 64.9315C114.883 64.0415 115.381 62.7722 114.301 62.2104C113.419 61.7519 112.543 62.3137 111.662 62.4594C111.516 62.4835 111.37 62.5019 111.223 62.5174C110.988 62.6915 110.758 62.8769 110.541 63.0778C109.856 63.7118 109.247 64.4816 108.795 65.2995L108.793 65.298Z" fill="#B492D3"/>
<path d="M99.7285 62.8401C97.8188 65.233 96.8073 68.3108 97.136 71.3744C97.3995 73.8394 99.0754 77.728 102.225 76.6837C103.644 76.2125 104.731 74.9757 105.585 73.804C106.221 72.9309 106.788 72.0126 107.295 71.0616C107.319 70.9074 107.343 70.7546 107.366 70.6018C107.425 70.2112 107.485 69.8221 107.547 69.4343C107.55 69.4159 107.553 69.3975 107.555 69.3791C107.572 69.2773 107.589 69.1768 107.606 69.0749C107.612 69.0409 107.618 69.0084 107.623 68.9744C107.639 68.8853 107.655 68.7975 107.672 68.7084C107.679 68.6674 107.687 68.6249 107.696 68.5839C107.711 68.5018 107.727 68.4211 107.744 68.3405C107.754 68.2938 107.762 68.2471 107.772 68.2018C107.789 68.124 107.806 68.0476 107.823 67.9711C107.834 67.923 107.846 67.8735 107.857 67.8254C107.874 67.7504 107.894 67.6768 107.912 67.6032C107.925 67.5523 107.938 67.5028 107.951 67.4532C107.97 67.3811 107.99 67.3089 108.012 67.2367C108.026 67.1858 108.04 67.1348 108.055 67.0839C108.077 67.0132 108.099 66.9424 108.123 66.8716C108.14 66.8207 108.156 66.7698 108.173 66.7188C108.197 66.6481 108.224 66.5773 108.25 66.5066C108.268 66.457 108.285 66.4075 108.303 66.358C108.332 66.2844 108.361 66.2122 108.393 66.1401C108.412 66.0934 108.429 66.0467 108.449 66.0014C108.483 65.9221 108.522 65.8443 108.558 65.7651C108.577 65.7269 108.594 65.6872 108.612 65.6476C108.669 65.5316 108.73 65.4155 108.794 65.2995C109.245 64.4816 109.855 63.7118 110.54 63.0779C110.758 62.8769 110.987 62.6915 111.222 62.5175C111.87 62.0364 112.573 61.6345 113.26 61.2029C113.745 60.8973 114.232 60.5407 114.498 60.0836C114.422 59.86 114.321 59.6393 114.184 59.4256C113.443 58.2723 112.43 57.6851 111.263 57.3553C106.909 57.2223 102.379 59.5176 99.7285 62.8401Z" fill="#C7A3E2"/>
<path d="M93.5533 63.7798C93.0546 64.6218 92.5574 65.468 92.1423 66.3623C90.9481 68.9278 91.5105 71.8457 90.2369 74.3942C89.3458 76.1786 85.3877 80.7563 84.7786 81.628C83.8294 82.9837 82.8817 84.3407 81.9326 85.6963C81.6464 86.1053 81.3602 86.5142 81.0741 86.9232C81.9623 86.7619 80.7936 89.159 80.625 89.4915C81.0387 89.558 81.7286 89.933 82.2924 90.3321C83.1934 89.834 83.9952 89.1109 84.7177 88.368C85.3962 87.6689 86.0196 86.9105 86.7435 86.2553C87.4971 85.5732 88.3485 85.0511 89.2679 84.6237C91.1393 83.752 93.107 82.9115 95.1087 82.3893C96.9872 81.8983 98.9748 81.8912 100.798 81.1681C101.209 81.0054 101.6 80.8073 101.974 80.5823C103.335 79.763 104.447 78.563 105.267 77.1975C106.34 75.4117 106.907 73.3909 107.249 71.349C107.265 71.2528 107.281 71.1566 107.296 71.0589C106.789 72.0098 106.222 72.9282 105.586 73.8013C104.733 74.973 103.645 76.2098 102.226 76.681C99.0768 77.7267 97.4009 73.8367 97.1374 71.3716C96.8101 68.308 97.8216 65.2303 99.7298 62.8374C102.38 59.5148 106.911 57.2196 111.264 57.3526C110.707 57.1955 110.115 57.0965 109.502 57.0229C106.727 56.6918 104.007 57.0342 101.431 58.087C101.28 58.1493 101.129 58.2116 100.979 58.2781C98.1446 59.5375 95.6768 61.4846 93.5533 63.7756V63.7798Z" fill="#C09EDD"/>
<path d="M78.3297 86.7463C78.3665 86.8779 78.5733 87.2897 78.4671 87.3435C78.6824 87.3392 80.9306 86.9515 81.0723 86.926C81.3584 86.5171 81.6446 86.1081 81.9308 85.6992C82.8799 84.3435 83.8276 82.9865 84.7768 81.6309C85.3874 80.7592 89.344 76.1815 90.2351 74.3971C91.5087 71.8471 90.9463 68.9293 92.1405 66.3652C92.557 65.4708 93.0542 64.6246 93.5515 63.7827C94.461 62.2445 95.3761 60.7177 95.8096 58.9375C95.8379 58.8186 95.8648 58.6998 95.8889 58.5809C95.896 58.5469 95.9031 58.513 95.9088 58.479C95.9272 58.387 95.9442 58.2965 95.9598 58.2045C95.9654 58.1734 95.9711 58.1437 95.9753 58.1125C96.015 57.8677 96.0462 57.6229 96.0688 57.3767C96.0703 57.3555 96.0731 57.3357 96.0745 57.3158C96.0844 57.2055 96.0929 57.0937 96.1 56.9833C96.1 56.9692 96.1014 56.955 96.1028 56.9409C96.117 56.6819 96.1241 56.4244 96.1213 56.1654C96.1213 56.1612 96.1213 56.1583 96.1213 56.1541C96.1213 56.038 96.117 55.9206 96.1128 55.8046C96.1128 55.7904 96.1128 55.7777 96.1128 55.7635C95.9385 56.2899 95.7246 56.8022 95.4583 57.2833C94.7443 58.5767 93.7271 59.6408 92.8913 60.8493C91.2381 63.2407 90.245 66.0553 89.9716 68.9448C89.7265 71.5401 89.6486 74.656 87.0108 76.0527C85.8053 76.6909 84.2385 76.6569 83.7044 75.1952C83.2383 73.9216 83.4579 72.3778 83.5741 71.0618C83.8135 68.3335 83.6151 65.6237 83.4947 62.8954C83.3757 60.1927 83.3502 57.4262 84.0387 54.79C84.7938 51.8976 86.2997 49.1976 88.453 47.109C89.6104 45.9868 90.9873 45.0586 92.6491 45.0798C92.6292 45.0388 92.6094 44.9977 92.5881 44.9567C92.5839 44.9482 92.5797 44.9383 92.5754 44.9298C92.319 44.4076 91.7877 44.1303 91.2183 44.3298C86.0319 46.1482 81.9109 50.6212 80.2223 55.8102C79.4644 58.1422 79.1726 60.5988 79.4559 63.0384C79.769 65.727 80.677 68.3194 80.8555 71.0278C80.9037 71.7566 80.8612 72.4627 80.762 73.1546C80.4234 75.5305 79.3496 77.7182 78.3353 79.9314C77.6114 81.5106 76.9215 83.104 76.5631 84.7879C76.5489 84.8516 76.5362 84.9166 76.5234 84.9817C76.5617 84.9393 76.6013 84.8968 76.6438 84.8558C76.9881 84.5176 78.171 86.1845 78.3297 86.7449V86.7463Z" fill="#D8B6EF"/>
<path d="M88.4528 47.1089C86.2995 49.1975 84.7936 51.896 84.0385 54.7898C83.35 57.4261 83.3755 60.1939 83.4945 62.8953C83.6149 65.6235 83.8133 68.3334 83.5739 71.0616C83.4577 72.3776 83.2381 73.9215 83.7042 75.195C84.2383 76.6568 85.8051 76.6907 87.0106 76.0526C89.6484 74.6559 89.7263 71.5399 89.9714 68.9447C90.2448 66.0551 91.2379 63.2406 92.8911 60.8491C93.7269 59.6407 94.7426 58.5751 95.458 57.2832C95.7244 56.8006 95.9397 56.2898 96.1125 55.7634C96.1125 55.745 96.1097 55.7266 96.1097 55.7096C96.104 55.5653 96.0955 55.4209 96.0856 55.2766C96.0856 55.2738 96.0856 55.2695 96.0856 55.2667C96.0743 55.1181 96.0601 54.9695 96.0445 54.8209C96.0417 54.7941 96.0389 54.7672 96.036 54.7417C96.0205 54.5974 96.002 54.453 95.9808 54.3101C95.9765 54.2846 95.9737 54.2592 95.9695 54.2337C95.9482 54.0851 95.9241 53.9351 95.8972 53.7865C95.8972 53.7837 95.8972 53.7809 95.8958 53.7766C95.8731 53.6493 95.849 53.5233 95.8235 53.396C95.8235 53.3917 95.8221 53.3875 95.8207 53.3832C95.7697 53.1257 95.7116 52.8696 95.6493 52.6149C95.6465 52.6035 95.6436 52.5922 95.6408 52.5809C95.6125 52.4663 95.5827 52.3517 95.553 52.237C95.5487 52.2229 95.5459 52.2087 95.5416 52.1946C95.4751 51.947 95.4042 51.7007 95.3291 51.4545C95.3221 51.4333 95.315 51.4106 95.3093 51.3894C95.2781 51.289 95.247 51.1885 95.2144 51.0894C95.2059 51.064 95.1988 51.0399 95.1903 51.0144C95.1124 50.7781 95.0316 50.5418 94.9481 50.3069C94.9367 50.2744 94.9254 50.2432 94.9141 50.2121C94.8829 50.1244 94.8503 50.038 94.8177 49.9503C94.805 49.9178 94.7936 49.8852 94.7809 49.8512C94.737 49.7366 94.6945 49.622 94.6492 49.5088C94.0499 47.972 93.3373 46.4848 92.6517 45.0839C90.9914 45.0613 89.613 45.991 88.4556 47.1131L88.4528 47.1089Z" fill="#DFC3F4"/>
<path d="M81.0725 86.9245C80.9308 86.95 78.6826 87.3377 78.4673 87.3419C78.5735 87.2896 78.3681 86.8778 78.3299 86.7448C78.1712 86.1844 76.9883 84.5175 76.6441 84.8557C76.603 84.8967 76.5633 84.9391 76.5237 84.9816C75.8805 85.6948 75.651 86.6542 75.4867 87.5825C75.4173 87.973 75.3634 88.3721 75.3549 88.7683C75.3422 89.4164 75.4569 90.0532 75.8508 90.6135C76.0208 90.8555 76.2304 91.0706 76.4557 91.2715C76.6413 91.4385 76.8424 91.5885 77.0563 91.7215C77.1116 91.7555 77.164 91.7937 77.2192 91.8248C78.2081 92.3866 79.4065 92.5861 80.4237 92.1899C81.3487 92.1234 82.2582 91.7937 83.1493 91.3748C83.3944 91.2602 82.9212 90.7805 82.2908 90.3348C81.727 89.9357 81.0371 89.5607 80.6234 89.4942C80.792 89.1617 81.9607 86.7646 81.0725 86.9259V86.9245Z" fill="#74A944"/>
<path d="M38.8889 81.959C37.5672 79.2775 36.1874 76.5973 34.3812 74.2031C32.8045 72.1116 30.8637 70.3329 28.845 68.6744C28.2811 68.2117 27.7074 67.7603 27.1337 67.3075C24.9251 65.5683 22.6811 63.8674 20.6709 61.9246C20.644 61.8977 20.6129 61.8736 20.5859 61.8481C20.5944 61.8665 20.6029 61.8864 20.6114 61.9047C21.494 63.808 22.3695 65.7141 23.245 67.6202C24.7934 70.9909 26.3403 74.3644 27.8986 77.7308C30.4826 83.3118 33.143 88.8674 36.2497 94.1795C39.3805 99.5355 43.0893 104.423 46.995 109.233C49.1879 111.933 51.4376 114.746 53.4973 117.689C53.2934 117.023 53.0851 116.358 52.8726 115.694C49.1525 104.089 44.2736 92.8819 38.8875 81.9604L38.8889 81.959Z" fill="#3F6D21"/>
<path d="M69.0534 109.241C68.372 109.902 67.7444 110.614 67.182 111.384C67.1551 111.421 67.1225 111.455 67.0956 111.493C67.0375 111.573 66.9865 111.654 66.9298 111.735C66.5261 112.308 66.1507 112.881 65.7979 113.453C65.5259 113.893 65.2667 114.33 65.023 114.767C61.0111 121.953 60.6725 128.779 61.1102 133.073C61.1669 133.634 61.2377 134.148 61.3142 134.618C61.5636 136.145 61.8809 137.165 62.0481 137.509C62.0977 137.611 62.1345 137.659 62.1515 137.638C63.544 135.877 64.5017 133.876 65.431 131.846C66.2484 130.057 67.1126 128.304 68.1368 126.624C70.1003 123.405 72.4788 120.466 75.0061 117.674C80.0777 112.072 85.7315 106.999 90.4659 101.092C93.0938 97.8134 96.6198 89.5523 96.2727 90.0108C91.3173 96.5413 83.445 99.7563 76.6182 103.877C74.9778 104.868 73.3033 105.881 71.7365 107.018C70.7916 107.705 69.8849 108.436 69.0548 109.241H69.0534Z" fill="#38631C"/>
</g>
<defs>
<clipPath id="clip0_3_173248">
<rect width="114.56" height="137.115" fill="white" transform="translate(0.404297 0.529297)"/>
</clipPath>
</defs>
</svg>
