<svg width="414" height="415" viewBox="0 0 414 415" fill="none" xmlns="http://www.w3.org/2000/svg">
<g clip-path="url(#clip0_3_164922)">
<path d="M413.316 212.751C410.815 307.861 331.642 382.934 236.482 380.434C217.366 379.932 199.063 376.341 182.031 370.138C161.298 362.604 142.448 351.201 126.335 336.826C89.7981 304.27 67.3222 256.436 68.7099 203.698C71.2109 108.585 150.381 33.5124 245.544 36.0149C340.706 38.5144 415.82 117.644 413.319 212.751H413.316Z" fill="#999999"/>
<path d="M103.614 245.951C99.9998 246.753 97.8679 250.543 98.863 254.414C100.038 258.233 103.841 260.352 107.34 259.148C110.839 257.944 112.823 254.196 111.763 250.776C110.88 247.308 107.225 245.148 103.614 245.951Z" fill="#B7B7B7"/>
<g style="mix-blend-mode:overlay" opacity="0.3">
<path d="M107.337 259.148C103.841 260.352 100.041 258.233 98.869 254.417C97.9684 250.912 99.6219 247.459 102.631 246.275C100.744 247.639 99.8138 250.194 100.472 252.756C101.394 256.138 104.854 258 107.957 256.979C110.101 256.288 111.607 254.497 112.041 252.487C112.124 255.353 110.263 258.153 107.337 259.148Z" fill="black"/>
</g>
<g style="mix-blend-mode:overlay" opacity="0.3">
<path d="M102.002 249.689C101.145 251.722 103.587 251.123 105.734 252.014C107.907 252.903 109.085 254.889 109.859 252.911C110.594 250.955 109.664 248.691 107.485 247.782C105.329 246.871 102.858 247.659 102.002 249.689Z" fill="#DAD9DB"/>
</g>
<path d="M123.323 292.124C121.773 293.133 120.801 294.692 120.512 296.433C120.243 298.153 120.556 300.127 121.77 301.697C122.954 303.288 124.628 304.283 126.352 304.566C128.071 304.861 129.913 304.386 131.348 303.241C132.807 302.078 133.595 300.479 133.849 298.767C134.091 297.061 133.719 295.302 132.639 293.856C131.528 292.431 130.079 291.451 128.378 291.147C126.704 290.829 124.876 291.115 123.323 292.121V292.124Z" fill="#B7B7B7"/>
<g style="mix-blend-mode:overlay" opacity="0.3">
<path d="M131.346 303.244C129.913 304.386 128.068 304.861 126.353 304.566C124.628 304.28 122.957 303.288 121.773 301.698C119.644 298.773 120.111 294.892 122.508 292.765C121.2 294.695 121.179 297.433 122.673 299.614C124.764 302.426 128.561 303.055 131.151 301.019C132.928 299.635 133.74 297.43 133.471 295.379C133.994 296.725 134.047 298.209 133.675 299.608C133.324 300.989 132.556 302.279 131.346 303.244Z" fill="black"/>
</g>
<g style="mix-blend-mode:overlay" opacity="0.3">
<path d="M123.069 296.205C122.963 298.407 125.006 297.037 127.386 297.099C129.76 297.17 131.499 298.666 131.57 296.53C131.608 295.465 131.174 294.505 130.439 293.803C129.739 293.071 128.729 292.596 127.569 292.531C125.242 292.407 123.19 293.998 123.069 296.205Z" fill="#DAD9DB"/>
</g>
<path d="M157.625 328.79C155.392 331.697 156.08 336.13 159.426 338.319C162.697 340.615 167.056 339.671 168.957 336.51C170.873 333.332 169.902 329.313 166.973 327.25C163.97 325.296 159.895 325.828 157.625 328.79Z" fill="#B7B7B7"/>
<g style="mix-blend-mode:overlay" opacity="0.3">
<path d="M168.957 336.513C167.056 339.67 162.7 340.612 159.432 338.319C156.402 336.336 155.54 332.502 157.079 329.672C156.515 331.924 157.359 334.598 159.577 336.041C161.017 337.02 162.698 337.351 164.218 337.079C165.742 336.811 167.141 335.875 168.015 334.491C169.214 332.585 169.188 330.295 168.266 328.415C168.736 328.967 169.105 329.593 169.377 330.254C169.66 330.897 169.843 331.584 169.914 332.29C170.056 333.703 169.763 335.191 168.957 336.51V336.513Z" fill="black"/>
</g>
<g style="mix-blend-mode:overlay" opacity="0.3">
<path d="M158.753 332.744C159.405 334.848 160.908 332.795 163.143 332.074C165.387 331.348 167.516 332.187 166.87 330.136C166.238 328.07 163.946 327.111 161.735 327.751C159.517 328.409 158.127 330.605 158.753 332.744Z" fill="#DAD9DB"/>
</g>
<path d="M202.381 351.552C201.841 353.32 202.095 355.155 202.984 356.702C203.876 358.23 205.429 359.375 207.348 359.88C208.307 360.128 209.267 360.181 210.174 360.066C211.086 359.918 211.948 359.588 212.704 359.127C214.219 358.201 215.311 356.716 215.677 354.904C216.044 353.092 215.63 351.295 214.715 349.87C214.254 349.156 213.667 348.539 212.976 348.043C212.291 347.515 211.505 347.116 210.631 346.892C208.886 346.432 207.103 346.777 205.615 347.6C204.135 348.406 202.922 349.781 202.381 351.552Z" fill="#B7B7B7"/>
<g style="mix-blend-mode:overlay" opacity="0.3">
<path d="M215.678 354.91C215.311 356.722 214.219 358.206 212.704 359.13C211.948 359.59 211.086 359.918 210.174 360.065C209.267 360.18 208.308 360.127 207.351 359.879C205.609 359.428 204.171 358.427 203.25 357.132C202.34 355.786 201.936 354.178 202.166 352.57C202.287 353.741 202.774 354.862 203.551 355.789C204.339 356.683 205.426 357.35 206.704 357.684C208.393 358.112 210.076 357.887 211.417 357.076C212.763 356.252 213.749 354.933 214.095 353.325C214.57 351.1 213.749 348.999 212.235 347.559C214.75 348.954 216.277 351.855 215.675 354.907L215.678 354.91Z" fill="black"/>
</g>
<g style="mix-blend-mode:overlay" opacity="0.3">
<path d="M204.8 354.872C206.143 356.598 206.843 354.181 208.694 352.738C210.552 351.295 212.834 351.369 211.523 349.651C210.218 347.937 207.758 347.742 205.88 349.176C204.026 350.554 203.465 353.131 204.8 354.869V354.872Z" fill="#DAD9DB"/>
</g>
<path d="M252.238 357.586C252.397 361.263 255.772 364.197 259.744 363.731C263.73 363.397 266.458 359.865 265.885 356.223C265.31 352.555 261.985 350.108 258.412 350.401C254.854 350.828 252.076 353.871 252.238 357.586Z" fill="#B7B7B7"/>
<g style="mix-blend-mode:overlay" opacity="0.3">
<path d="M265.885 356.229C266.458 359.868 263.727 363.394 259.747 363.728C256.15 364.15 253.026 361.789 252.386 358.614C253.401 360.718 255.767 362.202 258.394 361.889C260.128 361.715 261.631 360.895 262.62 359.712C263.612 358.525 264.084 356.908 263.866 355.288C263.559 353.054 262.068 351.322 260.154 350.469C260.869 350.59 261.554 350.835 262.189 351.165C262.821 351.475 263.402 351.885 263.91 352.381C264.929 353.373 265.661 354.701 265.888 356.229H265.885Z" fill="black"/>
</g>
<g style="mix-blend-mode:overlay" opacity="0.3">
<path d="M255.646 359.906C257.494 361.068 257.329 358.554 258.58 356.559C259.835 354.564 262.006 353.841 260.19 352.685C258.38 351.513 256.003 352.224 254.721 354.163C253.446 356.087 253.794 358.663 255.646 359.906Z" fill="#DAD9DB"/>
</g>
<path d="M301.164 346.278C301.887 347.981 303.26 349.22 304.934 349.828C306.615 350.457 308.528 350.309 310.326 349.468C311.221 349.04 311.988 348.462 312.609 347.789C313.223 347.107 313.663 346.287 313.949 345.452C314.513 343.77 314.398 341.928 313.509 340.305C312.623 338.682 311.153 337.572 309.535 337.068C308.72 336.811 307.881 336.731 307.025 336.778C306.163 336.814 305.304 337.018 304.489 337.407C302.853 338.171 301.722 339.609 301.096 341.167C300.482 342.74 300.438 344.575 301.164 346.275V346.278Z" fill="#B7B7B7"/>
<g style="mix-blend-mode:overlay" opacity="0.3">
<path d="M313.509 340.311C314.395 341.934 314.51 343.773 313.946 345.455C313.66 346.29 313.22 347.107 312.606 347.789C311.989 348.462 311.218 349.037 310.326 349.465C308.699 350.236 306.966 350.418 305.413 349.988C303.851 349.545 302.51 348.574 301.651 347.196C303.337 348.843 306.051 349.383 308.419 348.202C309.99 347.447 311.123 346.178 311.64 344.711C312.142 343.215 312.051 341.571 311.28 340.116C310.211 338.104 308.236 337.032 306.145 336.888C308.977 336.357 312.006 337.584 313.509 340.314V340.311Z" fill="black"/>
</g>
<g style="mix-blend-mode:overlay" opacity="0.3">
<path d="M305.156 347.275C307.294 347.729 306.275 345.43 306.765 343.134C307.258 340.836 309.053 339.419 306.945 338.95C304.843 338.475 302.838 339.918 302.321 342.217C301.781 344.451 303.003 346.776 305.156 347.275Z" fill="#DAD9DB"/>
</g>
<path d="M343.249 318.884C345.785 321.64 350.128 321.584 352.951 318.757C355.733 315.888 355.591 311.471 352.818 309.06C350.007 306.613 345.841 306.84 343.349 309.411C340.816 311.943 340.777 316.192 343.252 318.884H343.249Z" fill="#B7B7B7"/>
<g style="mix-blend-mode:overlay" opacity="0.3">
<path d="M352.818 309.066C355.591 311.477 355.727 315.891 352.948 318.757C350.379 321.304 346.6 321.64 344.022 319.58C346.201 320.587 348.832 320.061 350.716 318.208C351.333 317.594 351.803 316.895 352.113 316.151C352.402 315.387 352.541 314.59 352.526 313.808C352.499 312.238 351.856 310.733 350.636 309.626C348.965 308.115 346.671 307.714 344.719 308.351C347.146 306.835 350.492 307.029 352.815 309.069L352.818 309.066Z" fill="black"/>
</g>
<g style="mix-blend-mode:overlay" opacity="0.3">
<path d="M347.312 318.427C349.491 318.14 347.749 316.329 347.439 314.012C347.158 311.722 348.277 309.697 346.184 310.019C344.061 310.302 342.62 312.297 342.918 314.638C343.213 316.966 345.132 318.71 347.312 318.424V318.427Z" fill="#DAD9DB"/>
</g>
<path d="M373.47 278.788C376.744 280.491 380.854 278.974 382.549 275.356C384.111 271.676 382.59 267.624 379.109 266.29C375.678 264.974 371.719 266.559 370.328 269.855C368.804 273.092 370.177 277.076 373.47 278.788Z" fill="#B7B7B7"/>
<g style="mix-blend-mode:overlay" opacity="0.3">
<path d="M379.112 266.293C382.59 267.627 384.105 271.679 382.546 275.356C381.014 278.634 377.485 280.198 374.429 279.177C376.756 279.345 379.115 277.988 380.267 275.606C381.702 272.407 380.293 268.778 377.246 267.559C375.158 266.712 372.849 267.113 371.217 268.37C373 266.128 376.251 265.183 379.109 266.293H379.112Z" fill="black"/>
</g>
<g style="mix-blend-mode:overlay" opacity="0.3">
<path d="M377.116 276.964C379.086 275.961 376.83 274.851 375.758 272.788C374.627 270.693 375.04 268.435 373.162 269.445C371.332 270.466 370.626 272.815 371.686 274.901C372.746 276.982 375.147 277.964 377.116 276.964Z" fill="#DAD9DB"/>
</g>
<path d="M388.074 230.758C391.732 231.231 395.083 228.4 395.429 224.422C395.639 220.436 392.798 217.151 389.098 217.086C385.399 217.021 382.242 219.869 382.062 223.446C381.749 227.013 384.392 230.283 388.077 230.758H388.074Z" fill="#B7B7B7"/>
<g style="mix-blend-mode:overlay" opacity="0.3">
<path d="M389.101 217.089C392.798 217.154 395.633 220.441 395.426 224.422C395.122 228.026 392.332 230.702 389.11 230.794C391.354 230.153 393.108 228.067 393.377 225.44C393.616 221.946 391.053 219.022 387.773 218.919C385.52 218.836 383.491 220.005 382.39 221.749C383.302 219.025 386.01 217.027 389.101 217.092V217.089Z" fill="black"/>
</g>
<g style="mix-blend-mode:overlay" opacity="0.3">
<path d="M390.879 227.796C392.382 226.178 389.893 225.91 388.168 224.34C386.388 222.761 386.001 220.495 384.581 222.088C383.211 223.676 383.364 226.128 385.068 227.722C386.775 229.312 389.37 229.41 390.876 227.796H390.879Z" fill="#DAD9DB"/>
</g>
<path d="M385.437 180.624C389.051 179.821 391.183 176.032 390.188 172.16C389.013 168.341 385.21 166.222 381.711 167.426C378.212 168.63 376.227 172.378 377.287 175.799C378.17 179.266 381.826 181.426 385.437 180.624Z" fill="#B7B7B7"/>
<g style="mix-blend-mode:overlay" opacity="0.3">
<path d="M381.713 167.429C385.209 166.225 389.01 168.344 390.182 172.16C391.082 175.666 389.429 179.119 386.42 180.302C388.307 178.939 389.237 176.383 388.578 173.821C387.657 170.439 384.197 168.577 381.093 169.598C378.95 170.289 377.444 172.08 377.01 174.09C376.93 171.224 378.787 168.424 381.713 167.429Z" fill="black"/>
</g>
<g style="mix-blend-mode:overlay" opacity="0.3">
<path d="M387.049 176.885C387.905 174.852 385.463 175.451 383.317 174.56C381.143 173.671 379.965 171.685 379.192 173.662C378.456 175.619 379.387 177.882 381.566 178.791C383.721 179.703 386.193 178.915 387.049 176.885Z" fill="#DAD9DB"/>
</g>
<path d="M365.728 134.454C367.278 133.445 368.249 131.887 368.539 130.145C368.807 128.425 368.494 126.451 367.281 124.881C366.097 123.29 364.423 122.296 362.698 122.012C360.983 121.717 359.137 122.192 357.702 123.337C356.244 124.5 355.455 126.1 355.201 127.811C354.959 129.517 355.331 131.276 356.412 132.722C357.522 134.147 358.972 135.127 360.673 135.431C362.35 135.75 364.177 135.463 365.728 134.457V134.454Z" fill="#B7B7B7"/>
<g style="mix-blend-mode:overlay" opacity="0.3">
<path d="M357.705 123.334C359.137 122.192 360.983 121.717 362.698 122.012C364.423 122.299 366.094 123.29 367.278 124.881C369.407 127.805 368.94 131.686 366.543 133.814C367.851 131.884 367.874 129.145 366.377 126.964C364.287 124.152 360.49 123.523 357.9 125.559C356.123 126.944 355.311 129.148 355.579 131.199C355.057 129.853 355.004 128.369 355.376 126.97C355.727 125.589 356.495 124.299 357.705 123.334Z" fill="black"/>
</g>
<g style="mix-blend-mode:overlay" opacity="0.3">
<path d="M365.979 130.373C366.085 128.171 364.042 129.54 361.662 129.478C359.291 129.408 357.549 127.911 357.478 130.048C357.44 131.113 357.874 132.072 358.609 132.775C359.309 133.507 360.315 133.982 361.479 134.047C363.806 134.171 365.858 132.58 365.979 130.373Z" fill="#DAD9DB"/>
</g>
<path d="M331.426 97.7863C333.658 94.8795 332.971 90.447 329.625 88.2573C326.354 85.9613 321.995 86.9057 320.094 90.0663C318.177 93.2446 319.149 97.2639 322.078 99.3267C325.081 101.28 329.156 100.749 331.426 97.7863Z" fill="#B7B7B7"/>
<g style="mix-blend-mode:overlay" opacity="0.3">
<path d="M320.094 90.0632C321.995 86.9055 326.35 85.9641 329.619 88.2571C332.648 90.2402 333.511 94.0737 331.972 96.9037C332.536 94.6521 331.692 91.9784 329.474 90.5353C328.033 89.5556 326.353 89.225 324.833 89.4965C323.309 89.7651 321.91 90.7006 321.036 92.0846C319.837 93.991 319.863 96.2811 320.785 98.1609C320.315 97.609 319.946 96.9834 319.671 96.3224C319.388 95.679 319.205 94.9914 319.134 94.2832C318.992 92.8696 319.285 91.3823 320.091 90.0632H320.094Z" fill="black"/>
</g>
<g style="mix-blend-mode:overlay" opacity="0.3">
<path d="M330.298 93.8288C329.645 91.7247 328.143 93.7786 325.907 94.4987C323.663 95.2247 321.534 94.3866 322.181 96.4376C322.813 98.5033 325.104 99.4624 327.316 98.822C329.533 98.1639 330.924 95.9654 330.298 93.8288Z" fill="#DAD9DB"/>
</g>
<path d="M286.669 75.0221C287.209 73.2544 286.955 71.4188 286.067 69.8725C285.175 68.3438 283.622 67.1988 281.703 66.6942C280.743 66.4463 279.783 66.3931 278.877 66.5082C277.964 66.6558 277.102 66.9863 276.346 67.4467C274.832 68.3733 273.739 69.8577 273.373 71.6697C273.007 73.4816 273.42 75.2788 274.336 76.7042C274.796 77.4183 275.384 78.0351 276.075 78.5309C276.76 79.0591 277.545 79.4575 278.419 79.6818C280.164 80.1422 281.948 79.7969 283.436 78.9735C284.915 78.1679 286.129 76.7927 286.669 75.0221Z" fill="#B7B7B7"/>
<g style="mix-blend-mode:overlay" opacity="0.3">
<path d="M273.373 71.6667C273.739 69.8547 274.832 68.3703 276.347 67.4467C277.102 66.9863 277.965 66.6558 278.877 66.5112C279.783 66.3961 280.743 66.4492 281.7 66.6971C283.442 67.1486 284.88 68.149 285.801 69.4445C286.71 70.7902 287.115 72.3985 286.885 74.0069C286.764 72.8353 286.276 71.7139 285.5 70.7873C284.712 69.8931 283.625 69.2261 282.346 68.8927C280.657 68.4648 278.974 68.689 277.634 69.5006C276.287 70.3239 275.301 71.6431 274.956 73.2514C274.48 75.4765 275.301 77.5777 276.816 79.0178C274.3 77.6219 272.774 74.721 273.376 71.6696L273.373 71.6667Z" fill="black"/>
</g>
<g style="mix-blend-mode:overlay" opacity="0.3">
<path d="M284.251 71.7016C282.907 69.9752 282.208 72.3921 280.356 73.8352C278.499 75.2753 276.217 75.2045 277.528 76.922C278.833 78.6366 281.292 78.8313 283.17 77.3971C285.027 76.019 285.585 73.4427 284.251 71.7045V71.7016Z" fill="#DAD9DB"/>
</g>
<path d="M236.813 68.9899C236.653 65.3128 233.279 62.3795 229.307 62.8457C225.321 63.1792 222.593 66.7116 223.166 70.3532C223.741 74.0214 227.066 76.4679 230.639 76.1757C234.197 75.7478 236.975 72.7053 236.813 68.9899Z" fill="#B7B7B7"/>
<g style="mix-blend-mode:overlay" opacity="0.3">
<path d="M223.165 70.3474C222.593 66.7087 225.324 63.1822 229.304 62.8487C232.901 62.4267 236.024 64.7875 236.665 67.9629C235.649 65.8588 233.284 64.3744 230.656 64.6872C228.923 64.8613 227.423 65.6817 226.431 66.8651C225.439 68.0514 224.967 69.6686 225.185 71.2888C225.492 73.5227 226.983 75.255 228.897 76.1078C228.182 75.9869 227.497 75.7419 226.862 75.4114C226.23 75.1015 225.649 74.6913 225.141 74.1956C224.122 73.204 223.39 71.876 223.163 70.3474H223.165Z" fill="black"/>
</g>
<g style="mix-blend-mode:overlay" opacity="0.3">
<path d="M233.405 66.6701C231.557 65.5074 231.722 68.0217 230.47 70.0166C229.216 72.0115 227.045 72.7345 228.861 73.8914C230.671 75.0629 233.048 74.3517 234.33 72.4129C235.605 70.4888 235.26 67.9125 233.405 66.6701Z" fill="#DAD9DB"/>
</g>
<path d="M187.887 80.2989C187.163 78.5962 185.79 77.3567 184.116 76.7488C182.436 76.1202 180.523 76.2678 178.725 77.1088C177.83 77.5367 177.062 78.1152 176.442 78.788C175.828 79.4697 175.388 80.2901 175.102 81.1252C174.538 82.8073 174.653 84.6488 175.542 86.2719C176.427 87.895 177.898 89.0046 179.516 89.5092C180.331 89.766 181.169 89.8457 182.029 89.7984C182.891 89.763 183.75 89.5594 184.565 89.1699C186.201 88.4055 187.332 86.9684 187.958 85.4102C188.572 83.8373 188.616 82.0017 187.89 80.3019L187.887 80.2989Z" fill="#B7B7B7"/>
<g style="mix-blend-mode:overlay" opacity="0.3">
<path d="M175.541 86.2659C174.656 84.6428 174.541 82.8043 175.104 81.1222C175.391 80.287 175.831 79.4696 176.445 78.7879C177.062 78.115 177.833 77.5396 178.724 77.1116C180.351 76.3414 182.085 76.1585 183.638 76.5893C185.2 77.032 186.54 78.0029 187.399 79.381C185.714 77.7343 183 77.1943 180.632 78.3747C179.061 79.1302 177.927 80.3991 177.411 81.8658C176.909 83.362 177 85.0058 177.771 86.4606C178.84 88.4733 180.815 89.5445 182.905 89.6891C180.074 90.2203 177.044 88.9927 175.541 86.2629V86.2659Z" fill="black"/>
</g>
<g style="mix-blend-mode:overlay" opacity="0.3">
<path d="M183.895 79.3011C181.757 78.8466 182.776 81.1455 182.286 83.4414C181.792 85.7403 179.997 87.1568 182.105 87.626C184.208 88.1012 186.213 86.6581 186.729 84.3592C187.27 82.1252 186.047 79.7998 183.895 79.3011Z" fill="#DAD9DB"/>
</g>
<path d="M145.802 107.691C143.266 104.935 138.922 104.991 136.099 107.818C133.318 110.686 133.46 115.104 136.232 117.515C139.043 119.962 143.209 119.734 145.702 117.164C148.235 114.629 148.273 110.382 145.799 107.691H145.802Z" fill="#B7B7B7"/>
<g style="mix-blend-mode:overlay" opacity="0.3">
<path d="M136.232 117.512C133.46 115.101 133.324 110.686 136.102 107.821C138.671 105.274 142.451 104.938 145.028 106.997C142.849 105.991 140.218 106.516 138.335 108.37C137.717 108.984 137.248 109.683 136.938 110.427C136.649 111.191 136.51 111.988 136.525 112.77C136.551 114.34 137.195 115.845 138.414 116.951C140.086 118.462 142.38 118.864 144.332 118.226C141.904 119.743 138.559 119.548 136.235 117.509L136.232 117.512Z" fill="black"/>
</g>
<g style="mix-blend-mode:overlay" opacity="0.3">
<path d="M141.739 108.149C139.56 108.435 141.302 110.247 141.612 112.564C141.893 114.854 140.773 116.878 142.867 116.557C144.99 116.273 146.431 114.278 146.133 111.938C145.837 109.61 143.918 107.866 141.739 108.152V108.149Z" fill="#DAD9DB"/>
</g>
<path d="M115.581 147.791C112.307 146.089 108.197 147.605 106.502 151.224C104.94 154.901 106.46 158.955 109.942 160.292C113.373 161.608 117.332 160.024 118.723 156.727C120.246 153.49 118.873 149.506 115.581 147.794V147.791Z" fill="#B7B7B7"/>
<g style="mix-blend-mode:overlay" opacity="0.3">
<path d="M109.939 160.286C106.46 158.952 104.946 154.9 106.505 151.223C108.037 147.944 111.566 146.38 114.622 147.401C112.295 147.233 109.936 148.591 108.784 150.972C107.349 154.171 108.758 157.801 111.805 159.02C113.892 159.867 116.201 159.465 117.834 158.208C116.051 160.451 112.8 161.395 109.942 160.286H109.939Z" fill="black"/>
</g>
<g style="mix-blend-mode:overlay" opacity="0.3">
<path d="M111.935 149.615C109.965 150.618 112.221 151.728 113.293 153.791C114.424 155.886 114.011 158.143 115.888 157.134C117.719 156.113 118.425 153.764 117.365 151.678C116.305 149.597 113.904 148.614 111.935 149.615Z" fill="#DAD9DB"/>
</g>
<path d="M100.977 195.815C97.3188 195.343 93.9674 198.173 93.622 202.151C93.4123 206.138 96.2528 209.423 99.9526 209.487C103.652 209.552 106.809 206.705 106.992 203.128C107.305 199.56 104.662 196.29 100.977 195.815Z" fill="#B7B7B7"/>
<g style="mix-blend-mode:overlay" opacity="0.3">
<path d="M99.9496 209.487C96.2528 209.422 93.4182 206.135 93.6249 202.154C93.929 198.55 96.7193 195.874 99.9407 195.782C97.6967 196.423 95.9427 198.509 95.6741 201.135C95.4349 204.63 97.9978 207.554 101.278 207.657C103.531 207.74 105.56 206.571 106.661 204.827C105.749 207.551 103.041 209.549 99.9496 209.484V209.487Z" fill="black"/>
</g>
<g style="mix-blend-mode:overlay" opacity="0.3">
<path d="M98.1721 198.781C96.6691 200.398 99.1583 200.667 100.883 202.237C102.663 203.816 103.05 206.082 104.47 204.488C105.84 202.901 105.687 200.448 103.983 198.855C102.276 197.264 99.6809 197.167 98.175 198.781H98.1721Z" fill="#DAD9DB"/>
</g>
<g style="mix-blend-mode:overlay" opacity="0.2">
<path d="M413.316 212.752C410.815 307.862 331.642 382.934 236.482 380.434C170.168 378.69 113.591 339.736 86.2253 284.094C116.715 324.993 165.006 352.015 219.979 353.459C315.142 355.958 394.312 280.877 396.813 185.776C397.572 156.944 391.191 129.579 379.298 105.38C401.591 135.271 414.376 172.585 413.319 212.752H413.316Z" fill="black"/>
</g>
<g style="mix-blend-mode:overlay" opacity="0.3">
<path d="M247.082 36.0737C246.569 36.056 246.061 36.0265 245.544 36.0147C218.483 35.3035 192.726 40.881 169.648 51.3927L220.375 176.689L242.538 188.721L276.158 147.288L247.079 36.0737H247.082Z" fill="white"/>
</g>
<g style="mix-blend-mode:overlay" opacity="0.3">
<path d="M369.15 93.0154C360.652 83.5809 351.123 75.0847 340.736 67.7041L276.16 147.289L293.877 215.048L369.153 93.0154H369.15Z" fill="white"/>
</g>
<g style="mix-blend-mode:overlay" opacity="0.3">
<path d="M220.375 176.693L98.8837 110.748C83.013 133.817 72.6018 160.975 69.5693 190.406L201.431 239.385L231.002 202.942L220.375 176.693Z" fill="white"/>
</g>
<g style="mix-blend-mode:overlay" opacity="0.3">
<path d="M294.343 216.839L310.863 280.03L382.487 306.634C389.491 296.594 395.461 285.773 400.227 274.311L294.343 216.839Z" fill="white"/>
</g>
<g style="mix-blend-mode:overlay" opacity="0.3">
<path d="M223.853 281.934L182.028 370.139C161.295 362.605 142.445 351.202 126.332 336.827L180.328 249.897L219.917 268.941L223.853 281.934Z" fill="white"/>
</g>
<g style="mix-blend-mode:overlay" opacity="0.3">
<path d="M264.429 262.784L258.875 271.788L298.852 370.531C309.992 366.561 320.607 361.471 330.57 355.403L310.863 280.033L264.429 262.787V262.784Z" fill="white"/>
</g>
<path d="M334.56 299.597C384.387 249.798 384.387 169.058 334.56 119.258C284.734 69.4593 203.949 69.4593 154.122 119.258C104.296 169.058 104.296 249.798 154.122 299.597C203.949 349.396 284.734 349.396 334.56 299.597Z" fill="#AAAAAA"/>
<path d="M328.282 298.461C375.012 251.757 375.012 176.036 328.282 129.332C281.553 82.6285 205.79 82.6285 159.06 129.332C112.331 176.036 112.331 251.757 159.06 298.461C205.79 345.164 281.553 345.164 328.282 298.461Z" fill="#C9C9C9"/>
<path d="M330.862 238.11L345.115 238.485C349.349 238.597 352.875 235.253 352.987 231.022L353.678 204.727C353.79 200.496 350.444 196.972 346.21 196.86L331.958 196.485C327.723 196.373 324.198 199.717 324.086 203.948L323.395 230.242C323.283 234.474 326.628 237.998 330.862 238.11Z" fill="#999999"/>
<path d="M329.929 208.797L347.707 209.264C349.018 209.299 350.111 208.263 350.143 206.953L350.226 203.789C350.261 202.479 349.225 201.387 347.914 201.355L330.136 200.889C328.825 200.853 327.732 201.889 327.7 203.199L327.617 206.363C327.582 207.673 328.618 208.765 329.929 208.797Z" fill="#C9D037"/>
<path d="M327.654 212.411L327.603 214.337C327.583 215.079 328.169 215.696 328.91 215.715L330.897 215.767C331.639 215.787 332.256 215.202 332.275 214.461L332.326 212.534C332.346 211.793 331.76 211.176 331.018 211.156L329.032 211.104C328.29 211.085 327.673 211.67 327.654 212.411Z" fill="#707070"/>
<g style="mix-blend-mode:overlay" opacity="0.4">
<path d="M332.297 212.589L332.25 214.368C332.229 215.15 331.577 215.77 330.794 215.749L328.961 215.702C328.364 215.687 327.865 215.307 327.673 214.779C327.892 214.926 328.149 215.012 328.423 215.021L330.257 215.068C331.039 215.088 331.692 214.469 331.713 213.687L331.76 211.907C331.766 211.721 331.73 211.538 331.665 211.376C332.061 211.642 332.309 212.09 332.297 212.592V212.589Z" fill="black"/>
</g>
<path d="M333.58 214.573L333.631 212.649C333.65 211.909 334.268 211.323 335.009 211.342L336.992 211.395C337.733 211.414 338.32 212.032 338.3 212.772L338.249 214.696C338.23 215.436 337.612 216.022 336.871 216.003L334.887 215.95C334.147 215.931 333.56 215.313 333.58 214.573Z" fill="#707070"/>
<g style="mix-blend-mode:overlay" opacity="0.4">
<path d="M338.273 212.828L338.226 214.608C338.205 215.39 337.553 216.009 336.77 215.989L334.937 215.941C334.34 215.927 333.841 215.543 333.649 215.018C333.868 215.165 334.125 215.251 334.399 215.26L336.233 215.307C337.015 215.328 337.668 214.708 337.689 213.926L337.736 212.146C337.742 211.961 337.706 211.778 337.641 211.615C338.037 211.881 338.285 212.329 338.273 212.831V212.828Z" fill="black"/>
</g>
<path d="M339.56 214.812L339.611 212.889C339.63 212.148 340.248 211.562 340.989 211.582L342.972 211.634C343.713 211.653 344.3 212.271 344.28 213.012L344.229 214.935C344.21 215.675 343.592 216.261 342.851 216.242L340.867 216.19C340.127 216.17 339.54 215.552 339.56 214.812Z" fill="#707070"/>
<g style="mix-blend-mode:overlay" opacity="0.4">
<path d="M344.252 213.067L344.205 214.847C344.184 215.629 343.532 216.249 342.749 216.228L340.916 216.181C340.319 216.166 339.82 215.782 339.628 215.257C339.847 215.405 340.104 215.49 340.378 215.499L342.212 215.546C342.994 215.567 343.647 214.947 343.668 214.165L343.715 212.386C343.721 212.2 343.685 212.017 343.62 211.854C344.016 212.12 344.264 212.569 344.252 213.07V213.067Z" fill="black"/>
</g>
<path d="M345.588 213.128L345.537 215.054C345.518 215.796 346.103 216.412 346.845 216.432L348.831 216.484C349.573 216.504 350.19 215.919 350.21 215.177L350.26 213.251C350.28 212.51 349.695 211.893 348.953 211.873L346.966 211.821C346.225 211.801 345.607 212.386 345.588 213.128Z" fill="#707070"/>
<g style="mix-blend-mode:overlay" opacity="0.4">
<path d="M350.232 213.307L350.184 215.086C350.164 215.868 349.511 216.488 348.729 216.467L346.895 216.42C346.299 216.405 345.8 216.022 345.608 215.496C345.826 215.644 346.083 215.729 346.358 215.738L348.191 215.786C348.974 215.806 349.626 215.186 349.647 214.404L349.694 212.625C349.7 212.439 349.665 212.256 349.6 212.094C349.995 212.359 350.243 212.808 350.232 213.31V213.307Z" fill="black"/>
</g>
<path d="M327.397 220.309L327.448 218.386C327.467 217.645 328.085 217.059 328.826 217.079L330.81 217.131C331.551 217.151 332.137 217.768 332.117 218.509L332.067 220.432C332.047 221.173 331.429 221.759 330.688 221.739L328.705 221.687C327.964 221.667 327.378 221.05 327.397 220.309Z" fill="#707070"/>
<g style="mix-blend-mode:overlay" opacity="0.4">
<path d="M332.099 218.564L332.052 220.344C332.031 221.126 331.379 221.746 330.596 221.725L328.763 221.678C328.166 221.663 327.667 221.279 327.475 220.754C327.694 220.902 327.95 220.987 328.225 220.996L330.059 221.043C330.841 221.064 331.494 220.444 331.514 219.662L331.562 217.883C331.568 217.697 331.532 217.514 331.467 217.352C331.863 217.617 332.111 218.066 332.099 218.567V218.564Z" fill="black"/>
</g>
<path d="M333.381 220.549L333.431 218.626C333.451 217.885 334.069 217.299 334.81 217.319L336.793 217.371C337.534 217.391 338.12 218.008 338.101 218.749L338.05 220.672C338.031 221.413 337.413 221.999 336.672 221.979L334.688 221.927C333.947 221.907 333.361 221.29 333.381 220.549Z" fill="#707070"/>
<g style="mix-blend-mode:overlay" opacity="0.4">
<path d="M338.076 218.804L338.028 220.583C338.008 221.365 337.355 221.985 336.573 221.964L334.739 221.917C334.143 221.902 333.644 221.519 333.452 220.993C333.67 221.141 333.927 221.227 334.202 221.235L336.035 221.283C336.818 221.303 337.47 220.684 337.491 219.901L337.538 218.122C337.544 217.936 337.509 217.753 337.444 217.591C337.839 217.856 338.087 218.305 338.076 218.807V218.804Z" fill="black"/>
</g>
<path d="M339.411 218.865L339.361 220.792C339.341 221.533 339.926 222.15 340.668 222.169L342.655 222.222C343.396 222.241 344.014 221.656 344.033 220.915L344.084 218.988C344.103 218.247 343.518 217.63 342.776 217.611L340.79 217.558C340.048 217.539 339.431 218.124 339.411 218.865Z" fill="#707070"/>
<g style="mix-blend-mode:overlay" opacity="0.4">
<path d="M344.055 219.043L344.007 220.822C343.987 221.604 343.334 222.224 342.552 222.204L340.718 222.156C340.122 222.142 339.623 221.758 339.431 221.233C339.649 221.38 339.906 221.466 340.181 221.475L342.014 221.522C342.797 221.543 343.449 220.923 343.47 220.141L343.517 218.361C343.523 218.175 343.488 217.992 343.423 217.83C343.818 218.096 344.066 218.544 344.055 219.046V219.043Z" fill="black"/>
</g>
<path d="M345.389 219.103L345.338 221.03C345.318 221.771 345.904 222.388 346.645 222.407L348.632 222.46C349.374 222.479 349.991 221.894 350.01 221.153L350.061 219.227C350.081 218.485 349.495 217.868 348.754 217.849L346.767 217.797C346.025 217.777 345.408 218.362 345.389 219.103Z" fill="#707070"/>
<g style="mix-blend-mode:overlay" opacity="0.4">
<path d="M350.034 219.282L349.987 221.062C349.966 221.844 349.313 222.463 348.531 222.443L346.697 222.396C346.101 222.381 345.602 221.997 345.41 221.472C345.628 221.619 345.885 221.705 346.16 221.714L347.994 221.761C348.776 221.782 349.429 221.162 349.449 220.38L349.496 218.601C349.502 218.415 349.467 218.232 349.402 218.069C349.798 218.335 350.046 218.783 350.034 219.285V219.282Z" fill="black"/>
</g>
<path d="M327.204 226.289L327.255 224.365C327.274 223.625 327.892 223.039 328.633 223.058L330.617 223.111C331.358 223.13 331.944 223.748 331.924 224.488L331.874 226.412C331.854 227.152 331.236 227.738 330.495 227.719L328.512 227.666C327.771 227.647 327.185 227.029 327.204 226.289Z" fill="#707070"/>
<g style="mix-blend-mode:overlay" opacity="0.4">
<path d="M331.902 224.54L331.854 226.32C331.834 227.102 331.181 227.721 330.399 227.701L328.565 227.653C327.969 227.639 327.47 227.258 327.278 226.73C327.496 226.877 327.753 226.963 328.028 226.972L329.861 227.019C330.644 227.04 331.296 226.42 331.317 225.638L331.364 223.858C331.37 223.672 331.335 223.489 331.27 223.327C331.665 223.593 331.913 224.041 331.902 224.543V224.54Z" fill="black"/>
</g>
<path d="M333.223 224.598L333.173 226.524C333.153 227.265 333.738 227.882 334.48 227.902L336.467 227.954C337.208 227.973 337.826 227.388 337.845 226.647L337.896 224.721C337.915 223.979 337.33 223.363 336.588 223.343L334.602 223.291C333.86 223.271 333.243 223.856 333.223 224.598Z" fill="#707070"/>
<g style="mix-blend-mode:overlay" opacity="0.4">
<path d="M337.878 224.78L337.831 226.56C337.81 227.342 337.157 227.962 336.375 227.941L334.541 227.894C333.945 227.879 333.446 227.498 333.254 226.97C333.472 227.118 333.729 227.203 334.004 227.212L335.838 227.259C336.62 227.28 337.273 226.66 337.293 225.878L337.34 224.099C337.346 223.913 337.311 223.73 337.246 223.567C337.642 223.833 337.89 224.282 337.878 224.783V224.78Z" fill="black"/>
</g>
<path d="M339.212 224.843L339.161 226.769C339.142 227.51 339.727 228.127 340.469 228.147L342.455 228.199C343.197 228.219 343.814 227.633 343.834 226.892L343.885 224.966C343.904 224.224 343.319 223.608 342.577 223.588L340.591 223.536C339.849 223.516 339.232 224.101 339.212 224.843Z" fill="#707070"/>
<g style="mix-blend-mode:overlay" opacity="0.4">
<path d="M343.857 225.02L343.81 226.799C343.789 227.581 343.136 228.201 342.354 228.18L340.52 228.133C339.924 228.118 339.425 227.737 339.233 227.209C339.451 227.357 339.708 227.442 339.983 227.451L341.817 227.498C342.599 227.519 343.252 226.899 343.272 226.117L343.319 224.338C343.325 224.152 343.29 223.969 343.225 223.807C343.621 224.072 343.869 224.521 343.857 225.022V225.02Z" fill="black"/>
</g>
<path d="M345.124 226.996L345.175 225.072C345.194 224.332 345.812 223.746 346.553 223.765L348.537 223.818C349.278 223.837 349.864 224.455 349.844 225.195L349.794 227.119C349.774 227.859 349.156 228.445 348.415 228.426L346.432 228.373C345.691 228.354 345.104 227.736 345.124 226.996Z" fill="#707070"/>
<g style="mix-blend-mode:overlay" opacity="0.4">
<path d="M349.836 225.258L349.789 227.037C349.768 227.819 349.116 228.439 348.333 228.418L346.5 228.371C345.903 228.356 345.404 227.976 345.212 227.447C345.431 227.595 345.688 227.681 345.962 227.689L347.796 227.737C348.578 227.757 349.231 227.138 349.251 226.356L349.299 224.576C349.305 224.39 349.269 224.207 349.204 224.045C349.6 224.311 349.848 224.759 349.836 225.261V225.258Z" fill="black"/>
</g>
<path d="M327.044 230.327L326.993 232.253C326.974 232.995 327.559 233.612 328.301 233.631L330.287 233.683C331.029 233.703 331.646 233.118 331.666 232.377L331.716 230.45C331.736 229.709 331.151 229.092 330.409 229.073L328.422 229.02C327.681 229.001 327.064 229.586 327.044 230.327Z" fill="#707070"/>
<g style="mix-blend-mode:overlay" opacity="0.4">
<path d="M331.701 230.517L331.653 232.296C331.633 233.078 330.98 233.698 330.198 233.677L328.364 233.63C327.768 233.615 327.269 233.235 327.077 232.706C327.295 232.854 327.552 232.939 327.827 232.948L329.66 232.996C330.443 233.016 331.095 232.396 331.116 231.614L331.163 229.835C331.169 229.649 331.134 229.466 331.069 229.304C331.464 229.569 331.712 230.018 331.701 230.52V230.517Z" fill="black"/>
</g>
<path d="M333.036 230.577L332.985 232.503C332.966 233.245 333.551 233.862 334.293 233.881L336.279 233.933C337.021 233.953 337.638 233.368 337.658 232.627L337.708 230.7C337.728 229.959 337.143 229.342 336.401 229.323L334.414 229.27C333.673 229.251 333.055 229.836 333.036 230.577Z" fill="#707070"/>
<g style="mix-blend-mode:overlay" opacity="0.4">
<path d="M337.68 230.755L337.633 232.534C337.612 233.316 336.959 233.936 336.177 233.915L334.343 233.868C333.747 233.853 333.248 233.47 333.056 232.945C333.274 233.092 333.531 233.178 333.806 233.187L335.64 233.234C336.422 233.254 337.075 232.635 337.095 231.853L337.142 230.073C337.148 229.887 337.113 229.704 337.048 229.542C337.444 229.808 337.692 230.256 337.68 230.758V230.755Z" fill="black"/>
</g>
<path d="M338.998 230.807L338.948 232.734C338.928 233.475 339.513 234.092 340.255 234.112L342.242 234.164C342.983 234.183 343.6 233.598 343.62 232.857L343.671 230.931C343.69 230.189 343.105 229.573 342.363 229.553L340.377 229.501C339.635 229.481 339.018 230.066 338.998 230.807Z" fill="#707070"/>
<g style="mix-blend-mode:overlay" opacity="0.4">
<path d="M343.659 230.994L343.612 232.774C343.591 233.556 342.939 234.175 342.156 234.155L340.323 234.108C339.726 234.093 339.227 233.712 339.035 233.184C339.254 233.331 339.511 233.417 339.785 233.426L341.619 233.473C342.401 233.494 343.054 232.874 343.074 232.092L343.122 230.312C343.128 230.127 343.092 229.944 343.027 229.781C343.423 230.047 343.671 230.495 343.659 230.997V230.994Z" fill="black"/>
</g>
<path d="M344.993 231.055L344.943 232.981C344.923 233.722 345.509 234.339 346.25 234.359L348.237 234.411C348.978 234.431 349.596 233.845 349.615 233.104L349.666 231.178C349.685 230.436 349.1 229.82 348.358 229.8L346.372 229.748C345.63 229.728 345.013 230.313 344.993 231.055Z" fill="#707070"/>
<g style="mix-blend-mode:overlay" opacity="0.4">
<path d="M349.635 231.233L349.588 233.013C349.567 233.795 348.915 234.415 348.132 234.394L346.299 234.347C345.702 234.332 345.203 233.948 345.011 233.423C345.23 233.571 345.487 233.656 345.761 233.665L347.595 233.712C348.378 233.733 349.03 233.113 349.051 232.331L349.098 230.552C349.104 230.366 349.068 230.183 349.004 230.021C349.399 230.286 349.647 230.735 349.635 231.236V231.233Z" fill="black"/>
</g>
<g style="mix-blend-mode:overlay" opacity="0.4">
<path d="M350.229 203.791L350.146 206.952C350.111 208.259 349.018 209.298 347.707 209.263L329.929 208.796C329.055 208.773 328.311 208.283 327.912 207.569C328.196 207.705 328.515 207.784 328.857 207.793L346.635 208.259C347.943 208.295 349.039 207.256 349.074 205.949L349.157 202.782C349.169 202.345 349.065 201.935 348.859 201.578C349.686 201.965 350.249 202.818 350.226 203.788L350.229 203.791Z" fill="black"/>
</g>
<g style="mix-blend-mode:overlay" opacity="0.3">
<path d="M353.677 204.683L352.984 231.068C352.874 235.274 349.369 238.6 345.156 238.49L330.818 238.113C328.163 238.042 325.86 236.622 324.546 234.527C325.845 235.708 327.567 236.439 329.456 236.487L343.795 236.864C348.008 236.977 351.51 233.654 351.622 229.442L352.316 203.066C352.358 201.514 351.929 200.059 351.168 198.837C352.762 200.274 353.736 202.375 353.677 204.683Z" fill="black"/>
</g>
<g style="mix-blend-mode:overlay" opacity="0.3">
<path d="M329.578 203.019C329.557 203.843 333.115 204.33 337.612 204.448C342.109 204.566 345.841 204.271 345.865 203.447C345.885 202.624 342.457 202.385 337.96 202.264C333.463 202.146 329.601 202.193 329.578 203.016V203.019Z" fill="white"/>
</g>
<g style="mix-blend-mode:overlay" opacity="0.15">
<path d="M329.197 198.394C329.176 199.218 333.44 199.129 338.601 199.265C343.762 199.401 347.867 199.707 347.887 198.884C347.908 198.061 343.972 197.807 338.811 197.671C333.649 197.536 329.217 197.568 329.194 198.391L329.197 198.394Z" fill="white"/>
</g>
<g style="mix-blend-mode:overlay" opacity="0.15">
<path d="M325.633 203.769C324.809 203.748 324.898 208.009 324.762 213.168C324.626 218.326 324.319 222.428 325.143 222.449C325.967 222.47 326.221 218.536 326.356 213.377C326.492 208.219 326.46 203.789 325.633 203.766V203.769Z" fill="white"/>
</g>
<g style="mix-blend-mode:overlay" opacity="0.2">
<path d="M363.289 217.04C361.552 283.067 306.594 335.189 240.53 333.454C192.892 332.202 152.484 303.279 134.31 262.492C155.543 289.852 188.427 307.824 225.767 308.806C291.83 310.542 346.786 258.429 348.525 192.404C349.009 173.981 345.301 156.428 338.27 140.648C354.602 161.698 364.045 188.317 363.289 217.043V217.04Z" fill="black"/>
</g>
<g style="mix-blend-mode:overlay" opacity="0.3">
<path d="M183.942 317.542L174.219 116.512C161.699 125.445 150.969 136.738 142.675 149.758L155.076 294.252C163.403 303.418 173.126 311.303 183.942 317.542Z" fill="#DAD9DB"/>
</g>
<g style="mix-blend-mode:overlay" opacity="0.3">
<path d="M246.817 94.3429C238.889 94.1334 231.123 94.7089 223.588 95.9837L231.025 332.822C234.155 333.152 237.324 333.365 240.524 333.447C248.783 333.666 256.867 333.04 264.698 331.65L279.473 99.7493C269.133 96.5149 258.178 94.641 246.814 94.3429H246.817Z" fill="#DAD9DB"/>
</g>
<g style="mix-blend-mode:overlay" opacity="0.3">
<path d="M320.894 122.546L297.839 320.551C307.164 315.808 315.789 309.877 323.516 302.954L349.721 158.478C342.505 144.717 332.684 132.515 320.891 122.546H320.894Z" fill="#DAD9DB"/>
</g>
<g style="mix-blend-mode:overlay" opacity="0.3">
<path d="M293.165 216.199L294.343 216.839L293.874 215.048L293.165 216.199Z" fill="white"/>
</g>
<path d="M284.694 248.595C308.313 224.989 308.313 186.716 284.694 163.11C261.075 139.504 222.781 139.504 199.162 163.11C175.543 186.716 175.543 224.989 199.162 248.595C222.781 272.201 261.075 272.201 284.694 248.595Z" fill="#999999"/>
<g style="mix-blend-mode:overlay" opacity="0.2">
<path d="M302.381 207.443C301.504 240.808 273.722 267.149 240.338 266.273C218.728 265.706 200.055 253.872 189.818 236.544C200.076 247.23 214.384 254.038 230.361 254.457C262.552 255.304 289.333 229.907 290.18 197.734C290.649 179.839 282.996 163.62 270.58 152.606C290.023 163.083 303.001 183.861 302.381 207.44V207.443Z" fill="black"/>
</g>
<path d="M242.663 202.365L7.46191 196.168L7.09264 210.169L242.293 216.365L242.663 202.365Z" fill="#999999"/>
<g style="mix-blend-mode:overlay" opacity="0.2">
<path d="M7.26419 204.283L7.10889 210.171L242.31 216.368L242.465 210.479L7.26419 204.283Z" fill="black"/>
</g>
<g style="mix-blend-mode:overlay" opacity="0.3">
<path d="M8.40067 198.535L8.30029 202.341L243.501 208.537L243.602 204.732L8.40067 198.535Z" fill="#DAD9DB"/>
</g>
<path d="M247.811 221.138L245.47 221.155L241.664 221.17L239.689 221.176L233.804 221.203H233.792L232.847 33.4467V33.4379L232.818 27.3026L232.685 0.498047H232.694L238.593 0.710524L240.557 0.78135L244.357 0.908245L246.704 0.999729L246.837 27.8072L246.87 33.9484L247.811 221.138Z" fill="#999999"/>
<g style="mix-blend-mode:overlay" opacity="0.2">
<path d="M239.689 221.176L233.804 221.203L232.856 33.4467V33.4379L232.826 27.3026L232.694 0.498047L238.593 0.710524L238.726 27.5062L238.755 33.6504V33.6592L239.689 221.176Z" fill="black"/>
</g>
<g style="mix-blend-mode:overlay" opacity="0.3">
<path d="M245.473 222.126L241.667 222.141L241.664 221.17L240.719 33.7299V33.7211L240.69 27.577L240.557 0.78125L244.357 0.908146L244.499 27.7157L244.531 33.8598V33.8686L245.47 221.155L245.473 222.126Z" fill="#DAD9DB"/>
</g>
<path d="M248.387 414.489L246.329 414.415L246.058 414.41L242.517 414.277L242.249 414.271L240.276 414.2L234.386 413.987L234.356 407.835L234.211 381.039L233.237 186.646H233.249L239.134 186.619L247.256 186.581L248.225 381.54L248.367 408.348L248.387 414.489Z" fill="#999999"/>
<g style="mix-blend-mode:overlay" opacity="0.2">
<path d="M240.276 414.2L234.386 413.987L234.356 407.834L234.22 381.038L233.249 186.646L239.134 186.619L240.111 381.251L240.244 408.056L240.276 414.2Z" fill="black"/>
</g>
<g style="mix-blend-mode:overlay" opacity="0.3">
<path d="M242.518 414.276L242.249 414.27L242.216 408.126L242.083 381.322L241.112 187.584L244.918 187.569L245.895 381.452L246.028 408.256L246.058 414.4V414.409L242.518 414.276Z" fill="#DAD9DB"/>
</g>
<path d="M252.161 169.575C271.282 175.123 282.323 195.184 276.774 214.295C271.223 233.406 251.151 244.44 232.029 238.895C212.908 233.347 201.868 213.286 207.416 194.175C212.967 175.064 233.039 164.03 252.161 169.575ZM253.77 164.03C231.554 157.585 208.316 170.36 201.868 192.564C195.419 214.767 208.201 237.992 230.417 244.437C252.633 250.883 275.871 238.107 282.32 215.904C288.768 193.7 275.986 170.475 253.77 164.03Z" fill="#BCBCBC"/>
<g style="mix-blend-mode:overlay" opacity="0.3">
<path d="M253.77 164.03C231.557 157.585 208.313 170.366 201.868 192.564C195.419 214.765 208.207 237.996 230.417 244.438C252.63 250.883 275.874 238.102 282.32 215.904C288.768 193.703 275.98 170.472 253.77 164.03ZM231.908 242.83C210.436 236.6 198.076 214.145 204.312 192.676C210.546 171.216 233.013 158.863 254.485 165.093C275.965 171.325 288.317 193.777 282.083 215.237C275.847 236.706 253.389 249.062 231.908 242.83Z" fill="black"/>
</g>
<path d="M274.067 148.888C268.935 149.233 264.905 154.014 265.07 159.568C265.091 160.22 265.17 160.855 265.297 161.465L210.667 238.538C210.185 238.488 209.695 238.468 209.196 238.5C204.064 238.845 200.034 243.626 200.199 249.18C200.362 254.734 204.658 258.954 209.79 258.609C214.921 258.263 218.952 253.483 218.786 247.929C218.763 247.156 218.654 246.409 218.479 245.695L272.895 168.926C273.47 169.005 274.058 169.035 274.663 168.994C279.795 168.648 283.825 163.868 283.66 158.314C283.498 152.76 279.202 148.54 274.07 148.885L274.067 148.888Z" fill="#C9C9C9"/>
<g style="mix-blend-mode:overlay" opacity="0.2">
<path d="M283.657 158.317C283.823 163.877 279.789 168.654 274.658 169C274.055 169.041 273.465 169.011 272.889 168.929L218.48 245.695C218.654 246.412 218.76 247.156 218.784 247.929C218.946 253.489 214.922 258.266 209.79 258.612C206.542 258.83 203.625 257.222 201.894 254.604C203.471 255.729 205.396 256.328 207.448 256.189C212.58 255.844 216.611 251.057 216.448 245.506C216.424 244.733 216.312 243.989 216.138 243.272L270.556 166.503C271.126 166.586 271.723 166.615 272.325 166.574C277.457 166.229 281.481 161.442 281.319 155.891C281.26 153.846 280.637 151.984 279.615 150.458C281.98 152.128 283.563 154.982 283.663 158.314L283.657 158.317Z" fill="black"/>
</g>
<g style="mix-blend-mode:overlay" opacity="0.3">
<path d="M266.794 158.567C267.642 160.919 269.582 157.761 273.051 156.2C276.524 154.639 280.209 155.259 279.364 152.91C278.517 150.558 275.018 149.92 271.545 151.481C268.073 153.042 265.947 156.215 266.791 158.567H266.794Z" fill="#DAD9DB"/>
</g>
<g style="mix-blend-mode:overlay" opacity="0.3">
<path d="M202.322 248.929C203.598 251.03 204.732 247.668 207.616 245.561C210.501 243.454 214.041 243.401 212.766 241.3C211.49 239.199 208.118 239.205 205.236 241.309C202.352 243.416 201.047 246.827 202.322 248.929Z" fill="#DAD9DB"/>
</g>
<path d="M214.423 237.632C218.438 231.391 222.54 225.223 226.726 219.126C228.799 216.06 230.934 213.044 233.036 210.005L239.435 200.957L245.922 191.979C248.116 189.014 250.277 186.021 252.501 183.079C256.915 177.168 261.388 171.307 266.021 165.576C262.073 171.871 257.957 178.03 253.785 184.138C251.715 187.207 249.583 190.224 247.481 193.266L241.082 202.314L234.592 211.288C232.399 214.254 230.231 217.243 228.008 220.183C223.579 226.079 219.12 231.958 214.426 237.632H214.423Z" fill="#DAD9DB"/>
<path d="M189.035 165.591C194.17 163.188 200.102 165.771 202.284 171.357C202.541 172.015 202.73 172.685 202.863 173.358L288.458 220.475C288.904 220.168 289.371 219.884 289.873 219.648C295.007 217.246 300.939 219.828 303.121 225.415C305.303 231.001 302.906 237.479 297.771 239.881C292.636 242.283 286.704 239.701 284.522 234.114C284.218 233.335 284.011 232.539 283.882 231.739L198.625 184.811C198.1 185.197 197.539 185.54 196.934 185.823C191.799 188.225 185.867 185.643 183.685 180.057C181.503 174.47 183.9 167.993 189.035 165.591Z" fill="#C9C9C9"/>
<g style="mix-blend-mode:overlay" opacity="0.2">
<path d="M183.682 180.056C185.864 185.649 191.799 188.225 196.934 185.823C197.536 185.542 198.097 185.197 198.625 184.808L283.876 231.738C284.006 232.541 284.218 233.335 284.519 234.114C286.701 239.706 292.63 242.286 297.765 239.883C301.016 238.364 303.171 235.209 303.753 231.694C302.693 233.648 301.075 235.271 299.023 236.233C293.888 238.635 287.95 236.05 285.771 230.467C285.467 229.69 285.263 228.894 285.133 228.088L199.874 181.16C199.355 181.547 198.785 181.895 198.183 182.175C193.048 184.577 187.119 181.989 184.937 176.406C184.134 174.349 183.953 172.171 184.305 170.114C182.71 173.033 182.371 176.704 183.679 180.056H183.682Z" fill="black"/>
</g>
<g style="mix-blend-mode:overlay" opacity="0.3">
<path d="M200.184 171.289C200.353 174.069 197.137 171.982 193.104 172.289C189.071 172.599 185.749 175.187 185.58 172.404C185.412 169.624 188.545 167.119 192.578 166.812C196.612 166.502 200.016 168.506 200.184 171.289Z" fill="#DAD9DB"/>
</g>
<g style="mix-blend-mode:overlay" opacity="0.3">
<path d="M300.945 226.303C300.591 229.065 298.072 226.342 294.381 225.799C290.69 225.256 287.224 227.094 287.578 224.332C287.933 221.57 291.213 219.773 294.904 220.316C298.595 220.859 301.302 223.541 300.948 226.303H300.945Z" fill="#DAD9DB"/>
</g>
<path d="M284.425 221.585C277.891 217.551 271.303 213.635 264.663 209.836C261.355 207.909 258.01 206.062 254.682 204.176L244.646 198.637L234.557 193.216C231.173 191.451 227.81 189.642 224.411 187.919C217.629 184.425 210.811 181.01 203.89 177.817C210.383 181.94 216.976 185.838 223.608 189.657C226.915 191.59 230.258 193.437 233.585 195.326L243.622 200.865L253.714 206.28C257.098 208.045 260.464 209.848 263.865 211.569C270.656 215.042 277.468 218.477 284.425 221.588V221.585Z" fill="#DAD9DB"/>
<path d="M262.166 223.857C273.417 212.613 273.417 194.382 262.166 183.137C250.915 171.892 232.674 171.892 221.423 183.137C210.173 194.382 210.173 212.613 221.423 223.857C232.674 235.102 250.915 235.102 262.166 223.857Z" fill="#BCBCBC"/>
<g style="mix-blend-mode:overlay" opacity="0.3">
<path d="M248.263 224.04C253.088 221.78 256.977 217.876 259.138 213.192C261.288 208.509 261.737 203.097 260.266 198.198C258.867 193.287 255.622 188.932 251.299 186.134C246.979 183.333 241.611 182.044 236.323 182.731C238.903 182.047 241.641 181.952 244.325 182.309C247.006 182.699 249.622 183.634 251.987 185.01C254.364 186.376 256.448 188.244 258.149 190.404C259.835 192.582 261.105 195.082 261.887 197.726C262.643 200.379 262.915 203.17 262.649 205.915C262.377 208.659 261.568 211.333 260.316 213.768C259.05 216.197 257.325 218.374 255.255 220.124C253.183 221.868 250.797 223.217 248.263 224.038V224.04Z" fill="#DAD9DB"/>
</g>
<path d="M246.741 221.373C256.163 218.38 261.373 208.321 258.379 198.905C255.385 189.489 245.32 184.282 235.899 187.274C226.478 190.267 221.268 200.326 224.262 209.742C227.256 219.158 237.32 224.365 246.741 221.373Z" fill="#BCBCBC"/>
<g style="mix-blend-mode:overlay" opacity="0.3">
<path d="M249.096 212.925C249.362 210.748 249.45 208.856 249.279 207.062C249.114 205.276 248.718 203.621 248.125 202.042C247.534 200.46 246.707 198.982 245.65 197.577C244.599 196.154 243.3 194.853 241.679 193.454C245.981 192.894 250.354 196.107 251.925 200.445C252.746 202.605 252.943 205.028 252.465 207.277C251.96 209.511 250.841 211.594 249.096 212.925Z" fill="#DAD9DB"/>
</g>
<g style="mix-blend-mode:overlay" opacity="0.3">
<path d="M249.828 175.852C234.545 171.419 218.565 180.205 214.13 195.476C209.695 210.751 218.486 226.722 233.766 231.155C249.049 235.587 265.026 226.802 269.464 211.53C273.899 196.256 265.109 180.284 249.828 175.852ZM234.752 227.826C221.553 223.996 213.962 210.205 217.795 197.014C221.621 183.837 235.419 176.25 248.618 180.081C261.802 183.905 269.39 197.696 265.566 210.872C261.734 224.063 247.936 231.651 234.752 227.826Z" fill="black"/>
</g>
<g style="mix-blend-mode:overlay" opacity="0.3">
<path d="M246.315 187.134C236.81 184.378 226.886 189.846 224.134 199.328C221.379 208.812 226.833 218.74 236.334 221.496C245.821 224.25 255.763 218.784 258.515 209.302C261.27 199.821 255.802 189.884 246.315 187.134ZM237.17 219.501C229.012 217.134 224.323 208.615 226.691 200.461C229.053 192.325 237.58 187.636 245.736 190.002C253.876 192.363 258.568 200.886 256.203 209.022C253.835 217.176 245.311 221.862 237.167 219.501H237.17Z" fill="black"/>
</g>
<path d="M103.387 177.631L101.978 231.19C101.978 231.297 101.972 231.412 101.96 231.518C101.518 241.797 92.9045 249.88 82.5553 249.608L63.1384 249.098C57.0263 248.938 51.6731 245.899 48.3365 241.316C45.9567 238.066 44.5984 234.026 44.7136 229.685L46.122 176.126C46.3966 165.68 55.0893 157.434 65.5448 157.709L84.9618 158.219C89.63 158.343 93.8494 160.138 97.0678 163.024C101.001 166.527 103.449 171.644 103.387 177.304C103.392 177.41 103.39 177.525 103.387 177.631Z" fill="#C9C9C9"/>
<path d="M59.5449 165.543C57.7201 163.628 54.5962 163.664 52.5677 165.623C50.5717 167.612 50.675 170.678 52.671 172.354C54.6936 174.054 57.6877 173.898 59.4799 172.115C61.2988 170.36 61.3254 167.411 59.5449 165.54V165.543Z" fill="#B7B7B7"/>
<g style="mix-blend-mode:overlay" opacity="0.3">
<path d="M52.6683 172.355C50.6723 170.682 50.5719 167.615 52.5679 165.629C54.4133 163.862 57.1328 163.632 58.987 165.063C57.4192 164.363 55.5294 164.726 54.1742 166.01C53.7312 166.435 53.3917 166.922 53.1702 167.435C52.9635 167.964 52.8632 168.519 52.875 169.062C52.8956 170.15 53.3592 171.198 54.2362 171.965C55.4379 173.016 57.0885 173.296 58.4939 172.854C56.7489 173.904 54.3425 173.766 52.6712 172.352L52.6683 172.355Z" fill="black"/>
</g>
<g style="mix-blend-mode:overlay" opacity="0.3">
<path d="M56.6219 165.859C55.0541 166.057 56.309 167.317 56.5334 168.923C56.7371 170.513 55.934 171.918 57.4369 171.694C58.9634 171.499 59.9998 170.115 59.7813 168.492C59.5658 166.875 58.1839 165.665 56.619 165.859H56.6219Z" fill="#DAD9DB"/>
</g>
<path d="M58.9397 188.502C57.1149 186.587 53.991 186.622 51.9625 188.585C49.9664 190.574 50.0698 193.64 52.0658 195.316C54.0884 197.016 57.0824 196.859 58.8747 195.077C60.6936 193.321 60.7202 190.373 58.9397 188.502Z" fill="#B7B7B7"/>
<g style="mix-blend-mode:overlay" opacity="0.3">
<path d="M52.0657 195.314C50.0697 193.641 49.9693 190.574 51.9653 188.588C53.8108 186.821 56.5302 186.591 58.3845 188.022C56.8166 187.322 54.9269 187.685 53.5716 188.969C53.1287 189.394 52.7891 189.881 52.5677 190.394C52.361 190.923 52.2606 191.477 52.2724 192.02C52.2931 193.109 52.7567 194.157 53.6336 194.924C54.8354 195.975 56.4859 196.255 57.8914 195.813C56.1464 196.863 53.7399 196.725 52.0687 195.311L52.0657 195.314Z" fill="black"/>
</g>
<g style="mix-blend-mode:overlay" opacity="0.3">
<path d="M56.0194 188.818C54.4515 189.016 55.7064 190.276 55.9308 191.882C56.1346 193.472 55.3314 194.877 56.8343 194.653C58.3609 194.458 59.3973 193.074 59.1788 191.451C58.9632 189.834 57.5814 188.624 56.0164 188.818H56.0194Z" fill="#DAD9DB"/>
</g>
<path d="M58.3254 211.919C56.5007 210.004 53.3767 210.039 51.3482 212.002C49.3522 213.991 49.4555 217.057 51.4515 218.733C53.4741 220.433 56.4682 220.276 58.2605 218.494C60.0793 216.738 60.1059 213.79 58.3254 211.919Z" fill="#B7B7B7"/>
<g style="mix-blend-mode:overlay" opacity="0.3">
<path d="M51.4486 218.728C49.4525 217.052 49.3521 213.989 51.3482 212.002C53.1936 210.235 55.913 210.005 57.7673 211.436C56.1994 210.736 54.3097 211.099 52.9544 212.383C52.5115 212.808 52.172 213.295 51.9505 213.809C51.7438 214.337 51.6434 214.892 51.6552 215.435C51.6759 216.524 52.1395 217.571 53.0164 218.338C54.2182 219.389 55.8687 219.669 57.2742 219.227C55.5292 220.277 53.1227 220.139 51.4515 218.725L51.4486 218.728Z" fill="black"/>
</g>
<g style="mix-blend-mode:overlay" opacity="0.3">
<path d="M55.4022 212.233C53.8343 212.43 55.0892 213.69 55.3136 215.296C55.5174 216.886 54.7142 218.291 56.2172 218.067C57.7437 217.872 58.7801 216.488 58.5616 214.865C58.346 213.248 56.9642 212.038 55.3993 212.233H55.4022Z" fill="#DAD9DB"/>
</g>
<path d="M57.7319 234.425C55.9072 232.51 52.7832 232.545 50.7547 234.505C48.7587 236.494 48.862 239.56 50.858 241.236C52.8806 242.936 55.8776 242.78 57.667 240.997C59.4858 239.241 59.5124 236.293 57.7319 234.422V234.425Z" fill="#B7B7B7"/>
<g style="mix-blend-mode:overlay" opacity="0.3">
<path d="M50.855 241.233C48.859 239.56 48.7586 236.493 50.7547 234.507C52.6001 232.74 55.3195 232.509 57.1738 233.941C55.6059 233.241 53.7162 233.604 52.3609 234.888C51.918 235.313 51.5785 235.8 51.357 236.313C51.1503 236.842 51.0499 237.396 51.0617 237.939C51.0824 239.028 51.546 240.076 52.4229 240.843C53.6247 241.894 55.2752 242.174 56.6807 241.732C54.9357 242.782 52.5292 242.643 50.858 241.23L50.855 241.233Z" fill="black"/>
</g>
<g style="mix-blend-mode:overlay" opacity="0.3">
<path d="M54.8116 234.74C53.2438 234.938 54.4987 236.198 54.7231 237.804C54.9268 239.394 54.1237 240.799 55.6266 240.575C57.1531 240.38 58.1895 238.996 57.971 237.373C57.7555 235.755 56.3736 234.546 54.8087 234.74H54.8116Z" fill="#DAD9DB"/>
</g>
<path d="M96.79 166.07C94.9653 164.155 91.8413 164.19 89.8128 166.149C87.8168 168.138 87.9201 171.205 89.9161 172.881C91.9387 174.581 94.9328 174.424 96.7251 172.642C98.5439 170.886 98.5705 167.938 96.79 166.067V166.07Z" fill="#B7B7B7"/>
<g style="mix-blend-mode:overlay" opacity="0.3">
<path d="M89.9131 172.88C87.9171 171.207 87.8167 168.141 89.8128 166.155C91.6582 164.387 94.3776 164.157 96.2319 165.588C94.664 164.889 92.7743 165.252 91.419 166.535C90.9761 166.96 90.6366 167.447 90.4151 167.961C90.2084 168.489 90.108 169.044 90.1198 169.587C90.1405 170.676 90.6041 171.723 91.481 172.491C92.6828 173.541 94.3333 173.822 95.7388 173.379C93.9938 174.43 91.5873 174.291 89.9161 172.877L89.9131 172.88Z" fill="black"/>
</g>
<g style="mix-blend-mode:overlay" opacity="0.3">
<path d="M93.8697 166.386C92.3019 166.584 93.5568 167.844 93.7812 169.449C93.9849 171.04 93.1818 172.444 94.6847 172.22C96.2112 172.025 97.2476 170.641 97.0291 169.018C96.8136 167.401 95.4317 166.191 93.8668 166.386H93.8697Z" fill="#DAD9DB"/>
</g>
<path d="M96.1848 189.029C94.36 187.114 91.2361 187.15 89.2076 189.112C87.2116 191.101 87.3149 194.167 89.3109 195.843C91.3335 197.543 94.3305 197.387 96.1198 195.604C97.9387 193.848 97.9653 190.9 96.1848 189.029Z" fill="#B7B7B7"/>
<g style="mix-blend-mode:overlay" opacity="0.3">
<path d="M89.3111 195.84C87.3151 194.164 87.2147 191.101 89.2107 189.115C91.0561 187.347 93.7756 187.117 95.6299 188.548C94.062 187.849 92.1723 188.212 90.817 189.495C90.3741 189.92 90.0345 190.407 89.8131 190.921C89.6064 191.449 89.506 192.004 89.5178 192.547C89.5385 193.636 90.002 194.683 90.879 195.451C92.0807 196.501 93.7313 196.782 95.1368 196.339C93.3917 197.39 90.9853 197.251 89.3141 195.837L89.3111 195.84Z" fill="black"/>
</g>
<g style="mix-blend-mode:overlay" opacity="0.3">
<path d="M93.2648 189.345C91.6969 189.543 92.9518 190.803 93.1762 192.408C93.3799 193.999 92.5768 195.403 94.0797 195.179C95.6063 194.984 96.6426 193.6 96.4241 191.977C96.2086 190.36 94.8267 189.15 93.2618 189.345H93.2648Z" fill="#DAD9DB"/>
</g>
<path d="M95.5708 212.442C93.746 210.527 90.6221 210.563 88.5936 212.525C86.5975 214.514 86.7009 217.58 88.6969 219.256C90.7195 220.956 93.7135 220.8 95.5058 219.017C97.3247 217.262 97.3513 214.313 95.5708 212.442Z" fill="#B7B7B7"/>
<g style="mix-blend-mode:overlay" opacity="0.3">
<path d="M88.6939 219.253C86.6979 217.58 86.5975 214.514 88.5935 212.528C90.439 210.76 93.1584 210.53 95.0127 211.961C93.4448 211.262 91.5551 211.625 90.1998 212.909C89.7569 213.334 89.4173 213.82 89.1959 214.334C88.9892 214.862 88.8888 215.417 88.9006 215.96C88.9213 217.049 89.3848 218.097 90.2618 218.864C91.4635 219.914 93.1141 220.195 94.5196 219.752C92.7745 220.803 90.3681 220.664 88.6969 219.25L88.6939 219.253Z" fill="black"/>
</g>
<g style="mix-blend-mode:overlay" opacity="0.3">
<path d="M92.6473 212.758C91.0794 212.956 92.3343 214.216 92.5588 215.821C92.7625 217.412 91.9594 218.816 93.4652 218.592C94.9918 218.397 96.0282 217.013 95.8097 215.39C95.5941 213.773 94.2123 212.563 92.6473 212.758Z" fill="#DAD9DB"/>
</g>
<path d="M94.977 234.949C93.1523 233.033 90.0283 233.069 87.9998 235.028C86.0038 237.017 86.1071 240.084 88.1032 241.76C90.1258 243.46 93.1227 243.303 94.9121 241.521C96.7309 239.765 96.7575 236.817 94.977 234.946V234.949Z" fill="#B7B7B7"/>
<g style="mix-blend-mode:overlay" opacity="0.3">
<path d="M88.1033 241.759C86.1073 240.086 86.0069 237.02 88.0029 235.034C89.8484 233.266 92.5678 233.036 94.4221 234.467C92.8542 233.768 90.9645 234.131 89.6092 235.414C89.1663 235.839 88.8267 236.326 88.6053 236.84C88.3986 237.368 88.2982 237.923 88.31 238.466C88.3307 239.555 88.7943 240.602 89.6712 241.37C90.873 242.42 92.5235 242.701 93.929 242.258C92.184 243.309 89.7775 243.17 88.1063 241.756L88.1033 241.759Z" fill="black"/>
</g>
<g style="mix-blend-mode:overlay" opacity="0.3">
<path d="M92.057 235.264C90.4891 235.461 91.744 236.722 91.9684 238.327C92.1722 239.918 91.369 241.322 92.8719 241.098C94.3985 240.903 95.4349 239.519 95.2164 237.896C95.0008 236.279 93.619 235.069 92.0541 235.264H92.057Z" fill="#DAD9DB"/>
</g>
<g style="mix-blend-mode:overlay" opacity="0.2">
<path d="M103.386 177.304L101.96 231.515C101.517 241.793 92.9044 249.876 82.5552 249.605L63.1383 249.094C57.0262 248.935 51.673 245.895 48.3364 241.312C49.3226 241.569 50.3472 241.711 51.4072 241.74L81.4509 242.531C83.6566 242.59 85.7589 242.133 87.6191 241.277H87.6279C88.0856 241.067 88.5344 240.84 88.9655 240.572C90.0698 239.917 91.0737 239.105 91.9389 238.175C92.6534 237.405 93.2735 236.564 93.7873 235.643C94.0087 235.254 94.2036 234.855 94.3689 234.445L94.3778 234.436V234.428C95.0038 232.981 95.364 231.412 95.4053 229.756L97.1179 164.623C97.1327 164.083 97.1179 163.546 97.0648 163.023C100.998 166.526 103.446 171.644 103.384 177.304H103.386Z" fill="black"/>
</g>
<path d="M2.23891 230.116L30.5759 230.86C31.8456 230.892 32.9026 229.892 32.9351 228.623L34.3317 175.495C34.3642 174.226 33.3633 173.169 32.0936 173.137L3.7566 172.393C2.48694 172.361 1.42987 173.361 1.39739 174.63L0.000768585 227.758C-0.0317111 229.027 0.969252 230.084 2.23891 230.116Z" fill="#C9C9C9"/>
<g style="mix-blend-mode:overlay" opacity="0.2">
<path d="M34.193 180.691L33.068 223.426C32.9588 227.563 29.5219 230.833 25.3822 230.724L7.43865 230.252C3.72416 230.154 0.712407 227.368 0.210449 223.812C0.612016 223.889 1.02539 223.939 1.45058 223.951L19.3941 224.423C23.5338 224.533 26.9825 221.263 27.0888 217.125L28.2138 174.382C28.2256 173.96 28.1961 173.544 28.14 173.14C31.6655 173.818 34.2905 176.979 34.193 180.691Z" fill="black"/>
</g>
<path d="M10.1847 178.583C8.69953 177.025 6.15725 177.052 4.5067 178.648C2.87976 180.266 2.96539 182.762 4.58937 184.128C6.23402 185.513 8.67295 185.386 10.1316 183.934C11.6138 182.502 11.6316 180.103 10.1847 178.583Z" fill="#B7B7B7"/>
<g style="mix-blend-mode:overlay" opacity="0.3">
<path d="M4.58946 184.126C2.96548 182.763 2.8828 180.266 4.50678 178.652C6.00971 177.215 8.22127 177.026 9.7301 178.192C8.45454 177.622 6.91323 177.917 5.81187 178.965C5.45165 179.313 5.17705 179.706 4.99398 180.128C4.82567 180.558 4.743 181.01 4.75186 181.453C4.76957 182.338 5.14457 183.191 5.85912 183.816C6.83941 184.672 8.18289 184.899 9.32263 184.539C7.90238 185.395 5.94475 185.283 4.58355 184.129L4.58946 184.126Z" fill="black"/>
</g>
<g style="mix-blend-mode:overlay" opacity="0.3">
<path d="M7.80778 178.841C6.53222 179 7.55385 180.027 7.73692 181.335C7.90227 182.63 7.24972 183.772 8.47214 183.589C9.71522 183.43 10.5567 182.303 10.3796 180.984C10.2054 179.667 9.08039 178.682 7.80483 178.841H7.80778Z" fill="#DAD9DB"/>
</g>
<path d="M29.4745 179.213C27.9893 177.655 25.447 177.685 23.7965 179.278C22.1696 180.895 22.2552 183.392 23.8792 184.758C25.5238 186.142 27.9627 186.015 29.4214 184.563C30.9036 183.132 30.9213 180.733 29.4745 179.213Z" fill="#B7B7B7"/>
<g style="mix-blend-mode:overlay" opacity="0.3">
<path d="M23.8763 184.758C22.2523 183.395 22.1697 180.898 23.7936 179.284C25.2966 177.847 27.5081 177.658 29.017 178.824C27.7414 178.254 26.2001 178.549 25.0987 179.597C24.7385 179.945 24.4639 180.337 24.2808 180.759C24.1125 181.19 24.0299 181.642 24.0387 182.084C24.0564 182.97 24.4314 183.823 25.146 184.448C26.1263 185.304 27.4698 185.531 28.6095 185.171C27.1892 186.027 25.2316 185.915 23.8704 184.761L23.8763 184.758Z" fill="black"/>
</g>
<g style="mix-blend-mode:overlay" opacity="0.3">
<path d="M27.0978 179.47C25.8223 179.629 26.8439 180.656 27.027 181.964C27.1923 183.259 26.5398 184.401 27.7622 184.218C29.0053 184.059 29.8468 182.932 29.6696 181.613C29.4954 180.296 28.3704 179.311 27.0949 179.47H27.0978Z" fill="#DAD9DB"/>
</g>
<path d="M9.72697 219.59C8.24176 218.032 5.69949 218.061 4.04893 219.655C2.422 221.272 2.50763 223.769 4.13161 225.135C5.77626 226.519 8.21519 226.392 9.67382 224.94C11.1561 223.509 11.1738 221.11 9.72697 219.59Z" fill="#B7B7B7"/>
<g style="mix-blend-mode:overlay" opacity="0.3">
<path d="M4.12877 225.135C2.50478 223.772 2.42211 221.278 4.04609 219.661C5.54901 218.224 7.76058 218.035 9.26941 219.2C7.99384 218.631 6.45254 218.926 5.35118 219.974C4.99095 220.322 4.71635 220.714 4.53329 221.136C4.36498 221.567 4.28231 222.019 4.29116 222.461C4.30888 223.347 4.68387 224.2 5.39842 224.825C6.37872 225.681 7.7222 225.908 8.86194 225.548C7.44169 226.404 5.48405 226.292 4.12286 225.138L4.12877 225.135Z" fill="black"/>
</g>
<g style="mix-blend-mode:overlay" opacity="0.3">
<path d="M7.34709 219.847C6.07153 220.006 7.09316 221.033 7.27623 222.341C7.44158 223.636 6.78903 224.778 8.01145 224.595C9.25453 224.436 10.096 223.309 9.91889 221.989C9.74468 220.673 8.6197 219.688 7.34414 219.847H7.34709Z" fill="#DAD9DB"/>
</g>
<path d="M29.0138 220.222C27.5286 218.664 24.9864 218.693 23.3358 220.287C21.7089 221.904 21.7945 224.401 23.4185 225.767C25.0631 227.151 27.5021 227.024 28.9607 225.572C30.4429 224.141 30.4607 221.742 29.0138 220.222Z" fill="#B7B7B7"/>
<g style="mix-blend-mode:overlay" opacity="0.3">
<path d="M23.4186 225.764C21.7946 224.401 21.7119 221.904 23.3359 220.29C24.8388 218.853 27.0504 218.664 28.5592 219.829C27.2836 219.26 25.7423 219.555 24.641 220.603C24.2807 220.951 24.0061 221.343 23.8231 221.765C23.6548 222.196 23.5721 222.648 23.581 223.09C23.5987 223.976 23.9737 224.829 24.6882 225.454C25.6685 226.31 27.012 226.537 28.1517 226.177C26.7315 227.033 24.7738 226.921 23.4127 225.767L23.4186 225.764Z" fill="black"/>
</g>
<g style="mix-blend-mode:overlay" opacity="0.3">
<path d="M26.6371 220.479C25.3616 220.638 26.3832 221.665 26.5663 222.972C26.7316 224.268 26.0791 225.41 27.3015 225.227C28.5446 225.068 29.3861 223.94 29.2089 222.621C29.0347 221.305 27.9097 220.319 26.6342 220.479H26.6371Z" fill="#DAD9DB"/>
</g>
<path d="M269.112 9.30191L268.469 27.2297C268.457 27.6517 268.389 28.0648 268.312 28.4662C268.3 28.5134 268.292 28.5606 268.28 28.6108C268.247 28.7731 268.203 28.9265 268.162 29.0711C268.097 29.3013 268.026 29.5197 267.931 29.7292C267.858 29.9387 267.766 30.1306 267.666 30.3283C267.574 30.5171 267.474 30.709 267.353 30.889C267.24 31.0779 267.122 31.249 266.992 31.429C266.783 31.7123 266.555 31.975 266.307 32.2199C266.239 32.2937 266.169 32.3616 266.101 32.4265C265.932 32.577 265.764 32.7245 265.599 32.8573C265.194 33.1731 264.763 33.4505 264.305 33.6718C264.178 33.7456 264.031 33.8076 263.895 33.8637C263.319 34.1086 262.708 34.2857 262.07 34.3742C261.896 34.4096 261.713 34.4214 261.53 34.4362C261.258 34.4568 260.981 34.4598 260.7 34.4539L246.873 33.9551L244.534 33.8755L240.722 33.7368L238.759 33.6659L232.859 33.4535H232.85L217.954 32.9164C217.857 32.9164 217.753 32.9105 217.656 32.8898C217.609 32.8898 217.558 32.8898 217.511 32.8751C217.299 32.8692 217.098 32.8367 216.897 32.7924C216.628 32.7482 216.36 32.6832 216.103 32.6065C215.979 32.574 215.864 32.5327 215.748 32.4914C215.633 32.4501 215.518 32.4088 215.406 32.3675C215.179 32.276 214.957 32.1727 214.75 32.0606C214.532 31.9484 214.322 31.8274 214.124 31.6976C213.927 31.5677 213.738 31.4261 213.549 31.2785C213.36 31.128 213.182 30.9716 213.011 30.8034C212.926 30.7237 212.843 30.6352 212.757 30.5467C212.016 29.7676 211.455 28.8262 211.116 27.7992C211.036 27.5661 210.974 27.3329 210.912 27.091C210.773 26.4712 210.705 25.8249 210.732 25.161L211.375 7.23321C211.381 7.05025 211.396 6.86728 211.42 6.68431C211.446 6.39511 211.494 6.11771 211.558 5.84031C211.603 5.63078 211.665 5.43011 211.73 5.22944C211.857 4.81039 212.031 4.40904 212.235 4.0195C212.438 3.62996 212.669 3.26993 212.937 2.93055C213.327 2.42002 213.791 1.9626 214.302 1.56126C214.47 1.43141 214.644 1.30156 214.83 1.18942C215.683 0.643476 216.646 0.265739 217.682 0.100479C217.759 0.0916259 217.827 0.0857238 217.895 0.0768706V0.0680173C218.3 0.0208002 218.725 -0.00575938 219.15 0.0148981L232.691 0.504776H232.7L238.599 0.717253L240.563 0.788078L244.366 0.917925L246.713 1.00941L261.899 1.55241C266.036 1.69996 269.269 5.17337 269.121 9.30782L269.112 9.30191Z" fill="#C9C9C9"/>
<g style="mix-blend-mode:overlay" opacity="0.2">
<path d="M260.697 34.4484L217.951 32.905C213.814 32.7544 210.575 29.2869 210.726 25.1525L211.372 7.22475C211.505 3.5123 214.322 0.53172 217.886 0.0625C217.803 0.463845 217.75 0.876995 217.735 1.299L217.089 19.2267C216.938 23.3612 220.177 26.8405 224.314 26.991L267.069 28.5344C267.491 28.5492 267.908 28.5256 268.315 28.4724C267.601 31.9901 264.415 34.5812 260.7 34.4484H260.697Z" fill="black"/>
</g>
<path d="M263.042 10.4737C264.615 9.00402 264.612 6.46315 263.03 4.79875C261.426 3.15796 258.928 3.21698 257.547 4.82826C256.147 6.4602 256.247 8.89779 257.685 10.3704C259.103 11.8636 261.503 11.9079 263.039 10.4766L263.042 10.4737Z" fill="#B7B7B7"/>
<g style="mix-blend-mode:overlay" opacity="0.3">
<path d="M257.55 4.82762C258.928 3.21928 261.426 3.16026 263.03 4.80106C264.453 6.31496 264.618 8.53121 263.44 10.0274C264.022 8.75844 263.741 7.21503 262.705 6.10543C262.362 5.74245 261.97 5.4621 261.55 5.27618C261.119 5.10207 260.671 5.01944 260.228 5.02239C259.342 5.03124 258.486 5.39717 257.851 6.10543C256.986 7.07633 256.743 8.41612 257.092 9.56113C256.25 8.13281 256.38 6.17626 257.547 4.82762H257.55Z" fill="black"/>
</g>
<g style="mix-blend-mode:overlay" opacity="0.3">
<path d="M262.809 8.09537C262.661 6.82051 261.625 7.82977 260.314 7.99798C259.017 8.15144 257.881 7.48745 258.049 8.71214C258.196 9.95454 259.316 10.8104 260.638 10.6451C261.958 10.4828 262.953 9.37023 262.806 8.09537H262.809Z" fill="#DAD9DB"/>
</g>
<path d="M262.221 29.7471C263.795 28.2775 263.792 25.7366 262.209 24.0722C260.606 22.4314 258.108 22.4904 256.726 24.1017C255.326 25.7336 255.427 28.1712 256.865 29.6438C258.282 31.137 260.682 31.1813 262.218 29.75L262.221 29.7471Z" fill="#B7B7B7"/>
<g style="mix-blend-mode:overlay" opacity="0.3">
<path d="M256.732 24.0991C258.111 22.4908 260.609 22.4317 262.212 24.0725C263.635 25.5864 263.8 27.8027 262.622 29.2989C263.204 28.0299 262.923 26.4865 261.887 25.3769C261.545 25.0139 261.152 24.7336 260.733 24.5477C260.301 24.3736 259.853 24.2909 259.41 24.2939C258.524 24.3027 257.668 24.6687 257.033 25.3769C256.168 26.3478 255.926 27.6876 256.274 28.8326C255.432 27.4043 255.562 25.4477 256.729 24.0991H256.732Z" fill="black"/>
</g>
<g style="mix-blend-mode:overlay" opacity="0.3">
<path d="M261.988 27.3688C261.84 26.0939 260.804 27.1032 259.493 27.2714C258.196 27.4249 257.059 26.7579 257.228 27.9856C257.375 29.228 258.494 30.0838 259.817 29.9185C261.137 29.7562 262.132 28.6437 261.985 27.3688H261.988Z" fill="#DAD9DB"/>
</g>
<path d="M222.02 9.61526C223.594 8.14563 223.591 5.60475 222.008 3.94035C220.405 2.29956 217.907 2.35858 216.525 3.96986C215.125 5.6018 215.226 8.03939 216.664 9.51197C218.081 11.0052 220.481 11.0495 222.017 9.61821L222.02 9.61526Z" fill="#B7B7B7"/>
<g style="mix-blend-mode:overlay" opacity="0.3">
<path d="M216.528 3.96727C217.907 2.35893 220.405 2.29991 222.008 3.94071C223.431 5.4546 223.597 7.67086 222.419 9.16705C223 7.89809 222.72 6.35468 221.683 5.24508C221.341 4.8821 220.948 4.60175 220.529 4.41583C220.098 4.24171 219.649 4.15909 219.206 4.16204C218.32 4.17089 217.464 4.53682 216.829 5.24508C215.964 6.21598 215.722 7.55577 216.07 8.70078C215.229 7.27246 215.359 5.3159 216.525 3.96727H216.528Z" fill="black"/>
</g>
<g style="mix-blend-mode:overlay" opacity="0.3">
<path d="M221.787 7.23404C221.639 5.95918 220.603 6.96845 219.292 7.13666C217.995 7.29011 216.859 6.62612 217.027 7.85082C217.174 9.09322 218.294 9.94903 219.616 9.78377C220.936 9.62146 221.931 8.5089 221.784 7.23404H221.787Z" fill="#DAD9DB"/>
</g>
<path d="M221.199 28.8848C222.773 27.4152 222.77 24.8743 221.187 23.2099C219.584 21.5691 217.086 21.6281 215.704 23.2394C214.305 24.8713 214.405 27.3089 215.843 28.7815C217.26 30.2747 219.661 30.319 221.196 28.8877L221.199 28.8848Z" fill="#B7B7B7"/>
<g style="mix-blend-mode:overlay" opacity="0.3">
<path d="M215.707 23.2368C217.086 21.6285 219.584 21.5694 221.184 23.2102C222.607 24.7241 222.773 26.9404 221.595 28.4366C222.176 27.1676 221.896 25.6242 220.859 24.5146C220.517 24.1516 220.124 23.8713 219.705 23.6854C219.277 23.5112 218.825 23.4286 218.382 23.4316C217.496 23.4404 216.64 23.8064 216.005 24.5146C215.14 25.4855 214.898 26.8253 215.246 27.9703C214.405 26.542 214.535 24.5854 215.704 23.2368H215.707Z" fill="black"/>
</g>
<g style="mix-blend-mode:overlay" opacity="0.3">
<path d="M220.966 26.5065C220.818 25.2316 219.782 26.2409 218.471 26.4091C217.175 26.5626 216.038 25.8986 216.206 27.1233C216.354 28.3657 217.473 29.2215 218.796 29.0562C220.115 28.8939 221.11 27.7814 220.963 26.5065H220.966Z" fill="#DAD9DB"/>
</g>
<path d="M270.911 389.848L270.267 407.776C270.255 408.198 270.187 408.611 270.11 409.012V409.021C270.054 409.281 269.992 409.529 269.907 409.768C269.874 409.9 269.824 410.036 269.771 410.169C269.75 410.237 269.729 410.302 269.688 410.358C269.626 410.538 269.543 410.709 269.464 410.871C269.381 411.042 269.292 411.205 269.192 411.364C269.163 411.42 269.121 411.479 269.083 411.535C268.991 411.686 268.891 411.827 268.793 411.969C268.664 412.14 268.534 412.3 268.395 412.459C268.235 412.639 268.079 412.807 267.899 412.966C267.76 413.096 267.612 413.22 267.465 413.341C266.765 413.902 265.974 414.342 265.1 414.616C264.964 414.669 264.819 414.714 264.671 414.749C264.612 414.767 264.544 414.784 264.468 414.793C264.332 414.837 264.187 414.864 264.031 414.879C263.981 414.896 263.924 414.914 263.865 414.914C263.691 414.95 263.508 414.961 263.325 414.976C263.053 414.997 262.776 415 262.495 414.994L248.387 414.489L246.329 414.415L246.061 414.41L242.52 414.277L242.252 414.271L240.279 414.2L234.389 413.988L219.752 413.459C219.655 413.459 219.551 413.453 219.454 413.433C219.407 413.433 219.356 413.433 219.309 413.421C219.203 413.421 219.097 413.406 219.002 413.394H218.993C218.887 413.383 218.792 413.359 218.695 413.338C218.426 413.294 218.158 413.229 217.901 413.152C217.777 413.12 217.662 413.079 217.546 413.037C217.431 412.996 217.316 412.955 217.204 412.913C216.977 412.822 216.755 412.719 216.548 412.606C216.33 412.494 216.12 412.373 215.922 412.243C215.725 412.114 215.536 411.972 215.347 411.824H215.338C215.149 411.665 214.981 411.518 214.812 411.349C214.727 411.27 214.644 411.181 214.558 411.093C214.266 410.797 214.015 410.482 213.802 410.148C213.655 409.933 213.516 409.697 213.386 409.464C213.321 409.337 213.268 409.219 213.212 409.104C213.094 408.85 213.002 408.608 212.914 408.345C212.834 408.112 212.772 407.879 212.71 407.637C212.651 407.348 212.601 407.038 212.559 406.737C212.53 406.4 212.509 406.052 212.53 405.707L213.174 387.779C213.179 387.519 213.206 387.269 213.241 387.021C213.265 386.847 213.298 386.667 213.333 386.492C213.365 386.321 213.41 386.147 213.463 385.985C213.484 385.908 213.504 385.84 213.525 385.775C213.652 385.356 213.826 384.955 214.03 384.565C214.13 384.377 214.234 384.185 214.352 384.005C214.473 383.825 214.603 383.645 214.733 383.476C214.833 383.353 214.93 383.223 215.043 383.099C215.143 382.987 215.261 382.863 215.37 382.75C215.471 382.647 215.577 382.544 215.686 382.461C215.825 382.331 215.952 382.219 216.1 382.107C216.238 382.004 216.383 381.904 216.531 381.8C216.746 381.662 216.962 381.532 217.186 381.414C217.372 381.313 217.576 381.222 217.771 381.139C217.957 381.057 218.152 380.986 218.344 380.924C218.364 380.924 218.373 380.915 218.382 380.915C218.595 380.844 218.81 380.782 219.023 380.738C219.043 380.729 219.07 380.729 219.091 380.72C219.218 380.685 219.354 380.661 219.478 380.643C219.545 380.635 219.604 380.629 219.661 380.62C219.661 380.62 219.667 380.62 219.681 380.62H219.69V380.611C220.095 380.564 220.52 380.537 220.945 380.558L234.214 381.042L234.495 381.048L240.114 381.254L240.394 381.26L242.089 381.325L242.358 381.331L245.898 381.452L246.158 381.458L248.228 381.541L248.508 381.546L263.694 382.089C267.834 382.237 271.064 385.71 270.916 389.845L270.911 389.848Z" fill="#C9C9C9"/>
<g style="mix-blend-mode:overlay" opacity="0.2">
<path d="M270.107 409.024C270.051 409.284 269.989 409.532 269.904 409.771C269.871 409.904 269.821 410.039 269.768 410.172C269.747 410.24 269.727 410.305 269.685 410.361C269.623 410.541 269.541 410.712 269.461 410.874C269.378 411.046 269.29 411.208 269.189 411.367C269.16 411.423 269.118 411.482 269.08 411.538C268.988 411.689 268.888 411.831 268.791 411.972C268.661 412.143 268.531 412.303 268.392 412.462C268.232 412.642 268.076 412.81 267.896 412.97C267.757 413.1 267.609 413.224 267.462 413.345C266.762 413.905 265.971 414.345 265.097 414.619C264.961 414.672 264.816 414.717 264.669 414.752C264.61 414.77 264.542 414.788 264.465 414.796C264.329 414.841 264.184 414.867 264.028 414.882C263.978 414.9 263.922 414.917 263.862 414.917C263.688 414.953 263.505 414.965 263.322 414.979C263.05 415 262.773 415.003 262.492 414.997L248.384 414.492L246.326 414.419L246.058 414.401L242.517 414.28L242.249 414.274L240.276 414.203L234.386 413.991L219.749 413.463C219.498 413.457 219.25 413.43 218.999 413.395H218.99C218.884 413.383 218.79 413.359 218.692 413.339C218.657 413.333 218.624 413.321 218.592 413.315C218.364 413.271 218.137 413.224 217.916 413.159C217.91 413.159 217.904 413.159 217.898 413.156C217.774 413.123 217.659 413.082 217.544 413.041C217.428 412.999 217.313 412.958 217.201 412.917C216.974 412.825 216.752 412.722 216.546 412.61C216.327 412.498 216.117 412.377 215.92 412.247C215.722 412.117 215.533 411.975 215.344 411.828H215.335C215.146 411.668 214.978 411.521 214.809 411.353C214.724 411.273 214.641 411.184 214.555 411.096C214.263 410.801 214.012 410.485 213.8 410.151C213.652 409.936 213.513 409.7 213.383 409.467C213.318 409.34 213.265 409.222 213.209 409.107C212.864 408.375 212.633 407.581 212.559 406.74C212.536 406.471 212.524 406.2 212.527 405.926C212.527 405.852 212.518 405.781 212.518 405.71L213.174 387.782C213.179 387.523 213.206 387.272 213.241 387.024C213.265 386.85 213.298 386.67 213.333 386.496C213.365 386.325 213.41 386.15 213.463 385.988C213.484 385.911 213.504 385.843 213.525 385.779C213.563 385.652 213.614 385.531 213.658 385.41C213.681 385.351 213.699 385.286 213.723 385.227C213.814 385.002 213.915 384.784 214.027 384.569C214.127 384.38 214.231 384.188 214.349 384.008C214.47 383.828 214.6 383.648 214.73 383.48C214.83 383.356 214.927 383.226 215.04 383.102C215.14 382.99 215.258 382.866 215.367 382.754C215.468 382.65 215.574 382.547 215.683 382.465C215.822 382.335 215.949 382.223 216.097 382.11C216.236 382.007 216.38 381.907 216.528 381.803C216.743 381.665 216.959 381.535 217.183 381.417C217.369 381.317 217.573 381.225 217.768 381.142C217.954 381.06 218.149 380.989 218.341 380.927C218.361 380.927 218.37 380.918 218.379 380.918C218.592 380.847 218.807 380.785 219.02 380.741C219.041 380.732 219.067 380.732 219.088 380.723C219.271 380.679 219.466 380.656 219.658 380.623C219.658 380.623 219.665 380.623 219.678 380.623C219.602 381.024 219.543 381.429 219.531 381.851L219.463 383.648L219.413 385.147L219.318 387.647L219.25 389.482L219.209 390.666L218.884 399.775C218.849 400.797 219.014 401.77 219.357 402.668C219.528 403.143 219.746 403.582 220.006 404.004C220.856 405.365 222.129 406.439 223.644 407.035C223.806 407.097 223.96 407.15 224.131 407.203C224.751 407.401 225.412 407.516 226.106 407.543L234.353 407.838L240.244 408.059L242.216 408.13L246.028 408.26L248.367 408.351L257.75 408.694L257.933 408.7L259.07 408.738L263.662 408.906L264.672 408.941L264.931 408.947L268.867 409.089C269.29 409.101 269.706 409.071 270.11 409.024H270.107Z" fill="black"/>
</g>
<path d="M264.834 391.025C266.408 389.556 266.405 387.015 264.822 385.351C263.219 383.71 260.721 383.769 259.339 385.38C257.94 387.012 258.04 389.45 259.478 390.922C260.895 392.415 263.296 392.46 264.831 391.028L264.834 391.025Z" fill="#B7B7B7"/>
<g style="mix-blend-mode:overlay" opacity="0.3">
<path d="M259.342 385.377C260.721 383.769 263.219 383.71 264.822 385.351C266.245 386.865 266.411 389.081 265.233 390.577C265.814 389.308 265.534 387.765 264.497 386.655C264.155 386.292 263.762 386.012 263.343 385.826C262.915 385.652 262.463 385.569 262.02 385.572C261.134 385.581 260.278 385.947 259.643 386.655C258.778 387.626 258.536 388.966 258.884 390.111C258.043 388.683 258.173 386.726 259.339 385.377H259.342Z" fill="black"/>
</g>
<g style="mix-blend-mode:overlay" opacity="0.3">
<path d="M264.601 388.647C264.453 387.372 263.417 388.382 262.106 388.55C260.81 388.703 259.673 388.039 259.841 389.264C259.989 390.506 261.108 391.362 262.431 391.197C263.75 391.035 264.745 389.922 264.598 388.647H264.601Z" fill="#DAD9DB"/>
</g>
<path d="M264.016 410.299C265.59 408.829 265.587 406.288 264.007 404.624C262.404 402.983 259.906 403.042 258.524 404.653C257.124 406.285 257.225 408.723 258.663 410.196C260.08 411.689 262.481 411.733 264.016 410.302V410.299Z" fill="#B7B7B7"/>
<g style="mix-blend-mode:overlay" opacity="0.3">
<path d="M258.524 404.651C259.903 403.043 262.401 402.984 264.001 404.624C265.424 406.138 265.59 408.354 264.412 409.851C264.993 408.582 264.713 407.038 263.676 405.929C263.334 405.566 262.941 405.285 262.522 405.099C262.094 404.925 261.642 404.843 261.199 404.846C260.313 404.854 259.457 405.22 258.822 405.929C257.957 406.9 257.715 408.239 258.063 409.384C257.222 407.956 257.352 406.002 258.518 404.651H258.524Z" fill="black"/>
</g>
<g style="mix-blend-mode:overlay" opacity="0.3">
<path d="M263.783 407.918C263.635 406.643 262.599 407.652 261.288 407.82C259.991 407.974 258.855 407.31 259.023 408.534C259.171 409.777 260.29 410.633 261.612 410.467C262.932 410.305 263.927 409.193 263.78 407.918H263.783Z" fill="#DAD9DB"/>
</g>
<path d="M223.812 390.163C225.386 388.693 225.383 386.153 223.803 384.488C222.2 382.847 219.702 382.906 218.32 384.518C216.92 386.15 217.021 388.587 218.459 390.06C219.876 391.553 222.277 391.597 223.812 390.166V390.163Z" fill="#B7B7B7"/>
<g style="mix-blend-mode:overlay" opacity="0.3">
<path d="M218.32 384.515C219.699 382.907 222.197 382.848 223.8 384.489C225.223 386.002 225.389 388.219 224.211 389.715C224.792 388.446 224.512 386.903 223.475 385.793C223.133 385.43 222.74 385.15 222.321 384.964C221.893 384.79 221.441 384.707 220.998 384.71C220.112 384.719 219.256 385.085 218.621 385.793C217.756 386.764 217.514 388.104 217.862 389.249C217.021 387.82 217.151 385.864 218.317 384.515H218.32Z" fill="black"/>
</g>
<g style="mix-blend-mode:overlay" opacity="0.3">
<path d="M223.579 387.785C223.431 386.51 222.395 387.519 221.084 387.687C219.787 387.841 218.651 387.177 218.819 388.402C218.966 389.644 220.086 390.5 221.408 390.335C222.728 390.172 223.723 389.06 223.576 387.785H223.579Z" fill="#DAD9DB"/>
</g>
<path d="M222.994 409.437C224.568 407.967 224.565 405.426 222.982 403.762C221.379 402.121 218.881 402.18 217.499 403.791C216.1 405.423 216.2 407.861 217.638 409.333C219.055 410.826 221.456 410.871 222.991 409.44L222.994 409.437Z" fill="#B7B7B7"/>
<g style="mix-blend-mode:overlay" opacity="0.3">
<path d="M217.502 403.789C218.881 402.18 221.379 402.121 222.983 403.762C224.406 405.276 224.571 407.492 223.393 408.988C223.975 407.719 223.694 406.176 222.658 405.066C222.315 404.703 221.923 404.423 221.503 404.237C221.072 404.063 220.623 403.98 220.181 403.983C219.295 403.992 218.438 404.358 217.804 405.066C216.938 406.037 216.696 407.377 217.045 408.522C216.203 407.094 216.333 405.137 217.499 403.789H217.502Z" fill="black"/>
</g>
<g style="mix-blend-mode:overlay" opacity="0.3">
<path d="M222.761 407.058C222.613 405.783 221.577 406.793 220.266 406.961C218.97 407.114 217.833 406.45 218.001 407.675C218.149 408.917 219.268 409.773 220.591 409.608C221.911 409.446 222.906 408.333 222.758 407.058H222.761Z" fill="#DAD9DB"/>
</g>
</g>
<defs>
<clipPath id="clip0_3_164922">
<rect width="413.379" height="415" fill="white"/>
</clipPath>
</defs>
</svg>
