<svg width="37" height="67" viewBox="0 0 37 67" fill="none" xmlns="http://www.w3.org/2000/svg">
<g clip-path="url(#clip0_1152_212740)">
<path d="M21.2742 58.3394C21.1889 60.3613 21.0404 62.3809 20.8292 64.3937C20.7767 64.8945 20.7155 65.434 20.6531 65.9525C20.811 66.1089 20.9753 66.2542 21.1399 66.3848C21.6895 66.8206 22.3399 67.1052 23.0123 66.9631C23.0849 66.4089 23.154 65.8544 23.2176 65.299C23.4221 63.5146 23.5765 61.7242 23.6819 59.9311C23.8924 56.3448 23.9042 52.7467 23.7179 49.1592C23.5272 45.4858 23.126 41.8228 22.5317 38.1929C22.2471 36.4529 21.9016 34.7242 21.5802 32.9909C21.2521 31.2219 20.965 29.5356 20.8082 27.8082C20.7648 27.3292 20.7332 26.8499 20.7111 26.3701H18.2461C18.3914 29.9825 19.1775 33.5205 19.8231 37.0652C21.0902 44.0216 21.5766 51.1946 21.275 58.3394H21.2742Z" fill="#BECE5F"/>
<g style="mix-blend-mode:overlay" opacity="0.2">
<path d="M23.0135 66.963C23.0861 66.4088 23.1552 65.8542 23.2188 65.2989C23.3937 63.7737 23.5315 62.2442 23.6338 60.7119C22.7912 60.6577 21.9549 60.4052 21.1909 59.999C21.1036 61.4664 20.984 62.9318 20.8304 64.3932C20.7779 64.8939 20.7167 65.4335 20.6543 65.952C20.8122 66.1084 20.9765 66.2536 21.1411 66.3843C21.6908 66.8201 22.3411 67.1047 23.0135 66.9626V66.963Z" fill="#000A33"/>
</g>
<path d="M26.5985 26.603C26.6972 26.1798 26.7782 25.7491 26.79 25.324C26.8035 24.8399 26.6582 24.4888 26.4126 24.0886C26.1993 23.7411 25.9711 23.4074 25.7149 23.0907C25.7022 23.0749 25.6916 23.0638 25.6825 23.0547C25.6588 23.0452 25.7074 23.0511 25.6087 23.0515C25.3706 23.0523 25.1364 23.065 24.8995 23.0899C24.4928 23.1331 24.0771 23.2296 23.6676 23.2257C23.6269 23.2257 23.5863 23.2241 23.5456 23.2225C23.452 24.0783 23.3201 24.927 23.0777 25.7519C22.5988 27.3831 21.8782 28.9419 20.998 30.3955C22.4392 29.7356 23.8058 28.8941 25.0918 27.9666C25.6477 27.5656 26.1476 27.1065 26.5989 26.603H26.5985Z" fill="#E24B00"/>
<path d="M31.1659 3.89876C30.332 4.3132 29.506 4.77158 28.8324 5.41561C28.1588 6.05963 27.6447 6.91305 27.5712 7.84287C27.1914 12.6396 24.2004 16.1946 23.7483 20.985C23.7124 21.3654 23.6812 21.7474 23.6484 22.1294C23.7369 22.1302 23.8245 22.127 23.9106 22.1191C24.3509 22.0771 24.7868 21.9984 25.2282 21.9695C25.5532 21.9481 25.9381 21.9331 26.2295 22.1048C26.515 22.2731 26.7184 22.5988 26.9055 22.8617C27.3434 23.4776 27.7698 24.12 27.8603 24.8804C28.8316 23.269 29.4685 21.4133 29.8811 19.5683C30.6009 16.3502 30.7663 13.0196 31.6085 9.83116C32.4507 6.6427 34.1257 3.47047 36.9986 1.86377C34.9718 2.412 33.0466 2.9638 31.1655 3.89876H31.1659Z" fill="#FFB717"/>
<g style="mix-blend-mode:overlay" opacity="0.3">
<path d="M36.4283 2.04789C35.5995 2.3226 34.7889 2.66064 34.0663 3.1586C33.1329 3.80184 32.3858 4.67664 31.6649 5.55262C30.5727 6.87907 29.5054 8.24589 28.7497 9.79005C27.7776 11.7771 27.3567 13.9895 27.1178 16.1895C26.8371 18.7731 26.794 21.3825 26.9887 23.974C27.2323 24.3596 27.468 24.7503 27.6967 25.1449C28.7604 23.4741 29.4454 21.5155 29.8809 19.5696C30.6007 16.3514 30.7662 13.0209 31.6084 9.8324C32.449 6.65027 34.1192 3.48438 36.9822 1.87451C36.8156 1.91924 36.6281 1.98218 36.4283 2.04828V2.04789Z" fill="#33032F"/>
</g>
<g style="mix-blend-mode:overlay" opacity="0.5">
<path d="M29.3802 10.5425C29.2364 8.82732 29.1922 7.0896 29.4279 5.38038C29.4465 5.2454 29.4935 5.05461 29.5539 4.83057C29.3008 5.00909 29.0584 5.20147 28.8341 5.41601C28.1605 6.06003 27.6464 6.91346 27.5729 7.84327C27.4442 9.46976 27.015 10.953 26.4863 12.3906C26.5207 13.2726 26.5811 14.1545 26.6423 15.0332C26.8334 17.7926 27.0249 20.552 27.216 23.3114C27.5303 23.7931 27.7937 24.3029 27.8624 24.8808C28.8337 23.2694 29.4706 21.4137 29.8832 19.5687C29.9452 19.2924 30.0016 19.015 30.0557 18.7371C30.0814 15.9963 29.6084 13.2749 29.3798 10.5421L29.3802 10.5425Z" fill="#33032F"/>
</g>
<path opacity="0.3" d="M28.8334 5.4157C28.1598 6.05972 27.6457 6.91315 27.5723 7.84297C27.4953 8.81593 27.3097 9.73704 27.0605 10.6285C28.5104 7.86038 30.7812 5.52297 33.525 4.03304C31.3655 5.95166 30.4467 8.92479 30.1301 11.7997C29.8134 14.6747 30.0002 17.5936 29.5832 20.4559C29.5489 20.6914 29.509 20.9257 29.4667 21.1601C29.6255 20.6328 29.7633 20.1004 29.8821 19.5688C30.6019 16.3507 30.7674 13.0201 31.6096 9.83165C32.4518 6.64319 34.1267 3.47096 36.9996 1.86426C34.9729 2.41249 33.0476 2.96429 31.1665 3.89925C30.3326 4.31369 29.5066 4.77207 28.833 5.4161L28.8334 5.4157Z" fill="#FFEB57"/>
<path d="M18.1826 21.2122C17.3747 20.0492 16.2956 19.0517 15.3006 18.0519C14.8805 17.6295 14.4592 17.2083 14.0414 16.7832C13.97 17.6517 13.9352 18.5225 13.9479 19.3965C14.0047 23.3857 14.9192 27.2297 17.6527 30.1296C18.3259 28.0127 18.9265 25.9413 19.3849 23.8746C19.1259 22.9349 18.7535 22.034 18.1826 21.2118V21.2122Z" fill="#E24B00"/>
<path d="M16.6793 17.8954C17.7052 18.9404 18.7744 19.9997 19.5139 21.2767C19.6138 21.4492 19.7066 21.6254 19.7939 21.8039C20.353 18.5553 20.5054 15.2845 19.981 11.8336C19.4472 8.32134 17.7593 5.18315 17.1374 1.68555C16.6707 3.65523 16.2036 5.6253 15.7369 7.59498C15.128 10.1644 14.5168 12.7547 14.1895 15.3696C15.0076 16.223 15.851 17.0515 16.6793 17.8954Z" fill="#FFAC06"/>
<g style="mix-blend-mode:overlay" opacity="0.3">
<path d="M15.7374 7.59511C15.0366 10.5524 14.333 13.5382 14.0625 16.5564C14.6575 16.385 15.2522 16.2133 15.8472 16.0415C16.3115 15.9077 17.0333 15.9587 17.0108 16.4424C17.1715 12.9876 17.0298 9.49037 17.0392 6.03156C17.0428 4.73084 17.0152 3.42379 17.0349 2.12109C16.6025 3.9459 16.1702 5.77031 15.7378 7.59511H15.7374Z" fill="#33032F"/>
</g>
<path opacity="0.3" d="M19.9619 11.7113C19.408 8.24851 17.7528 5.14238 17.138 1.68555C16.6713 3.65523 16.2042 5.6253 15.7375 7.59498C14.9521 10.9093 14.1632 14.2589 13.9844 17.6504C14.4835 15.7247 14.932 13.795 15.4311 11.8649C16.0087 9.5611 16.586 7.25733 17.1637 4.95357C18.6195 7.72046 19.5545 10.7613 19.9059 13.8698C19.9406 13.1505 19.9592 12.4309 19.9619 11.7109V11.7113Z" fill="#FFEB57"/>
<path d="M14.0991 27.2931C11.3964 26.0787 9.93471 23.1301 9.04631 20.2975C7.59249 15.6634 6.99114 10.5417 3.93029 6.7757C2.78761 5.3693 1.55727 4.34369 0 3.4206C1.61887 3.20685 3.30881 2.99903 4.84989 3.53975C6.04588 3.95933 7.04563 4.79494 7.9822 5.65034C9.52644 7.06071 11.0458 8.69314 11.4612 10.7455C12.5087 15.9175 11.7313 21.1885 13.2103 26.2536C13.3553 26.7496 13.685 26.9843 14.0988 27.2931H14.0991Z" fill="#FFB717"/>
<g style="mix-blend-mode:overlay" opacity="0.3">
<path d="M11.1954 19.412C10.5723 15.9382 9.75694 12.4235 7.9296 9.40647C7.04514 7.94623 5.90285 6.62691 4.54458 5.591C3.48956 4.78627 1.92913 3.76422 0.560592 3.67357C0.508078 3.67001 0.457933 3.66962 0.410156 3.6716C1.77632 4.53056 2.88979 5.49482 3.9302 6.77495C6.99105 10.5413 7.5924 15.6627 9.04622 20.2967C9.73799 22.5023 10.7776 24.778 12.4798 26.2509C11.9464 23.9994 11.6052 21.6928 11.1958 19.4116L11.1954 19.412Z" fill="#33032F"/>
</g>
<g style="mix-blend-mode:overlay" opacity="0.5">
<path d="M8.46713 6.10245C8.74707 7.31727 8.86948 8.56376 8.86869 9.83004C8.86671 12.3452 8.45015 14.8393 8.2168 17.3438C8.47661 18.3385 8.74313 19.3285 9.04676 20.2975C9.57822 21.9917 10.315 23.7274 11.3996 25.1085C11.2919 21.7875 11.8754 18.4252 11.892 15.0816C11.8952 14.4787 11.8794 13.8755 11.845 13.2734C11.7538 12.4291 11.6322 11.586 11.462 10.7456C11.0901 8.90853 9.83369 7.40831 8.46713 6.10205V6.10245Z" fill="#33032F"/>
</g>
<path opacity="0.3" d="M7.9822 5.64999C7.04563 4.79459 6.04588 3.95898 4.84989 3.5394C3.30841 2.99868 1.61887 3.2061 0 3.42025C1.55727 4.34334 2.78761 5.36855 3.93029 6.77496C6.79055 10.2947 7.50325 14.9981 8.7711 19.3812C8.37941 17.2504 8.15198 15.0745 7.70976 12.952C6.99074 9.49871 5.50494 5.93341 2.50766 4.08486C4.86766 4.06269 6.93625 5.3171 8.47773 7.10905C10.0192 8.9006 10.9183 11.1672 11.4663 13.4685C11.154 11.5741 10.7888 9.74056 10.159 7.97593C9.53157 7.12765 8.76044 6.36052 7.98259 5.65039L7.9822 5.64999Z" fill="#FFEB57"/>
<path d="M17.7887 30.1623C16.1343 30.247 13.062 27.9626 12.0003 26.6881C10.9389 25.4131 10.3557 23.802 10.0016 22.1799C9.40772 19.4597 9.40535 16.6493 9.40535 13.8649C9.40535 11.6732 9.40535 9.48146 9.40575 7.28972C9.40575 4.8288 9.39548 2.30654 8.53906 0C12.3146 2.07458 14.4566 6.35911 15.2056 10.6096C16.13 15.8584 15.1555 21.3177 16.205 26.5428C16.4593 27.8079 16.7262 29.4328 17.7883 30.1623H17.7887Z" fill="#FFC229"/>
<path opacity="0.5" d="M15.2056 10.6096C14.457 6.35911 12.3146 2.07458 8.53906 0C8.83362 0.793256 9.02828 1.61224 9.1566 2.44548C9.59054 2.83775 10.0213 3.23517 10.4071 3.69315C12.3406 5.98979 13.796 8.69137 14.6327 11.5786C15.2712 13.7826 15.5503 16.0626 15.6581 18.3597C15.6558 15.7606 15.655 13.1604 15.2056 10.61V10.6096Z" fill="#FFEB57"/>
<g style="mix-blend-mode:overlay" opacity="0.5">
<path d="M15.467 16.7696C15.5306 16.3809 15.5867 15.9906 15.636 15.5995C15.5985 13.9247 15.4955 12.2571 15.2056 10.61C14.457 6.35911 12.3146 2.07458 8.53906 0C8.7049 0.446503 8.83875 0.900923 8.94733 1.36168C9.89852 2.00451 10.8221 2.59273 11.5454 3.60052C12.5929 5.05958 13.6318 6.57167 14.3042 8.24724C15.3782 10.9235 15.4299 13.8847 15.467 16.7692V16.7696Z" fill="white"/>
</g>
<path d="M21.2852 30.5657C21.2852 30.5657 25.8259 30.3215 28.0891 24.2842C30.3524 18.2469 27.7768 5.49466 29.1817 0.878418C29.1817 0.878418 23.3285 3.31835 24.1091 14.0293C24.8897 24.7406 24.5486 28.1753 21.2852 30.5653V30.5657Z" fill="#FFC229"/>
<g style="mix-blend-mode:overlay" opacity="0.3">
<path d="M27.1249 6.79478C26.9216 8.02544 26.9026 9.27905 26.9121 10.5267C26.9239 12.101 26.9804 13.6748 27.0811 15.2455C27.2509 17.8897 27.5446 20.5671 27.0531 23.1705C26.5615 25.7739 25.1294 28.358 22.737 29.4837C22.6024 29.547 22.4657 29.6044 22.3279 29.6579C22.0196 29.9821 21.6733 30.2813 21.2852 30.5655C21.2852 30.5655 25.8259 30.3213 28.0891 24.284C30.3382 18.2847 27.8096 5.65517 29.1564 0.967285C28.0631 2.72717 27.4408 4.88052 27.1249 6.79439V6.79478Z" fill="#33032F"/>
</g>
<g style="mix-blend-mode:overlay" opacity="0.3">
<path d="M28.0891 24.2842C28.7623 22.4883 29.0075 20.0974 29.0565 17.5039C28.6806 20.5653 27.3433 23.7704 24.5963 25.14C24.4759 25.2001 24.3535 25.256 24.2299 25.3082C23.8434 27.8716 22.9403 29.3533 21.2852 30.5657C21.2852 30.5657 25.8259 30.3215 28.0891 24.2842Z" fill="#33032F"/>
</g>
<path opacity="0.5" d="M24.1088 14.0299C24.2746 16.3075 24.3899 18.2554 24.4369 19.9349C24.9984 18.9477 24.6474 17.4622 24.6355 16.3894C24.6122 14.2456 24.7109 12.0816 25.2412 9.9955C25.822 7.70954 26.9975 5.4889 28.7624 3.97444C28.8118 2.74655 28.9354 1.68769 29.1814 0.879395C29.1814 0.879395 23.3282 3.31933 24.1088 14.0303V14.0299Z" fill="#FFEB57"/>
<g style="mix-blend-mode:overlay" opacity="0.5">
<path d="M29.1814 0.878326C29.1814 0.878326 23.3282 3.31826 24.1088 14.0292C24.1984 15.2567 24.2726 16.388 24.3299 17.4334C24.3887 17.2034 24.4444 16.9995 24.4918 16.8404C24.0385 15.2222 24.1384 13.5047 24.3054 11.8323C24.5163 9.72328 24.8385 7.58972 25.7273 5.66636C26.4297 4.14674 27.5317 2.76013 28.9508 1.90829C29.0116 1.53145 29.0878 1.18629 29.1814 0.87793V0.878326Z" fill="white"/>
</g>
<path d="M20.9971 2.29395C20.7902 4.54942 18.6182 8.19151 17.4933 10.0777C16.3688 11.9638 15.1238 13.8904 14.9149 16.0777C14.6457 18.8957 16.1346 21.5383 16.9456 24.2502C17.5138 26.1506 17.7543 28.1488 17.6532 30.1299C18.4437 30.5863 19.2393 30.8947 20.1506 30.8527C21.0619 30.8108 21.9894 30.3314 22.3846 29.5073C23.6924 26.7796 25.0009 21.8051 25.4028 18.8055C26.0958 13.6374 21.3691 3.28433 20.9971 2.29434V2.29395Z" fill="#FFCE43"/>
<path opacity="0.5" d="M17.4932 10.0778C16.3687 11.9639 15.1238 13.8905 14.9149 16.0778C14.6993 18.3365 15.6126 20.4827 16.4015 22.6416C16.1061 21.5012 15.8242 20.3608 15.7085 19.165C15.4949 16.9526 15.7275 14.6445 16.7529 12.6737C18.1443 9.99899 20.9619 7.92045 21.1602 4.91012C23.8889 9.35259 25.2871 14.5832 25.2492 19.7967C25.3092 19.4484 25.3609 19.1159 25.4028 18.8055C26.0957 13.6375 21.369 3.28442 20.9971 2.29443C20.7902 4.54991 18.6181 8.192 17.4932 10.0782V10.0778Z" fill="#FFEB57"/>
<g style="mix-blend-mode:overlay" opacity="0.3">
<path d="M20.9969 2.29395C20.9827 2.44793 20.9586 2.60863 20.9274 2.77449C21.4032 5.07667 21.3369 7.58588 21.2772 9.85996C21.2291 11.6947 21.1011 13.5258 20.9716 15.3561C20.7782 18.091 20.5847 20.8262 20.3912 23.561C20.3403 24.2818 20.2799 25.0331 19.9095 25.6534C19.5391 26.2733 18.7562 26.7103 18.0853 26.4455C17.7904 26.3291 17.5566 26.0968 17.3509 25.8553C17.347 25.8509 17.3434 25.8462 17.3398 25.8414C17.6198 27.2506 17.7268 28.6942 17.6534 30.1295C18.4438 30.5859 19.2394 30.8943 20.1507 30.8523C21.0621 30.8104 21.9895 30.331 22.3848 29.5069C23.6925 26.7792 25.001 21.8047 25.403 18.8051C26.0959 13.637 21.3692 3.28393 20.9973 2.29395H20.9969Z" fill="#33032F"/>
</g>
<g style="mix-blend-mode:overlay" opacity="0.3">
<path d="M20.8779 3.01525C20.8956 3.32836 20.9063 3.64186 20.9039 3.95576C20.8945 5.08033 20.84 6.20648 20.8123 7.33066C20.7555 9.66451 20.7377 11.9995 20.6066 14.3314C20.4771 16.6281 20.2102 18.8966 19.9401 21.1794C19.8094 22.2842 19.6965 23.3925 19.6933 24.506C19.6906 25.6282 19.798 26.7492 19.7534 27.8718C19.7158 28.817 19.5915 29.9202 19.0371 30.7297C19.3321 30.8077 19.6357 30.8528 19.9524 30.856C19.9958 30.7736 20.0373 30.6901 20.0748 30.6058C21.018 28.4762 20.4803 25.9971 20.5881 23.748C20.7093 21.2083 21.249 18.7046 21.4733 16.1724C21.6952 13.6688 21.7217 11.1517 21.7051 8.63968C21.696 7.23011 21.6885 5.80115 21.5724 4.39593C21.5479 4.09865 21.5266 3.7994 21.5013 3.50094C21.2431 2.88463 21.0603 2.4591 20.9983 2.29443C20.9774 2.52164 20.9359 2.7635 20.8783 3.01565L20.8779 3.01525Z" fill="#33032F"/>
</g>
<g style="mix-blend-mode:overlay" opacity="0.3">
<path d="M20.1497 30.8523C21.061 30.8104 21.9885 30.331 22.3838 29.5069C23.6915 26.7792 25 21.8047 25.402 18.8051C26.0949 13.637 21.3682 3.28393 20.9963 2.29395C20.9726 2.55084 20.9225 2.82674 20.8522 3.11491C20.9592 3.39041 21.0547 3.65523 21.1242 3.90183C21.5688 5.48518 21.9968 7.07367 22.3739 8.67482C23.1277 11.8736 23.6911 15.1368 23.7503 18.4302C23.7823 20.2039 23.6666 21.9812 23.363 23.7297C23.0605 25.4713 22.5307 27.2542 21.3161 28.5363C20.9169 28.9575 20.4265 29.326 19.8556 29.4238C19.0232 29.5667 18.1854 29.0932 17.6547 28.4318C17.6812 28.9974 17.6812 29.5639 17.6523 30.1295C18.4428 30.5859 19.2384 30.8943 20.1497 30.8523Z" fill="#33032F"/>
</g>
<g style="mix-blend-mode:overlay" opacity="0.2">
<path d="M16.4377 14.728C16.1005 16.3027 16.3789 18.0392 17.3526 19.3205C17.5591 19.5921 17.8528 19.8648 18.19 19.8169C18.577 19.7619 18.7744 19.3316 18.8937 18.9587C19.4713 17.1494 19.8239 15.2683 19.9408 13.3723C19.9736 12.8379 19.987 12.2936 19.8527 11.7755C19.0627 8.72914 16.6869 13.5651 16.4377 14.7284V14.728Z" fill="white"/>
</g>
<g style="mix-blend-mode:overlay" opacity="0.3">
<path d="M22.0557 29.9943C21.2304 30.476 20.2548 30.6921 19.5014 30.1696C18.9443 29.7829 18.6801 29.0862 18.5984 28.4121C18.5167 27.7376 18.5854 27.0536 18.5332 26.3763C18.444 25.2098 17.9868 24.0745 17.2441 23.1724C16.9207 22.7798 16.5472 22.4322 16.1914 22.0688C16.4607 22.794 16.728 23.5192 16.9464 24.2499C17.5145 26.1503 17.755 28.1485 17.6539 30.1297C18.4444 30.5861 19.24 30.8944 20.1513 30.8524C20.864 30.8196 21.5854 30.5184 22.0557 29.9947V29.9943Z" fill="#33032F"/>
</g>
<g style="mix-blend-mode:overlay" opacity="0.3">
<path d="M13.4829 27.7302C12.523 25.3559 12.3643 22.7458 12.1858 20.1903C11.7578 14.0612 11.1233 7.83862 9.09375 2.07129C9.40015 3.77576 9.40568 5.54752 9.40568 7.2888C9.40568 9.48055 9.40568 11.6723 9.40528 13.864C9.40528 16.6487 9.40726 19.4588 10.0015 22.179C10.3557 23.8011 10.9385 25.4122 12.0002 26.6871C12.3733 27.1352 12.9952 27.708 13.7162 28.2586C13.6337 28.0841 13.5555 27.9075 13.4836 27.7298L13.4829 27.7302Z" fill="#33032F"/>
</g>
<g style="mix-blend-mode:overlay" opacity="0.3">
<path d="M10.793 19.7295C9.97208 17.5144 9.73518 15.1465 9.51248 12.8106C9.47655 12.4322 9.44102 12.0538 9.4043 11.6758C9.4043 12.4053 9.4043 13.1352 9.4043 13.8648C9.4043 16.6495 9.40627 19.4595 10.0005 22.1797C10.3547 23.8018 10.9375 25.4129 11.9992 26.6879C13.0606 27.9625 16.1333 30.2468 17.7877 30.1621C16.7255 29.4326 16.4582 27.8081 16.2043 26.5426C16.1573 26.3094 16.1159 26.0755 16.0768 25.8416C13.6485 24.6541 11.7509 22.3119 10.7938 19.7291L10.793 19.7295Z" fill="#33032F"/>
</g>
<g style="mix-blend-mode:overlay" opacity="0.5">
<path d="M11.9529 2.94581C11.0136 1.75276 9.87956 0.736651 8.53906 0C8.97576 1.17563 9.19214 2.40747 9.29993 3.65871C9.95695 3.38084 10.6286 3.14294 11.3294 3.01983C11.5348 2.98381 11.7432 2.95887 11.9529 2.94581Z" fill="white"/>
</g>
<g style="mix-blend-mode:overlay" opacity="0.5">
<path d="M4.84989 3.53988C3.30841 2.99917 1.61887 3.20659 0 3.42074C1.23271 4.15145 2.2601 4.94708 3.2018 5.9438C3.70326 5.20517 4.32632 4.30029 4.85779 3.54266C4.85542 3.54186 4.85265 3.54068 4.85028 3.53988H4.84989Z" fill="white"/>
</g>
<g style="mix-blend-mode:overlay" opacity="0.5">
<path d="M33.4961 2.92084C33.8471 3.36457 33.9885 3.94803 34.0398 4.5311C34.8409 3.44967 35.819 2.525 36.9996 1.86475C35.8 2.18933 34.6364 2.5155 33.4961 2.92123V2.92084Z" fill="white"/>
</g>
<g style="mix-blend-mode:overlay" opacity="0.5">
<path d="M21.4304 4.84432C21.6578 4.86292 21.8813 4.90488 22.1004 4.96386C21.537 3.56141 21.0995 2.56826 20.9964 2.29395C20.9246 3.07612 20.6162 4.02533 20.1973 5.01017C20.5858 4.86371 21.0158 4.81027 21.4304 4.84392V4.84432Z" fill="white"/>
</g>
<g style="mix-blend-mode:overlay" opacity="0.5">
<path d="M17.1366 1.68555C16.9577 2.4408 16.7785 3.19606 16.5996 3.95171C16.968 3.92637 17.3364 3.92994 17.6929 3.99921C17.4706 3.24039 17.2764 2.47207 17.1366 1.68555Z" fill="white"/>
</g>
<g style="mix-blend-mode:overlay" opacity="0.5">
<path d="M28.7749 3.7024C28.831 2.59011 28.9534 1.62664 29.1812 0.878906C29.1812 0.878906 27.2796 1.67295 25.7891 4.33891C26.7327 3.75703 27.7562 3.40632 28.7749 3.7024Z" fill="white"/>
</g>
<g style="mix-blend-mode:overlay" opacity="0.4">
<path d="M23.68 18.1844C22.7288 19.2907 21.5956 20.2487 20.7956 21.4694C19.0429 24.1445 19.264 27.9611 21.3129 30.4149C21.6722 28.3348 22.0449 26.2139 23.038 24.3523C23.8687 22.7947 25.101 21.4833 25.9594 19.9407C26.7775 18.4698 27.2364 16.8191 27.4768 15.1523C27.5933 14.3452 27.9269 12.3387 27.6328 11.9068C27.4539 11.644 26.8474 12.2472 26.3815 13.2392C25.5508 15.0086 24.9877 16.6632 23.6796 18.1848L23.68 18.1844Z" fill="#33032F"/>
</g>
<path d="M33.4411 35.7092C33.0952 34.7136 32.5815 33.7707 32.3786 32.7364C31.977 30.6896 32.8406 28.6083 32.8311 26.5222C32.8137 22.757 30.1513 19.5875 28.8045 16.2277C28.4432 15.3264 28.1324 14.4211 27.9121 13.4742C27.7917 12.9545 27.6981 12.4316 27.6329 11.9067C26.9321 15.0287 25.4416 17.9698 23.6407 20.6314C22.9923 21.5897 22.2938 22.5341 21.8927 23.6199C20.9253 26.2364 21.8327 29.1668 21.4591 31.9317C20.951 35.6965 18.1132 38.8901 17.8585 42.6806C17.7231 44.6986 18.3422 46.6912 19.1055 48.5631C19.5414 49.6327 20.0416 50.7034 20.8388 51.5378C21.3063 52.0271 21.8899 52.4586 22.1016 53.1018C22.2883 53.6686 22.1454 54.2846 22.025 54.8692C21.1985 58.8842 21.6037 63.1145 23.0121 66.9636C23.7338 63.3765 27.7163 61.1943 29.3106 57.9025C30.2129 56.0401 30.4411 53.9239 30.4932 51.8541C30.5449 49.795 30.4545 47.6432 31.3413 45.7852C31.7251 44.9812 32.2763 44.2707 32.7186 43.4976C34.0523 41.165 34.3228 38.2484 33.4407 35.7092H33.4411Z" fill="#7A9608"/>
<g style="mix-blend-mode:overlay" opacity="0.2">
<path d="M27.9131 27.9207C28.2278 29.985 28.689 32.031 28.839 34.1143C29.1391 38.2813 28.1859 42.4249 27.2395 46.4933C26.0869 51.4468 24.9344 56.4003 23.7822 61.3538C23.4612 62.7329 23.1398 64.1175 23.0182 65.5283C22.9811 65.9601 22.9637 66.3936 22.9649 66.8274C22.9811 66.8729 22.9969 66.9184 23.0135 66.9636C23.7352 63.3765 27.7177 61.1943 29.312 57.9025C30.2143 56.0401 30.4425 53.9239 30.4946 51.8541C30.5463 49.795 30.4559 47.6432 31.3427 45.7852C31.7265 44.9812 32.2777 44.2707 32.72 43.4976C34.0537 41.165 34.3242 38.2484 33.4421 35.7092C33.0962 34.7136 32.5825 33.7707 32.3796 32.7364C31.978 30.6896 32.8416 28.6083 32.8321 26.5222C32.8147 22.757 30.1523 19.5875 28.8055 16.2277C28.4442 15.3264 28.1334 14.4211 27.9131 13.4742C27.7927 12.9545 27.6991 12.4316 27.6339 11.9067C27.2174 17.3055 27.097 22.5682 27.9135 27.9211L27.9131 27.9207Z" fill="#33032F"/>
</g>
<g style="mix-blend-mode:overlay" opacity="0.2">
<path d="M23.7949 61.9247C23.1082 63.4633 22.9988 65.1682 23.0328 66.8699C23.7301 63.6755 27.0085 61.5926 28.7983 58.8095C26.7447 58.4235 24.6596 59.9855 23.7945 61.9243L23.7949 61.9247Z" fill="#33032F"/>
</g>
<g style="mix-blend-mode:overlay" opacity="0.2">
<path d="M27.9672 18.9648C28.0517 19.5514 28.1559 20.1543 28.473 20.6542C28.79 21.1542 29.3744 21.5302 29.9564 21.4265C30.2857 21.3679 30.5716 21.168 30.8875 21.0572C30.9893 21.0215 31.0924 20.9974 31.1954 20.982C30.3852 19.3836 29.4459 17.8271 28.8047 16.2272C28.4434 15.3259 28.1326 14.4206 27.9123 13.4737C27.8318 13.1262 27.7642 12.7767 27.7082 12.4268C27.0997 14.2496 27.8373 18.0631 27.9672 18.9648Z" fill="#33032F"/>
</g>
<g style="mix-blend-mode:overlay" opacity="0.2">
<path d="M32.7204 43.497C33.2878 42.5046 33.6621 41.4066 33.8378 40.2769C33.6198 40.3944 33.3774 40.4783 33.1452 40.5686C30.035 41.7802 27.968 45.2493 28.3779 48.5692C28.6227 50.5512 29.6355 52.3914 30.3245 54.2685C30.4271 53.4681 30.4745 52.6574 30.4946 51.8531C30.5464 49.7939 30.456 47.6422 31.3428 45.7841C31.7266 44.9802 32.2778 44.2697 32.72 43.4966L32.7204 43.497Z" fill="#33032F"/>
</g>
<g style="mix-blend-mode:overlay" opacity="0.2">
<path d="M31.6327 33.8955C32.2139 34.4481 32.8512 34.9603 33.3862 35.552C33.0431 34.6139 32.5721 33.7162 32.3798 32.7365C31.9782 30.6896 32.8417 28.6083 32.8323 26.5222C32.8319 26.4063 32.8287 26.2911 32.8232 26.1763C32.6743 26.3956 32.5144 26.6069 32.3482 26.8076C31.3247 28.0454 29.9578 29.2626 29.9748 30.8705C29.987 32.0532 30.7775 33.0812 31.6331 33.8955H31.6327Z" fill="#33032F"/>
</g>
<g style="mix-blend-mode:overlay" opacity="0.2">
<path d="M22.4676 57.8879C22.7756 56.0104 23.2608 54.0277 22.5615 52.2587C22.1517 51.2216 21.375 50.3824 20.7338 49.4708C19.021 47.0368 18.2712 43.7328 19.5114 41.0261C19.9607 40.0456 20.6402 39.1929 21.2637 38.313C22.1762 37.0249 22.9979 35.6055 23.1799 34.036C23.4764 31.4801 22.0411 29.0164 22.0159 26.4435C21.9867 23.4125 23.829 20.8064 25.3045 18.3078C26.0658 17.019 26.8298 15.6949 27.2527 14.2481C27.4482 13.5792 27.4525 12.9395 27.5255 12.3564C26.7872 15.311 25.3547 18.0977 23.6407 20.6306C22.9923 21.5889 22.2938 22.5334 21.8927 23.6192C20.9253 26.2356 21.8327 29.166 21.4591 31.9309C20.951 35.6957 18.1132 38.8893 17.8585 42.6799C17.7231 44.6978 18.3422 46.6905 19.1055 48.5624C19.5414 49.6319 20.0416 50.7027 20.8388 51.5371C21.3063 52.0263 21.8899 52.4578 22.1016 53.101C22.2883 53.6679 22.1454 54.2838 22.025 54.8684C21.1985 58.8834 21.6037 63.1137 23.0121 66.9628C23.0346 66.8516 23.0602 66.7411 23.0887 66.6327C22.0577 63.9434 21.9926 60.7818 22.4672 57.8879H22.4676Z" fill="white"/>
</g>
<g style="mix-blend-mode:overlay" opacity="0.2">
<path d="M23.0129 66.9634C23.7346 63.3763 27.717 61.1941 29.3114 57.9023C30.2137 56.0399 30.4419 53.9238 30.494 51.8539C30.5457 49.7948 30.4553 47.643 31.3421 45.785C31.5842 45.2783 31.8925 44.8084 32.1985 44.3366C29.0485 47.3743 26.6368 51.1957 25.3519 55.3626C25.7424 52.4354 25.258 49.3966 23.9771 46.737C22.5655 43.8058 20.2079 41.3025 19.4367 38.141C19.4055 38.0135 19.3779 37.8861 19.3522 37.7578C18.6281 39.3483 17.9746 40.9522 17.8585 42.6804C17.7231 44.6984 18.3422 46.691 19.1055 48.5629C19.5414 49.6325 20.0416 50.7032 20.8388 51.5377C21.3063 52.0269 21.8899 52.4584 22.1016 53.1016C22.2883 53.6684 22.1454 54.2844 22.025 54.869C21.1985 58.884 21.6037 63.1143 23.0121 66.9634H23.0129Z" fill="#33032F"/>
</g>
<g style="mix-blend-mode:overlay" opacity="0.2">
<path d="M30.4442 53.0161C28.305 54.0841 26.7824 56.2089 25.4036 58.2229C24.6507 59.323 23.8764 60.4764 23.6952 61.7981C23.7619 59.9943 23.6197 58.183 23.2715 56.412C23.0516 55.2934 22.7404 54.1716 22.1343 53.2085C22.2717 53.7452 22.1395 54.3208 22.0265 54.869C21.2001 58.884 21.6052 63.1143 23.0136 66.9634C23.7354 63.3763 27.7178 61.1941 29.3122 57.9023C30.0458 56.3875 30.3341 54.7051 30.4439 53.0161H30.4442Z" fill="#33032F"/>
</g>
<g style="mix-blend-mode:overlay" opacity="0.2">
<path d="M25.9941 48.3644C27.3429 43.8966 27.8697 39.181 27.5396 34.5248C27.3769 32.2329 27.0097 29.9604 26.8091 27.6717C26.5051 24.2018 26.5868 20.6983 27.0515 17.2466C26.3716 25.9827 29.6074 35.0533 27.5814 43.5776C27.1364 45.4491 26.6749 46.5654 25.9941 48.3644Z" fill="white"/>
</g>
</g>
<defs>
<clipPath id="clip0_1152_212740">
<rect width="37" height="67" fill="white"/>
</clipPath>
</defs>
</svg>
