<svg width="57" height="135" viewBox="0 0 57 135" fill="none" xmlns="http://www.w3.org/2000/svg">
<g clip-path="url(#clip0_3_173470)">
<path d="M39.909 2.26539C39.909 2.26539 26.5421 1.56632 22.5161 14.5572C22.5161 14.5572 16.5477 7.724 0.969238 12.6023C0.969238 12.6023 8.8043 24.3416 8.95151 36.5289C9.09872 48.7154 28.9875 36.5213 28.9875 36.5213L40.7956 25.797C40.7956 25.797 36.2194 12.7379 39.9098 2.26539H39.909Z" fill="#FF78A5"/>
<g style="mix-blend-mode:overlay" opacity="0.3">
<path d="M38.4489 4.9751C37.7263 5.69859 37.4841 6.76235 37.315 7.77136C36.5587 12.2892 36.6445 16.9468 37.5673 21.4343C34.8443 19.8088 28.2088 16.8078 29.3176 12.8628C29.8593 10.934 31.429 9.07264 32.9095 7.78821C33.7373 7.06977 34.6542 6.45072 35.6368 5.9639C36.2929 5.63795 37.9896 5.43497 38.4489 4.97594V4.9751Z" fill="#48004C"/>
</g>
<g style="mix-blend-mode:overlay" opacity="0.3">
<path d="M21.4795 24.0922C20.211 20.3695 17.186 17.3702 13.5982 15.7666C10.0449 14.1773 5.99196 13.8909 2.15771 14.563C2.40083 14.9884 2.67254 15.4752 2.96276 16.0184C4.38609 18.3784 5.52341 20.9119 6.33854 23.5456C6.84664 24.9387 7.32024 26.4194 7.7215 27.9581C8.39026 29.657 9.20792 31.2438 10.145 32.9687C10.2611 33.1826 10.4083 33.41 10.643 33.4749C10.8912 33.5431 11.1436 33.405 11.3623 33.2694C15.0636 30.9667 19.2141 27.8209 21.4787 24.0931L21.4795 24.0922Z" fill="#48004C"/>
</g>
<path d="M25.3056 115.791C23.6946 121.836 22.082 127.88 20.7285 133.975C21.8995 134.084 23.0755 134.145 24.254 134.161C24.8286 134.124 25.4015 134.076 25.9735 134.019C27.0839 129.084 28.3474 124.226 29.6815 119.23C31.7063 111.647 33.7463 104.053 35.0939 96.3403C35.835 92.097 36.3608 87.8167 36.5299 83.5145C36.614 81.3634 36.577 79.219 36.4213 77.0654C36.3532 76.1153 36.2472 75.1661 36.121 74.2186C35.7559 74.211 35.39 74.2186 35.0232 74.2456C33.7488 74.3407 32.54 74.6111 31.4001 75.0171C31.4144 75.5637 31.4237 76.1111 31.4321 76.6586C31.4616 78.5368 31.4599 80.4142 31.4052 82.2899C31.295 86.0522 30.9089 89.7994 30.3369 93.5196C29.1634 101.149 27.29 108.342 25.3047 115.79L25.3056 115.791Z" fill="#83A519"/>
<path d="M35.4195 88.3019C35.3934 87.3401 35.3379 86.3816 35.2033 85.4239C35.0838 84.5724 35.0367 83.6502 34.3478 82.9747C34.1997 82.8298 33.8885 82.813 33.7673 82.9915C33.2727 83.7184 33.3812 84.5295 33.3753 85.3557C33.3686 86.2822 33.3804 87.2087 33.3661 88.1343C33.3375 89.9519 33.2239 91.7534 33.0506 93.5609C32.8782 95.3608 32.609 97.1539 32.2447 98.9286C31.878 100.713 31.2681 102.507 31.1015 104.316C31.078 104.574 31.5036 104.723 31.6693 104.498C32.7755 102.989 33.3694 101.118 33.8817 99.3909C34.4201 97.5751 34.8273 95.7263 35.1006 93.8607C35.369 92.0297 35.4708 90.1532 35.4203 88.3011L35.4195 88.3019Z" fill="#A6C427"/>
<g style="mix-blend-mode:overlay" opacity="0.3">
<path d="M25.3056 115.791C23.6946 121.836 22.082 127.88 20.7285 133.975C21.6017 134.056 22.4774 134.112 23.3539 134.14C23.979 130.707 24.609 127.272 25.5142 123.892C26.5615 119.982 27.9747 116.159 29.1221 112.272C31.7678 103.312 32.9959 94.0131 32.7604 84.7096C32.7351 83.7107 32.7082 82.6537 33.2769 81.7955C33.8447 80.9372 35.2462 80.4184 36.1993 81.0054C36.344 81.0947 36.4659 81.2017 36.5711 81.3196C36.5728 79.9021 36.5223 78.4854 36.4197 77.0654C36.3515 76.1153 36.2455 75.1661 36.1193 74.2186C35.7543 74.211 35.3883 74.2186 35.0216 74.2456C33.7471 74.3407 32.5383 74.6111 31.3985 75.0171C31.4128 75.5637 31.422 76.1111 31.4304 76.6586C31.4599 78.5368 31.4582 80.4142 31.4035 82.2899C31.2933 86.0522 30.9072 89.7994 30.3352 93.5196C29.1617 101.149 27.2883 108.342 25.303 115.79L25.3056 115.791Z" fill="#000A33"/>
</g>
<path d="M45.831 57.7679C46.3997 51.2118 45.3683 44.2835 44.0501 38.4568C42.4889 31.5546 39.8878 25.2402 36.1554 19.2139C34.9154 17.2136 21.2533 0.644028 21.6327 0.0131836C12.0083 15.9864 9.01868 35.8323 13.5091 53.9373C14.9038 59.5602 17.3593 65.5646 21.3399 70.0285C24.9832 74.1151 33.1194 79.1517 38.2483 74.6381C43.161 70.314 45.2716 64.222 45.831 57.7679Z" fill="#F44775"/>
<path d="M33.1734 73.2653C32.6358 71.3433 31.5936 69.567 30.9341 67.6778C30.2434 65.7002 29.7707 63.6611 29.3366 61.6136C28.4096 57.2415 27.729 52.8054 27.0384 48.3903C25.605 39.2191 24.3734 30.0032 23.4018 20.7721C23.1301 18.1906 22.7861 15.6159 22.5076 13.0352C22.2216 10.3889 22.156 7.75518 21.5057 5.16611C21.4746 5.04314 21.2929 5.03556 21.2752 5.17201C20.9674 7.55641 21.1861 9.87175 21.3081 12.2646C21.4275 14.6043 21.5301 16.9441 21.6681 19.2822C21.9474 23.9979 22.4647 28.7095 22.9871 33.4033C23.5087 38.0989 24.1724 42.7784 24.8992 47.4461C25.6083 52.0027 26.3259 56.5711 27.2807 61.083C27.756 63.331 28.3549 65.552 29.1254 67.7174C29.8649 69.7977 30.7381 72.2133 32.402 73.7344C32.7031 74.0098 33.2852 73.6662 33.1734 73.2653Z" fill="#ED376B"/>
<path d="M33.6103 61.5049C33.0467 57.6213 32.4452 53.7428 31.7933 49.8726C30.4877 42.1298 29.0678 34.4064 27.3399 26.7453C26.8537 24.5917 26.3641 22.4389 25.8527 20.2912C25.6028 19.2426 25.3538 18.1948 25.0947 17.1487C24.8079 15.9932 24.3772 14.8713 24.1021 13.7183C24.0811 13.6298 23.9448 13.6492 23.9608 13.741C24.1282 14.6936 24.1442 15.6664 24.2947 16.6249C24.4445 17.58 24.6035 18.5342 24.7599 19.4877C25.0813 21.4493 25.4068 23.41 25.7256 25.3725C26.3465 29.1912 26.9614 33.0125 27.6276 36.8237C28.9702 44.5025 30.2926 52.1846 31.5939 59.8701C32.2997 64.0401 32.9609 68.1924 33.1056 72.4247C33.1174 72.7633 33.686 72.8214 33.7735 72.498C34.7552 68.8855 34.1386 65.1443 33.6103 61.5041V61.5049Z" fill="#ED376B"/>
<path d="M24.8898 20.2549C24.5937 18.2756 24.2917 16.298 23.9695 14.3229C23.6549 12.4001 23.241 10.4966 22.8902 8.58048C22.7052 7.56978 22.5664 6.55066 22.3923 5.53828C22.2148 4.50653 21.8488 3.55647 21.6124 2.54156C21.5872 2.43375 21.4383 2.45986 21.445 2.56851C21.5022 3.55731 21.4156 4.5259 21.525 5.51386C21.6385 6.5355 21.7933 7.55294 21.9077 8.57459C22.1306 10.5665 22.2669 12.5677 22.5159 14.5571C22.7582 16.49 23.019 18.4196 23.2873 20.3492C23.5506 22.2451 23.6457 24.4468 24.4986 26.1877C24.7005 26.6004 25.2843 26.4934 25.3592 26.0529C25.6763 24.1899 25.1657 22.1003 24.8898 20.2549Z" fill="#ED4F79"/>
<path d="M19.4714 6.56435C18.4485 9.01277 17.4668 11.3719 16.8359 13.9635C16.5339 15.2033 16.2361 16.4481 15.9862 17.6997C15.7591 18.8401 15.2973 20.3823 15.8045 21.4873C15.9408 21.7846 16.4161 21.9708 16.6777 21.6987C17.492 20.8523 17.6072 19.4929 17.8403 18.3819C18.1128 17.0824 18.3551 15.7769 18.6386 14.4798C19.2039 11.8966 19.5353 9.29408 20.0114 6.69911C20.0703 6.37906 19.5891 6.27883 19.4697 6.56435H19.4714Z" fill="#ED4F79"/>
<path d="M29.7123 12.5567C29.0654 11.5199 28.3504 10.5311 27.5798 9.58355C26.7857 8.60739 25.8276 7.87379 24.9519 6.9869C24.8779 6.91194 24.7121 6.98522 24.7777 7.09302C25.3498 8.0355 25.7721 9.07484 26.3651 10.0156C27.0103 11.0406 27.6757 12.053 28.2898 13.0974C28.8593 14.0652 29.3825 15.0514 29.8671 16.0647C30.3558 17.0863 30.7327 18.2419 31.4587 19.1245C31.6648 19.3747 32.0761 19.2526 32.1165 18.9325C32.3899 16.7511 30.8143 14.3204 29.714 12.5558L29.7123 12.5567Z" fill="#ED4F79"/>
<g style="mix-blend-mode:overlay" opacity="0.2">
<path d="M35.8266 21.4947C35.2596 23.8042 34.5202 26.0715 33.6621 28.2883C33.2373 29.3858 32.7755 30.4714 32.3019 31.5487C31.8106 32.6663 31.4464 33.8362 30.9618 34.9556C30.8954 35.1097 31.1191 35.2327 31.2176 35.0979C31.9301 34.1142 32.683 33.1624 33.2541 32.0852C33.8068 31.0408 34.2947 29.9695 34.7465 28.8779C35.6962 26.5811 36.4432 24.2085 37.0346 21.7954C37.0993 21.5326 37.1607 21.2682 37.2221 21.0037C36.9176 20.4765 36.6064 19.9517 36.2859 19.4287C36.1479 20.1194 35.9965 20.8083 35.8283 21.4947H35.8266Z" fill="#CFF6FF"/>
<path d="M29.7867 14.639C29.5891 16.6023 29.3401 18.5596 29.0667 20.5137C28.9262 21.5168 28.7848 22.5199 28.6444 23.523C28.5098 24.4823 28.3247 25.4905 28.4517 26.4591C28.4854 26.7185 28.8202 26.7134 28.9228 26.5105C29.3434 25.6808 29.5016 24.7047 29.6799 23.7976C29.8759 22.8012 30.0669 21.804 30.2435 20.8034C30.6061 18.7534 30.9409 16.6983 31.2193 14.6356C31.29 14.11 31.3556 13.5845 31.4162 13.0589C30.9813 12.5089 30.5329 11.9429 30.0786 11.3677C29.9954 12.4592 29.8969 13.5508 29.7876 14.639H29.7867Z" fill="#CFF6FF"/>
<path d="M32.6757 18.9074C32.319 20.9802 31.8235 23.0243 31.2313 25.0423C30.9453 26.016 30.6256 26.9795 30.3144 27.9447C30.0326 28.819 29.522 29.8718 29.7205 30.8025C29.7533 30.9566 29.9409 31.104 30.1007 31.008C30.8914 30.5346 31.2422 29.5972 31.6141 28.7878C32.0792 27.7763 32.4477 26.7192 32.7934 25.6622C33.463 23.6156 33.9703 21.5141 34.3564 19.3959C34.486 18.6867 34.6029 17.9708 34.7063 17.2507C34.2588 16.6704 33.7314 15.9957 33.1501 15.2571C33.0323 16.4767 32.8834 17.6937 32.6748 18.9065L32.6757 18.9074Z" fill="#CFF6FF"/>
<path d="M19.9425 12.3007C20.1192 12.9307 20.2042 13.906 20.8519 14.1999C20.8906 14.2176 20.9369 14.1999 20.9621 14.1688C21.3861 13.6264 21.0319 12.758 20.904 12.1449C20.7055 11.194 20.5053 10.2431 20.2858 9.29721C19.9097 7.67673 19.5186 6.05708 19.193 4.4248C18.9028 4.99838 18.6193 5.57616 18.3442 6.15731C18.5907 7.21517 18.8607 8.26714 19.1308 9.31995C19.3865 10.3172 19.6649 11.3085 19.9425 12.2998V12.3007Z" fill="#CFF6FF"/>
<path d="M27.4665 9.78234C27.6297 11.7734 27.6978 13.7721 27.7332 15.769C27.7508 16.7831 27.7424 17.798 27.7475 18.8121C27.7517 19.8135 27.8518 20.863 27.7576 21.8577C27.7416 22.0261 27.9839 22.048 28.015 21.8863C28.2051 20.8874 28.5458 19.9247 28.7334 18.9207C28.9285 17.8789 29.0514 16.8286 29.1447 15.7724C29.3062 13.9464 29.3079 12.1103 29.2171 10.2801C28.5643 9.45386 27.9081 8.62172 27.2705 7.80811C27.3454 8.4659 27.4135 9.12454 27.4674 9.78318L27.4665 9.78234Z" fill="#CFF6FF"/>
<path d="M20.8781 17.0602C21.0977 17.2329 21.4257 16.9718 21.3029 16.7191C20.4928 15.0599 19.3891 13.5531 18.4991 11.936C17.9776 10.9884 17.5023 10.0156 17.0691 9.02515C16.8293 9.59788 16.5972 10.1731 16.3726 10.7518C16.6636 11.3346 16.9698 11.9098 17.2954 12.4742C18.2552 14.1401 19.353 15.8575 20.8789 17.0602H20.8781Z" fill="#CFF6FF"/>
<path d="M21.4593 58.8444C21.9438 59.0145 22.4401 59.1661 22.939 59.2857C23.6363 59.4525 24.2227 59.407 24.9225 59.4701C25.0857 59.4853 25.1673 59.2208 24.9949 59.1779C24.4498 59.0406 23.9417 58.766 23.4058 58.5849C22.9087 58.4173 22.414 58.248 21.9287 58.0493C20.8578 57.6121 19.8206 57.1093 18.8322 56.5071C16.9495 55.3591 15.2536 53.9248 13.6991 52.3658C13.4551 52.1215 13.2154 51.8731 12.979 51.6221C13.1271 52.322 13.286 53.0202 13.456 53.7159C14.9819 55.1536 16.6509 56.4313 18.4814 57.4622C19.4345 57.9987 20.4263 58.4822 21.4593 58.8444Z" fill="#CFF6FF"/>
<path d="M37.7047 24.2751C36.5262 29.2839 34.5157 33.987 32.2057 38.5655C32.0652 38.8434 32.4909 39.0591 32.67 38.8249C35.8414 34.6785 37.9209 29.7152 39.1802 24.6692C38.8277 23.955 38.4626 23.245 38.0807 22.54C37.9646 23.1212 37.8393 23.6998 37.7039 24.2759L37.7047 24.2751Z" fill="#CFF6FF"/>
<path d="M42.7336 52.8002C41.9757 53.8084 41.1984 54.8022 40.4085 55.786C39.9837 56.3149 39.5455 56.8337 39.1299 57.3702C38.8027 57.7922 38.467 58.1493 38.3804 58.6909C38.3703 58.7566 38.4401 58.8332 38.5091 58.8138C39.5009 58.5249 40.2815 57.2953 40.9301 56.5347C41.8125 55.5004 42.6672 54.4434 43.4992 53.3679C44.3059 52.3235 45.0924 51.2622 45.8562 50.185C45.8192 49.6527 45.7755 49.1221 45.725 48.594C44.7618 50.0199 43.7692 51.4256 42.7353 52.8002H42.7336Z" fill="#CFF6FF"/>
<path d="M24.6745 63.1027C23.5801 62.53 22.5412 61.7559 21.5133 61.0712C20.5265 60.4142 19.5482 59.7472 18.5917 59.0464C16.9901 57.8732 15.4288 56.6519 13.8936 55.3953C14.0938 56.1137 14.3116 56.8347 14.5472 57.5565C15.6382 58.4021 16.7512 59.2199 17.8927 59.9906C18.9585 60.7107 20.0411 61.4098 21.1616 62.0415C22.2333 62.6462 23.3597 63.1077 24.4499 63.6678C24.799 63.8472 25.0169 63.2812 24.6745 63.1018V63.1027Z" fill="#CFF6FF"/>
<path d="M39.0391 53.0242C38.6117 53.6458 38.1869 54.2699 37.7756 54.9016C37.3348 55.5788 37.021 56.3469 36.5718 57.0089C36.4422 57.2001 36.7123 57.3989 36.8586 57.222C37.3726 56.6012 38.0103 56.0892 38.5251 55.4575C39.0323 54.835 39.516 54.1899 39.9846 53.538C40.9217 52.2342 41.8369 50.9127 42.7034 49.5609C43.6245 48.1257 44.4952 46.6534 45.3061 45.1492C45.2043 44.451 45.0941 43.7586 44.9755 43.0764C43.9366 45.193 42.7648 47.2388 41.519 49.2434C40.7232 50.5236 39.8929 51.7819 39.0391 53.0242Z" fill="#CFF6FF"/>
<path d="M37.1785 41.2009C36.6594 42.2723 36.1059 43.3268 35.4834 44.3417C34.8811 45.3229 34.1425 46.209 33.5882 47.2171C33.5099 47.3603 33.7059 47.5456 33.8447 47.4639C35.8317 46.2991 37.0287 43.8363 38.0584 41.8571C39.2605 39.5442 40.3633 37.1615 41.3719 34.7577C41.7109 33.9492 42.0323 33.133 42.3317 32.3085C42.1467 31.7568 41.9532 31.2085 41.7538 30.6636C41.3206 31.9606 40.8201 33.2366 40.2859 34.4916C39.3219 36.7589 38.2518 38.9833 37.1785 41.1993V41.2009Z" fill="#CFF6FF"/>
<path d="M39.2991 30.1572C38.568 32.5104 37.6679 34.8199 36.6004 37.0409C35.5397 39.2476 34.1811 41.3018 33.1708 43.5296C33.096 43.6947 33.3273 43.8766 33.4627 43.7452C35.2124 42.0599 36.433 39.8616 37.5376 37.7181C38.7346 35.396 39.7314 32.9804 40.5121 30.4865C40.6913 29.913 40.8587 29.3369 41.0151 28.7574C40.7552 28.1164 40.4835 27.4797 40.2008 26.8472C39.9367 27.9606 39.6364 29.0656 39.2974 30.1572H39.2991Z" fill="#CFF6FF"/>
<path d="M22.2938 33.6298C20.3347 32.23 18.3031 30.9885 16.5383 29.3225C15.0342 27.9025 13.7152 26.2887 12.5366 24.5874C12.4306 25.1989 12.333 25.812 12.2422 26.426C13.377 27.8806 14.6287 29.2501 16.0192 30.4579C17.8077 32.011 19.8552 33.4377 22.2215 33.8151C22.3233 33.8311 22.3746 33.6879 22.2938 33.6298Z" fill="#CFF6FF"/>
<path d="M23.276 2.63681C23.7395 5.03133 24.1879 7.42837 24.6758 9.81867C25.1418 12.0995 25.4817 14.5386 26.423 16.6796C26.5121 16.8826 26.889 16.8573 26.8831 16.6072C26.8293 14.2708 26.1706 11.9361 25.7197 9.64938C25.3866 7.95983 25.061 6.26775 24.7582 4.57146C24.2064 3.85049 23.7025 3.18343 23.2676 2.59302C23.2701 2.60734 23.2726 2.62165 23.276 2.63597V2.63681Z" fill="#CFF6FF"/>
<path d="M23.9892 49.796C19.9649 46.9332 15.5426 44.6423 12.1651 40.9515C11.9523 40.7191 11.7437 40.4832 11.5376 40.2449C11.5712 40.9894 11.6167 41.734 11.673 42.4768C15.0556 45.9056 19.2784 48.4736 23.6872 50.3384C24.0128 50.4765 24.2786 50.0023 23.9892 49.796Z" fill="#CFF6FF"/>
<path d="M19.4414 19.8187C19.581 19.9627 20.8311 21.3692 21.0708 20.7106C21.3097 20.0536 20.3886 19.1617 20.0479 18.6589C19.4591 17.7888 18.8492 16.9348 18.2906 16.0437C17.4301 14.67 16.662 13.2415 15.9857 11.7693C15.7409 12.4305 15.5062 13.0958 15.2808 13.7646C15.8898 14.9387 16.5687 16.0774 17.3182 17.1605C17.9659 18.0971 18.6498 19 19.4422 19.8187H19.4414Z" fill="#CFF6FF"/>
<path d="M43.3226 39.5552C43.554 39.124 43.7802 38.6894 44.0015 38.2531C43.8046 37.3974 43.5927 36.5509 43.3638 35.7129C42.0423 38.6751 40.5407 41.5581 38.8877 44.3459C37.5166 46.6588 35.8291 48.8503 34.6161 51.2465C34.5454 51.3855 34.7414 51.5135 34.8524 51.4217C36.6846 49.898 38.1105 47.7907 39.4758 45.8544C40.894 43.844 42.1592 41.7223 43.3226 39.5552Z" fill="#CFF6FF"/>
<path d="M35.668 54.9187C36.7683 53.9484 37.6187 52.6303 38.4608 51.4368C39.371 50.1473 40.2198 48.8115 41.0685 47.4808C42.3194 45.52 43.5476 43.5374 44.6883 41.5076C44.5773 40.9306 44.462 40.3621 44.3434 39.802C42.984 42.3372 41.4606 44.7923 39.9405 47.2332C39.1598 48.4864 38.3506 49.7203 37.5708 50.9736C36.8229 52.1763 35.9346 53.4111 35.424 54.7393C35.3702 54.8799 35.5468 55.0256 35.6671 54.9195L35.668 54.9187Z" fill="#CFF6FF"/>
<path d="M16.0705 52.5981C18.4999 54.0358 20.963 54.9227 23.7264 55.4449C23.9174 55.4811 23.9981 55.1653 23.8097 55.1089C19.6045 53.8623 15.7744 51.3929 12.4028 48.5579C12.5004 49.1483 12.6047 49.7378 12.7174 50.3249C13.7917 51.1427 14.9054 51.9083 16.0705 52.5973V52.5981Z" fill="#CFF6FF"/>
<path d="M16.4069 25.2554C17.895 27.0342 19.5413 28.8088 21.5989 29.9172C21.8033 30.0276 21.9716 29.7361 21.8504 29.5761C20.2782 27.5084 18.3485 25.7388 16.7476 23.6846C15.628 22.2477 14.6076 20.7333 13.6907 19.1592C13.5409 19.7504 13.3988 20.3434 13.2642 20.938C14.2156 22.4439 15.2646 23.8876 16.4078 25.2545L16.4069 25.2554Z" fill="#CFF6FF"/>
<path d="M22.1979 37.1927C20.1209 36.1062 18.1668 34.9136 16.4457 33.304C14.7624 31.729 13.3357 29.8803 12.0293 27.9844C11.9418 28.6801 11.8661 29.3775 11.7988 30.0757C14.3368 33.5407 17.7252 37.1202 22.0078 37.9583C22.4814 38.0509 22.5647 37.3839 22.1979 37.1927Z" fill="#CFF6FF"/>
<path d="M17.7049 20.0907C16.581 18.498 15.6582 16.7647 14.8826 14.9766C14.6816 15.6099 14.4889 16.2458 14.3047 16.8843C15.0054 18.2756 15.813 19.614 16.7366 20.8689C17.9253 22.4827 19.4083 24.2767 21.3347 24.9917C21.4836 25.0473 21.593 24.878 21.5097 24.7551C20.3816 23.0975 18.8674 21.7373 17.7057 20.0907H17.7049Z" fill="#CFF6FF"/>
<path d="M23.0886 41.6505C21.1715 40.1202 19.055 38.8686 17.1774 37.2776C15.352 35.7304 13.6813 33.9911 12.1966 32.1146C12.0199 31.8914 11.8483 31.6665 11.6792 31.4399C11.617 32.2426 11.569 33.047 11.5337 33.8513C12.9696 35.5383 14.5629 37.0864 16.2924 38.4719C18.2121 40.0098 20.3757 41.5494 22.7647 42.2325C23.1197 42.3336 23.3998 41.8998 23.0878 41.6514L23.0886 41.6505Z" fill="#CFF6FF"/>
<path d="M23.0256 46.0042C23.3579 46.1575 23.6321 45.6547 23.336 45.4458C19.6843 42.8719 16.1445 40.0571 13.1986 36.6789C12.6123 36.0067 12.0486 35.3144 11.5052 34.6069C11.48 35.3532 11.4665 36.1002 11.4648 36.8473C11.6995 37.1227 11.9359 37.3956 12.1774 37.6651C15.2553 41.0973 18.8263 44.073 23.0256 46.0059V46.0042Z" fill="#CFF6FF"/>
</g>
<g style="mix-blend-mode:overlay" opacity="0.3">
<path d="M38.2481 74.638C43.1608 70.3139 45.2714 64.2219 45.8308 57.7678C46.3994 51.2117 45.3681 44.2834 44.0499 38.4567C42.4886 31.5545 39.8876 25.2402 36.1551 19.2139C35.7202 18.5123 33.7585 16.0192 31.4099 13.0503C31.3905 16.6164 31.8616 20.2498 32.5581 23.6929C34.3575 32.5913 37.3682 41.5714 35.9692 50.5413C35.4233 54.0459 33.7518 57.8941 30.3516 58.8897C28.0147 59.5736 25.4213 58.6463 23.6244 57.0014C21.8276 55.3564 20.718 53.0925 19.9071 50.794C17.2548 43.2761 17.4289 35.0995 16.3286 27.2026C15.8861 24.0256 15.1837 20.8318 14.043 17.8157C10.8346 29.5567 10.5772 42.1171 13.5088 53.9356C14.9036 59.5584 17.3591 65.5628 21.3397 70.0267C24.983 74.1133 33.1192 79.15 38.2481 74.6364V74.638Z" fill="#48004C"/>
</g>
<g style="mix-blend-mode:overlay" opacity="0.3">
<path d="M45.8306 57.7678C46.3993 51.2118 45.368 44.2835 44.0498 38.4568C42.4885 31.5546 39.8875 25.2402 36.155 19.2139C34.9151 17.2136 21.2529 0.644028 21.6323 0.0131836C21.629 0.0190793 21.6256 0.0241328 21.6222 0.0300286C21.5928 2.87178 22.5888 6.52713 22.8092 8.54769C24.1837 21.1393 25.846 33.6998 27.7925 46.2156C28.8659 53.1136 30.0259 59.999 31.2718 66.8683C31.7538 69.5265 32.2627 72.2225 33.4707 74.6373C33.766 75.2277 34.1109 75.8012 34.5004 76.3428C35.8421 76.1634 37.1182 75.6328 38.248 74.6389C43.1606 70.3148 45.2712 64.2228 45.8306 57.7687V57.7678Z" fill="#48004C"/>
</g>
<g style="mix-blend-mode:overlay" opacity="0.3">
<path d="M45.831 57.7679C46.3996 51.2118 45.3683 44.2835 44.0501 38.4568C42.4888 31.5546 39.8878 25.2402 36.1553 19.214C35.85 18.7212 34.7917 17.345 33.376 15.5417C33.4458 19.7058 34.3753 23.976 35.2098 27.9775C36.9966 36.5457 39.4083 45.1064 39.3217 53.9314C39.2485 61.3634 37.3381 68.766 33.8454 75.322C34.0481 75.6716 34.266 76.0127 34.5024 76.3411C35.8441 76.1617 37.1202 75.6311 38.25 74.6373C43.1626 70.3132 45.2733 64.2212 45.8327 57.767L45.831 57.7679Z" fill="#000A33"/>
</g>
<g style="mix-blend-mode:overlay" opacity="0.3">
<path d="M38.1948 67.5641C33.9147 69.4347 28.928 69.8298 24.5352 68.2438C21.6583 67.2053 19.1043 65.3835 16.876 63.2922C18.0873 65.7305 19.5603 68.0341 21.3395 70.0285C24.9827 74.1151 33.119 79.1518 38.2478 74.6382C41.8163 71.4974 43.905 67.4235 44.996 62.9553C43.0032 64.8655 40.7202 66.4591 38.1948 67.5633V67.5641Z" fill="#48004C"/>
</g>
<g style="mix-blend-mode:overlay" opacity="0.3">
<path d="M24.8546 66.9561C21.727 63.3656 20.5804 58.5092 19.5373 53.8608C17.8095 46.1652 16.0808 38.4704 14.3529 30.7748C13.8255 28.4257 13.6421 25.2572 12.88 22.738C10.824 33.0227 10.9839 43.7547 13.5092 53.9366C14.9039 59.5595 17.3594 65.5639 21.3401 70.0278C24.9833 74.1144 33.1196 79.151 38.2484 74.6374C39.3588 73.6604 40.3245 72.5916 41.1632 71.4503C37.1666 73.9282 27.9108 70.4641 24.8546 66.9552V66.9561Z" fill="#000A33"/>
</g>
<path d="M34.5005 76.3427C41.6601 69.1769 45.4834 57.0527 43.1019 47.2018C42.2725 43.7688 40.8415 40.5185 39.5427 37.2346C37.2958 31.5561 35.4107 25.6444 35.0969 19.5448C34.7831 13.4453 36.1678 7.09051 39.9086 2.26611C38.7974 8.9721 41.7702 15.3218 44.9113 21.3481C48.0524 27.3752 51.9792 33.0326 54.2942 39.4228C56.2248 44.7517 56.9785 50.5042 56.4856 56.1515C56.2534 58.8096 55.9211 61.5638 54.6248 63.8943C47.6789 76.3789 35.6412 77.5454 34.5005 76.3419V76.3427Z" fill="#EF336D"/>
<path d="M55.7117 56.3016C55.1969 57.1607 54.9908 58.323 54.6703 59.2773C54.3085 60.352 53.8804 61.409 53.347 62.4104C53.1746 62.7339 52.9904 63.0514 52.8002 63.3664C54.4608 59.6058 55.715 55.4998 55.7638 51.3601C55.8084 47.5389 54.9697 43.8018 53.5716 40.2593C52.7742 38.2379 51.8017 36.3024 50.7485 34.4031C50.2631 33.5289 49.7626 32.6605 49.2217 31.8191C48.574 30.8126 47.779 29.9182 47.1574 28.8923C47.0447 28.707 46.7351 28.83 46.8402 29.0338C47.6974 30.7015 48.2812 32.5123 49.0745 34.2179C49.8324 35.8468 50.5332 37.4967 51.1851 39.1711C52.4974 42.5367 53.4808 46.107 53.607 49.7354C53.8484 56.7109 50.8284 63.6662 46.9303 69.3834C47.753 67.7806 48.4613 66.1197 49.0434 64.4184C51.3786 57.5894 51.6839 50.0471 49.6617 43.0968C49.109 41.1984 48.4503 39.3194 47.5612 37.5515C46.6392 35.7179 45.4034 34.1311 44.1391 32.5317C44.0684 32.4424 43.912 32.5317 43.9658 32.637C44.7532 34.1623 45.2924 35.7971 45.9065 37.3982C46.5282 39.0195 47.1069 40.6627 47.5427 42.3447C48.4041 45.6707 48.86 49.1012 48.828 52.5393C48.7733 58.4173 47.2533 64.2297 44.4293 69.3708C44.86 68.4072 45.2403 67.4235 45.5784 66.4431C47.6335 60.4808 48.1323 53.9206 46.8529 47.7343C46.4979 46.0169 45.9444 44.3173 45.2924 42.6917C44.9627 41.8697 44.6228 41.0417 44.1753 40.277C43.7 39.4651 43.1389 38.7003 42.6846 37.8774C42.5442 37.6222 42.1311 37.7966 42.2649 38.0652C42.9294 39.4044 43.2642 40.9575 43.6992 42.386C44.1324 43.8085 44.4714 45.2639 44.7221 46.7295C45.2251 49.6714 45.5515 52.6201 45.4245 55.6093C45.1763 61.4402 43.6562 67.6972 40.1753 72.4753C39.6462 73.2013 39.0615 73.8726 38.4239 74.4908C38.8563 73.8878 39.2651 73.2687 39.642 72.6303C41.1183 70.1305 42.1723 67.4269 42.8293 64.5994C43.1692 63.1381 43.4073 61.6642 43.5528 60.1717C43.6815 58.8562 43.6579 57.549 43.6689 56.2359C42.9622 63.7134 39.5696 71.2717 34.5005 76.3446C35.6412 77.5482 47.6789 76.3817 54.6248 63.897C55.8589 61.6785 56.2189 59.076 56.4511 56.5383C56.4309 56.4835 56.4099 56.4296 56.3863 56.3774C56.2728 56.129 55.8681 56.0414 55.7117 56.3033V56.3016Z" fill="#E21E65"/>
<g style="mix-blend-mode:overlay" opacity="0.5">
<path d="M54.2945 39.423C51.9786 33.0329 48.0519 27.3755 44.9116 21.3483C42.0288 15.8165 39.2898 10.0134 39.718 3.91211C37.9724 7.11013 38.3207 12.3161 38.4797 15.2353C38.6925 19.1425 39.4883 23.0202 40.8612 26.6848C43.2107 32.9562 47.1711 38.5765 49.0428 45.0079C50.8674 51.2793 50.5376 58.2557 47.6203 64.0984C45.2187 68.9076 40.9958 72.8426 35.9948 74.7166C35.5144 75.2817 35.0181 75.8267 34.5024 76.343C35.6431 77.5465 47.6809 76.38 54.6268 63.8954C55.9231 61.5649 56.2554 58.8099 56.4875 56.1526C56.9805 50.5053 56.2268 44.7527 54.2962 39.4238L54.2945 39.423Z" fill="#48004C"/>
</g>
<g style="mix-blend-mode:overlay" opacity="0.3">
<path d="M54.2944 39.4228C51.9785 33.0326 48.0517 27.3752 44.9115 21.3481C41.7704 15.321 38.7975 8.9721 39.9088 2.26611C39.7405 2.48341 39.579 2.70408 39.42 2.92728C38.5393 8.19133 39.6539 13.8512 41.5786 18.9216C44.1468 25.6857 48.0492 31.8838 50.5602 38.6698C53.0712 45.4558 54.063 53.3123 50.7697 59.7538C50.4828 60.3147 50.0833 60.9195 49.4608 61.0087C48.4437 61.1553 47.8507 59.8953 47.6959 58.8779C47.1306 55.1568 47.8162 51.2959 46.9657 47.6296C46.0782 43.805 43.6194 40.5766 41.6122 37.2034C38.7917 32.4624 36.8299 27.2598 35.728 21.8568C35.484 20.6617 35.2863 19.4749 35.0583 18.3084C35.0642 18.7211 35.0769 19.1338 35.0979 19.5448C35.4117 25.6444 37.2968 31.5561 39.5437 37.2346C40.8425 40.5177 42.2734 43.7688 43.1029 47.2018C45.4835 57.0535 41.6602 69.1769 34.5015 76.3427C35.6421 77.5463 47.6799 76.3798 54.6258 63.8951C55.9221 61.5646 56.2544 58.8096 56.4866 56.1523C56.9795 50.5051 56.2258 44.7525 54.2952 39.4236L54.2944 39.4228Z" fill="#48004C"/>
</g>
<g style="mix-blend-mode:overlay" opacity="0.3">
<path d="M54.6248 63.8954C55.2717 62.7331 55.678 61.4655 55.9523 60.1575C55.7907 60.4489 55.625 60.7386 55.4526 61.025C52.3889 66.1105 47.4249 70.1844 41.6314 71.4545C43.1742 68.0291 43.9776 64.2719 43.9717 60.5137C43.2247 61.9161 42.4786 63.3184 41.7324 64.7208C40.1173 69.1392 37.6273 73.214 34.5005 76.343C35.6412 77.5465 47.6789 76.38 54.6248 63.8954Z" fill="#000A33"/>
</g>
<path d="M34.5008 76.343C30.1905 76.4339 25.2803 72.2951 22.6465 68.8773C20.0126 65.4594 18.633 61.2389 17.7169 57.0209C15.7342 47.8943 15.6837 38.3222 12.5275 29.5333C10.1923 23.0303 6.17298 17.1421 0.969238 12.6033C3.77468 20.2989 3.6586 28.7525 3.45839 36.9426C3.25734 45.1326 3.01927 53.5172 5.57993 61.2979C8.14058 69.0786 14.1325 76.268 22.1644 77.8337C26.5598 78.6903 30.8828 78.6533 34.5017 76.343H34.5008Z" fill="#EF336D"/>
<path d="M28.8208 77.276C26.6429 76.005 24.6492 74.3719 22.9735 72.4945C21.0892 70.383 19.5818 67.9775 18.5513 65.3388C17.2424 61.9892 16.5442 58.4349 15.6819 54.9539C15.1831 52.9384 14.5757 50.9498 14.0744 48.9351C13.8111 47.8773 13.5747 46.8076 13.2727 45.7599C12.9698 44.7087 12.5299 43.677 12.2826 42.6149C12.2102 42.3041 11.7274 42.3749 11.7888 42.6949C11.9722 43.6559 11.9789 44.6473 12.1084 45.6175C12.2447 46.6417 12.4399 47.6575 12.6174 48.6749C12.9631 50.6575 13.2466 52.6486 13.5587 54.6363C14.1391 58.3262 14.7633 62.1197 15.9965 65.6555C16.068 65.861 16.1429 66.0648 16.2203 66.2678C12.4567 58.9444 11.2487 50.7426 9.61761 42.7606C9.10615 40.2566 8.56525 37.7568 7.9621 35.273C7.40774 32.9905 7.1436 30.4714 5.87841 28.4559C5.83467 28.3868 5.70681 28.4247 5.70597 28.5064C5.68998 30.8015 6.5068 33.0343 6.83824 35.3C7.17893 37.6254 7.42372 39.9618 7.68366 42.2974C8.18923 46.8363 8.7562 51.3819 9.82623 55.8273C10.2325 57.5134 10.6944 59.1912 11.2336 60.8429C10.7339 59.7959 10.2123 58.7507 9.80604 57.6726C9.70593 57.4065 9.24074 57.5362 9.32066 57.8175C9.66219 59.0236 9.8195 60.2786 10.1366 61.4922C10.4622 62.7371 10.8163 63.9735 11.2058 65.1998C11.523 66.1987 11.8906 67.1833 12.3019 68.1502C9.3114 62.7396 7.81236 56.5929 6.9089 50.4891C6.58251 48.2824 6.36968 46.0757 6.17536 43.8547C6.07442 42.7017 6.02647 41.5385 5.87168 40.3922C5.71774 39.2535 5.4822 38.1224 5.39219 36.9761C5.38546 36.896 5.25592 36.8994 5.25087 36.9794C5.18357 38.0348 4.9943 39.0783 4.88747 40.1303C4.77979 41.1873 4.78231 42.2494 4.77474 43.3106C4.7596 45.4162 4.84204 47.5269 4.95813 49.6292C5.1861 53.768 5.80439 57.9076 7.00143 61.8805C7.98565 65.1459 9.37365 68.3001 11.1713 71.1874C14.0971 74.5109 17.832 76.9904 22.1618 77.8344C22.5378 77.9077 22.9138 77.9742 23.2882 78.0332C22.7742 77.7156 22.277 77.3703 21.7967 76.9997C22.0541 77.1648 22.3174 77.3231 22.5866 77.4722C22.9946 77.6979 23.4093 77.9119 23.8299 78.114C26.3014 78.4576 28.7232 78.4593 30.9827 77.8681C30.2568 77.6954 29.535 77.4975 28.8191 77.276H28.8208Z" fill="#E21E65"/>
<g style="mix-blend-mode:overlay" opacity="0.3">
<path d="M22.6459 68.8771C20.0121 65.4593 18.6325 61.2388 17.7164 57.0208C15.7337 47.8942 15.6832 38.3212 12.527 29.5332C10.8958 24.9918 8.44287 20.7519 5.33963 17.0603C5.53059 17.4115 5.71566 17.7669 5.89147 18.1266C8.80291 24.0678 10.1573 30.6449 11.446 37.0898C12.9265 44.4949 14.4138 51.9622 14.36 59.5138C14.3499 60.9137 14.0016 62.6799 12.6355 62.9805C11.923 63.1372 11.1962 62.7952 10.5972 62.3783C7.3291 60.1076 6.28011 55.7953 5.7737 51.8452C4.7777 44.0771 4.91903 36.1928 3.85153 28.434C3.72366 27.5059 3.57561 26.576 3.40653 25.6487C3.62104 29.4043 3.54785 33.2012 3.45616 36.9441C3.25511 45.1341 3.01704 53.5187 5.5777 61.2994C8.13835 69.0801 14.1303 76.2695 22.1622 77.8353C26.5575 78.6918 30.8805 78.6548 34.4994 76.3445C30.1891 76.4355 25.2789 72.2966 22.6451 68.8788L22.6459 68.8771Z" fill="#48004C"/>
</g>
<g style="mix-blend-mode:overlay" opacity="0.3">
<path d="M26.743 15.5459C27.2974 15.9612 27.8938 16.5255 28.5693 16.3722C29.4534 16.1709 29.6015 14.9858 29.5342 14.0804C29.4366 12.7657 29.2953 11.4534 29.1136 10.148C25.3029 5.32356 21.4283 0.353452 21.6327 0.0131836C19.0384 4.31876 16.9269 8.90649 15.3135 13.6652C15.8636 17.0241 16.4129 20.3838 16.9631 23.7427C17.0682 24.387 17.1894 25.0659 17.6108 25.5645C18.0323 26.0631 18.8626 26.2762 19.3387 25.8298C19.6718 25.5173 19.7214 25.0153 19.75 24.5588C19.9242 21.7836 20.0983 19.0076 20.2724 16.2324C21.4762 16.1043 22.0962 17.6094 22.3384 18.797C22.5807 19.9846 23.2646 21.4813 24.4591 21.2842C24.5618 19.571 24.6644 17.8579 24.767 16.1456C24.7805 15.9233 24.7965 15.6908 24.91 15.4988C25.2625 14.9025 26.1887 15.1307 26.743 15.5459Z" fill="#FEEBFF"/>
</g>
<g style="mix-blend-mode:overlay" opacity="0.3">
<path d="M22.8253 52.8836C23.081 53.5355 23.563 54.3053 24.2511 54.1815C24.432 52.1197 24.0358 38.1299 21.6291 38.5317C17.4844 39.2232 22.0741 50.97 22.8253 52.8836Z" fill="#FEEBFF"/>
</g>
<path d="M39.6941 2.23008C38.6258 2.81292 38.0782 4.14704 37.5617 5.20069C36.9139 6.52302 36.405 7.92874 36.0391 9.35551C35.6975 10.6837 35.4485 12.0482 35.3291 13.4151C35.2138 14.7375 35.0506 16.3142 35.3989 17.6104C35.4351 17.7443 35.6143 17.7443 35.642 17.6045C35.8969 16.315 35.8372 14.9464 36.0458 13.6375C36.2645 12.2604 36.5825 10.9162 37.0115 9.58965C37.4229 8.31786 37.9141 7.08312 38.4853 5.87534C38.9951 4.7981 39.8969 3.66528 40.0096 2.46086C40.0247 2.30252 39.8498 2.1467 39.695 2.23093L39.6941 2.23008Z" fill="#FF92B6"/>
<path d="M39.5524 32.9913C39.1007 30.8209 38.0491 28.7464 37.3711 26.6357C36.6721 24.461 36.2843 22.1651 35.5087 20.0224C35.4801 19.9432 35.3547 19.9668 35.348 20.0477C35.168 22.2569 35.7653 24.6573 36.3709 26.768C36.9909 28.925 37.7665 31.3978 39.2588 33.1219C39.3623 33.2406 39.5877 33.1615 39.5524 32.9913Z" fill="#FF92B6"/>
<path d="M7.98206 20.6416C7.44031 18.9436 6.16588 17.3029 5.08744 15.9064C4.08135 14.6035 2.82037 12.8482 1.27422 12.166C0.948674 12.0228 0.727435 12.4246 0.895677 12.6789C1.40125 13.442 2.16507 14.0383 2.77999 14.713C3.37641 15.3674 3.93919 16.053 4.48177 16.7529C5.52235 18.0963 6.45273 19.7218 7.74736 20.8302C7.87859 20.9422 8.02496 20.7738 7.98206 20.6416Z" fill="#FF92B6"/>
<path d="M12.5643 29.299C12.2774 27.9472 11.6263 26.6931 10.9996 25.4736C10.3712 24.2498 9.69659 22.9923 8.7864 21.9521C8.68125 21.8317 8.50964 21.9487 8.55759 22.0919C9.00091 23.4303 9.70164 24.6818 10.3418 25.9334C10.9458 27.1143 11.5044 28.3515 12.3119 29.4111C12.3969 29.5222 12.5946 29.4397 12.5643 29.299Z" fill="#FF92B6"/>
<path d="M8.14173 26.5188C7.86161 25.6117 7.56466 24.7079 7.24248 23.8152C6.67971 22.2562 6.02861 20.9389 4.99391 19.6443C4.93335 19.5685 4.82651 19.6587 4.87867 19.737C5.79643 21.1141 6.15226 22.8963 6.57792 24.4704C6.78402 25.2335 7.00694 25.9924 7.23827 26.7479C7.47549 27.5219 7.67318 28.3818 8.17286 29.0312C8.30829 29.2081 8.63132 29.1255 8.64394 28.8939C8.68852 28.0887 8.37727 27.281 8.14173 26.5196V26.5188Z" fill="#FF92B6"/>
<path d="M4.1799 18.9343C3.81818 17.5564 3.15951 16.5221 2.3225 15.3918C2.30652 15.3699 2.27708 15.396 2.29054 15.4171C3.01482 16.5668 3.29831 18.1157 3.5288 19.4405C3.72733 20.5809 3.66676 21.9715 4.16981 23.0234C4.24131 23.1725 4.50966 23.202 4.56013 23.015C4.89914 21.7618 4.50209 20.1632 4.17906 18.9335L4.1799 18.9343Z" fill="#FF92B6"/>
<path d="M41.0276 15.0978C40.8762 13.6769 40.3285 12.3226 39.9441 10.9523C39.5605 9.58445 39.2156 8.17537 38.9843 6.77303C38.9708 6.68964 38.8388 6.6888 38.8329 6.77724C38.7294 8.24612 38.8724 9.63499 39.2114 11.071C39.5445 12.4818 39.9416 13.9524 40.6928 15.1989C40.7929 15.3648 41.0503 15.3092 41.0276 15.0987V15.0978Z" fill="#FF92B6"/>
<path d="M40.5655 22.2815C40.2652 21.1857 39.7731 20.1422 39.4013 19.0683C39.0017 17.9153 38.6837 16.7445 38.46 15.5435C38.0192 13.1734 37.9334 10.6643 38.094 8.25971C38.1058 8.08874 37.8316 7.99862 37.7845 8.18307C37.1603 10.6407 37.0829 13.0513 37.4943 15.5578C37.8745 17.8765 38.5761 20.6601 40.1811 22.4516C40.3115 22.5973 40.6261 22.5072 40.5647 22.2806L40.5655 22.2815Z" fill="#FF92B6"/>
<path d="M21.3887 0.303707C19.9998 2.08254 19.0097 4.01129 18.3166 6.17418C17.6764 8.17115 17.0144 10.4343 17.334 12.5441C17.3652 12.7471 17.6764 12.7934 17.7454 12.5896C18.4234 10.5724 18.6001 8.41709 19.2436 6.38222C19.8863 4.3524 20.6888 2.33353 21.5308 0.383721C21.5687 0.296969 21.445 0.232958 21.3895 0.304549L21.3887 0.303707Z" fill="#FF92B6"/>
<path d="M20.9655 12.9174C20.931 11.7323 20.9284 10.5473 20.9301 9.36225C20.9335 7.16062 20.9798 4.96319 20.9612 2.76155C20.9596 2.59479 20.7375 2.56699 20.7022 2.73292C20.2403 4.94971 20.0241 7.15135 19.9594 9.41616C19.9291 10.4841 19.9409 11.5538 19.9669 12.6218C19.9905 13.6173 19.9299 14.7484 20.3211 15.6808C20.4136 15.9006 20.7964 15.9208 20.867 15.669C21.1143 14.7889 20.9924 13.8228 20.9663 12.9165L20.9655 12.9174Z" fill="#FF92B6"/>
<path d="M25.4945 11.8612C25.3465 10.666 25.1076 9.47846 24.8106 8.31194C24.263 6.16 23.5606 3.82613 22.2096 2.03298C22.1154 1.90833 21.8891 2.00098 21.9253 2.15932C22.4426 4.39128 23.3494 6.51796 23.8777 8.75413C24.1435 9.88021 24.3454 11.0206 24.5137 12.1661C24.6693 13.2231 24.7282 14.3357 25.0571 15.3565C25.1421 15.6193 25.4811 15.4896 25.5299 15.2824C25.7848 14.1824 25.6316 12.9696 25.4945 11.8612Z" fill="#FF92B6"/>
<path opacity="0.5" d="M22.3433 68.4662C19.908 65.1233 18.5966 61.0721 17.7167 57.02C15.8088 48.2387 15.6885 39.0439 12.8713 30.5321C12.8351 30.4707 12.7998 30.4092 12.7628 30.3468C12.6155 30.0967 12.1899 30.1733 12.2446 30.5018C12.4902 31.9774 12.756 33.4017 13.1514 34.8503C13.5283 36.2342 13.8706 37.634 14.1407 39.0431C14.6883 41.8991 14.9011 44.7956 15.1451 47.6887C15.5968 53.0294 15.9425 58.5015 17.932 63.539C18.9322 66.0725 20.5843 68.4839 22.7875 70.1027C22.9456 70.2189 23.214 70.0378 23.1046 69.8483C22.8405 69.3918 22.5881 68.9311 22.3425 68.4662H22.3433Z" fill="#FF92B6"/>
<path opacity="0.5" d="M40.2921 37.906C39.6578 36.3108 39.0681 34.6651 38.0604 33.2644C38.5256 34.5994 39.0236 35.9234 39.5417 37.2339C40.8406 40.517 42.2715 43.7681 43.1009 47.2011C45.4815 57.0529 41.6582 69.1762 34.4995 76.3421C34.6366 76.4869 34.9344 76.5973 35.3601 76.6579C35.7613 76.294 36.097 75.851 36.4503 75.4434C36.9567 74.8589 37.4244 74.239 37.882 73.6157C38.7687 72.4104 39.6057 71.169 40.3838 69.8913C41.9358 67.3409 43.2464 64.6491 43.9556 61.7366C45.479 55.4804 43.9051 49.145 42.1108 43.1271C41.5825 41.3542 40.9752 39.6242 40.2921 37.9052V37.906Z" fill="#FF92B6"/>
<g style="mix-blend-mode:overlay" opacity="0.3">
<path d="M10.1385 69.9326C13.1963 73.8811 17.3057 76.8871 22.1637 77.8337C26.559 78.6903 30.882 78.6532 34.5009 76.343C30.1905 76.4339 25.2804 72.2951 22.6465 68.8773C21.6875 67.6324 20.896 66.2798 20.2314 64.8614C19.3111 64.1278 18.4009 63.3816 17.505 62.6177C19.4348 67.6939 21.998 72.8973 26.6019 75.7685C20.7202 75.3761 14.9629 73.3201 10.1377 69.9326H10.1385Z" fill="#000A33"/>
</g>
<g style="mix-blend-mode:overlay" opacity="0.3">
<path d="M22.8548 134.119C22.4695 132.479 22.1339 130.827 21.8436 129.166C21.455 130.767 21.0807 132.368 20.7231 133.975C21.4323 134.04 22.1431 134.088 22.8548 134.119Z" fill="#000A33"/>
</g>
<g style="mix-blend-mode:overlay" opacity="0.3">
<path d="M31.7958 53.0986C31.5738 51.5657 31.3046 50.0379 31.0488 48.5109C30.555 45.5647 30.0377 42.6025 29.3513 39.6934C28.6615 36.7683 27.9195 33.8608 27.1044 30.9685C26.6964 29.5224 26.3557 28.0619 25.9688 26.6099C25.7887 25.9327 25.5759 25.2631 25.3572 24.5978C25.0754 23.7404 24.5951 22.8754 24.4033 21.9986C24.3376 21.6996 23.8657 21.7729 23.9322 22.0744C24.1013 22.8459 24.0298 23.6924 24.1063 24.4782C24.1786 25.2219 24.2518 25.9681 24.3604 26.7076C24.5858 28.2413 24.8668 29.7599 25.0535 31.2995C25.4144 34.271 25.798 37.2374 26.1841 40.2046C26.5694 43.1685 27.0783 46.124 27.5553 49.0744C27.7933 50.5508 28.0112 52.0315 28.251 53.508C28.378 54.2912 28.5471 55.0408 28.8474 55.7753C29.1477 56.5089 29.4287 57.2223 30.2093 57.5465C30.5012 57.6678 30.8604 57.6122 31.1035 57.4118C31.7454 56.882 31.7613 56.2166 31.8572 55.451C31.9565 54.6593 31.9111 53.8887 31.7967 53.0978L31.7958 53.0986Z" fill="#FEEBFF"/>
</g>
</g>
<defs>
<clipPath id="clip0_3_173470">
<rect width="55.7958" height="134.147" fill="white" transform="translate(0.837891 0.0131836)"/>
</clipPath>
</defs>
</svg>
