<svg width="83" height="149" viewBox="0 0 83 149" fill="none" xmlns="http://www.w3.org/2000/svg">
<g clip-path="url(#clip0_3_173415)">
<path d="M47.8436 129.742C47.6534 134.238 47.3224 138.729 46.8513 143.205C46.7342 144.318 46.5978 145.518 46.4587 146.671C46.8108 147.019 47.1771 147.342 47.5443 147.632C48.7699 148.601 50.22 149.234 51.7195 148.918C51.8815 147.686 52.0355 146.453 52.1773 145.218C52.6334 141.25 52.9776 137.269 53.2127 133.281C53.682 125.307 53.7084 117.305 53.2929 109.328C52.8676 101.16 51.973 93.0141 50.6479 84.9426C50.0131 81.0732 49.2427 77.2293 48.526 73.3748C47.7943 69.4411 47.1542 65.6914 46.8047 61.8502C46.7078 60.7851 46.6374 59.7192 46.5881 58.6523H41.0913C41.4153 66.6852 43.1683 74.5525 44.6079 82.4348C47.4333 97.9037 48.5181 113.854 47.8454 129.742H47.8436Z" fill="#BECE5F"/>
<g style="mix-blend-mode:overlay" opacity="0.2">
<path d="M51.7188 148.918C51.8808 147.686 52.0349 146.453 52.1767 145.218C52.5667 141.826 52.874 138.425 53.102 135.018C51.2231 134.897 49.3583 134.336 47.6546 133.433C47.46 136.696 47.1932 139.954 46.8507 143.204C46.7336 144.317 46.5971 145.517 46.458 146.67C46.8102 147.018 47.1765 147.341 47.5436 147.631C48.7692 148.6 50.2194 149.233 51.7188 148.917V148.918Z" fill="#000A33"/>
</g>
<path d="M59.7137 59.17C59.9338 58.229 60.1143 57.2714 60.1407 56.326C60.1706 55.2495 59.8466 54.4688 59.299 53.5789C58.8235 52.806 58.3146 52.064 57.7432 51.3598C57.715 51.3246 57.6912 51.3 57.671 51.2797C57.6182 51.2586 57.7265 51.2718 57.5063 51.2727C56.9754 51.2745 56.4533 51.3026 55.925 51.3581C55.0181 51.454 54.091 51.6688 53.178 51.66C53.0873 51.66 52.9966 51.6565 52.9059 51.653C52.6972 53.556 52.4031 55.4432 51.8625 57.2775C50.7945 60.9049 49.1877 64.3712 47.2251 67.6033C50.4388 66.136 53.4861 64.2647 56.3538 62.2023C57.5935 61.3107 58.7082 60.2896 59.7146 59.17H59.7137Z" fill="#E24B00"/>
<path d="M69.901 8.68338C68.0414 9.60497 66.1995 10.6243 64.6974 12.0564C63.1953 13.4885 62.0489 15.3862 61.8852 17.4538C61.0381 28.1203 54.3686 36.0255 53.3605 46.6778C53.2803 47.5237 53.2108 48.3731 53.1377 49.2225C53.3349 49.2243 53.5304 49.2172 53.7223 49.1996C54.7041 49.1063 55.6761 48.9312 56.6605 48.8669C57.3851 48.8194 58.2435 48.7859 58.8933 49.1679C59.5299 49.542 59.9833 50.2664 60.4007 50.8509C61.3771 52.2205 62.328 53.6491 62.5297 55.34C64.6956 51.7566 66.1158 47.6302 67.0359 43.5275C68.641 36.3714 69.0099 28.9653 70.888 21.8751C72.766 14.785 76.501 7.73099 82.9073 4.1582C78.3878 5.3773 74.0946 6.60432 69.9001 8.68338H69.901Z" fill="#FFB717"/>
<g style="mix-blend-mode:overlay" opacity="0.3">
<path d="M81.6358 4.56669C79.7877 5.17755 77.9801 5.92926 76.3688 7.03657C74.2874 8.46691 72.6216 10.4122 71.0138 12.3601C68.5785 15.3097 66.1985 18.3491 64.5133 21.7828C62.3456 26.2015 61.407 31.121 60.8743 36.0132C60.2483 41.7584 60.1524 47.5607 60.5864 53.3235C61.1297 54.1808 61.6553 55.0496 62.1651 55.9272C64.5371 52.2118 66.0647 47.8565 67.0359 43.5294C68.641 36.3732 69.0099 28.9671 70.8879 21.877C72.7624 14.8009 76.4868 7.76098 82.8711 4.18115C82.4996 4.28062 82.0813 4.42057 81.6358 4.56757V4.56669Z" fill="#33032F"/>
</g>
<g style="mix-blend-mode:overlay" opacity="0.5">
<path d="M65.9149 23.4561C65.5944 19.6422 65.4958 15.778 66.0214 11.9773C66.0628 11.6771 66.1676 11.2528 66.3023 10.7546C65.7379 11.1516 65.1973 11.5794 64.6972 12.0565C63.1951 13.4886 62.0487 15.3863 61.885 17.4539C61.5979 21.0707 60.6409 24.3689 59.4619 27.5658C59.5385 29.527 59.6732 31.4881 59.8097 33.4422C60.2358 39.5781 60.6629 45.7141 61.089 51.8501C61.7899 52.9213 62.3771 54.055 62.5303 55.3401C64.6963 51.7568 66.1165 47.6303 67.0366 43.5276C67.1748 42.9133 67.3007 42.2962 67.4214 41.6783C67.4786 35.5837 66.4238 29.5322 65.914 23.4552L65.9149 23.4561Z" fill="#33032F"/>
</g>
<path opacity="0.3" d="M64.6974 12.0567C63.1954 13.4888 62.049 15.3866 61.8852 17.4542C61.7135 19.6177 61.2997 21.666 60.7441 23.6482C63.9772 17.4929 69.0408 12.2952 75.1592 8.98212C70.3439 13.2485 68.295 19.8598 67.5889 26.2528C66.8828 32.6458 67.2992 39.1365 66.3695 45.5013C66.2929 46.025 66.2039 46.5461 66.1097 47.0672C66.4637 45.8948 66.771 44.7109 67.036 43.5288C68.6411 36.3726 69.01 28.9665 70.888 21.8764C72.7661 14.7862 76.501 7.73221 82.9073 4.15942C78.3879 5.37852 74.0947 6.60554 69.9001 8.6846C68.0406 9.60619 66.1986 10.6255 64.6966 12.0576L64.6974 12.0567Z" fill="#FFEB57"/>
<path d="M40.9482 47.1822C39.1468 44.5961 36.7405 42.378 34.5217 40.1546C33.5849 39.2154 32.6454 38.2788 31.7139 37.3335C31.5545 39.2647 31.477 41.2012 31.5052 43.1447C31.632 52.0155 33.6712 60.5632 39.7666 67.0117C41.2678 62.3043 42.607 57.6981 43.6293 53.1025C43.0517 51.0129 42.2214 49.0095 40.9482 47.1813V47.1822Z" fill="#E24B00"/>
<path d="M37.5957 39.8071C39.8832 42.1309 42.2675 44.4863 43.9166 47.3259C44.1393 47.7097 44.3463 48.1014 44.5408 48.4983C45.7876 41.2744 46.1274 34.0012 44.9582 26.3275C43.7678 18.5174 40.0038 11.539 38.617 3.76147C37.5763 8.14142 36.5347 12.5222 35.494 16.9022C34.1363 22.6157 32.7734 28.3758 32.0435 34.1905C33.8678 36.0882 35.7485 37.9305 37.5957 39.8071Z" fill="#FFAC06"/>
<g style="mix-blend-mode:overlay" opacity="0.3">
<path d="M35.4937 16.9029C33.9309 23.479 32.3619 30.1185 31.7588 36.8301C33.0857 36.449 34.4116 36.067 35.7385 35.685C36.7739 35.3874 38.3834 35.501 38.3333 36.5766C38.6916 28.8941 38.3755 21.1174 38.3966 13.4261C38.4046 10.5337 38.3429 7.62725 38.387 4.73047C37.4229 8.78825 36.4587 12.8452 35.4946 16.9029H35.4937Z" fill="#33032F"/>
</g>
<path opacity="0.3" d="M44.9139 26.0555C43.6786 18.3554 39.9877 11.4484 38.6168 3.76147C37.5761 8.14142 36.5345 12.5222 35.4938 16.9022C33.7425 24.2722 31.9833 31.7206 31.5845 39.2623C32.6974 34.98 33.6976 30.689 34.8105 26.3971C36.0986 21.2742 37.3859 16.1514 38.674 11.0285C41.9203 17.1812 44.0053 23.943 44.7889 30.8553C44.8664 29.256 44.9077 27.6558 44.9139 26.0547V26.0555Z" fill="#FFEB57"/>
<path d="M31.8417 60.7042C25.8148 58.0037 22.5554 51.447 20.5743 45.1482C17.3324 34.8435 15.9915 23.4544 9.16605 15.0801C6.61797 11.9527 3.87443 9.67206 0.401855 7.6194C4.01178 7.14408 7.78019 6.68197 11.2167 7.88434C13.8836 8.81737 16.113 10.6755 18.2014 12.5776C21.6449 15.7138 25.033 19.3438 25.9592 23.9078C28.2951 35.4086 26.5615 47.1296 29.8597 58.3928C30.1829 59.4957 30.9181 60.0177 31.8408 60.7042H31.8417Z" fill="#FFB717"/>
<g style="mix-blend-mode:overlay" opacity="0.3">
<path d="M25.3679 43.1799C23.9785 35.4551 22.1603 27.6397 18.0855 20.9307C16.1133 17.6836 13.5661 14.7498 10.5373 12.4463C8.18465 10.6569 4.70504 8.38414 1.65333 8.18257C1.53623 8.17465 1.42441 8.17377 1.31787 8.17817C4.3643 10.0882 6.84722 12.2324 9.16726 15.079C15.9927 23.4543 17.3336 34.8425 20.5755 45.1472C22.1181 50.0517 24.4364 55.1121 28.2321 58.3873C27.0426 53.3807 26.2818 48.2517 25.3688 43.179L25.3679 43.1799Z" fill="#33032F"/>
</g>
<g style="mix-blend-mode:overlay" opacity="0.5">
<path d="M19.2819 13.5829C19.9061 16.2843 20.179 19.0561 20.1773 21.8719C20.1729 27.4648 19.244 33.011 18.7236 38.5801C19.303 40.7921 19.8973 42.9935 20.5744 45.1483C21.7595 48.9156 23.4024 52.7753 25.8211 55.8464C25.5807 48.4614 26.8821 40.9849 26.919 33.5497C26.9261 32.2091 26.8909 30.8677 26.8143 29.5289C26.6109 27.6514 26.3397 25.7765 25.9602 23.9078C25.1308 19.8227 22.3292 16.4867 19.2819 13.582V13.5829Z" fill="#33032F"/>
</g>
<path opacity="0.3" d="M18.2019 12.5775C16.1134 10.6753 13.8841 8.81719 11.2172 7.88416C7.7798 6.68179 4.01227 7.14302 0.402344 7.61922C3.87492 9.67188 6.61846 11.9516 9.16654 15.079C15.5447 22.9059 17.1339 33.3646 19.9611 43.1112C19.0877 38.373 18.5805 33.5345 17.5944 28.8148C15.9911 21.1358 12.6779 13.2077 5.99421 9.0971C11.2568 9.04781 15.8696 11.8372 19.3069 15.8219C22.7443 19.8058 24.7491 24.8459 25.9712 29.9635C25.2747 25.7507 24.4603 21.6736 23.0559 17.7496C21.6569 15.8633 19.9373 14.1574 18.2028 12.5783L18.2019 12.5775Z" fill="#FFEB57"/>
<path d="M40.0668 67.0849C36.3776 67.2732 29.5267 62.1935 27.1591 59.3592C24.7924 56.524 23.492 52.9416 22.7022 49.3345C21.378 43.2856 21.3727 37.0361 21.3727 30.8447C21.3727 25.9709 21.3727 21.0972 21.3735 16.2234C21.3735 10.7512 21.3507 5.14243 19.4409 0.0134277C27.86 4.62663 32.6365 14.1541 34.3068 23.6058C36.3679 35.2774 34.1949 47.4174 36.5352 59.0362C37.1023 61.8493 37.6975 65.4626 40.0659 67.0849H40.0668Z" fill="#FFC229"/>
<path opacity="0.5" d="M34.3077 23.6058C32.6384 14.1541 27.8609 4.62663 19.4419 0.0134277C20.0987 1.77738 20.5328 3.59854 20.8189 5.45139C21.7866 6.32368 22.7472 7.20742 23.6074 8.22582C27.9191 13.3328 31.1645 19.3403 33.0302 25.7606C34.4539 30.6616 35.0764 35.7316 35.3168 40.8395C35.3115 35.06 35.3097 29.2779 34.3077 23.6067V23.6058Z" fill="#FFEB57"/>
<g style="mix-blend-mode:overlay" opacity="0.5">
<path d="M34.8906 37.3037C35.0324 36.4393 35.1574 35.5714 35.2675 34.7018C35.1838 30.9776 34.954 27.2693 34.3077 23.6067C32.6384 14.1541 27.8609 4.62663 19.4419 0.0134277C19.8117 1.00631 20.1102 2.01679 20.3523 3.04136C22.4734 4.47083 24.5328 5.77883 26.1458 8.01985C28.4817 11.2643 30.7982 14.6267 32.2976 18.3527C34.6925 24.3038 34.8078 30.8887 34.8906 37.3028V37.3037Z" fill="white"/>
</g>
<path d="M47.8662 67.9817C47.8662 67.9817 57.9916 67.4386 63.0385 54.0136C68.0853 40.5886 62.342 12.2316 65.4747 1.96655C65.4747 1.96655 52.4226 7.39219 54.1633 31.2099C55.904 55.0285 55.1433 62.6661 47.8662 67.9808V67.9817Z" fill="#FFC229"/>
<g style="mix-blend-mode:overlay" opacity="0.3">
<path d="M60.8884 15.1233C60.4349 17.8599 60.3927 20.6475 60.4138 23.422C60.4402 26.9226 60.5661 30.4223 60.7906 33.915C61.1692 39.7948 61.8243 45.7486 60.7281 51.5378C59.6319 57.3269 56.4385 63.073 51.1037 65.5763C50.8035 65.7171 50.4988 65.8447 50.1915 65.9636C49.5039 66.6845 48.7317 67.3499 47.8662 67.9819C47.8662 67.9819 57.9916 67.4388 63.0385 54.0138C68.0536 40.6733 62.4151 12.5892 65.4184 2.16479C62.9803 6.07823 61.5927 10.8666 60.8884 15.1224V15.1233Z" fill="#33032F"/>
</g>
<g style="mix-blend-mode:overlay" opacity="0.3">
<path d="M63.0385 54.0137C64.5397 50.0202 65.0864 44.7037 65.1956 38.9365C64.3574 45.7441 61.3753 52.8712 55.2498 55.9167C54.9813 56.0505 54.7083 56.1746 54.4327 56.2908C53.5708 61.9911 51.5571 65.2857 47.8662 67.9818C47.8662 67.9818 57.9916 67.4387 63.0385 54.0137Z" fill="#33032F"/>
</g>
<path opacity="0.5" d="M54.1623 31.2107C54.5321 36.2755 54.7892 40.607 54.8939 44.3418C56.146 42.1465 55.3632 38.8431 55.3368 36.4577C55.2849 31.6904 55.505 26.8783 56.6875 22.2396C57.9826 17.1564 60.6038 12.2184 64.5395 8.85065C64.6495 6.12023 64.9251 3.76566 65.4737 1.96826C65.4737 1.96826 52.4216 7.3939 54.1623 31.2116V31.2107Z" fill="#FFEB57"/>
<g style="mix-blend-mode:overlay" opacity="0.5">
<path d="M65.4751 1.9667C65.4751 1.9667 52.423 7.39234 54.1637 31.2101C54.3636 33.9396 54.5291 36.4552 54.6568 38.7799C54.788 38.2685 54.9121 37.8152 55.0178 37.4613C54.007 33.863 54.2298 30.0438 54.6022 26.3249C55.0724 21.6351 55.7908 16.8907 57.7728 12.6138C59.3391 9.23463 61.7965 6.15124 64.9609 4.25702C65.0965 3.41905 65.2665 2.65151 65.4751 1.96582V1.9667Z" fill="white"/>
</g>
<path d="M47.2237 5.11426C46.7624 10.1297 41.9189 18.2286 39.4105 22.4228C36.9029 26.617 34.1268 30.901 33.661 35.7651C33.0605 42.0313 36.3808 47.9076 38.1892 53.938C39.4562 58.1639 39.9924 62.6072 39.767 67.0127C41.5297 68.0275 43.3039 68.7132 45.336 68.6199C47.3681 68.5266 49.4364 67.4607 50.3177 65.6281C53.2338 59.5625 56.1517 48.5009 57.048 41.8306C58.5932 30.3385 48.0531 7.31655 47.2237 5.11514V5.11426Z" fill="#FFCE43"/>
<path opacity="0.5" d="M39.4108 22.4229C36.9032 26.6171 34.1271 30.9011 33.6614 35.7652C33.1806 40.7877 35.2171 45.5602 36.9763 50.3609C36.3177 47.825 35.6891 45.2891 35.4311 42.63C34.9548 37.7104 35.4734 32.5779 37.7599 28.1953C40.8627 22.2477 47.1457 17.6257 47.5877 10.9317C53.6727 20.8103 56.7904 32.4415 56.7059 44.0348C56.8397 43.2602 56.9551 42.5208 57.0484 41.8307C58.5936 30.3386 48.0535 7.31665 47.2241 5.11523C46.7627 10.1307 41.9193 18.2295 39.4108 22.4238V22.4229Z" fill="#FFEB57"/>
<g style="mix-blend-mode:overlay" opacity="0.3">
<path d="M47.2238 5.11426C47.1921 5.45666 47.1384 5.81403 47.0688 6.18284C48.1298 11.3022 47.9818 16.8818 47.8489 21.9387C47.7415 26.0185 47.4562 30.0903 47.1674 34.1604C46.736 40.2418 46.3045 46.3241 45.8731 52.4055C45.7595 54.0084 45.6248 55.679 44.7989 57.0583C43.9731 58.4367 42.2271 59.4085 40.7312 58.8196C40.0735 58.5609 39.5522 58.0442 39.0935 57.5072C39.0847 57.4976 39.0768 57.487 39.0688 57.4764C39.6931 60.61 39.9317 63.8201 39.7679 67.0118C41.5306 68.0267 43.3048 68.7124 45.3369 68.6191C47.369 68.5257 49.4373 67.4598 50.3186 65.6272C53.2347 59.5617 56.1526 48.5 57.0489 41.8297C58.5941 30.3377 48.054 7.31567 47.2246 5.11426H47.2238Z" fill="#33032F"/>
</g>
<g style="mix-blend-mode:overlay" opacity="0.3">
<path d="M46.9558 6.7181C46.9954 7.41435 47.0192 8.11148 47.0139 8.80949C46.9928 11.3102 46.8713 13.8144 46.8097 16.3142C46.6829 21.5039 46.6433 26.6963 46.3509 31.8817C46.0621 36.9887 45.4669 42.0332 44.8647 47.1094C44.5733 49.566 44.3215 52.0306 44.3144 54.5067C44.3083 57.0021 44.5477 59.4948 44.4482 61.9911C44.3646 64.0931 44.0873 66.5462 42.8511 68.3463C43.5088 68.5197 44.1859 68.62 44.892 68.6271C44.9889 68.444 45.0813 68.2583 45.1649 68.0708C47.2684 63.3352 46.0692 57.8224 46.3096 52.8211C46.5799 47.1736 47.7835 41.6063 48.2836 35.9755C48.7784 30.4082 48.8374 24.8109 48.8004 19.2251C48.7802 16.0906 48.7634 12.913 48.5046 9.78829C48.45 9.12725 48.4024 8.46181 48.3461 7.79813C47.7703 6.42763 47.3626 5.4814 47.2244 5.11523C47.1777 5.62048 47.0853 6.15829 46.9567 6.71898L46.9558 6.7181Z" fill="#33032F"/>
</g>
<g style="mix-blend-mode:overlay" opacity="0.3">
<path d="M45.3356 68.6191C47.3677 68.5257 49.4359 67.4598 50.3173 65.6272C53.2334 59.5617 56.1513 48.5 57.0476 41.8297C58.5928 30.3377 48.0527 7.31567 47.2233 5.11426C47.1705 5.68552 47.0587 6.29903 46.9019 6.93982C47.1405 7.55245 47.3536 8.14131 47.5086 8.68969C48.5 12.2105 49.4544 15.7428 50.2953 19.3033C51.9761 26.4163 53.2325 33.6728 53.3646 40.9962C53.4359 44.9404 53.1779 48.8926 52.5008 52.7805C51.8264 56.6534 50.6448 60.6179 47.9365 63.4689C47.0463 64.4055 45.9528 65.225 44.6796 65.4424C42.8236 65.7601 40.9552 64.7074 39.7719 63.2365C39.8309 64.4944 39.8309 65.754 39.7666 67.0118C41.5293 68.0267 43.3034 68.7124 45.3356 68.6191Z" fill="#33032F"/>
</g>
<g style="mix-blend-mode:overlay" opacity="0.2">
<path d="M37.0578 32.7634C36.3059 36.2649 36.9266 40.1264 39.0978 42.9756C39.5583 43.5795 40.2134 44.1859 40.9653 44.0794C41.8282 43.9571 42.2684 43.0003 42.5343 42.1711C43.8224 38.1477 44.6087 33.9649 44.8693 29.7487C44.9424 28.5604 44.9723 27.3501 44.673 26.1979C42.9112 19.4238 37.6134 30.1773 37.0578 32.7643V32.7634Z" fill="white"/>
</g>
<g style="mix-blend-mode:overlay" opacity="0.3">
<path d="M49.5821 66.7115C47.7419 67.7828 45.5663 68.2633 43.8863 67.1015C42.644 66.2415 42.055 64.6923 41.8727 63.1933C41.6905 61.6934 41.8437 60.1724 41.7274 58.6664C41.5284 56.0724 40.5089 53.5479 38.8527 51.5419C38.1316 50.6688 37.2987 49.8959 36.5054 49.0879C37.1059 50.7004 37.7019 52.313 38.1888 53.9379C39.4558 58.1638 39.992 62.6071 39.7666 67.0126C41.5293 68.0275 43.3035 68.7131 45.3356 68.6198C46.9248 68.5468 48.5335 67.8769 49.5821 66.7124V66.7115Z" fill="#33032F"/>
</g>
<g style="mix-blend-mode:overlay" opacity="0.3">
<path d="M30.4675 61.6769C28.3271 56.3973 27.9731 50.5932 27.5751 44.9105C26.6207 31.2813 25.2058 17.4443 20.6802 4.61963C21.3634 8.40983 21.3757 12.3497 21.3757 16.2217C21.3757 21.0955 21.3757 25.9692 21.3749 30.843C21.3749 37.0353 21.3793 43.2839 22.7044 49.3327C23.4942 52.9399 24.7937 56.5223 27.1613 59.3575C27.9934 60.3539 29.3801 61.6276 30.9878 62.8519C30.8038 62.4638 30.6295 62.0712 30.4692 61.676L30.4675 61.6769Z" fill="#33032F"/>
</g>
<g style="mix-blend-mode:overlay" opacity="0.3">
<path d="M24.4711 43.8859C22.6406 38.9602 22.1123 33.6948 21.6158 28.5006C21.5356 27.6591 21.4564 26.8177 21.3745 25.9771C21.3745 27.5993 21.3745 29.2224 21.3745 30.8446C21.3745 37.0369 21.3789 43.2856 22.704 49.3344C23.4938 52.9415 24.7934 56.524 27.161 59.3592C29.5277 62.1935 36.3795 67.2732 40.0686 67.0848C37.7002 65.4626 37.1041 61.8502 36.538 59.0361C36.4332 58.5177 36.3407 57.9975 36.2536 57.4773C30.8387 54.8366 26.6071 49.6284 24.4729 43.885L24.4711 43.8859Z" fill="#33032F"/>
</g>
<g style="mix-blend-mode:overlay" opacity="0.5">
<path d="M27.0549 6.56398C24.9603 3.91102 22.4316 1.65151 19.4424 0.0134277C20.4162 2.62766 20.8987 5.36689 21.139 8.14925C22.6041 7.53134 24.1018 7.00233 25.6647 6.72858C26.1225 6.64848 26.5874 6.59303 27.0549 6.56398Z" fill="white"/>
</g>
<g style="mix-blend-mode:overlay" opacity="0.5">
<path d="M11.2172 7.88514C7.7798 6.68277 4.01227 7.144 0.402344 7.6202C3.15117 9.24507 5.44215 11.0143 7.54207 13.2307C8.66027 11.5882 10.0496 9.57603 11.2348 7.8913C11.2295 7.88954 11.2233 7.8869 11.218 7.88514H11.2172Z" fill="white"/>
</g>
<g style="mix-blend-mode:overlay" opacity="0.5">
<path d="M75.0962 6.50857C75.8789 7.49529 76.1941 8.79272 76.3086 10.0893C78.0951 7.68453 80.276 5.62835 82.9086 4.16016C80.2337 4.88193 77.639 5.60723 75.0962 6.50945V6.50857Z" fill="white"/>
</g>
<g style="mix-blend-mode:overlay" opacity="0.5">
<path d="M48.1916 10.7855C48.6988 10.8268 49.1971 10.9201 49.6858 11.0513C48.4293 7.9327 47.4538 5.72425 47.224 5.11426C47.0637 6.85356 46.3761 8.96431 45.4419 11.1543C46.3083 10.8286 47.2671 10.7098 48.1916 10.7846V10.7855Z" fill="white"/>
</g>
<g style="mix-blend-mode:overlay" opacity="0.5">
<path d="M38.6174 3.76147C38.2185 5.44092 37.8188 7.12037 37.4199 8.8007C38.2414 8.74437 39.0629 8.75229 39.8579 8.90632C39.3622 7.21895 38.929 5.51046 38.6174 3.76147Z" fill="white"/>
</g>
<g style="mix-blend-mode:overlay" opacity="0.5">
<path d="M64.5692 8.2461C64.6943 5.77269 64.9672 3.63025 65.4752 1.96753C65.4752 1.96753 61.2349 3.73324 57.9111 9.66148C60.0155 8.36756 62.2976 7.5877 64.5692 8.2461Z" fill="white"/>
</g>
<g style="mix-blend-mode:overlay" opacity="0.4">
<path d="M53.2071 40.4496C51.086 42.9098 48.5591 45.0399 46.7752 47.7545C42.8668 53.703 43.3599 62.19 47.9287 67.6464C48.7299 63.0209 49.561 58.3047 51.7754 54.1651C53.6279 50.7014 56.3759 47.7853 58.29 44.3551C60.1144 41.0842 61.1375 37.4137 61.6737 33.7071C61.9334 31.9124 62.6774 27.4506 62.0215 26.4903C61.6226 25.9058 60.2702 27.2472 59.2312 29.4531C57.3787 33.3876 56.1232 37.0669 53.2062 40.4505L53.2071 40.4496Z" fill="#33032F"/>
</g>
<path d="M74.974 79.4193C74.2027 77.2055 73.0572 75.1089 72.6046 72.8089C71.7092 68.2573 73.6348 63.6291 73.6137 58.9904C73.5749 50.6178 67.6379 43.5699 64.6346 36.0986C63.829 34.0944 63.1361 32.0814 62.6448 29.9759C62.3762 28.8202 62.1676 27.6574 62.0223 26.4902C60.4595 33.4325 57.1357 39.9725 53.1199 45.891C51.6741 48.022 50.1166 50.1222 49.222 52.5366C47.0649 58.3549 49.0882 64.8711 48.2553 71.0194C47.1221 79.3911 40.7942 86.4927 40.2263 94.9216C39.9243 99.4089 41.3048 103.84 43.0068 108.002C43.9788 110.381 45.0944 112.762 46.872 114.617C47.9145 115.705 49.2159 116.665 49.6878 118.095C50.1043 119.355 49.7855 120.725 49.517 122.025C47.6742 130.953 48.5775 140.36 51.7182 148.919C53.3277 140.943 62.2081 136.09 65.7634 128.77C67.7753 124.629 68.2842 119.923 68.4004 115.321C68.5157 110.742 68.3141 105.957 70.2917 101.825C71.1475 100.037 72.3766 98.4574 73.3627 96.7383C76.337 91.5512 76.9401 85.0658 74.9731 79.4193H74.974Z" fill="#7A9608"/>
<g style="mix-blend-mode:overlay" opacity="0.2">
<path d="M62.6455 62.1002C63.3472 66.6905 64.3756 71.2403 64.7102 75.8729C65.3794 85.1389 63.2539 94.353 61.1434 103.4C58.5733 114.415 56.0032 125.43 53.434 136.445C52.7182 139.511 52.0015 142.59 51.7303 145.728C51.6476 146.688 51.6088 147.652 51.6115 148.616C51.6476 148.718 51.6828 148.819 51.7198 148.919C53.3292 140.943 62.2097 136.09 65.765 128.77C67.7769 124.629 68.2858 119.923 68.402 115.321C68.5173 110.742 68.3157 105.957 70.2933 101.825C71.1491 100.037 72.3782 98.4574 73.3643 96.7383C76.3386 91.5512 76.9417 85.0658 74.9747 79.4193C74.2034 77.2055 73.0579 75.1089 72.6054 72.8089C71.7099 68.2573 73.6355 63.6291 73.6144 58.9904C73.5756 50.6178 67.6386 43.5699 64.6354 36.0986C63.8297 34.0944 63.1368 32.0814 62.6455 29.9759C62.377 28.8202 62.1683 27.6574 62.023 26.4902C61.0941 38.4955 60.8256 50.1979 62.6464 62.101L62.6455 62.1002Z" fill="#33032F"/>
</g>
<g style="mix-blend-mode:overlay" opacity="0.2">
<path d="M53.4625 137.715C51.9313 141.136 51.6874 144.927 51.7631 148.711C53.3181 141.608 60.6286 136.976 64.6198 130.788C60.0404 129.929 55.3907 133.403 53.4616 137.714L53.4625 137.715Z" fill="#33032F"/>
</g>
<g style="mix-blend-mode:overlay" opacity="0.2">
<path d="M62.7673 42.1855C62.9557 43.4899 63.1881 44.8305 63.8951 45.9422C64.6022 47.0539 65.9053 47.8901 67.2031 47.6595C67.9374 47.5292 68.5748 47.0847 69.2792 46.8383C69.5064 46.7591 69.7362 46.7054 69.966 46.671C68.1593 43.1167 66.0646 39.6557 64.6347 36.0979C63.8291 34.0937 63.1362 32.0806 62.6449 29.9751C62.4653 29.2023 62.3147 28.4251 62.1897 27.647C60.8329 31.7004 62.4776 40.1803 62.7673 42.1855Z" fill="#33032F"/>
</g>
<g style="mix-blend-mode:overlay" opacity="0.2">
<path d="M73.3641 96.7377C74.6294 94.531 75.4641 92.0893 75.8559 89.5771C75.3698 89.8386 74.8292 90.0252 74.3115 90.2259C67.3761 92.9202 62.7668 100.634 63.6807 108.017C64.2266 112.424 66.485 116.516 68.0214 120.69C68.2504 118.91 68.356 117.108 68.4009 115.319C68.5163 110.74 68.3146 105.955 70.2922 101.824C71.148 100.036 72.3771 98.4559 73.3633 96.7368L73.3641 96.7377Z" fill="#33032F"/>
</g>
<g style="mix-blend-mode:overlay" opacity="0.2">
<path d="M70.9387 75.3862C72.2347 76.615 73.6558 77.754 74.8488 79.0699C74.0837 76.9838 73.0333 74.9875 72.6045 72.809C71.7091 68.2574 73.6346 63.6292 73.6135 58.9905C73.6126 58.7326 73.6056 58.4765 73.5933 58.2212C73.2613 58.7088 72.9047 59.1789 72.5341 59.6251C70.2519 62.3776 67.2037 65.0842 67.2416 68.6597C67.2689 71.2897 69.0316 73.5756 70.9395 75.3862H70.9387Z" fill="#33032F"/>
</g>
<g style="mix-blend-mode:overlay" opacity="0.2">
<path d="M50.504 128.738C51.1908 124.563 52.2729 120.154 50.7135 116.22C49.7996 113.914 48.0677 112.048 46.6378 110.021C42.8184 104.608 41.1464 97.2613 43.9119 91.2424C44.9139 89.0621 46.4292 87.1661 47.8194 85.2094C49.8542 82.3452 51.6865 79.1887 52.0924 75.6987C52.7536 70.0151 49.5531 64.5367 49.4967 58.8153C49.4316 52.0755 53.5398 46.2802 56.8302 40.7243C58.5277 37.8583 60.2314 34.914 61.1744 31.6968C61.6102 30.2092 61.6199 28.7868 61.7828 27.4902C60.1363 34.0602 56.942 40.2569 53.1199 45.8893C51.6741 48.0203 50.1166 50.1205 49.222 52.535C47.0649 58.3532 49.0882 64.8694 48.2553 71.0177C47.1221 79.3894 40.7942 86.491 40.2263 94.9199C39.9243 99.4072 41.3048 103.838 43.0068 108.001C43.9788 110.379 45.0944 112.76 46.872 114.616C47.9145 115.704 49.2159 116.663 49.6878 118.093C50.1043 119.354 49.7855 120.723 49.517 122.023C47.6742 130.951 48.5775 140.358 51.7182 148.918C51.7683 148.67 51.8256 148.425 51.889 148.183C49.5901 142.203 49.4448 135.173 50.5031 128.738H50.504Z" fill="white"/>
</g>
<g style="mix-blend-mode:overlay" opacity="0.2">
<path d="M51.7194 148.918C53.3289 140.942 62.2093 136.089 65.7647 128.769C67.7766 124.628 68.2855 119.922 68.4017 115.32C68.517 110.741 68.3154 105.956 70.2929 101.824C70.8327 100.698 71.5203 99.6527 72.2027 98.6035C65.1783 105.358 59.8004 113.856 56.9353 123.122C57.8061 116.613 56.7258 109.855 53.8695 103.941C50.7219 97.4232 45.4646 91.8567 43.745 84.8264C43.6755 84.543 43.6138 84.2596 43.5566 83.9744C41.9418 87.5111 40.4846 91.0777 40.2258 94.9207C39.9238 99.408 41.3044 103.839 43.0063 108.002C43.9783 110.38 45.0939 112.761 46.8716 114.616C47.914 115.704 49.2154 116.664 49.6873 118.094C50.1038 119.355 49.785 120.724 49.5165 122.024C47.6737 130.952 48.577 140.359 51.7177 148.918H51.7194Z" fill="#33032F"/>
</g>
<g style="mix-blend-mode:overlay" opacity="0.2">
<path d="M68.2877 117.904C63.5173 120.279 60.1222 125.004 57.0476 129.482C55.3686 131.929 53.642 134.493 53.2378 137.432C53.3866 133.421 53.0697 129.393 52.2931 125.455C51.8027 122.968 51.1089 120.473 49.7573 118.332C50.0638 119.525 49.7688 120.805 49.517 122.024C47.6742 130.952 48.5775 140.359 51.7182 148.918C53.3277 140.942 62.2081 136.089 65.7634 128.769C67.3993 125.401 68.0421 121.66 68.2868 117.904H68.2877Z" fill="#33032F"/>
</g>
<g style="mix-blend-mode:overlay" opacity="0.2">
<path d="M58.3687 107.561C61.3763 97.6255 62.5509 87.1396 61.8148 76.7856C61.4521 71.6892 60.6332 66.6359 60.1859 61.5465C59.508 53.8305 59.6902 46.0397 60.7266 38.3643C59.2104 57.7906 66.4258 77.9607 61.9081 96.9161C60.9159 101.078 59.8866 103.56 58.3687 107.561Z" fill="white"/>
</g>
</g>
<defs>
<clipPath id="clip0_3_173415">
<rect width="82.5066" height="148.987" fill="white" transform="translate(0.400391 0.0131836)"/>
</clipPath>
</defs>
</svg>
