<svg width="50" height="44" viewBox="0 0 50 44" fill="none" xmlns="http://www.w3.org/2000/svg">
<g clip-path="url(#clip0_3_173135)">
<path d="M38.1233 42.3685C38.5298 41.0645 40.2944 39.2331 42.7401 37.7244C45.1881 36.2143 47.6102 35.4642 48.9466 35.6945L49.38 35.4272L49.8608 36.2195C50.5654 37.3799 48.5193 39.9349 45.291 41.9264C42.0627 43.9179 38.8744 44.5917 38.1703 43.4313L37.688 42.6367L38.1233 42.368V42.3685Z" fill="#930606"/>
<path d="M44.8089 41.139C48.0373 39.1479 50.0835 36.5931 49.3793 35.4328C48.675 34.2724 45.487 34.946 42.2586 36.9371C39.0302 38.9283 36.984 41.4831 37.6883 42.6434C38.3925 43.8038 41.5806 43.1302 44.8089 41.139Z" fill="#AF1212"/>
<g style="mix-blend-mode:overlay" opacity="0.2">
<path d="M44.8102 41.1348C41.5819 43.1263 38.3935 43.8001 37.6894 42.6397C37.1112 41.6873 38.3884 39.7953 40.6493 38.0463C40.5482 38.2956 40.4613 38.5505 40.4058 38.8135C40.2568 39.519 40.3391 40.38 40.9379 40.7747C41.2025 40.9491 41.5292 41.0021 41.8456 41.0012C42.7302 40.9974 43.5678 40.6022 44.3157 40.126C46.0267 39.0357 47.4354 37.4692 48.344 35.6459C48.4545 35.4241 48.5682 35.1844 48.618 34.9375C48.9663 35.0237 49.2319 35.1825 49.3809 35.4279C50.0855 36.5883 48.0394 39.1433 44.8111 41.1348H44.8102Z" fill="black"/>
</g>
<path d="M32.2593 37.092L40.0029 27.2144L46.5257 31.3642C47.2021 31.903 45.7722 34.8635 43.3317 37.9766C40.8912 41.0897 38.3643 43.1765 37.6879 42.6377L32.2593 37.0924V37.092Z" fill="#CC2121"/>
<g style="mix-blend-mode:overlay" opacity="0.3">
<path d="M37.8589 29.9493L40.0032 27.2144L46.5261 31.3642C46.9938 31.7371 46.4533 33.269 45.2678 35.208C42.8475 33.3733 39.6836 31.1903 37.8594 29.9493H37.8589Z" fill="black"/>
</g>
<g style="mix-blend-mode:overlay" opacity="0.3">
<path d="M37.6879 42.6373L32.2593 37.092L34.0633 34.791C35.7743 36.4163 38.4902 38.9485 40.7596 40.8561C39.3161 42.2464 38.1213 42.9832 37.6879 42.6378V42.6373Z" fill="black"/>
</g>
<g style="mix-blend-mode:overlay" opacity="0.2">
<path d="M38.728 28.8401L40.0028 27.2139L46.5257 31.3637C46.874 31.6414 46.6601 32.5644 46.0406 33.8173C43.852 32.1801 40.6092 30.0526 38.7285 28.8401H38.728Z" fill="black"/>
</g>
<g style="mix-blend-mode:overlay" opacity="0.2">
<path d="M33.253 35.8245C34.7534 37.4791 37.3659 40.2923 39.3448 42.0649C38.5678 42.6283 37.9675 42.8609 37.6879 42.6378L32.2593 37.0925L33.253 35.8249V35.8245Z" fill="black"/>
</g>
<path d="M16.3516 0C15.8862 0.152575 0.000488281 18.7308 0.000488281 18.7308L2.57353 21.9889C2.57353 21.9889 19.8535 29.3011 21.7929 31.0207C23.7323 32.7402 30.8408 37.3563 32.2599 37.0915C33.679 36.8266 40.0637 30.227 40.0035 27.2139C39.9433 24.2007 35.915 16.9799 29.4678 13.0646C23.2886 9.31231 19.4408 2.46016 19.4408 2.46016L16.3516 0Z" fill="#FFC0C0"/>
<path d="M13.4501 25.2471C14.3155 24.4335 14.9482 23.4058 15.5691 22.3903C16.198 21.3621 16.8326 20.3235 17.6726 19.462C18.607 18.5039 19.7633 17.7979 20.7697 16.9166C22.2095 15.6557 23.316 14.0603 24.3844 12.4677C24.8831 11.7243 25.3842 10.9462 25.5581 10.071C26.7233 11.1528 28.0315 12.1929 29.4675 13.0652C29.8539 13.2998 30.2304 13.5466 30.5989 13.8035C30.5542 14.093 30.5063 14.3815 30.4424 14.6673C30.0522 16.4067 29.2052 18.1737 27.6512 19.0256C26.6773 19.5596 25.5318 19.6771 24.5136 20.1192C22.6147 20.9437 21.3695 22.7869 20.3537 24.6022C19.5513 26.036 18.7894 27.5442 17.7106 28.7573C16.0655 27.9565 14.1124 27.0557 12.1641 26.1786C12.6275 25.9218 13.0623 25.6124 13.4501 25.2476V25.2471Z" fill="#CC2121"/>
<g style="mix-blend-mode:overlay" opacity="0.3">
<path d="M45.4685 30.6909L46.1214 31.1065C45.8784 32.4015 44.519 34.828 42.5434 37.3478C40.5725 39.8616 38.5499 41.7536 37.355 42.2966L36.8149 41.7446C38.0178 41.1551 39.9878 39.3015 41.9131 36.8456C43.8487 34.3764 45.1874 32.003 45.4685 30.6909Z" fill="black"/>
</g>
<g style="mix-blend-mode:overlay" opacity="0.3">
<path d="M19.4405 2.46073C19.4405 2.46073 19.6314 2.80047 19.9952 3.36812L3.45229 22.3633C2.89528 22.1254 2.57377 21.989 2.57377 21.989L2.12158 21.4161L19.0701 2.16553L19.4405 2.46073Z" fill="black"/>
</g>
<g style="mix-blend-mode:overlay" opacity="0.2">
<path d="M0.000488281 18.7308C0.000488281 18.7308 0.621422 18.0044 1.61887 16.8406C2.66284 18.2024 4.04103 19.3051 5.4084 20.3579C7.45123 21.9301 9.55281 23.4919 11.9609 24.3983C13.0909 24.8238 14.2712 25.0977 15.4218 25.4626C18.4955 26.4368 21.3407 28.0535 23.9485 29.9612C26.208 31.6139 28.7736 33.6069 31.482 32.925C33.6818 32.3716 35.1376 30.0768 35.3091 27.7976C35.4807 25.5189 34.6031 23.2848 33.4741 21.3027C32.6477 19.8519 31.67 18.4744 30.4549 17.3344C28.9348 15.9076 27.088 14.8913 25.4301 13.6304C23.5382 12.1913 21.8869 10.423 20.622 8.40255C19.9423 7.31651 19.3712 6.15609 18.5782 5.15108C17.5089 3.79591 16.0766 2.74494 14.6072 1.85412C15.6075 0.734921 16.2623 0.0293779 16.3516 0L19.4403 2.46063C19.4403 2.46063 23.2881 9.31231 29.4674 13.0651C35.9145 16.9804 39.9429 24.2012 40.003 27.2143C40.0632 30.2275 33.6785 36.8271 32.2594 37.0919C30.8404 37.3568 23.7323 32.7407 21.7924 31.0211C19.853 29.3016 2.57306 21.9893 2.57306 21.9893L0.000488281 18.7308Z" fill="black"/>
</g>
<g style="mix-blend-mode:overlay" opacity="0.3">
<path d="M27.2397 18.5575C28.7523 19.6023 30.2847 20.6646 31.4668 22.0776C32.649 23.4906 33.458 25.322 33.261 27.1595C33.1717 27.993 32.8624 28.825 32.272 29.415C31.1881 30.4972 29.4437 30.5304 27.9579 30.1826C24.8114 29.4458 22.1025 27.3429 20.0992 24.7884C18.6185 22.9006 17.4867 20.7665 16.5094 18.5788C15.8528 17.1085 14.327 14.8412 15.9712 13.5324C17.4453 12.3592 19.3208 13.1031 20.6651 14.0162C22.8678 15.5126 25.0483 17.0436 27.2392 18.557L27.2397 18.5575Z" fill="white"/>
</g>
<g style="mix-blend-mode:overlay" opacity="0.2">
<path d="M14.3688 3.03864C14.9394 3.45183 15.5848 3.86169 16.0257 4.41703C16.2998 4.76246 15.8861 5.29031 15.4894 5.10125C14.8515 4.79752 14.3068 4.25924 13.7761 3.79488C13.6125 3.65178 13.4419 3.50821 13.2773 3.35848C13.4842 3.12346 13.6839 2.89696 13.8752 2.68042C14.0431 2.79841 14.2071 2.92113 14.3693 3.03864H14.3688Z" fill="black"/>
</g>
<g style="mix-blend-mode:overlay" opacity="0.2">
<path d="M16.9412 3.24899C16.3034 2.94526 15.7586 2.40698 15.2279 1.94262C15.0991 1.82985 14.9661 1.71707 14.835 1.60098C15.0634 1.34606 15.2702 1.1172 15.4531 0.917236C15.5772 1.00727 15.6999 1.09824 15.8211 1.18638C16.3918 1.59956 17.0371 2.00943 17.478 2.56477C17.7521 2.91019 17.3384 3.43805 16.9417 3.24899H16.9412Z" fill="black"/>
</g>
<g style="mix-blend-mode:overlay" opacity="0.2">
<path d="M13.8774 7.2543C13.2696 6.89276 12.7765 6.30663 12.29 5.79536C12.0945 5.58971 11.8872 5.38217 11.6982 5.16184C11.891 4.94103 12.0799 4.72449 12.2656 4.51221C12.5034 4.69653 12.7276 4.90312 12.949 5.0974C13.4797 5.56176 14.0851 6.02896 14.4739 6.62315C14.7155 6.99227 14.2558 7.47985 13.8774 7.25525V7.2543Z" fill="black"/>
</g>
<g style="mix-blend-mode:overlay" opacity="0.2">
<path d="M9.56021 8.72188C10.0909 9.18624 10.6963 9.65345 11.085 10.2476C11.3267 10.6168 10.8669 11.1043 10.4886 10.8793C9.88078 10.5177 9.3877 9.93159 8.9012 9.42032C8.74702 9.25827 8.58533 9.09527 8.43115 8.92516C8.62669 8.69867 8.82223 8.47312 9.01683 8.24805C9.20344 8.40204 9.38253 8.56599 9.56021 8.72141V8.72188Z" fill="black"/>
</g>
<g style="mix-blend-mode:overlay" opacity="0.2">
<path d="M10.9508 6.807C11.4815 7.27136 12.0869 7.73856 12.4752 8.33275C12.7168 8.70187 12.2571 9.18945 11.8787 8.96485C11.2709 8.60331 10.7778 8.01718 10.2913 7.50591C10.1828 7.39171 10.0704 7.27752 9.95996 7.16048C10.1626 6.92688 10.3637 6.69517 10.563 6.46631C10.6946 6.58003 10.823 6.69612 10.9508 6.80747V6.807Z" fill="black"/>
</g>
<g style="mix-blend-mode:overlay" opacity="0.2">
<path d="M3.42785 15.8473C3.95853 16.3116 4.56396 16.7788 4.95269 17.3726C5.19429 17.7417 4.73458 18.2293 4.35619 18.0047C3.74842 17.6431 3.25534 17.057 2.76884 16.5457C2.61419 16.3832 2.45203 16.2197 2.29785 16.0496C2.48399 15.8326 2.67859 15.6061 2.88071 15.3706C3.06873 15.5256 3.24923 15.6909 3.42832 15.8473H3.42785Z" fill="black"/>
</g>
<g style="mix-blend-mode:overlay" opacity="0.2">
<path d="M1.66256 17.4371C2.19325 17.9014 2.79867 18.3686 3.1874 18.9628C3.429 19.3319 2.9693 19.8195 2.59091 19.5944C1.98313 19.2329 1.49005 18.6468 1.00355 18.1355C0.918004 18.0455 0.830105 17.9554 0.742676 17.864C0.917534 17.6598 1.12012 17.4233 1.34716 17.1584C1.45339 17.2518 1.55868 17.3461 1.66256 17.4371Z" fill="black"/>
</g>
<g style="mix-blend-mode:overlay" opacity="0.2">
<path d="M6.48778 12.2926C7.01846 12.7569 7.62389 13.2241 8.01262 13.8183C8.25422 14.1874 7.79451 14.675 7.41612 14.4504C6.80835 14.0889 6.31527 13.5027 5.82877 12.9915C5.67318 12.828 5.51008 12.6636 5.35449 12.4925C5.54674 12.2694 5.74181 12.0429 5.93829 11.8149C6.12725 11.9704 6.30822 12.1362 6.48778 12.2935V12.2926Z" fill="black"/>
</g>
<g style="mix-blend-mode:overlay" opacity="0.2">
<path d="M4.21448 14.7016C4.08334 14.5637 3.9475 14.4253 3.81494 14.2827C4.00813 14.0581 4.20508 13.8288 4.40673 13.5942C4.56608 13.7293 4.72072 13.8691 4.87396 14.0032C5.40465 14.4675 6.01007 14.9347 6.3988 15.5289C6.6404 15.898 6.1807 16.3856 5.80231 16.161C5.19453 15.7995 4.70145 15.2133 4.21495 14.7021L4.21448 14.7016Z" fill="black"/>
</g>
<g style="mix-blend-mode:overlay" opacity="0.2">
<path d="M9.55802 12.0538C9.79963 12.4229 9.33992 12.9105 8.96153 12.6854C8.35376 12.3239 7.86068 11.7378 7.37418 11.2265C7.21436 11.0583 7.04608 10.8896 6.88721 10.7133C7.0804 10.4892 7.275 10.2641 7.4696 10.0386C7.66326 10.1973 7.8494 10.3674 8.03366 10.5285C8.56434 10.9929 9.16976 11.4601 9.55849 12.0543L9.55802 12.0538Z" fill="black"/>
</g>
<g style="mix-blend-mode:overlay" opacity="0.2">
<path d="M3.88376 22.5476C3.06305 22.196 2.57373 21.9889 2.57373 21.9889L19.4405 2.46069C19.4405 2.46069 19.9768 3.415 20.9691 4.80571L3.88376 22.5476Z" fill="black"/>
</g>
</g>
<defs>
<clipPath id="clip0_3_173135">
<rect width="50" height="44" fill="white"/>
</clipPath>
</defs>
</svg>
