<svg width="100" height="144" viewBox="0 0 100 144" fill="none" xmlns="http://www.w3.org/2000/svg">
<g clip-path="url(#clip0_3_173315)">
<path d="M53.5709 129.313C54.9649 125.474 56.8261 121.815 59.1383 118.45C61.3933 115.168 64.0161 112.155 66.778 109.294C72.3279 103.542 78.4481 98.3464 83.6229 92.2335C88.8112 86.1032 92.715 78.9473 95.334 71.3619C97.6499 64.6528 98.9147 57.6698 99.3968 50.606C99.3918 54.4833 98.0177 70.325 97.2784 73.7592C95.7515 80.8467 92.1671 87.3505 87.8161 93.0837C83.2265 99.1318 77.6977 104.477 71.5899 108.97C68.6938 111.1 65.7132 113.125 62.9724 115.459C60.2378 117.788 57.8511 120.459 56.1216 123.624C54.7289 126.171 53.7399 128.86 52.9907 131.622C53.0007 131.395 53.0094 131.169 53.0193 130.942C53.1957 130.397 53.3771 129.853 53.5734 129.314L53.5709 129.313Z" fill="#B6D86C"/>
<path d="M98.7756 49.8539C97.5021 58.8359 94.0345 67.4619 88.8709 74.9005C86.2481 78.6782 83.152 82.1062 79.6831 85.1222C75.726 88.5626 71.4061 91.5575 67.47 95.0228C63.2172 98.767 59.5408 103.128 56.5143 107.907C56.2447 107.704 55.9937 107.481 55.7676 107.303C56.6845 104.332 57.6474 101.375 58.7507 98.4657C58.8761 98.1346 59.0128 97.806 59.142 97.4762C59.398 97.6106 59.6378 97.7761 59.8614 97.9741C60.0092 98.1048 60.3174 98.1135 60.4031 97.8919C60.6789 97.1824 60.6565 96.382 60.3025 95.7286C60.8181 95.741 61.3287 95.7111 61.8344 95.5593C62.545 95.3452 63.1911 94.9494 63.7365 94.449C63.995 94.2125 63.7577 93.8391 63.4632 93.8167C62.7103 93.7582 61.7288 93.6275 61.3026 92.9503C62.0033 92.7723 62.6258 92.3927 63.0942 91.8139C63.2893 91.5736 63.1787 91.0957 62.8022 91.1367C62.5202 91.1679 62.2158 91.1915 61.9189 91.1716C63.37 88.2739 65.0535 85.5006 67.0215 82.9364C67.9596 82.8755 68.879 82.4635 69.5263 81.7664C69.699 81.5797 69.5958 81.2187 69.3312 81.1839C69.084 81.1515 68.8529 81.0706 68.6317 80.9698C68.8392 80.7308 69.0343 80.4818 69.2492 80.2478C71.908 77.3451 75.0787 75.0685 78.1077 72.5828C81.2287 70.0199 84.0416 67.1109 86.6904 64.0663C89.3132 61.0516 91.8242 57.9211 94.2693 54.7607C95.8906 52.6645 97.4238 50.5199 98.7395 48.2383C98.7818 48.5544 98.8228 48.8706 98.865 49.188C98.8352 49.4096 98.8066 49.6324 98.7743 49.8539H98.7756Z" fill="#98BB5B"/>
<path d="M51.5223 129.641C51.4962 127.805 51.4677 125.968 51.4316 124.132C51.5882 123.026 51.7746 121.919 52.0056 120.816C51.8242 123.756 51.6627 126.698 51.5223 129.64V129.641Z" fill="#91B249"/>
<path d="M83.6231 92.2334C78.4484 98.3463 72.3294 103.542 66.7783 109.294C64.0163 112.155 61.3936 115.168 59.1385 118.45C56.8264 121.814 54.9652 125.474 53.5712 129.313C53.3749 129.852 53.1935 130.396 53.0171 130.941C53.2482 125.749 53.5402 120.561 53.9042 115.377C54.2173 115.039 54.421 114.611 54.4633 114.147C55.0124 114.356 55.4485 114.83 55.6336 115.388C55.7057 115.603 55.9927 115.607 56.1207 115.451C56.6922 114.758 56.7692 113.813 56.4263 113.03C56.9047 113.124 57.388 113.127 57.8849 112.962C58.5832 112.729 59.1112 112.168 59.2678 111.447C59.3088 111.26 59.1472 111.126 58.9895 111.085C58.4925 110.954 58.0005 110.719 57.588 110.397C58.2676 110.095 58.7646 109.442 58.7782 108.663C58.782 108.421 58.5397 108.114 58.2676 108.268C57.6514 108.618 57.0475 108.307 56.5133 107.903C59.5399 103.125 63.2162 98.7633 67.469 95.0191C71.4051 91.5538 75.725 88.5602 79.6821 85.1185C83.1498 82.1025 86.2471 78.6745 88.8699 74.8968C94.0335 67.4583 97.5011 58.8323 98.7746 49.8503C98.8056 49.6287 98.8355 49.4059 98.8653 49.1843C98.823 48.8682 98.7808 48.552 98.7398 48.2346C99.0318 47.728 99.3138 47.2139 99.5822 46.6924C99.5747 47.011 99.5648 47.3284 99.5536 47.6471C99.5163 48.6329 99.4641 49.6175 99.397 50.6021C98.9162 57.6647 97.6514 64.6477 95.3343 71.358C92.7152 78.9434 88.8128 86.0994 83.6231 92.2297V92.2334Z" fill="#91B249"/>
<path d="M41.5036 63.9219C42.0676 64.1161 42.4913 64.5119 42.8168 65.0036C42.8939 65.1206 42.9634 65.2451 43.033 65.3733C42.5137 65.6783 42.0515 66.0828 41.7111 66.5409C41.2514 67.1607 41.0352 67.8964 41.0675 68.6295C40.7171 67.4532 40.3556 66.2807 39.9717 65.1144C39.9145 64.9389 39.8499 64.7659 39.7915 64.5916C39.8375 64.4422 39.9195 64.2978 40.0611 64.1609C40.445 63.79 41.019 63.7551 41.5036 63.9219Z" fill="#638C2D"/>
<path d="M46.7956 45.2322C46.6279 45.4737 46.5099 45.7351 46.4192 46.0052C46.1757 44.3397 45.9172 42.6768 45.6377 41.0175C45.6712 40.5545 45.7209 40.0927 45.8092 39.6396C45.8762 39.2911 45.962 38.9451 46.0614 38.604C47.1733 40.5172 48.2319 42.4639 49.2308 44.4443C48.9513 44.3497 48.6667 44.2775 48.3686 44.2874C47.7213 44.3086 47.1572 44.7131 46.7969 45.231L46.7956 45.2322Z" fill="#638C2D"/>
<path d="M32.221 23.0039C32.5862 23.1172 32.9167 23.3101 33.1888 23.5728C33.0571 23.6064 32.9267 23.6474 32.7974 23.7147C32.5601 23.8379 32.3464 23.9997 32.1564 24.1876C31.9787 24.3619 32.088 24.6382 32.3054 24.7055C33.0447 24.9332 33.4907 25.6091 33.9305 26.2278C34.0337 26.3734 34.138 26.5165 34.2436 26.6497C34.2834 26.6995 34.3244 26.7481 34.3654 26.7954C34.8027 27.5161 35.5258 28.0886 36.3123 28.2803C37.0739 28.4658 37.8231 28.3475 38.4816 28.0276C40.2322 30.0055 41.8386 31.971 43.0525 33.7223C43.3233 34.5052 43.5619 35.2981 43.7954 36.0923C44.4452 39.6771 44.9857 43.2781 45.4429 46.8916C45.054 46.207 44.5943 45.5734 44.0278 45.0133C43.67 44.6585 43.2761 44.3448 42.8574 44.066C42.7704 44.0088 42.681 43.9565 42.5928 43.9042C42.6226 43.8656 42.6574 43.8308 42.6847 43.7922C43.1345 43.1661 43.4115 42.413 43.424 41.6363C43.4426 40.5335 42.6909 39.6933 41.9069 39.0174C41.1988 38.4087 40.2433 37.7465 40.1452 36.7333C40.1241 36.5093 39.847 36.3337 39.6656 36.5279C39.2556 36.9661 38.9363 37.4478 38.6866 37.983C38.3635 37.8361 38.0952 37.6009 37.9014 37.2959C37.7846 37.1117 37.5038 37.1341 37.4392 37.3532C37.3087 37.7926 37.3224 38.2469 37.4615 38.6738C36.5782 38.8145 35.7296 39.0298 34.927 39.4468C34.7245 39.5526 34.7891 39.8364 34.9829 39.9036C35.3444 40.0269 35.6687 40.2298 35.9333 40.4999C35.8004 40.5297 35.6699 40.5671 35.537 40.6306C35.296 40.7463 35.0785 40.9032 34.8822 41.0849C34.6996 41.2542 34.8015 41.533 35.0164 41.6064C35.7495 41.8554 36.1756 42.5425 36.598 43.1748C36.6974 43.3242 36.7968 43.4698 36.9 43.6055C36.9385 43.6565 36.9782 43.7051 37.018 43.7536C37.4342 44.4867 38.1411 45.0792 38.9214 45.2933C40.1315 45.6244 41.3267 45.1813 42.184 44.3573C42.4549 44.5477 42.7183 44.7046 42.8263 44.7929C43.7035 45.5074 44.4055 46.3962 44.9211 47.4019C45.2317 48.0081 45.4963 48.6292 45.7324 49.259C46.1946 53.2223 46.5698 57.1955 46.8866 61.1736C47.0196 62.8453 47.1376 64.5182 47.2569 66.1911C47.2494 66.1824 47.2444 66.1725 47.237 66.165C46.735 65.4107 45.9498 64.8655 45.0118 64.8269C44.6266 64.8107 44.239 64.878 43.8638 64.9987C43.6252 64.5531 43.286 64.1411 42.9767 63.851C42.435 63.3407 41.6982 63.0183 40.9465 63.0706C40.3514 63.1129 39.8656 63.4166 39.5563 63.8983C38.8083 61.7026 37.9958 59.5293 37.1174 57.3822C37.9958 57.6834 39.1127 57.9485 39.5724 58.8472C39.6755 59.0476 39.9961 59.1086 40.0942 58.8609C40.3142 58.302 40.4334 57.7369 40.4682 57.1457C40.8223 57.1631 41.1578 57.2826 41.451 57.4942C41.6274 57.6224 41.8796 57.4967 41.8597 57.2701C41.8187 56.8133 41.6386 56.3963 41.3516 56.0503C42.1206 55.5922 42.8301 55.0782 43.4227 54.3948C43.573 54.2218 43.4078 53.9816 43.2028 53.9915C42.8214 54.0102 42.4449 53.9417 42.0995 53.7886C42.2126 53.7115 42.3194 53.6281 42.4188 53.521C42.6002 53.3243 42.7443 53.0978 42.8599 52.8563C42.9667 52.6323 42.7692 52.4095 42.5431 52.4207C41.7703 52.4605 41.1205 51.9788 40.4955 51.5481C40.3489 51.446 40.2023 51.3477 40.057 51.2593C40.0023 51.227 39.9476 51.1946 39.893 51.1647C39.2357 50.6382 38.3611 50.3469 37.5572 50.4366C36.885 50.5113 36.3048 50.8013 35.829 51.2145C35.655 50.7664 35.4252 50.3494 35.2127 50.032C34.8574 49.5043 33.9815 48.7798 33.3317 49.045C32.3377 47.0621 31.2767 45.1104 30.1076 43.2358C30.1386 42.9756 30.1101 42.6956 30.0479 42.4217C30.2666 42.428 30.4741 42.5014 30.6741 42.6346C30.8953 42.7815 31.2307 42.5723 31.2071 42.311C31.1661 41.8616 31.0643 41.4434 30.9077 41.0301C31.2258 40.8845 31.5525 40.7625 31.8855 40.648C32.1303 40.5633 32.2731 40.2634 32.1191 40.0306C31.9215 39.7319 31.7103 39.4456 31.4966 39.1593C31.8495 38.7784 32.1551 38.3602 32.4309 37.9158C32.6111 37.6258 32.3589 37.1565 31.9998 37.2026C30.8655 37.3482 29.9995 36.5628 29.0167 36.1396C28.7558 36.0275 28.4937 35.9479 28.2315 35.8981C27.5556 35.7699 26.8735 35.8433 26.1914 36.1035C25.7628 36.2665 25.3143 36.4732 24.9329 36.7545C24.872 36.696 24.8123 36.6337 24.7515 36.5752C24.908 35.9541 25.0534 35.3305 25.1789 34.7031C26.1765 29.7404 26.3927 24.6432 25.9628 19.6045C25.9119 19.0133 25.8523 18.422 25.7839 17.832C25.7926 17.0939 25.7752 16.3558 25.733 15.6177C25.7156 15.304 29.0478 18.244 32.9652 22.1786C32.6894 22.2857 32.416 22.4039 32.1514 22.5521C31.9514 22.6628 32.0247 22.9454 32.221 23.0064V23.0039Z" fill="#638C2D"/>
<path d="M47.3664 87.8383C47.7416 87.9826 48.1765 88.1121 48.5492 88.2976C48.6076 89.4726 48.661 90.6464 48.7157 91.8214C48.2324 91.6919 47.7255 91.6359 47.2347 91.7119C46.9527 91.7193 46.6719 91.7679 46.4035 91.8675C46.2371 91.9284 46.088 92.0118 45.9488 92.1052C45.8668 91.4679 45.7898 90.8306 45.7003 90.1945C45.5152 88.8776 45.309 87.5644 45.0928 86.2512C45.668 86.9956 46.4967 87.5009 47.3664 87.8358V87.8383Z" fill="#638C2D"/>
<path d="M52.6221 95.273C52.222 94.9294 51.9996 94.4066 51.7002 93.9822C51.5014 93.6996 51.2765 93.4332 51.0318 93.188C51.0094 93.1656 50.9833 93.1457 50.9609 93.1233C51.0019 92.6229 51.0765 92.1163 51.2566 91.657C51.4641 91.128 51.817 90.6363 52.3102 90.3426C52.5699 90.187 52.837 90.1223 53.1066 90.1123C53.0793 90.1621 53.0408 90.2057 53.0159 90.2567C52.6469 91.0446 52.678 92.0192 52.9737 92.8495C53.2346 93.5789 53.6583 94.2174 54.1465 94.8074C54.1378 94.8883 54.1279 94.9692 54.1192 95.0514C54.0533 95.2854 53.9912 95.5194 53.9266 95.7534C53.4806 95.6763 52.9737 95.5754 52.6208 95.273H52.6221Z" fill="#638C2D"/>
<path d="M52.1533 96.977C52.6913 96.9944 53.2131 96.8749 53.6915 96.6248C53.5622 97.1077 53.438 97.5919 53.3162 98.0761C52.8044 97.8384 52.3061 97.5023 52.1546 96.9783L52.1533 96.977Z" fill="#638C2D"/>
<path d="M34.9205 51.0726C35.0423 51.3402 35.133 51.6165 35.215 51.8953C35.1094 52.0472 35.0162 52.2065 34.9329 52.3733C34.5142 51.4721 34.0856 50.5734 33.6445 49.6785C33.852 49.7009 34.0446 49.7793 34.2359 49.9672C34.5403 50.266 34.7478 50.6892 34.9218 51.0726H34.9205Z" fill="#638C2D"/>
<path d="M51.7509 106.314C51.4887 106.379 51.2191 106.471 50.9545 106.59C50.8675 104.129 50.7718 101.669 50.6675 99.2078C51.0862 99.3335 51.5111 99.4231 51.9608 99.4181C52.3212 99.4144 52.679 99.3571 53.0256 99.2625C52.9287 99.6733 52.8305 100.084 52.7411 100.497C52.3274 102.422 52.013 104.363 51.7496 106.313L51.7509 106.314Z" fill="#638C2D"/>
<path d="M47.7267 117.513C47.5937 112.052 47.344 106.594 46.8979 101.153C46.9452 101.151 46.9924 101.142 47.0346 101.115C47.5664 100.786 48.0509 100.4 48.4982 99.967C48.7156 100.099 48.9132 100.255 49.0933 100.428C49.194 102.956 49.2884 105.484 49.3729 108.013C48.8771 108.767 48.6137 109.578 48.615 109.946C48.6175 110.836 49.0461 111.594 49.5046 112.326C49.5381 113.467 49.5754 114.61 49.6052 115.751C49.686 118.872 49.7493 121.993 49.804 125.113C49.1964 131.289 48.5926 137.467 47.99 143.643H47.5863C47.8062 134.934 47.9391 126.222 47.7267 117.512V117.513Z" fill="#638C2D"/>
<path d="M45.2081 96.4293C45.2242 96.5774 45.2404 96.7256 45.2553 96.8737C44.7036 96.1393 43.9793 95.5617 42.9978 95.5754C41.3242 95.5991 39.8731 97.2957 39.9203 98.9549C39.8482 98.9648 39.7761 98.9686 39.7053 98.9823C38.4356 99.2275 37.2938 100.112 36.7073 101.316C36.2464 102.26 36.1035 103.374 36.2812 104.407C36.3383 104.739 36.4241 105.062 36.526 105.38C36.557 106.354 36.716 107.588 35.8227 108.236C35.5668 108.421 35.66 108.799 35.9544 108.878C36.69 109.073 37.4652 109.05 38.1809 108.813C38.1361 109.17 37.9995 109.505 37.7671 109.801C37.5671 110.057 37.7584 110.358 38.0541 110.375C39.0704 110.434 39.9948 109.999 40.6608 109.266C41.5963 110.37 43.2077 110.799 44.5856 110.354C44.8279 110.276 44.9136 109.91 44.6987 109.75C44.1334 109.33 43.7768 108.691 43.732 107.999C44.5446 108.236 45.3745 108.14 46.0989 107.723C46.3449 112.343 46.4629 116.97 46.4828 121.595C46.5151 128.903 46.3511 136.212 46.1573 143.519C46.0218 138.183 45.0664 132.868 43.3096 127.813C41.769 123.38 39.5252 119.347 37.0329 115.39C34.5542 111.454 32.0358 107.481 30.7201 102.975C28.065 93.8789 30.0678 84.3143 28.6576 75.066C28.306 72.7582 27.7146 70.4841 26.8275 68.3233C25.9678 66.2296 24.8719 64.243 23.8792 62.2116C22.9027 60.2126 21.9945 58.1476 21.5087 55.968C21.0018 53.6927 21.0266 51.3824 21.3869 49.0872C21.9162 45.7214 23.0406 42.4913 24.0122 39.2227C24.0283 39.3309 24.047 39.438 24.0706 39.545C24.1016 40.14 24.3427 40.7288 24.7191 41.1819C25.2906 41.8702 26.128 42.261 26.9779 42.4863C27.2152 42.5486 27.4773 42.6034 27.7308 42.6718C27.5655 42.6594 27.3978 42.6569 27.2288 42.6743C26.502 42.7477 25.8125 43.0938 25.3776 43.69C25.067 44.1157 24.8446 44.7157 24.9527 45.2534C24.406 45.4625 23.8966 45.7724 23.4928 46.1521C22.5821 47.0097 22.2405 48.2781 22.6058 49.4718C22.9425 50.5696 24.0842 51.8729 23.5599 53.0815C23.4829 53.257 23.6084 53.5047 23.8233 53.4736C24.2992 53.4051 24.7005 53.2321 25.0832 52.9732C25.2844 53.2583 25.4298 53.5856 25.487 53.9292C25.5217 54.1395 25.7727 54.3275 25.9727 54.1632C26.2287 53.9528 26.4647 53.7238 26.6586 53.4537C26.7754 53.2906 26.8623 53.1213 26.9443 52.9496C27.3257 53.3516 27.7618 53.6765 28.2613 53.9429C28.4228 54.0287 28.6713 53.9229 28.6924 53.73C28.7372 53.3093 28.7806 52.8886 28.8254 52.4679C29.2118 52.6023 29.6118 52.6471 30.033 52.5961C30.4194 52.5488 30.4157 52.0558 30.074 51.9463C29.2627 51.6862 29.418 50.5286 29.5112 49.9025C29.5522 49.6286 29.5808 49.3585 29.5895 49.0909C29.6093 48.5233 29.5422 47.9669 29.3211 47.413C29.2329 47.1927 29.1248 46.9711 28.9956 46.7595C28.634 45.928 27.9581 45.2521 27.0412 45.048C26.5356 44.936 26.0013 44.9634 25.4845 45.0878C25.5429 44.6684 25.6584 44.2862 25.9752 43.9402C26.3815 43.4958 26.9841 43.3016 27.5767 43.3253C28.0228 43.3427 28.4601 43.4709 28.8527 43.6825C28.8614 43.7585 28.8751 43.8282 28.8701 43.9153C28.8564 44.1356 29.1285 44.3385 29.3348 44.2526C29.3969 44.2265 29.4478 44.1941 29.5025 44.163C29.7398 44.3983 29.9436 44.6609 30.1659 44.9061C30.3349 45.1974 30.5051 45.4874 30.6691 45.7824C32.0843 48.3192 33.3664 50.9294 34.5443 53.5869C34.4449 54.2254 34.4859 54.8864 34.7157 55.4963C34.9456 56.1087 35.3966 56.5319 35.9283 56.8481C36.6639 58.6704 37.3484 60.5151 37.9895 62.3734C37.7622 62.005 37.5124 61.6465 37.1683 61.3951C36.6912 61.0478 36.0675 61.0229 35.5718 61.3528C35.245 61.5706 35.0984 61.8258 34.9928 62.1183C34.9468 62.0946 34.9033 62.0672 34.8561 62.0473C34.7418 61.9988 34.6238 61.9627 34.5045 61.9365C33.9964 61.8233 33.4522 61.8917 32.9366 62.0336C32.3439 62.0934 31.7699 62.3635 31.3351 62.7618C30.6753 63.3667 30.3275 64.2244 30.1436 65.0857C29.9672 65.9184 29.9373 67.0636 28.808 67.0486C28.5868 67.0449 28.3992 67.3275 28.4936 67.5304C28.8626 68.3208 29.6404 68.3519 30.361 68.1527C30.366 68.3718 30.3026 68.5834 30.1796 68.79C30.0429 69.0191 30.2691 69.3439 30.5275 69.3078C30.9735 69.2456 31.386 69.1236 31.791 68.9469C31.9513 69.258 32.0892 69.5792 32.2184 69.9066C32.3141 70.148 32.621 70.275 32.8446 70.1107C33.1329 69.8978 33.4087 69.6738 33.6833 69.446C34.0808 69.7808 34.512 70.0671 34.9679 70.3211C35.2661 70.4878 35.7221 70.2115 35.6587 69.8555C35.4587 68.7278 36.2004 67.8229 36.5744 66.8196C36.6738 66.5532 36.7396 66.2869 36.7769 66.0217C36.8726 65.3384 36.7657 64.66 36.4725 63.9903C36.2352 63.4476 35.9271 62.8738 35.4823 62.4631C35.5332 62.4158 35.5867 62.3672 35.6326 62.3187C35.7979 62.1419 35.9718 61.9502 36.2191 61.9054C36.6763 61.822 37.0763 62.2676 37.3298 62.59C37.8454 63.246 38.2442 64.0401 38.7661 64.7086C39.2581 66.2334 39.7302 67.7631 40.165 69.3016C41.0956 72.5927 41.8932 75.9211 42.584 79.2732C42.4573 79.1375 42.3293 79.0018 42.1803 78.891C41.4882 78.3707 40.5701 78.1529 39.7463 78.4828C39.4556 78.5985 39.1114 78.8388 38.8692 79.1375C37.7162 78.4815 36.1955 78.4429 35.6985 78.6172C34.6275 78.9919 33.9852 79.9565 33.2994 80.798C32.7552 81.4664 31.8967 82.2107 30.9686 81.9531C30.6828 81.8734 30.448 82.1547 30.5635 82.4248C30.8617 83.1256 31.4581 83.631 32.1638 83.8538C32.0122 84.0641 31.832 84.2496 31.6159 84.4139C31.4742 84.5222 31.4668 84.7624 31.5848 84.8894C32.1166 85.4595 32.9117 85.7134 33.651 85.5292C33.6336 86.118 33.3292 86.6856 32.8633 87.044C32.6831 87.1822 32.7751 87.4548 32.9627 87.5257C33.8038 87.8394 34.7207 87.6042 35.3456 87.0216C35.4152 87.5058 35.5693 87.9639 35.8873 88.3796C36.3359 88.9647 37.0378 89.2808 37.7696 89.1924C37.9597 89.17 38.033 88.9734 38.0194 88.8103C37.9796 88.2962 38.0405 87.7535 38.2094 87.2581C38.7164 87.8033 39.4941 88.0597 40.2346 87.817C40.4645 87.7423 40.6744 87.4125 40.4396 87.2046C39.6295 86.4914 40.2706 85.3014 40.5452 84.4886C40.5949 84.343 40.6396 84.1948 40.6794 84.0455C40.8869 83.2737 40.9614 82.4522 40.7726 81.673C40.7303 81.5012 40.334 80.4457 39.5823 79.6814C39.6035 79.6628 39.6208 79.6429 39.6432 79.6242C39.8718 79.4425 40.1215 79.3142 40.4135 79.2806C41.0844 79.2035 41.7678 79.6366 42.2213 80.0947C42.5244 80.4009 42.758 80.7556 42.9555 81.1353C43.7644 85.3126 44.4042 89.5223 44.9074 93.7444C44.8316 94.0793 44.7943 94.4253 44.8154 94.7626C44.8515 95.3414 45.0006 95.8928 45.2056 96.4268L45.2081 96.4293Z" fill="#638C2D"/>
<path d="M45.3722 105.926C45.1821 105.46 45.1921 104.937 45.1511 104.443C45.1511 104.432 45.1486 104.421 45.1486 104.409C45.0678 103.473 44.9175 102.504 44.5137 101.65C44.1074 100.792 43.4763 100.006 42.5792 99.6359C42.5681 99.6309 42.5569 99.6272 42.5469 99.6234C42.2823 99.423 41.9891 99.2612 41.6921 99.1479C41.2871 98.9936 40.8734 98.9276 40.4634 98.9226C40.4982 98.4061 40.656 97.9119 40.9827 97.4626C41.4673 96.7979 42.3158 96.3062 43.152 96.3772C44.172 96.4631 44.8069 97.5248 45.279 98.319C45.3349 98.4136 45.376 98.5119 45.4256 98.609C45.6754 101.255 45.8729 103.907 46.027 106.56C45.7251 106.512 45.4741 106.179 45.371 105.926H45.3722Z" fill="#638C2D"/>
<path d="M45.2912 39.0473C45.1409 38.2046 44.9831 37.3632 44.8203 36.5217C45.0912 36.9673 45.3657 37.4105 45.6316 37.8611C45.4962 38.2507 45.3819 38.6452 45.2912 39.0473Z" fill="#638C2D"/>
<path d="M42.9989 73.3496C42.9542 73.5363 43.1207 73.7566 43.3269 73.6882C43.7829 73.5363 44.1469 73.2961 44.4786 72.9725C44.7259 73.2177 44.9272 73.5139 45.0452 73.8413C45.1172 74.0417 45.3968 74.1836 45.5645 73.9857C45.7795 73.733 45.9708 73.4666 46.1137 73.1654C46.1994 72.9837 46.2553 72.8032 46.305 72.619C46.7361 72.9364 47.2083 73.1704 47.7263 73.3434C47.8667 75.6412 48.0009 77.9377 48.1264 80.2367C47.8407 80.2579 47.5524 80.2965 47.2604 80.3736C46.3212 80.6189 45.28 81.0085 44.7458 81.8785C44.67 82.0018 44.6066 82.13 44.5544 82.2619C44.5085 82.3789 44.4749 82.5021 44.4463 82.6241C43.645 78.3983 42.6634 74.2072 41.4844 70.0735C42.0435 71.063 43.2921 72.1124 42.9989 73.3496Z" fill="#638C2D"/>
<path d="M52.4504 59.0277C51.7124 59.6613 50.8514 60.56 49.7879 60.2662C49.4835 60.1816 49.2474 60.4927 49.3704 60.7716C49.6786 61.4686 50.1817 62.0586 50.8154 62.4706C50.5097 62.6598 50.1631 62.7619 49.7879 62.7669C49.4649 62.7706 49.3493 63.1092 49.5208 63.3507C50.1109 64.1809 51.0291 64.6315 52.0156 64.6925C51.7422 66.114 52.4181 67.6425 53.627 68.4391C53.8395 68.5798 54.1774 68.4167 54.1675 68.1503C54.1414 67.4458 54.4147 66.7662 54.9253 66.2994C55.3167 67.2417 56.0982 67.9026 57.1207 68.1217C57.3108 69.4785 57.4512 70.839 57.5407 72.2032C56.4734 77.4809 55.6298 82.8046 54.9402 88.1432C54.9104 88.3748 54.8843 88.6063 54.8545 88.8365C54.7651 88.8689 54.6719 88.8938 54.5849 88.9336C54.2917 89.027 54.0134 89.1627 53.7637 89.3469C53.7015 89.3929 53.6568 89.4514 53.6009 89.5025C52.6094 89.261 51.485 89.9456 50.926 90.7945C50.6514 91.2115 50.47 91.6857 50.3457 92.1737C50.3097 91.4542 50.2737 90.7335 50.2364 90.0141C50.8763 89.6344 50.998 88.8838 50.916 88.147C51.167 88.1818 51.3981 88.2926 51.6118 88.4706C51.8491 88.6685 52.2616 88.4693 52.2665 88.1644C52.2765 87.6404 52.2119 87.1462 52.0827 86.6496C52.4678 86.5213 52.8604 86.4218 53.258 86.3321C53.5512 86.2662 53.7525 85.9363 53.6046 85.65C53.4145 85.2803 53.2071 84.9231 52.9971 84.5659C53.4531 84.1713 53.8569 83.7282 54.2308 83.2502C54.4756 82.9378 54.242 82.3652 53.8233 82.3739C52.4976 82.3988 51.5969 81.3843 50.5172 80.7719C50.2463 80.6188 49.9705 80.5018 49.691 80.4122C49.5133 77.5269 49.3232 74.6416 49.1095 71.7588C49.1679 71.7451 49.2276 71.7439 49.2859 71.7252C49.6587 71.6107 49.568 71.1265 49.2114 71.078C49.1543 71.0705 49.1083 71.0468 49.0586 71.0294C48.7194 66.5173 48.328 62.0088 47.8559 57.5066C47.5962 55.0284 47.3055 52.5514 46.985 50.0793C47.1875 49.3885 46.9899 48.5334 46.9626 47.8239C46.9365 47.143 46.9837 46.4908 47.3229 45.8883C47.641 45.3232 48.1491 44.9871 48.8076 45.1103C48.9555 45.1377 49.1095 45.1875 49.2636 45.2373C49.2412 45.2622 49.2151 45.2821 49.194 45.3083C48.8089 45.775 48.5927 46.3737 48.4659 46.9824C48.215 47.6259 48.1901 48.3641 48.3728 49.0238C48.6486 50.0258 49.3493 50.8386 50.1407 51.4821C50.9061 52.1045 52.0715 52.7393 51.4602 53.8994C51.3409 54.1259 51.5323 54.4707 51.7907 54.4794C52.5473 54.5056 52.9859 54.0687 53.2319 53.4911C53.6842 54.6848 54.1053 55.8897 54.5017 57.1008C53.9587 57.3921 53.4605 57.7693 53.0567 58.2261C52.8331 58.4788 52.6355 58.7476 52.4517 59.0264L52.4504 59.0277Z" fill="#638C2D"/>
<path d="M23.0371 37.7117C23.2769 38.0129 23.6062 38.2979 23.9714 38.5307C23.9615 38.7597 23.9752 38.9925 24.0112 39.224C23.0384 42.4927 21.914 45.7228 21.3859 49.0885C21.0256 51.3838 20.9995 53.694 21.5077 55.9694C21.9935 58.1502 22.9029 60.2139 23.8782 62.213C24.8697 64.2444 25.9668 66.231 26.8265 68.3246C27.7136 70.4855 28.305 72.7596 28.6566 75.0673C30.0668 84.3157 28.064 93.8802 30.7191 102.977C32.0336 107.483 34.552 111.456 37.0319 115.392C39.5242 119.349 41.768 123.38 43.3086 127.814C45.0654 132.868 46.0208 138.183 46.1563 143.52C46.1563 143.561 46.1538 143.604 46.1525 143.645H45.5636C45.4903 142.811 45.4108 141.975 45.3226 141.143C44.0653 134.154 40.8362 127.555 37.3897 121.404C33.0511 113.66 28.1187 106.13 25.4139 97.602C24.0733 93.3773 23.4546 89.0569 23.5254 84.6269C23.5975 80.06 24.0186 75.3474 22.0357 71.0842C21.0915 69.054 19.9012 67.1558 19.1247 65.0472C18.3892 63.0519 17.963 60.9546 17.768 58.8385C17.3654 54.4882 17.9842 50.0843 18.9843 45.8535C19.8167 42.3321 20.9685 38.8755 22.0879 35.4102C22.2594 35.5197 22.4283 35.6317 22.5923 35.75C22.2084 36.2864 22.6955 37.281 23.0384 37.7117H23.0371Z" fill="#779E39"/>
<path d="M25.1789 34.7007C25.0522 35.328 24.908 35.9517 24.7515 36.5728C23.9911 35.857 23.191 35.1874 22.3623 34.5563C23.9862 29.494 25.4808 24.403 25.7467 19.0606C25.7666 18.6499 25.779 18.2404 25.784 17.8296C25.8523 18.4196 25.9119 19.0096 25.9629 19.6021C26.3927 24.642 26.1766 29.7392 25.1789 34.7007Z" fill="#779E39"/>
<path d="M24.1143 37.7951C24.0658 37.7614 24.0124 37.7341 23.9664 37.698C23.7068 37.4963 23.4757 37.2623 23.3054 36.9785C23.2284 36.8503 22.9837 36.3312 23.0296 36.0811C23.2856 36.2765 23.5403 36.4731 23.7962 36.6686C24.0037 36.8615 24.2112 37.0544 24.4125 37.2536C24.323 37.3694 24.241 37.4913 24.1764 37.627C24.1503 37.6818 24.1354 37.7403 24.1143 37.7963V37.7951Z" fill="#779E39"/>
<path d="M40.943 63.0693C41.6947 63.017 42.4314 63.3394 42.9731 63.8497C43.2813 64.1397 43.6217 64.5517 43.8602 64.9973C43.6788 65.0558 43.4987 65.1231 43.326 65.2077C43.2254 65.2563 43.1297 65.316 43.0328 65.3733C42.9645 65.2451 42.8936 65.1193 42.8166 65.0036C42.4911 64.5119 42.0674 64.1161 41.5034 63.9219C41.0188 63.7551 40.4448 63.79 40.0609 64.1609C39.9193 64.2978 39.8373 64.4422 39.7913 64.5916C39.7143 64.3588 39.631 64.1285 39.5527 63.897C39.8621 63.4153 40.3479 63.1116 40.943 63.0693Z" fill="#82A02E"/>
<path d="M35.2114 50.0295C35.4238 50.3469 35.6537 50.7639 35.8276 51.212C35.5965 51.4124 35.3903 51.6415 35.2151 51.8954C35.1331 51.6153 35.0424 51.3402 34.9207 51.0726C34.7467 50.6892 34.5392 50.266 34.2348 49.9673C34.0435 49.7793 33.8509 49.7022 33.6434 49.6785C33.5391 49.4657 33.4347 49.2541 33.3291 49.0425C33.9801 48.7786 34.8561 49.5018 35.2101 50.0295H35.2114Z" fill="#82A02E"/>
<path d="M23.3062 36.9786C23.4752 37.2623 23.7075 37.4964 23.9672 37.698C24.0132 37.7341 24.0666 37.7627 24.1151 37.7951C24.0927 37.8536 24.0666 37.9121 24.0492 37.9718C23.9995 38.1536 23.9796 38.3415 23.9722 38.5307C23.6069 38.298 23.2777 38.0129 23.0379 37.7117C22.695 37.281 22.2079 36.2865 22.5918 35.75C22.7409 35.857 22.885 35.9691 23.0304 36.0799C22.9857 36.33 23.2304 36.8491 23.3062 36.9773V36.9786Z" fill="#82A02E"/>
<path d="M60.833 58.4489C60.6193 58.1402 60.3709 58.1676 60.1286 58.312C59.9845 58.0892 59.8155 57.8888 59.6304 57.7058C60.095 57.3772 60.6753 57.249 61.1623 57.6212C61.1722 57.6287 61.1784 57.6399 61.1884 57.6486C61.0915 57.9635 60.9958 58.2784 60.9026 58.5933C60.8778 58.5473 60.8629 58.4912 60.833 58.4502V58.4489Z" fill="#82A02E"/>
<path d="M53.1061 90.1124C52.8365 90.1224 52.5693 90.1871 52.3097 90.3427C51.8164 90.6377 51.4636 91.1281 51.2561 91.6571C51.0759 92.1164 51.0014 92.6231 50.9604 93.1234C50.5019 92.6816 49.9751 92.3106 49.3924 92.053C49.1763 91.9571 48.9476 91.8837 48.7153 91.8214C48.6594 90.6464 48.6072 89.4714 48.5488 88.2976C49.0918 88.5677 49.4993 88.961 49.3676 89.7266C49.3241 89.9792 49.6123 90.2469 49.8621 90.1747C50.0037 90.1336 50.1242 90.0763 50.2336 90.0116C50.2708 90.7311 50.3081 91.4518 50.3429 92.1712C50.4659 91.6833 50.6473 91.2103 50.9231 90.792C51.481 89.9431 52.6066 89.2585 53.5981 89.5C53.3968 89.6805 53.2315 89.8859 53.1061 90.1124Z" fill="#82A02E"/>
<path d="M49.6039 101.05C49.7008 101.203 49.9717 101.289 50.1034 101.116C50.527 100.559 50.7109 99.8449 50.5631 99.1777C50.5978 99.1889 50.6326 99.1976 50.6674 99.2076C50.7718 101.668 50.8675 104.129 50.9544 106.59C50.7469 106.685 50.5432 106.792 50.3581 106.929C50.3344 106.946 50.3108 106.965 50.2872 106.983C49.9232 107.27 49.6201 107.636 49.3728 108.013C49.2883 105.484 49.1939 102.955 49.0933 100.427C49.2846 100.612 49.4573 100.818 49.6039 101.05Z" fill="#82A02E"/>
<path d="M49.5049 112.326C49.6316 112.529 49.7621 112.73 49.8851 112.931C50.3361 113.665 50.7585 114.721 50.2118 115.515C50.0429 115.76 50.2317 116.074 50.5237 116.053C50.7771 116.035 51.0144 115.967 51.243 115.877C51.3163 118.628 51.381 121.379 51.4331 124.131C51.4679 125.967 51.4977 127.803 51.5238 129.64C51.4605 130.971 51.3884 132.301 51.3325 133.632C51.2256 136.2 51.135 138.767 51.0604 141.336C51.038 142.104 51.0107 142.874 50.9859 143.643H50.018C50.0143 143.611 50.0068 143.581 50.0056 143.545C49.8913 138.915 49.9397 134.279 49.8789 129.648C49.859 128.135 49.8304 126.624 49.8043 125.113C49.7496 121.993 49.6875 118.872 49.6055 115.751C49.5757 114.609 49.5384 113.467 49.5049 112.326Z" fill="#82A02E"/>
<path d="M48.1281 80.2367C48.0026 77.9389 47.8684 75.6412 47.728 73.3434C47.7454 73.3496 47.7603 73.3583 47.7777 73.3633C47.9517 73.4193 48.1778 73.2712 48.1641 73.077C48.1331 72.6551 48.102 72.2331 48.0722 71.8111C48.4163 71.8659 48.7605 71.8385 49.1071 71.7563C49.3208 74.6391 49.5109 77.5244 49.6886 80.4097C49.6724 80.4048 49.6563 80.3973 49.6401 80.3923C49.1494 80.2417 48.6437 80.1981 48.1281 80.2367Z" fill="#82A02E"/>
<path d="M51.2811 111.981C50.7581 111.675 50.3282 111.134 49.9903 110.641C49.6536 110.15 49.4473 109.591 49.4734 108.99C49.507 108.222 49.8275 107.555 50.2872 106.984C50.3108 106.965 50.3344 106.946 50.358 106.929C50.5431 106.792 50.7469 106.685 50.9544 106.59C51.219 106.471 51.4886 106.379 51.7508 106.314C52.3285 106.171 52.8379 106.14 53.0591 106.141C52.8889 108.171 52.7311 110.201 52.5807 112.233C52.1285 112.275 51.675 112.211 51.2811 111.98V111.981Z" fill="#DBDBD2"/>
<path d="M55.8315 109.078C55.6488 110.12 55.0264 111.009 54.1753 111.615C54.302 109.931 54.435 108.246 54.5754 106.562C54.8487 106.692 55.1158 106.839 55.3668 107.01C55.7718 107.608 55.9569 108.355 55.8315 109.078Z" fill="#DBDBD2"/>
<path d="M55.8308 109.078C55.9575 108.355 55.7712 107.608 55.3661 107.01C55.4941 107.097 55.6196 107.188 55.7401 107.282C55.7488 107.288 55.7575 107.297 55.7662 107.303C55.9923 107.481 56.2433 107.704 56.5129 107.907C57.0472 108.31 57.651 108.621 58.2672 108.272C58.5393 108.117 58.7816 108.424 58.7779 108.666C58.7642 109.445 58.2672 110.099 57.5876 110.4C58.0001 110.723 58.4921 110.958 58.9891 111.089C59.1456 111.13 59.3084 111.263 59.2674 111.451C59.1108 112.171 58.5828 112.733 57.8846 112.966C57.3876 113.131 56.9043 113.126 56.4259 113.034C56.7701 113.816 56.6918 114.762 56.1203 115.455C55.9923 115.611 55.7053 115.607 55.6333 115.392C55.4481 114.833 55.0121 114.36 54.4629 114.151C54.4207 114.615 54.2169 115.043 53.9038 115.38C53.9175 115.194 53.9274 115.006 53.9398 114.819C54.0156 113.752 54.0951 112.684 54.1747 111.618C55.0257 111.01 55.6482 110.121 55.8308 109.081V109.078Z" fill="#CCCCC2"/>
<path d="M50.2883 106.983C49.8274 107.555 49.5081 108.222 49.4745 108.99C49.4472 109.591 49.6547 110.15 49.9914 110.64C50.3293 111.133 50.7592 111.675 51.2822 111.981C51.6761 112.211 52.1296 112.276 52.5818 112.234C52.5135 113.163 52.4452 114.095 52.3806 115.024C52.0873 115.411 51.6922 115.704 51.2425 115.878C51.0139 115.967 50.7766 116.035 50.5231 116.054C50.2312 116.074 50.0423 115.76 50.2113 115.516C50.7579 114.722 50.3368 113.666 49.8845 112.932C49.7615 112.732 49.6311 112.53 49.5043 112.327C49.0459 111.595 48.6172 110.836 48.6147 109.947C48.6147 109.579 48.8769 108.768 49.3726 108.014C49.6211 107.636 49.923 107.271 50.2871 106.985L50.2883 106.983Z" fill="#CCCCC2"/>
<path d="M44.3238 70.6474C43.7274 70.4047 43.254 69.8545 42.8676 69.3566C42.4191 68.7791 42.1495 68.1443 42.2986 67.4062C42.4539 66.6419 42.8316 65.8751 43.3249 65.208C43.4988 65.1233 43.6777 65.0561 43.8591 64.9976C44.2343 64.8769 44.6207 64.8109 45.0071 64.8258C45.9451 64.8644 46.7304 65.4096 47.2323 66.1639C47.2398 66.1726 47.2447 66.1826 47.2522 66.19C47.4075 66.368 47.5479 66.5572 47.6672 66.7489C47.9827 67.2543 48.1467 67.7908 48.2275 68.3521C48.1194 68.8451 47.8162 69.3056 47.5007 69.6815C46.7378 70.5914 45.4767 71.1155 44.3225 70.6449L44.3238 70.6474Z" fill="#DBDBD2"/>
<path d="M43.033 65.3733C43.1299 65.3161 43.2256 65.2563 43.3262 65.2078C42.833 65.8749 42.4553 66.6417 42.3 67.406C42.1509 68.1441 42.4205 68.7789 42.869 69.3565C43.2554 69.8544 43.7288 70.4033 44.3252 70.6472C45.4794 71.1178 46.7405 70.5937 47.5033 69.6838C47.8189 69.3079 48.122 68.8474 48.2301 68.3545C48.2686 68.6196 48.2885 68.8909 48.296 69.1673C48.3134 69.756 48.368 70.7991 49.0576 71.0306C49.1085 71.0481 49.1533 71.0717 49.2104 71.0792C49.567 71.1265 49.6577 71.6107 49.2849 71.7264C49.2253 71.7451 49.1669 71.7463 49.1085 71.76C48.7631 71.8422 48.419 71.8683 48.0736 71.8148C48.1034 72.2368 48.1345 72.6587 48.1655 73.0807C48.1792 73.2749 47.9531 73.423 47.7791 73.367C47.7617 73.362 47.7468 73.3521 47.7294 73.3471C47.2113 73.1753 46.7392 72.94 46.3081 72.6226C46.2584 72.8069 46.2025 72.9886 46.1168 73.1691C45.9739 73.4703 45.7825 73.7367 45.5676 73.9894C45.3999 74.186 45.1203 74.0454 45.0483 73.845C44.9315 73.5176 44.7302 73.2214 44.4817 72.9761C44.15 73.2985 43.7859 73.54 43.33 73.6919C43.1237 73.7603 42.9572 73.54 43.002 73.3533C43.2952 72.116 42.0465 71.0667 41.4875 70.0772C41.3495 69.5954 41.2141 69.1125 41.0712 68.632C41.0377 67.8989 41.2551 67.1632 41.7148 66.5434C42.054 66.0853 42.5174 65.6808 43.0368 65.3758L43.033 65.3733Z" fill="#CCCCC2"/>
<path d="M49.6402 80.3936C49.7098 80.4608 49.7793 80.528 49.8514 80.5927C50.2949 80.991 50.6465 81.5076 50.8366 82.0752C51.5063 84.0755 49.8402 86.4081 47.6573 85.8579C45.9352 85.4235 44.8941 83.9187 44.5562 82.2632C44.6083 82.1312 44.6717 82.003 44.7475 81.8798C45.283 81.0097 46.3229 80.6214 47.2622 80.3749C47.5541 80.299 47.8424 80.2591 48.1281 80.238C48.6438 80.2006 49.1482 80.2442 49.6402 80.3936Z" fill="#DBDBD2"/>
<path d="M47.6558 85.8567C49.8387 86.4069 51.5048 84.073 50.8351 82.074C50.645 81.5076 50.2947 80.9898 49.8499 80.5915C49.7778 80.5268 49.7082 80.4595 49.6387 80.3923C49.6548 80.3973 49.671 80.4048 49.6871 80.4098C49.9667 80.4994 50.2425 80.6164 50.5133 80.7695C51.593 81.3807 52.4938 82.3964 53.8195 82.3715C54.2394 82.364 54.4717 82.9366 54.227 83.2478C53.853 83.7257 53.448 84.1689 52.9932 84.5634C53.2032 84.9207 53.4107 85.2779 53.6008 85.6476C53.7486 85.9339 53.5474 86.2637 53.2541 86.3297C52.8566 86.4193 52.464 86.5189 52.0788 86.6471C52.208 87.1438 52.2726 87.6392 52.2627 88.162C52.2577 88.4657 51.844 88.6661 51.6079 88.4682C51.3942 88.2889 51.1631 88.1794 50.9122 88.1445C50.9942 88.8814 50.8737 89.632 50.2326 90.0116C50.1232 90.0764 50.0027 90.1336 49.8611 90.1747C49.6113 90.2469 49.3231 89.9793 49.3666 89.7266C49.4983 88.9611 49.0908 88.5677 48.5478 88.2976C48.1738 88.1122 47.739 87.9827 47.365 87.8383C46.4953 87.5035 45.6666 86.9981 45.0914 86.2538C44.8913 85.0414 44.6752 83.8328 44.4453 82.6254C44.4751 82.5022 44.5074 82.3802 44.5534 82.2632C44.8913 83.9199 45.9325 85.4235 47.6545 85.858L47.6558 85.8567Z" fill="#CCCCC2"/>
<path d="M55.2209 47.0807C55.2383 49.1905 52.9336 50.8908 51.0277 49.6896C49.5243 48.7424 49.0013 46.9886 49.1926 45.3094C49.2137 45.2845 49.2398 45.2634 49.2622 45.2385C49.6386 45.3592 50.0263 45.48 50.3766 45.2758C50.4909 45.2086 50.4872 45.0356 50.394 44.9547C50.2723 44.8476 50.117 44.7705 49.9555 44.7032C50.6773 44.3336 51.5582 44.3062 52.3496 44.3535C53.1945 44.4045 53.9511 44.6522 54.6046 45.1103C54.6506 45.1949 54.6953 45.2808 54.7438 45.3642C55.042 45.8808 55.2159 46.4807 55.2209 47.0794V47.0807Z" fill="#CCCCC2"/>
<path d="M51.7889 54.4807C51.5292 54.472 51.3379 54.1284 51.4584 53.9006C52.0697 52.7405 50.9043 52.1057 50.1389 51.4834C49.3475 50.8398 48.6468 50.0258 48.371 49.025C48.1896 48.3653 48.2132 47.6272 48.4641 46.9836C48.5909 46.375 48.807 45.7763 49.1922 45.3095C49.0009 46.9886 49.5252 48.7425 51.0273 49.6897C52.9332 50.8909 55.2379 49.1893 55.2205 47.0807C55.2155 46.4833 55.0416 45.8821 54.7434 45.3655C54.6949 45.2821 54.649 45.1962 54.6042 45.1116C54.8577 45.2896 55.0975 45.4987 55.3199 45.7426C56.1573 46.66 56.699 47.9048 57.9675 48.2919C58.3688 48.4151 58.4135 49.0312 58.0843 49.2528C57.5811 49.5901 57.0593 49.8864 56.5039 50.1204C56.5934 50.5249 56.6803 50.9295 56.7462 51.339C56.7984 51.6576 56.5039 51.9078 56.2057 51.8792C55.7994 51.8406 55.3957 51.8132 54.9906 51.8157C54.9596 52.3273 54.8676 52.819 54.6974 53.3131C54.598 53.6006 54.1445 53.6616 53.9805 53.4002C53.8327 53.1637 53.6476 52.987 53.4189 52.8762C53.3755 53.0891 53.3146 53.2982 53.2326 53.4911C52.9866 54.0687 52.5492 54.5056 51.7914 54.4794L51.7889 54.4807Z" fill="#BABAAE"/>
<path d="M28.2318 35.8956C28.2976 35.9467 28.3635 35.9977 28.4318 36.0463C28.8492 36.3462 29.1984 36.7558 29.4133 37.2238C29.9873 38.4722 29.4357 40.007 28.3026 40.5671C27.2801 39.1954 26.1532 37.9208 24.9331 36.7533C25.3145 36.472 25.763 36.2653 26.1917 36.1023C26.8738 35.8421 27.5546 35.7674 28.2318 35.8969V35.8956Z" fill="#DBDBD2"/>
<path d="M27.0414 40.7626C25.5243 40.5522 24.4931 39.3598 24.0483 37.9719C24.0645 37.9109 24.0918 37.8536 24.1142 37.7951C24.1353 37.7391 24.1502 37.6806 24.1763 37.6259C24.2409 37.4902 24.3229 37.3682 24.4124 37.2524C25.5243 38.3515 26.5382 39.5315 27.4663 40.7788C27.3284 40.785 27.188 40.7837 27.0414 40.7626Z" fill="#DBDBD2"/>
<path d="M28.8699 43.9193C28.8749 43.8322 28.8612 43.7612 28.8525 43.6865C29.0103 43.7724 29.1619 43.867 29.3023 43.9803C29.3744 44.0388 29.4377 44.1035 29.5023 44.1682C29.4489 44.1994 29.398 44.2317 29.3346 44.2579C29.1271 44.3425 28.8563 44.1409 28.8699 43.9205V43.9193Z" fill="#CCCCC2"/>
<path d="M24.7196 41.1833C24.3431 40.729 24.1009 40.1415 24.071 39.5465C24.0474 39.4395 24.03 39.3324 24.0126 39.2241C23.9766 38.9926 23.9642 38.7611 23.9729 38.5308C23.9803 38.3416 24.0002 38.1537 24.0499 37.9719C24.4935 39.3598 25.5259 40.551 27.0429 40.7626C27.1895 40.7825 27.3299 40.785 27.4678 40.7788C28.0269 41.5281 28.555 42.3011 29.0606 43.0915C28.6481 42.86 28.2009 42.7081 27.7325 42.6733C27.479 42.6048 27.2169 42.55 26.9796 42.4878C26.1297 42.2625 25.2923 41.8729 24.7208 41.1833H24.7196Z" fill="#CCCCC2"/>
<path d="M29.4135 37.2239C29.1985 36.7559 28.8482 36.3463 28.432 36.0464C28.3636 35.9978 28.2978 35.9468 28.2319 35.8958C28.4941 35.9455 28.7562 36.0252 29.0172 36.1372C29.9999 36.5604 30.8659 37.3459 32.0002 37.2002C32.3593 37.1542 32.6115 37.6234 32.4313 37.9135C32.1555 38.3578 31.8499 38.7748 31.497 39.1569C31.7107 39.4432 31.922 39.7295 32.1195 40.0283C32.2736 40.2598 32.1307 40.561 31.8859 40.6457C31.5542 40.7602 31.2262 40.8821 30.9081 41.0278C31.0647 41.441 31.1666 41.8593 31.2076 42.3086C31.2312 42.57 30.8957 42.7791 30.6746 42.6322C30.4745 42.4991 30.267 42.4256 30.0484 42.4194C30.1092 42.6932 30.1378 42.9733 30.108 43.2334C29.8285 42.7853 29.5439 42.3422 29.252 41.9041C28.9488 41.4473 28.6308 41.0041 28.3052 40.5672C29.4383 40.0071 29.99 38.4723 29.416 37.2239H29.4135Z" fill="#CCCCC2"/>
<path d="M35.8277 51.212C36.3035 50.7988 36.8837 50.51 37.5559 50.4341C38.361 50.3445 39.2356 50.6345 39.8916 51.1622C39.9463 51.1921 40.001 51.2245 40.0556 51.2568C40.201 51.3452 40.3476 51.4436 40.4942 51.5456C40.6483 51.9365 40.7191 52.3584 40.6769 52.7754C40.5775 53.7264 39.9811 54.5454 39.1785 55.0383C38.197 55.6408 37.039 55.5425 36.1122 55.0085C35.8463 54.3998 35.5854 53.7874 35.3083 53.1837C35.1841 52.9136 35.0586 52.6435 34.9331 52.3734C35.0163 52.2066 35.1108 52.0473 35.2151 51.8954C35.3903 51.6415 35.5966 51.4124 35.8277 51.212Z" fill="#DBDBD2"/>
<path d="M34.7159 55.499C34.4861 54.8891 34.4451 54.2294 34.5445 53.5896C35.0228 54.6688 35.4862 55.7554 35.9285 56.8496C35.3968 56.5334 34.947 56.1102 34.7159 55.4978V55.499Z" fill="#CCCCC2"/>
<path d="M39.1771 55.0384C39.9797 54.5455 40.5773 53.7264 40.6755 52.7755C40.719 52.3585 40.6482 51.9365 40.4929 51.5457C41.1178 51.9763 41.7676 52.458 42.5404 52.4182C42.7665 52.407 42.964 52.6286 42.8572 52.8539C42.7416 53.0953 42.5975 53.3206 42.4161 53.5186C42.3167 53.6268 42.2099 53.709 42.0968 53.7862C42.4422 53.9393 42.8187 54.0077 43.2001 53.9891C43.4051 53.9791 43.5704 54.2193 43.42 54.3924C42.8274 55.077 42.1167 55.591 41.3489 56.0479C41.6359 56.3926 41.816 56.8109 41.857 57.2677C41.8769 57.4942 41.6247 57.62 41.4483 57.4917C41.1551 57.2801 40.8196 57.1606 40.4655 57.1432C40.4307 57.7332 40.3115 58.2996 40.0915 58.8585C39.9934 59.1062 39.6728 59.0464 39.5697 58.8448C39.1088 57.9461 37.9931 57.6809 37.1147 57.3797C36.7892 56.5856 36.4562 55.7939 36.1133 55.0073C37.0389 55.5412 38.1981 55.6396 39.1796 55.0371L39.1771 55.0384Z" fill="#CCCCC2"/>
<path d="M70.5713 34.4515C69.7127 33.3761 69.8357 31.6222 70.7166 30.6016C71.5466 29.6406 72.8151 29.2249 74.055 29.2946C74.1495 29.3394 74.2327 29.4054 74.3197 29.4626C73.1443 31.2214 72.0311 33.0201 70.9788 34.8449C70.8309 34.7303 70.6918 34.6021 70.57 34.4503L70.5713 34.4515Z" fill="#DBDBD2"/>
<path d="M71.8484 35.2881C72.2423 34.5786 72.6436 33.8753 73.0548 33.1758C73.558 32.3206 74.0761 31.4755 74.6066 30.6403C74.7271 30.4735 74.8563 30.3141 74.9855 30.1536C75.0999 30.3415 75.1968 30.5394 75.2614 30.7498C75.5658 31.4207 75.6179 32.2024 75.5148 32.9243C75.4192 33.5865 75.1906 34.2263 74.8638 34.8114C74.6911 34.9196 74.5109 35.0167 74.3233 35.1001C73.5729 35.4325 72.651 35.5271 71.8472 35.2893L71.8484 35.2881Z" fill="#DBDBD2"/>
<path d="M70.7165 30.603C69.8344 31.6237 69.7126 33.3775 70.5711 34.4529C70.6929 34.6048 70.8321 34.7342 70.9799 34.8475C70.9153 34.9583 70.847 35.0678 70.7836 35.1786C70.2754 36.0674 69.7834 36.9661 69.3026 37.871C69.2343 37.7129 69.1747 37.5498 69.1262 37.3843C68.9895 36.9163 68.9672 36.4458 68.9808 35.9715C68.3783 36.2926 67.6427 36.3076 66.9942 36.0487C66.7917 35.9678 66.8016 35.684 66.9234 35.5495C67.2799 35.1537 67.5247 34.6969 67.6676 34.1915C67.1308 33.8766 66.6302 33.5132 66.1705 33.0887C65.9692 32.9032 66.1108 32.4975 66.4003 32.5199C67.4589 32.602 68.2565 31.7892 68.9659 31.1146C69.7673 30.354 70.6196 29.6109 71.6757 29.2412C72.4398 28.9736 73.3356 28.9525 74.0549 29.2985C72.815 29.2275 71.5465 29.6433 70.7165 30.6055V30.603Z" fill="#CCCCC2"/>
<path d="M74.3242 35.0991C74.5118 35.0157 74.6907 34.9186 74.8646 34.8103C74.6957 35.1128 74.4994 35.4015 74.2819 35.6692C73.9539 36.0725 73.5116 36.4272 73.2892 36.9052C73.0917 37.3309 73.1339 37.8512 73.1799 38.3055C73.2147 38.654 72.7761 38.7511 72.5562 38.5694C72.0269 38.1337 71.684 37.5574 71.525 36.9102C70.9 37.2985 70.7733 38.2022 70.7149 38.8955C70.6913 39.1656 70.3484 39.3822 70.1322 39.142C70.0651 39.0685 70.0055 38.9876 69.9434 38.9105C70.5559 37.6906 71.187 36.4807 71.8493 35.287C72.6519 35.5248 73.5737 35.4302 74.3254 35.0978L74.3242 35.0991Z" fill="#CCCCC2"/>
<path d="M58.9932 89.3308C59.1125 89.5175 59.2193 89.713 59.3112 89.9158C59.9039 91.2315 59.8318 93.0389 58.6416 94.0085C57.8526 94.6521 56.7208 94.7915 55.7256 94.5214C55.9418 92.5447 56.1691 90.5693 56.4176 88.5964C56.594 88.6027 56.7692 88.6139 56.9419 88.6375C57.6613 88.7358 58.3583 88.9786 58.9944 89.3296L58.9932 89.3308Z" fill="#DBDBD2"/>
<path d="M53.0169 90.2567C53.0405 90.2057 53.079 90.1621 53.1076 90.1123C53.2331 89.8858 53.3983 89.6817 53.5996 89.4999C53.6555 89.4489 53.7002 89.3904 53.7624 89.3443C54.0133 89.1601 54.2916 89.0244 54.5836 88.9311C54.6706 88.8912 54.7638 88.8663 54.8532 88.834C54.6482 90.4534 54.4556 92.074 54.273 93.6972C53.3623 92.8022 52.9548 91.5201 53.0169 90.2567Z" fill="#DBDBD2"/>
<path d="M58.6414 94.0083C59.8316 93.0386 59.9049 91.23 59.311 89.9156C59.2191 89.7127 59.1122 89.5173 58.993 89.3306C59.3235 89.5123 59.6378 89.7227 59.9298 89.9579C60.3696 90.3114 60.7597 90.7906 61.2803 91.0296C61.4791 91.1205 61.6965 91.1566 61.9177 91.1715C62.2146 91.1914 62.519 91.1678 62.801 91.1367C63.1787 91.0956 63.2881 91.5723 63.093 91.8138C62.6246 92.3939 62.0021 92.7723 61.3014 92.9503C61.7276 93.6274 62.7103 93.7581 63.462 93.8166C63.7564 93.839 63.9938 94.2112 63.7353 94.4489C63.1899 94.9493 62.5438 95.3451 61.8332 95.5592C61.3263 95.7111 60.8169 95.7409 60.3012 95.7285C60.6553 96.382 60.6777 97.1836 60.4019 97.8918C60.3162 98.1134 60.008 98.1047 59.8602 97.974C59.6378 97.7761 59.3968 97.6118 59.1408 97.4761C58.8998 97.3491 58.6463 97.2483 58.3792 97.1749C58.0425 97.7624 57.6511 98.3113 57.1952 98.8154C56.9951 99.0357 56.5541 98.8851 56.5764 98.5702C56.6386 97.6715 56.113 96.9508 55.5278 96.3123C55.59 95.7148 55.6583 95.1186 55.7229 94.5223C56.7181 94.7925 57.8499 94.653 58.6389 94.0095L58.6414 94.0083Z" fill="#CCCCC2"/>
<path d="M53.0169 90.2568C52.9548 91.5202 53.3623 92.8023 54.273 93.6973C54.2308 94.067 54.1886 94.4379 54.1476 94.8076C53.6593 94.2163 53.2356 93.579 52.9747 92.8496C52.6778 92.0194 52.6467 91.0448 53.0169 90.2568Z" fill="#CCCCC2"/>
<path d="M60.1275 58.3119C60.2952 58.5708 60.4368 58.8509 60.5362 59.1596C60.5735 59.2766 60.6008 59.3998 60.6257 59.5243C60.1523 61.1524 59.7175 62.7892 59.3025 64.4323C59.0776 64.6825 58.8453 64.9252 58.6055 65.1542C57.9594 65.2463 57.3022 65.2264 56.6524 65.0459C55.9218 64.843 55.0534 64.4708 54.6719 63.7825C54.1178 63.2286 53.7265 62.5067 53.555 61.7436C53.2655 60.4553 53.6258 59.1322 54.5688 58.2024C55.5267 57.2564 56.912 56.7734 58.2414 57.0759C58.6552 57.1693 59.0478 57.3174 59.4218 57.5041C59.4951 57.5663 59.5609 57.6373 59.6292 57.7045C59.8144 57.8887 59.9833 58.0891 60.1275 58.3107V58.3119Z" fill="#DBDBD2"/>
<path d="M54.5702 58.2038C53.6284 59.1348 53.2669 60.458 53.5564 61.7451C53.7278 62.5068 54.1192 63.23 54.6733 63.7839C55.0535 64.471 55.9232 64.8444 56.6538 65.0473C57.3036 65.2278 57.9608 65.2465 58.6069 65.1556C58.5982 65.1631 58.5907 65.1718 58.582 65.1793C58.2242 65.5203 57.8105 65.8402 57.5682 66.2809C57.4104 66.5647 57.2924 67.0825 57.5955 67.3252C57.7558 67.4534 57.8552 67.6339 57.7918 67.8442C57.7384 68.0222 57.5371 68.1965 57.3396 68.1679C57.2638 68.1567 57.193 68.138 57.1209 68.1218C56.0984 67.9015 55.3169 67.2418 54.9255 66.2995C54.4149 66.7663 54.1416 67.4459 54.1677 68.1504C54.1776 68.4181 53.8397 68.5799 53.6272 68.4392C52.4183 67.6426 51.7424 66.1153 52.0158 64.6926C51.0293 64.6316 50.1111 64.181 49.521 63.3508C49.3495 63.1093 49.4638 62.7707 49.7881 62.767C50.1646 62.7632 50.5099 62.6599 50.8156 62.4707C50.1819 62.06 49.68 61.4687 49.3706 60.7717C49.2476 60.4941 49.4837 60.1829 49.7881 60.2663C50.8516 60.5601 51.7139 59.6614 52.4506 59.0278C52.6345 58.749 52.8321 58.4801 53.0557 58.2274C53.4595 57.7706 53.9577 57.3935 54.5006 57.1022C54.8908 56.8931 55.3008 56.7226 55.7282 56.6255C57.0327 56.3305 58.4367 56.6678 59.4219 57.5055C59.0479 57.3188 58.6553 57.1707 58.2416 57.0773C56.9134 56.7761 55.5269 57.259 54.569 58.2038H54.5702Z" fill="#CCCCC2"/>
<path d="M46.4831 121.597C46.462 116.971 46.3452 112.345 46.0992 107.724C46.3091 107.604 46.5104 107.459 46.6993 107.285C46.8446 107.149 46.8359 106.884 46.7303 106.73C46.6073 106.549 46.4036 106.513 46.2035 106.558C46.1439 106.572 46.0868 106.568 46.0296 106.559C45.8755 103.905 45.6768 101.254 45.4283 98.6078C45.3786 98.512 45.3376 98.4137 45.2817 98.3178C44.8095 97.5224 44.1747 96.4619 43.1546 96.376C42.3185 96.3051 41.4699 96.7968 40.9853 97.4614C40.6573 97.9108 40.4995 98.4049 40.466 98.9215C40.4461 99.2265 40.4685 99.5389 40.5256 99.8551C40.5679 100.09 40.225 100.128 40.1392 99.936C39.9976 99.6198 39.933 99.2875 39.9231 98.9551C39.8746 97.2959 41.3258 95.5993 43.0006 95.5757C43.9833 95.562 44.7064 96.1395 45.2581 96.8739C45.2431 96.7258 45.2257 96.5777 45.2108 96.4296C45.4022 96.9287 45.6432 97.4129 45.8929 97.8847C46.2694 98.5991 46.7117 99.3945 46.6558 100.212C46.6906 100.506 46.6968 100.797 46.6682 101.081C46.7341 101.131 46.8173 101.157 46.8993 101.152C47.3453 106.594 47.5951 112.051 47.728 117.512C47.9405 126.222 47.8075 134.934 47.5876 143.644H46.1551C46.1551 143.602 46.1576 143.56 46.1588 143.519C46.3526 136.212 46.5166 128.905 46.4843 121.596L46.4831 121.597Z" fill="#8BAF3C"/>
<path d="M40.6823 84.0493C40.2499 84.6281 39.6076 85.0488 38.8832 85.1658C37.7862 85.3438 36.6854 85.0065 35.8119 84.3343C35.0715 83.7643 34.4639 82.7759 34.6552 81.81C34.7733 81.215 35.1435 80.63 35.4964 80.1483C35.8492 79.6691 36.3077 79.2907 36.8842 79.1189C37.5489 78.921 38.2098 78.9783 38.841 79.1737C38.5987 79.4886 38.4757 79.8658 38.6521 80.2354C38.7279 80.3923 38.9068 80.4358 39.0348 80.3076C39.2361 80.106 39.3703 79.877 39.5852 79.684C40.3369 80.4483 40.7332 81.5038 40.7754 81.6756C40.9643 82.4548 40.8898 83.2763 40.6823 84.0481V84.0493Z" fill="#F4F3EF"/>
<path d="M36.884 79.1188C36.3087 79.2906 35.849 79.669 35.4962 80.1482C35.1421 80.6299 34.7718 81.2137 34.6551 81.8099C34.4637 82.7758 35.0713 83.7641 35.8118 84.3342C36.6852 85.0076 37.786 85.3437 38.8831 85.1657C39.6061 85.0487 40.2497 84.628 40.6821 84.0492C40.6423 84.1985 40.5976 84.3467 40.5479 84.4923C40.2733 85.3051 39.6322 86.4951 40.4423 87.2083C40.6771 87.4149 40.4672 87.7448 40.2373 87.8207C39.4981 88.0622 38.7191 87.807 38.2121 87.2618C38.0432 87.7585 37.9823 88.3012 38.022 88.814C38.0345 88.9758 37.9612 89.1725 37.7723 89.1961C37.0418 89.2833 36.3386 88.9684 35.89 88.3833C35.5707 87.9676 35.4179 87.5083 35.3483 87.0253C34.7234 87.6066 33.8065 87.8431 32.9654 87.5295C32.7777 87.4585 32.6858 87.1859 32.866 87.0477C33.3319 86.6893 33.6363 86.1217 33.6537 85.5329C32.9144 85.7171 32.1193 85.4632 31.5875 84.8931C31.4695 84.7661 31.4769 84.5259 31.6186 84.4176C31.8347 84.2521 32.0149 84.0679 32.1665 83.8575C31.4608 83.6347 30.8644 83.1281 30.5662 82.4285C30.4507 82.1584 30.6855 81.8784 30.9713 81.9568C31.8993 82.2144 32.7566 81.4701 33.3021 80.8017C33.9879 79.9602 34.6315 78.9968 35.7012 78.6209C36.1982 78.4466 37.7189 78.4852 38.8719 79.1412C38.8619 79.1536 38.8508 79.1636 38.8408 79.1761C38.2109 78.9806 37.5487 78.9234 36.884 79.1213V79.1188Z" fill="#EAE9E5"/>
<path d="M27.0429 45.0505C27.9598 45.2547 28.6357 45.9306 28.9972 46.762C29.1252 46.9724 29.2345 47.1952 29.3227 47.4155C29.5439 47.9694 29.611 48.5246 29.5911 49.0934C29.3985 49.5602 29.0183 49.9598 28.6419 50.2734C27.7312 51.034 26.3968 51.3265 25.3445 50.6593C24.8003 50.3145 24.4313 49.6896 24.1381 49.1308C23.7989 48.4823 23.6448 47.8101 23.9219 47.1106C24.158 46.5156 24.5468 45.948 25.0115 45.4476C25.0239 45.48 25.0314 45.5136 25.0463 45.5459C25.1221 45.7053 25.424 45.7426 25.4414 45.5173C25.4526 45.3704 25.4662 45.2285 25.4849 45.0904C26.003 44.9659 26.536 44.9385 27.0416 45.0505H27.0429Z" fill="#F4F3EF"/>
<path d="M24.1366 49.1295C24.4286 49.6884 24.7988 50.3132 25.343 50.658C26.3954 51.3252 27.7297 51.0327 28.6404 50.2722C29.0169 49.9572 29.3971 49.5577 29.5896 49.0921C29.5809 49.3598 29.5524 49.6299 29.5114 49.9037C29.4182 50.5298 29.2629 51.6862 30.0742 51.9476C30.4171 52.0571 30.4208 52.55 30.0332 52.5973C29.612 52.6483 29.2119 52.6035 28.8255 52.4691C28.7796 52.8898 28.7361 53.3105 28.6926 53.7313C28.6727 53.9254 28.423 54.03 28.2615 53.9441C27.7608 53.6777 27.3247 53.3529 26.9445 52.9508C26.8625 53.1238 26.7755 53.2919 26.6587 53.4549C26.4649 53.725 26.2301 53.9541 25.9729 54.1644C25.7729 54.3287 25.5219 54.1395 25.4871 53.9304C25.43 53.5881 25.2846 53.2595 25.0833 52.9745C24.6994 53.2334 24.2994 53.4064 23.8235 53.4748C23.6086 53.506 23.4831 53.2595 23.5601 53.0828C24.0857 51.8741 22.9426 50.5696 22.6059 49.473C22.2407 48.2793 22.5823 47.011 23.493 46.1533C23.8968 45.7737 24.405 45.4638 24.9529 45.2546C24.9666 45.3194 24.9864 45.3828 25.0088 45.4463C24.5441 45.9467 24.1553 46.5131 23.9192 47.1093C23.6421 47.8088 23.7949 48.4822 24.1354 49.1295H24.1366Z" fill="#EAE9E5"/>
<path d="M47.0345 30.2892C48.2098 30.4448 49.328 31.2302 49.5516 32.4588C49.6672 33.0936 49.4585 33.7894 49.246 34.3831C49 35.0727 48.6099 35.6416 47.9079 35.9104C47.6433 36.0125 47.3588 36.081 47.068 36.1345C47.1165 36.0063 47.1451 35.8756 47.1239 35.7337C47.109 35.6353 47.0196 35.5656 46.9202 35.5992C46.6319 35.6963 46.4841 35.9627 46.3449 36.2204C46.0654 36.2365 45.7858 36.2403 45.5063 36.2204C45.1696 36.0137 44.8689 35.7573 44.618 35.4636C44.4937 35.3179 44.3769 35.1673 44.2825 35.003C43.8862 34.3184 43.8539 33.5342 44.0688 32.8098C44.1098 32.6729 44.1558 32.536 44.2142 32.404C44.2825 32.1663 44.3719 31.936 44.4738 31.7219C44.731 31.1842 45.0938 30.7585 45.5237 30.3875C45.997 30.2133 46.5474 30.2232 47.0332 30.288L47.0345 30.2892Z" fill="#F4F3EF"/>
<path d="M47.068 36.1333C47.3587 36.0798 47.6432 36.0114 47.9079 35.9093C48.6099 35.6392 49 35.0703 49.246 34.382C49.4584 33.7883 49.6659 33.0925 49.5516 32.4576C49.328 31.2291 48.2098 30.4449 47.0345 30.2881C46.5487 30.2233 45.9983 30.2134 45.5249 30.3877C45.7274 30.2134 45.9461 30.0503 46.1747 29.896C46.6965 29.5412 47.6519 28.8716 47.2941 28.0973C47.1425 27.77 47.5016 27.4339 47.7985 27.6878C48.1216 27.9629 48.3601 28.289 48.5229 28.6649C48.8633 28.4135 49.2013 28.1608 49.5404 27.9081C49.697 27.7924 49.943 27.9044 49.989 28.0812C50.1318 28.6301 50.189 29.1715 50.1517 29.7255C50.3344 29.6694 50.517 29.6184 50.7158 29.5935C51.0463 29.5524 51.373 29.5711 51.701 29.6184C51.957 29.6545 51.988 29.9669 51.8576 30.135C51.6451 30.4101 51.5022 30.7387 51.4289 31.0797C51.8787 31.1868 52.2775 31.366 52.6502 31.6697C52.8192 31.8079 52.7223 32.0668 52.5409 32.129C51.2985 32.561 51.1146 34.2862 50.5356 35.277C49.907 36.3561 48.744 36.9623 47.4979 36.8715C47.2606 36.854 47.0195 36.808 46.7798 36.7482C46.8096 36.686 46.8332 36.62 46.8642 36.559C46.9351 36.4196 47.0146 36.2802 47.0705 36.1358L47.068 36.1333Z" fill="#EAE9E5"/>
<path d="M46.346 36.2217C46.3348 36.2428 46.3224 36.2652 46.3112 36.2864C46.264 36.3735 46.2292 36.4669 46.1845 36.5553C45.9509 36.4619 45.7223 36.3549 45.5073 36.2229C45.7869 36.2428 46.0677 36.2379 46.346 36.2229V36.2217Z" fill="#EAE9E5"/>
<path d="M36.4743 63.9928C36.7662 64.6624 36.8731 65.3408 36.7787 66.0242C36.7314 66.0926 36.683 66.1611 36.6383 66.2308C36.36 66.6627 35.9673 67.0324 35.5114 67.2702C33.9024 68.1104 31.6946 67.0038 31.8686 65.0682C32.0052 63.5409 33.1433 62.4493 34.5062 61.939C34.6255 61.9651 34.7436 62.0024 34.8579 62.0497C34.9063 62.0697 34.9485 62.097 34.9945 62.1207C34.9287 62.3024 34.879 62.4979 34.8119 62.7082C34.7597 62.8725 35.0206 63.002 35.1188 62.8588C35.2157 62.7144 35.3536 62.59 35.4853 62.4655C35.9301 62.8762 36.2382 63.4501 36.4755 63.9928H36.4743Z" fill="#F4F3EF"/>
<path d="M31.867 65.0683C31.6943 67.0051 33.9008 68.1104 35.5098 67.2702C35.9658 67.0325 36.3584 66.6628 36.6367 66.2309C36.6814 66.1612 36.7299 66.0927 36.7771 66.0243C36.7398 66.2894 36.6739 66.5558 36.5745 66.8221C36.2006 67.8266 35.4588 68.7303 35.6589 69.858C35.7222 70.2153 35.2675 70.4904 34.9681 70.3236C34.5121 70.0684 34.081 69.7834 33.6834 69.4485C33.4088 69.6763 33.133 69.9016 32.8448 70.1132C32.6211 70.2775 32.3143 70.1506 32.2186 69.9091C32.0894 69.5817 31.9515 69.2606 31.7912 68.9494C31.3862 69.1261 30.9749 69.2481 30.5276 69.3104C30.2692 69.3465 30.0431 69.0216 30.1798 68.7925C30.3028 68.5859 30.3661 68.3743 30.3612 68.1552C29.6405 68.3544 28.8628 68.3233 28.4938 67.5329C28.3994 67.33 28.587 67.0474 28.8081 67.0512C29.9362 67.0674 29.9661 65.9209 30.1437 65.0882C30.3264 64.2269 30.6755 63.3693 31.3352 62.7643C31.7701 62.366 32.3441 62.0946 32.9367 62.0361C33.4523 61.8942 33.9965 61.827 34.5047 61.9391C33.143 62.4506 32.0036 63.541 31.867 65.0683Z" fill="#EAE9E5"/>
<path d="M4.86775 32.2062C3.31098 31.2727 3.0948 28.8094 4.83172 27.943C6.20212 27.2597 7.72658 27.6605 8.87334 28.5554C8.9131 28.6712 8.94416 28.7907 8.9628 28.9139C8.9628 28.9189 8.9628 28.9239 8.9628 28.9289C8.56274 28.9114 8.1664 28.9077 7.78125 28.9401C7.65452 28.9513 7.64706 29.1318 7.76758 29.1604C8.16392 29.2525 8.56895 29.311 8.97647 29.362C8.93174 30.069 8.55155 30.7424 8.1577 31.3113C7.74149 31.9112 7.22091 32.3581 6.58976 32.6344C6.50651 32.6295 6.42327 32.6245 6.34003 32.6232C5.8269 32.612 5.30757 32.4701 4.86526 32.2062H4.86775Z" fill="#F4F3EF"/>
<path d="M0.5239 29.0221C0.357415 28.8205 0.515203 28.457 0.781084 28.4545C1.02087 28.4508 1.23333 28.3948 1.41845 28.2753C0.873024 27.7649 0.491597 27.0841 0.969933 26.3547C1.09293 26.1679 1.43088 26.1804 1.54394 26.3708C2.12167 27.3417 3.11188 26.7679 3.91201 26.4829C4.74071 26.1879 5.65141 26.0372 6.51118 26.2825C7.07772 26.4443 7.60824 26.7928 7.96979 27.267C8.35991 27.633 8.70282 28.0612 8.87304 28.5553C7.72503 27.6604 6.20181 27.2608 4.83141 27.9429C3.09449 28.8093 3.30943 31.2726 4.86744 32.2061C5.3085 32.4713 5.82784 32.6119 6.34221 32.6231C6.42545 32.6256 6.50869 32.6293 6.59193 32.6343C6.34717 32.7414 6.08626 32.8248 5.80796 32.8795C4.75811 33.0862 3.6014 32.9268 2.74661 33.6886C2.47576 33.9301 2.00364 33.6849 1.98873 33.3438C1.96636 32.821 1.98376 32.3032 2.06079 31.7892C1.72285 31.6734 1.38739 31.5564 1.05566 31.4207C0.798478 31.3162 0.746296 30.9875 0.901599 30.7797C1.11157 30.4971 1.31284 30.2121 1.49424 29.9121C1.13145 29.6594 0.812144 29.3719 0.525143 29.0234L0.5239 29.0221Z" fill="#EAE9E5"/>
<path d="M47.2347 91.7133C47.7254 91.6373 48.2323 91.6921 48.7156 91.8228C48.948 91.885 49.1766 91.9597 49.3928 92.0543C49.9742 92.312 50.5023 92.6817 50.9607 93.1248C50.9843 93.1472 51.0092 93.1671 51.0315 93.1895C51.0887 93.385 51.1347 93.5854 51.1645 93.7882C51.3546 95.1014 50.8315 96.6822 49.5332 97.2349C48.2684 97.7739 46.6147 97.1839 45.8717 96.0586C45.171 94.9981 45.1126 93.6625 45.5139 92.485C45.6406 92.3406 45.7872 92.2161 45.9487 92.1066C46.0879 92.0133 46.237 91.9299 46.4035 91.8689C46.6718 91.7693 46.9526 91.7207 47.2347 91.7133Z" fill="#F4F3EF"/>
<path d="M45.8705 96.0585C46.6134 97.1837 48.2671 97.7737 49.5319 97.2347C50.8303 96.6808 51.3533 95.1013 51.1632 93.7881C51.1334 93.5852 51.0887 93.3848 51.0303 93.1894C51.2763 93.4346 51.4999 93.7009 51.6987 93.9835C51.9981 94.4079 52.2205 94.932 52.6206 95.2743C52.9734 95.578 53.4804 95.6776 53.9264 95.7548C53.9301 95.7548 53.9338 95.756 53.9376 95.7572C53.9811 95.7647 54.0034 95.7933 54.0357 95.812C54.0121 96.0286 53.9922 96.2452 53.9686 96.4618C53.8779 96.5228 53.7848 96.575 53.6891 96.6248C53.2108 96.8763 52.6889 96.9945 52.151 96.9771C52.3025 97.5011 52.8008 97.8372 53.3126 98.0749C53.4717 98.1484 53.6295 98.2131 53.781 98.2704C53.7562 98.5193 53.7288 98.767 53.704 99.0159C53.4828 99.1143 53.2555 99.1989 53.0231 99.2624C52.6765 99.357 52.3187 99.413 51.9584 99.418C51.5086 99.423 51.0837 99.3334 50.665 99.2076C50.6302 99.1977 50.5954 99.189 50.5606 99.1778C50.7073 99.8449 50.5246 100.559 50.1009 101.116C49.9692 101.289 49.6984 101.204 49.6015 101.05C49.4549 100.818 49.2822 100.612 49.0909 100.427C48.9107 100.254 48.7132 100.099 48.4957 99.9669C48.0485 100.4 47.5639 100.786 47.0321 101.115C46.9899 101.141 46.9427 101.151 46.8955 101.153C46.8135 101.157 46.7302 101.132 46.6644 101.082C46.6917 100.798 46.6867 100.506 46.652 100.213C46.7079 99.3968 46.2656 98.6002 45.8891 97.8857C45.6406 97.4127 45.3996 96.9298 45.207 96.4306C45.002 95.8967 44.8542 95.3452 44.8169 94.7664C44.7958 94.4279 44.833 94.0831 44.9088 93.7482C45.0144 93.2802 45.2058 92.8371 45.5127 92.4861C45.1113 93.6636 45.1697 94.9992 45.8705 96.0597V96.0585Z" fill="#EAE9E5"/>
<path d="M36.1299 8.66964C35.9038 8.585 35.6988 8.46053 35.5137 8.30867C34.9881 7.97757 34.5881 7.45229 34.3259 6.89714C34.0849 6.3868 33.9482 5.83041 33.9072 5.26654C33.978 5.10971 34.06 4.95785 34.1532 4.81097C34.7558 3.86871 35.961 3.1505 37.0941 3.51645C38.1973 3.87244 38.9266 5.16447 38.78 6.29345C38.6421 7.35645 37.9426 8.24145 37.0382 8.76922C36.8816 8.79038 36.7226 8.79038 36.5623 8.77171C36.4244 8.75553 36.2852 8.72441 36.1486 8.67338C36.1424 8.67089 36.1362 8.67089 36.1312 8.66964H36.1299Z" fill="#F4F3EF"/>
<path d="M38.7797 6.29323C38.9263 5.16426 38.1982 3.87222 37.0937 3.51623C35.9606 3.15028 34.7555 3.86849 34.1529 4.81075C34.0597 4.95638 33.9789 5.10949 33.9069 5.26632C33.8858 4.97381 33.8895 4.68005 33.9181 4.39003C33.9616 3.95438 34.1082 3.49631 34.0423 3.05692C33.9839 2.66483 33.7118 2.3188 33.4683 2.02006C33.2819 1.79103 33.5453 1.51843 33.7839 1.54333C34.3591 1.60308 34.8685 1.84829 35.2798 2.23042C35.5394 1.66656 35.209 0.970752 34.9282 0.455432C34.8188 0.253786 34.9605 -0.0573975 35.2226 0.00981809C35.778 0.152962 36.3085 0.406888 36.7471 0.780307C37.0602 1.04544 37.295 1.36658 37.505 1.70763C37.7795 1.20103 38.2902 0.847523 38.8667 0.726784C39.0468 0.689442 39.1723 0.893578 39.1487 1.04544C39.0816 1.4898 39.1214 1.92671 39.2556 2.34867C39.7799 2.32004 40.3017 2.34245 40.821 2.42709C41.0484 2.46443 41.1378 2.81545 40.9229 2.93494C40.1402 3.3706 39.9563 4.3141 39.7699 5.12069C39.5587 6.02934 39.3052 6.9492 38.7325 7.70226C38.3188 8.24746 37.6988 8.67938 37.0316 8.77149C37.9373 8.24248 38.6356 7.35872 38.7735 6.29572L38.7797 6.29323Z" fill="#EAE9E5"/>
<path d="M14.9189 34.5651C15.0916 34.3573 15.2692 34.1817 15.4544 34.0224C16.4272 34.3436 17.2608 35.0307 17.6212 36.0576C17.8895 36.8231 17.8038 37.7417 17.4398 38.5022C17.4224 38.5632 17.405 38.623 17.3851 38.6839C17.3317 38.8458 17.2683 39.0101 17.2037 39.1769C16.8583 39.4158 16.4645 39.5802 16.0482 39.6312C15.1015 39.7482 14.1697 39.3499 13.51 38.6777C12.1097 37.25 12.6316 34.8253 14.2467 33.8096C14.4815 33.8145 14.7151 33.8457 14.945 33.8892C14.8244 34.0585 14.7325 34.2452 14.6865 34.4494C14.6567 34.5801 14.8344 34.6659 14.9189 34.5639V34.5651Z" fill="#F4F3EF"/>
<path d="M13.5101 38.679C14.1698 39.3511 15.1016 39.7494 16.0484 39.6324C16.4633 39.5814 16.8572 39.4171 17.2038 39.1781C16.9255 39.8851 16.6037 40.6282 16.8162 41.3726C16.8783 41.5916 16.7068 41.8331 16.4646 41.7796C16.2037 41.7211 15.9514 41.6315 15.7191 41.4983C15.5924 41.4261 15.4868 41.339 15.3861 41.2468C15.3141 41.619 15.3327 42.0012 15.4371 42.3696C15.493 42.5675 15.2967 42.7828 15.0942 42.6758C14.2953 42.2513 13.6356 41.6738 13.0168 41.0265C12.746 41.3838 12.3807 41.6539 11.9459 41.797C11.7297 41.868 11.552 41.6501 11.6365 41.4485C11.7769 41.1149 11.8166 40.7601 11.7533 40.4104C11.1706 40.5087 10.5941 40.5199 10.0014 40.4315C9.73805 40.3917 9.72438 40.0643 9.89708 39.9187C10.6736 39.2615 10.6736 38.0977 10.7705 37.1679C10.8786 36.1372 11.1408 35.0394 12.0577 34.4282C12.7037 33.9975 13.479 33.7971 14.2481 33.8121C12.6329 34.8278 12.1111 37.2525 13.5113 38.6802L13.5101 38.679Z" fill="#EAE9E5"/>
<path d="M39.1365 26.545C38.8955 26.3533 38.5998 26.6956 38.8247 26.906C39.0098 27.079 39.1713 27.2682 39.3465 27.4499C39.0843 27.6815 38.7936 27.8769 38.4818 28.0275C37.822 28.3474 37.0741 28.4656 36.3125 28.2802C35.526 28.0885 34.8029 27.5159 34.3656 26.7952C34.3246 26.7479 34.2836 26.6994 34.2438 26.6496C34.137 26.5164 34.0339 26.3745 33.9307 26.2276C33.9196 25.8069 33.9966 25.3862 34.1805 25.0103C34.5979 24.1514 35.4391 23.5863 36.3622 23.3983C38.3203 23 40.0646 24.7613 40.0336 26.6707C39.9416 26.8064 39.8397 26.9359 39.7317 27.0591C39.5416 26.8799 39.3428 26.7068 39.1378 26.5438L39.1365 26.545Z" fill="#F4F3EF"/>
<path d="M36.3594 23.3984C35.4375 23.5863 34.5964 24.1514 34.1777 25.0103C33.995 25.3875 33.9168 25.8069 33.928 26.2277C33.4881 25.609 33.0421 24.9331 32.3029 24.7053C32.0854 24.6381 31.9761 24.3618 32.1538 24.1875C32.3439 23.9996 32.5576 23.8378 32.7949 23.7145C32.9253 23.6473 33.0545 23.6063 33.1862 23.5726C32.9141 23.31 32.5836 23.1171 32.2184 23.0038C32.0221 22.9428 31.95 22.6603 32.1488 22.5495C32.4134 22.4026 32.6868 22.2831 32.9626 22.1761C33.5105 21.9632 34.0758 21.8138 34.6597 21.7031C34.5082 21.2798 34.4821 20.8268 34.5989 20.3836C34.6573 20.1633 34.9368 20.1322 35.0598 20.3139C35.2623 20.6139 35.5381 20.8405 35.8649 20.9786C36.0997 20.4359 36.4054 19.9455 36.8029 19.4961C36.9794 19.297 37.2602 19.4638 37.2887 19.6878C37.4155 20.6986 38.3895 21.3321 39.1139 21.9209C39.9177 22.5731 40.693 23.3922 40.7054 24.495C40.7141 25.2717 40.4594 26.0322 40.027 26.6708C40.0569 24.7614 38.3125 23.0001 36.3557 23.3984H36.3594Z" fill="#EAE9E5"/>
<path d="M85.4393 32.6195C84.5286 33.3801 83.1942 33.6726 82.1418 33.0054C81.5977 32.6606 81.2287 32.0358 80.9354 31.4769C80.5963 30.8284 80.4422 30.1562 80.7193 29.4567C80.9392 28.9015 81.2908 28.3688 81.7132 27.8933C82.04 28.0763 82.3543 28.2916 82.6786 28.5331C82.8351 28.6501 83.1432 28.5082 83.0327 28.2904C82.8587 27.9468 82.5978 27.6655 82.2897 27.4365C82.8053 27.3145 83.3371 27.2859 83.8402 27.3979C84.7572 27.602 85.433 28.2779 85.7946 29.1094C85.9226 29.321 86.0319 29.5426 86.1201 29.7629C86.3413 30.3168 86.4084 30.8719 86.3885 31.4395C86.1959 31.9063 85.8157 32.3059 85.4393 32.6195Z" fill="#F4F3EF"/>
<path d="M80.7195 29.4566C80.4424 30.1562 80.5952 30.8296 80.9357 31.4769C81.2276 32.0357 81.5979 32.6606 82.1421 33.0054C83.1956 33.6726 84.5288 33.38 85.4395 32.6195C85.8159 32.3046 86.1961 31.905 86.3887 31.4395C86.38 31.7071 86.3514 31.9772 86.3104 32.2511C86.2172 32.8772 86.0619 34.0335 86.8732 34.2949C87.2161 34.4045 87.2199 34.8974 86.8322 34.9447C86.4111 34.9957 86.0097 34.9509 85.6246 34.8165C85.5786 35.2372 85.5351 35.6579 85.4917 36.0786C85.4718 36.2728 85.2221 36.3774 85.0605 36.2915C84.5598 36.0251 84.1237 35.7002 83.7436 35.2982C83.6616 35.4712 83.5746 35.6392 83.4578 35.8023C83.264 36.0724 83.0292 36.3014 82.772 36.5118C82.5719 36.6761 82.321 36.4869 82.2862 36.2778C82.229 35.9355 82.0837 35.6069 81.8824 35.3218C81.4997 35.5807 81.0984 35.7538 80.6226 35.8222C80.4076 35.8533 80.2821 35.6069 80.3592 35.4301C80.8847 34.2215 79.7417 32.917 79.4062 31.8204C79.041 30.6267 79.3826 29.3583 80.2933 28.5007C80.6151 28.1982 81.004 27.9431 81.4239 27.7439C81.5221 27.79 81.619 27.8397 81.7134 27.8933C81.291 28.3688 80.9394 28.9015 80.7195 29.4566Z" fill="#EAE9E5"/>
<path d="M92.54 18.544C93.3774 20.1572 92.2716 22.3679 90.3384 22.1923C88.855 22.0579 87.7902 20.9713 87.2646 19.6556C87.4498 19.622 87.6349 19.5859 87.82 19.5697C88.2946 19.5311 88.7854 19.607 89.2525 19.5174C89.3408 19.5 89.3929 19.368 89.2898 19.3257C88.85 19.144 88.3443 19.1664 87.8759 19.1639C87.697 19.1639 87.5206 19.1664 87.3429 19.1676C87.6896 18.3723 88.5108 17.9067 89.2699 17.5744C89.9384 17.2819 90.6155 17.1761 91.2976 17.2719C91.3659 17.3192 91.4342 17.3678 91.5038 17.4126C91.9349 17.6926 92.3027 18.0847 92.5412 18.5428L92.54 18.544Z" fill="#F4F3EF"/>
<path d="M90.3395 22.1924C92.2727 22.3679 93.3785 20.1572 92.5411 18.5441C92.3038 18.0872 91.9348 17.6939 91.5037 17.4138C91.4341 17.3678 91.3657 17.3205 91.2974 17.2732C91.562 17.3105 91.8279 17.3778 92.0938 17.4773C93.0952 17.8532 93.9972 18.5963 95.1229 18.3972C95.4794 18.3337 95.754 18.7905 95.5875 19.0893C95.3328 19.5461 95.0483 19.978 94.7129 20.3751C94.9402 20.6514 95.1639 20.9277 95.3763 21.2165C95.5403 21.4406 95.4123 21.748 95.1725 21.8439C94.8458 21.9733 94.5252 22.1115 94.2134 22.272C94.3898 22.6778 94.5116 23.0898 94.5725 23.5379C94.6085 23.7981 94.2842 24.0234 94.0556 23.8865C93.8494 23.7632 93.6381 23.6997 93.4195 23.7035C93.617 24.4254 93.586 25.2046 92.7958 25.5743C92.5933 25.6689 92.3125 25.4797 92.315 25.2594C92.3311 24.1292 91.1881 24.0981 90.3569 23.9201C89.4971 23.7358 88.6423 23.3861 88.0385 22.7251C87.6409 22.2895 87.3713 21.7144 87.3129 21.1207C87.1825 20.6427 87.1216 20.1435 87.2011 19.6681C87.2222 19.6643 87.2434 19.6618 87.2645 19.6581C87.79 20.9738 88.8548 22.0604 90.3383 22.1949L90.3395 22.1924Z" fill="#EAE9E5"/>
<path d="M77.6806 42.7529C77.5663 44.5677 75.4803 45.8884 73.9148 44.7383C72.6985 43.8445 72.3506 42.3347 72.5966 40.9207C72.8749 40.9568 73.1545 41.0115 73.4377 41.075C73.5968 41.1111 73.6601 40.9157 73.5657 40.8136C73.4315 40.6692 73.2762 40.5609 73.1122 40.4726C73.7906 40.1041 74.6342 40.134 75.3772 40.2323C76.1003 40.3282 76.7351 40.5871 77.2694 41.0227C77.3029 41.0987 77.3377 41.1746 77.3738 41.2505C77.5986 41.7136 77.7117 42.2401 77.6794 42.7541L77.6806 42.7529Z" fill="#F4F3EF"/>
<path d="M73.9147 44.7381C75.479 45.8883 77.5662 44.5676 77.6805 42.7528C77.7128 42.2387 77.5998 41.7109 77.3749 41.2491C77.3389 41.1745 77.3041 41.0973 77.2705 41.0214C77.478 41.1906 77.6706 41.3848 77.847 41.6076C78.5117 42.4478 78.9006 43.5506 79.9679 43.9627C80.3058 44.0934 80.3058 44.6261 80.0089 44.7954C79.5554 45.0543 79.0882 45.2771 78.5975 45.4439C78.6496 45.7974 78.6993 46.1497 78.7316 46.5069C78.7565 46.7845 78.4894 46.9811 78.2334 46.9388C77.8868 46.8803 77.5414 46.833 77.1923 46.8094C77.1339 47.2475 77.0258 47.6645 76.8481 48.079C76.745 48.3205 76.3511 48.3454 76.2257 48.1101C76.1126 47.8973 75.9647 47.7342 75.7747 47.6247C75.5721 48.3454 75.1435 48.9951 74.2763 48.9042C74.0539 48.8806 73.9098 48.5731 74.0278 48.3852C74.6254 47.4255 73.6613 46.8069 73.0413 46.2256C72.4002 45.6231 71.8486 44.8813 71.6722 44.0025C71.5566 43.4237 71.6224 42.7914 71.8771 42.2524C72.0163 41.7607 72.2288 41.2852 72.5592 40.9143C72.5717 40.9156 72.5841 40.918 72.5965 40.9193C72.3505 42.3333 72.6984 43.8432 73.9147 44.7369V44.7381Z" fill="#EAE9E5"/>
<path d="M61.0433 41.9587C61.293 40.3106 62.8958 39.3211 64.4525 39.4306C64.3705 39.4991 64.2898 39.5675 64.2227 39.6397C63.9146 39.9671 64.3991 40.5185 64.7495 40.2297C64.957 40.0592 65.1881 39.8812 65.4353 39.7281C66.2255 40.8944 66.4255 42.4516 65.603 43.6826C65.1533 44.356 64.3668 44.8402 63.5418 45.0033C63.4835 45.0257 63.4238 45.0481 63.3642 45.068C63.2027 45.1228 63.0337 45.1713 62.861 45.2186C62.4622 45.0854 62.0957 44.8676 61.8049 44.5651C61.1427 43.8768 60.9029 42.891 61.0446 41.9587H61.0433Z" fill="#F4F3EF"/>
<path d="M61.0434 41.9586C60.9017 42.8909 61.1428 43.8768 61.8037 44.5651C62.0932 44.8676 62.461 45.0842 62.8598 45.2186C62.128 45.419 61.3416 45.6069 60.8744 46.2243C60.7377 46.4061 60.4408 46.4135 60.3377 46.187C60.2271 45.943 60.1488 45.6866 60.1153 45.4215C60.0966 45.2758 60.1029 45.1402 60.1165 45.0032C59.7773 45.1688 59.4816 45.4128 59.2506 45.7177C59.1263 45.8808 58.8368 45.8522 58.8008 45.6269C58.6604 44.7319 58.7262 43.8568 58.8716 42.9731C58.4231 42.9694 57.9882 42.8399 57.6143 42.576C57.4279 42.4453 57.495 42.1715 57.7075 42.118C58.0578 42.0296 58.3659 41.8491 58.607 41.5889C58.1796 41.1807 57.8242 40.7251 57.5397 40.1973C57.413 39.9633 57.6665 39.7555 57.8864 39.8065C58.8778 40.0343 59.8059 39.336 60.6073 38.8568C61.4956 38.3253 62.5306 37.8772 63.568 38.2443C64.0786 38.4248 64.5321 38.7298 64.916 39.1057C64.7458 39.2053 64.593 39.3161 64.4551 39.4318C62.8983 39.3223 61.2956 40.3119 61.0459 41.9599L61.0434 41.9586Z" fill="#EAE9E5"/>
<path d="M38.9181 45.2921C38.1378 45.078 37.4309 44.4843 37.0147 43.7523C36.9749 43.7038 36.9352 43.654 36.8966 43.6042C36.7935 43.4685 36.6941 43.3229 36.5947 43.1735C36.5947 42.7528 36.6842 42.3346 36.878 41.9637C37.3203 41.1172 38.1763 40.5758 39.1044 40.4152C41.0724 40.0729 42.7659 41.8828 42.6814 43.7909C42.6528 43.8308 42.618 43.8656 42.5895 43.903C42.4677 43.8308 42.3459 43.7573 42.2267 43.6802C42.0018 43.5345 41.885 43.3565 41.721 43.1574C41.6875 43.1163 41.6179 43.0889 41.5707 43.1287C41.1234 43.5084 41.6651 43.9926 42.1795 44.3548C41.3222 45.1788 40.1257 45.6219 38.9168 45.2908L38.9181 45.2921Z" fill="#F4F3EF"/>
<path d="M39.1058 40.4141C38.1789 40.5746 37.3216 41.1161 36.8793 41.9625C36.6855 42.3334 36.5961 42.7517 36.5961 43.1724C36.1736 42.5413 35.7475 41.853 35.0145 41.604C34.7995 41.5306 34.6976 41.2518 34.8803 41.0825C35.0766 40.9007 35.294 40.7439 35.535 40.6282C35.6667 40.5647 35.7972 40.5273 35.9314 40.4975C35.6667 40.2274 35.3425 40.0245 34.9809 39.9012C34.7871 39.8353 34.7225 39.5502 34.925 39.4444C35.7276 39.0274 36.5774 38.8121 37.4596 38.6714C37.3204 38.2445 37.3067 37.7902 37.4372 37.3508C37.5018 37.1329 37.7826 37.1093 37.8994 37.2935C38.0932 37.5985 38.3616 37.8337 38.6846 37.9806C38.9343 37.4454 39.2536 36.9624 39.6636 36.5255C39.8463 36.3313 40.1221 36.5068 40.1432 36.7309C40.2414 37.7454 41.1968 38.4063 41.905 39.015C42.6902 39.6909 43.4419 40.5311 43.422 41.6339C43.4083 42.4106 43.1313 43.1637 42.6827 43.7898C42.7672 41.8816 41.0738 40.0718 39.1058 40.4141Z" fill="#EAE9E5"/>
<path d="M42.5456 99.6234C42.5568 99.6272 42.568 99.6322 42.5779 99.6359C43.4749 100.006 44.1061 100.793 44.5124 101.65C44.9174 102.504 45.0665 103.475 45.1473 104.409C44.8143 104.972 44.3869 105.472 43.8402 105.867C43.2252 106.31 42.3903 106.756 41.6175 106.623C40.8397 106.708 40.0322 106.562 39.3314 106.218C38.1486 105.638 37.3448 104.528 37.2094 103.208C37.0727 101.868 37.5647 100.484 38.6319 99.6346C38.9637 99.3708 39.3252 99.1554 39.7042 98.9812C39.775 98.9675 39.847 98.9637 39.9191 98.9538C39.929 99.2874 39.9936 99.6185 40.1353 99.9346C40.221 100.126 40.5639 100.089 40.5217 99.8537C40.4645 99.5388 40.4422 99.2251 40.462 98.9202C40.872 98.9251 41.2845 98.9911 41.6908 99.1455C41.9865 99.2587 42.2797 99.4193 42.5456 99.621V99.6234Z" fill="#F4F3EF"/>
<path d="M43.7318 108.002C43.7753 108.693 44.1331 109.331 44.6984 109.753C44.9121 109.912 44.8276 110.278 44.5853 110.357C43.2087 110.802 41.5961 110.373 40.6605 109.269C39.9958 110.002 39.0702 110.436 38.0539 110.378C37.7582 110.36 37.5669 110.059 37.7669 109.804C37.9992 109.508 38.1359 109.173 38.1806 108.816C37.4637 109.052 36.6897 109.076 35.9542 108.88C35.661 108.802 35.5665 108.424 35.8225 108.238C36.717 107.591 36.558 106.356 36.5257 105.383C36.4238 105.064 36.3381 104.742 36.2809 104.409C36.1045 103.376 36.2474 102.262 36.7071 101.319C37.2948 100.115 38.4366 99.2301 39.7051 98.9849C39.3249 99.1591 38.9646 99.3732 38.6329 99.6383C37.5669 100.487 37.0736 101.873 37.2103 103.212C37.3445 104.531 38.1483 105.642 39.3324 106.222C40.0331 106.565 40.8394 106.712 41.6184 106.626C42.3912 106.759 43.2261 106.314 43.8411 105.871C44.3878 105.476 44.8152 104.975 45.1482 104.413C45.1482 104.424 45.1507 104.436 45.1507 104.447C45.1929 104.94 45.183 105.464 45.3718 105.929C45.4749 106.183 45.7259 106.514 46.0278 106.564C46.0837 106.573 46.1421 106.575 46.2018 106.563C46.4018 106.518 46.6055 106.554 46.7285 106.735C46.8341 106.889 46.8428 107.154 46.6975 107.29C46.5086 107.465 46.3074 107.608 46.0974 107.729C45.3743 108.146 44.5431 108.242 43.7306 108.005L43.7318 108.002Z" fill="#EAE9E5"/>
<path d="M65.1193 79.9604C64.482 80.416 63.7067 80.6824 62.9277 80.7259C61.6119 80.7981 60.3695 80.2231 59.6091 79.1377C58.8363 78.0348 58.5916 76.5859 59.1084 75.3225C59.27 74.9292 59.4799 74.5658 59.7259 74.2284C59.8713 74.1064 60.0266 73.9982 60.1894 73.8986C60.3707 74.0355 60.5273 74.2122 60.6664 74.384C60.8491 74.6068 61.228 74.4413 61.1286 74.1488C61.0566 73.9384 60.946 73.7579 60.8155 73.5986C61.0466 73.5127 61.2852 73.4405 61.5399 73.4032C61.853 73.3571 62.1872 73.3546 62.5164 73.3994C62.5276 73.3982 62.54 73.3957 62.5512 73.3945C63.5141 73.2787 64.4484 73.6571 65.2212 74.206C65.9903 74.7537 66.5941 75.5267 67.1209 76.3034C67.1035 76.9569 66.9767 77.6029 66.691 78.2153C66.3704 78.9036 65.8598 79.7003 65.1193 79.9617V79.9604Z" fill="#F4F3EF"/>
<path d="M69.5263 81.7666C68.879 82.4649 67.9596 82.8756 67.0216 82.9366C66.5308 82.969 66.0363 82.9105 65.5717 82.7375C65.348 83.7022 64.7529 84.5349 63.8372 84.9805C63.5714 85.1099 63.257 84.9407 63.3067 84.6208C63.3651 84.2486 63.3204 83.8889 63.1862 83.5565C62.6768 84.1142 62.0121 84.5125 61.2741 84.7029C60.9797 84.7788 60.7125 84.4938 60.8467 84.2063C61.3126 83.2043 60.5709 82.2035 60.0689 81.3695C59.8242 81.1417 59.5931 80.9015 59.3806 80.6401C58.7222 79.8248 58.3047 78.783 58.2463 77.7337C58.1718 76.3956 58.7371 75.065 59.7248 74.2297C59.4788 74.5683 59.2688 74.9318 59.1073 75.3239C58.5905 76.586 58.8352 78.0361 59.608 79.139C60.3684 80.2244 61.6108 80.8007 62.9265 80.7272C63.7055 80.6849 64.4808 80.4173 65.1182 79.9617C65.8574 79.6991 66.3693 78.9037 66.6899 78.2154C66.9756 77.603 67.1023 76.9569 67.1197 76.3035C67.126 76.3122 67.1322 76.3221 67.1384 76.3308C67.4154 76.7404 67.6614 77.2022 68.0541 77.5158C68.3075 77.7187 68.7983 77.9204 69.0865 77.6627C69.2393 77.5258 69.4344 77.4573 69.6295 77.5544C69.7959 77.6378 69.9338 77.8644 69.873 78.0548C69.5214 79.1464 68.6964 79.8846 67.6341 80.131C67.8764 80.5069 68.228 80.7882 68.6318 80.9725C68.8529 81.0733 69.084 81.1542 69.3313 81.1865C69.5959 81.2214 69.699 81.5824 69.5263 81.7691V81.7666Z" fill="#EAE9E5"/>
<path d="M44.5958 15.4158C45.1176 15.5789 45.5947 15.8988 45.9475 16.3145C46.5439 17.0178 46.7489 17.9538 46.4669 18.8364C46.1799 19.7326 45.4779 20.4819 44.5585 20.7271C44.3473 20.7831 44.1336 20.8117 43.9186 20.8279C44.0379 20.5143 44.1311 20.1919 44.1584 19.8545C44.1721 19.6927 43.9472 19.5857 43.8702 19.7562C43.7186 20.0923 43.5546 20.4234 43.3919 20.7557C43.0539 20.6362 42.7359 20.4483 42.4638 20.1807C42.306 20.0251 42.1631 19.8396 42.0488 19.6367C42.0426 19.6305 42.0376 19.6255 42.0314 19.6193C41.5605 19.1314 41.3754 18.4505 41.3543 17.787C41.3331 17.1261 41.5083 16.4627 41.7171 15.8415C42.0873 15.5752 42.501 15.3735 42.9607 15.2739C43.4788 15.1619 44.1373 15.1109 44.5958 15.4121V15.4158Z" fill="#F4F3EF"/>
<path d="M44.5584 20.7285C45.4778 20.4833 46.181 19.7339 46.4668 18.8377C46.7488 17.9552 46.5438 17.0192 45.9475 16.3159C45.5946 15.9002 45.1188 15.5803 44.5957 15.4172C44.1373 15.1147 43.4788 15.167 42.9607 15.279C42.4997 15.3786 42.0872 15.5803 41.717 15.8466C41.7195 15.8392 41.722 15.8317 41.7245 15.8242C41.835 15.4969 41.9878 15.1645 41.9965 14.8123C42.0015 14.5857 41.9071 14.226 41.6412 14.175C41.5008 14.1476 41.3803 14.0679 41.3517 13.9173C41.3269 13.7891 41.3952 13.6161 41.5269 13.57C42.2823 13.3049 43.0402 13.453 43.6266 13.9422C43.7919 13.4879 43.7409 12.9775 43.4962 12.5506C43.403 12.3888 43.5608 12.1784 43.7372 12.1958C44.7436 12.2967 45.6567 13.0223 45.9475 13.992C46.5786 13.7094 47.2918 13.6895 47.9267 14.0119C48.1105 14.1053 48.1491 14.353 47.9503 14.46C47.7192 14.5845 47.5378 14.7612 47.4098 14.9766C47.9354 15.0251 48.4373 15.228 48.8548 15.5591C49.0212 15.691 48.9753 15.9599 48.7591 16.0072C48.0049 16.1715 47.7627 17.0067 47.5117 17.6391C47.4881 17.8718 47.4533 18.1021 47.3961 18.3311C47.221 19.0431 46.8184 19.7165 46.2606 20.192C45.6033 20.7509 44.7224 20.9998 43.8975 20.8803C43.9037 20.8629 43.9111 20.8467 43.9173 20.8293C44.1323 20.8131 44.346 20.7845 44.5572 20.7285H44.5584Z" fill="#EAE9E5"/>
<path d="M51.3322 133.633C51.3881 132.303 51.4589 130.972 51.5235 129.641C51.6651 126.699 51.8254 123.758 52.0068 120.818C52.0615 119.933 52.1074 119.046 52.1658 118.161C52.2342 117.116 52.3062 116.07 52.3795 115.025C52.4441 114.093 52.5125 113.164 52.5808 112.234C52.7299 110.202 52.8889 108.172 53.0591 106.142C53.2579 103.766 53.4729 101.39 53.7077 99.0173C53.7325 98.7683 53.7599 98.5206 53.7847 98.2717C53.8456 97.668 53.9077 97.0655 53.9711 96.4618C53.9935 96.2453 54.0146 96.0287 54.0382 95.8121C54.0655 95.5582 54.0941 95.3055 54.1214 95.0528C54.1301 94.9719 54.1401 94.891 54.1488 94.8088C54.1898 94.4379 54.232 94.0682 54.2742 93.6985C54.4569 92.0754 54.6495 90.4548 54.8545 88.8354C54.8843 88.6038 54.9104 88.3723 54.9402 88.142C55.6297 82.8034 56.4721 77.4797 57.5406 72.202C58.0674 69.5993 58.6526 67.009 59.3036 64.4336C59.7186 62.7906 60.1547 61.1538 60.6268 59.5256C60.6516 59.4422 60.6728 59.3576 60.6964 59.2742C60.7622 59.0477 60.8343 58.8211 60.9026 58.5946C60.997 58.2797 61.0927 57.9648 61.1884 57.6498C62.9116 52.0373 65.0287 46.5281 67.5906 41.2418C67.5446 41.2144 67.5123 41.1683 67.5148 41.1049C67.5285 40.5622 67.6788 39.5166 66.9495 39.3635C66.4116 39.2502 65.8947 39.4456 65.4362 39.7294C65.189 39.8825 64.9579 40.0605 64.7504 40.231C64.4013 40.5198 63.9155 39.9684 64.2236 39.641C64.2907 39.5689 64.3715 39.5004 64.4535 39.4319C64.5914 39.3162 64.7455 39.2066 64.9144 39.1058C65.6686 38.6614 66.67 38.4162 67.3869 38.766C67.9658 39.0473 68.136 39.6224 68.0975 40.2074C68.4889 39.4232 68.8927 38.6453 69.3027 37.871C69.7835 36.9661 70.2755 36.0674 70.7837 35.1787C70.847 35.0679 70.9154 34.9584 70.98 34.8476C72.0323 33.0216 73.1455 31.2242 74.3209 29.4654C77.7823 24.2848 81.7817 19.4453 86.4023 15.2879C87.1353 14.6281 87.8845 13.9859 88.6461 13.3585C88.7939 13.2378 89.0126 13.4793 88.871 13.61C86.1587 16.0957 83.6155 18.7544 81.2561 21.5638C81.886 21.0335 82.5594 20.5593 83.2875 20.1759C84.182 19.7054 85.171 19.3183 86.1824 19.2212C86.57 19.1839 86.9551 19.1727 87.3428 19.1689C87.5205 19.1664 87.6969 19.164 87.8758 19.1652C88.3442 19.1677 88.8499 19.1453 89.2897 19.327C89.3928 19.3693 89.3406 19.5025 89.2524 19.5187C88.7852 19.6083 88.2945 19.5311 87.8199 19.571C87.6348 19.5859 87.4496 19.6233 87.2645 19.6569C87.2434 19.6606 87.2223 19.6631 87.2011 19.6668C86.8744 19.7291 86.5514 19.8075 86.2395 19.9071C85.2779 20.2145 84.3647 20.5469 83.4751 21.0323C82.0898 21.7891 80.7281 22.6803 79.513 23.7122C78.4718 25.0366 77.4729 26.3946 76.5113 27.78C76.843 27.5335 77.1959 27.3145 77.5723 27.1377C78.5377 26.6834 79.6186 26.5241 80.6684 26.7419C81.2288 26.8576 81.8152 27.0829 82.2911 27.4377C82.5992 27.6667 82.8601 27.948 83.034 28.2916C83.1434 28.5082 82.8365 28.6513 82.6799 28.5343C82.3569 28.2928 82.0413 28.0775 81.7146 27.8945C81.6202 27.841 81.522 27.7912 81.4251 27.7451C81.0698 27.5783 80.6945 27.4539 80.2597 27.4091C79.2819 27.3107 78.3116 27.602 77.4506 28.0501C76.5572 28.5144 75.7931 29.1865 75.1458 29.9521C75.0899 30.018 75.0415 30.0877 74.9881 30.1549C74.8601 30.3155 74.7309 30.4761 74.6091 30.6416C74.0774 31.4781 73.5593 32.3233 73.0573 33.1772C72.6461 33.8767 72.2435 34.58 71.8509 35.2895C71.1887 36.4832 70.5575 37.6943 69.945 38.9129C69.4605 39.8775 68.9859 40.8472 68.5324 41.8268C69.2008 41.1447 70.0432 40.5522 70.9775 40.3244C71.667 40.1564 72.4808 40.1302 73.1145 40.4738C73.2785 40.5634 73.4338 40.6717 73.568 40.8148C73.6624 40.9169 73.599 41.1123 73.44 41.0762C73.1555 41.0115 72.8759 40.958 72.5989 40.9219C72.5864 40.9206 72.574 40.9181 72.5616 40.9169C71.9938 40.8472 71.4335 40.8634 70.8594 41.0787C69.9835 41.4061 69.2207 41.9936 68.5547 42.6421C68.2951 42.8948 68.0454 43.1574 67.8068 43.4288C66.1233 47.2252 64.6709 51.1237 63.4098 55.0807C64.077 54.6774 64.8871 54.6388 65.6114 54.899C65.6363 54.9077 65.6624 54.9139 65.6872 54.9226C66.0214 55.0533 66.3358 55.2425 66.6041 55.4977C66.7482 55.6346 66.5967 55.8487 66.4178 55.779C66.0835 55.6483 65.7257 55.5213 65.3617 55.4392C65.2859 55.4218 65.2101 55.4043 65.1343 55.3919C64.9629 55.3645 64.7902 55.3496 64.6187 55.3558C63.9404 55.3844 63.4397 55.7815 63.0769 56.3292C63.0234 56.4101 62.9812 56.4985 62.9303 56.5819C62.9203 56.6167 62.9079 56.6503 62.898 56.6852C61.2567 62.0898 59.9323 67.5766 58.8526 73.1131C59.5608 72.8069 60.3497 73.0273 60.8194 73.5961C60.9498 73.7554 61.0616 73.9359 61.1325 74.1463C61.2319 74.4388 60.8529 74.6056 60.6703 74.3815C60.5299 74.211 60.3733 74.0342 60.1932 73.8961C60.0391 73.7791 59.8689 73.6895 59.6689 73.6695C59.2837 73.6297 58.9197 73.8625 58.6675 74.1326C58.6625 74.1376 58.6588 74.1425 58.6538 74.1475C57.9581 77.822 57.3679 81.5176 56.861 85.2269C56.7082 86.3484 56.5628 87.4711 56.4212 88.5951C56.1727 90.568 55.9453 92.5434 55.7291 94.5201C55.6645 95.1163 55.5962 95.7138 55.5341 96.31C55.1775 99.723 54.8644 103.141 54.5811 106.56C54.4407 108.244 54.3078 109.929 54.1811 111.614C54.1003 112.681 54.022 113.749 53.9462 114.815C53.9326 115.002 53.9226 115.19 53.9102 115.377C53.5462 120.561 53.2542 125.749 53.0231 130.941C53.0132 131.167 53.0045 131.394 52.9945 131.621C52.8206 135.627 52.6765 139.635 52.5796 143.645H50.9893C51.0141 142.874 51.0414 142.105 51.0638 141.337C51.1383 138.769 51.2303 136.201 51.3359 133.633H51.3322Z" fill="#8BAF3C"/>
<path d="M71.3479 56.9453C71.1206 58.0345 70.4124 58.9444 69.4719 59.5207C68.6755 60.0086 67.5374 60.2227 66.705 59.6974C66.1918 59.3738 65.7806 58.8187 65.4588 58.3145C65.1383 57.8129 64.9507 57.2478 64.9966 56.6479C65.0302 56.2072 65.1656 55.8077 65.3582 55.438C65.7222 55.5189 66.0813 55.6458 66.4142 55.7778C66.5932 55.8475 66.7447 55.6334 66.6006 55.4965C66.3322 55.2426 66.0179 55.0521 65.6837 54.9214C65.7471 54.8368 65.8067 54.7496 65.875 54.6687C65.8986 54.6513 65.9235 54.6326 65.9471 54.6164C67.0019 53.8845 68.5637 53.897 68.7724 53.9244C69.5663 54.0264 70.3055 54.3912 70.9504 54.8617C71.3355 55.4728 71.497 56.2259 71.3467 56.9441L71.3479 56.9453Z" fill="#F4F3EF"/>
<path d="M64.9963 56.6477C64.9504 57.2477 65.138 57.8128 65.4585 58.3144C65.7803 58.8186 66.1916 59.3737 66.7047 59.6973C67.5371 60.2226 68.6752 60.0085 69.4716 59.5206C70.4121 58.9443 71.1203 58.0356 71.3477 56.9452C71.498 56.227 71.3365 55.474 70.9513 54.8628C71.0768 54.9537 71.1986 55.0495 71.3166 55.1466C71.9751 55.6955 72.8547 56.7199 73.8089 56.2183C74.086 56.0727 74.3183 56.3876 74.3059 56.6291C74.2661 57.4083 73.7493 58.0443 73.0597 58.3231C73.461 58.6592 73.9456 58.9107 74.4388 59.0575C74.5941 59.1036 74.7519 59.243 74.7047 59.4285C74.5246 60.1429 73.9791 60.6881 73.2722 60.8973C72.7702 61.0466 72.2869 61.0255 71.8123 60.9172C72.1304 61.7101 72.0223 62.6523 71.4272 63.3257C71.2942 63.4763 71.0072 63.4639 70.9426 63.2461C70.7761 62.6822 70.355 62.1943 69.8133 61.9665C69.7201 62.7245 69.1983 63.3768 68.4764 63.6693C68.3161 63.734 68.095 63.6406 68.0453 63.4701C67.9682 63.2087 67.8614 62.9735 67.7198 62.7569C67.2588 63.3369 66.5742 63.7128 65.8139 63.7415C65.5207 63.7527 65.343 63.4328 65.5194 63.1938C66.0922 62.4183 65.7045 61.3491 65.2784 60.5998C64.7404 59.6563 64.072 58.7103 64.1068 57.5738C64.1192 57.1593 64.4783 56.1934 65.1305 55.3893C65.2063 55.4018 65.2821 55.4192 65.3579 55.4366C65.1653 55.8063 65.0299 56.2059 64.9963 56.6465V56.6477Z" fill="#EAE9E5"/>
<path d="M65.6089 54.8977C65.6959 54.8193 65.7816 54.7384 65.8772 54.6699C65.8077 54.7508 65.748 54.838 65.6859 54.9226C65.6611 54.9126 65.635 54.9077 65.6101 54.899L65.6089 54.8977Z" fill="#EAE9E5"/>
<path d="M7.7838 28.9401C8.16895 28.9078 8.56529 28.9115 8.96535 28.9289C9.76175 28.9638 10.5693 29.0746 11.3222 29.2165C12.1659 29.3758 13.094 29.5899 13.8618 30.0318C16.9442 31.0774 19.8068 32.6096 22.3625 34.5564C23.1912 35.1875 23.9901 35.8571 24.7517 36.5728C24.8138 36.6314 24.8722 36.6936 24.9331 36.7521C26.1531 37.9197 27.2813 39.1943 28.3025 40.566C28.6281 41.0029 28.9461 41.4472 29.2493 41.9028C29.5413 42.3409 29.8258 42.7841 30.1053 43.2322C31.2744 45.1067 32.3355 47.0597 33.3294 49.0413C33.435 49.2529 33.5394 49.4658 33.6438 49.6774C34.0848 50.5724 34.5135 51.4711 34.9322 52.3722C35.0576 52.6423 35.1844 52.9125 35.3074 53.1826C35.5844 53.7863 35.8453 54.3987 36.1112 55.0073C36.4541 55.794 36.7884 56.5844 37.1126 57.3798C37.991 59.527 38.8023 61.7003 39.5515 63.896C39.631 64.1275 39.713 64.3578 39.7901 64.5905C39.8485 64.766 39.9118 64.9391 39.9702 65.1133C40.3541 66.2796 40.7157 67.4522 41.066 68.6284C41.2089 69.1089 41.3456 69.5919 41.4823 70.0736C42.6626 74.2086 43.6428 78.3983 44.4442 82.6242C44.6728 83.8316 44.889 85.0402 45.0903 86.2526C45.3077 87.5646 45.5139 88.879 45.6978 90.1959C45.7873 90.832 45.8643 91.4693 45.9463 92.1066C45.7848 92.2161 45.6369 92.3406 45.5115 92.485C45.2046 92.836 45.0132 93.2804 44.9076 93.7471C44.4057 89.525 43.7646 85.3153 42.9558 81.138C42.7595 80.7571 42.5259 80.4036 42.2215 80.0974C41.7668 79.6393 41.0847 79.2074 40.4138 79.2834C40.1218 79.317 39.8721 79.4452 39.6435 79.6269C39.6211 79.6443 39.6037 79.6655 39.5826 79.6842C39.3676 79.8758 39.2335 80.1061 39.0322 80.3078C38.9042 80.436 38.7253 80.3924 38.6495 80.2356C38.4718 79.8659 38.5948 79.4887 38.8384 79.1738C38.8483 79.1614 38.8595 79.1514 38.8694 79.139C39.1117 78.8402 39.4558 78.6 39.7466 78.4842C40.5703 78.1556 41.4885 78.3722 42.1805 78.8925C42.3283 79.0045 42.4576 79.139 42.5843 79.2746C41.8935 75.9226 41.0959 72.5942 40.1653 69.3031C39.7304 67.7646 39.2583 66.2336 38.7663 64.71C38.2445 64.0416 37.8457 63.2475 37.3301 62.5915C37.0766 62.2691 36.6765 61.8235 36.2193 61.9069C35.9708 61.9517 35.7981 62.1434 35.6329 62.3201C35.5869 62.3687 35.5335 62.4172 35.4826 62.4645C35.3496 62.589 35.2129 62.7135 35.116 62.8579C35.0191 63.001 34.757 62.8728 34.8092 62.7073C34.8762 62.4969 34.9259 62.3015 34.9918 62.1197C35.0974 61.8272 35.244 61.5721 35.5708 61.3542C36.0665 61.0244 36.6902 61.0493 37.1673 61.3965C37.5114 61.648 37.7612 62.0065 37.9885 62.3749C37.3474 60.5165 36.6641 58.6731 35.9273 56.8495C35.485 55.7542 35.0216 54.6688 34.5433 53.5896C33.3655 50.9321 32.0833 48.3219 30.6681 45.7851C30.5041 45.4901 30.3339 45.2001 30.165 44.9088C29.9426 44.6636 29.7388 44.401 29.5015 44.1657C29.4369 44.1022 29.3735 44.0363 29.3015 43.9778C29.1611 43.8645 29.0095 43.7699 28.8517 43.684C28.4603 43.4724 28.023 43.3442 27.5757 43.3268C26.9843 43.3031 26.3805 43.4973 25.9742 43.9417C25.6574 44.2877 25.5406 44.6686 25.4835 45.0893C25.4648 45.2275 25.4512 45.3694 25.44 45.5163C25.4214 45.7415 25.1207 45.7042 25.0449 45.5449C25.03 45.5125 25.0213 45.4789 25.0101 45.4465C24.9865 45.3831 24.9666 45.3208 24.9542 45.2549C24.8449 44.7171 25.0673 44.1184 25.3791 43.6915C25.8152 43.0952 26.5035 42.7492 27.2303 42.6758C27.3993 42.6583 27.5658 42.6608 27.7323 42.6733C28.2007 42.7081 28.6492 42.86 29.0604 43.0915C28.5548 42.3011 28.0267 41.5281 27.4676 40.7788C26.5383 39.5328 25.5257 38.3516 24.4137 37.2525C24.2125 37.0533 24.005 36.8604 23.7975 36.6674C23.5403 36.4733 23.2856 36.2766 23.0309 36.0799C22.8855 35.9692 22.7402 35.8571 22.5923 35.7501C22.4283 35.6318 22.2594 35.5198 22.0879 35.4103C22.0568 35.3904 22.027 35.3679 21.996 35.348C21.1934 34.8501 20.3609 34.3995 19.5136 33.9838C18.711 33.5905 17.8363 33.2843 16.9281 33.3764C16.3181 33.4386 15.8621 33.6714 15.4546 34.0211C15.2694 34.1805 15.0905 34.356 14.9191 34.5638C14.8346 34.6659 14.6569 34.58 14.6867 34.4493C14.7327 34.244 14.8247 34.0585 14.9452 33.8892C15.2794 33.4199 15.8447 33.0901 16.369 32.9245C17.2946 32.632 18.2438 32.7901 19.1334 33.1287C19.2142 33.1598 19.2912 33.2009 19.3707 33.2345C17.7034 32.1615 15.9391 31.2441 14.0904 30.5272C14.0842 30.5247 14.078 30.5234 14.073 30.521C13.1014 30.2123 12.1671 29.8413 11.1545 29.6509C10.4376 29.5152 9.7046 29.4542 8.97902 29.3621C8.57274 29.3111 8.16771 29.2526 7.77013 29.1605C7.64962 29.1318 7.65707 28.9514 7.7838 28.9401Z" fill="#8BAF3C"/>
<path d="M50.3756 45.2759C50.0252 45.48 49.6376 45.3593 49.2611 45.2385C49.1058 45.1887 48.953 45.139 48.8051 45.1116C48.1466 44.9883 47.6385 45.3244 47.3204 45.8895C46.9812 46.4932 46.9328 47.1442 46.9601 47.8251C46.9874 48.5346 47.185 49.3897 46.9825 50.0805C47.303 52.5526 47.5938 55.0284 47.8534 57.5079C48.3255 62.0101 48.7169 66.5172 49.0561 71.0306C48.3665 70.7991 48.3119 69.756 48.2945 69.1673C48.2858 68.8909 48.2659 68.6196 48.2286 68.3545C48.1479 67.7918 47.9839 67.2566 47.6683 66.7512C47.5478 66.5583 47.4074 66.3704 47.2533 66.1924C47.1341 64.5194 47.016 62.8465 46.8831 61.1748C46.5675 57.1967 46.1923 53.2235 45.7289 49.2603C45.4928 48.6304 45.2282 48.0093 44.9176 47.4031C44.4019 46.3961 43.7012 45.5086 42.8228 44.7942C42.7135 44.7058 42.4501 44.5489 42.1805 44.3585C41.6649 43.9963 41.1244 43.5121 41.5717 43.1324C41.6189 43.0926 41.6872 43.1187 41.722 43.1611C41.8848 43.3602 42.0028 43.5382 42.2277 43.6839C42.347 43.761 42.4687 43.8332 42.5905 43.9067C42.6799 43.9602 42.7694 44.0112 42.8551 44.0685C43.2751 44.3473 43.6677 44.661 44.0255 45.0157C44.592 45.5759 45.0517 46.2094 45.4406 46.894C44.9834 43.2818 44.4442 39.6796 43.7932 36.0947C43.5596 35.3006 43.321 34.5077 43.0502 33.7248C42.8489 33.141 42.6302 32.5622 42.378 31.9921C41.6276 30.2905 40.62 28.7782 39.344 27.4525C39.1701 27.2721 39.0073 27.0829 38.8222 26.9086C38.5973 26.6982 38.893 26.3559 39.134 26.5476C39.339 26.7107 39.5366 26.8825 39.7279 27.0629C41.0573 28.3176 42.0339 29.9545 42.7595 31.6124C42.8837 31.8975 42.9881 32.1937 43.1011 32.485C41.5642 24.9145 39.513 17.4125 36.7548 10.203C36.5585 9.69146 36.3498 9.18485 36.146 8.677C36.2839 8.72679 36.4218 8.75915 36.5597 8.77534C38.8334 14.0729 40.6958 19.5186 42.2028 25.0739C42.2053 25.0141 42.2053 24.9531 42.2091 24.8934C42.2625 24.047 42.4066 23.2093 42.6762 22.4052C42.8663 21.84 43.1247 21.2998 43.3881 20.7634C43.5509 20.431 43.7149 20.0987 43.8665 19.7638C43.9435 19.5933 44.1671 19.6991 44.1547 19.8622C44.1274 20.1995 44.0342 20.5206 43.9149 20.8355C43.9087 20.853 43.9012 20.8692 43.895 20.8866C43.7124 21.3546 43.4751 21.8064 43.3012 22.2707C42.9744 23.1483 42.8129 24.0818 42.7657 25.0154C42.7222 25.8468 42.7706 26.6733 42.8328 27.5023C43.1893 28.9163 43.531 30.3353 43.8453 31.7618C43.9224 32.1128 43.9919 32.4651 44.0677 32.8173C43.8515 33.543 43.8851 34.3272 44.2814 35.0106C44.3771 35.1749 44.4926 35.3267 44.6169 35.4711C44.6865 35.8234 44.7523 36.1756 44.8206 36.5279C44.9822 37.3693 45.14 38.2108 45.2915 39.0535C45.3835 38.6514 45.4965 38.2556 45.632 37.8672C45.6916 37.6942 45.7425 37.5175 45.8121 37.3482C45.9227 37.0793 46.0531 36.8192 46.1836 36.5603C46.2283 36.4719 46.2631 36.3785 46.3103 36.2914C46.3215 36.2702 46.3339 36.2478 46.3451 36.2267C46.483 35.9678 46.6321 35.7026 46.9204 35.6055C47.021 35.5719 47.1092 35.6404 47.1241 35.74C47.1452 35.8806 47.1154 36.0126 47.0682 36.1408C47.0135 36.2864 46.9328 36.4258 46.862 36.564C46.8309 36.625 46.8073 36.691 46.7775 36.7532C46.6495 37.0183 46.524 37.2847 46.4159 37.5598C46.2805 37.9046 46.1625 38.2556 46.0593 38.6116C45.96 38.9526 45.8755 39.2974 45.8071 39.6472C45.7202 40.1003 45.6705 40.5608 45.6357 41.0251C45.9165 42.6843 46.1737 44.3473 46.4172 46.0128C46.5079 45.7426 46.6259 45.4813 46.7936 45.2398C47.1552 44.722 47.718 44.3162 48.3653 44.2963C48.6635 44.2863 48.948 44.3585 49.2275 44.4531C49.281 44.4705 49.3344 44.488 49.3866 44.5079C49.563 44.5726 49.763 44.6348 49.9531 44.712C50.1146 44.7792 50.27 44.8564 50.3917 44.9634C50.4836 45.0444 50.4886 45.2174 50.3743 45.2846L50.3756 45.2759Z" fill="#82A02E"/>
</g>
<defs>
<clipPath id="clip0_3_173315">
<rect width="99.1267" height="143.645" fill="white" transform="translate(0.456055)"/>
</clipPath>
</defs>
</svg>
