<svg width="104" height="100" viewBox="0 0 104 100" fill="none" xmlns="http://www.w3.org/2000/svg">
<g clip-path="url(#clip0_68_192807)">
<path d="M100.731 48.0181C103.498 46.6771 104.804 42.9453 103.478 40.1685C102.549 38.222 100.442 36.9927 98.3081 36.8817C99.0753 36.3866 99.6895 35.624 99.9621 34.7509C100.518 32.9772 99.8485 30.9738 98.5875 29.6091C96.1691 26.9921 91.2511 25.8759 88.6142 28.2721C89.5152 26.2722 90.4292 24.2281 90.6517 22.0446C90.8743 19.8617 90.2898 17.4757 88.6223 16.0514C86.9548 14.6271 84.0973 14.5783 82.7416 16.3027C83.9911 13.8611 82.2552 10.6766 79.7178 9.641C77.1803 8.60545 74.2457 9.25224 71.7813 10.4524C73.325 7.87467 71.9903 4.08532 69.2215 2.92311C66.4526 1.76091 62.9099 3.34099 61.7903 6.13001C62.2179 3.20012 59.7568 0.178119 56.804 0.00744623C53.8511 -0.163227 51.0593 2.55603 51.1479 5.51572C48.0936 3.99998 45.2862 1.02336 41.8788 1.12766C38.0823 1.24347 35.4434 6.23837 37.483 9.44594C34.2332 7.35791 29.8313 6.63458 26.5193 8.6217C23.2072 10.6088 21.93 15.771 24.6461 18.5194C21.9916 18.4666 19.1503 18.5621 16.9795 20.0927C14.8087 21.6233 13.8488 25.1194 15.7618 26.9623C12.5039 27.3429 9.21012 28.2755 6.65708 30.3358C4.10337 32.3967 2.42502 35.752 3.01626 38.9819C3.60751 42.2118 6.88235 44.9155 10.099 44.2768C7.20503 45.1376 5.8311 49.032 6.53802 51.97C7.24562 54.908 10.4609 56.994 13.428 56.4407C12.7745 57.4004 12.1041 58.4021 11.9221 59.5494C11.7402 60.6967 12.1975 62.0336 13.2636 62.4921C14.4163 62.9879 16.3497 62.7603 16.391 64.0153C14.0781 65.6746 12.3497 68.1352 11.5717 70.8754C11.0299 72.784 10.9724 74.9438 11.9871 76.6478C13.2555 78.7772 15.9438 79.7159 18.4164 79.5798C20.8889 79.4436 23.2153 78.423 25.4781 77.4172C22.7425 78.5679 21.3949 82.0369 22.2473 84.8828C23.0996 87.728 25.8008 89.7991 28.7171 90.3437C31.6341 90.8882 34.6905 90.0606 37.2327 88.5286C36.981 91.0108 37.9153 92.3024 39.4164 94.2935C40.9175 96.2847 43.6004 97.4693 45.9938 96.7757C48.3872 96.0822 50.073 93.2519 49.1591 90.9309C51.5869 94.3281 57.6631 93.8967 59.587 90.1899C60.6931 92.5848 63.4531 94.0951 66.0636 93.7341C68.6742 93.3731 70.9221 91.17 71.3382 88.5645C71.1109 90.7873 73.233 92.6315 75.4018 93.1584C79.1522 94.07 83.2206 92.1784 85.5774 89.1192C87.9343 86.0599 88.7704 82.0443 88.6581 78.1825C91.1888 81.4219 96.3991 81.7267 98.5544 78.2259C100.346 75.3156 99.0441 71.1409 96.2408 69.3495C97.1148 69.3658 98.0281 69.0346 98.6775 68.4365C99.8512 67.3556 100.289 65.6739 100.321 64.0776C100.347 62.8009 100.139 61.4958 99.5346 60.3729C100.832 59.3902 101.785 57.9571 101.947 56.3262C102.307 52.6967 99.2309 49.3415 95.6638 48.6628C97.4091 48.7969 99.1754 48.7705 100.731 48.0167L100.731 48.0181Z" fill="#8F9B18"/>
<g style="mix-blend-mode:overlay" opacity="0.2">
<path d="M80.3076 45.6443C80.1473 45.4573 79.9829 45.2731 79.8145 45.0936C79.9612 45.2941 80.1283 45.4756 80.3076 45.6443Z" fill="#002854"/>
</g>
<g style="mix-blend-mode:overlay" opacity="0.2">
<path d="M100.731 48.0181C103.498 46.6771 104.804 42.9453 103.478 40.1685C102.549 38.222 100.442 36.9927 98.3079 36.8817C99.075 36.3866 99.6893 35.624 99.9619 34.7509C100.466 33.1404 99.9592 31.3422 98.9181 30.0033C97.8567 32.6216 94.9891 34.6216 92.4347 33.5271C94.1009 34.8945 94.4154 37.628 93.1037 39.3395C91.792 41.0503 89.0733 41.4533 87.3232 40.1956C88.455 42.163 87.7839 44.9636 85.8837 46.203C84.1911 47.3069 81.7646 47.0144 80.3067 45.6442C82.529 48.2341 83.976 51.5758 83.7771 54.9723C83.5633 58.6147 81.197 62.2029 77.7138 63.2757C74.2306 64.3492 69.9275 62.3411 69.0041 58.8111C69.4499 60.6702 69.2645 62.8206 67.9522 64.209C66.6398 65.5974 64.0198 65.7227 62.9705 64.125C63.298 66.7163 61.533 69.4139 59.0294 70.1487C56.5257 70.8835 53.585 69.5669 52.4634 67.2087C53.3178 72.5537 49.3834 78.4832 43.9939 78.9241C38.605 79.3644 33.6113 73.0955 35.9154 68.1982C32.7291 69.3556 28.8867 66.1264 29.4725 62.784C27.1177 64.8836 23 63.0515 21.8973 60.0939C20.7946 57.1362 21.8574 53.8128 23.3274 51.0198C21.1613 52.608 18.2105 53.6036 15.8097 51.5778C14.4702 50.4475 13.8059 48.7285 13.7998 46.9744C13.7877 43.458 15.9159 40.5965 17.9683 37.9057C17.9548 37.9043 17.9406 37.903 17.927 37.9016C15.3666 37.6551 13.7153 35.0456 14.617 32.6338C14.6339 32.5884 14.6508 32.5437 14.6684 32.4983C10.9816 32.0757 10.2124 30.2816 10.5331 28.1685C9.13549 28.6934 7.8177 29.3964 6.65415 30.3351C4.10044 32.3961 2.42209 35.7513 3.01333 38.9812C3.60458 42.2111 6.87942 44.9148 10.0961 44.2761C7.2021 45.137 5.82817 49.0313 6.53509 51.9693C7.24269 54.9073 10.458 56.9933 13.4251 56.44C12.7716 57.3997 12.1012 58.4014 11.9192 59.5487C11.7372 60.696 12.1945 62.0329 13.2607 62.4914C14.4134 62.9872 16.3468 62.7596 16.388 64.0146C14.0752 65.6739 12.3467 68.1345 11.5688 70.8747C11.0269 72.7833 10.9694 74.9431 11.9841 76.6471C13.2526 78.7765 15.9409 79.7152 18.4134 79.5791C20.886 79.4429 23.2124 78.4223 25.4752 77.4165C22.7395 78.5672 21.392 82.0362 22.2443 84.8821C23.0967 87.7274 25.7979 89.7985 28.7142 90.343C31.6312 90.8875 34.6875 90.0599 37.2298 88.5279C36.9781 91.0101 37.9123 92.3017 39.4134 94.2929C40.9146 96.284 43.5975 97.4686 45.9909 96.7751C48.3843 96.0815 50.07 93.2512 49.1561 90.9302C51.584 94.3274 57.6602 93.896 59.5841 90.1893C60.6901 92.5841 63.4502 94.0944 66.0607 93.7334C68.6713 93.3724 70.9192 91.1693 71.3352 88.5638C71.1079 90.7866 73.2301 92.6308 75.3989 93.1577C79.1493 94.0694 83.2176 92.1777 85.5745 89.1185C87.9314 86.0592 88.7675 82.0437 88.6552 78.1818C91.1859 81.4213 96.3962 81.726 98.5514 78.2252C100.343 75.3149 99.0412 71.1402 96.2379 69.3488C97.1119 69.3651 98.0251 69.0339 98.6746 68.4359C99.8483 67.3549 100.286 65.6733 100.318 64.0769C100.344 62.8003 100.136 61.4952 99.5317 60.3722C100.829 59.3895 101.782 57.9564 101.944 56.3255C102.304 52.696 99.2279 49.3408 95.6608 48.6622C97.4062 48.7963 99.1725 48.7699 100.728 48.016L100.731 48.0181Z" fill="#002854"/>
</g>
<path d="M49.9027 17.4073C51.7305 19.0205 53.9731 17.8021 54.1895 15.4899C54.4006 13.2332 52.8731 10.9007 51.232 9.48315C50.5988 8.93659 49.5523 8.82145 48.8636 9.33009C48.1154 9.88274 48.106 11.0544 48.0674 11.9031C47.9801 13.8353 48.3833 16.0669 49.902 17.4073H49.9027Z" fill="#A6AD14"/>
<path d="M59.8355 16.1069C61.2304 15.196 62.4231 12.9935 62.3114 11.3315C62.2052 9.7426 60.5607 8.74633 59.1414 9.51029C57.6633 10.3061 56.4673 12.5052 56.4423 14.1632C56.4125 16.1618 58.097 17.2414 59.8355 16.1069Z" fill="#A6AD14"/>
<path d="M61.3177 18.2153C62.0937 19.6667 64.0257 18.8526 64.876 17.941C65.6513 17.1099 66.4069 15.261 66.1187 14.2776C65.7595 13.0517 64.0555 12.6569 63.153 13.519C61.9733 14.6467 60.349 16.4029 61.3171 18.2146L61.3177 18.2153Z" fill="#A6AD14"/>
<path d="M42.1167 46.5294C42.848 45.7729 43.7119 44.7963 43.6043 43.6686C43.5109 42.6913 42.7546 41.7946 41.7108 41.8982C39.2843 42.1393 36.7806 43.7248 35.201 45.5528C34.5246 46.335 33.8102 47.4166 34.0253 48.505C34.2377 49.5771 35.1496 50.0478 36.1731 50.0004C38.3744 49.8975 40.665 48.0302 42.1167 46.5287V46.5294Z" fill="#A6AD14"/>
<path d="M41.4028 49.3801C40.9536 49.905 40.5037 50.4983 40.2703 51.158C40.1743 51.4282 40.0985 51.7018 40.089 51.991C40.0809 52.2443 40.2676 52.5931 40.1959 52.8322C40.133 52.8159 40.0978 52.7679 40.0917 52.6873C39.9761 54.2653 41.9669 55.3191 43.2651 54.5105C43.1061 54.6094 43.6879 54.2897 43.8056 54.2111C44.2832 53.8921 44.6282 53.4661 44.9299 52.9744C45.7207 51.6856 46.2119 50.0967 45.6551 48.6243C45.5462 48.3364 45.3521 48.05 45.0876 47.8861C44.982 47.7987 44.8609 47.7425 44.7243 47.7161C44.4023 47.6714 44.3617 47.689 44.6025 47.7702C44.4368 47.8265 44.0965 47.7106 43.8915 47.7337C43.5689 47.7702 43.2523 47.8915 42.9654 48.0384C42.3471 48.3554 41.8499 48.8566 41.4028 49.3788V49.3801Z" fill="#A6AD14"/>
<path d="M49.3575 48.1265C46.6902 46.6107 45.1606 52.4901 48.4822 53.1742C51.6319 53.823 52.0181 49.0977 49.3575 48.1265Z" fill="#A6AD14"/>
<path d="M75.3737 31.9518C75.2695 31.0063 74.6404 30.0886 73.6595 29.9179C70.8399 29.4276 68.2679 30.9061 66.5415 33.0571C65.8901 33.8692 64.7143 34.9684 65.0242 36.1082C65.2569 36.965 66.1816 37.6578 67.0692 37.605C67.6043 37.5732 67.9919 37.2413 68.4505 36.9988C69.0736 36.6697 69.7426 36.4401 70.3941 36.176C71.6104 35.6829 72.9086 35.198 73.9957 34.4503C74.8873 33.8373 75.4988 33.0896 75.3737 31.9518Z" fill="#A6AD14"/>
<path d="M74.5261 43.7194C76.1023 43.6361 79.6146 42.7793 78.5024 40.438C77.531 37.5575 72.6286 38.3561 71.3635 40.5701C70.0329 42.8985 72.6671 43.8176 74.5261 43.7194Z" fill="#A6AD14"/>
<path d="M75.986 51.1545C77.7827 50.7035 77.784 48.6615 76.6861 47.4803C75.7884 46.5139 74.3516 45.5413 73.0223 46.1691C71.8249 46.734 71.4359 48.2572 72.1787 49.3476C72.8897 50.3913 74.702 51.4769 75.9853 51.1545H75.986Z" fill="#A6AD14"/>
<path d="M51.6339 70.4853C51.4681 69.5926 50.8092 68.8869 49.85 68.9912C47.5073 69.2459 45.3406 70.7054 44.1249 72.7182C43.2076 74.2367 42.617 77.8256 45.4603 77.4585C47.554 77.1883 49.5719 74.9248 50.6848 73.3054C51.2537 72.4771 51.8287 71.5296 51.6345 70.4846L51.6339 70.4853Z" fill="#A6AD14"/>
<path d="M54.7278 73.1619C51.3251 72.2598 49.0447 78.4832 52.3987 79.7423C55.5883 80.9397 57.7375 73.9597 54.7278 73.1619Z" fill="#A6AD14"/>
<path d="M59.6688 73.4159C58.213 73.613 57.935 75.0461 58.0155 76.2652C58.1075 77.6509 58.8861 79.2696 60.5449 79.0901C61.9384 78.9391 62.6413 77.3894 62.324 76.1412C62.0088 74.9018 61.2193 73.2059 59.6688 73.4166V73.4159Z" fill="#A6AD14"/>
<path d="M64.0241 75.7037C64.2135 76.6065 64.7486 77.5459 65.7674 77.6393C67.0303 77.7545 67.2996 76.2306 67.4288 75.3027C67.4186 75.3285 67.4132 75.3549 67.4065 75.3813C67.7102 72.6309 63.4179 72.8104 64.0241 75.7044V75.7037Z" fill="#A6AD14"/>
<path d="M28.4928 67.447C29.312 67.2614 29.9878 66.8957 30.3782 66.1114C31.1629 64.5347 30.1455 62.7596 28.3724 62.7366C25.6814 62.7027 22.0791 63.2655 20.8127 66.0139C20.3169 67.0894 20.0449 68.383 21.155 69.1727C22.2009 69.9164 23.6851 69.4436 24.7471 68.9756C26.0243 68.4128 27.1223 67.7572 28.4928 67.4463V67.447Z" fill="#A6AD14"/>
<path d="M30.0004 72.765C31.1991 71.8392 30.8967 69.852 29.1805 69.7342C29.0533 69.7281 28.9254 69.722 28.7983 69.7159C29.2082 69.8243 28.3653 69.6936 28.278 69.6963C27.8377 69.7071 27.3662 69.8392 26.9528 69.9794C25.9293 70.3248 24.964 70.9438 24.4025 71.8927C23.3993 73.5879 24.4363 75.8703 26.5672 75.4761C27.9966 75.212 28.8997 73.6157 30.001 72.765H30.0004Z" fill="#A6AD14"/>
<path d="M32.9776 73.2892C29.8536 71.6366 26.9758 77.663 29.8901 79.1219C31.5441 79.9495 32.7665 78.2855 33.4802 77.0501C34.1905 75.8208 34.5436 74.1175 32.9776 73.2899V73.2892Z" fill="#A6AD14"/>
<path d="M19.0237 35.4824C17.3683 35.2014 15.6636 35.7736 14.6644 37.1939C13.7917 38.4353 14.3194 39.8725 15.8645 40.1258C17.304 40.3622 19.0825 39.4804 19.8611 38.2735C20.4612 37.3436 20.3529 35.708 19.0237 35.4824Z" fill="#A6AD14"/>
<path d="M19.2482 33.6341C20.2047 34.0452 21.5489 34.3121 22.1794 33.1919C22.868 31.9687 21.6808 30.7205 20.5693 30.388C19.4917 30.0656 17.764 30.1848 17.442 31.5082C17.1545 32.688 18.3518 33.2488 19.2482 33.6341Z" fill="#A6AD14"/>
<path d="M26.7278 29.3016C27.7696 28.6636 27.7669 27.2976 27.7337 26.2214C27.6904 24.8052 26.0987 23.9667 24.9432 24.8154C23.9177 25.5685 24.007 27.4086 24.5042 28.4279C24.9121 29.2644 25.8003 29.8692 26.7278 29.3009V29.3016Z" fill="#A6AD14"/>
<path d="M47.4033 34.4096C47.4933 34.4557 48.0359 34.7266 47.7423 34.4909C49.4889 35.8901 50.6735 31.733 51.1166 30.7347C51.7592 29.2874 51.8715 27.2684 49.9848 26.7862C47.883 26.2491 46.2804 28.5085 45.909 30.3134C45.6743 31.4533 45.8941 32.7476 46.5841 33.7005C46.8067 34.0073 47.0678 34.2376 47.4033 34.4096Z" fill="#A6AD14"/>
<path d="M53.4131 30.9094C52.5235 31.7168 51.9458 33.3341 52.8286 34.348C54.5103 36.2802 59.4175 32.9135 57.1601 30.8498C56.0061 29.794 54.555 29.8732 53.4124 30.9094H53.4131Z" fill="#A6AD14"/>
<path d="M76.2524 64.7251C74.2263 64.6749 73.3719 67.3705 73.422 68.9973C73.4748 70.7216 74.1485 72.9208 76.0853 73.2946C77.1291 73.4958 78.0403 73.0345 78.6038 72.1554C79.2032 71.2194 79.0828 70.2821 78.9421 69.2357C78.7229 67.6069 78.4381 64.7799 76.2524 64.7257V64.7251Z" fill="#A6AD14"/>
<path d="M82.4927 66.9093C83.6455 67.5534 85.0897 67.6618 86.1106 66.698C87.013 65.8467 86.9988 64.3113 85.8589 63.6476C85.3664 63.3604 84.9084 63.3489 84.3957 63.1789C84.4782 63.1891 84.5607 63.1992 84.6433 63.21C84.326 63.1491 84.0148 63.0495 83.7158 62.9493C82.7383 62.6215 81.4449 62.1562 80.7447 63.6123C80.0669 65.0224 81.3488 66.27 82.4934 66.9093H82.4927Z" fill="#A6AD14"/>
<path d="M85.6662 60.9967C86.4753 61.0211 87.743 61.1369 88.4432 60.7583C89.6189 60.1223 89.7157 58.3431 88.5021 57.6692C87.2749 56.9872 85.1339 57.04 84.2341 58.2707C83.3987 59.4132 84.3153 60.956 85.6662 60.9967Z" fill="#A6AD14"/>
<path d="M83.2697 81.8249C81.2916 82.146 81.1097 84.5394 81.1069 86.1561C81.1036 88.0382 81.6231 90.3999 83.3867 91.428C84.3845 92.0098 85.6028 91.6569 86.2313 90.7013C87.0451 89.4632 86.554 87.8615 86.2685 86.5415C85.8951 84.8124 85.8904 81.3996 83.2703 81.8249H83.2697Z" fill="#A6AD14"/>
<path d="M87.0482 79.6156C85.4883 80.1743 85.8894 81.8804 86.7107 82.9153C87.513 83.9264 88.9545 84.6593 90.2405 84.1764C91.6747 83.6379 91.9331 81.7727 90.9495 80.687C90.0335 79.6759 88.3647 79.1435 87.0482 79.6156Z" fill="#A6AD14"/>
<path d="M101.041 59.4274C99.7501 58.9351 98.0575 59.5053 97.3357 60.6939C96.578 61.9422 97.4088 63.4552 98.6941 63.8988C99.9747 64.3411 101.714 64.0742 102.444 62.8335C103.235 61.4884 102.399 59.9449 101.041 59.4274H101.041Z" fill="#A6AD14"/>
<path d="M103.153 52.6073C102.118 51.1863 100.593 50.9628 98.966 51.4193C97.5379 51.8203 96.1126 52.9364 96.9744 54.5802C98.2807 57.0719 104.981 55.1159 103.153 52.6066V52.6073Z" fill="#A6AD14"/>
<path d="M77.2097 11.7236C79.0443 11.7642 79.9014 9.80282 79.9657 8.2478C80.0191 6.9603 79.4678 4.83637 77.9829 4.54988C76.2545 4.21598 75.8561 6.08933 75.5503 7.35109C75.1951 8.81468 75.0889 11.6768 77.2097 11.7236Z" fill="#A6AD14"/>
<path d="M84.1241 10.6359C82.9146 8.75785 78.9748 10.7802 79.8792 12.7734C80.8784 14.9752 85.4669 12.7213 84.1241 10.6359Z" fill="#A6AD14"/>
<path d="M23.3753 13.3166C24.3136 13.767 25.2715 14.239 26.2977 14.4503C27.8299 14.7653 30.8694 13.8963 29.5414 11.7392C28.5504 10.13 26.4722 9.90447 24.7689 9.72161C23.9936 9.63831 23.0411 9.38026 22.3004 9.71755C21.5177 10.0738 21.1727 10.9942 21.4115 11.8076C21.676 12.7077 22.6122 12.9502 23.3753 13.3166Z" fill="#A6AD14"/>
<path d="M32.0527 9.80217C33.704 9.86041 33.7547 7.89022 33.361 6.74834C32.9348 5.51231 31.385 3.43376 29.9427 3.35045C27.7652 3.22448 28.2326 5.66944 28.7941 6.90005C29.3765 8.17603 30.488 9.74663 32.0527 9.80217Z" fill="#A6AD14"/>
<path d="M8.32448 37.4045C7.39365 35.2494 4.37316 35.4147 2.62783 36.3161C1.71052 36.7902 0.706626 37.6172 0.231736 38.5511C-0.358832 39.712 0.216854 41.099 1.53261 41.3808C2.36265 41.5582 2.98096 41.055 3.72509 40.7936C4.46583 40.5328 5.23432 40.3561 5.97777 40.1034C7.13185 39.7106 8.99623 38.9629 8.32381 37.4052L8.32448 37.4045Z" fill="#A6AD14"/>
<path d="M10.8882 42.1204C9.39857 39.5074 3.95019 42.2328 4.0936 44.8098C4.30128 48.5375 12.6186 45.1566 10.8882 42.1204Z" fill="#A6AD14"/>
<path d="M10.3436 58.7982C11.4564 59.7742 12.4353 58.8687 13.5609 58.5693C14.7759 58.2463 16.645 57.0841 15.3279 55.6354C13.3005 53.4044 7.8291 56.5944 10.3436 58.7982Z" fill="#A6AD14"/>
<path d="M8.86433 71.1314C9.17686 72.7718 10.751 72.8443 11.9389 72.2869C13.0795 71.7518 14.839 71.6638 14.839 69.9692C14.839 66.4826 8.24467 67.8825 8.86433 71.1314Z" fill="#A6AD14"/>
<path d="M45.307 87.7619C45.1623 86.9823 44.4452 86.5177 43.6727 86.7196C41.6162 87.2566 39.7836 88.7216 38.9982 90.7344C38.4516 92.1357 38.6471 94.7608 40.7036 94.6261C42.547 94.5055 43.3466 91.4578 44.1503 90.1764C44.6123 89.4402 45.4836 88.7141 45.3064 87.7619H45.307Z" fill="#A6AD14"/>
<path d="M45.4368 93.3366C42.4982 93.4686 42.7498 99.1957 45.4368 99.1957C48.1238 99.1957 48.3829 93.2045 45.4368 93.3366Z" fill="#A6AD14"/>
<path d="M64.2289 50.6073C63.9529 49.8156 63.4712 49.2257 63.1465 48.4664C62.8617 47.8013 62.8806 47.2121 62.1913 46.7834C60.7869 45.9104 59.2283 47.0089 59.2188 48.5599C59.2087 50.1901 60.0063 52.2341 61.6948 52.7265C62.9923 53.1051 64.7795 52.186 64.2295 50.6073H64.2289Z" fill="#A6AD14"/>
<path d="M23.55 44.3439C22.603 45.8318 23.8639 47.1112 25.2724 47.3841C26.7552 47.672 28.715 48.0452 29.9144 46.8105C31.1327 45.5562 29.7973 44.0702 28.4856 43.649C27.1577 43.2223 24.443 42.9399 23.5494 44.3439H23.55Z" fill="#A6AD14"/>
<path d="M38.9202 20.646C40.033 20.2098 40.2671 18.7496 39.4783 17.8963C38.7362 17.0937 37.3406 16.3799 36.2231 16.7307C34.8782 17.1526 35.1082 18.6711 35.8557 19.5353C36.5376 20.3243 37.8683 21.0585 38.9209 20.646H38.9202Z" fill="#A6AD14"/>
<path d="M92.2984 23.7026C90.2649 23.1621 88.0738 24.071 86.5781 25.4446C85.3963 26.5302 83.4784 29.4581 86.0694 30.2546C87.8133 30.7903 90.5267 29.2854 91.8587 28.281C92.5852 27.7331 93.581 26.9183 93.7427 25.9667C93.9064 25.003 93.2489 23.9552 92.2984 23.7026Z" fill="#A6AD14"/>
<path d="M75.4875 16.3386C72.8628 16.1862 69.9005 18.854 69.6238 21.4107C69.5413 22.1753 70.4707 22.8248 71.1628 22.5844C72.1403 22.2458 73.013 21.6443 73.8998 21.1208C74.8665 20.5505 75.911 20.1868 76.783 19.4689C78.1042 18.3812 76.9257 16.4212 75.4875 16.3379V16.3386Z" fill="#757507"/>
<path d="M77.9424 21.4201C77.0562 21.0686 75.8393 21.2427 74.9402 21.5095C74.1332 21.7493 72.833 22.5844 73.2551 23.628C73.5981 24.478 74.3036 24.9345 75.1905 25.1201C76.0672 25.3036 77.0867 25.4899 77.9424 25.1512C79.7662 24.4286 79.7696 22.1441 77.9424 21.4195V21.4201Z" fill="#757507"/>
<path d="M80.1819 27.347C80.0973 27.2448 79.9972 27.1601 79.8809 27.0917C80.0277 27.2136 79.962 27.1642 79.6854 26.9447C79.4019 26.7652 79.1151 26.7111 78.7863 26.6826C78.4954 26.6576 78.2066 26.6982 77.9191 26.747C77.0978 26.6074 76.56 27.4804 77.1154 28.1327C77.4104 28.4787 77.6262 28.8634 78.0706 29.091C78.6639 29.3951 79.4046 29.4249 79.9661 29.0165C80.5337 28.604 80.6757 27.8909 80.1812 27.3463L80.1819 27.347Z" fill="#757507"/>
<path d="M60.503 26.8776C60.3258 26.0243 59.5411 25.4188 58.7516 25.158C58.435 25.0537 58.0948 25.0151 57.7626 25.0382C57.5773 25.051 57.3885 25.0727 57.2113 25.1228C57.1585 25.1438 57.1044 25.1608 57.0489 25.175C56.6999 25.3396 56.6261 25.3653 56.8271 25.2515C56.2047 25.3748 55.8333 26.0697 55.9118 26.6548C55.9882 27.2258 56.4306 27.6585 56.9894 27.7452C57.0219 27.7642 57.0571 27.7838 57.0746 27.7933C57.2282 27.878 57.3818 27.9633 57.5313 28.0547C57.6388 28.1204 57.9832 28.35 57.7011 28.1441C58.0325 28.3853 58.2977 28.5553 58.6874 28.6954C59.8205 29.1045 60.7134 27.8902 60.503 26.8776Z" fill="#757507"/>
<path d="M63.5467 25.987C63.3377 25.6632 63.103 25.3632 62.8601 25.0638C62.6795 24.8417 62.2608 24.6879 61.9834 24.7001C61.7033 24.713 61.4551 24.7943 61.2318 24.967C60.7739 25.3212 60.5614 26.0554 60.9125 26.5687C61.1304 26.8871 61.359 27.1905 61.61 27.4831C61.7899 27.6923 62.097 27.8224 62.3967 27.8447C62.4028 27.8454 62.4076 27.8495 62.4136 27.8508C63.0739 27.9788 63.5785 27.5928 63.6753 26.9548C63.7653 26.6344 63.7145 26.2464 63.5467 25.987Z" fill="#757507"/>
<path d="M63.2519 62.9425C61.9679 63.2825 61.4226 64.4027 60.9931 65.5683C60.5074 66.8876 60.1813 68.3627 60.9417 69.6387C61.3983 70.4047 62.5402 70.8016 63.3249 70.2645C64.8023 69.2526 65.1406 67.4287 65.1555 65.7247C65.1636 64.7589 64.7029 62.5578 63.2519 62.9425Z" fill="#757507"/>
<path d="M69.7195 65.2296C69.5815 64.444 69.357 63.827 69.0255 63.1057C68.8131 62.6431 68.071 62.4595 67.6617 62.7474C66.762 63.3806 66.2079 64.1141 66.0185 65.2296C65.7736 66.6708 65.869 67.9651 67.1212 68.8794C67.9303 69.47 69.1242 68.9925 69.6025 68.2279C70.1924 67.2851 69.8995 66.2523 69.7195 65.2289V65.2296Z" fill="#757507"/>
<path d="M73.7813 61.7708C73.6731 61.5906 73.5216 61.4234 73.3896 61.2595C73.1941 61.017 72.979 60.7962 72.6983 60.6458C72.1659 60.36 71.4488 60.0905 70.8285 60.2266C70.3083 60.2842 69.8368 60.6899 69.6426 61.1504C69.439 61.634 69.5005 62.1968 69.8029 62.6215C69.8895 62.7772 69.9937 62.9242 70.1331 63.0502C70.2731 63.1768 70.4091 63.3082 70.5491 63.4342C71.0605 63.8941 71.714 64.2652 72.4027 64.3099C73.2388 64.3641 74.0607 63.5263 74.0147 62.696C73.9971 62.3722 73.9518 62.0553 73.7806 61.7708H73.7813Z" fill="#757507"/>
<path d="M41.6058 60.3817C40.4571 59.8968 39.3335 60.6607 38.54 61.4484C37.8141 62.169 37.1897 63.0847 37.1654 64.1392C37.1451 65.0122 38.0536 65.7058 38.8897 65.4545C39.3193 65.3251 39.642 65.1287 39.9998 64.8768C40.2292 64.7149 40.4456 64.5706 40.6675 64.3912C40.6607 64.3966 40.9665 64.1534 40.9476 64.1643C41.4096 63.8195 41.6674 63.7152 42.0191 63.3211C42.4406 62.8477 42.5725 62.3634 42.6401 61.741C42.7125 61.0725 42.1389 60.6059 41.6058 60.381V60.3817Z" fill="#757507"/>
<path d="M45.3965 65.506C45.1069 65.2161 44.77 65.1308 44.402 65.143C44.0699 65.0915 43.7398 65.1348 43.3941 65.317C43.2216 65.4078 43.0484 65.5358 42.8887 65.6489C42.6499 65.8182 42.4463 65.9916 42.2596 66.2137C41.9802 66.5456 41.8517 66.847 41.6948 67.2445C41.5141 67.7017 41.7313 68.2977 42.0594 68.6262C42.4342 69.0014 42.9347 69.0962 43.4394 68.9912C44.4169 68.788 45.5683 67.8961 45.7198 66.8456C45.7259 66.826 45.7266 66.8057 45.7347 66.786C45.8761 66.3438 45.7178 65.827 45.3965 65.506Z" fill="#757507"/>
<path d="M28.0811 37.6781C27.0312 36.7069 25.4063 36.7915 24.0736 37.0231C23.1847 37.1776 21.7966 37.9192 22.2958 39.0299C22.6895 39.9056 23.6644 40.2429 24.5418 40.4034C25.5585 40.589 26.8905 40.7847 27.7652 40.1285C28.5262 39.5575 28.8881 38.4258 28.0804 37.6781H28.0811Z" fill="#757507"/>
<path d="M31.3177 33.3178C30.9821 32.9453 30.5384 32.7157 30.0459 32.6501C29.4418 32.5688 28.9574 32.7577 28.5231 33.1797C28.2864 33.41 28.1815 33.7865 28.2789 34.1048C28.4873 34.7889 28.9114 35.2962 29.5764 35.5772C29.9316 35.7276 30.2921 35.8488 30.6831 35.7222C30.9862 35.624 31.2338 35.4601 31.4293 35.2068C31.8785 34.625 31.802 33.8563 31.317 33.3185L31.3177 33.3178Z" fill="#757507"/>
<path d="M35.2551 29.7431C35.019 29.5264 34.7823 29.2752 34.4934 29.1343C34.2756 29.0273 34.0503 28.9338 33.8291 28.8336C33.2155 28.5559 32.5425 28.6148 32.1081 29.1776C31.7341 29.6626 31.6996 30.5058 32.2123 30.9311C32.4072 31.093 32.6013 31.2562 32.7982 31.4167C33.085 31.651 33.2277 31.7242 33.5666 31.861C33.6904 31.9111 33.8149 31.9585 33.9387 32.0073C34.4691 32.2152 35.2091 31.8725 35.4669 31.3849C35.7402 30.8667 35.7084 30.1603 35.2551 29.7431Z" fill="#757507"/>
<path d="M62.9071 86.9837C62.7204 86.0287 61.5258 85.6745 60.7546 86.1073C59.3773 86.8801 58.6446 88.4825 58.2719 89.9624C57.8301 91.7165 57.6847 93.4869 59.2582 94.6559C59.7466 95.0189 60.6206 94.9871 61.1124 94.6559C62.4722 93.7415 62.4282 92.4324 62.6352 90.9485C62.8205 89.6244 63.1676 88.3159 62.9071 86.9837Z" fill="#757507"/>
<path d="M66.5503 89.4612C66.4319 88.1581 64.46 87.2336 63.7849 88.7114C63.2443 89.8946 62.8195 90.872 62.8364 92.2184C62.8533 93.5662 63.4358 95.4171 65.0823 95.4212C68.1022 95.428 66.6998 91.1144 66.5496 89.4612H66.5503Z" fill="#757507"/>
<path d="M71.8635 90.9599C71.3839 90.0835 70.5714 89.1692 69.6832 88.6911C68.7767 88.2028 67.2668 88.7899 67.4082 89.9982C67.5266 91.0121 67.8716 91.984 68.3187 92.9003C68.8464 93.9813 70.1446 95.0791 71.3954 94.3463C72.6225 93.6277 72.4473 92.0266 71.8635 90.9599Z" fill="#757507"/>
<path d="M96.6502 69.8223C95.5671 69.0549 93.5086 68.847 92.2706 69.3529C91.4129 69.7038 90.9454 70.7657 91.7024 71.5067C92.8057 72.5869 94.7723 73.1382 96.2639 72.7806C97.7211 72.4312 97.7177 70.5781 96.6502 69.8223Z" fill="#757507"/>
<path d="M26.5043 89.2092C26.4928 89.1923 26.4786 89.1781 26.4678 89.1605C26.526 89.258 26.5307 89.2607 26.5043 89.2092Z" fill="#757507"/>
<path d="M32.1059 84.7474C31.9422 84.152 31.3652 83.7098 30.7476 83.7118C29.4541 83.7165 28.1837 84.278 27.288 85.2167C26.7854 85.7436 26.3694 86.3477 26.1353 87.0426C25.9892 87.4761 25.9412 87.9393 26.065 88.3904C26.0724 88.4161 26.4255 89.0548 26.504 89.2092C26.8889 89.791 27.6851 89.9976 28.2973 89.6407C27.9158 89.8628 28.574 89.5465 28.7059 89.4659C29.0144 89.2776 29.306 88.9817 29.4974 88.6769C29.6977 88.3586 29.8688 88.0199 30.0826 87.7091C30.0907 87.7152 30.3369 87.4158 30.3342 87.4185C30.4655 87.2682 30.5872 87.1117 30.7266 86.9681C30.9715 86.7148 31.1663 86.5563 31.4579 86.3403C31.9679 85.9617 32.2839 85.3982 32.1053 84.7474H32.1059Z" fill="#757507"/>
<path d="M33.7588 87.3976C32.9862 88.0877 32.3794 88.8219 31.9965 89.7938C31.6143 90.7623 31.5379 92.2164 32.5194 92.8449C33.0315 93.298 33.8758 93.4592 34.371 92.8516C35.5061 92.0978 35.3356 90.2408 36.0013 89.13C36.8618 87.6929 34.9406 86.3424 33.7588 87.3976Z" fill="#757507"/>
<path d="M88.8976 44.7123C88.1311 44.7164 87.479 45.3618 87.479 46.1326C87.479 46.9758 88.1332 47.4614 88.8976 47.5528C89.4942 47.6239 90.0889 47.972 90.6754 48.117C91.6772 48.3635 93.0113 47.9504 93.0113 46.7123C93.0113 44.629 90.3256 44.7049 88.8976 44.713V44.7123Z" fill="#757507"/>
<path d="M96.5262 40.7523C95.987 39.8982 95.0684 39.4411 94.0658 39.4214C93.6843 39.414 93.3129 39.4878 92.9598 39.626L92.6039 39.7763C92.7534 39.7133 92.7271 39.7248 92.5261 39.8095C92.336 39.8914 92.1595 39.9707 91.985 40.0831C91.4133 40.4515 91.1434 41.1586 91.4235 41.798C91.6873 42.3994 92.378 42.8044 93.0416 42.5931C93.0748 42.5809 93.1093 42.5734 93.1438 42.5633C93.2053 42.5762 93.2649 42.5863 93.2879 42.5931C93.3393 42.6087 93.388 42.6249 93.4218 42.6371C93.5239 42.6872 93.6254 42.7407 93.7249 42.7936C94.5177 43.2128 95.5432 43.5961 96.2651 42.7895C96.7508 42.2463 96.9388 41.4045 96.5275 40.7529L96.5262 40.7523Z" fill="#757507"/>
<path d="M42.7502 7.02601C42.5811 6.15571 41.9269 5.37007 41.2769 4.79574C40.664 4.25392 39.9388 3.78051 39.0911 3.87871C38.782 3.91461 38.4092 4.02772 38.2712 4.34942C37.8884 5.24071 38.027 5.99384 38.4133 6.86211C38.7874 7.70193 39.3556 8.56207 40.1864 8.99891C41.5901 9.73714 43.0418 8.5255 42.7502 7.02533V7.02601Z" fill="#757507"/>
<path d="M46.8362 2.94549C46.7137 2.52964 46.5203 2.0928 46.2077 1.78803C45.9114 1.49883 45.492 1.22792 45.08 1.17238C44.825 1.13784 44.6072 1.17713 44.3758 1.26449C43.8461 1.3031 43.4788 1.8009 43.5749 2.2926C43.5613 2.42196 43.5701 2.55877 43.585 2.66984C43.6121 2.87234 43.6817 3.09381 43.7447 3.29022C43.7859 3.4189 43.8549 3.54014 43.909 3.66543C43.9104 3.67965 43.9145 3.70336 43.9246 3.75009C44.0017 4.09415 44.1735 4.35286 44.4063 4.56892C44.4387 4.6319 44.4685 4.68676 44.4834 4.70776C44.5449 4.79242 44.6126 4.87098 44.6782 4.95225C44.9508 5.29224 45.605 5.35997 45.9581 5.11751C46.2788 4.89739 46.4688 4.66509 46.6109 4.3488C46.8889 3.93431 46.9972 3.4934 46.8362 2.94549Z" fill="#757507"/>
<path d="M9.62229 51.3103C9.08449 50.994 8.52571 50.8579 7.79105 51.015C7.24581 51.1315 6.64306 51.3862 6.29535 51.8339C5.82587 52.438 5.76026 53.3936 6.54971 53.8122C7.17004 54.1413 7.83908 54.1698 8.51895 54.0154C9.20896 53.8589 9.64664 53.4756 10.0417 52.9128C10.407 52.394 10.131 51.6097 9.62229 51.3103Z" fill="#757507"/>
<path d="M40.2774 35.9951C40.1935 35.5996 39.9236 35.2135 39.5806 35.0347C39.0875 34.7773 38.5686 34.6046 38.0186 34.522C37.8245 34.4929 37.7744 34.4868 37.8678 34.5037C37.9246 34.5139 37.9111 34.5119 37.8265 34.4976C37.6743 34.476 37.5241 34.4441 37.3712 34.4502C37.24 34.455 37.0973 34.478 36.9721 34.5132C36.9227 34.5268 36.5804 34.6148 36.755 34.5857C36.4573 34.6351 36.2442 34.9751 36.2435 35.2582C36.2435 35.0896 36.2205 35.4668 36.2199 35.5027C36.2178 35.6537 36.2401 35.8102 36.2841 35.9558C36.3768 36.2606 36.6366 36.6344 36.8578 36.8593C37.4125 37.4241 38.0741 37.668 38.8412 37.7655C39.2613 37.819 39.7579 37.5305 40.0149 37.181C40.3011 36.8586 40.4147 36.4116 40.2767 35.9951H40.2774Z" fill="#757507"/>
<path d="M42.1094 31.0598C41.9166 30.5566 41.5784 30.1434 41.3579 29.6605C41.1353 29.1729 40.4487 29.0151 39.9961 29.2142C39.4725 29.4445 39.2642 29.9518 39.365 30.5017C39.4515 30.9745 39.3798 31.4858 39.5219 31.9579C39.5956 32.2024 39.7431 32.5471 39.8791 32.7726C39.9961 32.9704 40.1531 33.1275 40.3499 33.244C40.6794 33.3977 40.7632 33.4303 40.6029 33.3415C41.0792 33.5874 41.738 33.4851 42.0086 32.9724C41.8889 33.2 42.1297 32.8017 42.1473 32.7719C42.2589 32.581 42.3266 32.3297 42.3266 32.1082C42.3266 31.7804 42.2251 31.3612 42.1094 31.0591V31.0598Z" fill="#757507"/>
<path d="M17.2201 23.4357C17.2201 23.026 17.0543 22.644 16.8554 22.2945C16.5564 21.771 16.1174 21.3368 15.5972 21.0321C15.0066 20.686 14.2246 20.5715 13.5691 20.751C13.3283 20.8167 13.0739 20.9074 12.8595 21.0334C12.6741 21.1425 12.5287 21.3775 12.3548 21.4682C11.5315 21.8969 11.8129 23.1987 12.6497 23.3619C12.8006 23.4831 12.9575 23.6118 12.7526 23.4222C12.9582 23.6125 13.1578 23.7899 13.3898 23.9545C13.4859 24.0195 13.5177 24.0398 13.4994 24.0243C13.5792 24.0886 13.6618 24.1502 13.7463 24.2078C13.6584 24.1448 13.9973 24.413 14.048 24.4631C14.1942 24.606 14.6515 25.133 14.9173 25.1418C15.1446 25.2677 15.3881 25.3327 15.6493 25.3334C16.4685 25.3368 16.9353 24.7544 17.1274 24.027C17.1314 24.0006 17.1341 23.9782 17.1375 23.9572C17.1916 23.7892 17.2214 23.6159 17.2207 23.4357H17.2201Z" fill="#757507"/>
<path d="M20.2617 22.6717C21.1053 21.7858 20.3625 20.4448 19.7455 19.6646C19.4695 19.3158 19.1699 19.0219 18.7687 18.8194C18.212 18.539 17.2683 18.5417 16.9314 19.1864C16.447 20.1129 16.8103 20.9521 17.3075 21.7845C17.7404 22.5085 18.5888 23.3767 19.5237 23.1153C19.8294 23.0794 20.0831 22.9297 20.261 22.671L20.2617 22.6717Z" fill="#757507"/>
</g>
<defs>
<clipPath id="clip0_68_192807">
<rect width="104" height="99.1957" fill="white"/>
</clipPath>
</defs>
</svg>
