<svg width="51" height="46" viewBox="0 0 51 46" fill="none" xmlns="http://www.w3.org/2000/svg">
<g clip-path="url(#clip0_3_173141)">
<path d="M40.1921 19.7382C40.1921 19.7382 37.6367 19.8375 35.7063 16.936C33.7758 14.0346 31.9353 11.8859 31.9353 11.8859C31.9353 11.8859 28.1926 12.9652 24.6456 9.07372L23.5953 10.6592L21.0931 8.59215C21.0931 8.59215 20.5889 11.6986 15.2108 8.8972L14.8067 11.0288L22.1883 22.9292C22.1883 22.9292 35.1764 30.9861 35.4887 30.9209C35.8015 30.8547 39.9044 30.204 39.9044 30.204L40.1907 19.7385L40.1921 19.7382Z" fill="#914A26"/>
<g style="mix-blend-mode:overlay" opacity="0.2">
<path d="M30.8856 13.6937C31.2808 14.7693 31.6657 15.851 31.9392 16.9655C32.8429 20.6503 32.4726 24.6568 30.9069 28.1474C33.1225 25.941 34.2554 23.1535 34.7281 20.0698C34.9507 18.6202 34.9776 17.1515 34.8547 15.6952C33.2688 13.4443 31.9354 11.8858 31.9354 11.8858C31.9354 11.8858 31.2698 12.0726 30.2419 12.0054C30.4654 12.5642 30.6792 13.1282 30.8862 13.6928L30.8856 13.6937Z" fill="black"/>
</g>
<g style="mix-blend-mode:overlay" opacity="0.2">
<path d="M23.484 23.7294C25.0473 19.5389 25.0407 14.8296 23.6086 10.642L23.5968 10.6598L21.0946 8.59276C21.0946 8.59276 20.8882 9.84632 19.3584 10.041C19.9312 10.862 20.3895 11.7908 20.8157 12.6996C22.4416 16.158 24.0322 19.9101 23.4562 23.7123C23.4649 23.7181 23.4746 23.7245 23.4843 23.7309L23.484 23.7294Z" fill="black"/>
</g>
<g style="mix-blend-mode:overlay" opacity="0.2">
<path d="M38.2395 29.621C38.9361 28.4893 39.5294 27.2905 40.0199 26.0505L40.1928 19.7373C40.1928 19.7373 39.6471 19.7545 38.8729 19.4933C39.1105 22.8433 38.7671 26.2771 38.2392 29.6195L38.2395 29.621Z" fill="black"/>
</g>
<path d="M43.154 34.3863C44.3868 30.3516 43.4819 25.9343 41.6165 22.2004C41.1919 21.3504 40.7128 20.5311 40.193 19.7388C40.0259 22.7425 39.3169 25.7235 38.0805 28.4784C38.7657 23.5162 37.6518 18.3866 35.1402 14.1181C34.1328 13.2916 33.0602 12.5464 31.9364 11.8879C33.4471 16.4433 33.6106 21.4992 31.4118 25.7528C32.1563 19.4845 29.3864 13.0717 24.6468 9.07577C23.4765 8.83073 22.2891 8.67063 21.0943 8.5942C23.181 12.7147 23.982 17.51 23.2925 22.1241C22.8125 19.2488 21.6649 16.5078 20.0188 14.1285C19.2805 13.0617 18.4403 12.0648 17.5131 11.1592C16.9231 10.5835 15.3584 9.75749 15.2126 8.89835C13.6018 9.17153 12.014 9.5948 10.4828 10.1787C8.45063 10.9546 6.5958 12.1624 5.0979 13.7543C-2.41698 21.7408 15.177 31.0002 21.8367 35.6519C25.4272 38.1601 29.2215 40.5991 33.5334 41.4233C37.6269 42.2055 41.9221 38.4215 43.1555 34.386L43.154 34.3863Z" fill="#B2673D"/>
<g style="mix-blend-mode:overlay" opacity="0.2">
<path d="M19.3753 14.3398C19.1957 13.6842 18.9656 13.0439 18.694 12.4224C18.3167 11.9851 17.9245 11.5609 17.5119 11.1579C16.9219 10.5822 15.3571 9.75621 15.2113 8.89708C13.6005 9.17025 12.0128 9.59352 10.4816 10.1775C9.77334 10.4477 9.08947 10.7726 8.43268 11.1463C10.5652 13.2471 12.6193 15.8646 15.0842 17.5436C16.2055 18.3069 17.8274 18.7626 18.8588 17.8501C19.7967 17.0195 19.7039 15.537 19.3753 14.3398Z" fill="white"/>
</g>
<g style="mix-blend-mode:overlay" opacity="0.2">
<path d="M21.0937 8.59204C21.8079 10.0023 22.367 11.4921 22.7719 13.0261C23.4231 14.9851 24.1118 16.9048 25.5769 18.2951C26.3627 19.0403 27.5951 19.5807 28.5124 18.9777C29.17 18.5456 29.4004 17.6905 29.4762 16.9088C29.5297 16.3627 29.5298 15.821 29.4976 15.2824C28.3135 12.9074 26.6605 10.7712 24.6468 9.07271C23.4765 8.82767 22.2891 8.66758 21.0943 8.59114L21.0937 8.59204Z" fill="white"/>
</g>
<g style="mix-blend-mode:overlay" opacity="0.2">
<path d="M41.617 22.2003C41.5059 21.979 41.3824 21.765 41.2651 21.5474C40.4304 23.5683 39.7136 26.0461 41.1042 27.6631C41.7212 28.3812 42.6615 28.7293 43.6179 28.7442C43.3628 26.475 42.6348 24.2352 41.6176 22.1994L41.617 22.2003Z" fill="white"/>
</g>
<g style="mix-blend-mode:overlay" opacity="0.2">
<path d="M34.9435 21.337C35.4122 22.0711 36.328 22.7689 37.0832 22.3154C37.3878 22.132 37.5721 21.8023 37.7321 21.4846C37.7729 21.4038 37.8062 21.3193 37.8462 21.2379C37.3483 18.7309 36.4306 16.3103 35.1397 14.1175C34.5963 13.6716 34.0321 13.2516 33.4521 12.8533C33.5131 15.7949 33.3849 18.8963 34.9435 21.337Z" fill="white"/>
</g>
<g style="mix-blend-mode:overlay" opacity="0.2">
<path d="M42.7595 35.4226C40.8161 36.297 38.7085 36.729 36.6038 36.535C32.617 36.1676 29.1786 33.6947 26.1927 31.048C23.2074 28.4003 20.3847 25.4405 16.7791 23.7311C14.7 22.7453 12.4289 22.2114 10.3287 21.2708C8.22356 20.3281 6.00146 18.765 5.30496 16.4319C4.99444 15.3905 5.14346 14.4352 5.35994 13.4887C5.27237 13.5771 5.18188 13.6622 5.09694 13.7523C-2.41794 21.7387 15.176 30.9981 21.8357 35.6498C25.4263 38.158 29.2205 40.597 33.5325 41.4212C37.2717 42.1356 41.1729 39.038 42.7601 35.4217L42.7595 35.4226Z" fill="black"/>
</g>
<g style="mix-blend-mode:overlay" opacity="0.2">
<path d="M21.8359 35.6513C25.4264 38.1595 29.2207 40.5985 33.5327 41.4227C37.6262 42.2049 41.9214 38.421 43.1547 34.3854C43.5587 33.0624 43.7298 31.6982 43.7152 30.3303C43.0164 34.2835 40.4744 38.2275 36.5961 39.0463C33.8167 39.6326 30.9663 38.5031 28.63 36.9272C26.2938 35.3514 24.2851 33.325 21.9235 31.7875C17.8531 29.1361 12.7025 27.8885 9.68404 24.0725C7.86648 21.7747 7.06144 18.6482 7.69882 15.7507C8.35869 12.7486 10.2669 11.6108 12.2125 9.60044C11.63 9.77427 11.0516 9.96107 10.4821 10.1782C8.44986 10.954 6.59503 12.1619 5.09713 13.7538C-2.41775 21.7402 15.1762 30.9996 21.8359 35.6513Z" fill="black"/>
</g>
</g>
<defs>
<clipPath id="clip0_3_173141">
<rect width="43.6491" height="25.462" fill="white" transform="translate(14.0615) rotate(33.522)"/>
</clipPath>
</defs>
</svg>
