<svg width="381" height="117" viewBox="0 0 381 117" fill="none" xmlns="http://www.w3.org/2000/svg">
<path d="M330.606 16.8955H47.7792C36.6787 16.8955 27.5926 18.7479 25.9082 21.1341L47.3249 105.091C47.5049 105.788 48.0792 106.457 48.9321 107.1C51.2508 108.849 55.871 110.364 62.0213 111.455C68.523 112.61 76.6962 113.295 85.5337 113.295H292.817C301.659 113.295 309.828 112.61 316.33 111.455C322.48 110.364 327.1 108.849 329.419 107.1C330.268 106.458 330.846 105.788 331.026 105.091L352.451 21.1038C350.711 18.7323 341.659 16.8955 330.606 16.8955ZM245.295 109.568H86.1252C70.8588 109.568 58.2411 106.858 57.3368 103.389L37.433 29.1272C36.5801 25.8509 48.0192 23.088 62.4327 23.088H167.827C237.332 23.088 293.122 36.1522 291.189 51.9725L283.864 101.028C283.281 105.783 266.189 109.569 245.299 109.569L245.295 109.568Z" fill="#513F37"/>
<path d="M195.51 13.623H23.9922L24.3993 15.2129L25.4108 19.186L25.908 21.134C27.5923 18.7478 36.6742 16.8954 47.779 16.8954H330.61C341.664 16.8954 350.72 18.7322 352.455 21.1038L352.944 19.186L353.956 15.2129L354.363 13.623H195.51ZM352.97 18.985C352.987 18.335 352.267 17.7211 350.994 17.1843C352.271 17.7211 352.987 18.335 352.97 18.985Z" fill="#4C372E"/>
<path d="M329.308 0.000488281H12.9606C5.80312 0.000488281 0 1.32194 0 2.95179V6.64775C0 4.30544 8.34037 2.40623 18.6266 2.40623H362.369C372.655 2.40623 380.996 4.30545 380.996 6.64872V2.95179C380.996 1.32194 375.193 0.000488281 368.035 0.000488281H329.303H329.308Z" fill="#846F66"/>
<path d="M362.369 2.40625H18.6266C8.34037 2.40625 0 4.30547 0 6.64777V10.4033C0 11.1616 2.70012 11.7774 6.03456 11.7774H11.5205V9.0457C11.5205 6.70242 19.8609 4.80418 30.1471 4.80418H241.549C251.84 4.80418 260.176 6.7034 260.176 9.0457V11.7774H374.961C378.296 11.7774 380.996 11.1626 380.996 10.4033V6.64777C380.996 4.30449 372.655 2.40527 362.369 2.40527V2.40625Z" fill="#594A43"/>
<path d="M260.177 11.7774V9.04572C260.177 6.70244 251.837 4.8042 241.55 4.8042H30.148C19.8619 4.8042 11.5215 6.70342 11.5215 9.04572V11.7774H260.181H260.177Z" fill="#6D615C"/>
<path d="M374.965 11.7775H6.03456C2.70441 11.7775 0 11.1626 0 10.4033V12.2489C0 13.0072 2.70012 13.623 6.03456 13.623H374.965C378.3 13.623 381 13.0082 381 12.2489V10.4033C381 11.1616 378.3 11.7775 374.965 11.7775Z" fill="#513F37"/>
<path d="M291.189 51.9724C293.126 36.1521 237.332 23.0879 167.827 23.0879H62.4327C48.0192 23.0879 36.5844 25.8508 37.433 29.1271L57.3368 103.389C58.2368 106.858 70.8588 109.568 86.1252 109.568H245.3C266.189 109.568 283.281 105.782 283.864 101.027L291.189 51.9714V51.9724ZM242.904 59.4004L236.916 99.4987C236.441 103.385 222.468 106.48 205.393 106.48H92.5155C80.0392 106.48 69.7231 104.265 68.9859 101.429L52.7166 40.7264C52.0223 38.0484 61.3698 35.79 73.1518 35.79H142.425C199.239 35.79 244.494 46.4689 242.908 59.4004H242.904Z" fill="#594A43"/>
<path d="M142.42 35.7891H73.1473C61.3654 35.7891 52.0178 38.0474 52.7121 40.7255L68.9814 101.428C69.7186 104.264 80.0348 106.479 92.511 106.479H205.389C222.464 106.479 236.436 103.384 236.912 99.4977L242.899 59.3995C244.481 46.467 199.226 35.7891 142.416 35.7891H142.42Z" fill="#6D615C"/>
<mask id="mask0_1152_212372" style="mask-type:alpha" maskUnits="userSpaceOnUse" x="166" y="32" width="50" height="50">
<rect x="166" y="32" width="50" height="50" fill="#D9D9D9"/>
</mask>
<g mask="url(#mask0_1152_212372)">
<path d="M191.001 76.7917C188.258 76.7917 185.688 76.2708 183.292 75.2292C180.896 74.1875 178.804 72.7726 177.016 70.9844C175.228 69.1962 173.813 67.1042 172.771 64.7083C171.73 62.3125 171.209 59.7431 171.209 57C171.209 54.2569 171.73 51.6875 172.771 49.2917C173.813 46.8958 175.228 44.8038 177.016 43.0156C178.804 41.2274 180.896 39.8125 183.292 38.7708C185.688 37.7292 188.258 37.2083 191.001 37.2083V32L199.334 40.3333L191.001 48.6667V43.4583C187.251 43.4583 184.056 44.7778 181.417 47.4167C178.778 50.0556 177.459 53.25 177.459 57C177.459 59.2917 177.988 61.4184 179.048 63.3802C180.107 65.342 181.521 66.9306 183.292 68.1458C183.848 67.1736 184.673 66.349 185.766 65.6719C186.86 64.9948 188.119 64.5694 189.542 64.3958C189.438 63.6667 189.299 62.9375 189.126 62.2083C188.952 61.4792 188.744 60.8021 188.501 60.1771C188.119 60.4896 187.702 60.7326 187.251 60.9062C186.799 61.0799 186.313 61.1667 185.792 61.1667C184.646 61.1667 183.666 60.7587 182.85 59.9427C182.034 59.1267 181.626 58.1458 181.626 57V54.9167C181.626 54.3264 181.53 53.7708 181.339 53.25C181.148 52.7292 180.896 52.2431 180.584 51.7917C182.32 51.7569 183.865 51.9132 185.219 52.2604C186.4 52.5729 187.476 53.0851 188.449 53.7969C189.421 54.5087 189.924 55.5764 189.959 57C189.959 57.3125 189.933 57.599 189.881 57.8594C189.829 58.1198 189.733 58.3889 189.594 58.6667C189.143 58.3194 188.692 58.0069 188.24 57.7292C187.789 57.4514 187.32 57.2083 186.834 57C187.424 57.4514 188.101 58.1458 188.865 59.0833C189.629 60.0208 190.341 61.1319 191.001 62.4167C191.695 60.7153 192.563 59.0399 193.605 57.3906C194.646 55.7413 195.862 54.2222 197.251 52.8333C196.452 53.3889 195.688 53.9792 194.959 54.6042C194.23 55.2292 193.518 55.8889 192.824 56.5833C192.581 56.2014 192.39 55.776 192.251 55.3073C192.112 54.8385 192.042 54.3611 192.042 53.875C192.042 52.4167 192.546 51.184 193.553 50.1771C194.56 49.1701 195.792 48.6667 197.251 48.6667H199.334C200.133 48.6667 200.792 48.5625 201.313 48.3542C201.834 48.1458 202.268 47.9028 202.615 47.625C202.997 47.3125 203.292 46.9653 203.501 46.5833C203.64 48.9097 203.518 50.9931 203.136 52.8333C202.824 54.3958 202.233 55.8281 201.365 57.1302C200.497 58.4323 199.126 59.0833 197.251 59.0833C196.73 59.0833 196.235 59.0139 195.766 58.875C195.298 58.7361 194.872 58.5451 194.49 58.3021C194.247 58.9618 193.969 59.8385 193.657 60.9323C193.344 62.026 193.101 63.1979 192.928 64.4479C194.247 64.691 195.41 65.1424 196.417 65.8021C197.424 66.4618 198.188 67.2431 198.709 68.1458C200.48 66.9306 201.895 65.3507 202.954 63.4062C204.013 61.4618 204.542 59.3264 204.542 57H210.792C210.792 59.7431 210.271 62.3125 209.23 64.7083C208.188 67.1042 206.773 69.1962 204.985 70.9844C203.197 72.7726 201.105 74.1875 198.709 75.2292C196.313 76.2708 193.744 76.7917 191.001 76.7917Z" fill="#1C1B1F"/>
</g>
</svg>
