<svg width="306" height="425" viewBox="0 0 306 425" fill="none" xmlns="http://www.w3.org/2000/svg">
<path d="M75.4278 420.325L219.341 424.109C262.094 425.242 297.692 391.481 298.825 348.751L305.802 83.2528C306.935 40.5228 273.155 4.94436 230.402 3.81204L86.4888 0.0276703C43.7353 -1.10464 8.13704 32.6561 7.0041 75.3861L0.0276854 340.884C-1.10525 383.614 32.6743 419.193 75.4278 420.325Z" fill="#999999"/>
<path d="M66.0092 124.345L245.52 129.053C258.758 129.411 269.789 118.952 270.117 105.722L270.952 73.7784C271.31 60.5482 260.845 49.523 247.607 49.1952L68.0961 44.4871C54.8586 44.1296 43.8273 54.5886 43.4994 67.8188L42.6649 99.7621C42.3071 112.992 52.7717 124.017 66.0092 124.345Z" fill="#C9D037"/>
<path d="M57.7427 150.938L57.1772 172.378C56.9596 180.628 63.4751 187.493 71.73 187.71L93.8381 188.293C102.093 188.51 108.961 181.998 109.179 173.748L109.744 152.308C109.962 144.058 103.447 137.194 95.1916 136.976L73.0835 136.394C64.8286 136.176 57.9603 142.688 57.7427 150.938Z" fill="#707070"/>
<g style="mix-blend-mode:overlay" opacity="0.4">
<path d="M109.425 152.918L108.899 172.723C108.669 181.426 101.407 188.324 92.6984 188.094L72.2911 187.568C65.653 187.404 60.0995 183.167 57.9635 177.288C60.3952 178.93 63.2543 179.883 66.3104 179.981L86.7174 180.507C95.4257 180.737 102.688 173.84 102.918 165.136L103.444 145.332C103.51 143.262 103.115 141.226 102.392 139.42C106.796 142.376 109.556 147.368 109.425 152.951V152.918Z" fill="black"/>
</g>
<path d="M123.697 174.994L124.262 153.587C124.479 145.346 131.357 138.825 139.603 139.043L161.678 139.624C169.923 139.842 176.448 146.716 176.231 154.956L175.666 176.363C175.449 184.604 168.571 191.125 160.325 190.908L138.25 190.326C130.005 190.109 123.48 183.235 123.697 174.994Z" fill="#707070"/>
<g style="mix-blend-mode:overlay" opacity="0.4">
<path d="M175.936 155.579L175.41 175.383C175.18 184.087 167.918 190.984 159.21 190.754L138.802 190.229C132.164 190.064 126.611 185.795 124.475 179.948C126.907 181.591 129.766 182.543 132.822 182.642L153.229 183.167C161.937 183.397 169.2 176.5 169.43 167.796L169.955 147.992C170.021 145.923 169.627 143.886 168.904 142.08C173.307 145.036 176.068 150.028 175.936 155.612V155.579Z" fill="black"/>
</g>
<path d="M191.394 176.345L191.959 154.938C192.176 146.698 199.054 140.177 207.299 140.394L229.375 140.975C237.62 141.193 244.145 148.067 243.927 156.308L243.363 177.714C243.145 185.955 236.267 192.476 228.022 192.259L205.947 191.678C197.701 191.46 191.177 184.586 191.394 176.345Z" fill="#707070"/>
<g style="mix-blend-mode:overlay" opacity="0.4">
<path d="M243.633 156.93L243.107 176.734C242.877 185.438 235.615 192.335 226.907 192.105L206.499 191.58C199.861 191.415 194.308 187.146 192.172 181.3C194.603 182.942 197.462 183.894 200.519 183.993L220.926 184.518C229.634 184.748 236.896 177.851 237.127 169.147L237.652 149.343C237.718 147.274 237.324 145.237 236.601 143.431C241.004 146.387 243.764 151.379 243.633 156.963V156.93Z" fill="black"/>
</g>
<path d="M54.8955 238.827L55.4601 217.421C55.6774 209.18 62.5555 202.658 70.8009 202.876L92.8761 203.457C101.122 203.675 107.646 210.549 107.429 218.79L106.864 240.196C106.647 248.437 99.7689 254.958 91.5235 254.741L69.4483 254.159C61.2029 253.942 54.6781 247.068 54.8955 238.827Z" fill="#707070"/>
<g style="mix-blend-mode:overlay" opacity="0.4">
<path d="M107.223 219.42L106.697 239.225C106.467 247.928 99.2047 254.826 90.4963 254.596L70.0894 254.07C63.4514 253.906 57.8974 249.636 55.7614 243.79C58.1931 245.432 61.0522 246.385 64.1084 246.483L84.5153 247.009C93.2236 247.239 100.486 240.341 100.716 231.638L101.242 211.833C101.308 209.764 100.913 207.728 100.19 205.922C104.594 208.878 107.354 213.87 107.223 219.453V219.42Z" fill="black"/>
</g>
<path d="M121.477 241.514L122.042 220.108C122.259 211.867 129.137 205.346 137.382 205.563L159.458 206.144C167.703 206.362 174.228 213.236 174.01 221.477L173.446 242.884C173.228 251.124 166.35 257.645 158.105 257.428L136.03 256.846C127.784 256.629 121.26 249.755 121.477 241.514Z" fill="#707070"/>
<g style="mix-blend-mode:overlay" opacity="0.4">
<path d="M173.724 222.081L173.199 241.885C172.969 250.589 165.706 257.486 156.998 257.256L136.591 256.731C129.953 256.567 124.399 252.297 122.263 246.451C124.695 248.093 127.554 249.045 130.61 249.144L151.017 249.67C159.726 249.899 166.988 243.002 167.218 234.299L167.744 214.494C167.809 212.425 167.415 210.389 166.692 208.582C171.095 211.538 173.856 216.53 173.724 222.114V222.081Z" fill="black"/>
</g>
<path d="M188.598 222.771L188.033 244.21C187.815 252.461 194.331 259.325 202.585 259.542L224.694 260.125C232.949 260.342 239.817 253.831 240.034 245.58L240.6 224.141C240.817 215.89 234.302 209.026 226.047 208.808L203.939 208.226C195.684 208.008 188.816 214.52 188.598 222.771Z" fill="#707070"/>
<g style="mix-blend-mode:overlay" opacity="0.4">
<path d="M240.271 224.75L239.746 244.555C239.516 253.259 232.253 260.156 223.545 259.926L203.138 259.4C196.5 259.236 190.946 254.966 188.81 249.12C191.242 250.762 194.101 251.715 197.157 251.813L217.564 252.339C226.273 252.569 233.535 245.672 233.765 236.968L234.291 217.164C234.356 215.094 233.962 213.058 233.239 211.252C237.642 214.208 240.403 219.2 240.271 224.783V224.75Z" fill="black"/>
</g>
<path d="M52.7373 305.382L53.3019 283.976C53.5192 275.735 60.3973 269.214 68.6427 269.431L90.7179 270.012C98.9633 270.23 105.488 277.104 105.271 285.345L104.706 306.751C104.489 314.992 97.6107 321.513 89.3653 321.296L67.2901 320.715C59.0447 320.497 52.5199 313.623 52.7373 305.382Z" fill="#707070"/>
<g style="mix-blend-mode:overlay" opacity="0.4">
<path d="M105.012 285.931L104.486 305.736C104.256 314.439 96.9933 321.337 88.285 321.107L67.878 320.581C61.24 320.417 55.6864 316.18 53.5504 310.301C55.9822 311.943 58.8409 312.896 61.897 312.994L82.3043 313.52C91.0127 313.75 98.2748 306.853 98.5049 298.149L99.0308 278.344C99.0965 276.275 98.7023 274.239 97.9794 272.433C102.383 275.389 105.143 280.381 105.012 285.964V285.931Z" fill="black"/>
</g>
<path d="M119.726 286.569L119.16 308.008C118.943 316.259 125.458 323.123 133.713 323.341L155.821 323.923C164.076 324.141 170.944 317.629 171.162 309.378L171.727 287.939C171.945 279.689 165.429 272.824 157.175 272.607L135.066 272.024C126.811 271.807 119.943 278.319 119.726 286.569Z" fill="#707070"/>
<g style="mix-blend-mode:overlay" opacity="0.4">
<path d="M171.522 288.602L170.997 308.406C170.766 317.11 163.504 324.007 154.796 323.777L134.389 323.251C127.751 323.087 122.197 318.85 120.061 312.971C122.493 314.614 125.352 315.566 128.408 315.665L148.815 316.19C157.523 316.42 164.785 309.523 165.015 300.819L165.541 281.015C165.607 278.946 165.213 276.909 164.49 275.103C168.893 278.059 171.654 283.051 171.522 288.634V288.602Z" fill="black"/>
</g>
<path d="M186.387 289.291L185.822 310.73C185.604 318.98 192.12 325.845 200.375 326.062L222.483 326.645C230.738 326.862 237.606 320.35 237.824 312.1L238.389 290.661C238.607 282.41 232.091 275.546 223.836 275.328L201.728 274.746C193.473 274.528 186.605 281.04 186.387 289.291Z" fill="#707070"/>
<g style="mix-blend-mode:overlay" opacity="0.4">
<path d="M237.989 291.176L237.468 311.111C237.24 319.872 230.043 326.814 221.414 326.583L201.192 326.054C194.614 325.888 189.11 321.624 186.994 315.706C189.404 317.359 192.237 318.318 195.265 318.417L215.487 318.946C224.117 319.177 231.313 312.235 231.541 303.474L232.062 283.539C232.128 281.456 231.737 279.407 231.021 277.588C235.384 280.564 238.12 285.589 237.989 291.209V291.176Z" fill="black"/>
</g>
<path d="M50.9595 350.331L50.394 371.771C50.1764 380.021 56.6919 386.886 64.9468 387.103L87.0549 387.686C95.3098 387.903 102.178 381.391 102.396 373.141L102.961 351.701C103.179 343.451 96.6633 336.587 88.4084 336.369L66.3003 335.787C58.0454 335.569 51.1771 342.081 50.9595 350.331Z" fill="#BF3E00"/>
<g style="mix-blend-mode:overlay" opacity="0.4">
<path d="M102.783 352.444L102.257 372.248C102.027 380.952 94.7645 387.849 86.0562 387.619L65.6489 387.094C59.0108 386.93 53.4573 382.693 51.3213 376.814C53.753 378.456 56.6121 379.408 59.6682 379.507L80.0752 380.033C88.7835 380.262 96.0461 373.365 96.2761 364.662L96.802 344.857C96.8677 342.788 96.4732 340.752 95.7502 338.945C100.154 341.901 102.914 346.893 102.783 352.477V352.444Z" fill="black"/>
</g>
<path d="M117.646 353.115L117.081 374.554C116.863 382.804 123.379 389.669 131.634 389.887L153.742 390.469C161.997 390.687 168.865 384.175 169.083 375.924L169.648 354.485C169.866 346.234 163.35 339.37 155.095 339.153L132.987 338.57C124.732 338.353 117.864 344.864 117.646 353.115Z" fill="#707070"/>
<g style="mix-blend-mode:overlay" opacity="0.4">
<path d="M169.329 355.103L168.803 374.908C168.573 383.611 161.311 390.509 152.602 390.279L132.195 389.753C125.557 389.589 120.003 385.319 117.867 379.473C120.299 381.115 123.158 382.068 126.214 382.166L146.621 382.692C155.33 382.922 162.592 376.025 162.822 367.321L163.348 347.516C163.414 345.447 163.019 343.411 162.296 341.605C166.7 344.561 169.46 349.553 169.329 355.136V355.103Z" fill="black"/>
</g>
<path d="M184 355.678L183.434 377.118C183.216 385.368 189.732 392.233 197.987 392.45L220.095 393.033C228.35 393.25 235.218 386.738 235.436 378.488L236.001 357.048C236.219 348.798 229.703 341.933 221.448 341.716L199.34 341.134C191.085 340.916 184.217 347.428 184 355.678Z" fill="#58A41C"/>
<g style="mix-blend-mode:overlay" opacity="0.4">
<path d="M235.867 357.764L235.341 377.568C235.111 386.272 227.849 393.169 219.14 392.939L198.733 392.414C192.095 392.249 186.541 388.012 184.405 382.133C186.837 383.776 189.696 384.728 192.752 384.827L213.159 385.352C221.868 385.582 229.13 378.685 229.36 369.981L229.886 350.177C229.952 348.108 229.557 346.071 228.834 344.265C233.238 347.221 235.998 352.213 235.867 357.797V357.764Z" fill="black"/>
</g>
<g style="mix-blend-mode:overlay" opacity="0.4">
<path d="M270.981 73.804L270.146 105.717C269.788 118.918 258.757 129.407 245.519 129.049L66.0081 124.341C57.1831 124.103 49.6701 119.156 45.6451 111.945C48.5073 113.316 51.7271 114.12 55.1855 114.21L234.697 118.918C247.904 119.275 258.965 108.787 259.323 95.5861L260.158 63.6132C260.277 59.2031 259.234 55.0612 257.147 51.4557C265.495 55.3592 271.189 63.9707 270.951 73.7742L270.981 73.804Z" fill="black"/>
</g>
<g style="mix-blend-mode:overlay" opacity="0.3">
<path d="M305.8 82.807L298.793 349.229C297.69 391.69 262.301 425.273 219.756 424.17L74.9783 420.356C48.1754 419.641 24.9204 405.308 11.653 384.152C24.7713 396.071 42.153 403.461 61.234 403.937L206.011 407.751C248.556 408.884 283.916 375.331 285.049 332.81L292.055 66.4777C292.473 50.8041 288.15 36.1139 280.458 23.7777C296.557 38.2892 306.396 59.5052 305.8 82.807Z" fill="black"/>
</g>
<g style="mix-blend-mode:overlay" opacity="0.3">
<path d="M62.4622 66.0027C62.2535 74.3163 98.1799 79.2328 143.587 80.4247C188.994 81.6166 226.679 78.637 226.917 70.3234C227.126 62.0099 192.512 59.5962 147.105 58.3745C101.698 57.1826 62.7008 57.6593 62.4622 65.9729V66.0027Z" fill="white"/>
</g>
<g style="mix-blend-mode:overlay" opacity="0.15">
<path d="M58.6148 19.3048C58.4061 27.6184 101.458 26.7243 153.573 28.095C205.688 29.4657 247.13 32.5648 247.338 24.2512C247.547 15.9376 207.805 13.3751 155.69 12.0044C103.574 10.6337 58.8235 10.9614 58.585 19.275L58.6148 19.3048Z" fill="white"/>
</g>
<g style="mix-blend-mode:overlay" opacity="0.15">
<path d="M22.6276 73.5688C14.3095 73.3602 15.2041 116.388 13.8326 168.475C12.4612 220.561 9.3606 261.98 17.6788 262.189C25.9969 262.397 28.5609 222.677 29.9323 170.59C31.3038 118.504 30.9756 73.7773 22.6276 73.5389V73.5688Z" fill="white"/>
</g>
<g style="mix-blend-mode:multiply">
<g filter="url(#filter0_d_138_202103)">
<rect x="52.2964" y="56" width="43.7232" height="59" rx="12.6429" transform="rotate(1.25912 52.2964 56)" fill="#D9D9D9"/>
<rect x="108.122" y="57.2269" width="43.7232" height="59" rx="12.6429" transform="rotate(1.25912 108.122 57.2269)" fill="#D9D9D9"/>
<rect x="163.948" y="58.4541" width="43.7232" height="59" rx="12.6429" transform="rotate(1.25912 163.948 58.4541)" fill="#D9D9D9"/>
<rect x="219.774" y="59.6811" width="43.7232" height="59" rx="12.6429" transform="rotate(1.25912 219.774 59.6811)" fill="#D9D9D9"/>
</g>
</g>
<defs>
<filter id="filter0_d_138_202103" x="48.8928" y="56" width="216.701" height="67.8418" filterUnits="userSpaceOnUse" color-interpolation-filters="sRGB">
<feFlood flood-opacity="0" result="BackgroundImageFix"/>
<feColorMatrix in="SourceAlpha" type="matrix" values="0 0 0 0 0 0 0 0 0 0 0 0 0 0 0 0 0 0 127 0" result="hardAlpha"/>
<feOffset dy="2.10714"/>
<feGaussianBlur stdDeviation="1.05357"/>
<feComposite in2="hardAlpha" operator="out"/>
<feColorMatrix type="matrix" values="0 0 0 0 0 0 0 0 0 0 0 0 0 0 0 0 0 0 0.25 0"/>
<feBlend mode="normal" in2="BackgroundImageFix" result="effect1_dropShadow_138_202103"/>
<feBlend mode="normal" in="SourceGraphic" in2="effect1_dropShadow_138_202103" result="shape"/>
</filter>
</defs>
</svg>
