<svg width="69" height="93" viewBox="0 0 69 93" fill="none" xmlns="http://www.w3.org/2000/svg">
<g clip-path="url(#clip0_3_172849)">
<path d="M8.86243 85.1304H7.90771V88.5926H11.2329C10.1191 87.7253 9.28234 86.5213 8.86243 85.1304Z" fill="#4F5656"/>
<path d="M7.90795 82.2553C7.90795 81.4089 7.2218 80.7231 6.37498 80.7231H4.76904C5.61586 80.7231 6.30201 81.4089 6.30201 82.2553V91.4667C6.30201 92.313 5.61586 92.9988 4.76904 92.9988H6.37498C7.2218 92.9988 7.90795 92.313 7.90795 91.4667V82.2553Z" fill="#5A6666"/>
<path d="M3.51637 80.7231H4.76758C5.61363 80.7231 6.30056 81.4097 6.30056 82.2553V91.4667C6.30056 92.3123 5.61363 92.9988 4.76758 92.9988H3.51637C2.67032 92.9988 1.9834 92.3123 1.9834 91.4667V82.2553C1.9834 81.4097 2.67032 80.7231 3.51637 80.7231Z" fill="#6D797A"/>
<path d="M57.2891 88.5926H60.5832V85.1304H59.6595C59.2396 86.5213 58.4029 87.7253 57.2891 88.5926Z" fill="#4F5656"/>
<path d="M60.583 91.4674C60.583 92.3138 61.2692 92.9996 62.116 92.9996H63.7219C62.8751 92.9996 62.1889 92.3138 62.1889 91.4674V82.256C62.1889 81.4097 62.8751 80.7239 63.7219 80.7239H62.116C61.2692 80.7239 60.583 81.4097 60.583 82.256V91.4674Z" fill="#5A6666"/>
<path d="M64.9739 80.7231H63.7219C62.8753 80.7231 62.189 81.4091 62.189 82.2553V91.4675C62.189 92.3136 62.8753 92.9996 63.7219 92.9996H64.9739C65.8206 92.9996 66.5069 92.3136 66.5069 91.4675V82.2553C66.5069 81.4091 65.8206 80.7231 64.9739 80.7231Z" fill="#6D797A"/>
<path d="M59.8734 13.4297H8.65278C6.64245 13.4297 4.99694 14.9021 4.69189 16.7988L8.57051 83.5338C8.6031 84.0877 8.70711 84.6199 8.86158 85.1303C9.28149 86.5213 10.1182 87.7252 11.2321 88.5925C12.4095 89.5103 13.8897 90.0549 15.4902 90.0549H53.0298C54.631 90.0549 56.1105 89.5103 57.2879 88.5925C58.4018 87.7252 59.2385 86.5213 59.6584 85.1303C59.8121 84.6206 59.9169 84.0877 59.9495 83.5338L63.8296 16.7748C63.5145 14.8897 61.8752 13.4297 59.8734 13.4297ZM44.4234 87.0922H15.5973C12.8326 87.0922 10.5475 84.9387 10.3837 82.1809L6.77906 23.1523C6.6246 20.5481 8.69625 18.3519 11.3066 18.3519H30.3938C42.9812 18.3519 53.0849 28.7363 52.7348 41.3114L51.4083 80.3043C51.3027 84.0838 48.2073 87.093 44.4242 87.093L44.4234 87.0922Z" fill="#68AA00"/>
<path d="M35.4075 10.8286H4.34521L4.41895 12.0923L4.60213 15.2505L4.69217 16.7989C4.99721 14.9021 6.64195 13.4297 8.65306 13.4297H59.8745C61.8763 13.4297 63.5163 14.8897 63.8307 16.7748L63.9192 15.2505L64.1024 12.0923L64.1761 10.8286H35.4075ZM63.9238 15.0907C63.9269 14.574 63.7966 14.086 63.566 13.6594C63.7973 14.086 63.9269 14.574 63.9238 15.0907Z" fill="#559E00"/>
<path d="M59.6384 0.000488281H2.34719C1.05096 0.000488281 0 1.05087 0 2.34639V5.28421C0 3.42238 1.51046 1.91274 3.37331 1.91274H65.6259C67.4888 1.91274 68.9992 3.42238 68.9992 5.28498V2.34639C68.9992 1.05087 67.9483 0.000488281 66.652 0.000488281H59.6376H59.6384Z" fill="#ACD832"/>
<path d="M65.6259 1.91264H3.37331C1.51046 1.91264 0 3.42228 0 5.28411V8.26924C0 8.87201 0.488998 9.36151 1.09287 9.36151H2.08639V7.19015C2.08639 5.32755 3.59685 3.81869 5.4597 3.81869H43.7452C45.6088 3.81869 47.1185 5.32832 47.1185 7.19015V9.36151H67.9063C68.5102 9.36151 68.9992 8.87278 68.9992 8.26924V5.28411C68.9992 3.4215 67.4888 1.91187 65.6259 1.91187V1.91264Z" fill="#8EC614"/>
<path d="M47.1185 9.36143V7.19007C47.1185 5.32746 45.6081 3.8186 43.7452 3.8186H5.45974C3.59689 3.8186 2.08643 5.32824 2.08643 7.19007V9.36143H47.1193H47.1185Z" fill="#9ED113"/>
<path d="M67.9071 9.36156H1.09287C0.489774 9.36156 0 8.87283 0 8.26929V9.73625C0 10.339 0.488998 10.8285 1.09287 10.8285H67.9071C68.511 10.8285 69 10.3398 69 9.73625V8.26929C69 8.87205 68.511 9.36156 67.9071 9.36156Z" fill="#79B700"/>
<path d="M52.7348 41.3113C53.0856 28.7362 42.9812 18.3518 30.3938 18.3518H11.3065C8.69621 18.3518 6.62534 20.548 6.77903 23.1522L10.3836 82.1808C10.5466 84.9386 12.8325 87.0921 15.5973 87.0921H44.4241C48.2073 87.0921 51.3027 84.0829 51.4083 80.3034L52.7348 41.3105V41.3113ZM43.9903 47.2156L42.9059 79.0886C42.8198 82.1777 40.2894 84.6376 37.1971 84.6376H16.7546C14.4951 84.6376 12.6268 82.8774 12.4933 80.623L9.54692 32.3722C9.42117 30.2435 11.114 28.4484 13.2478 28.4484H25.7933C36.0824 28.4484 44.2782 36.9367 43.991 47.2156H43.9903Z" fill="#79B700"/>
<path d="M25.7925 28.4475H13.247C11.1133 28.4475 9.42039 30.2426 9.54613 32.3713L12.4925 80.6222C12.626 82.8766 14.4943 84.6368 16.7538 84.6368H37.1963C40.2886 84.6368 42.819 82.1768 42.9051 79.0877L43.9895 47.2148C44.2759 36.9351 36.0801 28.4475 25.7917 28.4475H25.7925Z" fill="#8BC400"/>
</g>
<mask id="mask0_3_172849" style="mask-type:alpha" maskUnits="userSpaceOnUse" x="19" y="32" width="30" height="30">
<rect x="19" y="32" width="30" height="30" fill="#D9D9D9"/>
</mask>
<g mask="url(#mask0_3_172849)">
<path d="M30.5 43.4998L33.2812 38.906L31.4375 35.8435C31.1875 35.4268 30.8281 35.2185 30.3594 35.2185C29.8906 35.2185 29.5312 35.4268 29.2812 35.8435L26.2188 40.9373L30.5 43.4998ZM42.5938 51.9998L39.8125 47.3748L44.1562 44.8748L46.1562 48.2185C46.3854 48.5727 46.5104 48.9685 46.5312 49.406C46.5521 49.8435 46.4583 50.2498 46.25 50.6248C46.0417 51.0414 45.7344 51.3748 45.3281 51.6248C44.9219 51.8748 44.4792 51.9998 44 51.9998H42.5938ZM39 60.7498L34 55.7498L39 50.7498V53.2498H44.9375L43.125 56.8748C42.8958 57.2914 42.5833 57.6248 42.1875 57.8748C41.7917 58.1248 41.3542 58.2498 40.875 58.2498H39V60.7498ZM26.9062 58.2498C26.4896 58.2498 26.1094 58.1404 25.7656 57.9216C25.4219 57.7029 25.1667 57.4164 25 57.0623C24.8333 56.7289 24.7552 56.38 24.7656 56.0154C24.776 55.6508 24.875 55.3123 25.0625 54.9998L26.125 53.2498H31.5V58.2498H26.9062ZM23.8125 54.6873L21.7812 50.6248C21.5938 50.2498 21.5052 49.8487 21.5156 49.4216C21.526 48.9945 21.6458 48.5935 21.875 48.2185L22.375 47.3748L20.25 46.0935L27.0938 44.3748L28.8125 51.2498L26.6562 49.9373L23.8125 54.6873ZM40.6875 43.9998L33.8438 42.281L36 40.9998L32.0937 34.4998H36.5C36.9375 34.4998 37.349 34.6091 37.7344 34.8279C38.1198 35.0466 38.4271 35.3435 38.6562 35.7185L40.2812 38.4373L42.4062 37.1248L40.6875 43.9998Z" fill="#1C1B1F"/>
</g>
<defs>
<clipPath id="clip0_3_172849">
<rect width="69" height="93" fill="white"/>
</clipPath>
</defs>
</svg>
