<svg width="102" height="146" viewBox="0 0 102 146" fill="none" xmlns="http://www.w3.org/2000/svg">
<g clip-path="url(#clip0_446_203599)">
<path d="M89.3308 34.5444C84.1035 37.5179 78.3552 39.5133 73.2349 42.6685C59.1317 51.3587 51.2775 69.0939 54.0443 85.4571C55.3058 92.9194 58.5443 100.028 58.9317 107.587C59.5809 120.226 51.8962 131.684 52.2695 144.093C52.6023 144.553 52.9421 145.008 53.2858 145.462C63.92 128.453 65.8095 107.309 65.4791 87.1745C65.387 81.5634 65.1979 75.7018 67.6093 70.6374C70.3213 64.9418 75.8345 61.233 80.811 57.3675C86.3594 53.0573 91.5562 48.1816 95.4743 42.3427C99.3924 36.5038 101.984 29.6296 102 22.5925C100.319 28.3774 94.558 31.5709 89.3308 34.5444Z" fill="#798E00"/>
<g style="mix-blend-mode:overlay" opacity="0.2">
<path d="M101.443 24.1078C101.466 23.9089 101.485 23.7092 101.505 23.5095C101.218 24.5385 100.679 25.4556 100.023 26.5135C100.579 25.7672 101.059 24.9685 101.443 24.1078Z" fill="white"/>
</g>
<g style="mix-blend-mode:overlay" opacity="0.2">
<path d="M101.638 20.666C101.644 21.6175 101.595 22.5659 101.505 23.5095C101.736 22.6802 101.804 21.778 101.638 20.666Z" fill="white"/>
</g>
<g style="mix-blend-mode:overlay" opacity="0.2">
<path d="M101.424 24.2659C98.5632 31.8731 94.4365 37.665 88.093 42.8493C80.5067 49.0492 71.7073 54.0196 65.7606 61.814C60.5771 68.6083 57.9424 77.311 58.4837 85.847C58.9016 92.4291 61.1208 98.7809 61.7207 105.349C62.5955 114.921 60.0608 124.059 56.6558 133.117C56.6285 133.391 56.6051 133.664 56.5762 133.937C61.4363 121.369 65.5997 107.442 62.526 94.3203C61.1989 88.656 60.6232 82.7537 61.5004 77.0025C62.3776 71.2505 64.7772 65.645 68.8234 61.4733C72.4705 57.712 77.2322 55.2875 81.6065 52.4095C87.0525 48.826 92.0283 44.4131 95.6988 39.0175C98.6928 34.6156 100.784 29.5285 101.428 24.2573C101.428 24.2605 101.425 24.2628 101.424 24.2659H101.424Z" fill="white"/>
</g>
<g style="mix-blend-mode:overlay" opacity="0.2">
<path d="M89.3309 34.5444C84.1037 37.5179 78.3554 39.5132 73.2351 42.6684C59.1319 51.3586 51.2777 69.0938 54.0444 85.457C55.3059 92.9193 58.5445 100.028 58.9319 107.587C59.5803 120.223 51.901 131.678 52.2697 144.083C57.4564 131.375 62.9492 118.79 61.7205 105.349C61.1199 98.781 58.9007 92.4291 58.4836 85.847C57.9415 77.3103 60.577 68.6075 65.7605 61.814C71.7064 54.0205 80.5066 49.0492 88.0929 42.8493C94.4371 37.6651 98.5631 31.8724 101.424 24.266C101.567 23.8831 101.763 23.5119 101.986 23.1485C101.99 22.9629 101.999 22.7781 102 22.5933C100.319 28.3781 94.5582 31.5717 89.3309 34.5452V34.5444Z" fill="#04004C"/>
</g>
<g style="mix-blend-mode:overlay" opacity="0.2">
<path d="M83.4186 42.6158C77.1501 45.8861 70.5035 48.7969 65.5035 53.8033C61.537 57.7745 58.8257 62.889 57.1845 68.2636C54.649 76.5701 54.6123 85.6252 57.0814 93.9521C57.8727 96.6209 58.9139 99.217 59.5365 101.93C60.8449 107.632 60.2489 113.579 59.6459 119.4C61.4979 112.391 60.9683 105.12 60.5012 97.8269C59.6779 93.8518 58.7405 89.8924 58.4835 85.8468C57.9414 77.3101 60.577 68.6074 65.7605 61.8138C71.7064 54.0203 80.5066 49.0491 88.0928 42.8491C92.6718 39.1066 96.0915 35.0438 98.7177 30.2144C98.7114 30.2198 98.7044 30.2253 98.6982 30.2316C95.2159 35.8262 89.2989 39.5483 83.4186 42.6158Z" fill="#04004C"/>
</g>
<g style="mix-blend-mode:overlay" opacity="0.2">
<path d="M95.4754 42.3426C96.0557 41.4773 96.6033 40.5869 97.1212 39.6792C95.0864 38.6557 92.9914 37.7387 90.8925 36.8827C89.7638 36.4222 88.6257 35.9767 87.479 35.5491C82.7688 37.9987 77.7571 39.882 73.2352 42.6684C66.4324 46.8604 61.0895 53.159 57.6854 60.3903C57.6236 62.7741 57.2503 65.1265 56.5059 65.432C63.9976 62.359 70.1185 56.0823 73.0141 48.5041C73.4492 49.2927 73.8843 50.0806 74.3194 50.8692C76.4105 48.9764 77.7501 46.2699 77.9876 43.4554C78.8827 44.2385 79.8021 45.0357 80.9082 45.4704C82.0143 45.9042 83.364 45.9105 84.3029 45.1806C85.1114 44.5518 85.4723 43.5188 85.7925 42.5446C88.5444 43.1469 91.2964 43.7491 94.0483 44.3513C94.5396 43.6943 95.0169 43.0263 95.4754 42.3434V42.3426Z" fill="#04004C"/>
</g>
<g style="mix-blend-mode:overlay" opacity="0.2">
<path d="M98.6972 30.2317C98.7597 30.1306 98.816 30.0241 98.8769 29.9223C99.0011 29.6897 99.123 29.454 99.2433 29.2175L96.7319 31.9013C97.3873 31.3453 98.0419 30.7885 98.6972 30.2324V30.2317Z" fill="#04004C"/>
</g>
<path d="M15.9318 65.266C9.8945 63.4139 2.66988 66.9896 0 72.726C2.68394 71.4197 5.61863 70.3437 8.53613 69.7165C11.4528 69.09 14.6367 69.2129 17.2386 70.6773C18.5587 71.4197 19.6734 72.4714 20.874 73.3955C23.9469 75.7637 27.9689 77.095 31.8066 77.6369C31.013 77.3745 25.4795 68.1949 15.9326 65.266H15.9318Z" fill="#8C9B00"/>
<g style="mix-blend-mode:overlay" opacity="0.2">
<path d="M28.8866 77.0731C28.828 77.0073 28.7695 76.9407 28.7101 76.8749C25.3153 73.0839 21.5878 69.1965 16.6948 67.819C13.468 66.9106 9.95842 67.2066 6.83001 68.4118C4.39447 69.3508 2.29715 70.8199 0.370117 72.5521C2.9533 71.3258 5.75128 70.3156 8.53521 69.7173C11.4519 69.0908 14.6358 69.2137 17.2377 70.6781C18.5578 71.4205 19.6725 72.4723 20.8731 73.3963C23.1711 75.167 26.0004 76.3581 28.8866 77.0731Z" fill="#04004C"/>
</g>
<g style="mix-blend-mode:overlay" opacity="0.2">
<path d="M30.324 77.3892C28.9149 75.4816 27.4753 73.6029 25.8122 71.9161C22.6088 68.6661 18.2736 66.1155 13.7314 66.4914C13.2385 66.5321 12.6495 66.6895 12.5167 67.1665C12.4542 67.3912 12.5167 67.6316 12.5948 67.8517C12.805 68.4461 13.1197 68.9809 13.5033 69.4696C14.8132 69.6427 16.0825 70.0272 17.2378 70.6772C18.5579 71.4196 19.6726 72.4713 20.8732 73.3954C23.5524 75.4596 26.9527 76.7361 30.324 77.3885V77.3892Z" fill="#04004C"/>
</g>
<path d="M53.3202 126.244C52.8398 130.28 51.3509 134.114 50.6878 138.112C51.1658 139.054 51.6579 139.988 52.1461 140.923C53.1163 137.159 58.1123 126.38 53.3498 110.999C51.0502 103.574 48.6068 96.0518 44.0154 89.7485C41.6509 86.5025 38.892 83.5548 36.0323 80.7466C33.3007 78.0652 30.4348 75.2797 26.8775 73.7346C21.6143 71.4479 14.9591 73.5474 13.8351 79.6862C13.225 83.0184 14.1889 86.6505 15.8035 89.5707C16.0824 90.0751 16.8776 91.5105 17.2471 90.3272C17.3697 89.9349 16.9955 89.1659 16.8776 88.8127C16.5901 87.9536 16.3308 87.0898 16.0918 86.2151C15.2591 83.1688 14.8795 79.5132 17.0065 76.8772C19.2295 74.1214 23.0914 74.0643 26.1464 75.2938C29.4826 76.636 32.1056 79.3205 34.5997 81.821C37.5391 84.7687 40.4238 87.8001 42.8593 91.1886C47.4523 97.5789 50.3495 105.056 52.068 112.705C53.0577 117.112 53.8599 121.721 53.3217 126.246L53.3202 126.244Z" fill="#7D9B00"/>
<path d="M60.526 105.476C60.4932 113.03 59.3544 120.524 57.5375 127.846C56.1478 133.444 54.2778 138.875 52.4398 144.325C52.8507 144.888 53.271 145.445 53.6967 145.999C57.9405 136.092 60.7283 125.316 61.9766 114.693C63.3521 102.987 62.5015 90.8465 58.1913 79.7983C53.9373 68.895 45.6394 60.5861 40.3473 50.289C34.8778 39.6472 34.0936 26.8621 38.0945 15.5938C40.0153 10.1833 43.4538 4.07264 49.2474 2.17045C53.9708 0.619882 60.494 2.9935 61.6173 8.24351C61.7055 8.65699 62.4093 8.57398 62.364 8.14249C61.9368 4.02252 58.7974 1.22131 54.8715 0.30507C50.2394 -0.775629 45.7847 1.10776 42.4907 4.38353C38.621 8.23254 36.351 13.6321 34.9911 18.8422C33.4812 24.6247 33.1359 30.7056 33.9288 36.6259C34.7286 42.5948 36.7119 48.2669 39.6895 53.4911C42.7648 58.8868 46.64 63.7609 50.0598 68.931C57.2969 79.8719 60.5815 92.3869 60.5253 105.474L60.526 105.476Z" fill="#7D9B00"/>
<path d="M70.9018 41.4538C72.2172 44.8243 74.3965 48.1541 75.5323 46.3937C76.668 44.6332 77.0234 40.8116 76.3618 38.8225C77.7499 40.4514 79.3856 41.868 81.1939 43.009C81.8734 43.4382 82.6936 43.8407 83.4497 43.5698C84.359 43.244 84.6956 42.063 84.4551 41.1257C84.2145 40.1883 83.5669 39.4216 83.0123 38.6291C81.8164 36.9188 81.0041 34.9743 80.2011 33.0463C78.7529 29.5708 76.6321 27.4219 73.8161 24.9285C71.5603 22.9315 69.006 21.0607 67.7757 18.3072C67.3039 18.651 66.597 18.6205 66.1564 18.2375C65.9666 24.3411 66.8766 30.4776 68.8302 36.2617C70.03 39.8147 71.7688 37.8052 70.9018 41.4538Z" fill="#BFD7DB"/>
<path d="M67.6265 34.3532C68.3185 35.2976 69.2692 36.112 70.412 36.3579C71.5547 36.6038 72.8897 36.1528 73.431 35.1143C73.9176 34.1809 73.6849 33.0414 73.3435 32.0453C73.6817 32.3711 73.8903 32.6836 74.2324 33.0054C74.6082 33.3594 75.1057 33.581 75.6189 33.6233C75.904 33.6468 76.204 33.6131 76.4454 33.4596C76.8226 33.22 76.9796 32.7313 76.9507 32.285C76.9226 31.8378 76.7414 31.4173 76.5742 31.0022C76.4071 30.5872 76.2493 30.1525 76.2712 29.7046C77.6772 31.5269 79.9471 33.2591 80.5142 35.5787C80.697 36.3258 80.5111 37.2201 79.8729 37.6477C79.4761 37.9132 78.9723 37.9618 78.4966 37.9289C77.1632 37.8365 75.8837 37.1403 75.0792 36.0713C75.1651 37.3071 75.5369 38.6587 74.8776 39.7065C74.184 40.8092 72.5413 41.0096 71.4016 40.38C70.262 39.7512 69.5785 38.5099 69.241 37.2499C69.22 37.1716 69.3309 37.2867 69.291 37.2162C68.6716 36.1261 68.2459 35.4433 67.6265 34.3532Z" fill="#A5C61E"/>
<g style="mix-blend-mode:overlay" opacity="0.4">
<path d="M68.8302 36.2617C66.8766 30.4776 65.9666 24.3411 66.1564 18.2375C66.597 18.6205 67.3039 18.6503 67.7757 18.3072C69.0052 21.0607 71.5603 22.9315 73.8161 24.9285C76.6321 27.4219 78.7529 29.57 80.2011 33.0463C81.0041 34.9735 81.8164 36.9188 83.0123 38.6291C83.5661 39.4216 84.2145 40.1883 84.4551 41.1257C84.509 41.3371 84.53 41.5611 84.5254 41.7842C79.3582 37.694 74.6504 33.022 70.5261 27.8769C73.7138 33.4026 74.8222 40.063 73.7193 46.3193C72.739 45.3881 71.672 43.4288 70.9018 41.4538C71.7696 37.8052 70.03 39.8147 68.8302 36.2617Z" fill="#04004C"/>
</g>
<g style="mix-blend-mode:overlay" opacity="0.4">
<path d="M67.7768 18.3072C69.0063 21.0607 71.5614 22.9315 73.8173 24.9285C74.8179 25.8142 75.7287 26.6568 76.5543 27.5308C75.874 27.1729 75.1795 26.8495 74.4633 26.5816C73.3298 26.158 72.123 25.8408 70.9193 25.9598C69.7148 26.0789 68.5087 26.7007 67.9385 27.7704C67.4503 28.6874 67.4769 29.7955 67.3386 30.8332C66.4341 26.703 66.0256 22.464 66.1576 18.2375C66.5981 18.6205 67.305 18.6503 67.7768 18.3072Z" fill="#04004C"/>
</g>
<path d="M52.2729 56.5296C47.8486 49.6021 47.4526 40.2791 51.2738 33.0001C52.3088 31.0282 53.6453 29.1863 55.3818 27.7947C57.1245 26.3984 59.2312 25.483 60.852 23.9473C62.4736 22.4116 63.5242 19.8774 62.426 17.9314C63.2813 18.3966 64.535 18.6926 65.3903 19.1578C64.4858 23.107 63.5609 27.1111 61.6409 30.6766C60.5481 32.7056 59.1296 34.6008 58.5149 36.8233C57.2229 41.4914 59.6608 46.8785 57.3838 51.1519C56.159 53.4519 53.5907 54.2828 52.2729 56.5303V56.5296Z" fill="#BFD7DB"/>
<g style="mix-blend-mode:overlay" opacity="0.4">
<path d="M56.9848 32.8042C58.8728 31.0438 61.2122 29.7274 62.7073 27.6208C64.4195 25.2072 63.8751 21.8939 65.2889 19.6033C64.4156 23.4076 63.49 27.2449 61.6419 30.6765C60.5491 32.7056 59.1305 34.6007 58.5158 36.8232C57.2238 41.4913 59.6617 46.8784 57.3847 51.1518C56.2693 53.2459 54.0423 54.1261 52.6574 55.9633C52.0762 54.0361 51.6466 52.0696 51.4302 50.0602C50.76 43.8281 52.4066 37.0738 56.9848 32.805V32.8042Z" fill="#04004C"/>
</g>
<g style="mix-blend-mode:overlay" opacity="0.4">
<path d="M53.7146 40.7889C54.5442 37.4779 56.572 34.6219 58.0819 31.5615C59.138 29.4212 59.8332 27.1643 59.8387 24.7876C60.1894 24.5244 60.5323 24.2503 60.8518 23.9473C62.4211 22.4609 63.4498 20.0419 62.5195 18.1232C62.5289 18.1107 62.5374 18.0998 62.5468 18.088C62.5648 18.0653 62.5835 18.0418 62.6015 18.0183C63.4459 18.4341 64.5902 18.7223 65.3893 19.1577C64.4848 23.107 63.5599 27.1111 61.6399 30.6766C60.5471 32.7056 59.1286 34.6008 58.5139 36.8232C57.2219 41.4914 59.6598 46.8784 57.3828 51.1519C56.8095 52.2287 55.9409 52.9836 55.0441 53.7127C54.8363 53.0713 54.6333 52.4292 54.4466 51.7815C53.417 48.2113 52.8101 44.3936 53.7131 40.7897L53.7146 40.7889Z" fill="#04004C"/>
</g>
<path d="M59.831 60.4944C62.0267 57.9469 64.7278 55.8975 67.1696 53.5865C69.6114 51.2756 71.8603 48.5824 72.768 45.3419C73.471 42.8328 73.3069 40.088 72.3102 37.6807C71.6533 36.0941 70.6597 34.6751 69.8177 33.1794C67.7453 29.4971 66.5893 25.3012 66.483 21.0747C65.6183 20.5642 65.1895 19.8045 64.3248 19.2939C64.9036 21.3567 64.3553 23.5885 63.4179 25.5142C62.4806 27.4399 61.1706 29.1573 60.0989 31.0117C56.8721 36.5937 55.9207 43.4546 57.5064 49.707C58.5921 53.9883 60.6793 56.1606 59.831 60.4952V60.4944Z" fill="#CFE1E5"/>
<g style="mix-blend-mode:overlay" opacity="0.2">
<path d="M57.5073 49.7063C55.9217 43.4531 56.8731 36.593 60.0999 31.011C61.1716 29.1565 62.4815 27.44 63.4189 25.5135C64.3562 23.5878 64.9046 21.3559 64.3258 19.2932C65.1124 19.7584 65.5428 20.4272 66.2645 20.9291C66.0403 22.9417 65.7013 24.898 65.3889 26.6631C64.0524 34.2162 61.0036 41.5165 61.0341 49.2803C61.0474 52.6813 61.6606 56.167 60.7959 59.4404C60.4662 59.7842 60.1421 60.1334 59.8312 60.4945C60.6795 56.1591 58.5923 53.9876 57.5066 49.7063H57.5073Z" fill="#04004C"/>
</g>
<g style="mix-blend-mode:overlay" opacity="0.2">
<path d="M60.0996 31.011C61.1713 29.1565 62.4812 27.44 63.4186 25.5135C64.3559 23.5878 64.9043 21.3559 64.3255 19.2932C64.3903 19.3316 64.4481 19.3731 64.5075 19.4138C64.8746 22.9817 64.3684 26.6427 62.9679 29.9451C62.1336 31.9108 61.0018 33.755 60.3745 35.7974C59.7317 37.8883 59.645 40.1483 60.1246 42.2823C60.6714 44.7139 62.3602 47.241 64.8426 47.3906C67.6601 47.5597 69.6551 44.6794 70.6315 42.0239C71.2954 40.2173 71.5837 38.348 71.7274 36.452C71.9391 36.853 72.1375 37.261 72.3117 37.6808C73.3084 40.088 73.4717 42.8329 72.7694 45.342C71.8618 48.5833 69.6129 51.2756 67.1711 53.5866C64.7293 55.8976 62.0282 57.947 59.8324 60.4945C60.6807 56.1591 58.5936 53.9876 57.5078 49.7063C55.9221 43.4531 56.8735 36.593 60.1004 31.011H60.0996Z" fill="#04004C"/>
</g>
<path d="M68.3463 21.2683C73.3939 24.2958 75.0608 30.7354 78.6712 35.391C81.5574 39.1131 85.8341 41.724 90.4576 42.5855C92.3963 42.9473 94.3897 43.0131 96.2972 43.5166C98.2047 44.0201 100.094 45.0609 101.01 46.8119C100.179 42.3928 98.5859 38.0677 96.4667 34.1043C95.445 32.1928 94.3843 30.271 92.9001 28.693C90.6364 26.2857 87.5252 24.837 84.3515 23.9301C81.1778 23.0233 77.8885 22.6066 74.6578 21.9324C72.0652 21.3912 69.129 20.3458 68.2846 17.8289C68.0768 19.4523 67.6253 19.7984 68.3463 21.2675V21.2683Z" fill="#CFE1E5"/>
<g style="mix-blend-mode:overlay" opacity="0.2">
<path d="M78.6708 35.3909C77.1047 33.3713 75.9041 31.0157 74.6348 28.7493C74.8082 28.9263 74.9808 29.1025 75.1542 29.2795C77.2437 31.4111 79.3629 33.5655 81.9156 35.109C84.787 36.8452 88.1568 37.7434 91.5094 37.6667C92.2632 37.6494 93.0521 37.5719 93.6809 37.1561C94.5488 36.582 94.9284 35.4575 94.8628 34.4167C94.7964 33.3768 94.3543 32.4002 93.8739 31.4754C92.9967 29.9538 92.1023 28.4815 91.0806 27.0813C91.7312 27.5653 92.3421 28.1001 92.9014 28.6937C94.3855 30.2717 95.4463 32.1935 96.468 34.1051C98.5872 38.0684 100.181 42.3935 101.011 46.8127C100.096 45.0616 98.2052 44.0209 96.2985 43.5173C94.391 43.0138 92.3975 42.948 90.4588 42.5862C85.8353 41.724 81.5587 39.1131 78.6724 35.3917L78.6708 35.3909Z" fill="#04004C"/>
</g>
<g style="mix-blend-mode:overlay" opacity="0.2">
<path d="M84.0224 27.219C81.1877 25.8901 78.1616 25.0138 75.3074 23.7271C73.5451 22.9323 70.4902 21.518 69.4302 19.6111C70.744 20.8876 72.7875 21.5438 74.6567 21.9338C77.8874 22.6081 81.1767 23.0247 84.3504 23.9315C87.5241 24.8384 90.6346 26.2879 92.8991 28.6944C94.3832 30.2724 95.444 32.1942 96.4657 34.1058C98.431 37.7817 99.9354 41.7693 100.807 45.8541C97.5944 37.8263 91.7891 30.8621 84.0224 27.2198V27.219Z" fill="#04004C"/>
</g>
<path d="M71.5597 20.9863C70.6098 21.381 69.5717 21.0896 68.6758 20.583C68.5961 21.2619 68.6664 21.9589 68.8812 22.6081C67.3088 22.63 65.7403 21.9503 64.6788 20.7881C63.9406 22.0599 62.8361 22.9386 61.4035 23.2589C61.873 22.2847 61.7589 21.1405 61.6128 20.0685C61.3941 18.4607 59.114 11.7479 58.7992 10.1566C58.4344 8.3139 58.0056 6.40858 58.4266 4.57766C58.6477 3.61834 59.2406 2.60577 60.2099 2.44758C60.8403 2.345 61.4683 2.63632 61.9987 2.9942C63.5219 4.02243 64.5624 5.6098 65.5622 7.15332C67.2674 9.78694 70.9512 17.9063 71.5605 20.9855L71.5597 20.9863Z" fill="#81A50F"/>
<g style="mix-blend-mode:overlay" opacity="0.2">
<path d="M64.6778 20.7881C63.9396 22.0599 62.8351 22.9385 61.4025 23.2588C61.872 22.2846 61.7579 21.1405 61.6119 20.0684C61.5517 19.6259 61.3353 18.7966 61.0463 17.7942C61.7009 18.2719 62.4492 18.6165 63.2467 18.7724C64.113 18.9415 65.0621 18.8953 65.8049 18.4184C67.1735 17.5389 67.3484 15.6046 67.1235 13.9906C66.7056 10.9952 65.362 8.15253 63.3858 5.87445C62.55 4.91121 61.2221 3.33715 59.9777 2.92054C59.8075 2.86337 59.62 2.82969 59.4263 2.8156C59.6528 2.63235 59.9113 2.49609 60.209 2.44832C60.8393 2.34573 61.4673 2.63705 61.9977 2.99493C63.5209 4.02316 64.5614 5.61054 65.5612 7.15406C67.2664 9.78767 70.9502 17.907 71.5595 20.9862C70.6096 21.3809 69.5715 21.0896 68.6756 20.5829C68.5959 21.2619 68.6662 21.9588 68.881 22.608C67.3086 22.63 65.7401 21.9502 64.6785 20.7881H64.6778Z" fill="#04004C"/>
</g>
<g style="mix-blend-mode:overlay" opacity="0.6">
<path d="M62.7166 41.258C62.8705 42.3818 63.1657 43.5932 64.0617 44.2863C65.3591 45.291 67.3908 44.6653 68.3868 43.3599C69.3835 42.0544 69.5796 40.3136 69.5842 38.6698C69.5921 36.0918 68.4633 30.8105 66.6816 28.7791C66.7824 31.5889 67.4815 32.9812 67.3112 34.5663C67.0143 37.3354 65.6841 40.5039 62.7158 41.2572L62.7166 41.258Z" fill="white"/>
</g>
<g style="mix-blend-mode:overlay" opacity="0.3">
<path d="M76.6883 26.9043C77.8857 29.3265 79.5558 31.5403 81.7039 33.1739C83.852 34.8075 86.4953 35.8357 89.191 35.8537C90.1502 35.86 91.2414 35.6627 91.7538 34.8498C90.4814 33.141 89.0371 31.5623 87.1803 30.5223C87.7474 31.2059 88.0966 32.0689 88.1622 32.9562C87.1803 32.964 86.2203 32.6657 85.3088 32.2984C81.9296 30.9366 79.3386 29.4079 76.6875 26.9043H76.6883Z" fill="white"/>
</g>
<path d="M39.2755 130.298C39.2755 130.298 32.1103 127.768 29.2568 118.349C26.4042 108.93 20.7168 100.797 20.7168 100.797L22.643 99.8999L35.6285 114.284L39.1755 119.472C39.1755 119.472 40.4831 124.779 39.2755 130.298Z" fill="#B0C8CC"/>
<g style="mix-blend-mode:overlay" opacity="0.2">
<path d="M38.7795 118.893L35.6285 114.284L26.6471 104.336C24.9122 102.956 23.0781 101.702 21.1597 100.592L20.7168 100.798C20.7168 100.798 26.4042 108.929 29.2568 118.349C31.1925 124.738 35.1106 127.955 37.4313 129.366C35.7831 126.611 34.656 123.544 34.1521 120.371C34.01 119.478 34.0467 118.329 34.8723 117.963C35.6011 117.639 36.4065 118.183 36.9884 118.729C37.9343 119.617 38.792 120.597 39.552 121.649C39.4427 120.796 39.3208 120.151 39.2458 119.793C39.0935 119.491 38.9381 119.191 38.7795 118.894V118.893Z" fill="#04004C"/>
</g>
<g style="mix-blend-mode:overlay" opacity="0.2">
<path d="M22.0073 100.197L21.9019 100.246C22.4611 101.403 22.758 103.151 23.0673 104.545C24.5975 107.169 26.5964 110.953 28.1852 115.193C29.0718 116.352 30.063 117.421 31.198 118.317C34.1046 120.614 38.0227 122.046 39.5389 125.431C39.4389 122.812 38.9093 120.218 38.0055 117.76L35.6286 114.284L26.1832 103.821C24.6788 102.726 23.2235 101.584 22.0073 100.197Z" fill="#04004C"/>
</g>
<path d="M39.2759 130.298C40.4304 125.356 41.549 119.978 39.4415 115.363C36.2623 108.399 27.1435 106.075 23.1402 99.553C22.5536 99.8803 21.8654 99.773 21.2788 100.1C23.8714 105.765 27.9066 110.759 32.8949 114.478C34.0775 115.36 35.3305 116.188 36.2577 117.337C37.0474 118.315 37.5653 119.485 37.9738 120.674C39.1134 123.99 39.7618 126.824 39.2751 130.297L39.2759 130.298Z" fill="#CFE1E5"/>
<g style="mix-blend-mode:overlay" opacity="0.2">
<path d="M36.2581 117.337C37.0479 118.315 37.5657 119.485 37.9743 120.674C38.8632 123.261 39.4506 125.556 39.4357 128.09C39.6107 124.675 39.6443 121.147 38.2266 118.053C36.6182 114.544 33.3914 112.116 30.3974 109.687C28.1696 107.867 25.9098 105.898 24.5038 103.339C23.807 102.072 23.0571 100.927 22.2534 99.8186C21.9206 99.8766 21.5863 99.929 21.2793 100.1C23.8718 105.764 27.9071 110.759 32.8954 114.478C34.078 115.36 35.3309 116.187 36.2581 117.336V117.337Z" fill="white"/>
</g>
<g style="mix-blend-mode:overlay" opacity="0.2">
<path d="M39.2754 130.298C39.2902 130.234 39.3051 130.17 39.3199 130.106C39.3277 129.98 39.3363 129.856 39.3441 129.73C39.3238 129.918 39.3019 130.106 39.2754 130.298Z" fill="white"/>
</g>
<path d="M13.1845 110.04C11.8261 113.462 10.542 117.204 10.6287 120.887C10.7029 124.052 12.0113 127.294 14.0055 129.748C16.2957 132.567 20.0014 133.936 22.2971 136.749C21.0528 131.784 20.124 126.664 20.5474 121.562C20.7169 119.514 21.1035 117.489 21.2746 115.441C21.7722 109.47 20.4294 103.513 18.9679 97.7041C16.2832 98.2852 16.7449 101.129 16.0833 103.196C15.3263 105.56 14.0984 107.738 13.1845 110.041V110.04Z" fill="#CFE1E5"/>
<g style="mix-blend-mode:overlay" opacity="0.2">
<path d="M21.7238 134.331C21.7238 134.331 21.7238 134.331 21.7238 134.33C21.5863 134.11 21.3512 133.976 21.127 133.847C15.8528 130.791 11.9667 124.853 12.6026 118.78C13.0408 114.592 15.3763 110.957 16.516 106.968C17.2245 104.488 17.3737 101.628 17.226 98.8452C16.4637 100.014 16.5347 101.786 16.0833 103.196C15.3263 105.56 14.0984 107.738 13.1845 110.041C11.8261 113.463 10.542 117.205 10.6287 120.888C10.7029 124.053 12.0113 127.295 14.0055 129.749C16.0442 132.258 19.2023 133.621 21.491 135.874C21.6261 135.681 21.7339 135.465 21.7995 135.219C21.8276 135.116 21.8456 135.007 21.8511 134.899C21.8073 134.71 21.7659 134.52 21.7238 134.331V134.331Z" fill="#04004C"/>
</g>
<path d="M31.7583 141.035C29.222 137.81 25.414 135.867 22.4699 133.011C17.916 128.593 15.6585 121.917 16.5943 115.634C16.8646 113.818 17.3825 112.047 17.6465 110.23C18.123 106.949 17.7481 103.548 16.5678 100.451C18.7338 100.195 20.5507 99.7505 22.5809 98.9509C23.0214 102.02 24.0619 105.002 25.6265 107.677C26.8911 109.84 28.487 111.794 29.7664 113.948C31.8598 117.473 33.0729 121.519 33.2651 125.616C33.5104 130.838 32.0934 135.818 31.7583 141.035Z" fill="#E8EEEF"/>
<g style="mix-blend-mode:overlay" opacity="0.2">
<path d="M31.758 141.035C32.0923 135.817 33.5093 130.838 33.2648 125.616C33.0726 121.519 31.8595 117.473 29.7661 113.948C28.4867 111.794 26.8908 109.84 25.6262 107.677C24.0975 105.063 23.0703 102.156 22.6134 99.1606C22.6759 101.353 23.1977 103.561 23.9554 105.628C25.2169 109.072 27.0908 112.251 28.603 115.591C29.5052 117.583 30.2918 119.703 30.22 121.89C30.1481 124.076 29.0405 126.35 27.0455 127.238C24.581 128.336 21.5511 126.931 20.056 124.681C18.5609 122.431 18.2922 119.585 18.3766 116.883C18.4461 114.658 18.7234 112.444 18.7429 110.219C18.7726 106.886 17.5775 103.888 17.3439 100.657C17.3392 100.596 17.333 100.489 17.3252 100.35C17.0768 100.386 16.8253 100.42 16.5683 100.45C17.7478 103.547 18.1235 106.949 17.647 110.229C17.383 112.045 16.8651 113.817 16.5948 115.633C15.659 121.916 17.9165 128.593 22.4704 133.01C25.4145 135.866 29.2225 137.809 31.7588 141.034L31.758 141.035Z" fill="#04004C"/>
</g>
<g style="mix-blend-mode:overlay" opacity="0.2">
<path d="M22.6344 130.335C19.2272 127.762 17.2994 123.606 16.5065 119.403C16.4573 119.11 16.419 118.823 16.3862 118.539C16.4042 123.909 18.6132 129.27 22.4696 133.011C25.4137 135.867 29.2217 137.81 31.758 141.035C31.9556 137.958 32.5274 134.964 32.9148 131.954C29.6169 133.291 25.5309 132.523 22.6344 130.335Z" fill="#04004C"/>
</g>
<g style="mix-blend-mode:overlay" opacity="0.5">
<path d="M15.5911 102.939C15.5801 103.267 15.5575 103.592 15.5083 103.903C15.1864 105.955 14.5209 107.93 13.9897 109.936C16.4112 109.495 17.9977 106.965 19.7357 105.482C20.8933 106.452 21.8955 107.698 23.0031 108.747C23.1664 107.436 23.182 106.106 23.05 104.791C25.2004 105.783 27.5922 106.232 29.9559 106.12C27.8156 104.581 25.7371 102.981 24.1444 100.98L15.5903 102.939H15.5911Z" fill="#04004C"/>
</g>
<path d="M25.6834 102.657C24.614 102.809 23.5087 102.697 22.4925 102.331C22.2902 103.192 22.0886 104.053 21.8863 104.914C21.088 104.431 20.2905 103.95 19.4922 103.467C18.4799 104.843 16.8004 105.7 15.0952 105.708C15.4475 102.63 14.971 99.5492 14.743 96.4818C14.5953 94.4997 13.1104 86.2276 17.8557 88.2332C19.7632 89.039 21.9395 93.9758 23.0799 96.5922C24.0133 98.734 24.6023 100.586 25.6834 102.657Z" fill="#81A50F"/>
<g style="mix-blend-mode:overlay" opacity="0.2">
<path d="M14.743 96.4816C14.9711 99.5491 15.4476 102.631 15.0953 105.708C15.7178 105.705 16.3373 105.588 16.9215 105.374C17.8144 102.739 17.3293 99.6297 16.677 96.8309C16.0084 93.9631 15.2382 90.9043 15.7834 88.0835C13.6229 89.125 14.6227 94.8723 14.7422 96.4808L14.743 96.4816Z" fill="#04004C"/>
</g>
<g style="mix-blend-mode:overlay" opacity="0.2">
<path d="M23.2392 102.55C24.0383 102.735 24.871 102.773 25.6833 102.657C24.603 100.586 24.0133 98.7331 23.0799 96.5921C21.9394 93.9757 19.7632 89.0397 17.8557 88.2331C17.2105 87.9606 16.6809 87.8791 16.2466 87.9449C17.6104 89.501 18.8477 91.1526 19.7538 93.0078C21.2309 96.0329 21.816 99.5577 23.2392 102.549V102.55Z" fill="#04004C"/>
</g>
<g style="mix-blend-mode:overlay" opacity="0.5">
<path d="M24.333 118.683C23.3191 117.664 22.6364 116.367 21.9959 115.079C21.189 113.457 20.3344 111.977 20.0626 110.186C19.6986 113.146 19.9158 116.177 20.6977 119.055C21.1007 120.537 21.6975 122.047 22.8715 123.036C25.7461 125.455 27.0506 122.621 28.184 120.281C26.7553 120.42 25.3469 119.703 24.333 118.684V118.683Z" fill="white"/>
</g>
<g style="mix-blend-mode:overlay" opacity="0.2">
<path d="M25.6834 102.656C25.4646 102.238 25.2701 101.83 25.085 101.425C24.9186 101.505 24.7444 101.567 24.5656 101.606C23.6868 101.801 22.7596 101.552 21.9683 101.122C21.9824 102.029 21.8277 102.94 21.5145 103.792C20.6834 103.456 19.9452 102.89 19.4047 102.173C18.7688 103.269 17.6409 104.036 16.4161 104.315C16.013 104.407 15.6037 104.444 15.1952 104.427C15.1757 104.854 15.1436 105.281 15.0952 105.708C16.8004 105.7 18.4798 104.843 19.4922 103.467C20.2905 103.949 21.088 104.431 21.8863 104.913C22.0886 104.052 22.2902 103.191 22.4925 102.331C23.5087 102.696 24.6148 102.809 25.6834 102.656Z" fill="#04004C"/>
</g>
<path d="M50.8919 120.155C51.4855 121.866 51.4395 123.731 51.2653 125.535C50.8583 129.731 47.4713 140.331 53.297 145.474C53.2946 145.379 53.2946 145.286 53.2907 145.191C53.04 139.057 55.2021 133.121 57.0823 127.279C58.9625 121.436 60.6005 115.217 59.2905 109.221C58.4985 105.597 56.6761 102.299 54.928 99.0292C51.0778 91.8277 47.3784 83.8007 48.9336 75.7793C46.7988 82.3559 44.3968 88.6099 43.7813 95.4981C43.1658 102.387 44.2109 109.64 48.0298 115.4C49.0555 116.947 50.2834 118.4 50.8919 120.154V120.155Z" fill="#94AD00"/>
<g style="mix-blend-mode:overlay" opacity="0.2">
<path d="M50.6318 102.419C48.0783 97.7849 46.7715 92.4949 46.7355 87.2089C46.7285 86.1149 46.7675 83.771 47.073 81.4021C45.5646 86.0092 44.2195 90.5935 43.7813 95.499C43.1658 102.388 44.2109 109.641 48.0298 115.401C49.0555 116.948 50.2834 118.4 50.8919 120.155C51.4855 121.866 51.4395 123.73 51.2653 125.534C50.8849 129.459 47.8986 138.983 52.2799 144.408C52.1768 143.479 52.1354 142.542 52.1526 141.611C52.2175 137.974 53.1087 134.396 54.2757 130.951C55.1092 128.49 56.0879 126.066 56.616 123.523C57.5541 119.007 57.0034 114.192 55.0545 110.014C53.8156 107.357 52.0472 104.986 50.6326 102.419H50.6318Z" fill="#04004C"/>
</g>
<g style="mix-blend-mode:overlay" opacity="0.2">
<path d="M59.2899 109.221C58.4978 105.597 56.6755 102.299 54.9273 99.0292C54.7352 98.6698 54.5438 98.3088 54.3532 97.9454C54.6031 98.5703 54.8672 99.189 55.1515 99.799C56.9356 103.632 59.443 107.495 58.9767 111.699C58.7658 113.602 57.366 115.75 55.4819 115.432C54.7414 115.307 54.1196 114.818 53.5533 114.323C48.162 109.611 44.6751 102.83 43.7635 95.73C43.1917 102.549 44.2525 109.705 48.0292 115.401C49.0548 116.948 50.2827 118.4 50.8912 120.155C51.4849 121.866 51.4388 123.73 51.2646 125.534C50.8577 129.73 47.4707 140.33 53.2963 145.473C53.294 145.379 53.294 145.285 53.2901 145.19C53.0393 139.057 55.2015 133.121 57.0817 127.278C58.9618 121.436 60.5998 115.216 59.2899 109.22V109.221Z" fill="#04004C"/>
</g>
<g style="mix-blend-mode:overlay" opacity="0.2">
<path d="M57.7531 110.536C51.2018 104.119 47.4508 94.9225 47.6391 85.7412C50.9393 93.6742 53.9912 102.812 57.7531 110.536Z" fill="white"/>
</g>
</g>
<defs>
<clipPath id="clip0_446_203599">
<rect width="102" height="146" fill="white"/>
</clipPath>
</defs>
</svg>
