<svg width="39" height="57" viewBox="0 0 39 57" fill="none" xmlns="http://www.w3.org/2000/svg">
<g clip-path="url(#clip0_3_173138)">
<path d="M2.33537 49.3463C2.33328 49.2298 2.34175 49.1123 2.36486 48.9948L2.86585 46.4579C3.0932 45.3061 3.87429 43.6572 4.62831 42.7571L6.75838 40.2138C7.47747 39.3554 8.08075 38.4076 8.55319 37.3942L13.4418 26.9087C13.4418 26.9087 14.5496 23.2822 14.6828 22.5626C15.0787 20.4249 15.4691 19.4336 16.7667 17.6687C16.8591 17.5435 16.9484 17.4214 17.036 17.3031C17.8471 16.2061 18.8073 15.2263 19.8913 14.3902L22.7701 12.1703C23.1739 11.8591 23.5192 11.4829 23.7926 11.0588C23.7515 11.0343 23.7113 11.0096 23.6724 10.9854C23.3525 10.7887 23.0951 10.5955 22.8965 10.4071L22.8879 10.3858C22.8779 10.3758 22.8697 10.3667 22.8601 10.3577C22.5692 10.8672 22.1802 11.3158 21.7115 11.6768L18.8327 13.8966C17.7487 14.7328 16.7878 15.7123 15.9774 16.8095C15.8901 16.9273 15.7999 17.0497 15.7081 17.1752C14.4111 18.9403 14.0204 19.9322 13.6248 22.0694C13.4916 22.789 12.3838 26.4155 12.3838 26.4155L7.49522 36.901C7.02277 37.9143 6.4195 38.8622 5.70041 39.7205L3.57034 42.2638C2.81632 43.164 2.03523 44.8128 1.80788 45.9646L1.30689 48.5016C1.22861 48.8997 1.3013 49.3002 1.49021 49.6403C1.66346 49.9527 1.93394 50.2139 2.27836 50.3745L3.06739 50.7423C3.11179 50.763 3.15672 50.781 3.20158 50.7973C2.67201 50.4924 2.34709 49.9372 2.33601 49.3465L2.33537 49.3463Z" fill="#ADE4F8"/>
<path d="M31.524 12.614C31.4319 12.5929 31.3296 12.5656 31.2165 12.5332C31.0615 12.4881 30.8861 12.432 30.6964 12.367L30.5615 12.6564C31.1571 12.8247 31.5365 12.8605 31.5949 12.7353L31.6394 12.6398C31.6111 12.6342 31.5816 12.628 31.5508 12.6212C31.5423 12.6195 31.5328 12.6166 31.5237 12.6146L31.524 12.614Z" fill="#77D0E5"/>
<path d="M18.936 49.4283L19.5146 46.1617C19.7098 45.0591 20.0479 43.9877 20.5204 42.9743L25.409 32.4888C25.409 32.4888 27.4745 29.3088 27.9401 28.7442C29.3229 27.0666 29.8313 26.1303 30.3488 24.0017C30.3853 23.8505 30.4214 23.7036 30.4557 23.5604C30.7745 22.2339 30.9077 20.8685 30.8512 19.5007L30.7008 15.8685C30.6762 15.267 30.773 14.6701 30.9838 14.112C31.0228 14.0086 31.0658 13.9064 31.1126 13.806L31.114 13.8029C31.0647 13.8011 31.0138 13.7977 30.9596 13.7913C30.8482 13.7786 30.3553 13.6929 29.7657 13.492C28.9175 13.2029 27.8403 12.7377 27.1688 12.4291L26.8465 12.2789C25.6778 11.7302 24.6052 11.1638 23.8153 10.677C23.4954 10.4803 23.238 10.2871 23.0394 10.0987L23.0308 10.0774C23.025 10.0716 23.0198 10.0662 23.014 10.0605C22.966 10.1618 22.9144 10.2608 22.8591 10.358C22.8685 10.3676 22.8766 10.3767 22.8869 10.386L22.8955 10.4074C23.0941 10.5958 23.3521 10.7893 23.6714 10.9856C23.7103 11.0098 23.7514 11.0343 23.7916 11.059C24.4862 11.4787 25.3777 11.9532 26.3524 12.4212C26.4679 12.4766 26.584 12.5322 26.702 12.5872L27.0242 12.7375C27.1136 12.7776 27.2103 12.8219 27.3127 12.8674C27.5821 12.9885 27.8915 13.1229 28.2128 13.2569C28.6852 13.4545 29.1839 13.65 29.6217 13.7991C29.7584 13.8454 29.8902 13.8857 30.013 13.9204C29.8568 14.4127 29.787 14.9302 29.8083 15.4509L29.9588 19.0831C30.0152 20.4509 29.8827 21.8166 29.5632 23.1428C29.5292 23.2853 29.4935 23.4332 29.4563 23.5841C28.9381 25.7124 28.4295 26.6493 27.0476 28.3266C26.582 28.8912 24.5165 32.0712 24.5165 32.0712L19.6279 42.5567C19.1554 43.5701 18.8173 44.6415 18.6221 45.7441L18.0435 49.0107C17.8387 50.167 17.0786 51.8256 16.3419 52.7399L14.7202 54.7544C14.2444 55.3459 13.422 55.5397 12.7133 55.2364C12.7311 55.2447 12.748 55.2548 12.7657 55.2631L13.5548 55.631C14.2747 55.9666 15.1261 55.7766 15.6132 55.1707L17.2343 53.156C17.9704 52.2414 18.7312 50.5831 18.9359 49.4268L18.936 49.4283Z" fill="#77D0E5"/>
<path d="M14.7208 54.7551L16.3425 52.7407C17.0786 51.8261 17.8394 50.1678 18.0441 49.0115L18.6227 45.7449C18.8179 44.6423 19.156 43.5709 19.6285 42.5575L24.5171 32.072C24.5171 32.072 26.5826 28.892 27.0482 28.3274C28.4311 26.6497 28.9394 25.7135 29.4569 23.5849C29.4934 23.4336 29.5295 23.2867 29.5638 23.1435C29.8827 21.8171 30.0158 20.4517 29.9594 19.0839L29.8089 15.4517C29.7876 14.931 29.8574 14.4135 30.0136 13.9212C29.8908 13.8865 29.7596 13.8465 29.6223 13.7999C29.1845 13.6508 28.686 13.4546 28.2134 13.2577C28.0898 13.7033 28.0355 14.1677 28.0548 14.6347L28.2053 18.2668C28.2618 19.6347 28.1292 21.0004 27.8098 22.3265C27.7757 22.4691 27.74 22.6169 27.7029 22.7678C27.1847 24.8962 26.6761 25.833 25.2941 27.5104C24.8286 28.075 22.763 31.2549 22.763 31.2549L17.8744 41.7405C17.402 42.7538 17.0638 43.8253 16.8687 44.9279L16.29 48.1945C16.0853 49.3508 15.3245 51.0091 14.5885 51.9237L12.9673 53.9384C12.7127 54.2543 12.3592 54.4562 11.9772 54.5301C12.1432 54.83 12.3991 55.0776 12.7142 55.2381C13.423 55.5414 14.2453 55.3476 14.7211 54.7561L14.7208 54.7551Z" fill="#92D8EA"/>
<path d="M12.174 39.5199C12.1732 39.5233 12.1724 39.5267 12.1722 39.5304C12.1714 39.5405 12.1709 39.5547 12.1704 39.5642C12.1711 39.5495 12.1721 39.5341 12.1743 39.5193L12.174 39.5199Z" fill="#ADE4F8"/>
<path d="M12.9537 39.6269C12.9554 39.6133 12.9555 39.5998 12.9547 39.5866C12.9548 39.5715 12.9522 39.6201 12.9508 39.6414C12.9515 39.6364 12.9529 39.6318 12.9537 39.6269Z" fill="#ADE4F8"/>
<path d="M12.1716 39.5369L12.1724 39.532C12.1724 39.532 12.1713 39.536 12.171 39.5382C12.1701 39.5468 12.1703 39.5446 12.1709 39.5418L12.1716 39.5369Z" fill="#ADE4F8"/>
<path d="M27.7088 11.135C27.6739 11.1187 27.6396 11.1027 27.6048 11.0865C27.5699 11.0702 27.5331 11.0531 27.4969 11.0362C27.4557 11.017 27.4157 10.9984 27.3751 10.9794C27.2984 10.9436 27.2235 10.9072 27.1477 10.8711L26.9853 11.2194C27.076 11.2633 27.1674 11.3074 27.2604 11.3515C27.301 11.3704 27.3409 11.389 27.3822 11.4082C27.4234 11.4275 27.4652 11.447 27.5065 11.4662C27.9348 11.6637 28.346 11.8433 28.7315 12.0019L28.8899 11.6622C28.6438 11.5573 28.39 11.4458 28.1289 11.3286C27.9904 11.2663 27.8503 11.2025 27.7082 11.1362L27.7088 11.135Z" fill="#ADE4F8"/>
<path d="M12.967 53.9375L14.5881 51.9227C15.3242 51.0081 16.085 49.3498 16.2897 48.1936L16.8683 44.927C17.0635 43.8243 17.4017 42.7529 17.8741 41.7395L22.7627 31.254C22.7627 31.254 24.8283 28.074 25.2938 27.5094C26.6767 25.8318 27.185 24.8955 27.7025 22.7669C27.7391 22.6157 27.7751 22.4688 27.8095 22.3256C28.1283 20.9992 28.2614 19.6337 28.205 18.2659L28.0545 14.6337C28.0352 14.1667 28.0892 13.703 28.2131 13.2568C27.8918 13.1228 27.5826 12.9877 27.3129 12.8673C27.2109 12.8212 27.1145 12.7778 27.0248 12.7367L26.7026 12.5865C26.5846 12.5315 26.4682 12.4764 26.353 12.4205C26.0939 12.7924 25.7794 13.1241 25.4165 13.4039L22.5377 15.6237C21.4537 16.4598 20.4929 17.4394 19.6825 18.5366C19.5952 18.6543 19.5049 18.7767 19.4132 18.9022C18.1161 20.6674 17.7255 21.6593 17.3292 23.7961C17.196 24.5157 16.0882 28.1422 16.0882 28.1422L11.1996 38.6277C10.7272 39.6411 10.1239 40.5889 9.40481 41.4473L7.27474 43.9906C6.52072 44.8907 5.73963 46.5396 5.51228 47.6914L5.01129 50.2283C4.98817 50.3458 4.97971 50.4633 4.9818 50.5798C5.40877 50.5268 5.84616 50.7662 6.00846 51.1965C6.15487 51.5847 6.37942 51.9361 6.66367 52.2323C6.92751 52.5077 7.24325 52.7364 7.59718 52.9014L8.19847 53.1818C8.59299 53.3657 9.01735 53.4625 9.44289 53.4722C9.80883 53.4806 10.1762 53.4248 10.5251 53.3023C11.0135 53.1308 11.5421 53.3818 11.7352 53.837C11.7605 53.8971 11.7812 53.9603 11.7933 54.0271C11.8279 54.2046 11.8902 54.374 11.9763 54.5289C12.3582 54.4549 12.7118 54.2531 12.9664 53.9372L12.967 53.9375ZM11.1285 42.0049C10.8313 42.3425 10.5345 42.6794 10.2325 43.0125C9.93277 43.3473 9.62468 43.6752 9.32011 44.0056C9.16814 44.1709 9.01329 44.3341 8.85781 44.497C8.70232 44.6599 8.54747 44.8231 8.38939 44.9833C8.51438 44.7964 8.64225 44.6115 8.7692 44.427C8.89581 44.2416 9.02305 44.0564 9.15225 43.8737C9.41059 43.5068 9.66351 43.1365 9.92317 42.7717L10.6983 41.6739C10.9577 41.3096 11.2142 40.9433 11.4688 40.5776C11.5965 40.395 11.7225 40.2123 11.8452 40.0288C11.9063 39.9373 11.9669 39.8456 12.0246 39.7548C12.0818 39.6653 12.1404 39.5711 12.1791 39.4964C12.182 39.4819 12.184 39.4677 12.1872 39.4541L12.1919 39.4374L12.2016 39.405C12.2251 39.3299 12.2444 39.2786 12.2656 39.2213C12.3065 39.1106 12.3478 39.0054 12.3894 38.8995C12.4724 38.6885 12.5586 38.4804 12.6451 38.2733C12.8191 37.8587 12.9919 37.445 13.1713 37.0337L13.7099 35.8022L14.259 34.5764L14.817 33.3547L15.097 32.7443L15.3807 32.1357L15.952 30.9202L16.5307 29.7089C16.7222 29.3047 16.9204 28.9029 17.1157 28.5005C17.3116 28.0984 17.5066 27.6951 17.7064 27.2948L18.2794 26.142L18.5467 24.7984L18.8374 23.3834L19.138 21.97C19.2417 21.4993 19.3416 21.0282 19.4487 20.5583L19.4712 20.4587L19.5236 20.4076C19.8114 20.1283 20.0997 19.8493 20.3904 19.5721C20.6797 19.2943 20.9719 19.0186 21.2635 18.7426L22.1461 17.9212C22.2922 17.7833 22.4432 17.65 22.5912 17.5145C22.74 17.3794 22.8887 17.2443 23.0396 17.1109C22.9164 17.2693 22.7913 17.4267 22.6658 17.5832C22.5396 17.7395 22.4164 17.8978 22.2887 18.0525L21.5264 18.9836C21.27 19.2918 21.0142 19.6004 20.7551 19.9059C20.5192 20.1867 20.2814 20.4667 20.0435 20.7451C19.9869 21.1993 19.924 21.6521 19.8646 22.1058L19.6663 23.5382L19.4579 24.9689L19.2404 26.3977L19.2318 26.4525L19.2003 26.5201L18.6448 27.7414C18.4603 28.1488 18.2713 28.5541 18.0836 28.9601C17.8952 29.3657 17.7094 29.7725 17.5179 30.1767L16.9478 31.3912L16.3713 32.6028L16.0834 33.2088L15.7917 33.8129L15.2077 35.021L14.6195 36.2263L13.4366 38.631L13.1462 39.2305C13.0994 39.3294 13.051 39.4298 13.0075 39.5265C12.9858 39.5729 12.9637 39.6253 12.9508 39.6562L12.9477 39.663L12.9459 39.6668C12.9478 39.6594 12.9494 39.651 12.9507 39.6433C12.951 39.6427 12.9516 39.6415 12.9506 39.6403L12.9498 39.6452L12.9462 39.6646C12.9425 39.6825 12.9381 39.7001 12.9331 39.7174C12.9282 39.7347 12.9216 39.752 12.9154 39.7687C12.9105 39.7792 12.9099 39.7805 12.9087 39.783L12.9047 39.7916L12.8875 39.8251C12.8767 39.845 12.8682 39.8599 12.858 39.877C12.7847 39.996 12.717 40.0867 12.6466 40.1813C12.5764 40.2739 12.5058 40.364 12.4349 40.4531C12.2931 40.6315 12.1492 40.8058 12.0057 40.9796C11.7173 41.3265 11.4228 41.6668 11.1279 42.0062L11.1285 42.0049Z" fill="#ADE4F8"/>
<path d="M24.5326 9.56877C24.4991 9.54787 24.4639 9.52547 24.4285 9.50368C24.4247 9.50191 24.4219 9.49981 24.4183 9.49742C24.3861 9.47711 24.3526 9.45621 24.3185 9.43502C24.314 9.43295 24.3102 9.42964 24.3067 9.42724C24.233 9.38157 24.1561 9.33442 24.077 9.28547C24.0697 9.28131 24.0627 9.27652 24.0554 9.27235C24.0206 9.25086 23.9852 9.22907 23.9495 9.20791C23.9444 9.20554 23.9393 9.20164 23.9345 9.19866C23.8943 9.17388 23.8538 9.14973 23.813 9.12467C23.8047 9.11929 23.7968 9.11482 23.7885 9.10944C23.7553 9.08946 23.7218 9.06856 23.688 9.04828C23.6772 9.04172 23.667 9.03545 23.6562 9.02889C23.6495 9.02502 23.6424 9.02023 23.6357 9.01636C23.71 9.17847 23.9976 9.44086 24.4457 9.7584L24.5338 9.56936L24.5326 9.56877Z" fill="#ADE4F8"/>
<path d="M26.7279 10.6654C26.2564 10.4327 25.8186 10.206 25.4283 9.99307C25.3205 9.9345 25.2174 9.87739 25.1177 9.82113C24.8653 9.67855 24.6369 9.54413 24.4391 9.42022C24.4008 9.39633 24.3632 9.37274 24.3271 9.34913C24.2731 9.31416 24.2208 9.2807 24.1722 9.24748C24.0491 9.16522 23.9435 9.08879 23.8555 9.02065C23.8308 9.00082 23.8071 8.9822 23.7849 8.96355C23.7514 8.93589 23.7221 8.90939 23.6966 8.88466C23.6807 8.86897 23.6665 8.85479 23.6538 8.84058C23.6347 8.88148 23.6177 8.91805 23.6168 8.91991C23.6109 8.94583 23.6174 8.97828 23.634 9.01546C23.6407 9.01933 23.6478 9.02412 23.6545 9.02799C23.6653 9.03456 23.6755 9.04082 23.6863 9.04739C23.7201 9.06766 23.7536 9.08856 23.7868 9.10855C23.7951 9.11393 23.8037 9.11869 23.8113 9.12377C23.8522 9.14884 23.8933 9.17328 23.9328 9.19776C23.9379 9.20012 23.943 9.20403 23.9478 9.20701C23.9832 9.2288 24.0186 9.25058 24.0537 9.27145C24.061 9.27562 24.068 9.28041 24.0753 9.28458C24.1544 9.33353 24.2313 9.38068 24.305 9.42635C24.3094 9.42842 24.3133 9.43173 24.3168 9.43412C24.3509 9.45531 24.3838 9.47592 24.4166 9.49652C24.4204 9.49829 24.4233 9.50039 24.4268 9.50279C24.4626 9.52549 24.4974 9.54698 24.5309 9.56788L24.4427 9.75691C25.0434 10.1826 25.9329 10.706 26.9844 11.2165L27.1468 10.8682C27.0043 10.7995 26.8631 10.7314 26.7263 10.6639L26.7279 10.6654Z" fill="#CAF1FC"/>
<path d="M5.51228 47.6925C5.73963 46.5407 6.52072 44.8919 7.27474 43.9917L9.40481 41.4484C10.1239 40.59 10.7272 39.6422 11.1996 38.6289L16.0882 28.1433C16.0882 28.1433 17.196 24.5168 17.3292 23.7973C17.7251 21.6595 18.1155 20.6682 19.4132 18.9033C19.5055 18.7781 19.5949 18.6561 19.6825 18.5377C20.4935 17.4408 21.4537 16.4609 22.5377 15.6248L25.4166 13.405C25.7791 13.1258 26.0939 12.7935 26.353 12.4216C25.3785 11.9529 24.4861 11.4788 23.7922 11.0594C23.5188 11.4835 23.1735 11.8597 22.7697 12.171L19.8909 14.3908C18.8069 15.2269 17.846 16.2065 17.0356 17.3037C16.9483 17.4214 16.8581 17.5438 16.7663 17.6693C15.4693 19.4345 15.0786 20.4264 14.6824 22.5632C14.5492 23.2828 13.4414 26.9093 13.4414 26.9093L8.55279 37.3948C8.08034 38.4082 7.47706 39.356 6.75798 40.2144L4.62791 42.7577C3.87389 43.6578 3.0928 45.3067 2.86545 46.4585L2.36446 48.9954C2.34134 49.1129 2.33288 49.2304 2.33497 49.3469C2.34605 49.9375 2.67034 50.4924 3.20054 50.7977C3.43565 50.8846 3.68378 50.9188 3.92786 50.9021C4.17534 50.8847 4.41779 50.8151 4.63865 50.6925C4.74831 50.6312 4.86515 50.5959 4.98244 50.5812C4.98035 50.4648 4.98881 50.3472 5.01193 50.2297L5.51292 47.6928L5.51228 47.6925Z" fill="#CAF1FC"/>
<path d="M24.3079 7.63127C24.3393 7.73947 24.6023 7.94208 25.0337 8.20585C25.5774 8.53855 26.3887 8.96808 27.3389 9.43072C27.6201 9.56787 27.9139 9.70785 28.2165 9.84891C28.8038 10.1227 29.3663 10.3737 29.8786 10.5914C30.3583 10.7947 30.7936 10.969 31.1649 11.1051C31.6107 11.2684 31.9641 11.3766 32.1884 11.4155L32.3222 11.1286C32.2608 11.1128 32.1957 11.0952 32.1261 11.0756C31.8296 10.991 31.4683 10.87 31.0584 10.7174C30.3088 10.4389 29.3971 10.0576 28.4242 9.607C28.3874 9.58985 28.3513 9.57299 28.3145 9.55584C28.2777 9.53869 28.239 9.52065 28.2009 9.50291C27.3921 9.1228 26.6476 8.74552 26.0197 8.40145C25.4815 8.10675 25.0292 7.8363 24.6964 7.61099C24.5798 7.53169 24.4786 7.45886 24.3926 7.3916L24.2819 7.62898C24.2891 7.63008 24.2966 7.63056 24.3047 7.63133C24.3054 7.63162 24.3067 7.63222 24.3076 7.63189L24.3079 7.63127Z" fill="#77D0E5"/>
<path d="M35.2486 6.31436C35.2416 6.3194 35.233 6.32447 35.2242 6.32863C35.2223 6.32928 35.2205 6.32992 35.2183 6.33119C35.2082 6.33476 35.1967 6.33773 35.1841 6.34011C35.1825 6.34014 35.1806 6.34079 35.1791 6.34082C35.1667 6.34258 35.1527 6.34437 35.1378 6.34495C35.1353 6.3453 35.1322 6.34536 35.1297 6.34571C35.1141 6.34599 35.097 6.34631 35.0789 6.34541C35.0742 6.34549 35.0698 6.34496 35.0645 6.34475C35.0464 6.34385 35.027 6.34236 35.0064 6.34027C35.0011 6.34006 34.9954 6.33894 34.9901 6.33873C34.971 6.33662 34.9522 6.33389 34.9312 6.33089C34.9262 6.33006 34.9212 6.32923 34.9153 6.32872C34.893 6.32513 34.8695 6.32095 34.8447 6.31618C34.8362 6.31449 34.8277 6.3128 34.8183 6.31144C34.7941 6.30696 34.769 6.30127 34.7436 6.2962C34.7329 6.29425 34.7219 6.29138 34.7109 6.2885C34.6892 6.28367 34.6668 6.27855 34.6433 6.27283C34.6279 6.26943 34.6121 6.26511 34.5961 6.2614C34.5753 6.25625 34.5539 6.2508 34.5328 6.24473C34.5183 6.241 34.5039 6.23727 34.4897 6.23292C34.4623 6.22543 34.4336 6.21735 34.405 6.20927C34.3873 6.20406 34.3703 6.19915 34.352 6.19364C34.3303 6.18728 34.3085 6.18091 34.2862 6.17425C34.2597 6.16644 34.2332 6.15862 34.2058 6.1496C34.1881 6.14439 34.1701 6.13826 34.1518 6.13276C34.1194 6.1229 34.0866 6.11213 34.0531 6.10107C34.0351 6.09494 34.0162 6.08914 33.9976 6.08272C33.9736 6.07455 33.9493 6.06701 33.9253 6.05884C33.9067 6.05242 33.8872 6.04632 33.8685 6.0399C33.8306 6.02676 33.7925 6.01425 33.7533 6.00052C33.7372 5.99528 33.7214 5.98942 33.7053 5.98419C33.6614 5.96901 33.6166 5.95262 33.5714 5.93685C33.5563 5.93128 33.5417 5.92602 33.5266 5.92046C33.471 5.90058 33.4144 5.87948 33.3563 5.85842C33.3506 5.85576 33.3443 5.85433 33.3379 5.85138L31.0806 10.6931C31.0763 10.7024 31.0687 10.7103 31.0593 10.7172C31.4695 10.8692 31.8299 10.9904 32.127 11.0754C32.1957 11.0953 32.2609 11.1129 32.3231 11.1283C32.7161 11.2278 32.959 11.2452 32.9983 11.1609L35.268 6.29249C35.2646 6.29993 35.2592 6.30648 35.2525 6.31244C35.252 6.31368 35.2508 6.31462 35.2495 6.31557L35.2486 6.31436Z" fill="#22A4DD"/>
<path d="M26.0201 8.40079L28.2899 3.53238C28.245 3.50769 28.2002 3.483 28.1566 3.45891C28.1356 3.44762 28.1155 3.436 28.0952 3.425C28.0621 3.40655 28.0296 3.3884 27.9978 3.37054C27.9765 3.35833 27.9551 3.34613 27.9338 3.33392C27.8972 3.31307 27.8612 3.29253 27.8259 3.27228C27.8071 3.26125 27.7886 3.25114 27.7705 3.24041C27.7377 3.22134 27.7055 3.20257 27.6733 3.1838C27.6539 3.17248 27.6351 3.16145 27.6157 3.15013C27.5835 3.13136 27.5522 3.11226 27.5213 3.09408C27.5051 3.08424 27.4888 3.07439 27.4732 3.06484C27.4381 3.04397 27.404 3.02278 27.3705 3.00188C27.3574 2.99352 27.3447 2.98607 27.3316 2.9777C27.3029 2.95979 27.2748 2.94217 27.2467 2.92455C27.233 2.91589 27.2199 2.90753 27.2062 2.89887C27.1723 2.87705 27.1389 2.85615 27.1069 2.83523C27.0973 2.82926 27.0881 2.82267 27.0785 2.8167C27.053 2.80026 27.0277 2.78321 27.0034 2.76736C26.9929 2.76018 26.9817 2.7527 26.9711 2.74552C26.9411 2.72548 26.912 2.70512 26.8839 2.68596C26.8758 2.67997 26.8682 2.67488 26.8602 2.66888C26.8375 2.65301 26.816 2.63773 26.7952 2.62275C26.7872 2.61675 26.7785 2.61045 26.7705 2.60445C26.7452 2.58586 26.7205 2.56757 26.6965 2.54957C26.6898 2.54416 26.684 2.53997 26.6772 2.53456C26.658 2.51955 26.6394 2.50483 26.622 2.4907C26.6165 2.48589 26.6108 2.48169 26.605 2.47749C26.5844 2.46036 26.5645 2.44351 26.5458 2.42726C26.541 2.42274 26.5365 2.41913 26.5316 2.41461C26.5165 2.40075 26.5017 2.38781 26.4878 2.37455C26.4845 2.37153 26.4807 2.36822 26.4775 2.36521C26.462 2.35043 26.448 2.33563 26.435 2.32204C26.4321 2.31841 26.4282 2.3151 26.4253 2.31146C26.4139 2.29938 26.4042 2.28727 26.3956 2.27575C26.3943 2.27362 26.3921 2.27182 26.3907 2.26969C26.3812 2.25696 26.373 2.24482 26.366 2.23327C26.3643 2.23023 26.3627 2.22719 26.3613 2.22506C26.3554 2.21472 26.3509 2.20436 26.3468 2.1949C26.3465 2.19399 26.3461 2.19307 26.3458 2.19216C26.3426 2.18238 26.341 2.17258 26.3404 2.16399C26.3406 2.16183 26.3402 2.15938 26.3402 2.15785C26.3405 2.14893 26.3417 2.14123 26.3452 2.13379L24.0752 7.00282C24.0419 7.0741 24.1582 7.21056 24.3934 7.3934C24.4794 7.46066 24.5806 7.53348 24.6973 7.61278C25.0307 7.83839 25.4823 8.10854 26.0205 8.40324L26.0201 8.40079Z" fill="#43C0F7"/>
<path d="M33.3378 5.85192C33.2964 5.83639 33.2537 5.82026 33.2111 5.80414C33.2 5.79973 33.1886 5.79595 33.1776 5.79154C33.1368 5.7763 33.0957 5.76015 33.0536 5.74433C33.0413 5.73933 33.028 5.73465 33.0157 5.72965C32.9737 5.71383 32.9313 5.69708 32.8883 5.68005C32.8787 5.67561 32.8686 5.67241 32.8588 5.6686C32.7232 5.61515 32.5833 5.55901 32.44 5.50047C32.42 5.49192 32.3998 5.48399 32.3795 5.47607C32.3425 5.46107 32.3058 5.44545 32.2681 5.43016C32.2422 5.41957 32.2156 5.40869 32.1893 5.39718C32.1538 5.38216 32.1184 5.36714 32.0826 5.35273C32.0529 5.34037 32.0228 5.32709 31.9924 5.31443C31.9588 5.30029 31.9259 5.28645 31.8926 5.27169C31.8546 5.25548 31.8166 5.23928 31.7789 5.22245C31.7475 5.20858 31.7165 5.19562 31.6845 5.18146C31.6253 5.15611 31.5664 5.13015 31.5068 5.10388C31.4814 5.09206 31.4548 5.08117 31.4292 5.06996C31.3864 5.05077 31.3433 5.0322 31.3005 5.013C31.2733 5.00029 31.2463 4.98849 31.2188 4.97639C31.176 4.9572 31.1326 4.93771 31.0891 4.91822C31.0625 4.9058 31.0356 4.894 31.0083 4.88128C30.962 4.8597 30.9148 4.83843 30.8676 4.81717C30.8447 4.80653 30.8213 4.79558 30.7984 4.78494C30.728 4.75211 30.6576 4.71929 30.5866 4.68617C30.4908 4.64152 30.3963 4.59746 30.303 4.55245C30.277 4.54033 30.251 4.5282 30.2253 4.51546C30.1513 4.48024 30.0787 4.44561 30.0063 4.41037C29.9848 4.40031 29.9632 4.39026 29.9419 4.37958C29.8505 4.33546 29.7601 4.29102 29.6709 4.24717C29.6556 4.24007 29.6413 4.23265 29.6264 4.22494C29.5505 4.1873 29.4753 4.14995 29.4016 4.11258C29.3797 4.10161 29.3578 4.09064 29.3365 4.07996C29.2546 4.03875 29.1742 3.9975 29.0944 3.95655C29.0894 3.95418 29.0849 3.95211 29.0798 3.94975C28.9931 3.90554 28.9089 3.86099 28.8256 3.81764C28.8101 3.80963 28.7945 3.80162 28.7792 3.79299C28.7093 3.75585 28.6403 3.71993 28.5726 3.68306C28.5583 3.67564 28.5436 3.6673 28.5293 3.65988C28.4485 3.61619 28.3694 3.574 28.2921 3.53116L26.022 8.40019C26.6493 8.74397 27.3945 9.12154 28.2033 9.50165C28.2413 9.51939 28.2787 9.53684 28.3168 9.55458C28.3549 9.57233 28.3897 9.58859 28.4265 9.60574C29.4 10.0566 30.3108 10.4382 31.0607 10.7162C31.0701 10.7092 31.0776 10.7014 31.082 10.6921L33.3385 5.85221L33.3378 5.85192Z" fill="#3EAFED"/>
<path d="M26.3401 2.15641C26.3401 2.15641 26.3396 2.16072 26.3403 2.16255C26.3406 2.17176 26.3419 2.18065 26.3457 2.19072C26.3454 2.19134 26.3464 2.19255 26.3467 2.19347C26.3499 2.20324 26.3552 2.21329 26.3612 2.22362C26.3629 2.22667 26.3639 2.22941 26.3659 2.23183C26.3729 2.24338 26.3811 2.25552 26.3906 2.26826C26.3919 2.27038 26.3942 2.27219 26.3955 2.27431C26.404 2.28583 26.4148 2.29762 26.4252 2.31003C26.4281 2.31366 26.4314 2.31668 26.4349 2.32061C26.4479 2.3342 26.4618 2.349 26.4774 2.36377C26.4806 2.36679 26.4844 2.37009 26.4877 2.37311C26.5009 2.38608 26.5157 2.39902 26.5315 2.41318C26.5364 2.4177 26.5409 2.4213 26.5457 2.42582C26.5644 2.44208 26.5837 2.45862 26.6049 2.47606C26.6104 2.48087 26.6162 2.48507 26.6219 2.48927C26.6393 2.50339 26.6579 2.51811 26.6771 2.53312C26.6833 2.53823 26.6896 2.54273 26.6964 2.54814C26.7198 2.56584 26.7445 2.58413 26.7704 2.60302C26.7784 2.60902 26.7871 2.61531 26.7951 2.62131C26.8159 2.63629 26.838 2.65187 26.8601 2.66745C26.8681 2.67345 26.8757 2.67853 26.8838 2.68453C26.9116 2.7043 26.941 2.72404 26.971 2.74408C26.9816 2.75127 26.9921 2.75845 27.0033 2.76593C27.0279 2.78269 27.0528 2.79882 27.0784 2.81526C27.088 2.82123 27.0972 2.82782 27.1068 2.83379C27.1387 2.85472 27.172 2.87624 27.2061 2.89743C27.2192 2.9058 27.2329 2.91446 27.2466 2.92312C27.2741 2.94044 27.3028 2.95835 27.3315 2.97626C27.3446 2.98463 27.3573 2.99208 27.3704 3.00044C27.4039 3.02134 27.4383 3.04192 27.4731 3.06341C27.4893 3.07325 27.505 3.0828 27.5212 3.09264C27.5521 3.11082 27.5834 3.12992 27.6155 3.14869C27.6343 3.15972 27.6538 3.17104 27.6732 3.18236C27.7054 3.20113 27.7375 3.21991 27.7703 3.23897C27.7885 3.2497 27.8076 3.26011 27.8258 3.27084C27.8611 3.29109 27.8977 3.31193 27.9337 3.33248C27.955 3.34469 27.9764 3.3569 27.9977 3.36911C28.0301 3.38726 28.0626 3.40541 28.0951 3.42356C28.1151 3.43518 28.1355 3.44618 28.1565 3.45747C28.2007 3.48186 28.2449 3.50625 28.2898 3.53094C28.3674 3.57316 28.4463 3.61597 28.527 3.65966C28.5413 3.66709 28.5553 3.67513 28.5703 3.68284C28.6383 3.71909 28.707 3.75563 28.7769 3.79277C28.7925 3.80078 28.8078 3.80941 28.8233 3.81743C28.9066 3.86077 28.9918 3.905 29.0776 3.94953C29.0826 3.9519 29.0871 3.95397 29.0922 3.95633C29.1719 3.99728 29.2526 4.03791 29.3342 4.07975C29.3561 4.09072 29.3774 4.10139 29.3993 4.11236C29.4736 4.15003 29.5482 4.18708 29.6241 4.22472C29.6393 4.23182 29.6536 4.23924 29.6686 4.24695C29.7578 4.2908 29.8482 4.33525 29.9396 4.37936C29.9612 4.38942 29.9828 4.39947 30.004 4.41015C30.0764 4.44539 30.1497 4.48032 30.223 4.51524C30.249 4.52736 30.275 4.53949 30.3007 4.55223C30.3943 4.59662 30.4891 4.64159 30.5843 4.68595C30.6553 4.71907 30.7257 4.7519 30.7961 4.78472C30.8196 4.79566 30.8424 4.80631 30.8653 4.81695C30.9122 4.83884 30.9594 4.8601 31.006 4.88107C31.0327 4.89349 31.0599 4.9062 31.0869 4.918C31.13 4.93811 31.1737 4.95698 31.2165 4.97617C31.2438 4.98889 31.2713 5.00098 31.2983 5.01279C31.3417 5.03227 31.3847 5.05085 31.4269 5.06974C31.4523 5.08157 31.4789 5.09246 31.5045 5.10367C31.5641 5.12993 31.6236 5.15619 31.6822 5.18124C31.7136 5.19511 31.7453 5.20836 31.7766 5.22223C31.8146 5.23844 31.8533 5.25494 31.8903 5.27147C31.9239 5.28561 31.9575 5.29975 31.9901 5.31421C32.0205 5.32687 32.0499 5.33985 32.0803 5.35251C32.1158 5.36754 32.1513 5.38256 32.187 5.39697C32.2136 5.40785 32.2393 5.41906 32.2658 5.42994C32.3029 5.44494 32.3402 5.46085 32.3773 5.47585C32.3972 5.4844 32.4174 5.49232 32.4377 5.50025C32.581 5.55879 32.7209 5.61493 32.8566 5.66838C32.8661 5.67282 32.8762 5.67601 32.886 5.67983C32.929 5.69687 32.971 5.71269 33.0134 5.72943C33.0264 5.73473 33.039 5.73911 33.0514 5.74411C33.0934 5.75993 33.1345 5.77608 33.1753 5.79132C33.1863 5.79573 33.1977 5.79951 33.2088 5.80392C33.2515 5.82004 33.2941 5.83617 33.3355 5.8517C33.3419 5.85466 33.3482 5.85608 33.3539 5.85874C33.4117 5.88042 33.4686 5.9009 33.5242 5.92078C33.5393 5.92634 33.5545 5.9319 33.569 5.93717C33.6148 5.95323 33.659 5.96933 33.7029 5.98451C33.719 5.98974 33.7348 5.9956 33.7509 6.00084C33.7901 6.01457 33.8282 6.02709 33.8661 6.04022C33.8848 6.04664 33.904 6.05336 33.9229 6.05916C33.9476 6.06762 33.9718 6.07517 33.9952 6.08304C34.0138 6.08946 34.0321 6.09497 34.0507 6.10139C34.0842 6.11245 34.1173 6.1226 34.1494 6.13308C34.1677 6.13859 34.1857 6.14471 34.2034 6.14992C34.2305 6.15803 34.2573 6.16676 34.2838 6.17457C34.3061 6.18123 34.3285 6.18789 34.3496 6.19396C34.3673 6.19917 34.3849 6.20438 34.4026 6.20959C34.4312 6.21767 34.4599 6.22575 34.4873 6.23324C34.5018 6.23697 34.5162 6.2407 34.5304 6.24506C34.5518 6.2505 34.5732 6.25595 34.5937 6.26172C34.6097 6.26543 34.6255 6.26975 34.6409 6.27316C34.6638 6.27858 34.6861 6.2837 34.7085 6.28882C34.7195 6.2917 34.7308 6.29395 34.7412 6.29653C34.7669 6.30251 34.7917 6.30728 34.8159 6.31176C34.825 6.31374 34.8335 6.31543 34.8423 6.3165C34.8664 6.32098 34.89 6.32516 34.9129 6.32904C34.9179 6.32987 34.9229 6.3307 34.9288 6.33121C34.9492 6.33391 34.9686 6.33694 34.9877 6.33905C34.993 6.33926 34.9987 6.34038 35.004 6.34059C35.0246 6.34268 35.044 6.34417 35.0621 6.34507C35.0668 6.34498 35.0718 6.34581 35.0765 6.34573C35.0946 6.34663 35.1117 6.34632 35.1273 6.34603C35.1304 6.34597 35.1329 6.34562 35.1354 6.34527C35.1503 6.34469 35.164 6.34352 35.1767 6.34114C35.1782 6.34111 35.1801 6.34046 35.1817 6.34043C35.1943 6.33805 35.2058 6.33508 35.2159 6.33151C35.2178 6.33086 35.2205 6.32989 35.2218 6.32895C35.2313 6.32509 35.2395 6.32064 35.2462 6.31468C35.2467 6.31344 35.2486 6.31279 35.2492 6.31155C35.2558 6.30559 35.2612 6.29904 35.2646 6.2916C35.2667 6.28726 35.2665 6.28266 35.2673 6.27773C35.2743 6.24104 35.25 6.19047 35.1966 6.12784C34.8341 5.70305 33.1379 4.72211 31.0245 3.73679C28.9111 2.75147 27.0696 2.08383 26.5108 2.07833C26.4285 2.07768 26.3735 2.09128 26.3506 2.12058C26.3473 2.12432 26.3437 2.12716 26.3416 2.13149C26.3382 2.13893 26.3369 2.14664 26.3366 2.15555L26.3401 2.15641Z" fill="#6BC6F9"/>
<path d="M25.9062 8.96813C26.5305 9.30673 27.2756 9.68124 28.0843 10.0583C29.0496 10.5084 29.9546 10.891 30.6914 11.1689C31.7382 11.5634 32.4466 11.7465 32.5102 11.6102C32.5113 11.6077 32.5116 11.6055 32.5121 11.6028C32.5237 11.5629 32.4863 11.5025 32.4058 11.4234C32.3934 11.4267 32.3788 11.4282 32.3629 11.4291C32.3185 11.4318 32.26 11.4264 32.1885 11.4142C31.9639 11.3759 31.6114 11.2674 31.1649 11.1037C30.7937 10.9676 30.3584 10.7933 29.8787 10.59C29.3663 10.3723 28.8038 10.1214 28.2165 9.84755C27.9139 9.70649 27.6208 9.5668 27.339 9.42936C26.3893 8.96701 25.5784 8.53686 25.0338 8.20449C24.6023 7.94072 24.3384 7.73844 24.3079 7.62991C24.3073 7.62962 24.306 7.62902 24.3051 7.62935C24.2972 7.62796 24.2897 7.62748 24.2822 7.627C24.1592 7.61265 24.0801 7.62177 24.0542 7.65727C24.0531 7.65975 24.051 7.66255 24.0498 7.66503C23.9791 7.81688 24.7272 8.32714 25.9062 8.96659L25.9062 8.96813Z" fill="#159ECE"/>
<path d="M30.6914 11.1697C29.9546 10.8918 29.0497 10.5091 28.0844 10.0591C27.2757 9.68202 26.5306 9.30751 25.9063 8.9689L25.4284 9.99403C25.8187 10.2069 26.2565 10.4337 26.728 10.6663C26.8654 10.7342 27.006 10.802 27.1485 10.8707C27.2237 10.9065 27.2992 10.9432 27.3759 10.979C27.4165 10.9979 27.4571 11.0168 27.4977 11.0358C27.5339 11.0526 27.5694 11.0692 27.6056 11.086C27.6417 11.1029 27.6747 11.1183 27.7096 11.1345C27.851 11.2005 27.9911 11.2643 28.1303 11.3269C28.3911 11.4447 28.6446 11.5554 28.8913 11.6606C29.0407 11.7242 29.1876 11.7867 29.3297 11.8446C29.6405 11.9729 29.935 12.0883 30.2065 12.19C30.2156 12.1837 30.2222 12.1762 30.2262 12.1675L30.692 11.1684L30.6914 11.1697Z" fill="#3EAFED"/>
<path d="M23.0389 10.0979C23.2375 10.2863 23.4955 10.4798 23.8148 10.6761C24.6041 11.1626 25.6772 11.7293 26.8457 12.2786L27.1679 12.4289C27.8398 12.7368 28.917 13.2021 29.7652 13.4911C30.3548 13.6921 30.8476 13.7777 30.9591 13.7905C31.0132 13.7968 31.0642 13.8002 31.1135 13.8021C31.6433 13.825 31.9003 13.6166 32.0599 13.276C32.1045 13.0561 32.2061 12.9194 31.9737 12.6625C31.9348 12.6715 31.8803 12.6725 31.8108 12.6657C31.7614 12.6608 31.7037 12.652 31.6394 12.6394L31.5949 12.7348C31.5362 12.8606 31.1571 12.8242 30.5615 12.6559L30.6964 12.3665C30.6711 12.3577 30.6465 12.3493 30.62 12.3399C30.5707 12.323 30.5199 12.3045 30.469 12.2861C30.3837 12.2554 30.2965 12.2238 30.2058 12.1898C29.9343 12.0881 29.6402 11.9721 29.3291 11.8444C29.1867 11.7856 29.0394 11.7237 28.8906 11.6604L28.7323 12C28.3468 11.8414 27.9356 11.6618 27.5072 11.4643C27.466 11.4451 27.4248 11.4259 27.3829 11.4064C27.341 11.3869 27.3017 11.3685 27.2611 11.3496C27.1679 11.3061 27.0765 11.262 26.986 11.2176C25.9346 10.707 25.0454 10.183 24.4444 9.75795C23.9963 9.44041 23.7086 9.17803 23.6344 9.01591C23.6171 8.97844 23.6107 8.94598 23.6172 8.92036C23.6181 8.9185 23.6351 8.88193 23.6542 8.84103C23.6 8.78179 23.5723 8.73344 23.5741 8.69807C23.0469 8.61826 22.9677 8.82956 22.8071 9.03159C22.6418 9.38611 22.5883 9.63504 23.015 10.0596C23.0208 10.0653 23.026 10.0708 23.0319 10.0765L23.0404 10.0978L23.0389 10.0979Z" fill="#92D8EA"/>
<path d="M23.6537 8.8407C23.6664 8.85491 23.6806 8.86909 23.6965 8.88478C23.722 8.90951 23.7513 8.93602 23.7848 8.96367C23.8063 8.98202 23.8301 9.00064 23.8554 9.02077C23.9424 9.08924 24.0484 9.16505 24.1721 9.2476C24.2209 9.2802 24.273 9.31428 24.327 9.34925C24.3633 9.37225 24.4001 9.39616 24.439 9.42034C24.6368 9.54425 24.8652 9.67867 25.1176 9.82125C25.2173 9.87751 25.321 9.93492 25.4282 9.99319L25.9061 8.96807C24.7265 8.32832 23.979 7.81835 24.0498 7.6665L23.5785 8.67737C23.5785 8.67737 23.5782 8.67799 23.5779 8.67861C23.5753 8.68419 23.574 8.69036 23.5737 8.69774C23.5718 8.73311 23.5995 8.78146 23.6537 8.8407Z" fill="#43C0F7"/>
<path d="M30.6918 11.1696L30.226 12.1687C30.2219 12.1774 30.2147 12.1846 30.2062 12.1912C30.297 12.2252 30.3841 12.2568 30.4694 12.2875C30.5209 12.3062 30.5714 12.3237 30.6204 12.3413C30.6463 12.3503 30.6709 12.3588 30.6968 12.3679C30.8865 12.4329 31.0619 12.489 31.2169 12.5341C31.3297 12.5671 31.4323 12.5938 31.5244 12.6149C31.5336 12.6169 31.5424 12.6195 31.5515 12.6215C31.5829 12.6286 31.6118 12.6345 31.6401 12.6401C31.7038 12.6525 31.7621 12.6616 31.8115 12.6665C31.8816 12.6735 31.9355 12.6722 31.9745 12.6632C31.9899 12.6599 32.0038 12.655 32.0142 12.6493C32.026 12.642 32.0345 12.6339 32.0394 12.6233L32.5107 11.6125C32.4471 11.7488 31.7387 11.5657 30.6919 11.1712L30.6918 11.1696Z" fill="#22A4DD"/>
<path d="M12.4345 40.4524C12.5055 40.3632 12.5767 40.2734 12.6462 40.1806C12.7166 40.0859 12.7843 39.9953 12.8576 39.8762C12.8672 39.8589 12.8764 39.8442 12.8872 39.8244L12.9031 39.7903L12.9084 39.7822C12.9095 39.7797 12.9104 39.7779 12.915 39.768C12.9219 39.7515 12.9278 39.7339 12.9328 39.7166C12.9377 39.6993 12.9421 39.6817 12.9458 39.6639L12.9494 39.6444L12.9502 39.6395C12.9502 39.6395 12.95 39.6417 12.9503 39.6426C12.949 39.6503 12.9478 39.658 12.9456 39.666L12.9473 39.6623L12.9505 39.6555C12.9634 39.6245 12.9861 39.5725 13.0071 39.5257C13.0506 39.429 13.0987 39.3292 13.1459 39.2297L13.4362 38.6302L14.6191 36.2255L15.2073 35.0202L15.7914 33.8122L16.0831 33.208L16.371 32.6021L16.9474 31.3905L17.5175 30.1759C17.7091 29.7718 17.8955 29.3653 18.0832 28.9593C18.2709 28.5534 18.4599 28.1481 18.6444 27.7406L19.2006 26.5196L19.2321 26.452L19.24 26.3969L19.4575 24.9682L19.6659 23.5374L19.8642 22.1051C19.9237 21.6514 19.9859 21.1983 20.0431 20.7443C20.2813 20.4653 20.5188 20.186 20.7548 19.9051C21.0138 19.5996 21.2699 19.2904 21.5261 18.9828L22.2883 18.0518C22.416 17.897 22.5399 17.739 22.6654 17.5825C22.7909 17.4259 22.9157 17.2691 23.0393 17.1102C22.8883 17.2435 22.7396 17.3786 22.5909 17.5138C22.4425 17.6498 22.2922 17.7835 22.1457 17.9204L21.2632 18.7418C20.9716 19.0178 20.6787 19.2932 20.39 19.5713C20.0994 19.8485 19.811 20.1276 19.5232 20.4069L19.4709 20.4579L19.4484 20.5576C19.3412 21.0275 19.2413 21.4985 19.1377 21.9693L18.837 23.3826L18.5464 24.7976L18.279 26.1412L17.706 27.2941C17.5062 27.6944 17.3113 28.0977 17.1153 28.4998C16.92 28.9021 16.7225 29.3043 16.5303 29.7081L15.9517 30.9194L15.381 32.1352L15.0972 32.7439L14.816 33.3537L14.258 34.5754L13.7089 35.8012L13.1703 37.0327C12.9911 37.4434 12.8181 37.8576 12.6441 38.2722C12.5573 38.48 12.4714 38.6874 12.3884 38.8985C12.3468 39.0043 12.3055 39.1095 12.2646 39.2203C12.2436 39.2769 12.2247 39.3292 12.2006 39.404L12.1909 39.4364L12.1862 39.4531C12.183 39.4666 12.1804 39.4805 12.1784 39.4947C12.1394 39.5701 12.0808 39.6642 12.0236 39.7538C11.9659 39.8445 11.9053 39.9363 11.8442 40.0277C11.7215 40.2113 11.5955 40.3939 11.4678 40.5766C11.2132 40.9423 10.956 41.3083 10.6973 41.6728L9.92217 42.7706C9.6625 43.1355 9.40866 43.506 9.15124 43.8727C9.02175 44.056 8.8948 44.2405 8.7682 44.426C8.64096 44.6111 8.51401 44.7956 8.38838 44.9823C8.54646 44.8221 8.70195 44.6592 8.8568 44.4959C9.01263 44.3339 9.16714 44.1698 9.31911 44.0045C9.62431 43.6745 9.93177 43.3463 10.2315 43.0114C10.5335 42.6784 10.8303 42.3414 11.1275 42.0039C11.4223 41.6645 11.7163 41.3239 12.0053 40.9773C12.1495 40.8038 12.2927 40.6292 12.4345 40.4508L12.4345 40.4524ZM12.9542 39.5863C12.955 39.5995 12.9548 39.613 12.9532 39.6265C12.9524 39.6315 12.951 39.6361 12.9503 39.641C12.9517 39.6198 12.9542 39.5712 12.9542 39.5863ZM12.1876 39.4733C12.191 39.4659 12.1902 39.4677 12.1899 39.4684L12.1893 39.4696L12.1879 39.4742L12.1853 39.4798C12.1853 39.4798 12.1871 39.4761 12.1879 39.4742L12.1876 39.4733ZM12.1743 39.52C12.1727 39.535 12.1714 39.5495 12.1704 39.5649C12.1712 39.5547 12.1717 39.5406 12.1722 39.5311C12.1724 39.5274 12.1732 39.524 12.174 39.5206L12.1743 39.52ZM12.1713 39.5381C12.1713 39.5381 12.1724 39.5341 12.1726 39.532L12.1718 39.5369L12.1711 39.5418C12.1711 39.5418 12.1706 39.5461 12.1713 39.5381Z" fill="#CAF1FC"/>
</g>
<defs>
<clipPath id="clip0_3_173138">
<rect width="17.4274" height="54.4607" fill="white" transform="translate(23.0127) rotate(24.996)"/>
</clipPath>
</defs>
</svg>
