<svg width="69" height="93" viewBox="0 0 69 93" fill="none" xmlns="http://www.w3.org/2000/svg">
<g clip-path="url(#clip0_612_238457)">
<path d="M8.86291 85.1304H7.9082V88.5926H11.2334C10.1196 87.7253 9.28283 86.5213 8.86291 85.1304Z" fill="#4F5656"/>
<path d="M7.90746 82.2553C7.90746 81.4089 7.22131 80.7231 6.37449 80.7231H4.76855C5.61538 80.7231 6.30153 81.4089 6.30153 82.2553V91.4667C6.30153 92.313 5.61538 92.9988 4.76855 92.9988H6.37449C7.22131 92.9988 7.90746 92.313 7.90746 91.4667V82.2553Z" fill="#5A6666"/>
<path d="M3.51637 80.7231H4.76758C5.61363 80.7231 6.30056 81.4097 6.30056 82.2553V91.4667C6.30056 92.3123 5.61363 92.9988 4.76758 92.9988H3.51637C2.67032 92.9988 1.9834 92.3123 1.9834 91.4667V82.2553C1.9834 81.4097 2.67032 80.7231 3.51637 80.7231Z" fill="#6D797A"/>
<path d="M57.2891 88.5926H60.5832V85.1304H59.6595C59.2396 86.5213 58.4029 87.7253 57.2891 88.5926Z" fill="#4F5656"/>
<path d="M60.583 91.4674C60.583 92.3138 61.2692 92.9996 62.116 92.9996H63.7219C62.8751 92.9996 62.1889 92.3138 62.1889 91.4674V82.256C62.1889 81.4097 62.8751 80.7239 63.7219 80.7239H62.116C61.2692 80.7239 60.583 81.4097 60.583 82.256V91.4674Z" fill="#5A6666"/>
<path d="M64.9734 80.7231H63.7214C62.8748 80.7231 62.1885 81.4091 62.1885 82.2553V91.4675C62.1885 92.3136 62.8748 92.9996 63.7214 92.9996H64.9734C65.8201 92.9996 66.5064 92.3136 66.5064 91.4675V82.2553C66.5064 81.4091 65.8201 80.7231 64.9734 80.7231Z" fill="#6D797A"/>
<path d="M59.8739 13.4297H8.65327C6.64294 13.4297 4.99742 14.9021 4.69238 16.7988L8.57099 83.5338C8.60359 84.0877 8.7076 84.6199 8.86206 85.1303C9.28198 86.5213 10.1187 87.7252 11.2325 88.5925C12.41 89.5103 13.8902 90.0549 15.4907 90.0549H53.0303C54.6315 90.0549 56.1109 89.5103 57.2884 88.5925C58.4023 87.7252 59.239 86.5213 59.6589 85.1303C59.8126 84.6206 59.9174 84.0877 59.95 83.5338L63.8301 16.7748C63.515 14.8897 61.8757 13.4297 59.8739 13.4297ZM44.4239 87.0922H15.5978C12.833 87.0922 10.5479 84.9387 10.3842 82.1809L6.77955 23.1523C6.62509 20.5481 8.69674 18.3519 11.3071 18.3519H30.3943C42.9817 18.3519 53.0854 28.7363 52.7353 41.3114L51.4088 80.3043C51.3032 84.0838 48.2078 87.093 44.4247 87.093L44.4239 87.0922Z" fill="#68AA00"/>
<path d="M35.407 10.8286H4.34473L4.41846 12.0923L4.60164 15.2505L4.69168 16.7989C4.99672 14.9021 6.64147 13.4297 8.65257 13.4297H59.874C61.8758 13.4297 63.5159 14.8897 63.8302 16.7748L63.9187 15.2505L64.1019 12.0923L64.1756 10.8286H35.407ZM63.9234 15.0907C63.9265 14.574 63.7961 14.086 63.5655 13.6594C63.7968 14.086 63.9265 14.574 63.9234 15.0907Z" fill="#559E00"/>
<path d="M59.6384 0.000488281H2.34719C1.05096 0.000488281 0 1.05087 0 2.34639V5.28421C0 3.42238 1.51046 1.91274 3.37331 1.91274H65.6259C67.4888 1.91274 68.9992 3.42238 68.9992 5.28498V2.34639C68.9992 1.05087 67.9483 0.000488281 66.652 0.000488281H59.6376H59.6384Z" fill="#ACD832"/>
<path d="M65.6259 1.91264H3.37331C1.51046 1.91264 0 3.42228 0 5.28411V8.26924C0 8.87201 0.488998 9.36151 1.09287 9.36151H2.08639V7.19015C2.08639 5.32755 3.59685 3.81869 5.45971 3.81869H43.7452C45.6088 3.81869 47.1185 5.32832 47.1185 7.19015V9.36151H67.9063C68.5102 9.36151 68.9992 8.87278 68.9992 8.26924V5.28411C68.9992 3.4215 67.4888 1.91187 65.6259 1.91187V1.91264Z" fill="#8EC614"/>
<path d="M47.118 9.36143V7.19007C47.118 5.32746 45.6076 3.8186 43.7447 3.8186H5.45925C3.5964 3.8186 2.08594 5.32824 2.08594 7.19007V9.36143H47.1188H47.118Z" fill="#9ED113"/>
<path d="M67.9071 9.36156H1.09287C0.489774 9.36156 0 8.87283 0 8.26929V9.73625C0 10.339 0.488998 10.8285 1.09287 10.8285H67.9071C68.511 10.8285 69 10.3398 69 9.73625V8.26929C69 8.87205 68.511 9.36156 67.9071 9.36156Z" fill="#79B700"/>
<path d="M52.7353 41.3113C53.0861 28.7362 42.9817 18.3518 30.3943 18.3518H11.307C8.6967 18.3518 6.62583 20.548 6.77952 23.1522L10.3841 82.1808C10.5471 84.9386 12.833 87.0921 15.5978 87.0921H44.4246C48.2078 87.0921 51.3032 84.0829 51.4088 80.3034L52.7353 41.3105V41.3113ZM43.9907 47.2156L42.9064 79.0886C42.8203 82.1777 40.2899 84.6376 37.1975 84.6376H16.7551C14.4956 84.6376 12.6273 82.8774 12.4938 80.623L9.5474 32.3722C9.42166 30.2435 11.1145 28.4484 13.2483 28.4484H25.7938C36.0829 28.4484 44.2787 36.9367 43.9915 47.2156H43.9907Z" fill="#79B700"/>
<path d="M25.793 28.4475H13.2475C11.1137 28.4475 9.42088 30.2426 9.54662 32.3713L12.493 80.6222C12.6265 82.8766 14.4948 84.6368 16.7543 84.6368H37.1968C40.2891 84.6368 42.8195 82.1768 42.9056 79.0877L43.99 47.2148C44.2764 36.9351 36.0806 28.4475 25.7922 28.4475H25.793Z" fill="#8BC400"/>
</g>
<mask id="mask0_612_238457" style="mask-type:alpha" maskUnits="userSpaceOnUse" x="19" y="34" width="30" height="30">
<rect x="19" y="34" width="30" height="30" fill="#D9D9D9"/>
</mask>
<g mask="url(#mask0_612_238457)">
<path d="M34 60.875C32.3542 60.875 30.8125 60.5625 29.375 59.9375C27.9375 59.3125 26.6823 58.4635 25.6094 57.3906C24.5365 56.3177 23.6875 55.0625 23.0625 53.625C22.4375 52.1875 22.125 50.6458 22.125 49C22.125 47.3542 22.4375 45.8125 23.0625 44.375C23.6875 42.9375 24.5365 41.6823 25.6094 40.6094C26.6823 39.5365 27.9375 38.6875 29.375 38.0625C30.8125 37.4375 32.3542 37.125 34 37.125V34L39 39L34 44V40.875C31.75 40.875 29.8333 41.6667 28.25 43.25C26.6667 44.8333 25.875 46.75 25.875 49C25.875 50.375 26.1927 51.651 26.8281 52.8281C27.4635 54.0052 28.3125 54.9583 29.375 55.6875C29.7083 55.1042 30.2031 54.6094 30.8594 54.2031C31.5156 53.7969 32.2708 53.5417 33.125 53.4375C33.0625 53 32.9792 52.5625 32.875 52.125C32.7708 51.6875 32.6458 51.2812 32.5 50.9062C32.2708 51.0938 32.0208 51.2396 31.75 51.3437C31.4792 51.4479 31.1875 51.5 30.875 51.5C30.1875 51.5 29.599 51.2552 29.1094 50.7656C28.6198 50.276 28.375 49.6875 28.375 49V47.75C28.375 47.3958 28.3177 47.0625 28.2031 46.75C28.0885 46.4375 27.9375 46.1458 27.75 45.875C28.7917 45.8542 29.7188 45.9479 30.5312 46.1562C31.2396 46.3437 31.8854 46.651 32.4688 47.0781C33.0521 47.5052 33.3542 48.1458 33.375 49C33.375 49.1875 33.3594 49.3594 33.3281 49.5156C33.2969 49.6719 33.2396 49.8333 33.1562 50C32.8854 49.7917 32.6146 49.6042 32.3438 49.4375C32.0729 49.2708 31.7917 49.125 31.5 49C31.8542 49.2708 32.2604 49.6875 32.7188 50.25C33.1771 50.8125 33.6042 51.4792 34 52.25C34.4167 51.2292 34.9375 50.224 35.5625 49.2344C36.1875 48.2448 36.9167 47.3333 37.75 46.5C37.2708 46.8333 36.8125 47.1875 36.375 47.5625C35.9375 47.9375 35.5104 48.3333 35.0938 48.75C34.9479 48.5208 34.8333 48.2656 34.75 47.9844C34.6667 47.7031 34.625 47.4167 34.625 47.125C34.625 46.25 34.9271 45.5104 35.5312 44.9062C36.1354 44.3021 36.875 44 37.75 44H39C39.4792 44 39.875 43.9375 40.1875 43.8125C40.5 43.6875 40.7604 43.5417 40.9688 43.375C41.1979 43.1875 41.375 42.9792 41.5 42.75C41.5833 44.1458 41.5104 45.3958 41.2812 46.5C41.0938 47.4375 40.7396 48.2969 40.2188 49.0781C39.6979 49.8594 38.875 50.25 37.75 50.25C37.4375 50.25 37.1406 50.2083 36.8594 50.125C36.5781 50.0417 36.3229 49.9271 36.0938 49.7812C35.9479 50.1771 35.7813 50.7031 35.5938 51.3594C35.4063 52.0156 35.2604 52.7187 35.1562 53.4687C35.9479 53.6146 36.6458 53.8854 37.25 54.2812C37.8542 54.6771 38.3125 55.1458 38.625 55.6875C39.6875 54.9583 40.5365 54.0104 41.1719 52.8437C41.8073 51.6771 42.125 50.3958 42.125 49H45.875C45.875 50.6458 45.5625 52.1875 44.9375 53.625C44.3125 55.0625 43.4635 56.3177 42.3906 57.3906C41.3177 58.4635 40.0625 59.3125 38.625 59.9375C37.1875 60.5625 35.6458 60.875 34 60.875Z" fill="#1C1B1F"/>
</g>
<defs>
<clipPath id="clip0_612_238457">
<rect width="69" height="93" fill="white"/>
</clipPath>
</defs>
</svg>
