<svg width="394" height="379" viewBox="0 0 394 379" fill="none" xmlns="http://www.w3.org/2000/svg">
<g filter="url(#filter0_ii_3_168213)">
<rect x="331.25" y="228.375" width="44.75" height="42.875" fill="#96C9FF"/>
<rect x="62.75" y="56.875" width="44.75" height="42.875" fill="#96C9FF"/>
<rect x="62.75" y="142.625" width="44.75" height="42.875" fill="#96C9FF"/>
<rect x="62.75" y="228.375" width="44.75" height="42.875" fill="#96C9FF"/>
<rect x="62.75" y="314.125" width="44.75" height="42.875" fill="#96C9FF"/>
<rect x="18" y="14" width="44.75" height="42.875" fill="#96C9FF"/>
<rect x="18" y="185.5" width="44.75" height="42.875" fill="#96C9FF"/>
<rect x="18" y="271.25" width="44.75" height="42.875" fill="#96C9FF"/>
<rect x="18" y="99.75" width="44.75" height="42.875" fill="#96C9FF"/>
<rect x="107.5" y="14" width="44.75" height="42.875" fill="#96C9FF"/>
<rect x="107.5" y="185.5" width="44.75" height="42.875" fill="#96C9FF"/>
<rect x="107.5" y="271.25" width="44.75" height="42.875" fill="#96C9FF"/>
<rect x="107.5" y="99.75" width="44.75" height="42.875" fill="#96C9FF"/>
<rect x="152.25" y="56.875" width="44.75" height="42.875" fill="#96C9FF"/>
<rect x="152.25" y="142.625" width="44.75" height="42.875" fill="#96C9FF"/>
<rect x="152.25" y="228.375" width="44.75" height="42.875" fill="#96C9FF"/>
<rect x="152.25" y="314.125" width="44.75" height="42.875" fill="#96C9FF"/>
<rect x="197" y="14" width="44.75" height="42.875" fill="#96C9FF"/>
<rect x="197" y="185.5" width="44.75" height="42.875" fill="#96C9FF"/>
<rect x="197" y="271.25" width="44.75" height="42.875" fill="#96C9FF"/>
<rect x="197" y="99.75" width="44.75" height="42.875" fill="#96C9FF"/>
<rect x="241.75" y="56.875" width="44.75" height="42.875" fill="#96C9FF"/>
<rect x="241.75" y="142.625" width="44.75" height="42.875" fill="#96C9FF"/>
<rect x="241.75" y="228.375" width="44.75" height="42.875" fill="#96C9FF"/>
<rect x="241.75" y="314.125" width="44.75" height="42.875" fill="#96C9FF"/>
<rect x="286.5" y="14" width="44.75" height="42.875" fill="#96C9FF"/>
<rect x="286.5" y="185.5" width="44.75" height="42.875" fill="#96C9FF"/>
<rect x="286.5" y="271.25" width="44.75" height="42.875" fill="#96C9FF"/>
<rect x="286.5" y="99.75" width="44.75" height="42.875" fill="#96C9FF"/>
<rect x="331.25" y="56.875" width="44.75" height="42.875" fill="#96C9FF"/>
<rect x="331.25" y="142.625" width="44.75" height="42.875" fill="#96C9FF"/>
<rect x="331.25" y="314.125" width="44.75" height="42.875" fill="#96C9FF"/>
</g>
<g filter="url(#filter1_d_3_168213)">
<rect x="18" y="56.875" width="44.75" height="42.875" fill="white"/>
<rect x="18" y="142.625" width="44.75" height="42.875" fill="white"/>
<rect x="18" y="228.375" width="44.75" height="42.875" fill="white"/>
<rect x="18" y="314.125" width="44.75" height="42.875" fill="white"/>
<rect x="62.75" y="14" width="44.75" height="42.875" fill="white"/>
<rect x="62.75" y="185.5" width="44.75" height="42.875" fill="white"/>
<rect x="62.75" y="271.25" width="44.75" height="42.875" fill="white"/>
<rect x="62.75" y="99.75" width="44.75" height="42.875" fill="white"/>
<rect x="107.5" y="56.875" width="44.75" height="42.875" fill="white"/>
<rect x="107.5" y="142.625" width="44.75" height="42.875" fill="white"/>
<rect x="107.5" y="228.375" width="44.75" height="42.875" fill="white"/>
<rect x="107.5" y="314.125" width="44.75" height="42.875" fill="white"/>
<rect x="152.25" y="14" width="44.75" height="42.875" fill="white"/>
<rect x="152.25" y="185.5" width="44.75" height="42.875" fill="white"/>
<rect x="152.25" y="271.25" width="44.75" height="42.875" fill="white"/>
<rect x="152.25" y="99.75" width="44.75" height="42.875" fill="white"/>
<rect x="197" y="56.875" width="44.75" height="42.875" fill="white"/>
<rect x="197" y="142.625" width="44.75" height="42.875" fill="white"/>
<rect x="197" y="228.375" width="44.75" height="42.875" fill="white"/>
<rect x="197" y="314.125" width="44.75" height="42.875" fill="white"/>
<rect x="241.75" y="14" width="44.75" height="42.875" fill="white"/>
<rect x="241.75" y="185.5" width="44.75" height="42.875" fill="white"/>
<rect x="241.75" y="271.25" width="44.75" height="42.875" fill="white"/>
<rect x="241.75" y="99.75" width="44.75" height="42.875" fill="white"/>
<rect x="286.5" y="56.875" width="44.75" height="42.875" fill="white"/>
<rect x="286.5" y="142.625" width="44.75" height="42.875" fill="white"/>
<rect x="286.5" y="228.375" width="44.75" height="42.875" fill="white"/>
<rect x="286.5" y="314.125" width="44.75" height="42.875" fill="white"/>
<rect x="331.25" y="14" width="44.75" height="42.875" fill="white"/>
<rect x="331.25" y="185.5" width="44.75" height="42.875" fill="white"/>
<rect x="331.25" y="271.25" width="44.75" height="42.875" fill="white"/>
<rect x="331.25" y="99.75" width="44.75" height="42.875" fill="white"/>
</g>
<defs>
<filter id="filter0_ii_3_168213" x="0" y="-2" width="392" height="375" filterUnits="userSpaceOnUse" color-interpolation-filters="sRGB">
<feFlood flood-opacity="0" result="BackgroundImageFix"/>
<feBlend mode="normal" in="SourceGraphic" in2="BackgroundImageFix" result="shape"/>
<feColorMatrix in="SourceAlpha" type="matrix" values="0 0 0 0 0 0 0 0 0 0 0 0 0 0 0 0 0 0 127 0" result="hardAlpha"/>
<feOffset dx="16" dy="16"/>
<feGaussianBlur stdDeviation="25.5"/>
<feComposite in2="hardAlpha" operator="arithmetic" k2="-1" k3="1"/>
<feColorMatrix type="matrix" values="0 0 0 0 1 0 0 0 0 1 0 0 0 0 1 0 0 0 0.1 0"/>
<feBlend mode="normal" in2="shape" result="effect1_innerShadow_3_168213"/>
<feColorMatrix in="SourceAlpha" type="matrix" values="0 0 0 0 0 0 0 0 0 0 0 0 0 0 0 0 0 0 127 0" result="hardAlpha"/>
<feOffset dx="-18" dy="-16"/>
<feGaussianBlur stdDeviation="25"/>
<feComposite in2="hardAlpha" operator="arithmetic" k2="-1" k3="1"/>
<feColorMatrix type="matrix" values="0 0 0 0 1 0 0 0 0 1 0 0 0 0 1 0 0 0 0.1 0"/>
<feBlend mode="normal" in2="effect1_innerShadow_3_168213" result="effect2_innerShadow_3_168213"/>
</filter>
<filter id="filter1_d_3_168213" x="0" y="0" width="394" height="379" filterUnits="userSpaceOnUse" color-interpolation-filters="sRGB">
<feFlood flood-opacity="0" result="BackgroundImageFix"/>
<feColorMatrix in="SourceAlpha" type="matrix" values="0 0 0 0 0 0 0 0 0 0 0 0 0 0 0 0 0 0 127 0" result="hardAlpha"/>
<feOffset dy="4"/>
<feGaussianBlur stdDeviation="9"/>
<feComposite in2="hardAlpha" operator="out"/>
<feColorMatrix type="matrix" values="0 0 0 0 0 0 0 0 0 0 0 0 0 0 0 0 0 0 0.25 0"/>
<feBlend mode="normal" in2="BackgroundImageFix" result="effect1_dropShadow_3_168213"/>
<feBlend mode="normal" in="SourceGraphic" in2="effect1_dropShadow_3_168213" result="shape"/>
</filter>
</defs>
</svg>
