<svg width="56" height="41" viewBox="0 0 56 41" fill="none" xmlns="http://www.w3.org/2000/svg">
<g clip-path="url(#clip0_3_173134)">
<path d="M53.2555 31.9336C53.2396 31.9203 34.2501 18.5036 34.2501 18.5036C33.5524 18.0109 33.2288 17.1379 33.4366 16.3075L33.9702 14.1735C34.1635 13.4003 34.8069 12.7994 35.598 12.7251C38.3668 12.4656 40.7835 10.3899 41.2814 7.42823C41.79 4.40368 40.0019 1.36809 37.1146 0.359396C34.4495 -0.571556 31.661 0.372352 30.0423 2.40574C29.5626 3.00859 29.8869 3.91172 30.6325 4.09959L30.7198 4.12169C31.1243 4.22344 31.5368 4.06225 31.8015 3.7391C32.7993 2.5212 34.4472 1.9214 36.0697 2.35086C38.1093 2.89084 39.5195 5.20698 39.0656 7.27352C38.7071 8.9064 36.6262 9.92728 35.4499 10.3823C35.0295 10.5446 34.5836 10.6144 34.1362 10.6669C32.7377 10.8312 32.3492 12.1703 32.3492 12.1703L31.4525 15.7565C31.2409 16.6025 30.5238 17.2244 29.659 17.3124L6.47692 19.6644C5.91747 19.7211 4.9991 19.7604 4.43775 19.7966C2.29983 19.9345 0.412962 21.5247 0.0548062 23.8112C-0.305628 26.1098 1.14826 28.3112 3.34125 29.068L3.58623 29.1526C3.58623 29.1526 3.58623 29.1526 3.58661 29.1526C3.58661 29.1526 3.58737 29.1526 3.58775 29.1526C3.60408 29.1568 3.62079 29.1606 3.6375 29.1637L3.77043 29.1888C3.87678 29.2113 3.98274 29.2345 4.08909 29.2494L30.5896 34.2738C31.0681 34.3645 31.5296 34.049 31.6196 33.5684C31.71 33.0879 31.389 32.6215 30.9166 32.5342L7.81231 28.1538C8.53887 27.5338 9.08959 26.6928 9.33874 25.6959C9.74703 24.0623 9.25291 22.4134 8.17806 21.271L30.1326 19.0432C31.157 18.9392 32.1843 19.2094 33.0264 19.8042L49.8734 31.7023C48.3386 32.176 47.0769 33.4145 46.6587 35.0881C46.3541 36.3072 46.5542 37.5338 47.1198 38.554L30.5295 35.7047C30.1064 35.6319 29.6655 35.8499 29.5158 36.2538C29.3248 36.7698 29.6279 37.3033 30.125 37.4283C30.1467 37.4336 30.1691 37.4386 30.1915 37.4424L50.1692 40.8731C50.1715 40.8735 50.1734 40.8731 50.1757 40.8735C52.6881 41.4646 55.2256 39.9224 55.8557 37.4024C56.4174 35.1548 55.2757 32.8749 53.254 31.9333L53.2555 31.9336ZM7.62848 25.2657C7.25779 26.7484 5.83505 27.692 4.35951 27.4995L4.00325 27.4321C2.41947 27.0255 1.45552 25.4052 1.85356 23.8123C2.21817 22.3536 3.60142 21.4184 5.05113 21.5716C5.05835 21.5724 5.06556 21.5731 5.07278 21.5735C5.20343 21.5884 5.33447 21.6086 5.4655 21.6417C7.05764 22.0422 8.02804 23.6679 7.62886 25.2657H7.62848ZM50.5338 39.1427C48.9417 38.7422 47.9713 37.1166 48.3705 35.5187C48.77 33.9213 50.3903 32.9477 51.9824 33.3482C53.5746 33.7487 54.5449 35.3743 54.1458 36.9721C53.7462 38.5696 52.126 39.5432 50.5338 39.1427Z" fill="#EF4B4B"/>
<g style="mix-blend-mode:overlay" opacity="0.3">
<path d="M31.5136 33.847C31.4639 33.8371 31.4145 33.8268 31.3651 33.8169C25.1929 32.5963 19.0211 31.3753 12.8489 30.1548C11.1702 29.8229 8.33606 29.6057 7.00864 28.4125C7.23197 27.9831 7.53163 27.5323 7.65545 27.0742C7.05612 27.1935 6.48413 27.8802 5.90075 28.1625C4.47383 28.853 2.62304 28.5238 1.51971 27.3833C0.41638 26.2427 0.14406 24.3766 0.874804 22.9663C1.67505 21.4222 3.43848 20.6044 5.15558 20.3579C7.06865 20.0835 9.04667 20.1391 10.9791 19.9566C13.0616 19.76 15.138 19.5058 17.2117 19.2349C21.3026 18.7002 25.3866 18.0966 29.4969 17.727C29.9849 17.6831 30.4893 17.6344 30.9188 17.3981C31.814 16.9054 32.1141 15.7793 32.2911 14.7699C32.4677 13.7608 32.6682 12.6397 33.4833 12.0224C34.3766 11.3456 35.6349 11.5521 36.7169 11.264C39.2628 10.5857 40.5993 7.24489 40.1895 4.82854C39.8386 2.75895 38.1047 1.36195 36.0546 1.26249C34.8289 1.20304 33.6117 1.54905 32.5007 2.0715C32.1091 2.25594 31.7161 2.46552 31.2857 2.51049C30.9128 2.54936 30.4973 2.4278 30.272 2.13971C30.1942 2.22736 30.1156 2.31462 30.0423 2.40684C29.5626 3.00969 29.8869 3.91283 30.6325 4.10069L30.7198 4.1228C31.1243 4.22454 31.5368 4.06335 31.8015 3.7402C32.7993 2.5223 34.4472 1.9225 36.0698 2.35197C38.1093 2.89194 39.5195 5.20808 39.0656 7.27462C38.7071 8.9075 36.6262 9.92838 35.4499 10.3834C35.0295 10.5457 34.5836 10.6155 34.1362 10.668C32.7377 10.8323 32.3492 12.1714 32.3492 12.1714L31.4525 15.7576C31.2409 16.6036 30.5238 17.2255 29.659 17.3135L6.47692 19.6655C5.91747 19.7222 4.9991 19.7615 4.43775 19.7977C2.29983 19.9356 0.412962 21.5258 0.0548062 23.8123C-0.305628 26.1109 1.14826 28.3123 3.34125 29.0691L3.58623 29.1537C3.58623 29.1537 3.58623 29.1537 3.58661 29.1537C3.58661 29.1537 3.58737 29.1537 3.58775 29.1537C3.60408 29.1579 3.62079 29.1617 3.6375 29.1648L3.77043 29.1899C3.87678 29.2124 3.98274 29.2356 4.08909 29.2505L30.5896 34.2749C30.9671 34.3465 31.3306 34.1632 31.5129 33.8477L31.5136 33.847Z" fill="black"/>
</g>
<g style="mix-blend-mode:overlay" opacity="0.3">
<path d="M1.85302 23.8123C2.21763 22.3535 3.60088 21.4184 5.05059 21.5716C5.05781 21.5724 5.06502 21.5731 5.07224 21.5735C5.20289 21.5884 5.33392 21.6086 5.46496 21.6417C7.0571 22.0422 8.0275 23.6679 7.62832 25.2657C7.56566 25.5164 7.4707 25.75 7.35296 25.9668C7.55692 25.774 7.73809 25.558 7.87937 25.3061C8.46845 24.2543 8.22917 22.8386 7.41259 21.953C6.59601 21.0671 5.29215 20.71 4.10944 20.9276C2.7486 21.1783 1.52335 22.2072 1.16975 23.5497C0.693856 25.3564 1.75123 26.8021 3.2902 27.1428C2.14585 26.5003 1.51917 25.1483 1.8534 23.8123H1.85302Z" fill="black"/>
</g>
<g style="mix-blend-mode:overlay" opacity="0.3">
<path d="M50.1766 40.874C52.689 41.4651 55.2265 39.9229 55.8566 37.4029C56.4183 35.1553 55.2766 32.8754 53.2549 31.9338C53.239 31.9204 34.2495 18.5037 34.2495 18.5037C33.5518 18.011 33.2282 17.138 33.436 16.3076L34.0569 13.9058C33.0307 16.5271 32.5434 18.3616 34.0026 19.5117C35.0114 20.3066 36.0623 21.0295 37.1748 21.6704C40.1467 23.383 42.7849 25.6111 45.5688 27.6163C48.0349 29.3924 50.3946 31.3523 53.1577 32.6136C54.8752 33.3975 55.83 35.5566 55.2569 37.3602C54.6837 39.1638 52.6598 40.3699 50.8071 40.0121C49.5936 39.7777 48.4546 38.9656 47.235 39.1653C46.9517 39.2118 46.679 39.3124 46.3945 39.3517C46.0288 39.4023 45.6577 39.3498 45.2923 39.2968C40.7696 38.6368 36.2678 37.8346 31.7952 36.8915C31.1161 36.7482 30.2711 36.374 30.3216 35.6957C29.9703 35.7124 29.6417 35.9175 29.5168 36.2547C29.3257 36.7707 29.6288 37.3042 30.126 37.4292C30.1476 37.4345 30.17 37.4395 30.1924 37.4433L50.1701 40.874C50.1724 40.8744 50.1743 40.874 50.1766 40.8744V40.874Z" fill="black"/>
</g>
<g style="mix-blend-mode:overlay" opacity="0.4">
<path d="M49.338 33.9682C48.8773 34.358 48.5279 34.8889 48.3703 35.5191C48.0953 36.6197 48.4706 37.7335 49.2511 38.4511C48.4311 38.3231 47.6198 38.1527 46.8253 37.9039C46.4982 37.032 46.417 36.0587 46.6593 35.0889C46.7899 34.5669 47.0102 34.0936 47.2875 33.666C47.9768 33.666 48.6593 33.7792 49.338 33.9686V33.9682ZM38.9572 5.25272C39.1604 5.90702 39.2125 6.60323 39.0651 7.2743C38.8342 8.32643 37.8885 9.12286 36.9302 9.67884C37.8273 10.0393 38.7468 10.4307 39.6789 10.7035C40.4878 9.8286 41.0651 8.71245 41.2809 7.42901C41.4043 6.69507 41.3899 5.96113 41.26 5.25539C40.7788 5.27597 40.3002 5.30302 39.8464 5.30569C39.552 5.30722 39.2539 5.28816 38.9568 5.25311L38.9572 5.25272ZM8.1156 26.0359C8.49426 25.9951 8.89952 25.9398 9.29299 25.8533C9.30818 25.8007 9.32566 25.7497 9.33895 25.6963C9.72407 24.156 9.29983 22.6074 8.34956 21.4775C7.41752 21.3819 6.47181 21.4512 5.56104 21.6715C7.09469 22.1131 8.01913 23.7014 7.62793 25.2657C7.54665 25.5915 7.41182 25.8895 7.23939 26.157C7.53336 26.1094 7.82657 26.0675 8.1156 26.0362V26.0359ZM3.52453 27.2614C2.23205 26.681 1.49637 25.2371 1.85263 23.8123C1.87314 23.7308 1.89782 23.6511 1.92441 23.573C1.90086 23.5943 1.87579 23.6142 1.85225 23.6359C1.28634 24.1583 0.698021 24.7909 0.0595703 25.22C0.248713 26.4158 0.903875 27.5007 1.86022 28.2571C2.36422 27.8738 2.92481 27.5422 3.52453 27.2618V27.2614ZM54.1452 36.9722C53.9405 37.7907 53.4145 38.4435 52.7365 38.8337C53.5121 38.9049 54.2865 38.9827 55.0552 39.0924C55.4214 38.6024 55.6986 38.0334 55.8562 37.4028C55.9003 37.226 55.9303 37.0495 55.9538 36.8731C55.3746 36.6456 54.8008 36.3834 54.2303 36.1087C54.2436 36.3926 54.2174 36.6825 54.1448 36.9722H54.1452ZM30.0417 2.40614C29.562 3.00899 29.8864 3.91212 30.6319 4.09999L30.7193 4.12209C31.1238 4.22384 31.5362 4.06264 31.801 3.7395C32.496 2.89124 33.5086 2.35279 34.6062 2.24342C34.2834 1.31018 34.542 0.649408 34.9435 0.00463867C33.022 0.0255975 31.221 0.92454 30.0413 2.40614H30.0417ZM33.3954 17.0624C32.6077 16.9241 31.8492 16.7286 31.169 16.3929C30.8336 16.9009 30.2867 17.2484 29.6589 17.3124L25.53 17.7312C26.1548 18.2746 26.7803 18.8157 27.4298 19.3176L30.1332 19.0432C31.1576 18.9392 32.1849 19.2094 33.027 19.8042L34.975 21.1799C35.5982 20.9585 36.1588 20.6251 36.6119 20.1723C35.1732 19.156 34.2499 18.5036 34.2499 18.5036C33.7638 18.1603 33.4653 17.6318 33.3954 17.0624Z" fill="black"/>
</g>
<g style="mix-blend-mode:overlay" opacity="0.5">
<path d="M21.2434 18.1665L17.8267 18.5133C17.8935 19.099 17.9577 19.6858 18.0185 20.2731L21.3015 19.94C21.2852 19.3482 21.2662 18.7572 21.2434 18.1665Z" fill="white"/>
</g>
<g style="mix-blend-mode:overlay" opacity="0.5">
<path d="M16.5067 18.647L12.5962 19.0437C12.7341 19.6233 12.8727 20.2029 13.0075 20.7813L16.6396 20.4128C16.5974 19.8241 16.553 19.2357 16.5067 18.647Z" fill="white"/>
</g>
<g style="mix-blend-mode:overlay" opacity="0.5">
<path d="M17.0749 29.9106L14.8071 29.4807C14.9199 30.1015 15.0316 30.7226 15.1376 31.3449L17.0913 31.7153C17.0901 31.114 17.0844 30.5123 17.0749 29.9109V29.9106Z" fill="white"/>
</g>
<g style="mix-blend-mode:overlay" opacity="0.5">
<path d="M21.457 30.7414L19.0669 30.2883C19.1486 30.9072 19.2355 31.5249 19.3309 32.1396L21.4992 32.5507C21.4817 31.9479 21.4688 31.3447 21.457 30.7414Z" fill="white"/>
</g>
<g style="mix-blend-mode:overlay" opacity="0.5">
<path d="M43.9067 27.4883L49.8742 31.7029C48.3394 32.1766 47.0777 33.415 46.6596 35.0887C46.6144 35.2693 46.584 35.4496 46.5604 35.6298C48.6816 34.33 50.7941 33.0107 52.9039 31.6854C51.869 30.9537 48.6828 28.702 45.2288 26.2612C44.7902 26.6724 44.3481 27.0798 43.9067 27.4883Z" fill="white"/>
</g>
<g style="mix-blend-mode:overlay" opacity="0.5">
<path d="M33.9494 36.292C33.3561 36.7912 32.7594 37.2866 32.1616 37.7808L40.5633 39.2236C41.3502 38.764 42.1349 38.2998 42.9181 37.8323L33.9494 36.292Z" fill="white"/>
</g>
</g>
<defs>
<clipPath id="clip0_3_173134">
<rect width="56" height="41" fill="white"/>
</clipPath>
</defs>
</svg>
