<svg width="53" height="63" viewBox="0 0 53 63" fill="none" xmlns="http://www.w3.org/2000/svg">
<g clip-path="url(#clip0_3_173137)">
<path d="M19.3718 58.4175L41.4197 26.539L25.6299 15.4204L3.10623 46.9638C3.07745 47.0007 3.04942 47.0381 3.02254 47.0762C1.35373 49.4461 3.33793 53.7174 8.1073 57.0758C12.8767 60.4343 17.6253 60.9041 19.2942 58.5342C19.321 58.496 19.3468 58.457 19.3718 58.4175Z" fill="#EDAB35"/>
<g style="mix-blend-mode:overlay" opacity="0.2">
<path d="M19.2013 38.0398C18.5432 39.2797 17.8825 40.6978 18.3053 42.0331C18.2599 41.8898 20.7171 39.6873 20.954 39.4236C21.8195 38.4587 22.6247 37.4404 23.3744 36.3831C24.8818 34.2553 26.16 31.9707 27.2608 29.6085C27.6434 28.7873 30.3028 23.8868 28.0606 24.2386C26.9638 24.4108 26.4088 25.7451 25.8853 26.5676C25.156 27.7124 24.4406 28.8664 23.7395 30.0293C22.1541 32.6572 20.6408 35.329 19.2019 38.0396L19.2013 38.0398Z" fill="white"/>
</g>
<path d="M28.0924 28.6944C23.9426 25.7722 21.6374 22.5352 21.9236 20.5857L14.6612 30.7077C14.091 32.6161 16.4144 36.0292 20.7685 39.0952C25.1226 42.1612 29.0778 43.2093 30.7263 42.0979L37.7647 31.8569C35.9713 32.687 32.1671 31.5643 28.0921 28.6948L28.0924 28.6944Z" fill="#FFE5A4"/>
<path d="M25.2269 26.3643C24.9317 26.0839 24.6547 25.8043 24.3965 25.5271L17.0728 35.9275C17.3311 36.2047 17.6081 36.4843 17.9033 36.7647L25.2272 26.3639L25.2269 26.3643Z" fill="#F2D38C"/>
<path d="M26.834 27.7547C26.5217 27.5075 26.2231 27.2595 25.938 27.0107L18.6144 37.4111C18.8993 37.6592 19.1981 37.9079 19.5104 38.1551L26.834 27.7547Z" fill="#F2D38C"/>
<path d="M14.6578 32.0107C14.7494 32.4179 14.917 32.8568 15.1568 33.3186L22.4804 22.9182C22.2407 22.4564 22.0731 22.0175 21.9814 21.6104L14.6578 32.0107Z" fill="#F2D38C"/>
<path d="M23.7487 24.7896C23.4755 24.4585 23.2309 24.1321 23.0161 23.8135L15.6922 34.2143C15.907 34.5328 16.1516 34.8593 16.4248 35.1904L23.7484 24.79L23.7487 24.7896Z" fill="#F2D38C"/>
<path d="M21.2169 39.4043L28.5408 29.0035C28.3918 28.9026 28.2421 28.8 28.0923 28.6945C27.9226 28.5751 27.7559 28.4548 27.5928 28.3342L20.2691 38.7346C20.4329 38.8551 20.599 38.9755 20.7686 39.0949C20.9185 39.2004 21.0679 39.3033 21.2169 39.4043Z" fill="#F2D38C"/>
<path d="M34.3181 31.8187C33.9469 31.7189 33.5603 31.5958 33.1597 31.4473L25.8361 41.8477C26.2363 41.9959 26.6234 42.12 26.9942 42.2195L34.3184 31.8183L34.3181 31.8187Z" fill="#F2D38C"/>
<path d="M36.7004 32.109C36.2904 32.1395 35.8316 32.1156 35.3313 32.0369L28.0071 42.438C28.5071 42.5165 28.966 42.541 29.376 42.5105L36.7007 32.1086L36.7004 32.109Z" fill="#F2D38C"/>
<path d="M32.2515 31.0798C31.9041 30.9277 31.5492 30.7595 31.1872 30.5748L23.863 40.9759C24.2247 41.1603 24.5799 41.3288 24.9273 41.481L32.2515 31.0798Z" fill="#F2D38C"/>
<path d="M30.3411 30.1207C30.0116 29.935 29.6778 29.7353 29.3413 29.5241L22.0174 39.9248C22.3545 40.136 22.6879 40.3347 23.0177 40.5207L30.3413 30.1203L30.3411 30.1207Z" fill="#F2D38C"/>
<path d="M20.9446 21.976C20.6583 23.9256 22.9635 27.1626 27.1134 30.0848C31.2632 33.007 34.9925 34.077 36.7859 33.2469L37.409 32.362C35.6157 33.1921 31.8114 32.0693 27.7365 29.1999C23.6616 26.3305 21.3231 22.9815 21.6094 21.032L20.9446 21.976Z" fill="#EAB86A"/>
<path d="M15.0032 30.4133C14.7169 32.3629 17.0221 35.5999 21.172 38.5221C25.3218 41.4443 29.0511 42.5142 30.8445 41.6842L31.4676 40.7993C29.6743 41.6293 25.87 40.5066 21.7951 37.6372C17.7201 34.7677 15.3817 31.4188 15.668 29.4692L15.0032 30.4133Z" fill="#EAB86A"/>
<g style="mix-blend-mode:overlay" opacity="0.2">
<path d="M41.4197 26.539L39.3923 25.1114C38.9806 25.4691 38.6093 25.922 38.2871 26.3861C21.373 50.7557 16.4831 54.6914 12.3594 52.3776C6.61595 49.1543 15.0015 35.4564 16.5691 32.756C18.9301 28.6882 21.5718 24.7728 24.2696 20.9067C25.119 19.6901 25.9501 18.2247 27.1018 17.3089C27.2966 17.1542 27.4997 17.0145 27.7075 16.8834L25.6299 15.4204L3.10623 46.9638C3.07745 47.0007 3.04942 47.0381 3.02254 47.0762C1.35373 49.4461 3.33793 53.7174 8.1073 57.0758C12.8767 60.4343 17.6253 60.9041 19.2942 58.5342C19.321 58.496 19.3468 58.457 19.3718 58.4175L41.4197 26.539Z" fill="#330500"/>
</g>
<g style="mix-blend-mode:overlay" opacity="0.2">
<path d="M2.69866 50.1545C8.81054 41.8845 23.7256 20.398 26.7913 16.2382L25.6299 15.4204L3.10623 46.9638C3.07745 47.0007 3.04942 47.038 3.02254 47.0762C2.45319 47.8848 2.37094 48.9581 2.69866 50.1545Z" fill="#330500"/>
</g>
<g style="mix-blend-mode:overlay" opacity="0.2">
<path d="M41.4199 26.5389L40.1189 25.6228L15.9317 59.8962C17.4382 59.9058 18.6395 59.464 19.2944 58.5341C19.3212 58.4959 19.347 58.4569 19.372 58.4174L41.4199 26.5389Z" fill="#330500"/>
</g>
<path d="M31.4759 23.8896C35.8363 26.96 40.2884 28.1464 41.4199 26.5394C42.5515 24.9324 39.9341 21.1406 35.5738 18.0702C31.2135 14.9998 26.7614 13.8135 25.6298 15.4204C24.4982 17.0274 27.1156 20.8192 31.4759 23.8896Z" fill="#F9B235"/>
<g style="mix-blend-mode:overlay" opacity="0.2">
<path d="M41.2261 23.9823C41.2747 24.4384 41.1971 24.8338 40.9772 25.1461C39.8458 26.7529 35.3938 25.5669 31.0332 22.4963C28.2981 20.5703 26.2491 18.3606 25.3805 16.584C25.5819 18.4744 27.9627 21.4157 31.4756 23.8894C35.8358 26.9597 40.2879 28.1463 41.4196 26.5391C41.8414 25.9402 41.7419 25.0376 41.2261 23.9823Z" fill="white"/>
</g>
<path d="M41.3963 25.0665L43.5846 20.7948L30.2957 11.4372L27.0114 14.9371C26.921 15.0105 26.8421 15.0943 26.7757 15.1886C25.7391 16.6606 28.1367 20.134 32.1307 22.9464C36.1246 25.7588 40.2028 26.8455 41.2394 25.3734C41.3058 25.2791 41.358 25.1766 41.3967 25.0668L41.3963 25.0665Z" fill="#DD9D1D"/>
<g style="mix-blend-mode:overlay" opacity="0.2">
<path d="M30.9672 20.5762C30.2238 19.9693 29.513 19.2952 29.0429 18.4577C28.7765 17.9829 28.5892 17.4369 28.6687 16.8967C28.7479 16.3569 29.1512 15.8391 29.691 15.7624C30.3154 15.6739 30.8567 16.155 31.3183 16.5828C33.6138 18.7115 36.3455 20.3661 39.2952 21.4153C40.2969 21.7718 41.3654 22.0616 42.4155 21.8863C42.6863 21.8411 42.9229 21.7684 43.1333 21.6739L43.5838 20.7943L30.2957 11.4372L27.0114 14.9371C26.921 15.0105 26.8421 15.0943 26.7757 15.1886C25.7391 16.6606 28.1367 20.134 32.1307 22.9464C36.1246 25.7588 40.2028 26.8455 41.2394 25.3734C41.3058 25.2791 41.358 25.1766 41.3967 25.0668L41.4663 24.9308C40.6902 24.8874 39.9138 24.7644 39.1678 24.5926C36.1746 23.9033 33.346 22.5179 30.9676 20.5765L30.9672 20.5762Z" fill="#330500"/>
</g>
<g style="mix-blend-mode:overlay" opacity="0.2">
<path d="M32.8387 15.8879L32.2848 15.3956L28.4611 19.7052C28.6204 19.887 28.7882 20.0703 28.9646 20.2545L32.8387 15.8879Z" fill="#330500"/>
</g>
<g style="mix-blend-mode:overlay" opacity="0.2">
<path d="M31.6174 14.4608L31.0767 13.9539L27.2372 18.0548C27.3615 18.2628 27.5011 18.4759 27.6552 18.6923L31.6171 14.4612L31.6174 14.4608Z" fill="#330500"/>
</g>
<g style="mix-blend-mode:overlay" opacity="0.2">
<path d="M26.6667 16.8198L31.0216 12.2641L30.7543 12.0079L30.4477 11.7921L26.5396 15.8806C26.5181 16.1624 26.5619 16.4782 26.6667 16.8198Z" fill="#330500"/>
</g>
<g style="mix-blend-mode:overlay" opacity="0.2">
<path d="M34.1571 17.0014L33.5807 16.5355L29.869 21.1353C30.0486 21.2994 30.2338 21.463 30.4252 21.6258L34.1574 17.001L34.1571 17.0014Z" fill="#330500"/>
</g>
<g style="mix-blend-mode:overlay" opacity="0.2">
<path d="M42.0099 20.0022L39.0074 25.999C39.3254 26.0094 39.6149 25.9877 39.8701 25.9316L42.6477 20.3834L42.3412 20.1676L42.0095 20.002L42.0099 20.0022Z" fill="#330500"/>
</g>
<g style="mix-blend-mode:overlay" opacity="0.2">
<path d="M40.4004 20.5193L39.7409 20.181L36.9973 25.5225C37.2432 25.6071 37.4833 25.6814 37.7159 25.7453L40.4004 20.5193Z" fill="#330500"/>
</g>
<g style="mix-blend-mode:overlay" opacity="0.2">
<path d="M38.6357 19.8678L37.9856 19.5122L35.1239 24.7345C35.3507 24.8462 35.5754 24.9513 35.7968 25.049L38.6361 19.868L38.6357 19.8678Z" fill="#330500"/>
</g>
<g style="mix-blend-mode:overlay" opacity="0.2">
<path d="M32.158 22.9657L35.6424 18.0174L35.0366 17.5908L31.5581 22.5307C31.745 22.6708 31.9359 22.8093 32.1307 22.9464C32.1398 22.9528 32.1489 22.9592 32.158 22.9657Z" fill="#330500"/>
</g>
<g style="mix-blend-mode:overlay" opacity="0.2">
<path d="M37.1257 19.0322L36.4928 18.6465L33.3696 23.7629C33.5826 23.8941 33.7955 24.02 34.0068 24.1408L37.1253 19.032L37.1257 19.0322Z" fill="#330500"/>
</g>
<path d="M34.5495 17.0296L33.973 16.5637L30.1094 21.3517C30.2915 21.5131 30.4793 21.6738 30.6729 21.8335L34.5497 17.0292L34.5495 17.0296Z" fill="#FFC05A"/>
<path d="M32.0096 14.4893L31.4689 13.9823L27.4046 18.3235C27.536 18.5262 27.6812 18.7336 27.8396 18.9433L32.0096 14.4893Z" fill="#FFC05A"/>
<path d="M33.2314 15.9158L32.6775 15.4236L28.6702 19.9397C28.8333 20.1185 29.0042 20.2982 29.1829 20.4783L33.2314 15.9158Z" fill="#FFC05A"/>
<path d="M26.5528 16.3057C26.5859 16.5648 26.6631 16.8447 26.7801 17.1406L31.4141 12.2927L31.1464 12.0362L30.8399 11.8204L26.5524 16.3054L26.5528 16.3057Z" fill="#FFC05A"/>
<path d="M40.793 20.5471L40.1335 20.2089L37.3454 25.6361C37.5963 25.7145 37.8401 25.7811 38.0757 25.8368L40.793 20.5471Z" fill="#FFC05A"/>
<path d="M40.2622 25.9594L43.0398 20.4112L42.7333 20.1954L42.4016 20.0298L39.3991 26.0266C39.7172 26.037 40.0066 26.0153 40.2618 25.9591L40.2622 25.9594Z" fill="#FFC05A"/>
<path d="M32.4351 23.1569L36.0345 18.0453L35.4287 17.6187L31.8293 22.7303C31.9286 22.8025 32.0289 22.8749 32.1305 22.9464C32.232 23.0179 32.3336 23.0877 32.4355 23.1572L32.4351 23.1569Z" fill="#FFC05A"/>
<path d="M39.0283 19.8958L38.3782 19.5403L35.447 24.8895C35.6768 24.9971 35.9037 25.0974 36.127 25.1907L39.0283 19.8958Z" fill="#FFC05A"/>
<path d="M37.5183 19.0601L36.8853 18.6744L33.6687 23.9436C33.8846 24.0717 34.0992 24.1942 34.3123 24.3117L37.518 19.0605L37.5183 19.0601Z" fill="#FFC05A"/>
<path d="M35.2153 18.5648C38.885 21.149 42.632 22.1474 43.5844 20.7949C44.5368 19.4424 42.3339 16.2511 38.6642 13.667C34.9944 11.0829 31.2475 10.0845 30.2951 11.437C29.3427 12.7895 31.5455 15.9807 35.2153 18.5648Z" fill="#F9B235"/>
<g style="mix-blend-mode:overlay" opacity="0.2">
<path d="M43.6251 19.1205C43.6148 19.3879 43.5436 19.6239 43.4049 19.8209C42.4525 21.1734 38.7057 20.1751 35.0358 17.5909C32.4813 15.7921 30.6383 13.6994 30.0747 12.1376C30.0153 13.7061 32.0795 16.3571 35.2151 18.5651C38.8846 21.1491 42.6317 22.1477 43.5842 20.7951C43.8737 20.384 43.8709 19.803 43.6248 19.1209L43.6251 19.1205Z" fill="white"/>
</g>
<path d="M40.7917 17.4223L45.2698 8.11828L41.6622 5.57795L34.4118 12.9297C34.3121 13.0034 34.225 13.09 34.1537 13.1911C33.4876 14.1371 34.3983 15.925 36.1872 17.1848C37.9762 18.4445 39.9664 18.6993 40.6326 17.7533C40.7038 17.6522 40.7559 17.541 40.7917 17.4223Z" fill="#EDAB35"/>
<g style="mix-blend-mode:overlay" opacity="0.2">
<path d="M45.2695 8.11827L43.2022 6.66252C43.1689 6.67907 43.1362 6.69718 43.1047 6.7161C42.1316 7.28941 40.9402 8.03686 40.2684 8.96911C39.7621 9.6719 40.2932 10.851 41.15 10.9639C41.6638 11.0316 42.1527 10.7146 42.5198 10.346C42.8865 9.97788 43.1932 9.53997 43.6268 9.25374C43.2826 9.87188 42.939 10.4899 42.5947 11.1081C42.1892 11.8367 41.7749 12.5939 41.7057 13.424C41.6655 13.9108 41.7794 14.4302 42.0356 14.8378L45.2699 8.11854L45.2695 8.11827Z" fill="#330500"/>
</g>
<g style="mix-blend-mode:overlay" opacity="0.2">
<path d="M39.5631 15.269C40.327 16.5236 44.0888 7.2868 44.0888 7.2868L43.2578 7.14362C43.2578 7.14362 38.7987 14.0141 39.5627 15.2687L39.5631 15.269Z" fill="white"/>
</g>
<g style="mix-blend-mode:overlay" opacity="0.2">
<path d="M36.1869 17.1848C37.9758 18.4445 39.9661 18.6993 40.6322 17.7534C40.7034 17.6522 40.7555 17.541 40.7913 17.4223L41.0424 16.9002C40.848 16.942 40.6506 16.9726 40.4526 16.9913C39.7883 17.0541 39.0752 16.9705 38.5483 16.5635C38.2569 16.3383 38.0399 16.0268 37.8908 15.6899C37.5363 14.8887 37.5615 13.9562 37.8048 13.1122C38.0481 12.2682 38.495 11.4979 38.9702 10.7584C39.8104 9.45134 40.7529 8.21061 41.7858 7.05004C42.0381 6.76687 42.3081 6.49163 42.5554 6.20666L41.6617 5.57734L34.4113 12.9291C34.3116 13.0028 34.2245 13.0894 34.1532 13.1905C33.4871 14.1365 34.3978 15.9244 36.1867 17.1841L36.1869 17.1848Z" fill="#330500"/>
</g>
<path d="M42.7943 7.80165C43.7905 8.50314 44.8987 8.64487 45.2695 8.1182C45.6404 7.59154 45.1335 6.59592 44.1373 5.89443C43.1411 5.19294 42.0329 5.05121 41.662 5.57788C41.2911 6.10454 41.7981 7.10016 42.7943 7.80165Z" fill="#EFAB48"/>
<path d="M43.0151 7.48796C43.6834 7.95858 44.4269 8.05363 44.6758 7.70028C44.9246 7.34692 44.5845 6.67895 43.9162 6.20833C43.2478 5.73771 42.5043 5.64266 42.2555 5.99601C42.0067 6.34937 42.3468 7.01734 43.0151 7.48796Z" fill="#AF740B"/>
<g style="mix-blend-mode:overlay" opacity="0.2">
<path d="M38.9346 18.3073C37.7002 17.8241 36.6018 16.9627 35.9643 15.804C35.4691 14.9037 35.2865 13.8728 35.3337 12.8508C35.344 12.6319 35.3296 12.3454 35.2857 12.0432L34.4121 12.9293C34.3124 13.003 34.2253 13.0896 34.154 13.1907C33.4879 14.1367 34.3986 15.9246 36.1875 17.1844C37.1208 17.8415 38.1087 18.2248 38.9349 18.3069L38.9346 18.3073Z" fill="#330500"/>
</g>
<path d="M45.5154 11.6496C45.4974 11.5564 45.4902 11.4656 45.4907 11.3752C45.7144 10.9525 45.9391 10.53 46.163 10.107C46.4875 9.49431 46.7699 8.85089 46.6727 8.13997C46.5784 7.45059 46.1394 6.83881 45.4579 6.64898C45.0207 6.52733 44.3426 6.70191 44.1143 7.13677C43.966 6.92727 43.7246 6.7756 43.4621 6.73002C43.0391 6.54298 42.4551 6.59767 42.0787 6.77348C41.2952 7.13886 40.3772 7.90923 40.1124 8.76034C39.9521 9.2756 40.1284 9.88567 40.5633 10.2108C41.0198 10.5522 41.5973 10.5043 42.0588 10.2109C42.8396 9.71451 43.5222 8.85328 44.0744 8.12169C44.1433 8.03031 44.1914 7.93855 44.2227 7.84808C44.3822 8.0158 44.6033 8.11951 44.7386 8.25534C44.975 8.4932 44.5728 9.04256 44.4289 9.28897C43.8095 10.3519 43.0144 11.3275 42.6678 12.5315C42.4832 13.1725 42.4956 13.8699 42.9127 14.4166C43.3458 14.9843 44.1305 15.2273 44.7962 14.9411C46.1304 14.368 45.7268 12.7349 45.5163 11.6491L45.5154 11.6496Z" fill="#CC961D"/>
<g style="mix-blend-mode:overlay" opacity="0.2">
<path d="M45.3393 14.5584C45.3114 14.5553 45.2833 14.5515 45.2555 14.5457C45.0223 14.498 44.8121 14.3699 44.6335 14.2133C44.2171 13.8481 43.9543 13.3124 43.92 12.7584C43.8858 12.2044 44.0809 11.6388 44.4491 11.2226C44.2535 11.1191 44.1686 10.8737 44.1895 10.6525C44.2101 10.4318 44.3154 10.229 44.4191 10.0325C44.8157 9.27932 45.2124 8.52618 45.6084 7.77316C45.0756 7.81884 44.5278 7.62896 44.1381 7.26378C44.0393 7.3912 43.8471 7.43463 43.7037 7.36278C43.2955 8.13 42.757 8.82841 42.1183 9.41795C41.9648 9.55998 41.7935 9.70146 41.5867 9.73342C41.1705 9.79779 40.8111 9.35971 40.8106 8.93792C40.9056 8.3167 41.2344 7.87156 41.6802 7.43398C42.0224 7.09822 42.4129 6.83529 42.834 6.61384C42.5599 6.61612 42.2866 6.67613 42.0774 6.77375C41.2939 7.13913 40.376 7.9095 40.1111 8.76061C39.9508 9.27587 40.1271 9.88594 40.562 10.2111C41.0185 10.5525 41.596 10.5046 42.0575 10.2112C42.8383 9.71478 43.521 8.85355 44.0731 8.12196C44.142 8.03058 44.1901 7.93882 44.2214 7.84836C44.3809 8.01607 44.602 8.11978 44.7373 8.25561C44.9737 8.49347 44.5715 9.04283 44.4276 9.28924C43.8083 10.3521 43.0132 11.3278 42.6665 12.5318C42.4819 13.1728 42.4943 13.8702 42.9115 14.4169C43.3446 14.9845 44.1292 15.2275 44.7949 14.9414C45.025 14.8424 45.2024 14.7116 45.3389 14.5581L45.3393 14.5584Z" fill="#330500"/>
</g>
<path d="M45.797 8.39929C45.2982 8.32326 44.9113 9.32426 44.8408 9.68291C44.7456 10.1687 45.1919 10.5577 45.6528 10.2918C46.103 10.0321 46.5465 8.51362 45.797 8.39929Z" fill="#E5A423"/>
<path d="M45.3716 11.0466C45.1871 10.6203 44.5597 10.9917 44.8005 11.3753C45.0113 11.7117 45.525 11.4007 45.3716 11.0466Z" fill="#E5A423"/>
<path d="M45.5951 13.2441C45.6964 12.3555 44.3675 11.9919 44.2366 12.9687C44.1881 13.3309 44.3455 13.7067 44.711 13.8276C45.1175 13.962 45.547 13.6671 45.5951 13.2441Z" fill="#E5A423"/>
<path d="M42.5591 8.66063C42.6215 8.55098 42.6044 8.4516 42.6048 8.3331C42.6138 8.35026 42.6165 8.36986 42.6127 8.3906C42.634 8.02186 42.3013 7.81897 41.9685 7.89076C41.6474 7.95985 41.4163 8.26306 41.3741 8.58227C41.3355 8.87375 41.4863 9.23805 41.8219 9.2437C42.1347 9.24867 42.4463 8.93068 42.5588 8.66101L42.5591 8.66063Z" fill="#E5A423"/>
<path d="M19.1255 31.0242C19.8752 30.437 20.5078 29.9094 21.1611 29.2878C20.5043 29.357 19.8937 29.5665 19.329 29.6623C19.3203 29.6465 19.3076 29.633 19.2965 29.6132C19.2396 29.5097 19.1757 29.3379 19.1344 29.2626C19.3367 29.1401 20.0941 28.2841 20.461 27.9611C19.8543 28.2151 18.4088 28.5666 17.8759 28.6916L17.7662 28.4362C18.7628 28.033 19.8184 27.8775 20.7853 27.4391C20.8091 27.4724 20.8349 27.51 20.8545 27.5461C20.918 27.6611 20.9531 27.7817 20.9804 27.8495C21.0265 27.9796 19.8378 29.023 19.6653 29.2276C20.267 29.1527 21.0985 28.8726 21.5625 28.8019C21.6312 28.945 21.6674 29.039 21.741 29.2108C20.9882 29.9244 20.1183 30.6144 19.3155 31.3037L19.1257 31.0255L19.1255 31.0242Z" fill="#B77B25"/>
<path d="M23.4552 31.1504C23.0943 31.4988 22.7608 31.8012 22.4292 32.0783C22.1885 32.2794 21.949 32.4677 21.6993 32.6584C21.1626 33.0651 20.7483 33.2285 20.1947 32.5629C19.6298 31.8835 20.0263 31.5289 20.5116 31.082C20.7505 30.8648 20.975 30.6654 21.2055 30.4731C21.5125 30.2164 21.8316 29.9677 22.2103 29.6691L22.3251 29.8921C21.7643 30.384 21.2308 30.9009 20.6691 31.4053C20.3638 31.678 20.1018 31.9321 20.4412 32.3396C20.8439 32.8236 21.0841 32.6643 21.483 32.3902C22.0338 32.0071 22.7291 31.3792 23.3046 30.9336L23.4554 31.15L23.4552 31.1504Z" fill="#B77B25"/>
<path d="M21.7869 33.3905C21.8782 33.6358 22.0207 33.8777 22.2139 34.0492C22.4341 34.2448 22.7643 34.3979 23.0026 34.1289C23.5272 33.5366 22.4326 32.4501 23.0566 31.7457C23.325 31.443 23.8584 31.339 24.1873 31.6305C24.4618 31.8741 24.6985 32.3514 24.7736 32.5396L24.6123 32.6396C24.5261 32.4841 24.3095 32.134 24.0964 31.9446C23.893 31.7642 23.5841 31.7511 23.385 31.9758C22.8487 32.5815 24.045 33.5461 23.2824 34.407C22.99 34.7373 22.5547 34.7706 22.2092 34.4639C21.921 34.2084 21.619 33.7639 21.5765 33.5318L21.7865 33.3902L21.7869 33.3905Z" fill="#B77B25"/>
<path d="M24.8149 32.5098L26.2786 33.3589C26.4018 33.4514 26.4223 33.6177 26.3624 33.7086C26.3219 33.7692 26.2393 33.7961 26.1297 33.74L25.5329 33.2958C25.0675 34.1216 24.5854 34.9476 24.0947 35.7624C24.013 35.8282 23.9438 35.8263 23.8909 35.7908C23.8041 35.7331 23.765 35.5874 23.8101 35.4701C23.9507 35.2744 24.0864 35.0696 24.2194 34.8686C24.4205 34.5653 24.6197 34.2557 24.8205 33.9528C24.9964 33.6877 25.1759 33.4247 25.363 33.167C25.1578 33.0094 24.9498 32.8555 24.7425 32.7015L24.8149 32.5098Z" fill="#B77B25"/>
<path d="M27.236 33.9361C26.984 34.9921 27.0215 36.0738 26.7955 37.1276C26.7152 37.2909 26.6179 37.324 26.5448 37.288C26.4798 37.2559 26.4368 37.1691 26.4647 37.0511C26.5363 36.7726 26.553 36.492 26.5786 36.2359C26.1757 35.967 26.0131 35.8571 25.616 35.6066C25.3878 35.824 25.1402 36.1732 24.9184 36.3985C24.8535 36.4276 24.7947 36.4239 24.7498 36.402C24.6443 36.35 24.5989 36.1963 24.671 36.0495C25.3685 35.2576 26.2092 34.5865 26.9454 33.768L27.236 33.9361ZM25.7467 35.4331L26.194 35.6527C26.3648 35.7365 26.5333 35.8243 26.688 35.9206C26.6996 35.3846 26.7346 34.7589 26.8846 34.2397C26.6005 34.6318 26.108 35.0994 25.7467 35.4331Z" fill="#B77B25"/>
<path d="M29.1739 38.2829C28.6463 38.1032 28.2933 37.2311 28.1755 36.7198L27.8537 36.5789C27.7636 36.9032 27.678 37.2284 27.5921 37.5539C27.5324 37.6403 27.4655 37.6578 27.4045 37.6394C27.3047 37.6091 27.2258 37.4804 27.2358 37.3555C27.5714 36.3699 27.8667 35.3769 28.2197 34.3966L28.4267 34.4024C28.42 34.424 28.3853 34.5371 28.3841 34.5557C28.5665 34.502 28.8494 34.5219 29.1094 34.6011C29.7553 34.7978 29.911 35.3248 29.7014 36.007C29.5494 36.5024 29.1503 36.9843 28.5605 36.8516C28.6214 37.2548 28.8313 37.884 29.1572 38.0878L29.1732 38.2824L29.1739 38.2829ZM27.9605 36.1841C28.0679 36.2974 28.2629 36.4188 28.4579 36.4779C28.8435 36.5952 29.2569 36.3604 29.389 35.9303C29.5237 35.4918 29.3649 34.9443 28.9225 34.8098C28.7624 34.761 28.5659 34.7677 28.3312 34.8531L27.9605 36.1841Z" fill="#B77B25"/>
<path d="M30.2664 34.9543C31.542 35.156 32.1957 35.9161 31.9993 37.1911C31.8688 38.0397 30.8641 38.3104 30.1424 38.2019C30.0216 38.1837 29.8974 38.1556 29.7655 38.1175L30.2664 34.9543ZM30.2095 37.9135C30.8503 38.0101 31.5988 37.8245 31.7151 37.0704C31.8335 36.3029 31.1628 35.356 30.6253 35.2751C30.5852 35.2691 30.5482 35.2682 30.5111 35.2717C30.4764 35.4963 30.4138 35.9325 30.1334 37.9021L30.2095 37.9135Z" fill="#B77B25"/>
</g>
<defs>
<clipPath id="clip0_3_173137">
<rect width="19.9011" height="62.8251" fill="white" transform="translate(36.1719) rotate(35.152)"/>
</clipPath>
</defs>
</svg>
