<svg width="305" height="279" viewBox="0 0 305 279" fill="none" xmlns="http://www.w3.org/2000/svg">
<path d="M115.755 155.068C113.526 155.696 111.297 156.328 109.073 156.96C111.04 161.868 113.83 166.318 117.221 170.225C126.762 181.218 141.23 187.712 156.889 186.417C161.068 186.072 165.05 185.145 168.822 183.809C167.909 181.721 166.991 179.628 166.073 177.536C162.988 178.587 159.724 179.28 156.326 179.561C138.455 181.039 122.345 170.688 115.759 155.068L115.755 155.068Z" fill="#869DAC"/>
<path d="M112.779 135.741C112.955 133.853 113.264 132.003 113.693 130.193C111.391 129.94 109.089 129.682 106.791 129.425C102.351 128.93 97.9524 128.435 93.6167 127.948C80.1008 126.421 67.373 124.961 57.4178 123.811C56.1484 131.461 55.792 139.381 56.4591 147.447C57.1263 155.514 58.7834 163.271 61.2924 170.609C63.7559 169.899 66.3904 169.143 69.1754 168.344C70.4446 157.319 77.3369 134.369 112.783 135.745L112.779 135.741Z" fill="#AEA792"/>
<path d="M219.577 194.396C219.577 194.396 190.076 207.582 171.648 175.151C169.864 176.078 167.999 176.875 166.064 177.532C166.982 179.625 167.9 181.717 168.814 183.806C169.327 184.974 169.835 186.134 170.343 187.299C172.123 191.364 173.88 195.389 175.595 199.319C180.489 210.535 185.014 220.965 188.584 229.198C203.682 223.239 216.836 213.64 227.042 201.565C225.107 199.71 223 197.687 220.803 195.58C220.387 195.183 219.998 194.805 219.573 194.4L219.577 194.396Z" fill="#AEA792"/>
<path d="M177.286 107.292C178.981 108.562 180.575 109.964 182.053 111.483C184.958 107.553 187.874 103.614 190.754 99.7315C194.24 95.0277 197.663 90.4245 200.948 86.0069C204.39 81.3814 207.65 77.0074 210.662 72.9647C212.479 70.53 214.233 68.1794 215.832 66.0362C203.777 55.8019 189.23 48.4935 173.357 45.0964C172.564 48.2839 171.692 51.7806 170.76 55.5144C179.49 62.4831 190.379 77.8387 177.282 107.293L177.286 107.292Z" fill="#AEA792"/>
<path d="M268.089 177.067C273.159 161.718 275.048 145.708 273.705 129.48C272.363 113.251 267.87 97.7691 260.347 83.4617C253.082 69.6471 243.317 57.507 231.321 47.3839C219.325 37.2607 205.702 29.6602 190.824 24.7921C175.419 19.7519 159.348 17.8803 143.057 19.2277C126.765 20.5751 111.22 25.0614 96.8529 32.5639C82.9805 39.8099 70.7873 49.5456 60.6174 61.5019C50.4476 73.4583 42.8091 87.0336 37.9126 101.858C32.8431 117.207 30.9541 133.217 32.2962 149.445C33.6384 165.674 38.132 181.156 45.6542 195.463C52.9193 209.278 62.6846 221.418 74.6805 231.541C86.6765 241.664 100.299 249.265 115.178 254.133C130.583 259.173 146.653 261.045 162.945 259.697C179.236 258.35 194.781 253.864 209.149 246.361C223.021 239.115 235.214 229.379 245.384 217.423C255.554 205.467 263.193 191.891 268.089 177.067ZM124.744 25.2779C130.798 23.7905 136.99 22.7726 143.303 22.2505C159.057 20.9476 174.598 22.7592 189.494 27.6342C203.876 32.3403 217.054 39.6915 228.652 49.4786C240.249 59.2657 249.694 71.0053 256.718 84.363C263.993 98.1975 268.34 113.17 269.638 128.862C269.703 129.649 269.756 130.436 269.804 131.224C264.035 99.2636 246.732 71.7188 222.62 52.5853C216.869 47.9282 210.673 43.8097 204.118 40.3012C182.372 28.3808 156.983 22.4914 130.39 24.6908C128.496 24.8474 126.615 25.0445 124.745 25.282L124.744 25.2779ZM241.99 215.179C232.157 226.738 220.367 236.155 206.953 243.16C193.06 250.416 178.028 254.756 162.274 256.059C146.519 257.362 130.978 255.55 116.082 250.675C101.7 245.969 88.5222 238.618 76.9245 228.831C65.3268 219.044 55.8818 207.304 48.8585 193.946C41.5835 180.112 37.2361 165.14 35.9382 149.447C34.6403 133.754 36.4689 118.271 41.3723 103.429C46.1057 89.0993 53.4937 75.9675 63.326 64.4081C64.2857 63.2798 65.2684 62.1786 66.2608 61.0932C64.5126 63.3066 62.8567 65.5787 61.2838 67.8979C45.9148 89.5089 37.8055 116.415 40.1584 144.865C45.4664 209.044 102.001 256.753 166.431 251.424C196.472 248.939 222.923 235.363 242.064 215.073C242.038 215.105 242.011 215.14 241.981 215.171L241.99 215.179ZM161.523 242.46C104.509 247.175 54.3017 204.806 49.6047 148.014C44.9077 91.2216 87.4723 41.1797 144.487 36.4644C201.501 31.749 251.708 74.1181 256.405 130.91C261.102 187.703 218.538 237.745 161.523 242.46Z" fill="#BDBDB1"/>
<path d="M40.1631 144.865C37.8101 116.415 45.9191 89.5046 61.2884 67.8977C62.8614 65.5786 64.5173 63.3064 66.2655 61.093C65.2689 62.1788 64.2862 63.28 63.3306 64.4079C53.4984 75.9674 46.1103 89.0991 41.3769 103.429C36.4736 118.271 34.645 133.754 35.9429 149.447C37.2407 165.139 41.5881 180.112 48.8631 193.946C55.8865 207.304 65.3315 219.043 76.9292 228.831C88.5269 238.618 101.705 245.969 116.087 250.675C130.983 255.55 146.524 257.362 162.278 256.059C178.032 254.756 193.065 250.415 206.957 243.159C220.371 236.155 232.162 226.738 241.994 215.179C242.021 215.148 242.047 215.112 242.078 215.081C222.937 235.37 196.485 248.947 166.445 251.431C102.014 256.76 45.48 209.052 40.172 144.872L40.1631 144.865Z" fill="#F2E1D0"/>
<path d="M222.62 52.5815C246.732 71.715 264.035 99.2599 269.804 131.221C269.756 130.433 269.703 129.645 269.638 128.859C268.34 113.166 263.993 98.1938 256.718 84.3593C249.694 70.9974 240.249 59.2619 228.652 49.4749C217.054 39.6837 203.876 32.3365 189.494 27.6305C174.598 22.7555 159.057 20.9438 143.303 22.2468C136.99 22.7688 130.798 23.7868 124.744 25.2742C126.615 25.0407 128.492 24.8398 130.389 24.6829C156.982 22.4835 182.376 28.3767 204.118 40.2933C210.676 43.8015 216.869 47.9203 222.619 52.5774L222.62 52.5815Z" fill="#F2E1D0"/>
<path d="M185.749 136.75C184.262 118.764 168.36 105.344 150.303 106.838C132.246 108.331 118.765 124.181 120.252 142.167C121.74 160.154 137.642 173.573 155.699 172.08C173.755 170.586 187.237 154.737 185.749 136.75ZM130.297 155.366L127.832 127.834L150.536 111.926L175.705 123.551L178.169 151.084L155.465 166.991L130.293 155.367L130.297 155.366Z" fill="#AEA792"/>
<path d="M167.794 129.097L151.397 121.523L136.609 131.888L138.213 149.823L154.609 157.393L169.402 147.032L167.794 129.097Z" fill="#D9D7C6"/>
<path d="M274.789 178.66C277.122 171.49 278.777 164.176 279.797 156.779C280.891 148.827 281.22 140.77 280.781 132.651C280.716 131.404 280.667 130.16 280.564 128.912C280.109 123.415 279.275 118.012 278.14 112.687C276.705 105.96 274.742 99.3857 272.236 92.9926C270.58 88.7722 268.71 84.6275 266.594 80.5778C266.54 80.4786 266.498 80.3743 266.444 80.2751C264.384 76.3535 262.115 72.5693 259.677 68.9111C253.038 58.946 245.046 49.9719 235.775 42.1524C234.142 40.7742 232.475 39.4403 230.782 38.1499C230.782 38.1499 216.11 23.7954 185.964 16.2098C171.84 12.4608 157.25 11.18 142.496 12.4002C125.283 13.8238 108.852 18.5658 93.667 26.5008C79.0043 34.1563 66.1203 44.4465 55.3776 57.0763C47.5179 66.3167 41.1082 76.482 36.1965 87.3982C34.3929 91.4072 32.7762 95.5127 31.3885 99.7195C31.3516 99.8262 31.3274 99.936 31.2904 100.043C29.8681 104.385 28.7042 108.781 27.7641 113.216C26.962 117.005 26.3122 120.823 25.8601 124.667C25.8601 124.667 20.4665 151.245 30.0183 174.945C30.7513 176.762 31.32 178.606 31.7567 180.464C33.814 186.517 36.3536 192.414 39.3285 198.138C39.4172 198.305 39.4818 198.482 39.5705 198.649C41.6346 202.57 43.8996 206.355 46.3374 210.013C52.976 219.978 60.9687 228.952 70.2397 236.776C82.9157 247.473 97.3107 255.503 113.032 260.65C129.313 265.97 146.3 267.948 163.514 266.524C178.272 265.304 192.449 261.64 205.765 255.625C205.765 255.625 230.823 246.836 246.37 226.62C246.524 226.421 246.726 226.201 246.965 225.97C248.211 224.623 249.438 223.257 250.633 221.852C258.493 212.612 264.902 202.447 269.814 191.526C271.617 187.517 273.234 183.412 274.622 179.205C274.682 179.026 274.729 178.844 274.785 178.661L274.789 178.66ZM245.384 217.419C235.214 229.375 223.025 239.111 209.148 246.357C194.781 253.86 179.236 258.346 162.945 259.693C146.653 261.041 130.582 259.169 115.178 254.129C100.303 249.26 86.6762 241.66 74.6803 231.537C62.6843 221.414 52.9193 209.278 45.654 195.459C38.1317 181.152 33.6381 165.669 32.2959 149.441C30.9538 133.213 32.8428 117.203 37.9123 101.854C42.8091 87.0337 50.4473 73.4542 60.6172 61.4979C70.787 49.5415 82.976 39.8062 96.8527 32.5599C111.22 25.0574 126.765 20.5711 143.057 19.2237C159.348 17.8763 175.419 19.7478 190.824 24.788C205.698 29.6565 219.325 37.2567 231.321 47.3798C243.317 57.5029 253.082 69.6389 260.347 83.4576C267.869 97.765 272.363 113.247 273.705 129.476C275.047 145.704 273.158 161.714 268.089 177.063C263.192 191.883 255.554 205.463 245.384 217.419Z" fill="#AEA792"/>
<path d="M31.7488 180.461C31.3162 178.602 30.7434 176.759 30.0104 174.942C30.2442 175.756 30.5231 176.562 30.7731 177.37C31.0956 178.401 31.3977 179.437 31.7443 180.457L31.7488 180.461Z" fill="#BDBDB1"/>
<path d="M230.782 38.1458C230.897 27.7051 225.029 17.6515 214.931 12.9062C205.113 8.29113 193.953 9.93552 185.965 16.2057C216.106 23.7916 230.782 38.1458 230.782 38.1458Z" fill="#BDBDB1"/>
<path d="M256.405 130.906C251.708 74.1141 201.5 31.7449 144.486 36.4603C87.4719 41.1756 44.9073 91.2175 49.6043 148.01C54.3013 204.802 104.505 247.176 161.523 242.46C218.542 237.744 261.102 187.703 256.405 130.91L256.405 130.906ZM227.045 201.56C216.835 213.636 203.686 223.235 188.587 229.193C179.95 232.603 170.681 234.824 160.954 235.629C131.112 238.097 103.327 226.693 83.8472 206.902C80.2896 203.291 77.0254 199.403 74.0645 195.257C69.5549 188.943 65.7896 182.065 62.8924 174.713C62.3546 173.344 61.7689 172 61.2911 170.6C58.7821 163.262 57.1254 155.51 56.4579 147.439C55.7904 139.368 56.1513 131.453 57.4165 123.802C58.1721 119.25 59.312 114.815 60.6932 110.48C62.1571 105.885 63.9663 101.441 66.0757 97.1533C68.289 92.6627 70.8386 88.3639 73.706 84.2835C89.6699 61.5618 115.208 45.7515 145.046 43.2837C154.769 42.4796 164.281 43.1482 173.361 45.0921C189.233 48.4891 203.785 55.7972 215.836 66.0319C218.061 67.9209 220.195 69.921 222.244 72.0027C225.739 75.557 228.96 79.3785 231.877 83.4449C234.662 87.3232 237.161 91.42 239.355 95.7078C242.503 101.861 245.005 108.412 246.78 115.276C248.132 120.508 249.087 125.91 249.547 131.474C249.65 132.725 249.707 133.969 249.76 135.212C250.126 143.507 249.42 151.625 247.755 159.424C246.104 167.148 243.521 174.559 240.113 181.524C237.877 186.091 235.297 190.471 232.385 194.618C230.706 197.008 228.929 199.331 227.045 201.56Z" fill="#AEA792"/>
<path d="M186.254 162.285C191.37 154.896 194.058 145.773 193.261 136.133C192.463 126.493 188.317 117.931 182.053 111.488C180.575 109.968 178.981 108.566 177.286 107.297C190.388 77.8465 179.495 62.487 170.765 55.5183C169.148 61.9911 167.35 69.1797 165.458 76.7076C164.431 80.7934 163.375 84.9811 162.309 89.2069C161.98 90.511 161.651 91.8152 161.317 93.1197C160.759 95.3301 160.197 97.5448 159.636 99.7596C156.42 99.2295 153.083 99.0827 149.689 99.3634C131.814 100.842 117.619 113.703 113.697 130.197C113.268 132.007 112.96 133.86 112.783 135.745C77.3365 134.369 70.4441 157.319 69.175 168.344C80.7538 165.019 94.8099 161 109.076 156.959C111.301 156.328 113.53 155.7 115.758 155.068C122.34 170.688 138.451 181.039 156.326 179.561C159.724 179.28 162.988 178.587 166.072 177.536C168.007 176.878 169.873 176.081 171.656 175.154C190.08 207.586 219.581 194.4 219.585 194.399C216.253 191.201 212.618 187.708 208.883 184.115C203.24 178.687 197.288 172.947 191.248 167.108C189.583 165.5 187.923 163.896 186.258 162.284L186.254 162.285ZM120.257 142.171C118.769 124.184 132.25 108.335 150.307 106.841C168.364 105.348 184.266 118.767 185.753 136.754C187.241 154.74 173.76 170.59 155.703 172.083C137.646 173.577 121.744 160.157 120.257 142.171Z" fill="#BDBDB1"/>
<path d="M175.708 123.55L150.54 111.925L127.836 127.833L130.3 155.365L155.473 166.99L178.177 151.082L175.713 123.55L175.708 123.55ZM138.212 149.823L136.608 131.888L151.401 121.527L167.797 129.101L169.402 147.036L154.609 157.397L138.212 149.823Z" fill="#F2E1D0"/>
<path d="M205.766 255.625C214.676 260.497 225.955 260.286 234.88 254.121C244.062 247.781 248.198 236.9 246.37 226.616C230.823 246.836 205.765 255.621 205.765 255.621L205.766 255.625Z" fill="#BDBDB1"/>
<path d="M15.6022 134.4C12.5736 139.248 10.9753 145.035 11.4824 151.167C11.5873 152.435 11.8014 153.665 12.0721 154.874C14.1763 164.364 21.107 171.871 30.0143 174.945C20.4624 151.245 25.856 124.667 25.856 124.667C21.6177 126.966 18.1237 130.365 15.6067 134.404L15.6022 134.4Z" fill="#BDBDB1"/>
</svg>
