<svg width="42" height="31" viewBox="0 0 42 31" fill="none" xmlns="http://www.w3.org/2000/svg">
<g clip-path="url(#clip0_3_173139)">
<path d="M41.678 23.7487C41.678 23.7487 40.2077 23.4379 40.0429 26.1853C40.0429 26.1853 38.1917 25.3953 38.3125 28.1002C38.3125 28.1002 35.9725 27.9688 36.91 30.485L35.8498 30.9975L33.7441 29.2029L35.4488 24.8847L38.9864 22.8014L40.7405 22.6201L41.6816 23.7487H41.678Z" fill="#E0BB68"/>
<path d="M1.00706 15.4546C1.15721 15.4768 1.31101 15.4546 1.45566 15.4084C2.11117 15.2104 2.59822 14.5943 2.74837 13.9209C2.91865 13.1568 2.64766 11.4898 1.76328 11.1494L3.32148 2.55371L42.0018 22.413L41.6796 23.7506C41.5203 23.5785 41.3372 23.449 41.1156 23.4046C39.9914 23.1863 39.5409 24.5739 39.6691 25.4546C39.2516 25.0124 38.532 25.0642 38.1549 25.5563C37.785 26.041 37.7758 26.7052 37.7923 27.3176C37.4151 26.955 36.7853 26.9587 36.344 27.2362C35.9009 27.5137 35.6299 28.0077 35.498 28.5165C35.282 29.3472 35.4303 30.2538 35.8496 30.9994L0 20.8903L0.98509 15.4491C0.98509 15.4491 0.999739 15.4546 1.00706 15.4546Z" fill="#EFCF7F"/>
<g style="mix-blend-mode:overlay" opacity="0.1">
<path d="M3.3214 2.55371L14.9557 8.52592C19.72 15.1253 24.2024 21.9338 28.4192 28.9032L20.9578 26.7996C14.8678 20.2946 8.56361 13.9801 2.42236 7.51575L3.3214 2.55371Z" fill="white"/>
</g>
<g style="mix-blend-mode:overlay" opacity="0.1">
<path d="M35.8475 30.9993L35.3348 30.855C29.8765 23.8227 24.2132 16.955 18.3447 10.2668L29.1148 15.7969C31.4567 19.6803 33.7546 23.5877 36.0104 27.523C35.7596 27.7986 35.5893 28.1539 35.4959 28.5183C35.2799 29.349 35.4282 30.2556 35.8475 31.0012V30.9993Z" fill="white"/>
</g>
<path d="M41.9998 22.4111C40.7456 22.1224 3.32129 2.55366 3.32129 2.55366C3.32129 2.55366 18.7184 -0.90052 21.9776 0.228056C25.2368 1.35663 42.0016 22.4129 42.0016 22.4129L41.9998 22.4111Z" fill="#FFE28F"/>
<path d="M30.1531 19.5693C29.7045 19.1105 29.1314 18.7294 28.4942 18.6868C27.6867 18.6332 26.8975 19.166 26.5588 19.9079C26.2182 20.6498 26.3006 21.5508 26.6888 22.2687C27.0751 22.9865 27.7416 23.5268 28.4832 23.8505C28.9501 24.054 29.4719 24.1798 29.97 24.0725C32.2203 23.586 31.3011 20.7442 30.1531 19.5693Z" fill="#E0BB68"/>
<path d="M14.9281 23.5119C12.7071 22.8347 13.5128 20.3685 15.4683 20.054C16.8818 19.8264 18.3155 20.9273 17.6289 22.4592C17.1657 23.4915 15.9389 23.8227 14.9263 23.5137L14.9281 23.5119Z" fill="#E0BB68"/>
<path d="M13.4289 11.3529C12.7825 13.993 8.53458 13.4824 8.00541 11.018C7.6447 9.33442 9.10952 7.99308 10.7025 8.15774C12.3285 8.3261 13.8921 9.46578 13.4307 11.3529H13.4289Z" fill="#D8B159"/>
<path d="M13.4289 11.3529C12.7825 13.993 8.53458 13.4824 8.00541 11.018C7.6447 9.33442 9.10952 7.99308 10.7025 8.15774C12.3285 8.3261 13.8921 9.46578 13.4307 11.3529H13.4289Z" fill="#E0BB68"/>
<path d="M10.7023 8.15774C11.4951 8.241 12.2696 8.55367 12.8061 9.0717C12.6706 8.99215 12.5333 8.91259 12.4143 8.88484C12.0792 8.80714 11.7258 8.80529 11.3926 8.88854C10.4825 9.11796 9.76295 9.93571 9.58168 10.8645C9.44069 11.5823 9.60914 12.3409 9.99366 12.9625C9.04702 12.685 8.22306 12.0153 8.00883 11.018C7.64812 9.33442 9.11294 7.99308 10.7059 8.15774H10.7023Z" fill="#D3A954"/>
<path d="M15.4703 20.0523C15.8054 19.9987 16.1386 20.0209 16.4481 20.1042C15.5472 20.3391 14.8349 21.1513 14.6537 22.0745C14.5658 22.526 14.6006 22.994 14.7324 23.4362C12.7714 22.6721 13.577 20.3595 15.4703 20.0542V20.0523Z" fill="#D3A954"/>
<path d="M28.496 18.6868C29.1131 18.7275 29.666 19.0883 30.1092 19.5286C29.7851 19.4602 29.4463 19.4546 29.1241 19.536C28.214 19.7654 27.4945 20.5832 27.3132 21.512C27.1978 22.1021 27.2912 22.7219 27.5402 23.2696C27.1978 22.9902 26.9012 22.659 26.6906 22.2687C26.3043 21.5508 26.2201 20.6498 26.5606 19.9079C26.9012 19.166 27.6904 18.6313 28.496 18.6868Z" fill="#D3A954"/>
<g style="mix-blend-mode:overlay" opacity="0.2">
<path d="M33.4123 15.7081C31.0613 11.834 27.6666 8.79052 24.5355 5.58241C22.9993 4.00795 21.4979 2.38539 20.2106 0.592618C20.1044 0.444608 19.9378 0.239244 19.7547 0.00242772C20.7087 -0.00867303 21.4814 0.0560813 21.9739 0.226293C25.2331 1.35487 41.998 22.4111 41.998 22.4111C40.7456 22.1225 3.32129 2.55375 3.32129 2.55375C3.32129 2.55375 5.23471 2.12452 7.85307 1.61944C14.9538 5.22718 21.9446 9.04769 28.4869 13.5934C29.9828 14.6332 31.5978 15.7544 33.4123 15.71V15.7081Z" fill="black"/>
</g>
</g>
<defs>
<clipPath id="clip0_3_173139">
<rect width="42" height="31" fill="white"/>
</clipPath>
</defs>
</svg>
