<svg width="45" height="64" viewBox="0 0 45 64" fill="none" xmlns="http://www.w3.org/2000/svg">
<g clip-path="url(#clip0_1152_212741)">
<path d="M24.113 57.6148C24.7458 55.9044 25.5907 54.274 26.6404 52.7749C27.6641 51.3125 28.8547 49.9704 30.1085 48.6954C32.628 46.1327 35.4064 43.8178 37.7555 41.0943C40.1109 38.363 41.883 35.1747 43.072 31.795C44.1233 28.8058 44.6975 25.6946 44.9163 22.5474C44.9141 24.2749 44.2903 31.3331 43.9547 32.8632C43.2615 36.021 41.6343 38.9187 39.6591 41.4731C37.5756 44.1678 35.0657 46.5492 32.293 48.5512C30.9783 49.5001 29.6252 50.4024 28.3809 51.4423C27.1395 52.4799 26.0561 53.67 25.2709 55.0803C24.6387 56.215 24.1897 57.4129 23.8496 58.6435C23.8541 58.5426 23.8581 58.4416 23.8626 58.3407C23.9427 58.0978 24.025 57.8555 24.1141 57.6153L24.113 57.6148Z" fill="#B6D86C"/>
<path d="M44.6335 22.212C44.0554 26.2139 42.4812 30.0572 40.1371 33.3714C38.9465 35.0545 37.5409 36.5818 35.9662 37.9256C34.1698 39.4585 32.2087 40.7928 30.4219 42.3368C28.4912 44.0049 26.8223 45.9482 25.4484 48.0772C25.326 47.9868 25.212 47.8876 25.1094 47.8083C25.5256 46.4845 25.9627 45.1668 26.4636 43.8707C26.5206 43.7232 26.5826 43.5768 26.6413 43.4298C26.7574 43.4897 26.8663 43.5635 26.9678 43.6517C27.0349 43.7099 27.1748 43.7138 27.2137 43.6151C27.3389 43.299 27.3288 42.9424 27.168 42.6512C27.4021 42.6567 27.6339 42.6434 27.8635 42.5758C28.1861 42.4804 28.4794 42.304 28.727 42.0811C28.8443 41.9757 28.7366 41.8093 28.6029 41.7994C28.2611 41.7733 27.8155 41.7151 27.6221 41.4134C27.9402 41.3341 28.2228 41.1649 28.4354 40.907C28.524 40.8 28.4738 40.587 28.3029 40.6053C28.1748 40.6192 28.0366 40.6297 27.9018 40.6209C28.5606 39.3298 29.3249 38.0942 30.2183 36.9517C30.6441 36.9246 31.0615 36.741 31.3553 36.4304C31.4337 36.3473 31.3869 36.1864 31.2668 36.1709C31.1545 36.1565 31.0496 36.1204 30.9492 36.0755C31.0434 35.969 31.132 35.8581 31.2296 35.7538C32.4366 34.4606 33.8759 33.4462 35.251 32.3387C36.6678 31.1968 37.9448 29.9008 39.1473 28.5443C40.3379 27.2011 41.4778 25.8063 42.5878 24.3982C43.3238 23.4643 44.0198 22.5087 44.6171 21.4922C44.6363 21.6331 44.6549 21.7739 44.6741 21.9153C44.6606 22.0141 44.6476 22.1133 44.6329 22.212H44.6335Z" fill="#98BB5B"/>
<path d="M23.1818 57.7611C23.17 56.9431 23.157 56.1245 23.1406 55.3065C23.2117 54.8135 23.2963 54.3205 23.4012 53.8291C23.3189 55.139 23.2455 56.4495 23.1818 57.7605V57.7611Z" fill="#91B249"/>
<path d="M37.7554 41.0942C35.4062 43.8178 32.6285 46.1326 30.1084 48.6954C28.8546 49.9703 27.664 51.3124 26.6403 52.7749C25.5906 54.2739 24.7457 55.9044 24.1129 57.6147C24.0238 57.8549 23.9414 58.0972 23.8613 58.3401C23.9662 56.0269 24.0988 53.7154 24.264 51.4056C24.4062 51.2553 24.4987 51.0645 24.5178 50.8577C24.7671 50.9508 24.9651 51.1621 25.0492 51.4106C25.0819 51.5065 25.2122 51.5082 25.2702 51.4389C25.5297 51.13 25.5647 50.709 25.409 50.3602C25.6261 50.4018 25.8456 50.4035 26.0712 50.3297C26.3881 50.226 26.6278 49.9759 26.6989 49.6548C26.7175 49.5716 26.6442 49.5117 26.5726 49.4934C26.347 49.4352 26.1236 49.3304 25.9364 49.1867C26.2449 49.0525 26.4705 48.7614 26.4767 48.4142C26.4784 48.3066 26.3684 48.1696 26.2449 48.2384C25.9651 48.3942 25.691 48.2556 25.4485 48.0759C26.8224 45.9468 28.4914 44.0036 30.422 42.3354C32.2088 40.7914 34.1699 39.4577 35.9663 37.9242C37.5405 36.5805 38.9466 35.0532 40.1372 33.37C42.4813 30.0558 44.0555 26.2126 44.6336 22.2107C44.6477 22.112 44.6612 22.0127 44.6748 21.914C44.6556 21.7731 44.6364 21.6323 44.6178 21.4908C44.7504 21.2651 44.8784 21.0361 45.0002 20.8037C44.9968 20.9457 44.9923 21.0871 44.9873 21.2291C44.9703 21.6683 44.9466 22.107 44.9162 22.5457C44.6979 25.6924 44.1237 28.8036 43.0718 31.7933C41.8829 35.173 40.1113 38.3613 37.7554 41.0926V41.0942Z" fill="#91B249"/>
<path d="M18.6346 28.4801C18.8907 28.5666 19.083 28.7429 19.2308 28.962C19.2658 29.0141 19.2974 29.0696 19.3289 29.1267C19.0932 29.2626 18.8834 29.4428 18.7288 29.6469C18.5201 29.9231 18.422 30.2508 18.4367 30.5775C18.2776 30.0534 18.1135 29.531 17.9392 29.0113C17.9133 28.9332 17.8839 28.8561 17.8574 28.7784C17.8783 28.7119 17.9155 28.6475 17.9798 28.5865C18.1541 28.4213 18.4147 28.4057 18.6346 28.4801Z" fill="#638C2D"/>
<path d="M21.0374 20.1529C20.9612 20.2605 20.9077 20.3769 20.8665 20.4973C20.7559 19.7552 20.6386 19.0143 20.5117 18.275C20.5269 18.0687 20.5495 17.863 20.5896 17.6611C20.62 17.5058 20.6589 17.3517 20.704 17.1997C21.2088 18.0521 21.6894 18.9195 22.1429 19.8018C22.016 19.7597 21.8868 19.7275 21.7514 19.7319C21.4576 19.7414 21.2015 19.9216 21.0379 20.1523L21.0374 20.1529Z" fill="#638C2D"/>
<path d="M14.4202 10.2494C14.586 10.2998 14.736 10.3858 14.8596 10.5028C14.7998 10.5178 14.7405 10.5361 14.6819 10.566C14.5742 10.6209 14.4771 10.693 14.3909 10.7768C14.3102 10.8544 14.3598 10.9775 14.4585 11.0075C14.7941 11.109 14.9966 11.4101 15.1963 11.6857C15.2431 11.7506 15.2905 11.8144 15.3384 11.8737C15.3565 11.8959 15.3751 11.9175 15.3937 11.9386C15.5922 12.2597 15.9205 12.5148 16.2775 12.6002C16.6232 12.6829 16.9633 12.6302 17.2623 12.4877C18.057 13.3689 18.7863 14.2446 19.3373 15.0249C19.4603 15.3737 19.5686 15.727 19.6746 16.0808C19.9696 17.678 20.2149 19.2824 20.4225 20.8924C20.2459 20.5873 20.0373 20.3051 19.7801 20.0555C19.6176 19.8974 19.4388 19.7577 19.2488 19.6335C19.2093 19.6079 19.1687 19.5847 19.1286 19.5614C19.1422 19.5442 19.1579 19.5286 19.1704 19.5115C19.3745 19.2325 19.5003 18.897 19.5059 18.5509C19.5144 18.0596 19.1732 17.6852 18.8173 17.3841C18.4958 17.1129 18.0621 16.8178 18.0175 16.3664C18.0079 16.2666 17.8821 16.1884 17.7998 16.2749C17.6137 16.4701 17.4687 16.6847 17.3553 16.9232C17.2087 16.8578 17.0869 16.753 16.9989 16.6171C16.9459 16.535 16.8184 16.545 16.7891 16.6426C16.7298 16.8384 16.736 17.0408 16.7992 17.231C16.3982 17.2937 16.013 17.3896 15.6486 17.5754C15.5567 17.6225 15.586 17.749 15.674 17.7789C15.8381 17.8338 15.9853 17.9242 16.1055 18.0446C16.0451 18.0579 15.9859 18.0745 15.9256 18.1028C15.8161 18.1544 15.7174 18.2243 15.6283 18.3052C15.5454 18.3807 15.5917 18.5049 15.6892 18.5376C16.022 18.6485 16.2155 18.9546 16.4072 19.2364C16.4523 19.3029 16.4975 19.3678 16.5443 19.4283C16.5618 19.451 16.5798 19.4726 16.5979 19.4943C16.7868 19.8209 17.1077 20.0849 17.4619 20.1803C18.0113 20.3278 18.5539 20.1304 18.9431 19.7632C19.066 19.8481 19.1856 19.918 19.2347 19.9573C19.6329 20.2757 19.9515 20.6716 20.1856 21.1197C20.3266 21.3898 20.4467 21.6666 20.5539 21.9472C20.7637 23.713 20.934 25.4832 21.0779 27.2556C21.1382 28.0005 21.1918 28.7458 21.2459 29.4912C21.2426 29.4873 21.2403 29.4829 21.2369 29.4795C21.0091 29.1434 20.6526 28.9005 20.2268 28.8833C20.0519 28.8761 19.8759 28.9061 19.7056 28.9599C19.5973 28.7613 19.4433 28.5778 19.3029 28.4486C19.057 28.2212 18.7225 28.0775 18.3813 28.1008C18.1111 28.1197 17.8906 28.255 17.7502 28.4696C17.4106 27.4913 17.0417 26.523 16.643 25.5664C17.0417 25.7006 17.5488 25.8187 17.7575 26.2191C17.8043 26.3084 17.9498 26.3356 17.9944 26.2252C18.0942 25.9762 18.1484 25.7244 18.1641 25.461C18.3249 25.4688 18.4772 25.522 18.6103 25.6163C18.6904 25.6734 18.8049 25.6174 18.7958 25.5165C18.7772 25.3129 18.6955 25.1272 18.5652 24.973C18.9143 24.7689 19.2363 24.5399 19.5054 24.2354C19.5736 24.1583 19.4986 24.0513 19.4056 24.0557C19.2324 24.064 19.0615 24.0335 18.9047 23.9653C18.956 23.9309 19.0045 23.8938 19.0497 23.8461C19.132 23.7584 19.1974 23.6575 19.2499 23.5499C19.2984 23.4501 19.2087 23.3508 19.1061 23.3558C18.7552 23.3736 18.4603 23.1589 18.1766 22.9671C18.11 22.9216 18.0434 22.8778 17.9775 22.8384C17.9526 22.824 17.9278 22.8096 17.903 22.7962C17.6046 22.5617 17.2076 22.4319 16.8426 22.4718C16.5375 22.5051 16.2741 22.6343 16.0581 22.8184C15.9791 22.6188 15.8748 22.433 15.7783 22.2916C15.617 22.0564 15.2194 21.7337 14.9244 21.8518C14.4732 20.9683 13.9915 20.0988 13.4608 19.2636C13.4749 19.1476 13.4619 19.0229 13.4337 18.9009C13.533 18.9036 13.6272 18.9363 13.718 18.9957C13.8184 19.0611 13.9707 18.968 13.9599 18.8515C13.9413 18.6513 13.8951 18.465 13.824 18.2808C13.9684 18.2159 14.1167 18.1616 14.2679 18.1106C14.379 18.0729 14.4439 17.9392 14.3739 17.8355C14.2843 17.7024 14.1884 17.5748 14.0914 17.4473C14.2515 17.2776 14.3903 17.0912 14.5155 16.8933C14.5973 16.764 14.4828 16.555 14.3198 16.5755C13.8048 16.6404 13.4117 16.2904 12.9656 16.1019C12.8471 16.052 12.7281 16.0165 12.6091 15.9943C12.3023 15.9372 11.9926 15.9699 11.683 16.0858C11.4884 16.1584 11.2848 16.2505 11.1116 16.3758C11.084 16.3498 11.0569 16.322 11.0293 16.296C11.1004 16.0192 11.1664 15.7414 11.2233 15.4619C11.6762 13.2508 11.7744 10.9797 11.5792 8.73479C11.5561 8.47136 11.529 8.20794 11.498 7.94507C11.5019 7.6162 11.494 7.28733 11.4749 6.95846C11.467 6.81871 12.9797 8.12863 14.758 9.88167C14.6328 9.92936 14.5087 9.98205 14.3886 10.048C14.2978 10.0974 14.3311 10.2233 14.4202 10.2505V10.2494Z" fill="#638C2D"/>
<path d="M21.2958 39.1358C21.4662 39.2001 21.6636 39.2578 21.8328 39.3404C21.8593 39.864 21.8835 40.3869 21.9084 40.9105C21.6889 40.8528 21.4588 40.8278 21.236 40.8617C21.108 40.865 20.9805 40.8866 20.8587 40.931C20.7831 40.9582 20.7155 40.9953 20.6523 41.0369C20.6151 40.753 20.5801 40.469 20.5395 40.1856C20.4554 39.5989 20.3618 39.0138 20.2637 38.4287C20.5248 38.7604 20.901 38.9855 21.2958 39.1347V39.1358Z" fill="#638C2D"/>
<path d="M23.6818 42.4482C23.5002 42.2952 23.3993 42.0622 23.2633 41.8731C23.1731 41.7472 23.071 41.6286 22.9599 41.5193C22.9497 41.5093 22.9379 41.5004 22.9277 41.4905C22.9463 41.2675 22.9802 41.0418 23.062 40.8372C23.1562 40.6015 23.3163 40.3824 23.5403 40.2515C23.6581 40.1822 23.7794 40.1534 23.9018 40.1489C23.8894 40.1711 23.8719 40.1905 23.8606 40.2133C23.6931 40.5643 23.7072 40.9985 23.8414 41.3685C23.9599 41.6934 24.1522 41.9779 24.3739 42.2408C24.3699 42.2769 24.3654 42.3129 24.3615 42.3495C24.3316 42.4538 24.3034 42.558 24.274 42.6623C24.0716 42.6279 23.8414 42.583 23.6813 42.4482H23.6818Z" fill="#638C2D"/>
<path d="M23.4688 43.2077C23.713 43.2155 23.9499 43.1623 24.167 43.0508C24.1083 43.266 24.0519 43.4817 23.9967 43.6974C23.7643 43.5915 23.5381 43.4418 23.4693 43.2083L23.4688 43.2077Z" fill="#638C2D"/>
<path d="M15.6457 22.7549C15.7009 22.8742 15.7421 22.9973 15.7793 23.1215C15.7314 23.1892 15.6891 23.2601 15.6513 23.3345C15.4612 22.9329 15.2666 22.5325 15.0664 22.1338C15.1606 22.1438 15.248 22.1787 15.3349 22.2625C15.4731 22.3956 15.5673 22.5841 15.6462 22.7549H15.6457Z" fill="#638C2D"/>
<path d="M23.2867 47.3673C23.1677 47.3961 23.0453 47.4372 22.9252 47.4904C22.8857 46.394 22.8423 45.2976 22.7949 44.2012C22.985 44.2572 23.1779 44.2971 23.3821 44.2949C23.5456 44.2932 23.7081 44.2677 23.8654 44.2256C23.8214 44.4086 23.7769 44.5916 23.7363 44.7757C23.5485 45.6331 23.4058 46.4983 23.2862 47.3667L23.2867 47.3673Z" fill="#638C2D"/>
<path d="M21.4602 52.357C21.3998 49.924 21.2865 47.4922 21.084 45.0681C21.1054 45.067 21.1269 45.0631 21.146 45.0509C21.3874 44.9045 21.6074 44.7325 21.8104 44.5396C21.9091 44.5983 21.9988 44.6677 22.0806 44.7447C22.1263 45.8711 22.1692 46.9975 22.2075 48.1244C21.9825 48.4605 21.8629 48.8215 21.8635 48.9856C21.8646 49.3822 22.0592 49.7199 22.2673 50.046C22.2825 50.5546 22.2994 51.0637 22.313 51.5722C22.3496 52.9626 22.3784 54.3529 22.4032 55.7432C22.1274 58.4951 21.8533 61.2475 21.5798 63.9993H21.3965C21.4963 60.1189 21.5566 56.2374 21.4602 52.3564V52.357Z" fill="#638C2D"/>
<path d="M20.3153 42.9637C20.3226 43.0297 20.3299 43.0957 20.3367 43.1617C20.0863 42.8345 19.7575 42.5771 19.3119 42.5832C18.5521 42.5938 17.8934 43.3497 17.9148 44.0889C17.8821 44.0934 17.8494 44.095 17.8172 44.1011C17.2408 44.2104 16.7225 44.6047 16.4562 45.141C16.247 45.5613 16.1821 46.0577 16.2628 46.518C16.2887 46.6661 16.3276 46.8097 16.3739 46.9517C16.388 47.3854 16.4602 47.9355 16.0547 48.2239C15.9385 48.3065 15.9808 48.4751 16.1144 48.5101C16.4483 48.5971 16.8003 48.5866 17.1252 48.4812C17.1049 48.6404 17.0428 48.7896 16.9374 48.9216C16.8465 49.0352 16.9334 49.1695 17.0676 49.1772C17.529 49.2033 17.9486 49.0097 18.251 48.6831C18.6757 49.175 19.4072 49.3658 20.0327 49.1678C20.1427 49.1329 20.1816 48.9698 20.084 48.8988C19.8274 48.7114 19.6655 48.4269 19.6452 48.1185C20.0141 48.2239 20.3908 48.1812 20.7197 47.9954C20.8313 50.054 20.8849 52.1154 20.894 54.1762C20.9086 57.4322 20.8342 60.6887 20.7462 63.9441C20.6847 61.5666 20.251 59.1985 19.4534 56.9464C18.7541 54.9715 17.7354 53.1747 16.604 51.4116C15.4788 49.658 14.3355 47.8878 13.7382 45.8802C12.5329 41.8273 13.4421 37.5659 12.802 33.4454C12.6423 32.4172 12.3739 31.4039 11.9712 30.4412C11.5809 29.5084 11.0834 28.6233 10.6327 27.7182C10.1894 26.8275 9.77712 25.9075 9.55659 24.9364C9.32647 23.9226 9.33775 22.8933 9.50132 21.8707C9.74159 20.3711 10.252 18.9319 10.6931 17.4756C10.7004 17.5238 10.7089 17.5715 10.7196 17.6192C10.7337 17.8843 10.8431 18.1466 11.014 18.3485C11.2735 18.6552 11.6536 18.8293 12.0394 18.9297C12.1471 18.9574 12.2661 18.9818 12.3812 19.0123C12.3062 19.0068 12.23 19.0057 12.1533 19.0134C11.8234 19.0462 11.5104 19.2003 11.3129 19.466C11.1719 19.6557 11.071 19.923 11.1201 20.1625C10.8719 20.2557 10.6406 20.3938 10.4573 20.563C10.0439 20.9451 9.8888 21.5102 10.0546 22.042C10.2075 22.5312 10.7258 23.1118 10.4878 23.6503C10.4528 23.7285 10.5098 23.8389 10.6074 23.825C10.8234 23.7945 11.0056 23.7174 11.1793 23.6021C11.2706 23.7291 11.3366 23.8749 11.3626 24.028C11.3784 24.1217 11.4923 24.2055 11.5831 24.1322C11.6993 24.0385 11.8065 23.9365 11.8945 23.8161C11.9475 23.7435 11.987 23.6681 12.0242 23.5915C12.1973 23.7707 12.3953 23.9154 12.622 24.0341C12.6954 24.0724 12.8082 24.0252 12.8178 23.9393C12.8381 23.7518 12.8578 23.5644 12.8781 23.3769C13.0535 23.4368 13.2351 23.4568 13.4263 23.434C13.6017 23.413 13.6 23.1933 13.4449 23.1445C13.0766 23.0286 13.1471 22.5129 13.1894 22.2339C13.2081 22.1119 13.221 21.9916 13.225 21.8723C13.234 21.6194 13.2035 21.3715 13.1031 21.1247C13.0631 21.0266 13.014 20.9279 12.9554 20.8336C12.7912 20.4631 12.4844 20.162 12.0682 20.071C11.8386 20.0211 11.5961 20.0333 11.3615 20.0888C11.388 19.9019 11.4404 19.7316 11.5842 19.5775C11.7687 19.3795 12.0422 19.293 12.3113 19.3035C12.5137 19.3113 12.7123 19.3684 12.8905 19.4627C12.8945 19.4965 12.9007 19.5275 12.8984 19.5664C12.8922 19.6645 13.0157 19.7549 13.1094 19.7167C13.1376 19.705 13.1607 19.6906 13.1855 19.6767C13.2932 19.7815 13.3857 19.8986 13.4867 20.0078C13.5634 20.1376 13.6407 20.2668 13.7151 20.3982C14.3575 21.5285 14.9396 22.6914 15.4743 23.8755C15.4292 24.16 15.4478 24.4545 15.5521 24.7262C15.6565 24.9991 15.8612 25.1876 16.1026 25.3285C16.4365 26.1404 16.7473 26.9623 17.0383 27.7903C16.9351 27.6261 16.8217 27.4664 16.6655 27.3544C16.4489 27.1996 16.1658 27.1886 15.9407 27.3355C15.7924 27.4326 15.7258 27.5463 15.6779 27.6766C15.657 27.6661 15.6373 27.6539 15.6159 27.645C15.564 27.6233 15.5104 27.6073 15.4562 27.5956C15.2256 27.5452 14.9785 27.5757 14.7444 27.6389C14.4754 27.6655 14.2148 27.7858 14.0174 27.9633C13.7179 28.2328 13.56 28.6149 13.4765 28.9987C13.3964 29.3697 13.3829 29.8799 12.8702 29.8733C12.7698 29.8716 12.6846 29.9975 12.7275 30.0879C12.895 30.4401 13.2481 30.4539 13.5752 30.3652C13.5775 30.4628 13.5487 30.5571 13.4929 30.6492C13.4308 30.7512 13.5335 30.8959 13.6508 30.8799C13.8533 30.8521 14.0405 30.7978 14.2244 30.719C14.2972 30.8577 14.3598 31.0008 14.4184 31.1466C14.4619 31.2542 14.6012 31.3108 14.7027 31.2376C14.8336 31.1427 14.9588 31.0429 15.0834 30.9414C15.2639 31.0906 15.4596 31.2182 15.6666 31.3313C15.802 31.4056 16.009 31.2825 15.9802 31.1239C15.8894 30.6214 16.2261 30.2182 16.3959 29.7712C16.441 29.6526 16.4709 29.5339 16.4878 29.4158C16.5313 29.1113 16.4828 28.809 16.3496 28.5107C16.2419 28.2689 16.102 28.0132 15.9001 27.8302C15.9232 27.8091 15.9475 27.7875 15.9684 27.7659C16.0434 27.6871 16.1223 27.6017 16.2346 27.5818C16.4421 27.5446 16.6238 27.7431 16.7388 27.8868C16.9729 28.179 17.1539 28.5329 17.3908 28.8307C17.6142 29.51 17.8285 30.1916 18.0259 30.8771C18.4484 32.3434 18.8105 33.8264 19.1241 35.3199C19.0665 35.2594 19.0084 35.199 18.9408 35.1496C18.6266 34.9178 18.2098 34.8207 17.8358 34.9677C17.7039 35.0193 17.5476 35.1263 17.4376 35.2594C16.9142 34.9671 16.2239 34.9499 15.9983 35.0276C15.5121 35.1945 15.2205 35.6243 14.9091 35.9992C14.6621 36.297 14.2724 36.6287 13.851 36.5139C13.7213 36.4784 13.6147 36.6037 13.6672 36.7241C13.8025 37.0363 14.0733 37.2614 14.3936 37.3607C14.3248 37.4544 14.243 37.5371 14.1449 37.6103C14.0806 37.6585 14.0772 37.7656 14.1308 37.8221C14.3722 38.0761 14.7332 38.1893 15.0688 38.1072C15.0609 38.3695 14.9227 38.6224 14.7112 38.7821C14.6294 38.8437 14.6711 38.9651 14.7563 38.9967C15.1381 39.1365 15.5544 39.0317 15.8381 38.7721C15.8697 38.9879 15.9396 39.192 16.084 39.3772C16.2876 39.6378 16.6063 39.7787 16.9385 39.7393C17.0248 39.7293 17.0581 39.6417 17.0518 39.5691C17.0338 39.34 17.0614 39.0982 17.1381 38.8775C17.3683 39.1204 17.7213 39.2347 18.0575 39.1265C18.1618 39.0932 18.2572 38.9463 18.1506 38.8537C17.7828 38.5359 18.0739 38.0057 18.1985 37.6436C18.2211 37.5787 18.2414 37.5127 18.2594 37.4461C18.3536 37.1023 18.3874 36.7363 18.3017 36.3891C18.2825 36.3126 18.1026 35.8423 17.7614 35.5018C17.771 35.4934 17.7789 35.4846 17.789 35.4762C17.8928 35.3953 18.0062 35.3382 18.1387 35.3232C18.4433 35.2888 18.7535 35.4818 18.9594 35.6859C19.097 35.8223 19.203 35.9804 19.2927 36.1495C19.6599 38.0107 19.9503 39.8863 20.1788 41.7674C20.1444 41.9166 20.1274 42.0708 20.137 42.2211C20.1534 42.479 20.2211 42.7246 20.3141 42.9626L20.3153 42.9637Z" fill="#638C2D"/>
<path d="M20.3906 47.1943C20.3043 46.9868 20.3088 46.7539 20.2902 46.5337C20.2902 46.5288 20.289 46.5238 20.289 46.5188C20.2524 46.1017 20.1841 45.6697 20.0008 45.2893C19.8164 44.9072 19.5299 44.5567 19.1226 44.3919C19.1176 44.3897 19.1125 44.3881 19.108 44.3864C18.9878 44.2971 18.8547 44.225 18.7199 44.1745C18.5361 44.1058 18.3482 44.0764 18.1621 44.0742C18.1779 43.844 18.2495 43.6238 18.3979 43.4236C18.6178 43.1275 19.0031 42.9084 19.3826 42.94C19.8457 42.9783 20.1339 43.4514 20.3482 43.8052C20.3736 43.8473 20.3922 43.8912 20.4148 43.9344C20.5282 45.1135 20.6179 46.2947 20.6878 47.4771C20.5507 47.4555 20.4368 47.3074 20.39 47.1943H20.3906Z" fill="#638C2D"/>
<path d="M20.3544 17.3972C20.2861 17.0218 20.2145 16.6469 20.1406 16.272C20.2636 16.4705 20.3882 16.6679 20.5089 16.8687C20.4475 17.0423 20.3956 17.2181 20.3544 17.3972Z" fill="#638C2D"/>
<path d="M19.3125 32.6804C19.2922 32.7636 19.3678 32.8617 19.4614 32.8312C19.6684 32.7636 19.8337 32.6565 19.9843 32.5123C20.0965 32.6216 20.1879 32.7536 20.2415 32.8994C20.2742 32.9887 20.4011 33.0519 20.4772 32.9638C20.5748 32.8512 20.6617 32.7325 20.7265 32.5983C20.7655 32.5173 20.7908 32.4369 20.8134 32.3548C21.0091 32.4962 21.2234 32.6005 21.4586 32.6776C21.5224 33.7014 21.5833 34.7246 21.6402 35.7489C21.5105 35.7583 21.3797 35.7755 21.2471 35.8099C20.8207 35.9191 20.3481 36.0927 20.1056 36.4804C20.0711 36.5353 20.0424 36.5924 20.0187 36.6512C19.9978 36.7033 19.9826 36.7582 19.9696 36.8126C19.6058 34.9298 19.1603 33.0625 18.625 31.2207C18.8788 31.6616 19.4456 32.1291 19.3125 32.6804Z" fill="#638C2D"/>
<path d="M23.6034 26.2995C23.2684 26.5818 22.8775 26.9822 22.3947 26.8513C22.2565 26.8136 22.1494 26.9522 22.2052 27.0765C22.3451 27.387 22.5735 27.6499 22.8612 27.8335C22.7224 27.9178 22.565 27.9633 22.3947 27.9655C22.2481 27.9671 22.1956 28.118 22.2734 28.2256C22.5414 28.5955 22.9582 28.7962 23.406 28.8234C23.2819 29.4567 23.5887 30.1378 24.1375 30.4927C24.234 30.5554 24.3874 30.4827 24.3829 30.364C24.371 30.0502 24.4951 29.7473 24.7269 29.5394C24.9046 29.9592 25.2594 30.2537 25.7236 30.3513C25.8098 30.9558 25.8736 31.5619 25.9142 32.1698C25.4297 34.5212 25.0467 36.8932 24.7337 39.2718C24.7202 39.3749 24.7083 39.4781 24.6948 39.5807C24.6542 39.5951 24.6119 39.6062 24.5724 39.6239C24.4393 39.6655 24.3129 39.726 24.1996 39.808C24.1714 39.8286 24.1511 39.8546 24.1257 39.8774C23.6756 39.7698 23.1652 40.0748 22.9113 40.453C22.7867 40.6388 22.7044 40.8501 22.648 41.0675C22.6316 40.7469 22.6152 40.4258 22.5983 40.1053C22.8888 39.9361 22.9441 39.6017 22.9068 39.2734C23.0208 39.2889 23.1257 39.3383 23.2227 39.4176C23.3304 39.5058 23.5177 39.4171 23.5199 39.2812C23.5244 39.0477 23.4951 38.8275 23.4365 38.6063C23.6113 38.5491 23.7895 38.5048 23.97 38.4648C24.1031 38.4354 24.1945 38.2885 24.1274 38.1609C24.0411 37.9962 23.9469 37.8371 23.8516 37.6779C24.0586 37.5021 24.2419 37.3047 24.4116 37.0917C24.5228 36.9525 24.4167 36.6974 24.2266 36.7013C23.6248 36.7124 23.2159 36.2604 22.7258 35.9875C22.6028 35.9193 22.4776 35.8672 22.3507 35.8272C22.2701 34.5417 22.1838 33.2562 22.0868 31.9718C22.1133 31.9657 22.1403 31.9651 22.1668 31.9568C22.336 31.9058 22.2949 31.6901 22.133 31.6684C22.1071 31.6651 22.0862 31.6546 22.0636 31.6468C21.9096 29.6364 21.732 27.6277 21.5177 25.6218C21.3998 24.5176 21.2678 23.414 21.1223 22.3126C21.2142 22.0048 21.1245 21.6238 21.1121 21.3077C21.1003 21.0043 21.1217 20.7137 21.2757 20.4453C21.4201 20.1935 21.6508 20.0438 21.9497 20.0987C22.0168 20.1109 22.0868 20.1331 22.1567 20.1553C22.1465 20.1664 22.1347 20.1752 22.1251 20.1869C21.9503 20.3949 21.8521 20.6616 21.7946 20.9328C21.6807 21.2195 21.6694 21.5484 21.7523 21.8423C21.8775 22.2888 22.1956 22.6509 22.5549 22.9376C22.9023 23.2149 23.4314 23.4978 23.1539 24.0146C23.0997 24.1156 23.1866 24.2692 23.3039 24.2731C23.6474 24.2847 23.8465 24.09 23.9582 23.8327C24.1635 24.3646 24.3547 24.9014 24.5346 25.441C24.2881 25.5708 24.0619 25.7388 23.8786 25.9424C23.7771 26.0549 23.6874 26.1747 23.604 26.2989L23.6034 26.2995Z" fill="#638C2D"/>
<path d="M10.2512 16.8023C10.3601 16.9365 10.5095 17.0635 10.6754 17.1672C10.6709 17.2692 10.6771 17.3729 10.6934 17.4761C10.2518 18.9324 9.74135 20.3716 9.50164 21.8712C9.33808 22.8938 9.32623 23.9231 9.55692 24.9369C9.77745 25.9085 10.1903 26.828 10.6331 27.7187C11.0832 28.6238 11.5812 29.5089 11.9715 30.4417C12.3742 31.4044 12.6427 32.4177 12.8023 33.4459C13.4424 37.5664 12.5332 41.8278 13.7386 45.8807C14.3353 47.8883 15.4786 49.6585 16.6043 51.4121C17.7358 53.1752 18.7544 54.9715 19.4538 56.9469C20.2513 59.1985 20.685 61.5666 20.7465 63.9446C20.7465 63.9629 20.7454 63.9818 20.7448 64.0001H20.4775C20.4442 63.6285 20.4081 63.2564 20.368 62.8854C19.7973 59.7714 18.3314 56.8315 16.7668 54.0908C14.7972 50.6407 12.5581 47.2855 11.3302 43.486C10.7216 41.6038 10.4407 39.6788 10.4729 37.7051C10.5056 35.6703 10.6968 33.5707 9.79662 31.6712C9.36797 30.7667 8.82764 29.9209 8.47513 28.9815C8.14123 28.0925 7.94777 27.158 7.85922 26.2152C7.67647 24.2769 7.95736 22.3148 8.41139 20.4298C8.78928 18.8609 9.31213 17.3208 9.82031 15.7769C9.89815 15.8257 9.97485 15.8756 10.0493 15.9283C9.87502 16.1673 10.0961 16.6104 10.2518 16.8023H10.2512Z" fill="#779E39"/>
<path d="M11.2239 15.4607C11.1664 15.7402 11.101 16.018 11.0299 16.2948C10.6847 15.9759 10.3215 15.6775 9.94531 15.3963C10.6825 13.1408 11.361 10.8726 11.4817 8.49233C11.4907 8.30932 11.4964 8.12686 11.4986 7.94385C11.5296 8.20672 11.5567 8.46959 11.5798 8.73357C11.775 10.9791 11.6769 13.2501 11.2239 15.4607Z" fill="#779E39"/>
<path d="M10.7411 16.8393C10.7191 16.8244 10.6948 16.8122 10.674 16.7961C10.5561 16.7062 10.4512 16.602 10.3739 16.4755C10.3389 16.4184 10.2278 16.1872 10.2487 16.0757C10.3649 16.1628 10.4805 16.2504 10.5967 16.3374C10.6909 16.4234 10.7851 16.5094 10.8764 16.5981C10.8358 16.6497 10.7986 16.704 10.7693 16.7645C10.7574 16.7889 10.7507 16.8149 10.7411 16.8399V16.8393Z" fill="#779E39"/>
<path d="M18.3792 28.1001C18.7204 28.0768 19.0549 28.2205 19.3008 28.4478C19.4407 28.5771 19.5952 28.7606 19.7035 28.9592C19.6212 28.9852 19.5394 29.0152 19.461 29.0529C19.4153 29.0745 19.3719 29.1011 19.3279 29.1267C19.2968 29.0695 19.2647 29.0135 19.2297 28.9619C19.082 28.7429 18.8896 28.5665 18.6336 28.48C18.4136 28.4057 18.153 28.4212 17.9787 28.5865C17.9144 28.6475 17.8772 28.7118 17.8563 28.7784C17.8214 28.6747 17.7836 28.5721 17.748 28.4689C17.8885 28.2543 18.109 28.119 18.3792 28.1001Z" fill="#82A02E"/>
<path d="M15.7783 22.2905C15.8748 22.4319 15.9791 22.6177 16.0581 22.8173C15.9532 22.9066 15.8595 23.0087 15.78 23.1218C15.7428 22.997 15.7016 22.8745 15.6463 22.7552C15.5674 22.5844 15.4732 22.3959 15.335 22.2628C15.2481 22.179 15.1607 22.1446 15.0665 22.1341C15.0191 22.0393 14.9718 21.945 14.9238 21.8507C15.2194 21.7331 15.617 22.0553 15.7778 22.2905H15.7783Z" fill="#82A02E"/>
<path d="M10.3745 16.4756C10.4512 16.602 10.5567 16.7063 10.6746 16.7961C10.6954 16.8122 10.7197 16.825 10.7417 16.8394C10.7315 16.8655 10.7197 16.8915 10.7118 16.9182C10.6892 16.9991 10.6802 17.0829 10.6768 17.1672C10.511 17.0635 10.3615 16.9365 10.2527 16.8022C10.097 16.6104 9.8759 16.1672 10.0502 15.9282C10.1179 15.9759 10.1833 16.0258 10.2493 16.0752C10.229 16.1867 10.3401 16.4179 10.3745 16.475V16.4756Z" fill="#82A02E"/>
<path d="M27.4093 26.0414C27.3122 25.9039 27.1994 25.9161 27.0895 25.9804C27.024 25.8812 26.9473 25.7919 26.8633 25.7104C27.0742 25.564 27.3376 25.5068 27.5587 25.6727C27.5632 25.676 27.5661 25.681 27.5706 25.6849C27.5266 25.8252 27.4831 25.9655 27.4408 26.1058C27.4296 26.0853 27.4228 26.0603 27.4093 26.042V26.0414Z" fill="#82A02E"/>
<path d="M23.9009 40.1489C23.7785 40.1534 23.6572 40.1822 23.5393 40.2515C23.3154 40.3829 23.1552 40.6015 23.061 40.8372C22.9792 41.0418 22.9454 41.2675 22.9268 41.4905C22.7187 41.2936 22.4795 41.1283 22.215 41.0135C22.1169 40.9708 22.0131 40.9381 21.9076 40.9104C21.8822 40.3868 21.8585 39.8633 21.832 39.3403C22.0785 39.4607 22.2635 39.6359 22.2037 39.977C22.184 40.0896 22.3148 40.2088 22.4282 40.1766C22.4925 40.1583 22.5472 40.1328 22.5968 40.104C22.6138 40.4245 22.6307 40.7456 22.6465 41.0662C22.7023 40.8488 22.7847 40.6381 22.9099 40.4517C23.1631 40.0735 23.6741 39.7685 24.1242 39.8761C24.0328 39.9565 23.9578 40.048 23.9009 40.1489Z" fill="#82A02E"/>
<path d="M22.3119 45.0221C22.3559 45.0903 22.4788 45.1286 22.5386 45.0515C22.731 44.8036 22.8144 44.4852 22.7473 44.188C22.7631 44.193 22.7789 44.1969 22.7947 44.2013C22.8421 45.2977 22.8855 46.3941 22.925 47.4905C22.8308 47.5327 22.7383 47.5804 22.6542 47.6414C22.6435 47.6491 22.6328 47.6575 22.6221 47.6658C22.4568 47.7933 22.3192 47.9564 22.207 48.1244C22.1686 46.9975 22.1258 45.8711 22.0801 44.7448C22.1669 44.8269 22.2453 44.9189 22.3119 45.0221Z" fill="#82A02E"/>
<path d="M22.2656 50.0459C22.3232 50.1363 22.3824 50.2261 22.4382 50.3154C22.643 50.6426 22.8347 51.1129 22.5866 51.4667C22.5098 51.576 22.5956 51.7157 22.7281 51.7063C22.8432 51.6986 22.9509 51.6681 23.0547 51.6281C23.088 52.8538 23.1173 54.0794 23.141 55.3056C23.1568 56.1236 23.1703 56.9416 23.1822 57.7602C23.1534 58.353 23.1207 58.9458 23.0953 59.5387C23.0468 60.6828 23.0056 61.8264 22.9718 62.971C22.9616 63.3132 22.9492 63.6565 22.9379 63.9992H22.4986C22.4969 63.9848 22.4935 63.9715 22.4929 63.9554C22.441 61.8923 22.463 59.8271 22.4354 57.7635C22.4264 57.0897 22.4134 56.4164 22.4016 55.7431C22.3767 54.3528 22.3485 52.9625 22.3113 51.5721C22.2978 51.063 22.2809 50.5545 22.2656 50.0459Z" fill="#82A02E"/>
<path d="M21.6406 35.7491C21.5836 34.7253 21.5227 33.7016 21.459 32.6778C21.4669 32.6806 21.4736 32.6845 21.4815 32.6867C21.5605 32.7116 21.6632 32.6456 21.657 32.5591C21.6429 32.3711 21.6288 32.1831 21.6152 31.9951C21.7715 32.0195 21.9277 32.0073 22.085 31.9707C22.1821 33.2551 22.2684 34.5406 22.349 35.8262C22.3417 35.8239 22.3343 35.8206 22.327 35.8184C22.1042 35.7513 21.8747 35.7319 21.6406 35.7491Z" fill="#82A02E"/>
<path d="M23.0736 49.8926C22.8362 49.7562 22.641 49.515 22.4876 49.2954C22.3347 49.0769 22.2411 48.8278 22.253 48.56C22.2682 48.2178 22.4137 47.9206 22.6224 47.666C22.6331 47.6577 22.6438 47.6494 22.6545 47.6416C22.7386 47.5806 22.8311 47.5329 22.9253 47.4908C23.0454 47.4375 23.1678 47.3965 23.2868 47.3676C23.5491 47.3039 23.7803 47.29 23.8807 47.2905C23.8035 48.1951 23.7318 49.0996 23.6636 50.0047C23.4583 50.0235 23.2524 49.9952 23.0736 49.8921V49.8926Z" fill="#DBDBD2"/>
<path d="M25.1386 48.5994C25.0556 49.0636 24.7731 49.4596 24.3867 49.7296C24.4442 48.9793 24.5046 48.2284 24.5683 47.478C24.6924 47.5363 24.8137 47.6017 24.9276 47.6777C25.1115 47.9444 25.1955 48.2772 25.1386 48.5994Z" fill="#DBDBD2"/>
<path d="M25.1385 48.5995C25.196 48.2772 25.1114 47.9445 24.9275 47.6777C24.9856 47.7166 25.0426 47.757 25.0973 47.7992C25.1012 47.802 25.1052 47.8058 25.1091 47.8086C25.2118 47.8879 25.3257 47.9872 25.4481 48.0776C25.6906 48.2573 25.9648 48.3959 26.2445 48.2401C26.368 48.1713 26.478 48.3077 26.4763 48.4159C26.4701 48.7631 26.2445 49.0542 25.936 49.1884C26.1232 49.3321 26.3466 49.4369 26.5722 49.4951C26.6433 49.5134 26.7172 49.5727 26.6985 49.6565C26.6275 49.9776 26.3878 50.2277 26.0708 50.3314C25.8452 50.4052 25.6258 50.403 25.4086 50.3619C25.5649 50.7102 25.5293 51.1317 25.2699 51.4406C25.2118 51.5099 25.0815 51.5082 25.0488 51.4123C24.9647 51.1633 24.7668 50.9525 24.5175 50.8594C24.4983 51.0662 24.4058 51.257 24.2637 51.4073C24.2699 51.3241 24.2744 51.2404 24.28 51.1572C24.3144 50.6819 24.3505 50.2061 24.3866 49.7308C24.773 49.4602 25.0556 49.0642 25.1385 48.6006V48.5995Z" fill="#CCCCC2"/>
<path d="M22.623 47.666C22.4138 47.9206 22.2688 48.2178 22.2536 48.56C22.2412 48.8279 22.3354 49.0769 22.4882 49.2954C22.6416 49.515 22.8368 49.7562 23.0742 49.8927C23.253 49.9953 23.4589 50.0241 23.6642 50.0052C23.6332 50.4195 23.6022 50.8344 23.5728 51.2486C23.4397 51.4211 23.2604 51.5514 23.0562 51.6291C22.9524 51.6684 22.8447 51.6989 22.7296 51.7073C22.5971 51.7161 22.5113 51.5764 22.588 51.4677C22.8362 51.1139 22.645 50.6436 22.4397 50.3164C22.3839 50.2271 22.3246 50.1372 22.2671 50.0468C22.059 49.7207 21.8644 49.3825 21.8633 48.9865C21.8633 48.8223 21.9823 48.4613 22.2073 48.1252C22.3201 47.9566 22.4572 47.7941 22.6225 47.6666L22.623 47.666Z" fill="#CCCCC2"/>
<path d="M19.9147 31.4766C19.6439 31.3684 19.429 31.1233 19.2536 30.9015C19.05 30.6441 18.9276 30.3613 18.9953 30.0324C19.0658 29.6919 19.2373 29.3503 19.4612 29.053C19.5401 29.0153 19.6214 28.9854 19.7037 28.9593C19.874 28.9055 20.0495 28.8761 20.2249 28.8828C20.6507 28.9 21.0072 29.1429 21.235 29.4789C21.2384 29.4828 21.2407 29.4873 21.2441 29.4906C21.3146 29.5699 21.3783 29.6542 21.4324 29.7396C21.5757 29.9648 21.6501 30.2038 21.6868 30.4539C21.6377 30.6735 21.5001 30.8787 21.3569 31.0462C21.0105 31.4516 20.4381 31.6851 19.9141 31.4754L19.9147 31.4766Z" fill="#DBDBD2"/>
<path d="M19.3277 29.1265C19.3717 29.101 19.4151 29.0744 19.4608 29.0527C19.2369 29.35 19.0654 29.6916 18.9949 30.0321C18.9272 30.361 19.0496 30.6438 19.2532 30.9012C19.4286 31.123 19.6435 31.3676 19.9142 31.4763C20.4382 31.6859 21.0107 31.4524 21.357 31.047C21.5003 30.8795 21.6379 30.6743 21.687 30.4547C21.7044 30.5728 21.7135 30.6937 21.7168 30.8169C21.7247 31.0792 21.7496 31.5439 22.0626 31.6471C22.0857 31.6548 22.106 31.6654 22.132 31.6687C22.2938 31.6898 22.335 31.9055 22.1658 31.9571C22.1387 31.9654 22.1122 31.966 22.0857 31.9721C21.9289 32.0087 21.7727 32.0203 21.6159 31.9965C21.6294 32.1845 21.6435 32.3725 21.6576 32.5605C21.6638 32.647 21.5612 32.713 21.4822 32.688C21.4743 32.6858 21.4676 32.6814 21.4597 32.6792C21.2245 32.6026 21.0101 32.4978 20.8144 32.3564C20.7919 32.4385 20.7665 32.5194 20.7276 32.5998C20.6627 32.7341 20.5758 32.8527 20.4783 32.9653C20.4021 33.0529 20.2752 32.9903 20.2425 32.901C20.1895 32.7551 20.0981 32.6231 19.9853 32.5139C19.8347 32.6575 19.6695 32.7651 19.4625 32.8328C19.3688 32.8633 19.2933 32.7651 19.3136 32.6819C19.4467 32.1307 18.8798 31.6632 18.626 31.2223C18.5634 31.0076 18.5019 30.7925 18.4371 30.5784C18.4218 30.2517 18.5205 29.924 18.7292 29.6478C18.8832 29.4437 19.0936 29.2635 19.3294 29.1276L19.3277 29.1265Z" fill="#CCCCC2"/>
<path d="M22.3275 35.8191C22.3591 35.849 22.3907 35.879 22.4234 35.9078C22.6247 36.0853 22.7844 36.3154 22.8707 36.5683C23.1747 37.4595 22.4183 38.4988 21.4273 38.2537C20.6456 38.0602 20.1729 37.3897 20.0195 36.6521C20.0432 36.5933 20.072 36.5362 20.1064 36.4813C20.3495 36.0936 20.8216 35.9206 21.248 35.8108C21.3805 35.7769 21.5114 35.7592 21.6411 35.7498C21.8752 35.7331 22.1041 35.7525 22.3275 35.8191Z" fill="#DBDBD2"/>
<path d="M21.4281 38.253C22.4191 38.4981 23.1755 37.4583 22.8715 36.5676C22.7852 36.3153 22.6261 36.0846 22.4242 35.9071C22.3915 35.8783 22.3599 35.8483 22.3283 35.8184C22.3356 35.8206 22.343 35.8239 22.3503 35.8261C22.4772 35.8661 22.6024 35.9182 22.7254 35.9864C23.2155 36.2587 23.6244 36.7112 24.2262 36.7001C24.4169 36.6968 24.5223 36.9519 24.4112 37.0906C24.2415 37.3035 24.0576 37.501 23.8512 37.6768C23.9465 37.8359 24.0407 37.9951 24.127 38.1598C24.1941 38.2874 24.1027 38.4343 23.9696 38.4637C23.7891 38.5037 23.6109 38.548 23.436 38.6051C23.4947 38.8264 23.524 39.0471 23.5195 39.2801C23.5173 39.4154 23.3294 39.5047 23.2223 39.4165C23.1253 39.3366 23.0204 39.2878 22.9064 39.2723C22.9436 39.6006 22.8889 39.935 22.5979 40.1042C22.5483 40.133 22.4936 40.1585 22.4293 40.1768C22.3159 40.209 22.185 40.0898 22.2048 39.9772C22.2646 39.6361 22.0796 39.4609 21.8331 39.3405C21.6633 39.2579 21.4659 39.2002 21.2961 39.1359C20.9013 38.9867 20.5251 38.7615 20.264 38.4299C20.1732 37.8897 20.075 37.3512 19.9707 36.8133C19.9842 36.7584 19.9989 36.704 20.0198 36.6519C20.1732 37.39 20.6458 38.06 21.4276 38.2535L21.4281 38.253Z" fill="#CCCCC2"/>
<path d="M24.8612 20.9763C24.8691 21.9163 23.8229 22.6739 22.9576 22.1387C22.2752 21.7167 22.0377 20.9353 22.1246 20.1872C22.1342 20.1761 22.146 20.1666 22.1562 20.1555C22.3271 20.2093 22.503 20.2631 22.6621 20.1722C22.714 20.1422 22.7123 20.0651 22.67 20.0291C22.6147 19.9814 22.5442 19.947 22.4709 19.9171C22.7986 19.7524 23.1985 19.7402 23.5578 19.7612C23.9413 19.784 24.2848 19.8943 24.5815 20.0984C24.6023 20.1361 24.6226 20.1744 24.6446 20.2116C24.78 20.4417 24.859 20.709 24.8612 20.9758V20.9763Z" fill="#CCCCC2"/>
<path d="M23.3046 24.2735C23.1868 24.2696 23.0999 24.1165 23.1546 24.015C23.4321 23.4982 22.9031 23.2153 22.5556 22.938C22.1963 22.6513 21.8782 22.2886 21.753 21.8427C21.6707 21.5488 21.6814 21.2199 21.7953 20.9332C21.8528 20.662 21.951 20.3953 22.1258 20.1873C22.039 20.9354 22.277 21.7168 22.9589 22.1389C23.8241 22.6741 24.8704 21.9159 24.8625 20.9765C24.8602 20.7103 24.7812 20.4424 24.6459 20.2123C24.6239 20.1751 24.603 20.1368 24.5827 20.0991C24.6978 20.1784 24.8066 20.2716 24.9076 20.3803C25.2877 20.789 25.5336 21.3436 26.1095 21.5161C26.2917 21.571 26.312 21.8455 26.1625 21.9442C25.9341 22.0945 25.6972 22.2265 25.4451 22.3308C25.4857 22.511 25.5252 22.6912 25.5551 22.8737C25.5788 23.0157 25.4451 23.1271 25.3097 23.1144C25.1253 23.0972 24.942 23.085 24.7581 23.0861C24.744 23.314 24.7023 23.5331 24.625 23.7533C24.5799 23.8814 24.374 23.9086 24.2996 23.7921C24.2324 23.6867 24.1484 23.608 24.0446 23.5586C24.0249 23.6534 23.9973 23.7466 23.96 23.8326C23.8484 24.0899 23.6498 24.2846 23.3058 24.2729L23.3046 24.2735Z" fill="#BABAAE"/>
<path d="M12.6088 15.993C12.6387 16.0157 12.6686 16.0384 12.6996 16.0601C12.8891 16.1937 13.0476 16.3762 13.1452 16.5847C13.4058 17.141 13.1553 17.8248 12.641 18.0743C12.1768 17.4632 11.6652 16.8953 11.1113 16.3751C11.2845 16.2497 11.4881 16.1577 11.6827 16.085C11.9923 15.9691 12.3014 15.9358 12.6088 15.9935V15.993Z" fill="#DBDBD2"/>
<path d="M12.0697 18.1616C11.381 18.0679 10.9129 17.5366 10.7109 16.9182C10.7183 16.891 10.7307 16.8655 10.7408 16.8395C10.7504 16.8145 10.7572 16.7884 10.769 16.764C10.7984 16.7036 10.8356 16.6492 10.8762 16.5977C11.381 17.0874 11.8412 17.6131 12.2626 18.1688C12.1999 18.1716 12.1362 18.171 12.0697 18.1616Z" fill="#DBDBD2"/>
<path d="M12.8985 19.5681C12.9008 19.5292 12.8946 19.4976 12.8906 19.4644C12.9623 19.5026 13.0311 19.5448 13.0948 19.5952C13.1275 19.6213 13.1563 19.6501 13.1856 19.679C13.1614 19.6928 13.1382 19.7073 13.1095 19.7189C13.0153 19.7566 12.8923 19.6668 12.8985 19.5686V19.5681Z" fill="#CCCCC2"/>
<path d="M11.014 18.3488C10.8431 18.1464 10.7331 17.8846 10.7196 17.6195C10.7089 17.5718 10.701 17.5241 10.6931 17.4759C10.6767 17.3727 10.6711 17.2696 10.675 17.167C10.6784 17.0827 10.6874 16.9989 10.71 16.918C10.9114 17.5363 11.3801 18.0671 12.0687 18.1613C12.1353 18.1702 12.199 18.1713 12.2616 18.1686C12.5154 18.5024 12.7551 18.8468 12.9847 19.199C12.7974 19.0958 12.5944 19.0282 12.3818 19.0126C12.2667 18.9821 12.1477 18.9577 12.04 18.93C11.6542 18.8296 11.274 18.656 11.0146 18.3488H11.014Z" fill="#CCCCC2"/>
<path d="M13.1458 16.5849C13.0482 16.3764 12.8891 16.1939 12.7002 16.0603C12.6692 16.0386 12.6393 16.0159 12.6094 15.9932C12.7284 16.0153 12.8474 16.0508 12.9658 16.1008C13.412 16.2893 13.8051 16.6393 14.32 16.5744C14.483 16.5538 14.5975 16.7629 14.5158 16.8921C14.3905 17.0901 14.2518 17.2759 14.0916 17.4462C14.1886 17.5737 14.2845 17.7013 14.3742 17.8344C14.4441 17.9375 14.3793 18.0717 14.2682 18.1095C14.1176 18.1605 13.9687 18.2148 13.8243 18.2797C13.8953 18.4638 13.9416 18.6502 13.9602 18.8504C13.9709 18.9668 13.8186 19.06 13.7182 18.9946C13.6274 18.9352 13.5332 18.9025 13.434 18.8997C13.4616 19.0217 13.4746 19.1465 13.461 19.2624C13.3341 19.0628 13.205 18.8653 13.0724 18.6701C12.9348 18.4666 12.7904 18.2692 12.6427 18.0745C13.157 17.825 13.4075 17.1412 13.1469 16.5849H13.1458Z" fill="#CCCCC2"/>
<path d="M16.0584 22.8172C16.2745 22.633 16.5379 22.5044 16.843 22.4706C17.2085 22.4306 17.6055 22.5598 17.9033 22.795C17.9282 22.8083 17.953 22.8227 17.9778 22.8371C18.0438 22.8765 18.1103 22.9203 18.1769 22.9658C18.2468 23.1399 18.279 23.3279 18.2598 23.5137C18.2147 23.9374 17.944 24.3023 17.5796 24.522C17.134 24.7904 16.6084 24.7466 16.1876 24.5086C16.0669 24.2375 15.9485 23.9646 15.8227 23.6956C15.7663 23.5753 15.7093 23.4549 15.6523 23.3346C15.6901 23.2603 15.733 23.1893 15.7804 23.1216C15.8599 23.0085 15.9535 22.9065 16.0584 22.8172Z" fill="#DBDBD2"/>
<path d="M15.5521 24.7272C15.4477 24.4554 15.4291 24.1615 15.4742 23.8765C15.6914 24.3573 15.9018 24.8414 16.1026 25.3289C15.8612 25.1881 15.657 24.9995 15.5521 24.7266V24.7272Z" fill="#CCCCC2"/>
<path d="M17.5784 24.522C17.9427 24.3024 18.214 23.9374 18.2586 23.5137C18.2783 23.328 18.2462 23.14 18.1757 22.9658C18.4594 23.1577 18.7544 23.3723 19.1052 23.3546C19.2078 23.3496 19.2975 23.4483 19.249 23.5487C19.1965 23.6563 19.1311 23.7567 19.0488 23.8448C19.0037 23.8931 18.9551 23.9297 18.9038 23.9641C19.0606 24.0323 19.2315 24.0628 19.4047 24.0545C19.4977 24.05 19.5727 24.1571 19.5045 24.2342C19.2355 24.5392 18.9128 24.7682 18.5643 24.9717C18.6946 25.1254 18.7764 25.3117 18.795 25.5152C18.804 25.6162 18.6895 25.6722 18.6094 25.6151C18.4763 25.5208 18.324 25.4675 18.1633 25.4598C18.1475 25.7227 18.0933 25.975 17.9935 26.224C17.9489 26.3344 17.8034 26.3077 17.7566 26.2179C17.5474 25.8175 17.0409 25.6994 16.6421 25.5652C16.4943 25.2113 16.3432 24.8586 16.1875 24.5081C16.6077 24.746 17.1339 24.7898 17.5795 24.5214L17.5784 24.522Z" fill="#CCCCC2"/>
<path d="M31.8293 15.3498C31.4396 14.8706 31.4954 14.0892 31.8953 13.6345C32.2721 13.2063 32.8479 13.0211 33.4108 13.0522C33.4537 13.0721 33.4915 13.1015 33.531 13.127C32.9974 13.9107 32.492 14.712 32.0143 15.525C31.9472 15.474 31.884 15.4169 31.8288 15.3492L31.8293 15.3498Z" fill="#DBDBD2"/>
<path d="M32.4107 15.7222C32.5895 15.4061 32.7717 15.0928 32.9584 14.7811C33.1868 14.4001 33.422 14.0235 33.6628 13.6514C33.7176 13.5771 33.7762 13.5061 33.8349 13.4346C33.8868 13.5183 33.9308 13.6065 33.9601 13.7002C34.0983 13.9991 34.122 14.3474 34.0751 14.6691C34.0317 14.9641 33.9279 15.2492 33.7796 15.5098C33.7012 15.5581 33.6194 15.6013 33.5342 15.6385C33.1936 15.7866 32.7751 15.8287 32.4102 15.7228L32.4107 15.7222Z" fill="#DBDBD2"/>
<path d="M31.8956 13.6351C31.4952 14.0898 31.4399 14.8712 31.8296 15.3504C31.8849 15.418 31.9481 15.4757 32.0152 15.5262C31.9859 15.5755 31.9548 15.6243 31.9261 15.6737C31.6954 16.0697 31.472 16.4701 31.2538 16.8733C31.2227 16.8028 31.1957 16.7302 31.1737 16.6564C31.1116 16.4479 31.1015 16.2383 31.1077 16.027C30.8341 16.1701 30.5002 16.1767 30.2058 16.0614C30.1139 16.0253 30.1184 15.8989 30.1737 15.839C30.3355 15.6626 30.4466 15.4591 30.5115 15.2339C30.2678 15.0936 30.0405 14.9317 29.8319 14.7426C29.7405 14.6599 29.8048 14.4791 29.9362 14.4891C30.4168 14.5257 30.7789 14.1636 31.1009 13.863C31.4647 13.5241 31.8516 13.193 32.331 13.0283C32.6779 12.9091 33.0846 12.8997 33.4111 13.0538C32.8482 13.0222 32.2724 13.2075 31.8956 13.6362V13.6351Z" fill="#CCCCC2"/>
<path d="M33.5337 15.6379C33.6188 15.6008 33.7 15.5575 33.779 15.5093C33.7023 15.644 33.6132 15.7727 33.5145 15.8919C33.3656 16.0716 33.1648 16.2297 33.0638 16.4426C32.9741 16.6323 32.9933 16.8641 33.0142 17.0665C33.03 17.2218 32.8309 17.2651 32.7311 17.1841C32.4908 16.99 32.3351 16.7332 32.2629 16.4449C31.9792 16.6179 31.9217 17.0205 31.8952 17.3294C31.8845 17.4498 31.7288 17.5463 31.6307 17.4392C31.6002 17.4065 31.5731 17.3705 31.5449 17.3361C31.823 16.7926 32.1095 16.2535 32.4101 15.7217C32.7745 15.8276 33.193 15.7855 33.5342 15.6374L33.5337 15.6379Z" fill="#CCCCC2"/>
<path d="M26.5732 39.8008C26.6274 39.884 26.6759 39.9711 26.7176 40.0615C26.9866 40.6477 26.9539 41.4529 26.4136 41.885C26.0554 42.1717 25.5416 42.2338 25.0898 42.1134C25.188 41.2328 25.2912 40.3526 25.404 39.4736C25.4841 39.4764 25.5636 39.4814 25.642 39.4919C25.9686 39.5357 26.285 39.6439 26.5738 39.8003L26.5732 39.8008Z" fill="#DBDBD2"/>
<path d="M23.8602 40.2135C23.8709 40.1907 23.8884 40.1713 23.9014 40.1491C23.9584 40.0482 24.0334 39.9573 24.1247 39.8763C24.1501 39.8536 24.1704 39.8275 24.1986 39.807C24.3126 39.7249 24.4389 39.6644 24.5714 39.6228C24.6109 39.6051 24.6532 39.594 24.6938 39.5796C24.6008 40.3011 24.5134 41.0232 24.4304 41.7463C24.017 41.3476 23.832 40.7764 23.8602 40.2135Z" fill="#DBDBD2"/>
<path d="M26.4134 41.8849C26.9538 41.4529 26.987 40.6471 26.7174 40.0614C26.6757 39.971 26.6272 39.884 26.573 39.8008C26.7231 39.8818 26.8658 39.9755 26.9983 40.0803C27.198 40.2378 27.3751 40.4513 27.6114 40.5578C27.7017 40.5983 27.8004 40.6144 27.9008 40.621C28.0356 40.6299 28.1737 40.6193 28.3018 40.6055C28.4732 40.5872 28.5229 40.7996 28.4343 40.9072C28.2217 41.1656 27.9391 41.3342 27.621 41.4135C27.8145 41.7152 28.2606 41.7734 28.6018 41.7995C28.7355 41.8095 28.8432 41.9753 28.7259 42.0812C28.4783 42.3042 28.185 42.4805 27.8624 42.5759C27.6323 42.6436 27.401 42.6569 27.167 42.6513C27.3277 42.9425 27.3379 43.2996 27.2126 43.6152C27.1737 43.7139 27.0339 43.71 26.9667 43.6518C26.8658 43.5636 26.7564 43.4904 26.6402 43.43C26.5307 43.3734 26.4157 43.3285 26.2944 43.2958C26.1416 43.5575 25.9639 43.8021 25.7569 44.0267C25.6661 44.1249 25.4659 44.0578 25.476 43.9175C25.5042 43.517 25.2657 43.1959 25 42.9114C25.0282 42.6452 25.0592 42.3796 25.0885 42.1139C25.5403 42.2343 26.0542 42.1722 26.4123 41.8855L26.4134 41.8849Z" fill="#CCCCC2"/>
<path d="M23.8615 40.2134C23.8333 40.7763 24.0183 41.3475 24.4317 41.7462C24.4125 41.911 24.3933 42.0762 24.3747 42.2409C24.1531 41.9775 23.9607 41.6936 23.8423 41.3686C23.7075 40.9987 23.6934 40.5644 23.8615 40.2134Z" fill="#CCCCC2"/>
<path d="M27.0885 25.9804C27.1646 26.0957 27.2289 26.2205 27.274 26.358C27.2909 26.4102 27.3034 26.4651 27.3146 26.5205C27.0997 27.2459 26.9023 27.9752 26.714 28.7073C26.6119 28.8187 26.5064 28.9269 26.3975 29.0289C26.1042 29.0699 25.8059 29.0611 25.5109 28.9807C25.1793 28.8903 24.785 28.7244 24.6119 28.4178C24.3603 28.171 24.1826 27.8493 24.1048 27.5094C23.9734 26.9354 24.1369 26.3458 24.565 25.9316C24.9999 25.5101 25.6288 25.2949 26.2323 25.4297C26.4201 25.4713 26.5983 25.5373 26.7681 25.6204C26.8014 25.6482 26.8313 25.6798 26.8623 25.7097C26.9463 25.7918 27.023 25.8811 27.0885 25.9798V25.9804Z" fill="#DBDBD2"/>
<path d="M24.5669 25.9321C24.1394 26.3469 23.9753 26.9365 24.1067 27.5099C24.1845 27.8493 24.3622 28.1715 24.6137 28.4183C24.7863 28.7244 25.1811 28.8908 25.5128 28.9812C25.8078 29.0616 26.1061 29.0699 26.3994 29.0295C26.3955 29.0328 26.3921 29.0367 26.3881 29.04C26.2257 29.1919 26.0379 29.3345 25.9279 29.5308C25.8563 29.6572 25.8027 29.8879 25.9403 29.9961C26.0131 30.0532 26.0582 30.1336 26.0294 30.2273C26.0052 30.3067 25.9138 30.3843 25.8241 30.3715C25.7897 30.3666 25.7576 30.3582 25.7249 30.351C25.2607 30.2529 24.9059 29.9589 24.7282 29.5391C24.4964 29.7471 24.3723 30.0499 24.3842 30.3638C24.3887 30.483 24.2353 30.5551 24.1388 30.4924C23.59 30.1375 23.2832 29.457 23.4073 28.8231C22.9595 28.796 22.5427 28.5952 22.2747 28.2253C22.1969 28.1177 22.2488 27.9669 22.396 27.9652C22.5669 27.9635 22.7237 27.9175 22.8624 27.8332C22.5748 27.6502 22.3469 27.3868 22.2065 27.0762C22.1507 26.9525 22.2578 26.8139 22.396 26.851C22.8788 26.9819 23.2702 26.5815 23.6047 26.2992C23.6882 26.175 23.7779 26.0552 23.8794 25.9426C24.0627 25.7391 24.2889 25.5711 24.5353 25.4413C24.7124 25.3481 24.8986 25.2722 25.0926 25.2289C25.6848 25.0975 26.3221 25.2477 26.7694 25.621C26.5996 25.5378 26.4214 25.4718 26.2336 25.4302C25.6307 25.296 25.0012 25.5112 24.5664 25.9321H24.5669Z" fill="#CCCCC2"/>
<path d="M20.8946 54.1767C20.885 52.1158 20.832 50.0545 20.7203 47.9958C20.8156 47.942 20.907 47.8777 20.9927 47.8001C21.0587 47.7396 21.0548 47.6215 21.0068 47.5527C20.951 47.4723 20.8585 47.4562 20.7677 47.4762C20.7406 47.4823 20.7147 47.4806 20.6887 47.4768C20.6188 46.2944 20.5285 45.1131 20.4157 43.9341C20.3932 43.8914 20.3745 43.8476 20.3492 43.8049C20.1348 43.4505 19.8466 42.978 19.3836 42.9397C19.004 42.9081 18.6188 43.1272 18.3988 43.4233C18.2499 43.6235 18.1783 43.8437 18.163 44.0738C18.154 44.2097 18.1642 44.3489 18.1901 44.4898C18.2093 44.5946 18.0536 44.6112 18.0147 44.5258C17.9504 44.385 17.9211 44.2369 17.9166 44.0888C17.8946 43.3495 18.5533 42.5937 19.3136 42.5831C19.7598 42.577 20.088 42.8343 20.3385 43.1615C20.3317 43.0955 20.3238 43.0296 20.317 42.9636C20.4039 43.1859 20.5133 43.4017 20.6267 43.6119C20.7976 43.9302 20.9984 44.2846 20.973 44.6489C20.9888 44.7798 20.9916 44.9096 20.9786 45.036C21.0085 45.0582 21.0463 45.0699 21.0835 45.0676C21.286 47.4923 21.3994 49.9236 21.4597 52.3565C21.5562 56.2375 21.4958 60.119 21.396 63.9995H20.7457C20.7457 63.9811 20.7468 63.9623 20.7474 63.944C20.8354 60.6886 20.9098 57.4326 20.8951 54.1761L20.8946 54.1767Z" fill="#8BAF3C"/>
<path d="M18.262 37.4478C18.0657 37.7057 17.7741 37.8932 17.4453 37.9453C16.9473 38.0246 16.4475 37.8743 16.051 37.5748C15.7149 37.3208 15.4391 36.8805 15.5259 36.4501C15.5795 36.185 15.7476 35.9244 15.9078 35.7098C16.068 35.4962 16.2761 35.3277 16.5378 35.2511C16.8395 35.1629 17.1396 35.1885 17.4261 35.2755C17.3161 35.4158 17.2603 35.5839 17.3404 35.7486C17.3748 35.8185 17.456 35.8379 17.5141 35.7807C17.6055 35.6909 17.6664 35.5889 17.764 35.5029C18.1052 35.8434 18.2851 36.3137 18.3043 36.3902C18.39 36.7374 18.3562 37.1034 18.262 37.4473V37.4478Z" fill="#F4F3EF"/>
<path d="M16.5379 35.2511C16.2768 35.3276 16.0681 35.4962 15.9079 35.7097C15.7472 35.9244 15.5791 36.1845 15.5261 36.4501C15.4392 36.8805 15.715 37.3208 16.0512 37.5748C16.4477 37.8748 16.9474 38.0246 17.4455 37.9453C17.7737 37.8931 18.0659 37.7057 18.2622 37.4478C18.2441 37.5143 18.2238 37.5803 18.2012 37.6452C18.0766 38.0074 17.7856 38.5375 18.1533 38.8553C18.2599 38.9474 18.1646 39.0943 18.0602 39.1282C17.7246 39.2358 17.371 39.1221 17.1409 38.8792C17.0642 39.1005 17.0365 39.3423 17.0546 39.5707C17.0602 39.6428 17.027 39.7305 16.9412 39.741C16.6096 39.7798 16.2903 39.6395 16.0867 39.3789C15.9418 39.1936 15.8724 38.989 15.8408 38.7738C15.5571 39.0328 15.1409 39.1382 14.759 38.9984C14.6739 38.9668 14.6321 38.8453 14.7139 38.7838C14.9254 38.6241 15.0636 38.3712 15.0715 38.1089C14.7359 38.1909 14.3749 38.0778 14.1335 37.8238C14.08 37.7672 14.0833 37.6602 14.1476 37.6119C14.2458 37.5382 14.3276 37.4561 14.3964 37.3624C14.076 37.2631 13.8053 37.0374 13.6699 36.7257C13.6175 36.6054 13.7241 36.4806 13.8538 36.5155C14.2751 36.6303 14.6643 36.2987 14.9119 36.0009C15.2232 35.626 15.5154 35.1967 16.001 35.0293C16.2266 34.9516 16.917 34.9688 17.4404 35.2611C17.4359 35.2666 17.4308 35.2711 17.4263 35.2766C17.1403 35.1895 16.8397 35.164 16.5379 35.2522V35.2511Z" fill="#EAE9E5"/>
<path d="M12.0697 20.072C12.4859 20.1629 12.7927 20.464 12.9569 20.8345C13.015 20.9282 13.0646 21.0275 13.1046 21.1257C13.205 21.3725 13.2355 21.6198 13.2265 21.8732C13.139 22.0812 12.9665 22.2592 12.7956 22.399C12.3821 22.7378 11.7764 22.8682 11.2987 22.5709C11.0516 22.4173 10.8841 22.1389 10.751 21.8899C10.597 21.6009 10.5271 21.3015 10.6528 20.9898C10.76 20.7247 10.9365 20.4718 11.1475 20.2489C11.1531 20.2633 11.1565 20.2783 11.1633 20.2927C11.1977 20.3637 11.3347 20.3803 11.3426 20.2799C11.3477 20.2145 11.3539 20.1513 11.3624 20.0897C11.5976 20.0342 11.8395 20.022 12.0691 20.072H12.0697Z" fill="#F4F3EF"/>
<path d="M10.7505 21.8895C10.883 22.1385 11.0511 22.4169 11.2982 22.5705C11.7759 22.8678 12.3816 22.7375 12.7951 22.3986C12.966 22.2583 13.1385 22.0803 13.226 21.8729C13.222 21.9921 13.2091 22.1124 13.1904 22.2345C13.1481 22.5134 13.0776 23.0286 13.4459 23.1451C13.6016 23.1939 13.6033 23.4135 13.4273 23.4346C13.2361 23.4573 13.0545 23.4373 12.8791 23.3774C12.8582 23.5649 12.8385 23.7523 12.8187 23.9398C12.8097 24.0263 12.6964 24.0729 12.623 24.0346C12.3957 23.9159 12.1978 23.7712 12.0252 23.5921C11.9879 23.6692 11.9485 23.744 11.8954 23.8167C11.8075 23.937 11.7009 24.0391 11.5841 24.1328C11.4933 24.206 11.3794 24.1217 11.3636 24.0285C11.3376 23.876 11.2716 23.7296 11.1803 23.6026C11.006 23.718 10.8244 23.795 10.6084 23.8256C10.5108 23.8394 10.4538 23.7296 10.4888 23.6509C10.7274 23.1124 10.2085 22.5312 10.0556 22.0426C9.88979 21.5107 10.0449 20.9456 10.4583 20.5635C10.6416 20.3943 10.8723 20.2563 11.121 20.1631C11.1273 20.1919 11.1363 20.2202 11.1464 20.2485C10.9355 20.4714 10.7589 20.7238 10.6518 20.9894C10.526 21.3011 10.5954 21.6011 10.7499 21.8895H10.7505Z" fill="#EAE9E5"/>
<path d="M21.1444 13.4953C21.678 13.5647 22.1856 13.9146 22.2871 14.462C22.3396 14.7448 22.2448 15.0548 22.1484 15.3194C22.0367 15.6266 21.8596 15.88 21.5409 15.9998C21.4208 16.0453 21.2916 16.0758 21.1597 16.0997C21.1816 16.0425 21.1946 15.9843 21.185 15.9211C21.1783 15.8773 21.1377 15.8462 21.0925 15.8612C20.9617 15.9045 20.8946 16.0231 20.8314 16.1379C20.7045 16.1451 20.5776 16.1468 20.4507 16.1379C20.2978 16.0459 20.1613 15.9316 20.0474 15.8007C19.991 15.7359 19.938 15.6688 19.8951 15.5955C19.7152 15.2905 19.7005 14.9411 19.7981 14.6184C19.8167 14.5574 19.8376 14.4964 19.8641 14.4376C19.8951 14.3317 19.9357 14.2291 19.982 14.1337C20.0987 13.8941 20.2634 13.7044 20.4586 13.5392C20.6735 13.4615 20.9233 13.4659 21.1439 13.4948L21.1444 13.4953Z" fill="#F4F3EF"/>
<path d="M21.1595 16.099C21.2915 16.0751 21.4206 16.0446 21.5408 15.9991C21.8594 15.8788 22.0365 15.6254 22.1482 15.3187C22.2447 15.0541 22.3389 14.7441 22.287 14.4613C22.1854 13.9139 21.6778 13.5645 21.1443 13.4947C20.9237 13.4658 20.6739 13.4614 20.459 13.539C20.5509 13.4614 20.6502 13.3887 20.754 13.32C20.9909 13.1619 21.4246 12.8635 21.2621 12.5186C21.1933 12.3727 21.3563 12.223 21.4911 12.3361C21.6378 12.4587 21.7461 12.604 21.82 12.7715C21.9745 12.6594 22.1279 12.5469 22.2819 12.4343C22.353 12.3827 22.4646 12.4326 22.4855 12.5114C22.5504 12.7559 22.5763 12.9972 22.5594 13.244C22.6423 13.219 22.7252 13.1963 22.8155 13.1852C22.9655 13.1669 23.1138 13.1752 23.2627 13.1963C23.3789 13.2124 23.393 13.3516 23.3338 13.4264C23.2373 13.549 23.1725 13.6954 23.1392 13.8474C23.3434 13.8951 23.5244 13.9749 23.6936 14.1102C23.7703 14.1718 23.7264 14.2872 23.644 14.3149C23.08 14.5073 22.9965 15.276 22.7337 15.7174C22.4483 16.1982 21.9204 16.4683 21.3546 16.4278C21.2469 16.4201 21.1375 16.3996 21.0286 16.3729C21.0422 16.3452 21.0529 16.3158 21.067 16.2886C21.0991 16.2265 21.1352 16.1644 21.1606 16.1001L21.1595 16.099Z" fill="#EAE9E5"/>
<path d="M20.8319 16.1382C20.8268 16.1476 20.8212 16.1576 20.8161 16.167C20.7947 16.2058 20.7789 16.2474 20.7586 16.2868C20.6525 16.2452 20.5487 16.1975 20.4512 16.1387C20.5781 16.1476 20.7055 16.1454 20.8319 16.1387V16.1382Z" fill="#EAE9E5"/>
<path d="M16.3511 28.5117C16.4836 28.8101 16.5321 29.1124 16.4893 29.4168C16.4678 29.4473 16.4458 29.4778 16.4255 29.5089C16.2992 29.7013 16.121 29.866 15.914 29.972C15.1836 30.3463 14.1813 29.8533 14.2603 28.9909C14.3223 28.3104 14.8389 27.8241 15.4577 27.5967C15.5118 27.6083 15.5654 27.625 15.6173 27.646C15.6393 27.6549 15.6585 27.6671 15.6793 27.6777C15.6494 27.7586 15.6269 27.8457 15.5964 27.9394C15.5727 28.0126 15.6912 28.0703 15.7357 28.0065C15.7797 27.9422 15.8423 27.8867 15.9021 27.8313C16.104 28.0143 16.2439 28.2699 16.3516 28.5117H16.3511Z" fill="#F4F3EF"/>
<path d="M14.2595 28.9911C14.1811 29.854 15.1828 30.3465 15.9132 29.9721C16.1202 29.8662 16.2984 29.7015 16.4247 29.509C16.445 29.478 16.467 29.4475 16.4885 29.417C16.4716 29.5351 16.4417 29.6538 16.3965 29.7725C16.2268 30.22 15.8901 30.6226 15.9809 31.1251C16.0096 31.2843 15.8032 31.4068 15.6673 31.3325C15.4603 31.2188 15.2646 31.0918 15.0841 30.9426C14.9594 31.0441 14.8342 31.1445 14.7034 31.2388C14.6018 31.312 14.4625 31.2554 14.4191 31.1478C14.3604 31.002 14.2978 30.8589 14.2251 30.7202C14.0412 30.799 13.8545 30.8533 13.6515 30.8811C13.5341 30.8972 13.4315 30.7524 13.4935 30.6504C13.5494 30.5583 13.5781 30.464 13.5759 30.3664C13.2487 30.4552 12.8957 30.4413 12.7282 30.0891C12.6853 29.9987 12.7705 29.8728 12.8709 29.8745C13.383 29.8817 13.3965 29.3709 13.4772 28.9999C13.5601 28.6162 13.7186 28.2341 14.0181 27.9645C14.2155 27.7871 14.4761 27.6662 14.7451 27.6401C14.9792 27.5769 15.2262 27.5469 15.4569 27.5968C14.8387 27.8248 14.3215 28.3106 14.2595 28.9911Z" fill="#EAE9E5"/>
<path d="M2.0033 14.3493C1.29658 13.9333 1.19844 12.8358 1.98694 12.4498C2.60906 12.1454 3.30111 12.3239 3.8217 12.7227C3.83975 12.7743 3.85385 12.8275 3.86231 12.8824C3.86231 12.8846 3.86231 12.8868 3.86231 12.8891C3.68069 12.8813 3.50077 12.8796 3.32592 12.8941C3.26839 12.899 3.26501 12.9795 3.31972 12.9922C3.49964 13.0333 3.68351 13.0593 3.86851 13.0821C3.84821 13.3971 3.67562 13.6971 3.49682 13.9505C3.30788 14.2178 3.07155 14.4169 2.78503 14.5401C2.74724 14.5378 2.70945 14.5356 2.67166 14.5351C2.43872 14.5301 2.20296 14.4669 2.00217 14.3493H2.0033Z" fill="#F4F3EF"/>
<path d="M0.0310212 12.9306C-0.0445574 12.8408 0.0270731 12.6788 0.147773 12.6777C0.256629 12.6761 0.353077 12.6511 0.437115 12.5979C0.189511 12.3705 0.0163567 12.0671 0.233504 11.7421C0.289342 11.659 0.442756 11.6645 0.494081 11.7494C0.756351 12.1819 1.20587 11.9263 1.5691 11.7993C1.9453 11.6678 2.35873 11.6007 2.74903 11.71C3.00623 11.7821 3.24706 11.9374 3.41119 12.1487C3.58829 12.3117 3.74396 12.5025 3.82123 12.7227C3.30008 12.3239 2.60859 12.1459 1.98648 12.4498C1.19798 12.8358 1.29555 13.9333 2.00283 14.3492C2.20306 14.4674 2.43882 14.53 2.67233 14.535C2.71012 14.5361 2.7479 14.5378 2.78569 14.54C2.67458 14.5877 2.55614 14.6249 2.4298 14.6493C1.9532 14.7413 1.4281 14.6703 1.04005 15.0098C0.917096 15.1173 0.702769 15.0081 0.696 14.8561C0.685848 14.6232 0.693744 14.3925 0.728714 14.1635C0.5753 14.1119 0.423015 14.0598 0.272422 13.9993C0.15567 13.9527 0.131981 13.8063 0.202483 13.7137C0.297803 13.5878 0.389174 13.4608 0.471521 13.3271C0.306827 13.2146 0.161874 13.0865 0.0315852 12.9312L0.0310212 12.9306Z" fill="#EAE9E5"/>
<path d="M21.2361 40.8621C21.4589 40.8283 21.689 40.8527 21.9084 40.9109C22.0139 40.9386 22.1177 40.9719 22.2158 41.014C22.4798 41.1288 22.7195 41.2935 22.9276 41.491C22.9383 41.501 22.9496 41.5098 22.9598 41.5198C22.9857 41.6069 23.0066 41.6962 23.0201 41.7866C23.1064 42.3717 22.869 43.076 22.2796 43.3222C21.7054 43.5623 20.9547 43.2995 20.6174 42.7981C20.2993 42.3256 20.2728 41.7306 20.4549 41.2059C20.5125 41.1416 20.579 41.0861 20.6524 41.0373C20.7155 40.9957 20.7832 40.9586 20.8588 40.9314C20.9806 40.887 21.1081 40.8654 21.2361 40.8621Z" fill="#F4F3EF"/>
<path d="M20.6177 42.7982C20.9549 43.2995 21.7057 43.5624 22.2798 43.3223C22.8692 43.0755 23.1067 42.3717 23.0204 41.7866C23.0069 41.6962 22.9865 41.607 22.96 41.5199C23.0717 41.6291 23.1732 41.7478 23.2635 41.8737C23.3994 42.0628 23.5004 42.2963 23.682 42.4488C23.8422 42.5841 24.0723 42.6285 24.2748 42.6629C24.2765 42.6629 24.2782 42.6634 24.2798 42.664C24.2996 42.6673 24.3097 42.6801 24.3244 42.6884C24.3137 42.7849 24.3047 42.8814 24.2939 42.9779C24.2528 43.0051 24.2105 43.0283 24.167 43.0505C23.9499 43.1626 23.713 43.2152 23.4688 43.2075C23.5376 43.441 23.7638 43.5907 23.9961 43.6966C24.0683 43.7293 24.14 43.7582 24.2088 43.7837C24.1975 43.8946 24.1851 44.005 24.1738 44.1159C24.0734 44.1597 23.9702 44.1974 23.8647 44.2257C23.7074 44.2678 23.5449 44.2928 23.3814 44.295C23.1772 44.2972 22.9843 44.2573 22.7942 44.2013C22.7784 44.1969 22.7626 44.193 22.7468 44.188C22.8134 44.4852 22.7305 44.8036 22.5382 45.0515C22.4784 45.1286 22.3554 45.0908 22.3114 45.0221C22.2449 44.9189 22.1665 44.8269 22.0796 44.7448C21.9978 44.6677 21.9081 44.5984 21.8094 44.5396C21.6064 44.7326 21.3864 44.9045 21.145 45.0509C21.1258 45.0626 21.1044 45.067 21.083 45.0681C21.0458 45.0698 21.008 45.0587 20.9781 45.0365C20.9905 44.9101 20.9882 44.7797 20.9724 44.6494C20.9978 44.2856 20.797 43.9307 20.6261 43.6123C20.5133 43.4016 20.4039 43.1864 20.3165 42.964C20.2234 42.7261 20.1563 42.4804 20.1394 42.2225C20.1298 42.0717 20.1467 41.9181 20.1811 41.7689C20.2291 41.5604 20.3159 41.3629 20.4552 41.2065C20.273 41.7312 20.2996 42.3262 20.6177 42.7987V42.7982Z" fill="#EAE9E5"/>
<path d="M16.1946 3.86275C16.0919 3.82503 15.9989 3.76957 15.9148 3.70192C15.6762 3.5544 15.4946 3.32036 15.3756 3.07302C15.2662 2.84564 15.2042 2.59774 15.1855 2.34651C15.2177 2.27664 15.2549 2.20898 15.2972 2.14354C15.5708 1.72372 16.1179 1.40372 16.6323 1.56677C17.1331 1.72538 17.4642 2.30104 17.3976 2.80405C17.335 3.27766 17.0175 3.67197 16.6069 3.90711C16.5358 3.91654 16.4636 3.91654 16.3909 3.90822C16.3283 3.90101 16.2651 3.88715 16.203 3.86441C16.2002 3.8633 16.1974 3.8633 16.1951 3.86275H16.1946Z" fill="#F4F3EF"/>
<path d="M17.3988 2.80418C17.4653 2.30117 17.1348 1.72552 16.6334 1.56691C16.119 1.40386 15.5719 1.72385 15.2984 2.14367C15.2561 2.20856 15.2194 2.27677 15.1867 2.34665C15.1771 2.21632 15.1788 2.08544 15.1918 1.95622C15.2115 1.76212 15.2781 1.55803 15.2482 1.36226C15.2217 1.18757 15.0981 1.0334 14.9876 0.900297C14.903 0.798254 15.0226 0.6768 15.1309 0.687891C15.392 0.714511 15.6233 0.823764 15.8099 0.994021C15.9278 0.742795 15.7778 0.432783 15.6503 0.203186C15.6007 0.113343 15.665 -0.0253024 15.784 0.00464512C16.0361 0.0684222 16.277 0.181557 16.476 0.347932C16.6182 0.466058 16.7248 0.609141 16.8201 0.761096C16.9447 0.535381 17.1766 0.37788 17.4383 0.324085C17.52 0.307447 17.577 0.398399 17.5663 0.466058C17.5358 0.664044 17.5539 0.858703 17.6148 1.04671C17.8528 1.03395 18.0897 1.04393 18.3255 1.08165C18.4287 1.09828 18.4693 1.25468 18.3717 1.30792C18.0164 1.50202 17.9329 1.92239 17.8483 2.28176C17.7524 2.68661 17.6374 3.09645 17.3774 3.43197C17.1895 3.67488 16.9081 3.86732 16.6052 3.90836C17.0164 3.67266 17.3334 3.2789 17.396 2.80529L17.3988 2.80418Z" fill="#EAE9E5"/>
<path d="M6.56624 15.4001C6.64463 15.3075 6.72529 15.2293 6.80933 15.1583C7.25096 15.3014 7.62941 15.6075 7.79298 16.0651C7.91481 16.4061 7.87589 16.8154 7.71063 17.1543C7.70274 17.1814 7.69484 17.208 7.68581 17.2352C7.66156 17.3073 7.6328 17.3805 7.60347 17.4548C7.44667 17.5613 7.26788 17.6345 7.07893 17.6573C6.64915 17.7094 6.22613 17.5319 5.92664 17.2325C5.29099 16.5963 5.52788 15.516 6.2611 15.0635C6.3677 15.0657 6.47374 15.0796 6.57808 15.099C6.52337 15.1744 6.48163 15.2576 6.46076 15.3485C6.44723 15.4068 6.52788 15.445 6.56624 15.3996V15.4001Z" fill="#F4F3EF"/>
<path d="M5.92646 17.2332C6.22596 17.5327 6.64897 17.7102 7.07876 17.658C7.26714 17.6353 7.44593 17.5621 7.60329 17.4556C7.47695 17.7706 7.33087 18.1017 7.42732 18.4333C7.45552 18.5309 7.37769 18.6385 7.2677 18.6147C7.14926 18.5886 7.03476 18.5487 6.92929 18.4894C6.87176 18.4572 6.82382 18.4184 6.77813 18.3773C6.74542 18.5431 6.75388 18.7134 6.80126 18.8776C6.82664 18.9657 6.73752 19.0617 6.64559 19.014C6.28292 18.8249 5.98343 18.5675 5.70255 18.2792C5.57959 18.4383 5.41377 18.5587 5.21636 18.6225C5.11822 18.6541 5.03757 18.557 5.07592 18.4672C5.13966 18.3185 5.1577 18.1605 5.12894 18.0046C4.86441 18.0485 4.60271 18.0534 4.33367 18.0141C4.2141 17.9963 4.2079 17.8505 4.28629 17.7856C4.63881 17.4928 4.63881 16.9742 4.6828 16.56C4.73187 16.1008 4.85088 15.6116 5.26712 15.3393C5.56041 15.1474 5.91236 15.0581 6.26149 15.0648C5.52827 15.5173 5.29138 16.5977 5.92703 17.2338L5.92646 17.2332Z" fill="#EAE9E5"/>
<path d="M17.559 11.8272C17.4496 11.7418 17.3154 11.8943 17.4175 11.988C17.5015 12.0651 17.5748 12.1494 17.6544 12.2304C17.5353 12.3335 17.4034 12.4206 17.2618 12.4877C16.9623 12.6302 16.6228 12.6829 16.277 12.6003C15.92 12.5149 15.5917 12.2598 15.3932 11.9387C15.3746 11.9176 15.356 11.896 15.3379 11.8738C15.2894 11.8144 15.2426 11.7512 15.1958 11.6858C15.1907 11.4983 15.2257 11.3109 15.3092 11.1434C15.4987 10.7607 15.8805 10.5089 16.2996 10.4252C17.1885 10.2477 17.9804 11.0325 17.9663 11.8832C17.9245 11.9437 17.8783 12.0013 17.8292 12.0562C17.7429 11.9764 17.6527 11.8993 17.5596 11.8266L17.559 11.8272Z" fill="#F4F3EF"/>
<path d="M16.299 10.4252C15.8805 10.5089 15.4987 10.7607 15.3086 11.1434C15.2257 11.3114 15.1902 11.4983 15.1952 11.6858C14.9956 11.4101 14.7931 11.109 14.4575 11.0075C14.3588 10.9776 14.3092 10.8545 14.3898 10.7768C14.4761 10.6931 14.5731 10.621 14.6809 10.5661C14.7401 10.5361 14.7987 10.5178 14.8585 10.5028C14.735 10.3858 14.585 10.2999 14.4192 10.2494C14.33 10.2222 14.2973 10.0963 14.3876 10.047C14.5077 9.98154 14.6318 9.9283 14.757 9.88061C15.0057 9.78577 15.2624 9.71922 15.5275 9.66987C15.4586 9.48131 15.4468 9.27944 15.4998 9.08201C15.5263 8.98385 15.6532 8.96998 15.7091 9.05095C15.801 9.18461 15.9262 9.28554 16.0746 9.3471C16.1811 9.1053 16.3199 8.88679 16.5004 8.68659C16.5805 8.59786 16.7079 8.67217 16.7209 8.772C16.7784 9.22232 17.2206 9.5046 17.5495 9.76692C17.9144 10.0575 18.2663 10.4224 18.272 10.9138C18.2759 11.2599 18.1603 11.5987 17.964 11.8832C17.9776 11.0325 17.1857 10.2477 16.2973 10.4252H16.299Z" fill="#EAE9E5"/>
<path d="M38.5788 14.5336C38.1653 14.8724 37.5596 15.0027 37.0819 14.7055C36.8348 14.5519 36.6673 14.2735 36.5342 14.0245C36.3802 13.7355 36.3103 13.436 36.4361 13.1244C36.5359 12.877 36.6955 12.6397 36.8873 12.4278C37.0356 12.5093 37.1783 12.6053 37.3255 12.7129C37.3966 12.765 37.5365 12.7018 37.4863 12.6047C37.4073 12.4517 37.2888 12.3263 37.149 12.2243C37.383 12.1699 37.6244 12.1572 37.8529 12.2071C38.2691 12.298 38.5759 12.5992 38.7401 12.9696C38.7982 13.0639 38.8478 13.1626 38.8878 13.2608C38.9882 13.5076 39.0187 13.7549 39.0097 14.0078C38.9222 14.2158 38.7497 14.3938 38.5788 14.5336Z" fill="#F4F3EF"/>
<path d="M36.4369 13.1244C36.3112 13.4361 36.3805 13.7361 36.5351 14.0245C36.6676 14.2735 36.8357 14.5519 37.0827 14.7056C37.561 15.0028 38.1662 14.8725 38.5797 14.5336C38.7505 14.3933 38.9231 14.2153 39.0106 14.0079C39.0066 14.1271 38.9936 14.2475 38.975 14.3695C38.9327 14.6484 38.8622 15.1636 39.2305 15.2801C39.3862 15.3289 39.3879 15.5485 39.2119 15.5696C39.0207 15.5923 38.8385 15.5724 38.6637 15.5125C38.6428 15.6999 38.6231 15.8874 38.6033 16.0748C38.5943 16.1613 38.4809 16.2079 38.4076 16.1697C38.1803 16.051 37.9824 15.9062 37.8098 15.7271C37.7725 15.8042 37.7331 15.879 37.68 15.9517C37.5921 16.072 37.4855 16.1741 37.3687 16.2678C37.2779 16.341 37.164 16.2567 37.1482 16.1636C37.1222 16.011 37.0562 15.8646 36.9649 15.7376C36.7911 15.853 36.609 15.9301 36.3929 15.9606C36.2954 15.9744 36.2384 15.8646 36.2734 15.7859C36.512 15.2474 35.9931 14.6662 35.8408 14.1776C35.675 13.6457 35.8301 13.0806 36.2435 12.6985C36.3896 12.5638 36.5661 12.4501 36.7567 12.3613C36.8013 12.3818 36.8453 12.404 36.8882 12.4279C36.6964 12.6397 36.5368 12.8771 36.4369 13.1244Z" fill="#EAE9E5"/>
<path d="M41.803 8.26227C42.1832 8.98101 41.6812 9.96595 40.8036 9.88776C40.1301 9.82786 39.6468 9.34371 39.4082 8.75752C39.4922 8.74254 39.5763 8.72646 39.6603 8.71925C39.8758 8.70206 40.0986 8.73589 40.3106 8.69596C40.3507 8.68819 40.3744 8.62941 40.3276 8.61055C40.1279 8.52958 39.8983 8.53957 39.6857 8.53846C39.6045 8.53846 39.5244 8.53957 39.4437 8.54012C39.6011 8.18574 39.9739 7.97833 40.3185 7.83025C40.622 7.69993 40.9294 7.65279 41.239 7.69549C41.27 7.71656 41.3011 7.73819 41.3326 7.75816C41.5284 7.88294 41.6953 8.05763 41.8036 8.26172L41.803 8.26227Z" fill="#F4F3EF"/>
<path d="M40.8041 9.88751C41.6818 9.96571 42.1837 8.98077 41.8036 8.26203C41.6959 8.0585 41.5284 7.88325 41.3326 7.75847C41.3011 7.73795 41.27 7.71687 41.239 7.6958C41.3591 7.71244 41.4798 7.74239 41.6005 7.78675C42.0551 7.95424 42.4646 8.28532 42.9756 8.19659C43.1375 8.16831 43.2621 8.37184 43.1866 8.50494C43.0709 8.70847 42.9418 8.90091 42.7895 9.07782C42.8927 9.20094 42.9942 9.32406 43.0907 9.45272C43.1651 9.55254 43.107 9.68953 42.9982 9.73223C42.8498 9.78991 42.7043 9.85146 42.5628 9.92301C42.6429 10.1038 42.6981 10.2874 42.7258 10.487C42.7421 10.6029 42.5949 10.7033 42.4911 10.6423C42.3975 10.5874 42.3016 10.5591 42.2024 10.5608C42.292 10.8824 42.2779 11.2296 41.9192 11.3943C41.8273 11.4365 41.6998 11.3522 41.7009 11.254C41.7083 10.7504 41.1894 10.7366 40.812 10.6573C40.4217 10.5752 40.0337 10.4194 39.7596 10.1249C39.5791 9.93077 39.4567 9.67455 39.4302 9.41002C39.371 9.19706 39.3433 8.97467 39.3794 8.76282C39.389 8.76115 39.3986 8.76004 39.4082 8.75838C39.6468 9.34458 40.1301 9.82873 40.8036 9.88862L40.8041 9.88751Z" fill="#EAE9E5"/>
<path d="M35.0565 19.0482C35.0046 19.8568 34.0576 20.4452 33.3469 19.9327C32.7948 19.5346 32.6368 18.8618 32.7485 18.2318C32.8748 18.2479 33.0017 18.2723 33.1303 18.3006C33.2025 18.3167 33.2313 18.2296 33.1884 18.1841C33.1275 18.1198 33.057 18.0716 32.9826 18.0322C33.2905 17.868 33.6735 17.8813 34.0108 17.9252C34.339 17.9679 34.6273 18.0832 34.8698 18.2773C34.885 18.3111 34.9008 18.345 34.9172 18.3788C35.0192 18.5851 35.0706 18.8197 35.0559 19.0487L35.0565 19.0482Z" fill="#F4F3EF"/>
<path d="M33.3477 19.9327C34.0578 20.4451 35.0053 19.8567 35.0572 19.0481C35.0719 18.8191 35.0206 18.5839 34.9185 18.3782C34.9021 18.3449 34.8863 18.3105 34.8711 18.2767C34.9653 18.3521 35.0527 18.4386 35.1328 18.5379C35.4346 18.9122 35.6111 19.4036 36.0956 19.5872C36.249 19.6454 36.249 19.8828 36.1142 19.9582C35.9083 20.0735 35.6963 20.1728 35.4735 20.2471C35.4972 20.4046 35.5197 20.5616 35.5344 20.7207C35.5457 20.8444 35.4244 20.932 35.3082 20.9132C35.1509 20.8871 34.9941 20.866 34.8356 20.8555C34.8091 21.0507 34.76 21.2365 34.6793 21.4212C34.6325 21.5288 34.4537 21.5399 34.3968 21.435C34.3454 21.3402 34.2783 21.2676 34.192 21.2188C34.1001 21.5399 33.9055 21.8294 33.5118 21.7889C33.4109 21.7783 33.3454 21.6414 33.399 21.5576C33.6703 21.13 33.2326 20.8544 32.9512 20.5954C32.6602 20.327 32.4097 19.9965 32.3296 19.6049C32.2772 19.347 32.3071 19.0653 32.4227 18.8252C32.4859 18.6061 32.5823 18.3943 32.7323 18.229C32.738 18.2296 32.7436 18.2307 32.7493 18.2312C32.6376 18.8612 32.7955 19.5339 33.3477 19.9321V19.9327Z" fill="#EAE9E5"/>
<path d="M27.5055 18.6945C27.6189 17.9602 28.3465 17.5193 29.0532 17.5681C29.016 17.5986 28.9793 17.6291 28.9488 17.6613C28.809 17.8072 29.0289 18.0528 29.188 17.9242C29.2822 17.8482 29.3871 17.7689 29.4993 17.7007C29.858 18.2203 29.9488 18.9141 29.5755 19.4626C29.3713 19.7626 29.0143 19.9783 28.6398 20.051C28.6132 20.061 28.5862 20.071 28.5591 20.0798C28.4858 20.1042 28.4091 20.1259 28.3307 20.1469C28.1496 20.0876 27.9832 19.9905 27.8513 19.8558C27.5506 19.5491 27.4418 19.1099 27.5061 18.6945H27.5055Z" fill="#F4F3EF"/>
<path d="M27.5046 18.6946C27.4403 19.1099 27.5497 19.5492 27.8497 19.8559C27.9812 19.9906 28.1481 20.0871 28.3292 20.147C27.997 20.2363 27.6399 20.32 27.4279 20.5951C27.3658 20.6761 27.231 20.6794 27.1842 20.5785C27.134 20.4698 27.0985 20.3555 27.0832 20.2374C27.0748 20.1725 27.0776 20.1121 27.0838 20.0511C26.9298 20.1248 26.7956 20.2335 26.6907 20.3694C26.6343 20.442 26.5029 20.4293 26.4865 20.3289C26.4228 19.9302 26.4527 19.5403 26.5187 19.1465C26.3151 19.1449 26.1176 19.0872 25.9479 18.9696C25.8633 18.9114 25.8937 18.7894 25.9902 18.7655C26.1492 18.7262 26.2891 18.6458 26.3985 18.5298C26.2045 18.3479 26.0432 18.145 25.914 17.9098C25.8565 17.8056 25.9716 17.7129 26.0714 17.7357C26.5215 17.8372 26.9428 17.5261 27.3066 17.3125C27.7099 17.0757 28.1797 16.8761 28.6507 17.0397C28.8825 17.1201 29.0883 17.256 29.2626 17.4235C29.1853 17.4678 29.116 17.5172 29.0534 17.5688C28.3466 17.52 27.6191 17.9608 27.5057 18.6951L27.5046 18.6946Z" fill="#EAE9E5"/>
<path d="M17.461 20.1798C17.1068 20.0844 16.7858 19.8199 16.5969 19.4938C16.5788 19.4722 16.5608 19.45 16.5433 19.4278C16.4965 19.3674 16.4514 19.3025 16.4062 19.2359C16.4062 19.0485 16.4469 18.8621 16.5348 18.6969C16.7356 18.3197 17.1242 18.0785 17.5456 18.007C18.439 17.8545 19.2077 18.6608 19.1694 19.511C19.1564 19.5287 19.1406 19.5443 19.1276 19.5609C19.0724 19.5287 19.0171 19.496 18.963 19.4616C18.8609 19.3967 18.8078 19.3174 18.7334 19.2287C18.7182 19.2104 18.6866 19.1982 18.6651 19.216C18.4621 19.3851 18.708 19.6008 18.9415 19.7622C18.5523 20.1294 18.0092 20.3268 17.4604 20.1793L17.461 20.1798Z" fill="#F4F3EF"/>
<path d="M17.5452 18.0061C17.1244 18.0776 16.7352 18.3189 16.5344 18.696C16.4465 18.8613 16.4059 19.0476 16.4059 19.2351C16.2141 18.9539 16.0206 18.6472 15.6879 18.5363C15.5903 18.5036 15.544 18.3793 15.6269 18.3039C15.7161 18.2229 15.8148 18.1531 15.9242 18.1015C15.984 18.0732 16.0432 18.0566 16.1041 18.0433C15.984 17.9229 15.8368 17.8325 15.6726 17.7776C15.5846 17.7482 15.5553 17.6212 15.6472 17.5741C16.0116 17.3883 16.3974 17.2924 16.7978 17.2297C16.7347 17.0395 16.7285 16.837 16.7877 16.6413C16.817 16.5442 16.9445 16.5337 16.9975 16.6158C17.0855 16.7516 17.2073 16.8565 17.354 16.9219C17.4673 16.6834 17.6123 16.4682 17.7984 16.2736C17.8813 16.1871 18.0065 16.2653 18.0161 16.3651C18.0607 16.8171 18.4944 17.1116 18.8159 17.3828C19.1724 17.6839 19.5136 18.0582 19.5046 18.5496C19.4984 18.8957 19.3726 19.2312 19.169 19.5101C19.2073 18.66 18.4386 17.8536 17.5452 18.0061Z" fill="#EAE9E5"/>
<path d="M19.1084 44.3866C19.1135 44.3882 19.1185 44.3905 19.1231 44.3921C19.5303 44.5568 19.8168 44.9079 20.0012 45.2894C20.1851 45.6699 20.2528 46.1025 20.2894 46.519C20.1383 46.7696 19.9443 46.9926 19.6961 47.1684C19.4169 47.3658 19.0379 47.5643 18.6871 47.505C18.334 47.5433 17.9674 47.4778 17.6493 47.3248C17.1123 47.0663 16.7474 46.5716 16.6859 45.9838C16.6239 45.3865 16.8472 44.7698 17.3317 44.3916C17.4823 44.274 17.6465 44.1781 17.8185 44.1004C17.8506 44.0943 17.8833 44.0927 17.9161 44.0882C17.9206 44.2368 17.9499 44.3844 18.0142 44.5252C18.0531 44.6106 18.2088 44.594 18.1896 44.4892C18.1637 44.3489 18.1535 44.2091 18.1625 44.0732C18.3487 44.0755 18.5359 44.1049 18.7203 44.1736C18.8546 44.2241 18.9877 44.2956 19.1084 44.3855V44.3866Z" fill="#F4F3EF"/>
<path d="M19.6463 48.1194C19.6661 48.4272 19.8285 48.7117 20.0851 48.8997C20.1821 48.9707 20.1438 49.1338 20.0338 49.1687C19.4089 49.3673 18.6768 49.1759 18.2521 48.684C17.9503 49.0107 17.5301 49.2042 17.0687 49.1781C16.9345 49.1704 16.8476 49.0362 16.9385 48.9225C17.0439 48.7905 17.106 48.6413 17.1263 48.4821C16.8008 48.5875 16.4495 48.5981 16.1156 48.511C15.9824 48.476 15.9396 48.3075 16.0558 48.2248C16.4619 47.9364 16.3897 47.3863 16.375 46.9526C16.3288 46.8106 16.2898 46.667 16.2639 46.5189C16.1838 46.0586 16.2487 45.5623 16.4573 45.1419C16.7241 44.6056 17.2425 44.2113 17.8183 44.1021C17.6457 44.1797 17.4822 44.2751 17.3316 44.3932C16.8476 44.7714 16.6237 45.3887 16.6858 45.9854C16.7467 46.5733 17.1116 47.068 17.6491 47.3264C17.9672 47.4795 18.3333 47.5449 18.6869 47.5066C19.0377 47.566 19.4168 47.3674 19.6959 47.17C19.9441 46.9942 20.1381 46.7707 20.2893 46.5206C20.2893 46.5256 20.2904 46.5306 20.2904 46.5356C20.3096 46.7552 20.3051 46.9887 20.3908 47.1961C20.4376 47.3092 20.5516 47.4567 20.6886 47.4789C20.714 47.4828 20.7405 47.4839 20.7676 47.4784C20.8584 47.4584 20.9509 47.4745 21.0067 47.5549C21.0547 47.6237 21.0586 47.7418 20.9926 47.8022C20.9069 47.8804 20.8155 47.9442 20.7202 47.998C20.3919 48.1838 20.0146 48.2265 19.6458 48.1211L19.6463 48.1194Z" fill="#EAE9E5"/>
<path d="M29.3546 35.6261C29.0653 35.829 28.7133 35.9477 28.3597 35.9671C27.7624 35.9993 27.1984 35.7431 26.8532 35.2595C26.5024 34.7681 26.3912 34.1226 26.6259 33.5597C26.6992 33.3844 26.7945 33.2225 26.9062 33.0722C26.9722 33.0178 27.0427 32.9696 27.1166 32.9252C27.1989 32.9862 27.27 33.065 27.3332 33.1415C27.4161 33.2408 27.5881 33.167 27.543 33.0367C27.5103 32.943 27.4601 32.8626 27.4008 32.7916C27.5058 32.7533 27.614 32.7211 27.7297 32.7045C27.8718 32.684 28.0235 32.6829 28.173 32.7028C28.1781 32.7023 28.1837 32.7012 28.1888 32.7006C28.6259 32.6491 29.05 32.8176 29.4009 33.0622C29.75 33.3062 30.0241 33.6506 30.2632 33.9967C30.2553 34.2878 30.1978 34.5757 30.0681 34.8485C29.9226 35.1552 29.6908 35.5101 29.3546 35.6266V35.6261Z" fill="#F4F3EF"/>
<path d="M31.3561 36.4308C31.0623 36.7419 30.6449 36.9249 30.2191 36.9521C29.9963 36.9665 29.7718 36.9404 29.5609 36.8633C29.4593 37.2931 29.1892 37.6641 28.7735 37.8627C28.6528 37.9204 28.5101 37.8449 28.5326 37.7024C28.5592 37.5366 28.5389 37.3763 28.4779 37.2283C28.2467 37.4767 27.9449 37.6542 27.6099 37.739C27.4762 37.7728 27.355 37.6459 27.4159 37.5177C27.6274 37.0713 27.2907 36.6254 27.0628 36.2538C26.9517 36.1524 26.8468 36.0453 26.7503 35.9289C26.4514 35.5656 26.2619 35.1014 26.2354 34.6339C26.2016 34.0377 26.4582 33.4449 26.9066 33.0728C26.7949 33.2236 26.6996 33.3855 26.6263 33.5602C26.3916 34.1226 26.5027 34.7687 26.8536 35.26C27.1987 35.7436 27.7628 36.0004 28.3601 35.9677C28.7137 35.9488 29.0656 35.8296 29.355 35.6266C29.6906 35.5096 29.923 35.1552 30.0685 34.8485C30.1982 34.5757 30.2557 34.2878 30.2636 33.9967C30.2664 34.0006 30.2693 34.005 30.2721 34.0089C30.3979 34.1913 30.5095 34.3971 30.6878 34.5369C30.8028 34.6273 31.0256 34.7171 31.1565 34.6023C31.2258 34.5413 31.3144 34.5108 31.4029 34.554C31.4785 34.5912 31.5411 34.6921 31.5135 34.777C31.3539 35.2634 30.9794 35.5922 30.4971 35.702C30.6071 35.8695 30.7667 35.9949 30.95 36.0769C31.0504 36.1219 31.1553 36.1579 31.2676 36.1723C31.3877 36.1878 31.4345 36.3487 31.3561 36.4319V36.4308Z" fill="#EAE9E5"/>
<path d="M20.0387 6.86839C20.2756 6.94104 20.4922 7.08357 20.6524 7.2688C20.9231 7.58214 21.0162 7.99918 20.8881 8.39238C20.7578 8.79168 20.4392 9.12554 20.0218 9.2348C19.9259 9.25975 19.8289 9.27251 19.7313 9.27972C19.7855 9.13996 19.8278 8.99632 19.8402 8.84603C19.8464 8.77394 19.7443 8.72624 19.7093 8.80222C19.6405 8.95196 19.5661 9.09948 19.4922 9.24755C19.3388 9.19431 19.1944 9.11057 19.0709 8.99133C18.9992 8.92201 18.9344 8.83938 18.8825 8.74898C18.8797 8.74621 18.8774 8.74399 18.8746 8.74122C18.6608 8.52382 18.5768 8.22046 18.5672 7.92487C18.5576 7.63039 18.6371 7.33479 18.7319 7.05806C18.9 6.93938 19.0878 6.84953 19.2965 6.80517C19.5317 6.75525 19.8306 6.73252 20.0387 6.86673V6.86839Z" fill="#F4F3EF"/>
<path d="M20.0205 9.23571C20.4379 9.12646 20.7571 8.7926 20.8869 8.3933C21.0149 8.0001 20.9218 7.58306 20.6511 7.26972C20.4909 7.08449 20.2749 6.94196 20.0374 6.86931C19.8293 6.73454 19.5304 6.75784 19.2952 6.80775C19.0859 6.85212 18.8987 6.94196 18.7306 7.06064C18.7317 7.05731 18.7329 7.05398 18.734 7.05066C18.7842 6.9048 18.8536 6.75673 18.8575 6.59978C18.8598 6.49885 18.8169 6.33857 18.6962 6.31583C18.6325 6.30363 18.5778 6.26814 18.5648 6.20103C18.5535 6.14391 18.5845 6.06683 18.6443 6.04631C18.9872 5.92818 19.3313 5.99418 19.5975 6.21213C19.6725 6.0097 19.6494 5.78232 19.5383 5.5921C19.496 5.52001 19.5676 5.42628 19.6477 5.43405C20.1046 5.47897 20.5191 5.80229 20.6511 6.23431C20.9376 6.10842 21.2614 6.09955 21.5496 6.24318C21.6331 6.28478 21.6505 6.39514 21.5603 6.44283C21.4554 6.49829 21.373 6.57704 21.3149 6.67299C21.5535 6.69461 21.7814 6.78501 21.9709 6.93253C22.0465 6.99132 22.0256 7.11111 21.9275 7.13218C21.5851 7.20539 21.4751 7.57751 21.3612 7.85924C21.3505 7.96295 21.3347 8.06554 21.3087 8.16759C21.2292 8.48481 21.0465 8.78484 20.7932 8.99669C20.4949 9.2457 20.095 9.35661 19.7205 9.30337C19.7233 9.29561 19.7267 9.2884 19.7295 9.28064C19.8271 9.27343 19.9241 9.26067 20.02 9.23571H20.0205Z" fill="#EAE9E5"/>
<path d="M23.0971 59.5393C23.1225 58.9465 23.1546 58.3536 23.1839 57.7608C23.2482 56.4498 23.321 55.1393 23.4033 53.8294C23.4282 53.435 23.449 53.0402 23.4755 52.6459C23.5066 52.18 23.5393 51.7142 23.5725 51.2483C23.6019 50.8335 23.6329 50.4192 23.6639 50.0049C23.7316 49.0999 23.8038 48.1953 23.8811 47.2908C23.9713 46.2321 24.0689 45.1734 24.1755 44.1164C24.1868 44.0055 24.1992 43.8951 24.2105 43.7842C24.2381 43.5152 24.2663 43.2468 24.2951 42.9778C24.3052 42.8813 24.3148 42.7848 24.3255 42.6883C24.3379 42.5752 24.3509 42.4626 24.3633 42.35C24.3672 42.314 24.3718 42.2779 24.3757 42.2413C24.3943 42.0761 24.4135 41.9114 24.4327 41.7467C24.5156 41.0235 24.603 40.3014 24.6961 39.5799C24.7096 39.4767 24.7215 39.3736 24.735 39.271C25.048 36.8924 25.4304 34.5204 25.9155 32.169C26.1546 31.0094 26.4203 29.8553 26.7158 28.7079C26.9042 27.9758 27.1022 27.2465 27.3165 26.5211C27.3278 26.484 27.3374 26.4463 27.3481 26.4091C27.378 26.3082 27.4107 26.2072 27.4417 26.1063C27.4846 25.966 27.528 25.8257 27.5714 25.6854C28.3537 23.1848 29.3148 20.7302 30.4778 18.3749C30.457 18.3627 30.4423 18.3421 30.4434 18.3139C30.4496 18.0721 30.5179 17.6062 30.1868 17.538C29.9426 17.4875 29.708 17.5746 29.4998 17.701C29.3876 17.7693 29.2827 17.8486 29.1885 17.9245C29.03 18.0532 28.8095 17.8075 28.9493 17.6617C28.9798 17.6295 29.0165 17.599 29.0537 17.5685C29.1163 17.5169 29.1862 17.4681 29.2629 17.4232C29.6053 17.2252 30.0599 17.116 30.3853 17.2718C30.6482 17.3971 30.7254 17.6533 30.708 17.914C30.8856 17.5646 31.0689 17.218 31.2551 16.873C31.4733 16.4699 31.6967 16.0695 31.9274 15.6735C31.9561 15.6241 31.9872 15.5753 32.0165 15.526C32.4942 14.7124 32.9996 13.9116 33.5331 13.1279C35.1045 10.8198 36.9201 8.66355 39.0177 6.81125C39.3504 6.51732 39.6905 6.23115 40.0363 5.95164C40.1034 5.89785 40.2027 6.00544 40.1384 6.06367C38.9071 7.17117 37.7526 8.35576 36.6815 9.60745C36.9675 9.3712 37.2731 9.15991 37.6037 8.98909C38.0098 8.77946 38.4587 8.60699 38.9178 8.56373C39.0938 8.54709 39.2687 8.5421 39.4446 8.54044C39.5253 8.53933 39.6054 8.53822 39.6866 8.53877C39.8992 8.53988 40.1288 8.5299 40.3284 8.61087C40.3753 8.62972 40.3516 8.68906 40.3115 8.69627C40.0995 8.7362 39.8767 8.70182 39.6612 8.71957C39.5772 8.72622 39.4931 8.74286 39.4091 8.75783C39.3995 8.7595 39.3899 8.76061 39.3803 8.76227C39.232 8.79 39.0853 8.82494 38.9438 8.8693C38.5072 9.00629 38.0927 9.15436 37.6888 9.37065C37.0599 9.70783 36.4418 10.1049 35.8902 10.5647C35.4175 11.1547 34.9641 11.7598 34.5275 12.377C34.6781 12.2672 34.8383 12.1696 35.0092 12.0909C35.4474 11.8885 35.9381 11.8175 36.4147 11.9145C36.6691 11.9661 36.9353 12.0665 37.1513 12.2245C37.2912 12.3266 37.4096 12.4519 37.4886 12.605C37.5382 12.7015 37.3989 12.7653 37.3279 12.7131C37.1812 12.6055 37.038 12.5096 36.8896 12.4281C36.8468 12.4042 36.8022 12.382 36.7582 12.3615C36.5969 12.2872 36.4266 12.2317 36.2291 12.2118C35.7853 12.168 35.3448 12.2977 34.9539 12.4974C34.5484 12.7042 34.2015 13.0037 33.9076 13.3448C33.8823 13.3742 33.8603 13.4052 33.836 13.4352C33.7779 13.5067 33.7193 13.5783 33.664 13.652C33.4226 14.0247 33.1874 14.4013 32.9595 14.7817C32.7728 15.0934 32.5901 15.4067 32.4119 15.7228C32.1112 16.2547 31.8247 16.7943 31.5467 17.3372C31.3267 17.767 31.1112 18.1991 30.9054 18.6355C31.2088 18.3316 31.5912 18.0676 32.0154 17.9661C32.3284 17.8913 32.6978 17.8796 32.9855 18.0327C33.0599 18.0726 33.1304 18.1209 33.1913 18.1846C33.2342 18.2301 33.2054 18.3172 33.1332 18.3011C33.0041 18.2723 32.8772 18.2484 32.7514 18.2323C32.7458 18.2318 32.7401 18.2307 32.7345 18.2301C32.4767 18.1991 32.2223 18.2063 31.9618 18.3022C31.5641 18.4481 31.2178 18.7098 30.9155 18.9988C30.7976 19.1113 30.6843 19.2284 30.576 19.3493C29.8117 21.0407 29.1524 22.7777 28.5799 24.5407C28.8828 24.361 29.2505 24.3438 29.5794 24.4597C29.5906 24.4636 29.6025 24.4664 29.6138 24.4703C29.7655 24.5285 29.9082 24.6128 30.03 24.7265C30.0954 24.7875 30.0266 24.8829 29.9454 24.8518C29.7937 24.7936 29.6312 24.737 29.466 24.7004C29.4316 24.6927 29.3972 24.6849 29.3628 24.6794C29.2849 24.6672 29.2065 24.6605 29.1287 24.6633C28.8207 24.676 28.5934 24.8529 28.4288 25.097C28.4045 25.133 28.3853 25.1724 28.3622 25.2095C28.3577 25.2251 28.352 25.24 28.3475 25.2556C27.6025 27.6636 27.0012 30.1082 26.5111 32.575C26.8326 32.4385 27.1907 32.5367 27.4039 32.7901C27.4632 32.8611 27.5139 32.9415 27.5461 33.0353C27.5912 33.1656 27.4192 33.2399 27.3362 33.1401C27.2725 33.0641 27.2014 32.9853 27.1197 32.9238C27.0497 32.8717 26.9725 32.8317 26.8816 32.8229C26.7068 32.8051 26.5415 32.9088 26.427 33.0292C26.4248 33.0314 26.4231 33.0336 26.4208 33.0358C26.105 34.6729 25.8371 36.3195 25.607 37.9722C25.5376 38.4718 25.4716 38.9721 25.4073 39.4729C25.2945 40.3519 25.1913 41.232 25.0931 42.1127C25.0638 42.3783 25.0328 42.6445 25.0046 42.9102C24.8427 44.4308 24.7006 45.9537 24.572 47.4772C24.5083 48.2275 24.4479 48.9779 24.3904 49.7288C24.3537 50.204 24.3182 50.6799 24.2838 51.1552C24.2776 51.2383 24.2731 51.3221 24.2674 51.4053C24.1022 53.7151 23.9696 56.0266 23.8647 58.3398C23.8602 58.4407 23.8562 58.5416 23.8517 58.6426C23.7728 60.4278 23.7073 62.2135 23.6634 63.9999H22.9414C22.9527 63.6566 22.9651 63.3138 22.9752 62.9717C23.0091 61.8276 23.0508 60.6834 23.0988 59.5393H23.0971Z" fill="#8BAF3C"/>
<path d="M32.1833 25.3715C32.0801 25.8568 31.7586 26.2622 31.3316 26.5189C30.9701 26.7363 30.4534 26.8317 30.0755 26.5977C29.8426 26.4535 29.6559 26.2062 29.5098 25.9816C29.3643 25.7581 29.2791 25.5063 29.3 25.239C29.3152 25.0426 29.3767 24.8646 29.4641 24.6999C29.6294 24.736 29.7924 24.7925 29.9435 24.8513C30.0248 24.8824 30.0936 24.787 30.0282 24.726C29.9063 24.6128 29.7636 24.528 29.6119 24.4698C29.6407 24.432 29.6677 24.3932 29.6988 24.3572C29.7095 24.3494 29.7208 24.3411 29.7315 24.3339C30.2103 24.0078 30.9193 24.0133 31.0141 24.0255C31.3745 24.071 31.7101 24.2335 32.0028 24.4431C32.1776 24.7154 32.251 25.051 32.1827 25.371L32.1833 25.3715Z" fill="#F4F3EF"/>
<path d="M29.299 25.2391C29.2781 25.5064 29.3633 25.7582 29.5088 25.9817C29.6549 26.2063 29.8415 26.4537 30.0745 26.5978C30.4524 26.8319 30.969 26.7365 31.3306 26.5191C31.7575 26.2623 32.079 25.8575 32.1822 25.3717C32.2505 25.0517 32.1772 24.7161 32.0023 24.4438C32.0593 24.4843 32.1145 24.527 32.1681 24.5703C32.4671 24.8149 32.8664 25.2713 33.2996 25.0478C33.4253 24.9829 33.5308 25.1232 33.5252 25.2308C33.5071 25.578 33.2725 25.8614 32.9594 25.9856C33.1416 26.1353 33.3616 26.2474 33.5855 26.3128C33.656 26.3333 33.7276 26.3954 33.7062 26.4781C33.6244 26.7964 33.3768 27.0393 33.0559 27.1325C32.828 27.199 32.6086 27.1896 32.3932 27.1413C32.5376 27.4946 32.4885 27.9144 32.2183 28.2145C32.158 28.2816 32.0277 28.276 31.9984 28.179C31.9228 27.9277 31.7316 27.7103 31.4857 27.6089C31.4434 27.9466 31.2065 28.2372 30.8788 28.3675C30.806 28.3964 30.7056 28.3548 30.6831 28.2788C30.6481 28.1623 30.5996 28.0575 30.5353 27.961C30.326 28.2194 30.0153 28.3869 29.6701 28.3997C29.537 28.4047 29.4563 28.2622 29.5364 28.1557C29.7964 27.8102 29.6205 27.3338 29.427 26.9999C29.1828 26.5795 28.8793 26.1581 28.8951 25.6517C28.9008 25.4671 29.0638 25.0367 29.3599 24.6784C29.3943 24.684 29.4287 24.6917 29.4631 24.6995C29.3757 24.8642 29.3142 25.0422 29.299 25.2386V25.2391Z" fill="#EAE9E5"/>
<path d="M29.5781 24.4594C29.6176 24.4245 29.6565 24.3884 29.7 24.3579C29.6684 24.394 29.6413 24.4328 29.6131 24.4705C29.6018 24.4661 29.59 24.4638 29.5787 24.46L29.5781 24.4594Z" fill="#EAE9E5"/>
<path d="M3.32652 12.8942C3.50136 12.8797 3.68129 12.8814 3.8629 12.8892C4.22444 12.9047 4.59105 12.9541 4.93285 13.0173C5.31582 13.0883 5.73714 13.1837 6.0857 13.3805C7.48504 13.8464 8.78454 14.5291 9.94473 15.3964C10.3209 15.6776 10.6836 15.976 11.0293 16.2949C11.0575 16.3209 11.084 16.3487 11.1117 16.3747C11.6656 16.8949 12.1777 17.4628 12.6413 18.074C12.7891 18.2686 12.9335 18.4666 13.0711 18.6696C13.2036 18.8648 13.3328 19.0622 13.4597 19.2619C13.9904 20.0971 14.4721 20.9672 14.9233 21.8501C14.9713 21.9444 15.0186 22.0392 15.066 22.1335C15.2663 22.5323 15.4608 22.9327 15.6509 23.3342C15.7079 23.4545 15.7654 23.5749 15.8212 23.6952C15.947 23.9642 16.0655 24.2371 16.1862 24.5082C16.3418 24.8587 16.4936 25.2109 16.6408 25.5653C17.0395 26.5219 17.4078 27.4902 17.7479 28.4685C17.784 28.5717 17.8213 28.6743 17.8562 28.778C17.8827 28.8562 17.9115 28.9333 17.938 29.0109C18.1123 29.5305 18.2764 30.053 18.4355 30.577C18.5003 30.7911 18.5624 31.0063 18.6244 31.2209C19.1602 33.0632 19.6053 34.93 19.969 36.8128C20.0728 37.3507 20.171 37.8892 20.2623 38.4294C20.361 39.0139 20.4547 39.5996 20.5381 40.1863C20.5788 40.4697 20.6137 40.7536 20.6509 41.0376C20.5776 41.0864 20.5105 41.1419 20.4535 41.2062C20.3142 41.3626 20.2274 41.5606 20.1794 41.7685C19.9516 39.8874 19.6605 38.0118 19.2934 36.1506C19.2042 35.9809 19.0982 35.8234 18.96 35.687C18.7536 35.4829 18.4439 35.2904 18.1394 35.3243C18.0068 35.3392 17.8935 35.3964 17.7897 35.4773C17.7795 35.4851 17.7716 35.4945 17.762 35.5029C17.6645 35.5883 17.6036 35.6909 17.5122 35.7807C17.4541 35.8378 17.3729 35.8184 17.3385 35.7485C17.2578 35.5838 17.3136 35.4158 17.4242 35.2755C17.4287 35.2699 17.4338 35.2655 17.4383 35.2599C17.5483 35.1268 17.7045 35.0198 17.8365 34.9682C18.2104 34.8218 18.6272 34.9183 18.9414 35.1501C19.0085 35.2 19.0672 35.2599 19.1247 35.3204C18.8111 33.8269 18.449 32.3439 18.0266 30.8776C17.8292 30.1922 17.6148 29.51 17.3915 28.8312C17.1546 28.5334 16.9735 28.1796 16.7395 27.8873C16.6244 27.7437 16.4428 27.5451 16.2352 27.5823C16.1224 27.6023 16.044 27.6877 15.969 27.7664C15.9482 27.788 15.9239 27.8097 15.9008 27.8307C15.8404 27.8862 15.7784 27.9417 15.7344 28.006C15.6904 28.0698 15.5714 28.0127 15.5951 27.9389C15.6255 27.8452 15.6481 27.7581 15.678 27.6771C15.7259 27.5468 15.7925 27.4331 15.9408 27.3361C16.1659 27.1891 16.449 27.2002 16.6656 27.3549C16.8218 27.4669 16.9352 27.6267 17.0384 27.7908C16.7474 26.9628 16.4372 26.1415 16.1027 25.329C15.9019 24.841 15.6915 24.3574 15.4744 23.8766C14.9397 22.6925 14.3576 21.5296 13.7152 20.3993C13.6407 20.2679 13.5635 20.1387 13.4868 20.0089C13.3858 19.8997 13.2933 19.7826 13.1856 19.6778C13.1563 19.6495 13.1275 19.6201 13.0948 19.5941C13.031 19.5436 12.9622 19.5015 12.8906 19.4632C12.7129 19.3689 12.5144 19.3118 12.3114 19.304C12.0429 19.2935 11.7688 19.38 11.5843 19.578C11.4405 19.7322 11.3875 19.9019 11.3615 20.0893C11.3531 20.1509 11.3469 20.2141 11.3418 20.2795C11.3333 20.3799 11.1969 20.3633 11.1624 20.2923C11.1557 20.2779 11.1517 20.2629 11.1467 20.2485C11.1359 20.2202 11.1269 20.1925 11.1213 20.1631C11.0716 19.9235 11.1726 19.6567 11.3142 19.4665C11.5121 19.2009 11.8246 19.0467 12.1546 19.014C12.2313 19.0062 12.3068 19.0073 12.3824 19.0129C12.5951 19.0284 12.7987 19.0961 12.9854 19.1992C12.7558 18.8471 12.5161 18.5027 12.2623 18.1688C11.8404 17.6137 11.3807 17.0874 10.8759 16.5977C10.7846 16.5089 10.6904 16.423 10.5962 16.337C10.4794 16.2505 10.3638 16.1629 10.2482 16.0753C10.1822 16.0259 10.1162 15.976 10.0491 15.9283C9.97462 15.8756 9.89791 15.8257 9.82008 15.7769C9.80598 15.768 9.79244 15.758 9.77834 15.7492C9.41398 15.5273 9.03609 15.3266 8.65143 15.1413C8.28707 14.9661 7.89 14.8297 7.4777 14.8707C7.20077 14.8984 6.99378 15.0021 6.80878 15.158C6.72474 15.229 6.64352 15.3072 6.56568 15.3998C6.52733 15.4452 6.44668 15.407 6.46021 15.3487C6.48108 15.2572 6.52282 15.1746 6.57753 15.0992C6.72925 14.8901 6.98588 14.7431 7.2239 14.6694C7.64409 14.5391 8.075 14.6095 8.47884 14.7603C8.5155 14.7742 8.55047 14.7925 8.58657 14.8075C7.82965 14.3294 7.02874 13.9207 6.18948 13.6013C6.18666 13.6001 6.18384 13.5996 6.18159 13.5985C5.74052 13.4609 5.31638 13.2957 4.8567 13.2108C4.53127 13.1504 4.19849 13.1232 3.86911 13.0822C3.68467 13.0594 3.5008 13.0334 3.32031 12.9923C3.2656 12.9796 3.26899 12.8992 3.32652 12.8942Z" fill="#8BAF3C"/>
<path d="M22.6628 20.1726C22.5038 20.2636 22.3278 20.2098 22.1569 20.156C22.0864 20.1338 22.017 20.1116 21.9499 20.0994C21.651 20.0445 21.4203 20.1942 21.2759 20.446C21.1219 20.715 21.0999 21.005 21.1124 21.3084C21.1248 21.6245 21.2144 22.0055 21.1225 22.3133C21.268 23.4147 21.4 24.5178 21.5179 25.6225C21.7322 27.6284 21.9099 29.6366 22.0639 31.6475C21.7508 31.5443 21.726 31.0796 21.7181 30.8173C21.7142 30.6942 21.7051 30.5733 21.6882 30.4551C21.6516 30.2045 21.5771 29.966 21.4338 29.7408C21.3791 29.6549 21.3154 29.5711 21.2455 29.4918C21.1913 28.7465 21.1377 28.0011 21.0774 27.2563C20.9341 25.4839 20.7638 23.7136 20.5534 21.9478C20.4462 21.6672 20.3261 21.3905 20.1851 21.1204C19.951 20.6717 19.6329 20.2763 19.2342 19.958C19.1845 19.9186 19.065 19.8487 18.9426 19.7639C18.7085 19.6025 18.4632 19.3868 18.6662 19.2176C18.6876 19.1999 18.7187 19.2115 18.7344 19.2304C18.8083 19.3191 18.8619 19.3984 18.964 19.4633C19.0181 19.4977 19.0734 19.5299 19.1287 19.5626C19.1693 19.5864 19.2099 19.6092 19.2488 19.6347C19.4395 19.7589 19.6177 19.8987 19.7801 20.0567C20.0373 20.3063 20.246 20.5886 20.4226 20.8936C20.215 19.2842 19.9702 17.6792 19.6747 16.082C19.5686 15.7282 19.4603 15.3749 19.3374 15.0261C19.246 14.766 19.1467 14.5081 19.0322 14.2541C18.6916 13.496 18.2342 12.8222 17.6549 12.2315C17.5759 12.1511 17.5021 12.0668 17.418 11.9892C17.3159 11.8955 17.4502 11.743 17.5596 11.8284C17.6527 11.901 17.7423 11.9775 17.8292 12.058C18.4327 12.617 18.876 13.3463 19.2054 14.085C19.2618 14.212 19.3092 14.344 19.3605 14.4737C18.6628 11.1007 17.7316 7.75828 16.4795 4.54613C16.3904 4.3182 16.2956 4.09248 16.2031 3.86621C16.2657 3.88839 16.3283 3.90281 16.3909 3.91002C17.4231 6.27033 18.2686 8.69663 18.9527 11.1717C18.9538 11.1451 18.9538 11.1179 18.9555 11.0913C18.9798 10.7142 19.0452 10.341 19.1676 9.98271C19.2539 9.73093 19.3712 9.49024 19.4908 9.25121C19.5647 9.10314 19.6391 8.95507 19.7079 8.80588C19.7429 8.7299 19.8444 8.77704 19.8388 8.8497C19.8264 8.99999 19.7841 9.14307 19.7299 9.28338C19.7271 9.29114 19.7237 9.29835 19.7209 9.30612C19.638 9.51464 19.5303 9.71595 19.4513 9.92281C19.303 10.3138 19.2297 10.7297 19.2082 11.1457C19.1885 11.5161 19.2105 11.8844 19.2387 12.2537C19.4006 12.8837 19.5557 13.516 19.6984 14.1515C19.7333 14.3079 19.7649 14.4648 19.7993 14.6218C19.7012 14.9451 19.7164 15.2945 19.8963 15.599C19.9398 15.6722 19.9922 15.7398 20.0486 15.8042C20.0802 15.9611 20.1101 16.1181 20.1411 16.275C20.2144 16.6499 20.2861 17.0248 20.3549 17.4003C20.3966 17.2211 20.4479 17.0448 20.5094 16.8717C20.5365 16.7947 20.5596 16.7159 20.5912 16.6405C20.6414 16.5207 20.7006 16.4048 20.7598 16.2894C20.7801 16.2501 20.7959 16.2085 20.8174 16.1696C20.8224 16.1602 20.8281 16.1502 20.8332 16.1408C20.8958 16.0254 20.9635 15.9073 21.0943 15.8641C21.14 15.8491 21.18 15.8796 21.1868 15.924C21.1964 15.9866 21.1829 16.0454 21.1614 16.1025C21.1366 16.1674 21.0999 16.2295 21.0678 16.2911C21.0537 16.3183 21.043 16.3477 21.0294 16.3754C20.9713 16.4935 20.9144 16.6122 20.8653 16.7348C20.8038 16.8884 20.7503 17.0448 20.7034 17.2034C20.6583 17.3553 20.62 17.509 20.5889 17.6648C20.5495 17.8667 20.5269 18.0719 20.5111 18.2787C20.6386 19.018 20.7553 19.7589 20.8659 20.5009C20.907 20.3806 20.9606 20.2641 21.0368 20.1565C21.2009 19.9258 21.4564 19.745 21.7503 19.7362C21.8856 19.7317 22.0148 19.7639 22.1417 19.806C22.1659 19.8138 22.1902 19.8216 22.2139 19.8304C22.294 19.8593 22.3848 19.887 22.4711 19.9214C22.5444 19.9513 22.6149 19.9857 22.6702 20.0334C22.7119 20.0695 22.7142 20.1466 22.6623 20.1765L22.6628 20.1726Z" fill="#82A02E"/>
</g>
<defs>
<clipPath id="clip0_1152_212741">
<rect width="45" height="64" fill="white"/>
</clipPath>
</defs>
</svg>
