<svg width="143" height="137" viewBox="0 0 143 137" fill="none" xmlns="http://www.w3.org/2000/svg">
<g clip-path="url(#clip0_68_193156)">
<path d="M138.304 65.9288C142.103 64.0876 143.896 58.9639 142.076 55.1513C140.8 52.4788 137.907 50.791 134.977 50.6385C136.03 49.9588 136.874 48.9117 137.248 47.7131C138.01 45.2777 137.092 42.527 135.36 40.6533C132.04 37.0602 125.288 35.5277 121.667 38.8177C122.904 36.0717 124.159 33.2652 124.465 30.2673C124.77 27.2702 123.968 23.9942 121.678 22.0386C119.389 20.083 115.465 20.0161 113.604 22.3836C115.32 19.0313 112.936 14.6589 109.452 13.2371C105.968 11.8153 101.939 12.7033 98.5555 14.3511C100.675 10.8119 98.8425 5.60915 95.0409 4.01344C91.2393 2.41774 86.3751 4.58719 84.8379 8.41651C85.4249 4.39377 82.0459 0.244565 77.9917 0.0102309C73.9374 -0.224103 70.1042 3.50944 70.2259 7.57309C66.0323 5.49198 62.1778 1.40508 57.4994 1.54828C52.2869 1.70729 48.6636 8.56529 51.464 12.9693C47.002 10.1024 40.9582 9.10928 36.4108 11.8376C31.8633 14.5659 30.1097 21.6536 33.8389 25.4271C30.1942 25.3546 26.2932 25.4857 23.3127 27.5873C20.3321 29.6889 19.0142 34.489 21.6408 37.0192C17.1677 37.5418 12.6453 38.8223 9.13999 41.6511C5.63374 44.4807 3.32936 49.0875 4.14114 53.5221C4.95292 57.9568 9.44928 61.669 13.8658 60.7921C9.89232 61.974 8.00591 67.3209 8.97652 71.3548C9.94805 75.3887 14.3627 78.2528 18.4364 77.4931C17.5392 78.8107 16.6188 80.186 16.3689 81.7613C16.1191 83.3365 16.7469 85.1722 18.2107 85.8017C19.7934 86.4824 22.448 86.1699 22.5046 87.893C19.329 90.1713 16.9559 93.5496 15.8878 97.312C15.1438 99.9324 15.0649 102.898 16.4581 105.237C18.1996 108.161 21.8907 109.45 25.2855 109.263C28.6803 109.076 31.8744 107.675 34.9813 106.294C31.2252 107.874 29.375 112.637 30.5453 116.544C31.7156 120.451 35.4244 123.294 39.4285 124.042C43.4335 124.79 47.6298 123.653 51.1203 121.55C50.7748 124.958 52.0575 126.731 54.1185 129.465C56.1795 132.199 59.8632 133.825 63.1493 132.873C66.4354 131.921 68.75 128.035 67.4952 124.848C70.8287 129.512 79.1713 128.92 81.8128 123.831C83.3314 127.119 87.1209 129.193 90.7052 128.697C94.2895 128.201 97.3759 125.176 97.9471 121.599C97.6351 124.651 100.549 127.183 103.526 127.907C108.676 129.158 114.262 126.561 117.498 122.361C120.734 118.16 121.882 112.647 121.727 107.345C125.202 111.792 132.356 112.211 135.315 107.404C137.774 103.408 135.987 97.6765 132.138 95.2169C133.338 95.2392 134.592 94.7845 135.484 93.9634C137.096 92.4793 137.696 90.1704 137.741 87.9786C137.776 86.2257 137.49 84.4338 136.661 82.892C138.442 81.5428 139.751 79.5751 139.973 77.3359C140.467 72.3526 136.244 67.7459 131.346 66.8141C133.743 66.9982 136.168 66.962 138.303 65.927L138.304 65.9288Z" fill="#8F9B18"/>
<g style="mix-blend-mode:overlay" opacity="0.2">
<path d="M110.263 62.6696C110.042 62.4129 109.817 62.16 109.585 61.9136C109.787 62.1888 110.016 62.438 110.263 62.6696Z" fill="#002854"/>
</g>
<g style="mix-blend-mode:overlay" opacity="0.2">
<path d="M138.304 65.9289C142.103 64.0877 143.896 58.9639 142.076 55.1514C140.799 52.4788 137.907 50.7911 134.977 50.6386C136.03 49.9588 136.873 48.9117 137.248 47.7131C137.94 45.5018 137.244 43.0329 135.814 41.1945C134.357 44.7895 130.42 47.5355 126.913 46.0328C129.2 47.9102 129.632 51.6633 127.831 54.0132C126.03 56.3621 122.298 56.9154 119.895 55.1885C121.449 57.8899 120.527 61.735 117.918 63.4367C115.594 64.9525 112.263 64.5508 110.261 62.6696C113.312 66.2255 115.299 70.8136 115.026 75.4771C114.732 80.478 111.483 85.4046 106.701 86.8776C101.919 88.3515 96.0104 85.5943 94.7426 80.7477C95.3546 83.3003 95.1001 86.2527 93.2983 88.159C91.4964 90.0653 87.8991 90.2373 86.4585 88.0437C86.908 91.6015 84.4848 95.3053 81.0473 96.3142C77.6097 97.3232 73.5722 95.5154 72.0322 92.2775C73.2053 99.6163 67.8034 107.758 60.4036 108.363C53.0047 108.967 46.1482 100.36 49.3117 93.6361C44.937 95.2253 39.6614 90.7916 40.4657 86.2025C37.2326 89.0852 31.5789 86.5698 30.0649 82.5089C28.551 78.4481 30.0101 73.8851 32.0284 70.0502C29.0544 72.2308 25.0029 73.5977 21.7066 70.8164C19.8675 69.2644 18.9555 66.9043 18.9471 64.4959C18.9304 59.6679 21.8524 55.739 24.6704 52.0446C24.6518 52.0427 24.6323 52.0408 24.6138 52.039C21.0982 51.7005 18.831 48.1176 20.0691 44.8062C20.0923 44.7439 20.1155 44.6826 20.1397 44.6203C15.0777 44.04 14.0216 41.5767 14.4619 38.6754C12.543 39.3961 10.7336 40.3613 9.13608 41.6502C5.62983 44.4798 3.32545 49.0866 4.13723 53.5212C4.94901 57.9559 9.44538 61.6681 13.8619 60.7912C9.88842 61.9731 8.00201 67.32 8.97261 71.3539C9.94415 75.3878 14.3588 78.2519 18.4325 77.4922C17.5353 78.8098 16.6149 80.1851 16.365 81.7604C16.1152 83.3356 16.743 85.1712 18.2068 85.8008C19.7895 86.4815 22.4441 86.169 22.5007 87.8921C19.3251 90.1704 16.952 93.5487 15.8839 97.3111C15.1399 99.9315 15.061 102.897 16.4542 105.237C18.1957 108.16 21.8868 109.449 25.2816 109.262C28.6764 109.075 31.8705 107.674 34.9774 106.293C31.2213 107.873 29.3711 112.636 30.5414 116.543C31.7117 120.45 35.4204 123.293 39.4245 124.041C43.4296 124.789 47.6259 123.652 51.1164 121.549C50.7709 124.957 52.0536 126.73 54.1146 129.464C56.1756 132.198 59.8593 133.824 63.1454 132.872C66.4315 131.92 68.7461 128.034 67.4913 124.847C70.8248 129.512 79.1674 128.919 81.8089 123.83C83.3275 127.118 87.117 129.192 90.7013 128.696C94.2856 128.2 97.372 125.175 97.9432 121.598C97.6312 124.65 100.545 127.182 103.523 127.906C108.672 129.157 114.258 126.56 117.494 122.36C120.73 118.159 121.878 112.646 121.724 107.344C125.198 111.791 132.352 112.21 135.311 107.403C137.771 103.407 135.984 97.6756 132.135 95.216C133.335 95.2383 134.588 94.7836 135.48 93.9625C137.092 92.4784 137.693 90.1694 137.737 87.9777C137.772 86.2248 137.486 84.4329 136.657 82.8911C138.438 81.5419 139.747 79.5742 139.969 77.335C140.463 72.3517 136.24 67.745 131.342 66.8132C133.739 66.9973 136.164 66.9611 138.299 65.9261L138.304 65.9289Z" fill="#002854"/>
</g>
<path d="M68.5162 23.9002C71.0259 26.1152 74.1049 24.4423 74.4021 21.2676C74.6919 18.1692 72.5947 14.9666 70.3414 13.0204C69.472 12.2699 68.0351 12.1118 67.0896 12.8102C66.0623 13.569 66.0493 15.1777 65.9964 16.3429C65.8766 18.9959 66.4301 22.0599 68.5153 23.9002H68.5162Z" fill="#A6AD14"/>
<path d="M82.1541 22.1149C84.0693 20.8641 85.7068 17.8401 85.5535 15.5581C85.4077 13.3766 83.1498 12.0087 81.2011 13.0576C79.1717 14.1503 77.5295 17.1697 77.4952 19.446C77.4543 22.1902 79.767 23.6724 82.1541 22.1149Z" fill="#A6AD14"/>
<path d="M84.1893 25.0095C85.2546 27.0023 87.9073 25.8846 89.0748 24.6329C90.1393 23.4919 91.1767 20.9533 90.7811 19.6031C90.2879 17.92 87.9482 17.3779 86.7092 18.5616C85.0893 20.1099 82.8592 22.5211 84.1884 25.0086L84.1893 25.0095Z" fill="#A6AD14"/>
<path d="M57.8261 63.8849C58.8302 62.8462 60.0162 61.5053 59.8686 59.957C59.7404 58.6152 58.702 57.384 57.2688 57.5263C53.9372 57.8573 50.4997 60.0342 48.3309 62.544C47.4021 63.618 46.4213 65.1031 46.7166 66.5974C47.0083 68.0694 48.2603 68.7157 49.6656 68.6506C52.6879 68.5093 55.8329 65.9455 57.8261 63.884V63.8849Z" fill="#A6AD14"/>
<path d="M56.8462 67.799C56.2295 68.5196 55.6118 69.3342 55.2914 70.2399C55.1595 70.611 55.0555 70.9866 55.0425 71.3837C55.0313 71.7315 55.2877 72.2104 55.1892 72.5386C55.1028 72.5163 55.0545 72.4503 55.0462 72.3396C54.8873 74.5063 57.6208 75.9532 59.4032 74.8429C59.1849 74.9787 59.9837 74.5398 60.1453 74.4319C60.8011 73.9939 61.2748 73.409 61.689 72.7339C62.7748 70.9643 63.4491 68.7828 62.6847 66.7612C62.5352 66.366 62.2686 65.9726 61.9054 65.7476C61.7605 65.6276 61.5943 65.5505 61.4067 65.5142C60.9645 65.4528 60.9088 65.477 61.2395 65.5886C61.0119 65.6658 60.5447 65.5068 60.2633 65.5384C59.8203 65.5886 59.3856 65.755 58.9918 65.9568C58.1428 66.392 57.4601 67.0801 56.8462 67.7971V67.799Z" fill="#A6AD14"/>
<path d="M67.7679 66.0776C64.1056 63.9965 62.0056 72.069 66.566 73.0082C70.8906 73.899 71.4209 67.4111 67.7679 66.0776Z" fill="#A6AD14"/>
<path d="M103.488 43.8698C103.345 42.5716 102.481 41.3116 101.134 41.0773C97.263 40.4041 93.7317 42.434 91.3614 45.3874C90.4669 46.5023 88.8527 48.0116 89.2781 49.5766C89.5976 50.7529 90.8673 51.7042 92.0859 51.6316C92.8205 51.5879 93.3527 51.1323 93.9825 50.7994C94.8379 50.3475 95.7565 50.0322 96.6509 49.6696C98.3209 48.9926 100.103 48.3268 101.596 47.3002C102.82 46.4586 103.66 45.432 103.488 43.8698Z" fill="#A6AD14"/>
<path d="M102.324 60.0268C104.489 59.9124 109.311 58.7361 107.784 55.5214C106.45 51.5665 99.7192 52.6629 97.9823 55.7027C96.1553 58.8997 99.7721 60.1616 102.324 60.0268Z" fill="#A6AD14"/>
<path d="M104.329 70.2352C106.796 69.6159 106.798 66.8123 105.29 65.1905C104.058 63.8636 102.085 62.5282 100.26 63.3902C98.6157 64.1658 98.0816 66.2571 99.1014 67.7543C100.078 69.1872 102.566 70.6779 104.328 70.2352H104.329Z" fill="#A6AD14"/>
<path d="M70.8932 96.7763C70.6657 95.5507 69.761 94.5817 68.444 94.7249C65.2275 95.0746 62.2525 97.0785 60.5835 99.8422C59.324 101.927 58.5131 106.855 62.4169 106.351C65.2916 105.98 68.0622 102.872 69.5901 100.648C70.3712 99.5111 71.1607 98.2102 70.8942 96.7754L70.8932 96.7763Z" fill="#A6AD14"/>
<path d="M75.1412 100.451C70.4693 99.2127 67.3383 107.758 71.9433 109.486C76.3227 111.13 79.2735 101.547 75.1412 100.451Z" fill="#A6AD14"/>
<path d="M81.9255 100.8C79.9267 101.071 79.5449 103.038 79.6555 104.712C79.7818 106.615 80.8508 108.837 83.1283 108.591C85.0416 108.383 86.0066 106.256 85.571 104.542C85.1382 102.84 84.0543 100.512 81.9255 100.801V100.8Z" fill="#A6AD14"/>
<path d="M87.9049 103.941C88.1649 105.181 88.8996 106.47 90.2984 106.599C92.0325 106.757 92.4022 104.665 92.5796 103.391C92.5656 103.426 92.5582 103.462 92.5489 103.499C92.9659 99.7222 87.0726 99.9687 87.9049 103.942V103.941Z" fill="#A6AD14"/>
<path d="M39.1205 92.6047C40.2452 92.35 41.1731 91.8478 41.709 90.771C42.7865 88.6062 41.3895 86.1689 38.9551 86.1373C35.2603 86.0908 30.3144 86.8636 28.5757 90.6371C27.8949 92.1138 27.5215 93.8899 29.0457 94.9741C30.4816 95.9952 32.5194 95.3461 33.9776 94.7035C35.7312 93.9308 37.2387 93.0306 39.1205 92.6038V92.6047Z" fill="#A6AD14"/>
<path d="M41.1906 99.9064C42.8365 98.6352 42.4213 95.9069 40.0649 95.7451C39.8903 95.7367 39.7148 95.7283 39.5401 95.72C40.103 95.8687 38.9457 95.6893 38.8259 95.693C38.2212 95.7079 37.5739 95.8892 37.0063 96.0817C35.6011 96.5559 34.2756 97.4059 33.5047 98.7087C32.1273 101.036 33.5512 104.17 36.4769 103.629C38.4395 103.266 39.6795 101.074 41.1916 99.9064H41.1906Z" fill="#A6AD14"/>
<path d="M45.2781 100.626C40.9888 98.3572 37.0377 106.631 41.039 108.634C43.3099 109.771 44.9883 107.486 45.9682 105.79C46.9434 104.102 47.4282 101.763 45.2781 100.627V100.626Z" fill="#A6AD14"/>
<path d="M26.1194 48.7174C23.8466 48.3315 21.506 49.1172 20.1342 51.0672C18.936 52.7717 19.6605 54.745 21.7819 55.0928C23.7584 55.4173 26.2002 54.2066 27.2693 52.5495C28.0931 51.2727 27.9445 49.027 26.1194 48.7174Z" fill="#A6AD14"/>
<path d="M26.4279 46.1796C27.7412 46.7441 29.5868 47.1105 30.4524 45.5724C31.3979 43.893 29.7679 42.1792 28.2418 41.7226C26.7622 41.28 24.3901 41.4437 23.948 43.2607C23.5532 44.8806 25.1972 45.6505 26.4279 46.1796Z" fill="#A6AD14"/>
<path d="M36.697 40.2311C38.1274 39.3552 38.1237 37.4796 38.0782 36.002C38.0187 34.0575 35.8332 32.9063 34.2468 34.0715C32.8388 35.1055 32.9614 37.6321 33.644 39.0316C34.2041 40.18 35.4236 41.0104 36.697 40.2302V40.2311Z" fill="#A6AD14"/>
<path d="M65.0849 47.2444C65.2084 47.3076 65.9533 47.6796 65.5502 47.356C67.9484 49.2772 69.5747 43.5695 70.1831 42.1988C71.0655 40.2116 71.2197 37.4396 68.6292 36.7775C65.7434 36.0401 63.5431 39.1422 63.0331 41.6204C62.7108 43.1854 63.0127 44.9624 63.9601 46.2708C64.2657 46.692 64.6242 47.0082 65.0849 47.2444Z" fill="#A6AD14"/>
<path d="M73.336 42.4387C72.1147 43.5471 71.3215 45.7677 72.5335 47.1598C74.8426 49.8128 81.5802 45.1902 78.4807 42.3568C76.8962 40.9071 74.9039 41.0159 73.3351 42.4387H73.336Z" fill="#A6AD14"/>
<path d="M104.695 88.8675C101.913 88.7987 100.74 92.4997 100.809 94.7333C100.881 97.1008 101.806 100.12 104.465 100.634C105.898 100.91 107.149 100.276 107.923 99.0694C108.746 97.7843 108.581 96.4973 108.388 95.0606C108.087 92.8242 107.696 88.9428 104.695 88.8685V88.8675Z" fill="#A6AD14"/>
<path d="M113.262 91.8665C114.845 92.7508 116.828 92.8996 118.23 91.5764C119.469 90.4075 119.449 88.2994 117.884 87.3881C117.208 86.9939 116.579 86.978 115.875 86.7446C115.988 86.7586 116.102 86.7725 116.215 86.7874C115.78 86.7037 115.352 86.567 114.942 86.4294C113.6 85.9793 111.824 85.3405 110.862 87.3398C109.932 89.2758 111.692 90.9887 113.263 91.8665H113.262Z" fill="#A6AD14"/>
<path d="M117.62 83.7485C118.731 83.7819 120.471 83.941 121.433 83.4211C123.047 82.548 123.18 80.1051 121.513 79.1799C119.829 78.2435 116.889 78.316 115.654 80.0056C114.507 81.5744 115.765 83.6927 117.62 83.7485Z" fill="#A6AD14"/>
<path d="M114.329 112.346C111.613 112.786 111.364 116.073 111.36 118.292C111.355 120.877 112.069 124.119 114.49 125.531C115.86 126.329 117.533 125.845 118.396 124.533C119.513 122.833 118.839 120.634 118.447 118.821C117.934 116.447 117.928 111.762 114.33 112.346H114.329Z" fill="#A6AD14"/>
<path d="M119.517 109.312C117.375 110.079 117.926 112.422 119.054 113.843C120.155 115.231 122.134 116.237 123.9 115.574C125.869 114.835 126.224 112.274 124.873 110.783C123.616 109.395 121.325 108.664 119.517 109.312Z" fill="#A6AD14"/>
<path d="M138.729 81.5939C136.957 80.9179 134.633 81.7008 133.642 83.3328C132.602 85.0466 133.742 87.124 135.507 87.7331C137.265 88.3403 139.653 87.9739 140.656 86.2704C141.741 84.4236 140.594 82.3043 138.73 81.5939H138.729Z" fill="#A6AD14"/>
<path d="M141.628 72.2298C140.207 70.2788 138.114 69.972 135.88 70.5987C133.919 71.1492 131.962 72.6817 133.146 74.9386C134.939 78.3597 144.138 75.6741 141.628 72.2288V72.2298Z" fill="#A6AD14"/>
<path d="M106.009 16.0965C108.528 16.1523 109.705 13.4593 109.793 11.3242C109.866 9.5565 109.109 6.64034 107.071 6.247C104.698 5.78856 104.151 8.36066 103.731 10.0931C103.243 12.1026 103.097 16.0323 106.009 16.0965Z" fill="#A6AD14"/>
<path d="M115.502 14.6032C113.842 12.0245 108.432 14.8012 109.674 17.5379C111.046 20.561 117.346 17.4663 115.502 14.6032Z" fill="#A6AD14"/>
<path d="M32.0941 18.2837C33.3824 18.9021 34.6976 19.5502 36.1066 19.8403C38.2103 20.2727 42.3835 19.0797 40.5602 16.1179C39.1995 13.9085 36.3462 13.5988 34.0075 13.3478C32.943 13.2334 31.6353 12.8791 30.6182 13.3422C29.5436 13.8313 29.0699 15.095 29.3978 16.2119C29.7609 17.4477 31.0464 17.7806 32.0941 18.2837Z" fill="#A6AD14"/>
<path d="M44.0082 13.4584C46.2754 13.5384 46.3451 10.8333 45.8045 9.26548C45.2193 7.56842 43.0914 4.71456 41.1112 4.60018C38.1214 4.42722 38.7632 7.78415 39.5341 9.47378C40.3338 11.2257 41.8598 13.3821 44.0082 13.4584Z" fill="#A6AD14"/>
<path d="M11.4295 51.3564C10.1515 48.3975 6.00434 48.6243 3.60802 49.862C2.34855 50.513 0.970198 51.6484 0.318174 52.9307C-0.492676 54.5246 0.29774 56.429 2.10427 56.8158C3.24392 57.0594 4.09285 56.3685 5.11454 56.0096C6.13159 55.6516 7.18672 55.4089 8.20748 55.062C9.79203 54.5227 12.3518 53.4961 11.4286 51.3573L11.4295 51.3564Z" fill="#A6AD14"/>
<path d="M14.9495 57.8313C12.9042 54.2437 5.42361 57.9857 5.62051 61.5239C5.90566 66.6421 17.3254 62 14.9495 57.8313Z" fill="#A6AD14"/>
<path d="M14.2016 80.73C15.7295 82.07 17.0735 80.8267 18.619 80.4157C20.2872 79.9722 22.8534 78.3764 21.0451 76.3874C18.2614 73.3243 10.7492 77.7041 14.2016 80.73Z" fill="#A6AD14"/>
<path d="M12.1707 97.6635C12.5998 99.9157 14.7611 100.015 16.3921 99.2499C17.9581 98.5153 20.3739 98.3944 20.3739 96.0678C20.3739 91.2807 11.3199 93.2028 12.1707 97.6635Z" fill="#A6AD14"/>
<path d="M62.2065 120.497C62.0077 119.427 61.0232 118.789 59.9625 119.066C57.1389 119.803 54.6227 121.815 53.5444 124.578C52.7939 126.502 53.0623 130.107 55.8859 129.922C58.4169 129.756 59.5148 125.572 60.6182 123.812C61.2526 122.801 62.4489 121.805 62.2055 120.497H62.2065Z" fill="#A6AD14"/>
<path d="M62.3848 128.151C58.35 128.332 58.6955 136.196 62.3848 136.196C66.074 136.196 66.4297 127.97 62.3848 128.151Z" fill="#A6AD14"/>
<path d="M88.186 69.4838C87.8071 68.3968 87.1458 67.5868 86.6999 66.5444C86.3089 65.6312 86.3349 64.8222 85.3884 64.2336C83.4602 63.035 81.3203 64.5433 81.3073 66.6727C81.2933 68.911 82.3884 71.7174 84.7067 72.3935C86.4882 72.9133 88.9421 71.6514 88.1869 69.4838H88.186Z" fill="#A6AD14"/>
<path d="M32.3343 60.8841C31.034 62.9271 32.7653 64.6837 34.6991 65.0584C36.735 65.4536 39.4258 65.966 41.0726 64.2708C42.7453 62.5486 40.9119 60.5084 39.1109 59.93C37.2877 59.3442 33.5603 58.9564 32.3334 60.8841H32.3343Z" fill="#A6AD14"/>
<path d="M53.4376 28.347C54.9655 27.7481 55.2869 25.7433 54.2039 24.5716C53.185 23.4697 51.2688 22.4896 49.7344 22.9712C47.888 23.5506 48.2038 25.6354 49.2301 26.8219C50.1663 27.9053 51.9933 28.9133 53.4385 28.347H53.4376Z" fill="#A6AD14"/>
<path d="M126.726 32.5437C123.934 31.8016 120.925 33.0495 118.872 34.9354C117.249 36.426 114.616 40.4459 118.173 41.5395C120.568 42.2751 124.293 40.2088 126.122 38.8298C127.119 38.0775 128.487 36.9588 128.709 35.6523C128.933 34.3291 128.031 32.8905 126.726 32.5437Z" fill="#A6AD14"/>
<path d="M103.644 22.4329C100.041 22.2236 95.9734 25.8865 95.5935 29.3969C95.4802 30.4467 96.7563 31.3385 97.7065 31.0084C99.0486 30.5434 100.247 29.7177 101.464 28.9989C102.792 28.2159 104.226 27.7166 105.423 26.7309C107.237 25.2374 105.619 22.5463 103.644 22.4319V22.4329Z" fill="#757507"/>
<path d="M107.015 29.4098C105.798 28.9272 104.127 29.1662 102.893 29.5326C101.785 29.8618 99.9997 31.0083 100.579 32.4413C101.05 33.6083 102.019 34.2351 103.237 34.4899C104.44 34.7419 105.84 34.9976 107.015 34.5326C109.519 33.5404 109.524 30.4039 107.015 29.4089V29.4098Z" fill="#757507"/>
<path d="M110.09 37.5475C109.974 37.407 109.836 37.2908 109.676 37.1969C109.878 37.3643 109.788 37.2964 109.408 36.9951C109.019 36.7487 108.625 36.6743 108.174 36.6352C107.774 36.6008 107.378 36.6566 106.983 36.7236C105.855 36.532 105.117 37.7307 105.879 38.6261C106.284 39.1013 106.581 39.6295 107.191 39.9419C108.005 40.3595 109.022 40.4004 109.793 39.8397C110.573 39.2734 110.768 38.2942 110.089 37.5465L110.09 37.5475Z" fill="#757507"/>
<path d="M83.0706 36.903C82.8272 35.7313 81.7498 34.9 80.6659 34.542C80.2312 34.3988 79.764 34.3458 79.3079 34.3774C79.0535 34.3951 78.7943 34.4248 78.551 34.4937C78.4785 34.5225 78.4042 34.5457 78.3281 34.5653C77.8488 34.7912 77.7475 34.8266 78.0234 34.6703C77.1689 34.8396 76.659 35.7936 76.7667 36.5971C76.8717 37.381 77.4791 37.9752 78.2463 38.0942C78.2909 38.1203 78.3392 38.1472 78.3633 38.1602C78.5742 38.2765 78.785 38.3936 78.9903 38.5192C79.138 38.6094 79.6107 38.9246 79.2234 38.6419C79.6785 38.973 80.0426 39.2064 80.5776 39.3989C82.1334 39.9605 83.3594 38.2932 83.0706 36.903Z" fill="#757507"/>
<path d="M87.2499 35.6801C86.9629 35.2356 86.6406 34.8237 86.3072 34.4126C86.0592 34.1076 85.4843 33.8965 85.1035 33.9133C84.7189 33.931 84.3781 34.0425 84.0716 34.2797C83.4428 34.766 83.1511 35.774 83.6332 36.4789C83.9322 36.9159 84.2462 37.3325 84.5908 37.7342C84.8378 38.0216 85.2595 38.2001 85.671 38.2308C85.6793 38.2317 85.6858 38.2373 85.6942 38.2392C86.6007 38.4149 87.2936 37.8849 87.4264 37.0089C87.5499 36.5691 87.4803 36.0362 87.2499 35.6801Z" fill="#757507"/>
<path d="M86.8446 86.4201C85.0817 86.8869 84.3331 88.4249 83.7433 90.0253C83.0764 91.8367 82.6288 93.862 83.6727 95.614C84.2997 96.6657 85.8675 97.2106 86.9449 96.4732C88.9735 95.0839 89.4379 92.5797 89.4583 90.2401C89.4694 88.914 88.8369 85.8919 86.8446 86.4201Z" fill="#757507"/>
<path d="M95.7247 89.5602C95.5353 88.4815 95.2269 87.6344 94.7718 86.6441C94.4801 86.0089 93.4612 85.7569 92.8993 86.1521C91.664 87.0216 90.9033 88.0287 90.6432 89.5602C90.307 91.539 90.438 93.3161 92.1572 94.5714C93.268 95.3823 94.9074 94.7267 95.5641 93.6769C96.374 92.3825 95.9718 90.9644 95.7247 89.5593V89.5602Z" fill="#757507"/>
<path d="M101.302 84.8113C101.153 84.564 100.945 84.3343 100.764 84.1093C100.496 83.7764 100.2 83.4732 99.8149 83.2668C99.084 82.8744 98.0994 82.5043 97.2477 82.6912C96.5334 82.7702 95.8861 83.3272 95.6195 83.9595C95.3399 84.6235 95.4244 85.3962 95.8396 85.9793C95.9585 86.1932 96.1015 86.3949 96.2929 86.5679C96.4851 86.7418 96.6718 86.9222 96.8641 87.0952C97.5663 87.7266 98.4635 88.2361 99.409 88.2975C100.557 88.3719 101.686 87.2216 101.622 86.0816C101.598 85.6371 101.536 85.2019 101.301 84.8113H101.302Z" fill="#757507"/>
<path d="M57.125 82.9041C55.5479 82.2383 54.0051 83.2872 52.9156 84.3687C51.919 85.3581 51.0617 86.6153 51.0283 88.0632C51.0004 89.2618 52.2478 90.214 53.3958 89.869C53.9856 89.6914 54.4287 89.4217 54.92 89.0758C55.2349 88.8536 55.5321 88.6555 55.8367 88.4091C55.8274 88.4165 56.2473 88.0827 56.2213 88.0976C56.8556 87.6242 57.2095 87.481 57.6925 86.9398C58.2711 86.2898 58.4523 85.625 58.5451 84.7704C58.6445 83.8526 57.8569 83.2119 57.125 82.9031V82.9041Z" fill="#757507"/>
<path d="M62.3294 89.9397C61.9319 89.5417 61.4693 89.4246 60.9641 89.4413C60.508 89.3706 60.0548 89.4301 59.5801 89.6803C59.3433 89.8049 59.1055 89.9806 58.8863 90.1359C58.5584 90.3684 58.2789 90.6065 58.0225 90.9115C57.6389 91.3671 57.4625 91.7809 57.247 92.3268C56.999 92.9545 57.2971 93.7728 57.7476 94.2238C58.2622 94.7389 58.9495 94.8691 59.6424 94.725C60.9845 94.446 62.5653 93.2213 62.7734 91.7791C62.7817 91.7521 62.7827 91.7242 62.7938 91.6972C62.9879 91.09 62.7706 90.3805 62.3294 89.9397Z" fill="#757507"/>
<path d="M38.5552 51.732C37.1137 50.3985 34.8827 50.5148 33.0529 50.8328C31.8325 51.0448 29.9265 52.063 30.612 53.5881C31.1526 54.7904 32.491 55.2535 33.6956 55.4739C35.0916 55.7287 36.9205 55.9974 38.1214 55.0964C39.1663 54.3125 39.6632 52.7586 38.5542 51.732H38.5552Z" fill="#757507"/>
<path d="M42.9993 45.7454C42.5386 45.2339 41.9293 44.9187 41.2531 44.8285C40.4237 44.7169 39.7587 44.9764 39.1624 45.5557C38.8373 45.8719 38.6933 46.3889 38.8271 46.8259C39.1132 47.7651 39.6955 48.4616 40.6086 48.8475C41.0962 49.054 41.5912 49.2204 42.1281 49.0465C42.5442 48.9117 42.8841 48.6867 43.1526 48.3389C43.7693 47.5401 43.6643 46.4847 42.9984 45.7463L42.9993 45.7454Z" fill="#757507"/>
<path d="M48.4054 40.8373C48.0812 40.5398 47.7561 40.1948 47.3595 40.0014C47.0604 39.8544 46.7512 39.7261 46.4474 39.5885C45.605 39.2072 44.6808 39.2881 44.0845 40.0609C43.5709 40.7267 43.5235 41.8844 44.2276 42.4684C44.4951 42.6906 44.7616 42.9147 45.0319 43.1351C45.4257 43.4569 45.6217 43.5573 46.0871 43.7451C46.257 43.8139 46.4279 43.879 46.5979 43.946C47.3261 44.2315 48.3422 43.7609 48.6961 43.0914C49.0713 42.38 49.0277 41.4101 48.4054 40.8373Z" fill="#757507"/>
<path d="M86.3715 119.429C86.1151 118.117 84.4749 117.631 83.416 118.225C81.525 119.286 80.5191 121.486 80.0073 123.518C79.4008 125.927 79.2011 128.358 81.3615 129.963C82.0321 130.461 83.2321 130.417 83.9074 129.963C85.7743 128.707 85.7139 126.91 85.9981 124.872C86.2526 123.054 86.7291 121.258 86.3715 119.429Z" fill="#757507"/>
<path d="M91.3738 122.83C91.2112 121.041 88.5037 119.772 87.5768 121.801C86.8347 123.425 86.2514 124.767 86.2746 126.616C86.2978 128.466 87.0975 131.008 89.3582 131.013C93.5044 131.023 91.579 125.1 91.3728 122.83H91.3738Z" fill="#757507"/>
<path d="M98.6684 124.888C98.0099 123.685 96.8944 122.429 95.6749 121.773C94.4303 121.102 92.3572 121.909 92.5513 123.568C92.7138 124.96 93.1875 126.294 93.8015 127.552C94.5259 129.036 96.3083 130.544 98.0257 129.538C99.7106 128.551 99.47 126.353 98.6684 124.888Z" fill="#757507"/>
<path d="M132.701 95.866C131.214 94.8124 128.387 94.527 126.688 95.2216C125.51 95.7033 124.868 97.1614 125.907 98.1787C127.422 99.6619 130.122 100.419 132.17 99.9278C134.171 99.448 134.166 96.9038 132.701 95.866Z" fill="#757507"/>
<path d="M36.3905 122.484C36.3747 122.461 36.3552 122.442 36.3403 122.417C36.4202 122.551 36.4267 122.555 36.3905 122.484Z" fill="#757507"/>
<path d="M44.0814 116.358C43.8567 115.541 43.0644 114.933 42.2164 114.936C40.4405 114.943 38.6962 115.714 37.4665 117.003C36.7764 117.726 36.2051 118.555 35.8838 119.51C35.6831 120.105 35.6172 120.741 35.7872 121.36C35.7974 121.395 36.2822 122.272 36.39 122.484C36.9185 123.283 38.0117 123.567 38.8522 123.077C38.3284 123.382 39.2321 122.947 39.4132 122.837C39.8368 122.578 40.2371 122.172 40.5 121.753C40.7749 121.316 41.0099 120.851 41.3034 120.425C41.3145 120.433 41.6526 120.022 41.6489 120.026C41.8291 119.819 41.9963 119.604 42.1876 119.407C42.5238 119.059 42.7913 118.842 43.1916 118.545C43.892 118.025 44.3257 117.252 44.0805 116.358H44.0814Z" fill="#757507"/>
<path d="M46.351 119.997C45.2903 120.944 44.4572 121.952 43.9315 123.287C43.4067 124.617 43.3017 126.613 44.6494 127.476C45.3525 128.098 46.5117 128.319 47.1916 127.485C48.7501 126.45 48.5161 123.901 49.43 122.376C50.6115 120.402 47.9736 118.548 46.351 119.997Z" fill="#757507"/>
<path d="M122.057 61.39C121.004 61.3956 120.109 62.2818 120.109 63.34C120.109 64.4978 121.007 65.1645 122.057 65.29C122.876 65.3877 123.692 65.8656 124.498 66.0646C125.873 66.4031 127.705 65.8359 127.705 64.136C127.705 61.2757 124.017 61.3798 122.057 61.391V61.39Z" fill="#757507"/>
<path d="M132.531 55.9528C131.79 54.7802 130.529 54.1526 129.153 54.1256C128.629 54.1154 128.119 54.2167 127.634 54.4064L127.145 54.6128C127.351 54.5264 127.314 54.5422 127.039 54.6584C126.778 54.7709 126.535 54.8797 126.296 55.0341C125.511 55.54 125.14 56.5108 125.525 57.3886C125.887 58.2143 126.835 58.7704 127.746 58.4803C127.792 58.4636 127.839 58.4533 127.887 58.4394C127.971 58.457 128.053 58.471 128.084 58.4803C128.155 58.5017 128.222 58.524 128.268 58.5407C128.409 58.6095 128.548 58.683 128.684 58.7555C129.773 59.3312 131.181 59.8575 132.172 58.75C132.839 58.0042 133.097 56.8483 132.532 55.9538L132.531 55.9528Z" fill="#757507"/>
<path d="M58.6959 9.64669C58.4637 8.45177 57.5656 7.37309 56.673 6.58454C55.8315 5.84062 54.8358 5.19062 53.672 5.32546C53.2475 5.37474 52.7358 5.53003 52.5463 5.97173C52.0206 7.19548 52.211 8.22953 52.7413 9.42166C53.255 10.5747 54.0352 11.7557 55.1757 12.3555C57.103 13.3691 59.0962 11.7055 58.6959 9.64576V9.64669Z" fill="#757507"/>
<path d="M64.3059 4.04413C64.1378 3.47317 63.8722 2.87339 63.443 2.45493C63.0362 2.05786 62.4604 1.68591 61.8947 1.60965C61.5446 1.56223 61.2455 1.61616 60.9278 1.73612C60.2006 1.78912 59.6962 2.4726 59.8281 3.14771C59.8095 3.32532 59.8216 3.51316 59.842 3.66566C59.8792 3.9437 59.9749 4.24777 60.0613 4.51745C60.1179 4.69413 60.2126 4.86058 60.287 5.03261C60.2888 5.05214 60.2944 5.08468 60.3083 5.14885C60.4142 5.62123 60.6501 5.97645 60.9696 6.27309C61.0142 6.35957 61.0551 6.43489 61.0755 6.46372C61.16 6.57996 61.2529 6.68783 61.343 6.79941C61.7173 7.26622 62.6155 7.35921 63.1003 7.02631C63.5406 6.72409 63.8016 6.40514 63.9966 5.97088C64.3784 5.40178 64.527 4.79641 64.3059 4.04413Z" fill="#757507"/>
<path d="M13.2116 70.4491C12.4732 70.0148 11.706 69.8279 10.6974 70.0437C9.94873 70.2036 9.12116 70.5533 8.64376 71.1679C7.99916 71.9974 7.90907 73.3095 8.99299 73.8842C9.84471 74.3361 10.7633 74.3751 11.6968 74.1631C12.6441 73.9483 13.2451 73.422 13.7875 72.6492C14.2891 71.9369 13.9101 70.8601 13.2116 70.4491Z" fill="#757507"/>
<path d="M55.3007 49.4213C55.1855 48.8782 54.8149 48.3482 54.344 48.1027C53.6669 47.7493 52.9545 47.5122 52.1994 47.3987C51.9328 47.3588 51.8641 47.3504 51.9922 47.3736C52.0703 47.3876 52.0517 47.3848 51.9356 47.3653C51.7266 47.3355 51.5204 47.2918 51.3105 47.3002C51.1303 47.3067 50.9343 47.3383 50.7625 47.3867C50.6947 47.4053 50.2247 47.5261 50.4644 47.4862C50.0557 47.554 49.7631 48.0209 49.7622 48.4095C49.7622 48.178 49.7306 48.696 49.7297 48.7452C49.7269 48.9526 49.7575 49.1674 49.8179 49.3673C49.9452 49.7858 50.3018 50.2991 50.6055 50.6078C51.3672 51.3834 52.2755 51.7181 53.3288 51.852C53.9056 51.9255 54.5873 51.5294 54.9403 51.0495C55.3332 50.6069 55.4892 49.9932 55.2997 49.4213H55.3007Z" fill="#757507"/>
<path d="M57.8161 42.6451C57.5514 41.9542 57.087 41.3869 56.7842 40.7239C56.4787 40.0544 55.5359 39.8377 54.9145 40.1111C54.1956 40.4273 53.9096 41.1238 54.048 41.8789C54.1669 42.5279 54.0684 43.23 54.2634 43.8781C54.3647 44.2138 54.5672 44.6871 54.7539 44.9968C54.9145 45.2683 55.13 45.4841 55.4003 45.644C55.8526 45.8551 55.9678 45.8997 55.7477 45.7779C56.4016 46.1155 57.3062 45.9751 57.6777 45.2711C57.5133 45.5836 57.844 45.0368 57.8682 44.9959C58.0214 44.7336 58.1143 44.3886 58.1143 44.0846C58.1143 43.6345 57.975 43.0589 57.8161 42.6442V42.6451Z" fill="#757507"/>
<path d="M23.6432 32.1773C23.6432 31.6147 23.4156 31.0902 23.1426 30.6104C22.732 29.8916 22.1292 29.2955 21.415 28.877C20.6041 28.4019 19.5304 28.2447 18.6304 28.4911C18.2997 28.5813 17.9505 28.7059 17.6561 28.8789C17.4016 29.0286 17.2019 29.3513 16.9632 29.4759C15.8328 30.0645 16.2192 31.8518 17.3681 32.0759C17.5753 32.2423 17.7908 32.419 17.5093 32.1587C17.7917 32.42 18.0657 32.6636 18.3843 32.8896C18.5162 32.9788 18.5598 33.0067 18.5347 32.9853C18.6443 33.0737 18.7576 33.1583 18.8737 33.2373C18.753 33.1509 19.2183 33.5191 19.288 33.5879C19.4886 33.7841 20.1165 34.5076 20.4815 34.5197C20.7936 34.6926 21.128 34.7819 21.4865 34.7828C22.6113 34.7875 23.2522 33.9878 23.5159 32.9891C23.5215 32.9528 23.5252 32.9221 23.5299 32.8933C23.6042 32.6627 23.645 32.4246 23.6441 32.1773H23.6432Z" fill="#757507"/>
<path d="M27.8195 31.1282C28.9777 29.9119 27.9579 28.0707 27.1108 26.9995C26.7319 26.5206 26.3204 26.117 25.7696 25.839C25.0052 25.454 23.7095 25.4577 23.247 26.343C22.582 27.6151 23.0807 28.7672 23.7634 29.9101C24.3578 30.9041 25.5226 32.0963 26.8062 31.7373C27.226 31.688 27.5743 31.4825 27.8186 31.1273L27.8195 31.1282Z" fill="#757507"/>
</g>
<defs>
<clipPath id="clip0_68_193156">
<rect width="142.792" height="136.196" fill="white"/>
</clipPath>
</defs>
</svg>
