<?xml version="1.0" encoding="utf-8"?>
<!-- Generator: Adobe Illustrator 28.0.0, SVG Export Plug-In . SVG Version: 6.00 Build 0)  -->
<svg version="1.1" id="Layer_1" xmlns="http://www.w3.org/2000/svg" xmlns:xlink="http://www.w3.org/1999/xlink" x="0px" y="0px"
	 viewBox="0 0 130 189" style="enable-background:new 0 0 130 189;" xml:space="preserve">
<style type="text/css">
	.st0{clip-path:url(#SVGID_00000068645821634400681370000012851122232672872083_);}
	.st1{fill:#5A676D;}
	.st2{fill:#444E51;}
	.st3{fill:#859093;}
	.st4{fill:#707D82;}
	.st5{fill:#4A5559;}
	.st6{fill:#657277;}
	.st7{fill:#707C7F;}
	.st8{fill:#FFBC00;}
	.st9{fill:#FFD217;}
	.st10{fill:#E29000;}
	.st11{fill:#FFE529;}
	.st12{fill:#020201;}
	.st13{fill:#191916;}
	.st14{fill:#464647;}
	.st15{fill:#363E3F;}
</style>
<g>
	<defs>
		<rect id="SVGID_1_" y="0" width="129.7" height="188.2"/>
	</defs>
	<clipPath id="SVGID_00000176015936635368649040000002612389343646389154_">
		<use xlink:href="#SVGID_1_"  style="overflow:visible;"/>
	</clipPath>
	<g style="clip-path:url(#SVGID_00000176015936635368649040000002612389343646389154_);">
		<path class="st1" d="M17.7,3.3h-2.4V1.4c0-0.8,0.6-1.4,1.4-1.4h12.9c0.8,0,1.4,0.6,1.4,1.4v1.8H17.7z"/>
		<path class="st1" d="M2.5,178.7h124.8c1.4,0,2.5,1.1,2.5,2.5v1c0,0.1,0,0.1,0,0.2c0,0.1,0,0.1,0,0.2v1c0,1.4-1.1,2.5-2.5,2.5H2.5
			c-1.4,0-2.5-1.1-2.5-2.5v-1c0-0.1,0-0.1,0-0.2c0-0.1,0-0.1,0-0.2v-1C0,179.8,1.1,178.7,2.5,178.7L2.5,178.7z"/>
		<path class="st2" d="M2.5,186h124.8c1.4,0,2.5-1.1,2.5-2.5v2.2c0,1.4-1.1,2.5-2.5,2.5H2.5c-1.4,0-2.5-1.1-2.5-2.5v-2.2
			C0,184.9,1.1,186,2.5,186L2.5,186z"/>
		<path class="st3" d="M0.5,4.2c0.5-0.6,1.2-1,1.9-1h124.8c1.4,0,2.5,1.1,2.5,2.5v2.2c0-1.4-1.1-2.5-2.5-2.5H2.5
			C1.1,5.5,0,6.6,0,7.9V5.7C0,5.2,0.2,4.6,0.5,4.2L0.5,4.2z"/>
		<path class="st4" d="M2.5,5.5h124.8c1.4,0,2.5,1.1,2.5,2.5v1c0,0.1,0,0.1,0,0.2c0,0.1,0,0.1,0,0.2v1c0,1.4-1.1,2.5-2.5,2.5H2.5
			c-1.4,0-2.5-1.1-2.5-2.5v-1c0-0.1,0-0.1,0-0.2C0,9,0,9,0,8.9v-1C0,6.6,1.1,5.5,2.5,5.5L2.5,5.5z"/>
		<path class="st1" d="M2.5,12.7h124.8c1.4,0,2.5-1.1,2.5-2.5v2.2c0,1.4-1.1,2.5-2.5,2.5H2.5c-1.4,0-2.5-1.1-2.5-2.5v-2.2
			C0,11.6,1.1,12.7,2.5,12.7L2.5,12.7z"/>
		<path class="st1" d="M49,18.6h32.6v28.5H49V18.6z"/>
		<path class="st1" d="M49,148h32.6v28.5H49V148z"/>
		<path class="st1" d="M64.9,127.5c6,0,11.8-1.7,16.7-4.7v15.2H49v-14.7C53.7,126,59.2,127.5,64.9,127.5z"/>
		<path class="st1" d="M64.9,63.9c-5.7,0-11.1,1.5-15.9,4.2V57.3h32.6v11.4C76.6,65.6,70.9,63.9,64.9,63.9L64.9,63.9z"/>
		<path class="st1" d="M8.3,18.6H21v28.5H8.3V18.6z"/>
		<path class="st1" d="M8.3,137.9V57.3h2.2H21v80.7H8.3z"/>
		<path class="st1" d="M8.3,176.5V148h2.2H21v28.5H8.3z"/>
		<path class="st5" d="M113.2,176.5V148h5.9h2.2v28.5H113.2z"/>
		<path class="st5" d="M113.2,137.9V57.3h5.9h2.2v80.7H113.2z"/>
		<path class="st5" d="M113.2,18.6h8.1v28.5h-8.1V18.6z"/>
		<path class="st6" d="M42.4,73.2V57.3H49v10.9C46.6,69.5,44.4,71.2,42.4,73.2z"/>
		<path class="st6" d="M42.4,18.6H49v28.5h-6.5V18.6z"/>
		<path class="st6" d="M42.4,148H49v28.5h-6.5V148z"/>
		<path class="st6" d="M49,137.9h-6.5v-19.7c2,2,4.2,3.6,6.5,5V137.9L49,137.9z"/>
		<path class="st6" d="M21,47.2V18.6h7.5h4.8v28.5H21z"/>
		<path class="st6" d="M21,148h12.3v28.5H21V148z"/>
		<path class="st6" d="M33.1,95.7c0,1.2,0.1,2.5,0.2,3.7v38.5H21V57.3h12.3V92C33.1,93.2,33.1,94.5,33.1,95.7L33.1,95.7z"/>
		<path class="st5" d="M81.6,148h16.5h1.4v28.5H81.6V148z"/>
		<path class="st5" d="M81.6,18.6h17.8v28.5H81.6V18.6z"/>
		<path class="st5" d="M81.6,122.7c2.1-1.3,4-2.8,5.7-4.6c6-6,9.3-14,9.3-22.5c0-8.5-3.3-16.5-9.3-22.5c-1.8-1.8-3.7-3.3-5.7-4.6
			V57.3h17.8v80.7H81.6V122.7L81.6,122.7z"/>
		<path class="st6" d="M121.4,18.6h2.7v28.5h-2.7V18.6z"/>
		<path class="st6" d="M121.4,148h0.4h2.3v20.3v8.2h-2.7V148z"/>
		<path class="st6" d="M121.4,57.3h0.4h2.3v80.7h-2.7V57.3z"/>
		<path class="st7" d="M8.3,57.3v80.7h25V99.4c0.8,7.1,4,13.7,9.1,18.8c0,0,0,0,0.1,0.1v19.7h82.4c1.3,0,2.4,1.1,2.4,2.5v1.7
			c0,0.1,0,0.1,0,0.2c0,0.1,0,0.1,0,0.2v0.2c0-1.4-1.1-2.5-2.4-2.5H4.9c-1.3,0-2.4,1.1-2.4,2.5v-0.2c0-0.1,0-0.1,0-0.2
			c0-0.1,0-0.1,0-0.2v-1.7c0-0.6,0.2-1.1,0.5-1.5c0.1-0.1,0.2-0.2,0.3-0.3c0.4-0.4,1-0.6,1.6-0.6h0.7V57.3H8.3z"/>
		<path class="st7" d="M8.3,148v28.5H5.6v-10.2v-9.2v-9h2.3H8.3z"/>
		<path class="st7" d="M8.3,47.2h25V18.7h9.2v28.5h82.4c1.3,0,2.4,1.1,2.4,2.5v1.7c0,0.1,0,0.1,0,0.2c0,0.1,0,0.1,0,0.2v0.2
			c0-1.4-1.1-2.5-2.4-2.5H4.9c-1.3,0-2.4,1.1-2.4,2.5v-0.2c0-0.1,0-0.1,0-0.2c0-0.1,0-0.1,0-0.2v-1.7c0-0.6,0.2-1.1,0.5-1.5
			c0.1-0.1,0.2-0.2,0.3-0.3c0.4-0.4,1-0.6,1.6-0.6h0.7V18.7h2.7V47.2z"/>
		<path class="st7" d="M33.3,148h9.2v28.5h-9.2V148z"/>
		<path class="st7" d="M42.4,73.2c-5.1,5.1-8.3,11.7-9.1,18.8V57.3h9.2L42.4,73.2C42.4,73.2,42.4,73.2,42.4,73.2z"/>
		<path class="st2" d="M99.4,14.9h13.8h8.1h2.7v3.8h-2.7h-8.1v28.5H99.4V18.6H81.6H49h-6.5h-1h-8.2h-4.8H21H8.3H5.6v-3.8h2.7H99.4z"
			/>
		<path class="st4" d="M21,176.5h106.3c1.4,0,2.5,1.1,2.5,2.5v2.2c0-1.4-1.1-2.5-2.5-2.5H2.5c-1.4,0-2.5,1.1-2.5,2.5V179
			c0-1.4,1.1-2.5,2.5-2.5H21L21,176.5z"/>
		<path class="st1" d="M4.9,49.4h119.9c1.3,0,2.4,1.1,2.4,2.5v0.8c0,1-0.6,1.8-1.4,2.2l-1.7,0.2H4.9c-1.3,0-2.4-1.1-2.4-2.5v-0.8
			C2.5,50.5,3.6,49.4,4.9,49.4L4.9,49.4z"/>
		<path class="st1" d="M127.2,51.3v0.3c0-0.1,0-0.1,0-0.2C127.2,51.4,127.2,51.3,127.2,51.3z"/>
		<path class="st1" d="M2.5,51.6v-0.3c0,0.1,0,0.1,0,0.2C2.5,51.5,2.5,51.5,2.5,51.6z"/>
		<path class="st1" d="M4.9,140.1h119.9c1.3,0,2.4,1.1,2.4,2.5v0.8c0,0.2,0,0.3,0,0.5c-0.1,0.2-0.1,0.5-0.2,0.7
			c-0.4,0.8-1.2,1.3-2.1,1.3H4.9c-1.3,0-2.4-1.1-2.4-2.5v-0.8C2.5,141.2,3.6,140.1,4.9,140.1L4.9,140.1z"/>
		<path class="st1" d="M2.5,142.4V142c0,0.1,0,0.1,0,0.2C2.5,142.3,2.5,142.3,2.5,142.4z"/>
		<path class="st1" d="M127.2,142.1v0.3c0-0.1,0-0.1,0-0.2C127.2,142.2,127.2,142.1,127.2,142.1z"/>
		<path class="st8" d="M81.6,74.5v4.6c-1.4-1.4-3.1-2.7-4.8-3.7l-8.2,14.1c2.2,1.3,3.7,3.6,3.7,6.4h9.4v21.1
			c-4.6,3.6-10.4,5.8-16.7,5.8c-5.9,0-11.4-1.9-15.9-5.2V95.8h8.5c0-2.7,1.5-5.1,3.7-6.4l-8.2-14.1c-1.4,0.8-2.7,1.8-4,2.9v-4.5
			c4.5-3.2,9.9-5.2,15.9-5.2C71.2,68.7,77,70.9,81.6,74.5L81.6,74.5z M52.9,116.3c3.5,2,7.6,3.2,11.9,3.2s8.4-1.2,11.9-3.2
			l-8.2-14.1c-1.1,0.6-2.4,1-3.7,1c-1.4,0-2.6-0.4-3.7-1L52.9,116.3z M59.8,95.8c0,2.8,2.3,5.1,5.1,5.1s5.1-2.3,5.1-5.1
			c0-2.8-2.3-5.1-5.1-5.1S59.8,93,59.8,95.8z"/>
		<path class="st9" d="M49,95.8v21.7c-2.6-1.9-4.8-4.1-6.5-6.8v-15H49z"/>
		<path class="st9" d="M42.4,88.2v-7.6c1.8-2.6,4-4.9,6.5-6.8v4.5C46,81,43.7,84.4,42.4,88.2z"/>
		<path class="st10" d="M88.5,95.8c0-6.5-2.6-12.4-6.9-16.7v-4.6c6.3,4.9,10.3,12.6,10.3,21.2c0,8.6-4,16.3-10.3,21.2V95.8
			L88.5,95.8L88.5,95.8z"/>
		<path class="st11" d="M41.2,95.8h1.3v15c-2.9-4.3-4.6-9.5-4.6-15.1c0-5.6,1.7-10.8,4.6-15.1v7.6C41.6,90.6,41.2,93.2,41.2,95.8
			L41.2,95.8z"/>
		<path class="st8" d="M76.3,68.6c-3.6-1.5-7.5-2.3-11.4-2.3c-4,0-7.8,0.8-11.4,2.3c-1.6,0.7-3,1.4-4.4,2.3v-2.8
			c4.8-2.8,10.2-4.2,15.9-4.2c6,0,11.8,1.7,16.7,4.7v2.8C79.9,70.4,78.2,69.4,76.3,68.6L76.3,68.6z"/>
		<path class="st8" d="M44.1,116.5c1.5,1.5,3.1,2.8,4.9,4c1.4,0.9,2.9,1.7,4.4,2.3c3.6,1.5,7.5,2.3,11.4,2.3c4,0,7.8-0.8,11.4-2.3
			c1.9-0.8,3.6-1.8,5.3-2.9v2.8c-5,3.1-10.7,4.7-16.7,4.7c-5.7,0-11.1-1.5-15.9-4.2c-2.4-1.4-4.5-3-6.5-5v-3.5
			C42.9,115.4,43.5,115.9,44.1,116.5L44.1,116.5z"/>
		<path class="st9" d="M44.1,74.9c-0.6,0.6-1.1,1.2-1.6,1.8v-3.5c2-2,4.2-3.6,6.5-5v2.8C47.2,72.1,45.6,73.4,44.1,74.9L44.1,74.9z"
			/>
		<path class="st10" d="M85.6,116.5c2.7-2.7,4.8-5.8,6.3-9.3c1.5-3.6,2.3-7.5,2.3-11.4c0-4-0.8-7.8-2.3-11.4
			c-1.5-3.5-3.6-6.6-6.3-9.3c-1.3-1.3-2.6-2.4-4.1-3.4v-2.8c2.1,1.3,4,2.8,5.7,4.6c6,6,9.3,14,9.3,22.5c0,8.5-3.3,16.5-9.3,22.5
			c-1.8,1.8-3.7,3.3-5.7,4.6v-2.8C83,118.9,84.4,117.8,85.6,116.5L85.6,116.5z"/>
		<path class="st11" d="M33.3,92c0.8-7.1,4-13.7,9.1-18.8c0,0,0,0,0.1-0.1v3.5c-1.9,2.3-3.5,4.8-4.7,7.6c-1.5,3.6-2.3,7.5-2.3,11.4
			c0,4,0.8,7.8,2.3,11.4c1.2,2.8,2.7,5.3,4.7,7.6v3.5c0,0,0,0-0.1-0.1c-5.1-5.1-8.3-11.7-9.1-18.8c-0.1-1.2-0.2-2.4-0.2-3.7
			C33.1,94.5,33.1,93.2,33.3,92L33.3,92z"/>
		<path class="st12" d="M69.9,95.8c0,2.8-2.3,5.1-5.1,5.1s-5.1-2.3-5.1-5.1c0-2.8,2.3-5.1,5.1-5.1S69.9,93,69.9,95.8z"/>
		<path class="st12" d="M64.9,103.2c1.4,0,2.6-0.4,3.7-1l8.2,14.1c-3.5,2-7.6,3.2-11.9,3.2c-4.3,0-8.4-1.2-11.9-3.2l8.2-14.1
			C62.2,102.8,63.5,103.2,64.9,103.2z"/>
		<path class="st13" d="M72.2,95.8c0-2.7-1.5-5.1-3.7-6.4l8.2-14.1c1.8,1,3.4,2.3,4.8,3.7v16.7L72.2,95.8L72.2,95.8z"/>
		<path class="st12" d="M91.9,95.7c0-8.6-4-16.3-10.3-21.2v-3c1.4,1,2.8,2.1,4.1,3.4c2.7,2.7,4.8,5.8,6.3,9.3
			c1.5,3.6,2.3,7.5,2.3,11.4c0,4-0.8,7.8-2.3,11.4c-1.5,3.5-3.6,6.6-6.3,9.3c-1.3,1.3-2.6,2.4-4.1,3.4v-3
			C87.8,112,91.9,104.3,91.9,95.7L91.9,95.7z"/>
		<path class="st12" d="M81.6,95.8V79.1c4.3,4.3,6.9,10.2,6.9,16.7H81.6z"/>
		<path class="st13" d="M52.9,75.4l8.2,14.1c-2.2,1.3-3.7,3.6-3.7,6.4H49V78.3C50.2,77.2,51.5,76.2,52.9,75.4z"/>
		<path class="st13" d="M64.9,68.7c-5.9,0-11.4,1.9-15.9,5.2V71c1.4-0.9,2.9-1.7,4.4-2.3c3.6-1.5,7.5-2.3,11.4-2.3
			c4,0,7.8,0.8,11.4,2.3c1.9,0.8,3.6,1.8,5.3,2.9v3C77,70.9,71.2,68.7,64.9,68.7L64.9,68.7z"/>
		<path class="st13" d="M64.9,122.7c6.3,0,12.1-2.2,16.7-5.8v3c-1.7,1.1-3.4,2.1-5.3,2.9c-3.6,1.5-7.5,2.3-11.4,2.3
			c-4,0-7.8-0.8-11.4-2.3c-1.6-0.7-3-1.4-4.4-2.3v-2.9C53.4,120.8,58.9,122.7,64.9,122.7L64.9,122.7z"/>
		<path class="st14" d="M41.2,95.8c0-2.7,0.4-5.2,1.3-7.6c1.3-3.9,3.6-7.3,6.5-9.9v17.5H41.2z"/>
		<path class="st14" d="M49,71v2.9c-2.6,1.9-4.8,4.1-6.5,6.8c-2.9,4.3-4.6,9.5-4.6,15.1c0,5.6,1.7,10.8,4.6,15.1
			c1.8,2.6,4,4.9,6.5,6.8v2.9c-1.8-1.1-3.4-2.5-4.9-4c-0.6-0.6-1.1-1.2-1.6-1.8c-1.9-2.3-3.5-4.8-4.7-7.6c-1.5-3.6-2.3-7.5-2.3-11.4
			c0-4,0.8-7.8,2.3-11.4c1.2-2.8,2.7-5.3,4.7-7.6c0.5-0.6,1.1-1.2,1.6-1.8C45.6,73.4,47.2,72.1,49,71L49,71z"/>
		<path class="st2" d="M4.9,145.8h119.9c0.9,0,1.7-0.5,2.1-1.3c0.1-0.2,0.2-0.4,0.2-0.7c0-0.2,0.1-0.3,0.1-0.5v2.2
			c0,1.4-1.1,2.5-2.4,2.5h-11.6v28.5H99.4V148H4.9c-1.3,0-2.4-1.1-2.4-2.5v-2.2C2.5,144.7,3.6,145.8,4.9,145.8L4.9,145.8z"/>
		<path class="st2" d="M4.9,55.1h119.2v2.2h-10.9v80.7H99.4V57.3H4.9c-1.3,0-2.4-1.1-2.4-2.5v-2.2C2.5,53.9,3.6,55,4.9,55.1
			L4.9,55.1z"/>
		<path class="st15" d="M125.8,54.8c-0.1,0-0.2,0.1-0.2,0.1c-0.1,0-0.1,0.1-0.2,0.1c0,0,0,0,0,0c-0.1,0-0.1,0-0.2,0c0,0,0,0,0,0
			c-0.1,0-0.2,0-0.3,0h-0.7L125.8,54.8L125.8,54.8z"/>
	</g>
</g>
</svg>
