<svg width="255" height="270" viewBox="0 0 255 270" fill="none" xmlns="http://www.w3.org/2000/svg">
<g clip-path="url(#clip0_2_162104)">
<path d="M115.014 103.595C114.572 101.322 114.126 99.0492 113.679 96.7803C108.626 98.3358 103.961 100.75 99.7881 103.807C88.0454 112.41 80.3809 126.293 80.3809 142.006C80.3809 146.199 80.9758 150.244 81.9964 154.114C84.1532 153.375 86.3142 152.633 88.4751 151.89C87.6818 148.73 87.2604 145.419 87.2604 142.01C87.2604 124.078 98.9038 108.876 115.014 103.6V103.595Z" fill="#869DAC"/>
<path d="M134.52 102.223C136.388 102.554 138.206 103.015 139.974 103.591C140.416 101.318 140.862 99.0453 141.309 96.7763C142.168 92.3919 143.023 88.049 143.866 83.7683C146.502 70.4242 149.006 57.86 150.973 48.0335C143.453 46.1378 135.59 45.1299 127.496 45.1299C119.402 45.1299 111.535 46.142 104.015 48.0376C104.519 50.5513 105.056 53.2392 105.622 56.0805C116.505 58.2541 138.809 67.0146 134.516 102.227L134.52 102.223Z" fill="#AEA792"/>
<path d="M67.2619 203.823C67.2619 203.823 56.5522 173.335 90.3919 157.643C89.6151 155.789 88.9747 153.865 88.4789 151.882C86.3179 152.624 84.157 153.367 82.0002 154.105C80.7937 154.52 79.5954 154.931 78.3931 155.341C74.1951 156.781 70.0385 158.199 65.9811 159.585C54.3995 163.538 43.632 167.188 35.1328 170.067C39.8266 185.605 48.3092 199.505 59.5023 210.671C61.5104 208.896 63.7003 206.963 65.9811 204.947C66.4108 204.565 66.8198 204.209 67.2578 203.819L67.2619 203.823Z" fill="#AEA792"/>
<path d="M157.555 168.856C156.15 170.44 154.622 171.913 152.985 173.261C156.663 176.48 160.348 179.711 163.98 182.901C168.381 186.763 172.686 190.554 176.818 194.192C181.144 198.004 185.234 201.612 189.015 204.947C191.292 206.959 193.49 208.9 195.494 210.672C206.687 199.501 215.169 185.605 219.863 170.067C216.752 169.013 213.339 167.856 209.695 166.62C202.03 174.746 185.829 184.332 157.555 168.852V168.856Z" fill="#AEA792"/>
<path d="M80.5335 253.599C95.4122 259.916 111.212 263.118 127.496 263.118C143.779 263.118 159.58 259.916 174.458 253.599C188.825 247.497 201.728 238.765 212.806 227.645C223.883 216.524 232.581 203.574 238.659 189.147C244.951 174.211 248.141 158.349 248.141 142.002C248.141 125.654 244.951 109.792 238.659 94.8556C232.581 80.4331 223.883 67.479 212.806 56.3583C201.728 45.2375 188.829 36.506 174.458 30.4044C159.58 24.087 143.779 20.8848 127.496 20.8848C111.212 20.8848 95.4122 24.087 80.5335 30.4044C66.1671 36.506 53.2634 45.2375 42.186 56.3583C31.1086 67.479 22.4111 80.429 16.3331 94.8556C10.0404 109.792 6.85059 125.654 6.85059 142.002C6.85059 158.349 10.0404 174.211 16.3331 189.147C22.4111 203.57 31.1086 216.524 42.186 227.645C53.2634 238.765 66.163 247.497 80.5335 253.599ZM243.621 123.253C244.604 129.408 245.108 135.663 245.108 141.997C245.108 157.805 242.022 173.145 235.936 187.588C230.06 201.533 221.648 214.06 210.938 224.812C200.228 235.563 187.75 244.009 173.859 249.907C159.472 256.017 144.193 259.115 128.446 259.115C127.657 259.115 126.868 259.103 126.079 259.086C158.406 255.971 187.283 240.997 208.339 218.544C213.454 213.197 218.07 207.361 222.107 201.118C235.779 180.428 243.741 155.611 243.741 128.927C243.741 127.027 243.699 125.136 243.617 123.253H243.621ZM44.7023 224.447C33.9926 213.695 25.5802 201.168 19.7047 187.223C13.6185 172.779 10.532 157.44 10.532 141.632C10.532 125.824 13.6185 110.485 19.7047 96.0419C25.5802 82.0964 33.9926 69.5696 44.7023 58.818C55.412 48.0665 67.8901 39.6212 81.7813 33.7228C96.1683 27.6128 111.448 24.5142 127.194 24.5142C142.941 24.5142 158.22 27.6128 172.607 33.7228C186.498 39.6212 198.977 48.0665 209.686 58.818C210.732 59.8674 211.748 60.9376 212.748 62.0161C210.686 60.0914 208.558 58.2539 206.377 56.4951C186.106 39.3972 159.96 29.0978 131.413 29.0978C67.0142 29.0978 14.8085 81.5074 14.8085 146.158C14.8085 176.301 26.1586 203.781 44.8014 224.53C44.7725 224.501 44.7395 224.472 44.7105 224.438L44.7023 224.447ZM24.1464 142.006C24.1464 84.7968 70.5097 38.2523 127.496 38.2523C184.482 38.2523 230.845 84.7968 230.845 142.006C230.845 199.215 184.482 245.759 127.496 245.759C70.5097 245.759 24.1464 199.215 24.1464 142.006Z" fill="#BDBDB1"/>
<path d="M131.413 29.1021C159.96 29.1021 186.11 39.4015 206.377 56.4994C208.558 58.2582 210.686 60.0957 212.748 62.0204C211.748 60.9378 210.732 59.8676 209.686 58.8223C198.977 48.0708 186.499 39.6255 172.607 33.7271C158.22 27.6171 142.941 24.5186 127.194 24.5186C111.448 24.5186 96.1685 27.6171 81.7815 33.7271C67.8903 39.6255 55.4122 48.0708 44.7025 58.8223C33.9928 69.5739 25.5803 82.1007 19.7049 96.0462C13.6187 110.489 10.5322 125.829 10.5322 141.637C10.5322 157.445 13.6187 172.784 19.7049 187.227C25.5803 201.173 33.9928 213.699 44.7025 224.451C44.7314 224.48 44.7644 224.509 44.7934 224.542C26.1505 203.794 14.8004 176.314 14.8004 146.17C14.8004 81.52 67.0061 29.1104 131.405 29.1104L131.413 29.1021Z" fill="#F2E1D0"/>
<path d="M208.344 218.544C187.288 240.997 158.41 255.972 126.083 259.087C126.872 259.103 127.661 259.116 128.451 259.116C144.197 259.116 159.476 256.017 173.863 249.907C187.759 244.009 200.233 235.563 210.943 224.812C221.656 214.06 230.065 201.534 235.94 187.588C242.026 173.145 245.113 157.806 245.113 141.998C245.113 135.664 244.609 129.409 243.625 123.253C243.704 125.136 243.749 127.023 243.749 128.927C243.749 155.611 235.783 180.433 222.115 201.119C218.078 207.366 213.463 213.198 208.348 218.544H208.344Z" fill="#F2E1D0"/>
<path d="M127.5 174.862C145.548 174.862 160.232 160.12 160.232 142.002C160.232 123.884 145.548 109.142 127.5 109.142C109.452 109.142 94.7676 123.884 94.7676 142.002C94.7676 160.12 109.452 174.862 127.5 174.862ZM113.518 118.064L141.16 117.877L155.142 141.815L141.482 165.94L113.84 166.126L99.858 142.189L113.518 118.06V118.064Z" fill="#AEA792"/>
<path d="M136.606 157.598L145.506 141.881L136.396 126.289L118.389 126.409L109.493 142.126L118.6 157.722L136.606 157.598Z" fill="#D9D7C6"/>
<path d="M78.3932 260.144C85.3471 263.06 92.4993 265.313 99.7878 266.939C107.622 268.685 115.625 269.676 123.752 269.909C125 269.946 126.244 270 127.496 270C133.012 270 138.466 269.614 143.866 268.922C150.688 268.046 157.402 266.632 163.98 264.662C168.322 263.359 172.607 261.837 176.818 260.061C176.921 260.016 177.028 259.983 177.132 259.937C181.21 258.207 185.168 256.258 189.015 254.13C199.493 248.335 209.095 241.109 217.652 232.515C219.161 231.001 220.627 229.449 222.053 227.869C222.053 227.869 237.568 214.43 247.612 185.012C252.513 171.245 254.992 156.81 254.992 142.006C254.992 124.734 251.62 107.968 244.964 92.1804C238.543 76.9366 229.35 63.2483 217.648 51.5012C209.087 42.9066 199.485 35.6808 189.011 29.8861C185.164 27.7582 181.206 25.8086 177.127 24.0789C177.024 24.0333 176.917 24.0001 176.813 23.9545C172.603 22.1792 168.318 20.6568 163.976 19.3544C160.265 18.2427 156.514 17.2804 152.721 16.513C152.721 16.513 126.678 8.94711 102.271 16.513C100.399 17.0937 98.5152 17.5085 96.627 17.7906C90.4251 19.3419 84.3389 21.3869 78.3891 23.8798C78.2155 23.9545 78.0337 24.0043 77.8602 24.0789C73.7821 25.8128 69.8238 27.7582 65.9771 29.8861C55.4987 35.6808 45.8964 42.9066 37.3352 51.5012C25.6297 63.2524 16.4405 76.9366 10.0156 92.1804C3.37157 107.968 0 124.734 0 142.006C0 156.814 2.48323 171.245 7.37945 185.012C7.37945 185.012 14.073 210.709 32.9389 227.869C33.1249 228.039 33.3273 228.259 33.5381 228.516C34.7776 229.868 36.0378 231.204 37.3393 232.511C45.9005 241.105 55.5029 248.331 65.9812 254.126C69.8279 256.254 73.7862 258.203 77.8643 259.933C78.0379 260.008 78.2155 260.07 78.3932 260.14V260.144ZM42.1901 227.645C31.1127 216.524 22.4152 203.574 16.3373 189.148C10.0445 174.211 6.85471 158.349 6.85471 142.002C6.85471 125.655 10.0445 109.793 16.3373 94.8558C22.4152 80.4333 31.1127 67.4792 42.1901 56.3585C53.2675 45.2377 66.1671 36.5063 80.5376 30.4046C95.4163 24.0872 111.216 20.885 127.5 20.885C143.784 20.885 159.584 24.0872 174.462 30.4046C188.829 36.5063 201.732 45.2377 212.81 56.3585C223.887 67.4792 232.585 80.4292 238.663 94.8558C244.956 109.793 248.145 125.655 248.145 142.002C248.145 158.349 244.956 174.211 238.663 189.148C232.585 203.57 223.887 216.524 212.81 227.645C201.732 238.766 188.833 247.497 174.462 253.599C159.584 259.916 143.784 263.118 127.5 263.118C111.216 263.118 95.4163 259.916 80.5376 253.599C66.1712 247.497 53.2675 238.766 42.1901 227.645Z" fill="#AEA792"/>
<path d="M96.6309 17.7825C98.5191 17.5045 100.403 17.0856 102.275 16.5049C101.444 16.6708 100.618 16.8823 99.7917 17.0649C98.7381 17.3013 97.6803 17.517 96.635 17.7783L96.6309 17.7825Z" fill="#BDBDB1"/>
<path d="M222.057 227.869C232.452 228.843 242.955 223.824 248.517 214.151C253.925 204.748 253.207 193.49 247.616 185.012C237.572 214.425 222.057 227.869 222.057 227.869Z" fill="#BDBDB1"/>
<path d="M127.5 245.76C184.486 245.76 230.85 199.215 230.85 142.006C230.85 84.7974 184.486 38.2529 127.5 38.2529C70.5139 38.2529 24.1465 84.7932 24.1465 142.006C24.1465 199.219 70.5098 245.76 127.496 245.76H127.5ZM59.5067 210.676C48.3136 199.505 39.8309 185.61 35.1372 170.071C32.4515 161.182 31.0012 151.762 31.0012 142.002C31.0012 112.058 44.6569 85.3076 65.9854 67.5252C69.8776 64.2773 74.0218 61.3447 78.3974 58.7356C85.0621 54.7619 92.2266 51.5762 99.792 49.2948C101.201 48.8717 102.589 48.3989 104.023 48.038C111.543 46.1424 119.406 45.1303 127.504 45.1303C135.603 45.1303 143.461 46.1424 150.981 48.0339C155.456 49.1621 159.782 50.6637 163.988 52.3975C168.447 54.2351 172.727 56.4045 176.826 58.8601C181.119 61.436 185.193 64.3312 189.023 67.5252C210.352 85.3076 224.003 112.062 224.003 142.002C224.003 151.758 222.553 161.182 219.867 170.071C215.173 185.61 206.691 199.51 195.498 210.676C193.432 212.738 191.262 214.7 189.019 216.57C185.189 219.76 181.115 222.655 176.822 225.227C172.727 227.683 168.438 229.835 163.984 231.669C157.592 234.299 150.857 236.252 143.87 237.455C138.544 238.372 133.082 238.878 127.5 238.878C126.244 238.878 125 238.832 123.757 238.783C115.46 238.463 107.428 237.09 99.792 234.788C92.2308 232.507 85.0579 229.321 78.3974 225.352C74.0301 222.747 69.8776 219.814 65.9854 216.57C63.7418 214.7 61.5726 212.738 59.5067 210.676Z" fill="#AEA792"/>
<path d="M102.01 173.261C108.952 178.969 117.823 182.399 127.496 182.399C137.168 182.399 146.043 178.973 152.981 173.261C154.617 171.913 156.146 170.441 157.55 168.856C185.82 184.341 202.025 174.75 209.69 166.625C203.372 164.48 196.357 162.095 189.01 159.59C185.023 158.229 180.937 156.831 176.813 155.421C175.54 154.985 174.268 154.55 172.995 154.11C170.838 153.372 168.677 152.629 166.517 151.887C167.31 148.726 167.731 145.412 167.731 142.006C167.731 124.071 156.084 108.864 139.969 103.596C138.201 103.02 136.379 102.559 134.515 102.227C138.808 67.0151 116.505 58.2546 105.622 56.0811C107.981 67.8945 110.828 82.234 113.679 96.7851C114.125 99.0541 114.567 101.327 115.013 103.6C98.9032 108.872 87.2597 124.075 87.2597 142.01C87.2597 145.42 87.6812 148.73 88.4745 151.891C88.9703 153.874 89.6107 155.798 90.3875 157.653C56.5478 173.34 67.2575 203.828 67.2575 203.832C70.72 200.775 74.5006 197.44 78.3887 194.014C84.2642 188.837 90.4743 183.378 96.7919 177.841C98.5314 176.314 100.267 174.792 102.01 173.265V173.261ZM127.496 109.146C145.543 109.146 160.228 123.888 160.228 142.006C160.228 160.125 145.543 174.867 127.496 174.867C109.448 174.867 94.7631 160.125 94.7631 142.006C94.7631 123.888 109.448 109.146 127.496 109.146Z" fill="#BDBDB1"/>
<path d="M141.482 165.943L155.142 141.819L141.16 117.881L113.518 118.068L99.8584 142.196L113.841 166.134L141.482 165.948V165.943ZM118.39 126.409L136.396 126.289L145.503 141.885L136.603 157.602L118.596 157.722L109.49 142.126L118.39 126.409Z" fill="#F2E1D0"/>
<path d="M7.37949 185.012C1.78913 193.49 1.07019 204.748 6.47875 214.151C12.0402 223.824 22.5433 228.843 32.9431 227.869C14.0731 210.708 7.38362 185.012 7.38362 185.012H7.37949Z" fill="#BDBDB1"/>
<path d="M143.867 5.48777C139.284 2.06984 133.649 0 127.496 0C126.224 0 124.98 0.111995 123.753 0.282062C114.122 1.59697 106.069 7.8853 102.271 16.5089C126.678 8.94303 152.721 16.5089 152.721 16.5089C150.779 12.0955 147.68 8.33328 143.862 5.49192L143.867 5.48777Z" fill="#BDBDB1"/>
</g>
<defs>
<clipPath id="clip0_2_162104">
<rect width="255" height="270" fill="white"/>
</clipPath>
</defs>
</svg>
