<svg width="27" height="65" viewBox="0 0 27 65" fill="none" xmlns="http://www.w3.org/2000/svg">
<g clip-path="url(#clip0_1152_212739)">
<path d="M18.9057 1.09109C18.9057 1.09109 12.4374 0.752362 10.4892 7.04696C10.4892 7.04696 7.60101 3.73601 0.0625 6.09975C0.0625 6.09975 3.85394 11.7879 3.92518 17.6932C3.99641 23.598 13.6207 17.6895 13.6207 17.6895L19.3348 12.4931C19.3348 12.4931 17.1203 6.16546 18.9061 1.09109H18.9057Z" fill="#FF78A5"/>
<g style="mix-blend-mode:overlay" opacity="0.3">
<path d="M18.2013 2.4043C17.8516 2.75486 17.7343 3.27029 17.6525 3.7592C17.2866 5.94828 17.3281 8.20509 17.7746 10.3795C16.457 9.59183 13.246 8.13776 13.7825 6.22619C14.0447 5.29164 14.8043 4.38972 15.5207 3.76737C15.9213 3.41925 16.365 3.1193 16.8404 2.88341C17.1579 2.72548 17.979 2.62712 18.2013 2.4047V2.4043Z" fill="#48004C"/>
</g>
<g style="mix-blend-mode:overlay" opacity="0.3">
<path d="M9.98864 11.6672C9.37478 9.86341 7.91096 8.41015 6.17481 7.63312C4.45535 6.86303 2.49409 6.72427 0.638672 7.04994C0.756315 7.25603 0.887798 7.49192 1.02824 7.75514C1.717 8.89865 2.26735 10.1262 2.6618 11.4024C2.90767 12.0774 3.13685 12.7948 3.33103 13.5404C3.65465 14.3636 4.05032 15.1324 4.50379 15.9682C4.55997 16.0719 4.6312 16.1821 4.74478 16.2135C4.86486 16.2466 4.98698 16.1796 5.09282 16.1139C6.88392 14.9982 8.8924 13.4739 9.98823 11.6676L9.98864 11.6672Z" fill="#48004C"/>
</g>
<path d="M11.8399 56.0991C11.0603 59.028 10.28 61.9566 9.625 64.91C10.1916 64.9627 10.7607 64.9925 11.331 64.9998C11.6091 64.9823 11.8863 64.9586 12.1631 64.9313C12.7004 62.5402 13.3118 60.1862 13.9574 57.7654C14.9372 54.0912 15.9244 50.4113 16.5765 46.6743C16.9351 44.6183 17.1896 42.5443 17.2714 40.4597C17.3121 39.4174 17.2942 38.3784 17.2189 37.3348C17.1859 36.8745 17.1346 36.4146 17.0735 35.9554C16.8969 35.9518 16.7198 35.9554 16.5423 35.9685C15.9256 36.0146 15.3407 36.1456 14.7891 36.3423C14.796 36.6072 14.8005 36.8725 14.8045 37.1377C14.8188 38.0478 14.818 38.9575 14.7915 39.8663C14.7382 41.6893 14.5513 43.505 14.2745 45.3076C13.7067 49.0042 12.8001 52.4898 11.8395 56.0987L11.8399 56.0991Z" fill="#83A519"/>
<path d="M16.7345 42.7795C16.7219 42.3134 16.695 41.849 16.6299 41.385C16.572 40.9724 16.5493 40.5255 16.2159 40.1982C16.1442 40.128 15.9936 40.1199 15.935 40.2064C15.6956 40.5586 15.7481 40.9516 15.7453 41.352C15.742 41.8009 15.7477 42.2498 15.7408 42.6983C15.727 43.579 15.672 44.4519 15.5882 45.3277C15.5047 46.1998 15.3745 47.0687 15.1982 47.9286C15.0207 48.7933 14.7256 49.6626 14.645 50.5388C14.6336 50.6641 14.8396 50.7363 14.9198 50.6269C15.4551 49.896 15.7424 48.9896 15.9903 48.1526C16.2509 47.2727 16.4479 46.3769 16.5802 45.473C16.71 44.5858 16.7593 43.6765 16.7349 42.7791L16.7345 42.7795Z" fill="#A6C427"/>
<g style="mix-blend-mode:overlay" opacity="0.3">
<path d="M11.8399 56.0991C11.0603 59.028 10.28 61.9566 9.625 64.91C10.0475 64.9492 10.4713 64.9762 10.8955 64.9896C11.1979 63.3266 11.5028 61.6619 11.9408 60.0242C12.4476 58.1298 13.1315 56.2774 13.6867 54.394C14.967 50.0526 15.5613 45.5467 15.4473 41.0388C15.4351 40.5548 15.4221 40.0426 15.6972 39.6268C15.972 39.2109 16.6502 38.9595 17.1114 39.244C17.1814 39.2872 17.2404 39.339 17.2913 39.3962C17.2921 38.7093 17.2677 38.0229 17.2181 37.3348C17.1851 36.8745 17.1338 36.4146 17.0727 35.9554C16.8961 35.9518 16.719 35.9554 16.5415 35.9685C15.9248 36.0146 15.3398 36.1456 14.7883 36.3423C14.7952 36.6072 14.7997 36.8725 14.8037 37.1377C14.818 38.0478 14.8172 38.9575 14.7907 39.8663C14.7374 41.6893 14.5505 43.505 14.2737 45.3076C13.7059 49.0042 12.7993 52.4898 11.8386 56.0987L11.8399 56.0991Z" fill="#000A33"/>
</g>
<path d="M21.7731 27.9845C22.0483 24.8078 21.5492 21.4508 20.9113 18.6275C20.1558 15.2831 18.8971 12.2235 17.091 9.30355C16.4909 8.33431 9.87974 0.30567 10.0633 0C5.40605 7.7397 3.95933 17.3559 6.13227 26.1285C6.80719 28.853 7.99542 31.7624 9.92167 33.9253C11.6847 35.9054 15.6219 38.3459 18.1038 36.1589C20.481 34.0637 21.5024 31.1118 21.7731 27.9845Z" fill="#F44775"/>
<path d="M15.648 35.4937C15.3879 34.5625 14.8836 33.7018 14.5644 32.7864C14.2302 31.8282 14.0015 30.8401 13.7914 29.848C13.3428 27.7296 13.0135 25.5801 12.6793 23.4408C11.9856 18.9969 11.3897 14.5315 10.9195 10.0586C10.7881 8.80781 10.6216 7.56023 10.4868 6.3098C10.3484 5.02754 10.3167 3.75139 10.002 2.49688C9.98694 2.4373 9.89901 2.43362 9.89047 2.49974C9.74148 3.65508 9.84732 4.77696 9.90634 5.93638C9.96415 7.0701 10.0138 8.20381 10.0806 9.33671C10.2157 11.6217 10.4661 13.9046 10.7189 16.179C10.9712 18.4542 11.2924 20.7216 11.6441 22.9833C11.9873 25.1912 12.3345 27.4047 12.7965 29.5909C13.0265 30.6802 13.3164 31.7563 13.6892 32.8056C14.047 33.8136 14.4696 34.984 15.2748 35.7211C15.4205 35.8545 15.7022 35.688 15.648 35.4937Z" fill="#ED376B"/>
<path d="M15.8596 29.7951C15.5868 27.9133 15.2958 26.034 14.9803 24.1588C14.3485 20.4071 13.6614 16.6647 12.8253 12.9526C12.59 11.9091 12.3531 10.866 12.1056 9.82532C11.9847 9.31723 11.8642 8.80955 11.7388 8.30269C11.6 7.74277 11.3916 7.19917 11.2585 6.64048C11.2483 6.59763 11.1823 6.60701 11.1901 6.6515C11.2711 7.11306 11.2788 7.58442 11.3517 8.04885C11.4241 8.51164 11.5011 8.97402 11.5768 9.43599C11.7323 10.3865 11.8898 11.3365 12.0441 12.2874C12.3445 14.1378 12.6421 15.9893 12.9645 17.836C13.6142 21.5567 14.2541 25.279 14.8838 29.003C15.2254 31.0235 15.5453 33.0354 15.6153 35.0862C15.621 35.2502 15.8962 35.2784 15.9385 35.1217C16.4136 33.3713 16.1152 31.5585 15.8596 29.7947V29.7951Z" fill="#ED376B"/>
<path d="M11.6397 9.80812C11.4964 8.84908 11.3503 7.89085 11.1944 6.93384C11.0421 6.00214 10.8419 5.07983 10.6721 4.15139C10.5826 3.66166 10.5154 3.16786 10.4311 2.67732C10.3452 2.17739 10.1682 1.71705 10.0538 1.22528C10.0416 1.17304 9.96951 1.1857 9.97276 1.23834C10.0004 1.71745 9.95852 2.18677 10.0114 2.66548C10.0664 3.16051 10.1413 3.6535 10.1967 4.14853C10.3045 5.1137 10.3705 6.08335 10.491 7.0473C10.6082 7.9839 10.7344 8.91886 10.8642 9.85383C10.9917 10.7725 11.0377 11.8393 11.4504 12.6828C11.5481 12.8828 11.8306 12.831 11.8669 12.6175C12.0203 11.7148 11.7732 10.7023 11.6397 9.80812Z" fill="#ED4F79"/>
<path d="M9.01601 3.17423C8.52102 4.36059 8.04597 5.50369 7.74066 6.75943C7.59453 7.36016 7.45042 7.96334 7.32953 8.56978C7.21962 9.12235 6.99614 9.86959 7.2416 10.405C7.30754 10.5491 7.53754 10.6393 7.66414 10.5075C8.05818 10.0973 8.11395 9.43863 8.2267 8.90034C8.3586 8.27064 8.47583 7.63808 8.61301 7.0096C8.88656 5.75794 9.04695 4.4969 9.27735 3.23953C9.30584 3.08445 9.073 3.03588 9.0152 3.17423H9.01601Z" fill="#ED4F79"/>
<path d="M13.9733 6.07788C13.6602 5.5755 13.3142 5.09639 12.9414 4.63727C12.5571 4.16428 12.0934 3.80882 11.6697 3.37909C11.6339 3.34276 11.5537 3.37827 11.5854 3.43051C11.8622 3.88718 12.0666 4.39078 12.3535 4.84663C12.6658 5.34329 12.9878 5.83383 13.2849 6.33988C13.5605 6.80879 13.8137 7.28668 14.0482 7.77763C14.2847 8.27266 14.4671 8.83258 14.8184 9.26028C14.9181 9.38148 15.1171 9.32231 15.1367 9.16723C15.269 8.11024 14.5065 6.93245 13.9741 6.07747L13.9733 6.07788Z" fill="#ED4F79"/>
<g style="mix-blend-mode:overlay" opacity="0.2">
<path d="M16.9322 10.4088C16.6578 11.5278 16.3 12.6264 15.8848 13.7006C15.6793 14.2323 15.4558 14.7584 15.2266 15.2803C14.9889 15.8219 14.8126 16.3887 14.5781 16.9311C14.546 17.0058 14.6543 17.0654 14.7019 17.0001C15.0467 16.5234 15.411 16.0623 15.6874 15.5403C15.9548 15.0343 16.1909 14.5151 16.4095 13.9862C16.8691 12.8733 17.2306 11.7237 17.5168 10.5545C17.5481 10.4272 17.5778 10.299 17.6075 10.1709C17.4602 9.9154 17.3096 9.66115 17.1545 9.40771C17.0877 9.74236 17.0144 10.0762 16.933 10.4088H16.9322Z" fill="#CFF6FF"/>
<path d="M14.0084 7.08654C13.9127 8.03783 13.7923 8.98627 13.66 9.93307C13.592 10.4191 13.5236 10.9052 13.4556 11.3912C13.3905 11.8561 13.3009 12.3446 13.3624 12.8139C13.3787 12.9396 13.5407 12.9371 13.5903 12.8388C13.7939 12.4368 13.8704 11.9638 13.9567 11.5243C14.0516 11.0415 14.144 10.5583 14.2294 10.0735C14.4049 9.08013 14.5669 8.08436 14.7016 7.08491C14.7358 6.83025 14.7676 6.5756 14.7969 6.32094C14.5864 6.05445 14.3695 5.7802 14.1497 5.50146C14.1094 6.03037 14.0617 6.55927 14.0088 7.08654H14.0084Z" fill="#CFF6FF"/>
<path d="M15.4067 9.15495C15.2341 10.1593 14.9944 11.1498 14.7078 12.1276C14.5694 12.5994 14.4147 13.0662 14.2641 13.5339C14.1277 13.9575 13.8806 14.4677 13.9767 14.9186C13.9926 14.9933 14.0834 15.0647 14.1607 15.0182C14.5433 14.7888 14.7131 14.3346 14.893 13.9424C15.1181 13.4523 15.2964 12.9401 15.4637 12.428C15.7878 11.4363 16.0332 10.418 16.2201 9.39166C16.2828 9.04803 16.3393 8.70114 16.3894 8.35221C16.1728 8.07103 15.9176 7.74414 15.6363 7.38623C15.5793 7.97717 15.5073 8.56688 15.4063 9.15455L15.4067 9.15495Z" fill="#CFF6FF"/>
<path d="M9.24413 5.95388C9.32962 6.25914 9.37073 6.73173 9.68418 6.87415C9.7029 6.88272 9.72529 6.87415 9.7375 6.85905C9.94266 6.59624 9.77129 6.17548 9.70941 5.87838C9.61335 5.41763 9.51646 4.95688 9.41022 4.49858C9.22826 3.71339 9.03897 2.9286 8.88144 2.1377C8.741 2.41561 8.60381 2.69557 8.4707 2.97717C8.58997 3.48974 8.72064 3.99947 8.85131 4.5096C8.97506 4.99279 9.1098 5.47313 9.24413 5.95347V5.95388Z" fill="#CFF6FF"/>
<path d="M12.8859 4.73345C12.9648 5.69821 12.9978 6.66664 13.0149 7.63426C13.0235 8.12562 13.0194 8.61738 13.0218 9.10874C13.0239 9.59397 13.0723 10.1025 13.0267 10.5844C13.019 10.6661 13.1362 10.6767 13.1513 10.5983C13.2433 10.1143 13.4081 9.64784 13.4989 9.16138C13.5933 8.65656 13.6528 8.14765 13.698 7.63589C13.7761 6.75112 13.7769 5.86145 13.733 4.97464C13.4171 4.57429 13.0996 4.17108 12.791 3.77686C12.8272 4.09558 12.8602 4.41472 12.8863 4.73386L12.8859 4.73345Z" fill="#CFF6FF"/>
<path d="M9.69784 8.26002C9.80408 8.34368 9.96284 8.21716 9.90341 8.09473C9.5114 7.29077 8.97733 6.56067 8.54665 5.77711C8.29427 5.31799 8.06427 4.84663 7.85463 4.3667C7.73862 4.64421 7.62627 4.92295 7.51758 5.20331C7.65842 5.48572 7.8066 5.76446 7.96413 6.03789C8.4286 6.84512 8.95982 7.67724 9.69825 8.26002H9.69784Z" fill="#CFF6FF"/>
<path d="M9.97866 28.5058C10.2131 28.5883 10.4533 28.6617 10.6947 28.7197C11.0322 28.8005 11.3159 28.7785 11.6546 28.8091C11.7335 28.8164 11.773 28.6883 11.6896 28.6675C11.4258 28.6009 11.1799 28.4679 10.9206 28.3801C10.68 28.2989 10.4407 28.2169 10.2058 28.1206C9.68761 27.9088 9.18569 27.6651 8.70739 27.3734C7.79637 26.8171 6.97571 26.1221 6.22345 25.3667C6.1054 25.2484 5.98939 25.128 5.875 25.0063C5.94664 25.3455 6.02358 25.6838 6.10581 26.0209C6.84423 26.7175 7.65186 27.3366 8.53764 27.8361C8.99885 28.0961 9.47878 28.3304 9.97866 28.5058Z" fill="#CFF6FF"/>
<path d="M17.8406 11.7557C17.2702 14.1827 16.2974 16.4616 15.1795 18.68C15.1116 18.8147 15.3175 18.9192 15.4042 18.8057C16.9389 16.7966 17.9452 14.3917 18.5545 11.9467C18.384 11.6007 18.2073 11.2566 18.0225 10.915C17.9663 11.1966 17.9057 11.477 17.8401 11.7561L17.8406 11.7557Z" fill="#CFF6FF"/>
<path d="M20.2731 25.5776C19.9063 26.0661 19.5302 26.5477 19.1479 27.0244C18.9424 27.2806 18.7303 27.532 18.5292 27.792C18.3708 27.9965 18.2084 28.1695 18.1665 28.4319C18.1616 28.4637 18.1954 28.5009 18.2288 28.4915C18.7087 28.3515 19.0865 27.7557 19.4003 27.3872C19.8273 26.886 20.2409 26.3738 20.6435 25.8527C21.0339 25.3466 21.4145 24.8324 21.7841 24.3105C21.7662 24.0525 21.745 23.7954 21.7206 23.5396C21.2545 24.2305 20.7742 24.9116 20.2739 25.5776H20.2731Z" fill="#CFF6FF"/>
<path d="M11.5354 30.5695C11.0058 30.292 10.503 29.917 10.0056 29.5852C9.5281 29.2669 9.05468 28.9436 8.59184 28.6041C7.81678 28.0356 7.06126 27.4439 6.31836 26.835C6.41524 27.1831 6.52067 27.5324 6.63465 27.8822C7.16262 28.2919 7.70117 28.6882 8.25357 29.0616C8.76932 29.4105 9.29322 29.7492 9.83544 30.0553C10.354 30.3483 10.8991 30.572 11.4267 30.8434C11.5956 30.9303 11.701 30.656 11.5354 30.5691V30.5695Z" fill="#CFF6FF"/>
<path d="M18.4859 25.6858C18.2791 25.987 18.0735 26.2894 17.8744 26.5955C17.6611 26.9236 17.5093 27.2958 17.2919 27.6166C17.2292 27.7092 17.3599 27.8055 17.4307 27.7198C17.6795 27.4191 17.988 27.1709 18.2371 26.8649C18.4826 26.5633 18.7167 26.2507 18.9434 25.9348C19.3969 25.303 19.8398 24.6627 20.2591 24.0077C20.7048 23.3123 21.1261 22.5989 21.5185 21.8701C21.4693 21.5317 21.4159 21.1963 21.3586 20.8657C20.8558 21.8913 20.2888 22.8826 19.6859 23.8539C19.3008 24.4742 18.899 25.0839 18.4859 25.6858Z" fill="#CFF6FF"/>
<path d="M17.5859 19.9569C17.3347 20.476 17.0668 20.9869 16.7656 21.4787C16.4741 21.9541 16.1167 22.3835 15.8485 22.872C15.8106 22.9413 15.9055 23.0311 15.9726 22.9915C16.9341 22.4271 17.5134 21.2338 18.0116 20.2748C18.5933 19.1541 19.127 17.9996 19.6151 16.8349C19.7791 16.4431 19.9346 16.0476 20.0796 15.6481C19.99 15.3808 19.8964 15.1151 19.7999 14.8511C19.5903 15.4796 19.3481 16.0978 19.0896 16.7059C18.6231 17.8045 18.1053 18.8823 17.5859 19.9561V19.9569Z" fill="#CFF6FF"/>
<path d="M18.6112 14.6058C18.2575 15.746 17.8219 16.8651 17.3053 17.9412C16.792 19.0105 16.1346 20.0058 15.6457 21.0853C15.6095 21.1653 15.7214 21.2534 15.787 21.1898C16.6337 20.3731 17.2243 19.308 17.7588 18.2694C18.3381 17.1442 18.8205 15.9738 19.1982 14.7654C19.2849 14.4875 19.3659 14.2083 19.4416 13.9275C19.3159 13.617 19.1844 13.3084 19.0476 13.002C18.9198 13.5415 18.7745 14.0769 18.6104 14.6058H18.6112Z" fill="#CFF6FF"/>
<path d="M10.3836 16.2886C9.43553 15.6104 8.45246 15.0088 7.59843 14.2016C6.87059 13.5135 6.23231 12.7316 5.66201 11.9072C5.61071 12.2035 5.56349 12.5006 5.51953 12.7981C6.06867 13.5029 6.67439 14.1665 7.34727 14.7517C8.2127 15.5043 9.2035 16.1956 10.3486 16.3784C10.3978 16.3862 10.4227 16.3168 10.3836 16.2886Z" fill="#CFF6FF"/>
<path d="M10.8576 1.27122C11.0819 2.43146 11.2988 3.59293 11.5349 4.75113C11.7605 5.85627 11.9249 7.03814 12.3804 8.07555C12.4236 8.1739 12.6059 8.16166 12.6031 8.04045C12.577 6.90837 12.2583 5.7771 12.0401 4.6691C11.8789 3.85044 11.7214 3.03056 11.5748 2.20864C11.3078 1.8593 11.064 1.53608 10.8535 1.25C10.8547 1.25694 10.856 1.26388 10.8576 1.27081V1.27122Z" fill="#CFF6FF"/>
<path d="M11.2032 24.122C9.25575 22.7349 7.11579 21.6249 5.48141 19.8365C5.37842 19.7239 5.27747 19.6096 5.17773 19.4941C5.19402 19.8549 5.216 20.2157 5.24327 20.5756C6.8801 22.237 8.92358 23.4813 11.057 24.3849C11.2146 24.4518 11.3432 24.222 11.2032 24.122Z" fill="#CFF6FF"/>
<path d="M9.00164 9.59654C9.06922 9.66633 9.67412 10.3479 9.79014 10.0287C9.90574 9.7104 9.46 9.27822 9.29514 9.03458C9.01019 8.61301 8.71507 8.19919 8.44477 7.76742C8.02834 7.1018 7.65669 6.40966 7.32941 5.69629C7.21095 6.01665 7.09738 6.33905 6.98828 6.66309C7.283 7.23199 7.6115 7.78374 7.9742 8.30856C8.28765 8.76238 8.61859 9.19986 9.00205 9.59654H9.00164Z" fill="#CFF6FF"/>
<path d="M20.5583 19.1596C20.6703 18.9507 20.7798 18.7401 20.8868 18.5287C20.7916 18.1141 20.689 17.7039 20.5783 17.2979C19.9387 18.7332 19.2121 20.1301 18.4122 21.4809C17.7487 22.6016 16.9321 23.6635 16.3451 24.8245C16.311 24.8919 16.4058 24.9539 16.4595 24.9094C17.3461 24.1711 18.0361 23.1501 18.6968 22.2118C19.3831 21.2377 19.9953 20.2097 20.5583 19.1596Z" fill="#CFF6FF"/>
<path d="M16.8553 26.604C17.3877 26.1338 17.7993 25.4951 18.2068 24.9168C18.6472 24.292 19.0579 23.6448 19.4687 23C20.074 22.0499 20.6683 21.0892 21.2203 20.1057C21.1666 19.8262 21.1108 19.5507 21.0534 19.2793C20.3956 20.5077 19.6584 21.6973 18.9228 22.88C18.545 23.4873 18.1534 24.0851 17.7761 24.6924C17.4142 25.2752 16.9843 25.8734 16.7372 26.517C16.7112 26.5852 16.7967 26.6558 16.8549 26.6044L16.8553 26.604Z" fill="#CFF6FF"/>
<path d="M7.37052 25.4797C8.54614 26.1763 9.73804 26.606 11.0753 26.859C11.1677 26.8766 11.2067 26.7236 11.1156 26.6962C9.08062 26.0922 7.22724 24.8957 5.5957 23.522C5.64292 23.8081 5.6934 24.0937 5.74795 24.3782C6.26777 24.7744 6.80673 25.1454 7.37052 25.4792V25.4797Z" fill="#CFF6FF"/>
<path d="M7.53448 12.2307C8.25459 13.0926 9.05122 13.9525 10.0469 14.4896C10.1458 14.543 10.2272 14.4018 10.1686 14.3243C9.40781 13.3224 8.474 12.465 7.69934 11.4696C7.15754 10.7734 6.66376 10.0396 6.22006 9.27686C6.1476 9.56334 6.0788 9.85065 6.01367 10.1388C6.47407 10.8685 6.98168 11.568 7.53489 12.2303L7.53448 12.2307Z" fill="#CFF6FF"/>
<path d="M10.3369 18.015C9.33182 17.4886 8.3862 16.9107 7.55334 16.1308C6.73879 15.3677 6.0484 14.4719 5.41622 13.5532C5.37389 13.8903 5.33725 14.2282 5.30469 14.5665C6.53281 16.2455 8.17249 17.9799 10.2449 18.386C10.4741 18.4309 10.5144 18.1077 10.3369 18.015Z" fill="#CFF6FF"/>
<path d="M8.16295 9.7285C7.61911 8.95677 7.17255 8.11689 6.79723 7.25049C6.69995 7.55738 6.60673 7.8655 6.51758 8.17484C6.85667 8.84903 7.24745 9.49751 7.69441 10.1056C8.2696 10.8875 8.98727 11.7568 9.91945 12.1033C9.9915 12.1302 10.0444 12.0482 10.0041 11.9886C9.45824 11.1854 8.72552 10.5263 8.16336 9.7285H8.16295Z" fill="#CFF6FF"/>
<path d="M10.7673 20.175C9.83957 19.4335 8.81538 18.827 7.90681 18.0561C7.02347 17.3064 6.21503 16.4637 5.49655 15.5544C5.41107 15.4463 5.32803 15.3373 5.2462 15.2275C5.21608 15.6165 5.19288 16.0062 5.17578 16.3959C5.87065 17.2134 6.64164 17.9635 7.47857 18.6348C8.4075 19.38 9.45448 20.126 10.6106 20.457C10.7823 20.506 10.9179 20.2958 10.7669 20.1754L10.7673 20.175Z" fill="#CFF6FF"/>
<path d="M10.7369 22.2847C10.8977 22.3589 11.0304 22.1153 10.8871 22.0141C9.12005 20.7669 7.4071 19.403 5.98155 17.7661C5.69782 17.4405 5.42508 17.105 5.16212 16.7622C5.14991 17.1238 5.14339 17.4858 5.14258 17.8478C5.25615 17.9812 5.37054 18.1134 5.48737 18.244C6.97683 19.9071 8.70484 21.3489 10.7369 22.2855V22.2847Z" fill="#CFF6FF"/>
</g>
<g style="mix-blend-mode:overlay" opacity="0.3">
<path d="M18.1036 36.1587C20.4809 34.0635 21.5023 31.1117 21.773 27.9844C22.0481 24.8077 21.5491 21.4506 20.9112 18.6274C20.1557 15.2829 18.897 12.2234 17.0909 9.3034C16.8804 8.96345 15.9311 7.75546 14.7946 6.31689C14.7852 8.04481 15.0132 9.80537 15.3502 11.4737C16.221 15.7853 17.6779 20.1365 17.0009 24.4828C16.7367 26.181 15.9279 28.0456 14.2825 28.528C13.1517 28.8594 11.8967 28.41 11.0272 27.613C10.1577 26.816 9.62074 25.719 9.22832 24.6053C7.94484 20.9625 8.0291 17.0007 7.49665 13.1743C7.28253 11.6349 6.94263 10.0874 6.39065 8.62595C4.83809 14.3149 4.71352 20.401 6.13216 26.1275C6.80708 28.852 7.99531 31.7614 9.92156 33.9243C11.6846 35.9045 15.6217 38.3449 18.1036 36.1579V36.1587Z" fill="#48004C"/>
</g>
<g style="mix-blend-mode:overlay" opacity="0.3">
<path d="M21.7716 27.9845C22.0468 24.8078 21.5477 21.4508 20.9098 18.6275C20.1543 15.2831 18.8956 12.2235 17.0895 9.30356C16.4895 8.33431 9.87825 0.30567 10.0618 0C10.0602 0.00285673 10.0586 0.00530536 10.057 0.00816209C10.0427 1.38511 10.5247 3.15628 10.6313 4.13532C11.2965 10.2365 12.1008 16.3225 13.0428 22.387C13.5622 25.7293 14.1236 29.0656 14.7264 32.3941C14.9597 33.6821 15.206 34.9884 15.7905 36.1585C15.9334 36.4445 16.1003 36.7225 16.2888 36.9849C16.938 36.8979 17.5556 36.6408 18.1023 36.1593C20.4795 34.0641 21.5009 31.1122 21.7716 27.9849V27.9845Z" fill="#48004C"/>
</g>
<g style="mix-blend-mode:overlay" opacity="0.3">
<path d="M21.7732 27.9847C22.0483 24.808 21.5493 21.451 20.9114 18.6277C20.1559 15.2833 18.8972 12.2237 17.091 9.30375C16.9433 9.06501 16.4312 8.39817 15.7461 7.52441C15.7799 9.54208 16.2297 11.6112 16.6335 13.5501C17.4981 17.7017 18.6652 21.8497 18.6233 26.1258C18.5878 29.7269 17.6634 33.3138 15.9732 36.4904C16.0713 36.6598 16.1768 36.8251 16.2912 36.9842C16.9404 36.8973 17.558 36.6402 18.1047 36.1586C20.4819 34.0634 21.5033 31.1116 21.774 27.9843L21.7732 27.9847Z" fill="#000A33"/>
</g>
<g style="mix-blend-mode:overlay" opacity="0.3">
<path d="M18.0781 32.7312C16.0069 33.6376 13.5938 33.829 11.4681 33.0605C10.0759 32.5573 8.84004 31.6746 7.76172 30.6613C8.3479 31.8428 9.06068 32.9589 9.92163 33.9253C11.6846 35.9054 15.6218 38.3459 18.1037 36.1589C19.8305 34.637 20.8412 32.663 21.3692 30.498C20.4049 31.4236 19.3001 32.1958 18.0781 32.7308V32.7312Z" fill="#48004C"/>
</g>
<g style="mix-blend-mode:overlay" opacity="0.3">
<path d="M11.6225 32.4367C10.109 30.697 9.55415 28.3438 9.04938 26.0915C8.21327 22.3627 7.37674 18.6342 6.54062 14.9054C6.28539 13.7672 6.19665 12.2319 5.82784 11.0112C4.83297 15.9946 4.91031 21.1947 6.13233 26.1282C6.80725 28.8527 7.99548 31.7621 9.92173 33.9251C11.6847 35.9052 15.6219 38.3457 18.1038 36.1586C18.6411 35.6852 19.1085 35.1673 19.5143 34.6144C17.5803 35.815 13.1013 34.1365 11.6225 32.4363V32.4367Z" fill="#000A33"/>
</g>
<path d="M16.2891 36.985C19.7536 33.5128 21.6038 27.6382 20.4513 22.865C20.05 21.2015 19.3575 19.6267 18.729 18.0355C17.6418 15.284 16.7295 12.4195 16.5777 9.46406C16.4258 6.50857 17.0959 3.42942 18.9061 1.0918C18.3684 4.34112 19.807 7.41782 21.3269 10.3378C22.8469 13.2582 24.7471 15.9994 25.8674 19.0957C26.8016 21.6778 27.1663 24.4652 26.9278 27.2015C26.8155 28.4895 26.6547 29.824 26.0274 30.9532C22.6662 37.0025 16.841 37.5678 16.2891 36.9846V36.985Z" fill="#EF336D"/>
<path d="M26.5533 27.2738C26.3042 27.6901 26.2044 28.2532 26.0494 28.7156C25.8743 29.2364 25.6671 29.7485 25.409 30.2338C25.3256 30.3905 25.2364 30.5443 25.1444 30.697C25.948 28.8748 26.5549 26.8853 26.5785 24.8794C26.6001 23.0279 26.1943 21.2171 25.5177 19.5006C25.1318 18.5212 24.6612 17.5833 24.1516 16.6631C23.9167 16.2395 23.6745 15.8187 23.4128 15.411C23.0993 14.9233 22.7146 14.4899 22.4138 13.9928C22.3593 13.9031 22.2095 13.9626 22.2604 14.0614C22.6752 14.8695 22.9577 15.7469 23.3415 16.5733C23.7083 17.3626 24.0474 18.162 24.3629 18.9734C24.9979 20.6041 25.4738 22.3341 25.5348 24.0922C25.6516 27.4721 24.1903 30.8422 22.3039 33.6125C22.702 32.8358 23.0448 32.0311 23.3265 31.2067C24.4565 27.8978 24.6043 24.2432 23.6257 20.8755C23.3582 19.9557 23.0395 19.0452 22.6092 18.1886C22.1631 17.3001 21.5651 16.5313 20.9533 15.7563C20.9191 15.713 20.8433 15.7563 20.8694 15.8073C21.2504 16.5464 21.5113 17.3385 21.8085 18.1143C22.1093 18.8999 22.3894 19.6961 22.6003 20.5111C23.0171 22.1227 23.2377 23.7849 23.2223 25.4508C23.1958 28.2989 22.4602 31.1153 21.0937 33.6063C21.3021 33.1395 21.4861 32.6628 21.6498 32.1878C22.6442 29.2988 22.8856 26.1201 22.2665 23.1225C22.0947 22.2904 21.8268 21.4669 21.5113 20.6792C21.3518 20.2809 21.1873 19.8797 20.9708 19.5092C20.7408 19.1158 20.4693 18.7452 20.2494 18.3465C20.1815 18.2228 19.9816 18.3073 20.0463 18.4375C20.3679 19.0864 20.5299 19.8389 20.7404 20.5311C20.95 21.2204 21.114 21.9256 21.2354 22.6357C21.4788 24.0612 21.6367 25.49 21.5753 26.9383C21.4552 29.7636 20.7196 32.7954 19.0351 35.1106C18.7791 35.4624 18.4962 35.7877 18.1876 36.0872C18.3969 35.795 18.5947 35.495 18.7771 35.1857C19.4915 33.9744 20.0015 32.6644 20.3195 31.2944C20.4839 30.5864 20.5991 29.8722 20.6695 29.149C20.7318 28.5116 20.7204 27.8782 20.7257 27.242C20.3838 30.8651 18.7421 34.5274 16.2891 36.9854C16.841 37.5686 22.6662 37.0034 26.0274 30.9541C26.6245 29.8791 26.7988 28.6181 26.9111 27.3885C26.9013 27.3619 26.8912 27.3358 26.8798 27.3105C26.8248 27.1901 26.629 27.1477 26.5533 27.2746V27.2738Z" fill="#E21E65"/>
<g style="mix-blend-mode:overlay" opacity="0.5">
<path d="M25.8685 19.0957C24.7479 15.9994 22.8477 13.2581 21.3281 10.3377C19.9331 7.65731 18.6076 4.84547 18.8148 1.88916C17.9702 3.43873 18.1387 5.96123 18.2156 7.37571C18.3186 9.26891 18.7037 11.1478 19.368 12.9235C20.505 15.9622 22.4215 18.6855 23.3272 21.8018C24.2101 24.8405 24.0506 28.2209 22.6388 31.0519C21.4767 33.3822 19.4332 35.2888 17.0132 36.1969C16.7807 36.4707 16.5405 36.7347 16.291 36.9849C16.843 37.5681 22.6682 37.0029 26.0293 30.9535C26.6566 29.8243 26.8174 28.4894 26.9298 27.2018C27.1683 24.4655 26.8036 21.6781 25.8693 19.0961L25.8685 19.0957Z" fill="#48004C"/>
</g>
<g style="mix-blend-mode:overlay" opacity="0.3">
<path d="M25.867 19.0957C24.7463 15.9994 22.8461 13.2582 21.3265 10.3378C19.8065 7.41741 18.368 4.34112 18.9057 1.0918C18.8243 1.19709 18.7461 1.30401 18.6692 1.41216C18.243 3.96281 18.7824 6.70527 19.7137 9.16206C20.9565 12.4395 22.8449 15.4428 24.06 18.7309C25.2751 22.019 25.755 25.8258 24.1614 28.947C24.0226 29.2188 23.8292 29.5118 23.528 29.555C23.0358 29.626 22.7488 29.0155 22.6739 28.5225C22.4004 26.7195 22.7321 24.8488 22.3206 23.0723C21.8911 21.2191 20.7013 19.6548 19.73 18.0204C18.3651 15.7232 17.4158 13.2023 16.8826 10.5843C16.7645 10.0052 16.6689 9.43019 16.5585 8.86496C16.5614 9.06493 16.5675 9.2649 16.5777 9.46406C16.7295 12.4195 17.6418 15.284 18.729 18.0355C19.3575 19.6263 20.05 21.2015 20.4513 22.865C21.6033 27.6386 19.7532 33.5128 16.2891 36.985C16.841 37.5682 22.6662 37.0029 26.0274 30.9536C26.6547 29.8244 26.8155 28.4895 26.9278 27.2019C27.1664 24.4656 26.8016 21.6782 25.8674 19.0961L25.867 19.0957Z" fill="#48004C"/>
</g>
<g style="mix-blend-mode:overlay" opacity="0.3">
<path d="M26.0274 30.9533C26.3404 30.3901 26.537 29.7759 26.6697 29.1421C26.5916 29.2833 26.5114 29.4237 26.4279 29.5624C24.9454 32.0266 22.5433 34.0006 19.7398 34.616C20.4863 32.9562 20.8751 31.1357 20.8723 29.3147C20.5108 29.9942 20.1497 30.6737 19.7886 31.3532C19.0071 33.4941 17.8021 35.4685 16.2891 36.9846C16.841 37.5678 22.6662 37.0026 26.0274 30.9533Z" fill="#000A33"/>
</g>
<path d="M16.2887 36.9851C14.2029 37.0292 11.8268 35.0238 10.5523 33.3677C9.27773 31.7116 8.61013 29.6666 8.16683 27.6228C7.20737 23.2006 7.18295 18.5625 5.65563 14.3039C4.5256 11.1529 2.58063 8.29986 0.0625 6.10059C1.42007 9.82944 1.3639 13.9256 1.26702 17.894C1.16973 21.8624 1.05453 25.9251 2.29364 29.6951C3.53276 33.4652 6.43231 36.9488 10.319 37.7075C12.4459 38.1225 14.5379 38.1045 16.2891 36.9851H16.2887Z" fill="#EF336D"/>
<path d="M13.5412 37.4369C12.4873 36.8211 11.5226 36.0298 10.7117 35.1201C9.79986 34.097 9.07039 32.9315 8.57173 31.6529C7.93833 30.0298 7.60046 28.3076 7.18322 26.6209C6.94183 25.6444 6.64792 24.6808 6.40531 23.7046C6.2779 23.1921 6.16351 22.6738 6.01737 22.1661C5.87083 21.6568 5.65793 21.1568 5.53825 20.6422C5.50325 20.4916 5.26959 20.5259 5.2993 20.681C5.38805 21.1466 5.3913 21.627 5.45399 22.0971C5.51994 22.5934 5.61438 23.0855 5.70027 23.5785C5.86757 24.5392 6.00476 25.504 6.15578 26.4671C6.43666 28.255 6.7387 30.0931 7.33546 31.8063C7.37006 31.9059 7.40629 32.0047 7.44374 32.103C5.62252 28.5545 5.03797 24.5804 4.24866 20.7128C4.00116 19.4995 3.73942 18.2883 3.44755 17.0848C3.17929 15.9788 3.05147 14.7582 2.43924 13.7816C2.41807 13.7481 2.3562 13.7665 2.35579 13.8061C2.34806 14.9181 2.74332 16 2.9037 17.0978C3.06857 18.2246 3.18702 19.3567 3.31281 20.4884C3.55746 22.6876 3.83182 24.8902 4.34961 27.0442C4.54623 27.8612 4.76971 28.6741 5.03064 29.4744C4.78884 28.9671 4.53646 28.4607 4.33984 27.9383C4.2914 27.8094 4.06629 27.8722 4.10496 28.0085C4.27023 28.5929 4.34636 29.201 4.49982 29.7891C4.65736 30.3922 4.82873 30.9913 5.01721 31.5855C5.17067 32.0696 5.34856 32.5466 5.54762 33.0151C4.10049 30.3935 3.37509 27.4151 2.9379 24.4576C2.77996 23.3884 2.67697 22.3191 2.58293 21.243C2.53409 20.6843 2.51088 20.1207 2.43598 19.5652C2.36149 19.0135 2.24751 18.4654 2.20395 17.91C2.2007 17.8712 2.13801 17.8728 2.13557 17.9116C2.103 18.4229 2.01141 18.9286 1.95971 19.4383C1.90761 19.9505 1.90883 20.4651 1.90516 20.9793C1.89784 21.9996 1.93773 23.0223 1.99391 24.0409C2.10422 26.0463 2.40342 28.0522 2.98268 29.9772C3.45895 31.5594 4.13061 33.0878 5.00052 34.4868C6.4163 36.0971 8.22369 37.2986 10.3189 37.7075C10.5008 37.743 10.6828 37.7753 10.8639 37.8038C10.6152 37.65 10.3746 37.4826 10.1422 37.3031C10.2668 37.3831 10.3942 37.4598 10.5244 37.532C10.7219 37.6414 10.9226 37.7451 11.1261 37.843C12.3221 38.0095 13.494 38.0103 14.5874 37.7238C14.2361 37.6402 13.8868 37.5443 13.5404 37.4369H13.5412Z" fill="#E21E65"/>
<g style="mix-blend-mode:overlay" opacity="0.3">
<path d="M10.5528 33.3677C9.27827 31.7116 8.61068 29.6666 8.16738 27.6228C7.20792 23.2005 7.1835 18.562 5.65617 14.3039C4.86687 12.1034 3.67985 10.049 2.17818 8.26025C2.27058 8.43043 2.36014 8.60265 2.44521 8.77691C3.85408 11.6557 4.50946 14.8426 5.13309 17.9654C5.84953 21.5534 6.56923 25.1717 6.54318 28.8308C6.53829 29.509 6.36977 30.3648 5.70869 30.5105C5.3639 30.5864 5.01219 30.4207 4.72236 30.2187C3.1409 29.1185 2.63328 27.029 2.38823 25.115C1.90626 21.351 1.97464 17.5308 1.45807 13.7713C1.3962 13.3216 1.32455 12.871 1.24273 12.4217C1.34654 14.2414 1.31112 16.0812 1.26675 17.8948C1.16946 21.8632 1.05426 25.9259 2.29338 29.6959C3.5325 33.466 6.43205 36.9496 10.3187 37.7082C12.4457 38.1233 14.5376 38.1053 16.2888 36.9859C14.203 37.03 11.8269 35.0246 10.5524 33.3685L10.5528 33.3677Z" fill="#48004C"/>
</g>
<g style="mix-blend-mode:overlay" opacity="0.3">
<path d="M12.5348 7.52626C12.803 7.72746 13.0916 8.00089 13.4185 7.92661C13.8463 7.82907 13.918 7.25487 13.8854 6.81616C13.8382 6.17911 13.7698 5.54328 13.6819 4.91072C11.8378 2.5731 9.96289 0.164874 10.0618 0C8.80641 2.08623 7.78466 4.30917 7.00391 6.61496C7.27013 8.24248 7.53595 9.87041 7.80217 11.4979C7.85305 11.8101 7.91167 12.1391 8.11561 12.3807C8.31955 12.6223 8.72133 12.7255 8.95173 12.5092C9.11293 12.3578 9.13695 12.1146 9.15079 11.8934C9.23505 10.5487 9.31931 9.20357 9.40358 7.85887C9.98609 7.79683 10.2861 8.52612 10.4033 9.10154C10.5206 9.67697 10.8515 10.4022 11.4296 10.3067C11.4792 9.47659 11.5289 8.64651 11.5785 7.81683C11.5851 7.70909 11.5928 7.59645 11.6477 7.50341C11.8183 7.21447 12.2665 7.32507 12.5348 7.52626Z" fill="#FEEBFF"/>
</g>
<g style="mix-blend-mode:overlay" opacity="0.3">
<path d="M10.6395 25.6179C10.7633 25.9337 10.9965 26.3068 11.3295 26.2468C11.417 25.2477 11.2253 18.4691 10.0607 18.6638C8.05504 18.9988 10.276 24.6907 10.6395 25.6179Z" fill="#FEEBFF"/>
</g>
<path d="M18.8034 1.07404C18.2864 1.35645 18.0214 2.00289 17.7714 2.51342C17.458 3.15415 17.2117 3.83527 17.0347 4.5266C16.8694 5.17018 16.7489 5.83131 16.6911 6.49367C16.6353 7.13439 16.5563 7.89836 16.7249 8.52643C16.7424 8.59132 16.8291 8.59132 16.8425 8.52358C16.9659 7.89877 16.937 7.2356 17.0379 6.60141C17.1437 5.93415 17.2976 5.28282 17.5052 4.64006C17.7043 4.02382 17.942 3.42554 18.2184 2.84032C18.4651 2.31835 18.9015 1.76945 18.956 1.18586C18.9633 1.10914 18.8787 1.03364 18.8038 1.07445L18.8034 1.07404Z" fill="#FF92B6"/>
<path d="M18.7339 15.9795C18.5153 14.9278 18.0065 13.9226 17.6784 12.8999C17.3401 11.8462 17.1524 10.7337 16.7771 9.6955C16.7633 9.65714 16.7026 9.66856 16.6994 9.70774C16.6122 10.7782 16.9013 11.9413 17.1944 12.964C17.4944 14.0092 17.8697 15.2074 18.5918 16.0427C18.6419 16.1003 18.751 16.0619 18.7339 15.9795Z" fill="#FF92B6"/>
<path d="M3.45711 9.99533C3.19496 9.17259 2.57825 8.3776 2.05639 7.70096C1.56953 7.06962 0.959337 6.21914 0.211144 5.88857C0.0536087 5.81919 -0.0534504 6.01386 0.0279633 6.13711C0.272612 6.50685 0.64223 6.79579 0.939798 7.12268C1.22841 7.43978 1.50074 7.77197 1.7633 8.11111C2.26684 8.76203 2.71706 9.54968 3.34354 10.0867C3.40704 10.141 3.47787 10.0594 3.45711 9.99533Z" fill="#FF92B6"/>
<path d="M5.67529 14.1901C5.53648 13.5351 5.22141 12.9274 4.91815 12.3365C4.61407 11.7435 4.2876 11.1342 3.84715 10.6302C3.79626 10.5718 3.71322 10.6286 3.73643 10.6979C3.95095 11.3464 4.29004 11.9529 4.59982 12.5593C4.89209 13.1315 5.16239 13.731 5.55317 14.2444C5.59429 14.2982 5.68995 14.2582 5.67529 14.1901Z" fill="#FF92B6"/>
<path d="M3.53498 12.8429C3.39942 12.4033 3.25573 11.9654 3.09982 11.5328C2.82749 10.7774 2.51242 10.1392 2.01172 9.51191C1.98242 9.47518 1.93072 9.51885 1.95596 9.5568C2.40007 10.2241 2.57226 11.0876 2.77823 11.8504C2.87797 12.2201 2.98584 12.5878 3.09778 12.9539C3.21258 13.3289 3.30824 13.7456 3.55004 14.0602C3.61558 14.1459 3.77189 14.1059 3.778 13.9937C3.79957 13.6036 3.64896 13.2122 3.53498 12.8433V12.8429Z" fill="#FF92B6"/>
<path d="M1.61711 9.16825C1.44207 8.5006 1.12333 7.99944 0.718299 7.45177C0.710565 7.44116 0.696317 7.45381 0.70283 7.46401C1.05332 8.02107 1.1905 8.77158 1.30204 9.41353C1.3981 9.9661 1.3688 10.6399 1.61222 11.1496C1.64682 11.2218 1.77668 11.2361 1.8011 11.1455C1.96515 10.5383 1.77301 9.76368 1.6167 9.16785L1.61711 9.16825Z" fill="#FF92B6"/>
<path d="M19.4472 7.30902C19.3739 6.62055 19.1089 5.96432 18.9229 5.30033C18.7373 4.63757 18.5704 3.95481 18.4584 3.27532C18.4519 3.23492 18.388 3.23451 18.3851 3.27736C18.3351 3.98909 18.4043 4.66206 18.5683 5.35788C18.7295 6.04145 18.9217 6.754 19.2852 7.358C19.3336 7.43839 19.4582 7.41146 19.4472 7.30943V7.30902Z" fill="#FF92B6"/>
<path d="M19.2251 10.7899C19.0798 10.2589 18.8416 9.75328 18.6617 9.23295C18.4683 8.67425 18.3145 8.10699 18.2062 7.52503C17.9929 6.37663 17.9514 5.16088 18.0291 3.99575C18.0348 3.9129 17.9021 3.86923 17.8793 3.95861C17.5773 5.14946 17.5398 6.31745 17.7389 7.53197C17.9229 8.65548 18.2624 10.0043 19.039 10.8723C19.1021 10.9429 19.2544 10.8992 19.2247 10.7895L19.2251 10.7899Z" fill="#FF92B6"/>
<path d="M9.94367 0.141013C9.2716 1.00293 8.79248 1.93749 8.45705 2.9855C8.14727 3.95312 7.82691 5.04969 7.98159 6.07199C7.99666 6.17035 8.14727 6.19279 8.18065 6.09403C8.50875 5.11662 8.59423 4.07228 8.90564 3.0863C9.21664 2.10277 9.60499 1.12454 10.0125 0.179783C10.0308 0.137749 9.97094 0.106733 9.94407 0.141422L9.94367 0.141013Z" fill="#FF92B6"/>
<path d="M9.73968 6.25242C9.72299 5.67821 9.72177 5.10401 9.72259 4.52981C9.72422 3.46302 9.7466 2.39828 9.73765 1.33149C9.73684 1.25069 9.62937 1.23722 9.61227 1.31762C9.38879 2.39175 9.28417 3.45853 9.25283 4.55593C9.23818 5.0734 9.24387 5.59169 9.25649 6.10917C9.26789 6.59155 9.23858 7.13963 9.42787 7.59141C9.47265 7.69792 9.65786 7.70772 9.69206 7.58569C9.81174 7.15922 9.75271 6.69113 9.74009 6.25201L9.73968 6.25242Z" fill="#FF92B6"/>
<path d="M11.9322 5.7409C11.8606 5.1618 11.7449 4.58637 11.6012 4.02115C11.3362 2.97844 10.9963 1.84759 10.3426 0.978731C10.297 0.918332 10.1875 0.963223 10.205 1.03995C10.4553 2.12142 10.8942 3.15189 11.1498 4.2354C11.2784 4.78104 11.3761 5.33361 11.4576 5.88863C11.5329 6.40081 11.5614 6.93991 11.7205 7.43453C11.7616 7.56186 11.9257 7.49901 11.9493 7.39862C12.0726 6.86564 11.9985 6.27797 11.9322 5.7409Z" fill="#FF92B6"/>
<path opacity="0.5" d="M10.4068 33.1681C9.22831 31.5484 8.59369 29.5854 8.16789 27.622C7.24466 23.3671 7.18645 18.9118 5.82318 14.7875C5.80567 14.7577 5.78857 14.7279 5.77066 14.6977C5.69943 14.5765 5.49345 14.6137 5.51991 14.7728C5.63877 15.4878 5.76741 16.1779 5.95873 16.8799C6.1411 17.5504 6.30677 18.2287 6.43744 18.9114C6.70244 20.2953 6.80543 21.6988 6.92348 23.1006C7.14208 25.6884 7.30938 28.3399 8.2721 30.7807C8.75611 32.0083 9.55559 33.1767 10.6217 33.9611C10.6982 34.0174 10.8281 33.9297 10.7752 33.8378C10.6473 33.6166 10.5252 33.3934 10.4064 33.1681H10.4068Z" fill="#FF92B6"/>
<path opacity="0.5" d="M19.0921 18.3604C18.7852 17.5874 18.4999 16.79 18.0122 16.1113C18.2373 16.7582 18.4783 17.3997 18.729 18.0347C19.3575 19.6255 20.05 21.2008 20.4513 22.8642C21.6033 27.6378 19.7532 33.5121 16.2891 36.9842C16.3554 37.0544 16.4995 37.1079 16.7055 37.1373C16.8997 36.961 17.0621 36.7463 17.2331 36.5488C17.4781 36.2656 17.7044 35.9652 17.9259 35.6632C18.3549 35.0792 18.76 34.4777 19.1365 33.8586C19.8876 32.6228 20.5218 31.3185 20.8649 29.9073C21.6021 26.8759 20.8405 23.8061 19.9722 20.8902C19.7166 20.0312 19.4227 19.1929 19.0921 18.36V18.3604Z" fill="#FF92B6"/>
<g style="mix-blend-mode:overlay" opacity="0.3">
<path d="M4.50041 33.8789C5.9801 35.7921 7.96863 37.2486 10.3195 37.7073C12.4464 38.1223 14.5383 38.1044 16.2895 36.9849C14.2037 37.029 11.8276 35.0236 10.5531 33.3675C10.0891 32.7643 9.706 32.1089 9.38442 31.4217C8.93909 31.0662 8.49864 30.7046 8.06511 30.3345C8.99892 32.7941 10.2393 35.3154 12.4672 36.7066C9.62093 36.5164 6.83495 35.5203 4.5 33.8789H4.50041Z" fill="#000A33"/>
</g>
<g style="mix-blend-mode:overlay" opacity="0.3">
<path d="M10.6546 64.9797C10.4681 64.1852 10.3057 63.3849 10.1653 62.5801C9.9772 63.3555 9.79605 64.1317 9.62305 64.9099C9.96621 64.9418 10.3102 64.9646 10.6546 64.9797Z" fill="#000A33"/>
</g>
<g style="mix-blend-mode:overlay" opacity="0.3">
<path d="M14.9802 25.7222C14.8728 24.9795 14.7425 24.2392 14.6188 23.4993C14.3798 22.0717 14.1295 20.6364 13.7973 19.2268C13.4635 17.8095 13.1045 16.4007 12.71 14.9993C12.5126 14.2986 12.3477 13.5909 12.1605 12.8873C12.0734 12.5592 11.9704 12.2348 11.8645 11.9124C11.7282 11.4969 11.4957 11.0778 11.4029 10.653C11.3712 10.5081 11.1428 10.5436 11.175 10.6897C11.2568 11.0635 11.2222 11.4737 11.2592 11.8544C11.2942 12.2148 11.3297 12.5764 11.3822 12.9347C11.4913 13.6778 11.6272 14.4136 11.7176 15.1597C11.8922 16.5995 12.0778 18.0368 12.2647 19.4745C12.4511 20.9107 12.6974 22.3427 12.9282 23.7723C13.0434 24.4877 13.1488 25.2051 13.2649 25.9206C13.3263 26.3001 13.4081 26.6633 13.5535 27.0192C13.6988 27.3746 13.8348 27.7203 14.2125 27.8774C14.3538 27.9362 14.5276 27.9092 14.6452 27.8121C14.9558 27.5554 14.9636 27.233 15.01 26.8621C15.058 26.4784 15.036 26.105 14.9807 25.7218L14.9802 25.7222Z" fill="#FEEBFF"/>
</g>
</g>
<defs>
<clipPath id="clip0_1152_212739">
<rect width="27" height="65" fill="white"/>
</clipPath>
</defs>
</svg>
