<svg width="25" height="33" viewBox="0 0 25 33" fill="none" xmlns="http://www.w3.org/2000/svg">
<g clip-path="url(#clip0_3_168448)">
<path d="M4.85323 33L4.85767 32.9913C4.85767 32.9913 4.85378 32.9913 4.85156 32.9907L4.85323 33Z" fill="#CB8E4F"/>
<path d="M10.4921 30.4016C14.5151 29.5727 19.3171 22.2786 11.2677 18.9134C10.3805 18.5424 3.84461 15.3561 1.52275 18.655C0.259654 20.4499 0.0109217 22.2047 0.041458 23.4084C0.23578 25.7995 1.16075 28.4386 3.6353 30.6899C4.25713 31.2556 4.68353 32.0399 4.84509 32.9559L4.82844 32.9874C4.84509 32.9559 6.46907 31.2306 10.4921 30.4016ZM3.6675 28.6371C3.13506 28.1329 2.61872 27.6368 2.2323 27.0092C1.53329 25.874 1.30177 24.4957 1.36174 23.1864C1.42336 21.8446 1.76926 20.3841 2.52045 19.2424C2.87078 18.7099 3.33882 18.3101 3.99563 18.2133C4.66465 18.1149 5.39419 18.2742 6.051 18.3923C6.6223 18.4951 7.18695 18.6224 7.74104 18.7801C8.28126 18.934 8.51167 19.5595 8.19853 20.0175C8.19631 20.0202 8.19464 20.0235 8.19242 20.0262C7.8543 20.5217 7.55727 21.0407 7.25191 21.5563C6.61342 22.6338 5.9122 23.701 5.44416 24.8639C5.02831 25.8985 4.85564 26.9515 5.05163 28.0524C5.14379 28.5691 5.32757 29.0663 5.39308 29.5874C5.42972 29.8762 5.4375 30.1661 5.41695 30.4544C5.30258 30.4952 5.15046 30.4593 5.09605 30.351C4.76015 29.6787 4.20994 29.1506 3.6675 28.6371Z" fill="#CB8E4F"/>
<path d="M0.274469 24.9733C0.273358 24.9684 0.267806 24.9542 0.257812 24.9314C0.270582 24.9716 0.2778 24.9869 0.274469 24.9733Z" fill="#B77B44"/>
<path d="M5.41634 30.4549C5.43688 30.1666 5.42911 29.8767 5.39246 29.5879C5.32639 29.0668 5.14262 28.5697 5.05101 28.0529C4.85502 26.952 5.02769 25.899 5.44354 24.8644C5.91102 23.7015 6.6128 22.6343 7.25129 21.5568C7.55665 21.0417 7.85369 20.5223 8.19181 20.0268C8.19403 20.024 8.19569 20.0208 8.19791 20.0181C8.51105 19.5601 8.2812 18.9346 7.74043 18.7806C7.18633 18.6229 6.62169 18.4956 6.05038 18.3928C5.39357 18.2748 4.66403 18.116 3.99501 18.2139C3.3382 18.3101 2.87017 18.7105 2.51983 19.243C1.76864 20.3847 1.42275 21.8451 1.36112 23.187C1.30116 24.4968 1.53268 25.8745 2.23168 27.0097C2.6181 27.6374 3.13444 28.1334 3.66689 28.6377C4.20932 29.1511 4.76008 29.6793 5.09543 30.3516C5.14984 30.4598 5.30196 30.4957 5.41634 30.4549Z" fill="#DD9F66"/>
<path d="M6.23234 11.8647C5.72876 12.5995 5.48892 13.3839 5.39453 14.1932C5.49003 14.2144 5.58497 14.2351 5.68046 14.2558C5.71599 14.2634 5.75208 14.271 5.78762 14.2786C5.8176 14.2851 5.84758 14.2911 5.87756 14.2977C6.14905 14.3553 6.41999 14.4119 6.69094 14.4723C6.69371 14.4728 6.69593 14.4733 6.69871 14.4739C7.05848 13.6384 7.63423 12.909 8.28104 12.252C9.05444 11.4665 9.84561 10.6898 10.7534 10.0507C11.3374 9.64002 11.977 9.29408 12.6566 9.06128C12.2508 8.94325 11.8443 8.83773 11.4385 8.74744C10.5224 8.81597 9.61576 9.03952 8.81793 9.49588C7.82522 10.0643 6.8736 10.9291 6.23234 11.8647Z" fill="#895424"/>
<path d="M3.97932 13.7994C4.19585 12.6185 4.78826 11.5584 5.65049 10.6995C6.53771 9.81621 7.60537 8.99705 8.78351 8.52656C8.90066 8.47978 9.01836 8.43735 9.13662 8.39819C6.25566 8.18715 3.70228 8.93396 2.44862 11.2837C2.29483 11.5725 2.16103 11.8538 2.04443 12.1274C2.12216 12.3558 2.23931 12.5701 2.38533 12.7512C2.79007 13.2516 3.37137 13.5747 3.97932 13.7994Z" fill="#895424"/>
<path d="M10.3428 11.423C9.59998 12.2525 8.52177 13.6531 8.08594 14.8345C8.72831 15.0238 9.36346 15.2381 9.98918 15.4736C10.0786 15.5073 10.168 15.5416 10.2568 15.5759C10.3923 15.6286 10.5272 15.6825 10.6615 15.7374C10.6932 15.6819 10.7243 15.6259 10.7559 15.5699C11.3095 14.6 11.8591 13.6286 12.411 12.6582C12.9257 11.7531 13.5364 10.8187 14.2371 10.0343C14.3131 9.94948 14.4308 9.83363 14.5641 9.71233C14.2765 9.59974 13.9861 9.49204 13.6941 9.39087C12.4099 9.73463 11.2573 10.4009 10.3423 11.4219L10.3428 11.423Z" fill="#895424"/>
<path d="M18.8883 17.4258C18.5474 18.2814 18.0654 19.0967 17.4941 19.8305C17.6035 19.9159 17.7123 20.0008 17.8223 20.0856C17.8273 20.0894 17.8317 20.0932 17.8367 20.0965C17.8683 20.121 17.9 20.1454 17.9316 20.1694C17.9411 20.1764 17.9505 20.1835 17.9594 20.1906C17.9866 20.2113 18.0144 20.2325 18.0416 20.2531C18.0538 20.2624 18.066 20.2716 18.0782 20.2809C18.1032 20.2999 18.1282 20.3184 18.1532 20.3374C18.1665 20.3472 18.1804 20.3576 18.1937 20.3674C18.2176 20.3848 18.2409 20.4027 18.2648 20.4201C18.2814 20.4321 18.2981 20.4446 18.3142 20.4566C18.3353 20.4718 18.3558 20.487 18.3769 20.5023C18.3963 20.5164 18.4152 20.53 18.4347 20.5436C18.453 20.5572 18.4719 20.5702 18.4902 20.5838C18.5118 20.5991 18.5335 20.6143 18.5551 20.6295C18.5712 20.641 18.5879 20.6524 18.604 20.6638C18.6273 20.6801 18.6512 20.6964 18.6745 20.7128C18.6895 20.7231 18.7039 20.7334 18.7189 20.7438C18.7445 20.7612 18.77 20.7786 18.7955 20.7954C18.8089 20.8041 18.8216 20.8128 18.8344 20.8221C18.8616 20.84 18.8888 20.858 18.9166 20.8759C18.9282 20.8835 18.9399 20.8912 18.9516 20.8988C18.981 20.9178 19.0104 20.9369 19.0404 20.9553C19.0504 20.9613 19.0598 20.9679 19.0698 20.9738C19.1037 20.9956 19.1381 21.0168 19.1725 21.0375C19.1781 21.0407 19.1831 21.044 19.1886 21.0473C19.2286 21.0717 19.2686 21.0957 19.3091 21.1196C19.4029 21.1751 19.4951 21.2257 19.5878 21.267C19.5895 21.2676 19.5912 21.2686 19.5928 21.2692C19.7461 21.3372 19.901 21.3802 20.0692 21.3774C21.5649 19.8795 22.335 17.6521 21.7004 15.5982C21.6854 15.5504 21.6693 15.503 21.6532 15.4552C21.6532 15.4552 21.6532 15.4541 21.6526 15.4541C21.4877 15.1712 21.3106 14.8982 21.1213 14.6344C21.1213 14.6344 21.1213 14.6344 21.1213 14.6338C21.0741 14.568 21.0264 14.5033 20.9781 14.4386C20.9769 14.4375 20.9764 14.4364 20.9753 14.4353C20.9275 14.3717 20.8792 14.3086 20.8304 14.2466C20.8281 14.2438 20.8265 14.2417 20.8243 14.2389C20.7765 14.178 20.7277 14.1177 20.6782 14.0573C20.6749 14.0529 20.671 14.0486 20.6677 14.0442C20.6199 13.986 20.5716 13.9284 20.5228 13.8713C20.5172 13.8647 20.5117 13.8587 20.5061 13.8522C20.4589 13.7973 20.4112 13.7423 20.3629 13.6885C20.3551 13.6798 20.3473 13.6711 20.3396 13.6629C20.2935 13.6113 20.2468 13.5601 20.1991 13.509C20.1886 13.4976 20.1774 13.4862 20.1663 13.4742C20.1219 13.4263 20.077 13.379 20.0314 13.3322C20.017 13.317 20.002 13.3023 19.987 13.2871C19.9448 13.2441 19.9026 13.2006 19.8599 13.1582C19.8404 13.1391 19.821 13.1201 19.8016 13.1011C19.7627 13.063 19.7244 13.0249 19.685 12.9868C19.6594 12.9624 19.6328 12.9379 19.6067 12.9134C19.5734 12.8819 19.5401 12.8498 19.5062 12.8188C19.4707 12.7856 19.4346 12.7535 19.3985 12.7208C19.3735 12.698 19.3485 12.6752 19.3235 12.6529C19.2619 12.5979 19.1997 12.543 19.137 12.4891C19.715 14.0665 19.499 15.8925 18.8883 17.4242V17.4258Z" fill="#895424"/>
<path d="M16.0073 14.0371C15.4699 15.2283 14.7876 16.3521 13.9858 17.3883C14.3167 17.5835 14.6438 17.7859 14.9652 17.9958C15.5243 18.3608 16.069 18.7465 16.6025 19.1457C16.6925 19.0429 16.7802 18.9385 16.8662 18.8329C17.6413 17.8827 18.2137 16.7589 18.4663 15.565C18.7473 14.2362 18.5596 12.7453 17.9 11.528C17.6335 11.3398 17.3609 11.1592 17.0844 10.9846C17.0822 10.983 17.08 10.9819 17.0778 10.9803C17.0511 10.9634 17.0245 10.9471 16.9978 10.9308C16.9312 10.8894 16.8646 10.8476 16.7974 10.8068C16.8696 11.9028 16.4337 13.0902 16.0068 14.0366L16.0073 14.0371Z" fill="#895424"/>
<path d="M14.2925 10.9759C13.7906 11.7999 13.3259 12.6473 12.8712 13.4964C12.407 14.3623 11.9978 15.2478 11.6147 16.1502C11.6747 16.1774 11.7336 16.2057 11.7935 16.2334C11.8529 16.2612 11.9129 16.2884 11.9723 16.3167C12.0556 16.3564 12.1383 16.3966 12.221 16.4374C12.2721 16.4624 12.3232 16.4869 12.3743 16.5119C12.4892 16.569 12.603 16.6272 12.7168 16.686C12.7351 16.6958 12.754 16.705 12.7723 16.7143C12.9 16.7806 13.0272 16.8481 13.1538 16.9166C13.9177 16.0229 14.594 15.0596 15.1675 14.0349C15.731 13.0281 16.4772 11.7482 16.3751 10.5559C16.2907 10.5075 16.2063 10.4591 16.1219 10.4118C16.1175 10.4096 16.1136 10.4069 16.1091 10.4047C16.0197 10.3547 15.9304 10.3052 15.8404 10.2562C15.6111 10.1507 15.379 10.0485 15.1447 9.94946C14.7972 10.2328 14.514 10.6141 14.2931 10.9764L14.2925 10.9759Z" fill="#895424"/>
<path d="M19.1371 12.4908C19.1998 12.5446 19.262 12.5995 19.3237 12.6545C19.3486 12.6768 19.3736 12.7002 19.3986 12.7225C19.4347 12.7551 19.4708 12.7877 19.5063 12.8204C19.5402 12.8519 19.5735 12.8835 19.6068 12.915C19.6329 12.9395 19.659 12.964 19.6851 12.9885C19.7245 13.026 19.7628 13.0641 19.8017 13.1027C19.8211 13.1217 19.8406 13.1408 19.86 13.1598C19.9027 13.2022 19.9449 13.2457 19.9871 13.2887C20.0016 13.3039 20.0166 13.3186 20.0315 13.3338C20.0771 13.3806 20.1215 13.4285 20.1665 13.4758C20.177 13.4872 20.1881 13.4987 20.1992 13.5106C20.2464 13.5612 20.293 13.6129 20.3397 13.6646C20.3475 13.6733 20.3552 13.682 20.363 13.6901C20.4113 13.7445 20.4591 13.7989 20.5062 13.8538C20.5118 13.8604 20.5173 13.8663 20.5229 13.8729C20.5718 13.93 20.6201 13.9876 20.6678 14.0458C20.6711 14.0502 20.675 14.0545 20.6784 14.0589C20.7278 14.1187 20.7761 14.1791 20.8244 14.2406C20.826 14.2433 20.8283 14.2455 20.8305 14.2482C20.8793 14.3107 20.9276 14.3738 20.9754 14.4369C20.9765 14.438 20.9771 14.4391 20.9782 14.4402C21.0265 14.5049 21.0742 14.5696 21.1214 14.6355C21.1214 14.6355 21.1214 14.6355 21.1214 14.636C21.3107 14.8998 21.4878 15.1734 21.6527 15.4557C21.6527 15.4557 21.6527 15.4562 21.6533 15.4568C21.3413 14.5283 20.8011 13.6374 20.1814 12.8481C19.7667 12.5337 19.3375 12.2324 18.8989 11.9463C18.9894 12.1242 19.0694 12.3058 19.1371 12.4913V12.4908Z" fill="#75431B"/>
<path d="M20.0694 21.379C19.9012 21.3811 19.7457 21.3382 19.593 21.2707C19.5914 21.2702 19.5897 21.2691 19.588 21.2685C19.4953 21.2272 19.4031 21.1766 19.3093 21.1211C19.2688 21.0972 19.2288 21.0733 19.1888 21.0488C19.1833 21.0455 19.1783 21.0423 19.1727 21.039C19.1383 21.0178 19.1039 20.9966 19.07 20.9754C19.06 20.9694 19.0506 20.9629 19.0406 20.9569C19.0112 20.9378 18.9812 20.9193 18.9518 20.9003C18.9401 20.8927 18.9284 20.8851 18.9168 20.8775C18.8896 20.8595 18.8618 20.8416 18.8346 20.8236C18.8213 20.8149 18.8085 20.8062 18.7957 20.797C18.7702 20.7796 18.7447 20.7627 18.7191 20.7453C18.7041 20.7349 18.6897 20.7246 18.6747 20.7143C18.6514 20.698 18.6275 20.6816 18.6042 20.6653C18.5881 20.6539 18.5714 20.6425 18.5553 20.6311C18.5337 20.6158 18.512 20.6006 18.4904 20.5854C18.4721 20.5723 18.4532 20.5587 18.4349 20.5451C18.4154 20.5315 18.3966 20.5174 18.3771 20.5038C18.356 20.4886 18.3355 20.4733 18.3144 20.4581C18.2977 20.4461 18.2811 20.4342 18.265 20.4216C18.2411 20.4042 18.2178 20.3863 18.1939 20.3689C18.1806 20.3591 18.1667 20.3488 18.1534 20.339C18.1284 20.3205 18.1034 20.3014 18.0784 20.2824C18.0662 20.2732 18.054 20.2639 18.0418 20.2547C18.0146 20.234 17.9868 20.2128 17.9596 20.1921C17.9502 20.185 17.9407 20.178 17.9318 20.1709C17.9002 20.1464 17.8686 20.1225 17.8369 20.098C17.8319 20.0942 17.8275 20.0904 17.8225 20.0871C17.7125 20.0023 17.6032 19.9174 17.4943 19.832C17.3839 19.974 17.2706 20.1127 17.1535 20.2481C16.9514 20.4826 16.7376 20.7094 16.5083 20.9188C17.1446 21.4187 17.788 21.9827 18.3793 22.6017C18.8296 22.3689 19.2593 22.0959 19.6591 21.7592C19.8012 21.6395 19.9378 21.5128 20.0694 21.3811V21.379Z" fill="#75431B"/>
<path d="M16.7979 10.8072C16.8651 10.848 16.9317 10.8894 16.9983 10.9312C17.025 10.9481 17.0516 10.9639 17.0783 10.9807C17.0805 10.9824 17.0827 10.9835 17.0849 10.9851C17.3614 11.1597 17.634 11.3403 17.9005 11.5285C17.8444 11.4251 17.7834 11.324 17.7206 11.225C17.4119 11.0482 17.101 10.8796 16.7896 10.7191C16.7923 10.7485 16.7962 10.7779 16.7979 10.8078V10.8072Z" fill="#75431B"/>
<path d="M16.1208 10.4112C16.2058 10.4591 16.2902 10.507 16.374 10.5554C16.3729 10.5396 16.3707 10.5233 16.369 10.5075C16.1941 10.4221 16.0181 10.3373 15.8394 10.2551C15.9293 10.3041 16.0187 10.3536 16.1081 10.4036C16.1125 10.4058 16.1164 10.4085 16.1208 10.4107V10.4112Z" fill="#75431B"/>
<path d="M12.7712 16.7149C12.7529 16.7051 12.734 16.6958 12.7157 16.6866C12.6019 16.6278 12.4881 16.5696 12.3732 16.5125C12.3221 16.487 12.271 16.463 12.2199 16.438C12.1372 16.3978 12.0545 16.357 11.9712 16.3173C11.9118 16.289 11.8524 16.2618 11.7924 16.234C11.733 16.2063 11.673 16.1786 11.6136 16.1514C11.6036 16.1748 11.5936 16.1976 11.5836 16.221C11.3921 16.6735 11.1972 17.125 11.0057 17.5775C10.994 17.6053 10.9824 17.6341 10.9707 17.6635C11.3899 17.8392 11.7447 18.0007 12.0173 18.1302C12.4137 17.7418 12.7929 17.3377 13.1521 16.9178C13.0255 16.8492 12.8989 16.7818 12.7712 16.7154V16.7149Z" fill="#75431B"/>
<path d="M13.5801 17.1532C13.5801 17.1532 13.5829 17.1549 13.5846 17.1554C13.5835 17.1549 13.5818 17.1538 13.5806 17.1532H13.5801Z" fill="#75431B"/>
<path d="M11.1099 15.9268C11.1099 15.9268 11.1099 15.9268 11.1093 15.9268C11.091 15.9191 11.0727 15.911 11.0543 15.9033H11.0532C11.0721 15.9115 11.091 15.9197 11.1104 15.9279L11.1099 15.9268Z" fill="#75431B"/>
<path d="M10.6614 15.7385C10.527 15.6836 10.3921 15.6292 10.2567 15.5769C10.1678 15.5421 10.0784 15.5084 9.98905 15.4747C9.36278 15.2386 8.72818 15.0249 8.08581 14.8356C8.02751 14.9944 7.97976 15.1489 7.94701 15.2979C7.85151 15.7276 7.83152 16.1568 7.83541 16.5859C8.56217 16.7785 9.24785 17.0026 9.86135 17.2278C9.90688 17.1451 9.9513 17.0635 9.99238 16.9835C10.2078 16.5642 10.4304 16.1497 10.662 15.739L10.6614 15.7385Z" fill="#75431B"/>
<path d="M6.90948 14.5223C6.89393 14.5185 6.87839 14.5147 6.8634 14.5109C6.82065 14.5011 6.7779 14.4913 6.73515 14.4821C6.72626 14.4799 6.71738 14.4782 6.7085 14.4761C6.77568 14.4913 6.84286 14.5071 6.90948 14.5223Z" fill="#75431B"/>
<path d="M6.69903 14.4739C6.69903 14.4739 6.69403 14.4728 6.69125 14.4723C6.42087 14.4119 6.14937 14.3553 5.87788 14.2977C5.8479 14.2911 5.81792 14.2852 5.78794 14.2786C5.7524 14.271 5.71631 14.2634 5.68078 14.2558C5.58529 14.2351 5.48979 14.2145 5.39485 14.1932C5.32156 14.8226 5.33655 15.4671 5.38486 16.1149C5.68356 16.1481 5.9817 16.1916 6.27707 16.2428C6.30927 15.8843 6.36646 15.5362 6.44641 15.2153C6.51026 14.9591 6.59631 14.7127 6.69847 14.4744L6.69903 14.4739Z" fill="#75431B"/>
<path d="M16.6028 19.1456C16.0693 18.7464 15.5246 18.3607 14.9655 17.9957C14.6441 17.7858 14.3171 17.5835 13.9862 17.3882C13.6614 17.8076 13.3171 18.2128 12.9546 18.6017C13.4471 18.8644 14.4037 19.4023 15.4874 20.1606C15.5363 20.1263 15.5852 20.092 15.6329 20.0572C15.9938 19.7956 16.3102 19.4796 16.6028 19.1456Z" fill="#75431B"/>
<path d="M1.53541 16.3928C1.57372 16.3803 1.61258 16.3689 1.65089 16.3569C1.65811 16.3547 1.66477 16.3525 1.67199 16.3504C1.71807 16.3368 1.76471 16.3237 1.81135 16.3107C1.81912 16.3085 1.82689 16.3063 1.83467 16.3047C1.87686 16.2933 1.91906 16.2824 1.96125 16.272C1.96736 16.2704 1.97402 16.2688 1.98013 16.2671C2.08007 16.2427 2.18111 16.2204 2.28272 16.1997C2.28383 16.1997 2.28549 16.1997 2.2866 16.1992C2.80905 16.0947 3.34871 16.0441 3.89559 16.0365C3.84506 15.4001 3.8495 14.7594 3.93001 14.1143C3.94333 14.0082 3.96055 13.9038 3.97942 13.7993C3.37203 13.5747 2.79073 13.2516 2.38543 12.7512C2.23941 12.5706 2.12226 12.3558 2.04453 12.1273C0.977984 14.6288 1.36552 16.4494 1.36552 16.4494C1.40993 16.4336 1.4549 16.4189 1.49932 16.4042C1.51154 16.4004 1.5232 16.3966 1.53541 16.3928Z" fill="#75431B"/>
<path d="M5.39486 14.1932C5.24051 14.1584 5.08672 14.1225 4.93348 14.0844C4.93348 14.0844 4.93293 14.0844 4.93237 14.0844C4.91572 14.08 4.89851 14.0757 4.88185 14.0713C4.82133 14.0561 4.76082 14.0403 4.7003 14.0246C4.69919 14.0246 4.69752 14.024 4.69641 14.0235C4.64034 14.0088 4.58426 13.9936 4.52874 13.9778C4.34608 13.9261 4.16175 13.8674 3.97964 13.7999C3.96077 13.9044 3.943 14.0088 3.93023 14.1149C3.84972 14.76 3.84528 15.4007 3.89581 16.0371C4.38938 16.0306 4.88851 16.0589 5.38542 16.1143C5.33712 15.4665 5.32213 14.8225 5.39542 14.1926L5.39486 14.1932Z" fill="#6D3B18"/>
<path d="M11.5842 16.2204C11.5942 16.197 11.6042 16.1741 11.6142 16.1508C11.6142 16.1508 11.6142 16.1508 11.6142 16.1502C11.5931 16.1404 11.5714 16.1312 11.5503 16.1214C11.5248 16.11 11.4992 16.0985 11.4737 16.0866C11.3932 16.0501 11.3121 16.0153 11.2316 15.98C11.1911 15.962 11.1511 15.9441 11.1101 15.9267C11.0912 15.9185 11.0723 15.9103 11.0529 15.9022C10.9313 15.85 10.8097 15.7988 10.6875 15.7488C10.6787 15.745 10.6703 15.7417 10.6614 15.7379C10.4299 16.1486 10.2073 16.5631 9.99187 16.9824C9.95078 17.0624 9.90637 17.144 9.86084 17.2266C10.2656 17.3751 10.6387 17.5231 10.9713 17.6629C10.9829 17.6335 10.9946 17.6052 11.0062 17.5769C11.1978 17.1244 11.3927 16.6729 11.5842 16.2204Z" fill="#6D3B18"/>
<path d="M17.4937 19.8305C17.4893 19.8267 17.4843 19.8234 17.4799 19.8196C17.3899 19.7495 17.3005 19.6793 17.2106 19.6097C17.0096 19.453 16.807 19.2985 16.6032 19.1462C16.3106 19.4802 15.9941 19.7962 15.6333 20.0579C15.5855 20.0927 15.5367 20.1269 15.4878 20.1612C15.8193 20.3935 16.1629 20.6458 16.5088 20.9173C16.7381 20.7073 16.9513 20.4805 17.154 20.2466C17.2706 20.1112 17.3844 19.9725 17.4949 19.8305H17.4937Z" fill="#6D3B18"/>
<path d="M13.6799 17.2103C13.6515 17.194 13.6238 17.1783 13.5955 17.1619C13.5916 17.1598 13.5877 17.1576 13.5838 17.1554C13.5821 17.1549 13.581 17.1538 13.5794 17.1532C13.5072 17.1124 13.4345 17.0716 13.3623 17.0314C13.2923 16.9928 13.2224 16.9547 13.1524 16.9166C12.7932 17.3365 12.414 17.7407 12.0176 18.129C12.354 18.2884 12.5639 18.3988 12.6133 18.4249C12.6155 18.426 12.6183 18.4277 12.6211 18.4287C12.6649 18.4505 12.781 18.5087 12.9542 18.6012C13.3168 18.2117 13.661 17.807 13.9858 17.3877C13.8842 17.3278 13.782 17.2685 13.6799 17.2103Z" fill="#6D3B18"/>
<path d="M16.7979 10.8073C16.7957 10.7774 16.7923 10.7485 16.7896 10.7186C16.7729 10.7099 16.7557 10.7007 16.739 10.6925C16.7213 10.6833 16.7029 10.6746 16.6852 10.6653C17.0316 10.1731 17.3292 9.65578 17.5596 9.09118C17.8855 8.29215 18.0904 7.46593 18.1237 6.60435C18.1565 5.76344 17.9971 4.91981 17.6418 4.15342C17.2615 3.33209 16.6985 2.62227 16.0484 1.98805C15.3249 1.28258 14.506 0.679908 13.6871 0.0870282C13.6349 0.0494973 13.5788 0.0201253 13.52 0C13.4733 0.0315477 13.4278 0.066359 13.385 0.106066C13.103 0.366606 12.9486 0.723966 12.8643 1.10145C14.2101 2.06039 15.6036 3.06502 16.4731 4.46019C17.2909 5.77214 17.3675 7.29894 17.0128 8.70989C16.8584 9.32289 16.638 9.92992 16.3693 10.5087C16.3693 10.5087 16.3687 10.5087 16.3682 10.5081C16.3698 10.5239 16.372 10.5402 16.3732 10.556C16.5153 10.6381 16.6569 10.7219 16.7973 10.8073H16.7979Z" fill="#6D3B18"/>
<path d="M21.7089 15.552C22.379 16.7318 22.7277 18.1482 22.223 19.4519C21.9965 20.0367 21.6151 20.5811 21.0998 20.9559C20.8572 21.1327 20.5835 21.2806 20.2881 21.3513C20.2126 21.3693 20.1399 21.378 20.0699 21.3791C19.9383 21.5107 19.8018 21.6374 19.6596 21.7571C19.2599 22.0938 18.8302 22.3668 18.3799 22.5996C18.763 23.0005 19.1239 23.4237 19.4459 23.8675C20.966 22.9325 22.1747 21.477 22.7549 19.8474C23.198 18.604 23.244 17.2131 22.9026 15.9409C22.8154 15.6167 22.6983 15.2996 22.5595 14.9896C21.8638 14.2297 21.0549 13.5095 20.1815 12.847C20.8011 13.6363 21.3413 14.5272 21.6534 15.4557C21.6717 15.4873 21.6906 15.5188 21.7089 15.5509V15.552Z" fill="#6D3B18"/>
<path d="M8.08516 14.835C8.03241 14.8192 7.97967 14.8045 7.92692 14.7893C7.75148 14.7387 7.57604 14.6892 7.39948 14.643C7.2368 14.6 7.07302 14.5609 6.90868 14.5228C6.8415 14.507 6.77487 14.4912 6.70769 14.4765C6.70436 14.476 6.70159 14.4749 6.69826 14.4744C6.59554 14.7126 6.51004 14.959 6.44619 15.2152C6.36624 15.5361 6.3085 15.8842 6.27686 16.2427C6.80874 16.3346 7.33119 16.4526 7.83476 16.5859C7.83087 16.1567 7.85086 15.727 7.94636 15.2979C7.97967 15.1488 8.02686 14.9944 8.08516 14.8355V14.835Z" fill="#6D3B18"/>
<path d="M19.137 12.4907C19.0693 12.3053 18.9893 12.1236 18.8988 11.9457C18.5124 11.6934 18.1182 11.4524 17.7207 11.2245C17.7834 11.324 17.8445 11.4247 17.9006 11.528C18.3292 11.8299 18.7428 12.1502 19.137 12.4902V12.4907Z" fill="#6D3B18"/>
<path d="M20.0694 21.3791C20.1399 21.378 20.2121 21.3698 20.2876 21.3513C20.583 21.2806 20.8567 21.1321 21.0993 20.9559C21.6145 20.5811 21.996 20.0366 22.2225 19.4519C22.7277 18.1487 22.3785 16.7318 21.7084 15.552C21.69 15.5199 21.6712 15.4889 21.6528 15.4568C21.6689 15.5047 21.6856 15.552 21.7 15.5998C22.3346 17.6537 21.5646 19.8805 20.0688 21.3791H20.0694Z" fill="#844D20"/>
<path d="M13.5803 17.1532C13.5803 17.1532 13.5831 17.1549 13.5842 17.1554C13.5881 17.1576 13.592 17.1598 13.5959 17.1619C13.6242 17.1777 13.652 17.194 13.6803 17.2104C13.7824 17.2691 13.8846 17.3278 13.9862 17.3877C14.7879 16.3515 15.4703 15.2283 16.0077 14.0365C16.4346 13.0901 16.8705 11.9022 16.7983 10.8067C16.6578 10.7213 16.5163 10.6376 16.3741 10.5554C16.4763 11.7477 15.7301 13.0276 15.1666 14.0344C14.593 15.0591 13.9168 16.0224 13.1528 16.9161C13.2228 16.9542 13.2933 16.9922 13.3627 17.0309C13.4354 17.0711 13.5082 17.1119 13.5803 17.1527V17.1532Z" fill="#844D20"/>
<path d="M18.4664 15.5655C18.2137 16.7594 17.6413 17.8832 16.8663 18.8334C16.7802 18.939 16.6925 19.0434 16.6025 19.1462C16.8069 19.299 17.0095 19.4535 17.2105 19.6102C17.3049 19.6836 17.3993 19.757 17.4936 19.831C18.0655 19.0972 18.5469 18.2819 18.8878 17.4263C19.4985 15.8946 19.7145 14.0681 19.1365 12.4913C18.7423 12.1513 18.3281 11.8315 17.9001 11.5291C18.5596 12.7464 18.7473 14.2373 18.4664 15.5661V15.5655Z" fill="#844D20"/>
<path d="M5.65066 10.6995C4.78787 11.5584 4.19602 12.6191 3.97949 13.7994C4.1616 13.8668 4.34593 13.9256 4.52859 13.9772C4.58411 13.993 4.64019 14.0082 4.69626 14.0229C4.69737 14.0229 4.69904 14.0235 4.70015 14.024C4.76067 14.0403 4.82118 14.0556 4.8817 14.0708C4.89891 14.0752 4.91612 14.0795 4.93333 14.0839C5.08657 14.1219 5.24036 14.1578 5.39471 14.1926C5.48909 13.3833 5.72839 12.5989 6.23251 11.8641C6.87378 10.9285 7.8254 10.0637 8.8181 9.49529C9.61593 9.0384 10.5226 8.81538 11.4387 8.74685C10.6603 8.57279 9.88743 8.45313 9.13679 8.39819C9.01853 8.43736 8.90083 8.47978 8.78368 8.52656C7.60554 8.99706 6.53788 9.81621 5.65066 10.6995Z" fill="#844D20"/>
<path d="M8.28106 12.252C7.63425 12.909 7.0585 13.6384 6.69873 14.4739C6.71094 14.4766 6.7226 14.4793 6.73482 14.482C6.77757 14.4918 6.82032 14.5011 6.86307 14.5109C6.87862 14.5147 6.89361 14.5185 6.90915 14.5223C7.07294 14.5604 7.23672 14.5995 7.39995 14.6425C7.57651 14.6893 7.75195 14.7388 7.9274 14.7888C7.98014 14.8041 8.03289 14.8187 8.08563 14.8345C8.52202 13.6531 9.59968 12.2519 10.3425 11.423C11.2575 10.4015 12.4101 9.7352 13.6943 9.39199C13.3501 9.27287 13.0042 9.16245 12.6566 9.06128C11.9771 9.29462 11.3375 9.64002 10.7534 10.0507C9.84563 10.6898 9.05447 11.4665 8.28106 12.252Z" fill="#844D20"/>
<path d="M14.2376 10.0354C13.537 10.8198 12.9262 11.7543 12.4116 12.6593C11.8597 13.6297 11.31 14.6012 10.7565 15.571C10.7248 15.6265 10.6938 15.6825 10.6621 15.7385C10.671 15.7423 10.6793 15.7456 10.6882 15.7494C10.8109 15.7994 10.933 15.8511 11.0552 15.9033C11.0735 15.9109 11.0918 15.9191 11.1102 15.9267C11.1512 15.9441 11.1918 15.9626 11.2323 15.9806C11.3134 16.0159 11.3939 16.0513 11.4744 16.0872C11.4999 16.0986 11.5255 16.11 11.551 16.122C11.5721 16.1318 11.5937 16.141 11.6148 16.1508C11.9979 15.2484 12.4071 14.3624 12.8713 13.497C13.3265 12.6479 13.7912 11.7999 14.2926 10.9764C14.513 10.6142 14.7967 10.2329 15.1443 9.94951C14.9527 9.86846 14.759 9.79014 14.5646 9.71399C14.4314 9.83528 14.3137 9.95114 14.2376 10.036V10.0354Z" fill="#844D20"/>
<path d="M22.7548 19.8478C22.1746 21.4774 20.9654 22.933 19.4458 23.868C19.6657 24.1709 19.8678 24.4831 20.0471 24.8046C20.931 24.4135 21.7183 23.8114 22.3579 23.1016C23.7298 21.5786 24.4815 19.3229 24.22 17.2957C23.8019 16.5016 23.2345 15.7276 22.5599 14.9911C22.6987 15.3011 22.8159 15.6182 22.9031 15.9424C23.2445 17.2147 23.1984 18.6049 22.7554 19.8489L22.7548 19.8478Z" fill="#75431B"/>
<path d="M24.7871 18.6947C24.8215 19.342 24.776 19.9909 24.6161 20.6316C24.323 21.807 23.6895 22.9031 22.86 23.7946C22.1754 24.5299 21.3393 25.1402 20.4243 25.5797C20.5287 25.8305 20.6181 26.0856 20.6897 26.345C20.6897 26.345 22.84 25.4503 24.4007 22.525C25.0731 21.2648 25.1452 19.9669 24.7866 18.6952L24.7871 18.6947Z" fill="#75431B"/>
<path d="M22.3571 23.1011C21.7176 23.8109 20.9303 24.413 20.0464 24.8041C20.188 25.0576 20.3146 25.316 20.4245 25.5798C21.3395 25.1403 22.1756 24.53 22.8602 23.7946C23.6896 22.9036 24.3231 21.8071 24.6163 20.6317C24.7762 19.9909 24.8217 19.342 24.7873 18.6947C24.6546 18.2232 24.4619 17.7559 24.2199 17.2947C24.4819 19.3219 23.7302 21.5781 22.3577 23.1005L22.3571 23.1011Z" fill="#6D3B18"/>
<path d="M20.0467 24.8041C19.8679 24.4832 19.6659 24.171 19.4454 23.8675C19.1229 23.4236 18.7625 23.0005 18.3794 22.5996C17.7882 21.9811 17.1447 21.4165 16.5084 20.9167C16.1625 20.6453 15.8194 20.3923 15.4874 20.1606C14.4036 19.4024 13.447 18.8644 12.9545 18.6017C12.7808 18.5093 12.6647 18.4505 12.6214 18.4293C12.6186 18.4277 12.6159 18.4266 12.6136 18.4255C12.5642 18.3994 12.3544 18.2895 12.0179 18.1296C11.7459 18.0007 11.3911 17.8391 10.9713 17.6629C10.6388 17.5237 10.2657 17.3752 9.86093 17.2267C9.24743 17.002 8.56175 16.7774 7.83499 16.5849C7.33197 16.4516 6.80897 16.3336 6.27708 16.2416C5.98171 16.1905 5.68412 16.1475 5.38487 16.1138C4.88852 16.0583 4.38939 16.0295 3.89525 16.0366C3.34838 16.0436 2.80816 16.0942 2.28627 16.1992C2.28516 16.1992 2.28349 16.1992 2.28238 16.1998C2.18078 16.2204 2.07973 16.2427 1.9798 16.2672C1.97369 16.2688 1.96703 16.2705 1.96092 16.2721C1.91872 16.2824 1.87653 16.2933 1.83433 16.3047C1.82656 16.3069 1.81879 16.3091 1.81101 16.3107C1.76438 16.3232 1.71774 16.3368 1.67166 16.3504C1.66444 16.3526 1.65778 16.3548 1.65056 16.3569C1.61169 16.3684 1.57339 16.3803 1.53508 16.3928C1.52286 16.3967 1.5112 16.4005 1.49899 16.4043C1.45402 16.419 1.4096 16.4336 1.36518 16.4494C1.24193 16.4929 -0.265454 19.6423 0.0410195 23.4084C0.0104832 22.2047 0.259215 20.45 1.52231 18.655C3.84417 15.3561 10.38 18.5424 11.2673 18.9134C19.3166 22.2781 14.5147 29.5727 10.4916 30.4017C6.46863 31.2306 4.84465 32.9559 4.828 32.9875C4.828 32.9886 4.83633 32.9897 4.85132 32.9908C4.85354 32.9908 4.8552 32.9908 4.85742 32.9913L4.86964 32.9685C5.02565 32.8972 5.18333 32.8357 5.34156 32.783C6.12107 32.3299 6.86671 32.6241 10.49 32.5627C15.0987 32.4844 18.782 28.2738 19.4527 27.3976C20.004 26.6774 20.2322 26.9298 20.296 27.0424C20.5664 26.6415 20.6991 26.3793 20.6897 26.3445C20.618 26.0851 20.5286 25.83 20.4243 25.5792C20.3143 25.316 20.1877 25.057 20.0462 24.8036L20.0467 24.8041Z" fill="#B77B44"/>
<path d="M19.4529 27.3981C18.7822 28.2738 15.099 32.4843 10.4902 32.5632C6.86695 32.6252 6.12186 32.3304 5.3418 32.7835C6.05468 32.5474 6.78089 32.5034 7.45935 32.6486C14.4977 34.1531 18.9921 28.9787 20.2957 27.0429C20.2318 26.9303 20.0042 26.6779 19.4523 27.3981H19.4529Z" fill="#CB8E4F"/>
</g>
<defs>
<clipPath id="clip0_3_168448">
<rect width="25" height="33" fill="white"/>
</clipPath>
</defs>
</svg>
