<svg width="176" height="189" viewBox="0 0 176 189" fill="none" xmlns="http://www.w3.org/2000/svg">
<g clip-path="url(#clip0_3_164951)">
<path d="M71.1087 41.326C71.7312 41.4874 72.3552 41.6435 72.9805 41.7942C70.8061 40.703 68.3346 40.3828 65.9666 39.7773C67.6568 40.368 69.3753 40.8766 71.1087 41.326Z" fill="#B78B6C"/>
<path d="M174.448 176.632C172.126 174.647 169.957 172.485 167.935 170.196C166.966 169.101 166.091 167.918 165.092 166.853C163.992 165.679 162.782 164.615 161.69 163.433C160.779 162.446 159.958 161.393 159.455 160.137C158.918 158.799 158.652 157.364 158.453 155.941C158.032 152.916 158.019 149.841 157.512 146.829C156.16 138.813 154.825 130.8 153.569 122.768C152.309 114.714 151.044 106.66 149.582 98.6401C147.482 87.1202 144.881 75.6258 139.957 64.9589C139.172 63.2946 138.269 61.7729 137.284 60.3655C136.389 58.642 135.264 57.0435 133.996 55.5743C131.436 52.6089 128.272 50.2085 124.984 48.1083C121.506 45.8855 117.852 43.8647 114.133 42.0738C112.563 41.3177 110.961 40.6288 109.328 40.0381C109.303 40.0893 109.276 40.1404 109.247 40.1888C108.989 40.6167 108.542 40.9087 108.127 41.1697C107.284 41.6998 106.361 42.0927 105.455 42.5003C104.535 42.9148 103.611 43.3224 102.681 43.7153C99.2988 45.1388 95.7502 46.2825 92.0428 46.2704C90.1347 46.2636 88.228 46.0268 86.3373 45.7941C84.4346 45.5599 82.5372 45.2855 80.6479 44.9666C76.9204 44.3356 73.2091 43.5458 69.5623 42.5474C67.7456 42.0496 65.9504 41.4751 64.1889 40.8077C63.327 40.4821 62.4677 40.139 61.6313 39.7529C61.2413 39.5726 60.885 39.3452 60.5623 39.0748C60.5434 39.064 60.5233 39.0519 60.5044 39.0411C60.2906 38.9187 60.0755 38.8084 59.8711 38.6806C59.8563 38.6792 59.8429 38.6765 59.8281 38.6738C59.036 38.9362 58.2212 39.2322 57.3901 39.5645C57.5434 39.7502 57.7129 39.9238 57.8944 40.0772C58.6407 40.7109 59.5322 41.1051 60.4372 41.459C61.4081 41.8384 62.3897 42.1882 63.3727 42.534C67.4699 43.9736 71.6425 45.198 75.8675 46.2004C80.0979 47.2041 84.3754 47.9387 88.6919 48.4527C90.877 48.7124 93.0715 48.8348 95.254 49.108C97.3961 49.3757 99.5328 49.7255 101.629 50.2489C105.209 51.1423 108.712 52.7057 111.416 55.2689C111.755 55.5904 112.077 55.9254 112.388 56.2739C112.653 56.5713 113.14 56.2564 113.04 55.8945C112.315 53.2655 110.801 50.9459 108.659 49.2533C108.596 49.2035 108.533 49.1537 108.468 49.1039C108.406 49.0555 108.345 49.007 108.281 48.9573C108.269 48.9478 108.258 48.9398 108.246 48.9303C108.194 48.8886 108.141 48.8469 108.088 48.8052C108.072 48.7918 108.055 48.7797 108.039 48.7662C107.991 48.7285 107.942 48.6895 107.894 48.6505C107.877 48.637 107.86 48.6236 107.843 48.6088C107.796 48.5711 107.749 48.5321 107.702 48.4931C107.684 48.4796 107.668 48.4648 107.651 48.4514C107.602 48.411 107.555 48.372 107.508 48.3303C107.493 48.3168 107.477 48.3047 107.462 48.2913C107.411 48.2468 107.362 48.2024 107.312 48.158C107.301 48.1486 107.289 48.1379 107.278 48.1284C107.22 48.076 107.163 48.0235 107.106 47.9697C107.106 47.9697 107.101 47.9656 107.099 47.963C107.093 47.9374 107.087 47.9118 107.082 47.8863C107.042 47.6979 107.02 47.4692 107.047 47.2458C107.043 47.2754 107.074 47.118 107.099 47.0548C107.089 47.0897 107.177 47.0023 107.129 47.0238C107.344 46.9296 107.684 47.0521 107.92 47.0884C108.272 47.1436 108.628 47.1853 108.978 47.2525C109.609 47.4772 110.231 47.7235 110.843 47.9899C113.98 49.3528 116.902 51.1396 119.675 53.1363C122.481 55.1572 125.224 57.3046 127.871 59.5313C129.198 60.6494 130.48 61.8267 131.621 63.1372C132.817 64.5095 133.797 66.0367 134.67 67.6297C136.454 70.8857 138.06 74.2682 139.63 77.6319C141.221 81.036 142.691 84.5005 143.875 88.0687C146.328 95.4554 147.302 103.235 148.52 110.893C149.518 117.165 150.622 123.413 151.805 129.649C152.221 132.738 152.66 135.828 153.082 138.918C153.089 138.967 153.096 139.016 153.103 139.065C153.15 139.408 153.195 139.75 153.242 140.093C153.256 140.192 153.269 140.292 153.283 140.391C153.323 140.695 153.365 141.001 153.405 141.305C153.423 141.433 153.439 141.559 153.456 141.687C153.494 141.971 153.53 142.255 153.568 142.537C153.587 142.68 153.606 142.824 153.624 142.967C153.659 143.238 153.694 143.509 153.728 143.781C153.747 143.934 153.767 144.087 153.786 144.241C153.819 144.504 153.852 144.767 153.884 145.031C153.904 145.191 153.923 145.351 153.943 145.51C153.975 145.775 154.006 146.04 154.039 146.303C154.057 146.459 154.076 146.617 154.095 146.773C154.129 147.058 154.161 147.343 154.193 147.629C154.208 147.765 154.224 147.9 154.24 148.036C154.287 148.456 154.333 148.877 154.379 149.297C154.738 152.661 154.88 156.05 154.445 159.414C154.232 161.058 153.889 162.688 153.452 164.287C153.034 165.818 152.582 167.412 151.856 168.829C150.632 171.219 148.255 172.392 145.822 173.232C143.28 174.11 140.726 174.846 138.263 175.948C133.064 178.273 128.234 181.474 122.764 183.169C119.835 184.077 116.875 184.361 113.819 184.172C110.499 183.966 107.202 183.368 103.867 183.459C100.557 183.549 97.3436 184.411 94.1876 185.341C91.1029 186.249 88.0303 187.187 84.9523 188.115C85.2239 188.086 85.4969 188.055 85.7685 188.02C88.8949 187.615 91.977 186.946 95.0886 186.444C101.386 185.427 107.593 185.999 113.912 186.423C117.055 186.633 120.217 186.762 123.362 186.491C126.355 186.234 129.259 185.572 132.09 184.574C134.877 183.592 137.563 182.361 140.27 181.179C143.101 179.944 146.074 178.544 149.172 178.172C152.35 177.791 155.398 178.95 158.469 179.57C161.456 180.173 164.53 180.472 167.574 180.233C170.502 180.005 173.411 179.246 176.004 177.902C175.481 177.486 174.963 177.061 174.452 176.624L174.448 176.632ZM105.868 45.0177C105.886 44.972 105.907 44.9289 105.928 44.8845C105.907 44.9276 105.886 44.972 105.868 45.0177ZM106.291 44.3625C106.322 44.3275 106.353 44.2939 106.384 44.2602C106.352 44.2939 106.321 44.3275 106.291 44.3625ZM106.399 44.2454C106.432 44.2104 106.465 44.1768 106.5 44.1418C106.466 44.1755 106.432 44.2104 106.399 44.2454ZM133.779 56.6143C133.832 56.726 133.884 56.839 133.938 56.9507C133.886 56.839 133.833 56.726 133.779 56.6143ZM135.123 59.5179C135.194 59.6753 135.264 59.8327 135.334 59.9901C135.264 59.8327 135.193 59.6753 135.123 59.5179ZM135.557 60.4893C135.63 60.6534 135.701 60.8162 135.774 60.9804C135.701 60.8162 135.63 60.6521 135.557 60.4893ZM135.985 61.4621C136.059 61.6316 136.133 61.8025 136.205 61.972C136.131 61.8025 136.059 61.6316 135.985 61.4621ZM136.406 62.4362C136.481 62.6124 136.556 62.7887 136.63 62.9649C136.555 62.7887 136.481 62.6124 136.406 62.4362ZM136.82 63.4116C136.896 63.5933 136.973 63.7749 137.048 63.9579C136.972 63.7763 136.896 63.5933 136.82 63.4116ZM137.229 64.3885C137.307 64.5768 137.383 64.7638 137.461 64.9522C137.385 64.7638 137.307 64.5755 137.229 64.3885ZM137.629 65.3653C137.709 65.5604 137.787 65.7541 137.866 65.9492C137.788 65.7541 137.709 65.5604 137.629 65.3653ZM138.411 67.3202C138.493 67.5301 138.575 67.74 138.657 67.9486C138.575 67.7387 138.494 67.5288 138.411 67.3202ZM138.79 68.2957C138.874 68.5137 138.958 68.7316 139.041 68.9509C138.958 68.733 138.874 68.5137 138.79 68.2957ZM139.162 69.2698C139.248 69.4972 139.334 69.7259 139.419 69.9533C139.334 69.7246 139.248 69.4972 139.162 69.2698Z" fill="#B78B6C"/>
<path d="M106.076 40.5374C106.227 40.4634 106.376 40.3894 106.525 40.3127C106.911 40.1149 107.3 39.9063 107.652 39.652C107.71 39.6103 107.764 39.57 107.815 39.5256C107.723 39.496 107.632 39.4677 107.539 39.4395C107.062 39.8189 106.575 40.1848 106.075 40.5374H106.076Z" fill="#B78B6C"/>
<path d="M37.3704 181.401C36.0473 180.924 34.7187 180.474 33.4924 179.772C31.5036 178.634 29.9195 176.944 28.3139 175.339C26.5147 173.54 24.5851 171.781 22.1149 170.989C21.7572 170.874 21.456 171.301 21.6375 171.61C22.2265 172.619 22.8007 173.767 22.9137 174.946C22.9661 175.499 22.9244 176.046 22.7308 176.57C22.5721 176.999 22.2575 177.339 21.9199 177.637C20.4757 178.911 18.3525 178.702 16.6877 178.086C14.395 177.238 12.4224 175.683 10.0019 175.154C8.79843 174.891 7.51291 174.865 6.3484 175.316C5.31299 175.718 4.44835 176.411 3.6523 177.173C2.78094 178.007 1.97412 178.924 0.899711 179.503C0.622705 179.652 0.320149 179.781 0.00683594 179.88C0.0646577 180.236 0.524542 180.477 0.892988 180.303C2.89254 179.362 5.11935 179.535 7.22111 179.989C9.44926 180.469 11.6048 181.239 13.8424 181.674C17.9249 182.47 22.1687 181.956 25.9796 180.306C26.8402 179.933 27.6631 179.491 28.4538 178.99C29.6721 179.732 30.9119 180.438 32.1947 181.065C34.7053 182.291 37.3328 183.093 40.0988 183.491C40.8586 183.6 41.621 183.686 42.3848 183.755C42.0769 183.597 41.7703 183.436 41.465 183.27C40.1351 182.55 38.7945 181.914 37.3718 181.4L37.3704 181.401Z" fill="#B78B6C"/>
<path d="M103.865 183.466C107.2 183.376 110.499 183.972 113.817 184.179C116.874 184.369 119.833 184.085 122.762 183.177C128.232 181.482 133.061 178.281 138.261 175.956C140.725 174.854 143.278 174.117 145.821 173.239C148.254 172.4 150.631 171.225 151.855 168.837C152.581 167.42 153.033 165.824 153.451 164.295C153.888 162.695 154.231 161.066 154.443 159.421C154.879 156.058 154.735 152.668 154.377 149.305C154.333 148.885 154.286 148.464 154.239 148.044C154.224 147.908 154.208 147.772 154.192 147.636C154.159 147.351 154.127 147.066 154.094 146.781C154.075 146.625 154.056 146.467 154.037 146.311C154.006 146.046 153.974 145.781 153.942 145.517C153.923 145.357 153.903 145.197 153.882 145.038C153.85 144.775 153.818 144.512 153.784 144.249C153.765 144.095 153.745 143.942 153.726 143.788C153.691 143.517 153.658 143.246 153.623 142.974C153.604 142.832 153.585 142.688 153.566 142.545C153.53 142.261 153.492 141.977 153.455 141.695C153.439 141.567 153.421 141.441 153.404 141.313C153.363 141.009 153.323 140.703 153.281 140.399C153.268 140.3 153.254 140.2 153.241 140.1C153.195 139.757 153.148 139.416 153.101 139.072C153.094 139.024 153.088 138.974 153.081 138.926C152.659 135.835 152.219 132.746 151.804 129.657C150.619 123.421 149.516 117.171 148.518 110.901C147.3 103.243 146.327 95.4631 143.874 88.0765C142.689 84.5083 141.219 81.0437 139.629 77.6397C138.057 74.276 136.453 70.8935 134.668 67.6374C133.795 66.0444 132.815 64.5173 131.62 63.1449C130.478 61.8344 129.197 60.6571 127.869 59.539C125.223 57.311 122.48 55.1649 119.673 53.144C116.901 51.1474 113.979 49.3606 110.842 47.9976C110.23 47.7325 109.607 47.485 108.976 47.2603C108.625 47.1917 108.27 47.1513 107.918 47.0961C107.684 47.0598 107.343 46.9374 107.127 47.0316C107.176 47.01 107.087 47.0975 107.098 47.0625C107.074 47.1257 107.043 47.2832 107.045 47.2536C107.019 47.4769 107.04 47.7056 107.08 47.894C107.086 47.9196 107.093 47.9451 107.098 47.9707C107.101 47.9734 107.103 47.9747 107.105 47.9774C107.161 48.0312 107.219 48.0837 107.277 48.1362C107.288 48.1456 107.3 48.1564 107.31 48.1658C107.36 48.2102 107.411 48.2546 107.461 48.299C107.476 48.3124 107.492 48.3246 107.507 48.338C107.554 48.3784 107.601 48.4187 107.649 48.4591C107.667 48.4726 107.683 48.4874 107.7 48.5008C107.747 48.5398 107.794 48.5775 107.842 48.6165C107.859 48.63 107.875 48.6448 107.893 48.6582C107.941 48.6972 107.989 48.7363 108.038 48.7739C108.054 48.7874 108.07 48.7995 108.086 48.813C108.139 48.8547 108.191 48.8964 108.245 48.9381C108.257 48.9475 108.268 48.9556 108.28 48.965C108.342 49.0134 108.405 49.0632 108.467 49.1117C108.53 49.1614 108.595 49.2112 108.658 49.261C110.798 50.9536 112.314 53.2718 113.039 55.9022C113.138 56.2642 112.651 56.5804 112.387 56.2817C112.076 55.9332 111.753 55.5968 111.414 55.2766C108.71 52.7135 105.207 51.15 101.628 50.2566C99.5313 49.7333 97.3946 49.3834 95.2525 49.1157C93.0701 48.8426 90.8742 48.7201 88.6904 48.4604C84.3739 47.9465 80.0965 47.2118 75.8661 46.2081C71.6411 45.2058 67.4685 43.9814 63.3712 42.5417C62.3882 42.1959 61.4066 41.8461 60.4357 41.4667C59.5308 41.1128 58.6392 40.7186 57.8929 40.0849C57.7114 39.9302 57.542 39.7579 57.3887 39.5723C56.4097 39.9638 55.4093 40.4038 54.3967 40.8908C55.697 43.2965 58.1713 44.8801 60.6294 45.9135C62.2578 46.5983 63.9804 47.0827 65.6895 47.5159C67.5384 47.9841 69.4102 48.3542 71.2901 48.6784C72.5017 48.887 73.7173 49.0807 74.9329 49.2677C75.0041 49.2731 75.0754 49.2771 75.1467 49.2812C75.4035 49.2987 75.6603 49.3175 75.9185 49.3377C75.9911 49.3431 76.0651 49.3485 76.1391 49.3552C76.3381 49.37 76.5371 49.3861 76.7361 49.4036C76.8033 49.409 76.8706 49.4144 76.9378 49.4211C77.4663 49.4655 77.9947 49.5153 78.5245 49.5691C78.5797 49.5745 78.6348 49.5799 78.6913 49.5866C78.9239 49.6108 79.1552 49.635 79.3878 49.6606C79.4241 49.6646 79.4604 49.6687 79.4967 49.6727C80.0481 49.7346 80.6007 49.8019 81.1521 49.8732C81.183 49.8772 81.2139 49.8813 81.2449 49.8853C82.0893 49.997 82.9338 50.1234 83.7756 50.2647C83.785 50.2661 83.7957 50.2674 83.8051 50.2701C85.5263 50.5594 87.2368 50.9146 88.9204 51.3505C90.4345 51.6048 91.915 51.9937 93.2718 52.6987C93.4305 52.7565 93.5891 52.8157 93.7465 52.8749C93.7747 52.8857 93.8016 52.8965 93.8298 52.9072C93.9683 52.9597 94.1055 53.0122 94.2426 53.0673C94.3126 53.0942 94.3811 53.1225 94.4511 53.1508C94.5533 53.1911 94.6555 53.2328 94.7577 53.2745C94.9379 53.3485 95.1167 53.4225 95.2942 53.4992C100.625 55.7758 105.324 59.3305 109.227 63.5943C113.149 67.881 116.277 72.8713 118.627 78.1778C121.44 84.5298 123.166 91.315 124.29 98.1554C125.441 105.155 125.93 112.241 126.3 119.318C126.436 121.914 126.543 124.519 126.665 127.123C126.202 132.455 125.111 137.716 123.151 142.795C118.943 153.695 110.928 162.991 99.6214 166.703C93.2234 168.805 86.4367 169.313 79.7536 169.65C73.1122 169.985 66.39 170.04 59.8105 168.953C53.6773 167.94 47.7486 165.868 42.5997 162.336C38.2403 159.346 34.5612 155.431 31.5961 151.069C26.5939 143.71 23.5939 135.22 21.6992 126.553C21.8068 128.601 21.9695 130.647 22.147 132.687C22.5141 136.885 22.7198 141.208 23.9704 145.259C24.2111 146.039 24.4867 146.808 24.7759 147.572C24.827 147.994 24.8673 148.417 24.8794 148.839C25.186 149.89 25.3326 150.969 25.4818 152.051C25.6324 153.142 25.8247 154.218 26.1622 155.269C26.4742 156.241 26.879 157.178 27.3415 158.088C28.2936 159.957 29.4756 161.695 30.6535 163.427C31.2559 164.314 31.8597 165.203 32.5495 166.025C33.2541 166.865 34.0475 167.61 34.9054 168.292C35.7553 168.968 36.6535 169.582 37.5383 170.209C38.4379 170.847 39.312 171.52 40.217 172.151C43.7992 174.655 47.5442 177.04 51.6549 178.581C55.5101 180.026 63.4263 181.149 62.8199 181.234C57.9575 181.904 53.0144 181.7 48.2031 180.742C43.3568 179.777 38.6558 178.067 34.2882 175.758C32.1138 174.608 30.0094 173.309 28.0072 171.879C26.9744 171.142 25.9915 170.343 24.9789 169.58C23.9516 168.806 22.8637 168.11 21.6239 167.738C19.1389 166.991 16.4872 167.416 14.0519 168.145C11.4459 168.926 8.90042 170.026 6.5109 171.321C5.36388 171.942 4.22358 172.651 3.15321 173.453C2.34236 175.57 1.31502 177.603 0.0940351 179.513C0.0106642 179.644 -0.0135402 179.773 0.00528546 179.889C0.318599 179.792 0.621154 179.661 0.898161 179.512C1.97257 178.933 2.77938 178.016 3.65075 177.182C4.4468 176.42 5.3101 175.726 6.34685 175.325C7.51136 174.873 8.79688 174.9 10.0004 175.163C12.4222 175.694 14.3948 177.249 16.6862 178.095C18.3509 178.71 20.4742 178.92 21.9184 177.646C22.2559 177.348 22.5692 177.007 22.7292 176.579C22.9242 176.055 22.9646 175.508 22.9121 174.955C22.8005 173.776 22.225 172.627 21.636 171.619C21.4558 171.31 21.757 170.883 22.1134 170.998C24.5836 171.792 26.5132 173.549 28.3124 175.348C29.918 176.953 31.5033 178.643 33.4908 179.781C34.7172 180.483 36.0457 180.933 37.3689 181.41C38.7916 181.924 40.1322 182.561 41.4621 183.281C41.7674 183.446 42.074 183.608 42.3819 183.765C44.6114 183.967 46.8517 184.029 49.0879 184.136C52.1982 184.287 55.2762 184.596 58.3501 185.102C64.4254 186.105 70.3999 187.68 76.5505 188.208C79.3542 188.449 82.1565 188.435 84.9495 188.132C88.0275 187.204 91.1014 186.268 94.1848 185.358C97.3408 184.428 100.556 183.565 103.864 183.476L103.865 183.466ZM99.4305 177.84C100.487 177.663 101.535 177.441 102.57 177.164C110.967 174.921 118.451 169.335 123.023 161.944C125.737 157.558 127.116 152.636 128.313 147.661C129.616 142.244 131.254 136.901 132.441 131.458C134.922 120.087 133.33 108.542 131.703 97.1719C130.177 86.5063 128.6 75.6188 124.169 65.7C123.913 65.1295 123.648 64.5617 123.374 63.9966C124.768 65.4241 126.201 66.8221 127.553 68.2886C130.291 71.2594 132.646 74.5518 134.655 78.0473C137.831 86.178 139.914 94.711 141.416 103.321C143.723 116.548 144.841 129.946 147.086 143.182C147.64 146.45 148.513 149.768 148.465 153.102C148.42 156.175 147.514 159.211 146.555 162.107C145.726 164.612 144.651 167.122 142.821 169.067C140.75 171.267 137.846 172.334 135.135 173.502C131.969 174.866 128.815 176.257 125.656 177.636C122.721 178.917 119.755 180.456 116.581 181.036C113.512 181.597 110.271 181.365 107.179 181.118C104.422 180.899 101.617 180.385 99.3108 178.765C98.9921 178.542 98.9598 177.916 99.4318 177.837L99.4305 177.84Z" fill="#C49878"/>
<path d="M14.0534 168.136C16.4886 167.407 19.1404 166.982 21.6254 167.729C22.8652 168.101 23.953 168.797 24.9804 169.571C25.9929 170.333 26.9759 171.133 28.0086 171.87C30.0109 173.299 32.1153 174.599 34.2897 175.749C38.6572 178.058 43.3583 179.768 48.2045 180.733C53.0158 181.69 57.9589 181.896 62.8213 181.225C63.4278 181.142 55.5116 180.017 51.6564 178.572C47.5456 177.031 43.8007 174.646 40.2184 172.142C39.3148 171.509 38.4407 170.837 37.5398 170.2C36.655 169.573 35.7567 168.958 34.9069 168.283C34.0503 167.602 33.2556 166.855 32.551 166.016C31.8612 165.194 31.2574 164.304 30.655 163.418C29.477 161.686 28.2964 159.948 27.343 158.079C26.8804 157.171 26.4757 156.231 26.1637 155.26C25.8262 154.209 25.6339 153.133 25.4833 152.042C25.334 150.96 25.1874 149.881 24.8809 148.83C24.897 149.351 24.8728 149.869 24.7773 150.383C24.5218 151.77 23.7271 152.791 22.6366 153.644C21.5568 154.489 20.3573 155.186 19.4349 156.218C18.429 157.346 17.7446 158.695 16.9673 159.979C15.5272 162.356 13.4886 164.28 10.9983 165.525C9.7598 166.144 8.45948 166.522 7.10806 166.799C6.42361 166.939 5.70958 167.154 5.21877 167.683C4.70913 168.232 4.52088 168.966 4.34338 169.674C4.02199 170.955 3.62262 172.213 3.15063 173.444C4.22101 172.642 5.36131 171.933 6.50833 171.312C8.89919 170.017 11.4433 168.917 14.0494 168.136H14.0534Z" fill="#B78B6C"/>
<path d="M42.6013 162.329C47.7501 165.861 53.6788 167.933 59.812 168.946C66.3929 170.033 73.115 169.977 79.7551 169.643C86.4382 169.307 93.2262 168.797 99.6229 166.697C110.929 162.983 118.943 153.689 123.152 142.789C125.113 137.711 126.203 132.449 126.666 127.117C126.545 124.512 126.437 121.909 126.302 119.312C125.932 112.235 125.442 105.148 124.291 98.1489C123.166 91.3086 121.442 84.5234 118.629 78.1714C116.278 72.8649 113.151 67.8745 109.228 63.5879C105.326 59.3241 100.626 55.7693 95.2957 53.4928C95.1169 53.4161 94.938 53.3421 94.7592 53.2681C94.657 53.2264 94.5548 53.186 94.4526 53.1443C94.3827 53.1161 94.3141 53.0892 94.2442 53.0609C94.107 53.0071 93.9698 52.9533 93.8313 52.9008C93.8031 52.89 93.7762 52.8793 93.748 52.8685C93.5906 52.8093 93.432 52.7501 93.2733 52.6922C93.2733 52.6922 93.2719 52.6922 93.2706 52.6922C91.9151 51.9872 90.4346 51.5997 88.9192 51.3454C87.2356 50.9081 85.5252 50.5543 83.804 50.265C83.7945 50.2637 83.7838 50.2623 83.7744 50.2596C82.9326 50.1184 82.0881 49.9932 81.2437 49.8802C81.2127 49.8762 81.1818 49.8721 81.1509 49.8681C80.5996 49.7954 80.0469 49.7282 79.4956 49.6676C79.4593 49.6636 79.423 49.6596 79.3867 49.6555C79.154 49.63 78.9227 49.6057 78.6901 49.5815C78.635 49.5761 78.5798 49.5708 78.5234 49.564C77.9936 49.5102 77.4637 49.4618 76.9366 49.416C76.8694 49.4106 76.8022 49.4053 76.7349 49.3985C76.5359 49.3824 76.3369 49.3662 76.1379 49.3501C76.0639 49.3447 75.9913 49.338 75.9173 49.3326C75.6605 49.3124 75.4023 49.2936 75.1455 49.2761C75.0742 49.2707 75.003 49.2667 74.9317 49.2626C73.7161 49.0756 72.5005 48.8819 71.2889 48.6733C69.4104 48.3504 67.5372 47.9804 65.6883 47.5108C63.9792 47.0776 62.2553 46.5932 60.6282 45.9084C58.1701 44.8751 55.6959 43.2901 54.3956 40.8857C54.0742 41.0405 53.7514 41.1992 53.4287 41.3634C46.2279 45.0217 38.6465 51.0346 34.6461 59.0012C34.0678 60.1542 33.5636 61.3463 33.1467 62.5801C31.634 67.0565 30.8621 71.7576 29.7554 76.351C28.5936 81.1691 27.3874 85.9805 26.348 90.8269C26.0884 92.0324 23.9934 102.853 23.2027 106.921C22.3852 111.126 21.7384 115.362 21.6012 119.648C21.5273 121.948 21.5797 124.248 21.7007 126.545C23.5954 135.213 26.5954 143.701 31.5976 151.061C34.5627 155.423 38.2418 159.338 42.6013 162.328V162.329ZM89.4772 51.4921C89.4772 51.4921 89.4718 51.4907 89.4691 51.4894C89.4718 51.4894 89.4745 51.4907 89.4772 51.4921ZM69.8582 49.0783C69.8474 49.0783 69.8367 49.0783 69.8245 49.0783C69.8353 49.0783 69.8461 49.0783 69.8582 49.0783ZM66.0769 49.151C66.0554 49.151 66.0339 49.1523 66.0123 49.1537C66.0339 49.1537 66.0554 49.151 66.0769 49.151ZM65.3494 49.1859C65.3266 49.1859 65.3037 49.1886 65.2808 49.19C65.3037 49.19 65.3266 49.1873 65.3494 49.1859ZM64.5816 49.2304C64.5816 49.2304 64.5722 49.2304 64.5681 49.2304C64.5722 49.2304 64.5776 49.2304 64.5816 49.2304ZM58.0383 49.9488C57.963 49.9609 57.8877 49.973 57.8138 49.9852C57.8891 49.973 57.9644 49.9609 58.0383 49.9488ZM57.3539 50.0605C57.2705 50.074 57.1871 50.0888 57.1051 50.1036C57.1885 50.0888 57.2718 50.0753 57.3539 50.0605ZM55.946 50.3148C55.8734 50.3283 55.8021 50.3417 55.7295 50.3565C55.8008 50.3431 55.8734 50.3296 55.946 50.3148ZM33.1494 105.888C33.4184 101.996 33.8527 98.1086 34.3099 94.2336C35.2229 86.4797 36.3915 78.7513 38.0253 71.1144C39.378 64.7921 41.0172 57.5938 46.6488 53.6583C49.0665 51.9684 52.0881 51.0091 55.0397 51.4477C56.6251 51.6831 57.9765 52.4191 59.3588 53.186C60.0984 53.5964 60.8568 53.992 61.6838 54.1898C62.5632 54.401 63.4857 54.3539 64.3759 54.253C66.2141 54.0458 68.02 53.7242 69.873 53.6475C71.6681 53.5735 73.4687 53.6354 75.2544 53.8305C77.9613 54.1265 80.6157 54.7118 83.1652 55.6294C85.4176 56.064 87.6148 56.7919 89.6614 57.7485C94.2549 59.8972 98.1491 63.4843 100.825 67.779C102.15 69.9062 103.185 72.2244 103.879 74.6328C104.61 77.1717 104.902 79.7752 104.932 82.411C104.965 85.3495 104.808 88.3714 105.76 91.1982C106.59 93.6578 108.152 95.8186 108.826 98.3387C109.153 99.5603 109.232 100.855 108.904 102.086C108.552 103.407 107.773 104.559 106.954 105.634C105.143 108.011 97.9071 110.887 96.6498 110.965C94.8654 111.074 93.1482 111.711 91.3423 111.474C89.9196 111.287 88.6166 110.656 87.3929 109.933C86.1787 109.213 85.0196 108.393 83.7448 107.783C82.3463 107.114 80.9021 106.899 79.3786 107.232C77.6601 107.608 76.0505 108.352 74.3037 108.621C72.6161 108.88 70.9057 108.851 69.2033 108.87C67.5278 108.888 65.8295 108.945 64.2172 109.448C62.8617 109.871 61.6609 110.643 60.6766 111.663C58.7604 113.651 57.7385 116.342 56.8886 118.92C55.8882 121.953 55.0195 125.003 53.7084 127.926C52.9581 129.599 52.1069 131.229 51.1616 132.802C50.3332 134.181 49.4431 135.548 48.2597 136.652C47.1974 137.644 45.8689 138.444 44.3803 138.474C42.7922 138.506 41.4314 137.597 40.3879 136.473C38.1772 134.09 36.8594 131.005 35.9639 127.919C34.9822 124.539 34.3408 121.023 33.7465 117.557C33.4224 115.667 33.1615 113.763 33.0553 111.847C32.945 109.861 33.0055 107.871 33.1427 105.888H33.1494Z" fill="#CFA481"/>
<path d="M99.311 178.768C101.617 180.388 104.422 180.9 107.179 181.121C110.272 181.367 113.512 181.6 116.581 181.039C119.756 180.459 122.721 178.92 125.656 177.639C128.815 176.26 131.97 174.868 135.135 173.504C137.846 172.336 140.752 171.269 142.821 169.069C144.651 167.124 145.727 164.615 146.555 162.109C147.514 159.214 148.421 156.176 148.465 153.104C148.513 149.769 147.642 146.452 147.087 143.184C144.841 129.949 143.724 116.549 141.416 103.323C139.914 94.7134 137.831 86.1804 134.655 78.0498C132.646 74.5542 130.291 71.2619 127.554 68.2911C126.201 66.8232 124.769 65.4266 123.374 63.999C123.649 64.5628 123.915 65.1306 124.169 65.7024C128.6 75.6199 130.177 86.5087 131.703 97.1743C133.33 108.545 134.923 120.088 132.442 131.461C131.254 136.903 129.618 142.246 128.313 147.663C127.117 152.639 125.737 157.56 123.023 161.947C118.451 169.337 110.967 174.924 102.571 177.167C101.535 177.444 100.488 177.666 99.4307 177.842C98.9587 177.921 98.991 178.547 99.3097 178.77L99.311 178.768Z" fill="#B78B6C"/>
<path d="M33.7518 117.559C34.3461 121.025 34.9876 124.541 35.9692 127.921C36.8647 131.006 38.1825 134.093 40.3932 136.475C41.4367 137.599 42.7975 138.508 44.3856 138.476C45.8755 138.446 47.2041 137.645 48.265 136.654C49.4484 135.55 50.3386 134.183 51.1669 132.804C52.1122 131.231 52.9621 129.601 53.7137 127.928C55.0248 125.005 55.8935 121.955 56.8939 118.922C57.7438 116.344 58.7657 113.653 60.6819 111.665C61.6649 110.645 62.8657 109.873 64.2225 109.45C65.8348 108.948 67.5331 108.891 69.2086 108.872C70.911 108.853 72.6214 108.882 74.309 108.623C76.0558 108.354 77.6654 107.611 79.3839 107.234C80.9074 106.902 82.3516 107.116 83.7501 107.785C85.0262 108.395 86.1854 109.215 87.3983 109.935C88.6206 110.66 89.9249 111.291 91.3476 111.477C93.1535 111.713 94.8707 111.076 96.6551 110.967C97.9124 110.89 105.148 108.013 106.959 105.636C107.778 104.561 108.557 103.409 108.909 102.088C109.237 100.858 109.158 99.5624 108.831 98.3407C108.158 95.822 106.594 93.6598 105.765 91.2003C104.813 88.3734 104.971 85.3515 104.937 82.413C104.906 79.7772 104.616 77.1724 103.884 74.6348C103.189 72.2265 102.155 69.9082 100.83 67.781C98.1545 63.4863 94.2602 59.8993 89.6668 57.7505C87.6201 56.7926 85.4229 56.066 83.1706 55.6314C80.621 54.7138 77.9666 54.1299 75.2597 53.8325C73.474 53.6374 71.6734 53.5742 69.8783 53.6495C68.0239 53.7262 66.2194 54.0478 64.3812 54.255C63.4896 54.3559 62.5685 54.4017 61.6891 54.1918C60.8621 53.994 60.1037 53.5984 59.3641 53.188C57.9818 52.4211 56.6304 51.6852 55.045 51.4497C52.092 51.0111 49.0719 51.9704 46.6541 53.6603C41.0225 57.5958 39.3834 64.7941 38.0306 71.1164C36.3968 78.7533 35.2283 86.4817 34.3152 94.2357C33.858 98.1106 33.4237 101.998 33.1547 105.89C33.0176 107.873 32.9571 109.863 33.0673 111.849C33.1736 113.765 33.4344 115.669 33.7585 117.559H33.7518Z" fill="#D8AD8D"/>
<path d="M60.5043 39.0435C60.5231 39.0543 60.5433 39.0651 60.5621 39.0772C60.8848 39.3463 61.2412 39.575 61.6311 39.7553C62.4689 40.1414 63.3268 40.4845 64.1887 40.8101C65.9503 41.4761 67.7454 42.052 69.5621 42.5498C73.2103 43.5495 76.9203 44.338 80.6477 44.969C82.537 45.2892 84.4357 45.5637 86.3371 45.7964C88.2278 46.0279 90.1359 46.266 92.0427 46.2727C95.75 46.2849 99.2973 45.1412 102.681 43.7177C103.611 43.3262 104.534 42.9171 105.455 42.5027C106.361 42.0951 107.283 41.7022 108.127 41.1721C108.541 40.911 108.987 40.6191 109.247 40.1912C109.276 40.1428 109.303 40.0917 109.327 40.0405C109.529 39.6181 109.561 39.1202 109.419 38.6722C109.35 38.4569 109.249 38.2659 109.124 38.0963C108.744 38.4381 108.356 38.7717 107.961 39.0974C107.967 39.1175 107.972 39.1377 107.975 39.1592C107.993 39.2803 107.997 39.3382 107.925 39.4189C107.89 39.4579 107.852 39.4929 107.813 39.5266C107.762 39.571 107.708 39.6113 107.651 39.653C107.298 39.9073 106.91 40.1159 106.524 40.3137C106.374 40.3903 106.225 40.4644 106.075 40.5384C105.779 40.7469 105.48 40.9514 105.176 41.1505C102.395 42.9642 99.261 44.3137 95.9611 44.7887C95.7312 44.8223 95.4999 44.8506 95.2699 44.8748C94.1727 45.0793 93.0364 45.1735 91.9539 44.9771C91.9512 44.9771 91.9499 44.9771 91.9472 44.9757C91.2574 44.9501 90.5689 44.899 89.8817 44.8304C89.0817 44.8465 88.2789 44.7954 87.4801 44.6703C86.8602 44.5721 86.2403 44.4254 85.6352 44.2344C85.4375 44.2021 85.2399 44.1684 85.0422 44.1348C84.7867 44.0917 84.5312 44.0487 84.2744 44.0056C83.7943 44.0568 83.2874 43.9585 82.8396 43.7675C81.7208 43.5872 80.6007 43.4244 79.4725 43.3114C78.5648 43.2199 77.6531 43.162 76.7414 43.1513C76.2802 43.1459 75.8001 43.197 75.3443 43.1055C74.9584 43.0275 74.6276 42.8243 74.3116 42.5983C73.8839 42.2902 73.4389 42.0264 72.9803 41.7964C72.355 41.6457 71.7311 41.4896 71.1085 41.3281C69.3752 40.8788 67.6567 40.3702 65.9664 39.7795C65.645 39.6974 65.325 39.61 65.009 39.5144C63.3093 39.0032 61.6352 38.3385 60.0417 37.5205C59.8628 37.429 59.6853 37.3348 59.5092 37.2393C59.4433 37.2944 59.3855 37.359 59.3384 37.437L59.2819 37.5326C59.0063 37.9914 59.3653 38.5928 59.8279 38.6789C59.8427 38.6816 59.8561 38.6843 59.8709 38.6856C60.0753 38.8135 60.2905 38.9238 60.5043 39.0462V39.0435Z" fill="#7C553A"/>
<path d="M49.49 11.7983C50.6048 12.806 52.0248 13.39 53.3641 14.0277C54.7948 14.7085 56.1826 15.4835 57.491 16.3783C59.8711 18.0036 62.2135 19.9007 63.3713 22.6186C63.3713 22.6186 63.3713 22.6199 63.3726 22.6213C63.378 22.6347 63.3834 22.6468 63.3888 22.6589C63.4614 22.8325 63.1898 22.9253 63.0983 22.7814C62.4219 21.7225 61.2426 20.9892 60.0284 20.6986C58.8047 20.4053 57.4936 20.6905 56.4139 21.3081C54.4506 22.4315 53.7083 24.6516 53.8334 26.8137C53.9652 29.0701 54.9374 31.2296 56.1611 33.0984C57.2435 34.7534 58.5721 36.2051 60.0405 37.517C61.634 38.335 63.3081 38.9997 65.0078 39.5109C65.3238 39.6065 65.6438 39.6939 65.9652 39.776C68.3332 40.3815 70.8047 40.7017 72.9791 41.7929C73.4377 42.0229 73.8827 42.2867 74.3104 42.5948C74.6264 42.8221 74.9572 43.0253 75.3431 43.102C75.7989 43.1935 76.279 43.1424 76.7402 43.1478C77.6519 43.1572 78.5636 43.2164 79.4713 43.3079C80.5981 43.4209 81.7196 43.5837 82.8384 43.764C82.7779 43.7384 82.7187 43.7115 82.6609 43.6832C82.2924 43.4989 81.9375 43.2635 81.5959 43.0051C81.5314 43.0751 81.4507 43.1303 81.3552 43.1599C79.9097 43.6066 78.4076 43.1504 77.0898 42.5113C75.8097 41.8911 74.6613 40.9681 73.7079 39.9173C73.4067 39.5849 73.1243 39.2392 72.8608 38.8813C72.8097 38.8449 72.7572 38.81 72.7061 38.7736C71.9477 38.2516 71.184 37.7349 70.4188 37.2223C68.9222 36.2186 67.4054 35.2431 65.8697 34.2986C64.5345 33.4765 63.175 32.6975 61.8289 31.8929C60.5703 31.1408 59.3023 30.3214 58.3838 29.1562C57.936 28.5884 57.5501 27.8861 57.5784 27.1407C57.6053 26.4357 57.9885 25.8046 58.6044 25.4589C59.7285 24.8292 61.2709 25.0525 62.4287 25.4669C64.9795 26.3792 66.8016 28.5225 68.2404 30.7277C68.9908 31.8781 69.6671 33.0729 70.4148 34.2246C70.1929 33.6474 69.9872 33.0634 69.7922 32.4795C68.8845 29.7549 68.1853 26.9752 67.0114 24.3448C65.8657 21.7763 64.4376 19.3195 62.5188 17.2488C61.6232 16.2827 60.6456 15.3598 59.5524 14.6197C58.4605 13.8811 57.2839 13.3402 56.0992 12.7751C55.9392 12.6984 56.0575 12.4683 56.2135 12.502C57.6456 12.8222 58.9715 13.5743 60.1965 14.3587C61.4228 15.1458 62.5564 16.0554 63.5784 17.0954C65.5241 19.0773 67.0773 21.4413 68.2713 23.9439C69.5286 26.5796 70.3919 29.3594 71.3265 32.1189C72.1723 34.6188 73.2091 37.1375 75.0661 39.0669C75.9079 39.9415 76.876 40.6761 77.976 41.1941C78.6806 41.5251 79.4296 41.7 80.1907 41.8426C78.9536 40.7824 77.7985 39.5648 77.0253 38.1211C76.2158 36.6115 75.8527 34.8973 76.0464 33.1913C76.4417 29.7078 78.2275 26.5487 78.7102 23.0774C78.7263 22.9617 78.8016 22.9092 78.8877 22.9038C79.2266 21.5207 79.6165 20.1483 80.0119 18.7826C80.3373 17.6605 80.6815 16.5424 80.9706 15.4109C81.2517 14.3116 81.5515 13.1317 81.5179 11.992C81.5125 11.7956 81.8353 11.7472 81.8648 11.9449C81.959 12.5719 82.0504 13.1949 82.0289 13.83C82.0087 14.4623 81.9294 15.0893 81.8258 15.7136C81.6161 16.9784 81.3498 18.235 81.1051 19.4944C80.27 23.7999 78.8312 28.2857 79.7967 32.6921C80.6102 36.4043 82.8357 39.6361 85.5426 42.2382C85.6824 42.3728 85.751 42.5356 85.7631 42.7024C85.8478 42.728 85.9325 42.7522 86.0172 42.7764C85.9608 42.7064 85.9554 42.5853 86.0737 42.5571C86.2055 42.5248 86.3359 42.4885 86.4664 42.4508C86.5363 42.4293 86.5699 42.5261 86.5148 42.5638C86.4005 42.6405 86.2875 42.7185 86.1773 42.8006C86.1692 42.806 86.1625 42.81 86.1544 42.8141C87.0473 43.0536 87.9657 43.2056 88.8855 43.2554C91.4095 43.3926 93.9455 42.7387 96.1078 41.435C98.3171 40.103 99.9846 38.1265 101.247 35.8997C102.589 33.5357 103.533 30.9793 104.462 28.4337C104.952 27.0949 105.455 25.7602 106.032 24.4551C106.321 23.8012 106.602 23.1446 106.915 22.5029C107.021 22.2849 107.128 22.0656 107.241 21.8503C106.755 22.3347 106.145 22.6979 105.472 22.9294C105.39 22.9576 105.307 22.9832 105.223 23.0087C105.195 23.0168 105.167 23.0249 105.139 23.033C105.084 23.0491 105.029 23.0639 104.973 23.0774C104.94 23.0854 104.906 23.0949 104.873 23.1029C104.821 23.115 104.77 23.1258 104.719 23.1366C104.684 23.1446 104.649 23.1527 104.614 23.1594C104.54 23.1742 104.465 23.1877 104.39 23.1998C104.339 23.2079 104.286 23.216 104.235 23.2227C104.206 23.2267 104.176 23.2308 104.146 23.2348C104.091 23.2415 104.036 23.2482 103.981 23.255C103.958 23.2577 103.934 23.2604 103.911 23.2617C103.851 23.2684 103.79 23.2738 103.73 23.2792C103.717 23.3424 103.703 23.4043 103.685 23.4676C103.517 24.0892 103.298 24.7 103.054 25.296C102.55 26.5285 101.926 27.7058 101.204 28.8239C99.7708 31.0439 97.9998 33.0379 96.1347 34.9027C95.8443 35.192 95.5498 35.4799 95.2499 35.7611C95.5498 35.5943 95.8442 35.4153 96.1334 35.2283C96.9267 34.7143 97.6596 34.117 98.3656 33.4886C98.7407 33.1549 99.1186 32.8213 99.4938 32.4876C99.8353 32.1835 100.208 31.9359 100.576 31.6669C100.814 31.4933 101.118 31.8283 100.972 32.0624C100.649 32.5737 100.334 33.0486 99.9415 33.5088C99.5771 33.9353 99.1966 34.3443 98.7959 34.7372C97.9675 35.5512 97.0572 36.3276 96.0554 36.9223C95.0791 37.5022 93.9886 37.9623 92.859 38.2139C93.1387 38.5489 93.1011 39.1342 92.6775 39.4127C91.708 40.0518 90.5394 40.3102 89.3965 40.2173C89.5807 40.6815 89.3185 41.3516 88.7214 41.2923C87.5999 41.1793 86.5928 40.7622 85.7147 40.0559C84.9038 39.4047 84.2436 38.4305 84.2275 37.3649C84.2221 37.0178 84.725 36.7581 84.9644 37.0595C85.2212 37.3838 85.47 37.7174 85.7362 38.0323C85.7281 37.8923 85.7658 37.7699 85.833 37.6676C85.5964 37.4443 85.3731 37.2088 85.158 36.968C84.8716 36.6464 84.604 36.3128 84.3458 35.9697C84.05 35.5754 83.9733 35.1758 84.1656 34.7197C84.1912 34.6592 84.2423 34.6054 84.3028 34.5623C83.461 33.3258 82.876 31.9265 82.4457 30.4882C82.1432 29.4751 81.9428 28.4377 81.7304 27.4044C81.5045 26.3052 81.37 25.1911 81.1575 24.0919C81.1105 23.8497 81.4507 23.7528 81.5287 23.9896C81.8944 25.109 82.3328 26.2015 82.6891 27.3264C82.6999 27.3587 82.7093 27.3909 82.7201 27.4219C82.6542 27.0465 82.5937 26.6684 82.5426 26.2904C82.1432 23.3424 82.1728 20.3259 82.786 17.4089C82.9325 16.7093 83.0697 15.9948 83.1759 15.2723C83.1557 15.1875 83.1383 15.1028 83.1221 15.0167C83.1221 15.0153 83.1221 15.0126 83.1221 15.0113C83.1073 14.9305 83.0939 14.8498 83.0818 14.7691C83.0818 14.761 83.0791 14.7529 83.0778 14.7435C83.067 14.6695 83.0589 14.5942 83.0509 14.5188C83.0495 14.504 83.0482 14.4906 83.0455 14.4758C83.0374 14.3883 83.0307 14.2995 83.0267 14.2107C83.0226 13.8488 83.0199 13.4855 83.0159 13.1236C83.0065 12.1602 83.2001 10.8026 82.3328 10.1272C81.9092 9.79758 81.3418 9.68994 80.824 9.59441C80.262 9.49216 79.6905 9.4343 79.1203 9.41143C77.4946 9.34685 75.8742 9.55136 74.2525 9.62267C74.1369 10.2497 74.0441 10.8807 73.9755 11.5157C73.7133 13.9416 73.8343 16.3608 74.0966 18.7813C74.3628 21.2421 74.6546 23.7017 74.9545 26.1585C74.9948 26.4854 74.4919 26.6846 74.2902 26.433C72.8231 24.5991 71.4247 22.7181 70.1526 20.743C69.0311 19.0019 68.0038 17.2057 67.0746 15.3544C66.1427 13.4976 65.3453 11.5763 64.3973 9.72761C63.5206 8.01618 62.4784 6.37874 61.0557 5.0669C60.694 4.73323 60.3135 4.42511 59.9127 4.1466C59.5403 4.05915 59.1584 4.00398 58.7617 3.99053C58.5223 3.98246 58.2816 3.98649 58.0423 3.9986C58.365 4.41031 58.685 4.82337 58.9984 5.24182C60.0526 6.64783 61.0033 8.10094 61.9217 9.59845C62.7931 11.0193 63.7559 12.3809 64.6205 13.8071C64.9997 14.4327 65.3776 15.0624 65.7245 15.7069C65.7393 15.7311 65.7541 15.754 65.7689 15.7768C67.1969 18.0951 68.2821 20.6111 69.4453 23.068C70.7173 25.7549 72.9939 31.5996 72.8675 31.3547C71.3386 28.4108 69.8325 25.4575 68.3305 22.5002C67.1351 20.1483 65.9719 17.7251 64.2601 15.6948C62.668 13.8071 60.6066 12.4562 58.5788 11.0838C57.5851 10.4111 56.551 9.78951 55.5022 9.20692C54.9078 8.87728 54.3202 8.34985 53.8294 7.87625C53.3439 7.40668 52.8854 6.91154 52.4457 6.39757C52.1377 6.03833 51.8379 5.67102 51.542 5.30102C51.464 5.3212 51.3847 5.34138 51.3067 5.36156C49.5452 5.82844 47.7648 6.32761 46.1189 7.11471C46.3179 7.4282 46.5169 7.74304 46.7159 8.05654C47.5443 9.36165 48.3282 10.7502 49.4873 11.7983H49.49ZM66.7048 26.9779C65.3372 26.028 63.9509 25.2584 62.3426 24.7996C61.6904 24.6139 61.0167 24.5116 60.3377 24.5318C60.0055 24.5426 59.6828 24.5829 59.3614 24.665C59.2202 24.7014 59.0844 24.7471 58.9459 24.7928C58.919 24.8023 58.8988 24.809 58.8827 24.8144C58.8128 24.844 58.7429 24.879 58.6743 24.9139C58.5304 24.9866 58.3906 25.0673 58.2561 25.1561C58.1929 25.1978 58.131 25.2395 58.0705 25.2839C58.0584 25.2947 58.0436 25.3068 58.0235 25.323C57.8164 25.4979 57.6147 25.6809 57.4439 25.8921C57.4358 25.9082 57.3525 26.0266 57.343 26.0401C57.3094 26.0939 57.2758 26.1477 57.2449 26.2029C57.2139 26.2581 57.1857 26.3146 57.1561 26.3711C57.1481 26.3859 57.1413 26.3993 57.1346 26.4114C57.1319 26.4182 57.1292 26.4289 57.1239 26.4437C57.0714 26.5864 57.0391 26.7317 56.9975 26.877C56.9948 26.8877 56.98 26.9617 56.9759 26.9792C56.9706 27.0304 56.9665 27.0828 56.9638 27.134C56.8845 28.3247 57.2005 29.6056 58.0073 30.5918C58.8894 31.6695 59.9894 32.5522 60.8325 33.6595C60.9401 33.7994 57.612 31.9467 56.4367 30.612C55.3502 29.3782 54.6429 27.8013 55.1498 26.1477C55.6057 24.661 56.8253 23.5819 58.2803 23.111C59.8966 22.5876 61.6366 22.963 63.1104 23.7232C63.8056 24.0824 64.443 24.6314 65.028 25.1467C65.6411 25.6862 66.807 27.0492 66.7021 26.9765L66.7048 26.9779Z" fill="#CFA481"/>
<path d="M86.9059 20.3176C86.867 20.2867 86.828 20.2557 86.7876 20.2248C86.7634 20.206 86.7392 20.1858 86.7164 20.1669C86.6814 20.1387 86.6464 20.1104 86.6128 20.0822C86.5873 20.0606 86.5604 20.0391 86.5348 20.0176C86.5025 19.9907 86.4703 19.9638 86.438 19.9369C86.4111 19.914 86.3842 19.8911 86.3573 19.8682C86.3264 19.8427 86.2968 19.8158 86.2659 19.7889C86.2376 19.7646 86.2107 19.7404 86.1825 19.7162C86.1543 19.6906 86.126 19.6651 86.0965 19.6409C86.0252 19.5776 85.9553 19.5144 85.8853 19.4498C85.8746 19.4404 85.8652 19.431 85.8544 19.4215C85.8194 19.3893 85.7845 19.357 85.7509 19.3233C85.7307 19.3045 85.7105 19.2857 85.6904 19.2668C85.6554 19.2332 85.6218 19.1995 85.5868 19.1659C85.568 19.1471 85.5492 19.1282 85.5303 19.1094C85.4954 19.0744 85.4604 19.0394 85.4255 19.0044C85.408 18.987 85.3918 18.9695 85.3744 18.952C85.338 18.9143 85.3017 18.878 85.2668 18.8403C85.2533 18.8255 85.2399 18.812 85.2264 18.7972C85.1874 18.7569 85.1498 18.7152 85.1108 18.6735C85.1054 18.6681 85.1 18.6614 85.0947 18.656C84.9104 18.4555 84.7356 18.2483 84.5689 18.0344C84.5662 18.0303 84.5635 18.0276 84.5608 18.0236C84.5218 17.9725 84.4828 17.9213 84.4438 17.8702C84.4384 17.8635 84.4344 17.8581 84.429 17.8514C84.39 17.8003 84.3524 17.7478 84.3161 17.6953C84.3134 17.6913 84.3107 17.6872 84.308 17.6832C83.7863 16.9459 83.3842 16.1399 83.1771 15.2627C83.0709 15.9852 82.9351 16.6997 82.7872 17.3993C82.174 20.3176 82.1444 23.3342 82.5438 26.2808C82.5949 26.6602 82.6554 27.0369 82.7213 27.4123C83.0494 28.4429 83.4003 29.4709 83.7957 30.4773C85.0113 33.5772 87.2757 36.8857 90.9548 36.9597C92.4999 36.9907 93.9293 36.4888 95.2511 35.7542C95.551 35.4717 95.8468 35.1851 96.1359 34.8958C98.001 33.0323 99.772 31.037 101.205 28.817C101.928 27.6989 102.553 26.5216 103.056 25.2891C103.299 24.6931 103.518 24.0823 103.686 23.4606C103.704 23.3974 103.717 23.3342 103.731 23.2723C103.619 23.2817 103.508 23.2884 103.396 23.2925C103.385 23.2925 103.373 23.2925 103.362 23.2938C103.257 23.2978 103.153 23.3005 103.048 23.3005C103.038 23.3005 103.029 23.3005 103.019 23.3005C102.679 23.3019 102.339 23.2871 102 23.2602C101.977 23.2588 101.953 23.2561 101.93 23.2534C101.845 23.2467 101.759 23.2386 101.675 23.2292C101.644 23.2265 101.613 23.2225 101.582 23.2198C101.501 23.2117 101.422 23.2023 101.341 23.1916C101.312 23.1875 101.282 23.1848 101.252 23.1808C101.146 23.1673 101.039 23.1525 100.932 23.1377C99.2529 22.8982 97.6043 22.5592 95.9046 22.4865C94.2439 22.4152 92.5617 22.4731 90.9225 22.1609C90.5474 22.0896 90.1803 21.9968 89.8212 21.8824C88.8598 21.577 87.9562 21.1168 87.144 20.4966C87.0848 20.4508 87.0256 20.4051 86.9665 20.3593C86.9463 20.3445 86.9275 20.3284 86.9073 20.3122L86.9059 20.3176Z" fill="#D8AD8D"/>
<path d="M53.8322 7.87472C54.3231 8.34832 54.9093 8.87575 55.505 9.20539C56.5539 9.78663 57.588 10.4082 58.5817 11.0823C60.6081 12.456 62.6709 13.8055 64.263 15.6932C65.9735 17.7236 67.138 20.1468 68.3334 22.4986C69.8354 25.456 71.3415 28.4106 72.8704 31.3532C72.9968 31.5967 70.7216 25.752 69.4482 23.0664C68.285 20.6109 67.1998 18.0949 65.7718 15.7753C65.757 15.7511 65.7422 15.7282 65.7274 15.7054C65.3805 15.0609 65.0026 14.4298 64.6234 13.8055C63.7588 12.3793 62.796 11.0191 61.9246 9.59692C61.0062 8.09941 60.0568 6.6463 59.0012 5.24028C58.6879 4.82184 58.3679 4.40878 58.0452 3.99707C57.0514 4.04954 56.0631 4.26213 55.0936 4.46529C53.9035 4.71421 52.7202 4.99272 51.5449 5.30083C51.8408 5.67084 52.1406 6.0368 52.4486 6.39739C52.8883 6.91001 53.3468 7.40649 53.8322 7.87606V7.87472Z" fill="#D8AD8D"/>
<path d="M95.9047 22.4929C97.6044 22.5655 99.253 22.9046 100.932 23.1441C101.039 23.1589 101.145 23.1737 101.253 23.1871C101.282 23.1912 101.312 23.1939 101.341 23.1979C101.422 23.2073 101.501 23.2167 101.582 23.2261C101.613 23.2288 101.644 23.2329 101.675 23.2356C101.759 23.2436 101.844 23.2517 101.93 23.2598C101.953 23.2625 101.977 23.2638 102 23.2665C102.339 23.2934 102.679 23.3082 103.019 23.3069C103.029 23.3069 103.038 23.3069 103.048 23.3069C103.153 23.3069 103.257 23.3042 103.362 23.3002C103.373 23.3002 103.385 23.3002 103.396 23.2988C103.508 23.2934 103.619 23.288 103.731 23.2786C103.791 23.2732 103.852 23.2679 103.912 23.2611C103.935 23.2584 103.959 23.2558 103.982 23.2544C104.037 23.2477 104.093 23.2409 104.148 23.2342C104.177 23.2302 104.207 23.2261 104.236 23.2221C104.287 23.214 104.34 23.2073 104.391 23.1992C104.466 23.1871 104.54 23.1737 104.616 23.1589C104.651 23.1521 104.686 23.1441 104.72 23.136C104.772 23.1252 104.823 23.1145 104.874 23.1024C104.907 23.0943 104.941 23.0862 104.975 23.0768C105.03 23.062 105.085 23.0472 105.14 23.0324C105.168 23.0243 105.196 23.0163 105.225 23.0082C105.308 22.984 105.39 22.9571 105.474 22.9288C106.146 22.6974 106.756 22.3341 107.242 21.8497C107.446 21.4555 107.669 21.0734 107.95 20.729C107.972 20.702 108.003 20.6953 108.034 20.7007C108.114 20.5177 108.18 20.3267 108.231 20.1262C108.566 18.7996 108.019 17.5738 106.829 16.9145C106.751 16.8715 106.673 16.8311 106.592 16.7921C106.59 16.7908 106.586 16.7894 106.582 16.7867C106.505 16.7491 106.427 16.7141 106.349 16.6804C106.229 16.6293 106.107 16.5822 105.983 16.5378C105.966 16.5311 105.947 16.5244 105.929 16.5176C105.88 16.5001 105.829 16.484 105.777 16.4665C105.753 16.4584 105.729 16.4504 105.705 16.4423C105.655 16.4261 105.605 16.4113 105.556 16.3965C105.53 16.3885 105.504 16.3817 105.479 16.3737C105.429 16.3589 105.378 16.3454 105.327 16.3306C105.303 16.3239 105.279 16.3172 105.253 16.3104C105.201 16.297 105.148 16.2822 105.096 16.2701C105.075 16.2647 105.057 16.2607 105.036 16.2553C104.591 16.1449 104.138 16.0561 103.69 15.9606C103.668 15.9552 103.646 15.9512 103.625 15.9458C103.569 15.9337 103.516 15.9216 103.461 15.9095C103.432 15.9028 103.404 15.8974 103.377 15.8906C103.323 15.8785 103.271 15.8664 103.217 15.8543C103.192 15.8489 103.166 15.8422 103.14 15.8368C103.062 15.818 102.986 15.7992 102.909 15.779C101.406 15.3915 99.9401 14.8694 98.5241 14.233C97.1283 13.6047 95.6882 12.8795 94.4618 11.9538C93.9791 11.5892 93.4641 11.0348 93.5555 10.3796C93.5568 10.3648 93.5609 10.3527 93.5636 10.3379C93.2234 10.8438 93.0553 11.5004 92.9585 12.0978C92.7541 13.3692 92.5349 14.6367 92.2054 15.8826C91.6514 17.9788 90.8594 19.9916 89.8186 21.8861C90.1776 22.0004 90.5461 22.0933 90.9199 22.1646C92.5591 22.4767 94.2426 22.4189 95.902 22.4902L95.9047 22.4929Z" fill="#AD8264"/>
<path d="M83.0172 13.1189C83.0212 13.4808 83.0239 13.8441 83.028 14.2061C83.032 14.2949 83.0387 14.3837 83.0468 14.4711C83.0468 14.4859 83.0495 14.4994 83.0522 14.5142C83.0602 14.5895 83.0683 14.6649 83.0791 14.7389C83.0791 14.7469 83.0818 14.755 83.0831 14.7644C83.0952 14.8451 83.1086 14.9259 83.1234 15.0066C83.1234 15.0079 83.1234 15.0106 83.1234 15.012C83.1396 15.0981 83.1571 15.1829 83.1772 15.2676C83.383 16.1449 83.785 16.9508 84.3081 17.6881C84.3108 17.6922 84.3135 17.6962 84.3162 17.7002C84.3538 17.7527 84.3915 17.8052 84.4291 17.8563C84.4345 17.863 84.4385 17.8684 84.4439 17.8751C84.4829 17.9263 84.5206 17.9774 84.5609 18.0285C84.5636 18.0326 84.5663 18.0353 84.569 18.0393C84.7357 18.2519 84.9119 18.4591 85.0948 18.6609C85.1001 18.6663 85.1055 18.673 85.1109 18.6784C85.1485 18.7201 85.1875 18.7605 85.2265 18.8022C85.24 18.817 85.2534 18.8304 85.2669 18.8452C85.3032 18.8829 85.3382 18.9192 85.3745 18.9569C85.3919 18.9744 85.4081 18.9919 85.4256 19.0094C85.4605 19.0444 85.4955 19.0793 85.5304 19.1143C85.5493 19.1332 85.5681 19.152 85.5869 19.1708C85.6219 19.2045 85.6555 19.2381 85.6905 19.2717C85.7106 19.2906 85.7308 19.3094 85.751 19.3283C85.7859 19.3605 85.8195 19.3942 85.8545 19.4265C85.8653 19.4359 85.8747 19.4453 85.8854 19.4547C85.9554 19.5193 86.0253 19.5825 86.0966 19.6458C86.1248 19.6713 86.153 19.6969 86.1826 19.7211C86.2108 19.7454 86.2378 19.7696 86.266 19.7938C86.2969 19.8207 86.3265 19.8463 86.3574 19.8732C86.3843 19.896 86.4112 19.9189 86.4381 19.9418C86.4704 19.9687 86.5027 19.9956 86.5349 20.0225C86.5605 20.044 86.586 20.0656 86.6129 20.0871C86.6479 20.1154 86.6815 20.1436 86.7165 20.1719C86.7407 20.1907 86.7649 20.2109 86.7877 20.2297C86.8267 20.2607 86.8657 20.2916 86.9061 20.3226C86.9262 20.3374 86.9451 20.3535 86.9652 20.3696C87.0244 20.4154 87.0836 20.4611 87.1427 20.5069C85.6125 12.3062 82.3354 10.1279 82.3354 10.1279C83.2028 10.802 83.0091 12.1596 83.0186 13.1243L83.0172 13.1189Z" fill="#AD8264"/>
<path d="M91.8021 44.8854C91.3623 44.8827 90.9172 44.8558 90.4708 44.8047C90.2745 44.8168 90.0782 44.8249 89.8818 44.8289C90.569 44.8975 91.2588 44.9487 91.9473 44.9742C91.8841 44.9608 91.837 44.9285 91.8021 44.8868V44.8854Z" fill="#CFA481"/>
<path d="M84.7237 43.9056C84.5784 43.9541 84.4265 43.985 84.2732 44.0012C84.5287 44.0442 84.7842 44.0873 85.041 44.1303C85.2387 44.164 85.4364 44.1963 85.634 44.2299C85.3261 44.133 85.0222 44.0254 84.7237 43.9043V43.9056Z" fill="#CFA481"/>
<path d="M100.801 42.9903C103.6 41.6287 106.034 39.7289 108.283 37.5923C109.27 36.6545 110.193 35.6588 111.096 34.6417C114.335 31.3856 116.913 27.1716 118.925 22.5768C120.152 19.7729 121.111 16.833 121.943 13.8367C121.997 13.6443 121.752 13.5528 121.691 13.7425C120.03 18.901 117.946 24.0219 115.138 28.3893C112.662 32.2387 109.625 35.5566 106.134 37.5815C105.716 37.8237 105.295 38.0403 104.87 38.2421C105.987 37.155 107.029 35.9131 107.994 34.5986C109.118 33.0621 110.181 31.4139 111.119 29.6823C111.659 28.6853 112.162 27.6466 112.528 26.5339C112.904 25.3902 113.157 24.1927 113.306 22.9912C113.457 21.7817 113.505 20.5654 113.468 19.3665C113.433 18.2982 113.362 17.1882 112.965 16.2787C112.595 15.4297 111.837 14.835 111.034 14.9857C110.282 15.127 109.689 15.8939 109.407 16.8034C109.106 17.7708 109.06 18.7745 109.007 19.7742C108.946 20.965 108.92 22.1544 108.873 23.3438C108.784 25.6028 108.619 27.9116 108.012 30.1155C107.768 31.0075 107.453 31.8767 107.082 32.7082C106.939 32.9235 106.797 33.1388 106.653 33.3514C105.712 34.7426 104.678 36.0719 103.522 37.2922C102.284 38.6014 100.918 39.7746 99.4292 40.7636C100.278 39.9132 101.025 38.9552 101.664 37.9219C103.123 35.5633 104.042 32.9195 104.807 30.2662C105.272 28.6543 105.725 27.0384 106.229 25.4386C106.488 24.6193 106.775 23.8174 107.113 23.0276C107.431 22.2849 107.834 21.5785 108.115 20.8223C108.136 20.7631 108.086 20.7093 108.031 20.6972C108.002 20.6918 107.971 20.6972 107.948 20.7255C107.667 21.0699 107.444 21.4534 107.239 21.8462C107.128 22.0615 107.021 22.2808 106.914 22.4988C106.599 23.1406 106.319 23.7985 106.03 24.4511C105.453 25.7548 104.951 27.0895 104.461 28.4296C103.532 30.9753 102.588 33.533 101.246 35.8956C99.9819 38.1224 98.3145 40.0989 96.1065 41.4309C93.9442 42.7347 91.4068 43.3872 88.8842 43.2513C87.9644 43.2015 87.046 43.0495 86.1531 42.81C86.1598 42.806 86.1679 42.8033 86.1759 42.7966C86.2862 42.7145 86.3992 42.6364 86.5135 42.5598C86.5699 42.5221 86.5363 42.4252 86.4651 42.4467C86.3346 42.4858 86.2055 42.5221 86.0724 42.553C85.9541 42.5813 85.9608 42.7037 86.0159 42.7723C85.9312 42.7481 85.8465 42.7239 85.7618 42.6983C85.7483 42.5315 85.6798 42.3687 85.5413 42.2342C82.8357 39.632 80.6103 36.4015 79.7954 32.688C78.8299 28.2816 80.2687 23.7958 81.1038 19.4903C81.3485 18.2323 81.6148 16.9756 81.8245 15.7096C81.9281 15.0853 82.0074 14.4583 82.0276 13.8259C82.0491 13.1908 81.9563 12.5679 81.8635 11.9409C81.8339 11.7431 81.5099 11.7915 81.5166 11.988C81.5502 13.1276 81.2503 14.3076 80.9693 15.4068C80.6802 16.5384 80.336 17.6564 80.0105 18.7786C79.6152 20.1442 79.2252 21.5166 78.8864 22.8997C78.8003 22.9051 78.7237 22.9576 78.7089 23.0733C78.2261 26.5446 76.4404 29.7038 76.045 33.1872C75.8514 34.8933 76.2145 36.6074 77.024 38.117C77.7972 39.5607 78.9523 40.7784 80.1894 41.8386C79.4283 41.696 78.6793 41.5211 77.9747 41.1901C76.8747 40.6721 75.9052 39.9374 75.0648 39.0629C73.2077 37.1335 72.171 34.6148 71.3252 32.1149C70.3906 29.3553 69.5273 26.5756 68.27 23.9398C67.0759 21.4372 65.5242 19.0746 63.5771 17.0913C62.5564 16.0513 61.4229 15.1418 60.1952 14.3547C58.9701 13.5689 57.6443 12.8168 56.2122 12.4979C56.0562 12.4629 55.9379 12.6944 56.0979 12.771C57.2826 13.3361 58.4605 13.877 59.5511 14.6157C60.6443 15.3557 61.6205 16.2787 62.5174 17.2447C64.4363 19.3154 65.8644 21.7736 67.0101 24.3407C68.184 26.9725 68.8832 29.7509 69.7909 32.4755C69.9859 33.0594 70.1916 33.6433 70.4135 34.2205C69.6658 33.0688 68.9894 31.874 68.2391 30.7237C66.8003 28.5184 64.9782 26.3751 62.4273 25.4629C61.2696 25.0485 59.7272 24.8251 58.603 25.4548C57.9872 25.7992 57.6039 26.4316 57.577 27.1366C57.5488 27.882 57.9347 28.5857 58.3825 29.1521C59.3009 30.3173 60.569 31.1367 61.8276 31.8888C63.1723 32.6934 64.5331 33.4725 65.8684 34.2945C67.4041 35.2391 68.9209 36.2145 70.4175 37.2182C71.1826 37.7309 71.9464 38.2475 72.7048 38.7696C72.7559 38.8046 72.8084 38.8409 72.8595 38.8772C73.123 39.2351 73.4054 39.5809 73.7066 39.9132C74.66 40.964 75.8097 41.8857 77.0885 42.5073C78.4077 43.1464 79.9083 43.6025 81.3539 43.1558C81.4507 43.1262 81.5314 43.071 81.5946 43.0011C81.9361 43.2594 82.2898 43.4949 82.6596 43.6792C82.7174 43.7074 82.7766 43.7344 82.8371 43.7599C83.2849 43.951 83.7918 44.0492 84.2719 43.9981C84.4252 43.9819 84.5771 43.951 84.7223 43.9025C85.0209 44.0223 85.3248 44.1299 85.6327 44.2281C86.2378 44.4192 86.8577 44.5659 87.4776 44.6641C88.2764 44.7905 89.0805 44.8417 89.8792 44.8242C90.0756 44.8201 90.2719 44.8134 90.4682 44.8C90.9146 44.8511 91.3597 44.878 91.7995 44.8807C91.8344 44.9237 91.8815 44.956 91.9447 44.9681C91.9474 44.9681 91.9487 44.9681 91.9514 44.9695C93.0339 45.1659 94.1701 45.0717 95.2674 44.8672C95.6762 44.7905 96.0796 44.7004 96.4736 44.6035C97.9662 44.2349 99.4185 43.6563 100.799 42.9849L100.801 42.9903Z" fill="#C19778"/>
<path d="M106.358 12.9789C106.418 14.2073 106.422 15.4452 106.348 16.6776C106.426 16.7113 106.504 16.7462 106.58 16.7839C106.583 16.7852 106.587 16.7866 106.591 16.7893C106.67 16.8283 106.75 16.8687 106.828 16.9117C108.018 17.5724 108.566 18.7967 108.23 20.1234C108.179 20.3238 108.113 20.5162 108.032 20.6979C108.088 20.7086 108.137 20.7638 108.116 20.823C107.835 21.5792 107.431 22.2855 107.114 23.0282C106.775 23.8167 106.489 24.6199 106.231 25.4393C105.726 27.0391 105.273 28.655 104.808 30.2669C104.043 32.9188 103.123 35.5626 101.665 37.9226C101.027 38.9559 100.279 39.9139 99.4305 40.7642C100.919 39.7753 102.285 38.6007 103.524 37.2929C104.679 36.0726 105.713 34.7432 106.654 33.352C106.798 33.1394 106.942 32.9242 107.083 32.7089C107.454 31.8774 107.769 31.0082 108.014 30.1162C108.62 27.9123 108.786 25.6035 108.874 23.3444C108.921 22.155 108.946 20.9656 109.009 19.7749C109.061 18.7739 109.107 17.7715 109.408 16.8041C109.69 15.8945 110.285 15.1263 111.035 14.9864C111.839 14.8357 112.596 15.4304 112.966 16.2794C113.363 17.1902 113.434 18.3002 113.469 19.3672C113.508 20.566 113.458 21.7837 113.308 22.9919C113.158 24.1934 112.906 25.3909 112.529 26.5345C112.163 27.6472 111.659 28.6846 111.12 29.6829C110.183 31.4145 109.119 33.0627 107.995 34.5993C107.032 35.9151 105.989 37.1557 104.871 38.2428C105.296 38.041 105.718 37.8244 106.135 37.5822C109.625 35.5573 112.664 32.2393 115.139 28.3899C117.947 24.0239 120.031 18.9017 121.692 13.7431C121.754 13.5521 121.997 13.6436 121.945 13.8373C121.112 16.8337 120.152 19.7735 118.926 22.5775C116.914 27.1709 114.336 31.3849 111.097 34.6423C110.195 35.6595 109.271 36.6538 108.284 37.5929C106.037 39.7296 103.603 41.6307 100.802 42.991C99.4211 43.6624 97.9688 44.2396 96.4762 44.6096C96.0836 44.7064 95.6788 44.7979 95.27 44.8733C95.5 44.8491 95.7313 44.8195 95.9612 44.7872C99.2611 44.3136 102.396 42.9627 105.176 41.149C105.48 40.9512 105.779 40.7454 106.075 40.5368C106.574 40.1843 107.062 39.8184 107.539 39.4389C107.68 39.3259 107.821 39.2115 107.963 39.0972C108.358 38.7716 108.745 38.4379 109.126 38.0962C113.087 34.5401 116.294 30.1269 119.344 25.8053C123.293 20.2095 126.964 14.1764 128.518 7.4302C128.708 6.60273 128.863 5.76854 128.985 4.92897C129.007 4.77827 128.969 4.63834 128.834 4.55493C123.505 1.29351 116.989 -0.448878 110.735 0.101419C109.21 0.235966 107.699 0.572334 106.354 1.32714C105.63 1.73482 104.968 2.23668 104.333 2.77218C104.581 3.45971 104.808 4.15532 105.011 4.85766C105.773 7.49747 106.225 10.2355 106.358 12.9803V12.9789Z" fill="#CFA481"/>
<path d="M94.4632 11.9555C95.6895 12.8812 97.1284 13.6064 98.5255 14.2348C99.9401 14.8712 101.407 15.3932 102.911 15.7807C102.987 15.8009 103.065 15.8197 103.142 15.8386C103.167 15.8453 103.193 15.8507 103.218 15.8561C103.271 15.8682 103.325 15.8803 103.378 15.8924C103.407 15.8991 103.435 15.9045 103.462 15.9112C103.517 15.9233 103.571 15.9354 103.626 15.9475C103.649 15.9529 103.67 15.957 103.692 15.9623C104.138 16.0579 104.591 16.1467 105.038 16.257C105.058 16.2624 105.077 16.2664 105.097 16.2718C105.149 16.2853 105.202 16.2987 105.254 16.3122C105.279 16.3189 105.303 16.3256 105.328 16.3323C105.379 16.3458 105.429 16.3606 105.48 16.3754C105.506 16.3821 105.531 16.3902 105.557 16.3983C105.607 16.4131 105.656 16.4279 105.706 16.444C105.73 16.4521 105.755 16.4602 105.779 16.4682C105.83 16.4844 105.88 16.5019 105.931 16.5194C105.948 16.5261 105.967 16.5328 105.985 16.5396C106.108 16.584 106.229 16.631 106.35 16.6822C106.423 15.4497 106.42 14.2119 106.361 12.9835C106.228 10.2387 105.776 7.50203 105.014 4.86087C104.811 4.15719 104.583 3.46293 104.336 2.77539C103.817 3.21267 103.317 3.67282 102.811 4.12221C100.432 6.23863 97.7483 7.97832 94.8236 9.24172C94.2911 9.4718 93.6806 9.7086 93.5663 10.345C93.5636 10.3585 93.5596 10.3719 93.5582 10.3867C93.4668 11.0406 93.9831 11.5963 94.4645 11.9609L94.4632 11.9555Z" fill="#C49878"/>
<path d="M64.4 9.72578C65.348 11.5745 66.1454 13.4958 67.0772 15.3525C68.0064 17.2039 69.0338 18.9988 70.1552 20.7411C71.4273 22.7163 72.8258 24.5973 74.2929 26.4311C74.4946 26.6827 74.9961 26.4823 74.9571 26.1567C74.6573 23.6998 74.3655 21.2403 74.0992 18.7795C73.837 16.3589 73.716 13.9398 73.9782 11.5139C74.0468 10.8788 74.1409 10.2478 74.2552 9.62083C73.5533 9.65178 72.8513 9.65851 72.1481 9.60603C70.9352 9.51723 69.7828 9.20105 68.6855 8.68035C67.56 8.1462 66.4883 7.49768 65.4044 6.88549C64.3112 6.26792 63.2233 5.63824 62.1207 5.03547C61.4094 4.64663 60.6846 4.32775 59.9167 4.14746C60.3188 4.42597 60.698 4.73543 61.0597 5.06776C62.4824 6.3796 63.5232 8.01569 64.4013 9.72847L64.4 9.72578Z" fill="#C49878"/>
<path d="M56.1625 33.099C54.9402 31.2314 53.9666 29.0706 53.8348 26.8143C53.7084 24.6521 54.452 22.4321 56.4153 21.3086C57.4964 20.6897 58.8075 20.4058 60.0298 20.6991C61.2427 20.9897 62.4234 21.7217 63.0997 22.7819C63.1912 22.9259 63.4642 22.833 63.3902 22.6595C63.3848 22.6473 63.3794 22.6339 63.3741 22.6218C63.3741 22.6218 63.3741 22.6204 63.3727 22.6191C62.2149 19.9012 59.8725 18.0041 57.4924 16.3788C56.184 15.4854 54.7963 14.7091 53.3655 14.0283C52.0249 13.3905 50.6062 12.8066 49.4915 11.7988C48.3323 10.752 47.5484 9.36217 46.7201 8.05706C46.521 7.74357 46.322 7.42873 46.123 7.11523C45.604 7.3628 45.0997 7.63862 44.6116 7.95212C43.6179 8.58987 42.7008 9.33795 41.7944 10.0928C40.8074 10.9148 39.8231 11.741 38.8375 12.5657C38.3305 12.9896 37.8236 13.4147 37.3166 13.8385C37.0584 14.0538 40.1795 14.3915 41.2391 15.1181C42.4049 15.9186 43.1929 17.0838 43.794 18.3432C44.4435 19.7021 44.8913 21.1471 45.4937 22.5262C46.08 23.869 46.8478 25.1136 47.7407 26.2734C48.9778 27.8799 50.4153 29.3155 51.9052 30.6919C53.8671 33.4501 56.5309 35.6217 59.5108 37.2376C59.6869 37.3331 59.8644 37.4273 60.0433 37.5188C58.5749 36.207 57.2463 34.7539 56.1638 33.1003L56.1625 33.099Z" fill="#C49878"/>
<path d="M58.2816 23.1129C56.8267 23.5839 55.607 24.6629 55.1512 26.1497C54.6442 27.8033 55.3515 29.3801 56.438 30.6139C57.6147 31.9486 60.9414 33.8014 60.8338 33.6614C59.9894 32.5541 58.8894 31.6715 58.0087 30.5938C57.2005 29.6075 56.8858 28.3266 56.9652 27.1359C56.9692 27.0848 56.9719 27.0323 56.9773 26.9812C56.9813 26.965 56.9961 26.891 56.9988 26.8789C57.0391 26.7323 57.0727 26.5883 57.1252 26.4457C57.1306 26.4295 57.1333 26.4201 57.1359 26.4134C57.1427 26.4026 57.1494 26.3892 57.1575 26.373C57.187 26.3165 57.2153 26.26 57.2462 26.2048C57.2771 26.1497 57.3094 26.0958 57.3444 26.042C57.3538 26.0272 57.4372 25.9102 57.4452 25.894C57.6147 25.6814 57.8177 25.4998 58.0248 25.3249C58.0436 25.3087 58.0597 25.2953 58.0718 25.2859C58.1324 25.2415 58.1942 25.1984 58.2574 25.1581C58.3919 25.0693 58.5317 24.9885 58.6756 24.9159C58.7442 24.8809 58.8128 24.8473 58.884 24.8163C58.9002 24.8109 58.9203 24.8042 58.9472 24.7948C59.0844 24.749 59.2216 24.7033 59.3628 24.667C59.6841 24.5849 60.0069 24.5445 60.339 24.5338C61.0181 24.5122 61.6918 24.6145 62.3439 24.8015C63.9522 25.2603 65.3399 26.0299 66.7061 26.9798C66.8097 27.0525 65.6452 25.6895 65.032 25.15C64.447 24.6347 63.8096 24.0857 63.1144 23.7265C61.6407 22.9663 59.9006 22.5909 58.2843 23.1143L58.2816 23.1129Z" fill="#D8AD8D"/>
<path d="M90.9536 36.9654C87.2745 36.8928 85.0101 33.5842 83.7945 30.4829C83.3991 29.4752 83.0495 28.4486 82.7201 27.418C82.7093 27.3857 82.6999 27.3534 82.6891 27.3224C82.3328 26.199 81.8944 25.1051 81.5287 23.9857C81.4507 23.7489 81.1105 23.8457 81.1575 24.0879C81.37 25.1885 81.5045 26.3012 81.7304 27.4005C81.9428 28.4351 82.1432 29.4725 82.4457 30.4843C82.8747 31.9239 83.4596 33.3232 84.3028 34.5584C84.2422 34.6014 84.1911 34.6552 84.1656 34.7158C83.972 35.1733 84.05 35.5729 84.3458 35.9657C84.604 36.3102 84.8729 36.6438 85.158 36.9641C85.3718 37.2049 85.5964 37.4404 85.833 37.6637C85.7658 37.766 85.7281 37.8898 85.7362 38.0283C85.47 37.7122 85.2212 37.3798 84.9643 37.0556C84.725 36.7542 84.2221 37.0125 84.2275 37.361C84.2436 38.4266 84.9038 39.4007 85.7147 40.0519C86.5941 40.757 87.5999 41.174 88.7214 41.2884C89.3171 41.349 89.5807 40.6789 89.3965 40.2134C90.5381 40.3049 91.708 40.0465 92.6775 39.4088C93.1011 39.1289 93.1387 38.5437 92.859 38.21C93.9886 37.9584 95.0791 37.4982 96.0554 36.9183C97.0558 36.325 97.9675 35.5473 98.7959 34.7333C99.1952 34.3404 99.5771 33.9327 99.9415 33.5049C100.334 33.0434 100.65 32.5698 100.972 32.0585C101.118 31.8257 100.814 31.4894 100.576 31.6629C100.208 31.932 99.8353 32.1796 99.4937 32.4837C99.1186 32.8187 98.7407 33.151 98.3656 33.4847C97.6596 34.113 96.9267 34.7104 96.1334 35.2244C95.8442 35.4114 95.5498 35.5903 95.2499 35.7572C93.9281 36.4918 92.4987 36.9937 90.9536 36.9627V36.9654Z" fill="#CFA481"/>
</g>
<defs>
<clipPath id="clip0_3_164951">
<rect width="176" height="188.368" fill="white"/>
</clipPath>
</defs>
</svg>
