<svg width="306" height="425" viewBox="0 0 306 425" fill="none" xmlns="http://www.w3.org/2000/svg">
<path d="M75.4278 420.325L219.341 424.109C262.094 425.242 297.692 391.481 298.825 348.751L305.802 83.2528C306.935 40.5228 273.155 4.94436 230.402 3.81204L86.4888 0.0276703C43.7353 -1.10464 8.13704 32.6561 7.0041 75.3861L0.0276854 340.884C-1.10525 383.614 32.6743 419.193 75.4278 420.325Z" fill="#999999"/>
<path d="M66.009 124.345L245.52 129.053C258.758 129.411 269.789 118.952 270.117 105.721L270.952 73.7782C271.309 60.548 260.845 49.5228 247.607 49.195L68.0959 44.4869C54.8584 44.1294 43.8271 54.5884 43.4992 67.8186L42.6647 99.7619C42.3069 112.992 52.7715 124.017 66.009 124.345Z" fill="#C9D037"/>
<path d="M57.7427 150.938L57.1772 172.378C56.9596 180.628 63.4751 187.493 71.73 187.71L93.8381 188.293C102.093 188.51 108.961 181.998 109.179 173.748L109.744 152.308C109.962 144.058 103.447 137.194 95.1916 136.976L73.0835 136.394C64.8286 136.176 57.9603 142.688 57.7427 150.938Z" fill="#707070"/>
<g style="mix-blend-mode:overlay" opacity="0.4">
<path d="M109.425 152.919L108.899 172.723C108.669 181.427 101.407 188.324 92.6983 188.094L72.291 187.568C65.6529 187.404 60.0994 183.167 57.9634 177.288C60.3951 178.931 63.2542 179.883 66.3104 179.982L86.7173 180.507C95.4256 180.737 102.688 173.84 102.918 165.136L103.444 145.332C103.509 143.263 103.115 141.226 102.392 139.42C106.796 142.376 109.556 147.368 109.425 152.951V152.919Z" fill="black"/>
</g>
<path d="M123.697 174.994L124.262 153.587C124.479 145.346 131.357 138.825 139.603 139.043L161.678 139.624C169.923 139.841 176.448 146.716 176.231 154.956L175.666 176.363C175.449 184.604 168.571 191.125 160.325 190.908L138.25 190.326C130.005 190.109 123.48 183.235 123.697 174.994Z" fill="#707070"/>
<g style="mix-blend-mode:overlay" opacity="0.4">
<path d="M175.936 155.579L175.411 175.383C175.181 184.087 167.918 190.984 159.21 190.754L138.803 190.229C132.165 190.064 126.611 185.795 124.475 179.949C126.907 181.591 129.766 182.543 132.822 182.642L153.229 183.167C161.937 183.397 169.2 176.5 169.43 167.796L169.955 147.992C170.021 145.923 169.627 143.886 168.904 142.08C173.308 145.036 176.068 150.028 175.936 155.612V155.579Z" fill="black"/>
</g>
<path d="M191.394 176.345L191.959 154.938C192.176 146.697 199.054 140.176 207.299 140.394L229.375 140.975C237.62 141.193 244.145 148.067 243.927 156.307L243.363 177.714C243.145 185.955 236.267 192.476 228.022 192.259L205.947 191.677C197.701 191.46 191.177 184.586 191.394 176.345Z" fill="#707070"/>
<g style="mix-blend-mode:overlay" opacity="0.4">
<path d="M243.633 156.93L243.107 176.734C242.877 185.438 235.615 192.335 226.907 192.105L206.499 191.58C199.861 191.415 194.308 187.146 192.172 181.3C194.604 182.942 197.463 183.894 200.519 183.993L220.926 184.518C229.634 184.748 236.897 177.851 237.127 169.147L237.652 149.343C237.718 147.274 237.324 145.238 236.601 143.431C241.004 146.387 243.765 151.379 243.633 156.963V156.93Z" fill="black"/>
</g>
<path d="M54.8955 238.827L55.4601 217.421C55.6774 209.18 62.5555 202.658 70.8009 202.876L92.8761 203.457C101.122 203.674 107.646 210.549 107.429 218.79L106.864 240.196C106.647 248.437 99.7689 254.958 91.5235 254.741L69.4483 254.159C61.2029 253.942 54.6781 247.068 54.8955 238.827Z" fill="#707070"/>
<g style="mix-blend-mode:overlay" opacity="0.4">
<path d="M107.223 219.42L106.697 239.225C106.467 247.928 99.2045 254.825 90.4962 254.596L70.0892 254.07C63.4512 253.906 57.8972 249.636 55.7612 243.79C58.193 245.432 61.0521 246.385 64.1082 246.483L84.5151 247.009C93.2235 247.239 100.486 240.341 100.716 231.638L101.242 211.833C101.308 209.764 100.913 207.728 100.19 205.921C104.594 208.877 107.354 213.87 107.223 219.453V219.42Z" fill="black"/>
</g>
<path d="M121.477 241.514L122.042 220.108C122.259 211.867 129.137 205.345 137.382 205.563L159.458 206.144C167.703 206.362 174.228 213.236 174.01 221.477L173.446 242.883C173.228 251.124 166.35 257.645 158.105 257.428L136.03 256.846C127.784 256.629 121.26 249.755 121.477 241.514Z" fill="#707070"/>
<g style="mix-blend-mode:overlay" opacity="0.4">
<path d="M173.724 222.081L173.199 241.885C172.969 250.589 165.706 257.486 156.998 257.256L136.591 256.731C129.953 256.566 124.399 252.297 122.263 246.451C124.695 248.093 127.554 249.045 130.61 249.144L151.017 249.669C159.725 249.899 166.988 243.002 167.218 234.298L167.744 214.494C167.809 212.425 167.415 210.388 166.692 208.582C171.095 211.538 173.856 216.53 173.724 222.114V222.081Z" fill="black"/>
</g>
<path d="M188.598 222.771L188.033 244.21C187.815 252.46 194.331 259.325 202.585 259.542L224.694 260.125C232.949 260.342 239.817 253.83 240.034 245.58L240.6 224.141C240.817 215.89 234.302 209.026 226.047 208.808L203.939 208.226C195.684 208.008 188.816 214.52 188.598 222.771Z" fill="#707070"/>
<g style="mix-blend-mode:overlay" opacity="0.4">
<path d="M240.272 224.751L239.746 244.555C239.516 253.259 232.253 260.156 223.545 259.926L203.138 259.4C196.5 259.236 190.947 254.967 188.811 249.12C191.242 250.763 194.101 251.715 197.157 251.814L217.564 252.339C226.273 252.569 233.535 245.672 233.765 236.968L234.291 217.164C234.357 215.095 233.962 213.058 233.239 211.252C237.643 214.208 240.403 219.2 240.272 224.783V224.751Z" fill="black"/>
</g>
<path d="M52.7373 305.382L53.3019 283.976C53.5192 275.735 60.3973 269.214 68.6427 269.431L90.7179 270.012C98.9633 270.23 105.488 277.104 105.271 285.345L104.706 306.751C104.489 314.992 97.6107 321.513 89.3653 321.296L67.2901 320.715C59.0447 320.497 52.5199 313.623 52.7373 305.382Z" fill="#707070"/>
<g style="mix-blend-mode:overlay" opacity="0.4">
<path d="M105.012 285.931L104.486 305.736C104.256 314.439 96.9932 321.337 88.2848 321.107L67.8779 320.581C61.2399 320.417 55.6863 316.18 53.5503 310.301C55.9821 311.943 58.8407 312.896 61.8969 312.994L82.3042 313.52C91.0125 313.75 98.2747 306.852 98.5048 298.149L99.0307 278.344C99.0964 276.275 98.7022 274.239 97.9793 272.433C102.383 275.389 105.143 280.381 105.012 285.964V285.931Z" fill="black"/>
</g>
<path d="M119.726 286.569L119.16 308.008C118.943 316.258 125.458 323.123 133.713 323.341L155.821 323.923C164.076 324.141 170.944 317.628 171.162 309.378L171.727 287.939C171.945 279.689 165.429 272.824 157.175 272.606L135.066 272.024C126.811 271.806 119.943 278.319 119.726 286.569Z" fill="#707070"/>
<g style="mix-blend-mode:overlay" opacity="0.4">
<path d="M171.522 288.602L170.997 308.406C170.767 317.11 163.504 324.007 154.796 323.777L134.389 323.252C127.751 323.087 122.197 318.85 120.061 312.971C122.493 314.614 125.352 315.566 128.408 315.665L148.815 316.19C157.523 316.42 164.785 309.523 165.015 300.819L165.541 281.015C165.607 278.946 165.213 276.909 164.49 275.103C168.893 278.059 171.654 283.051 171.522 288.635V288.602Z" fill="black"/>
</g>
<path d="M186.387 289.291L185.822 310.73C185.604 318.98 192.12 325.845 200.375 326.062L222.483 326.645C230.738 326.862 237.606 320.35 237.823 312.1L238.389 290.661C238.607 282.41 232.091 275.546 223.836 275.328L201.728 274.746C193.473 274.528 186.605 281.04 186.387 289.291Z" fill="#707070"/>
<g style="mix-blend-mode:overlay" opacity="0.4">
<path d="M237.989 291.176L237.468 311.111C237.24 319.872 230.043 326.814 221.414 326.583L201.192 326.054C194.614 325.888 189.11 321.624 186.994 315.706C189.403 317.359 192.237 318.318 195.265 318.417L215.487 318.946C224.117 319.177 231.313 312.235 231.541 303.474L232.062 283.539C232.127 281.456 231.737 279.407 231.02 277.588C235.384 280.564 238.119 285.589 237.989 291.209V291.176Z" fill="black"/>
</g>
<path d="M50.9595 350.331L50.394 371.771C50.1764 380.021 56.6919 386.886 64.9468 387.103L87.0549 387.686C95.3098 387.903 102.178 381.391 102.396 373.141L102.961 351.701C103.179 343.451 96.6633 336.587 88.4084 336.369L66.3003 335.787C58.0454 335.569 51.1771 342.081 50.9595 350.331Z" fill="#BF3E00"/>
<g style="mix-blend-mode:overlay" opacity="0.4">
<path d="M102.783 352.444L102.257 372.248C102.027 380.952 94.7646 387.849 86.0562 387.619L65.6489 387.094C59.0109 386.93 53.4573 382.693 51.3213 376.814C53.753 378.456 56.6121 379.408 59.6683 379.507L80.0752 380.033C88.7835 380.262 96.0461 373.365 96.2762 364.662L96.802 344.857C96.8678 342.788 96.4732 340.752 95.7503 338.945C100.154 341.901 102.914 346.893 102.783 352.477V352.444Z" fill="black"/>
</g>
<path d="M117.646 353.114L117.081 374.554C116.863 382.804 123.379 389.669 131.634 389.886L153.742 390.469C161.997 390.686 168.865 384.174 169.083 375.924L169.648 354.484C169.866 346.234 163.35 339.37 155.095 339.152L132.987 338.57C124.732 338.352 117.864 344.864 117.646 353.114Z" fill="#707070"/>
<g style="mix-blend-mode:overlay" opacity="0.4">
<path d="M169.329 355.103L168.803 374.908C168.573 383.611 161.31 390.509 152.602 390.279L132.195 389.753C125.557 389.589 120.003 385.319 117.867 379.473C120.299 381.115 123.158 382.068 126.214 382.166L146.621 382.692C155.329 382.922 162.592 376.024 162.822 367.321L163.348 347.516C163.414 345.447 163.019 343.411 162.296 341.604C166.7 344.56 169.46 349.553 169.329 355.136V355.103Z" fill="black"/>
</g>
<path d="M184 355.678L183.434 377.117C183.216 385.368 189.732 392.232 197.987 392.45L220.095 393.032C228.35 393.25 235.218 386.738 235.436 378.487L236.001 357.048C236.219 348.798 229.703 341.933 221.448 341.716L199.34 341.133C191.085 340.916 184.217 347.428 184 355.678Z" fill="#58A41C"/>
<g style="mix-blend-mode:overlay" opacity="0.4">
<path d="M235.867 357.764L235.341 377.569C235.111 386.272 227.849 393.169 219.14 392.939L198.733 392.414C192.095 392.249 186.541 388.013 184.405 382.134C186.837 383.776 189.696 384.728 192.752 384.827L213.159 385.352C221.868 385.582 229.13 378.685 229.36 369.981L229.886 350.177C229.952 348.108 229.557 346.072 228.834 344.265C233.238 347.221 235.998 352.213 235.867 357.797V357.764Z" fill="black"/>
</g>
<g style="mix-blend-mode:overlay" opacity="0.4">
<path d="M270.98 73.8039L270.146 105.717C269.788 118.918 258.756 129.406 245.519 129.049L66.008 124.341C57.183 124.103 49.6699 119.156 45.645 111.945C48.5072 113.316 51.727 114.12 55.1854 114.21L234.696 118.918C247.904 119.275 258.965 108.786 259.323 95.586L260.158 63.6131C260.277 59.203 259.234 55.0611 257.147 51.4556C265.495 55.3591 271.189 63.9706 270.951 73.7741L270.98 73.8039Z" fill="black"/>
</g>
<g style="mix-blend-mode:overlay" opacity="0.3">
<path d="M305.8 82.8072L298.793 349.229C297.69 391.691 262.3 425.273 219.756 424.17L74.9781 420.356C48.1752 419.641 24.9201 405.308 11.6528 384.152C24.7711 396.071 42.1527 403.461 61.2338 403.937L206.011 407.752C248.556 408.884 283.916 375.332 285.049 332.81L292.055 66.4779C292.472 50.8043 288.15 36.1141 280.458 23.7778C296.557 38.2893 306.396 59.5053 305.8 82.8072Z" fill="black"/>
</g>
<g style="mix-blend-mode:overlay" opacity="0.3">
<path d="M62.4623 66.0027C62.2536 74.3163 98.18 79.2328 143.587 80.4247C188.994 81.6167 226.679 78.637 226.917 70.3234C227.126 62.0099 192.512 59.5962 147.105 58.3745C101.698 57.1826 62.7008 57.6593 62.4623 65.9729V66.0027Z" fill="white"/>
</g>
<g style="mix-blend-mode:overlay" opacity="0.15">
<path d="M58.6148 19.3047C58.4061 27.6183 101.458 26.7242 153.573 28.0949C205.688 29.4656 247.13 32.5646 247.338 24.2511C247.547 15.9375 207.805 13.3749 155.69 12.0042C103.574 10.6335 58.8235 10.9613 58.585 19.2749L58.6148 19.3047Z" fill="white"/>
</g>
<g style="mix-blend-mode:overlay" opacity="0.15">
<path d="M22.6277 73.5689C14.3096 73.3603 15.2042 116.388 13.8327 168.475C12.4613 220.561 9.3607 261.98 17.6788 262.189C25.997 262.397 28.561 222.677 29.9324 170.59C31.3039 118.504 30.9757 73.7774 22.6277 73.5391V73.5689Z" fill="white"/>
</g>
<g style="mix-blend-mode:multiply">
<g filter="url(#filter0_d_138_202103)">
<rect x="52.2964" y="56" width="43.7232" height="59" rx="12.6429" transform="rotate(1.25912 52.2964 56)" fill="#D9D9D9"/>
<rect x="108.122" y="57.2271" width="43.7232" height="59" rx="12.6429" transform="rotate(1.25912 108.122 57.2271)" fill="#D9D9D9"/>
<rect x="163.948" y="58.4541" width="43.7232" height="59" rx="12.6429" transform="rotate(1.25912 163.948 58.4541)" fill="#D9D9D9"/>
<rect x="219.774" y="59.6812" width="43.7232" height="59" rx="12.6429" transform="rotate(1.25912 219.774 59.6812)" fill="#D9D9D9"/>
</g>
</g>
<path d="M65.5268 84.3694C65.5728 82.8394 65.7268 81.4481 65.9886 80.1954C66.26 78.9337 66.8392 77.8399 67.7261 76.9142C68.2733 76.4171 68.897 76.0157 69.5972 75.71C70.2974 75.4042 71.2026 75.2681 72.3127 75.3015C73.4415 75.3355 74.3416 75.526 75.0127 75.873C75.6839 76.22 76.2777 76.6581 76.794 77.1872C77.6236 78.1646 78.1313 79.291 78.317 80.5665C78.5123 81.833 78.5869 83.2312 78.5409 84.7612C78.4954 86.2725 78.3368 87.6637 78.0651 88.9348C77.803 90.1968 77.2285 91.2906 76.3416 92.2164C75.7944 92.7135 75.1753 93.115 74.4845 93.421C73.7936 93.7271 72.8838 93.8631 71.755 93.8291C70.6448 93.7957 69.7494 93.6053 69.0689 93.258C68.3884 92.9107 67.79 92.4725 67.2737 91.9434C66.444 90.966 65.9317 89.8394 65.7367 88.5636C65.5512 87.2788 65.4813 85.8807 65.5268 84.3694ZM69.7949 84.4979C69.7561 85.7853 69.7707 86.8502 69.8387 87.6927C69.9068 88.5351 70.0372 89.1646 70.2301 89.5813C70.378 89.9406 70.5987 90.2087 70.8922 90.3856C71.1859 90.5532 71.5054 90.6421 71.8506 90.6525C72.2144 90.6635 72.5433 90.594 72.8373 90.4441C73.1406 90.2945 73.3724 90.04 73.5326 89.6807C73.7409 89.2761 73.9043 88.6554 74.0228 87.8186C74.1507 86.9821 74.2341 85.9201 74.2728 84.6327C74.3121 83.3266 74.293 82.2569 74.2154 81.4235C74.1471 80.5904 74.0211 79.9657 73.8376 79.5493C73.6897 79.19 73.4735 78.9267 73.1891 78.7594C72.9049 78.5828 72.5809 78.489 72.2171 78.478C71.8719 78.4677 71.5475 78.5419 71.2439 78.7009C70.9406 78.8505 70.7044 79.1001 70.5351 79.4499C70.3268 79.8545 70.1589 80.4703 70.0313 81.2975C69.913 82.125 69.8342 83.1918 69.7949 84.4979Z" fill="black"/>
<path d="M84.2284 159.89C84.2172 160.263 84.201 160.645 84.1799 161.037C84.159 161.419 84.1427 161.806 84.1309 162.198L84.0863 163.681L80.0841 163.56L80.1287 162.077C80.1405 161.685 80.1475 161.298 80.1497 160.915C80.1522 160.523 80.159 160.141 80.1703 159.767L80.2789 156.157C80.2902 155.784 80.3229 155.318 80.3771 154.759C80.4408 154.192 80.5002 153.615 80.5552 153.028C80.6102 152.441 80.6394 151.938 80.6427 151.518L80.6657 147.499C81.0408 147.445 81.3919 147.413 81.719 147.404C82.0461 147.396 82.3542 147.395 82.6434 147.404C82.9419 147.413 83.2495 147.432 83.5661 147.46C83.8828 147.488 84.2267 147.541 84.5979 147.617L84.2284 159.89ZM78.3744 161.73C78.5796 161.736 78.8827 161.75 79.2835 161.772C79.6844 161.793 79.9875 161.807 80.1927 161.813L84.083 161.93C84.2882 161.936 84.6055 161.941 85.0349 161.945C85.4737 161.949 85.7957 161.954 86.0009 161.96L87.5682 162.007C87.6825 162.552 87.7306 163.128 87.7123 163.734C87.6943 164.331 87.6119 164.898 87.465 165.435L75.9482 165.089C75.8347 164.516 75.7866 163.945 75.8037 163.376C75.822 162.769 75.9045 162.197 76.0514 161.66L78.3744 161.73ZM75.0528 152.96C76.4689 152.135 77.6294 151.273 78.5341 150.376C79.4389 149.479 80.1494 148.52 80.6657 147.499L81.997 150.732C81.6943 151.479 81.2537 152.157 80.6752 152.765C80.0966 153.374 79.4598 153.901 78.7647 154.347C78.0697 154.793 77.3866 155.15 76.7155 155.419C76.3107 155.221 75.947 154.892 75.6247 154.434C75.3119 153.967 75.1213 153.476 75.0528 152.96Z" fill="black"/>
<path d="M145.125 225.051C145.075 225.46 145.003 225.855 144.907 226.235C144.821 226.615 144.698 226.994 144.537 227.372C143.99 227.543 143.384 227.674 142.718 227.766C142.062 227.849 141.431 227.89 140.824 227.891L141.564 219.593L145.182 220.361C145.239 220.642 145.275 221.008 145.289 221.456C145.313 221.905 145.323 222.349 145.319 222.788C145.316 223.217 145.301 223.553 145.275 223.795L145.125 225.051ZM139.893 235.552C139.979 235.163 140.189 234.693 140.523 234.143C140.867 233.583 141.248 233.165 141.668 232.888C142.206 233.297 142.752 233.621 143.305 233.862C143.867 234.103 144.475 234.234 145.128 234.253C145.669 234.269 146.167 234.177 146.621 233.976C147.075 233.775 147.444 233.464 147.728 233.043C148.011 232.613 148.163 232.076 148.182 231.432C148.202 230.779 148.083 230.243 147.825 229.824C147.566 229.406 147.221 229.096 146.788 228.897C146.355 228.688 145.883 228.575 145.369 228.56C144.922 228.546 144.49 228.613 144.075 228.759C143.66 228.896 143.257 229.108 142.865 229.395C142.494 229.309 142.108 229.12 141.706 228.828C141.313 228.536 141.019 228.223 140.824 227.891C141.226 227.557 141.713 227.194 142.285 226.8C142.857 226.407 143.512 226.072 144.248 225.795C144.985 225.518 145.792 225.393 146.669 225.42C148.553 225.476 150.002 226.052 151.015 227.147C152.028 228.233 152.508 229.643 152.456 231.378C152.412 232.852 152.039 234.06 151.338 235C150.647 235.932 149.768 236.615 148.7 237.05C147.641 237.476 146.538 237.671 145.39 237.637C144.308 237.604 143.282 237.405 142.313 237.04C141.353 236.675 140.546 236.179 139.893 235.552ZM151.855 219.693C151.976 220.033 152.045 220.352 152.064 220.652C152.083 220.951 152.09 221.203 152.084 221.409C152.049 222.575 151.443 223.14 150.268 223.105L145.65 222.966C145.202 222.952 144.699 222.928 144.139 222.892C143.59 222.857 143.077 222.818 142.602 222.776C142.137 222.734 141.806 222.696 141.611 222.662L141.564 219.593L141.78 219.39L151.855 219.693Z" fill="black"/>
<path d="M74.3786 231.83C74.1298 231.412 73.9283 230.971 73.7741 230.509C73.6202 230.038 73.5489 229.615 73.5601 229.242C73.5691 228.944 73.6345 228.633 73.7563 228.31C73.8877 227.978 74.0131 227.687 74.1327 227.439L79.0467 217.278C79.4503 217.206 79.9032 217.206 80.4053 217.277C80.917 217.339 81.399 217.456 81.8514 217.629C82.304 217.792 82.634 217.998 82.8412 218.247L80.6451 222.803C80.4157 223.291 80.1173 223.898 79.7499 224.624C79.3828 225.342 79.0017 226.059 78.6067 226.775C78.2119 227.482 77.8395 228.064 77.4897 228.52L77.5698 228.649C77.9444 228.613 78.384 228.589 78.8886 228.576C79.4025 228.564 79.8789 228.559 80.3176 228.563C80.7567 228.558 81.0555 228.558 81.2141 228.562L84.6285 228.665C84.9737 228.675 85.2351 228.679 85.4126 228.675C85.5901 228.671 85.8515 228.674 86.1967 228.684L87.0503 228.71C87.08 228.963 87.0957 229.216 87.0975 229.468C87.1086 229.72 87.1105 229.968 87.1032 230.21C87.0947 230.49 87.0665 230.807 87.0185 231.16C86.9708 231.504 86.8954 231.838 86.7923 232.162L86.0926 232.141C85.7474 232.13 85.4862 232.122 85.309 232.117C85.132 232.102 84.8709 232.09 84.5257 232.08L80.5515 231.96C80.2157 231.95 79.8889 231.949 79.5711 231.958C79.2534 231.967 78.9173 231.967 78.5627 231.956L74.3786 231.83ZM80.4646 233.918C80.4752 233.564 80.4897 233.237 80.5081 232.939C80.5266 232.631 80.5411 232.305 80.5515 231.96L80.6349 229.189C80.638 229.087 80.6394 228.886 80.6391 228.587C80.6387 228.288 80.6402 228.083 80.6436 227.971L80.6765 226.879C80.7071 225.862 80.9833 225.063 81.505 224.481C82.0268 223.899 82.7448 223.622 83.659 223.65L84.6246 223.679L84.801 223.866L84.7151 226.721C84.7047 227.066 84.6902 227.392 84.6716 227.7C84.6533 227.998 84.6389 228.32 84.6285 228.665L84.5257 232.08C84.5153 232.425 84.5102 232.751 84.5102 233.06C84.5106 233.358 84.5054 233.685 84.4947 234.039L84.4543 235.383C84.0885 235.437 83.7327 235.469 83.387 235.477C83.0506 235.485 82.7331 235.485 82.4346 235.476C82.136 235.467 81.8145 235.448 81.4699 235.419C81.1346 235.39 80.786 235.338 80.4241 235.262L80.4646 233.918Z" fill="black"/>
<path d="M136.661 298.548C136.687 297.68 136.935 296.903 137.403 296.217C137.873 295.522 138.46 294.937 139.165 294.463C139.88 293.99 140.614 293.639 141.368 293.409L144.02 294.624C142.896 295.075 142.094 295.644 141.616 296.33C141.138 297.016 140.888 297.709 140.867 298.408C140.847 299.071 141.05 299.628 141.475 300.079C141.901 300.522 142.482 300.754 143.219 300.776C143.732 300.792 144.169 300.707 144.529 300.522C144.89 300.327 145.169 300.06 145.366 299.72C145.563 299.381 145.667 299.006 145.68 298.595C145.692 298.185 145.605 297.804 145.42 297.453C145.235 297.093 144.955 296.767 144.581 296.475C144.216 296.175 143.771 295.919 143.245 295.707L142.568 295.406C141.471 294.944 140.528 294.458 139.741 293.948C138.953 293.43 138.355 292.833 137.946 292.158C137.546 291.483 137.36 290.683 137.388 289.76C137.415 288.855 137.705 288.047 138.259 287.335C138.813 286.623 139.558 286.071 140.494 285.679C141.44 285.278 142.51 285.096 143.704 285.132C144.954 285.169 146.03 285.407 146.932 285.845C147.834 286.274 148.521 286.855 148.994 287.588C149.477 288.312 149.704 289.136 149.676 290.06C149.653 290.815 149.433 291.481 149.014 292.057C148.605 292.623 148.086 293.098 147.458 293.481C146.84 293.854 146.197 294.129 145.529 294.305L142.975 293.051C143.844 292.741 144.505 292.336 144.959 291.837C145.413 291.327 145.65 290.746 145.669 290.093C145.686 289.533 145.504 289.066 145.123 288.69C144.752 288.305 144.24 288.103 143.587 288.084C142.99 288.066 142.49 288.228 142.088 288.571C141.685 288.904 141.476 289.337 141.46 289.868C141.443 290.428 141.649 290.901 142.076 291.288C142.503 291.665 143.096 292 143.852 292.293L144.502 292.565C145.554 292.98 146.492 293.465 147.316 294.022C148.149 294.57 148.797 295.23 149.259 296C149.731 296.761 149.951 297.678 149.919 298.751C149.887 299.814 149.551 300.719 148.913 301.466C148.283 302.213 147.445 302.776 146.397 303.155C145.358 303.525 144.214 303.692 142.964 303.654C141.014 303.595 139.465 303.114 138.315 302.211C137.166 301.308 136.615 300.087 136.661 298.548Z" fill="black"/>
<path d="M210.536 287.127C211.487 287.155 212.281 287.305 212.917 287.577C213.554 287.848 214.058 288.152 214.431 288.491C214.813 288.82 215.084 289.103 215.245 289.341C215.371 289.513 215.532 289.752 215.728 290.056C215.924 290.361 216.117 290.778 216.307 291.306C216.506 291.826 216.663 292.503 216.778 293.337C216.893 294.163 216.932 295.181 216.896 296.394C216.837 298.353 216.488 300.033 215.848 301.433C215.208 302.824 214.313 303.885 213.161 304.616C212.009 305.337 210.626 305.674 209.013 305.625C208.08 305.597 207.238 305.483 206.488 305.283C205.746 305.093 205.096 304.844 204.535 304.538C204.598 303.998 204.749 303.471 204.989 302.955C205.238 302.43 205.568 302.011 205.979 301.696C206.348 301.857 206.764 302.005 207.227 302.14C207.699 302.266 208.215 302.338 208.775 302.355C209.642 302.381 210.344 302.201 210.878 301.816C211.422 301.431 211.821 300.887 212.076 300.185C212.34 299.474 212.486 298.652 212.514 297.719L212.599 294.892C212.617 294.295 212.601 293.753 212.55 293.266C212.509 292.77 212.433 292.333 212.323 291.957C212.213 291.58 212.068 291.272 211.889 291.033C211.727 290.814 211.523 290.625 211.276 290.468C211.038 290.303 210.742 290.214 210.387 290.204C209.641 290.181 209.091 290.449 208.738 291.008C208.385 291.567 208.196 292.276 208.17 293.134C208.149 293.834 208.211 294.396 208.357 294.821C208.513 295.245 208.741 295.561 209.043 295.766C209.345 295.962 209.707 296.066 210.126 296.078C210.574 296.092 211.006 296.021 211.421 295.865C211.846 295.71 212.25 295.479 212.633 295.173C213.025 294.858 213.387 294.482 213.717 294.044L214.354 296.164C214.047 296.724 213.639 297.258 213.129 297.766C212.619 298.264 212.009 298.666 211.3 298.971C210.6 299.277 209.811 299.416 208.934 299.39C207.423 299.345 206.21 298.837 205.296 297.866C204.392 296.896 203.971 295.361 204.034 293.262C204.075 291.918 204.394 290.784 204.991 289.859C205.598 288.934 206.389 288.239 207.365 287.774C208.341 287.308 209.398 287.092 210.536 287.127Z" fill="black"/>
<path d="M143.824 154.879C144.092 154.038 144.507 153.275 145.069 152.592C145.641 151.909 146.338 151.369 147.163 150.974C147.987 150.579 148.917 150.397 149.952 150.428C151.137 150.463 152.156 150.723 153.01 151.206C153.874 151.69 154.535 152.354 154.995 153.199C155.455 154.044 155.669 155.021 155.635 156.131C155.611 156.934 155.435 157.652 155.108 158.286C154.781 158.912 154.353 159.487 153.824 160.013C153.294 160.538 152.719 161.048 152.097 161.543L150.02 163.078C149.666 163.356 149.293 163.658 148.9 163.982C148.507 164.307 148.171 164.619 147.891 164.918C147.621 165.209 147.478 165.461 147.462 165.676L147.237 168.512L144.676 168.435C144.316 167.985 143.993 167.546 143.707 167.117C143.421 166.689 143.286 166.218 143.302 165.705C143.317 165.191 143.482 164.674 143.797 164.151C144.111 163.628 144.524 163.108 145.034 162.591C145.545 162.065 146.097 161.554 146.691 161.058L149.763 158.574C150.213 158.204 150.594 157.805 150.906 157.376C151.217 156.946 151.382 156.452 151.399 155.892C151.416 155.313 151.249 154.827 150.896 154.434C150.553 154.041 150.06 153.835 149.416 153.815C148.735 153.795 148.172 154.035 147.728 154.535C147.283 155.035 146.958 155.599 146.752 156.228C146.258 156.204 145.707 156.075 145.097 155.842C144.498 155.6 144.073 155.279 143.824 154.879ZM155.825 165.199C155.784 166.552 155.55 167.479 155.125 167.979C154.708 168.48 154.024 168.717 153.072 168.688L144.928 168.443L143.883 165.918C144.591 165.687 145.423 165.507 146.379 165.377C147.345 165.247 148.314 165.16 149.286 165.114C150.259 165.069 151.099 165.057 151.808 165.078L155.825 165.199Z" fill="black"/>
<path d="M220.33 166.66C220.353 165.886 220.123 165.286 219.641 164.861C219.16 164.426 218.559 164.198 217.841 164.176C217.58 164.168 217.313 164.193 217.041 164.25C216.768 164.298 216.509 164.374 216.263 164.479C215.906 164.253 215.584 163.922 215.299 163.484C215.013 163.045 214.839 162.62 214.777 162.207C215.362 162.01 215.974 161.851 216.612 161.73C217.251 161.6 218.093 161.551 219.138 161.582C220.201 161.614 221.152 161.839 221.989 162.256C222.826 162.674 223.48 163.277 223.951 164.066C224.423 164.846 224.641 165.805 224.607 166.943C224.579 167.885 224.371 168.72 223.985 169.446C223.609 170.163 223.101 170.764 222.46 171.249C221.82 171.734 221.095 172.095 220.285 172.332C219.475 172.569 218.622 172.674 217.726 172.647C216.457 172.609 215.316 172.383 214.301 171.969C213.296 171.547 212.485 171.042 211.868 170.453C211.975 169.971 212.195 169.492 212.527 169.017C212.869 168.532 213.259 168.128 213.698 167.805C214.172 168.193 214.713 168.532 215.32 168.821C215.928 169.11 216.586 169.265 217.295 169.286C217.892 169.304 218.413 169.213 218.858 169.011C219.303 168.8 219.653 168.498 219.908 168.104C220.172 167.701 220.313 167.22 220.33 166.66ZM220.977 160.979C220.592 161.351 220.148 161.683 219.644 161.976C219.15 162.26 218.662 162.506 218.179 162.716C217.706 162.916 217.305 163.072 216.975 163.184L214.777 162.207L217.573 159.602C217.746 159.43 217.953 159.235 218.193 159.019C218.442 158.802 218.686 158.595 218.926 158.396C219.175 158.189 219.376 158.027 219.528 157.91L219.422 157.739C219.092 157.822 218.67 157.889 218.155 157.939C217.649 157.989 217.135 158.006 216.613 157.991L213.156 157.887C213.045 157.556 212.975 157.255 212.945 156.984C212.926 156.703 212.919 156.474 212.924 156.297C212.932 156.036 212.964 155.733 213.021 155.389C213.078 155.046 213.187 154.708 213.346 154.377L223.407 154.68C223.707 155.277 223.907 155.768 224.007 156.154C224.117 156.54 224.168 156.878 224.159 157.167C224.15 157.466 224.081 157.753 223.951 158.029C223.821 158.306 223.607 158.589 223.309 158.878L220.977 160.979Z" fill="black"/>
<path d="M210.314 238.664C209.362 238.636 208.569 238.486 207.932 238.215C207.296 237.943 206.792 237.639 206.419 237.301C206.047 236.963 205.775 236.679 205.604 236.45C205.479 236.278 205.318 236.04 205.122 235.735C204.926 235.43 204.728 235.018 204.529 234.498C204.339 233.97 204.187 233.293 204.072 232.468C203.957 231.633 203.917 230.61 203.954 229.397C204.013 227.428 204.363 225.749 205.002 224.358C205.642 222.967 206.537 221.911 207.689 221.19C208.85 220.459 210.233 220.118 211.837 220.166C212.77 220.194 213.607 220.308 214.348 220.508C215.099 220.698 215.754 220.947 216.315 221.253C216.261 221.793 216.11 222.325 215.86 222.85C215.611 223.366 215.281 223.78 214.87 224.095C214.502 223.925 214.082 223.777 213.609 223.651C213.146 223.525 212.635 223.453 212.075 223.437C211.207 223.41 210.502 223.59 209.958 223.975C209.423 224.36 209.024 224.909 208.76 225.62C208.505 226.322 208.364 227.139 208.336 228.072L208.251 230.899C208.233 231.487 208.249 232.029 208.3 232.525C208.35 233.021 208.43 233.458 208.54 233.835C208.651 234.202 208.791 234.51 208.961 234.758C209.123 234.968 209.322 235.156 209.56 235.322C209.807 235.488 210.108 235.577 210.463 235.587C211.209 235.61 211.759 235.342 212.112 234.783C212.465 234.224 212.654 233.515 212.68 232.657C212.701 231.957 212.634 231.395 212.478 230.97C212.333 230.545 212.108 230.235 211.806 230.039C211.514 229.835 211.153 229.726 210.724 229.713C210.285 229.699 209.853 229.771 209.429 229.926C209.004 230.081 208.6 230.312 208.217 230.618C207.834 230.924 207.473 231.3 207.133 231.748L206.496 229.627C206.802 229.067 207.211 228.538 207.72 228.04C208.24 227.532 208.85 227.126 209.55 226.82C210.25 226.514 211.039 226.375 211.916 226.401C213.427 226.447 214.635 226.954 215.539 227.925C216.453 228.895 216.879 230.43 216.816 232.529C216.775 233.873 216.451 235.007 215.845 235.932C215.247 236.857 214.461 237.552 213.485 238.018C212.518 238.483 211.461 238.699 210.314 238.664Z" fill="black"/>
<path d="M83.387 282.709C83.553 283.088 83.708 283.522 83.852 284.012C84.0053 284.502 84.0768 284.919 84.0664 285.265C84.06 285.479 84.0011 285.73 83.8897 286.016C83.7784 286.302 83.6207 286.577 83.4167 286.842C82.5043 287.991 81.7254 289.051 81.0799 290.021C80.4344 290.991 79.8971 291.937 79.4678 292.858C79.0479 293.779 78.711 294.735 78.4571 295.727C78.2031 296.718 78.0067 297.814 77.8679 299.014L77.732 300.271C77.4598 300.319 77.1414 300.346 76.777 300.354C76.4217 300.371 76.0434 300.374 75.6423 300.362C75.2691 300.351 74.9011 300.326 74.5381 300.287C74.1748 300.257 73.8307 300.209 73.5059 300.144L73.6574 298.832C73.8465 297.203 74.2264 295.595 74.7972 294.006C75.3679 292.417 76.1084 290.926 77.0187 289.534C77.929 288.143 78.9784 286.937 80.167 285.918L80.0457 285.76C79.8108 285.809 79.5107 285.851 79.1455 285.887C78.7895 285.923 78.4151 285.954 78.0222 285.979C77.6295 285.995 77.2603 286.007 76.9146 286.016C76.5784 286.015 76.3124 286.012 76.1165 286.006L71.6665 285.872C71.5491 285.429 71.4983 284.947 71.514 284.425C71.525 284.061 71.5686 283.698 71.6448 283.336C71.7304 282.974 71.8335 282.651 71.9542 282.365L83.387 282.709Z" fill="black"/>
<path d="M122.501 86.0842C122.547 84.5543 122.701 83.1629 122.963 81.9102C123.235 80.6485 123.814 79.5548 124.701 78.629C125.248 78.132 125.872 77.7305 126.572 77.4248C127.272 77.1191 128.177 76.9829 129.287 77.0163C130.416 77.0503 131.316 77.2408 131.987 77.5878C132.659 77.9349 133.252 78.3729 133.769 78.902C134.598 79.8794 135.106 81.0059 135.292 82.2814C135.487 83.5478 135.562 84.9461 135.515 86.476C135.47 87.9873 135.311 89.3785 135.04 90.6496C134.778 91.9116 134.203 93.0055 133.316 93.9312C132.769 94.4283 132.15 94.8299 131.459 95.1359C130.768 95.4419 129.858 95.5779 128.73 95.5439C127.619 95.5105 126.724 95.3202 126.044 94.9729C125.363 94.6255 124.765 94.1873 124.248 93.6582C123.419 92.6808 122.906 91.5542 122.711 90.2785C122.526 88.9936 122.456 87.5956 122.501 86.0842ZM126.769 86.2127C126.731 87.5001 126.745 88.5651 126.813 89.4075C126.881 90.2499 127.012 90.8795 127.205 91.2961C127.353 91.6554 127.573 91.9235 127.867 92.1004C128.161 92.268 128.48 92.357 128.825 92.3674C129.189 92.3783 129.518 92.3089 129.812 92.159C130.115 92.0094 130.347 91.7549 130.507 91.3955C130.715 90.991 130.879 90.3703 130.997 89.5335C131.125 88.6969 131.209 87.635 131.247 86.3475C131.287 85.0415 131.268 83.9717 131.19 83.1384C131.122 82.3053 130.996 81.6805 130.812 81.2641C130.664 80.9049 130.448 80.6416 130.164 80.4743C129.88 80.2976 129.556 80.2038 129.192 80.1929C128.847 80.1825 128.522 80.2568 128.219 80.4157C127.915 80.5653 127.679 80.815 127.51 81.1647C127.301 81.5693 127.133 82.1852 127.006 83.0124C126.888 83.8399 126.809 84.9067 126.769 86.2127Z" fill="black"/>
<path d="M179.476 87.7996C179.522 86.2696 179.676 84.8783 179.937 83.6256C180.209 82.3638 180.788 81.2701 181.675 80.3444C182.222 79.8473 182.846 79.4459 183.546 79.1401C184.246 78.8344 185.151 78.6982 186.261 78.7317C187.39 78.7656 188.29 78.9561 188.961 79.3032C189.633 79.6502 190.226 80.0883 190.743 80.6174C191.572 81.5948 192.08 82.7212 192.266 83.9967C192.461 85.2632 192.536 86.6614 192.49 88.1914C192.444 89.7027 192.286 91.0939 192.014 92.3649C191.752 93.6269 191.177 94.7208 190.29 95.6466C189.743 96.1436 189.124 96.5452 188.433 96.8512C187.742 97.1572 186.833 97.2933 185.704 97.2593C184.594 97.2258 183.698 97.0355 183.018 96.6882C182.337 96.3409 181.739 95.9027 181.222 95.3736C180.393 94.3962 179.88 93.2696 179.685 91.9938C179.5 90.709 179.43 89.3109 179.476 87.7996ZM183.744 87.9281C183.705 89.2155 183.719 90.2804 183.787 91.1228C183.855 91.9653 183.986 92.5948 184.179 93.0115C184.327 93.3707 184.547 93.6388 184.841 93.8157C185.135 93.9833 185.454 94.0723 185.799 94.0827C186.163 94.0937 186.492 94.0242 186.786 93.8743C187.089 93.7247 187.321 93.4702 187.481 93.1109C187.69 92.7063 187.853 92.0856 187.972 91.2488C188.099 90.4123 188.183 89.3503 188.222 88.0629C188.261 86.7568 188.242 85.6871 188.164 84.8537C188.096 84.0206 187.97 83.3958 187.786 82.9795C187.638 82.6202 187.422 82.3569 187.138 82.1896C186.854 82.013 186.53 81.9192 186.166 81.9082C185.821 81.8978 185.496 81.9721 185.193 82.131C184.889 82.2806 184.653 82.5303 184.484 82.88C184.276 83.2846 184.108 83.9005 183.98 84.7277C183.862 85.5552 183.783 86.622 183.744 87.9281Z" fill="black"/>
<path d="M236.45 89.5149C236.496 87.9849 236.65 86.5936 236.911 85.3409C237.183 84.0792 237.762 82.9854 238.649 82.0597C239.196 81.5626 239.82 81.1612 240.52 80.8555C241.22 80.5497 242.125 80.4136 243.236 80.447C244.364 80.481 245.264 80.6715 245.936 81.0185C246.607 81.3655 247.201 81.8036 247.717 82.3327C248.546 83.3101 249.054 84.4366 249.24 85.7121C249.435 86.9785 249.51 88.3767 249.464 89.9067C249.418 91.418 249.26 92.8092 248.988 94.0803C248.726 95.3423 248.151 96.4362 247.264 97.3619C246.717 97.859 246.098 98.2605 245.407 98.5666C244.716 98.8726 243.807 99.0086 242.678 98.9746C241.568 98.9412 240.672 98.7508 239.992 98.4035C239.311 98.0562 238.713 97.618 238.197 97.0889C237.367 96.1115 236.855 94.9849 236.66 93.7091C236.474 92.4243 236.404 91.0262 236.45 89.5149ZM240.718 89.6434C240.679 90.9308 240.694 91.9957 240.762 92.8382C240.83 93.6806 240.96 94.3101 241.153 94.7268C241.301 95.0861 241.522 95.3542 241.815 95.5311C242.109 95.6987 242.428 95.7876 242.773 95.798C243.137 95.809 243.466 95.7395 243.76 95.5896C244.063 95.44 244.295 95.1856 244.455 94.8262C244.664 94.4216 244.827 93.8009 244.946 92.9641C245.074 92.1276 245.157 91.0656 245.196 89.7782C245.235 88.4721 245.216 87.4024 245.138 86.569C245.07 85.7359 244.944 85.1112 244.76 84.6948C244.613 84.3355 244.396 84.0722 244.112 83.9049C243.828 83.7283 243.504 83.6345 243.14 83.6236C242.795 83.6132 242.47 83.6874 242.167 83.8464C241.863 83.996 241.627 84.2456 241.458 84.5954C241.25 85 241.082 85.6159 240.954 86.4431C240.836 87.2705 240.757 88.3373 240.718 89.6434Z" fill="black"/>
<defs>
<filter id="filter0_d_138_202103" x="48.8929" y="56" width="216.701" height="67.8417" filterUnits="userSpaceOnUse" color-interpolation-filters="sRGB">
<feFlood flood-opacity="0" result="BackgroundImageFix"/>
<feColorMatrix in="SourceAlpha" type="matrix" values="0 0 0 0 0 0 0 0 0 0 0 0 0 0 0 0 0 0 127 0" result="hardAlpha"/>
<feOffset dy="2.10714"/>
<feGaussianBlur stdDeviation="1.05357"/>
<feComposite in2="hardAlpha" operator="out"/>
<feColorMatrix type="matrix" values="0 0 0 0 0 0 0 0 0 0 0 0 0 0 0 0 0 0 0.25 0"/>
<feBlend mode="normal" in2="BackgroundImageFix" result="effect1_dropShadow_138_202103"/>
<feBlend mode="normal" in="SourceGraphic" in2="effect1_dropShadow_138_202103" result="shape"/>
</filter>
</defs>
</svg>
