<svg width="69" height="93" viewBox="0 0 69 93" fill="none" xmlns="http://www.w3.org/2000/svg">
<path d="M59.8729 13.4297H8.65229C6.64197 13.4297 4.99645 14.9021 4.69141 16.7988L8.57002 83.5338C8.60262 84.0877 8.70663 84.6199 8.86109 85.1303C9.281 86.5213 10.1177 87.7252 11.2316 88.5925C12.409 89.5103 13.8892 90.0549 15.4897 90.0549H53.0293C54.6306 90.0549 56.11 89.5103 57.2874 88.5925C58.4013 87.7252 59.238 86.5213 59.6579 85.1303C59.8116 84.6206 59.9164 84.0877 59.949 83.5338L63.8292 16.7748C63.514 14.8897 61.8747 13.4297 59.8729 13.4297ZM44.4229 87.0922H15.5968C12.8321 87.0922 10.547 84.9387 10.3832 82.1809L6.77857 23.1523C6.62411 20.5481 8.69576 18.3519 11.3061 18.3519H30.3933C42.9807 18.3519 53.0844 28.7363 52.7343 41.3114L51.4078 80.3043C51.3023 84.0838 48.2068 87.093 44.4237 87.093L44.4229 87.0922Z" fill="#513F37"/>
<path d="M35.408 10.8286H4.3457L4.41944 12.0923L4.60262 15.2505L4.69266 16.7989C4.9977 14.9021 6.64244 13.4297 8.65355 13.4297H59.875C61.8767 13.4297 63.5168 14.8897 63.8312 16.7748L63.9197 15.2505L64.1029 12.0923L64.1766 10.8286H35.408ZM63.9243 15.0907C63.9274 14.574 63.797 14.086 63.5665 13.6594C63.7978 14.086 63.9274 14.574 63.9243 15.0907Z" fill="#4C372E"/>
<path d="M59.6384 0.000488281H2.34719C1.05096 0.000488281 0 1.05087 0 2.34639V5.28421C0 3.42238 1.51046 1.91274 3.37331 1.91274H65.6259C67.4888 1.91274 68.9992 3.42238 68.9992 5.28498V2.34639C68.9992 1.05087 67.9483 0.000488281 66.652 0.000488281H59.6376H59.6384Z" fill="#846F66"/>
<path d="M65.6259 1.91289H3.37331C1.51046 1.91289 0 3.42252 0 5.28435V8.26948C0 8.87225 0.488998 9.36176 1.09287 9.36176H2.08639V7.1904C2.08639 5.32779 3.59685 3.81893 5.45971 3.81893H43.7452C45.6088 3.81893 47.1185 5.32857 47.1185 7.1904V9.36176H67.9063C68.5102 9.36176 68.9992 8.87303 68.9992 8.26948V5.28435C68.9992 3.42174 67.4888 1.91211 65.6259 1.91211V1.91289Z" fill="#594A43"/>
<path d="M47.118 9.36167V7.19031C47.118 5.32771 45.6076 3.81885 43.7447 3.81885H5.45925C3.5964 3.81885 2.08594 5.32848 2.08594 7.19031V9.36167H47.1188H47.118Z" fill="#6D615C"/>
<path d="M67.9071 9.36132H1.09287C0.489774 9.36132 0 8.87259 0 8.26904V9.73601C0 10.3388 0.488998 10.8283 1.09287 10.8283H67.9071C68.511 10.8283 69 10.3396 69 9.73601V8.26904C69 8.87181 68.511 9.36132 67.9071 9.36132Z" fill="#513F37"/>
<path d="M52.7353 41.3115C53.0861 28.7364 42.9817 18.3521 30.3943 18.3521H11.307C8.6967 18.3521 6.62583 20.5482 6.77952 23.1525L10.3841 82.181C10.5471 84.9388 12.833 87.0924 15.5978 87.0924H44.4246C48.2078 87.0924 51.3032 84.0832 51.4088 80.3037L52.7353 41.3107V41.3115ZM43.9907 47.2158L42.9064 79.0888C42.8203 82.1779 40.2899 84.6379 37.1975 84.6379H16.7551C14.4956 84.6379 12.6273 82.8776 12.4938 80.6233L9.5474 32.3724C9.42166 30.2437 11.1145 28.4486 13.2483 28.4486H25.7938C36.0829 28.4486 44.2787 36.937 43.9915 47.2158H43.9907Z" fill="#594A43"/>
<path d="M25.792 28.4478H13.2465C11.1128 28.4478 9.4199 30.2429 9.54564 32.3716L12.4921 80.6224C12.6256 82.8768 14.4938 84.637 16.7533 84.637H37.1958C40.2881 84.637 42.8185 82.1771 42.9046 79.088L43.989 47.215C44.2754 36.9354 36.0796 28.4478 25.7913 28.4478H25.792Z" fill="#6D615C"/>
<mask id="mask0_1150_212340" style="mask-type:alpha" maskUnits="userSpaceOnUse" x="20" y="32" width="30" height="30">
<rect x="20" y="32" width="30" height="30" fill="#D9D9D9"/>
</mask>
<g mask="url(#mask0_1150_212340)">
<path d="M35 58.875C33.3542 58.875 31.8125 58.5625 30.375 57.9375C28.9375 57.3125 27.6823 56.4635 26.6094 55.3906C25.5365 54.3177 24.6875 53.0625 24.0625 51.625C23.4375 50.1875 23.125 48.6458 23.125 47C23.125 45.3542 23.4375 43.8125 24.0625 42.375C24.6875 40.9375 25.5365 39.6823 26.6094 38.6094C27.6823 37.5365 28.9375 36.6875 30.375 36.0625C31.8125 35.4375 33.3542 35.125 35 35.125V32L40 37L35 42V38.875C32.75 38.875 30.8333 39.6667 29.25 41.25C27.6667 42.8333 26.875 44.75 26.875 47C26.875 48.375 27.1927 49.651 27.8281 50.8281C28.4635 52.0052 29.3125 52.9583 30.375 53.6875C30.7083 53.1042 31.2031 52.6094 31.8594 52.2031C32.5156 51.7969 33.2708 51.5417 34.125 51.4375C34.0625 51 33.9792 50.5625 33.875 50.125C33.7708 49.6875 33.6458 49.2812 33.5 48.9062C33.2708 49.0937 33.0208 49.2396 32.75 49.3437C32.4792 49.4479 32.1875 49.5 31.875 49.5C31.1875 49.5 30.599 49.2552 30.1094 48.7656C29.6198 48.276 29.375 47.6875 29.375 47V45.75C29.375 45.3958 29.3177 45.0625 29.2031 44.75C29.0885 44.4375 28.9375 44.1458 28.75 43.875C29.7917 43.8542 30.7187 43.9479 31.5312 44.1562C32.2396 44.3437 32.8854 44.651 33.4688 45.0781C34.0521 45.5052 34.3542 46.1458 34.375 47C34.375 47.1875 34.3594 47.3594 34.3281 47.5156C34.2969 47.6719 34.2396 47.8333 34.1562 48C33.8854 47.7917 33.6146 47.6042 33.3438 47.4375C33.0729 47.2708 32.7917 47.125 32.5 47C32.8542 47.2708 33.2604 47.6875 33.7188 48.25C34.1771 48.8125 34.6042 49.4792 35 50.25C35.4167 49.2292 35.9375 48.224 36.5625 47.2344C37.1875 46.2448 37.9167 45.3333 38.75 44.5C38.2708 44.8333 37.8125 45.1875 37.375 45.5625C36.9375 45.9375 36.5104 46.3333 36.0938 46.75C35.9479 46.5208 35.8333 46.2656 35.75 45.9844C35.6667 45.7031 35.625 45.4167 35.625 45.125C35.625 44.25 35.9271 43.5104 36.5313 42.9062C37.1354 42.3021 37.875 42 38.75 42H40C40.4792 42 40.875 41.9375 41.1875 41.8125C41.5 41.6875 41.7604 41.5417 41.9687 41.375C42.1979 41.1875 42.375 40.9792 42.5 40.75C42.5833 42.1458 42.5104 43.3958 42.2812 44.5C42.0937 45.4375 41.7396 46.2969 41.2188 47.0781C40.6979 47.8594 39.875 48.25 38.75 48.25C38.4375 48.25 38.1406 48.2083 37.8594 48.125C37.5781 48.0417 37.3229 47.9271 37.0938 47.7812C36.9479 48.1771 36.7813 48.7031 36.5938 49.3594C36.4063 50.0156 36.2604 50.7187 36.1563 51.4687C36.9479 51.6146 37.6458 51.8854 38.25 52.2812C38.8542 52.6771 39.3125 53.1458 39.625 53.6875C40.6875 52.9583 41.5365 52.0104 42.1719 50.8437C42.8073 49.6771 43.125 48.3958 43.125 47H46.875C46.875 48.6458 46.5625 50.1875 45.9375 51.625C45.3125 53.0625 44.4635 54.3177 43.3906 55.3906C42.3177 56.4635 41.0625 57.3125 39.625 57.9375C38.1875 58.5625 36.6458 58.875 35 58.875Z" fill="#1C1B1F"/>
</g>
</svg>
