<svg width="69" height="93" viewBox="0 0 69 93" fill="none" xmlns="http://www.w3.org/2000/svg">
<path d="M59.8739 13.4297H8.65327C6.64294 13.4297 4.99742 14.9021 4.69238 16.7988L8.57099 83.5338C8.60359 84.0877 8.7076 84.6199 8.86206 85.1303C9.28198 86.5213 10.1187 87.7252 11.2325 88.5925C12.41 89.5103 13.8902 90.0549 15.4907 90.0549H53.0303C54.6315 90.0549 56.1109 89.5103 57.2884 88.5925C58.4023 87.7252 59.239 86.5213 59.6589 85.1303C59.8126 84.6206 59.9174 84.0877 59.95 83.5338L63.8301 16.7748C63.515 14.8897 61.8757 13.4297 59.8739 13.4297ZM44.4239 87.0922H15.5978C12.833 87.0922 10.5479 84.9387 10.3842 82.1809L6.77955 23.1523C6.62509 20.5481 8.69674 18.3519 11.3071 18.3519H30.3943C42.9817 18.3519 53.0854 28.7363 52.7353 41.3114L51.4088 80.3043C51.3032 84.0838 48.2078 87.093 44.4247 87.093L44.4239 87.0922Z" fill="#513F37"/>
<path d="M35.407 10.8286H4.34473L4.41846 12.0923L4.60164 15.2505L4.69168 16.7989C4.99672 14.9021 6.64147 13.4297 8.65257 13.4297H59.874C61.8758 13.4297 63.5159 14.8897 63.8302 16.7748L63.9187 15.2505L64.1019 12.0923L64.1756 10.8286H35.407ZM63.9234 15.0907C63.9265 14.574 63.7961 14.086 63.5655 13.6594C63.7968 14.086 63.9265 14.574 63.9234 15.0907Z" fill="#4C372E"/>
<path d="M59.6384 0.000488281H2.34719C1.05096 0.000488281 0 1.05087 0 2.34639V5.28421C0 3.42238 1.51046 1.91274 3.37331 1.91274H65.6259C67.4888 1.91274 68.9992 3.42238 68.9992 5.28498V2.34639C68.9992 1.05087 67.9483 0.000488281 66.652 0.000488281H59.6376H59.6384Z" fill="#846F66"/>
<path d="M65.6259 1.91264H3.37331C1.51046 1.91264 0 3.42228 0 5.28411V8.26924C0 8.87201 0.488998 9.36151 1.09287 9.36151H2.08639V7.19015C2.08639 5.32755 3.59685 3.81869 5.45971 3.81869H43.7452C45.6088 3.81869 47.1185 5.32832 47.1185 7.19015V9.36151H67.9063C68.5102 9.36151 68.9992 8.87278 68.9992 8.26924V5.28411C68.9992 3.4215 67.4888 1.91187 65.6259 1.91187V1.91264Z" fill="#594A43"/>
<path d="M47.118 9.36143V7.19007C47.118 5.32746 45.6076 3.8186 43.7447 3.8186H5.45925C3.5964 3.8186 2.08594 5.32824 2.08594 7.19007V9.36143H47.1188H47.118Z" fill="#6D615C"/>
<path d="M67.9071 9.36156H1.09287C0.489774 9.36156 0 8.87283 0 8.26929V9.73625C0 10.339 0.488998 10.8285 1.09287 10.8285H67.9071C68.511 10.8285 69 10.3398 69 9.73625V8.26929C69 8.87205 68.511 9.36156 67.9071 9.36156Z" fill="#513F37"/>
<path d="M52.7353 41.3113C53.0861 28.7362 42.9817 18.3518 30.3943 18.3518H11.307C8.6967 18.3518 6.62583 20.548 6.77952 23.1522L10.3841 82.1808C10.5471 84.9386 12.833 87.0921 15.5978 87.0921H44.4246C48.2078 87.0921 51.3032 84.0829 51.4088 80.3034L52.7353 41.3105V41.3113ZM43.9907 47.2156L42.9064 79.0886C42.8203 82.1777 40.2899 84.6376 37.1975 84.6376H16.7551C14.4956 84.6376 12.6273 82.8774 12.4938 80.623L9.5474 32.3722C9.42166 30.2435 11.1145 28.4484 13.2483 28.4484H25.7938C36.0829 28.4484 44.2787 36.9367 43.9915 47.2156H43.9907Z" fill="#594A43"/>
<path d="M25.793 28.4475H13.2475C11.1137 28.4475 9.42088 30.2426 9.54662 32.3713L12.493 80.6222C12.6265 82.8766 14.4948 84.6368 16.7543 84.6368H37.1968C40.2891 84.6368 42.8195 82.1768 42.9056 79.0877L43.99 47.2148C44.2764 36.9351 36.0806 28.4475 25.7922 28.4475H25.793Z" fill="#6D615C"/>
<mask id="mask0_612_238458" style="mask-type:alpha" maskUnits="userSpaceOnUse" x="20" y="34" width="30" height="30">
<rect x="20" y="34" width="30" height="30" fill="#D9D9D9"/>
</mask>
<g mask="url(#mask0_612_238458)">
<path d="M31.5 45.4998L34.2812 40.906L32.4375 37.8435C32.1875 37.4268 31.8281 37.2185 31.3594 37.2185C30.8906 37.2185 30.5312 37.4268 30.2812 37.8435L27.2188 42.9373L31.5 45.4998ZM43.5938 53.9998L40.8125 49.3748L45.1562 46.8748L47.1562 50.2185C47.3854 50.5727 47.5104 50.9685 47.5312 51.406C47.5521 51.8435 47.4583 52.2498 47.25 52.6248C47.0417 53.0414 46.7344 53.3748 46.3281 53.6248C45.9219 53.8748 45.4792 53.9998 45 53.9998H43.5938ZM40 62.7498L35 57.7498L40 52.7498V55.2498H45.9375L44.125 58.8748C43.8958 59.2914 43.5833 59.6248 43.1875 59.8748C42.7917 60.1248 42.3542 60.2498 41.875 60.2498H40V62.7498ZM27.9062 60.2498C27.4896 60.2498 27.1094 60.1404 26.7656 59.9216C26.4219 59.7029 26.1667 59.4164 26 59.0623C25.8333 58.7289 25.7552 58.38 25.7656 58.0154C25.776 57.6508 25.875 57.3123 26.0625 56.9998L27.125 55.2498H32.5V60.2498H27.9062ZM24.8125 56.6873L22.7812 52.6248C22.5938 52.2498 22.5052 51.8487 22.5156 51.4216C22.526 50.9945 22.6458 50.5935 22.875 50.2185L23.375 49.3748L21.25 48.0935L28.0938 46.3748L29.8125 53.2498L27.6562 51.9373L24.8125 56.6873ZM41.6875 45.9998L34.8438 44.281L37 42.9998L33.0937 36.4998H37.5C37.9375 36.4998 38.349 36.6091 38.7344 36.8279C39.1198 37.0466 39.4271 37.3435 39.6562 37.7185L41.2812 40.4373L43.4062 39.1248L41.6875 45.9998Z" fill="#1C1B1F"/>
</g>
</svg>
