<svg width="187" height="40" viewBox="0 0 187 40" fill="none" xmlns="http://www.w3.org/2000/svg">
<g clip-path="url(#clip0_2_164100)">
<path d="M152.815 9.31599C152.815 10.6912 149.87 11.9912 144.622 13.1338C143.252 13.4417 141.721 13.729 140.05 14.0061C138.079 14.3311 135.923 14.6458 133.572 14.9366C131.539 15.1966 129.349 15.4395 127.049 15.6619C124.986 15.8671 122.826 16.0519 120.571 16.2297C118.224 16.4145 115.781 16.5821 113.259 16.7395C111.165 16.8695 109.005 16.9892 106.781 17.0918C104.495 17.2047 102.165 17.2971 99.7698 17.3792C97.6582 17.4613 95.4988 17.5263 93.3087 17.5742C91.0092 17.6392 88.6755 17.6871 86.2974 17.7144C84.1688 17.7521 82.0094 17.7692 79.8363 17.7794C78.702 17.7897 77.5505 17.7897 76.4025 17.7897C75.2544 17.7897 74.0073 17.7897 72.8251 17.7794C70.6486 17.7692 68.4926 17.7521 66.364 17.7144C63.9859 17.6768 61.6523 17.6323 59.3528 17.5742C57.1626 17.5195 54.9861 17.4545 52.8746 17.3792C50.4794 17.2971 48.1458 17.1945 45.877 17.0816C43.6561 16.9789 41.4967 16.8592 39.3988 16.7292C36.9729 16.5821 34.6392 16.4213 32.3876 16.2366C30.1325 16.069 27.9902 15.874 25.9265 15.6687C23.7671 15.4635 21.7033 15.2411 19.7797 15.0016C17.446 14.7245 15.2901 14.4166 13.3186 14.1019C11.4291 13.794 9.71047 13.469 8.19684 13.1372C2.94868 11.9946 0 10.6912 0 9.31599C0 8.34102 1.49655 7.40368 4.25388 6.52791C5.8461 6.01819 7.84833 5.53241 10.2264 5.08769C11.2036 4.90295 12.2286 4.7148 13.3152 4.54033C15.2866 4.22561 17.4426 3.91772 19.7763 3.64062C21.6999 3.39773 23.7637 3.17537 25.9231 2.97011C26.7738 2.87775 27.6417 2.80249 28.5403 2.72038C29.784 2.60749 31.079 2.49802 32.3842 2.40565C34.6392 2.22092 36.9695 2.06356 39.3954 1.91304C41.4899 1.78304 43.6493 1.66331 45.8736 1.56068C48.1423 1.44779 50.476 1.34858 52.8712 1.26305C54.9827 1.18779 57.1592 1.12279 59.3494 1.06806C61.6488 1.01332 63.9825 0.965431 66.3606 0.9278C68.4892 0.89017 70.6486 0.873065 72.8217 0.862802C74.0039 0.852539 75.1998 0.852539 76.3991 0.852539C77.5983 0.852539 78.6985 0.852539 79.8329 0.862802C82.006 0.873065 84.1654 0.89017 86.294 0.9278C88.6721 0.955168 91.0058 1.00306 93.3052 1.06806C95.4954 1.11595 97.6548 1.18095 99.7664 1.26305C102.162 1.34516 104.495 1.44094 106.778 1.55041C108.998 1.65304 111.158 1.77278 113.256 1.90277C115.777 2.06014 118.22 2.22776 120.568 2.4125C121.828 2.50486 123.059 2.60749 124.254 2.72038C125.201 2.80249 126.144 2.88801 127.042 2.98038C129.342 3.20274 131.532 3.44563 133.565 3.70562C135.912 3.99298 138.072 4.31113 140.043 4.63612C140.942 4.78322 141.793 4.93374 142.613 5.09111C144.977 5.54609 146.979 6.02845 148.554 6.53133C151.312 7.40368 152.808 8.34102 152.808 9.31941L152.815 9.31599Z" fill="#3D3D3D"/>
<path d="M147.85 8.17755C147.85 8.56754 147.615 8.94726 147.157 9.32015C146.04 10.2404 143.597 11.1025 140.05 11.903C138.191 12.3101 136.015 12.7103 133.572 13.0729C133.445 13.1003 133.305 13.1208 133.162 13.1379C131.272 13.4253 129.239 13.6853 127.046 13.9384C125.013 14.1813 122.84 14.4037 120.567 14.5987C118.234 14.8108 115.794 15.0058 113.256 15.1734C111.161 15.3205 109.002 15.4608 106.777 15.5737C104.509 15.7037 102.161 15.8063 99.7662 15.8987C97.6546 15.991 95.5123 16.0663 93.305 16.121C91.0192 16.186 88.6719 16.2407 86.2938 16.2681C84.1652 16.3057 82.0228 16.3331 79.8327 16.3434C78.6983 16.3536 77.5469 16.3536 76.3988 16.3536C75.2508 16.3536 74.0037 16.3536 72.8215 16.3434C70.6313 16.3331 68.489 16.3057 66.3604 16.2681C63.9823 16.2305 61.6486 16.186 59.3491 16.1108C57.1419 16.056 54.9825 15.9808 52.8709 15.8884C50.4758 15.8063 48.1421 15.6934 45.8734 15.5737C43.6525 15.4539 41.476 15.3137 39.3952 15.1666C36.9522 14.9989 34.6185 14.8142 32.384 14.6192C30.1152 14.414 27.9558 14.1916 25.9228 13.959C23.7156 13.7161 21.669 13.4492 19.7761 13.1619C19.7282 13.1619 19.6975 13.1516 19.6496 13.1448C17.2852 12.7924 15.16 12.4195 13.3149 12.0193C9.47108 11.1914 6.83675 10.2917 5.65454 9.32699C5.19669 8.9541 4.96094 8.57438 4.96094 8.18439C4.96094 7.61651 5.46662 7.06916 6.40965 6.53891C7.30826 6.03603 8.58272 5.56393 10.2228 5.09868C11.135 4.83869 12.1772 4.58896 13.3115 4.34607C15.1873 3.93898 17.3467 3.55583 19.7726 3.20347C20.8763 3.03585 22.0277 2.87848 23.2236 2.73138C24.0915 2.61165 24.9901 2.50902 25.9194 2.40639C27.9524 2.17376 30.1118 1.9514 32.3805 1.74614C34.6185 1.55115 36.9522 1.36642 39.3918 1.19879C41.4726 1.05169 43.6456 0.911431 45.87 0.791697C48.1387 0.671964 50.4724 0.559072 52.8675 0.476969C54.9791 0.384603 57.1385 0.309342 59.3457 0.254607C61.6452 0.179346 63.9789 0.134873 66.3569 0.0972427C68.4856 0.0596122 70.6279 0.0322445 72.8181 0.0219816C74.0003 0.0117188 75.1961 0.0117188 76.3954 0.0117188C77.5947 0.0117188 78.6949 0.0117188 79.8293 0.0219816C82.0194 0.0322445 84.1617 0.0596122 86.2904 0.0972427C88.6685 0.12461 91.0192 0.179346 93.3016 0.244344C95.5089 0.299079 97.6512 0.37434 99.7627 0.466706C102.158 0.559072 104.505 0.661701 106.774 0.791697C108.995 0.904589 111.154 1.04143 113.252 1.19195C115.791 1.35958 118.23 1.55457 120.564 1.76667C122.833 1.96167 125.009 2.18403 127.042 2.42692C127.91 2.51928 128.761 2.62191 129.581 2.7348C130.982 2.91269 132.325 3.09742 133.568 3.29242C136.011 3.65504 138.184 4.05529 140.046 4.46239C140.976 4.67449 141.844 4.89001 142.616 5.10211C144.239 5.56736 145.517 6.03945 146.398 6.54233C147.345 7.07258 147.847 7.61993 147.847 8.18781L147.85 8.17755Z" fill="#727272"/>
<path d="M148.558 6.53116H4.25391C5.84612 6.02144 7.84835 5.53566 10.2264 5.09094C11.1387 4.83094 12.1808 4.58121 13.3152 4.33833C15.191 3.93123 17.3504 3.54808 19.7763 3.19573C20.8799 3.0281 22.0314 2.87073 23.2272 2.72363H129.585C130.985 2.90152 132.328 3.08625 133.572 3.28125C136.015 3.64387 138.188 4.04412 140.05 4.45122C140.979 4.66332 141.847 4.87884 142.62 5.09094C144.984 5.54592 146.986 6.02828 148.561 6.53116H148.558Z" fill="#3D3D3D"/>
<path d="M152.815 9.31641C152.815 10.6916 149.87 11.9916 144.622 13.1342H8.19342C2.94868 11.995 0 10.6916 0 9.31641H152.815Z" fill="#3D3D3D"/>
<path d="M32.384 1.73926V16.2407C30.1289 16.0731 27.9866 15.8781 25.9229 15.6728V2.3995C27.9558 2.16688 30.1152 1.94452 32.384 1.73926Z" fill="#3D3D3D"/>
<path d="M19.7765 3.19629V15.002C17.4429 14.7249 15.2869 14.417 13.3154 14.1023V4.33889C15.1912 3.9318 17.3506 3.54865 19.7765 3.19629Z" fill="#3D3D3D"/>
<path d="M45.8737 0.78125V17.0821C43.6528 16.9795 41.4934 16.8598 39.3955 16.7298V1.19177C41.4763 1.04466 43.6494 0.904405 45.8737 0.784671V0.78125Z" fill="#3D3D3D"/>
<path d="M59.3493 0.244141V17.5781C57.1591 17.5234 54.9827 17.4584 52.8711 17.3831V0.466503C54.9827 0.374137 57.1421 0.298876 59.3493 0.244141Z" fill="#3D3D3D"/>
<path d="M72.8215 0.0112335V17.7797C70.645 17.7694 68.489 17.7523 66.3604 17.7147V0.0830736C68.489 0.0454431 70.6313 0.0180754 72.8215 0.0078125V0.0112335Z" fill="#3D3D3D"/>
<path d="M86.2941 0.0835589V17.7152C84.1655 17.7528 82.0061 17.7699 79.833 17.7802V0.0117188C82.0232 0.0219816 84.1655 0.0493493 86.2941 0.0869798V0.0835589Z" fill="#3D3D3D"/>
<path d="M99.7697 0.455761V17.3792C97.6581 17.4613 95.4987 17.5263 93.3086 17.5742V0.233398C95.5158 0.288134 97.6581 0.363395 99.7697 0.455761Z" fill="#3D3D3D"/>
<path d="M113.259 1.1815V16.74C111.165 16.87 109.006 16.9898 106.781 17.0924V0.78125C109.002 0.894142 111.162 1.03098 113.259 1.1815Z" fill="#3D3D3D"/>
<path d="M127.049 2.4161V15.6621C124.986 15.8673 122.826 16.052 120.571 16.2299V1.75586C122.84 1.95085 125.017 2.17322 127.049 2.4161Z" fill="#3D3D3D"/>
<path d="M140.05 4.45122V14.0094C138.079 14.3344 135.923 14.6491 133.572 14.9399V3.28125C136.015 3.64387 138.188 4.04412 140.05 4.45122Z" fill="#3D3D3D"/>
<path d="M112.935 37.5051C152.213 37.5051 184.055 30.9498 184.055 22.8634C184.055 14.777 152.213 8.22168 112.935 8.22168C73.656 8.22168 41.8145 14.777 41.8145 22.8634C41.8145 30.9498 73.656 37.5051 112.935 37.5051Z" fill="#111111"/>
<path d="M184.628 25.7781C183.422 25.7781 182.404 24.8476 182.308 23.6229C182.001 19.6614 158.121 12.2756 113.552 12.2756C64.942 12.2756 44.766 19.2748 44.766 23.0242C44.766 24.3139 43.7204 25.3573 42.4357 25.3573C41.151 25.3573 40.1055 24.3105 40.1055 23.0242C40.1055 8.35173 101.29 7.60938 113.556 7.60938C138.526 7.60938 186.005 10.8832 186.958 23.2671C187.057 24.5534 186.097 25.672 184.816 25.7712C184.755 25.7781 184.693 25.7781 184.635 25.7781H184.628Z" fill="#3D3D3D"/>
<path d="M113.553 39.9993C84.0286 39.9993 40.1025 35.4768 40.1025 23.0245C40.1025 21.7348 41.1481 20.6914 42.4328 20.6914C43.7175 20.6914 44.763 21.7382 44.763 23.0245C44.763 27.3178 68.3866 35.3331 113.549 35.3331C158.712 35.3331 182.336 27.3212 182.336 23.0245C182.336 21.7348 183.382 20.6914 184.666 20.6914C185.951 20.6914 186.996 21.7382 186.996 23.0245C186.996 35.4768 143.07 39.9993 113.546 39.9993H113.553Z" fill="#727272"/>
<path d="M113.73 36.0887C77.7516 36.0887 40.5361 30.6836 40.5361 21.642C40.5361 12.6004 77.7516 7.19531 113.73 7.19531C149.709 7.19531 186.436 12.6004 186.436 21.642C186.436 30.6836 149.47 36.0887 113.73 36.0887ZM113.73 8.74843C71.5126 8.74843 42.0873 15.5425 42.0873 21.642C42.0873 27.7416 71.5092 34.5356 113.73 34.5356C155.951 34.5356 184.881 27.7416 184.881 21.642C184.881 15.5425 155.661 8.74843 113.73 8.74843Z" fill="#919191"/>
</g>
<defs>
<clipPath id="clip0_2_164100">
<rect width="187" height="40" fill="white"/>
</clipPath>
</defs>
</svg>
