<svg width="306" height="425" viewBox="0 0 306 425" fill="none" xmlns="http://www.w3.org/2000/svg">
<path d="M75.4278 420.325L219.341 424.109C262.094 425.242 297.692 391.481 298.825 348.751L305.802 83.2528C306.935 40.5228 273.155 4.94436 230.402 3.81204L86.4888 0.0276703C43.7353 -1.10464 8.13704 32.6561 7.0041 75.3861L0.0276854 340.884C-1.10525 383.614 32.6743 419.193 75.4278 420.325Z" fill="#999999"/>
<path d="M66.009 124.345L245.52 129.053C258.758 129.411 269.789 118.952 270.117 105.721L270.952 73.7782C271.309 60.548 260.845 49.5228 247.607 49.195L68.0959 44.4869C54.8584 44.1294 43.8271 54.5884 43.4992 67.8186L42.6647 99.7619C42.3069 112.992 52.7715 124.017 66.009 124.345Z" fill="#C9D037"/>
<path d="M43.0311 160.837L42.5181 180.288C42.3207 187.774 48.232 194.002 55.7213 194.199L75.7793 194.728C83.2687 194.925 89.5 189.017 89.6974 181.531L90.2105 162.08C90.4079 154.595 84.4966 148.367 77.0072 148.17L56.9493 147.641C49.4599 147.444 43.2286 153.352 43.0311 160.837Z" fill="#707070"/>
<g style="mix-blend-mode:overlay" opacity="0.4">
<path d="M89.9205 162.634L89.4434 180.602C89.2347 188.498 82.646 194.756 74.7452 194.547L56.2304 194.07C50.2079 193.921 45.1694 190.077 43.2314 184.743C45.4377 186.233 48.0316 187.097 50.8044 187.187L69.3188 187.664C77.2196 187.872 83.8087 181.615 84.0174 173.718L84.4942 155.75C84.5538 153.873 84.1962 152.026 83.5403 150.387C87.5354 153.069 90.0398 157.598 89.9205 162.663V162.634Z" fill="black"/>
</g>
<path d="M102.869 182.662L103.381 163.24C103.579 155.764 109.819 149.848 117.3 150.045L137.328 150.572C144.808 150.769 150.728 157.006 150.531 164.483L150.019 183.904C149.821 191.381 143.581 197.297 136.1 197.1L116.072 196.573C108.592 196.376 102.672 190.139 102.869 182.662Z" fill="#707070"/>
<g style="mix-blend-mode:overlay" opacity="0.4">
<path d="M150.264 165.047L149.787 183.015C149.578 190.911 142.989 197.169 135.088 196.961L116.574 196.484C110.551 196.335 105.513 192.461 103.575 187.157C105.781 188.647 108.375 189.511 111.148 189.6L129.662 190.077C137.563 190.286 144.152 184.028 144.361 176.132L144.837 158.164C144.897 156.287 144.539 154.439 143.884 152.8C147.879 155.482 150.383 160.011 150.264 165.077V165.047Z" fill="black"/>
</g>
<path d="M163.252 185.076L163.765 165.655C163.962 158.178 170.202 152.262 177.683 152.459L197.711 152.986C205.192 153.183 211.111 159.42 210.914 166.897L210.402 186.318C210.205 193.795 203.965 199.711 196.484 199.514L176.456 198.987C168.975 198.79 163.055 192.553 163.252 185.076Z" fill="#707070"/>
<g style="mix-blend-mode:overlay" opacity="0.4">
<path d="M210.631 167.461L210.154 185.429C209.945 193.326 203.356 199.583 195.456 199.375L176.941 198.898C170.918 198.749 165.88 194.875 163.942 189.571C166.148 191.061 168.742 191.925 171.515 192.015L190.029 192.491C197.93 192.7 204.519 186.442 204.728 178.546L205.205 160.578C205.264 158.701 204.907 156.853 204.251 155.214C208.246 157.896 210.75 162.425 210.631 167.491V167.461Z" fill="black"/>
</g>
<path d="M224.117 168.062L223.604 187.513C223.407 194.999 229.318 201.227 236.807 201.424L256.865 201.953C264.355 202.15 270.586 196.242 270.783 188.756L271.296 169.305C271.494 161.82 265.583 155.592 258.093 155.395L238.035 154.866C230.546 154.669 224.315 160.577 224.117 168.062Z" fill="#707070"/>
<g style="mix-blend-mode:overlay" opacity="0.4">
<path d="M271.006 169.875L270.529 187.843C270.321 195.739 263.732 201.997 255.831 201.788L237.316 201.311C231.294 201.162 226.255 197.289 224.317 191.985C226.524 193.475 229.118 194.339 231.89 194.428L250.405 194.905C258.306 195.114 264.895 188.856 265.103 180.96L265.58 162.991C265.64 161.114 265.282 159.267 264.626 157.628C268.621 160.31 271.126 164.839 271.006 169.905V169.875Z" fill="black"/>
</g>
<path d="M40.4478 240.576L40.96 221.154C41.1572 213.678 47.3975 207.761 54.8782 207.958L74.9063 208.486C82.387 208.683 88.3067 214.92 88.1095 222.397L87.5973 241.818C87.4001 249.295 81.1599 255.211 73.6791 255.014L53.651 254.486C46.1703 254.289 40.2506 248.052 40.4478 240.576Z" fill="#707070"/>
<g style="mix-blend-mode:overlay" opacity="0.4">
<path d="M87.9225 222.969L87.4454 240.936C87.2367 248.833 80.6479 255.091 72.7472 254.882L54.2327 254.405C48.2102 254.256 43.1713 250.382 41.2334 245.078C43.4396 246.568 46.0336 247.432 48.8063 247.522L67.3208 247.999C75.2216 248.207 81.8106 241.95 82.0193 234.053L82.4965 216.085C82.5561 214.208 82.1981 212.361 81.5422 210.722C85.5373 213.403 88.0417 217.933 87.9225 222.998V222.969Z" fill="black"/>
</g>
<path d="M100.855 243.014L101.367 223.592C101.564 216.116 107.805 210.199 115.285 210.396L135.314 210.924C142.794 211.121 148.714 217.358 148.517 224.835L148.005 244.256C147.807 251.733 141.567 257.649 134.086 257.452L114.058 256.924C106.578 256.727 100.658 250.49 100.855 243.014Z" fill="#707070"/>
<g style="mix-blend-mode:overlay" opacity="0.4">
<path d="M148.257 225.383L147.78 243.351C147.572 251.247 140.983 257.505 133.082 257.296L114.567 256.819C108.545 256.67 103.506 252.796 101.568 247.492C103.775 248.982 106.368 249.847 109.141 249.936L127.656 250.413C135.557 250.621 142.145 244.364 142.354 236.467L142.831 218.499C142.891 216.622 142.533 214.775 141.877 213.136C145.872 215.818 148.376 220.347 148.257 225.412V225.383Z" fill="black"/>
</g>
<path d="M161.751 226.008L161.238 245.46C161.041 252.945 166.952 259.173 174.442 259.37L194.499 259.898C201.989 260.096 208.22 254.188 208.418 246.703L208.931 227.251C209.128 219.766 203.217 213.538 195.727 213.341L175.67 212.812C168.18 212.615 161.949 218.523 161.751 226.008Z" fill="#707070"/>
<g style="mix-blend-mode:overlay" opacity="0.4">
<path d="M208.633 227.804L208.156 245.773C207.947 253.669 201.358 259.926 193.457 259.718L174.943 259.241C168.92 259.092 163.882 255.218 161.944 249.914C164.15 251.404 166.744 252.268 169.516 252.358L188.031 252.835C195.932 253.043 202.521 246.786 202.729 238.889L203.207 220.921C203.266 219.044 202.908 217.196 202.252 215.558C206.247 218.239 208.752 222.769 208.633 227.834V227.804Z" fill="black"/>
</g>
<path d="M222.111 228.414L221.598 247.865C221.4 255.351 227.312 261.578 234.801 261.776L254.859 262.304C262.348 262.501 268.58 256.594 268.777 249.108L269.29 229.657C269.487 222.172 263.576 215.944 256.087 215.746L236.029 215.218C228.54 215.021 222.308 220.929 222.111 228.414Z" fill="#707070"/>
<g style="mix-blend-mode:overlay" opacity="0.4">
<path d="M269.016 230.218L268.539 248.186C268.33 256.083 261.741 262.34 253.841 262.131L235.326 261.655C229.304 261.506 224.265 257.632 222.327 252.328C224.533 253.818 227.127 254.682 229.9 254.771L248.415 255.248C256.315 255.457 262.904 249.199 263.113 241.303L263.59 223.335C263.649 221.457 263.292 219.61 262.636 217.971C266.631 220.653 269.135 225.182 269.016 230.248V230.218Z" fill="black"/>
</g>
<path d="M38.4898 300.959L39.002 281.538C39.1992 274.061 45.4394 268.144 52.9202 268.342L72.9483 268.869C80.429 269.066 86.3487 275.303 86.1515 282.78L85.6393 302.201C85.4421 309.678 79.2019 315.594 71.7211 315.397L51.693 314.869C44.2123 314.672 38.2926 308.435 38.4898 300.959Z" fill="#707070"/>
<g style="mix-blend-mode:overlay" opacity="0.4">
<path d="M85.9166 283.312L85.4395 301.28C85.2308 309.176 78.6417 315.434 70.741 315.225L52.2265 314.748C46.204 314.599 41.1655 310.755 39.2275 305.422C41.4338 306.912 44.0274 307.776 46.8001 307.865L65.3149 308.342C73.2157 308.551 79.8044 302.293 80.0131 294.396L80.4902 276.429C80.5499 274.551 80.1923 272.704 79.5364 271.065C83.5315 273.747 86.0359 278.276 85.9166 283.342V283.312Z" fill="black"/>
</g>
<path d="M99.266 283.89L98.753 303.341C98.5556 310.826 104.467 317.054 111.956 317.252L132.014 317.78C139.504 317.978 145.735 312.069 145.932 304.584L146.445 285.133C146.643 277.648 140.731 271.42 133.242 271.223L113.184 270.694C105.695 270.497 99.4634 276.405 99.266 283.89Z" fill="#707070"/>
<g style="mix-blend-mode:overlay" opacity="0.4">
<path d="M146.259 285.734L145.782 303.702C145.574 311.598 138.984 317.856 131.084 317.648L112.569 317.171C106.547 317.022 101.508 313.178 99.5703 307.844C101.777 309.334 104.371 310.198 107.143 310.287L125.658 310.764C133.558 310.973 140.147 304.715 140.356 296.819L140.833 278.851C140.893 276.974 140.535 275.126 139.879 273.487C143.874 276.169 146.379 280.698 146.259 285.764V285.734Z" fill="black"/>
</g>
<path d="M159.745 286.359L159.232 305.81C159.035 313.296 164.946 319.524 172.436 319.721L192.494 320.249C199.983 320.447 206.214 314.539 206.412 307.053L206.925 287.602C207.122 280.117 201.211 273.889 193.722 273.692L173.664 273.163C166.174 272.966 159.943 278.874 159.745 286.359Z" fill="#707070"/>
<g style="mix-blend-mode:overlay" opacity="0.4">
<path d="M206.643 288.148L206.166 306.116C205.957 314.012 199.368 320.27 191.468 320.061L172.953 319.584C166.931 319.435 161.892 315.591 159.954 310.258C162.16 311.747 164.754 312.612 167.527 312.701L186.041 313.178C193.942 313.386 200.531 307.129 200.74 299.232L201.217 281.264C201.276 279.387 200.919 277.54 200.263 275.901C204.258 278.583 206.762 283.112 206.643 288.178V288.148Z" fill="black"/>
</g>
<path d="M219.432 308.096L219.944 288.675C220.141 281.198 226.381 275.282 233.862 275.479L253.89 276.007C261.371 276.204 267.291 282.441 267.094 289.917L266.581 309.339C266.384 316.815 260.144 322.732 252.663 322.535L232.635 322.007C225.154 321.81 219.234 315.573 219.432 308.096Z" fill="#707070"/>
<g style="mix-blend-mode:overlay" opacity="0.4">
<path d="M267.01 290.553L266.533 308.522C266.325 316.418 259.735 322.676 251.835 322.467L233.32 321.99C227.298 321.841 222.259 317.997 220.321 312.663C222.528 314.153 225.121 315.017 227.894 315.107L246.409 315.584C254.309 315.792 260.898 309.535 261.107 301.638L261.584 283.67C261.644 281.793 261.286 279.946 260.63 278.307C264.625 280.988 267.13 285.518 267.01 290.583V290.553Z" fill="black"/>
</g>
<path d="M36.8768 341.739L36.3638 361.191C36.1664 368.676 42.0777 374.904 49.5671 375.101L69.625 375.63C77.1144 375.827 83.3457 369.919 83.5431 362.434L84.0562 342.982C84.2536 335.497 78.3423 329.269 70.8529 329.072L50.795 328.544C43.3056 328.346 37.0743 334.254 36.8768 341.739Z" fill="#707070"/>
<g style="mix-blend-mode:overlay" opacity="0.4">
<path d="M83.8942 343.656L83.417 361.624C83.2083 369.52 76.6196 375.778 68.7189 375.569L50.204 375.093C44.1816 374.944 39.143 371.1 37.2051 365.766C39.4113 367.256 42.0053 368.12 44.778 368.209L63.2925 368.686C71.1932 368.895 77.7823 362.637 77.991 354.741L78.4682 336.773C78.5278 334.895 78.1698 333.048 77.5139 331.409C81.509 334.091 84.0134 338.62 83.8942 343.686V343.656Z" fill="black"/>
</g>
<path d="M97.3798 344.265L96.8667 363.716C96.6693 371.201 102.581 377.429 110.07 377.627L130.128 378.155C137.617 378.353 143.849 372.444 144.046 364.959L144.559 345.508C144.757 338.023 138.845 331.795 131.356 331.598L111.298 331.069C103.809 330.872 97.5772 336.78 97.3798 344.265Z" fill="#707070"/>
<g style="mix-blend-mode:overlay" opacity="0.4">
<path d="M144.269 346.069L143.792 364.037C143.583 371.933 136.995 378.191 129.094 377.983L110.579 377.506C104.557 377.357 99.518 373.483 97.5801 368.179C99.7863 369.669 102.38 370.533 105.153 370.622L123.667 371.099C131.568 371.308 138.157 365.05 138.366 357.154L138.843 339.186C138.903 337.309 138.545 335.461 137.889 333.822C141.884 336.504 144.388 341.033 144.269 346.099V346.069Z" fill="black"/>
</g>
<path d="M157.579 346.591L157.066 366.042C156.869 373.527 162.78 379.755 170.27 379.952L190.328 380.481C197.817 380.678 204.048 374.77 204.246 367.285L204.759 347.834C204.956 340.348 199.045 334.121 191.556 333.923L171.498 333.395C164.008 333.197 157.777 339.105 157.579 346.591Z" fill="#707070"/>
<g style="mix-blend-mode:overlay" opacity="0.4">
<path d="M204.637 348.483L204.16 366.451C203.951 374.347 197.362 380.605 189.462 380.396L170.947 379.919C164.924 379.77 159.886 375.926 157.948 370.593C160.154 372.082 162.748 372.947 165.521 373.036L184.035 373.513C191.936 373.721 198.525 367.464 198.734 359.567L199.211 341.599C199.27 339.722 198.912 337.875 198.257 336.236C202.252 338.918 204.756 343.447 204.637 348.513V348.483Z" fill="black"/>
</g>
<path d="M218.115 349.084L217.602 368.535C217.404 376.021 223.315 382.249 230.805 382.446L250.863 382.975C258.352 383.172 264.584 377.264 264.781 369.778L265.294 350.327C265.491 342.842 259.58 336.614 252.091 336.417L232.033 335.888C224.543 335.691 218.312 341.599 218.115 349.084Z" fill="#707070"/>
<g style="mix-blend-mode:overlay" opacity="0.4">
<path d="M264.988 350.897L264.511 368.865C264.303 376.761 257.714 383.019 249.813 382.81L231.298 382.333C225.276 382.184 220.237 378.311 218.299 373.007C220.506 374.497 223.1 375.361 225.872 375.45L244.387 375.927C252.287 376.136 258.877 369.878 259.085 361.982L259.562 344.013C259.622 342.136 259.264 340.289 258.608 338.65C262.603 341.332 265.108 345.861 264.988 350.927V350.897Z" fill="black"/>
</g>
<g style="mix-blend-mode:overlay" opacity="0.4">
<path d="M270.98 73.8039L270.146 105.717C269.788 118.918 258.756 129.406 245.519 129.049L66.008 124.341C57.183 124.103 49.6699 119.156 45.645 111.945C48.5072 113.316 51.727 114.12 55.1854 114.21L234.696 118.918C247.904 119.275 258.965 108.786 259.323 95.586L260.158 63.6131C260.277 59.203 259.234 55.0611 257.147 51.4556C265.495 55.3591 271.189 63.9706 270.951 73.7741L270.98 73.8039Z" fill="black"/>
</g>
<g style="mix-blend-mode:overlay" opacity="0.3">
<path d="M305.8 82.8072L298.793 349.229C297.69 391.691 262.3 425.273 219.756 424.17L74.9781 420.356C48.1752 419.641 24.9201 405.308 11.6528 384.152C24.7711 396.071 42.1527 403.461 61.2338 403.937L206.011 407.752C248.556 408.884 283.916 375.332 285.049 332.81L292.055 66.4779C292.472 50.8043 288.15 36.1141 280.458 23.7778C296.557 38.2893 306.396 59.5053 305.8 82.8072Z" fill="black"/>
</g>
<g style="mix-blend-mode:overlay" opacity="0.3">
<path d="M62.4623 66.0027C62.2536 74.3163 98.18 79.2328 143.587 80.4247C188.994 81.6167 226.679 78.637 226.917 70.3234C227.126 62.0099 192.512 59.5962 147.105 58.3745C101.698 57.1826 62.7008 57.6593 62.4623 65.9729V66.0027Z" fill="white"/>
</g>
<g style="mix-blend-mode:overlay" opacity="0.15">
<path d="M58.6148 19.3047C58.4061 27.6183 101.458 26.7242 153.573 28.0949C205.688 29.4656 247.13 32.5646 247.338 24.2511C247.547 15.9375 207.805 13.3749 155.69 12.0042C103.574 10.6335 58.8235 10.9613 58.585 19.2749L58.6148 19.3047Z" fill="white"/>
</g>
<g style="mix-blend-mode:overlay" opacity="0.15">
<path d="M22.6277 73.5689C14.3096 73.3603 15.2042 116.388 13.8327 168.475C12.4613 220.561 9.3607 261.98 17.6788 262.189C25.997 262.397 28.561 222.677 29.9324 170.59C31.3039 118.504 30.9757 73.7774 22.6277 73.5391V73.5689Z" fill="white"/>
</g>
<g style="mix-blend-mode:multiply">
<g filter="url(#filter0_d_138_202103)">
<rect x="52.2964" y="56" width="43.7232" height="59" rx="12.6429" transform="rotate(1.25912 52.2964 56)" fill="#D9D9D9"/>
<rect x="108.122" y="57.2271" width="43.7232" height="59" rx="12.6429" transform="rotate(1.25912 108.122 57.2271)" fill="#D9D9D9"/>
<rect x="163.948" y="58.4541" width="43.7232" height="59" rx="12.6429" transform="rotate(1.25912 163.948 58.4541)" fill="#D9D9D9"/>
<rect x="219.774" y="59.6812" width="43.7232" height="59" rx="12.6429" transform="rotate(1.25912 219.774 59.6812)" fill="#D9D9D9"/>
</g>
</g>
<path d="M65.5268 84.3694C65.5728 82.8394 65.7268 81.4481 65.9886 80.1954C66.26 78.9337 66.8392 77.8399 67.7261 76.9142C68.2733 76.4171 68.897 76.0157 69.5972 75.71C70.2974 75.4042 71.2026 75.2681 72.3127 75.3015C73.4415 75.3355 74.3416 75.526 75.0127 75.873C75.6839 76.22 76.2777 76.6581 76.794 77.1872C77.6236 78.1646 78.1313 79.291 78.317 80.5665C78.5123 81.833 78.5869 83.2312 78.5409 84.7612C78.4954 86.2725 78.3368 87.6637 78.0651 88.9348C77.803 90.1968 77.2285 91.2906 76.3416 92.2164C75.7944 92.7135 75.1753 93.115 74.4845 93.421C73.7936 93.7271 72.8838 93.8631 71.755 93.8291C70.6448 93.7957 69.7494 93.6053 69.0689 93.258C68.3884 92.9107 67.79 92.4725 67.2737 91.9434C66.444 90.966 65.9317 89.8394 65.7367 88.5636C65.5512 87.2788 65.4813 85.8807 65.5268 84.3694ZM69.7949 84.4979C69.7561 85.7853 69.7707 86.8502 69.8387 87.6927C69.9068 88.5351 70.0372 89.1646 70.2301 89.5813C70.378 89.9406 70.5987 90.2087 70.8922 90.3856C71.1859 90.5532 71.5054 90.6421 71.8506 90.6525C72.2144 90.6635 72.5433 90.594 72.8373 90.4441C73.1406 90.2945 73.3724 90.04 73.5326 89.6807C73.7409 89.2761 73.9043 88.6554 74.0228 87.8186C74.1507 86.9821 74.2341 85.9201 74.2728 84.6327C74.3121 83.3266 74.293 82.2569 74.2154 81.4235C74.1471 80.5904 74.0211 79.9657 73.8376 79.5493C73.6897 79.19 73.4735 78.9267 73.1891 78.7594C72.9049 78.5828 72.5809 78.489 72.2171 78.478C71.8719 78.4677 71.5475 78.5419 71.2439 78.7009C70.9406 78.8505 70.7044 79.1001 70.5351 79.4499C70.3268 79.8545 70.1589 80.4703 70.0313 81.2975C69.913 82.125 69.8342 83.1918 69.7949 84.4979Z" fill="black"/>
<path d="M122.501 86.0842C122.547 84.5543 122.701 83.1629 122.963 81.9102C123.235 80.6485 123.814 79.5548 124.701 78.629C125.248 78.132 125.872 77.7305 126.572 77.4248C127.272 77.1191 128.177 76.9829 129.287 77.0163C130.416 77.0503 131.316 77.2408 131.987 77.5878C132.659 77.9349 133.252 78.3729 133.769 78.902C134.598 79.8794 135.106 81.0059 135.292 82.2814C135.487 83.5478 135.562 84.9461 135.515 86.476C135.47 87.9873 135.311 89.3785 135.04 90.6496C134.778 91.9116 134.203 93.0055 133.316 93.9312C132.769 94.4283 132.15 94.8299 131.459 95.1359C130.768 95.4419 129.858 95.5779 128.73 95.5439C127.619 95.5105 126.724 95.3202 126.044 94.9729C125.363 94.6255 124.765 94.1873 124.248 93.6582C123.419 92.6808 122.906 91.5542 122.711 90.2785C122.526 88.9936 122.456 87.5956 122.501 86.0842ZM126.769 86.2127C126.731 87.5001 126.745 88.5651 126.813 89.4075C126.881 90.2499 127.012 90.8795 127.205 91.2961C127.353 91.6554 127.573 91.9235 127.867 92.1004C128.161 92.268 128.48 92.357 128.825 92.3674C129.189 92.3783 129.518 92.3089 129.812 92.159C130.115 92.0094 130.347 91.7549 130.507 91.3955C130.715 90.991 130.879 90.3703 130.997 89.5335C131.125 88.6969 131.209 87.635 131.247 86.3475C131.287 85.0415 131.268 83.9717 131.19 83.1384C131.122 82.3053 130.996 81.6805 130.812 81.2641C130.664 80.9049 130.448 80.6416 130.164 80.4743C129.88 80.2976 129.556 80.2038 129.192 80.1929C128.847 80.1825 128.522 80.2568 128.219 80.4157C127.915 80.5653 127.679 80.815 127.51 81.1647C127.301 81.5693 127.133 82.1852 127.006 83.0124C126.888 83.8399 126.809 84.9067 126.769 86.2127Z" fill="black"/>
<path d="M179.476 87.7996C179.522 86.2696 179.676 84.8783 179.937 83.6256C180.209 82.3638 180.788 81.2701 181.675 80.3444C182.222 79.8473 182.846 79.4459 183.546 79.1401C184.246 78.8344 185.151 78.6982 186.261 78.7317C187.39 78.7656 188.29 78.9561 188.961 79.3032C189.633 79.6502 190.226 80.0883 190.743 80.6174C191.572 81.5948 192.08 82.7212 192.266 83.9967C192.461 85.2632 192.536 86.6614 192.49 88.1914C192.444 89.7027 192.286 91.0939 192.014 92.3649C191.752 93.6269 191.177 94.7208 190.29 95.6466C189.743 96.1436 189.124 96.5452 188.433 96.8512C187.742 97.1572 186.833 97.2933 185.704 97.2593C184.594 97.2258 183.698 97.0355 183.018 96.6882C182.337 96.3409 181.739 95.9027 181.222 95.3736C180.393 94.3962 179.88 93.2696 179.685 91.9938C179.5 90.709 179.43 89.3109 179.476 87.7996ZM183.744 87.9281C183.705 89.2155 183.719 90.2804 183.787 91.1228C183.855 91.9653 183.986 92.5948 184.179 93.0115C184.327 93.3707 184.547 93.6388 184.841 93.8157C185.135 93.9833 185.454 94.0723 185.799 94.0827C186.163 94.0937 186.492 94.0242 186.786 93.8743C187.089 93.7247 187.321 93.4702 187.481 93.1109C187.69 92.7063 187.853 92.0856 187.972 91.2488C188.099 90.4123 188.183 89.3503 188.222 88.0629C188.261 86.7568 188.242 85.6871 188.164 84.8537C188.096 84.0206 187.97 83.3958 187.786 82.9795C187.638 82.6202 187.422 82.3569 187.138 82.1896C186.854 82.013 186.53 81.9192 186.166 81.9082C185.821 81.8978 185.496 81.9721 185.193 82.131C184.889 82.2806 184.653 82.5303 184.484 82.88C184.276 83.2846 184.108 83.9005 183.98 84.7277C183.862 85.5552 183.783 86.622 183.744 87.9281Z" fill="black"/>
<path d="M236.45 89.5149C236.496 87.9849 236.65 86.5936 236.911 85.3409C237.183 84.0792 237.762 82.9854 238.649 82.0597C239.196 81.5626 239.82 81.1612 240.52 80.8555C241.22 80.5497 242.125 80.4136 243.236 80.447C244.364 80.481 245.264 80.6715 245.936 81.0185C246.607 81.3655 247.201 81.8036 247.717 82.3327C248.546 83.3101 249.054 84.4366 249.24 85.7121C249.435 86.9785 249.51 88.3767 249.464 89.9067C249.418 91.418 249.26 92.8092 248.988 94.0803C248.726 95.3423 248.151 96.4362 247.264 97.3619C246.717 97.859 246.098 98.2605 245.407 98.5666C244.716 98.8726 243.807 99.0086 242.678 98.9746C241.568 98.9412 240.672 98.7508 239.992 98.4035C239.311 98.0562 238.713 97.618 238.197 97.0889C237.367 96.1115 236.855 94.9849 236.66 93.7091C236.474 92.4243 236.404 91.0262 236.45 89.5149ZM240.718 89.6434C240.679 90.9308 240.694 91.9957 240.762 92.8382C240.83 93.6806 240.96 94.3101 241.153 94.7268C241.301 95.0861 241.522 95.3542 241.815 95.5311C242.109 95.6987 242.428 95.7876 242.773 95.798C243.137 95.809 243.466 95.7395 243.76 95.5896C244.063 95.44 244.295 95.1856 244.455 94.8262C244.664 94.4216 244.827 93.8009 244.946 92.9641C245.074 92.1276 245.157 91.0656 245.196 89.7782C245.235 88.4721 245.216 87.4024 245.138 86.569C245.07 85.7359 244.944 85.1112 244.76 84.6948C244.613 84.3355 244.396 84.0722 244.112 83.9049C243.828 83.7283 243.504 83.6345 243.14 83.6236C242.795 83.6132 242.47 83.6874 242.167 83.8464C241.863 83.996 241.627 84.2456 241.458 84.5954C241.25 85 241.082 85.6159 240.954 86.4431C240.836 87.2705 240.757 88.3373 240.718 89.6434Z" fill="black"/>
<defs>
<filter id="filter0_d_138_202103" x="48.8929" y="56" width="216.701" height="67.8417" filterUnits="userSpaceOnUse" color-interpolation-filters="sRGB">
<feFlood flood-opacity="0" result="BackgroundImageFix"/>
<feColorMatrix in="SourceAlpha" type="matrix" values="0 0 0 0 0 0 0 0 0 0 0 0 0 0 0 0 0 0 127 0" result="hardAlpha"/>
<feOffset dy="2.10714"/>
<feGaussianBlur stdDeviation="1.05357"/>
<feComposite in2="hardAlpha" operator="out"/>
<feColorMatrix type="matrix" values="0 0 0 0 0 0 0 0 0 0 0 0 0 0 0 0 0 0 0.25 0"/>
<feBlend mode="normal" in2="BackgroundImageFix" result="effect1_dropShadow_138_202103"/>
<feBlend mode="normal" in="SourceGraphic" in2="effect1_dropShadow_138_202103" result="shape"/>
</filter>
</defs>
</svg>
